<?xml version="1.0" encoding="UTF-8" standalone="no"?>
<!DOCTYPE svg PUBLIC "-//W3C//DTD SVG 1.1//EN"
 "http://www.w3.org/Graphics/SVG/1.1/DTD/svg11.dtd">
<!-- Generated by graphviz version 2.43.0 (0)
 -->
<!-- Title: /home/ffn/Workspace/ros2_humble_ws/src/III&#45;Drone&#45;Core/include/iii_drone_core/control/behavior_state_parameters.hpp Pages: 1 -->
<!--zoomable 500 -->

<svg id="main" version="1.1" xmlns="http://www.w3.org/2000/svg" xmlns:xlink="http://www.w3.org/1999/xlink" xml:space="preserve" onload="init(evt)">
<style type="text/css"><![CDATA[
.node, .edge {opacity: 0.7;}
.node.selected, .edge.selected {opacity: 1;}
.edge:hover path { stroke: red; }
.edge:hover polygon { stroke: red; fill: red; }
]]></style>

<defs>
  <circle id="rim" cx="0" cy="0" r="7"/>
  <circle id="rim2" cx="0" cy="0" r="3.5"/>
  <g id="zoomPlus">
    <use xlink:href="#rim" fill="#404040"><set attributeName="fill" to="#808080" begin="zoomplus.mouseover" end="zoomplus.mouseout"/></use>
    <path d="M-4,0h8M0,-4v8" fill="none" stroke="white" stroke-width="1.5" pointer-events="none"/>
  </g>
  <g id="zoomMin">
    <use xlink:href="#rim" fill="#404040"><set attributeName="fill" to="#808080" begin="zoomminus.mouseover" end="zoomminus.mouseout"/></use>
    <path d="M-4,0h8" fill="none" stroke="white" stroke-width="1.5" pointer-events="none"/>
  </g>
  <g id="arrowUp" transform="translate(30 24)">
    <use xlink:href="#rim"/>
    <path pointer-events="none" fill="none" stroke="white" stroke-width="1.5" d="M0,-3.0v7 M-2.5,-0.5L0,-3.0L2.5,-0.5"/>
  </g>
  <g id="arrowRight" transform="rotate(90) translate(36 -43)">
    <use xlink:href="#rim"/>
    <path pointer-events="none" fill="none" stroke="white" stroke-width="1.5" d="M0,-3.0v7 M-2.5,-0.5L0,-3.0L2.5,-0.5"/>
  </g>
  <g id="arrowDown" transform="rotate(180) translate(-30 -48)">
    <use xlink:href="#rim"/>
    <path pointer-events="none" fill="none" stroke="white" stroke-width="1.5" d="M0,-3.0v7 M-2.5,-0.5L0,-3.0L2.5,-0.5"/>
  </g>
  <g id="arrowLeft" transform="rotate(270) translate(-36 17)">
    <use xlink:href="#rim"/>
    <path pointer-events="none" fill="none" stroke="white" stroke-width="1.5" d="M0,-3.0v7 M-2.5,-0.5L0,-3.0L2.5,-0.5"/>
  </g>
  <g id="resetDef">
    <use xlink:href="#rim2" fill="#404040"><set attributeName="fill" to="#808080" begin="reset.mouseover" end="reset.mouseout"/></use>
  </g>
</defs>
<script type="application/ecmascript">
var viewWidth = 820;
var viewHeight = 500;
var sectionId = 'dynsection-1';
</script>
<script type="application/ecmascript" xlink:href="svg.min.js"/>
<svg id="graph" class="graph">
<g id="viewport">
<title>/home/ffn/Workspace/ros2_humble_ws/src/III&#45;Drone&#45;Core/include/iii_drone_core/control/behavior_state_parameters.hpp</title>
<!-- Node1 -->
<g id="Node000001" class="node">
<title>Node1</title>
<g id="a_Node000001"><a xlink:title=" ">
<polygon fill="#999999" stroke="#666666" points="602,-492 427,-492 427,-429 602,-429 602,-492"/>
<text text-anchor="start" x="435" y="-480" font-family="Helvetica,sans-Serif" font-size="10.00">/home/ffn/Workspace</text>
<text text-anchor="start" x="435" y="-469" font-family="Helvetica,sans-Serif" font-size="10.00">/ros2_humble_ws/src</text>
<text text-anchor="start" x="435" y="-458" font-family="Helvetica,sans-Serif" font-size="10.00">/III&#45;Drone&#45;Core/include</text>
<text text-anchor="start" x="435" y="-447" font-family="Helvetica,sans-Serif" font-size="10.00">/iii_drone_core/control</text>
<text text-anchor="middle" x="514.5" y="-436" font-family="Helvetica,sans-Serif" font-size="10.00">/behavior_state_parameters.hpp</text>
</a>
</g>
</g>
<!-- Node2 -->
<g id="Node000002" class="node">
<title>Node2</title>
<g id="a_Node000002"><a xlink:href="behavior__state_8hpp.html" target="_top" xlink:title=" ">
<polygon fill="white" stroke="#666666" points="391.5,-387.5 265.5,-387.5 265.5,-324.5 391.5,-324.5 391.5,-387.5"/>
<text text-anchor="start" x="273.5" y="-375.5" font-family="Helvetica,sans-Serif" font-size="10.00">/home/ffn/Workspace</text>
<text text-anchor="start" x="273.5" y="-364.5" font-family="Helvetica,sans-Serif" font-size="10.00">/ros2_humble_ws/src</text>
<text text-anchor="start" x="273.5" y="-353.5" font-family="Helvetica,sans-Serif" font-size="10.00">/III&#45;Drone&#45;Core/include</text>
<text text-anchor="start" x="273.5" y="-342.5" font-family="Helvetica,sans-Serif" font-size="10.00">/iii_drone_core/control</text>
<text text-anchor="middle" x="328.5" y="-331.5" font-family="Helvetica,sans-Serif" font-size="10.00">/behavior_state.hpp</text>
</a>
</g>
</g>
<!-- Node1&#45;&gt;Node2 -->
<g id="edge1_Node000001_Node000002" class="edge">
<title>Node1&#45;&gt;Node2</title>
<g id="a_edge1_Node000001_Node000002"><a xlink:title=" ">
<path fill="none" stroke="#63b8ff" d="M449.91,-423.9C428.46,-412.09 404.79,-399.04 384.09,-387.63"/>
<polygon fill="#63b8ff" stroke="#63b8ff" points="448.5,-427.12 458.95,-428.89 451.88,-420.99 448.5,-427.12"/>
</a>
</g>
</g>
<!-- Node10 -->
<g id="Node000010" class="node">
<title>Node10</title>
<g id="a_Node000010"><a xlink:href="flight__controller__node__configurator_8hpp.html" target="_top" xlink:title=" ">
<polygon fill="white" stroke="#666666" points="619,-393 410,-393 410,-319 619,-319 619,-393"/>
<text text-anchor="start" x="418" y="-381" font-family="Helvetica,sans-Serif" font-size="10.00">/home/ffn/Workspace</text>
<text text-anchor="start" x="418" y="-370" font-family="Helvetica,sans-Serif" font-size="10.00">/ros2_humble_ws/src</text>
<text text-anchor="start" x="418" y="-359" font-family="Helvetica,sans-Serif" font-size="10.00">/III&#45;Drone&#45;Core/include</text>
<text text-anchor="start" x="418" y="-348" font-family="Helvetica,sans-Serif" font-size="10.00">/iii_drone_core/control</text>
<text text-anchor="start" x="418" y="-337" font-family="Helvetica,sans-Serif" font-size="10.00">/flight_controller_node</text>
<text text-anchor="middle" x="514.5" y="-326" font-family="Helvetica,sans-Serif" font-size="10.00">/flight_controller_node_configurator.hpp</text>
</a>
</g>
</g>
<!-- Node1&#45;&gt;Node10 -->
<g id="edge10_Node000001_Node000010" class="edge">
<title>Node1&#45;&gt;Node10</title>
<g id="a_edge10_Node000001_Node000010"><a xlink:title=" ">
<path fill="none" stroke="#63b8ff" d="M514.5,-418.7C514.5,-410.26 514.5,-401.41 514.5,-393.14"/>
<polygon fill="#63b8ff" stroke="#63b8ff" points="511,-418.75 514.5,-428.75 518,-418.75 511,-418.75"/>
</a>
</g>
</g>
<!-- Node12 -->
<g id="Node000012" class="node">
<title>Node12</title>
<g id="a_Node000012"><a xlink:href="behavior__state__parameters_8cpp.html" target="_top" xlink:title=" ">
<polygon fill="white" stroke="#666666" points="811.5,-382 637.5,-382 637.5,-330 811.5,-330 811.5,-382"/>
<text text-anchor="start" x="645.5" y="-370" font-family="Helvetica,sans-Serif" font-size="10.00">/home/ffn/Workspace</text>
<text text-anchor="start" x="645.5" y="-359" font-family="Helvetica,sans-Serif" font-size="10.00">/ros2_humble_ws/src</text>
<text text-anchor="start" x="645.5" y="-348" font-family="Helvetica,sans-Serif" font-size="10.00">/III&#45;Drone&#45;Core/src/control</text>
<text text-anchor="middle" x="724.5" y="-337" font-family="Helvetica,sans-Serif" font-size="10.00">/behavior_state_parameters.cpp</text>
</a>
</g>
</g>
<!-- Node1&#45;&gt;Node12 -->
<g id="edge13_Node000001_Node000012" class="edge">
<title>Node1&#45;&gt;Node12</title>
<g id="a_edge13_Node000001_Node000012"><a xlink:title=" ">
<path fill="none" stroke="#63b8ff" d="M586.33,-424.44C614.82,-410.53 646.94,-394.85 673.04,-382.12"/>
<polygon fill="#63b8ff" stroke="#63b8ff" points="584.67,-421.35 577.22,-428.89 587.74,-427.64 584.67,-421.35"/>
</a>
</g>
</g>
<!-- Node3 -->
<g id="Node000003" class="node">
<title>Node3</title>
<g id="a_Node000003"><a xlink:href="flight__controller__node_8hpp.html" target="_top" xlink:title=" ">
<polygon fill="white" stroke="#666666" points="545.5,-283 399.5,-283 399.5,-209 545.5,-209 545.5,-283"/>
<text text-anchor="start" x="407.5" y="-271" font-family="Helvetica,sans-Serif" font-size="10.00">/home/ffn/Workspace</text>
<text text-anchor="start" x="407.5" y="-260" font-family="Helvetica,sans-Serif" font-size="10.00">/ros2_humble_ws/src</text>
<text text-anchor="start" x="407.5" y="-249" font-family="Helvetica,sans-Serif" font-size="10.00">/III&#45;Drone&#45;Core/include</text>
<text text-anchor="start" x="407.5" y="-238" font-family="Helvetica,sans-Serif" font-size="10.00">/iii_drone_core/control</text>
<text text-anchor="start" x="407.5" y="-227" font-family="Helvetica,sans-Serif" font-size="10.00">/flight_controller_node</text>
<text text-anchor="middle" x="472.5" y="-216" font-family="Helvetica,sans-Serif" font-size="10.00">/flight_controller_node.hpp</text>
</a>
</g>
</g>
<!-- Node2&#45;&gt;Node3 -->
<g id="edge2_Node000002_Node000003" class="edge">
<title>Node2&#45;&gt;Node3</title>
<g id="a_edge2_Node000002_Node000003"><a xlink:title=" ">
<path fill="none" stroke="#63b8ff" d="M377.6,-318.17C392.72,-306.84 409.33,-294.37 424.38,-283.09"/>
<polygon fill="#63b8ff" stroke="#63b8ff" points="375.28,-315.54 369.38,-324.34 379.48,-321.14 375.28,-315.54"/>
</a>
</g>
</g>
<!-- Node5 -->
<g id="Node000005" class="node">
<title>Node5</title>
<g id="a_Node000005"><a xlink:href="maneuver__server_8hpp.html" target="_top" xlink:title=" ">
<polygon fill="white" stroke="#666666" points="183,-277.5 0,-277.5 0,-214.5 183,-214.5 183,-277.5"/>
<text text-anchor="start" x="8" y="-265.5" font-family="Helvetica,sans-Serif" font-size="10.00">/home/ffn/Workspace</text>
<text text-anchor="start" x="8" y="-254.5" font-family="Helvetica,sans-Serif" font-size="10.00">/ros2_humble_ws/src</text>
<text text-anchor="start" x="8" y="-243.5" font-family="Helvetica,sans-Serif" font-size="10.00">/III&#45;Drone&#45;Core/include</text>
<text text-anchor="start" x="8" y="-232.5" font-family="Helvetica,sans-Serif" font-size="10.00">/iii_drone_core/control</text>
<text text-anchor="middle" x="91.5" y="-221.5" font-family="Helvetica,sans-Serif" font-size="10.00">/maneuvers/maneuver_server.hpp</text>
</a>
</g>
</g>
<!-- Node2&#45;&gt;Node5 -->
<g id="edge4_Node000002_Node000005" class="edge">
<title>Node2&#45;&gt;Node5</title>
<g id="a_edge4_Node000002_Node000005"><a xlink:title=" ">
<path fill="none" stroke="#63b8ff" d="M255.86,-321.9C224.9,-307.79 189.01,-291.43 158.67,-277.61"/>
<polygon fill="#63b8ff" stroke="#63b8ff" points="254.75,-325.24 265.3,-326.2 257.65,-318.87 254.75,-325.24"/>
</a>
</g>
</g>
<!-- Node6 -->
<g id="Node000006" class="node">
<title>Node6</title>
<g id="a_Node000006"><a xlink:href="takeoff__maneuver__server_8hpp.html" target="_top" xlink:title=" ">
<polygon fill="white" stroke="#666666" points="372.5,-173 206.5,-173 206.5,-99 372.5,-99 372.5,-173"/>
<text text-anchor="start" x="214.5" y="-161" font-family="Helvetica,sans-Serif" font-size="10.00">/home/ffn/Workspace</text>
<text text-anchor="start" x="214.5" y="-150" font-family="Helvetica,sans-Serif" font-size="10.00">/ros2_humble_ws/src</text>
<text text-anchor="start" x="214.5" y="-139" font-family="Helvetica,sans-Serif" font-size="10.00">/III&#45;Drone&#45;Core/include</text>
<text text-anchor="start" x="214.5" y="-128" font-family="Helvetica,sans-Serif" font-size="10.00">/iii_drone_core/control</text>
<text text-anchor="start" x="214.5" y="-117" font-family="Helvetica,sans-Serif" font-size="10.00">/maneuvers/takeoff_maneuver</text>
<text text-anchor="middle" x="289.5" y="-106" font-family="Helvetica,sans-Serif" font-size="10.00">_server.hpp</text>
</a>
</g>
</g>
<!-- Node2&#45;&gt;Node6 -->
<g id="edge8_Node000002_Node000006" class="edge">
<title>Node2&#45;&gt;Node6</title>
<g id="a_edge8_Node000002_Node000006"><a xlink:title=" ">
<path fill="none" stroke="#63b8ff" d="M345.98,-314.78C356.44,-284.83 365.41,-243.35 352.5,-209 347.59,-195.94 339.12,-183.7 329.96,-173.14"/>
<polygon fill="#63b8ff" stroke="#63b8ff" points="342.59,-313.88 342.41,-324.47 349.16,-316.3 342.59,-313.88"/>
</a>
</g>
</g>
<!-- Node9 -->
<g id="Node000009" class="node">
<title>Node9</title>
<g id="a_Node000009"><a xlink:href="behavior__state_8cpp.html" target="_top" xlink:title=" ">
<polygon fill="white" stroke="#666666" points="343.5,-272 201.5,-272 201.5,-220 343.5,-220 343.5,-272"/>
<text text-anchor="start" x="209.5" y="-260" font-family="Helvetica,sans-Serif" font-size="10.00">/home/ffn/Workspace</text>
<text text-anchor="start" x="209.5" y="-249" font-family="Helvetica,sans-Serif" font-size="10.00">/ros2_humble_ws/src</text>
<text text-anchor="start" x="209.5" y="-238" font-family="Helvetica,sans-Serif" font-size="10.00">/III&#45;Drone&#45;Core/src/control</text>
<text text-anchor="middle" x="272.5" y="-227" font-family="Helvetica,sans-Serif" font-size="10.00">/behavior_state.cpp</text>
</a>
</g>
</g>
<!-- Node2&#45;&gt;Node9 -->
<g id="edge9_Node000002_Node000009" class="edge">
<title>Node2&#45;&gt;Node9</title>
<g id="a_edge9_Node000002_Node000009"><a xlink:title=" ">
<path fill="none" stroke="#63b8ff" d="M307.84,-315.17C300.41,-300.82 292.22,-285.03 285.6,-272.27"/>
<polygon fill="#63b8ff" stroke="#63b8ff" points="304.89,-317.07 312.6,-324.34 311.11,-313.85 304.89,-317.07"/>
</a>
</g>
</g>
<!-- Node4 -->
<g id="Node000004" class="node">
<title>Node4</title>
<g id="a_Node000004"><a xlink:href="flight__controller__node_8cpp.html" target="_top" xlink:title=" ">
<polygon fill="white" stroke="#666666" points="549,-167.5 396,-167.5 396,-104.5 549,-104.5 549,-167.5"/>
<text text-anchor="start" x="404" y="-155.5" font-family="Helvetica,sans-Serif" font-size="10.00">/home/ffn/Workspace</text>
<text text-anchor="start" x="404" y="-144.5" font-family="Helvetica,sans-Serif" font-size="10.00">/ros2_humble_ws/src</text>
<text text-anchor="start" x="404" y="-133.5" font-family="Helvetica,sans-Serif" font-size="10.00">/III&#45;Drone&#45;Core/src/control</text>
<text text-anchor="start" x="404" y="-122.5" font-family="Helvetica,sans-Serif" font-size="10.00">/flight_controller_node/flight</text>
<text text-anchor="middle" x="472.5" y="-111.5" font-family="Helvetica,sans-Serif" font-size="10.00">_controller_node.cpp</text>
</a>
</g>
</g>
<!-- Node3&#45;&gt;Node4 -->
<g id="edge3_Node000003_Node000004" class="edge">
<title>Node3&#45;&gt;Node4</title>
<g id="a_edge3_Node000003_Node000004"><a xlink:title=" ">
<path fill="none" stroke="#63b8ff" d="M472.5,-198.47C472.5,-188.02 472.5,-177.19 472.5,-167.58"/>
<polygon fill="#63b8ff" stroke="#63b8ff" points="469,-198.74 472.5,-208.74 476,-198.74 469,-198.74"/>
</a>
</g>
</g>
<!-- Node5&#45;&gt;Node6 -->
<g id="edge5_Node000005_Node000006" class="edge">
<title>Node5&#45;&gt;Node6</title>
<g id="a_edge5_Node000005_Node000006"><a xlink:title=" ">
<path fill="none" stroke="#63b8ff" d="M156.45,-209.57C177.85,-197.9 201.67,-184.91 223.17,-173.18"/>
<polygon fill="#63b8ff" stroke="#63b8ff" points="154.55,-206.62 147.44,-214.48 157.9,-212.77 154.55,-206.62"/>
</a>
</g>
</g>
<!-- Node8 -->
<g id="Node000008" class="node">
<title>Node8</title>
<g id="a_Node000008"><a xlink:href="maneuver__server_8cpp.html" target="_top" xlink:title=" ">
<polygon fill="white" stroke="#666666" points="182.5,-162 0.5,-162 0.5,-110 182.5,-110 182.5,-162"/>
<text text-anchor="start" x="8.5" y="-150" font-family="Helvetica,sans-Serif" font-size="10.00">/home/ffn/Workspace</text>
<text text-anchor="start" x="8.5" y="-139" font-family="Helvetica,sans-Serif" font-size="10.00">/ros2_humble_ws/src</text>
<text text-anchor="start" x="8.5" y="-128" font-family="Helvetica,sans-Serif" font-size="10.00">/III&#45;Drone&#45;Core/src/control</text>
<text text-anchor="middle" x="91.5" y="-117" font-family="Helvetica,sans-Serif" font-size="10.00">/maneuvers/maneuver_server.cpp</text>
</a>
</g>
</g>
<!-- Node5&#45;&gt;Node8 -->
<g id="edge7_Node000005_Node000008" class="edge">
<title>Node5&#45;&gt;Node8</title>
<g id="a_edge7_Node000005_Node000008"><a xlink:title=" ">
<path fill="none" stroke="#63b8ff" d="M91.5,-203.93C91.5,-189.92 91.5,-174.67 91.5,-162.27"/>
<polygon fill="#63b8ff" stroke="#63b8ff" points="88,-204.34 91.5,-214.34 95,-204.34 88,-204.34"/>
</a>
</g>
</g>
<!-- Node7 -->
<g id="Node000007" class="node">
<title>Node7</title>
<g id="a_Node000007"><a xlink:href="takeoff__maneuver__server_8cpp.html" target="_top" xlink:title=" ">
<polygon fill="white" stroke="#666666" points="372.5,-63 206.5,-63 206.5,0 372.5,0 372.5,-63"/>
<text text-anchor="start" x="214.5" y="-51" font-family="Helvetica,sans-Serif" font-size="10.00">/home/ffn/Workspace</text>
<text text-anchor="start" x="214.5" y="-40" font-family="Helvetica,sans-Serif" font-size="10.00">/ros2_humble_ws/src</text>
<text text-anchor="start" x="214.5" y="-29" font-family="Helvetica,sans-Serif" font-size="10.00">/III&#45;Drone&#45;Core/src/control</text>
<text text-anchor="start" x="214.5" y="-18" font-family="Helvetica,sans-Serif" font-size="10.00">/maneuvers/takeoff_maneuver</text>
<text text-anchor="middle" x="289.5" y="-7" font-family="Helvetica,sans-Serif" font-size="10.00">_server.cpp</text>
</a>
</g>
</g>
<!-- Node6&#45;&gt;Node7 -->
<g id="edge6_Node000006_Node000007" class="edge">
<title>Node6&#45;&gt;Node7</title>
<g id="a_edge6_Node000006_Node000007"><a xlink:title=" ">
<path fill="none" stroke="#63b8ff" d="M289.5,-88.83C289.5,-80.15 289.5,-71.28 289.5,-63.22"/>
<polygon fill="#63b8ff" stroke="#63b8ff" points="286,-88.86 289.5,-98.86 293,-88.86 286,-88.86"/>
</a>
</g>
</g>
<!-- Node10&#45;&gt;Node3 -->
<g id="edge11_Node000010_Node000003" class="edge">
<title>Node10&#45;&gt;Node3</title>
<g id="a_edge11_Node000010_Node000003"><a xlink:title=" ">
<path fill="none" stroke="#63b8ff" d="M496.68,-309.17C493.32,-300.55 489.86,-291.64 486.64,-283.35"/>
<polygon fill="#63b8ff" stroke="#63b8ff" points="493.51,-310.69 500.4,-318.74 500.04,-308.15 493.51,-310.69"/>
</a>
</g>
</g>
<!-- Node11 -->
<g id="Node000011" class="node">
<title>Node11</title>
<g id="a_Node000011"><a xlink:href="flight__controller__node__configurator_8cpp.html" target="_top" xlink:title=" ">
<polygon fill="white" stroke="#666666" points="745,-277.5 564,-277.5 564,-214.5 745,-214.5 745,-277.5"/>
<text text-anchor="start" x="572" y="-265.5" font-family="Helvetica,sans-Serif" font-size="10.00">/home/ffn/Workspace</text>
<text text-anchor="start" x="572" y="-254.5" font-family="Helvetica,sans-Serif" font-size="10.00">/ros2_humble_ws/src</text>
<text text-anchor="start" x="572" y="-243.5" font-family="Helvetica,sans-Serif" font-size="10.00">/III&#45;Drone&#45;Core/src/control</text>
<text text-anchor="start" x="572" y="-232.5" font-family="Helvetica,sans-Serif" font-size="10.00">/flight_controller_node/flight</text>
<text text-anchor="middle" x="654.5" y="-221.5" font-family="Helvetica,sans-Serif" font-size="10.00">_controller_node_configurator.cpp</text>
</a>
</g>
</g>
<!-- Node10&#45;&gt;Node11 -->
<g id="edge12_Node000010_Node000011" class="edge">
<title>Node10&#45;&gt;Node11</title>
<g id="a_edge12_Node000010_Node000011"><a xlink:title=" ">
<path fill="none" stroke="#63b8ff" d="M569.76,-312.37C584.83,-300.75 600.85,-288.39 614.86,-277.58"/>
<polygon fill="#63b8ff" stroke="#63b8ff" points="567.29,-309.86 561.51,-318.74 571.56,-315.4 567.29,-309.86"/>
</a>
</g>
</g>
</g>
</svg>

<g id="navigator" transform="translate(0 0)" fill="#404254">
  <rect fill="#f2f5e9" fill-opacity="0.5" stroke="#606060" stroke-width=".5" x="0" y="0" width="60" height="60"/>
  <use id="zoomplus" xlink:href="#zoomPlus" x="17" y="9" onmousedown="handleZoom(evt,'in')"/>
  <use id="zoomminus" xlink:href="#zoomMin" x="42" y="9" onmousedown="handleZoom(evt,'out')"/>
  <use id="reset" xlink:href="#resetDef" x="30" y="36" onmousedown="handleReset()"/>
   <use id="arrowup" xlink:href="#arrowUp" x="0" y="0" onmousedown="handlePan(0,-1)"/>
  <use id="arrowright" xlink:href="#arrowRight" x="0" y="0" onmousedown="handlePan(1,0)"/>
  <use id="arrowdown" xlink:href="#arrowDown" x="0" y="0" onmousedown="handlePan(0,1)"/>
  <use id="arrowleft" xlink:href="#arrowLeft" x="0" y="0" onmousedown="handlePan(-1,0)"/>
</g>
<svg viewBox="0 0 15 15" width="100%" height="30px" preserveAspectRatio="xMaxYMin meet">
 <g id="arrow_out" transform="scale(0.3 0.3)">
  <a xlink:href="behavior__state__parameters_8hpp__dep__incl_org.svg" target="_base">
   <rect id="button" ry="5" rx="5" y="6" x="6" height="38" width="38"
        fill="#f2f5e9" fill-opacity="0.5" stroke="#606060" stroke-width="1.0"/>
   <path id="arrow"
     d="M 11.500037,31.436501 C 11.940474,20.09759 22.043105,11.32322 32.158766,21.979434 L 37.068811,17.246167 C 37.068811,17.246167 37.088388,32 37.088388,32 L 22.160133,31.978069 C 22.160133,31.978069 26.997745,27.140456 26.997745,27.140456 C 18.528582,18.264221 13.291696,25.230495 11.500037,31.436501 z"
     style="fill:#404040;"/>
  </a>
 </g>
</svg>

<style type='text/css'>
<![CDATA[
[data-mouse-over-selected='false'] { opacity: 0.7; }
[data-mouse-over-selected='true']  { opacity: 1.0; }
]]>
</style>
<script type="application/ecmascript"><![CDATA[
document.addEventListener('DOMContentLoaded', (event) => {
  highlightEdges();
  highlightAdjacentNodes();
});
]]></script>
</svg>
