<?xml version="1.0" encoding="UTF-8" standalone="no"?>
<!DOCTYPE svg PUBLIC "-//W3C//DTD SVG 1.1//EN"
 "http://www.w3.org/Graphics/SVG/1.1/DTD/svg11.dtd">
<!-- Generated by graphviz version 2.43.0 (0)
 -->
<!-- Title: iii_drone::adapters::ReferenceAdapter::ToPoseStampedMsg Pages: 1 -->
<svg width="310pt" height="268pt"
 viewBox="0.00 0.00 310.00 267.50" xmlns="http://www.w3.org/2000/svg" xmlns:xlink="http://www.w3.org/1999/xlink">

<svg id="main" version="1.1" xmlns="http://www.w3.org/2000/svg" xmlns:xlink="http://www.w3.org/1999/xlink" xml:space="preserve" onload="init(evt)">
<style type="text/css"><![CDATA[
.node, .edge {opacity: 0.7;}
.node.selected, .edge.selected {opacity: 1;}
.edge:hover path { stroke: red; }
.edge:hover polygon { stroke: red; fill: red; }
]]></style>
<script type="application/ecmascript" xlink:href="svg.min.js"/>
<svg id="graph" class="graph">
<g id="graph0" class="graph" transform="scale(1 1) rotate(0) translate(4 263.5)">
<title>iii_drone::adapters::ReferenceAdapter::ToPoseStampedMsg</title>
<!-- Node1 -->
<g id="Node000001" class="node">
<title>Node1</title>
<g id="a_Node000001"><a xlink:title="Converts to pose stamped msg.">
<polygon fill="#999999" stroke="#666666" points="116,-155.5 0,-155.5 0,-114.5 116,-114.5 116,-155.5"/>
<text text-anchor="start" x="8" y="-143.5" font-family="Helvetica,sans-Serif" font-size="10.00">iii_drone::adapters</text>
<text text-anchor="start" x="8" y="-132.5" font-family="Helvetica,sans-Serif" font-size="10.00">::ReferenceAdapter::</text>
<text text-anchor="middle" x="58" y="-121.5" font-family="Helvetica,sans-Serif" font-size="10.00">ToPoseStampedMsg</text>
</a>
</g>
</g>
<!-- Node2 -->
<g id="Node000002" class="node">
<title>Node2</title>
<g id="a_Node000002"><a xlink:href="namespaceiii__drone_1_1math.html#a531ed4bd8183770d77ec20b37a8709c2" target="_top" xlink:title=" ">
<polygon fill="white" stroke="#666666" points="299.5,-259.5 154.5,-259.5 154.5,-240.5 299.5,-240.5 299.5,-259.5"/>
<text text-anchor="middle" x="227" y="-247.5" font-family="Helvetica,sans-Serif" font-size="10.00">iii_drone::math::eulToQuat</text>
</a>
</g>
</g>
<!-- Node1&#45;&gt;Node2 -->
<g id="edge1_Node000001_Node000002" class="edge">
<title>Node1&#45;&gt;Node2</title>
<g id="a_edge1_Node000001_Node000002"><a xlink:title=" ">
<path fill="none" stroke="#63b8ff" d="M73.65,-155.88C90.18,-177.86 119.09,-211.88 152,-231 155.85,-233.23 159.95,-235.21 164.19,-236.95"/>
<polygon fill="#63b8ff" stroke="#63b8ff" points="163.02,-240.25 173.61,-240.42 165.43,-233.68 163.02,-240.25"/>
</a>
</g>
</g>
<!-- Node3 -->
<g id="Node000003" class="node">
<title>Node3</title>
<g id="a_Node000003"><a xlink:href="namespaceiii__drone_1_1types.html#adf49c0d0a898eea29ad3e752a6712734" target="_top" xlink:title=" ">
<polygon fill="white" stroke="#666666" points="298.5,-222 155.5,-222 155.5,-192 298.5,-192 298.5,-222"/>
<text text-anchor="start" x="163.5" y="-210" font-family="Helvetica,sans-Serif" font-size="10.00">iii_drone::types::pointMsg</text>
<text text-anchor="middle" x="227" y="-199" font-family="Helvetica,sans-Serif" font-size="10.00">FromPoint</text>
</a>
</g>
</g>
<!-- Node1&#45;&gt;Node3 -->
<g id="edge2_Node000001_Node000003" class="edge">
<title>Node1&#45;&gt;Node3</title>
<g id="a_edge2_Node000001_Node000003"><a xlink:title=" ">
<path fill="none" stroke="#63b8ff" d="M95.45,-155.56C112.35,-164.64 132.88,-175.03 152,-183 156.63,-184.93 161.48,-186.81 166.38,-188.61"/>
<polygon fill="#63b8ff" stroke="#63b8ff" points="165.24,-191.92 175.84,-191.96 167.58,-185.32 165.24,-191.92"/>
</a>
</g>
</g>
<!-- Node4 -->
<g id="Node000004" class="node">
<title>Node4</title>
<g id="a_Node000004"><a xlink:href="classiii__drone_1_1control_1_1Reference.html#a2ba5647e5161e35e0588394dcae0663b" target="_top" xlink:title=" ">
<polygon fill="white" stroke="#666666" points="285.5,-174 168.5,-174 168.5,-144 285.5,-144 285.5,-174"/>
<text text-anchor="start" x="176.5" y="-162" font-family="Helvetica,sans-Serif" font-size="10.00">iii_drone::control</text>
<text text-anchor="middle" x="227" y="-151" font-family="Helvetica,sans-Serif" font-size="10.00">::Reference::position</text>
</a>
</g>
</g>
<!-- Node1&#45;&gt;Node4 -->
<g id="edge3_Node000001_Node000004" class="edge">
<title>Node1&#45;&gt;Node4</title>
<g id="a_edge3_Node000001_Node000004"><a xlink:title=" ">
<path fill="none" stroke="#63b8ff" d="M116,-143.19C129.62,-145.15 144.27,-147.25 158.31,-149.27"/>
<polygon fill="#63b8ff" stroke="#63b8ff" points="158,-152.76 168.4,-150.72 159,-145.84 158,-152.76"/>
</a>
</g>
</g>
<!-- Node5 -->
<g id="Node000005" class="node">
<title>Node5</title>
<g id="a_Node000005"><a xlink:href="namespaceiii__drone_1_1types.html#a345601fdf3366d6af6d7c2003d74275b" target="_top" xlink:title=" ">
<polygon fill="white" stroke="#666666" points="302,-126 152,-126 152,-96 302,-96 302,-126"/>
<text text-anchor="start" x="160" y="-114" font-family="Helvetica,sans-Serif" font-size="10.00">iii_drone::types::quaternion</text>
<text text-anchor="middle" x="227" y="-103" font-family="Helvetica,sans-Serif" font-size="10.00">MsgFromQuaternion</text>
</a>
</g>
</g>
<!-- Node1&#45;&gt;Node5 -->
<g id="edge4_Node000001_Node000005" class="edge">
<title>Node1&#45;&gt;Node5</title>
<g id="a_edge4_Node000001_Node000005"><a xlink:title=" ">
<path fill="none" stroke="#63b8ff" d="M116,-126.81C124.29,-125.62 132.96,-124.37 141.65,-123.12"/>
<polygon fill="#63b8ff" stroke="#63b8ff" points="142.43,-126.55 151.83,-121.66 141.43,-119.62 142.43,-126.55"/>
</a>
</g>
</g>
<!-- Node6 -->
<g id="Node000006" class="node">
<title>Node6</title>
<g id="a_Node000006"><a xlink:href="classiii__drone_1_1control_1_1Reference.html#a2ef1baafb09875a2af495e006f98c7c5" target="_top" xlink:title=" ">
<polygon fill="white" stroke="#666666" points="281.5,-78 172.5,-78 172.5,-48 281.5,-48 281.5,-78"/>
<text text-anchor="start" x="180.5" y="-66" font-family="Helvetica,sans-Serif" font-size="10.00">iii_drone::control</text>
<text text-anchor="middle" x="227" y="-55" font-family="Helvetica,sans-Serif" font-size="10.00">::Reference::stamp</text>
</a>
</g>
</g>
<!-- Node1&#45;&gt;Node6 -->
<g id="edge5_Node000001_Node000006" class="edge">
<title>Node1&#45;&gt;Node6</title>
<g id="a_edge5_Node000001_Node000006"><a xlink:title=" ">
<path fill="none" stroke="#63b8ff" d="M95.45,-114.44C112.35,-105.36 132.88,-94.97 152,-87 156.63,-85.07 161.48,-83.19 166.38,-81.39"/>
<polygon fill="#63b8ff" stroke="#63b8ff" points="167.58,-84.68 175.84,-78.04 165.24,-78.08 167.58,-84.68"/>
</a>
</g>
</g>
<!-- Node7 -->
<g id="Node000007" class="node">
<title>Node7</title>
<g id="a_Node000007"><a xlink:href="classiii__drone_1_1control_1_1Reference.html#a784277cbb64476953132a8e239f9ae9e" target="_top" xlink:title=" ">
<polygon fill="white" stroke="#666666" points="276,-30 178,-30 178,0 276,0 276,-30"/>
<text text-anchor="start" x="186" y="-18" font-family="Helvetica,sans-Serif" font-size="10.00">iii_drone::control</text>
<text text-anchor="middle" x="227" y="-7" font-family="Helvetica,sans-Serif" font-size="10.00">::Reference::yaw</text>
</a>
</g>
</g>
<!-- Node1&#45;&gt;Node7 -->
<g id="edge6_Node000001_Node000007" class="edge">
<title>Node1&#45;&gt;Node7</title>
<g id="a_edge6_Node000001_Node000007"><a xlink:title=" ">
<path fill="none" stroke="#63b8ff" d="M74.19,-114.12C90.98,-92.46 119.9,-59.01 152,-39 157.07,-35.84 162.59,-33.06 168.26,-30.62"/>
<polygon fill="#63b8ff" stroke="#63b8ff" points="169.87,-33.74 177.89,-26.82 167.3,-27.23 169.87,-33.74"/>
</a>
</g>
</g>
</g>
</svg>
</svg>

<style type='text/css'>
<![CDATA[
[data-mouse-over-selected='false'] { opacity: 0.7; }
[data-mouse-over-selected='true']  { opacity: 1.0; }
]]>
</style>
<script type="application/ecmascript"><![CDATA[
document.addEventListener('DOMContentLoaded', (event) => {
  highlightEdges();
  highlightAdjacentNodes();
});
]]></script>
</svg>
