<?xml version="1.0" encoding="UTF-8" standalone="no"?>
<!DOCTYPE svg PUBLIC "-//W3C//DTD SVG 1.1//EN"
 "http://www.w3.org/Graphics/SVG/1.1/DTD/svg11.dtd">
<!-- Generated by graphviz version 2.43.0 (0)
 -->
<!-- Title: iii_drone::perception::SingleLine::IsAlive Pages: 1 -->
<svg width="459pt" height="86pt"
 viewBox="0.00 0.00 459.00 86.00" xmlns="http://www.w3.org/2000/svg" xmlns:xlink="http://www.w3.org/1999/xlink">
<g id="graph0" class="graph" transform="scale(1 1) rotate(0) translate(4 82)">
<title>iii_drone::perception::SingleLine::IsAlive</title>
<!-- Node1 -->
<g id="Node000001" class="node">
<title>Node1</title>
<g id="a_Node000001"><a xlink:title="Returns whether the line is alive, i.e. whether it is not in the FOV or alive_cnt_ is above alive_cnt...">
<polygon fill="#999999" stroke="#666666" points="116,-54 0,-54 0,-24 116,-24 116,-54"/>
<text text-anchor="start" x="8" y="-42" font-family="Helvetica,sans-Serif" font-size="10.00">iii_drone::perception</text>
<text text-anchor="middle" x="58" y="-31" font-family="Helvetica,sans-Serif" font-size="10.00">::SingleLine::IsAlive</text>
</a>
</g>
</g>
<!-- Node2 -->
<g id="Node000002" class="node">
<title>Node2</title>
<g id="a_Node000002"><a xlink:href="classiii__drone_1_1perception_1_1SingleLine.html#aa63a08c0e3ed8294ea894bba24314324" target="_top" xlink:title="Returns whether the line is in FOV, non strict.">
<polygon fill="white" stroke="#666666" points="268,-54 152,-54 152,-24 268,-24 268,-54"/>
<text text-anchor="start" x="160" y="-42" font-family="Helvetica,sans-Serif" font-size="10.00">iii_drone::perception</text>
<text text-anchor="middle" x="210" y="-31" font-family="Helvetica,sans-Serif" font-size="10.00">::SingleLine::IsInFOV</text>
</a>
</g>
</g>
<!-- Node1&#45;&gt;Node2 -->
<g id="edge1_Node000001_Node000002" class="edge">
<title>Node1&#45;&gt;Node2</title>
<g id="a_edge1_Node000001_Node000002"><a xlink:title=" ">
<path fill="none" stroke="#63b8ff" d="M116.14,-39C124.38,-39 132.92,-39 141.34,-39"/>
<polygon fill="#63b8ff" stroke="#63b8ff" points="141.53,-42.5 151.53,-39 141.53,-35.5 141.53,-42.5"/>
</a>
</g>
</g>
<!-- Node2&#45;&gt;Node2 -->
<g id="edge2_Node000002_Node000002" class="edge">
<title>Node2&#45;&gt;Node2</title>
<g id="a_edge2_Node000002_Node000002"><a xlink:title=" ">
<path fill="none" stroke="#63b8ff" d="M183.28,-54.28C177.34,-63.41 186.25,-72 210,-72 224.1,-72 232.97,-68.97 236.61,-64.6"/>
<polygon fill="#63b8ff" stroke="#63b8ff" points="240.11,-64.31 236.72,-54.28 233.11,-64.24 240.11,-64.31"/>
</a>
</g>
</g>
<!-- Node3 -->
<g id="Node000003" class="node">
<title>Node3</title>
<g id="a_Node000003"><a xlink:href="namespaceiii__drone_1_1types.html#a8215048242190c57b9ff2de3f1daba73" target="_top" xlink:title=" ">
<polygon fill="white" stroke="#666666" points="451,-78 304,-78 304,-48 451,-48 451,-78"/>
<text text-anchor="start" x="312" y="-66" font-family="Helvetica,sans-Serif" font-size="10.00">iii_drone::types::pointFrom</text>
<text text-anchor="middle" x="377.5" y="-55" font-family="Helvetica,sans-Serif" font-size="10.00">PointMsg</text>
</a>
</g>
</g>
<!-- Node2&#45;&gt;Node3 -->
<g id="edge3_Node000002_Node000003" class="edge">
<title>Node2&#45;&gt;Node3</title>
<g id="a_edge3_Node000002_Node000003"><a xlink:title=" ">
<path fill="none" stroke="#63b8ff" d="M268.42,-47.33C276.61,-48.51 285.16,-49.75 293.71,-50.99"/>
<polygon fill="#63b8ff" stroke="#63b8ff" points="293.33,-54.48 303.73,-52.45 294.34,-47.55 293.33,-54.48"/>
</a>
</g>
</g>
<!-- Node4 -->
<g id="Node000004" class="node">
<title>Node4</title>
<g id="a_Node000004"><a xlink:href="namespaceiii__drone_1_1types.html#adf49c0d0a898eea29ad3e752a6712734" target="_top" xlink:title=" ">
<polygon fill="white" stroke="#666666" points="449,-30 306,-30 306,0 449,0 449,-30"/>
<text text-anchor="start" x="314" y="-18" font-family="Helvetica,sans-Serif" font-size="10.00">iii_drone::types::pointMsg</text>
<text text-anchor="middle" x="377.5" y="-7" font-family="Helvetica,sans-Serif" font-size="10.00">FromPoint</text>
</a>
</g>
</g>
<!-- Node2&#45;&gt;Node4 -->
<g id="edge4_Node000002_Node000004" class="edge">
<title>Node2&#45;&gt;Node4</title>
<g id="a_edge4_Node000002_Node000004"><a xlink:title=" ">
<path fill="none" stroke="#63b8ff" d="M268.42,-30.67C277.26,-29.39 286.54,-28.05 295.77,-26.71"/>
<polygon fill="#63b8ff" stroke="#63b8ff" points="296.37,-30.16 305.76,-25.26 295.36,-23.23 296.37,-30.16"/>
</a>
</g>
</g>
</g>
</svg>
