<?xml version="1.0" encoding="UTF-8" standalone="no"?>
<!DOCTYPE svg PUBLIC "-//W3C//DTD SVG 1.1//EN"
 "http://www.w3.org/Graphics/SVG/1.1/DTD/svg11.dtd">
<!-- Generated by graphviz version 2.43.0 (0)
 -->
<!-- Title: iii_drone::perception::pl_mapper_node::PowerlineMapperNode::publishPoints Pages: 1 -->
<svg width="964pt" height="180pt"
 viewBox="0.00 0.00 964.00 180.00" xmlns="http://www.w3.org/2000/svg" xmlns:xlink="http://www.w3.org/1999/xlink">
<g id="graph0" class="graph" transform="scale(1 1) rotate(0) translate(4 176)">
<title>iii_drone::perception::pl_mapper_node::PowerlineMapperNode::publishPoints</title>
<!-- Node1 -->
<g id="Node000001" class="node">
<title>Node1</title>
<g id="a_Node000001"><a xlink:title="Publishes point cloud data on a given publisher.">
<polygon fill="#999999" stroke="#666666" points="158,-95 0,-95 0,-54 158,-54 158,-95"/>
<text text-anchor="start" x="8" y="-83" font-family="Helvetica,sans-Serif" font-size="10.00">iii_drone::perception</text>
<text text-anchor="start" x="8" y="-72" font-family="Helvetica,sans-Serif" font-size="10.00">::pl_mapper_node::Powerline</text>
<text text-anchor="middle" x="79" y="-61" font-family="Helvetica,sans-Serif" font-size="10.00">MapperNode::publishPoints</text>
</a>
</g>
</g>
<!-- Node2 -->
<g id="Node000002" class="node">
<title>Node2</title>
<g id="a_Node000002"><a xlink:href="classiii__drone_1_1perception_1_1pl__mapper__node_1_1PowerlineMapperConfigurator.html#a9194f1052a84687ba3d387ea76ef2ac1" target="_top" xlink:title="Get the drone frame ID.">
<polygon fill="white" stroke="#666666" points="352,-159.5 194,-159.5 194,-107.5 352,-107.5 352,-159.5"/>
<text text-anchor="start" x="202" y="-147.5" font-family="Helvetica,sans-Serif" font-size="10.00">iii_drone::perception</text>
<text text-anchor="start" x="202" y="-136.5" font-family="Helvetica,sans-Serif" font-size="10.00">::pl_mapper_node::Powerline</text>
<text text-anchor="start" x="202" y="-125.5" font-family="Helvetica,sans-Serif" font-size="10.00">MapperConfigurator::drone</text>
<text text-anchor="middle" x="273" y="-114.5" font-family="Helvetica,sans-Serif" font-size="10.00">_frame_id</text>
</a>
</g>
</g>
<!-- Node1&#45;&gt;Node2 -->
<g id="edge1_Node000001_Node000002" class="edge">
<title>Node1&#45;&gt;Node2</title>
<g id="a_edge1_Node000001_Node000002"><a xlink:title=" ">
<path fill="none" stroke="#63b8ff" d="M146.88,-95.05C158.84,-98.73 171.46,-102.6 183.9,-106.43"/>
<polygon fill="#63b8ff" stroke="#63b8ff" points="183.24,-109.89 193.83,-109.48 185.3,-103.19 183.24,-109.89"/>
</a>
</g>
</g>
<!-- Node6 -->
<g id="Node000006" class="node">
<title>Node6</title>
<g id="a_Node000006"><a xlink:href="classiii__drone_1_1perception_1_1Powerline.html#ab2546d0e9953b7c265537e43e277768e" target="_top" xlink:title="Stamp getter.">
<polygon fill="white" stroke="#666666" points="331,-89.5 215,-89.5 215,-59.5 331,-59.5 331,-89.5"/>
<text text-anchor="start" x="223" y="-77.5" font-family="Helvetica,sans-Serif" font-size="10.00">iii_drone::perception</text>
<text text-anchor="middle" x="273" y="-66.5" font-family="Helvetica,sans-Serif" font-size="10.00">::Powerline::stamp</text>
</a>
</g>
</g>
<!-- Node1&#45;&gt;Node6 -->
<g id="edge7_Node000001_Node000006" class="edge">
<title>Node1&#45;&gt;Node6</title>
<g id="a_edge7_Node000001_Node000006"><a xlink:title=" ">
<path fill="none" stroke="#63b8ff" d="M158.09,-74.5C173.53,-74.5 189.61,-74.5 204.65,-74.5"/>
<polygon fill="#63b8ff" stroke="#63b8ff" points="204.88,-78 214.88,-74.5 204.88,-71 204.88,-78"/>
</a>
</g>
</g>
<!-- Node7 -->
<g id="Node000007" class="node">
<title>Node7</title>
<g id="a_Node000007"><a xlink:href="classiii__drone_1_1adapters_1_1PointCloudAdapter.html#abc0d1153908b68c2ad22cd5f6a70596f" target="_top" xlink:title="Convert to ROS2 message.">
<polygon fill="white" stroke="#666666" points="329.5,-41 216.5,-41 216.5,0 329.5,0 329.5,-41"/>
<text text-anchor="start" x="224.5" y="-29" font-family="Helvetica,sans-Serif" font-size="10.00">iii_drone::adapters</text>
<text text-anchor="start" x="224.5" y="-18" font-family="Helvetica,sans-Serif" font-size="10.00">::PointCloudAdapter</text>
<text text-anchor="middle" x="273" y="-7" font-family="Helvetica,sans-Serif" font-size="10.00">::ToMsg</text>
</a>
</g>
</g>
<!-- Node1&#45;&gt;Node7 -->
<g id="edge8_Node000001_Node000007" class="edge">
<title>Node1&#45;&gt;Node7</title>
<g id="a_edge8_Node000001_Node000007"><a xlink:title=" ">
<path fill="none" stroke="#63b8ff" d="M153.13,-53.93C170.68,-49 189.3,-43.76 206.47,-38.93"/>
<polygon fill="#63b8ff" stroke="#63b8ff" points="207.71,-42.22 216.39,-36.14 205.82,-35.48 207.71,-42.22"/>
</a>
</g>
</g>
<!-- Node3 -->
<g id="Node000003" class="node">
<title>Node3</title>
<g id="a_Node000003"><a xlink:href="classiii__drone_1_1configuration_1_1Configurator.html#a896be5ed2c6890f9f5ecaa89cb0eee7d" target="_top" xlink:title="Get a parameter.">
<polygon fill="white" stroke="#666666" points="544,-148.5 388,-148.5 388,-118.5 544,-118.5 544,-148.5"/>
<text text-anchor="start" x="396" y="-136.5" font-family="Helvetica,sans-Serif" font-size="10.00">iii_drone::configuration</text>
<text text-anchor="middle" x="466" y="-125.5" font-family="Helvetica,sans-Serif" font-size="10.00">::Configurator::GetParameter</text>
</a>
</g>
</g>
<!-- Node2&#45;&gt;Node3 -->
<g id="edge2_Node000002_Node000003" class="edge">
<title>Node2&#45;&gt;Node3</title>
<g id="a_edge2_Node000002_Node000003"><a xlink:title=" ">
<path fill="none" stroke="#63b8ff" d="M352.24,-133.5C360.59,-133.5 369.12,-133.5 377.57,-133.5"/>
<polygon fill="#63b8ff" stroke="#63b8ff" points="377.81,-137 387.81,-133.5 377.81,-130 377.81,-137"/>
</a>
</g>
</g>
<!-- Node4 -->
<g id="Node000004" class="node">
<title>Node4</title>
<g id="a_Node000004"><a xlink:href="classiii__drone_1_1configuration_1_1Configurator.html#ad6e7318a12eda7011acfbe4276e7056a" target="_top" xlink:title="Gets multiple parameters.">
<polygon fill="white" stroke="#666666" points="741,-170.5 580,-170.5 580,-140.5 741,-140.5 741,-170.5"/>
<text text-anchor="start" x="588" y="-158.5" font-family="Helvetica,sans-Serif" font-size="10.00">iii_drone::configuration</text>
<text text-anchor="middle" x="660.5" y="-147.5" font-family="Helvetica,sans-Serif" font-size="10.00">::Configurator::GetParameters</text>
</a>
</g>
</g>
<!-- Node3&#45;&gt;Node4 -->
<g id="edge3_Node000003_Node000004" class="edge">
<title>Node3&#45;&gt;Node4</title>
<g id="a_edge3_Node000003_Node000004"><a xlink:title=" ">
<path fill="none" stroke="#63b8ff" d="M544.19,-142.32C552.61,-143.28 561.23,-144.27 569.79,-145.25"/>
<polygon fill="#63b8ff" stroke="#63b8ff" points="569.45,-148.73 579.78,-146.39 570.24,-141.78 569.45,-148.73"/>
</a>
</g>
</g>
<!-- Node5 -->
<g id="Node000005" class="node">
<title>Node5</title>
<g id="a_Node000005"><a xlink:href="classiii__drone_1_1configuration_1_1Configurator.html#ac5360ab6b4f31277c7d73b5579815353" target="_top" xlink:title="Static function for getting string representation of a parameter type from template type.">
<polygon fill="white" stroke="#666666" points="956,-154 777,-154 777,-113 956,-113 956,-154"/>
<text text-anchor="start" x="785" y="-142" font-family="Helvetica,sans-Serif" font-size="10.00">iii_drone::configuration</text>
<text text-anchor="start" x="785" y="-131" font-family="Helvetica,sans-Serif" font-size="10.00">::Configurator::GetParameterType</text>
<text text-anchor="middle" x="866.5" y="-120" font-family="Helvetica,sans-Serif" font-size="10.00">String</text>
</a>
</g>
</g>
<!-- Node3&#45;&gt;Node5 -->
<g id="edge6_Node000003_Node000005" class="edge">
<title>Node3&#45;&gt;Node5</title>
<g id="a_edge6_Node000003_Node000005"><a xlink:title=" ">
<path fill="none" stroke="#63b8ff" d="M544.2,-131.95C556.18,-131.76 568.42,-131.6 580,-131.5 651.55,-130.87 669.45,-130.93 741,-131.5 749.31,-131.57 757.94,-131.66 766.59,-131.77"/>
<polygon fill="#63b8ff" stroke="#63b8ff" points="766.7,-135.27 776.75,-131.9 766.8,-128.27 766.7,-135.27"/>
</a>
</g>
</g>
<!-- Node4&#45;&gt;Node5 -->
<g id="edge4_Node000004_Node000005" class="edge">
<title>Node4&#45;&gt;Node5</title>
<g id="a_edge4_Node000004_Node000005"><a xlink:title=" ">
<path fill="none" stroke="#63b8ff" d="M741.25,-146.9C749.6,-146 758.16,-145.08 766.7,-144.16"/>
<polygon fill="#63b8ff" stroke="#63b8ff" points="767.12,-147.63 776.69,-143.08 766.37,-140.67 767.12,-147.63"/>
</a>
</g>
</g>
<!-- Node5&#45;&gt;Node5 -->
<g id="edge5_Node000005_Node000005" class="edge">
<title>Node5&#45;&gt;Node5</title>
<g id="a_edge5_Node000005_Node000005"><a xlink:title=" ">
<path fill="none" stroke="#63b8ff" d="M828.64,-154.1C824.51,-163.65 837.13,-172 866.5,-172 884.86,-172 896.67,-168.74 901.94,-163.96"/>
<polygon fill="#63b8ff" stroke="#63b8ff" points="905.38,-164.64 904.36,-154.1 898.58,-162.97 905.38,-164.64"/>
</a>
</g>
</g>
</g>
</svg>
