<?xml version="1.0" encoding="UTF-8" standalone="no"?>
<!DOCTYPE svg PUBLIC "-//W3C//DTD SVG 1.1//EN"
 "http://www.w3.org/Graphics/SVG/1.1/DTD/svg11.dtd">
<!-- Generated by graphviz version 2.43.0 (0)
 -->
<!-- Title: iii_drone::perception::pl_mapper_node::PowerlineMapperNode::mmWaveCallback Pages: 1 -->
<!--zoomable 658 -->

<svg id="main" version="1.1" xmlns="http://www.w3.org/2000/svg" xmlns:xlink="http://www.w3.org/1999/xlink" xml:space="preserve" onload="init(evt)">
<style type="text/css"><![CDATA[
.node, .edge {opacity: 0.7;}
.node.selected, .edge.selected {opacity: 1;}
.edge:hover path { stroke: red; }
.edge:hover polygon { stroke: red; fill: red; }
]]></style>

<defs>
  <circle id="rim" cx="0" cy="0" r="7"/>
  <circle id="rim2" cx="0" cy="0" r="3.5"/>
  <g id="zoomPlus">
    <use xlink:href="#rim" fill="#404040"><set attributeName="fill" to="#808080" begin="zoomplus.mouseover" end="zoomplus.mouseout"/></use>
    <path d="M-4,0h8M0,-4v8" fill="none" stroke="white" stroke-width="1.5" pointer-events="none"/>
  </g>
  <g id="zoomMin">
    <use xlink:href="#rim" fill="#404040"><set attributeName="fill" to="#808080" begin="zoomminus.mouseover" end="zoomminus.mouseout"/></use>
    <path d="M-4,0h8" fill="none" stroke="white" stroke-width="1.5" pointer-events="none"/>
  </g>
  <g id="arrowUp" transform="translate(30 24)">
    <use xlink:href="#rim"/>
    <path pointer-events="none" fill="none" stroke="white" stroke-width="1.5" d="M0,-3.0v7 M-2.5,-0.5L0,-3.0L2.5,-0.5"/>
  </g>
  <g id="arrowRight" transform="rotate(90) translate(36 -43)">
    <use xlink:href="#rim"/>
    <path pointer-events="none" fill="none" stroke="white" stroke-width="1.5" d="M0,-3.0v7 M-2.5,-0.5L0,-3.0L2.5,-0.5"/>
  </g>
  <g id="arrowDown" transform="rotate(180) translate(-30 -48)">
    <use xlink:href="#rim"/>
    <path pointer-events="none" fill="none" stroke="white" stroke-width="1.5" d="M0,-3.0v7 M-2.5,-0.5L0,-3.0L2.5,-0.5"/>
  </g>
  <g id="arrowLeft" transform="rotate(270) translate(-36 17)">
    <use xlink:href="#rim"/>
    <path pointer-events="none" fill="none" stroke="white" stroke-width="1.5" d="M0,-3.0v7 M-2.5,-0.5L0,-3.0L2.5,-0.5"/>
  </g>
  <g id="resetDef">
    <use xlink:href="#rim2" fill="#404040"><set attributeName="fill" to="#808080" begin="reset.mouseover" end="reset.mouseout"/></use>
  </g>
</defs>
<script type="application/ecmascript">
var viewWidth = 1184;
var viewHeight = 658;
var sectionId = 'dynsection-3';
</script>
<script type="application/ecmascript" xlink:href="svg.min.js"/>
<svg id="graph" class="graph">
<g id="viewport">
<title>iii_drone::perception::pl_mapper_node::PowerlineMapperNode::mmWaveCallback</title>
<!-- Node1 -->
<g id="Node000001" class="node">
<title>Node1</title>
<g id="a_Node000001"><a xlink:title="Callback for mmwave data topic.">
<polygon fill="#999999" stroke="#666666" points="173,-291.5 0,-291.5 0,-250.5 173,-250.5 173,-291.5"/>
<text text-anchor="start" x="8" y="-279.5" font-family="Helvetica,sans-Serif" font-size="10.00">iii_drone::perception</text>
<text text-anchor="start" x="8" y="-268.5" font-family="Helvetica,sans-Serif" font-size="10.00">::pl_mapper_node::Powerline</text>
<text text-anchor="middle" x="86.5" y="-257.5" font-family="Helvetica,sans-Serif" font-size="10.00">MapperNode::mmWaveCallback</text>
</a>
</g>
</g>
<!-- Node2 -->
<g id="Node000002" class="node">
<title>Node2</title>
<g id="a_Node000002"><a xlink:href="classiii__drone_1_1perception_1_1Powerline.html#ac41b155797547f943848004171fb7c61" target="_top" xlink:title="Cleans up the lines that are not in the sensor FOV.">
<polygon fill="white" stroke="#666666" points="363.5,-537 221.5,-537 221.5,-507 363.5,-507 363.5,-537"/>
<text text-anchor="start" x="229.5" y="-525" font-family="Helvetica,sans-Serif" font-size="10.00">iii_drone::perception</text>
<text text-anchor="middle" x="292.5" y="-514" font-family="Helvetica,sans-Serif" font-size="10.00">::Powerline::CleanupLines</text>
</a>
</g>
</g>
<!-- Node1&#45;&gt;Node2 -->
<g id="edge1_Node000001_Node000002" class="edge">
<title>Node1&#45;&gt;Node2</title>
<g id="a_edge1_Node000001_Node000002"><a xlink:title=" ">
<path fill="none" stroke="#63b8ff" d="M97.09,-291.7C115.13,-329.15 157.04,-409.33 209,-464 222.61,-478.32 240.25,-491.29 255.73,-501.31"/>
<polygon fill="#63b8ff" stroke="#63b8ff" points="254.22,-504.49 264.54,-506.86 257.95,-498.57 254.22,-504.49"/>
</a>
</g>
</g>
<!-- Node4 -->
<g id="Node000004" class="node">
<title>Node4</title>
<g id="a_Node000004"><a xlink:href="classiii__drone_1_1perception_1_1Powerline.html#a07f90dc6a742a7f921e041d3b3734d8b" target="_top" xlink:title="Computes the inter line positions.">
<polygon fill="white" stroke="#666666" points="374.5,-614.5 210.5,-614.5 210.5,-573.5 374.5,-573.5 374.5,-614.5"/>
<text text-anchor="start" x="218.5" y="-602.5" font-family="Helvetica,sans-Serif" font-size="10.00">iii_drone::perception</text>
<text text-anchor="start" x="218.5" y="-591.5" font-family="Helvetica,sans-Serif" font-size="10.00">::Powerline::ComputeInterLine</text>
<text text-anchor="middle" x="292.5" y="-580.5" font-family="Helvetica,sans-Serif" font-size="10.00">Positions</text>
</a>
</g>
</g>
<!-- Node1&#45;&gt;Node4 -->
<g id="edge3_Node000001_Node000004" class="edge">
<title>Node1&#45;&gt;Node4</title>
<g id="a_edge3_Node000001_Node000004"><a xlink:title=" ">
<path fill="none" stroke="#63b8ff" d="M91.97,-291.69C103.52,-341.01 138.52,-467.23 209,-546 216.61,-554.5 226.09,-561.9 235.88,-568.18"/>
<polygon fill="#63b8ff" stroke="#63b8ff" points="234.17,-571.23 244.54,-573.4 237.79,-565.24 234.17,-571.23"/>
</a>
</g>
</g>
<!-- Node9 -->
<g id="Node000009" class="node">
<title>Node9</title>
<g id="a_Node000009"><a xlink:href="classiii__drone_1_1perception_1_1pl__mapper__node_1_1PowerlineMapperConfigurator.html#a9194f1052a84687ba3d387ea76ef2ac1" target="_top" xlink:title="Get the drone frame ID.">
<polygon fill="white" stroke="#666666" points="571,-297 413,-297 413,-245 571,-245 571,-297"/>
<text text-anchor="start" x="421" y="-285" font-family="Helvetica,sans-Serif" font-size="10.00">iii_drone::perception</text>
<text text-anchor="start" x="421" y="-274" font-family="Helvetica,sans-Serif" font-size="10.00">::pl_mapper_node::Powerline</text>
<text text-anchor="start" x="421" y="-263" font-family="Helvetica,sans-Serif" font-size="10.00">MapperConfigurator::drone</text>
<text text-anchor="middle" x="492" y="-252" font-family="Helvetica,sans-Serif" font-size="10.00">_frame_id</text>
</a>
</g>
</g>
<!-- Node1&#45;&gt;Node9 -->
<g id="edge9_Node000001_Node000009" class="edge">
<title>Node1&#45;&gt;Node9</title>
<g id="a_edge9_Node000001_Node000009"><a xlink:title=" ">
<path fill="none" stroke="#63b8ff" d="M173.11,-275.76C185.16,-276.27 197.39,-276.71 209,-277 283.2,-278.83 301.8,-278.93 376,-277 384.64,-276.77 393.64,-276.45 402.64,-276.08"/>
<polygon fill="#63b8ff" stroke="#63b8ff" points="402.93,-279.57 412.77,-275.63 402.62,-272.57 402.93,-279.57"/>
</a>
</g>
</g>
<!-- Node13 -->
<g id="Node000013" class="node">
<title>Node13</title>
<g id="a_Node000013"><a xlink:href="classiii__drone_1_1perception_1_1pl__mapper__node_1_1PowerlineMapperConfigurator.html#af4cab9cef3c74407e65605f40d0f85bb" target="_top" xlink:title="Get the mmWave frame ID.">
<polygon fill="white" stroke="#666666" points="375,-376 210,-376 210,-324 375,-324 375,-376"/>
<text text-anchor="start" x="218" y="-364" font-family="Helvetica,sans-Serif" font-size="10.00">iii_drone::perception</text>
<text text-anchor="start" x="218" y="-353" font-family="Helvetica,sans-Serif" font-size="10.00">::pl_mapper_node::Powerline</text>
<text text-anchor="start" x="218" y="-342" font-family="Helvetica,sans-Serif" font-size="10.00">MapperConfigurator::mmwave</text>
<text text-anchor="middle" x="292.5" y="-331" font-family="Helvetica,sans-Serif" font-size="10.00">_frame_id</text>
</a>
</g>
</g>
<!-- Node1&#45;&gt;Node13 -->
<g id="edge15_Node000001_Node000013" class="edge">
<title>Node1&#45;&gt;Node13</title>
<g id="a_edge15_Node000001_Node000013"><a xlink:title=" ">
<path fill="none" stroke="#63b8ff" d="M140.57,-291.55C163.18,-300.31 189.99,-310.69 214.7,-320.26"/>
<polygon fill="#63b8ff" stroke="#63b8ff" points="213.47,-323.54 224.06,-323.88 216,-317.01 213.47,-323.54"/>
</a>
</g>
</g>
<!-- Node14 -->
<g id="Node000014" class="node">
<title>Node14</title>
<g id="a_Node000014"><a xlink:href="namespaceiii__drone_1_1types.html#a8215048242190c57b9ff2de3f1daba73" target="_top" xlink:title=" ">
<polygon fill="white" stroke="#666666" points="366,-208 219,-208 219,-178 366,-178 366,-208"/>
<text text-anchor="start" x="227" y="-196" font-family="Helvetica,sans-Serif" font-size="10.00">iii_drone::types::pointFrom</text>
<text text-anchor="middle" x="292.5" y="-185" font-family="Helvetica,sans-Serif" font-size="10.00">PointMsg</text>
</a>
</g>
</g>
<!-- Node1&#45;&gt;Node14 -->
<g id="edge17_Node000001_Node000014" class="edge">
<title>Node1&#45;&gt;Node14</title>
<g id="a_edge17_Node000001_Node000014"><a xlink:title=" ">
<path fill="none" stroke="#63b8ff" d="M131.14,-250.48C154.06,-240.09 182.76,-227.66 209,-218 215.32,-215.67 221.97,-213.39 228.64,-211.21"/>
<polygon fill="#63b8ff" stroke="#63b8ff" points="229.92,-214.47 238.38,-208.09 227.79,-207.81 229.92,-214.47"/>
</a>
</g>
</g>
<!-- Node15 -->
<g id="Node000015" class="node">
<title>Node15</title>
<g id="a_Node000015"><a xlink:href="namespaceiii__drone_1_1types.html#adf49c0d0a898eea29ad3e752a6712734" target="_top" xlink:title=" ">
<polygon fill="white" stroke="#666666" points="364,-160 221,-160 221,-130 364,-130 364,-160"/>
<text text-anchor="start" x="229" y="-148" font-family="Helvetica,sans-Serif" font-size="10.00">iii_drone::types::pointMsg</text>
<text text-anchor="middle" x="292.5" y="-137" font-family="Helvetica,sans-Serif" font-size="10.00">FromPoint</text>
</a>
</g>
</g>
<!-- Node1&#45;&gt;Node15 -->
<g id="edge18_Node000001_Node000015" class="edge">
<title>Node1&#45;&gt;Node15</title>
<g id="a_edge18_Node000001_Node000015"><a xlink:title=" ">
<path fill="none" stroke="#63b8ff" d="M106.64,-250.45C129.09,-227.48 168.43,-190.68 209,-169 212.45,-167.15 216.07,-165.44 219.77,-163.84"/>
<polygon fill="#63b8ff" stroke="#63b8ff" points="221.13,-167.06 229.12,-160.1 218.54,-160.56 221.13,-167.06"/>
</a>
</g>
</g>
<!-- Node16 -->
<g id="Node000016" class="node">
<title>Node16</title>
<g id="a_Node000016"><a xlink:href="classiii__drone_1_1adapters_1_1PointCloudAdapter.html#a598a5eb2f039f49655a9fa1be90bca9b" target="_top" xlink:title="Point cloud data getter.">
<polygon fill="white" stroke="#666666" points="349,-111.5 236,-111.5 236,-70.5 349,-70.5 349,-111.5"/>
<text text-anchor="start" x="244" y="-99.5" font-family="Helvetica,sans-Serif" font-size="10.00">iii_drone::adapters</text>
<text text-anchor="start" x="244" y="-88.5" font-family="Helvetica,sans-Serif" font-size="10.00">::PointCloudAdapter</text>
<text text-anchor="middle" x="292.5" y="-77.5" font-family="Helvetica,sans-Serif" font-size="10.00">::points</text>
</a>
</g>
</g>
<!-- Node1&#45;&gt;Node16 -->
<g id="edge19_Node000001_Node000016" class="edge">
<title>Node1&#45;&gt;Node16</title>
<g id="a_edge19_Node000001_Node000016"><a xlink:title=" ">
<path fill="none" stroke="#63b8ff" d="M99.17,-250.31C118.21,-218.29 158.93,-156.7 209,-121 214.42,-117.14 220.39,-113.72 226.57,-110.7"/>
<polygon fill="#63b8ff" stroke="#63b8ff" points="228.05,-113.88 235.73,-106.58 225.17,-107.5 228.05,-113.88"/>
</a>
</g>
</g>
<!-- Node17 -->
<g id="Node000017" class="node">
<title>Node17</title>
<g id="a_Node000017"><a xlink:href="classiii__drone_1_1perception_1_1pl__mapper__node_1_1PowerlineMapperConfigurator.html#a38d2b0a7368b792db067c0cc08555c1e" target="_top" xlink:title="PowerlineParameters getter.">
<polygon fill="white" stroke="#666666" points="376,-52 209,-52 209,0 376,0 376,-52"/>
<text text-anchor="start" x="217" y="-40" font-family="Helvetica,sans-Serif" font-size="10.00">iii_drone::perception</text>
<text text-anchor="start" x="217" y="-29" font-family="Helvetica,sans-Serif" font-size="10.00">::pl_mapper_node::Powerline</text>
<text text-anchor="start" x="217" y="-18" font-family="Helvetica,sans-Serif" font-size="10.00">MapperConfigurator::powerline</text>
<text text-anchor="middle" x="292.5" y="-7" font-family="Helvetica,sans-Serif" font-size="10.00">_parameters</text>
</a>
</g>
</g>
<!-- Node1&#45;&gt;Node17 -->
<g id="edge20_Node000001_Node000017" class="edge">
<title>Node1&#45;&gt;Node17</title>
<g id="a_edge20_Node000001_Node000017"><a xlink:title=" ">
<path fill="none" stroke="#63b8ff" d="M94.31,-250.49C108.98,-209.24 147.3,-115.53 209,-61 210.13,-60 211.29,-59.03 212.48,-58.08"/>
<polygon fill="#63b8ff" stroke="#63b8ff" points="214.62,-60.85 220.71,-52.18 210.54,-55.16 214.62,-60.85"/>
</a>
</g>
</g>
<!-- Node18 -->
<g id="Node000018" class="node">
<title>Node18</title>
<g id="a_Node000018"><a xlink:href="classiii__drone_1_1perception_1_1pl__mapper__node_1_1PowerlineMapperNode.html#ab169bb89cd56cc2d80d1888a38196c0d" target="_top" xlink:title="Publishes point cloud data on a given publisher.">
<polygon fill="white" stroke="#666666" points="371.5,-267.5 213.5,-267.5 213.5,-226.5 371.5,-226.5 371.5,-267.5"/>
<text text-anchor="start" x="221.5" y="-255.5" font-family="Helvetica,sans-Serif" font-size="10.00">iii_drone::perception</text>
<text text-anchor="start" x="221.5" y="-244.5" font-family="Helvetica,sans-Serif" font-size="10.00">::pl_mapper_node::Powerline</text>
<text text-anchor="middle" x="292.5" y="-233.5" font-family="Helvetica,sans-Serif" font-size="10.00">MapperNode::publishPoints</text>
</a>
</g>
</g>
<!-- Node1&#45;&gt;Node18 -->
<g id="edge21_Node000001_Node000018" class="edge">
<title>Node1&#45;&gt;Node18</title>
<g id="a_edge21_Node000001_Node000018"><a xlink:title=" ">
<path fill="none" stroke="#63b8ff" d="M173.13,-260.93C183.1,-259.75 193.3,-258.55 203.31,-257.38"/>
<polygon fill="#63b8ff" stroke="#63b8ff" points="203.72,-260.85 213.24,-256.21 202.9,-253.9 203.72,-260.85"/>
</a>
</g>
</g>
<!-- Node21 -->
<g id="Node000021" class="node">
<title>Node21</title>
<g id="a_Node000021"><a xlink:href="classiii__drone_1_1perception_1_1Powerline.html#a287872d7937bc69956dbeb938aff884e" target="_top" xlink:title="Updates from a point. If match is found, runs the Kalman Filter update step for the matching line,...">
<polygon fill="white" stroke="#666666" points="358.5,-455 226.5,-455 226.5,-425 358.5,-425 358.5,-455"/>
<text text-anchor="start" x="234.5" y="-443" font-family="Helvetica,sans-Serif" font-size="10.00">iii_drone::perception</text>
<text text-anchor="middle" x="292.5" y="-432" font-family="Helvetica,sans-Serif" font-size="10.00">::Powerline::UpdateLine</text>
</a>
</g>
</g>
<!-- Node1&#45;&gt;Node21 -->
<g id="edge25_Node000001_Node000021" class="edge">
<title>Node1&#45;&gt;Node21</title>
<g id="a_edge25_Node000001_Node000021"><a xlink:title=" ">
<path fill="none" stroke="#63b8ff" d="M107.62,-291.87C130.99,-315.61 171.16,-354.97 209,-385 224.44,-397.25 242.58,-409.55 257.91,-419.4"/>
<polygon fill="#63b8ff" stroke="#63b8ff" points="256.25,-422.49 266.57,-424.9 260,-416.58 256.25,-422.49"/>
</a>
</g>
</g>
<!-- Node3 -->
<g id="Node000003" class="node">
<title>Node3</title>
<g id="a_Node000003"><a xlink:href="classiii__drone_1_1utils_1_1Timestamp.html#a373bc0de94c27153e2372c30f0eedbb1" target="_top" xlink:title="Updates the timestamp to now.">
<polygon fill="white" stroke="#666666" points="565.5,-575 418.5,-575 418.5,-545 565.5,-545 565.5,-575"/>
<text text-anchor="start" x="426.5" y="-563" font-family="Helvetica,sans-Serif" font-size="10.00">iii_drone::utils::Timestamp</text>
<text text-anchor="middle" x="492" y="-552" font-family="Helvetica,sans-Serif" font-size="10.00">::Update</text>
</a>
</g>
</g>
<!-- Node2&#45;&gt;Node3 -->
<g id="edge2_Node000002_Node000003" class="edge">
<title>Node2&#45;&gt;Node3</title>
<g id="a_edge2_Node000002_Node000003"><a xlink:title=" ">
<path fill="none" stroke="#63b8ff" d="M363.69,-535.5C378.1,-538.28 393.4,-541.22 408.21,-544.07"/>
<polygon fill="#63b8ff" stroke="#63b8ff" points="407.89,-547.57 418.37,-546.03 409.21,-540.7 407.89,-547.57"/>
</a>
</g>
</g>
<!-- Node4&#45;&gt;Node3 -->
<g id="edge8_Node000004_Node000003" class="edge">
<title>Node4&#45;&gt;Node3</title>
<g id="a_edge8_Node000004_Node000003"><a xlink:title=" ">
<path fill="none" stroke="#63b8ff" d="M374.69,-580.02C385.76,-578.12 397.15,-576.16 408.25,-574.25"/>
<polygon fill="#63b8ff" stroke="#63b8ff" points="409.1,-577.65 418.36,-572.51 407.91,-570.75 409.1,-577.65"/>
</a>
</g>
</g>
<!-- Node5 -->
<g id="Node000005" class="node">
<title>Node5</title>
<g id="a_Node000005"><a xlink:href="namespaceiii__drone_1_1math.html#a3efad56e6eb85aa0c255b020ab254874" target="_top" xlink:title=" ">
<polygon fill="white" stroke="#666666" points="558.5,-649.5 425.5,-649.5 425.5,-630.5 558.5,-630.5 558.5,-649.5"/>
<text text-anchor="middle" x="492" y="-637.5" font-family="Helvetica,sans-Serif" font-size="10.00">iii_drone::math::quatInv</text>
</a>
</g>
</g>
<!-- Node4&#45;&gt;Node5 -->
<g id="edge4_Node000004_Node000005" class="edge">
<title>Node4&#45;&gt;Node5</title>
<g id="a_edge4_Node000004_Node000005"><a xlink:title=" ">
<path fill="none" stroke="#63b8ff" d="M374.75,-613.29C387.22,-616.22 399.95,-619.2 412,-622 420.66,-624.01 429.86,-626.12 438.81,-628.17"/>
<polygon fill="#63b8ff" stroke="#63b8ff" points="438.23,-631.63 448.76,-630.44 439.79,-624.8 438.23,-631.63"/>
</a>
</g>
</g>
<!-- Node6 -->
<g id="Node000006" class="node">
<title>Node6</title>
<g id="a_Node000006"><a xlink:href="namespaceiii__drone_1_1math.html#af8c96a0fa3940e1034c8db8425586ba8" target="_top" xlink:title=" ">
<polygon fill="white" stroke="#666666" points="565.5,-612.5 418.5,-612.5 418.5,-593.5 565.5,-593.5 565.5,-612.5"/>
<text text-anchor="middle" x="492" y="-600.5" font-family="Helvetica,sans-Serif" font-size="10.00">iii_drone::math::quatToMat</text>
</a>
</g>
</g>
<!-- Node4&#45;&gt;Node6 -->
<g id="edge5_Node000004_Node000006" class="edge">
<title>Node4&#45;&gt;Node6</title>
<g id="a_edge5_Node000004_Node000006"><a xlink:title=" ">
<path fill="none" stroke="#63b8ff" d="M374.69,-597.7C385.76,-598.2 397.15,-598.72 408.25,-599.23"/>
<polygon fill="#63b8ff" stroke="#63b8ff" points="408.21,-602.73 418.36,-599.69 408.53,-595.74 408.21,-602.73"/>
</a>
</g>
</g>
<!-- Node7 -->
<g id="Node000007" class="node">
<title>Node7</title>
<g id="a_Node000007"><a xlink:href="namespaceiii__drone_1_1math.html#a7f61d7905e9118b077f713da7e65e8df" target="_top" xlink:title=" ">
<polygon fill="white" stroke="#666666" points="756,-630.5 616,-630.5 616,-611.5 756,-611.5 756,-630.5"/>
<text text-anchor="middle" x="686" y="-618.5" font-family="Helvetica,sans-Serif" font-size="10.00">iii_drone::math::eulToMat</text>
</a>
</g>
</g>
<!-- Node6&#45;&gt;Node7 -->
<g id="edge6_Node000006_Node000007" class="edge">
<title>Node6&#45;&gt;Node7</title>
<g id="a_edge6_Node000006_Node000007"><a xlink:title=" ">
<path fill="none" stroke="#63b8ff" d="M565.59,-609.81C578.7,-611.03 592.44,-612.32 605.74,-613.57"/>
<polygon fill="#63b8ff" stroke="#63b8ff" points="605.52,-617.06 615.8,-614.51 606.17,-610.09 605.52,-617.06"/>
</a>
</g>
</g>
<!-- Node8 -->
<g id="Node000008" class="node">
<title>Node8</title>
<g id="a_Node000008"><a xlink:href="namespaceiii__drone_1_1math.html#a8e7d7e25d07b368363d6da9939a9abed" target="_top" xlink:title=" ">
<polygon fill="white" stroke="#666666" points="757.5,-593.5 614.5,-593.5 614.5,-574.5 757.5,-574.5 757.5,-593.5"/>
<text text-anchor="middle" x="686" y="-581.5" font-family="Helvetica,sans-Serif" font-size="10.00">iii_drone::math::quatToEul</text>
</a>
</g>
</g>
<!-- Node6&#45;&gt;Node8 -->
<g id="edge7_Node000006_Node000008" class="edge">
<title>Node6&#45;&gt;Node8</title>
<g id="a_edge7_Node000006_Node000008"><a xlink:title=" ">
<path fill="none" stroke="#63b8ff" d="M565.59,-595.82C578.16,-594.57 591.3,-593.27 604.07,-592.01"/>
<polygon fill="#63b8ff" stroke="#63b8ff" points="604.61,-595.47 614.22,-591 603.92,-588.51 604.61,-595.47"/>
</a>
</g>
</g>
<!-- Node10 -->
<g id="Node000010" class="node">
<title>Node10</title>
<g id="a_Node000010"><a xlink:href="classiii__drone_1_1configuration_1_1Configurator.html#a896be5ed2c6890f9f5ecaa89cb0eee7d" target="_top" xlink:title="Get a parameter.">
<polygon fill="white" stroke="#666666" points="764,-313 608,-313 608,-283 764,-283 764,-313"/>
<text text-anchor="start" x="616" y="-301" font-family="Helvetica,sans-Serif" font-size="10.00">iii_drone::configuration</text>
<text text-anchor="middle" x="686" y="-290" font-family="Helvetica,sans-Serif" font-size="10.00">::Configurator::GetParameter</text>
</a>
</g>
</g>
<!-- Node9&#45;&gt;Node10 -->
<g id="edge10_Node000009_Node000010" class="edge">
<title>Node9&#45;&gt;Node10</title>
<g id="a_edge10_Node000009_Node000010"><a xlink:title=" ">
<path fill="none" stroke="#63b8ff" d="M571.09,-281.98C579.92,-283.22 588.95,-284.49 597.89,-285.75"/>
<polygon fill="#63b8ff" stroke="#63b8ff" points="597.52,-289.23 607.91,-287.16 598.49,-282.3 597.52,-289.23"/>
</a>
</g>
</g>
<!-- Node11 -->
<g id="Node000011" class="node">
<title>Node11</title>
<g id="a_Node000011"><a xlink:href="classiii__drone_1_1configuration_1_1Configurator.html#ad6e7318a12eda7011acfbe4276e7056a" target="_top" xlink:title="Gets multiple parameters.">
<polygon fill="white" stroke="#666666" points="961,-292 800,-292 800,-262 961,-262 961,-292"/>
<text text-anchor="start" x="808" y="-280" font-family="Helvetica,sans-Serif" font-size="10.00">iii_drone::configuration</text>
<text text-anchor="middle" x="880.5" y="-269" font-family="Helvetica,sans-Serif" font-size="10.00">::Configurator::GetParameters</text>
</a>
</g>
</g>
<!-- Node10&#45;&gt;Node11 -->
<g id="edge11_Node000010_Node000011" class="edge">
<title>Node10&#45;&gt;Node11</title>
<g id="a_edge11_Node000010_Node000011"><a xlink:title=" ">
<path fill="none" stroke="#63b8ff" d="M764.19,-289.58C772.61,-288.66 781.23,-287.72 789.79,-286.79"/>
<polygon fill="#63b8ff" stroke="#63b8ff" points="790.22,-290.26 799.78,-285.7 789.46,-283.3 790.22,-290.26"/>
</a>
</g>
</g>
<!-- Node12 -->
<g id="Node000012" class="node">
<title>Node12</title>
<g id="a_Node000012"><a xlink:href="classiii__drone_1_1configuration_1_1Configurator.html#ac5360ab6b4f31277c7d73b5579815353" target="_top" xlink:title="Static function for getting string representation of a parameter type from template type.">
<polygon fill="white" stroke="#666666" points="1176,-318.5 997,-318.5 997,-277.5 1176,-277.5 1176,-318.5"/>
<text text-anchor="start" x="1005" y="-306.5" font-family="Helvetica,sans-Serif" font-size="10.00">iii_drone::configuration</text>
<text text-anchor="start" x="1005" y="-295.5" font-family="Helvetica,sans-Serif" font-size="10.00">::Configurator::GetParameterType</text>
<text text-anchor="middle" x="1086.5" y="-284.5" font-family="Helvetica,sans-Serif" font-size="10.00">String</text>
</a>
</g>
</g>
<!-- Node10&#45;&gt;Node12 -->
<g id="edge14_Node000010_Node000012" class="edge">
<title>Node10&#45;&gt;Node12</title>
<g id="a_edge14_Node000010_Node000012"><a xlink:title=" ">
<path fill="none" stroke="#63b8ff" d="M764.19,-300.32C776.18,-300.6 788.42,-300.85 800,-301 871.55,-301.95 889.45,-301.86 961,-301 969.31,-300.9 977.94,-300.76 986.59,-300.6"/>
<polygon fill="#63b8ff" stroke="#63b8ff" points="986.82,-304.1 996.75,-300.4 986.68,-297.1 986.82,-304.1"/>
</a>
</g>
</g>
<!-- Node11&#45;&gt;Node12 -->
<g id="edge12_Node000011_Node000012" class="edge">
<title>Node11&#45;&gt;Node12</title>
<g id="a_edge12_Node000011_Node000012"><a xlink:title=" ">
<path fill="none" stroke="#63b8ff" d="M961.25,-285.21C969.6,-286.07 978.16,-286.95 986.7,-287.83"/>
<polygon fill="#63b8ff" stroke="#63b8ff" points="986.38,-291.31 996.69,-288.86 987.1,-284.35 986.38,-291.31"/>
</a>
</g>
</g>
<!-- Node12&#45;&gt;Node12 -->
<g id="edge13_Node000012_Node000012" class="edge">
<title>Node12&#45;&gt;Node12</title>
<g id="a_edge13_Node000012_Node000012"><a xlink:title=" ">
<path fill="none" stroke="#63b8ff" d="M1048.64,-318.6C1044.51,-328.15 1057.13,-336.5 1086.5,-336.5 1104.86,-336.5 1116.67,-333.24 1121.94,-328.46"/>
<polygon fill="#63b8ff" stroke="#63b8ff" points="1125.38,-329.14 1124.36,-318.6 1118.58,-327.47 1125.38,-329.14"/>
</a>
</g>
</g>
<!-- Node13&#45;&gt;Node10 -->
<g id="edge16_Node000013_Node000010" class="edge">
<title>Node13&#45;&gt;Node10</title>
<g id="a_edge16_Node000013_Node000010"><a xlink:title=" ">
<path fill="none" stroke="#63b8ff" d="M375.09,-339.16C440.21,-330.51 531.24,-318.42 597.79,-309.58"/>
<polygon fill="#63b8ff" stroke="#63b8ff" points="598.39,-313.04 607.84,-308.25 597.47,-306.1 598.39,-313.04"/>
</a>
</g>
</g>
<!-- Node18&#45;&gt;Node9 -->
<g id="edge22_Node000018_Node000009" class="edge">
<title>Node18&#45;&gt;Node9</title>
<g id="a_edge22_Node000018_Node000009"><a xlink:title=" ">
<path fill="none" stroke="#63b8ff" d="M371.56,-256.49C381.85,-257.74 392.46,-259.03 402.91,-260.3"/>
<polygon fill="#63b8ff" stroke="#63b8ff" points="402.51,-263.77 412.86,-261.5 403.36,-256.82 402.51,-263.77"/>
</a>
</g>
</g>
<!-- Node19 -->
<g id="Node000019" class="node">
<title>Node19</title>
<g id="a_Node000019"><a xlink:href="classiii__drone_1_1perception_1_1Powerline.html#ab2546d0e9953b7c265537e43e277768e" target="_top" xlink:title="Stamp getter.">
<polygon fill="white" stroke="#666666" points="550,-167 434,-167 434,-137 550,-137 550,-167"/>
<text text-anchor="start" x="442" y="-155" font-family="Helvetica,sans-Serif" font-size="10.00">iii_drone::perception</text>
<text text-anchor="middle" x="492" y="-144" font-family="Helvetica,sans-Serif" font-size="10.00">::Powerline::stamp</text>
</a>
</g>
</g>
<!-- Node18&#45;&gt;Node19 -->
<g id="edge23_Node000018_Node000019" class="edge">
<title>Node18&#45;&gt;Node19</title>
<g id="a_edge23_Node000018_Node000019"><a xlink:title=" ">
<path fill="none" stroke="#63b8ff" d="M359.37,-226.46C365.18,-223.64 370.82,-220.49 376,-217 395.83,-203.63 391.89,-189.95 412,-177 415.85,-174.52 419.95,-172.28 424.2,-170.24"/>
<polygon fill="#63b8ff" stroke="#63b8ff" points="425.91,-173.31 433.67,-166.11 423.11,-166.9 425.91,-173.31"/>
</a>
</g>
</g>
<!-- Node20 -->
<g id="Node000020" class="node">
<title>Node20</title>
<g id="a_Node000020"><a xlink:href="classiii__drone_1_1adapters_1_1PointCloudAdapter.html#abc0d1153908b68c2ad22cd5f6a70596f" target="_top" xlink:title="Convert to ROS2 message.">
<polygon fill="white" stroke="#666666" points="548.5,-226.5 435.5,-226.5 435.5,-185.5 548.5,-185.5 548.5,-226.5"/>
<text text-anchor="start" x="443.5" y="-214.5" font-family="Helvetica,sans-Serif" font-size="10.00">iii_drone::adapters</text>
<text text-anchor="start" x="443.5" y="-203.5" font-family="Helvetica,sans-Serif" font-size="10.00">::PointCloudAdapter</text>
<text text-anchor="middle" x="492" y="-192.5" font-family="Helvetica,sans-Serif" font-size="10.00">::ToMsg</text>
</a>
</g>
</g>
<!-- Node18&#45;&gt;Node20 -->
<g id="edge24_Node000018_Node000020" class="edge">
<title>Node18&#45;&gt;Node20</title>
<g id="a_edge24_Node000018_Node000020"><a xlink:title=" ">
<path fill="none" stroke="#63b8ff" d="M371.56,-230.8C389.4,-227.09 408.19,-223.19 425.45,-219.61"/>
<polygon fill="#63b8ff" stroke="#63b8ff" points="426.34,-223 435.42,-217.54 424.92,-216.14 426.34,-223"/>
</a>
</g>
</g>
<!-- Node21&#45;&gt;Node3 -->
<g id="edge31_Node000021_Node000003" class="edge">
<title>Node21&#45;&gt;Node3</title>
<g id="a_edge31_Node000021_Node000003"><a xlink:title=" ">
<path fill="none" stroke="#63b8ff" d="M317.54,-455.06C334.52,-466.13 357.45,-481.97 376,-498 393.6,-513.21 392.21,-523.77 412,-536 414.66,-537.64 417.44,-539.18 420.29,-540.62"/>
<polygon fill="#63b8ff" stroke="#63b8ff" points="419.1,-543.92 429.65,-544.88 422,-537.55 419.1,-543.92"/>
</a>
</g>
</g>
<!-- Node22 -->
<g id="Node000022" class="node">
<title>Node22</title>
<g id="a_Node000022"><a xlink:href="classiii__drone_1_1perception_1_1Powerline.html#a9b87d73cd3bd8843b500824d3dd029d8" target="_top" xlink:title="Finds the matching line for a point.">
<polygon fill="white" stroke="#666666" points="572,-383 412,-383 412,-353 572,-353 572,-383"/>
<text text-anchor="start" x="420" y="-371" font-family="Helvetica,sans-Serif" font-size="10.00">iii_drone::perception</text>
<text text-anchor="middle" x="492" y="-360" font-family="Helvetica,sans-Serif" font-size="10.00">::Powerline::findMatchingLine</text>
</a>
</g>
</g>
<!-- Node21&#45;&gt;Node22 -->
<g id="edge26_Node000021_Node000022" class="edge">
<title>Node21&#45;&gt;Node22</title>
<g id="a_edge26_Node000021_Node000022"><a xlink:title=" ">
<path fill="none" stroke="#63b8ff" d="M328.18,-424.99C351.64,-415.08 383.44,-402.1 412,-392 417.54,-390.04 423.33,-388.09 429.15,-386.2"/>
<polygon fill="#63b8ff" stroke="#63b8ff" points="430.47,-389.46 438.94,-383.09 428.35,-382.79 430.47,-389.46"/>
</a>
</g>
</g>
<!-- Node23 -->
<g id="Node000023" class="node">
<title>Node23</title>
<g id="a_Node000023"><a xlink:href="classiii__drone_1_1utils_1_1History.html#ad80957391e0cd45d17f023760daf0350" target="_top" xlink:title="Returns true if the history is full.">
<polygon fill="white" stroke="#666666" points="555.5,-527 428.5,-527 428.5,-497 555.5,-497 555.5,-527"/>
<text text-anchor="start" x="436.5" y="-515" font-family="Helvetica,sans-Serif" font-size="10.00">iii_drone::utils::History</text>
<text text-anchor="middle" x="492" y="-504" font-family="Helvetica,sans-Serif" font-size="10.00">::full</text>
</a>
</g>
</g>
<!-- Node21&#45;&gt;Node23 -->
<g id="edge27_Node000021_Node000023" class="edge">
<title>Node21&#45;&gt;Node23</title>
<g id="a_edge27_Node000021_Node000023"><a xlink:title=" ">
<path fill="none" stroke="#63b8ff" d="M328.18,-455.01C351.64,-464.92 383.44,-477.9 412,-488 417.54,-489.96 423.33,-491.91 429.15,-493.8"/>
<polygon fill="#63b8ff" stroke="#63b8ff" points="428.35,-497.21 438.94,-496.91 430.47,-490.54 428.35,-497.21"/>
</a>
</g>
</g>
<!-- Node24 -->
<g id="Node000024" class="node">
<title>Node24</title>
<g id="a_Node000024"><a xlink:href="classiii__drone_1_1perception_1_1Powerline.html#a5a693a6ba3b403a06a85d150eae9ae38" target="_top" xlink:title="Projects a point onto the powerline projection plane.">
<polygon fill="white" stroke="#666666" points="559.5,-479 424.5,-479 424.5,-449 559.5,-449 559.5,-479"/>
<text text-anchor="start" x="432.5" y="-467" font-family="Helvetica,sans-Serif" font-size="10.00">iii_drone::perception</text>
<text text-anchor="middle" x="492" y="-456" font-family="Helvetica,sans-Serif" font-size="10.00">::Powerline::projectPoint</text>
</a>
</g>
</g>
<!-- Node21&#45;&gt;Node24 -->
<g id="edge28_Node000021_Node000024" class="edge">
<title>Node21&#45;&gt;Node24</title>
<g id="a_edge28_Node000021_Node000024"><a xlink:title=" ">
<path fill="none" stroke="#63b8ff" d="M358.72,-447.93C376.44,-450.08 395.81,-452.43 414.12,-454.66"/>
<polygon fill="#63b8ff" stroke="#63b8ff" points="413.81,-458.15 424.16,-455.88 414.66,-451.2 413.81,-458.15"/>
</a>
</g>
</g>
<!-- Node26 -->
<g id="Node000026" class="node">
<title>Node26</title>
<g id="a_Node000026"><a xlink:href="classiii__drone_1_1perception_1_1Powerline.html#aaf01bd6fa116d375dd13f236780aff61" target="_top" xlink:title="Registers a new line.">
<polygon fill="white" stroke="#666666" points="570,-431 414,-431 414,-401 570,-401 570,-431"/>
<text text-anchor="start" x="422" y="-419" font-family="Helvetica,sans-Serif" font-size="10.00">iii_drone::perception</text>
<text text-anchor="middle" x="492" y="-408" font-family="Helvetica,sans-Serif" font-size="10.00">::Powerline::registerNewLine</text>
</a>
</g>
</g>
<!-- Node21&#45;&gt;Node26 -->
<g id="edge30_Node000021_Node000026" class="edge">
<title>Node21&#45;&gt;Node26</title>
<g id="a_edge30_Node000021_Node000026"><a xlink:title=" ">
<path fill="none" stroke="#63b8ff" d="M358.72,-432.07C373.05,-430.33 388.45,-428.46 403.5,-426.63"/>
<polygon fill="#63b8ff" stroke="#63b8ff" points="404.34,-430.06 413.84,-425.38 403.5,-423.11 404.34,-430.06"/>
</a>
</g>
</g>
<!-- Node25 -->
<g id="Node000025" class="node">
<title>Node25</title>
<g id="a_Node000025"><a xlink:href="namespaceiii__drone_1_1math.html#aae5152700f4f75e55960b3a9d6962774" target="_top" xlink:title=" ">
<polygon fill="white" stroke="#666666" points="751,-479 621,-479 621,-449 751,-449 751,-479"/>
<text text-anchor="start" x="629" y="-467" font-family="Helvetica,sans-Serif" font-size="10.00">iii_drone::math::project</text>
<text text-anchor="middle" x="686" y="-456" font-family="Helvetica,sans-Serif" font-size="10.00">PointOnPlane</text>
</a>
</g>
</g>
<!-- Node24&#45;&gt;Node25 -->
<g id="edge29_Node000024_Node000025" class="edge">
<title>Node24&#45;&gt;Node25</title>
<g id="a_edge29_Node000024_Node000025"><a xlink:title=" ">
<path fill="none" stroke="#63b8ff" d="M559.61,-464C576.03,-464 593.71,-464 610.47,-464"/>
<polygon fill="#63b8ff" stroke="#63b8ff" points="610.77,-467.5 620.77,-464 610.77,-460.5 610.77,-467.5"/>
</a>
</g>
</g>
</g>
</svg>

<g id="navigator" transform="translate(0 0)" fill="#404254">
  <rect fill="#f2f5e9" fill-opacity="0.5" stroke="#606060" stroke-width=".5" x="0" y="0" width="60" height="60"/>
  <use id="zoomplus" xlink:href="#zoomPlus" x="17" y="9" onmousedown="handleZoom(evt,'in')"/>
  <use id="zoomminus" xlink:href="#zoomMin" x="42" y="9" onmousedown="handleZoom(evt,'out')"/>
  <use id="reset" xlink:href="#resetDef" x="30" y="36" onmousedown="handleReset()"/>
   <use id="arrowup" xlink:href="#arrowUp" x="0" y="0" onmousedown="handlePan(0,-1)"/>
  <use id="arrowright" xlink:href="#arrowRight" x="0" y="0" onmousedown="handlePan(1,0)"/>
  <use id="arrowdown" xlink:href="#arrowDown" x="0" y="0" onmousedown="handlePan(0,1)"/>
  <use id="arrowleft" xlink:href="#arrowLeft" x="0" y="0" onmousedown="handlePan(-1,0)"/>
</g>
<svg viewBox="0 0 15 15" width="100%" height="30px" preserveAspectRatio="xMaxYMin meet">
 <g id="arrow_out" transform="scale(0.3 0.3)">
  <a xlink:href="classiii__drone_1_1perception_1_1pl__mapper__node_1_1PowerlineMapperNode_a155acd1e412911b7e8cf989e949a2e2f_cgraph_org.svg" target="_base">
   <rect id="button" ry="5" rx="5" y="6" x="6" height="38" width="38"
        fill="#f2f5e9" fill-opacity="0.5" stroke="#606060" stroke-width="1.0"/>
   <path id="arrow"
     d="M 11.500037,31.436501 C 11.940474,20.09759 22.043105,11.32322 32.158766,21.979434 L 37.068811,17.246167 C 37.068811,17.246167 37.088388,32 37.088388,32 L 22.160133,31.978069 C 22.160133,31.978069 26.997745,27.140456 26.997745,27.140456 C 18.528582,18.264221 13.291696,25.230495 11.500037,31.436501 z"
     style="fill:#404040;"/>
  </a>
 </g>
</svg>

<style type='text/css'>
<![CDATA[
[data-mouse-over-selected='false'] { opacity: 0.7; }
[data-mouse-over-selected='true']  { opacity: 1.0; }
]]>
</style>
<script type="application/ecmascript"><![CDATA[
document.addEventListener('DOMContentLoaded', (event) => {
  highlightEdges();
  highlightAdjacentNodes();
});
]]></script>
</svg>
