<?xml version="1.0" encoding="UTF-8" standalone="no"?>
<!DOCTYPE svg PUBLIC "-//W3C//DTD SVG 1.1//EN"
 "http://www.w3.org/Graphics/SVG/1.1/DTD/svg11.dtd">
<!-- Generated by graphviz version 2.43.0 (0)
 -->
<!-- Title: iii_drone::control::CombinedDroneAwarenessHandlerParameters::world_frame_id Pages: 1 -->
<svg width="950pt" height="356pt"
 viewBox="0.00 0.00 950.00 355.50" xmlns="http://www.w3.org/2000/svg" xmlns:xlink="http://www.w3.org/1999/xlink">
<g id="graph0" class="graph" transform="scale(1 1) rotate(0) translate(4 351.5)">
<title>iii_drone::control::CombinedDroneAwarenessHandlerParameters::world_frame_id</title>
<!-- Node1 -->
<g id="Node000001" class="node">
<title>Node1</title>
<g id="a_Node000001"><a xlink:title="Get the world frame id.">
<polygon fill="#999999" stroke="#666666" points="942,-137.5 749,-137.5 749,-96.5 942,-96.5 942,-137.5"/>
<text text-anchor="start" x="757" y="-125.5" font-family="Helvetica,sans-Serif" font-size="10.00">iii_drone::control</text>
<text text-anchor="start" x="757" y="-114.5" font-family="Helvetica,sans-Serif" font-size="10.00">::CombinedDroneAwarenessHandler</text>
<text text-anchor="middle" x="845.5" y="-103.5" font-family="Helvetica,sans-Serif" font-size="10.00">Parameters::world_frame_id</text>
</a>
</g>
</g>
<!-- Node2 -->
<g id="Node000002" class="node">
<title>Node2</title>
<g id="a_Node000002"><a xlink:href="classiii__drone_1_1control_1_1CombinedDroneAwarenessHandler.html#ab9c3e7f08103bc40c70efd3ca93f040b" target="_top" xlink:title="Computes a target transform given a target adapter.">
<polygon fill="white" stroke="#666666" points="713,-199.5 520,-199.5 520,-158.5 713,-158.5 713,-199.5"/>
<text text-anchor="start" x="528" y="-187.5" font-family="Helvetica,sans-Serif" font-size="10.00">iii_drone::control</text>
<text text-anchor="start" x="528" y="-176.5" font-family="Helvetica,sans-Serif" font-size="10.00">::CombinedDroneAwarenessHandler</text>
<text text-anchor="middle" x="616.5" y="-165.5" font-family="Helvetica,sans-Serif" font-size="10.00">::ComputeTargetTransform</text>
</a>
</g>
</g>
<!-- Node1&#45;&gt;Node2 -->
<g id="edge1_Node000001_Node000002" class="edge">
<title>Node1&#45;&gt;Node2</title>
<g id="a_edge1_Node000001_Node000002"><a xlink:title=" ">
<path fill="none" stroke="#63b8ff" d="M759.57,-140.2C737.57,-146.21 714.03,-152.64 692.57,-158.5"/>
<polygon fill="#63b8ff" stroke="#63b8ff" points="760.5,-143.57 769.23,-137.56 758.66,-136.82 760.5,-143.57"/>
</a>
</g>
</g>
<!-- Node12 -->
<g id="Node000012" class="node">
<title>Node12</title>
<g id="a_Node000012"><a xlink:href="classiii__drone_1_1control_1_1CombinedDroneAwarenessHandler.html#a074d271a237bc7fc08e75ba137478b30" target="_top" xlink:title="Updates the ground altitude estimate based on given information. Will either start or stop the timer ...">
<polygon fill="white" stroke="#666666" points="713,-108.5 520,-108.5 520,-67.5 713,-67.5 713,-108.5"/>
<text text-anchor="start" x="528" y="-96.5" font-family="Helvetica,sans-Serif" font-size="10.00">iii_drone::control</text>
<text text-anchor="start" x="528" y="-85.5" font-family="Helvetica,sans-Serif" font-size="10.00">::CombinedDroneAwarenessHandler</text>
<text text-anchor="middle" x="616.5" y="-74.5" font-family="Helvetica,sans-Serif" font-size="10.00">::updateGroundAltitudeEstimate</text>
</a>
</g>
</g>
<!-- Node1&#45;&gt;Node12 -->
<g id="edge11_Node000001_Node000012" class="edge">
<title>Node1&#45;&gt;Node12</title>
<g id="a_edge11_Node000001_Node000012"><a xlink:title=" ">
<path fill="none" stroke="#63b8ff" d="M738.82,-103.5C730.21,-102.4 721.53,-101.29 713,-100.2"/>
<polygon fill="#63b8ff" stroke="#63b8ff" points="738.53,-106.99 748.89,-104.79 739.41,-100.05 738.53,-106.99"/>
</a>
</g>
</g>
<!-- Node3 -->
<g id="Node000003" class="node">
<title>Node3</title>
<g id="a_Node000003"><a xlink:href="classiii__drone_1_1control_1_1maneuver_1_1FlyToObjectManeuverServer.html#a7a9d2b2d6d91f20491eab552a16f9955" target="_top" xlink:title="Whether the maneuver can be executed.">
<polygon fill="white" stroke="#666666" points="452,-347.5 268,-347.5 268,-306.5 452,-306.5 452,-347.5"/>
<text text-anchor="start" x="276" y="-335.5" font-family="Helvetica,sans-Serif" font-size="10.00">iii_drone::control</text>
<text text-anchor="start" x="276" y="-324.5" font-family="Helvetica,sans-Serif" font-size="10.00">::maneuver::FlyToObjectManeuver</text>
<text text-anchor="middle" x="360" y="-313.5" font-family="Helvetica,sans-Serif" font-size="10.00">Server::CanExecuteManeuver</text>
</a>
</g>
</g>
<!-- Node2&#45;&gt;Node3 -->
<g id="edge2_Node000002_Node000003" class="edge">
<title>Node2&#45;&gt;Node3</title>
<g id="a_edge2_Node000002_Node000003"><a xlink:title=" ">
<path fill="none" stroke="#63b8ff" d="M591.96,-207.36C567.71,-234.71 527.42,-275.2 484,-298 474.09,-303.2 463.25,-307.48 452.24,-311"/>
<polygon fill="#63b8ff" stroke="#63b8ff" points="594.73,-209.51 598.66,-199.68 589.45,-204.91 594.73,-209.51"/>
</a>
</g>
</g>
<!-- Node4 -->
<g id="Node000004" class="node">
<title>Node4</title>
<g id="a_Node000004"><a xlink:href="classiii__drone_1_1control_1_1maneuver_1_1HoverByObjectManeuverServer.html#a43a1bd4911d8cb93397ab2eeabd61ee4" target="_top" xlink:title="Whether the maneuver can be executed, will return false if the target is not visible or the drone has...">
<polygon fill="white" stroke="#666666" points="460,-288.5 260,-288.5 260,-247.5 460,-247.5 460,-288.5"/>
<text text-anchor="start" x="268" y="-276.5" font-family="Helvetica,sans-Serif" font-size="10.00">iii_drone::control</text>
<text text-anchor="start" x="268" y="-265.5" font-family="Helvetica,sans-Serif" font-size="10.00">::maneuver::HoverByObjectManeuver</text>
<text text-anchor="middle" x="360" y="-254.5" font-family="Helvetica,sans-Serif" font-size="10.00">Server::CanExecuteManeuver</text>
</a>
</g>
</g>
<!-- Node2&#45;&gt;Node4 -->
<g id="edge3_Node000002_Node000004" class="edge">
<title>Node2&#45;&gt;Node4</title>
<g id="a_edge3_Node000002_Node000004"><a xlink:title=" ">
<path fill="none" stroke="#63b8ff" d="M566.72,-204.04C542.34,-215.83 512.1,-229.38 484,-239 475.18,-242.02 465.9,-244.84 456.55,-247.43"/>
<polygon fill="#63b8ff" stroke="#63b8ff" points="568.31,-207.15 575.76,-199.61 565.24,-200.86 568.31,-207.15"/>
</a>
</g>
</g>
<!-- Node5 -->
<g id="Node000005" class="node">
<title>Node5</title>
<g id="a_Node000005"><a xlink:href="classiii__drone_1_1control_1_1maneuver_1_1HoverByObjectManeuverServer.html#a4eb2e2eafbed623aeb6b16536465f896" target="_top" xlink:title="Gets the hover reference. The current state is not used. Will call the on fail callback if the target...">
<polygon fill="white" stroke="#666666" points="460,-229.5 260,-229.5 260,-188.5 460,-188.5 460,-229.5"/>
<text text-anchor="start" x="268" y="-217.5" font-family="Helvetica,sans-Serif" font-size="10.00">iii_drone::control</text>
<text text-anchor="start" x="268" y="-206.5" font-family="Helvetica,sans-Serif" font-size="10.00">::maneuver::HoverByObjectManeuver</text>
<text text-anchor="middle" x="360" y="-195.5" font-family="Helvetica,sans-Serif" font-size="10.00">Server::GetReference</text>
</a>
</g>
</g>
<!-- Node2&#45;&gt;Node5 -->
<g id="edge4_Node000002_Node000005" class="edge">
<title>Node2&#45;&gt;Node5</title>
<g id="a_edge4_Node000002_Node000005"><a xlink:title=" ">
<path fill="none" stroke="#63b8ff" d="M509.54,-191.49C493.19,-193.42 476.35,-195.4 460.16,-197.31"/>
<polygon fill="#63b8ff" stroke="#63b8ff" points="510.13,-194.95 519.65,-190.3 509.31,-187.99 510.13,-194.95"/>
</a>
</g>
</g>
<!-- Node9 -->
<g id="Node000009" class="node">
<title>Node9</title>
<g id="a_Node000009"><a xlink:href="classiii__drone_1_1control_1_1maneuver_1_1HoverByObjectManeuverServer.html#a7e09c4b73237e76701d9e83785e05077" target="_top" xlink:title="Returns true if the maneuver has succeeded. Has succeeded if the target is visible and the drone is w...">
<polygon fill="white" stroke="#666666" points="460,-170.5 260,-170.5 260,-129.5 460,-129.5 460,-170.5"/>
<text text-anchor="start" x="268" y="-158.5" font-family="Helvetica,sans-Serif" font-size="10.00">iii_drone::control</text>
<text text-anchor="start" x="268" y="-147.5" font-family="Helvetica,sans-Serif" font-size="10.00">::maneuver::HoverByObjectManeuver</text>
<text text-anchor="middle" x="360" y="-136.5" font-family="Helvetica,sans-Serif" font-size="10.00">Server::hasSucceeded</text>
</a>
</g>
</g>
<!-- Node2&#45;&gt;Node9 -->
<g id="edge8_Node000002_Node000009" class="edge">
<title>Node2&#45;&gt;Node9</title>
<g id="a_edge8_Node000002_Node000009"><a xlink:title=" ">
<path fill="none" stroke="#63b8ff" d="M509.54,-166.93C493.19,-165.06 476.35,-163.14 460.16,-161.3"/>
<polygon fill="#63b8ff" stroke="#63b8ff" points="509.32,-170.42 519.65,-168.08 510.11,-163.47 509.32,-170.42"/>
</a>
</g>
</g>
<!-- Node11 -->
<g id="Node000011" class="node">
<title>Node11</title>
<g id="a_Node000011"><a xlink:href="classiii__drone_1_1control_1_1maneuver_1_1HoverByObjectManeuverServer.html#ac08b547da2cbfe0165a2ccca6b639c02" target="_top" xlink:title="Updates the hover reference.">
<polygon fill="white" stroke="#666666" points="460,-111.5 260,-111.5 260,-70.5 460,-70.5 460,-111.5"/>
<text text-anchor="start" x="268" y="-99.5" font-family="Helvetica,sans-Serif" font-size="10.00">iii_drone::control</text>
<text text-anchor="start" x="268" y="-88.5" font-family="Helvetica,sans-Serif" font-size="10.00">::maneuver::HoverByObjectManeuver</text>
<text text-anchor="middle" x="360" y="-77.5" font-family="Helvetica,sans-Serif" font-size="10.00">Server::Update</text>
</a>
</g>
</g>
<!-- Node2&#45;&gt;Node11 -->
<g id="edge10_Node000002_Node000011" class="edge">
<title>Node2&#45;&gt;Node11</title>
<g id="a_edge10_Node000002_Node000011"><a xlink:title=" ">
<path fill="none" stroke="#63b8ff" d="M564.63,-154.05C540.57,-142.91 511.22,-130.24 484,-121 474.01,-117.61 463.44,-114.43 452.86,-111.51"/>
<polygon fill="#63b8ff" stroke="#63b8ff" points="563.37,-157.33 573.91,-158.4 566.33,-150.99 563.37,-157.33"/>
</a>
</g>
</g>
<!-- Node6 -->
<g id="Node000006" class="node">
<title>Node6</title>
<g id="a_Node000006"><a xlink:href="classiii__drone_1_1control_1_1maneuver_1_1HoverByObjectManeuverServer.html#a8651f18cdc5c9b85ff145c7decac4ddc" target="_top" xlink:title="Computes the hover by object reference for the maneuver server.">
<polygon fill="white" stroke="#666666" points="200,-329.5 0,-329.5 0,-288.5 200,-288.5 200,-329.5"/>
<text text-anchor="start" x="8" y="-317.5" font-family="Helvetica,sans-Serif" font-size="10.00">iii_drone::control</text>
<text text-anchor="start" x="8" y="-306.5" font-family="Helvetica,sans-Serif" font-size="10.00">::maneuver::HoverByObjectManeuver</text>
<text text-anchor="middle" x="100" y="-295.5" font-family="Helvetica,sans-Serif" font-size="10.00">Server::computeReference</text>
</a>
</g>
</g>
<!-- Node5&#45;&gt;Node6 -->
<g id="edge5_Node000005_Node000006" class="edge">
<title>Node5&#45;&gt;Node6</title>
<g id="a_edge5_Node000005_Node000006"><a xlink:title=" ">
<path fill="none" stroke="#63b8ff" d="M250.62,-231.4C245.56,-233.69 240.66,-236.22 236,-239 215.47,-251.27 220.19,-266.17 200,-279 194.47,-282.52 188.5,-285.64 182.33,-288.41"/>
<polygon fill="#63b8ff" stroke="#63b8ff" points="252,-234.62 259.87,-227.52 249.3,-228.16 252,-234.62"/>
</a>
</g>
</g>
<!-- Node7 -->
<g id="Node000007" class="node">
<title>Node7</title>
<g id="a_Node000007"><a xlink:href="classiii__drone_1_1control_1_1maneuver_1_1FlyToObjectManeuverServer.html#a8cd7c6981d54cd5aa868f25d843ad0d0" target="_top" xlink:title="Registers the hover by object reference callback on success.">
<polygon fill="white" stroke="#666666" points="198.5,-270 1.5,-270 1.5,-218 198.5,-218 198.5,-270"/>
<text text-anchor="start" x="9.5" y="-258" font-family="Helvetica,sans-Serif" font-size="10.00">iii_drone::control</text>
<text text-anchor="start" x="9.5" y="-247" font-family="Helvetica,sans-Serif" font-size="10.00">::maneuver::FlyToObjectManeuver</text>
<text text-anchor="start" x="9.5" y="-236" font-family="Helvetica,sans-Serif" font-size="10.00">Server::registerReferenceCallbackOn</text>
<text text-anchor="middle" x="100" y="-225" font-family="Helvetica,sans-Serif" font-size="10.00">Success</text>
</a>
</g>
</g>
<!-- Node5&#45;&gt;Node7 -->
<g id="edge6_Node000005_Node000007" class="edge">
<title>Node5&#45;&gt;Node7</title>
<g id="a_edge6_Node000005_Node000007"><a xlink:title=" ">
<path fill="none" stroke="#63b8ff" d="M250.05,-223.78C233.07,-226.08 215.61,-228.45 198.9,-230.72"/>
<polygon fill="#63b8ff" stroke="#63b8ff" points="250.55,-227.24 259.99,-222.43 249.61,-220.31 250.55,-227.24"/>
</a>
</g>
</g>
<!-- Node8 -->
<g id="Node000008" class="node">
<title>Node8</title>
<g id="a_Node000008"><a xlink:href="classiii__drone_1_1control_1_1maneuver_1_1HoverByObjectManeuverServer.html#a42d65b247ee89440e63ed7c992c4772e" target="_top" xlink:title="Registers the hover by object reference callback on success.">
<polygon fill="white" stroke="#666666" points="200,-200 0,-200 0,-148 200,-148 200,-200"/>
<text text-anchor="start" x="8" y="-188" font-family="Helvetica,sans-Serif" font-size="10.00">iii_drone::control</text>
<text text-anchor="start" x="8" y="-177" font-family="Helvetica,sans-Serif" font-size="10.00">::maneuver::HoverByObjectManeuver</text>
<text text-anchor="start" x="8" y="-166" font-family="Helvetica,sans-Serif" font-size="10.00">Server::registerReferenceCallbackOn</text>
<text text-anchor="middle" x="100" y="-155" font-family="Helvetica,sans-Serif" font-size="10.00">Success</text>
</a>
</g>
</g>
<!-- Node5&#45;&gt;Node8 -->
<g id="edge7_Node000005_Node000008" class="edge">
<title>Node5&#45;&gt;Node8</title>
<g id="a_edge7_Node000005_Node000008"><a xlink:title=" ">
<path fill="none" stroke="#63b8ff" d="M249.8,-194.19C233.33,-191.95 216.42,-189.66 200.17,-187.45"/>
<polygon fill="#63b8ff" stroke="#63b8ff" points="249.61,-197.69 259.99,-195.57 250.55,-190.76 249.61,-197.69"/>
</a>
</g>
</g>
<!-- Node10 -->
<g id="Node000010" class="node">
<title>Node10</title>
<g id="a_Node000010"><a xlink:href="classiii__drone_1_1control_1_1maneuver_1_1HoverByObjectManeuverServer.html#af8528504b83c4c9b405f496ccc269e10" target="_top" xlink:title="Returns true if the maneuver has failed. Has failed if the target is not visible or the drone has dri...">
<polygon fill="white" stroke="#666666" points="200,-129.5 0,-129.5 0,-88.5 200,-88.5 200,-129.5"/>
<text text-anchor="start" x="8" y="-117.5" font-family="Helvetica,sans-Serif" font-size="10.00">iii_drone::control</text>
<text text-anchor="start" x="8" y="-106.5" font-family="Helvetica,sans-Serif" font-size="10.00">::maneuver::HoverByObjectManeuver</text>
<text text-anchor="middle" x="100" y="-95.5" font-family="Helvetica,sans-Serif" font-size="10.00">Server::hasFailed</text>
</a>
</g>
</g>
<!-- Node9&#45;&gt;Node10 -->
<g id="edge9_Node000009_Node000010" class="edge">
<title>Node9&#45;&gt;Node10</title>
<g id="a_edge9_Node000009_Node000010"><a xlink:title=" ">
<path fill="none" stroke="#63b8ff" d="M249.8,-132.65C233.33,-130.03 216.42,-127.34 200.17,-124.76"/>
<polygon fill="#63b8ff" stroke="#63b8ff" points="249.56,-136.15 259.99,-134.27 250.66,-129.24 249.56,-136.15"/>
</a>
</g>
</g>
<!-- Node13 -->
<g id="Node000013" class="node">
<title>Node13</title>
<g id="a_Node000013"><a xlink:href="classiii__drone_1_1control_1_1CombinedDroneAwarenessHandler.html#a197c146061816403499a4e652a8fe646" target="_top" xlink:title="Updates the given combined drone awareness from the vehicle odometry. Triggers updates of ground alti...">
<polygon fill="white" stroke="#666666" points="484,-52 236,-52 236,0 484,0 484,-52"/>
<text text-anchor="start" x="244" y="-40" font-family="Helvetica,sans-Serif" font-size="10.00">iii_drone::control</text>
<text text-anchor="start" x="244" y="-29" font-family="Helvetica,sans-Serif" font-size="10.00">::CombinedDroneAwarenessHandler</text>
<text text-anchor="start" x="244" y="-18" font-family="Helvetica,sans-Serif" font-size="10.00">::updateCombinedDroneAwarenessFromVehicle</text>
<text text-anchor="middle" x="360" y="-7" font-family="Helvetica,sans-Serif" font-size="10.00">Odometry</text>
</a>
</g>
</g>
<!-- Node12&#45;&gt;Node13 -->
<g id="edge12_Node000012_Node000013" class="edge">
<title>Node12&#45;&gt;Node13</title>
<g id="a_edge12_Node000012_Node000013"><a xlink:title=" ">
<path fill="none" stroke="#63b8ff" d="M521.02,-64.98C503.69,-60.76 485.49,-56.33 467.83,-52.02"/>
<polygon fill="#63b8ff" stroke="#63b8ff" points="520.56,-68.47 531.11,-67.44 522.22,-61.67 520.56,-68.47"/>
</a>
</g>
</g>
</g>
</svg>
