<?xml version="1.0" encoding="UTF-8" standalone="no"?>
<!DOCTYPE svg PUBLIC "-//W3C//DTD SVG 1.1//EN"
 "http://www.w3.org/Graphics/SVG/1.1/DTD/svg11.dtd">
<!-- Generated by graphviz version 2.43.0 (0)
 -->
<!-- Title: iii_drone::perception::SingleLine::quaternion Pages: 1 -->
<svg width="314pt" height="230pt"
 viewBox="0.00 0.00 314.00 230.00" xmlns="http://www.w3.org/2000/svg" xmlns:xlink="http://www.w3.org/1999/xlink">
<g id="graph0" class="graph" transform="scale(1 1) rotate(0) translate(4 226)">
<title>iii_drone::perception::SingleLine::quaternion</title>
<!-- Node1 -->
<g id="Node000001" class="node">
<title>Node1</title>
<g id="a_Node000001"><a xlink:title="quaternion getter.">
<polygon fill="#999999" stroke="#666666" points="306,-126 175,-126 175,-96 306,-96 306,-126"/>
<text text-anchor="start" x="183" y="-114" font-family="Helvetica,sans-Serif" font-size="10.00">iii_drone::perception</text>
<text text-anchor="middle" x="240.5" y="-103" font-family="Helvetica,sans-Serif" font-size="10.00">::SingleLine::quaternion</text>
</a>
</g>
</g>
<!-- Node2 -->
<g id="Node000002" class="node">
<title>Node2</title>
<g id="a_Node000002"><a xlink:href="classiii__drone_1_1perception_1_1SingleLine.html#a0133f9ac4eaac14f379b35313e6dfcbe" target="_top" xlink:title="Assignment operator overload.">
<polygon fill="white" stroke="#666666" points="133.5,-222 5.5,-222 5.5,-192 133.5,-192 133.5,-222"/>
<text text-anchor="start" x="13.5" y="-210" font-family="Helvetica,sans-Serif" font-size="10.00">iii_drone::perception</text>
<text text-anchor="middle" x="69.5" y="-199" font-family="Helvetica,sans-Serif" font-size="10.00">::SingleLine::operator=</text>
</a>
</g>
</g>
<!-- Node1&#45;&gt;Node2 -->
<g id="edge1_Node000001_Node000002" class="edge">
<title>Node1&#45;&gt;Node2</title>
<g id="a_edge1_Node000001_Node000002"><a xlink:title=" ">
<path fill="none" stroke="#63b8ff" d="M213.81,-132.55C194.25,-148.15 166.16,-168.88 139,-183 132.74,-186.25 125.94,-189.23 119.14,-191.9"/>
<polygon fill="#63b8ff" stroke="#63b8ff" points="216.06,-135.23 221.64,-126.21 211.66,-129.78 216.06,-135.23"/>
</a>
</g>
</g>
<!-- Node3 -->
<g id="Node000003" class="node">
<title>Node3</title>
<g id="a_Node000003"><a xlink:href="classiii__drone_1_1perception_1_1SingleLine.html#a696e834bec8b059b4c2caccd647b22a0" target="_top" xlink:title="Sets the direction.">
<polygon fill="white" stroke="#666666" points="139,-174 0,-174 0,-144 139,-144 139,-174"/>
<text text-anchor="start" x="8" y="-162" font-family="Helvetica,sans-Serif" font-size="10.00">iii_drone::perception</text>
<text text-anchor="middle" x="69.5" y="-151" font-family="Helvetica,sans-Serif" font-size="10.00">::SingleLine::SetDirection</text>
</a>
</g>
</g>
<!-- Node1&#45;&gt;Node3 -->
<g id="edge2_Node000001_Node000003" class="edge">
<title>Node1&#45;&gt;Node3</title>
<g id="a_edge2_Node000001_Node000003"><a xlink:title=" ">
<path fill="none" stroke="#63b8ff" d="M176.87,-128.79C159.26,-133.79 140.29,-139.18 123.32,-144"/>
<polygon fill="#63b8ff" stroke="#63b8ff" points="177.83,-132.15 186.49,-126.06 175.92,-125.42 177.83,-132.15"/>
</a>
</g>
</g>
<!-- Node4 -->
<g id="Node000004" class="node">
<title>Node4</title>
<g id="a_Node000004"><a xlink:href="classiii__drone_1_1perception_1_1SingleLine.html#aeae812b3b71d393bf0ecfab593b82d74" target="_top" xlink:title="Constructor from position and quaternion.">
<polygon fill="white" stroke="#666666" points="134,-126 5,-126 5,-96 134,-96 134,-126"/>
<text text-anchor="start" x="13" y="-114" font-family="Helvetica,sans-Serif" font-size="10.00">iii_drone::perception</text>
<text text-anchor="middle" x="69.5" y="-103" font-family="Helvetica,sans-Serif" font-size="10.00">::SingleLine::SingleLine</text>
</a>
</g>
</g>
<!-- Node1&#45;&gt;Node4 -->
<g id="edge3_Node000001_Node000004" class="edge">
<title>Node1&#45;&gt;Node4</title>
<g id="a_edge3_Node000001_Node000004"><a xlink:title=" ">
<path fill="none" stroke="#63b8ff" d="M164.55,-111C154.38,-111 144.02,-111 134.07,-111"/>
<polygon fill="#63b8ff" stroke="#63b8ff" points="164.64,-114.5 174.64,-111 164.64,-107.5 164.64,-114.5"/>
</a>
</g>
</g>
<!-- Node5 -->
<g id="Node000005" class="node">
<title>Node5</title>
<g id="a_Node000005"><a xlink:href="classiii__drone_1_1perception_1_1SingleLine.html#a1e23fe7383e4107769b577fab3ff8faa" target="_top" xlink:title="Constructor from position, quaternion and frame_id.">
<polygon fill="white" stroke="#666666" points="134,-78 5,-78 5,-48 134,-48 134,-78"/>
<text text-anchor="start" x="13" y="-66" font-family="Helvetica,sans-Serif" font-size="10.00">iii_drone::perception</text>
<text text-anchor="middle" x="69.5" y="-55" font-family="Helvetica,sans-Serif" font-size="10.00">::SingleLine::SingleLine</text>
</a>
</g>
</g>
<!-- Node1&#45;&gt;Node5 -->
<g id="edge4_Node000001_Node000005" class="edge">
<title>Node1&#45;&gt;Node5</title>
<g id="a_edge4_Node000001_Node000005"><a xlink:title=" ">
<path fill="none" stroke="#63b8ff" d="M176.87,-93.21C159.26,-88.21 140.29,-82.82 123.32,-78"/>
<polygon fill="#63b8ff" stroke="#63b8ff" points="175.92,-96.58 186.49,-95.94 177.83,-89.85 175.92,-96.58"/>
</a>
</g>
</g>
<!-- Node6 -->
<g id="Node000006" class="node">
<title>Node6</title>
<g id="a_Node000006"><a xlink:href="classiii__drone_1_1perception_1_1SingleLine.html#a23ed739c4d3315789dfc2b62cc586833" target="_top" xlink:title="Copy constructor.">
<polygon fill="white" stroke="#666666" points="134,-30 5,-30 5,0 134,0 134,-30"/>
<text text-anchor="start" x="13" y="-18" font-family="Helvetica,sans-Serif" font-size="10.00">iii_drone::perception</text>
<text text-anchor="middle" x="69.5" y="-7" font-family="Helvetica,sans-Serif" font-size="10.00">::SingleLine::SingleLine</text>
</a>
</g>
</g>
<!-- Node1&#45;&gt;Node6 -->
<g id="edge5_Node000001_Node000006" class="edge">
<title>Node1&#45;&gt;Node6</title>
<g id="a_edge5_Node000001_Node000006"><a xlink:title=" ">
<path fill="none" stroke="#63b8ff" d="M213.81,-89.45C194.25,-73.85 166.16,-53.12 139,-39 132.74,-35.75 125.94,-32.77 119.14,-30.1"/>
<polygon fill="#63b8ff" stroke="#63b8ff" points="211.66,-92.22 221.64,-95.79 216.06,-86.77 211.66,-92.22"/>
</a>
</g>
</g>
</g>
</svg>
