<?xml version="1.0" encoding="UTF-8" standalone="no"?>
<!DOCTYPE svg PUBLIC "-//W3C//DTD SVG 1.1//EN"
 "http://www.w3.org/Graphics/SVG/1.1/DTD/svg11.dtd">
<!-- Generated by graphviz version 2.43.0 (0)
 -->
<!-- Title: iii_drone::perception::hough_transformer_node::HoughTransformerNode Pages: 1 -->
<svg width="480pt" height="1053pt"
 viewBox="0.00 0.00 480.00 1053.00" xmlns="http://www.w3.org/2000/svg" xmlns:xlink="http://www.w3.org/1999/xlink">
<g id="graph0" class="graph" transform="scale(1 1) rotate(0) translate(4 1049)">
<title>iii_drone::perception::hough_transformer_node::HoughTransformerNode</title>
<!-- Node1 -->
<g id="Node000001" class="node">
<title>Node1</title>
<g id="a_Node000001"><a xlink:title="Node for computing hough transform on images to detect powerline direction.">
<polygon fill="#999999" stroke="transparent" points="271,-116 118,-116 118,0 271,0 271,-116"/>
<text text-anchor="start" x="130.5" y="-104" font-family="Helvetica,sans-Serif" font-size="10.00">iii_drone::perception</text>
<text text-anchor="start" x="130.5" y="-93" font-family="Helvetica,sans-Serif" font-size="10.00">::hough_transformer_node</text>
<text text-anchor="start" x="134" y="-82" font-family="Helvetica,sans-Serif" font-size="10.00">::HoughTransformerNode</text>
<text text-anchor="start" x="125" y="-67" font-family="Helvetica,sans-Serif" font-size="10.00">&#45;</text>
<text text-anchor="start" x="135.5" y="-67" font-family="Helvetica,sans-Serif" font-size="10.00">camera_subscription_</text>
<text text-anchor="start" x="125" y="-52" font-family="Helvetica,sans-Serif" font-size="10.00">&#45;</text>
<text text-anchor="start" x="135.5" y="-52" font-family="Helvetica,sans-Serif" font-size="10.00">cable_yaw_publisher_</text>
<text text-anchor="start" x="122.5" y="-37" font-family="Helvetica,sans-Serif" font-size="10.00">+</text>
<text text-anchor="start" x="135.5" y="-37" font-family="Helvetica,sans-Serif" font-size="10.00">HoughTransformerNode()</text>
<text text-anchor="start" x="122.5" y="-22" font-family="Helvetica,sans-Serif" font-size="10.00">+</text>
<text text-anchor="start" x="135.5" y="-22" font-family="Helvetica,sans-Serif" font-size="10.00">~HoughTransformerNode()</text>
<text text-anchor="start" x="125" y="-7" font-family="Helvetica,sans-Serif" font-size="10.00">&#45;</text>
<text text-anchor="start" x="135.5" y="-7" font-family="Helvetica,sans-Serif" font-size="10.00">OnCameraMsg()</text>
<polygon fill="#666666" stroke="#666666" points="118.5,-77 118.5,-77 271.5,-77 271.5,-77 118.5,-77"/>
<polygon fill="#666666" stroke="#666666" points="118.5,-47 118.5,-47 133.5,-47 133.5,-47 118.5,-47"/>
<polygon fill="#666666" stroke="#666666" points="133.5,-47 133.5,-47 271.5,-47 271.5,-47 133.5,-47"/>
<polygon fill="none" stroke="#666666" points="118,0 118,-116 271,-116 271,0 118,0"/>
</a>
</g>
</g>
<!-- Node2 -->
<g id="Node000002" class="node">
<title>Node2</title>
<g id="a_Node000002"><a xlink:title=" ">
<polygon fill="white" stroke="transparent" points="81,-331.5 10,-331.5 10,-282.5 81,-282.5 81,-331.5"/>
<text text-anchor="start" x="15.5" y="-319" font-family="Helvetica,sans-Serif" font-size="10.00">rclcpp::Node</text>
<text text-anchor="start" x="44" y="-304" font-family="Helvetica,sans-Serif" font-size="10.00"> </text>
<text text-anchor="start" x="44" y="-289" font-family="Helvetica,sans-Serif" font-size="10.00"> </text>
<polygon fill="#666666" stroke="#666666" points="10.5,-314 10.5,-314 81.5,-314 81.5,-314 10.5,-314"/>
<polygon fill="#666666" stroke="#666666" points="10.5,-299 10.5,-299 81.5,-299 81.5,-299 10.5,-299"/>
<polygon fill="none" stroke="#666666" points="10,-282.5 10,-331.5 81,-331.5 81,-282.5 10,-282.5"/>
</a>
</g>
</g>
<!-- Node2&#45;&gt;Node1 -->
<g id="edge1_Node000001_Node000002" class="edge">
<title>Node2&#45;&gt;Node1</title>
<g id="a_edge1_Node000001_Node000002"><a xlink:title=" ">
<path fill="none" stroke="#63b8ff" d="M51.36,-272.22C57.68,-241.98 69.74,-197.24 90.5,-163 100.63,-146.3 113.99,-130.29 127.75,-116.05"/>
<polygon fill="none" stroke="#63b8ff" points="47.88,-271.79 49.36,-282.28 54.74,-273.15 47.88,-271.79"/>
</a>
</g>
</g>
<!-- Node3 -->
<g id="Node000003" class="node">
<title>Node3</title>
<g id="a_Node000003"><a xlink:href="classiii__drone_1_1perception_1_1hough__transformer__node_1_1HoughTransformerConfigurator.html" target="_top" xlink:title="Class for handling parameters for HoughTransformer.">
<polygon fill="white" stroke="transparent" points="289.5,-451 99.5,-451 99.5,-163 289.5,-163 289.5,-451"/>
<text text-anchor="start" x="116" y="-439" font-family="Helvetica,sans-Serif" font-size="10.00">iii_drone::perception</text>
<text text-anchor="start" x="116" y="-428" font-family="Helvetica,sans-Serif" font-size="10.00">::hough_transformer_node</text>
<text text-anchor="start" x="116" y="-417" font-family="Helvetica,sans-Serif" font-size="10.00">::HoughTransformerConfigurator</text>
<text text-anchor="start" x="106" y="-402" font-family="Helvetica,sans-Serif" font-size="10.00">&#45;</text>
<text text-anchor="start" x="116.5" y="-402" font-family="Helvetica,sans-Serif" font-size="10.00">after_parameter_change</text>
<text text-anchor="start" x="116.5" y="-391" font-family="Helvetica,sans-Serif" font-size="10.00">_callback_</text>
<text text-anchor="start" x="103.5" y="-376" font-family="Helvetica,sans-Serif" font-size="10.00">+</text>
<text text-anchor="start" x="116.5" y="-376" font-family="Helvetica,sans-Serif" font-size="10.00">HoughTransformerConfigurator()</text>
<text text-anchor="start" x="103.5" y="-361" font-family="Helvetica,sans-Serif" font-size="10.00">+</text>
<text text-anchor="start" x="116.5" y="-361" font-family="Helvetica,sans-Serif" font-size="10.00">HoughTransformerConfigurator()</text>
<text text-anchor="start" x="103.5" y="-346" font-family="Helvetica,sans-Serif" font-size="10.00">+</text>
<text text-anchor="start" x="116.5" y="-346" font-family="Helvetica,sans-Serif" font-size="10.00">drone_frame_id()</text>
<text text-anchor="start" x="103.5" y="-331" font-family="Helvetica,sans-Serif" font-size="10.00">+</text>
<text text-anchor="start" x="116.5" y="-331" font-family="Helvetica,sans-Serif" font-size="10.00">world_frame_id()</text>
<text text-anchor="start" x="103.5" y="-316" font-family="Helvetica,sans-Serif" font-size="10.00">+</text>
<text text-anchor="start" x="116.5" y="-316" font-family="Helvetica,sans-Serif" font-size="10.00">cable_gripper_frame_id()</text>
<text text-anchor="start" x="103.5" y="-301" font-family="Helvetica,sans-Serif" font-size="10.00">+</text>
<text text-anchor="start" x="116.5" y="-301" font-family="Helvetica,sans-Serif" font-size="10.00">mmwave_frame_id()</text>
<text text-anchor="start" x="103.5" y="-286" font-family="Helvetica,sans-Serif" font-size="10.00">+</text>
<text text-anchor="start" x="116.5" y="-286" font-family="Helvetica,sans-Serif" font-size="10.00">canny_low_threshold()</text>
<text text-anchor="start" x="103.5" y="-271" font-family="Helvetica,sans-Serif" font-size="10.00">+</text>
<text text-anchor="start" x="116.5" y="-271" font-family="Helvetica,sans-Serif" font-size="10.00">canny_ratio()</text>
<text text-anchor="start" x="103.5" y="-256" font-family="Helvetica,sans-Serif" font-size="10.00">+</text>
<text text-anchor="start" x="116.5" y="-256" font-family="Helvetica,sans-Serif" font-size="10.00">canny_kernel_size()</text>
<text text-anchor="start" x="103.5" y="-241" font-family="Helvetica,sans-Serif" font-size="10.00">+</text>
<text text-anchor="start" x="116.5" y="-241" font-family="Helvetica,sans-Serif" font-size="10.00">n_lines_include()</text>
<text text-anchor="start" x="103.5" y="-226" font-family="Helvetica,sans-Serif" font-size="10.00">+</text>
<text text-anchor="start" x="116.5" y="-226" font-family="Helvetica,sans-Serif" font-size="10.00">hough_transformer_parameters()</text>
<text text-anchor="start" x="106" y="-211" font-family="Helvetica,sans-Serif" font-size="10.00">&#45;</text>
<text text-anchor="start" x="116.5" y="-211" font-family="Helvetica,sans-Serif" font-size="10.00">declareNodeParameters()</text>
<text text-anchor="start" x="106" y="-196" font-family="Helvetica,sans-Serif" font-size="10.00">&#45;</text>
<text text-anchor="start" x="116.5" y="-196" font-family="Helvetica,sans-Serif" font-size="10.00">initHoughTransformerParameters()</text>
<text text-anchor="start" x="106" y="-181" font-family="Helvetica,sans-Serif" font-size="10.00">&#45;</text>
<text text-anchor="start" x="116.5" y="-181" font-family="Helvetica,sans-Serif" font-size="10.00">houghTransformerConfigurator</text>
<text text-anchor="start" x="116.5" y="-170" font-family="Helvetica,sans-Serif" font-size="10.00">ParameterChangeCallback()</text>
<polygon fill="#666666" stroke="#666666" points="99.5,-412 99.5,-412 289.5,-412 289.5,-412 99.5,-412"/>
<polygon fill="#666666" stroke="#666666" points="99.5,-386 99.5,-386 114.5,-386 114.5,-386 99.5,-386"/>
<polygon fill="#666666" stroke="#666666" points="114.5,-386 114.5,-386 289.5,-386 289.5,-386 114.5,-386"/>
<polygon fill="none" stroke="#666666" points="99.5,-163 99.5,-451 289.5,-451 289.5,-163 99.5,-163"/>
</a>
</g>
</g>
<!-- Node3&#45;&gt;Node1 -->
<g id="edge2_Node000001_Node000003" class="edge">
<title>Node3&#45;&gt;Node1</title>
<g id="a_edge2_Node000001_Node000003"><a xlink:title=" ">
<path fill="none" stroke="#63b8ff" d="M194.5,-162.68C194.5,-150.77 194.5,-139.12 194.5,-128.17"/>
<polygon fill="none" stroke="#63b8ff" points="194.5,-128.15 190.5,-122.15 194.5,-116.15 198.5,-122.15 194.5,-128.15"/>
</a>
</g>
<text text-anchor="middle" x="230" y="-137" font-family="Helvetica,sans-Serif" font-size="10.00" fill="grey"> &#45;configurator_</text>
</g>
<!-- Node4 -->
<g id="Node000004" class="node">
<title>Node4</title>
<g id="a_Node000004"><a xlink:href="classiii__drone_1_1configuration_1_1Configurator.html" target="_top" xlink:title="Class for handling parameters of a node. The class works in conjunction with the ConfigurationServer ...">
<polygon fill="white" stroke="transparent" points="270.5,-938 90.5,-938 90.5,-627 270.5,-627 270.5,-938"/>
<text text-anchor="start" x="124.5" y="-925.5" font-family="Helvetica,sans-Serif" font-size="10.00">iii_drone::configuration</text>
<text text-anchor="start" x="147" y="-914.5" font-family="Helvetica,sans-Serif" font-size="10.00">::Configurator</text>
<text text-anchor="start" x="94.5" y="-899.5" font-family="Helvetica,sans-Serif" font-size="10.00">#</text>
<text text-anchor="start" x="107.5" y="-899.5" font-family="Helvetica,sans-Serif" font-size="10.00">node_</text>
<text text-anchor="start" x="97" y="-884.5" font-family="Helvetica,sans-Serif" font-size="10.00">&#45;</text>
<text text-anchor="start" x="107.5" y="-884.5" font-family="Helvetica,sans-Serif" font-size="10.00">declare_parameter_client_</text>
<text text-anchor="start" x="97" y="-869.5" font-family="Helvetica,sans-Serif" font-size="10.00">&#45;</text>
<text text-anchor="start" x="107.5" y="-869.5" font-family="Helvetica,sans-Serif" font-size="10.00">get_parameters_client_</text>
<text text-anchor="start" x="97" y="-854.5" font-family="Helvetica,sans-Serif" font-size="10.00">&#45;</text>
<text text-anchor="start" x="107.5" y="-854.5" font-family="Helvetica,sans-Serif" font-size="10.00">parameter_events_subscriber_</text>
<text text-anchor="start" x="97" y="-839.5" font-family="Helvetica,sans-Serif" font-size="10.00">&#45;</text>
<text text-anchor="start" x="107.5" y="-839.5" font-family="Helvetica,sans-Serif" font-size="10.00">after_parameter_change</text>
<text text-anchor="start" x="107.5" y="-828.5" font-family="Helvetica,sans-Serif" font-size="10.00">_callback_</text>
<text text-anchor="start" x="94.5" y="-813.5" font-family="Helvetica,sans-Serif" font-size="10.00">+</text>
<text text-anchor="start" x="107.5" y="-813.5" font-family="Helvetica,sans-Serif" font-size="10.00">Configurator()</text>
<text text-anchor="start" x="94.5" y="-798.5" font-family="Helvetica,sans-Serif" font-size="10.00">+</text>
<text text-anchor="start" x="107.5" y="-798.5" font-family="Helvetica,sans-Serif" font-size="10.00">Configurator()</text>
<text text-anchor="start" x="94.5" y="-783.5" font-family="Helvetica,sans-Serif" font-size="10.00">+</text>
<text text-anchor="start" x="107.5" y="-783.5" font-family="Helvetica,sans-Serif" font-size="10.00">~Configurator()</text>
<text text-anchor="start" x="94.5" y="-768.5" font-family="Helvetica,sans-Serif" font-size="10.00">+</text>
<text text-anchor="start" x="107.5" y="-768.5" font-family="Helvetica,sans-Serif" font-size="10.00">DeclareParameter()</text>
<text text-anchor="start" x="94.5" y="-753.5" font-family="Helvetica,sans-Serif" font-size="10.00">+</text>
<text text-anchor="start" x="107.5" y="-753.5" font-family="Helvetica,sans-Serif" font-size="10.00">GetParameter()</text>
<text text-anchor="start" x="94.5" y="-738.5" font-family="Helvetica,sans-Serif" font-size="10.00">+</text>
<text text-anchor="start" x="107.5" y="-738.5" font-family="Helvetica,sans-Serif" font-size="10.00">GetParameters()</text>
<text text-anchor="start" x="94.5" y="-723.5" font-family="Helvetica,sans-Serif" font-size="10.00">+</text>
<text text-anchor="start" x="107.5" y="-723.5" font-family="Helvetica,sans-Serif" font-size="10.00">SyncParameters()</text>
<text text-anchor="start" x="94.5" y="-708.5" font-family="Helvetica,sans-Serif" font-size="10.00">+</text>
<text text-anchor="start" x="107.5" y="-708.5" font-family="Helvetica,sans-Serif" font-size="10.00">PrintParameters()</text>
<text text-anchor="start" x="94.5" y="-693.5" font-family="Helvetica,sans-Serif" font-size="10.00">+</text>
<text text-anchor="start" x="107.5" y="-693.5" font-family="Helvetica,sans-Serif" font-size="10.00">GetParameterTypeString()</text>
<text text-anchor="start" x="97" y="-678.5" font-family="Helvetica,sans-Serif" font-size="10.00">&#45;</text>
<text text-anchor="start" x="107.5" y="-678.5" font-family="Helvetica,sans-Serif" font-size="10.00">parameterEventCallback()</text>
<text text-anchor="start" x="97" y="-663.5" font-family="Helvetica,sans-Serif" font-size="10.00">&#45;</text>
<text text-anchor="start" x="107.5" y="-663.5" font-family="Helvetica,sans-Serif" font-size="10.00">sendDeclareParameterRequest()</text>
<text text-anchor="start" x="97" y="-648.5" font-family="Helvetica,sans-Serif" font-size="10.00">&#45;</text>
<text text-anchor="start" x="107.5" y="-648.5" font-family="Helvetica,sans-Serif" font-size="10.00">sendGetParameterRequest()</text>
<text text-anchor="start" x="97" y="-633.5" font-family="Helvetica,sans-Serif" font-size="10.00">&#45;</text>
<text text-anchor="start" x="107.5" y="-633.5" font-family="Helvetica,sans-Serif" font-size="10.00">sendGetParametersRequest()</text>
<polygon fill="#666666" stroke="#666666" points="90.5,-909.5 90.5,-909.5 270.5,-909.5 270.5,-909.5 90.5,-909.5"/>
<polygon fill="#666666" stroke="#666666" points="90.5,-823.5 90.5,-823.5 105.5,-823.5 105.5,-823.5 90.5,-823.5"/>
<polygon fill="#666666" stroke="#666666" points="105.5,-823.5 105.5,-823.5 270.5,-823.5 270.5,-823.5 105.5,-823.5"/>
<polygon fill="none" stroke="#666666" points="90.5,-627 90.5,-938 270.5,-938 270.5,-627 90.5,-627"/>
</a>
</g>
</g>
<!-- Node4&#45;&gt;Node3 -->
<g id="edge3_Node000003_Node000004" class="edge">
<title>Node4&#45;&gt;Node3</title>
<g id="a_edge3_Node000003_Node000004"><a xlink:title=" ">
<path fill="none" stroke="#63b8ff" d="M185.37,-616.78C186.97,-562.83 188.72,-503.37 190.27,-451.15"/>
<polygon fill="none" stroke="#63b8ff" points="181.87,-616.69 185.07,-626.79 188.87,-616.89 181.87,-616.69"/>
</a>
</g>
</g>
<!-- Node5 -->
<g id="Node000005" class="node">
<title>Node5</title>
<g id="a_Node000005"><a xlink:title=" ">
<polygon fill="white" stroke="transparent" points="103,-1045 0,-1045 0,-985 103,-985 103,-1045"/>
<text text-anchor="start" x="5.5" y="-1033" font-family="Helvetica,sans-Serif" font-size="10.00">std::vector&lt; rclcpp</text>
<text text-anchor="start" x="18" y="-1022" font-family="Helvetica,sans-Serif" font-size="10.00">::Parameter &gt;</text>
<text text-anchor="start" x="13.5" y="-1007" font-family="Helvetica,sans-Serif" font-size="10.00">+</text>
<text text-anchor="start" x="35.5" y="-1007" font-family="Helvetica,sans-Serif" font-size="10.00">elements</text>
<text text-anchor="start" x="50" y="-992" font-family="Helvetica,sans-Serif" font-size="10.00"> </text>
<polygon fill="#666666" stroke="#666666" points="0.5,-1017 0.5,-1017 103.5,-1017 103.5,-1017 0.5,-1017"/>
<polygon fill="#666666" stroke="#666666" points="0.5,-1002 0.5,-1002 33.5,-1002 33.5,-1002 0.5,-1002"/>
<polygon fill="#666666" stroke="#666666" points="33.5,-1002 33.5,-1002 103.5,-1002 103.5,-1002 33.5,-1002"/>
<polygon fill="none" stroke="#666666" points="0,-985 0,-1045 103,-1045 103,-985 0,-985"/>
</a>
</g>
</g>
<!-- Node5&#45;&gt;Node4 -->
<g id="edge4_Node000004_Node000005" class="edge">
<title>Node5&#45;&gt;Node4</title>
<g id="a_edge4_Node000004_Node000005"><a xlink:title=" ">
<path fill="none" stroke="#63b8ff" d="M67.84,-984.81C73.56,-974.57 80.47,-962.24 88,-948.77"/>
<polygon fill="none" stroke="#63b8ff" points="88.02,-948.74 87.46,-941.55 93.88,-938.27 94.44,-945.46 88.02,-948.74"/>
</a>
</g>
<text text-anchor="middle" x="118" y="-959" font-family="Helvetica,sans-Serif" font-size="10.00" fill="grey"> &#45;parameters_</text>
</g>
<!-- Node6 -->
<g id="Node000006" class="node">
<title>Node6</title>
<g id="a_Node000006"><a xlink:title=" ">
<polygon fill="white" stroke="transparent" points="245.5,-1045 121.5,-1045 121.5,-985 245.5,-985 245.5,-1045"/>
<text text-anchor="start" x="126.5" y="-1033" font-family="Helvetica,sans-Serif" font-size="10.00">std::unique_ptr&lt; rclcpp</text>
<text text-anchor="start" x="165" y="-1022" font-family="Helvetica,sans-Serif" font-size="10.00">::QoS &gt;</text>
<text text-anchor="start" x="136" y="-1007" font-family="Helvetica,sans-Serif" font-size="10.00">+</text>
<text text-anchor="start" x="159.5" y="-1007" font-family="Helvetica,sans-Serif" font-size="10.00">ptr</text>
<text text-anchor="start" x="136" y="-992" font-family="Helvetica,sans-Serif" font-size="10.00">+</text>
<text text-anchor="start" x="159.5" y="-992" font-family="Helvetica,sans-Serif" font-size="10.00">operator&#45;&gt;()</text>
<polygon fill="#666666" stroke="#666666" points="121.5,-1017 121.5,-1017 245.5,-1017 245.5,-1017 121.5,-1017"/>
<polygon fill="#666666" stroke="#666666" points="121.5,-1002 121.5,-1002 157.5,-1002 157.5,-1002 121.5,-1002"/>
<polygon fill="#666666" stroke="#666666" points="157.5,-1002 157.5,-1002 245.5,-1002 245.5,-1002 157.5,-1002"/>
<polygon fill="none" stroke="#666666" points="121.5,-985 121.5,-1045 245.5,-1045 245.5,-985 121.5,-985"/>
</a>
</g>
</g>
<!-- Node6&#45;&gt;Node4 -->
<g id="edge5_Node000004_Node000006" class="edge">
<title>Node6&#45;&gt;Node4</title>
<g id="a_edge5_Node000004_Node000006"><a xlink:title=" ">
<path fill="none" stroke="#63b8ff" d="M183.12,-984.81C182.99,-974.98 182.84,-963.2 182.67,-950.35"/>
<polygon fill="none" stroke="#63b8ff" points="182.67,-950.27 178.59,-944.32 182.51,-938.27 186.59,-944.22 182.67,-950.27"/>
</a>
</g>
<text text-anchor="middle" x="198.5" y="-959" font-family="Helvetica,sans-Serif" font-size="10.00" fill="grey"> &#45;qos_</text>
</g>
<!-- Node7 -->
<g id="Node000007" class="node">
<title>Node7</title>
<g id="a_Node000007"><a xlink:title=" ">
<polygon fill="white" stroke="transparent" points="390,-1039.5 289,-1039.5 289,-990.5 390,-990.5 390,-1039.5"/>
<text text-anchor="start" x="294.5" y="-1027" font-family="Helvetica,sans-Serif" font-size="10.00">std::shared_mutex</text>
<text text-anchor="start" x="338" y="-1012" font-family="Helvetica,sans-Serif" font-size="10.00"> </text>
<text text-anchor="start" x="338" y="-997" font-family="Helvetica,sans-Serif" font-size="10.00"> </text>
<polygon fill="#666666" stroke="#666666" points="289.5,-1022 289.5,-1022 390.5,-1022 390.5,-1022 289.5,-1022"/>
<polygon fill="#666666" stroke="#666666" points="289.5,-1007 289.5,-1007 390.5,-1007 390.5,-1007 289.5,-1007"/>
<polygon fill="none" stroke="#666666" points="289,-990.5 289,-1039.5 390,-1039.5 390,-990.5 289,-990.5"/>
</a>
</g>
</g>
<!-- Node7&#45;&gt;Node4 -->
<g id="edge6_Node000004_Node000007" class="edge">
<title>Node7&#45;&gt;Node4</title>
<g id="a_edge6_Node000004_Node000007"><a xlink:title=" ">
<path fill="none" stroke="#63b8ff" d="M288.84,-997.25C273.22,-990.02 257.1,-980.12 245.5,-967 240.43,-961.27 235.75,-955.11 231.43,-948.66"/>
<polygon fill="none" stroke="#63b8ff" points="231.3,-948.45 224.73,-945.49 224.93,-938.28 231.51,-941.24 231.3,-948.45"/>
</a>
</g>
<text text-anchor="middle" x="298.5" y="-959" font-family="Helvetica,sans-Serif" font-size="10.00" fill="grey"> &#45;parameters_mutex_</text>
</g>
<!-- Node9 -->
<g id="Node000009" class="node">
<title>Node9</title>
<g id="a_Node000009"><a xlink:href="classiii__drone_1_1perception_1_1HoughTransformerParameters.html" target="_top" xlink:title="Class storing the parameters for the hough transformer.">
<polygon fill="white" stroke="transparent" points="472,-880 289,-880 289,-685 472,-685 472,-880"/>
<text text-anchor="start" x="305" y="-867.5" font-family="Helvetica,sans-Serif" font-size="10.00">iii_drone::perception</text>
<text text-anchor="start" x="305" y="-856.5" font-family="Helvetica,sans-Serif" font-size="10.00">::HoughTransformerParameters</text>
<text text-anchor="start" x="296" y="-841.5" font-family="Helvetica,sans-Serif" font-size="10.00">&#45;</text>
<text text-anchor="start" x="306.5" y="-841.5" font-family="Helvetica,sans-Serif" font-size="10.00">canny_low_threshold_</text>
<text text-anchor="start" x="296" y="-826.5" font-family="Helvetica,sans-Serif" font-size="10.00">&#45;</text>
<text text-anchor="start" x="306.5" y="-826.5" font-family="Helvetica,sans-Serif" font-size="10.00">canny_ratio_</text>
<text text-anchor="start" x="296" y="-811.5" font-family="Helvetica,sans-Serif" font-size="10.00">&#45;</text>
<text text-anchor="start" x="306.5" y="-811.5" font-family="Helvetica,sans-Serif" font-size="10.00">canny_kernel_size_</text>
<text text-anchor="start" x="293.5" y="-796.5" font-family="Helvetica,sans-Serif" font-size="10.00">+</text>
<text text-anchor="start" x="306.5" y="-796.5" font-family="Helvetica,sans-Serif" font-size="10.00">HoughTransformerParameters()</text>
<text text-anchor="start" x="293.5" y="-781.5" font-family="Helvetica,sans-Serif" font-size="10.00">+</text>
<text text-anchor="start" x="306.5" y="-781.5" font-family="Helvetica,sans-Serif" font-size="10.00">~HoughTransformerParameters()</text>
<text text-anchor="start" x="293.5" y="-766.5" font-family="Helvetica,sans-Serif" font-size="10.00">+</text>
<text text-anchor="start" x="306.5" y="-766.5" font-family="Helvetica,sans-Serif" font-size="10.00">canny_low_threshold()</text>
<text text-anchor="start" x="293.5" y="-751.5" font-family="Helvetica,sans-Serif" font-size="10.00">+</text>
<text text-anchor="start" x="306.5" y="-751.5" font-family="Helvetica,sans-Serif" font-size="10.00">canny_low_threshold()</text>
<text text-anchor="start" x="293.5" y="-736.5" font-family="Helvetica,sans-Serif" font-size="10.00">+</text>
<text text-anchor="start" x="306.5" y="-736.5" font-family="Helvetica,sans-Serif" font-size="10.00">canny_ratio()</text>
<text text-anchor="start" x="293.5" y="-721.5" font-family="Helvetica,sans-Serif" font-size="10.00">+</text>
<text text-anchor="start" x="306.5" y="-721.5" font-family="Helvetica,sans-Serif" font-size="10.00">canny_ratio()</text>
<text text-anchor="start" x="293.5" y="-706.5" font-family="Helvetica,sans-Serif" font-size="10.00">+</text>
<text text-anchor="start" x="306.5" y="-706.5" font-family="Helvetica,sans-Serif" font-size="10.00">canny_kernel_size()</text>
<text text-anchor="start" x="293.5" y="-691.5" font-family="Helvetica,sans-Serif" font-size="10.00">+</text>
<text text-anchor="start" x="306.5" y="-691.5" font-family="Helvetica,sans-Serif" font-size="10.00">canny_kernel_size()</text>
<polygon fill="#666666" stroke="#666666" points="289.5,-851.5 289.5,-851.5 472.5,-851.5 472.5,-851.5 289.5,-851.5"/>
<polygon fill="#666666" stroke="#666666" points="289.5,-806.5 289.5,-806.5 304.5,-806.5 304.5,-806.5 289.5,-806.5"/>
<polygon fill="#666666" stroke="#666666" points="304.5,-806.5 304.5,-806.5 472.5,-806.5 472.5,-806.5 304.5,-806.5"/>
<polygon fill="none" stroke="#666666" points="289,-685 289,-880 472,-880 472,-685 289,-685"/>
</a>
</g>
</g>
<!-- Node7&#45;&gt;Node9 -->
<g id="edge9_Node000009_Node000007" class="edge">
<title>Node7&#45;&gt;Node9</title>
<g id="a_edge9_Node000009_Node000007"><a xlink:title=" ">
<path fill="none" stroke="#63b8ff" d="M348.54,-990.35C351.1,-982.96 353.68,-974.72 355.5,-967 361.15,-943.07 365.65,-917.05 369.19,-892.34"/>
<polygon fill="none" stroke="#63b8ff" points="369.21,-892.22 366.07,-885.73 370.86,-880.33 374,-886.82 369.21,-892.22"/>
</a>
</g>
<text text-anchor="middle" x="407.5" y="-959" font-family="Helvetica,sans-Serif" font-size="10.00" fill="grey"> &#45;parameter_mutex_</text>
</g>
<!-- Node8 -->
<g id="Node000008" class="node">
<title>Node8</title>
<g id="a_Node000008"><a xlink:title=" ">
<polygon fill="white" stroke="transparent" points="470,-580 273,-580 273,-509 470,-509 470,-580"/>
<text text-anchor="start" x="278.5" y="-567.5" font-family="Helvetica,sans-Serif" font-size="10.00">std::shared_ptr&lt; iii</text>
<text text-anchor="start" x="278.5" y="-556.5" font-family="Helvetica,sans-Serif" font-size="10.00">_drone::perception::HoughTransformer</text>
<text text-anchor="start" x="338.5" y="-545.5" font-family="Helvetica,sans-Serif" font-size="10.00">Parameters &gt;</text>
<text text-anchor="start" x="370" y="-530.5" font-family="Helvetica,sans-Serif" font-size="10.00"> </text>
<text text-anchor="start" x="306" y="-515.5" font-family="Helvetica,sans-Serif" font-size="10.00">+</text>
<text text-anchor="start" x="347.5" y="-515.5" font-family="Helvetica,sans-Serif" font-size="10.00">operator&#45;&gt;()</text>
<polygon fill="#666666" stroke="#666666" points="273.5,-540.5 273.5,-540.5 470.5,-540.5 470.5,-540.5 273.5,-540.5"/>
<polygon fill="#666666" stroke="#666666" points="273.5,-525.5 273.5,-525.5 470.5,-525.5 470.5,-525.5 273.5,-525.5"/>
<polygon fill="none" stroke="#666666" points="273,-509 273,-580 470,-580 470,-509 273,-509"/>
</a>
</g>
</g>
<!-- Node8&#45;&gt;Node3 -->
<g id="edge7_Node000003_Node000008" class="edge">
<title>Node8&#45;&gt;Node3</title>
<g id="a_edge7_Node000003_Node000008"><a xlink:title=" ">
<path fill="none" stroke="#63b8ff" d="M288.54,-508.98C280.85,-503.69 273.65,-497.71 267.5,-491 259.36,-482.11 252.07,-472.19 245.56,-461.71"/>
<polygon fill="none" stroke="#63b8ff" points="245.38,-461.4 238.9,-458.25 239.31,-451.05 245.8,-454.2 245.38,-461.4"/>
</a>
</g>
<text text-anchor="start" x="267.5" y="-483" font-family="Helvetica,sans-Serif" font-size="10.00" fill="grey"> &#45;hough_transformer</text>
<text text-anchor="middle" x="317.5" y="-472" font-family="Helvetica,sans-Serif" font-size="10.00" fill="grey">_parameters_</text>
</g>
<!-- Node10 -->
<g id="Node000010" class="node">
<title>Node10</title>
<g id="a_Node000010"><a xlink:href="classiii__drone_1_1perception_1_1HoughTransformer.html" target="_top" xlink:title="Class for performing the hough transform on images to detect powerline direction.">
<polygon fill="white" stroke="transparent" points="435,-374.5 308,-374.5 308,-239.5 435,-239.5 435,-374.5"/>
<text text-anchor="start" x="322" y="-362" font-family="Helvetica,sans-Serif" font-size="10.00">iii_drone::perception</text>
<text text-anchor="start" x="323.5" y="-351" font-family="Helvetica,sans-Serif" font-size="10.00">::HoughTransformer</text>
<text text-anchor="start" x="370" y="-336" font-family="Helvetica,sans-Serif" font-size="10.00"> </text>
<text text-anchor="start" x="312.5" y="-321" font-family="Helvetica,sans-Serif" font-size="10.00">+</text>
<text text-anchor="start" x="325.5" y="-321" font-family="Helvetica,sans-Serif" font-size="10.00">HoughTransformer()</text>
<text text-anchor="start" x="312.5" y="-306" font-family="Helvetica,sans-Serif" font-size="10.00">+</text>
<text text-anchor="start" x="325.5" y="-306" font-family="Helvetica,sans-Serif" font-size="10.00">~HoughTransformer()</text>
<text text-anchor="start" x="312.5" y="-291" font-family="Helvetica,sans-Serif" font-size="10.00">+</text>
<text text-anchor="start" x="325.5" y="-291" font-family="Helvetica,sans-Serif" font-size="10.00">GetHoughLines()</text>
<text text-anchor="start" x="312.5" y="-276" font-family="Helvetica,sans-Serif" font-size="10.00">+</text>
<text text-anchor="start" x="325.5" y="-276" font-family="Helvetica,sans-Serif" font-size="10.00">ComputeAngle()</text>
<text text-anchor="start" x="312.5" y="-261" font-family="Helvetica,sans-Serif" font-size="10.00">+</text>
<text text-anchor="start" x="325.5" y="-261" font-family="Helvetica,sans-Serif" font-size="10.00">ComputeAngle()</text>
<text text-anchor="start" x="315" y="-246" font-family="Helvetica,sans-Serif" font-size="10.00">&#45;</text>
<text text-anchor="start" x="325.5" y="-246" font-family="Helvetica,sans-Serif" font-size="10.00">getBestLineIndex()</text>
<polygon fill="#666666" stroke="#666666" points="308.5,-346 308.5,-346 435.5,-346 435.5,-346 308.5,-346"/>
<polygon fill="#666666" stroke="#666666" points="308.5,-331 308.5,-331 435.5,-331 435.5,-331 308.5,-331"/>
<polygon fill="none" stroke="#666666" points="308,-239.5 308,-374.5 435,-374.5 435,-239.5 308,-239.5"/>
</a>
</g>
</g>
<!-- Node8&#45;&gt;Node10 -->
<g id="edge11_Node000010_Node000008" class="edge">
<title>Node8&#45;&gt;Node10</title>
<g id="a_edge11_Node000010_Node000008"><a xlink:title=" ">
<path fill="none" stroke="#63b8ff" d="M371.5,-508.75C371.5,-476.73 371.5,-428.04 371.5,-386.63"/>
<polygon fill="none" stroke="#63b8ff" points="371.5,-386.6 367.5,-380.6 371.5,-374.6 375.5,-380.6 371.5,-386.6"/>
</a>
</g>
<text text-anchor="middle" x="406" y="-477.5" font-family="Helvetica,sans-Serif" font-size="10.00" fill="grey"> &#45;parameters_</text>
</g>
<!-- Node9&#45;&gt;Node8 -->
<g id="edge8_Node000008_Node000009" class="edge">
<title>Node9&#45;&gt;Node8</title>
<g id="a_edge8_Node000008_Node000009"><a xlink:title=" ">
<path fill="none" stroke="#63b8ff" d="M376.81,-684.83C375.6,-653 374.3,-619.02 373.3,-592.59"/>
<polygon fill="none" stroke="#63b8ff" points="373.28,-592.25 369.06,-586.41 372.83,-580.26 377.05,-586.11 373.28,-592.25"/>
</a>
</g>
<text text-anchor="middle" x="386" y="-601" font-family="Helvetica,sans-Serif" font-size="10.00" fill="grey"> +ptr</text>
</g>
<!-- Node10&#45;&gt;Node1 -->
<g id="edge10_Node000001_Node000010" class="edge">
<title>Node10&#45;&gt;Node1</title>
<g id="a_edge10_Node000001_Node000010"><a xlink:title=" ">
<path fill="none" stroke="#63b8ff" d="M342.89,-239.42C330.79,-214.44 315.55,-186.45 298.5,-163 288.95,-149.87 277.74,-136.85 266.26,-124.69"/>
<polygon fill="none" stroke="#63b8ff" points="266.22,-124.64 259.17,-123.1 257.89,-116 264.93,-117.55 266.22,-124.64"/>
</a>
</g>
<text text-anchor="middle" x="337.5" y="-137" font-family="Helvetica,sans-Serif" font-size="10.00" fill="grey"> &#45;hough_transformer_</text>
</g>
</g>
</svg>
