<?xml version="1.0" encoding="UTF-8" standalone="no"?>
<!DOCTYPE svg PUBLIC "-//W3C//DTD SVG 1.1//EN"
 "http://www.w3.org/Graphics/SVG/1.1/DTD/svg11.dtd">
<!-- Generated by graphviz version 2.43.0 (0)
 -->
<!-- Title: iii_drone::configuration::Configurator::SyncParameters Pages: 1 -->
<svg width="611pt" height="91pt"
 viewBox="0.00 0.00 611.00 91.00" xmlns="http://www.w3.org/2000/svg" xmlns:xlink="http://www.w3.org/1999/xlink">
<g id="graph0" class="graph" transform="scale(1 1) rotate(0) translate(4 87)">
<title>iii_drone::configuration::Configurator::SyncParameters</title>
<!-- Node1 -->
<g id="Node000001" class="node">
<title>Node1</title>
<g id="a_Node000001"><a xlink:title="Synchronizes parameters with the parameter server. Should never be necessary.">
<polygon fill="#999999" stroke="#666666" points="167,-59.5 0,-59.5 0,-29.5 167,-29.5 167,-59.5"/>
<text text-anchor="start" x="8" y="-47.5" font-family="Helvetica,sans-Serif" font-size="10.00">iii_drone::configuration</text>
<text text-anchor="middle" x="83.5" y="-36.5" font-family="Helvetica,sans-Serif" font-size="10.00">::Configurator::SyncParameters</text>
</a>
</g>
</g>
<!-- Node2 -->
<g id="Node000002" class="node">
<title>Node2</title>
<g id="a_Node000002"><a xlink:href="classiii__drone_1_1configuration_1_1Configurator.html#ac5360ab6b4f31277c7d73b5579815353" target="_top" xlink:title="Static function for getting string representation of a parameter type from template type.">
<polygon fill="white" stroke="#666666" points="603,-65 424,-65 424,-24 603,-24 603,-65"/>
<text text-anchor="start" x="432" y="-53" font-family="Helvetica,sans-Serif" font-size="10.00">iii_drone::configuration</text>
<text text-anchor="start" x="432" y="-42" font-family="Helvetica,sans-Serif" font-size="10.00">::Configurator::GetParameterType</text>
<text text-anchor="middle" x="513.5" y="-31" font-family="Helvetica,sans-Serif" font-size="10.00">String</text>
</a>
</g>
</g>
<!-- Node1&#45;&gt;Node2 -->
<g id="edge1_Node000001_Node000002" class="edge">
<title>Node1&#45;&gt;Node2</title>
<g id="a_edge1_Node000001_Node000002"><a xlink:title=" ">
<path fill="none" stroke="#63b8ff" d="M167.03,-49.22C179.09,-49.75 191.37,-50.21 203,-50.5 285.2,-52.58 305.8,-52.48 388,-50.5 396.32,-50.3 404.95,-50.02 413.61,-49.7"/>
<polygon fill="#63b8ff" stroke="#63b8ff" points="413.91,-53.19 423.77,-49.3 413.64,-46.2 413.91,-53.19"/>
</a>
</g>
</g>
<!-- Node3 -->
<g id="Node000003" class="node">
<title>Node3</title>
<g id="a_Node000003"><a xlink:href="classiii__drone_1_1configuration_1_1Configurator.html#a4e2906af1c389ca060c0efc7a4c65e95" target="_top" xlink:title="Sends a GetParameters request to the ConfigurationServer node, which will return the parameters.">
<polygon fill="white" stroke="#666666" points="388,-41 203,-41 203,0 388,0 388,-41"/>
<text text-anchor="start" x="211" y="-29" font-family="Helvetica,sans-Serif" font-size="10.00">iii_drone::configuration</text>
<text text-anchor="start" x="211" y="-18" font-family="Helvetica,sans-Serif" font-size="10.00">::Configurator::sendGetParameters</text>
<text text-anchor="middle" x="295.5" y="-7" font-family="Helvetica,sans-Serif" font-size="10.00">Request</text>
</a>
</g>
</g>
<!-- Node1&#45;&gt;Node3 -->
<g id="edge3_Node000001_Node000003" class="edge">
<title>Node1&#45;&gt;Node3</title>
<g id="a_edge3_Node000001_Node000003"><a xlink:title=" ">
<path fill="none" stroke="#63b8ff" d="M167.2,-35.05C175.61,-34.09 184.23,-33.1 192.81,-32.12"/>
<polygon fill="#63b8ff" stroke="#63b8ff" points="193.32,-35.59 202.86,-30.97 192.53,-28.63 193.32,-35.59"/>
</a>
</g>
</g>
<!-- Node2&#45;&gt;Node2 -->
<g id="edge2_Node000002_Node000002" class="edge">
<title>Node2&#45;&gt;Node2</title>
<g id="a_edge2_Node000002_Node000002"><a xlink:title=" ">
<path fill="none" stroke="#63b8ff" d="M473.43,-65.1C469.06,-74.65 482.42,-83 513.5,-83 532.93,-83 545.43,-79.74 551.01,-74.96"/>
<polygon fill="#63b8ff" stroke="#63b8ff" points="554.44,-75.66 553.57,-65.1 547.67,-73.9 554.44,-75.66"/>
</a>
</g>
</g>
<!-- Node3&#45;&gt;Node2 -->
<g id="edge4_Node000003_Node000002" class="edge">
<title>Node3&#45;&gt;Node2</title>
<g id="a_edge4_Node000003_Node000002"><a xlink:title=" ">
<path fill="none" stroke="#63b8ff" d="M388.1,-30.68C396.62,-31.62 405.27,-32.59 413.84,-33.54"/>
<polygon fill="#63b8ff" stroke="#63b8ff" points="413.53,-37.02 423.85,-34.65 414.3,-30.07 413.53,-37.02"/>
</a>
</g>
</g>
</g>
</svg>
