<?xml version="1.0" encoding="UTF-8" standalone="no"?>
<!DOCTYPE svg PUBLIC "-//W3C//DTD SVG 1.1//EN"
 "http://www.w3.org/Graphics/SVG/1.1/DTD/svg11.dtd">
<!-- Generated by graphviz version 2.43.0 (0)
 -->
<!-- Title: iii_drone::control::flight_controller_node::FlightControllerConfigurator::disarming_on_cable_max_descend_distance Pages: 1 -->
<svg width="851pt" height="73pt"
 viewBox="0.00 0.00 851.00 72.50" xmlns="http://www.w3.org/2000/svg" xmlns:xlink="http://www.w3.org/1999/xlink">
<g id="graph0" class="graph" transform="scale(1 1) rotate(0) translate(4 68.5)">
<title>iii_drone::control::flight_controller_node::FlightControllerConfigurator::disarming_on_cable_max_descend_distance</title>
<!-- Node1 -->
<g id="Node000001" class="node">
<title>Node1</title>
<g id="a_Node000001"><a xlink:title="The maximum descend distance to disarm the drone when the drone is on the cable.">
<polygon fill="#999999" stroke="#666666" points="239,-52 0,-52 0,0 239,0 239,-52"/>
<text text-anchor="start" x="8" y="-40" font-family="Helvetica,sans-Serif" font-size="10.00">iii_drone::control</text>
<text text-anchor="start" x="8" y="-29" font-family="Helvetica,sans-Serif" font-size="10.00">::flight_controller</text>
<text text-anchor="start" x="8" y="-18" font-family="Helvetica,sans-Serif" font-size="10.00">_node::FlightControllerConfigurator</text>
<text text-anchor="middle" x="119.5" y="-7" font-family="Helvetica,sans-Serif" font-size="10.00">::disarming_on_cable_max_descend_distance</text>
</a>
</g>
</g>
<!-- Node2 -->
<g id="Node000002" class="node">
<title>Node2</title>
<g id="a_Node000002"><a xlink:href="classiii__drone_1_1configuration_1_1Configurator.html#a896be5ed2c6890f9f5ecaa89cb0eee7d" target="_top" xlink:title="Get a parameter.">
<polygon fill="white" stroke="#666666" points="431,-41 275,-41 275,-11 431,-11 431,-41"/>
<text text-anchor="start" x="283" y="-29" font-family="Helvetica,sans-Serif" font-size="10.00">iii_drone::configuration</text>
<text text-anchor="middle" x="353" y="-18" font-family="Helvetica,sans-Serif" font-size="10.00">::Configurator::GetParameter</text>
</a>
</g>
</g>
<!-- Node1&#45;&gt;Node2 -->
<g id="edge1_Node000001_Node000002" class="edge">
<title>Node1&#45;&gt;Node2</title>
<g id="a_edge1_Node000001_Node000002"><a xlink:title=" ">
<path fill="none" stroke="#63b8ff" d="M239.3,-26C247.9,-26 256.48,-26 264.85,-26"/>
<polygon fill="#63b8ff" stroke="#63b8ff" points="264.94,-29.5 274.94,-26 264.94,-22.5 264.94,-29.5"/>
</a>
</g>
</g>
<!-- Node3 -->
<g id="Node000003" class="node">
<title>Node3</title>
<g id="a_Node000003"><a xlink:href="classiii__drone_1_1configuration_1_1Configurator.html#ad6e7318a12eda7011acfbe4276e7056a" target="_top" xlink:title="Gets multiple parameters.">
<polygon fill="white" stroke="#666666" points="628,-63 467,-63 467,-33 628,-33 628,-63"/>
<text text-anchor="start" x="475" y="-51" font-family="Helvetica,sans-Serif" font-size="10.00">iii_drone::configuration</text>
<text text-anchor="middle" x="547.5" y="-40" font-family="Helvetica,sans-Serif" font-size="10.00">::Configurator::GetParameters</text>
</a>
</g>
</g>
<!-- Node2&#45;&gt;Node3 -->
<g id="edge2_Node000002_Node000003" class="edge">
<title>Node2&#45;&gt;Node3</title>
<g id="a_edge2_Node000002_Node000003"><a xlink:title=" ">
<path fill="none" stroke="#63b8ff" d="M431.19,-34.82C439.61,-35.78 448.23,-36.77 456.79,-37.75"/>
<polygon fill="#63b8ff" stroke="#63b8ff" points="456.45,-41.23 466.78,-38.89 457.24,-34.28 456.45,-41.23"/>
</a>
</g>
</g>
<!-- Node4 -->
<g id="Node000004" class="node">
<title>Node4</title>
<g id="a_Node000004"><a xlink:href="classiii__drone_1_1configuration_1_1Configurator.html#ac5360ab6b4f31277c7d73b5579815353" target="_top" xlink:title="Static function for getting string representation of a parameter type from template type.">
<polygon fill="white" stroke="#666666" points="843,-46.5 664,-46.5 664,-5.5 843,-5.5 843,-46.5"/>
<text text-anchor="start" x="672" y="-34.5" font-family="Helvetica,sans-Serif" font-size="10.00">iii_drone::configuration</text>
<text text-anchor="start" x="672" y="-23.5" font-family="Helvetica,sans-Serif" font-size="10.00">::Configurator::GetParameterType</text>
<text text-anchor="middle" x="753.5" y="-12.5" font-family="Helvetica,sans-Serif" font-size="10.00">String</text>
</a>
</g>
</g>
<!-- Node2&#45;&gt;Node4 -->
<g id="edge5_Node000002_Node000004" class="edge">
<title>Node2&#45;&gt;Node4</title>
<g id="a_edge5_Node000002_Node000004"><a xlink:title=" ">
<path fill="none" stroke="#63b8ff" d="M431.2,-24.45C443.18,-24.26 455.42,-24.1 467,-24 538.55,-23.37 556.45,-23.43 628,-24 636.31,-24.07 644.94,-24.16 653.59,-24.27"/>
<polygon fill="#63b8ff" stroke="#63b8ff" points="653.7,-27.77 663.75,-24.4 653.8,-20.77 653.7,-27.77"/>
</a>
</g>
</g>
<!-- Node3&#45;&gt;Node4 -->
<g id="edge3_Node000003_Node000004" class="edge">
<title>Node3&#45;&gt;Node4</title>
<g id="a_edge3_Node000003_Node000004"><a xlink:title=" ">
<path fill="none" stroke="#63b8ff" d="M628.25,-39.4C636.6,-38.5 645.16,-37.58 653.7,-36.66"/>
<polygon fill="#63b8ff" stroke="#63b8ff" points="654.12,-40.13 663.69,-35.58 653.37,-33.17 654.12,-40.13"/>
</a>
</g>
</g>
<!-- Node4&#45;&gt;Node4 -->
<g id="edge4_Node000004_Node000004" class="edge">
<title>Node4&#45;&gt;Node4</title>
<g id="a_edge4_Node000004_Node000004"><a xlink:title=" ">
<path fill="none" stroke="#63b8ff" d="M715.64,-46.6C711.51,-56.15 724.13,-64.5 753.5,-64.5 771.86,-64.5 783.67,-61.24 788.94,-56.46"/>
<polygon fill="#63b8ff" stroke="#63b8ff" points="792.38,-57.14 791.36,-46.6 785.58,-55.47 792.38,-57.14"/>
</a>
</g>
</g>
</g>
</svg>
