<?xml version="1.0" encoding="UTF-8" standalone="no"?>
<!DOCTYPE svg PUBLIC "-//W3C//DTD SVG 1.1//EN"
 "http://www.w3.org/Graphics/SVG/1.1/DTD/svg11.dtd">
<!-- Generated by graphviz version 2.43.0 (0)
 -->
<!-- Title: iii_drone::control::Reference::Reference Pages: 1 -->
<svg width="315pt" height="220pt"
 viewBox="0.00 0.00 315.00 220.00" xmlns="http://www.w3.org/2000/svg" xmlns:xlink="http://www.w3.org/1999/xlink">
<g id="graph0" class="graph" transform="scale(1 1) rotate(0) translate(4 216)">
<title>iii_drone::control::Reference::Reference</title>
<!-- Node1 -->
<g id="Node000001" class="node">
<title>Node1</title>
<g id="a_Node000001"><a xlink:title=" ">
<polygon fill="#999999" stroke="#666666" points="128,-121 0,-121 0,-91 128,-91 128,-121"/>
<text text-anchor="start" x="8" y="-109" font-family="Helvetica,sans-Serif" font-size="10.00">iii_drone::control</text>
<text text-anchor="middle" x="64" y="-98" font-family="Helvetica,sans-Serif" font-size="10.00">::Reference::Reference</text>
</a>
</g>
</g>
<!-- Node2 -->
<g id="Node000002" class="node">
<title>Node2</title>
<g id="a_Node000002"><a xlink:href="classiii__drone_1_1control_1_1State.html#ac7d02a667c215a72d7f7f2fdf1501eb4" target="_top" xlink:title=" ">
<polygon fill="white" stroke="#666666" points="284.5,-212 186.5,-212 186.5,-182 284.5,-182 284.5,-212"/>
<text text-anchor="start" x="194.5" y="-200" font-family="Helvetica,sans-Serif" font-size="10.00">iii_drone::control</text>
<text text-anchor="middle" x="235.5" y="-189" font-family="Helvetica,sans-Serif" font-size="10.00">::State::position</text>
</a>
</g>
</g>
<!-- Node1&#45;&gt;Node2 -->
<g id="edge1_Node000001_Node000002" class="edge">
<title>Node1&#45;&gt;Node2</title>
<g id="a_edge1_Node000001_Node000002"><a xlink:title=" ">
<path fill="none" stroke="#63b8ff" d="M84.14,-121.24C103.42,-136.02 134.45,-158.3 164,-173 168.08,-175.03 172.38,-176.96 176.75,-178.77"/>
<polygon fill="#63b8ff" stroke="#63b8ff" points="175.81,-182.16 186.39,-182.55 178.36,-175.64 175.81,-182.16"/>
</a>
</g>
</g>
<!-- Node3 -->
<g id="Node000003" class="node">
<title>Node3</title>
<g id="a_Node000003"><a xlink:href="classiii__drone_1_1control_1_1State.html#a730c06d2972e469a61c4a0e053f47b85" target="_top" xlink:title=" ">
<polygon fill="white" stroke="#666666" points="289,-164 182,-164 182,-134 289,-134 289,-164"/>
<text text-anchor="start" x="190" y="-152" font-family="Helvetica,sans-Serif" font-size="10.00">iii_drone::control</text>
<text text-anchor="middle" x="235.5" y="-141" font-family="Helvetica,sans-Serif" font-size="10.00">::State::quaternion</text>
</a>
</g>
</g>
<!-- Node1&#45;&gt;Node3 -->
<g id="edge2_Node000001_Node000003" class="edge">
<title>Node1&#45;&gt;Node3</title>
<g id="a_edge2_Node000001_Node000003"><a xlink:title=" ">
<path fill="none" stroke="#63b8ff" d="M124.28,-121.04C139.63,-124.93 156.21,-129.14 171.73,-133.08"/>
<polygon fill="#63b8ff" stroke="#63b8ff" points="171.2,-136.55 181.75,-135.62 172.92,-129.77 171.2,-136.55"/>
</a>
</g>
</g>
<!-- Node4 -->
<g id="Node000004" class="node">
<title>Node4</title>
<g id="a_Node000004"><a xlink:href="namespaceiii__drone_1_1math.html#a8e7d7e25d07b368363d6da9939a9abed" target="_top" xlink:title=" ">
<polygon fill="white" stroke="#666666" points="307,-115.5 164,-115.5 164,-96.5 307,-96.5 307,-115.5"/>
<text text-anchor="middle" x="235.5" y="-103.5" font-family="Helvetica,sans-Serif" font-size="10.00">iii_drone::math::quatToEul</text>
</a>
</g>
</g>
<!-- Node1&#45;&gt;Node4 -->
<g id="edge3_Node000001_Node000004" class="edge">
<title>Node1&#45;&gt;Node4</title>
<g id="a_edge3_Node000001_Node000004"><a xlink:title=" ">
<path fill="none" stroke="#63b8ff" d="M128.12,-106C136.5,-106 145.2,-106 153.83,-106"/>
<polygon fill="#63b8ff" stroke="#63b8ff" points="153.92,-109.5 163.92,-106 153.92,-102.5 153.92,-109.5"/>
</a>
</g>
</g>
<!-- Node5 -->
<g id="Node000005" class="node">
<title>Node5</title>
<g id="a_Node000005"><a xlink:href="classiii__drone_1_1control_1_1State.html#a065d4003d73520ba2e61af2912df6c6c" target="_top" xlink:title=" ">
<polygon fill="white" stroke="#666666" points="284.5,-78 186.5,-78 186.5,-48 284.5,-48 284.5,-78"/>
<text text-anchor="start" x="194.5" y="-66" font-family="Helvetica,sans-Serif" font-size="10.00">iii_drone::control</text>
<text text-anchor="middle" x="235.5" y="-55" font-family="Helvetica,sans-Serif" font-size="10.00">::State::stamp</text>
</a>
</g>
</g>
<!-- Node1&#45;&gt;Node5 -->
<g id="edge4_Node000001_Node000005" class="edge">
<title>Node1&#45;&gt;Node5</title>
<g id="a_edge4_Node000001_Node000005"><a xlink:title=" ">
<path fill="none" stroke="#63b8ff" d="M124.28,-90.96C141.28,-86.65 159.79,-81.95 176.69,-77.66"/>
<polygon fill="#63b8ff" stroke="#63b8ff" points="177.61,-81.04 186.44,-75.19 175.89,-74.26 177.61,-81.04"/>
</a>
</g>
</g>
<!-- Node6 -->
<g id="Node000006" class="node">
<title>Node6</title>
<g id="a_Node000006"><a xlink:href="classiii__drone_1_1control_1_1State.html#a0cf0c57ba34058c7ba14581c17e82f0b" target="_top" xlink:title=" ">
<polygon fill="white" stroke="#666666" points="284.5,-30 186.5,-30 186.5,0 284.5,0 284.5,-30"/>
<text text-anchor="start" x="194.5" y="-18" font-family="Helvetica,sans-Serif" font-size="10.00">iii_drone::control</text>
<text text-anchor="middle" x="235.5" y="-7" font-family="Helvetica,sans-Serif" font-size="10.00">::State::velocity</text>
</a>
</g>
</g>
<!-- Node1&#45;&gt;Node6 -->
<g id="edge5_Node000001_Node000006" class="edge">
<title>Node1&#45;&gt;Node6</title>
<g id="a_edge5_Node000001_Node000006"><a xlink:title=" ">
<path fill="none" stroke="#63b8ff" d="M84.14,-90.76C103.42,-75.98 134.45,-53.7 164,-39 168.08,-36.97 172.38,-35.04 176.75,-33.23"/>
<polygon fill="#63b8ff" stroke="#63b8ff" points="178.36,-36.36 186.39,-29.45 175.81,-29.84 178.36,-36.36"/>
</a>
</g>
</g>
</g>
</svg>
