<?xml version="1.0" encoding="UTF-8" standalone="no"?>
<!DOCTYPE svg PUBLIC "-//W3C//DTD SVG 1.1//EN"
 "http://www.w3.org/Graphics/SVG/1.1/DTD/svg11.dtd">
<!-- Generated by graphviz version 2.43.0 (0)
 -->
<!-- Title: iii_drone::adapters::SingleLineAdapter::position Pages: 1 -->
<svg width="828pt" height="235pt"
 viewBox="0.00 0.00 828.00 235.00" xmlns="http://www.w3.org/2000/svg" xmlns:xlink="http://www.w3.org/1999/xlink">
<g id="graph0" class="graph" transform="scale(1 1) rotate(0) translate(4 231)">
<title>iii_drone::adapters::SingleLineAdapter::position</title>
<!-- Node1 -->
<g id="Node000001" class="node">
<title>Node1</title>
<g id="a_Node000001"><a xlink:title="position getter.">
<polygon fill="#999999" stroke="#666666" points="820,-116 709,-116 709,-75 820,-75 820,-116"/>
<text text-anchor="start" x="717" y="-104" font-family="Helvetica,sans-Serif" font-size="10.00">iii_drone::adapters</text>
<text text-anchor="start" x="717" y="-93" font-family="Helvetica,sans-Serif" font-size="10.00">::SingleLineAdapter</text>
<text text-anchor="middle" x="764.5" y="-82" font-family="Helvetica,sans-Serif" font-size="10.00">::position</text>
</a>
</g>
</g>
<!-- Node2 -->
<g id="Node000002" class="node">
<title>Node2</title>
<g id="a_Node000002"><a xlink:href="classiii__drone_1_1adapters_1_1PowerlineAdapter.html#a06ac6ce8729f92e9b5bb343f81301c97" target="_top" xlink:title="Returns the single line adapter which is closest to the given position.">
<polygon fill="white" stroke="#666666" points="666,-187 551,-187 551,-146 666,-146 666,-187"/>
<text text-anchor="start" x="559" y="-175" font-family="Helvetica,sans-Serif" font-size="10.00">iii_drone::adapters</text>
<text text-anchor="start" x="559" y="-164" font-family="Helvetica,sans-Serif" font-size="10.00">::PowerlineAdapter::</text>
<text text-anchor="middle" x="608.5" y="-153" font-family="Helvetica,sans-Serif" font-size="10.00">GetClosestLine</text>
</a>
</g>
</g>
<!-- Node1&#45;&gt;Node2 -->
<g id="edge1_Node000001_Node000002" class="edge">
<title>Node1&#45;&gt;Node2</title>
<g id="a_edge1_Node000001_Node000002"><a xlink:title=" ">
<path fill="none" stroke="#63b8ff" d="M709.68,-120.31C691.56,-128.67 671.55,-137.89 654.21,-145.89"/>
<polygon fill="#63b8ff" stroke="#63b8ff" points="711.34,-123.4 718.96,-116.04 708.41,-117.04 711.34,-123.4"/>
</a>
</g>
</g>
<!-- Node3 -->
<g id="Node000003" class="node">
<title>Node3</title>
<g id="a_Node000003"><a xlink:href="classiii__drone_1_1control_1_1CombinedDroneAwarenessHandler.html#aca25e593ebb1307381959a3b1e5a751c" target="_top" xlink:title="Updates the drone location of a combined drone awareness object based on current awareness informatio...">
<polygon fill="white" stroke="#666666" points="508,-162 315,-162 315,-121 508,-121 508,-162"/>
<text text-anchor="start" x="323" y="-150" font-family="Helvetica,sans-Serif" font-size="10.00">iii_drone::control</text>
<text text-anchor="start" x="323" y="-139" font-family="Helvetica,sans-Serif" font-size="10.00">::CombinedDroneAwarenessHandler</text>
<text text-anchor="middle" x="411.5" y="-128" font-family="Helvetica,sans-Serif" font-size="10.00">::updateDroneLocation</text>
</a>
</g>
</g>
<!-- Node1&#45;&gt;Node3 -->
<g id="edge8_Node000001_Node000003" class="edge">
<title>Node1&#45;&gt;Node3</title>
<g id="a_edge8_Node000001_Node000003"><a xlink:title=" ">
<path fill="none" stroke="#63b8ff" d="M698.63,-104C645.23,-111 568.75,-121.02 508.3,-128.95"/>
<polygon fill="#63b8ff" stroke="#63b8ff" points="699.2,-107.46 708.66,-102.69 698.29,-100.52 699.2,-107.46"/>
</a>
</g>
</g>
<!-- Node7 -->
<g id="Node000007" class="node">
<title>Node7</title>
<g id="a_Node000007"><a xlink:href="classiii__drone_1_1perception_1_1SingleLine.html#ad17dc959fe4f359c46b226c98e616e4b" target="_top" xlink:title="Constructor from SingleLineAdapter.">
<polygon fill="white" stroke="#666666" points="673,-89.5 544,-89.5 544,-59.5 673,-59.5 673,-89.5"/>
<text text-anchor="start" x="552" y="-77.5" font-family="Helvetica,sans-Serif" font-size="10.00">iii_drone::perception</text>
<text text-anchor="middle" x="608.5" y="-66.5" font-family="Helvetica,sans-Serif" font-size="10.00">::SingleLine::SingleLine</text>
</a>
</g>
</g>
<!-- Node1&#45;&gt;Node7 -->
<g id="edge6_Node000001_Node000007" class="edge">
<title>Node1&#45;&gt;Node7</title>
<g id="a_edge6_Node000001_Node000007"><a xlink:title=" ">
<path fill="none" stroke="#63b8ff" d="M698.65,-86.66C690.24,-85.51 681.64,-84.34 673.25,-83.19"/>
<polygon fill="#63b8ff" stroke="#63b8ff" points="698.39,-90.15 708.77,-88.04 699.34,-83.22 698.39,-90.15"/>
</a>
</g>
</g>
<!-- Node8 -->
<g id="Node000008" class="node">
<title>Node8</title>
<g id="a_Node000008"><a xlink:href="classiii__drone_1_1adapters_1_1SingleLineAdapter.html#a04f02d018320742a79f473e1dd502b31" target="_top" xlink:title="Constructor from members.">
<polygon fill="white" stroke="#666666" points="664,-41 553,-41 553,0 664,0 664,-41"/>
<text text-anchor="start" x="561" y="-29" font-family="Helvetica,sans-Serif" font-size="10.00">iii_drone::adapters</text>
<text text-anchor="start" x="561" y="-18" font-family="Helvetica,sans-Serif" font-size="10.00">::SingleLineAdapter</text>
<text text-anchor="middle" x="608.5" y="-7" font-family="Helvetica,sans-Serif" font-size="10.00">::SingleLineAdapter</text>
</a>
</g>
</g>
<!-- Node1&#45;&gt;Node8 -->
<g id="edge7_Node000001_Node000008" class="edge">
<title>Node1&#45;&gt;Node8</title>
<g id="a_edge7_Node000001_Node000008"><a xlink:title=" ">
<path fill="none" stroke="#63b8ff" d="M713.27,-70.3C700.19,-63.8 686.09,-56.84 673,-50.5 666.64,-47.42 659.9,-44.19 653.28,-41.04"/>
<polygon fill="#63b8ff" stroke="#63b8ff" points="712.08,-73.62 722.59,-74.94 715.2,-67.35 712.08,-73.62"/>
</a>
</g>
</g>
<!-- Node2&#45;&gt;Node3 -->
<g id="edge2_Node000002_Node000003" class="edge">
<title>Node2&#45;&gt;Node3</title>
<g id="a_edge2_Node000002_Node000003"><a xlink:title=" ">
<path fill="none" stroke="#63b8ff" d="M540.91,-157.96C530.37,-156.61 519.29,-155.19 508.24,-153.77"/>
<polygon fill="#63b8ff" stroke="#63b8ff" points="540.47,-161.44 550.84,-159.24 541.36,-154.49 540.47,-161.44"/>
</a>
</g>
</g>
<!-- Node4 -->
<g id="Node000004" class="node">
<title>Node4</title>
<g id="a_Node000004"><a xlink:href="classiii__drone_1_1control_1_1CombinedDroneAwarenessHandler.html#ab9e4d04b91ff4a8df5113ccdc0356484" target="_top" xlink:title="Updates the given combined drone awareness from the powerline. Triggers updates of target_cable_posit...">
<polygon fill="white" stroke="#666666" points="270,-227 9,-227 9,-186 270,-186 270,-227"/>
<text text-anchor="start" x="17" y="-215" font-family="Helvetica,sans-Serif" font-size="10.00">iii_drone::control</text>
<text text-anchor="start" x="17" y="-204" font-family="Helvetica,sans-Serif" font-size="10.00">::CombinedDroneAwarenessHandler</text>
<text text-anchor="middle" x="139.5" y="-193" font-family="Helvetica,sans-Serif" font-size="10.00">::updateCombinedDroneAwarenessFromPowerline</text>
</a>
</g>
</g>
<!-- Node3&#45;&gt;Node4 -->
<g id="edge3_Node000003_Node000004" class="edge">
<title>Node3&#45;&gt;Node4</title>
<g id="a_edge3_Node000003_Node000004"><a xlink:title=" ">
<path fill="none" stroke="#63b8ff" d="M325.79,-164.67C310.26,-168.74 294.17,-172.84 279,-176.5 265.85,-179.67 251.95,-182.87 238.24,-185.93"/>
<polygon fill="#63b8ff" stroke="#63b8ff" points="327.12,-167.94 335.9,-162.01 325.33,-161.17 327.12,-167.94"/>
</a>
</g>
</g>
<!-- Node5 -->
<g id="Node000005" class="node">
<title>Node5</title>
<g id="a_Node000005"><a xlink:href="classiii__drone_1_1control_1_1CombinedDroneAwarenessHandler.html#a197c146061816403499a4e652a8fe646" target="_top" xlink:title="Updates the given combined drone awareness from the vehicle odometry. Triggers updates of ground alti...">
<polygon fill="white" stroke="#666666" points="263.5,-167.5 15.5,-167.5 15.5,-115.5 263.5,-115.5 263.5,-167.5"/>
<text text-anchor="start" x="23.5" y="-155.5" font-family="Helvetica,sans-Serif" font-size="10.00">iii_drone::control</text>
<text text-anchor="start" x="23.5" y="-144.5" font-family="Helvetica,sans-Serif" font-size="10.00">::CombinedDroneAwarenessHandler</text>
<text text-anchor="start" x="23.5" y="-133.5" font-family="Helvetica,sans-Serif" font-size="10.00">::updateCombinedDroneAwarenessFromVehicle</text>
<text text-anchor="middle" x="139.5" y="-122.5" font-family="Helvetica,sans-Serif" font-size="10.00">Odometry</text>
</a>
</g>
</g>
<!-- Node3&#45;&gt;Node5 -->
<g id="edge4_Node000003_Node000005" class="edge">
<title>Node3&#45;&gt;Node5</title>
<g id="a_edge4_Node000003_Node000005"><a xlink:title=" ">
<path fill="none" stroke="#63b8ff" d="M304.75,-141.5C291.33,-141.5 277.51,-141.5 263.84,-141.5"/>
<polygon fill="#63b8ff" stroke="#63b8ff" points="304.93,-145 314.93,-141.5 304.93,-138 304.93,-145"/>
</a>
</g>
</g>
<!-- Node6 -->
<g id="Node000006" class="node">
<title>Node6</title>
<g id="a_Node000006"><a xlink:href="classiii__drone_1_1control_1_1CombinedDroneAwarenessHandler.html#a7055ad9c6b81c69e2f810d40c9448fcf" target="_top" xlink:title="Updates the given combined drone awareness from the vehicle status. Triggers updates of armed,...">
<polygon fill="white" stroke="#666666" points="279,-97 0,-97 0,-56 279,-56 279,-97"/>
<text text-anchor="start" x="8" y="-85" font-family="Helvetica,sans-Serif" font-size="10.00">iii_drone::control</text>
<text text-anchor="start" x="8" y="-74" font-family="Helvetica,sans-Serif" font-size="10.00">::CombinedDroneAwarenessHandler</text>
<text text-anchor="middle" x="139.5" y="-63" font-family="Helvetica,sans-Serif" font-size="10.00">::updateCombinedDroneAwarenessFromVehicleStatus</text>
</a>
</g>
</g>
<!-- Node3&#45;&gt;Node6 -->
<g id="edge5_Node000003_Node000006" class="edge">
<title>Node3&#45;&gt;Node6</title>
<g id="a_edge5_Node000003_Node000006"><a xlink:title=" ">
<path fill="none" stroke="#63b8ff" d="M325.79,-118.33C310.26,-114.26 294.17,-110.16 279,-106.5 265.85,-103.33 251.95,-100.13 238.24,-97.07"/>
<polygon fill="#63b8ff" stroke="#63b8ff" points="325.33,-121.83 335.9,-120.99 327.12,-115.06 325.33,-121.83"/>
</a>
</g>
</g>
</g>
</svg>
