<?xml version="1.0" encoding="UTF-8" standalone="no"?>
<!DOCTYPE svg PUBLIC "-//W3C//DTD SVG 1.1//EN"
 "http://www.w3.org/Graphics/SVG/1.1/DTD/svg11.dtd">
<!-- Generated by graphviz version 2.43.0 (0)
 -->
<!-- Title: iii_drone::utils::Atomic&lt; T &gt; Pages: 1 -->
<!--zoomable 126 -->

<svg id="main" version="1.1" xmlns="http://www.w3.org/2000/svg" xmlns:xlink="http://www.w3.org/1999/xlink" xml:space="preserve" onload="init(evt)">
<style type="text/css"><![CDATA[
.node, .edge {opacity: 0.7;}
.node.selected, .edge.selected {opacity: 1;}
.edge:hover path { stroke: red; }
.edge:hover polygon { stroke: red; fill: red; }
]]></style>

<defs>
  <circle id="rim" cx="0" cy="0" r="7"/>
  <circle id="rim2" cx="0" cy="0" r="3.5"/>
  <g id="zoomPlus">
    <use xlink:href="#rim" fill="#404040"><set attributeName="fill" to="#808080" begin="zoomplus.mouseover" end="zoomplus.mouseout"/></use>
    <path d="M-4,0h8M0,-4v8" fill="none" stroke="white" stroke-width="1.5" pointer-events="none"/>
  </g>
  <g id="zoomMin">
    <use xlink:href="#rim" fill="#404040"><set attributeName="fill" to="#808080" begin="zoomminus.mouseover" end="zoomminus.mouseout"/></use>
    <path d="M-4,0h8" fill="none" stroke="white" stroke-width="1.5" pointer-events="none"/>
  </g>
  <g id="arrowUp" transform="translate(30 24)">
    <use xlink:href="#rim"/>
    <path pointer-events="none" fill="none" stroke="white" stroke-width="1.5" d="M0,-3.0v7 M-2.5,-0.5L0,-3.0L2.5,-0.5"/>
  </g>
  <g id="arrowRight" transform="rotate(90) translate(36 -43)">
    <use xlink:href="#rim"/>
    <path pointer-events="none" fill="none" stroke="white" stroke-width="1.5" d="M0,-3.0v7 M-2.5,-0.5L0,-3.0L2.5,-0.5"/>
  </g>
  <g id="arrowDown" transform="rotate(180) translate(-30 -48)">
    <use xlink:href="#rim"/>
    <path pointer-events="none" fill="none" stroke="white" stroke-width="1.5" d="M0,-3.0v7 M-2.5,-0.5L0,-3.0L2.5,-0.5"/>
  </g>
  <g id="arrowLeft" transform="rotate(270) translate(-36 17)">
    <use xlink:href="#rim"/>
    <path pointer-events="none" fill="none" stroke="white" stroke-width="1.5" d="M0,-3.0v7 M-2.5,-0.5L0,-3.0L2.5,-0.5"/>
  </g>
  <g id="resetDef">
    <use xlink:href="#rim2" fill="#404040"><set attributeName="fill" to="#808080" begin="reset.mouseover" end="reset.mouseout"/></use>
  </g>
</defs>
<script type="application/ecmascript">
var viewWidth = 1593;
var viewHeight = 126;
var sectionId = 'dynsection-0';
</script>
<script type="application/ecmascript" xlink:href="svg.min.js"/>
<svg id="graph" class="graph">
<g id="viewport">
<title>iii_drone::utils::Atomic&lt; T &gt;</title>
<!-- Node1 -->
<g id="Node000001" class="node">
<title>Node1</title>
<g id="a_Node000001"><a xlink:title=" ">
<polygon fill="#999999" stroke="transparent" points="803,-118 655,-118 655,-99 803,-99 803,-118"/>
<text text-anchor="start" x="659.5" y="-105.5" font-family="Helvetica,sans-Serif" font-size="10.00">iii_drone::utils::Atomic&lt; T &gt;</text>
<polygon fill="none" stroke="#666666" points="655,-99 655,-118 803,-118 803,-99 655,-99"/>
</a>
</g>
</g>
<!-- Node2 -->
<g id="Node000002" class="node">
<title>Node2</title>
<g id="a_Node000002"><a xlink:href="classiii__drone_1_1utils_1_1Atomic.html" target="_top" xlink:title=" ">
<polygon fill="white" stroke="transparent" points="142,-41 0,-41 0,0 142,0 142,-41"/>
<text text-anchor="start" x="4.5" y="-28.5" font-family="Helvetica,sans-Serif" font-size="10.00">iii_drone::utils::Atomic</text>
<text text-anchor="start" x="4.5" y="-17.5" font-family="Helvetica,sans-Serif" font-size="10.00">&lt; std::function&lt; Reference</text>
<text text-anchor="start" x="24.5" y="-6.5" font-family="Helvetica,sans-Serif" font-size="10.00">(const State &amp;)&gt; &gt;</text>
<polygon fill="none" stroke="#666666" points="0,0 0,-41 142,-41 142,0 0,0"/>
</a>
</g>
</g>
<!-- Node1&#45;&gt;Node2 -->
<g id="edge1_Node000001_Node000002" class="edge">
<title>Node1&#45;&gt;Node2</title>
<g id="a_edge1_Node000001_Node000002"><a xlink:title=" ">
<path fill="none" stroke="orange" d="M644.31,-106.19C496.05,-103.5 200.88,-96.29 156,-81 131.62,-72.69 107.95,-55.1 91.81,-41.19"/>
<polygon fill="orange" stroke="orange" points="644.67,-109.69 654.73,-106.37 644.79,-102.69 644.67,-109.69"/>
</a>
</g>
<text text-anchor="start" x="156" y="-73" font-family="Helvetica,sans-Serif" font-size="10.00" fill="grey"> &lt; std::function&lt; Reference</text>
<text text-anchor="middle" x="224" y="-62" font-family="Helvetica,sans-Serif" font-size="10.00" fill="grey">(const State &amp;)&gt; &gt;</text>
</g>
<!-- Node3 -->
<g id="Node000003" class="node">
<title>Node3</title>
<g id="a_Node000003"><a xlink:href="classiii__drone_1_1utils_1_1Atomic.html" target="_top" xlink:title=" ">
<polygon fill="white" stroke="transparent" points="283,-35.5 165,-35.5 165,-5.5 283,-5.5 283,-35.5"/>
<text text-anchor="start" x="169" y="-23.5" font-family="Helvetica,sans-Serif" font-size="10.00">iii_drone::utils::Atomic</text>
<text text-anchor="start" x="188" y="-12.5" font-family="Helvetica,sans-Serif" font-size="10.00">&lt; std::string &gt;</text>
<polygon fill="none" stroke="#666666" points="165,-5.5 165,-35.5 283,-35.5 283,-5.5 165,-5.5"/>
</a>
</g>
</g>
<!-- Node1&#45;&gt;Node3 -->
<g id="edge2_Node000001_Node000003" class="edge">
<title>Node1&#45;&gt;Node3</title>
<g id="a_edge2_Node000001_Node000003"><a xlink:title=" ">
<path fill="none" stroke="orange" d="M644.71,-104.99C551.6,-101.61 407.83,-94.41 355,-81 315.78,-71.05 273.74,-49.86 248.15,-35.65"/>
<polygon fill="orange" stroke="orange" points="644.84,-108.5 654.96,-105.36 645.09,-101.51 644.84,-108.5"/>
</a>
</g>
<text text-anchor="middle" x="392.5" y="-67.5" font-family="Helvetica,sans-Serif" font-size="10.00" fill="grey"> &lt; std::string &gt;</text>
</g>
<!-- Node4 -->
<g id="Node000004" class="node">
<title>Node4</title>
<g id="a_Node000004"><a xlink:href="classiii__drone_1_1utils_1_1Atomic.html" target="_top" xlink:title=" ">
<polygon fill="white" stroke="transparent" points="419,-35.5 301,-35.5 301,-5.5 419,-5.5 419,-35.5"/>
<text text-anchor="start" x="305" y="-23.5" font-family="Helvetica,sans-Serif" font-size="10.00">iii_drone::utils::Atomic</text>
<text text-anchor="start" x="332" y="-12.5" font-family="Helvetica,sans-Serif" font-size="10.00">&lt; double &gt;</text>
<polygon fill="none" stroke="#666666" points="301,-5.5 301,-35.5 419,-35.5 419,-5.5 301,-5.5"/>
</a>
</g>
</g>
<!-- Node1&#45;&gt;Node4 -->
<g id="edge3_Node000001_Node000004" class="edge">
<title>Node1&#45;&gt;Node4</title>
<g id="a_edge3_Node000001_Node000004"><a xlink:title=" ">
<path fill="none" stroke="orange" d="M644.8,-104.24C599.48,-100.93 542.99,-94.3 494,-81 454.45,-70.26 411.65,-49.5 385.32,-35.56"/>
<polygon fill="orange" stroke="orange" points="644.66,-107.74 654.88,-104.93 645.14,-100.76 644.66,-107.74"/>
</a>
</g>
<text text-anchor="middle" x="523.5" y="-67.5" font-family="Helvetica,sans-Serif" font-size="10.00" fill="grey"> &lt; double &gt;</text>
</g>
<!-- Node5 -->
<g id="Node000005" class="node">
<title>Node5</title>
<g id="a_Node000005"><a xlink:href="classiii__drone_1_1utils_1_1Atomic.html" target="_top" xlink:title=" ">
<polygon fill="white" stroke="transparent" points="555,-35.5 437,-35.5 437,-5.5 555,-5.5 555,-35.5"/>
<text text-anchor="start" x="441" y="-23.5" font-family="Helvetica,sans-Serif" font-size="10.00">iii_drone::utils::Atomic</text>
<text text-anchor="start" x="478" y="-12.5" font-family="Helvetica,sans-Serif" font-size="10.00">&lt; int &gt;</text>
<polygon fill="none" stroke="#666666" points="437,-5.5 437,-35.5 555,-35.5 555,-5.5 437,-5.5"/>
</a>
</g>
</g>
<!-- Node1&#45;&gt;Node5 -->
<g id="edge4_Node000001_Node000005" class="edge">
<title>Node1&#45;&gt;Node5</title>
<g id="a_edge4_Node000001_Node000005"><a xlink:title=" ">
<path fill="none" stroke="orange" d="M660.51,-96.98C641.55,-93.03 621.19,-87.79 603,-81 571.34,-69.18 537.73,-49.09 516.81,-35.56"/>
<polygon fill="orange" stroke="orange" points="660.08,-100.46 670.57,-98.99 661.45,-93.6 660.08,-100.46"/>
</a>
</g>
<text text-anchor="middle" x="622.5" y="-67.5" font-family="Helvetica,sans-Serif" font-size="10.00" fill="grey"> &lt; int &gt;</text>
</g>
<!-- Node6 -->
<g id="Node000006" class="node">
<title>Node6</title>
<g id="a_Node000006"><a xlink:href="classiii__drone_1_1utils_1_1Atomic.html" target="_top" xlink:title=" ">
<polygon fill="white" stroke="transparent" points="731,-41 573,-41 573,0 731,0 731,-41"/>
<text text-anchor="start" x="577.5" y="-28.5" font-family="Helvetica,sans-Serif" font-size="10.00">iii_drone::utils::Atomic</text>
<text text-anchor="start" x="577.5" y="-17.5" font-family="Helvetica,sans-Serif" font-size="10.00">&lt; iii_drone::control::maneuver</text>
<text text-anchor="start" x="614" y="-6.5" font-family="Helvetica,sans-Serif" font-size="10.00">::maneuver_t &gt;</text>
<polygon fill="none" stroke="#666666" points="573,0 573,-41 731,-41 731,0 573,0"/>
</a>
</g>
</g>
<!-- Node1&#45;&gt;Node6 -->
<g id="edge5_Node000001_Node000006" class="edge">
<title>Node1&#45;&gt;Node6</title>
<g id="a_edge5_Node000001_Node000006"><a xlink:title=" ">
<path fill="none" stroke="orange" d="M668.17,-94.43C662.28,-90.95 657.02,-86.55 653,-81 644.83,-69.7 645,-53.77 646.98,-41.24"/>
<polygon fill="orange" stroke="orange" points="666.67,-97.59 677.18,-98.91 669.78,-91.32 666.67,-97.59"/>
</a>
</g>
<text text-anchor="start" x="653" y="-73" font-family="Helvetica,sans-Serif" font-size="10.00" fill="grey"> &lt; iii_drone::control</text>
<text text-anchor="middle" x="719" y="-62" font-family="Helvetica,sans-Serif" font-size="10.00" fill="grey">::maneuver::maneuver_t &gt;</text>
</g>
<!-- Node7 -->
<g id="Node000007" class="node">
<title>Node7</title>
<g id="a_Node000007"><a xlink:href="classiii__drone_1_1utils_1_1Atomic.html" target="_top" xlink:title=" ">
<polygon fill="white" stroke="transparent" points="921,-41 749,-41 749,0 921,0 921,-41"/>
<text text-anchor="start" x="753.5" y="-28.5" font-family="Helvetica,sans-Serif" font-size="10.00">iii_drone::utils::Atomic</text>
<text text-anchor="start" x="753.5" y="-17.5" font-family="Helvetica,sans-Serif" font-size="10.00">&lt; iii_drone::adapters::</text>
<text text-anchor="start" x="753.5" y="-6.5" font-family="Helvetica,sans-Serif" font-size="10.00">px4::TrajectorySetpointAdapter &gt;</text>
<polygon fill="none" stroke="#666666" points="749,0 749,-41 921,-41 921,0 749,0"/>
</a>
</g>
</g>
<!-- Node1&#45;&gt;Node7 -->
<g id="edge6_Node000001_Node000007" class="edge">
<title>Node1&#45;&gt;Node7</title>
<g id="a_edge6_Node000001_Node000007"><a xlink:title=" ">
<path fill="none" stroke="orange" d="M761.78,-94.87C769.77,-91.03 778.02,-86.38 785,-81 799.53,-69.79 812.73,-53.7 821.92,-41.08"/>
<polygon fill="orange" stroke="orange" points="760.3,-91.7 752.61,-99 763.17,-98.09 760.3,-91.7"/>
</a>
</g>
<text text-anchor="start" x="806" y="-73" font-family="Helvetica,sans-Serif" font-size="10.00" fill="grey"> &lt; iii_drone::adapters</text>
<text text-anchor="middle" x="890.5" y="-62" font-family="Helvetica,sans-Serif" font-size="10.00" fill="grey">::px4::TrajectorySetpointAdapter &gt;</text>
</g>
<!-- Node8 -->
<g id="Node000008" class="node">
<title>Node8</title>
<g id="a_Node000008"><a xlink:href="classiii__drone_1_1utils_1_1Atomic.html" target="_top" xlink:title=" ">
<polygon fill="white" stroke="transparent" points="1057,-35.5 939,-35.5 939,-5.5 1057,-5.5 1057,-35.5"/>
<text text-anchor="start" x="943" y="-23.5" font-family="Helvetica,sans-Serif" font-size="10.00">iii_drone::utils::Atomic</text>
<text text-anchor="start" x="976" y="-12.5" font-family="Helvetica,sans-Serif" font-size="10.00">&lt; bool &gt;</text>
<polygon fill="none" stroke="#666666" points="939,-5.5 939,-35.5 1057,-35.5 1057,-5.5 939,-5.5"/>
</a>
</g>
</g>
<!-- Node1&#45;&gt;Node8 -->
<g id="edge7_Node000001_Node000008" class="edge">
<title>Node1&#45;&gt;Node8</title>
<g id="a_edge7_Node000001_Node000008"><a xlink:title=" ">
<path fill="none" stroke="orange" d="M813.44,-107.88C875.16,-106.46 952.22,-100.59 977,-81 990.75,-70.13 995.51,-49.61 997.16,-35.74"/>
<polygon fill="orange" stroke="orange" points="813.21,-104.38 803.28,-108.08 813.35,-111.38 813.21,-104.38"/>
</a>
</g>
<text text-anchor="middle" x="1014.5" y="-67.5" font-family="Helvetica,sans-Serif" font-size="10.00" fill="grey"> &lt; bool &gt;</text>
</g>
<!-- Node9 -->
<g id="Node000009" class="node">
<title>Node9</title>
<g id="a_Node000009"><a xlink:href="classiii__drone_1_1utils_1_1Atomic.html" target="_top" xlink:title=" ">
<polygon fill="white" stroke="transparent" points="1233,-41 1075,-41 1075,0 1233,0 1233,-41"/>
<text text-anchor="start" x="1079.5" y="-28.5" font-family="Helvetica,sans-Serif" font-size="10.00">iii_drone::utils::Atomic</text>
<text text-anchor="start" x="1079.5" y="-17.5" font-family="Helvetica,sans-Serif" font-size="10.00">&lt; iii_drone::control::Reference</text>
<text text-anchor="start" x="1124" y="-6.5" font-family="Helvetica,sans-Serif" font-size="10.00">Trajectory &gt;</text>
<polygon fill="none" stroke="#666666" points="1075,0 1075,-41 1233,-41 1233,0 1075,0"/>
</a>
</g>
</g>
<!-- Node1&#45;&gt;Node9 -->
<g id="edge8_Node000001_Node000009" class="edge">
<title>Node1&#45;&gt;Node9</title>
<g id="a_edge8_Node000001_Node000009"><a xlink:title=" ">
<path fill="none" stroke="orange" d="M813.45,-104.17C891.26,-100.4 1000.7,-93.16 1042,-81 1071.99,-72.17 1103.17,-54.83 1124.99,-41.13"/>
<polygon fill="orange" stroke="orange" points="813,-100.68 803.17,-104.65 813.33,-107.68 813,-100.68"/>
</a>
</g>
<text text-anchor="start" x="1093" y="-73" font-family="Helvetica,sans-Serif" font-size="10.00" fill="grey"> &lt; iii_drone::control</text>
<text text-anchor="middle" x="1150.5" y="-62" font-family="Helvetica,sans-Serif" font-size="10.00" fill="grey">::ReferenceTrajectory &gt;</text>
</g>
<!-- Node10 -->
<g id="Node000010" class="node">
<title>Node10</title>
<g id="a_Node000010"><a xlink:href="classiii__drone_1_1utils_1_1Atomic.html" target="_top" xlink:title=" ">
<polygon fill="white" stroke="transparent" points="1419,-35.5 1251,-35.5 1251,-5.5 1419,-5.5 1419,-35.5"/>
<text text-anchor="start" x="1255" y="-23.5" font-family="Helvetica,sans-Serif" font-size="10.00">iii_drone::utils::Atomic</text>
<text text-anchor="start" x="1255" y="-12.5" font-family="Helvetica,sans-Serif" font-size="10.00">&lt; iii_drone::control::Reference &gt;</text>
<polygon fill="none" stroke="#666666" points="1251,-5.5 1251,-35.5 1419,-35.5 1419,-5.5 1251,-5.5"/>
</a>
</g>
</g>
<!-- Node1&#45;&gt;Node10 -->
<g id="edge9_Node000001_Node000010" class="edge">
<title>Node1&#45;&gt;Node10</title>
<g id="a_edge9_Node000001_Node000010"><a xlink:title=" ">
<path fill="none" stroke="orange" d="M813.51,-106.86C931.44,-105.28 1139.11,-99.82 1212,-81 1249.44,-71.33 1289.07,-49.85 1312.92,-35.52"/>
<polygon fill="orange" stroke="orange" points="813.39,-103.36 803.43,-106.99 813.48,-110.36 813.39,-103.36"/>
</a>
</g>
<text text-anchor="start" x="1267" y="-73" font-family="Helvetica,sans-Serif" font-size="10.00" fill="grey"> &lt; iii_drone::control</text>
<text text-anchor="middle" x="1315.5" y="-62" font-family="Helvetica,sans-Serif" font-size="10.00" fill="grey">::Reference &gt;</text>
</g>
<!-- Node11 -->
<g id="Node000011" class="node">
<title>Node11</title>
<g id="a_Node000011"><a xlink:href="classiii__drone_1_1utils_1_1Atomic.html" target="_top" xlink:title=" ">
<polygon fill="white" stroke="transparent" points="1585,-35.5 1437,-35.5 1437,-5.5 1585,-5.5 1585,-35.5"/>
<text text-anchor="start" x="1441" y="-23.5" font-family="Helvetica,sans-Serif" font-size="10.00">iii_drone::utils::Atomic</text>
<text text-anchor="start" x="1441" y="-12.5" font-family="Helvetica,sans-Serif" font-size="10.00">&lt; iii_drone::types::plane_t &gt;</text>
<polygon fill="none" stroke="#666666" points="1437,-5.5 1437,-35.5 1585,-35.5 1585,-5.5 1437,-5.5"/>
</a>
</g>
</g>
<!-- Node1&#45;&gt;Node11 -->
<g id="edge10_Node000001_Node000011" class="edge">
<title>Node1&#45;&gt;Node11</title>
<g id="a_edge10_Node000001_Node000011"><a xlink:title=" ">
<path fill="none" stroke="orange" d="M813.55,-107.67C962.32,-107.36 1264.91,-103.82 1368,-81 1410.79,-71.53 1457.07,-49.99 1485.04,-35.6"/>
<polygon fill="orange" stroke="orange" points="813.1,-104.17 803.11,-107.69 813.11,-111.17 813.1,-104.17"/>
</a>
</g>
<text text-anchor="start" x="1432" y="-73" font-family="Helvetica,sans-Serif" font-size="10.00" fill="grey"> &lt; iii_drone::types</text>
<text text-anchor="middle" x="1477" y="-62" font-family="Helvetica,sans-Serif" font-size="10.00" fill="grey">::plane_t &gt;</text>
</g>
</g>
</svg>

<g id="navigator" transform="translate(0 0)" fill="#404254">
  <rect fill="#f2f5e9" fill-opacity="0.5" stroke="#606060" stroke-width=".5" x="0" y="0" width="60" height="60"/>
  <use id="zoomplus" xlink:href="#zoomPlus" x="17" y="9" onmousedown="handleZoom(evt,'in')"/>
  <use id="zoomminus" xlink:href="#zoomMin" x="42" y="9" onmousedown="handleZoom(evt,'out')"/>
  <use id="reset" xlink:href="#resetDef" x="30" y="36" onmousedown="handleReset()"/>
   <use id="arrowup" xlink:href="#arrowUp" x="0" y="0" onmousedown="handlePan(0,-1)"/>
  <use id="arrowright" xlink:href="#arrowRight" x="0" y="0" onmousedown="handlePan(1,0)"/>
  <use id="arrowdown" xlink:href="#arrowDown" x="0" y="0" onmousedown="handlePan(0,1)"/>
  <use id="arrowleft" xlink:href="#arrowLeft" x="0" y="0" onmousedown="handlePan(-1,0)"/>
</g>
<svg viewBox="0 0 15 15" width="100%" height="30px" preserveAspectRatio="xMaxYMin meet">
 <g id="arrow_out" transform="scale(0.3 0.3)">
  <a xlink:href="classiii__drone_1_1utils_1_1Atomic__inherit__graph_org.svg" target="_base">
   <rect id="button" ry="5" rx="5" y="6" x="6" height="38" width="38"
        fill="#f2f5e9" fill-opacity="0.5" stroke="#606060" stroke-width="1.0"/>
   <path id="arrow"
     d="M 11.500037,31.436501 C 11.940474,20.09759 22.043105,11.32322 32.158766,21.979434 L 37.068811,17.246167 C 37.068811,17.246167 37.088388,32 37.088388,32 L 22.160133,31.978069 C 22.160133,31.978069 26.997745,27.140456 26.997745,27.140456 C 18.528582,18.264221 13.291696,25.230495 11.500037,31.436501 z"
     style="fill:#404040;"/>
  </a>
 </g>
</svg>

<style type='text/css'>
<![CDATA[
[data-mouse-over-selected='false'] { opacity: 0.7; }
[data-mouse-over-selected='true']  { opacity: 1.0; }
]]>
</style>
<script type="application/ecmascript"><![CDATA[
document.addEventListener('DOMContentLoaded', (event) => {
  highlightEdges();
  highlightAdjacentNodes();
});
]]></script>
</svg>
