<?xml version="1.0" encoding="UTF-8" standalone="no"?>
<!DOCTYPE svg PUBLIC "-//W3C//DTD SVG 1.1//EN"
 "http://www.w3.org/Graphics/SVG/1.1/DTD/svg11.dtd">
<!-- Generated by graphviz version 2.43.0 (0)
 -->
<!-- Title: iii_drone::adapters::ReferenceAdapter::ToMsg Pages: 1 -->
<svg width="355pt" height="422pt"
 viewBox="0.00 0.00 355.00 422.00" xmlns="http://www.w3.org/2000/svg" xmlns:xlink="http://www.w3.org/1999/xlink">
<g id="graph0" class="graph" transform="scale(1 1) rotate(0) translate(4 418)">
<title>iii_drone::adapters::ReferenceAdapter::ToMsg</title>
<!-- Node1 -->
<g id="Node000001" class="node">
<title>Node1</title>
<g id="a_Node000001"><a xlink:title="Converts to msg.">
<polygon fill="#999999" stroke="#666666" points="147,-222 0,-222 0,-192 147,-192 147,-222"/>
<text text-anchor="start" x="8" y="-210" font-family="Helvetica,sans-Serif" font-size="10.00">iii_drone::adapters</text>
<text text-anchor="middle" x="73.5" y="-199" font-family="Helvetica,sans-Serif" font-size="10.00">::ReferenceAdapter::ToMsg</text>
</a>
</g>
</g>
<!-- Node2 -->
<g id="Node000002" class="node">
<title>Node2</title>
<g id="a_Node000002"><a xlink:href="classiii__drone_1_1control_1_1Reference.html#af6cf6c27339aab63f6b029e976caa4b7" target="_top" xlink:title=" ">
<polygon fill="white" stroke="#666666" points="334,-414 196,-414 196,-384 334,-384 334,-414"/>
<text text-anchor="start" x="204" y="-402" font-family="Helvetica,sans-Serif" font-size="10.00">iii_drone::control</text>
<text text-anchor="middle" x="265" y="-391" font-family="Helvetica,sans-Serif" font-size="10.00">::Reference::acceleration</text>
</a>
</g>
</g>
<!-- Node1&#45;&gt;Node2 -->
<g id="edge1_Node000001_Node000002" class="edge">
<title>Node1&#45;&gt;Node2</title>
<g id="a_edge1_Node000001_Node000002"><a xlink:title=" ">
<path fill="none" stroke="#63b8ff" d="M80.02,-222.12C92.81,-255.04 127.69,-333.59 183,-375 184.86,-376.39 186.8,-377.71 188.8,-378.94"/>
<polygon fill="#63b8ff" stroke="#63b8ff" points="187.48,-382.2 197.94,-383.89 190.81,-376.05 187.48,-382.2"/>
</a>
</g>
</g>
<!-- Node3 -->
<g id="Node000003" class="node">
<title>Node3</title>
<g id="a_Node000003"><a xlink:href="namespaceiii__drone_1_1types.html#adf49c0d0a898eea29ad3e752a6712734" target="_top" xlink:title=" ">
<polygon fill="white" stroke="#666666" points="336.5,-366 193.5,-366 193.5,-336 336.5,-336 336.5,-366"/>
<text text-anchor="start" x="201.5" y="-354" font-family="Helvetica,sans-Serif" font-size="10.00">iii_drone::types::pointMsg</text>
<text text-anchor="middle" x="265" y="-343" font-family="Helvetica,sans-Serif" font-size="10.00">FromPoint</text>
</a>
</g>
</g>
<!-- Node1&#45;&gt;Node3 -->
<g id="edge2_Node000001_Node000003" class="edge">
<title>Node1&#45;&gt;Node3</title>
<g id="a_edge2_Node000001_Node000003"><a xlink:title=" ">
<path fill="none" stroke="#63b8ff" d="M84.21,-222.36C101.15,-247.89 138.55,-299.02 183,-327 185.65,-328.67 188.41,-330.22 191.26,-331.67"/>
<polygon fill="#63b8ff" stroke="#63b8ff" points="190.04,-334.96 200.59,-335.96 192.97,-328.6 190.04,-334.96"/>
</a>
</g>
</g>
<!-- Node4 -->
<g id="Node000004" class="node">
<title>Node4</title>
<g id="a_Node000004"><a xlink:href="classiii__drone_1_1control_1_1Reference.html#a2ba5647e5161e35e0588394dcae0663b" target="_top" xlink:title=" ">
<polygon fill="white" stroke="#666666" points="323.5,-318 206.5,-318 206.5,-288 323.5,-288 323.5,-318"/>
<text text-anchor="start" x="214.5" y="-306" font-family="Helvetica,sans-Serif" font-size="10.00">iii_drone::control</text>
<text text-anchor="middle" x="265" y="-295" font-family="Helvetica,sans-Serif" font-size="10.00">::Reference::position</text>
</a>
</g>
</g>
<!-- Node1&#45;&gt;Node4 -->
<g id="edge3_Node000001_Node000004" class="edge">
<title>Node1&#45;&gt;Node4</title>
<g id="a_edge3_Node000001_Node000004"><a xlink:title=" ">
<path fill="none" stroke="#63b8ff" d="M93.45,-222.13C114.33,-238.17 149.41,-263.31 183,-279 187.34,-281.03 191.89,-282.93 196.53,-284.7"/>
<polygon fill="#63b8ff" stroke="#63b8ff" points="195.53,-288.06 206.13,-288.16 197.91,-281.48 195.53,-288.06"/>
</a>
</g>
</g>
<!-- Node5 -->
<g id="Node000005" class="node">
<title>Node5</title>
<g id="a_Node000005"><a xlink:href="classiii__drone_1_1control_1_1Reference.html#a2ef1baafb09875a2af495e006f98c7c5" target="_top" xlink:title=" ">
<polygon fill="white" stroke="#666666" points="319.5,-270 210.5,-270 210.5,-240 319.5,-240 319.5,-270"/>
<text text-anchor="start" x="218.5" y="-258" font-family="Helvetica,sans-Serif" font-size="10.00">iii_drone::control</text>
<text text-anchor="middle" x="265" y="-247" font-family="Helvetica,sans-Serif" font-size="10.00">::Reference::stamp</text>
</a>
</g>
</g>
<!-- Node1&#45;&gt;Node5 -->
<g id="edge4_Node000001_Node000005" class="edge">
<title>Node1&#45;&gt;Node5</title>
<g id="a_edge4_Node000001_Node000005"><a xlink:title=" ">
<path fill="none" stroke="#63b8ff" d="M133.94,-222.06C155.02,-227.4 178.83,-233.43 200.26,-238.85"/>
<polygon fill="#63b8ff" stroke="#63b8ff" points="199.68,-242.32 210.24,-241.38 201.4,-235.53 199.68,-242.32"/>
</a>
</g>
</g>
<!-- Node6 -->
<g id="Node000006" class="node">
<title>Node6</title>
<g id="a_Node000006"><a xlink:href="namespaceiii__drone_1_1types.html#a55650c4ff895bbd1c624ee51c235a102" target="_top" xlink:title=" ">
<polygon fill="white" stroke="#666666" points="329,-222 201,-222 201,-192 329,-192 329,-222"/>
<text text-anchor="start" x="209" y="-210" font-family="Helvetica,sans-Serif" font-size="10.00">iii_drone::types::vector</text>
<text text-anchor="middle" x="265" y="-199" font-family="Helvetica,sans-Serif" font-size="10.00">MsgFromVector</text>
</a>
</g>
</g>
<!-- Node1&#45;&gt;Node6 -->
<g id="edge5_Node000001_Node000006" class="edge">
<title>Node1&#45;&gt;Node6</title>
<g id="a_edge5_Node000001_Node000006"><a xlink:title=" ">
<path fill="none" stroke="#63b8ff" d="M147.22,-207C161.42,-207 176.31,-207 190.53,-207"/>
<polygon fill="#63b8ff" stroke="#63b8ff" points="190.74,-210.5 200.74,-207 190.74,-203.5 190.74,-210.5"/>
</a>
</g>
</g>
<!-- Node7 -->
<g id="Node000007" class="node">
<title>Node7</title>
<g id="a_Node000007"><a xlink:href="classiii__drone_1_1control_1_1Reference.html#a5d85fddf537e6663badb5654a23a4bce" target="_top" xlink:title=" ">
<polygon fill="white" stroke="#666666" points="323.5,-174 206.5,-174 206.5,-144 323.5,-144 323.5,-174"/>
<text text-anchor="start" x="214.5" y="-162" font-family="Helvetica,sans-Serif" font-size="10.00">iii_drone::control</text>
<text text-anchor="middle" x="265" y="-151" font-family="Helvetica,sans-Serif" font-size="10.00">::Reference::velocity</text>
</a>
</g>
</g>
<!-- Node1&#45;&gt;Node7 -->
<g id="edge6_Node000001_Node000007" class="edge">
<title>Node1&#45;&gt;Node7</title>
<g id="a_edge6_Node000001_Node000007"><a xlink:title=" ">
<path fill="none" stroke="#63b8ff" d="M133.94,-191.94C153.81,-186.91 176.09,-181.27 196.53,-176.09"/>
<polygon fill="#63b8ff" stroke="#63b8ff" points="197.56,-179.44 206.39,-173.59 195.84,-172.65 197.56,-179.44"/>
</a>
</g>
</g>
<!-- Node8 -->
<g id="Node000008" class="node">
<title>Node8</title>
<g id="a_Node000008"><a xlink:href="classiii__drone_1_1control_1_1Reference.html#a784277cbb64476953132a8e239f9ae9e" target="_top" xlink:title=" ">
<polygon fill="white" stroke="#666666" points="314,-126 216,-126 216,-96 314,-96 314,-126"/>
<text text-anchor="start" x="224" y="-114" font-family="Helvetica,sans-Serif" font-size="10.00">iii_drone::control</text>
<text text-anchor="middle" x="265" y="-103" font-family="Helvetica,sans-Serif" font-size="10.00">::Reference::yaw</text>
</a>
</g>
</g>
<!-- Node1&#45;&gt;Node8 -->
<g id="edge7_Node000001_Node000008" class="edge">
<title>Node1&#45;&gt;Node8</title>
<g id="a_edge7_Node000001_Node000008"><a xlink:title=" ">
<path fill="none" stroke="#63b8ff" d="M93.45,-191.87C114.33,-175.83 149.41,-150.69 183,-135 190.27,-131.6 198.14,-128.56 206.02,-125.88"/>
<polygon fill="#63b8ff" stroke="#63b8ff" points="207.15,-129.19 215.58,-122.78 204.99,-122.53 207.15,-129.19"/>
</a>
</g>
</g>
<!-- Node9 -->
<g id="Node000009" class="node">
<title>Node9</title>
<g id="a_Node000009"><a xlink:href="classiii__drone_1_1control_1_1Reference.html#a94ddbc48fd727336b1896eb1c666170a" target="_top" xlink:title=" ">
<polygon fill="white" stroke="#666666" points="347,-78 183,-78 183,-48 347,-48 347,-78"/>
<text text-anchor="start" x="191" y="-66" font-family="Helvetica,sans-Serif" font-size="10.00">iii_drone::control</text>
<text text-anchor="middle" x="265" y="-55" font-family="Helvetica,sans-Serif" font-size="10.00">::Reference::yaw_acceleration</text>
</a>
</g>
</g>
<!-- Node1&#45;&gt;Node9 -->
<g id="edge8_Node000001_Node000009" class="edge">
<title>Node1&#45;&gt;Node9</title>
<g id="a_edge8_Node000001_Node000009"><a xlink:title=" ">
<path fill="none" stroke="#63b8ff" d="M84.21,-191.64C101.15,-166.11 138.55,-114.98 183,-87 185.65,-85.33 188.41,-83.78 191.26,-82.33"/>
<polygon fill="#63b8ff" stroke="#63b8ff" points="192.97,-85.4 200.59,-78.04 190.04,-79.04 192.97,-85.4"/>
</a>
</g>
</g>
<!-- Node10 -->
<g id="Node000010" class="node">
<title>Node10</title>
<g id="a_Node000010"><a xlink:href="classiii__drone_1_1control_1_1Reference.html#abbbec5f6fe1f64fd6c4984349ac87840" target="_top" xlink:title=" ">
<polygon fill="white" stroke="#666666" points="326.5,-30 203.5,-30 203.5,0 326.5,0 326.5,-30"/>
<text text-anchor="start" x="211.5" y="-18" font-family="Helvetica,sans-Serif" font-size="10.00">iii_drone::control</text>
<text text-anchor="middle" x="265" y="-7" font-family="Helvetica,sans-Serif" font-size="10.00">::Reference::yaw_rate</text>
</a>
</g>
</g>
<!-- Node1&#45;&gt;Node10 -->
<g id="edge9_Node000001_Node000010" class="edge">
<title>Node1&#45;&gt;Node10</title>
<g id="a_edge9_Node000001_Node000010"><a xlink:title=" ">
<path fill="none" stroke="#63b8ff" d="M80.02,-191.88C92.81,-158.96 127.69,-80.41 183,-39 186.43,-36.43 190.14,-34.13 194.01,-32.08"/>
<polygon fill="#63b8ff" stroke="#63b8ff" points="195.73,-35.14 203.3,-27.72 192.76,-28.8 195.73,-35.14"/>
</a>
</g>
</g>
</g>
</svg>
