<?xml version="1.0" encoding="UTF-8" standalone="no"?>
<!DOCTYPE svg PUBLIC "-//W3C//DTD SVG 1.1//EN"
 "http://www.w3.org/Graphics/SVG/1.1/DTD/svg11.dtd">
<!-- Generated by graphviz version 2.43.0 (0)
 -->
<!-- Title: iii_drone::mission::continuous_mission_orchestrator_node::ContinuousMissionOrchestrator::getGripperStatus Pages: 1 -->
<!--zoomable 210 -->

<svg id="main" version="1.1" xmlns="http://www.w3.org/2000/svg" xmlns:xlink="http://www.w3.org/1999/xlink" xml:space="preserve" onload="init(evt)">
<style type="text/css"><![CDATA[
.node, .edge {opacity: 0.7;}
.node.selected, .edge.selected {opacity: 1;}
.edge:hover path { stroke: red; }
.edge:hover polygon { stroke: red; fill: red; }
]]></style>

<defs>
  <circle id="rim" cx="0" cy="0" r="7"/>
  <circle id="rim2" cx="0" cy="0" r="3.5"/>
  <g id="zoomPlus">
    <use xlink:href="#rim" fill="#404040"><set attributeName="fill" to="#808080" begin="zoomplus.mouseover" end="zoomplus.mouseout"/></use>
    <path d="M-4,0h8M0,-4v8" fill="none" stroke="white" stroke-width="1.5" pointer-events="none"/>
  </g>
  <g id="zoomMin">
    <use xlink:href="#rim" fill="#404040"><set attributeName="fill" to="#808080" begin="zoomminus.mouseover" end="zoomminus.mouseout"/></use>
    <path d="M-4,0h8" fill="none" stroke="white" stroke-width="1.5" pointer-events="none"/>
  </g>
  <g id="arrowUp" transform="translate(30 24)">
    <use xlink:href="#rim"/>
    <path pointer-events="none" fill="none" stroke="white" stroke-width="1.5" d="M0,-3.0v7 M-2.5,-0.5L0,-3.0L2.5,-0.5"/>
  </g>
  <g id="arrowRight" transform="rotate(90) translate(36 -43)">
    <use xlink:href="#rim"/>
    <path pointer-events="none" fill="none" stroke="white" stroke-width="1.5" d="M0,-3.0v7 M-2.5,-0.5L0,-3.0L2.5,-0.5"/>
  </g>
  <g id="arrowDown" transform="rotate(180) translate(-30 -48)">
    <use xlink:href="#rim"/>
    <path pointer-events="none" fill="none" stroke="white" stroke-width="1.5" d="M0,-3.0v7 M-2.5,-0.5L0,-3.0L2.5,-0.5"/>
  </g>
  <g id="arrowLeft" transform="rotate(270) translate(-36 17)">
    <use xlink:href="#rim"/>
    <path pointer-events="none" fill="none" stroke="white" stroke-width="1.5" d="M0,-3.0v7 M-2.5,-0.5L0,-3.0L2.5,-0.5"/>
  </g>
  <g id="resetDef">
    <use xlink:href="#rim2" fill="#404040"><set attributeName="fill" to="#808080" begin="reset.mouseover" end="reset.mouseout"/></use>
  </g>
</defs>
<script type="application/ecmascript">
var viewWidth = 1221;
var viewHeight = 210;
var sectionId = 'dynsection-47';
</script>
<script type="application/ecmascript" xlink:href="svg.min.js"/>
<svg id="graph" class="graph">
<g id="viewport">
<title>iii_drone::mission::continuous_mission_orchestrator_node::ContinuousMissionOrchestrator::getGripperStatus</title>
<!-- Node1 -->
<g id="Node000001" class="node">
<title>Node1</title>
<g id="a_Node000001"><a xlink:title=" ">
<polygon fill="#999999" stroke="#666666" points="1213,-131.5 1010,-131.5 1010,-79.5 1213,-79.5 1213,-131.5"/>
<text text-anchor="start" x="1018" y="-119.5" font-family="Helvetica,sans-Serif" font-size="10.00">iii_drone::mission</text>
<text text-anchor="start" x="1018" y="-108.5" font-family="Helvetica,sans-Serif" font-size="10.00">::continuous_mission</text>
<text text-anchor="start" x="1018" y="-97.5" font-family="Helvetica,sans-Serif" font-size="10.00">_orchestrator_node::Continuous</text>
<text text-anchor="middle" x="1111.5" y="-86.5" font-family="Helvetica,sans-Serif" font-size="10.00">MissionOrchestrator::getGripperStatus</text>
</a>
</g>
</g>
<!-- Node2 -->
<g id="Node000002" class="node">
<title>Node2</title>
<g id="a_Node000002"><a xlink:href="classiii__drone_1_1mission_1_1continuous__mission__orchestrator__node_1_1ContinuousMissionOrchestrator.html#a543abf41094d05a47e41c80397a685ea" target="_top" xlink:title=" ">
<polygon fill="white" stroke="#666666" points="974,-201.5 777,-201.5 777,-149.5 974,-149.5 974,-201.5"/>
<text text-anchor="start" x="785" y="-189.5" font-family="Helvetica,sans-Serif" font-size="10.00">iii_drone::mission</text>
<text text-anchor="start" x="785" y="-178.5" font-family="Helvetica,sans-Serif" font-size="10.00">::continuous_mission</text>
<text text-anchor="start" x="785" y="-167.5" font-family="Helvetica,sans-Serif" font-size="10.00">_orchestrator_node::Continuous</text>
<text text-anchor="middle" x="875.5" y="-156.5" font-family="Helvetica,sans-Serif" font-size="10.00">MissionOrchestrator::gripperIsClosed</text>
</a>
</g>
</g>
<!-- Node1&#45;&gt;Node2 -->
<g id="edge1_Node000001_Node000002" class="edge">
<title>Node1&#45;&gt;Node2</title>
<g id="a_edge1_Node000001_Node000002"><a xlink:title=" ">
<path fill="none" stroke="#63b8ff" d="M1013.69,-134.46C997.12,-139.42 980,-144.54 963.71,-149.41"/>
<polygon fill="#63b8ff" stroke="#63b8ff" points="1014.79,-137.78 1023.37,-131.57 1012.78,-131.08 1014.79,-137.78"/>
</a>
</g>
</g>
<!-- Node3 -->
<g id="Node000003" class="node">
<title>Node3</title>
<g id="a_Node000003"><a xlink:href="classiii__drone_1_1mission_1_1continuous__mission__orchestrator__node_1_1ContinuousMissionOrchestrator.html#a6469634804b73036ef9c941471bd4725" target="_top" xlink:title=" ">
<polygon fill="white" stroke="#666666" points="970,-131.5 781,-131.5 781,-79.5 970,-79.5 970,-131.5"/>
<text text-anchor="start" x="789" y="-119.5" font-family="Helvetica,sans-Serif" font-size="10.00">iii_drone::mission</text>
<text text-anchor="start" x="789" y="-108.5" font-family="Helvetica,sans-Serif" font-size="10.00">::continuous_mission</text>
<text text-anchor="start" x="789" y="-97.5" font-family="Helvetica,sans-Serif" font-size="10.00">_orchestrator_node::Continuous</text>
<text text-anchor="middle" x="875.5" y="-86.5" font-family="Helvetica,sans-Serif" font-size="10.00">MissionOrchestrator::gripperIsOpen</text>
</a>
</g>
</g>
<!-- Node1&#45;&gt;Node3 -->
<g id="edge2_Node000001_Node000003" class="edge">
<title>Node1&#45;&gt;Node3</title>
<g id="a_edge2_Node000001_Node000003"><a xlink:title=" ">
<path fill="none" stroke="#63b8ff" d="M999.7,-105.5C989.89,-105.5 980.01,-105.5 970.35,-105.5"/>
<polygon fill="#63b8ff" stroke="#63b8ff" points="999.9,-109 1009.9,-105.5 999.9,-102 999.9,-109"/>
</a>
</g>
</g>
<!-- Node7 -->
<g id="Node000007" class="node">
<title>Node7</title>
<g id="a_Node000007"><a xlink:href="classiii__drone_1_1mission_1_1continuous__mission__orchestrator__node_1_1ContinuousMissionOrchestrator.html#aced4073ab58729bff6e815d51bf89778" target="_top" xlink:title=" ">
<polygon fill="white" stroke="#666666" points="740,-63 515,-63 515,0 740,0 740,-63"/>
<text text-anchor="start" x="523" y="-51" font-family="Helvetica,sans-Serif" font-size="10.00">iii_drone::mission</text>
<text text-anchor="start" x="523" y="-40" font-family="Helvetica,sans-Serif" font-size="10.00">::continuous_mission</text>
<text text-anchor="start" x="523" y="-29" font-family="Helvetica,sans-Serif" font-size="10.00">_orchestrator_node::Continuous</text>
<text text-anchor="start" x="523" y="-18" font-family="Helvetica,sans-Serif" font-size="10.00">MissionOrchestrator::stateMachineLanding</text>
<text text-anchor="middle" x="627.5" y="-7" font-family="Helvetica,sans-Serif" font-size="10.00">OnCable</text>
</a>
</g>
</g>
<!-- Node1&#45;&gt;Node7 -->
<g id="edge6_Node000001_Node000007" class="edge">
<title>Node1&#45;&gt;Node7</title>
<g id="a_edge6_Node000001_Node000007"><a xlink:title=" ">
<path fill="none" stroke="#63b8ff" d="M1005.94,-77.12C995.2,-74.68 984.41,-72.41 974,-70.5 896.52,-56.27 808.25,-46.41 740.33,-40.17"/>
<polygon fill="#63b8ff" stroke="#63b8ff" points="1005.25,-80.55 1015.78,-79.41 1006.83,-73.74 1005.25,-80.55"/>
</a>
</g>
</g>
<!-- Node4 -->
<g id="Node000004" class="node">
<title>Node4</title>
<g id="a_Node000004"><a xlink:href="classiii__drone_1_1mission_1_1continuous__mission__orchestrator__node_1_1ContinuousMissionOrchestrator.html#a9041f2692d56d3823dd4ebe8ffc566f2" target="_top" xlink:title=" ">
<polygon fill="white" stroke="#666666" points="741,-144 514,-144 514,-81 741,-81 741,-144"/>
<text text-anchor="start" x="522" y="-132" font-family="Helvetica,sans-Serif" font-size="10.00">iii_drone::mission</text>
<text text-anchor="start" x="522" y="-121" font-family="Helvetica,sans-Serif" font-size="10.00">::continuous_mission</text>
<text text-anchor="start" x="522" y="-110" font-family="Helvetica,sans-Serif" font-size="10.00">_orchestrator_node::Continuous</text>
<text text-anchor="start" x="522" y="-99" font-family="Helvetica,sans-Serif" font-size="10.00">MissionOrchestrator::stateMachineOpening</text>
<text text-anchor="middle" x="627.5" y="-88" font-family="Helvetica,sans-Serif" font-size="10.00">Gripper</text>
</a>
</g>
</g>
<!-- Node3&#45;&gt;Node4 -->
<g id="edge3_Node000003_Node000004" class="edge">
<title>Node3&#45;&gt;Node4</title>
<g id="a_edge3_Node000003_Node000004"><a xlink:title=" ">
<path fill="none" stroke="#63b8ff" d="M770.74,-108.45C761.02,-108.73 751.14,-109.01 741.34,-109.29"/>
<polygon fill="#63b8ff" stroke="#63b8ff" points="770.9,-111.95 780.8,-108.17 770.7,-104.95 770.9,-111.95"/>
</a>
</g>
</g>
<!-- Node5 -->
<g id="Node000005" class="node">
<title>Node5</title>
<g id="a_Node000005"><a xlink:href="classiii__drone_1_1mission_1_1continuous__mission__orchestrator__node_1_1ContinuousMissionOrchestrator.html#a03d16a0b3a80d3d63fd1ac37c08829c7" target="_top" xlink:title=" ">
<polygon fill="white" stroke="#666666" points="478,-97.5 249,-97.5 249,-45.5 478,-45.5 478,-97.5"/>
<text text-anchor="start" x="257" y="-85.5" font-family="Helvetica,sans-Serif" font-size="10.00">iii_drone::mission</text>
<text text-anchor="start" x="257" y="-74.5" font-family="Helvetica,sans-Serif" font-size="10.00">::continuous_mission</text>
<text text-anchor="start" x="257" y="-63.5" font-family="Helvetica,sans-Serif" font-size="10.00">_orchestrator_node::Continuous</text>
<text text-anchor="middle" x="363.5" y="-52.5" font-family="Helvetica,sans-Serif" font-size="10.00">MissionOrchestrator::stateMachineCallback</text>
</a>
</g>
</g>
<!-- Node4&#45;&gt;Node5 -->
<g id="edge4_Node000004_Node000005" class="edge">
<title>Node4&#45;&gt;Node5</title>
<g id="a_edge4_Node000004_Node000005"><a xlink:title=" ">
<path fill="none" stroke="#63b8ff" d="M503.88,-93.31C495.35,-91.98 486.77,-90.63 478.29,-89.31"/>
<polygon fill="#63b8ff" stroke="#63b8ff" points="503.45,-96.79 513.87,-94.87 504.53,-89.87 503.45,-96.79"/>
</a>
</g>
</g>
<!-- Node6 -->
<g id="Node000006" class="node">
<title>Node6</title>
<g id="a_Node000006"><a xlink:href="classiii__drone_1_1mission_1_1continuous__mission__orchestrator__node_1_1ContinuousMissionOrchestrator.html#a7d652b0b72969090c91c494f5c032eba" target="_top" xlink:title=" ">
<polygon fill="white" stroke="#666666" points="213,-103 0,-103 0,-40 213,-40 213,-103"/>
<text text-anchor="start" x="8" y="-91" font-family="Helvetica,sans-Serif" font-size="10.00">iii_drone::mission</text>
<text text-anchor="start" x="8" y="-80" font-family="Helvetica,sans-Serif" font-size="10.00">::continuous_mission</text>
<text text-anchor="start" x="8" y="-69" font-family="Helvetica,sans-Serif" font-size="10.00">_orchestrator_node::Continuous</text>
<text text-anchor="start" x="8" y="-58" font-family="Helvetica,sans-Serif" font-size="10.00">MissionOrchestrator::ContinuousMission</text>
<text text-anchor="middle" x="106.5" y="-47" font-family="Helvetica,sans-Serif" font-size="10.00">Orchestrator</text>
</a>
</g>
</g>
<!-- Node5&#45;&gt;Node6 -->
<g id="edge5_Node000005_Node000006" class="edge">
<title>Node5&#45;&gt;Node6</title>
<g id="a_edge5_Node000005_Node000006"><a xlink:title=" ">
<path fill="none" stroke="#63b8ff" d="M238.79,-71.5C230.26,-71.5 221.7,-71.5 213.27,-71.5"/>
<polygon fill="#63b8ff" stroke="#63b8ff" points="238.8,-75 248.8,-71.5 238.8,-68 238.8,-75"/>
</a>
</g>
</g>
<!-- Node7&#45;&gt;Node5 -->
<g id="edge7_Node000007_Node000005" class="edge">
<title>Node7&#45;&gt;Node5</title>
<g id="a_edge7_Node000007_Node000005"><a xlink:title=" ">
<path fill="none" stroke="#63b8ff" d="M504.66,-50.1C495.8,-51.45 486.89,-52.81 478.09,-54.16"/>
<polygon fill="#63b8ff" stroke="#63b8ff" points="505.27,-53.55 514.63,-48.58 504.21,-46.63 505.27,-53.55"/>
</a>
</g>
</g>
</g>
</svg>

<g id="navigator" transform="translate(0 0)" fill="#404254">
  <rect fill="#f2f5e9" fill-opacity="0.5" stroke="#606060" stroke-width=".5" x="0" y="0" width="60" height="60"/>
  <use id="zoomplus" xlink:href="#zoomPlus" x="17" y="9" onmousedown="handleZoom(evt,'in')"/>
  <use id="zoomminus" xlink:href="#zoomMin" x="42" y="9" onmousedown="handleZoom(evt,'out')"/>
  <use id="reset" xlink:href="#resetDef" x="30" y="36" onmousedown="handleReset()"/>
   <use id="arrowup" xlink:href="#arrowUp" x="0" y="0" onmousedown="handlePan(0,-1)"/>
  <use id="arrowright" xlink:href="#arrowRight" x="0" y="0" onmousedown="handlePan(1,0)"/>
  <use id="arrowdown" xlink:href="#arrowDown" x="0" y="0" onmousedown="handlePan(0,1)"/>
  <use id="arrowleft" xlink:href="#arrowLeft" x="0" y="0" onmousedown="handlePan(-1,0)"/>
</g>
<svg viewBox="0 0 15 15" width="100%" height="30px" preserveAspectRatio="xMaxYMin meet">
 <g id="arrow_out" transform="scale(0.3 0.3)">
  <a xlink:href="classiii__drone_1_1mission_1_1continuous__mission__orchestrator__node_1_1ContinuousMissionOrchestrator_ad400869584077107e028c29f64543986_icgraph_org.svg" target="_base">
   <rect id="button" ry="5" rx="5" y="6" x="6" height="38" width="38"
        fill="#f2f5e9" fill-opacity="0.5" stroke="#606060" stroke-width="1.0"/>
   <path id="arrow"
     d="M 11.500037,31.436501 C 11.940474,20.09759 22.043105,11.32322 32.158766,21.979434 L 37.068811,17.246167 C 37.068811,17.246167 37.088388,32 37.088388,32 L 22.160133,31.978069 C 22.160133,31.978069 26.997745,27.140456 26.997745,27.140456 C 18.528582,18.264221 13.291696,25.230495 11.500037,31.436501 z"
     style="fill:#404040;"/>
  </a>
 </g>
</svg>

<style type='text/css'>
<![CDATA[
[data-mouse-over-selected='false'] { opacity: 0.7; }
[data-mouse-over-selected='true']  { opacity: 1.0; }
]]>
</style>
<script type="application/ecmascript"><![CDATA[
document.addEventListener('DOMContentLoaded', (event) => {
  highlightEdges();
  highlightAdjacentNodes();
});
]]></script>
</svg>
