<?xml version="1.0" encoding="UTF-8" standalone="no"?>
<!DOCTYPE svg PUBLIC "-//W3C//DTD SVG 1.1//EN"
 "http://www.w3.org/Graphics/SVG/1.1/DTD/svg11.dtd">
<!-- Generated by graphviz version 2.43.0 (0)
 -->
<!-- Title: iii_drone::adapters::TargetAdapter::TargetAdapter Pages: 1 -->
<svg width="362pt" height="206pt"
 viewBox="0.00 0.00 362.00 205.50" xmlns="http://www.w3.org/2000/svg" xmlns:xlink="http://www.w3.org/1999/xlink">

<svg id="main" version="1.1" xmlns="http://www.w3.org/2000/svg" xmlns:xlink="http://www.w3.org/1999/xlink" xml:space="preserve" onload="init(evt)">
<style type="text/css"><![CDATA[
.node, .edge {opacity: 0.7;}
.node.selected, .edge.selected {opacity: 1;}
.edge:hover path { stroke: red; }
.edge:hover polygon { stroke: red; fill: red; }
]]></style>
<script type="application/ecmascript" xlink:href="svg.min.js"/>
<svg id="graph" class="graph">
<g id="graph0" class="graph" transform="scale(1 1) rotate(0) translate(4 201.5)">
<title>iii_drone::adapters::TargetAdapter::TargetAdapter</title>
<!-- Node1 -->
<g id="Node000001" class="node">
<title>Node1</title>
<g id="a_Node000001"><a xlink:title="Constructor from members.">
<polygon fill="#999999" stroke="#666666" points="165,-111 0,-111 0,-81 165,-81 165,-111"/>
<text text-anchor="start" x="8" y="-99" font-family="Helvetica,sans-Serif" font-size="10.00">iii_drone::adapters</text>
<text text-anchor="middle" x="82.5" y="-88" font-family="Helvetica,sans-Serif" font-size="10.00">::TargetAdapter::TargetAdapter</text>
</a>
</g>
</g>
<!-- Node2 -->
<g id="Node000002" class="node">
<title>Node2</title>
<g id="a_Node000002"><a xlink:href="classiii__drone_1_1adapters_1_1TargetAdapter.html#adc6afc7adf9cc134e12fe65902100471" target="_top" xlink:title="Gets the reference frame id.">
<polygon fill="white" stroke="#666666" points="349,-197.5 206,-197.5 206,-156.5 349,-156.5 349,-197.5"/>
<text text-anchor="start" x="214" y="-185.5" font-family="Helvetica,sans-Serif" font-size="10.00">iii_drone::adapters</text>
<text text-anchor="start" x="214" y="-174.5" font-family="Helvetica,sans-Serif" font-size="10.00">::TargetAdapter::reference</text>
<text text-anchor="middle" x="277.5" y="-163.5" font-family="Helvetica,sans-Serif" font-size="10.00">_frame_id</text>
</a>
</g>
</g>
<!-- Node1&#45;&gt;Node2 -->
<g id="edge1_Node000001_Node000002" class="edge">
<title>Node1&#45;&gt;Node2</title>
<g id="a_edge1_Node000001_Node000002"><a xlink:title=" ">
<path fill="none" stroke="#63b8ff" d="M117.32,-111.01C140.73,-121.32 172.66,-135.22 201,-147 205.41,-148.83 209.97,-150.7 214.57,-152.57"/>
<polygon fill="#63b8ff" stroke="#63b8ff" points="213.44,-155.89 224.02,-156.39 216.06,-149.4 213.44,-155.89"/>
</a>
</g>
</g>
<!-- Node3 -->
<g id="Node000003" class="node">
<title>Node3</title>
<g id="a_Node000003"><a xlink:href="classiii__drone_1_1adapters_1_1TargetAdapter.html#af4648a3bc6fd3ac93e610700e24b2d14" target="_top" xlink:title="Gets the target id.">
<polygon fill="white" stroke="#666666" points="347.5,-138 207.5,-138 207.5,-108 347.5,-108 347.5,-138"/>
<text text-anchor="start" x="215.5" y="-126" font-family="Helvetica,sans-Serif" font-size="10.00">iii_drone::adapters</text>
<text text-anchor="middle" x="277.5" y="-115" font-family="Helvetica,sans-Serif" font-size="10.00">::TargetAdapter::target_id</text>
</a>
</g>
</g>
<!-- Node1&#45;&gt;Node3 -->
<g id="edge2_Node000001_Node000003" class="edge">
<title>Node1&#45;&gt;Node3</title>
<g id="a_edge2_Node000001_Node000003"><a xlink:title=" ">
<path fill="none" stroke="#63b8ff" d="M165.07,-107.41C175.75,-108.91 186.68,-110.43 197.32,-111.92"/>
<polygon fill="#63b8ff" stroke="#63b8ff" points="197.03,-115.42 207.42,-113.34 198,-108.48 197.03,-115.42"/>
</a>
</g>
</g>
<!-- Node4 -->
<g id="Node000004" class="node">
<title>Node4</title>
<g id="a_Node000004"><a xlink:href="classiii__drone_1_1adapters_1_1TargetAdapter.html#a5b378f4de1effed87e2309d5f052d74a" target="_top" xlink:title="Gets the target transform.">
<polygon fill="white" stroke="#666666" points="340.5,-89.5 214.5,-89.5 214.5,-48.5 340.5,-48.5 340.5,-89.5"/>
<text text-anchor="start" x="222.5" y="-77.5" font-family="Helvetica,sans-Serif" font-size="10.00">iii_drone::adapters</text>
<text text-anchor="start" x="222.5" y="-66.5" font-family="Helvetica,sans-Serif" font-size="10.00">::TargetAdapter::target</text>
<text text-anchor="middle" x="277.5" y="-55.5" font-family="Helvetica,sans-Serif" font-size="10.00">_transform</text>
</a>
</g>
</g>
<!-- Node1&#45;&gt;Node4 -->
<g id="edge3_Node000001_Node000004" class="edge">
<title>Node1&#45;&gt;Node4</title>
<g id="a_edge3_Node000001_Node000004"><a xlink:title=" ">
<path fill="none" stroke="#63b8ff" d="M165.07,-84.59C178.06,-82.77 191.42,-80.9 204.17,-79.12"/>
<polygon fill="#63b8ff" stroke="#63b8ff" points="204.84,-82.56 214.25,-77.71 203.87,-75.63 204.84,-82.56"/>
</a>
</g>
</g>
<!-- Node5 -->
<g id="Node000005" class="node">
<title>Node5</title>
<g id="a_Node000005"><a xlink:href="classiii__drone_1_1adapters_1_1TargetAdapter.html#a7b5c36b234213f1d19fa8f1943c26c4a" target="_top" xlink:title="Gets the target type.">
<polygon fill="white" stroke="#666666" points="354,-30 201,-30 201,0 354,0 354,-30"/>
<text text-anchor="start" x="209" y="-18" font-family="Helvetica,sans-Serif" font-size="10.00">iii_drone::adapters</text>
<text text-anchor="middle" x="277.5" y="-7" font-family="Helvetica,sans-Serif" font-size="10.00">::TargetAdapter::target_type</text>
</a>
</g>
</g>
<!-- Node1&#45;&gt;Node5 -->
<g id="edge4_Node000001_Node000005" class="edge">
<title>Node1&#45;&gt;Node5</title>
<g id="a_edge4_Node000001_Node000005"><a xlink:title=" ">
<path fill="none" stroke="#63b8ff" d="M112.5,-80.93C136.01,-69.02 170.18,-52.39 201,-40 206.5,-37.79 212.28,-35.62 218.08,-33.53"/>
<polygon fill="#63b8ff" stroke="#63b8ff" points="219.56,-36.72 227.84,-30.12 217.25,-30.12 219.56,-36.72"/>
</a>
</g>
</g>
</g>
</svg>
</svg>

<style type='text/css'>
<![CDATA[
[data-mouse-over-selected='false'] { opacity: 0.7; }
[data-mouse-over-selected='true']  { opacity: 1.0; }
]]>
</style>
<script type="application/ecmascript"><![CDATA[
document.addEventListener('DOMContentLoaded', (event) => {
  highlightEdges();
  highlightAdjacentNodes();
});
]]></script>
</svg>
