<?xml version="1.0" encoding="UTF-8" standalone="no"?>
<!DOCTYPE svg PUBLIC "-//W3C//DTD SVG 1.1//EN"
 "http://www.w3.org/Graphics/SVG/1.1/DTD/svg11.dtd">
<!-- Generated by graphviz version 2.43.0 (0)
 -->
<!-- Title: iii_drone::mission::continuous_mission_orchestrator_node::ContinuousMissionOrchestratorConfigurator Pages: 1 -->
<svg width="400pt" height="802pt"
 viewBox="0.00 0.00 399.50 802.00" xmlns="http://www.w3.org/2000/svg" xmlns:xlink="http://www.w3.org/1999/xlink">
<g id="graph0" class="graph" transform="scale(1 1) rotate(0) translate(4 798)">
<title>iii_drone::mission::continuous_mission_orchestrator_node::ContinuousMissionOrchestratorConfigurator</title>
<!-- Node1 -->
<g id="Node000001" class="node">
<title>Node1</title>
<g id="a_Node000001"><a xlink:title="Class for handling parameters for ContinuousMissionOrchestrator.">
<polygon fill="#999999" stroke="transparent" points="275,-339 92,-339 92,0 275,0 275,-339"/>
<text text-anchor="start" x="104.5" y="-326.5" font-family="Helvetica,sans-Serif" font-size="10.00">iii_drone::mission</text>
<text text-anchor="start" x="104.5" y="-315.5" font-family="Helvetica,sans-Serif" font-size="10.00">::continuous_mission</text>
<text text-anchor="start" x="104.5" y="-304.5" font-family="Helvetica,sans-Serif" font-size="10.00">_orchestrator_node::Continuous</text>
<text text-anchor="start" x="104.5" y="-293.5" font-family="Helvetica,sans-Serif" font-size="10.00">MissionOrchestratorConfigurator</text>
<text text-anchor="start" x="182" y="-278.5" font-family="Helvetica,sans-Serif" font-size="10.00"> </text>
<text text-anchor="start" x="96.5" y="-263.5" font-family="Helvetica,sans-Serif" font-size="10.00">+</text>
<text text-anchor="start" x="109.5" y="-263.5" font-family="Helvetica,sans-Serif" font-size="10.00">ContinuousMissionOrchestrator</text>
<text text-anchor="start" x="109.5" y="-252.5" font-family="Helvetica,sans-Serif" font-size="10.00">Configurator()</text>
<text text-anchor="start" x="96.5" y="-237.5" font-family="Helvetica,sans-Serif" font-size="10.00">+</text>
<text text-anchor="start" x="109.5" y="-237.5" font-family="Helvetica,sans-Serif" font-size="10.00">ContinuousMissionOrchestrator</text>
<text text-anchor="start" x="109.5" y="-226.5" font-family="Helvetica,sans-Serif" font-size="10.00">Configurator()</text>
<text text-anchor="start" x="96.5" y="-211.5" font-family="Helvetica,sans-Serif" font-size="10.00">+</text>
<text text-anchor="start" x="109.5" y="-211.5" font-family="Helvetica,sans-Serif" font-size="10.00">simulation()</text>
<text text-anchor="start" x="96.5" y="-196.5" font-family="Helvetica,sans-Serif" font-size="10.00">+</text>
<text text-anchor="start" x="109.5" y="-196.5" font-family="Helvetica,sans-Serif" font-size="10.00">under_cable_target</text>
<text text-anchor="start" x="109.5" y="-185.5" font-family="Helvetica,sans-Serif" font-size="10.00">_distance()</text>
<text text-anchor="start" x="96.5" y="-170.5" font-family="Helvetica,sans-Serif" font-size="10.00">+</text>
<text text-anchor="start" x="109.5" y="-170.5" font-family="Helvetica,sans-Serif" font-size="10.00">use_charger_gripper</text>
<text text-anchor="start" x="109.5" y="-159.5" font-family="Helvetica,sans-Serif" font-size="10.00">_info()</text>
<text text-anchor="start" x="96.5" y="-144.5" font-family="Helvetica,sans-Serif" font-size="10.00">+</text>
<text text-anchor="start" x="109.5" y="-144.5" font-family="Helvetica,sans-Serif" font-size="10.00">cable_landing_max_retries()</text>
<text text-anchor="start" x="96.5" y="-129.5" font-family="Helvetica,sans-Serif" font-size="10.00">+</text>
<text text-anchor="start" x="109.5" y="-129.5" font-family="Helvetica,sans-Serif" font-size="10.00">battery_voltage_low</text>
<text text-anchor="start" x="109.5" y="-118.5" font-family="Helvetica,sans-Serif" font-size="10.00">_threshold()</text>
<text text-anchor="start" x="96.5" y="-103.5" font-family="Helvetica,sans-Serif" font-size="10.00">+</text>
<text text-anchor="start" x="109.5" y="-103.5" font-family="Helvetica,sans-Serif" font-size="10.00">battery_voltage_high</text>
<text text-anchor="start" x="109.5" y="-92.5" font-family="Helvetica,sans-Serif" font-size="10.00">_threshold()</text>
<text text-anchor="start" x="96.5" y="-77.5" font-family="Helvetica,sans-Serif" font-size="10.00">+</text>
<text text-anchor="start" x="109.5" y="-77.5" font-family="Helvetica,sans-Serif" font-size="10.00">charging_power_low</text>
<text text-anchor="start" x="109.5" y="-66.5" font-family="Helvetica,sans-Serif" font-size="10.00">_threshold()</text>
<text text-anchor="start" x="96.5" y="-51.5" font-family="Helvetica,sans-Serif" font-size="10.00">+</text>
<text text-anchor="start" x="109.5" y="-51.5" font-family="Helvetica,sans-Serif" font-size="10.00">action_timeout_ms()</text>
<text text-anchor="start" x="96.5" y="-36.5" font-family="Helvetica,sans-Serif" font-size="10.00">+</text>
<text text-anchor="start" x="109.5" y="-36.5" font-family="Helvetica,sans-Serif" font-size="10.00">charging_minimum_duration_s()</text>
<text text-anchor="start" x="96.5" y="-21.5" font-family="Helvetica,sans-Serif" font-size="10.00">+</text>
<text text-anchor="start" x="109.5" y="-21.5" font-family="Helvetica,sans-Serif" font-size="10.00">charging_maximum_duration_s()</text>
<text text-anchor="start" x="99" y="-6.5" font-family="Helvetica,sans-Serif" font-size="10.00">&#45;</text>
<text text-anchor="start" x="109.5" y="-6.5" font-family="Helvetica,sans-Serif" font-size="10.00">declareNodeParameters()</text>
<polygon fill="#666666" stroke="#666666" points="92.5,-288.5 92.5,-288.5 275.5,-288.5 275.5,-288.5 92.5,-288.5"/>
<polygon fill="#666666" stroke="#666666" points="92.5,-273.5 92.5,-273.5 275.5,-273.5 275.5,-273.5 92.5,-273.5"/>
<polygon fill="none" stroke="#666666" points="92,0 92,-339 275,-339 275,0 92,0"/>
</a>
</g>
</g>
<!-- Node2 -->
<g id="Node000002" class="node">
<title>Node2</title>
<g id="a_Node000002"><a xlink:href="classiii__drone_1_1configuration_1_1Configurator.html" target="_top" xlink:title="Class for handling parameters of a node. The class works in conjunction with the ConfigurationServer ...">
<polygon fill="white" stroke="transparent" points="273.5,-687 93.5,-687 93.5,-376 273.5,-376 273.5,-687"/>
<text text-anchor="start" x="127.5" y="-674.5" font-family="Helvetica,sans-Serif" font-size="10.00">iii_drone::configuration</text>
<text text-anchor="start" x="150" y="-663.5" font-family="Helvetica,sans-Serif" font-size="10.00">::Configurator</text>
<text text-anchor="start" x="97.5" y="-648.5" font-family="Helvetica,sans-Serif" font-size="10.00">#</text>
<text text-anchor="start" x="110.5" y="-648.5" font-family="Helvetica,sans-Serif" font-size="10.00">node_</text>
<text text-anchor="start" x="100" y="-633.5" font-family="Helvetica,sans-Serif" font-size="10.00">&#45;</text>
<text text-anchor="start" x="110.5" y="-633.5" font-family="Helvetica,sans-Serif" font-size="10.00">declare_parameter_client_</text>
<text text-anchor="start" x="100" y="-618.5" font-family="Helvetica,sans-Serif" font-size="10.00">&#45;</text>
<text text-anchor="start" x="110.5" y="-618.5" font-family="Helvetica,sans-Serif" font-size="10.00">get_parameters_client_</text>
<text text-anchor="start" x="100" y="-603.5" font-family="Helvetica,sans-Serif" font-size="10.00">&#45;</text>
<text text-anchor="start" x="110.5" y="-603.5" font-family="Helvetica,sans-Serif" font-size="10.00">parameter_events_subscriber_</text>
<text text-anchor="start" x="100" y="-588.5" font-family="Helvetica,sans-Serif" font-size="10.00">&#45;</text>
<text text-anchor="start" x="110.5" y="-588.5" font-family="Helvetica,sans-Serif" font-size="10.00">after_parameter_change</text>
<text text-anchor="start" x="110.5" y="-577.5" font-family="Helvetica,sans-Serif" font-size="10.00">_callback_</text>
<text text-anchor="start" x="97.5" y="-562.5" font-family="Helvetica,sans-Serif" font-size="10.00">+</text>
<text text-anchor="start" x="110.5" y="-562.5" font-family="Helvetica,sans-Serif" font-size="10.00">Configurator()</text>
<text text-anchor="start" x="97.5" y="-547.5" font-family="Helvetica,sans-Serif" font-size="10.00">+</text>
<text text-anchor="start" x="110.5" y="-547.5" font-family="Helvetica,sans-Serif" font-size="10.00">Configurator()</text>
<text text-anchor="start" x="97.5" y="-532.5" font-family="Helvetica,sans-Serif" font-size="10.00">+</text>
<text text-anchor="start" x="110.5" y="-532.5" font-family="Helvetica,sans-Serif" font-size="10.00">~Configurator()</text>
<text text-anchor="start" x="97.5" y="-517.5" font-family="Helvetica,sans-Serif" font-size="10.00">+</text>
<text text-anchor="start" x="110.5" y="-517.5" font-family="Helvetica,sans-Serif" font-size="10.00">DeclareParameter()</text>
<text text-anchor="start" x="97.5" y="-502.5" font-family="Helvetica,sans-Serif" font-size="10.00">+</text>
<text text-anchor="start" x="110.5" y="-502.5" font-family="Helvetica,sans-Serif" font-size="10.00">GetParameter()</text>
<text text-anchor="start" x="97.5" y="-487.5" font-family="Helvetica,sans-Serif" font-size="10.00">+</text>
<text text-anchor="start" x="110.5" y="-487.5" font-family="Helvetica,sans-Serif" font-size="10.00">GetParameters()</text>
<text text-anchor="start" x="97.5" y="-472.5" font-family="Helvetica,sans-Serif" font-size="10.00">+</text>
<text text-anchor="start" x="110.5" y="-472.5" font-family="Helvetica,sans-Serif" font-size="10.00">SyncParameters()</text>
<text text-anchor="start" x="97.5" y="-457.5" font-family="Helvetica,sans-Serif" font-size="10.00">+</text>
<text text-anchor="start" x="110.5" y="-457.5" font-family="Helvetica,sans-Serif" font-size="10.00">PrintParameters()</text>
<text text-anchor="start" x="97.5" y="-442.5" font-family="Helvetica,sans-Serif" font-size="10.00">+</text>
<text text-anchor="start" x="110.5" y="-442.5" font-family="Helvetica,sans-Serif" font-size="10.00">GetParameterTypeString()</text>
<text text-anchor="start" x="100" y="-427.5" font-family="Helvetica,sans-Serif" font-size="10.00">&#45;</text>
<text text-anchor="start" x="110.5" y="-427.5" font-family="Helvetica,sans-Serif" font-size="10.00">parameterEventCallback()</text>
<text text-anchor="start" x="100" y="-412.5" font-family="Helvetica,sans-Serif" font-size="10.00">&#45;</text>
<text text-anchor="start" x="110.5" y="-412.5" font-family="Helvetica,sans-Serif" font-size="10.00">sendDeclareParameterRequest()</text>
<text text-anchor="start" x="100" y="-397.5" font-family="Helvetica,sans-Serif" font-size="10.00">&#45;</text>
<text text-anchor="start" x="110.5" y="-397.5" font-family="Helvetica,sans-Serif" font-size="10.00">sendGetParameterRequest()</text>
<text text-anchor="start" x="100" y="-382.5" font-family="Helvetica,sans-Serif" font-size="10.00">&#45;</text>
<text text-anchor="start" x="110.5" y="-382.5" font-family="Helvetica,sans-Serif" font-size="10.00">sendGetParametersRequest()</text>
<polygon fill="#666666" stroke="#666666" points="93.5,-658.5 93.5,-658.5 273.5,-658.5 273.5,-658.5 93.5,-658.5"/>
<polygon fill="#666666" stroke="#666666" points="93.5,-572.5 93.5,-572.5 108.5,-572.5 108.5,-572.5 93.5,-572.5"/>
<polygon fill="#666666" stroke="#666666" points="108.5,-572.5 108.5,-572.5 273.5,-572.5 273.5,-572.5 108.5,-572.5"/>
<polygon fill="none" stroke="#666666" points="93.5,-376 93.5,-687 273.5,-687 273.5,-376 93.5,-376"/>
</a>
</g>
</g>
<!-- Node2&#45;&gt;Node1 -->
<g id="edge1_Node000001_Node000002" class="edge">
<title>Node2&#45;&gt;Node1</title>
<g id="a_edge1_Node000001_Node000002"><a xlink:title=" ">
<path fill="none" stroke="#63b8ff" d="M183.5,-365.96C183.5,-357.04 183.5,-348.07 183.5,-339.14"/>
<polygon fill="none" stroke="#63b8ff" points="180,-366 183.5,-376 187,-366 180,-366"/>
</a>
</g>
</g>
<!-- Node3 -->
<g id="Node000003" class="node">
<title>Node3</title>
<g id="a_Node000003"><a xlink:title=" ">
<polygon fill="white" stroke="transparent" points="103,-794 0,-794 0,-734 103,-734 103,-794"/>
<text text-anchor="start" x="5.5" y="-782" font-family="Helvetica,sans-Serif" font-size="10.00">std::vector&lt; rclcpp</text>
<text text-anchor="start" x="18" y="-771" font-family="Helvetica,sans-Serif" font-size="10.00">::Parameter &gt;</text>
<text text-anchor="start" x="13.5" y="-756" font-family="Helvetica,sans-Serif" font-size="10.00">+</text>
<text text-anchor="start" x="35.5" y="-756" font-family="Helvetica,sans-Serif" font-size="10.00">elements</text>
<text text-anchor="start" x="50" y="-741" font-family="Helvetica,sans-Serif" font-size="10.00"> </text>
<polygon fill="#666666" stroke="#666666" points="0.5,-766 0.5,-766 103.5,-766 103.5,-766 0.5,-766"/>
<polygon fill="#666666" stroke="#666666" points="0.5,-751 0.5,-751 33.5,-751 33.5,-751 0.5,-751"/>
<polygon fill="#666666" stroke="#666666" points="33.5,-751 33.5,-751 103.5,-751 103.5,-751 33.5,-751"/>
<polygon fill="none" stroke="#666666" points="0,-734 0,-794 103,-794 103,-734 0,-734"/>
</a>
</g>
</g>
<!-- Node3&#45;&gt;Node2 -->
<g id="edge2_Node000002_Node000003" class="edge">
<title>Node3&#45;&gt;Node2</title>
<g id="a_edge2_Node000002_Node000003"><a xlink:title=" ">
<path fill="none" stroke="#63b8ff" d="M68.22,-733.81C74.08,-723.57 81.14,-711.24 88.85,-697.77"/>
<polygon fill="none" stroke="#63b8ff" points="88.9,-697.68 88.41,-690.49 94.87,-687.27 95.36,-694.47 88.9,-697.68"/>
</a>
</g>
<text text-anchor="middle" x="118" y="-708" font-family="Helvetica,sans-Serif" font-size="10.00" fill="grey"> &#45;parameters_</text>
</g>
<!-- Node4 -->
<g id="Node000004" class="node">
<title>Node4</title>
<g id="a_Node000004"><a xlink:title=" ">
<polygon fill="white" stroke="transparent" points="245.5,-794 121.5,-794 121.5,-734 245.5,-734 245.5,-794"/>
<text text-anchor="start" x="126.5" y="-782" font-family="Helvetica,sans-Serif" font-size="10.00">std::unique_ptr&lt; rclcpp</text>
<text text-anchor="start" x="165" y="-771" font-family="Helvetica,sans-Serif" font-size="10.00">::QoS &gt;</text>
<text text-anchor="start" x="136" y="-756" font-family="Helvetica,sans-Serif" font-size="10.00">+</text>
<text text-anchor="start" x="159.5" y="-756" font-family="Helvetica,sans-Serif" font-size="10.00">ptr</text>
<text text-anchor="start" x="136" y="-741" font-family="Helvetica,sans-Serif" font-size="10.00">+</text>
<text text-anchor="start" x="159.5" y="-741" font-family="Helvetica,sans-Serif" font-size="10.00">operator&#45;&gt;()</text>
<polygon fill="#666666" stroke="#666666" points="121.5,-766 121.5,-766 245.5,-766 245.5,-766 121.5,-766"/>
<polygon fill="#666666" stroke="#666666" points="121.5,-751 121.5,-751 157.5,-751 157.5,-751 121.5,-751"/>
<polygon fill="#666666" stroke="#666666" points="157.5,-751 157.5,-751 245.5,-751 245.5,-751 157.5,-751"/>
<polygon fill="none" stroke="#666666" points="121.5,-734 121.5,-794 245.5,-794 245.5,-734 121.5,-734"/>
</a>
</g>
</g>
<!-- Node4&#45;&gt;Node2 -->
<g id="edge3_Node000002_Node000004" class="edge">
<title>Node4&#45;&gt;Node2</title>
<g id="a_edge3_Node000002_Node000004"><a xlink:title=" ">
<path fill="none" stroke="#63b8ff" d="M183.5,-733.81C183.5,-723.98 183.5,-712.2 183.5,-699.35"/>
<polygon fill="none" stroke="#63b8ff" points="183.5,-699.27 179.5,-693.27 183.5,-687.27 187.5,-693.27 183.5,-699.27"/>
</a>
</g>
<text text-anchor="middle" x="198.5" y="-708" font-family="Helvetica,sans-Serif" font-size="10.00" fill="grey"> &#45;qos_</text>
</g>
<!-- Node5 -->
<g id="Node000005" class="node">
<title>Node5</title>
<g id="a_Node000005"><a xlink:title=" ">
<polygon fill="white" stroke="transparent" points="365,-788.5 264,-788.5 264,-739.5 365,-739.5 365,-788.5"/>
<text text-anchor="start" x="269.5" y="-776" font-family="Helvetica,sans-Serif" font-size="10.00">std::shared_mutex</text>
<text text-anchor="start" x="313" y="-761" font-family="Helvetica,sans-Serif" font-size="10.00"> </text>
<text text-anchor="start" x="313" y="-746" font-family="Helvetica,sans-Serif" font-size="10.00"> </text>
<polygon fill="#666666" stroke="#666666" points="264.5,-771 264.5,-771 365.5,-771 365.5,-771 264.5,-771"/>
<polygon fill="#666666" stroke="#666666" points="264.5,-756 264.5,-756 365.5,-756 365.5,-756 264.5,-756"/>
<polygon fill="none" stroke="#666666" points="264,-739.5 264,-788.5 365,-788.5 365,-739.5 264,-739.5"/>
</a>
</g>
</g>
<!-- Node5&#45;&gt;Node2 -->
<g id="edge4_Node000002_Node000005" class="edge">
<title>Node5&#45;&gt;Node2</title>
<g id="a_edge4_Node000002_Node000005"><a xlink:title=" ">
<path fill="none" stroke="#63b8ff" d="M300.97,-739.2C294.65,-728.07 286.51,-713.75 277.48,-697.86"/>
<polygon fill="none" stroke="#63b8ff" points="277.36,-697.64 270.91,-694.4 271.43,-687.21 277.87,-690.45 277.36,-697.64"/>
</a>
</g>
<text text-anchor="middle" x="338.5" y="-708" font-family="Helvetica,sans-Serif" font-size="10.00" fill="grey"> &#45;parameters_mutex_</text>
</g>
</g>
</svg>
