<?xml version="1.0" encoding="UTF-8" standalone="no"?>
<!DOCTYPE svg PUBLIC "-//W3C//DTD SVG 1.1//EN"
 "http://www.w3.org/Graphics/SVG/1.1/DTD/svg11.dtd">
<!-- Generated by graphviz version 2.43.0 (0)
 -->
<!-- Title: iii_drone::control::BehaviorState::behavior_state Pages: 1 -->
<svg width="691pt" height="370pt"
 viewBox="0.00 0.00 691.00 370.00" xmlns="http://www.w3.org/2000/svg" xmlns:xlink="http://www.w3.org/1999/xlink">
<g id="graph0" class="graph" transform="scale(1 1) rotate(0) translate(4 366)">
<title>iii_drone::control::BehaviorState::behavior_state</title>
<!-- Node1 -->
<g id="Node000001" class="node">
<title>Node1</title>
<g id="a_Node000001"><a xlink:title="Get the behavior state of the drone.">
<polygon fill="#999999" stroke="#666666" points="170,-176.5 0,-176.5 0,-146.5 170,-146.5 170,-176.5"/>
<text text-anchor="start" x="8" y="-164.5" font-family="Helvetica,sans-Serif" font-size="10.00">iii_drone::control</text>
<text text-anchor="middle" x="85" y="-153.5" font-family="Helvetica,sans-Serif" font-size="10.00">::BehaviorState::behavior_state</text>
</a>
</g>
</g>
<!-- Node1&#45;&gt;Node1 -->
<g id="edge3_Node000001_Node000001" class="edge">
<title>Node1&#45;&gt;Node1</title>
<g id="a_edge3_Node000001_Node000001"><a xlink:title=" ">
<path fill="none" stroke="#63b8ff" d="M50.9,-176.78C43.32,-185.91 54.69,-194.5 85,-194.5 103,-194.5 114.32,-191.47 118.96,-187.1"/>
<polygon fill="#63b8ff" stroke="#63b8ff" points="122.46,-186.82 119.1,-176.78 115.46,-186.73 122.46,-186.82"/>
</a>
</g>
</g>
<!-- Node2 -->
<g id="Node000002" class="node">
<title>Node2</title>
<g id="a_Node000002"><a xlink:href="classiii__drone_1_1control_1_1BehaviorState.html#a5b7ccc5e1cca00e37141b2656ba181af" target="_top" xlink:title="Whether the drone is armed.">
<polygon fill="white" stroke="#666666" points="344,-302.5 215,-302.5 215,-272.5 344,-272.5 344,-302.5"/>
<text text-anchor="start" x="223" y="-290.5" font-family="Helvetica,sans-Serif" font-size="10.00">iii_drone::control</text>
<text text-anchor="middle" x="279.5" y="-279.5" font-family="Helvetica,sans-Serif" font-size="10.00">::BehaviorState::armed</text>
</a>
</g>
</g>
<!-- Node1&#45;&gt;Node2 -->
<g id="edge1_Node000001_Node000002" class="edge">
<title>Node1&#45;&gt;Node2</title>
<g id="a_edge1_Node000001_Node000002"><a xlink:title=" ">
<path fill="none" stroke="#63b8ff" d="M100.11,-176.76C121.2,-198.75 163.1,-239.38 206,-263.5 209.04,-265.21 212.22,-266.82 215.48,-268.33"/>
<polygon fill="#63b8ff" stroke="#63b8ff" points="214.26,-271.62 224.83,-272.35 217.02,-265.19 214.26,-271.62"/>
</a>
</g>
</g>
<!-- Node4 -->
<g id="Node000004" class="node">
<title>Node4</title>
<g id="a_Node000004"><a xlink:href="classiii__drone_1_1control_1_1BehaviorState.html#a74a7c96bc968843d24044aa448d57055" target="_top" xlink:title="Get the current maneuver.">
<polygon fill="white" stroke="#666666" points="521,-139 389,-139 389,-98 521,-98 521,-139"/>
<text text-anchor="start" x="397" y="-127" font-family="Helvetica,sans-Serif" font-size="10.00">iii_drone::control</text>
<text text-anchor="start" x="397" y="-116" font-family="Helvetica,sans-Serif" font-size="10.00">::BehaviorState::current</text>
<text text-anchor="middle" x="455" y="-105" font-family="Helvetica,sans-Serif" font-size="10.00">_maneuver</text>
</a>
</g>
</g>
<!-- Node1&#45;&gt;Node4 -->
<g id="edge4_Node000001_Node000004" class="edge">
<title>Node1&#45;&gt;Node4</title>
<g id="a_edge4_Node000001_Node000004"><a xlink:title=" ">
<path fill="none" stroke="#63b8ff" d="M153.66,-146.48C170.68,-143.11 188.95,-139.85 206,-137.5 263.61,-129.56 329.24,-124.72 378.51,-121.91"/>
<polygon fill="#63b8ff" stroke="#63b8ff" points="378.97,-125.39 388.76,-121.34 378.58,-118.4 378.97,-125.39"/>
</a>
</g>
</g>
<!-- Node6 -->
<g id="Node000006" class="node">
<title>Node6</title>
<g id="a_Node000006"><a xlink:href="classiii__drone_1_1control_1_1BehaviorState.html#a931d080bb6475138d2ae74a1aa92fc08" target="_top" xlink:title="Returns the drone location.">
<polygon fill="white" stroke="#666666" points="342,-236 217,-236 217,-195 342,-195 342,-236"/>
<text text-anchor="start" x="225" y="-224" font-family="Helvetica,sans-Serif" font-size="10.00">iii_drone::control</text>
<text text-anchor="start" x="225" y="-213" font-family="Helvetica,sans-Serif" font-size="10.00">::BehaviorState::drone</text>
<text text-anchor="middle" x="279.5" y="-202" font-family="Helvetica,sans-Serif" font-size="10.00">_location</text>
</a>
</g>
</g>
<!-- Node1&#45;&gt;Node6 -->
<g id="edge6_Node000001_Node000006" class="edge">
<title>Node1&#45;&gt;Node6</title>
<g id="a_edge6_Node000001_Node000006"><a xlink:title=" ">
<path fill="none" stroke="#63b8ff" d="M139.62,-176.54C160.46,-182.39 184.63,-189.17 206.92,-195.42"/>
<polygon fill="#63b8ff" stroke="#63b8ff" points="206.09,-198.82 216.67,-198.15 207.98,-192.08 206.09,-198.82"/>
</a>
</g>
</g>
<!-- Node7 -->
<g id="Node000007" class="node">
<title>Node7</title>
<g id="a_Node000007"><a xlink:href="classiii__drone_1_1control_1_1BehaviorState.html#af9764ecd11994dfb3b36480689b2c7e3" target="_top" xlink:title="Whether the drone has a target cable.">
<polygon fill="white" stroke="#666666" points="512.5,-41 397.5,-41 397.5,0 512.5,0 512.5,-41"/>
<text text-anchor="start" x="405.5" y="-29" font-family="Helvetica,sans-Serif" font-size="10.00">iii_drone::control</text>
<text text-anchor="start" x="405.5" y="-18" font-family="Helvetica,sans-Serif" font-size="10.00">::BehaviorState::has</text>
<text text-anchor="middle" x="455" y="-7" font-family="Helvetica,sans-Serif" font-size="10.00">_target_cable</text>
</a>
</g>
</g>
<!-- Node1&#45;&gt;Node7 -->
<g id="edge8_Node000001_Node000007" class="edge">
<title>Node1&#45;&gt;Node7</title>
<g id="a_edge8_Node000001_Node000007"><a xlink:title=" ">
<path fill="none" stroke="#63b8ff" d="M95.61,-146.1C113.5,-118.97 154.81,-63.29 206,-39.5 263.09,-12.97 335.58,-10.49 387.42,-13.28"/>
<polygon fill="#63b8ff" stroke="#63b8ff" points="387.3,-16.78 397.5,-13.9 387.73,-9.79 387.3,-16.78"/>
</a>
</g>
</g>
<!-- Node8 -->
<g id="Node000008" class="node">
<title>Node8</title>
<g id="a_Node000008"><a xlink:href="classiii__drone_1_1control_1_1BehaviorState.html#a631f3ff6ee982738366e0e730485a0c4" target="_top" xlink:title="Get whether a maneuver is being executed.">
<polygon fill="white" stroke="#666666" points="353,-90 206,-90 206,-49 353,-49 353,-90"/>
<text text-anchor="start" x="214" y="-78" font-family="Helvetica,sans-Serif" font-size="10.00">iii_drone::control</text>
<text text-anchor="start" x="214" y="-67" font-family="Helvetica,sans-Serif" font-size="10.00">::BehaviorState::maneuver</text>
<text text-anchor="middle" x="279.5" y="-56" font-family="Helvetica,sans-Serif" font-size="10.00">_executing</text>
</a>
</g>
</g>
<!-- Node1&#45;&gt;Node8 -->
<g id="edge10_Node000001_Node000008" class="edge">
<title>Node1&#45;&gt;Node8</title>
<g id="a_edge10_Node000001_Node000008"><a xlink:title=" ">
<path fill="none" stroke="#63b8ff" d="M117.79,-146.31C147.29,-132.21 191.76,-110.96 226.44,-94.38"/>
<polygon fill="#63b8ff" stroke="#63b8ff" points="227.98,-97.53 235.49,-90.06 224.96,-91.21 227.98,-97.53"/>
</a>
</g>
</g>
<!-- Node9 -->
<g id="Node000009" class="node">
<title>Node9</title>
<g id="a_Node000009"><a xlink:href="classiii__drone_1_1control_1_1BehaviorState.html#a05d3680d45d50cf295663ed8de768b8c" target="_top" xlink:title="Whether the drone is in offboard mode.">
<polygon fill="white" stroke="#666666" points="348.5,-176.5 210.5,-176.5 210.5,-146.5 348.5,-146.5 348.5,-176.5"/>
<text text-anchor="start" x="218.5" y="-164.5" font-family="Helvetica,sans-Serif" font-size="10.00">iii_drone::control</text>
<text text-anchor="middle" x="279.5" y="-153.5" font-family="Helvetica,sans-Serif" font-size="10.00">::BehaviorState::offboard</text>
</a>
</g>
</g>
<!-- Node1&#45;&gt;Node9 -->
<g id="edge13_Node000001_Node000009" class="edge">
<title>Node1&#45;&gt;Node9</title>
<g id="a_edge13_Node000001_Node000009"><a xlink:title=" ">
<path fill="none" stroke="#63b8ff" d="M170.15,-161.5C180.14,-161.5 190.3,-161.5 200.2,-161.5"/>
<polygon fill="#63b8ff" stroke="#63b8ff" points="200.41,-165 210.41,-161.5 200.41,-158 200.41,-165"/>
</a>
</g>
</g>
<!-- Node10 -->
<g id="Node000010" class="node">
<title>Node10</title>
<g id="a_Node000010"><a xlink:href="classiii__drone_1_1control_1_1BehaviorState.html#a2c4d98de7af0a2a0a461d90fa2f794af" target="_top" xlink:title="Whether the position of the target cable is known.">
<polygon fill="white" stroke="#666666" points="344.5,-362 214.5,-362 214.5,-321 344.5,-321 344.5,-362"/>
<text text-anchor="start" x="222.5" y="-350" font-family="Helvetica,sans-Serif" font-size="10.00">iii_drone::control</text>
<text text-anchor="start" x="222.5" y="-339" font-family="Helvetica,sans-Serif" font-size="10.00">::BehaviorState::target</text>
<text text-anchor="middle" x="279.5" y="-328" font-family="Helvetica,sans-Serif" font-size="10.00">_cable_position_known</text>
</a>
</g>
</g>
<!-- Node1&#45;&gt;Node10 -->
<g id="edge15_Node000001_Node000010" class="edge">
<title>Node1&#45;&gt;Node10</title>
<g id="a_edge15_Node000001_Node000010"><a xlink:title=" ">
<path fill="none" stroke="#63b8ff" d="M94.6,-176.8C112.03,-206.54 154.27,-272.65 206,-311.5 207.86,-312.9 209.79,-314.24 211.78,-315.53"/>
<polygon fill="#63b8ff" stroke="#63b8ff" points="210.41,-318.79 220.8,-320.86 213.97,-312.76 210.41,-318.79"/>
</a>
</g>
</g>
<!-- Node3 -->
<g id="Node000003" class="node">
<title>Node3</title>
<g id="a_Node000003"><a xlink:href="classiii__drone_1_1utils_1_1History.html#a4b015ee2da0e8a06ec7ac24e9fff5da3" target="_top" xlink:title="Returns true if the history is empty.">
<polygon fill="white" stroke="#666666" points="518.5,-302.5 391.5,-302.5 391.5,-272.5 518.5,-272.5 518.5,-302.5"/>
<text text-anchor="start" x="399.5" y="-290.5" font-family="Helvetica,sans-Serif" font-size="10.00">iii_drone::utils::History</text>
<text text-anchor="middle" x="455" y="-279.5" font-family="Helvetica,sans-Serif" font-size="10.00">::empty</text>
</a>
</g>
</g>
<!-- Node2&#45;&gt;Node3 -->
<g id="edge2_Node000002_Node000003" class="edge">
<title>Node2&#45;&gt;Node3</title>
<g id="a_edge2_Node000002_Node000003"><a xlink:title=" ">
<path fill="none" stroke="#63b8ff" d="M344.12,-287.5C356.13,-287.5 368.79,-287.5 381.06,-287.5"/>
<polygon fill="#63b8ff" stroke="#63b8ff" points="381.26,-291 391.26,-287.5 381.26,-284 381.26,-291"/>
</a>
</g>
</g>
<!-- Node5 -->
<g id="Node000005" class="node">
<title>Node5</title>
<g id="a_Node000005"><a xlink:href="classiii__drone_1_1utils_1_1Atomic.html#a9f8422d86cdbb429f29c6e16c61631ee" target="_top" xlink:title="Get the value.">
<polygon fill="white" stroke="#666666" points="683,-108.5 557,-108.5 557,-78.5 683,-78.5 683,-108.5"/>
<text text-anchor="start" x="565" y="-96.5" font-family="Helvetica,sans-Serif" font-size="10.00">iii_drone::utils::Atomic</text>
<text text-anchor="middle" x="620" y="-85.5" font-family="Helvetica,sans-Serif" font-size="10.00">::Load</text>
</a>
</g>
</g>
<!-- Node4&#45;&gt;Node5 -->
<g id="edge5_Node000004_Node000005" class="edge">
<title>Node4&#45;&gt;Node5</title>
<g id="a_edge5_Node000004_Node000005"><a xlink:title=" ">
<path fill="none" stroke="#63b8ff" d="M521.36,-108.48C529.76,-107.19 538.4,-105.86 546.91,-104.56"/>
<polygon fill="#63b8ff" stroke="#63b8ff" points="547.45,-108.02 556.8,-103.04 546.39,-101.1 547.45,-108.02"/>
</a>
</g>
</g>
<!-- Node6&#45;&gt;Node6 -->
<g id="edge7_Node000006_Node000006" class="edge">
<title>Node6&#45;&gt;Node6</title>
<g id="a_edge7_Node000006_Node000006"><a xlink:title=" ">
<path fill="none" stroke="#63b8ff" d="M247.52,-236.1C244.03,-245.65 254.69,-254 279.5,-254 295.01,-254 304.98,-250.74 309.44,-245.96"/>
<polygon fill="#63b8ff" stroke="#63b8ff" points="312.88,-246.6 311.48,-236.1 306.02,-245.18 312.88,-246.6"/>
</a>
</g>
</g>
<!-- Node7&#45;&gt;Node5 -->
<g id="edge9_Node000007_Node000005" class="edge">
<title>Node7&#45;&gt;Node5</title>
<g id="a_edge9_Node000007_Node000005"><a xlink:title=" ">
<path fill="none" stroke="#63b8ff" d="M501.84,-41.03C525.18,-51.48 553.38,-64.11 576.26,-74.36"/>
<polygon fill="#63b8ff" stroke="#63b8ff" points="574.83,-77.55 585.39,-78.45 577.69,-71.17 574.83,-77.55"/>
</a>
</g>
</g>
<!-- Node8&#45;&gt;Node4 -->
<g id="edge11_Node000008_Node000004" class="edge">
<title>Node8&#45;&gt;Node4</title>
<g id="a_edge11_Node000008_Node000004"><a xlink:title=" ">
<path fill="none" stroke="#63b8ff" d="M353.07,-90C361.71,-92.44 370.54,-94.93 379.2,-97.38"/>
<polygon fill="#63b8ff" stroke="#63b8ff" points="378.33,-100.77 388.9,-100.11 380.23,-94.03 378.33,-100.77"/>
</a>
</g>
</g>
<!-- Node8&#45;&gt;Node5 -->
<g id="edge12_Node000008_Node000005" class="edge">
<title>Node8&#45;&gt;Node5</title>
<g id="a_edge12_Node000008_Node000005"><a xlink:title=" ">
<path fill="none" stroke="#63b8ff" d="M353.12,-74.65C410.29,-78.7 489.6,-84.33 546.69,-88.37"/>
<polygon fill="#63b8ff" stroke="#63b8ff" points="546.51,-91.87 556.73,-89.08 547,-84.89 546.51,-91.87"/>
</a>
</g>
</g>
<!-- Node9&#45;&gt;Node3 -->
<g id="edge14_Node000009_Node000003" class="edge">
<title>Node9&#45;&gt;Node3</title>
<g id="a_edge14_Node000009_Node000003"><a xlink:title=" ">
<path fill="none" stroke="#63b8ff" d="M333.3,-176.51C340.15,-179.37 346.9,-182.69 353,-186.5 386.56,-207.48 417.53,-241.56 436.1,-264.25"/>
<polygon fill="#63b8ff" stroke="#63b8ff" points="433.6,-266.73 442.59,-272.34 439.06,-262.35 433.6,-266.73"/>
</a>
</g>
</g>
<!-- Node10&#45;&gt;Node3 -->
<g id="edge16_Node000010_Node000003" class="edge">
<title>Node10&#45;&gt;Node3</title>
<g id="a_edge16_Node000010_Node000003"><a xlink:title=" ">
<path fill="none" stroke="#63b8ff" d="M344.61,-321.55C361.32,-316.35 379.23,-310.77 395.62,-305.67"/>
<polygon fill="#63b8ff" stroke="#63b8ff" points="397.1,-308.87 405.61,-302.56 395.02,-302.19 397.1,-308.87"/>
</a>
</g>
</g>
<!-- Node10&#45;&gt;Node5 -->
<g id="edge17_Node000010_Node000005" class="edge">
<title>Node10&#45;&gt;Node5</title>
<g id="a_edge17_Node000010_Node000005"><a xlink:title=" ">
<path fill="none" stroke="#63b8ff" d="M344.73,-349.67C397.13,-352.82 470.49,-348.81 521,-311.5 585.12,-264.14 608.19,-165.1 615.71,-118.61"/>
<polygon fill="#63b8ff" stroke="#63b8ff" points="619.21,-118.91 617.24,-108.5 612.29,-117.87 619.21,-118.91"/>
</a>
</g>
</g>
</g>
</svg>
