<?xml version="1.0" encoding="UTF-8" standalone="no"?>
<!DOCTYPE svg PUBLIC "-//W3C//DTD SVG 1.1//EN"
 "http://www.w3.org/Graphics/SVG/1.1/DTD/svg11.dtd">
<!-- Generated by graphviz version 2.43.0 (0)
 -->
<!-- Title: iii_drone::control::flight_controller_node::FlightControllerConfigurator::MPC_N Pages: 1 -->
<svg width="800pt" height="73pt"
 viewBox="0.00 0.00 800.00 72.50" xmlns="http://www.w3.org/2000/svg" xmlns:xlink="http://www.w3.org/1999/xlink">
<g id="graph0" class="graph" transform="scale(1 1) rotate(0) translate(4 68.5)">
<title>iii_drone::control::flight_controller_node::FlightControllerConfigurator::MPC_N</title>
<!-- Node1 -->
<g id="Node000001" class="node">
<title>Node1</title>
<g id="a_Node000001"><a xlink:title="The number of points used in the MPC trajectory.">
<polygon fill="#999999" stroke="#666666" points="188,-52 0,-52 0,0 188,0 188,-52"/>
<text text-anchor="start" x="8" y="-40" font-family="Helvetica,sans-Serif" font-size="10.00">iii_drone::control</text>
<text text-anchor="start" x="8" y="-29" font-family="Helvetica,sans-Serif" font-size="10.00">::flight_controller</text>
<text text-anchor="start" x="8" y="-18" font-family="Helvetica,sans-Serif" font-size="10.00">_node::FlightControllerConfigurator</text>
<text text-anchor="middle" x="94" y="-7" font-family="Helvetica,sans-Serif" font-size="10.00">::MPC_N</text>
</a>
</g>
</g>
<!-- Node2 -->
<g id="Node000002" class="node">
<title>Node2</title>
<g id="a_Node000002"><a xlink:href="classiii__drone_1_1configuration_1_1Configurator.html#a896be5ed2c6890f9f5ecaa89cb0eee7d" target="_top" xlink:title="Get a parameter.">
<polygon fill="white" stroke="#666666" points="380,-41 224,-41 224,-11 380,-11 380,-41"/>
<text text-anchor="start" x="232" y="-29" font-family="Helvetica,sans-Serif" font-size="10.00">iii_drone::configuration</text>
<text text-anchor="middle" x="302" y="-18" font-family="Helvetica,sans-Serif" font-size="10.00">::Configurator::GetParameter</text>
</a>
</g>
</g>
<!-- Node1&#45;&gt;Node2 -->
<g id="edge1_Node000001_Node000002" class="edge">
<title>Node1&#45;&gt;Node2</title>
<g id="a_edge1_Node000001_Node000002"><a xlink:title=" ">
<path fill="none" stroke="#63b8ff" d="M188.06,-26C196.55,-26 205.13,-26 213.56,-26"/>
<polygon fill="#63b8ff" stroke="#63b8ff" points="213.77,-29.5 223.77,-26 213.77,-22.5 213.77,-29.5"/>
</a>
</g>
</g>
<!-- Node3 -->
<g id="Node000003" class="node">
<title>Node3</title>
<g id="a_Node000003"><a xlink:href="classiii__drone_1_1configuration_1_1Configurator.html#ad6e7318a12eda7011acfbe4276e7056a" target="_top" xlink:title="Gets multiple parameters.">
<polygon fill="white" stroke="#666666" points="577,-63 416,-63 416,-33 577,-33 577,-63"/>
<text text-anchor="start" x="424" y="-51" font-family="Helvetica,sans-Serif" font-size="10.00">iii_drone::configuration</text>
<text text-anchor="middle" x="496.5" y="-40" font-family="Helvetica,sans-Serif" font-size="10.00">::Configurator::GetParameters</text>
</a>
</g>
</g>
<!-- Node2&#45;&gt;Node3 -->
<g id="edge2_Node000002_Node000003" class="edge">
<title>Node2&#45;&gt;Node3</title>
<g id="a_edge2_Node000002_Node000003"><a xlink:title=" ">
<path fill="none" stroke="#63b8ff" d="M380.19,-34.82C388.61,-35.78 397.23,-36.77 405.79,-37.75"/>
<polygon fill="#63b8ff" stroke="#63b8ff" points="405.45,-41.23 415.78,-38.89 406.24,-34.28 405.45,-41.23"/>
</a>
</g>
</g>
<!-- Node4 -->
<g id="Node000004" class="node">
<title>Node4</title>
<g id="a_Node000004"><a xlink:href="classiii__drone_1_1configuration_1_1Configurator.html#ac5360ab6b4f31277c7d73b5579815353" target="_top" xlink:title="Static function for getting string representation of a parameter type from template type.">
<polygon fill="white" stroke="#666666" points="792,-46.5 613,-46.5 613,-5.5 792,-5.5 792,-46.5"/>
<text text-anchor="start" x="621" y="-34.5" font-family="Helvetica,sans-Serif" font-size="10.00">iii_drone::configuration</text>
<text text-anchor="start" x="621" y="-23.5" font-family="Helvetica,sans-Serif" font-size="10.00">::Configurator::GetParameterType</text>
<text text-anchor="middle" x="702.5" y="-12.5" font-family="Helvetica,sans-Serif" font-size="10.00">String</text>
</a>
</g>
</g>
<!-- Node2&#45;&gt;Node4 -->
<g id="edge5_Node000002_Node000004" class="edge">
<title>Node2&#45;&gt;Node4</title>
<g id="a_edge5_Node000002_Node000004"><a xlink:title=" ">
<path fill="none" stroke="#63b8ff" d="M380.2,-24.45C392.18,-24.26 404.42,-24.1 416,-24 487.55,-23.37 505.45,-23.43 577,-24 585.31,-24.07 593.94,-24.16 602.59,-24.27"/>
<polygon fill="#63b8ff" stroke="#63b8ff" points="602.7,-27.77 612.75,-24.4 602.8,-20.77 602.7,-27.77"/>
</a>
</g>
</g>
<!-- Node3&#45;&gt;Node4 -->
<g id="edge3_Node000003_Node000004" class="edge">
<title>Node3&#45;&gt;Node4</title>
<g id="a_edge3_Node000003_Node000004"><a xlink:title=" ">
<path fill="none" stroke="#63b8ff" d="M577.25,-39.4C585.6,-38.5 594.16,-37.58 602.7,-36.66"/>
<polygon fill="#63b8ff" stroke="#63b8ff" points="603.12,-40.13 612.69,-35.58 602.37,-33.17 603.12,-40.13"/>
</a>
</g>
</g>
<!-- Node4&#45;&gt;Node4 -->
<g id="edge4_Node000004_Node000004" class="edge">
<title>Node4&#45;&gt;Node4</title>
<g id="a_edge4_Node000004_Node000004"><a xlink:title=" ">
<path fill="none" stroke="#63b8ff" d="M664.64,-46.6C660.51,-56.15 673.13,-64.5 702.5,-64.5 720.86,-64.5 732.67,-61.24 737.94,-56.46"/>
<polygon fill="#63b8ff" stroke="#63b8ff" points="741.38,-57.14 740.36,-46.6 734.58,-55.47 741.38,-57.14"/>
</a>
</g>
</g>
</g>
</svg>
