<?xml version="1.0" encoding="UTF-8" standalone="no"?>
<!DOCTYPE svg PUBLIC "-//W3C//DTD SVG 1.1//EN"
 "http://www.w3.org/Graphics/SVG/1.1/DTD/svg11.dtd">
<!-- Generated by graphviz version 2.43.0 (0)
 -->
<!-- Title: iii_drone::control::maneuver::ManeuverServer::asyncExecute Pages: 1 -->
<!--zoomable 462 -->

<svg id="main" version="1.1" xmlns="http://www.w3.org/2000/svg" xmlns:xlink="http://www.w3.org/1999/xlink" xml:space="preserve" onload="init(evt)">
<style type="text/css"><![CDATA[
.node, .edge {opacity: 0.7;}
.node.selected, .edge.selected {opacity: 1;}
.edge:hover path { stroke: red; }
.edge:hover polygon { stroke: red; fill: red; }
]]></style>

<defs>
  <circle id="rim" cx="0" cy="0" r="7"/>
  <circle id="rim2" cx="0" cy="0" r="3.5"/>
  <g id="zoomPlus">
    <use xlink:href="#rim" fill="#404040"><set attributeName="fill" to="#808080" begin="zoomplus.mouseover" end="zoomplus.mouseout"/></use>
    <path d="M-4,0h8M0,-4v8" fill="none" stroke="white" stroke-width="1.5" pointer-events="none"/>
  </g>
  <g id="zoomMin">
    <use xlink:href="#rim" fill="#404040"><set attributeName="fill" to="#808080" begin="zoomminus.mouseover" end="zoomminus.mouseout"/></use>
    <path d="M-4,0h8" fill="none" stroke="white" stroke-width="1.5" pointer-events="none"/>
  </g>
  <g id="arrowUp" transform="translate(30 24)">
    <use xlink:href="#rim"/>
    <path pointer-events="none" fill="none" stroke="white" stroke-width="1.5" d="M0,-3.0v7 M-2.5,-0.5L0,-3.0L2.5,-0.5"/>
  </g>
  <g id="arrowRight" transform="rotate(90) translate(36 -43)">
    <use xlink:href="#rim"/>
    <path pointer-events="none" fill="none" stroke="white" stroke-width="1.5" d="M0,-3.0v7 M-2.5,-0.5L0,-3.0L2.5,-0.5"/>
  </g>
  <g id="arrowDown" transform="rotate(180) translate(-30 -48)">
    <use xlink:href="#rim"/>
    <path pointer-events="none" fill="none" stroke="white" stroke-width="1.5" d="M0,-3.0v7 M-2.5,-0.5L0,-3.0L2.5,-0.5"/>
  </g>
  <g id="arrowLeft" transform="rotate(270) translate(-36 17)">
    <use xlink:href="#rim"/>
    <path pointer-events="none" fill="none" stroke="white" stroke-width="1.5" d="M0,-3.0v7 M-2.5,-0.5L0,-3.0L2.5,-0.5"/>
  </g>
  <g id="resetDef">
    <use xlink:href="#rim2" fill="#404040"><set attributeName="fill" to="#808080" begin="reset.mouseover" end="reset.mouseout"/></use>
  </g>
</defs>
<script type="application/ecmascript">
var viewWidth = 569;
var viewHeight = 462;
var sectionId = 'dynsection-2';
</script>
<script type="application/ecmascript" xlink:href="svg.min.js"/>
<svg id="graph" class="graph">
<g id="viewport">
<title>iii_drone::control::maneuver::ManeuverServer::asyncExecute</title>
<!-- Node1 -->
<g id="Node000001" class="node">
<title>Node1</title>
<g id="a_Node000001"><a xlink:title="Execute.">
<polygon fill="#999999" stroke="#666666" points="158,-247 0,-247 0,-206 158,-206 158,-247"/>
<text text-anchor="start" x="8" y="-235" font-family="Helvetica,sans-Serif" font-size="10.00">iii_drone::control</text>
<text text-anchor="start" x="8" y="-224" font-family="Helvetica,sans-Serif" font-size="10.00">::maneuver::ManeuverServer</text>
<text text-anchor="middle" x="79" y="-213" font-family="Helvetica,sans-Serif" font-size="10.00">::asyncExecute</text>
</a>
</g>
</g>
<!-- Node2 -->
<g id="Node000002" class="node">
<title>Node2</title>
<g id="a_Node000002"><a xlink:href="classiii__drone_1_1control_1_1maneuver_1_1ManeuverServer.html#a234a678dc7cfc70916444a5be0dae8a2" target="_top" xlink:title="Compute reference callback. Must be implemented specific to the maneuver type. This function takes th...">
<polygon fill="white" stroke="#666666" points="375,-454 217,-454 217,-413 375,-413 375,-454"/>
<text text-anchor="start" x="225" y="-442" font-family="Helvetica,sans-Serif" font-size="10.00">iii_drone::control</text>
<text text-anchor="start" x="225" y="-431" font-family="Helvetica,sans-Serif" font-size="10.00">::maneuver::ManeuverServer</text>
<text text-anchor="middle" x="296" y="-420" font-family="Helvetica,sans-Serif" font-size="10.00">::computeReference</text>
</a>
</g>
</g>
<!-- Node1&#45;&gt;Node2 -->
<g id="edge1_Node000001_Node000002" class="edge">
<title>Node1&#45;&gt;Node2</title>
<g id="a_edge1_Node000001_Node000002"><a xlink:title=" ">
<path fill="none" stroke="#63b8ff" d="M87.56,-247.29C102.19,-284.56 137.94,-362.73 194,-404.5 198.23,-407.66 202.8,-410.47 207.57,-412.97"/>
<polygon fill="#63b8ff" stroke="#63b8ff" points="206.43,-416.31 216.97,-417.43 209.43,-409.98 206.43,-416.31"/>
</a>
</g>
</g>
<!-- Node3 -->
<g id="Node000003" class="node">
<title>Node3</title>
<g id="a_Node000003"><a xlink:href="classiii__drone_1_1control_1_1maneuver_1_1ManeuverServer.html#a4af5a7d3a49d5c39bfdc2b5c47209665" target="_top" xlink:title="Has failed callback, returns whether the maneuver has failed.">
<polygon fill="white" stroke="#666666" points="375,-395 217,-395 217,-354 375,-354 375,-395"/>
<text text-anchor="start" x="225" y="-383" font-family="Helvetica,sans-Serif" font-size="10.00">iii_drone::control</text>
<text text-anchor="start" x="225" y="-372" font-family="Helvetica,sans-Serif" font-size="10.00">::maneuver::ManeuverServer</text>
<text text-anchor="middle" x="296" y="-361" font-family="Helvetica,sans-Serif" font-size="10.00">::hasFailed</text>
</a>
</g>
</g>
<!-- Node1&#45;&gt;Node3 -->
<g id="edge2_Node000001_Node000003" class="edge">
<title>Node1&#45;&gt;Node3</title>
<g id="a_edge2_Node000001_Node000003"><a xlink:title=" ">
<path fill="none" stroke="#63b8ff" d="M94.48,-247.39C114.03,-274.04 151.38,-319.77 194,-345.5 198.33,-348.11 202.91,-350.5 207.63,-352.68"/>
<polygon fill="#63b8ff" stroke="#63b8ff" points="206.28,-355.91 216.85,-356.63 209.03,-349.48 206.28,-355.91"/>
</a>
</g>
</g>
<!-- Node4 -->
<g id="Node000004" class="node">
<title>Node4</title>
<g id="a_Node000004"><a xlink:href="classiii__drone_1_1control_1_1maneuver_1_1ManeuverServer.html#a3827fe98e2489f180f03600c6553f9a3" target="_top" xlink:title="Has succeeded callback, must return whether the maneuver has successfully completed.">
<polygon fill="white" stroke="#666666" points="375,-336 217,-336 217,-295 375,-295 375,-336"/>
<text text-anchor="start" x="225" y="-324" font-family="Helvetica,sans-Serif" font-size="10.00">iii_drone::control</text>
<text text-anchor="start" x="225" y="-313" font-family="Helvetica,sans-Serif" font-size="10.00">::maneuver::ManeuverServer</text>
<text text-anchor="middle" x="296" y="-302" font-family="Helvetica,sans-Serif" font-size="10.00">::hasSucceeded</text>
</a>
</g>
</g>
<!-- Node1&#45;&gt;Node4 -->
<g id="edge3_Node000001_Node000004" class="edge">
<title>Node1&#45;&gt;Node4</title>
<g id="a_edge3_Node000001_Node000004"><a xlink:title=" ">
<path fill="none" stroke="#63b8ff" d="M114.55,-247.06C136.71,-259.65 166.4,-275.41 194,-286.5 198.42,-288.28 202.99,-289.99 207.64,-291.64"/>
<polygon fill="#63b8ff" stroke="#63b8ff" points="206.65,-295.01 217.25,-294.93 208.92,-288.38 206.65,-295.01"/>
</a>
</g>
</g>
<!-- Node5 -->
<g id="Node000005" class="node">
<title>Node5</title>
<g id="a_Node000005"><a xlink:href="classiii__drone_1_1control_1_1maneuver_1_1ManeuverServer.html#a5d7bab0b79907947a13cfe5f9ae383dc" target="_top" xlink:title="Publish feedback virtual function. This function should publish feedback for the maneuver using the m...">
<polygon fill="white" stroke="#666666" points="375,-277 217,-277 217,-236 375,-236 375,-277"/>
<text text-anchor="start" x="225" y="-265" font-family="Helvetica,sans-Serif" font-size="10.00">iii_drone::control</text>
<text text-anchor="start" x="225" y="-254" font-family="Helvetica,sans-Serif" font-size="10.00">::maneuver::ManeuverServer</text>
<text text-anchor="middle" x="296" y="-243" font-family="Helvetica,sans-Serif" font-size="10.00">::publishFeedback</text>
</a>
</g>
</g>
<!-- Node1&#45;&gt;Node5 -->
<g id="edge4_Node000001_Node000005" class="edge">
<title>Node1&#45;&gt;Node5</title>
<g id="a_edge4_Node000001_Node000005"><a xlink:title=" ">
<path fill="none" stroke="#63b8ff" d="M158.23,-237.42C174.04,-239.62 190.76,-241.96 206.88,-244.2"/>
<polygon fill="#63b8ff" stroke="#63b8ff" points="206.44,-247.68 216.83,-245.59 207.41,-240.74 206.44,-247.68"/>
</a>
</g>
</g>
<!-- Node6 -->
<g id="Node000006" class="node">
<title>Node6</title>
<g id="a_Node000006"><a xlink:href="classiii__drone_1_1control_1_1maneuver_1_1ManeuverServer.html#a7dcad5ff1a89457c53802ed718339993" target="_top" xlink:title="This function should publish the result and finalize the maneuver according to the result type....">
<polygon fill="white" stroke="#666666" points="375,-218 217,-218 217,-177 375,-177 375,-218"/>
<text text-anchor="start" x="225" y="-206" font-family="Helvetica,sans-Serif" font-size="10.00">iii_drone::control</text>
<text text-anchor="start" x="225" y="-195" font-family="Helvetica,sans-Serif" font-size="10.00">::maneuver::ManeuverServer</text>
<text text-anchor="middle" x="296" y="-184" font-family="Helvetica,sans-Serif" font-size="10.00">::publishResultAndFinalize</text>
</a>
</g>
</g>
<!-- Node1&#45;&gt;Node6 -->
<g id="edge5_Node000001_Node000006" class="edge">
<title>Node1&#45;&gt;Node6</title>
<g id="a_edge5_Node000001_Node000006"><a xlink:title=" ">
<path fill="none" stroke="#63b8ff" d="M158.23,-215.95C174.04,-213.82 190.76,-211.56 206.88,-209.39"/>
<polygon fill="#63b8ff" stroke="#63b8ff" points="207.39,-212.85 216.83,-208.04 206.45,-205.91 207.39,-212.85"/>
</a>
</g>
</g>
<!-- Node7 -->
<g id="Node000007" class="node">
<title>Node7</title>
<g id="a_Node000007"><a xlink:href="classiii__drone_1_1control_1_1maneuver_1_1ManeuverServer.html#a02a72a1c85100bae4ff4866377352ff6" target="_top" xlink:title="Must register the reference callback function of another maneuver server upon the completion of the c...">
<polygon fill="white" stroke="#666666" points="398,-159 194,-159 194,-118 398,-118 398,-159"/>
<text text-anchor="start" x="202" y="-147" font-family="Helvetica,sans-Serif" font-size="10.00">iii_drone::control</text>
<text text-anchor="start" x="202" y="-136" font-family="Helvetica,sans-Serif" font-size="10.00">::maneuver::ManeuverServer</text>
<text text-anchor="middle" x="296" y="-125" font-family="Helvetica,sans-Serif" font-size="10.00">::registerReferenceCallbackOnSuccess</text>
</a>
</g>
</g>
<!-- Node1&#45;&gt;Node7 -->
<g id="edge6_Node000001_Node000007" class="edge">
<title>Node1&#45;&gt;Node7</title>
<g id="a_edge6_Node000001_Node000007"><a xlink:title=" ">
<path fill="none" stroke="#63b8ff" d="M116.18,-205.96C138.21,-193.99 167.19,-179.2 194,-168.5 199.39,-166.35 204.99,-164.27 210.67,-162.28"/>
<polygon fill="#63b8ff" stroke="#63b8ff" points="211.94,-165.55 220.28,-159.02 209.69,-158.92 211.94,-165.55"/>
</a>
</g>
</g>
<!-- Node8 -->
<g id="Node000008" class="node">
<title>Node8</title>
<g id="a_Node000008"><a xlink:href="classiii__drone_1_1control_1_1maneuver_1_1ManeuverServer.html#ae1615c55aa3ef1e7589a9b21f2ce5e35" target="_top" xlink:title="Function which is called when starting execution of a maneuver.">
<polygon fill="white" stroke="#666666" points="375,-100 217,-100 217,-59 375,-59 375,-100"/>
<text text-anchor="start" x="225" y="-88" font-family="Helvetica,sans-Serif" font-size="10.00">iii_drone::control</text>
<text text-anchor="start" x="225" y="-77" font-family="Helvetica,sans-Serif" font-size="10.00">::maneuver::ManeuverServer</text>
<text text-anchor="middle" x="296" y="-66" font-family="Helvetica,sans-Serif" font-size="10.00">::startExecution</text>
</a>
</g>
</g>
<!-- Node1&#45;&gt;Node8 -->
<g id="edge7_Node000001_Node000008" class="edge">
<title>Node1&#45;&gt;Node8</title>
<g id="a_edge7_Node000001_Node000008"><a xlink:title=" ">
<path fill="none" stroke="#63b8ff" d="M94.94,-205.58C114.71,-179.39 152.01,-134.87 194,-109.5 198.34,-106.88 202.93,-104.47 207.65,-102.26"/>
<polygon fill="#63b8ff" stroke="#63b8ff" points="209.1,-105.45 216.89,-98.26 206.32,-99.03 209.1,-105.45"/>
</a>
</g>
</g>
<!-- Node9 -->
<g id="Node000009" class="node">
<title>Node9</title>
<g id="a_Node000009"><a xlink:href="classiii__drone_1_1control_1_1maneuver_1_1Maneuver.html#a26a96a488c05107e53e5deecd20226e7" target="_top" xlink:title="Indicate that the maneuver has terminated. Will delete the goal handle pointer.">
<polygon fill="white" stroke="#666666" points="359.5,-41 232.5,-41 232.5,0 359.5,0 359.5,-41"/>
<text text-anchor="start" x="240.5" y="-29" font-family="Helvetica,sans-Serif" font-size="10.00">iii_drone::control</text>
<text text-anchor="start" x="240.5" y="-18" font-family="Helvetica,sans-Serif" font-size="10.00">::maneuver::Maneuver</text>
<text text-anchor="middle" x="296" y="-7" font-family="Helvetica,sans-Serif" font-size="10.00">::Terminate</text>
</a>
</g>
</g>
<!-- Node1&#45;&gt;Node9 -->
<g id="edge8_Node000001_Node000009" class="edge">
<title>Node1&#45;&gt;Node9</title>
<g id="a_edge8_Node000001_Node000009"><a xlink:title=" ">
<path fill="none" stroke="#63b8ff" d="M87.66,-205.99C102.46,-169.22 138.47,-92.05 194,-50.5 202.63,-44.04 212.65,-38.96 222.95,-34.98"/>
<polygon fill="#63b8ff" stroke="#63b8ff" points="224.2,-38.25 232.46,-31.61 221.86,-31.65 224.2,-38.25"/>
</a>
</g>
</g>
<!-- Node10 -->
<g id="Node000010" class="node">
<title>Node10</title>
<g id="a_Node000010"><a xlink:href="classiii__drone_1_1control_1_1maneuver_1_1Maneuver.html#a8788992c198b7547518561a5ab184406" target="_top" xlink:title="Getter for the success flag.">
<polygon fill="white" stroke="#666666" points="561,-41 434,-41 434,0 561,0 561,-41"/>
<text text-anchor="start" x="442" y="-29" font-family="Helvetica,sans-Serif" font-size="10.00">iii_drone::control</text>
<text text-anchor="start" x="442" y="-18" font-family="Helvetica,sans-Serif" font-size="10.00">::maneuver::Maneuver</text>
<text text-anchor="middle" x="497.5" y="-7" font-family="Helvetica,sans-Serif" font-size="10.00">::success</text>
</a>
</g>
</g>
<!-- Node9&#45;&gt;Node10 -->
<g id="edge9_Node000009_Node000010" class="edge">
<title>Node9&#45;&gt;Node10</title>
<g id="a_edge9_Node000009_Node000010"><a xlink:title=" ">
<path fill="none" stroke="#63b8ff" d="M359.58,-20.5C379.9,-20.5 402.63,-20.5 423.65,-20.5"/>
<polygon fill="#63b8ff" stroke="#63b8ff" points="423.8,-24 433.8,-20.5 423.8,-17 423.8,-24"/>
</a>
</g>
</g>
</g>
</svg>

<g id="navigator" transform="translate(0 0)" fill="#404254">
  <rect fill="#f2f5e9" fill-opacity="0.5" stroke="#606060" stroke-width=".5" x="0" y="0" width="60" height="60"/>
  <use id="zoomplus" xlink:href="#zoomPlus" x="17" y="9" onmousedown="handleZoom(evt,'in')"/>
  <use id="zoomminus" xlink:href="#zoomMin" x="42" y="9" onmousedown="handleZoom(evt,'out')"/>
  <use id="reset" xlink:href="#resetDef" x="30" y="36" onmousedown="handleReset()"/>
   <use id="arrowup" xlink:href="#arrowUp" x="0" y="0" onmousedown="handlePan(0,-1)"/>
  <use id="arrowright" xlink:href="#arrowRight" x="0" y="0" onmousedown="handlePan(1,0)"/>
  <use id="arrowdown" xlink:href="#arrowDown" x="0" y="0" onmousedown="handlePan(0,1)"/>
  <use id="arrowleft" xlink:href="#arrowLeft" x="0" y="0" onmousedown="handlePan(-1,0)"/>
</g>
<svg viewBox="0 0 15 15" width="100%" height="30px" preserveAspectRatio="xMaxYMin meet">
 <g id="arrow_out" transform="scale(0.3 0.3)">
  <a xlink:href="classiii__drone_1_1control_1_1maneuver_1_1ManeuverServer_a44d261b91fb3178ab005fbd642df9b23_cgraph_org.svg" target="_base">
   <rect id="button" ry="5" rx="5" y="6" x="6" height="38" width="38"
        fill="#f2f5e9" fill-opacity="0.5" stroke="#606060" stroke-width="1.0"/>
   <path id="arrow"
     d="M 11.500037,31.436501 C 11.940474,20.09759 22.043105,11.32322 32.158766,21.979434 L 37.068811,17.246167 C 37.068811,17.246167 37.088388,32 37.088388,32 L 22.160133,31.978069 C 22.160133,31.978069 26.997745,27.140456 26.997745,27.140456 C 18.528582,18.264221 13.291696,25.230495 11.500037,31.436501 z"
     style="fill:#404040;"/>
  </a>
 </g>
</svg>

<style type='text/css'>
<![CDATA[
[data-mouse-over-selected='false'] { opacity: 0.7; }
[data-mouse-over-selected='true']  { opacity: 1.0; }
]]>
</style>
<script type="application/ecmascript"><![CDATA[
document.addEventListener('DOMContentLoaded', (event) => {
  highlightEdges();
  highlightAdjacentNodes();
});
]]></script>
</svg>
