<?xml version="1.0" encoding="UTF-8" standalone="no"?>
<!DOCTYPE svg PUBLIC "-//W3C//DTD SVG 1.1//EN"
 "http://www.w3.org/Graphics/SVG/1.1/DTD/svg11.dtd">
<!-- Generated by graphviz version 2.43.0 (0)
 -->
<!-- Title: iii_drone::control::CombinedDroneAwarenessHandler::updateGroundAltitudeEstimate Pages: 1 -->
<svg width="616pt" height="478pt"
 viewBox="0.00 0.00 616.00 478.00" xmlns="http://www.w3.org/2000/svg" xmlns:xlink="http://www.w3.org/1999/xlink">
<g id="graph0" class="graph" transform="scale(1 1) rotate(0) translate(4 474)">
<title>iii_drone::control::CombinedDroneAwarenessHandler::updateGroundAltitudeEstimate</title>
<!-- Node1 -->
<g id="Node000001" class="node">
<title>Node1</title>
<g id="a_Node000001"><a xlink:title="Updates the ground altitude estimate based on given information. Will either start or stop the timer ...">
<polygon fill="#999999" stroke="#666666" points="193,-239 0,-239 0,-198 193,-198 193,-239"/>
<text text-anchor="start" x="8" y="-227" font-family="Helvetica,sans-Serif" font-size="10.00">iii_drone::control</text>
<text text-anchor="start" x="8" y="-216" font-family="Helvetica,sans-Serif" font-size="10.00">::CombinedDroneAwarenessHandler</text>
<text text-anchor="middle" x="96.5" y="-205" font-family="Helvetica,sans-Serif" font-size="10.00">::updateGroundAltitudeEstimate</text>
</a>
</g>
</g>
<!-- Node2 -->
<g id="Node000002" class="node">
<title>Node2</title>
<g id="a_Node000002"><a xlink:href="classiii__drone_1_1control_1_1CombinedDroneAwarenessHandler.html#a1bcddcc23eb18e8a078a8d085824459f" target="_top" xlink:title="Whether the drone is armed.">
<polygon fill="white" stroke="#666666" points="422,-470 229,-470 229,-429 422,-429 422,-470"/>
<text text-anchor="start" x="237" y="-458" font-family="Helvetica,sans-Serif" font-size="10.00">iii_drone::control</text>
<text text-anchor="start" x="237" y="-447" font-family="Helvetica,sans-Serif" font-size="10.00">::CombinedDroneAwarenessHandler</text>
<text text-anchor="middle" x="325.5" y="-436" font-family="Helvetica,sans-Serif" font-size="10.00">::armed</text>
</a>
</g>
</g>
<!-- Node1&#45;&gt;Node2 -->
<g id="edge1_Node000001_Node000002" class="edge">
<title>Node1&#45;&gt;Node2</title>
<g id="a_edge1_Node000001_Node000002"><a xlink:title=" ">
<path fill="none" stroke="#63b8ff" d="M105.23,-239.09C121.61,-279.94 163.76,-371.49 229,-420.5 230.43,-421.57 231.9,-422.61 233.4,-423.6"/>
<polygon fill="#63b8ff" stroke="#63b8ff" points="231.96,-426.82 242.34,-428.9 235.52,-420.79 231.96,-426.82"/>
</a>
</g>
</g>
<!-- Node3 -->
<g id="Node000003" class="node">
<title>Node3</title>
<g id="a_Node000003"><a xlink:href="classiii__drone_1_1control_1_1CombinedDroneAwarenessHandler.html#a2909907bae097f04431afb46f23b088d" target="_top" xlink:title="Returns the ground altitude estimate.">
<polygon fill="white" stroke="#666666" points="422,-411 229,-411 229,-370 422,-370 422,-411"/>
<text text-anchor="start" x="237" y="-399" font-family="Helvetica,sans-Serif" font-size="10.00">iii_drone::control</text>
<text text-anchor="start" x="237" y="-388" font-family="Helvetica,sans-Serif" font-size="10.00">::CombinedDroneAwarenessHandler</text>
<text text-anchor="middle" x="325.5" y="-377" font-family="Helvetica,sans-Serif" font-size="10.00">::ground_altitude_estimate</text>
</a>
</g>
</g>
<!-- Node1&#45;&gt;Node3 -->
<g id="edge2_Node000001_Node000003" class="edge">
<title>Node1&#45;&gt;Node3</title>
<g id="a_edge2_Node000001_Node000003"><a xlink:title=" ">
<path fill="none" stroke="#63b8ff" d="M111.08,-239.25C132.49,-270.34 177.03,-328.84 229,-361.5 231.18,-362.87 233.43,-364.18 235.74,-365.43"/>
<polygon fill="#63b8ff" stroke="#63b8ff" points="234.35,-368.65 244.86,-369.97 237.47,-362.38 234.35,-368.65"/>
</a>
</g>
</g>
<!-- Node4 -->
<g id="Node000004" class="node">
<title>Node4</title>
<g id="a_Node000004"><a xlink:href="classiii__drone_1_1control_1_1CombinedDroneAwarenessHandlerParameters.html#a6e153b5c5529c931037cfde7de319159" target="_top" xlink:title="Get the ground frame id.">
<polygon fill="white" stroke="#666666" points="422,-352 229,-352 229,-311 422,-311 422,-352"/>
<text text-anchor="start" x="237" y="-340" font-family="Helvetica,sans-Serif" font-size="10.00">iii_drone::control</text>
<text text-anchor="start" x="237" y="-329" font-family="Helvetica,sans-Serif" font-size="10.00">::CombinedDroneAwarenessHandler</text>
<text text-anchor="middle" x="325.5" y="-318" font-family="Helvetica,sans-Serif" font-size="10.00">Parameters::ground_frame_id</text>
</a>
</g>
</g>
<!-- Node1&#45;&gt;Node4 -->
<g id="edge3_Node000001_Node000004" class="edge">
<title>Node1&#45;&gt;Node4</title>
<g id="a_edge3_Node000001_Node000004"><a xlink:title=" ">
<path fill="none" stroke="#63b8ff" d="M124.7,-239.02C150.44,-257.67 190.74,-284.88 229,-302.5 232.61,-304.17 236.35,-305.76 240.15,-307.3"/>
<polygon fill="#63b8ff" stroke="#63b8ff" points="239.14,-310.66 249.73,-310.97 241.64,-304.12 239.14,-310.66"/>
</a>
</g>
</g>
<!-- Node5 -->
<g id="Node000005" class="node">
<title>Node5</title>
<g id="a_Node000005"><a xlink:href="classiii__drone_1_1control_1_1CombinedDroneAwarenessHandler.html#a66a30f72295931bf3e00580ccf06130e" target="_top" xlink:title="Whether the drone is in offboard mode.">
<polygon fill="white" stroke="#666666" points="422,-293 229,-293 229,-252 422,-252 422,-293"/>
<text text-anchor="start" x="237" y="-281" font-family="Helvetica,sans-Serif" font-size="10.00">iii_drone::control</text>
<text text-anchor="start" x="237" y="-270" font-family="Helvetica,sans-Serif" font-size="10.00">::CombinedDroneAwarenessHandler</text>
<text text-anchor="middle" x="325.5" y="-259" font-family="Helvetica,sans-Serif" font-size="10.00">::offboard</text>
</a>
</g>
</g>
<!-- Node1&#45;&gt;Node5 -->
<g id="edge4_Node000001_Node000005" class="edge">
<title>Node1&#45;&gt;Node5</title>
<g id="a_edge4_Node000001_Node000005"><a xlink:title=" ">
<path fill="none" stroke="#63b8ff" d="M183.97,-239.07C198.42,-242.51 213.5,-246.09 228.18,-249.59"/>
<polygon fill="#63b8ff" stroke="#63b8ff" points="227.74,-253.08 238.27,-251.99 229.36,-246.27 227.74,-253.08"/>
</a>
</g>
</g>
<!-- Node6 -->
<g id="Node000006" class="node">
<title>Node6</title>
<g id="a_Node000006"><a xlink:href="classiii__drone_1_1utils_1_1Atomic.html#a9043ab811e9b5f5ceaf326534fc27060" target="_top" xlink:title="Set the value.">
<polygon fill="white" stroke="#666666" points="388.5,-233.5 262.5,-233.5 262.5,-203.5 388.5,-203.5 388.5,-233.5"/>
<text text-anchor="start" x="270.5" y="-221.5" font-family="Helvetica,sans-Serif" font-size="10.00">iii_drone::utils::Atomic</text>
<text text-anchor="middle" x="325.5" y="-210.5" font-family="Helvetica,sans-Serif" font-size="10.00">::Store</text>
</a>
</g>
</g>
<!-- Node1&#45;&gt;Node6 -->
<g id="edge5_Node000001_Node000006" class="edge">
<title>Node1&#45;&gt;Node6</title>
<g id="a_edge5_Node000001_Node000006"><a xlink:title=" ">
<path fill="none" stroke="#63b8ff" d="M193.11,-218.5C212.84,-218.5 233.31,-218.5 252.06,-218.5"/>
<polygon fill="#63b8ff" stroke="#63b8ff" points="252.28,-222 262.28,-218.5 252.28,-215 252.28,-222"/>
</a>
</g>
</g>
<!-- Node7 -->
<g id="Node000007" class="node">
<title>Node7</title>
<g id="a_Node000007"><a xlink:href="classiii__drone_1_1utils_1_1History.html#a56d92944208a11b284718c5c2349a2b5" target="_top" xlink:title="Store the latest value.">
<polygon fill="white" stroke="#666666" points="389,-185.5 262,-185.5 262,-155.5 389,-155.5 389,-185.5"/>
<text text-anchor="start" x="270" y="-173.5" font-family="Helvetica,sans-Serif" font-size="10.00">iii_drone::utils::History</text>
<text text-anchor="middle" x="325.5" y="-162.5" font-family="Helvetica,sans-Serif" font-size="10.00">::Store</text>
</a>
</g>
</g>
<!-- Node1&#45;&gt;Node7 -->
<g id="edge6_Node000001_Node000007" class="edge">
<title>Node1&#45;&gt;Node7</title>
<g id="a_edge6_Node000001_Node000007"><a xlink:title=" ">
<path fill="none" stroke="#63b8ff" d="M193.11,-198.28C212.83,-194.11 233.29,-189.79 252.03,-185.83"/>
<polygon fill="#63b8ff" stroke="#63b8ff" points="252.89,-189.22 261.95,-183.73 251.44,-182.37 252.89,-189.22"/>
</a>
</g>
</g>
<!-- Node8 -->
<g id="Node000008" class="node">
<title>Node8</title>
<g id="a_Node000008"><a xlink:href="namespaceiii__drone_1_1types.html#aa98e988d47c7d29c21cc73c1acdf2478" target="_top" xlink:title=" ">
<polygon fill="white" stroke="#666666" points="398.5,-137.5 252.5,-137.5 252.5,-107.5 398.5,-107.5 398.5,-137.5"/>
<text text-anchor="start" x="260.5" y="-125.5" font-family="Helvetica,sans-Serif" font-size="10.00">iii_drone::types::transform</text>
<text text-anchor="middle" x="325.5" y="-114.5" font-family="Helvetica,sans-Serif" font-size="10.00">MsgFromTransform</text>
</a>
</g>
</g>
<!-- Node1&#45;&gt;Node8 -->
<g id="edge7_Node000001_Node000008" class="edge">
<title>Node1&#45;&gt;Node8</title>
<g id="a_edge7_Node000001_Node000008"><a xlink:title=" ">
<path fill="none" stroke="#63b8ff" d="M129.61,-197.89C155.57,-181.98 193.5,-160.42 229,-146.5 234.46,-144.36 240.16,-142.37 245.95,-140.51"/>
<polygon fill="#63b8ff" stroke="#63b8ff" points="247.21,-143.79 255.75,-137.53 245.17,-137.09 247.21,-143.79"/>
</a>
</g>
</g>
<!-- Node11 -->
<g id="Node000011" class="node">
<title>Node11</title>
<g id="a_Node000011"><a xlink:href="classiii__drone_1_1utils_1_1History.html#ac95e6b8005c02bbf5255a1fac250f17d" target="_top" xlink:title="Get a copy of the history vector.">
<polygon fill="white" stroke="#666666" points="389,-89.5 262,-89.5 262,-59.5 389,-59.5 389,-89.5"/>
<text text-anchor="start" x="270" y="-77.5" font-family="Helvetica,sans-Serif" font-size="10.00">iii_drone::utils::History</text>
<text text-anchor="middle" x="325.5" y="-66.5" font-family="Helvetica,sans-Serif" font-size="10.00">::vector</text>
</a>
</g>
</g>
<!-- Node1&#45;&gt;Node11 -->
<g id="edge10_Node000001_Node000011" class="edge">
<title>Node1&#45;&gt;Node11</title>
<g id="a_edge10_Node000001_Node000011"><a xlink:title=" ">
<path fill="none" stroke="#63b8ff" d="M114.35,-197.75C137.4,-170.77 181.35,-124.1 229,-98.5 236.31,-94.58 244.27,-91.28 252.39,-88.51"/>
<polygon fill="#63b8ff" stroke="#63b8ff" points="253.47,-91.84 261.95,-85.49 251.36,-85.16 253.47,-91.84"/>
</a>
</g>
</g>
<!-- Node12 -->
<g id="Node000012" class="node">
<title>Node12</title>
<g id="a_Node000012"><a xlink:href="classiii__drone_1_1control_1_1CombinedDroneAwarenessHandlerParameters.html#a462d0dc30c33f34df6165dbcc7829aa1" target="_top" xlink:title="Get the world frame id.">
<polygon fill="white" stroke="#666666" points="422,-41 229,-41 229,0 422,0 422,-41"/>
<text text-anchor="start" x="237" y="-29" font-family="Helvetica,sans-Serif" font-size="10.00">iii_drone::control</text>
<text text-anchor="start" x="237" y="-18" font-family="Helvetica,sans-Serif" font-size="10.00">::CombinedDroneAwarenessHandler</text>
<text text-anchor="middle" x="325.5" y="-7" font-family="Helvetica,sans-Serif" font-size="10.00">Parameters::world_frame_id</text>
</a>
</g>
</g>
<!-- Node1&#45;&gt;Node12 -->
<g id="edge11_Node000001_Node000012" class="edge">
<title>Node1&#45;&gt;Node12</title>
<g id="a_edge11_Node000001_Node000012"><a xlink:title=" ">
<path fill="none" stroke="#63b8ff" d="M108.13,-197.91C127.43,-162.54 171.59,-90.24 229,-50.5 231.27,-48.93 233.62,-47.44 236.04,-46.03"/>
<polygon fill="#63b8ff" stroke="#63b8ff" points="237.87,-49.02 245.05,-41.23 234.58,-42.84 237.87,-49.02"/>
</a>
</g>
</g>
<!-- Node9 -->
<g id="Node000009" class="node">
<title>Node9</title>
<g id="a_Node000009"><a xlink:href="namespaceiii__drone_1_1types.html#a345601fdf3366d6af6d7c2003d74275b" target="_top" xlink:title=" ">
<polygon fill="white" stroke="#666666" points="608,-161.5 458,-161.5 458,-131.5 608,-131.5 608,-161.5"/>
<text text-anchor="start" x="466" y="-149.5" font-family="Helvetica,sans-Serif" font-size="10.00">iii_drone::types::quaternion</text>
<text text-anchor="middle" x="533" y="-138.5" font-family="Helvetica,sans-Serif" font-size="10.00">MsgFromQuaternion</text>
</a>
</g>
</g>
<!-- Node8&#45;&gt;Node9 -->
<g id="edge8_Node000008_Node000009" class="edge">
<title>Node8&#45;&gt;Node9</title>
<g id="a_edge8_Node000008_Node000009"><a xlink:title=" ">
<path fill="none" stroke="#63b8ff" d="M398.66,-130.93C414.56,-132.78 431.53,-134.77 447.86,-136.67"/>
<polygon fill="#63b8ff" stroke="#63b8ff" points="447.59,-140.17 457.92,-137.85 448.4,-133.21 447.59,-140.17"/>
</a>
</g>
</g>
<!-- Node10 -->
<g id="Node000010" class="node">
<title>Node10</title>
<g id="a_Node000010"><a xlink:href="namespaceiii__drone_1_1types.html#a55650c4ff895bbd1c624ee51c235a102" target="_top" xlink:title=" ">
<polygon fill="white" stroke="#666666" points="597,-113.5 469,-113.5 469,-83.5 597,-83.5 597,-113.5"/>
<text text-anchor="start" x="477" y="-101.5" font-family="Helvetica,sans-Serif" font-size="10.00">iii_drone::types::vector</text>
<text text-anchor="middle" x="533" y="-90.5" font-family="Helvetica,sans-Serif" font-size="10.00">MsgFromVector</text>
</a>
</g>
</g>
<!-- Node8&#45;&gt;Node10 -->
<g id="edge9_Node000008_Node000010" class="edge">
<title>Node8&#45;&gt;Node10</title>
<g id="a_edge9_Node000008_Node000010"><a xlink:title=" ">
<path fill="none" stroke="#63b8ff" d="M398.66,-114.07C418.16,-111.79 439.28,-109.33 458.83,-107.05"/>
<polygon fill="#63b8ff" stroke="#63b8ff" points="459.37,-110.51 468.9,-105.87 458.56,-103.55 459.37,-110.51"/>
</a>
</g>
</g>
</g>
</svg>
