<?xml version="1.0" encoding="UTF-8" standalone="no"?>
<!DOCTYPE svg PUBLIC "-//W3C//DTD SVG 1.1//EN"
 "http://www.w3.org/Graphics/SVG/1.1/DTD/svg11.dtd">
<!-- Generated by graphviz version 2.43.0 (0)
 -->
<!-- Title: iii_drone::control::CombinedDroneAwarenessHandler::combined_drone_awareness Pages: 1 -->
<!--zoomable 850 -->

<svg id="main" version="1.1" xmlns="http://www.w3.org/2000/svg" xmlns:xlink="http://www.w3.org/1999/xlink" xml:space="preserve" onload="init(evt)">
<style type="text/css"><![CDATA[
.node, .edge {opacity: 0.7;}
.node.selected, .edge.selected {opacity: 1;}
.edge:hover path { stroke: red; }
.edge:hover polygon { stroke: red; fill: red; }
]]></style>

<defs>
  <circle id="rim" cx="0" cy="0" r="7"/>
  <circle id="rim2" cx="0" cy="0" r="3.5"/>
  <g id="zoomPlus">
    <use xlink:href="#rim" fill="#404040"><set attributeName="fill" to="#808080" begin="zoomplus.mouseover" end="zoomplus.mouseout"/></use>
    <path d="M-4,0h8M0,-4v8" fill="none" stroke="white" stroke-width="1.5" pointer-events="none"/>
  </g>
  <g id="zoomMin">
    <use xlink:href="#rim" fill="#404040"><set attributeName="fill" to="#808080" begin="zoomminus.mouseover" end="zoomminus.mouseout"/></use>
    <path d="M-4,0h8" fill="none" stroke="white" stroke-width="1.5" pointer-events="none"/>
  </g>
  <g id="arrowUp" transform="translate(30 24)">
    <use xlink:href="#rim"/>
    <path pointer-events="none" fill="none" stroke="white" stroke-width="1.5" d="M0,-3.0v7 M-2.5,-0.5L0,-3.0L2.5,-0.5"/>
  </g>
  <g id="arrowRight" transform="rotate(90) translate(36 -43)">
    <use xlink:href="#rim"/>
    <path pointer-events="none" fill="none" stroke="white" stroke-width="1.5" d="M0,-3.0v7 M-2.5,-0.5L0,-3.0L2.5,-0.5"/>
  </g>
  <g id="arrowDown" transform="rotate(180) translate(-30 -48)">
    <use xlink:href="#rim"/>
    <path pointer-events="none" fill="none" stroke="white" stroke-width="1.5" d="M0,-3.0v7 M-2.5,-0.5L0,-3.0L2.5,-0.5"/>
  </g>
  <g id="arrowLeft" transform="rotate(270) translate(-36 17)">
    <use xlink:href="#rim"/>
    <path pointer-events="none" fill="none" stroke="white" stroke-width="1.5" d="M0,-3.0v7 M-2.5,-0.5L0,-3.0L2.5,-0.5"/>
  </g>
  <g id="resetDef">
    <use xlink:href="#rim2" fill="#404040"><set attributeName="fill" to="#808080" begin="reset.mouseover" end="reset.mouseout"/></use>
  </g>
</defs>
<script type="application/ecmascript">
var viewWidth = 1699;
var viewHeight = 850;
var sectionId = 'dynsection-5';
</script>
<script type="application/ecmascript" xlink:href="svg.min.js"/>
<svg id="graph" class="graph">
<g id="viewport">
<title>iii_drone::control::CombinedDroneAwarenessHandler::combined_drone_awareness</title>
<!-- Node1 -->
<g id="Node000001" class="node">
<title>Node1</title>
<g id="a_Node000001"><a xlink:title="Getter for the combined drone awareness simple type by copy.">
<polygon fill="#999999" stroke="#666666" points="1691,-375 1498,-375 1498,-334 1691,-334 1691,-375"/>
<text text-anchor="start" x="1506" y="-363" font-family="Helvetica,sans-Serif" font-size="10.00">iii_drone::control</text>
<text text-anchor="start" x="1506" y="-352" font-family="Helvetica,sans-Serif" font-size="10.00">::CombinedDroneAwarenessHandler</text>
<text text-anchor="middle" x="1594.5" y="-341" font-family="Helvetica,sans-Serif" font-size="10.00">::combined_drone_awareness</text>
</a>
</g>
</g>
<!-- Node2 -->
<g id="Node000002" class="node">
<title>Node2</title>
<g id="a_Node000002"><a xlink:href="classiii__drone_1_1control_1_1maneuver_1_1ManeuverScheduler.html#afff4234827a52c39b91b94ddda380a92" target="_top" xlink:title="Returns whether a given maneuver can immediately execute.">
<polygon fill="white" stroke="#666666" points="1094,-825 919,-825 919,-784 1094,-784 1094,-825"/>
<text text-anchor="start" x="927" y="-813" font-family="Helvetica,sans-Serif" font-size="10.00">iii_drone::control</text>
<text text-anchor="start" x="927" y="-802" font-family="Helvetica,sans-Serif" font-size="10.00">::maneuver::ManeuverScheduler</text>
<text text-anchor="middle" x="1006.5" y="-791" font-family="Helvetica,sans-Serif" font-size="10.00">::CanExecute</text>
</a>
</g>
</g>
<!-- Node1&#45;&gt;Node2 -->
<g id="edge1_Node000001_Node000002" class="edge">
<title>Node1&#45;&gt;Node2</title>
<g id="a_edge1_Node000001_Node000002"><a xlink:title=" ">
<path fill="none" stroke="#63b8ff" d="M1588.56,-385.25C1573.6,-474.2 1525.89,-728.55 1462,-778.5 1355.06,-862.11 1187.04,-845.24 1088.03,-825.07"/>
<polygon fill="#63b8ff" stroke="#63b8ff" points="1592.03,-385.69 1590.22,-375.25 1585.13,-384.54 1592.03,-385.69"/>
</a>
</g>
</g>
<!-- Node7 -->
<g id="Node000007" class="node">
<title>Node7</title>
<g id="a_Node000007"><a xlink:href="classiii__drone_1_1control_1_1maneuver_1_1ManeuverScheduler.html#a506aad4bb58475a1f64148aec17c570f" target="_top" xlink:title="Returns the expected combined drone awareness upon completion or failure of given maneuver type,...">
<polygon fill="white" stroke="#666666" points="1409.5,-769 1234.5,-769 1234.5,-728 1409.5,-728 1409.5,-769"/>
<text text-anchor="start" x="1242.5" y="-757" font-family="Helvetica,sans-Serif" font-size="10.00">iii_drone::control</text>
<text text-anchor="start" x="1242.5" y="-746" font-family="Helvetica,sans-Serif" font-size="10.00">::maneuver::ManeuverScheduler</text>
<text text-anchor="middle" x="1322" y="-735" font-family="Helvetica,sans-Serif" font-size="10.00">::ProjectExpectedAwarenessFull</text>
</a>
</g>
</g>
<!-- Node1&#45;&gt;Node7 -->
<g id="edge6_Node000001_Node000007" class="edge">
<title>Node1&#45;&gt;Node7</title>
<g id="a_edge6_Node000001_Node000007"><a xlink:title=" ">
<path fill="none" stroke="#63b8ff" d="M1592.06,-385.33C1587.02,-456.03 1564.29,-630.63 1462,-719.5 1447.39,-732.19 1428.67,-739.83 1409.74,-744.31"/>
<polygon fill="#63b8ff" stroke="#63b8ff" points="1595.56,-385.49 1592.71,-375.28 1588.57,-385.04 1595.56,-385.49"/>
</a>
</g>
</g>
<!-- Node9 -->
<g id="Node000009" class="node">
<title>Node9</title>
<g id="a_Node000009"><a xlink:href="classiii__drone_1_1control_1_1CombinedDroneAwarenessHandler.html#a8bcf29ada285948eeeff00d694d185c2" target="_top" xlink:title="Updates the combined drone awareness based on current information. To be called after updating the an...">
<polygon fill="white" stroke="#666666" points="1103,-495 910,-495 910,-454 1103,-454 1103,-495"/>
<text text-anchor="start" x="918" y="-483" font-family="Helvetica,sans-Serif" font-size="10.00">iii_drone::control</text>
<text text-anchor="start" x="918" y="-472" font-family="Helvetica,sans-Serif" font-size="10.00">::CombinedDroneAwarenessHandler</text>
<text text-anchor="middle" x="1006.5" y="-461" font-family="Helvetica,sans-Serif" font-size="10.00">::updateCombinedDroneAwareness</text>
</a>
</g>
</g>
<!-- Node1&#45;&gt;Node9 -->
<g id="edge9_Node000001_Node000009" class="edge">
<title>Node1&#45;&gt;Node9</title>
<g id="a_edge9_Node000001_Node000009"><a xlink:title=" ">
<path fill="none" stroke="#63b8ff" d="M1565.36,-382.31C1540.48,-404.93 1502.01,-435.33 1462,-449.5 1343.74,-491.37 1197.37,-490.93 1103.24,-484.55"/>
<polygon fill="#63b8ff" stroke="#63b8ff" points="1568,-384.64 1572.95,-375.27 1563.24,-379.51 1568,-384.64"/>
</a>
</g>
</g>
<!-- Node11 -->
<g id="Node000011" class="node">
<title>Node11</title>
<g id="a_Node000011"><a xlink:href="classiii__drone_1_1control_1_1CombinedDroneAwarenessHandler.html#ad6d5cbd2b74f81deecc3d6b935018800" target="_top" xlink:title="Updates the combined drone awareness from the gripper status. Triggers updates of gripper_open.">
<polygon fill="white" stroke="#666666" points="1462,-615 1182,-615 1182,-574 1462,-574 1462,-615"/>
<text text-anchor="start" x="1190" y="-603" font-family="Helvetica,sans-Serif" font-size="10.00">iii_drone::control</text>
<text text-anchor="start" x="1190" y="-592" font-family="Helvetica,sans-Serif" font-size="10.00">::CombinedDroneAwarenessHandler</text>
<text text-anchor="middle" x="1322" y="-581" font-family="Helvetica,sans-Serif" font-size="10.00">::updateCombinedDroneAwarenessFromGripperStatus</text>
</a>
</g>
</g>
<!-- Node1&#45;&gt;Node11 -->
<g id="edge11_Node000001_Node000011" class="edge">
<title>Node1&#45;&gt;Node11</title>
<g id="a_edge11_Node000001_Node000011"><a xlink:title=" ">
<path fill="none" stroke="#63b8ff" d="M1583.47,-384.75C1566.36,-431.37 1526.95,-520.14 1462,-565.5 1457.55,-568.6 1452.84,-571.39 1447.95,-573.89"/>
<polygon fill="#63b8ff" stroke="#63b8ff" points="1586.81,-385.79 1586.87,-375.2 1580.22,-383.44 1586.81,-385.79"/>
</a>
</g>
</g>
<!-- Node12 -->
<g id="Node000012" class="node">
<title>Node12</title>
<g id="a_Node000012"><a xlink:href="classiii__drone_1_1control_1_1CombinedDroneAwarenessHandler.html#a7075467ccff6c1c60eb8f1ab0876c2da" target="_top" xlink:title="Updates the given combined drone awareness from the gripper status. Triggers updates of gripper_open.">
<polygon fill="white" stroke="#666666" points="1462,-275 1182,-275 1182,-234 1462,-234 1462,-275"/>
<text text-anchor="start" x="1190" y="-263" font-family="Helvetica,sans-Serif" font-size="10.00">iii_drone::control</text>
<text text-anchor="start" x="1190" y="-252" font-family="Helvetica,sans-Serif" font-size="10.00">::CombinedDroneAwarenessHandler</text>
<text text-anchor="middle" x="1322" y="-241" font-family="Helvetica,sans-Serif" font-size="10.00">::updateCombinedDroneAwarenessFromGripperStatus</text>
</a>
</g>
</g>
<!-- Node1&#45;&gt;Node12 -->
<g id="edge15_Node000001_Node000012" class="edge">
<title>Node1&#45;&gt;Node12</title>
<g id="a_edge15_Node000001_Node000012"><a xlink:title=" ">
<path fill="none" stroke="#63b8ff" d="M1552,-328.58C1526.78,-313.81 1493.47,-296.02 1462,-284.5 1452.49,-281.02 1442.47,-277.89 1432.33,-275.08"/>
<polygon fill="#63b8ff" stroke="#63b8ff" points="1550.52,-331.77 1560.9,-333.86 1554.09,-325.75 1550.52,-331.77"/>
</a>
</g>
</g>
<!-- Node13 -->
<g id="Node000013" class="node">
<title>Node13</title>
<g id="a_Node000013"><a xlink:href="classiii__drone_1_1control_1_1CombinedDroneAwarenessHandler.html#a6c9bf5862bcb8d6240db1eb7bb2aa221" target="_top" xlink:title="Updates the combined drone awareness from the powerline. Triggers updates of target_cable_position_kn...">
<polygon fill="white" stroke="#666666" points="1452.5,-538 1191.5,-538 1191.5,-497 1452.5,-497 1452.5,-538"/>
<text text-anchor="start" x="1199.5" y="-526" font-family="Helvetica,sans-Serif" font-size="10.00">iii_drone::control</text>
<text text-anchor="start" x="1199.5" y="-515" font-family="Helvetica,sans-Serif" font-size="10.00">::CombinedDroneAwarenessHandler</text>
<text text-anchor="middle" x="1322" y="-504" font-family="Helvetica,sans-Serif" font-size="10.00">::updateCombinedDroneAwarenessFromPowerline</text>
</a>
</g>
</g>
<!-- Node1&#45;&gt;Node13 -->
<g id="edge16_Node000001_Node000013" class="edge">
<title>Node1&#45;&gt;Node13</title>
<g id="a_edge16_Node000001_Node000013"><a xlink:title=" ">
<path fill="none" stroke="#63b8ff" d="M1571.87,-383.04C1548.11,-412.38 1507.26,-457.23 1462,-482.5 1451.9,-488.14 1440.88,-492.89 1429.61,-496.88"/>
<polygon fill="#63b8ff" stroke="#63b8ff" points="1574.61,-385.21 1578.11,-375.21 1569.14,-380.85 1574.61,-385.21"/>
</a>
</g>
</g>
<!-- Node14 -->
<g id="Node000014" class="node">
<title>Node14</title>
<g id="a_Node000014"><a xlink:href="classiii__drone_1_1control_1_1CombinedDroneAwarenessHandler.html#ab9e4d04b91ff4a8df5113ccdc0356484" target="_top" xlink:title="Updates the given combined drone awareness from the powerline. Triggers updates of target_cable_posit...">
<polygon fill="white" stroke="#666666" points="1137,-223 876,-223 876,-182 1137,-182 1137,-223"/>
<text text-anchor="start" x="884" y="-211" font-family="Helvetica,sans-Serif" font-size="10.00">iii_drone::control</text>
<text text-anchor="start" x="884" y="-200" font-family="Helvetica,sans-Serif" font-size="10.00">::CombinedDroneAwarenessHandler</text>
<text text-anchor="middle" x="1006.5" y="-189" font-family="Helvetica,sans-Serif" font-size="10.00">::updateCombinedDroneAwarenessFromPowerline</text>
</a>
</g>
</g>
<!-- Node1&#45;&gt;Node14 -->
<g id="edge20_Node000001_Node000014" class="edge">
<title>Node1&#45;&gt;Node14</title>
<g id="a_edge20_Node000001_Node000014"><a xlink:title=" ">
<path fill="none" stroke="#63b8ff" d="M1573.97,-325.47C1551.21,-294.41 1510.46,-246.75 1462,-225.5 1405.83,-200.87 1250.64,-197.66 1137.18,-198.94"/>
<polygon fill="#63b8ff" stroke="#63b8ff" points="1571.23,-327.66 1579.9,-333.76 1576.93,-323.59 1571.23,-327.66"/>
</a>
</g>
</g>
<!-- Node15 -->
<g id="Node000015" class="node">
<title>Node15</title>
<g id="a_Node000015"><a xlink:href="classiii__drone_1_1control_1_1CombinedDroneAwarenessHandler.html#ad188c61fd53e863b42cbd21c67d9bbf3" target="_top" xlink:title="Updates the combined drone awareness from the target adapter. Triggers updates of target_adapter,...">
<polygon fill="white" stroke="#666666" points="1443.5,-334 1200.5,-334 1200.5,-293 1443.5,-293 1443.5,-334"/>
<text text-anchor="start" x="1208.5" y="-322" font-family="Helvetica,sans-Serif" font-size="10.00">iii_drone::control</text>
<text text-anchor="start" x="1208.5" y="-311" font-family="Helvetica,sans-Serif" font-size="10.00">::CombinedDroneAwarenessHandler</text>
<text text-anchor="middle" x="1322" y="-300" font-family="Helvetica,sans-Serif" font-size="10.00">::updateCombinedDroneAwarenessFromTarget</text>
</a>
</g>
</g>
<!-- Node1&#45;&gt;Node15 -->
<g id="edge21_Node000001_Node000015" class="edge">
<title>Node1&#45;&gt;Node15</title>
<g id="a_edge21_Node000001_Node000015"><a xlink:title=" ">
<path fill="none" stroke="#63b8ff" d="M1487.83,-338.48C1473.37,-336.29 1458.44,-334.03 1443.74,-331.8"/>
<polygon fill="#63b8ff" stroke="#63b8ff" points="1487.34,-341.95 1497.75,-339.99 1488.39,-335.03 1487.34,-341.95"/>
</a>
</g>
</g>
<!-- Node22 -->
<g id="Node000022" class="node">
<title>Node22</title>
<g id="a_Node000022"><a xlink:href="classiii__drone_1_1control_1_1CombinedDroneAwarenessHandler.html#a035e99c1ac97de2388356b0ac3260108" target="_top" xlink:title="Updates the given combined drone awareness from the target adapter. Triggers updates of target_adapte...">
<polygon fill="white" stroke="#666666" points="1443.5,-41 1200.5,-41 1200.5,0 1443.5,0 1443.5,-41"/>
<text text-anchor="start" x="1208.5" y="-29" font-family="Helvetica,sans-Serif" font-size="10.00">iii_drone::control</text>
<text text-anchor="start" x="1208.5" y="-18" font-family="Helvetica,sans-Serif" font-size="10.00">::CombinedDroneAwarenessHandler</text>
<text text-anchor="middle" x="1322" y="-7" font-family="Helvetica,sans-Serif" font-size="10.00">::updateCombinedDroneAwarenessFromTarget</text>
</a>
</g>
</g>
<!-- Node1&#45;&gt;Node22 -->
<g id="edge30_Node000001_Node000022" class="edge">
<title>Node1&#45;&gt;Node22</title>
<g id="a_edge30_Node000001_Node000022"><a xlink:title=" ">
<path fill="none" stroke="#63b8ff" d="M1589.01,-323.63C1578.49,-262.72 1546.38,-126.8 1462,-55.5 1455.35,-49.88 1447.92,-45.14 1440.04,-41.15"/>
<polygon fill="#63b8ff" stroke="#63b8ff" points="1585.6,-324.47 1590.68,-333.76 1592.51,-323.33 1585.6,-324.47"/>
</a>
</g>
</g>
<!-- Node23 -->
<g id="Node000023" class="node">
<title>Node23</title>
<g id="a_Node000023"><a xlink:href="classiii__drone_1_1control_1_1CombinedDroneAwarenessHandler.html#a4e034376edf0fa35dfb08d24220826ab" target="_top" xlink:title="Updates the combined drone awareness from the vehicle odometry. Triggers updates of ground altitude e...">
<polygon fill="white" stroke="#666666" points="1446,-422.5 1198,-422.5 1198,-370.5 1446,-370.5 1446,-422.5"/>
<text text-anchor="start" x="1206" y="-410.5" font-family="Helvetica,sans-Serif" font-size="10.00">iii_drone::control</text>
<text text-anchor="start" x="1206" y="-399.5" font-family="Helvetica,sans-Serif" font-size="10.00">::CombinedDroneAwarenessHandler</text>
<text text-anchor="start" x="1206" y="-388.5" font-family="Helvetica,sans-Serif" font-size="10.00">::updateCombinedDroneAwarenessFromVehicle</text>
<text text-anchor="middle" x="1322" y="-377.5" font-family="Helvetica,sans-Serif" font-size="10.00">Odometry</text>
</a>
</g>
</g>
<!-- Node1&#45;&gt;Node23 -->
<g id="edge31_Node000001_Node000023" class="edge">
<title>Node1&#45;&gt;Node23</title>
<g id="a_edge31_Node000001_Node000023"><a xlink:title=" ">
<path fill="none" stroke="#63b8ff" d="M1487.86,-370.9C1474.17,-373.03 1460.05,-375.22 1446.1,-377.39"/>
<polygon fill="#63b8ff" stroke="#63b8ff" points="1488.41,-374.36 1497.75,-369.37 1487.33,-367.44 1488.41,-374.36"/>
</a>
</g>
</g>
<!-- Node24 -->
<g id="Node000024" class="node">
<title>Node24</title>
<g id="a_Node000024"><a xlink:href="classiii__drone_1_1control_1_1CombinedDroneAwarenessHandler.html#a197c146061816403499a4e652a8fe646" target="_top" xlink:title="Updates the given combined drone awareness from the vehicle odometry. Triggers updates of ground alti...">
<polygon fill="white" stroke="#666666" points="1130.5,-162.5 882.5,-162.5 882.5,-110.5 1130.5,-110.5 1130.5,-162.5"/>
<text text-anchor="start" x="890.5" y="-150.5" font-family="Helvetica,sans-Serif" font-size="10.00">iii_drone::control</text>
<text text-anchor="start" x="890.5" y="-139.5" font-family="Helvetica,sans-Serif" font-size="10.00">::CombinedDroneAwarenessHandler</text>
<text text-anchor="start" x="890.5" y="-128.5" font-family="Helvetica,sans-Serif" font-size="10.00">::updateCombinedDroneAwarenessFromVehicle</text>
<text text-anchor="middle" x="1006.5" y="-117.5" font-family="Helvetica,sans-Serif" font-size="10.00">Odometry</text>
</a>
</g>
</g>
<!-- Node1&#45;&gt;Node24 -->
<g id="edge35_Node000001_Node000024" class="edge">
<title>Node1&#45;&gt;Node24</title>
<g id="a_edge35_Node000001_Node000024"><a xlink:title=" ">
<path fill="none" stroke="#63b8ff" d="M1586.31,-324.05C1572.35,-272.69 1536.2,-170.27 1462,-127.5 1407.68,-96.19 1245.73,-107.21 1130.67,-120.08"/>
<polygon fill="#63b8ff" stroke="#63b8ff" points="1582.97,-325.11 1588.88,-333.9 1589.74,-323.34 1582.97,-325.11"/>
</a>
</g>
</g>
<!-- Node25 -->
<g id="Node000025" class="node">
<title>Node25</title>
<g id="a_Node000025"><a xlink:href="classiii__drone_1_1control_1_1CombinedDroneAwarenessHandler.html#ad999fbf4444ded0e2b496089e6cd14ae" target="_top" xlink:title="Updates the combined drone awareness from the vehicle status. Triggers updates of armed,...">
<polygon fill="white" stroke="#666666" points="1461.5,-692 1182.5,-692 1182.5,-651 1461.5,-651 1461.5,-692"/>
<text text-anchor="start" x="1190.5" y="-680" font-family="Helvetica,sans-Serif" font-size="10.00">iii_drone::control</text>
<text text-anchor="start" x="1190.5" y="-669" font-family="Helvetica,sans-Serif" font-size="10.00">::CombinedDroneAwarenessHandler</text>
<text text-anchor="middle" x="1322" y="-658" font-family="Helvetica,sans-Serif" font-size="10.00">::updateCombinedDroneAwarenessFromVehicleStatus</text>
</a>
</g>
</g>
<!-- Node1&#45;&gt;Node25 -->
<g id="edge36_Node000001_Node000025" class="edge">
<title>Node1&#45;&gt;Node25</title>
<g id="a_edge36_Node000001_Node000025"><a xlink:title=" ">
<path fill="none" stroke="#63b8ff" d="M1588.81,-384.98C1577.98,-444.42 1545.45,-575.83 1462,-642.5 1458.15,-645.58 1454.05,-648.35 1449.77,-650.85"/>
<polygon fill="#63b8ff" stroke="#63b8ff" points="1592.27,-385.53 1590.53,-375.08 1585.37,-384.33 1592.27,-385.53"/>
</a>
</g>
</g>
<!-- Node26 -->
<g id="Node000026" class="node">
<title>Node26</title>
<g id="a_Node000026"><a xlink:href="classiii__drone_1_1control_1_1CombinedDroneAwarenessHandler.html#a7055ad9c6b81c69e2f810d40c9448fcf" target="_top" xlink:title="Updates the given combined drone awareness from the vehicle status. Triggers updates of armed,...">
<polygon fill="white" stroke="#666666" points="1146,-91 867,-91 867,-50 1146,-50 1146,-91"/>
<text text-anchor="start" x="875" y="-79" font-family="Helvetica,sans-Serif" font-size="10.00">iii_drone::control</text>
<text text-anchor="start" x="875" y="-68" font-family="Helvetica,sans-Serif" font-size="10.00">::CombinedDroneAwarenessHandler</text>
<text text-anchor="middle" x="1006.5" y="-57" font-family="Helvetica,sans-Serif" font-size="10.00">::updateCombinedDroneAwarenessFromVehicleStatus</text>
</a>
</g>
</g>
<!-- Node1&#45;&gt;Node26 -->
<g id="edge40_Node000001_Node000026" class="edge">
<title>Node1&#45;&gt;Node26</title>
<g id="a_edge40_Node000001_Node000026"><a xlink:title=" ">
<path fill="none" stroke="#63b8ff" d="M1587.65,-324.16C1575.3,-269.23 1540.91,-154.21 1462,-102.5 1411.63,-69.5 1260.42,-64.43 1146.13,-65.75"/>
<polygon fill="#63b8ff" stroke="#63b8ff" points="1584.25,-324.96 1589.77,-334 1591.09,-323.48 1584.25,-324.96"/>
</a>
</g>
</g>
<!-- Node27 -->
<g id="Node000027" class="node">
<title>Node27</title>
<g id="a_Node000027"><a xlink:href="classiii__drone_1_1control_1_1CombinedDroneAwarenessHandler.html#aca25e593ebb1307381959a3b1e5a751c" target="_top" xlink:title="Updates the drone location of a combined drone awareness object based on current awareness informatio...">
<polygon fill="white" stroke="#666666" points="1418.5,-177 1225.5,-177 1225.5,-136 1418.5,-136 1418.5,-177"/>
<text text-anchor="start" x="1233.5" y="-165" font-family="Helvetica,sans-Serif" font-size="10.00">iii_drone::control</text>
<text text-anchor="start" x="1233.5" y="-154" font-family="Helvetica,sans-Serif" font-size="10.00">::CombinedDroneAwarenessHandler</text>
<text text-anchor="middle" x="1322" y="-143" font-family="Helvetica,sans-Serif" font-size="10.00">::updateDroneLocation</text>
</a>
</g>
</g>
<!-- Node1&#45;&gt;Node27 -->
<g id="edge41_Node000001_Node000027" class="edge">
<title>Node1&#45;&gt;Node27</title>
<g id="a_edge41_Node000001_Node000027"><a xlink:title=" ">
<path fill="none" stroke="#63b8ff" d="M1577.82,-325.1C1556.56,-288.15 1515.08,-225.47 1462,-191.5 1448.9,-183.12 1433.91,-176.74 1418.74,-171.89"/>
<polygon fill="#63b8ff" stroke="#63b8ff" points="1574.82,-326.91 1582.78,-333.91 1580.92,-323.48 1574.82,-326.91"/>
</a>
</g>
</g>
<!-- Node3 -->
<g id="Node000003" class="node">
<title>Node3</title>
<g id="a_Node000003"><a xlink:href="classiii__drone_1_1control_1_1maneuver_1_1ManeuverScheduler.html#acaa8f0628522b25bdd0c63dde8ee24f0" target="_top" xlink:title="Registers a maneuver with the maneuver scheduler. To be called from a maneuver server....">
<polygon fill="white" stroke="#666666" points="818.5,-795 643.5,-795 643.5,-754 818.5,-754 818.5,-795"/>
<text text-anchor="start" x="651.5" y="-783" font-family="Helvetica,sans-Serif" font-size="10.00">iii_drone::control</text>
<text text-anchor="start" x="651.5" y="-772" font-family="Helvetica,sans-Serif" font-size="10.00">::maneuver::ManeuverScheduler</text>
<text text-anchor="middle" x="731" y="-761" font-family="Helvetica,sans-Serif" font-size="10.00">::RegisterManeuver</text>
</a>
</g>
</g>
<!-- Node2&#45;&gt;Node3 -->
<g id="edge2_Node000002_Node000003" class="edge">
<title>Node2&#45;&gt;Node3</title>
<g id="a_edge2_Node000002_Node000003"><a xlink:title=" ">
<path fill="none" stroke="#63b8ff" d="M908.73,-793.89C879.46,-790.67 847.5,-787.17 818.91,-784.03"/>
<polygon fill="#63b8ff" stroke="#63b8ff" points="908.64,-797.4 918.96,-795.01 909.4,-790.44 908.64,-797.4"/>
</a>
</g>
</g>
<!-- Node4 -->
<g id="Node000004" class="node">
<title>Node4</title>
<g id="a_Node000004"><a xlink:href="classiii__drone_1_1control_1_1maneuver_1_1ManeuverScheduler.html#ab393b4204a5c4368ee503e9af8b27a22" target="_top" xlink:title="Registers a maneuver type with a maneuver server.">
<polygon fill="white" stroke="#666666" points="595,-795 420,-795 420,-754 595,-754 595,-795"/>
<text text-anchor="start" x="428" y="-783" font-family="Helvetica,sans-Serif" font-size="10.00">iii_drone::control</text>
<text text-anchor="start" x="428" y="-772" font-family="Helvetica,sans-Serif" font-size="10.00">::maneuver::ManeuverScheduler</text>
<text text-anchor="middle" x="507.5" y="-761" font-family="Helvetica,sans-Serif" font-size="10.00">::RegisterManeuverServer</text>
</a>
</g>
</g>
<!-- Node3&#45;&gt;Node4 -->
<g id="edge3_Node000003_Node000004" class="edge">
<title>Node3&#45;&gt;Node4</title>
<g id="a_edge3_Node000003_Node000004"><a xlink:title=" ">
<path fill="none" stroke="#63b8ff" d="M633.27,-774.5C620.55,-774.5 607.57,-774.5 595.03,-774.5"/>
<polygon fill="#63b8ff" stroke="#63b8ff" points="633.41,-778 643.41,-774.5 633.41,-771 633.41,-778"/>
</a>
</g>
</g>
<!-- Node5 -->
<g id="Node000005" class="node">
<title>Node5</title>
<g id="a_Node000005"><a xlink:href="classiii__drone_1_1control_1_1maneuver__controller__node_1_1ManeuverControllerNode.html#a1c587895df3c61bd6b748e97942cd619" target="_top" xlink:title="Creates and registers all maneuver servers with the maneuver scheduler.">
<polygon fill="white" stroke="#666666" points="384,-800.5 210,-800.5 210,-748.5 384,-748.5 384,-800.5"/>
<text text-anchor="start" x="218" y="-788.5" font-family="Helvetica,sans-Serif" font-size="10.00">iii_drone::control</text>
<text text-anchor="start" x="218" y="-777.5" font-family="Helvetica,sans-Serif" font-size="10.00">::maneuver_controller</text>
<text text-anchor="start" x="218" y="-766.5" font-family="Helvetica,sans-Serif" font-size="10.00">_node::ManeuverControllerNode</text>
<text text-anchor="middle" x="297" y="-755.5" font-family="Helvetica,sans-Serif" font-size="10.00">::registerManeuverServers</text>
</a>
</g>
</g>
<!-- Node4&#45;&gt;Node5 -->
<g id="edge4_Node000004_Node000005" class="edge">
<title>Node4&#45;&gt;Node5</title>
<g id="a_edge4_Node000004_Node000005"><a xlink:title=" ">
<path fill="none" stroke="#63b8ff" d="M409.82,-774.5C401.21,-774.5 392.52,-774.5 384.01,-774.5"/>
<polygon fill="#63b8ff" stroke="#63b8ff" points="409.89,-778 419.89,-774.5 409.89,-771 409.89,-778"/>
</a>
</g>
</g>
<!-- Node6 -->
<g id="Node000006" class="node">
<title>Node6</title>
<g id="a_Node000006"><a xlink:href="classiii__drone_1_1control_1_1maneuver__controller__node_1_1ManeuverControllerNode.html#a291f0abf320443ed6ad4a248ba028b8c" target="_top" xlink:title="Constructor. Creates the node, initializes the configurator, the transform buffer and listener,...">
<polygon fill="white" stroke="#666666" points="174,-800.5 0,-800.5 0,-748.5 174,-748.5 174,-800.5"/>
<text text-anchor="start" x="8" y="-788.5" font-family="Helvetica,sans-Serif" font-size="10.00">iii_drone::control</text>
<text text-anchor="start" x="8" y="-777.5" font-family="Helvetica,sans-Serif" font-size="10.00">::maneuver_controller</text>
<text text-anchor="start" x="8" y="-766.5" font-family="Helvetica,sans-Serif" font-size="10.00">_node::ManeuverControllerNode</text>
<text text-anchor="middle" x="87" y="-755.5" font-family="Helvetica,sans-Serif" font-size="10.00">::ManeuverControllerNode</text>
</a>
</g>
</g>
<!-- Node5&#45;&gt;Node6 -->
<g id="edge5_Node000005_Node000006" class="edge">
<title>Node5&#45;&gt;Node6</title>
<g id="a_edge5_Node000005_Node000006"><a xlink:title=" ">
<path fill="none" stroke="#63b8ff" d="M199.84,-774.5C191.23,-774.5 182.55,-774.5 174.04,-774.5"/>
<polygon fill="#63b8ff" stroke="#63b8ff" points="199.9,-778 209.9,-774.5 199.9,-771 199.9,-778"/>
</a>
</g>
</g>
<!-- Node8 -->
<g id="Node000008" class="node">
<title>Node8</title>
<g id="a_Node000008"><a xlink:href="classiii__drone_1_1control_1_1maneuver_1_1ManeuverScheduler.html#a6b694f0329c16fecaf0395fc4ef3f597" target="_top" xlink:title="Returns whether a given maneuver can execute later.">
<polygon fill="white" stroke="#666666" points="1094,-766 919,-766 919,-725 1094,-725 1094,-766"/>
<text text-anchor="start" x="927" y="-754" font-family="Helvetica,sans-Serif" font-size="10.00">iii_drone::control</text>
<text text-anchor="start" x="927" y="-743" font-family="Helvetica,sans-Serif" font-size="10.00">::maneuver::ManeuverScheduler</text>
<text text-anchor="middle" x="1006.5" y="-732" font-family="Helvetica,sans-Serif" font-size="10.00">::CanSchedule</text>
</a>
</g>
</g>
<!-- Node7&#45;&gt;Node8 -->
<g id="edge7_Node000007_Node000008" class="edge">
<title>Node7&#45;&gt;Node8</title>
<g id="a_edge7_Node000007_Node000008"><a xlink:title=" ">
<path fill="none" stroke="#63b8ff" d="M1223.96,-747.57C1182.43,-747.17 1134.33,-746.71 1094.04,-746.33"/>
<polygon fill="#63b8ff" stroke="#63b8ff" points="1224.06,-751.07 1234.09,-747.67 1224.12,-744.07 1224.06,-751.07"/>
</a>
</g>
</g>
<!-- Node8&#45;&gt;Node3 -->
<g id="edge8_Node000008_Node000003" class="edge">
<title>Node8&#45;&gt;Node3</title>
<g id="a_edge8_Node000008_Node000003"><a xlink:title=" ">
<path fill="none" stroke="#63b8ff" d="M908.73,-755.76C879.46,-758.86 847.5,-762.25 818.91,-765.28"/>
<polygon fill="#63b8ff" stroke="#63b8ff" points="909.39,-759.21 918.96,-754.68 908.65,-752.25 909.39,-759.21"/>
</a>
</g>
</g>
<!-- Node10 -->
<g id="Node000010" class="node">
<title>Node10</title>
<g id="a_Node000010"><a xlink:href="classiii__drone_1_1control_1_1CombinedDroneAwarenessHandler.html#a45046cb4335f9a4fe757b195ae4851ca" target="_top" xlink:title="Construct a new CombinedDroneAwarenessHandler object, initializing all the subscriptions.">
<polygon fill="white" stroke="#666666" points="827.5,-544 634.5,-544 634.5,-503 827.5,-503 827.5,-544"/>
<text text-anchor="start" x="642.5" y="-532" font-family="Helvetica,sans-Serif" font-size="10.00">iii_drone::control</text>
<text text-anchor="start" x="642.5" y="-521" font-family="Helvetica,sans-Serif" font-size="10.00">::CombinedDroneAwarenessHandler</text>
<text text-anchor="middle" x="731" y="-510" font-family="Helvetica,sans-Serif" font-size="10.00">::CombinedDroneAwarenessHandler</text>
</a>
</g>
</g>
<!-- Node9&#45;&gt;Node10 -->
<g id="edge10_Node000009_Node000010" class="edge">
<title>Node9&#45;&gt;Node10</title>
<g id="a_edge10_Node000009_Node000010"><a xlink:title=" ">
<path fill="none" stroke="#63b8ff" d="M899.75,-493.45C875.99,-497.7 850.92,-502.19 827.6,-506.37"/>
<polygon fill="#63b8ff" stroke="#63b8ff" points="900.62,-496.85 909.84,-491.64 899.38,-489.96 900.62,-496.85"/>
</a>
</g>
</g>
<!-- Node11&#45;&gt;Node9 -->
<g id="edge13_Node000011_Node000009" class="edge">
<title>Node11&#45;&gt;Node9</title>
<g id="a_edge13_Node000011_Node000009"><a xlink:title=" ">
<path fill="none" stroke="#63b8ff" d="M1199.18,-571.13C1193.33,-569.37 1187.58,-567.49 1182,-565.5 1130.2,-546.99 1074.53,-515.77 1040.36,-495.15"/>
<polygon fill="#63b8ff" stroke="#63b8ff" points="1198.52,-574.58 1209.1,-573.98 1200.46,-567.85 1198.52,-574.58"/>
</a>
</g>
</g>
<!-- Node11&#45;&gt;Node10 -->
<g id="edge12_Node000011_Node000010" class="edge">
<title>Node11&#45;&gt;Node10</title>
<g id="a_edge12_Node000011_Node000010"><a xlink:title=" ">
<path fill="none" stroke="#63b8ff" d="M1171.78,-576.51C1063.81,-563.5 921.08,-546.29 827.95,-535.07"/>
<polygon fill="#63b8ff" stroke="#63b8ff" points="1171.44,-580 1181.79,-577.72 1172.28,-573.05 1171.44,-580"/>
</a>
</g>
</g>
<!-- Node11&#45;&gt;Node11 -->
<g id="edge14_Node000011_Node000011" class="edge">
<title>Node11&#45;&gt;Node11</title>
<g id="a_edge14_Node000011_Node000011"><a xlink:title=" ">
<path fill="none" stroke="#63b8ff" d="M1368.8,-624.96C1361.84,-629.74 1346.24,-633 1322,-633 1283.22,-633 1266.55,-624.65 1272.01,-615.1"/>
<polygon fill="#63b8ff" stroke="#63b8ff" points="1372.24,-625.69 1371.99,-615.1 1365.58,-623.53 1372.24,-625.69"/>
</a>
</g>
</g>
<!-- Node13&#45;&gt;Node9 -->
<g id="edge18_Node000013_Node000009" class="edge">
<title>Node13&#45;&gt;Node9</title>
<g id="a_edge18_Node000013_Node000009"><a xlink:title=" ">
<path fill="none" stroke="#63b8ff" d="M1181.16,-498.32C1154.81,-494.71 1127.81,-491 1103.19,-487.63"/>
<polygon fill="#63b8ff" stroke="#63b8ff" points="1180.84,-501.81 1191.22,-499.7 1181.79,-494.87 1180.84,-501.81"/>
</a>
</g>
</g>
<!-- Node13&#45;&gt;Node10 -->
<g id="edge17_Node000013_Node000010" class="edge">
<title>Node13&#45;&gt;Node10</title>
<g id="a_edge17_Node000013_Node000010"><a xlink:title=" ">
<path fill="none" stroke="#63b8ff" d="M1181.29,-518.92C1072.31,-520.03 923.83,-521.55 827.94,-522.52"/>
<polygon fill="#63b8ff" stroke="#63b8ff" points="1181.41,-522.42 1191.38,-518.82 1181.34,-515.42 1181.41,-522.42"/>
</a>
</g>
</g>
<!-- Node13&#45;&gt;Node13 -->
<g id="edge19_Node000013_Node000013" class="edge">
<title>Node13&#45;&gt;Node13</title>
<g id="a_edge19_Node000013_Node000013"><a xlink:title=" ">
<path fill="none" stroke="#63b8ff" d="M1368.8,-547.96C1361.84,-552.74 1346.24,-556 1322,-556 1283.22,-556 1266.55,-547.65 1272.01,-538.1"/>
<polygon fill="#63b8ff" stroke="#63b8ff" points="1372.24,-548.69 1371.99,-538.1 1365.58,-546.53 1372.24,-548.69"/>
</a>
</g>
</g>
<!-- Node15&#45;&gt;Node9 -->
<g id="edge28_Node000015_Node000009" class="edge">
<title>Node15&#45;&gt;Node9</title>
<g id="a_edge28_Node000015_Node000009"><a xlink:title=" ">
<path fill="none" stroke="#63b8ff" d="M1241.15,-337.37C1221.44,-344.26 1200.64,-352.41 1182,-361.5 1126.85,-388.39 1067.99,-429.39 1034.68,-453.91"/>
<polygon fill="#63b8ff" stroke="#63b8ff" points="1242.41,-340.64 1250.73,-334.08 1240.14,-334.02 1242.41,-340.64"/>
</a>
</g>
</g>
<!-- Node15&#45;&gt;Node15 -->
<g id="edge29_Node000015_Node000015" class="edge">
<title>Node15&#45;&gt;Node15</title>
<g id="a_edge29_Node000015_Node000015"><a xlink:title=" ">
<path fill="none" stroke="#63b8ff" d="M1368.8,-343.96C1361.84,-348.74 1346.24,-352 1322,-352 1283.22,-352 1266.55,-343.65 1272.01,-334.1"/>
<polygon fill="#63b8ff" stroke="#63b8ff" points="1372.24,-344.69 1371.99,-334.1 1365.58,-342.53 1372.24,-344.69"/>
</a>
</g>
</g>
<!-- Node16 -->
<g id="Node000016" class="node">
<title>Node16</title>
<g id="a_Node000016"><a xlink:href="classiii__drone_1_1control_1_1CombinedDroneAwarenessHandler.html#afa1110206b605274871d3a74bbfe253f" target="_top" xlink:title="Clears the current target.">
<polygon fill="white" stroke="#666666" points="1103,-364 910,-364 910,-323 1103,-323 1103,-364"/>
<text text-anchor="start" x="918" y="-352" font-family="Helvetica,sans-Serif" font-size="10.00">iii_drone::control</text>
<text text-anchor="start" x="918" y="-341" font-family="Helvetica,sans-Serif" font-size="10.00">::CombinedDroneAwarenessHandler</text>
<text text-anchor="middle" x="1006.5" y="-330" font-family="Helvetica,sans-Serif" font-size="10.00">::ClearTarget</text>
</a>
</g>
</g>
<!-- Node15&#45;&gt;Node16 -->
<g id="edge22_Node000015_Node000016" class="edge">
<title>Node15&#45;&gt;Node16</title>
<g id="a_edge22_Node000015_Node000016"><a xlink:title=" ">
<path fill="none" stroke="#63b8ff" d="M1190.03,-326.03C1160.98,-328.81 1130.73,-331.71 1103.39,-334.32"/>
<polygon fill="#63b8ff" stroke="#63b8ff" points="1190.62,-329.49 1200.24,-325.06 1189.95,-322.52 1190.62,-329.49"/>
</a>
</g>
</g>
<!-- Node21 -->
<g id="Node000021" class="node">
<title>Node21</title>
<g id="a_Node000021"><a xlink:href="classiii__drone_1_1control_1_1CombinedDroneAwarenessHandler.html#a884a60310da87efcba07a047865cc183" target="_top" xlink:title="Sets the current target.">
<polygon fill="white" stroke="#666666" points="1103,-305 910,-305 910,-264 1103,-264 1103,-305"/>
<text text-anchor="start" x="918" y="-293" font-family="Helvetica,sans-Serif" font-size="10.00">iii_drone::control</text>
<text text-anchor="start" x="918" y="-282" font-family="Helvetica,sans-Serif" font-size="10.00">::CombinedDroneAwarenessHandler</text>
<text text-anchor="middle" x="1006.5" y="-271" font-family="Helvetica,sans-Serif" font-size="10.00">::SetTarget</text>
</a>
</g>
</g>
<!-- Node15&#45;&gt;Node21 -->
<g id="edge27_Node000015_Node000021" class="edge">
<title>Node15&#45;&gt;Node21</title>
<g id="a_edge27_Node000015_Node000021"><a xlink:title=" ">
<path fill="none" stroke="#63b8ff" d="M1190.03,-301.38C1160.98,-298.7 1130.73,-295.9 1103.39,-293.37"/>
<polygon fill="#63b8ff" stroke="#63b8ff" points="1189.96,-304.89 1200.24,-302.33 1190.61,-297.92 1189.96,-304.89"/>
</a>
</g>
</g>
<!-- Node17 -->
<g id="Node000017" class="node">
<title>Node17</title>
<g id="a_Node000017"><a xlink:href="classiii__drone_1_1control_1_1maneuver_1_1FlyToObjectManeuverServer.html#a2afb702a953aa331d30fa250830ec4b0" target="_top" xlink:title="Publishes the result and finalizes the maneuver according to the maneuver result type.">
<polygon fill="white" stroke="#666666" points="823,-334 639,-334 639,-293 823,-293 823,-334"/>
<text text-anchor="start" x="647" y="-322" font-family="Helvetica,sans-Serif" font-size="10.00">iii_drone::control</text>
<text text-anchor="start" x="647" y="-311" font-family="Helvetica,sans-Serif" font-size="10.00">::maneuver::FlyToObjectManeuver</text>
<text text-anchor="middle" x="731" y="-300" font-family="Helvetica,sans-Serif" font-size="10.00">Server::publishResultAndFinalize</text>
</a>
</g>
</g>
<!-- Node16&#45;&gt;Node17 -->
<g id="edge23_Node000016_Node000017" class="edge">
<title>Node16&#45;&gt;Node17</title>
<g id="a_edge23_Node000016_Node000017"><a xlink:title=" ">
<path fill="none" stroke="#63b8ff" d="M899.84,-331.91C874.48,-329.13 847.63,-326.18 823.01,-323.48"/>
<polygon fill="#63b8ff" stroke="#63b8ff" points="899.52,-335.4 909.84,-333.01 900.28,-328.44 899.52,-335.4"/>
</a>
</g>
</g>
<!-- Node18 -->
<g id="Node000018" class="node">
<title>Node18</title>
<g id="a_Node000018"><a xlink:href="classiii__drone_1_1control_1_1maneuver_1_1HoverByObjectManeuverServer.html#a80336b2dc5cac8ed93bfe98b420c8e4d" target="_top" xlink:title="Publishes the result and finalizes the maneuver according to the maneuver result type.">
<polygon fill="white" stroke="#666666" points="831,-275 631,-275 631,-234 831,-234 831,-275"/>
<text text-anchor="start" x="639" y="-263" font-family="Helvetica,sans-Serif" font-size="10.00">iii_drone::control</text>
<text text-anchor="start" x="639" y="-252" font-family="Helvetica,sans-Serif" font-size="10.00">::maneuver::HoverByObjectManeuver</text>
<text text-anchor="middle" x="731" y="-241" font-family="Helvetica,sans-Serif" font-size="10.00">Server::publishResultAndFinalize</text>
</a>
</g>
</g>
<!-- Node16&#45;&gt;Node18 -->
<g id="edge24_Node000016_Node000018" class="edge">
<title>Node16&#45;&gt;Node18</title>
<g id="a_edge24_Node000016_Node000018"><a xlink:title=" ">
<path fill="none" stroke="#63b8ff" d="M900.27,-327.19C888.77,-323.73 877.45,-319.56 867,-314.5 848.25,-305.43 849.33,-294.38 831,-284.5 824.52,-281.01 817.57,-277.86 810.48,-275.04"/>
<polygon fill="#63b8ff" stroke="#63b8ff" points="899.38,-330.57 909.96,-329.92 901.28,-323.84 899.38,-330.57"/>
</a>
</g>
</g>
<!-- Node19 -->
<g id="Node000019" class="node">
<title>Node19</title>
<g id="a_Node000019"><a xlink:href="classiii__drone_1_1control_1_1maneuver_1_1HoverOnCableManeuverServer.html#aa06efd9bfb0a37553e8599a3bc5060f8" target="_top" xlink:title="Publish the result and finalize the maneuver based on the maneuver result type.">
<polygon fill="white" stroke="#666666" points="829.5,-452 632.5,-452 632.5,-411 829.5,-411 829.5,-452"/>
<text text-anchor="start" x="640.5" y="-440" font-family="Helvetica,sans-Serif" font-size="10.00">iii_drone::control</text>
<text text-anchor="start" x="640.5" y="-429" font-family="Helvetica,sans-Serif" font-size="10.00">::maneuver::HoverOnCableManeuver</text>
<text text-anchor="middle" x="731" y="-418" font-family="Helvetica,sans-Serif" font-size="10.00">Server::publishResultAndFinalize</text>
</a>
</g>
</g>
<!-- Node16&#45;&gt;Node19 -->
<g id="edge25_Node000016_Node000019" class="edge">
<title>Node16&#45;&gt;Node19</title>
<g id="a_edge25_Node000016_Node000019"><a xlink:title=" ">
<path fill="none" stroke="#63b8ff" d="M937,-367.39C904.91,-378.39 866.1,-391.43 831,-402.5 822.12,-405.3 812.76,-408.16 803.49,-410.94"/>
<polygon fill="#63b8ff" stroke="#63b8ff" points="938.41,-370.6 946.73,-364.04 936.14,-363.98 938.41,-370.6"/>
</a>
</g>
</g>
<!-- Node20 -->
<g id="Node000020" class="node">
<title>Node20</title>
<g id="a_Node000020"><a xlink:href="classiii__drone_1_1control_1_1maneuver_1_1HoverManeuverServer.html#a95f116b1ce7f283f69b3f2a5d5a5fe4d" target="_top" xlink:title="Starts the execution of the maneuver. Registers the current drone state as the hover reference.">
<polygon fill="white" stroke="#666666" points="825,-393 637,-393 637,-352 825,-352 825,-393"/>
<text text-anchor="start" x="645" y="-381" font-family="Helvetica,sans-Serif" font-size="10.00">iii_drone::control</text>
<text text-anchor="start" x="645" y="-370" font-family="Helvetica,sans-Serif" font-size="10.00">::maneuver::HoverManeuverServer</text>
<text text-anchor="middle" x="731" y="-359" font-family="Helvetica,sans-Serif" font-size="10.00">::startExecution</text>
</a>
</g>
</g>
<!-- Node16&#45;&gt;Node20 -->
<g id="edge26_Node000016_Node000020" class="edge">
<title>Node16&#45;&gt;Node20</title>
<g id="a_edge26_Node000016_Node000020"><a xlink:title=" ">
<path fill="none" stroke="#63b8ff" d="M899.78,-354.71C875.23,-357.31 849.27,-360.07 825.3,-362.61"/>
<polygon fill="#63b8ff" stroke="#63b8ff" points="900.27,-358.18 909.84,-353.64 899.53,-351.22 900.27,-358.18"/>
</a>
</g>
</g>
<!-- Node23&#45;&gt;Node9 -->
<g id="edge33_Node000023_Node000009" class="edge">
<title>Node23&#45;&gt;Node9</title>
<g id="a_edge33_Node000023_Node000009"><a xlink:title=" ">
<path fill="none" stroke="#63b8ff" d="M1206.44,-425C1167.84,-434.61 1125.54,-445.13 1089.92,-453.99"/>
<polygon fill="#63b8ff" stroke="#63b8ff" points="1207.31,-428.39 1216.17,-422.58 1205.62,-421.6 1207.31,-428.39"/>
</a>
</g>
</g>
<!-- Node23&#45;&gt;Node10 -->
<g id="edge32_Node000023_Node000010" class="edge">
<title>Node23&#45;&gt;Node10</title>
<g id="a_edge32_Node000023_Node000010"><a xlink:title=" ">
<path fill="none" stroke="#63b8ff" d="M1187.46,-396.46C1095.36,-399.89 971.23,-411.45 867,-445.5 845.97,-452.37 796.73,-482.28 763.9,-503"/>
<polygon fill="#63b8ff" stroke="#63b8ff" points="1187.81,-399.95 1197.68,-396.11 1187.57,-392.95 1187.81,-399.95"/>
</a>
</g>
</g>
<!-- Node23&#45;&gt;Node23 -->
<g id="edge34_Node000023_Node000023" class="edge">
<title>Node23&#45;&gt;Node23</title>
<g id="a_edge34_Node000023_Node000023"><a xlink:title=" ">
<path fill="none" stroke="#63b8ff" d="M1368.26,-431.72C1361.06,-436.96 1345.64,-440.5 1322,-440.5 1286.41,-440.5 1269.44,-432.46 1271.11,-422.7"/>
<polygon fill="#63b8ff" stroke="#63b8ff" points="1371.44,-433.19 1372.89,-422.7 1365.21,-430 1371.44,-433.19"/>
</a>
</g>
</g>
<!-- Node25&#45;&gt;Node9 -->
<g id="edge38_Node000025_Node000009" class="edge">
<title>Node25&#45;&gt;Node9</title>
<g id="a_edge38_Node000025_Node000009"><a xlink:title=" ">
<path fill="none" stroke="#63b8ff" d="M1191.04,-646.92C1187.96,-645.53 1184.94,-644.05 1182,-642.5 1111.54,-605.27 1049.78,-531.1 1022.44,-495.08"/>
<polygon fill="#63b8ff" stroke="#63b8ff" points="1189.86,-650.22 1200.44,-650.86 1192.57,-643.77 1189.86,-650.22"/>
</a>
</g>
</g>
<!-- Node25&#45;&gt;Node10 -->
<g id="edge37_Node000025_Node000010" class="edge">
<title>Node25&#45;&gt;Node10</title>
<g id="a_edge37_Node000025_Node000010"><a xlink:title=" ">
<path fill="none" stroke="#63b8ff" d="M1203.8,-649C1111.58,-630.38 980.17,-601.81 867,-569.5 840.81,-562.02 812.2,-552.48 788.09,-544.02"/>
<polygon fill="#63b8ff" stroke="#63b8ff" points="1203.23,-652.46 1213.72,-651 1204.61,-645.59 1203.23,-652.46"/>
</a>
</g>
</g>
<!-- Node25&#45;&gt;Node25 -->
<g id="edge39_Node000025_Node000025" class="edge">
<title>Node25&#45;&gt;Node25</title>
<g id="a_edge39_Node000025_Node000025"><a xlink:title=" ">
<path fill="none" stroke="#63b8ff" d="M1368.8,-701.96C1361.84,-706.74 1346.24,-710 1322,-710 1283.22,-710 1266.55,-701.65 1272.01,-692.1"/>
<polygon fill="#63b8ff" stroke="#63b8ff" points="1372.24,-702.69 1371.99,-692.1 1365.58,-700.53 1372.24,-702.69"/>
</a>
</g>
</g>
<!-- Node27&#45;&gt;Node14 -->
<g id="edge42_Node000027_Node000014" class="edge">
<title>Node27&#45;&gt;Node14</title>
<g id="a_edge42_Node000027_Node000014"><a xlink:title=" ">
<path fill="none" stroke="#63b8ff" d="M1215.34,-172C1190.2,-175.69 1163.1,-179.67 1137.03,-183.49"/>
<polygon fill="#63b8ff" stroke="#63b8ff" points="1215.85,-175.47 1225.24,-170.55 1214.83,-168.54 1215.85,-175.47"/>
</a>
</g>
</g>
<!-- Node27&#45;&gt;Node24 -->
<g id="edge43_Node000027_Node000024" class="edge">
<title>Node27&#45;&gt;Node24</title>
<g id="a_edge43_Node000027_Node000024"><a xlink:title=" ">
<path fill="none" stroke="#63b8ff" d="M1214.98,-149.74C1187.92,-148.01 1158.59,-146.14 1130.75,-144.36"/>
<polygon fill="#63b8ff" stroke="#63b8ff" points="1215.03,-153.25 1225.24,-150.39 1215.48,-146.26 1215.03,-153.25"/>
</a>
</g>
</g>
<!-- Node27&#45;&gt;Node26 -->
<g id="edge44_Node000027_Node000026" class="edge">
<title>Node27&#45;&gt;Node26</title>
<g id="a_edge44_Node000027_Node000026"><a xlink:title=" ">
<path fill="none" stroke="#63b8ff" d="M1250.2,-132.75C1218.5,-122.51 1180.56,-110.78 1146,-101.5 1132.55,-97.89 1118.3,-94.36 1104.24,-91.06"/>
<polygon fill="#63b8ff" stroke="#63b8ff" points="1249.23,-136.12 1259.82,-135.88 1251.39,-129.46 1249.23,-136.12"/>
</a>
</g>
</g>
</g>
</svg>

<g id="navigator" transform="translate(0 0)" fill="#404254">
  <rect fill="#f2f5e9" fill-opacity="0.5" stroke="#606060" stroke-width=".5" x="0" y="0" width="60" height="60"/>
  <use id="zoomplus" xlink:href="#zoomPlus" x="17" y="9" onmousedown="handleZoom(evt,'in')"/>
  <use id="zoomminus" xlink:href="#zoomMin" x="42" y="9" onmousedown="handleZoom(evt,'out')"/>
  <use id="reset" xlink:href="#resetDef" x="30" y="36" onmousedown="handleReset()"/>
   <use id="arrowup" xlink:href="#arrowUp" x="0" y="0" onmousedown="handlePan(0,-1)"/>
  <use id="arrowright" xlink:href="#arrowRight" x="0" y="0" onmousedown="handlePan(1,0)"/>
  <use id="arrowdown" xlink:href="#arrowDown" x="0" y="0" onmousedown="handlePan(0,1)"/>
  <use id="arrowleft" xlink:href="#arrowLeft" x="0" y="0" onmousedown="handlePan(-1,0)"/>
</g>
<svg viewBox="0 0 15 15" width="100%" height="30px" preserveAspectRatio="xMaxYMin meet">
 <g id="arrow_out" transform="scale(0.3 0.3)">
  <a xlink:href="classiii__drone_1_1control_1_1CombinedDroneAwarenessHandler_a7489deb4a1885f6b4985a3f6de205b64_icgraph_org.svg" target="_base">
   <rect id="button" ry="5" rx="5" y="6" x="6" height="38" width="38"
        fill="#f2f5e9" fill-opacity="0.5" stroke="#606060" stroke-width="1.0"/>
   <path id="arrow"
     d="M 11.500037,31.436501 C 11.940474,20.09759 22.043105,11.32322 32.158766,21.979434 L 37.068811,17.246167 C 37.068811,17.246167 37.088388,32 37.088388,32 L 22.160133,31.978069 C 22.160133,31.978069 26.997745,27.140456 26.997745,27.140456 C 18.528582,18.264221 13.291696,25.230495 11.500037,31.436501 z"
     style="fill:#404040;"/>
  </a>
 </g>
</svg>

<style type='text/css'>
<![CDATA[
[data-mouse-over-selected='false'] { opacity: 0.7; }
[data-mouse-over-selected='true']  { opacity: 1.0; }
]]>
</style>
<script type="application/ecmascript"><![CDATA[
document.addEventListener('DOMContentLoaded', (event) => {
  highlightEdges();
  highlightAdjacentNodes();
});
]]></script>
</svg>
