<?xml version="1.0" encoding="UTF-8" standalone="no"?>
<!DOCTYPE svg PUBLIC "-//W3C//DTD SVG 1.1//EN"
 "http://www.w3.org/Graphics/SVG/1.1/DTD/svg11.dtd">
<!-- Generated by graphviz version 2.43.0 (0)
 -->
<!-- Title: iii_drone::control::maneuver::HoverManeuverServer::startExecution Pages: 1 -->
<!--zoomable 207 -->

<svg id="main" version="1.1" xmlns="http://www.w3.org/2000/svg" xmlns:xlink="http://www.w3.org/1999/xlink" xml:space="preserve" onload="init(evt)">
<style type="text/css"><![CDATA[
.node, .edge {opacity: 0.7;}
.node.selected, .edge.selected {opacity: 1;}
.edge:hover path { stroke: red; }
.edge:hover polygon { stroke: red; fill: red; }
]]></style>

<defs>
  <circle id="rim" cx="0" cy="0" r="7"/>
  <circle id="rim2" cx="0" cy="0" r="3.5"/>
  <g id="zoomPlus">
    <use xlink:href="#rim" fill="#404040"><set attributeName="fill" to="#808080" begin="zoomplus.mouseover" end="zoomplus.mouseout"/></use>
    <path d="M-4,0h8M0,-4v8" fill="none" stroke="white" stroke-width="1.5" pointer-events="none"/>
  </g>
  <g id="zoomMin">
    <use xlink:href="#rim" fill="#404040"><set attributeName="fill" to="#808080" begin="zoomminus.mouseover" end="zoomminus.mouseout"/></use>
    <path d="M-4,0h8" fill="none" stroke="white" stroke-width="1.5" pointer-events="none"/>
  </g>
  <g id="arrowUp" transform="translate(30 24)">
    <use xlink:href="#rim"/>
    <path pointer-events="none" fill="none" stroke="white" stroke-width="1.5" d="M0,-3.0v7 M-2.5,-0.5L0,-3.0L2.5,-0.5"/>
  </g>
  <g id="arrowRight" transform="rotate(90) translate(36 -43)">
    <use xlink:href="#rim"/>
    <path pointer-events="none" fill="none" stroke="white" stroke-width="1.5" d="M0,-3.0v7 M-2.5,-0.5L0,-3.0L2.5,-0.5"/>
  </g>
  <g id="arrowDown" transform="rotate(180) translate(-30 -48)">
    <use xlink:href="#rim"/>
    <path pointer-events="none" fill="none" stroke="white" stroke-width="1.5" d="M0,-3.0v7 M-2.5,-0.5L0,-3.0L2.5,-0.5"/>
  </g>
  <g id="arrowLeft" transform="rotate(270) translate(-36 17)">
    <use xlink:href="#rim"/>
    <path pointer-events="none" fill="none" stroke="white" stroke-width="1.5" d="M0,-3.0v7 M-2.5,-0.5L0,-3.0L2.5,-0.5"/>
  </g>
  <g id="resetDef">
    <use xlink:href="#rim2" fill="#404040"><set attributeName="fill" to="#808080" begin="reset.mouseover" end="reset.mouseout"/></use>
  </g>
</defs>
<script type="application/ecmascript">
var viewWidth = 933;
var viewHeight = 207;
var sectionId = 'dynsection-7';
</script>
<script type="application/ecmascript" xlink:href="svg.min.js"/>
<svg id="graph" class="graph">
<g id="viewport">
<title>iii_drone::control::maneuver::HoverManeuverServer::startExecution</title>
<!-- Node1 -->
<g id="Node000001" class="node">
<title>Node1</title>
<g id="a_Node000001"><a xlink:title="Starts the execution of the maneuver. Registers the current drone state as the hover reference.">
<polygon fill="#999999" stroke="#666666" points="188,-139.5 0,-139.5 0,-98.5 188,-98.5 188,-139.5"/>
<text text-anchor="start" x="8" y="-127.5" font-family="Helvetica,sans-Serif" font-size="10.00">iii_drone::control</text>
<text text-anchor="start" x="8" y="-116.5" font-family="Helvetica,sans-Serif" font-size="10.00">::maneuver::HoverManeuverServer</text>
<text text-anchor="middle" x="94" y="-105.5" font-family="Helvetica,sans-Serif" font-size="10.00">::startExecution</text>
</a>
</g>
</g>
<!-- Node2 -->
<g id="Node000002" class="node">
<title>Node2</title>
<g id="a_Node000002"><a xlink:href="classiii__drone_1_1control_1_1maneuver_1_1ManeuverServer.html#aa25571ba492acf43cd9af009c02cf72e" target="_top" xlink:title="Combined drone awareness handler, accessible to derived classes through the protected method.">
<polygon fill="white" stroke="#666666" points="399.5,-198.5 241.5,-198.5 241.5,-157.5 399.5,-157.5 399.5,-198.5"/>
<text text-anchor="start" x="249.5" y="-186.5" font-family="Helvetica,sans-Serif" font-size="10.00">iii_drone::control</text>
<text text-anchor="start" x="249.5" y="-175.5" font-family="Helvetica,sans-Serif" font-size="10.00">::maneuver::ManeuverServer</text>
<text text-anchor="middle" x="320.5" y="-164.5" font-family="Helvetica,sans-Serif" font-size="10.00">::awareness_handler</text>
</a>
</g>
</g>
<!-- Node1&#45;&gt;Node2 -->
<g id="edge1_Node000001_Node000002" class="edge">
<title>Node1&#45;&gt;Node2</title>
<g id="a_edge1_Node000001_Node000002"><a xlink:title=" ">
<path fill="none" stroke="#63b8ff" d="M173.2,-139.55C191.95,-144.48 212.1,-149.78 231.27,-154.81"/>
<polygon fill="#63b8ff" stroke="#63b8ff" points="230.64,-158.26 241.2,-157.42 232.41,-151.49 230.64,-158.26"/>
</a>
</g>
</g>
<!-- Node3 -->
<g id="Node000003" class="node">
<title>Node3</title>
<g id="a_Node000003"><a xlink:href="classiii__drone_1_1control_1_1CombinedDroneAwarenessHandler.html#afa1110206b605274871d3a74bbfe253f" target="_top" xlink:title="Clears the current target.">
<polygon fill="white" stroke="#666666" points="417,-139.5 224,-139.5 224,-98.5 417,-98.5 417,-139.5"/>
<text text-anchor="start" x="232" y="-127.5" font-family="Helvetica,sans-Serif" font-size="10.00">iii_drone::control</text>
<text text-anchor="start" x="232" y="-116.5" font-family="Helvetica,sans-Serif" font-size="10.00">::CombinedDroneAwarenessHandler</text>
<text text-anchor="middle" x="320.5" y="-105.5" font-family="Helvetica,sans-Serif" font-size="10.00">::ClearTarget</text>
</a>
</g>
</g>
<!-- Node1&#45;&gt;Node3 -->
<g id="edge2_Node000001_Node000003" class="edge">
<title>Node1&#45;&gt;Node3</title>
<g id="a_edge2_Node000001_Node000003"><a xlink:title=" ">
<path fill="none" stroke="#63b8ff" d="M188.26,-119C196.74,-119 205.38,-119 213.96,-119"/>
<polygon fill="#63b8ff" stroke="#63b8ff" points="214,-122.5 224,-119 214,-115.5 214,-122.5"/>
</a>
</g>
</g>
<!-- Node6 -->
<g id="Node000006" class="node">
<title>Node6</title>
<g id="a_Node000006"><a xlink:href="classiii__drone_1_1control_1_1maneuver_1_1HoverManeuverServer.html#ab226742c4a90a9b9b0ce7395d5d91686" target="_top" xlink:title="Updates the hover reference.">
<polygon fill="white" stroke="#666666" points="414.5,-80.5 226.5,-80.5 226.5,-39.5 414.5,-39.5 414.5,-80.5"/>
<text text-anchor="start" x="234.5" y="-68.5" font-family="Helvetica,sans-Serif" font-size="10.00">iii_drone::control</text>
<text text-anchor="start" x="234.5" y="-57.5" font-family="Helvetica,sans-Serif" font-size="10.00">::maneuver::HoverManeuverServer</text>
<text text-anchor="middle" x="320.5" y="-46.5" font-family="Helvetica,sans-Serif" font-size="10.00">::Update</text>
</a>
</g>
</g>
<!-- Node1&#45;&gt;Node6 -->
<g id="edge6_Node000001_Node000006" class="edge">
<title>Node1&#45;&gt;Node6</title>
<g id="a_edge6_Node000001_Node000006"><a xlink:title=" ">
<path fill="none" stroke="#63b8ff" d="M173.2,-98.45C191.95,-93.52 212.1,-88.22 231.27,-83.19"/>
<polygon fill="#63b8ff" stroke="#63b8ff" points="232.41,-86.51 241.2,-80.58 230.64,-79.74 232.41,-86.51"/>
</a>
</g>
</g>
<!-- Node4 -->
<g id="Node000004" class="node">
<title>Node4</title>
<g id="a_Node000004"><a xlink:href="classiii__drone_1_1control_1_1CombinedDroneAwarenessHandler.html#ad188c61fd53e863b42cbd21c67d9bbf3" target="_top" xlink:title="Updates the combined drone awareness from the target adapter. Triggers updates of target_adapter,...">
<polygon fill="white" stroke="#666666" points="696,-139.5 453,-139.5 453,-98.5 696,-98.5 696,-139.5"/>
<text text-anchor="start" x="461" y="-127.5" font-family="Helvetica,sans-Serif" font-size="10.00">iii_drone::control</text>
<text text-anchor="start" x="461" y="-116.5" font-family="Helvetica,sans-Serif" font-size="10.00">::CombinedDroneAwarenessHandler</text>
<text text-anchor="middle" x="574.5" y="-105.5" font-family="Helvetica,sans-Serif" font-size="10.00">::updateCombinedDroneAwarenessFromTarget</text>
</a>
</g>
</g>
<!-- Node3&#45;&gt;Node4 -->
<g id="edge3_Node000003_Node000004" class="edge">
<title>Node3&#45;&gt;Node4</title>
<g id="a_edge3_Node000003_Node000004"><a xlink:title=" ">
<path fill="none" stroke="#63b8ff" d="M417.13,-119C425.54,-119 434.13,-119 442.76,-119"/>
<polygon fill="#63b8ff" stroke="#63b8ff" points="442.89,-122.5 452.89,-119 442.89,-115.5 442.89,-122.5"/>
</a>
</g>
</g>
<!-- Node4&#45;&gt;Node4 -->
<g id="edge5_Node000004_Node000004" class="edge">
<title>Node4&#45;&gt;Node4</title>
<g id="a_edge5_Node000004_Node000004"><a xlink:title=" ">
<path fill="none" stroke="#63b8ff" d="M527.82,-139.6C522.72,-149.15 538.29,-157.5 574.5,-157.5 597.13,-157.5 611.7,-154.24 618.2,-149.46"/>
<polygon fill="#63b8ff" stroke="#63b8ff" points="621.64,-150.18 621.18,-139.6 614.94,-148.15 621.64,-150.18"/>
</a>
</g>
</g>
<!-- Node5 -->
<g id="Node000005" class="node">
<title>Node5</title>
<g id="a_Node000005"><a xlink:href="classiii__drone_1_1control_1_1CombinedDroneAwarenessHandler.html#a7489deb4a1885f6b4985a3f6de205b64" target="_top" xlink:title="Getter for the combined drone awareness simple type by copy.">
<polygon fill="white" stroke="#666666" points="925,-139.5 732,-139.5 732,-98.5 925,-98.5 925,-139.5"/>
<text text-anchor="start" x="740" y="-127.5" font-family="Helvetica,sans-Serif" font-size="10.00">iii_drone::control</text>
<text text-anchor="start" x="740" y="-116.5" font-family="Helvetica,sans-Serif" font-size="10.00">::CombinedDroneAwarenessHandler</text>
<text text-anchor="middle" x="828.5" y="-105.5" font-family="Helvetica,sans-Serif" font-size="10.00">::combined_drone_awareness</text>
</a>
</g>
</g>
<!-- Node4&#45;&gt;Node5 -->
<g id="edge4_Node000004_Node000005" class="edge">
<title>Node4&#45;&gt;Node5</title>
<g id="a_edge4_Node000004_Node000005"><a xlink:title=" ">
<path fill="none" stroke="#63b8ff" d="M696.33,-119C704.77,-119 713.25,-119 721.6,-119"/>
<polygon fill="#63b8ff" stroke="#63b8ff" points="721.72,-122.5 731.72,-119 721.72,-115.5 721.72,-122.5"/>
</a>
</g>
</g>
<!-- Node7 -->
<g id="Node000007" class="node">
<title>Node7</title>
<g id="a_Node000007"><a xlink:href="classiii__drone_1_1control_1_1State.html#ac7d02a667c215a72d7f7f2fdf1501eb4" target="_top" xlink:title=" ">
<polygon fill="white" stroke="#666666" points="623.5,-78 525.5,-78 525.5,-48 623.5,-48 623.5,-78"/>
<text text-anchor="start" x="533.5" y="-66" font-family="Helvetica,sans-Serif" font-size="10.00">iii_drone::control</text>
<text text-anchor="middle" x="574.5" y="-55" font-family="Helvetica,sans-Serif" font-size="10.00">::State::position</text>
</a>
</g>
</g>
<!-- Node6&#45;&gt;Node7 -->
<g id="edge7_Node000006_Node000007" class="edge">
<title>Node6&#45;&gt;Node7</title>
<g id="a_edge7_Node000006_Node000007"><a xlink:title=" ">
<path fill="none" stroke="#63b8ff" d="M414.62,-61.11C448.23,-61.51 485.2,-61.95 515.01,-62.3"/>
<polygon fill="#63b8ff" stroke="#63b8ff" points="515.2,-65.81 525.24,-62.43 515.29,-58.81 515.2,-65.81"/>
</a>
</g>
</g>
<!-- Node8 -->
<g id="Node000008" class="node">
<title>Node8</title>
<g id="a_Node000008"><a xlink:href="classiii__drone_1_1control_1_1State.html#a9853d9f35c2c0ebf0976a472b2624dc2" target="_top" xlink:title=" ">
<polygon fill="white" stroke="#666666" points="623.5,-30 525.5,-30 525.5,0 623.5,0 623.5,-30"/>
<text text-anchor="start" x="533.5" y="-18" font-family="Helvetica,sans-Serif" font-size="10.00">iii_drone::control</text>
<text text-anchor="middle" x="574.5" y="-7" font-family="Helvetica,sans-Serif" font-size="10.00">::State::yaw</text>
</a>
</g>
</g>
<!-- Node6&#45;&gt;Node8 -->
<g id="edge8_Node000006_Node000008" class="edge">
<title>Node6&#45;&gt;Node8</title>
<g id="a_edge8_Node000006_Node000008"><a xlink:title=" ">
<path fill="none" stroke="#63b8ff" d="M414.62,-43.37C448.23,-37.37 485.2,-30.77 515.01,-25.44"/>
<polygon fill="#63b8ff" stroke="#63b8ff" points="516.01,-28.82 525.24,-23.62 514.78,-21.93 516.01,-28.82"/>
</a>
</g>
</g>
</g>
</svg>

<g id="navigator" transform="translate(0 0)" fill="#404254">
  <rect fill="#f2f5e9" fill-opacity="0.5" stroke="#606060" stroke-width=".5" x="0" y="0" width="60" height="60"/>
  <use id="zoomplus" xlink:href="#zoomPlus" x="17" y="9" onmousedown="handleZoom(evt,'in')"/>
  <use id="zoomminus" xlink:href="#zoomMin" x="42" y="9" onmousedown="handleZoom(evt,'out')"/>
  <use id="reset" xlink:href="#resetDef" x="30" y="36" onmousedown="handleReset()"/>
   <use id="arrowup" xlink:href="#arrowUp" x="0" y="0" onmousedown="handlePan(0,-1)"/>
  <use id="arrowright" xlink:href="#arrowRight" x="0" y="0" onmousedown="handlePan(1,0)"/>
  <use id="arrowdown" xlink:href="#arrowDown" x="0" y="0" onmousedown="handlePan(0,1)"/>
  <use id="arrowleft" xlink:href="#arrowLeft" x="0" y="0" onmousedown="handlePan(-1,0)"/>
</g>
<svg viewBox="0 0 15 15" width="100%" height="30px" preserveAspectRatio="xMaxYMin meet">
 <g id="arrow_out" transform="scale(0.3 0.3)">
  <a xlink:href="classiii__drone_1_1control_1_1maneuver_1_1HoverManeuverServer_a95f116b1ce7f283f69b3f2a5d5a5fe4d_cgraph_org.svg" target="_base">
   <rect id="button" ry="5" rx="5" y="6" x="6" height="38" width="38"
        fill="#f2f5e9" fill-opacity="0.5" stroke="#606060" stroke-width="1.0"/>
   <path id="arrow"
     d="M 11.500037,31.436501 C 11.940474,20.09759 22.043105,11.32322 32.158766,21.979434 L 37.068811,17.246167 C 37.068811,17.246167 37.088388,32 37.088388,32 L 22.160133,31.978069 C 22.160133,31.978069 26.997745,27.140456 26.997745,27.140456 C 18.528582,18.264221 13.291696,25.230495 11.500037,31.436501 z"
     style="fill:#404040;"/>
  </a>
 </g>
</svg>

<style type='text/css'>
<![CDATA[
[data-mouse-over-selected='false'] { opacity: 0.7; }
[data-mouse-over-selected='true']  { opacity: 1.0; }
]]>
</style>
<script type="application/ecmascript"><![CDATA[
document.addEventListener('DOMContentLoaded', (event) => {
  highlightEdges();
  highlightAdjacentNodes();
});
]]></script>
</svg>
