<?xml version="1.0" encoding="UTF-8" standalone="no"?>
<!DOCTYPE svg PUBLIC "-//W3C//DTD SVG 1.1//EN"
 "http://www.w3.org/Graphics/SVG/1.1/DTD/svg11.dtd">
<!-- Generated by graphviz version 2.43.0 (0)
 -->
<!-- Title: iii_drone::control::flight_controller_node::FlightControllerConfigurator::disarm_on_cable_cnt_timeout Pages: 1 -->
<!--zoomable 73 -->

<svg id="main" version="1.1" xmlns="http://www.w3.org/2000/svg" xmlns:xlink="http://www.w3.org/1999/xlink" xml:space="preserve" onload="init(evt)">
<style type="text/css"><![CDATA[
.node, .edge {opacity: 0.7;}
.node.selected, .edge.selected {opacity: 1;}
.edge:hover path { stroke: red; }
.edge:hover polygon { stroke: red; fill: red; }
]]></style>

<defs>
  <circle id="rim" cx="0" cy="0" r="7"/>
  <circle id="rim2" cx="0" cy="0" r="3.5"/>
  <g id="zoomPlus">
    <use xlink:href="#rim" fill="#404040"><set attributeName="fill" to="#808080" begin="zoomplus.mouseover" end="zoomplus.mouseout"/></use>
    <path d="M-4,0h8M0,-4v8" fill="none" stroke="white" stroke-width="1.5" pointer-events="none"/>
  </g>
  <g id="zoomMin">
    <use xlink:href="#rim" fill="#404040"><set attributeName="fill" to="#808080" begin="zoomminus.mouseover" end="zoomminus.mouseout"/></use>
    <path d="M-4,0h8" fill="none" stroke="white" stroke-width="1.5" pointer-events="none"/>
  </g>
  <g id="arrowUp" transform="translate(30 24)">
    <use xlink:href="#rim"/>
    <path pointer-events="none" fill="none" stroke="white" stroke-width="1.5" d="M0,-3.0v7 M-2.5,-0.5L0,-3.0L2.5,-0.5"/>
  </g>
  <g id="arrowRight" transform="rotate(90) translate(36 -43)">
    <use xlink:href="#rim"/>
    <path pointer-events="none" fill="none" stroke="white" stroke-width="1.5" d="M0,-3.0v7 M-2.5,-0.5L0,-3.0L2.5,-0.5"/>
  </g>
  <g id="arrowDown" transform="rotate(180) translate(-30 -48)">
    <use xlink:href="#rim"/>
    <path pointer-events="none" fill="none" stroke="white" stroke-width="1.5" d="M0,-3.0v7 M-2.5,-0.5L0,-3.0L2.5,-0.5"/>
  </g>
  <g id="arrowLeft" transform="rotate(270) translate(-36 17)">
    <use xlink:href="#rim"/>
    <path pointer-events="none" fill="none" stroke="white" stroke-width="1.5" d="M0,-3.0v7 M-2.5,-0.5L0,-3.0L2.5,-0.5"/>
  </g>
  <g id="resetDef">
    <use xlink:href="#rim2" fill="#404040"><set attributeName="fill" to="#808080" begin="reset.mouseover" end="reset.mouseout"/></use>
  </g>
</defs>
<script type="application/ecmascript">
var viewWidth = 800;
var viewHeight = 73;
var sectionId = 'dynsection-18';
</script>
<script type="application/ecmascript" xlink:href="svg.min.js"/>
<svg id="graph" class="graph">
<g id="viewport">
<title>iii_drone::control::flight_controller_node::FlightControllerConfigurator::disarm_on_cable_cnt_timeout</title>
<!-- Node1 -->
<g id="Node000001" class="node">
<title>Node1</title>
<g id="a_Node000001"><a xlink:title="The timeout for disarming the drone on the cable.">
<polygon fill="#999999" stroke="#666666" points="188,-52 0,-52 0,0 188,0 188,-52"/>
<text text-anchor="start" x="8" y="-40" font-family="Helvetica,sans-Serif" font-size="10.00">iii_drone::control</text>
<text text-anchor="start" x="8" y="-29" font-family="Helvetica,sans-Serif" font-size="10.00">::flight_controller</text>
<text text-anchor="start" x="8" y="-18" font-family="Helvetica,sans-Serif" font-size="10.00">_node::FlightControllerConfigurator</text>
<text text-anchor="middle" x="94" y="-7" font-family="Helvetica,sans-Serif" font-size="10.00">::disarm_on_cable_cnt_timeout</text>
</a>
</g>
</g>
<!-- Node2 -->
<g id="Node000002" class="node">
<title>Node2</title>
<g id="a_Node000002"><a xlink:href="classiii__drone_1_1configuration_1_1Configurator.html#a896be5ed2c6890f9f5ecaa89cb0eee7d" target="_top" xlink:title="Get a parameter.">
<polygon fill="white" stroke="#666666" points="380,-41 224,-41 224,-11 380,-11 380,-41"/>
<text text-anchor="start" x="232" y="-29" font-family="Helvetica,sans-Serif" font-size="10.00">iii_drone::configuration</text>
<text text-anchor="middle" x="302" y="-18" font-family="Helvetica,sans-Serif" font-size="10.00">::Configurator::GetParameter</text>
</a>
</g>
</g>
<!-- Node1&#45;&gt;Node2 -->
<g id="edge1_Node000001_Node000002" class="edge">
<title>Node1&#45;&gt;Node2</title>
<g id="a_edge1_Node000001_Node000002"><a xlink:title=" ">
<path fill="none" stroke="#63b8ff" d="M188.06,-26C196.55,-26 205.13,-26 213.56,-26"/>
<polygon fill="#63b8ff" stroke="#63b8ff" points="213.77,-29.5 223.77,-26 213.77,-22.5 213.77,-29.5"/>
</a>
</g>
</g>
<!-- Node3 -->
<g id="Node000003" class="node">
<title>Node3</title>
<g id="a_Node000003"><a xlink:href="classiii__drone_1_1configuration_1_1Configurator.html#ad6e7318a12eda7011acfbe4276e7056a" target="_top" xlink:title="Gets multiple parameters.">
<polygon fill="white" stroke="#666666" points="577,-63 416,-63 416,-33 577,-33 577,-63"/>
<text text-anchor="start" x="424" y="-51" font-family="Helvetica,sans-Serif" font-size="10.00">iii_drone::configuration</text>
<text text-anchor="middle" x="496.5" y="-40" font-family="Helvetica,sans-Serif" font-size="10.00">::Configurator::GetParameters</text>
</a>
</g>
</g>
<!-- Node2&#45;&gt;Node3 -->
<g id="edge2_Node000002_Node000003" class="edge">
<title>Node2&#45;&gt;Node3</title>
<g id="a_edge2_Node000002_Node000003"><a xlink:title=" ">
<path fill="none" stroke="#63b8ff" d="M380.19,-34.82C388.61,-35.78 397.23,-36.77 405.79,-37.75"/>
<polygon fill="#63b8ff" stroke="#63b8ff" points="405.45,-41.23 415.78,-38.89 406.24,-34.28 405.45,-41.23"/>
</a>
</g>
</g>
<!-- Node4 -->
<g id="Node000004" class="node">
<title>Node4</title>
<g id="a_Node000004"><a xlink:href="classiii__drone_1_1configuration_1_1Configurator.html#ac5360ab6b4f31277c7d73b5579815353" target="_top" xlink:title="Static function for getting string representation of a parameter type from template type.">
<polygon fill="white" stroke="#666666" points="792,-46.5 613,-46.5 613,-5.5 792,-5.5 792,-46.5"/>
<text text-anchor="start" x="621" y="-34.5" font-family="Helvetica,sans-Serif" font-size="10.00">iii_drone::configuration</text>
<text text-anchor="start" x="621" y="-23.5" font-family="Helvetica,sans-Serif" font-size="10.00">::Configurator::GetParameterType</text>
<text text-anchor="middle" x="702.5" y="-12.5" font-family="Helvetica,sans-Serif" font-size="10.00">String</text>
</a>
</g>
</g>
<!-- Node2&#45;&gt;Node4 -->
<g id="edge5_Node000002_Node000004" class="edge">
<title>Node2&#45;&gt;Node4</title>
<g id="a_edge5_Node000002_Node000004"><a xlink:title=" ">
<path fill="none" stroke="#63b8ff" d="M380.2,-24.45C392.18,-24.26 404.42,-24.1 416,-24 487.55,-23.37 505.45,-23.43 577,-24 585.31,-24.07 593.94,-24.16 602.59,-24.27"/>
<polygon fill="#63b8ff" stroke="#63b8ff" points="602.7,-27.77 612.75,-24.4 602.8,-20.77 602.7,-27.77"/>
</a>
</g>
</g>
<!-- Node3&#45;&gt;Node4 -->
<g id="edge3_Node000003_Node000004" class="edge">
<title>Node3&#45;&gt;Node4</title>
<g id="a_edge3_Node000003_Node000004"><a xlink:title=" ">
<path fill="none" stroke="#63b8ff" d="M577.25,-39.4C585.6,-38.5 594.16,-37.58 602.7,-36.66"/>
<polygon fill="#63b8ff" stroke="#63b8ff" points="603.12,-40.13 612.69,-35.58 602.37,-33.17 603.12,-40.13"/>
</a>
</g>
</g>
<!-- Node4&#45;&gt;Node4 -->
<g id="edge4_Node000004_Node000004" class="edge">
<title>Node4&#45;&gt;Node4</title>
<g id="a_edge4_Node000004_Node000004"><a xlink:title=" ">
<path fill="none" stroke="#63b8ff" d="M664.64,-46.6C660.51,-56.15 673.13,-64.5 702.5,-64.5 720.86,-64.5 732.67,-61.24 737.94,-56.46"/>
<polygon fill="#63b8ff" stroke="#63b8ff" points="741.38,-57.14 740.36,-46.6 734.58,-55.47 741.38,-57.14"/>
</a>
</g>
</g>
</g>
</svg>

<g id="navigator" transform="translate(0 0)" fill="#404254">
  <rect fill="#f2f5e9" fill-opacity="0.5" stroke="#606060" stroke-width=".5" x="0" y="0" width="60" height="60"/>
  <use id="zoomplus" xlink:href="#zoomPlus" x="17" y="9" onmousedown="handleZoom(evt,'in')"/>
  <use id="zoomminus" xlink:href="#zoomMin" x="42" y="9" onmousedown="handleZoom(evt,'out')"/>
  <use id="reset" xlink:href="#resetDef" x="30" y="36" onmousedown="handleReset()"/>
   <use id="arrowup" xlink:href="#arrowUp" x="0" y="0" onmousedown="handlePan(0,-1)"/>
  <use id="arrowright" xlink:href="#arrowRight" x="0" y="0" onmousedown="handlePan(1,0)"/>
  <use id="arrowdown" xlink:href="#arrowDown" x="0" y="0" onmousedown="handlePan(0,1)"/>
  <use id="arrowleft" xlink:href="#arrowLeft" x="0" y="0" onmousedown="handlePan(-1,0)"/>
</g>
<svg viewBox="0 0 15 15" width="100%" height="30px" preserveAspectRatio="xMaxYMin meet">
 <g id="arrow_out" transform="scale(0.3 0.3)">
  <a xlink:href="classiii__drone_1_1control_1_1flight__controller__node_1_1FlightControllerConfigurator_ac2442c293494b0718061dc3fcf9051d0_cgraph_org.svg" target="_base">
   <rect id="button" ry="5" rx="5" y="6" x="6" height="38" width="38"
        fill="#f2f5e9" fill-opacity="0.5" stroke="#606060" stroke-width="1.0"/>
   <path id="arrow"
     d="M 11.500037,31.436501 C 11.940474,20.09759 22.043105,11.32322 32.158766,21.979434 L 37.068811,17.246167 C 37.068811,17.246167 37.088388,32 37.088388,32 L 22.160133,31.978069 C 22.160133,31.978069 26.997745,27.140456 26.997745,27.140456 C 18.528582,18.264221 13.291696,25.230495 11.500037,31.436501 z"
     style="fill:#404040;"/>
  </a>
 </g>
</svg>

<style type='text/css'>
<![CDATA[
[data-mouse-over-selected='false'] { opacity: 0.7; }
[data-mouse-over-selected='true']  { opacity: 1.0; }
]]>
</style>
<script type="application/ecmascript"><![CDATA[
document.addEventListener('DOMContentLoaded', (event) => {
  highlightEdges();
  highlightAdjacentNodes();
});
]]></script>
</svg>
