<?xml version="1.0" encoding="UTF-8" standalone="no"?>
<!DOCTYPE svg PUBLIC "-//W3C//DTD SVG 1.1//EN"
 "http://www.w3.org/Graphics/SVG/1.1/DTD/svg11.dtd">
<!-- Generated by graphviz version 2.43.0 (0)
 -->
<!-- Title: iii_drone::utils::Atomic::Load Pages: 1 -->
<svg width="1520pt" height="314pt"
 viewBox="0.00 0.00 1520.00 313.50" xmlns="http://www.w3.org/2000/svg" xmlns:xlink="http://www.w3.org/1999/xlink">
<g id="graph0" class="graph" transform="scale(1 1) rotate(0) translate(4 309.5)">
<title>iii_drone::utils::Atomic::Load</title>
<!-- Node1 -->
<g id="Node000001" class="node">
<title>Node1</title>
<g id="a_Node000001"><a xlink:title="Get the value.">
<polygon fill="#999999" stroke="#666666" points="1512,-178.5 1386,-178.5 1386,-148.5 1512,-148.5 1512,-178.5"/>
<text text-anchor="start" x="1394" y="-166.5" font-family="Helvetica,sans-Serif" font-size="10.00">iii_drone::utils::Atomic</text>
<text text-anchor="middle" x="1449" y="-155.5" font-family="Helvetica,sans-Serif" font-size="10.00">::Load</text>
</a>
</g>
</g>
<!-- Node2 -->
<g id="Node000002" class="node">
<title>Node2</title>
<g id="a_Node000002"><a xlink:href="classiii__drone_1_1utils_1_1Atomic.html#a6912a3be971959600e780f8700261d8e" target="_top" xlink:title="Copy constructor.">
<polygon fill="white" stroke="#666666" points="1273.5,-305.5 1147.5,-305.5 1147.5,-275.5 1273.5,-275.5 1273.5,-305.5"/>
<text text-anchor="start" x="1155.5" y="-293.5" font-family="Helvetica,sans-Serif" font-size="10.00">iii_drone::utils::Atomic</text>
<text text-anchor="middle" x="1210.5" y="-282.5" font-family="Helvetica,sans-Serif" font-size="10.00">::Atomic</text>
</a>
</g>
</g>
<!-- Node1&#45;&gt;Node2 -->
<g id="edge1_Node000001_Node000002" class="edge">
<title>Node1&#45;&gt;Node2</title>
<g id="a_edge1_Node000001_Node000002"><a xlink:title=" ">
<path fill="none" stroke="#63b8ff" d="M1432.64,-186.9C1415.5,-210.97 1385.48,-247.53 1350,-266.5 1326.76,-278.93 1298.48,-285.14 1273.54,-288.17"/>
<polygon fill="#63b8ff" stroke="#63b8ff" points="1435.54,-188.87 1438.36,-178.65 1429.78,-184.88 1435.54,-188.87"/>
</a>
</g>
</g>
<!-- Node3 -->
<g id="Node000003" class="node">
<title>Node3</title>
<g id="a_Node000003"><a xlink:href="classiii__drone_1_1utils_1_1Atomic.html#a77f54dcc778d4ca711cee51a864451d7" target="_top" xlink:title="Assignment operator.">
<polygon fill="white" stroke="#666666" points="1273.5,-257.5 1147.5,-257.5 1147.5,-227.5 1273.5,-227.5 1273.5,-257.5"/>
<text text-anchor="start" x="1155.5" y="-245.5" font-family="Helvetica,sans-Serif" font-size="10.00">iii_drone::utils::Atomic</text>
<text text-anchor="middle" x="1210.5" y="-234.5" font-family="Helvetica,sans-Serif" font-size="10.00">::operator=</text>
</a>
</g>
</g>
<!-- Node1&#45;&gt;Node3 -->
<g id="edge2_Node000001_Node000003" class="edge">
<title>Node1&#45;&gt;Node3</title>
<g id="a_edge2_Node000001_Node000003"><a xlink:title=" ">
<path fill="none" stroke="#63b8ff" d="M1417.42,-184.25C1398.71,-196.01 1373.86,-210.02 1350,-218.5 1325.74,-227.12 1297.95,-232.71 1273.67,-236.31"/>
<polygon fill="#63b8ff" stroke="#63b8ff" points="1419.55,-187.04 1426.07,-178.69 1415.77,-181.14 1419.55,-187.04"/>
</a>
</g>
</g>
<!-- Node4 -->
<g id="Node000004" class="node">
<title>Node4</title>
<g id="a_Node000004"><a xlink:href="classiii__drone_1_1control_1_1maneuver_1_1ManeuverScheduler.html#a506aad4bb58475a1f64148aec17c570f" target="_top" xlink:title="Returns the expected combined drone awareness upon completion or failure of given maneuver type,...">
<polygon fill="white" stroke="#666666" points="1298,-209 1123,-209 1123,-168 1298,-168 1298,-209"/>
<text text-anchor="start" x="1131" y="-197" font-family="Helvetica,sans-Serif" font-size="10.00">iii_drone::control</text>
<text text-anchor="start" x="1131" y="-186" font-family="Helvetica,sans-Serif" font-size="10.00">::maneuver::ManeuverScheduler</text>
<text text-anchor="middle" x="1210.5" y="-175" font-family="Helvetica,sans-Serif" font-size="10.00">::ProjectExpectedAwarenessFull</text>
</a>
</g>
</g>
<!-- Node1&#45;&gt;Node4 -->
<g id="edge3_Node000001_Node000004" class="edge">
<title>Node1&#45;&gt;Node4</title>
<g id="a_edge3_Node000001_Node000004"><a xlink:title=" ">
<path fill="none" stroke="#63b8ff" d="M1375.91,-171.12C1351.37,-173.71 1323.68,-176.64 1298.12,-179.34"/>
<polygon fill="#63b8ff" stroke="#63b8ff" points="1376.29,-174.6 1385.86,-170.07 1375.55,-167.64 1376.29,-174.6"/>
</a>
</g>
</g>
<!-- Node10 -->
<g id="Node000010" class="node">
<title>Node10</title>
<g id="a_Node000010"><a xlink:href="classiii__drone_1_1control_1_1CombinedDroneAwarenessHandler.html#a20e4ba77e16373e88ac6ae3830fda660" target="_top" xlink:title="Register a new navigation state id which should be considered offboard.">
<polygon fill="white" stroke="#666666" points="1035,-155 842,-155 842,-114 1035,-114 1035,-155"/>
<text text-anchor="start" x="850" y="-143" font-family="Helvetica,sans-Serif" font-size="10.00">iii_drone::control</text>
<text text-anchor="start" x="850" y="-132" font-family="Helvetica,sans-Serif" font-size="10.00">::CombinedDroneAwarenessHandler</text>
<text text-anchor="middle" x="938.5" y="-121" font-family="Helvetica,sans-Serif" font-size="10.00">::RegisterOffboardMode</text>
</a>
</g>
</g>
<!-- Node1&#45;&gt;Node10 -->
<g id="edge9_Node000001_Node000010" class="edge">
<title>Node1&#45;&gt;Node10</title>
<g id="a_edge9_Node000001_Node000010"><a xlink:title=" ">
<path fill="none" stroke="#63b8ff" d="M1375.86,-159.39C1286.5,-154.29 1134,-145.59 1035.01,-139.95"/>
<polygon fill="#63b8ff" stroke="#63b8ff" points="1375.72,-162.88 1385.9,-159.96 1376.12,-155.89 1375.72,-162.88"/>
</a>
</g>
</g>
<!-- Node11 -->
<g id="Node000011" class="node">
<title>Node11</title>
<g id="a_Node000011"><a xlink:href="classiii__drone_1_1control_1_1CombinedDroneAwarenessHandler.html#a197c146061816403499a4e652a8fe646" target="_top" xlink:title="Updates the given combined drone awareness from the vehicle odometry. Triggers updates of ground alti...">
<polygon fill="white" stroke="#666666" points="1334.5,-111.5 1086.5,-111.5 1086.5,-59.5 1334.5,-59.5 1334.5,-111.5"/>
<text text-anchor="start" x="1094.5" y="-99.5" font-family="Helvetica,sans-Serif" font-size="10.00">iii_drone::control</text>
<text text-anchor="start" x="1094.5" y="-88.5" font-family="Helvetica,sans-Serif" font-size="10.00">::CombinedDroneAwarenessHandler</text>
<text text-anchor="start" x="1094.5" y="-77.5" font-family="Helvetica,sans-Serif" font-size="10.00">::updateCombinedDroneAwarenessFromVehicle</text>
<text text-anchor="middle" x="1210.5" y="-66.5" font-family="Helvetica,sans-Serif" font-size="10.00">Odometry</text>
</a>
</g>
</g>
<!-- Node1&#45;&gt;Node11 -->
<g id="edge11_Node000001_Node000011" class="edge">
<title>Node1&#45;&gt;Node11</title>
<g id="a_edge11_Node000001_Node000011"><a xlink:title=" ">
<path fill="none" stroke="#63b8ff" d="M1402.18,-144.77C1385.83,-138.34 1367.2,-131.31 1350,-125.5 1335.89,-120.74 1320.86,-116.03 1306.09,-111.6"/>
<polygon fill="#63b8ff" stroke="#63b8ff" points="1400.93,-148.03 1411.52,-148.47 1403.51,-141.53 1400.93,-148.03"/>
</a>
</g>
</g>
<!-- Node12 -->
<g id="Node000012" class="node">
<title>Node12</title>
<g id="a_Node000012"><a xlink:href="classiii__drone_1_1control_1_1CombinedDroneAwarenessHandler.html#a7055ad9c6b81c69e2f810d40c9448fcf" target="_top" xlink:title="Updates the given combined drone awareness from the vehicle status. Triggers updates of armed,...">
<polygon fill="white" stroke="#666666" points="1350,-41 1071,-41 1071,0 1350,0 1350,-41"/>
<text text-anchor="start" x="1079" y="-29" font-family="Helvetica,sans-Serif" font-size="10.00">iii_drone::control</text>
<text text-anchor="start" x="1079" y="-18" font-family="Helvetica,sans-Serif" font-size="10.00">::CombinedDroneAwarenessHandler</text>
<text text-anchor="middle" x="1210.5" y="-7" font-family="Helvetica,sans-Serif" font-size="10.00">::updateCombinedDroneAwarenessFromVehicleStatus</text>
</a>
</g>
</g>
<!-- Node1&#45;&gt;Node12 -->
<g id="edge12_Node000001_Node000012" class="edge">
<title>Node1&#45;&gt;Node12</title>
<g id="a_edge12_Node000001_Node000012"><a xlink:title=" ">
<path fill="none" stroke="#63b8ff" d="M1434.05,-139.75C1417.42,-113.65 1387.17,-72.52 1350,-50.5 1344.07,-46.99 1337.79,-43.89 1331.29,-41.15"/>
<polygon fill="#63b8ff" stroke="#63b8ff" points="1431.1,-141.64 1439.35,-148.3 1437.05,-137.95 1431.1,-141.64"/>
</a>
</g>
</g>
<!-- Node5 -->
<g id="Node000005" class="node">
<title>Node5</title>
<g id="a_Node000005"><a xlink:href="classiii__drone_1_1control_1_1maneuver_1_1ManeuverScheduler.html#a6b694f0329c16fecaf0395fc4ef3f597" target="_top" xlink:title="Returns whether a given maneuver can execute later.">
<polygon fill="white" stroke="#666666" points="1026,-214 851,-214 851,-173 1026,-173 1026,-214"/>
<text text-anchor="start" x="859" y="-202" font-family="Helvetica,sans-Serif" font-size="10.00">iii_drone::control</text>
<text text-anchor="start" x="859" y="-191" font-family="Helvetica,sans-Serif" font-size="10.00">::maneuver::ManeuverScheduler</text>
<text text-anchor="middle" x="938.5" y="-180" font-family="Helvetica,sans-Serif" font-size="10.00">::CanSchedule</text>
</a>
</g>
</g>
<!-- Node4&#45;&gt;Node5 -->
<g id="edge4_Node000004_Node000005" class="edge">
<title>Node4&#45;&gt;Node5</title>
<g id="a_edge4_Node000004_Node000005"><a xlink:title=" ">
<path fill="none" stroke="#63b8ff" d="M1112.65,-190.29C1084.36,-190.82 1053.63,-191.39 1026.02,-191.9"/>
<polygon fill="#63b8ff" stroke="#63b8ff" points="1113.02,-193.79 1122.96,-190.1 1112.89,-186.79 1113.02,-193.79"/>
</a>
</g>
</g>
<!-- Node6 -->
<g id="Node000006" class="node">
<title>Node6</title>
<g id="a_Node000006"><a xlink:href="classiii__drone_1_1control_1_1maneuver_1_1ManeuverScheduler.html#acaa8f0628522b25bdd0c63dde8ee24f0" target="_top" xlink:title="Registers a maneuver with the maneuver scheduler. To be called from a maneuver server....">
<polygon fill="white" stroke="#666666" points="806,-213 631,-213 631,-172 806,-172 806,-213"/>
<text text-anchor="start" x="639" y="-201" font-family="Helvetica,sans-Serif" font-size="10.00">iii_drone::control</text>
<text text-anchor="start" x="639" y="-190" font-family="Helvetica,sans-Serif" font-size="10.00">::maneuver::ManeuverScheduler</text>
<text text-anchor="middle" x="718.5" y="-179" font-family="Helvetica,sans-Serif" font-size="10.00">::RegisterManeuver</text>
</a>
</g>
</g>
<!-- Node5&#45;&gt;Node6 -->
<g id="edge5_Node000005_Node000006" class="edge">
<title>Node5&#45;&gt;Node6</title>
<g id="a_edge5_Node000005_Node000006"><a xlink:title=" ">
<path fill="none" stroke="#63b8ff" d="M840.37,-193.05C829.03,-193 817.53,-192.95 806.34,-192.9"/>
<polygon fill="#63b8ff" stroke="#63b8ff" points="840.7,-196.56 850.71,-193.1 840.73,-189.56 840.7,-196.56"/>
</a>
</g>
</g>
<!-- Node7 -->
<g id="Node000007" class="node">
<title>Node7</title>
<g id="a_Node000007"><a xlink:href="classiii__drone_1_1control_1_1maneuver_1_1ManeuverScheduler.html#ab393b4204a5c4368ee503e9af8b27a22" target="_top" xlink:title="Registers a maneuver type with a maneuver server.">
<polygon fill="white" stroke="#666666" points="595,-212 420,-212 420,-171 595,-171 595,-212"/>
<text text-anchor="start" x="428" y="-200" font-family="Helvetica,sans-Serif" font-size="10.00">iii_drone::control</text>
<text text-anchor="start" x="428" y="-189" font-family="Helvetica,sans-Serif" font-size="10.00">::maneuver::ManeuverScheduler</text>
<text text-anchor="middle" x="507.5" y="-178" font-family="Helvetica,sans-Serif" font-size="10.00">::RegisterManeuverServer</text>
</a>
</g>
</g>
<!-- Node6&#45;&gt;Node7 -->
<g id="edge6_Node000006_Node000007" class="edge">
<title>Node6&#45;&gt;Node7</title>
<g id="a_edge6_Node000006_Node000007"><a xlink:title=" ">
<path fill="none" stroke="#63b8ff" d="M620.97,-192.04C612.41,-192 603.77,-191.96 595.29,-191.92"/>
<polygon fill="#63b8ff" stroke="#63b8ff" points="620.97,-195.54 630.98,-192.09 621,-188.54 620.97,-195.54"/>
</a>
</g>
</g>
<!-- Node8 -->
<g id="Node000008" class="node">
<title>Node8</title>
<g id="a_Node000008"><a xlink:href="classiii__drone_1_1control_1_1maneuver__controller__node_1_1ManeuverControllerNode.html#a1c587895df3c61bd6b748e97942cd619" target="_top" xlink:title="Creates and registers all maneuver servers with the maneuver scheduler.">
<polygon fill="white" stroke="#666666" points="384,-217.5 210,-217.5 210,-165.5 384,-165.5 384,-217.5"/>
<text text-anchor="start" x="218" y="-205.5" font-family="Helvetica,sans-Serif" font-size="10.00">iii_drone::control</text>
<text text-anchor="start" x="218" y="-194.5" font-family="Helvetica,sans-Serif" font-size="10.00">::maneuver_controller</text>
<text text-anchor="start" x="218" y="-183.5" font-family="Helvetica,sans-Serif" font-size="10.00">_node::ManeuverControllerNode</text>
<text text-anchor="middle" x="297" y="-172.5" font-family="Helvetica,sans-Serif" font-size="10.00">::registerManeuverServers</text>
</a>
</g>
</g>
<!-- Node7&#45;&gt;Node8 -->
<g id="edge7_Node000007_Node000008" class="edge">
<title>Node7&#45;&gt;Node8</title>
<g id="a_edge7_Node000007_Node000008"><a xlink:title=" ">
<path fill="none" stroke="#63b8ff" d="M409.82,-191.5C401.21,-191.5 392.52,-191.5 384.01,-191.5"/>
<polygon fill="#63b8ff" stroke="#63b8ff" points="409.89,-195 419.89,-191.5 409.89,-188 409.89,-195"/>
</a>
</g>
</g>
<!-- Node9 -->
<g id="Node000009" class="node">
<title>Node9</title>
<g id="a_Node000009"><a xlink:href="classiii__drone_1_1control_1_1maneuver__controller__node_1_1ManeuverControllerNode.html#a291f0abf320443ed6ad4a248ba028b8c" target="_top" xlink:title="Constructor. Creates the node, initializes the configurator, the transform buffer and listener,...">
<polygon fill="white" stroke="#666666" points="174,-189.5 0,-189.5 0,-137.5 174,-137.5 174,-189.5"/>
<text text-anchor="start" x="8" y="-177.5" font-family="Helvetica,sans-Serif" font-size="10.00">iii_drone::control</text>
<text text-anchor="start" x="8" y="-166.5" font-family="Helvetica,sans-Serif" font-size="10.00">::maneuver_controller</text>
<text text-anchor="start" x="8" y="-155.5" font-family="Helvetica,sans-Serif" font-size="10.00">_node::ManeuverControllerNode</text>
<text text-anchor="middle" x="87" y="-144.5" font-family="Helvetica,sans-Serif" font-size="10.00">::ManeuverControllerNode</text>
</a>
</g>
</g>
<!-- Node8&#45;&gt;Node9 -->
<g id="edge8_Node000008_Node000009" class="edge">
<title>Node8&#45;&gt;Node9</title>
<g id="a_edge8_Node000008_Node000009"><a xlink:title=" ">
<path fill="none" stroke="#63b8ff" d="M199.84,-178.56C191.23,-177.4 182.55,-176.23 174.04,-175.08"/>
<polygon fill="#63b8ff" stroke="#63b8ff" points="199.52,-182.04 209.9,-179.91 200.45,-175.11 199.52,-182.04"/>
</a>
</g>
</g>
<!-- Node10&#45;&gt;Node9 -->
<g id="edge10_Node000010_Node000009" class="edge">
<title>Node10&#45;&gt;Node9</title>
<g id="a_edge10_Node000010_Node000009"><a xlink:title=" ">
<path fill="none" stroke="#63b8ff" d="M831.43,-136.81C689.75,-140.1 430.91,-146.82 210,-156.5 198.45,-157.01 186.29,-157.61 174.3,-158.26"/>
<polygon fill="#63b8ff" stroke="#63b8ff" points="831.93,-140.3 841.85,-136.57 831.77,-133.3 831.93,-140.3"/>
</a>
</g>
</g>
</g>
</svg>
