<?xml version="1.0" encoding="UTF-8" standalone="no"?>
<!DOCTYPE svg PUBLIC "-//W3C//DTD SVG 1.1//EN"
 "http://www.w3.org/Graphics/SVG/1.1/DTD/svg11.dtd">
<!-- Generated by graphviz version 2.43.0 (0)
 -->
<!-- Title: iii_drone::adapters::SingleLineAdapter::ToPoseStampedMsg Pages: 1 -->
<svg width="461pt" height="86pt"
 viewBox="0.00 0.00 461.00 86.00" xmlns="http://www.w3.org/2000/svg" xmlns:xlink="http://www.w3.org/1999/xlink">
<g id="graph0" class="graph" transform="scale(1 1) rotate(0) translate(4 82)">
<title>iii_drone::adapters::SingleLineAdapter::ToPoseStampedMsg</title>
<!-- Node1 -->
<g id="Node000001" class="node">
<title>Node1</title>
<g id="a_Node000001"><a xlink:title="Converts to PoseStamped msg.">
<polygon fill="#999999" stroke="#666666" points="120,-59.5 0,-59.5 0,-18.5 120,-18.5 120,-59.5"/>
<text text-anchor="start" x="8" y="-47.5" font-family="Helvetica,sans-Serif" font-size="10.00">iii_drone::adapters</text>
<text text-anchor="start" x="8" y="-36.5" font-family="Helvetica,sans-Serif" font-size="10.00">::SingleLineAdapter</text>
<text text-anchor="middle" x="60" y="-25.5" font-family="Helvetica,sans-Serif" font-size="10.00">::ToPoseStampedMsg</text>
</a>
</g>
</g>
<!-- Node2 -->
<g id="Node000002" class="node">
<title>Node2</title>
<g id="a_Node000002"><a xlink:href="classiii__drone_1_1adapters_1_1SingleLineAdapter.html#a93dc5170f28f0b86439146049989ce60" target="_top" xlink:title="Converts to Pose msg.">
<polygon fill="white" stroke="#666666" points="267,-59.5 156,-59.5 156,-18.5 267,-18.5 267,-59.5"/>
<text text-anchor="start" x="164" y="-47.5" font-family="Helvetica,sans-Serif" font-size="10.00">iii_drone::adapters</text>
<text text-anchor="start" x="164" y="-36.5" font-family="Helvetica,sans-Serif" font-size="10.00">::SingleLineAdapter</text>
<text text-anchor="middle" x="211.5" y="-25.5" font-family="Helvetica,sans-Serif" font-size="10.00">::ToPoseMsg</text>
</a>
</g>
</g>
<!-- Node1&#45;&gt;Node2 -->
<g id="edge1_Node000001_Node000002" class="edge">
<title>Node1&#45;&gt;Node2</title>
<g id="a_edge1_Node000001_Node000002"><a xlink:title=" ">
<path fill="none" stroke="#63b8ff" d="M120.09,-39C128.44,-39 137.07,-39 145.53,-39"/>
<polygon fill="#63b8ff" stroke="#63b8ff" points="145.73,-42.5 155.73,-39 145.73,-35.5 145.73,-42.5"/>
</a>
</g>
</g>
<!-- Node3 -->
<g id="Node000003" class="node">
<title>Node3</title>
<g id="a_Node000003"><a xlink:href="namespaceiii__drone_1_1types.html#adf49c0d0a898eea29ad3e752a6712734" target="_top" xlink:title=" ">
<polygon fill="white" stroke="#666666" points="449.5,-78 306.5,-78 306.5,-48 449.5,-48 449.5,-78"/>
<text text-anchor="start" x="314.5" y="-66" font-family="Helvetica,sans-Serif" font-size="10.00">iii_drone::types::pointMsg</text>
<text text-anchor="middle" x="378" y="-55" font-family="Helvetica,sans-Serif" font-size="10.00">FromPoint</text>
</a>
</g>
</g>
<!-- Node2&#45;&gt;Node3 -->
<g id="edge2_Node000002_Node000003" class="edge">
<title>Node2&#45;&gt;Node3</title>
<g id="a_edge2_Node000002_Node000003"><a xlink:title=" ">
<path fill="none" stroke="#63b8ff" d="M267.28,-46.99C276.57,-48.35 286.4,-49.78 296.19,-51.21"/>
<polygon fill="#63b8ff" stroke="#63b8ff" points="295.97,-54.71 306.37,-52.7 296.98,-47.79 295.97,-54.71"/>
</a>
</g>
</g>
<!-- Node4 -->
<g id="Node000004" class="node">
<title>Node4</title>
<g id="a_Node000004"><a xlink:href="namespaceiii__drone_1_1types.html#a345601fdf3366d6af6d7c2003d74275b" target="_top" xlink:title=" ">
<polygon fill="white" stroke="#666666" points="453,-30 303,-30 303,0 453,0 453,-30"/>
<text text-anchor="start" x="311" y="-18" font-family="Helvetica,sans-Serif" font-size="10.00">iii_drone::types::quaternion</text>
<text text-anchor="middle" x="378" y="-7" font-family="Helvetica,sans-Serif" font-size="10.00">MsgFromQuaternion</text>
</a>
</g>
</g>
<!-- Node2&#45;&gt;Node4 -->
<g id="edge3_Node000002_Node000004" class="edge">
<title>Node2&#45;&gt;Node4</title>
<g id="a_edge3_Node000002_Node000004"><a xlink:title=" ">
<path fill="none" stroke="#63b8ff" d="M267.28,-31.01C275.47,-29.81 284.08,-28.56 292.72,-27.3"/>
<polygon fill="#63b8ff" stroke="#63b8ff" points="293.45,-30.73 302.84,-25.82 292.44,-23.8 293.45,-30.73"/>
</a>
</g>
</g>
</g>
</svg>
