<?xml version="1.0" encoding="UTF-8" standalone="no"?>
<!DOCTYPE svg PUBLIC "-//W3C//DTD SVG 1.1//EN"
 "http://www.w3.org/Graphics/SVG/1.1/DTD/svg11.dtd">
<!-- Generated by graphviz version 2.43.0 (0)
 -->
<!-- Title: iii_drone::control::maneuver::HoverOnCableManeuverServer::publishResultAndFinalize Pages: 1 -->
<svg width="942pt" height="167pt"
 viewBox="0.00 0.00 942.00 167.00" xmlns="http://www.w3.org/2000/svg" xmlns:xlink="http://www.w3.org/1999/xlink">
<g id="graph0" class="graph" transform="scale(1 1) rotate(0) translate(4 163)">
<title>iii_drone::control::maneuver::HoverOnCableManeuverServer::publishResultAndFinalize</title>
<!-- Node1 -->
<g id="Node000001" class="node">
<title>Node1</title>
<g id="a_Node000001"><a xlink:title="Publish the result and finalize the maneuver based on the maneuver result type.">
<polygon fill="#999999" stroke="#666666" points="197,-100 0,-100 0,-59 197,-59 197,-100"/>
<text text-anchor="start" x="8" y="-88" font-family="Helvetica,sans-Serif" font-size="10.00">iii_drone::control</text>
<text text-anchor="start" x="8" y="-77" font-family="Helvetica,sans-Serif" font-size="10.00">::maneuver::HoverOnCableManeuver</text>
<text text-anchor="middle" x="98.5" y="-66" font-family="Helvetica,sans-Serif" font-size="10.00">Server::publishResultAndFinalize</text>
</a>
</g>
</g>
<!-- Node2 -->
<g id="Node000002" class="node">
<title>Node2</title>
<g id="a_Node000002"><a xlink:href="classiii__drone_1_1control_1_1maneuver_1_1ManeuverServer.html#aa25571ba492acf43cd9af009c02cf72e" target="_top" xlink:title="Combined drone awareness handler, accessible to derived classes through the protected method.">
<polygon fill="white" stroke="#666666" points="408.5,-159 250.5,-159 250.5,-118 408.5,-118 408.5,-159"/>
<text text-anchor="start" x="258.5" y="-147" font-family="Helvetica,sans-Serif" font-size="10.00">iii_drone::control</text>
<text text-anchor="start" x="258.5" y="-136" font-family="Helvetica,sans-Serif" font-size="10.00">::maneuver::ManeuverServer</text>
<text text-anchor="middle" x="329.5" y="-125" font-family="Helvetica,sans-Serif" font-size="10.00">::awareness_handler</text>
</a>
</g>
</g>
<!-- Node1&#45;&gt;Node2 -->
<g id="edge1_Node000001_Node000002" class="edge">
<title>Node1&#45;&gt;Node2</title>
<g id="a_edge1_Node000001_Node000002"><a xlink:title=" ">
<path fill="none" stroke="#63b8ff" d="M179.27,-100.05C199.02,-105.14 220.28,-110.62 240.4,-115.8"/>
<polygon fill="#63b8ff" stroke="#63b8ff" points="239.62,-119.21 250.17,-118.32 241.36,-112.44 239.62,-119.21"/>
</a>
</g>
</g>
<!-- Node3 -->
<g id="Node000003" class="node">
<title>Node3</title>
<g id="a_Node000003"><a xlink:href="classiii__drone_1_1control_1_1CombinedDroneAwarenessHandler.html#afa1110206b605274871d3a74bbfe253f" target="_top" xlink:title="Clears the current target.">
<polygon fill="white" stroke="#666666" points="426,-100 233,-100 233,-59 426,-59 426,-100"/>
<text text-anchor="start" x="241" y="-88" font-family="Helvetica,sans-Serif" font-size="10.00">iii_drone::control</text>
<text text-anchor="start" x="241" y="-77" font-family="Helvetica,sans-Serif" font-size="10.00">::CombinedDroneAwarenessHandler</text>
<text text-anchor="middle" x="329.5" y="-66" font-family="Helvetica,sans-Serif" font-size="10.00">::ClearTarget</text>
</a>
</g>
</g>
<!-- Node1&#45;&gt;Node3 -->
<g id="edge2_Node000001_Node000003" class="edge">
<title>Node1&#45;&gt;Node3</title>
<g id="a_edge2_Node000001_Node000003"><a xlink:title=" ">
<path fill="none" stroke="#63b8ff" d="M197.28,-79.5C205.66,-79.5 214.17,-79.5 222.61,-79.5"/>
<polygon fill="#63b8ff" stroke="#63b8ff" points="222.87,-83 232.87,-79.5 222.87,-76 222.87,-83"/>
</a>
</g>
</g>
<!-- Node6 -->
<g id="Node000006" class="node">
<title>Node6</title>
<g id="a_Node000006"><a xlink:href="classiii__drone_1_1control_1_1maneuver_1_1Maneuver.html#a0b7b01d9ab27db008c54f7ef0099fcd0" target="_top" xlink:title="Goal handle getter.">
<polygon fill="white" stroke="#666666" points="393,-41 266,-41 266,0 393,0 393,-41"/>
<text text-anchor="start" x="274" y="-29" font-family="Helvetica,sans-Serif" font-size="10.00">iii_drone::control</text>
<text text-anchor="start" x="274" y="-18" font-family="Helvetica,sans-Serif" font-size="10.00">::maneuver::Maneuver</text>
<text text-anchor="middle" x="329.5" y="-7" font-family="Helvetica,sans-Serif" font-size="10.00">::goal_handle</text>
</a>
</g>
</g>
<!-- Node1&#45;&gt;Node6 -->
<g id="edge6_Node000001_Node000006" class="edge">
<title>Node1&#45;&gt;Node6</title>
<g id="a_edge6_Node000001_Node000006"><a xlink:title=" ">
<path fill="none" stroke="#63b8ff" d="M179.27,-58.95C204.23,-52.52 231.62,-45.46 256.05,-39.17"/>
<polygon fill="#63b8ff" stroke="#63b8ff" points="257.15,-42.5 265.96,-36.61 255.4,-35.72 257.15,-42.5"/>
</a>
</g>
</g>
<!-- Node4 -->
<g id="Node000004" class="node">
<title>Node4</title>
<g id="a_Node000004"><a xlink:href="classiii__drone_1_1control_1_1CombinedDroneAwarenessHandler.html#ad188c61fd53e863b42cbd21c67d9bbf3" target="_top" xlink:title="Updates the combined drone awareness from the target adapter. Triggers updates of target_adapter,...">
<polygon fill="white" stroke="#666666" points="705,-100 462,-100 462,-59 705,-59 705,-100"/>
<text text-anchor="start" x="470" y="-88" font-family="Helvetica,sans-Serif" font-size="10.00">iii_drone::control</text>
<text text-anchor="start" x="470" y="-77" font-family="Helvetica,sans-Serif" font-size="10.00">::CombinedDroneAwarenessHandler</text>
<text text-anchor="middle" x="583.5" y="-66" font-family="Helvetica,sans-Serif" font-size="10.00">::updateCombinedDroneAwarenessFromTarget</text>
</a>
</g>
</g>
<!-- Node3&#45;&gt;Node4 -->
<g id="edge3_Node000003_Node000004" class="edge">
<title>Node3&#45;&gt;Node4</title>
<g id="a_edge3_Node000003_Node000004"><a xlink:title=" ">
<path fill="none" stroke="#63b8ff" d="M426.13,-79.5C434.54,-79.5 443.13,-79.5 451.76,-79.5"/>
<polygon fill="#63b8ff" stroke="#63b8ff" points="451.89,-83 461.89,-79.5 451.89,-76 451.89,-83"/>
</a>
</g>
</g>
<!-- Node4&#45;&gt;Node4 -->
<g id="edge5_Node000004_Node000004" class="edge">
<title>Node4&#45;&gt;Node4</title>
<g id="a_edge5_Node000004_Node000004"><a xlink:title=" ">
<path fill="none" stroke="#63b8ff" d="M536.82,-100.1C531.72,-109.65 547.29,-118 583.5,-118 606.13,-118 620.7,-114.74 627.2,-109.96"/>
<polygon fill="#63b8ff" stroke="#63b8ff" points="630.64,-110.68 630.18,-100.1 623.94,-108.65 630.64,-110.68"/>
</a>
</g>
</g>
<!-- Node5 -->
<g id="Node000005" class="node">
<title>Node5</title>
<g id="a_Node000005"><a xlink:href="classiii__drone_1_1control_1_1CombinedDroneAwarenessHandler.html#a7489deb4a1885f6b4985a3f6de205b64" target="_top" xlink:title="Getter for the combined drone awareness simple type by copy.">
<polygon fill="white" stroke="#666666" points="934,-100 741,-100 741,-59 934,-59 934,-100"/>
<text text-anchor="start" x="749" y="-88" font-family="Helvetica,sans-Serif" font-size="10.00">iii_drone::control</text>
<text text-anchor="start" x="749" y="-77" font-family="Helvetica,sans-Serif" font-size="10.00">::CombinedDroneAwarenessHandler</text>
<text text-anchor="middle" x="837.5" y="-66" font-family="Helvetica,sans-Serif" font-size="10.00">::combined_drone_awareness</text>
</a>
</g>
</g>
<!-- Node4&#45;&gt;Node5 -->
<g id="edge4_Node000004_Node000005" class="edge">
<title>Node4&#45;&gt;Node5</title>
<g id="a_edge4_Node000004_Node000005"><a xlink:title=" ">
<path fill="none" stroke="#63b8ff" d="M705.33,-79.5C713.77,-79.5 722.25,-79.5 730.6,-79.5"/>
<polygon fill="#63b8ff" stroke="#63b8ff" points="730.72,-83 740.72,-79.5 730.72,-76 730.72,-83"/>
</a>
</g>
</g>
</g>
</svg>
