<?xml version="1.0" encoding="UTF-8" standalone="no"?>
<!DOCTYPE svg PUBLIC "-//W3C//DTD SVG 1.1//EN"
 "http://www.w3.org/Graphics/SVG/1.1/DTD/svg11.dtd">
<!-- Generated by graphviz version 2.43.0 (0)
 -->
<!-- Title: iii_drone::perception::hough_transformer_node::HoughTransformerConfigurator::HoughTransformerConfigurator Pages: 1 -->
<!--zoomable 324 -->

<svg id="main" version="1.1" xmlns="http://www.w3.org/2000/svg" xmlns:xlink="http://www.w3.org/1999/xlink" xml:space="preserve" onload="init(evt)">
<style type="text/css"><![CDATA[
.node, .edge {opacity: 0.7;}
.node.selected, .edge.selected {opacity: 1;}
.edge:hover path { stroke: red; }
.edge:hover polygon { stroke: red; fill: red; }
]]></style>

<defs>
  <circle id="rim" cx="0" cy="0" r="7"/>
  <circle id="rim2" cx="0" cy="0" r="3.5"/>
  <g id="zoomPlus">
    <use xlink:href="#rim" fill="#404040"><set attributeName="fill" to="#808080" begin="zoomplus.mouseover" end="zoomplus.mouseout"/></use>
    <path d="M-4,0h8M0,-4v8" fill="none" stroke="white" stroke-width="1.5" pointer-events="none"/>
  </g>
  <g id="zoomMin">
    <use xlink:href="#rim" fill="#404040"><set attributeName="fill" to="#808080" begin="zoomminus.mouseover" end="zoomminus.mouseout"/></use>
    <path d="M-4,0h8" fill="none" stroke="white" stroke-width="1.5" pointer-events="none"/>
  </g>
  <g id="arrowUp" transform="translate(30 24)">
    <use xlink:href="#rim"/>
    <path pointer-events="none" fill="none" stroke="white" stroke-width="1.5" d="M0,-3.0v7 M-2.5,-0.5L0,-3.0L2.5,-0.5"/>
  </g>
  <g id="arrowRight" transform="rotate(90) translate(36 -43)">
    <use xlink:href="#rim"/>
    <path pointer-events="none" fill="none" stroke="white" stroke-width="1.5" d="M0,-3.0v7 M-2.5,-0.5L0,-3.0L2.5,-0.5"/>
  </g>
  <g id="arrowDown" transform="rotate(180) translate(-30 -48)">
    <use xlink:href="#rim"/>
    <path pointer-events="none" fill="none" stroke="white" stroke-width="1.5" d="M0,-3.0v7 M-2.5,-0.5L0,-3.0L2.5,-0.5"/>
  </g>
  <g id="arrowLeft" transform="rotate(270) translate(-36 17)">
    <use xlink:href="#rim"/>
    <path pointer-events="none" fill="none" stroke="white" stroke-width="1.5" d="M0,-3.0v7 M-2.5,-0.5L0,-3.0L2.5,-0.5"/>
  </g>
  <g id="resetDef">
    <use xlink:href="#rim2" fill="#404040"><set attributeName="fill" to="#808080" begin="reset.mouseover" end="reset.mouseout"/></use>
  </g>
</defs>
<script type="application/ecmascript">
var viewWidth = 1214;
var viewHeight = 324;
var sectionId = 'dynsection-2';
</script>
<script type="application/ecmascript" xlink:href="svg.min.js"/>
<svg id="graph" class="graph">
<g id="viewport">
<title>iii_drone::perception::hough_transformer_node::HoughTransformerConfigurator::HoughTransformerConfigurator</title>
<!-- Node1 -->
<g id="Node000001" class="node">
<title>Node1</title>
<g id="a_Node000001"><a xlink:title="Constructor.">
<polygon fill="#999999" stroke="#666666" points="173,-246 0,-246 0,-194 173,-194 173,-246"/>
<text text-anchor="start" x="8" y="-234" font-family="Helvetica,sans-Serif" font-size="10.00">iii_drone::perception</text>
<text text-anchor="start" x="8" y="-223" font-family="Helvetica,sans-Serif" font-size="10.00">::hough_transformer_node</text>
<text text-anchor="start" x="8" y="-212" font-family="Helvetica,sans-Serif" font-size="10.00">::HoughTransformerConfigurator</text>
<text text-anchor="middle" x="86.5" y="-201" font-family="Helvetica,sans-Serif" font-size="10.00">::HoughTransformerConfigurator</text>
</a>
</g>
</g>
<!-- Node2 -->
<g id="Node000002" class="node">
<title>Node2</title>
<g id="a_Node000002"><a xlink:href="classiii__drone_1_1perception_1_1hough__transformer__node_1_1HoughTransformerConfigurator.html#af66523ad555b752f0ca805c6de6ba1b6" target="_top" xlink:title="Declares the node specific parameters.">
<polygon fill="white" stroke="#666666" points="387.5,-300 214.5,-300 214.5,-248 387.5,-248 387.5,-300"/>
<text text-anchor="start" x="222.5" y="-288" font-family="Helvetica,sans-Serif" font-size="10.00">iii_drone::perception</text>
<text text-anchor="start" x="222.5" y="-277" font-family="Helvetica,sans-Serif" font-size="10.00">::hough_transformer_node</text>
<text text-anchor="start" x="222.5" y="-266" font-family="Helvetica,sans-Serif" font-size="10.00">::HoughTransformerConfigurator</text>
<text text-anchor="middle" x="301" y="-255" font-family="Helvetica,sans-Serif" font-size="10.00">::declareNodeParameters</text>
</a>
</g>
</g>
<!-- Node1&#45;&gt;Node2 -->
<g id="edge1_Node000001_Node000002" class="edge">
<title>Node1&#45;&gt;Node2</title>
<g id="a_edge1_Node000001_Node000002"><a xlink:title=" ">
<path fill="none" stroke="#63b8ff" d="M173.01,-241.73C183.33,-244.35 193.91,-247.04 204.36,-249.7"/>
<polygon fill="#63b8ff" stroke="#63b8ff" points="203.76,-253.16 214.32,-252.23 205.49,-246.37 203.76,-253.16"/>
</a>
</g>
</g>
<!-- Node4 -->
<g id="Node000004" class="node">
<title>Node4</title>
<g id="a_Node000004"><a xlink:href="classiii__drone_1_1configuration_1_1Configurator.html#ac5360ab6b4f31277c7d73b5579815353" target="_top" xlink:title="Static function for getting string representation of a parameter type from template type.">
<polygon fill="white" stroke="#666666" points="1206,-221.5 1027,-221.5 1027,-180.5 1206,-180.5 1206,-221.5"/>
<text text-anchor="start" x="1035" y="-209.5" font-family="Helvetica,sans-Serif" font-size="10.00">iii_drone::configuration</text>
<text text-anchor="start" x="1035" y="-198.5" font-family="Helvetica,sans-Serif" font-size="10.00">::Configurator::GetParameterType</text>
<text text-anchor="middle" x="1116.5" y="-187.5" font-family="Helvetica,sans-Serif" font-size="10.00">String</text>
</a>
</g>
</g>
<!-- Node1&#45;&gt;Node4 -->
<g id="edge5_Node000001_Node000004" class="edge">
<title>Node1&#45;&gt;Node4</title>
<g id="a_edge5_Node000001_Node000004"><a xlink:title=" ">
<path fill="none" stroke="#63b8ff" d="M173.38,-220C259.6,-220 396.26,-220 514.5,-220 514.5,-220 514.5,-220 717,-220 819.29,-220 936.18,-213.68 1016.78,-208.33"/>
<polygon fill="#63b8ff" stroke="#63b8ff" points="1017.18,-211.81 1026.92,-207.65 1016.71,-204.82 1017.18,-211.81"/>
</a>
</g>
</g>
<!-- Node5 -->
<g id="Node000005" class="node">
<title>Node5</title>
<g id="a_Node000005"><a xlink:href="classiii__drone_1_1perception_1_1hough__transformer__node_1_1HoughTransformerConfigurator.html#adde4ce8998f667282def3f9611ea819e" target="_top" xlink:title="Initialises the HoughTransformer parameters.">
<polygon fill="white" stroke="#666666" points="393,-157 209,-157 209,-105 393,-105 393,-157"/>
<text text-anchor="start" x="217" y="-145" font-family="Helvetica,sans-Serif" font-size="10.00">iii_drone::perception</text>
<text text-anchor="start" x="217" y="-134" font-family="Helvetica,sans-Serif" font-size="10.00">::hough_transformer_node</text>
<text text-anchor="start" x="217" y="-123" font-family="Helvetica,sans-Serif" font-size="10.00">::HoughTransformerConfigurator</text>
<text text-anchor="middle" x="301" y="-112" font-family="Helvetica,sans-Serif" font-size="10.00">::initHoughTransformerParameters</text>
</a>
</g>
</g>
<!-- Node1&#45;&gt;Node5 -->
<g id="edge6_Node000001_Node000005" class="edge">
<title>Node1&#45;&gt;Node5</title>
<g id="a_edge6_Node000001_Node000005"><a xlink:title=" ">
<path fill="none" stroke="#63b8ff" d="M149.82,-193.9C174.47,-183.57 202.95,-171.65 228.44,-160.97"/>
<polygon fill="#63b8ff" stroke="#63b8ff" points="229.81,-164.19 237.68,-157.1 227.1,-157.74 229.81,-164.19"/>
</a>
</g>
</g>
<!-- Node3 -->
<g id="Node000003" class="node">
<title>Node3</title>
<g id="a_Node000003"><a xlink:href="configurator_8cpp.html#a4249c2018a72e5ed93ef4d0ef6b9d25f" target="_top" xlink:title=" ">
<polygon fill="white" stroke="#666666" points="581,-316 450,-316 450,-286 581,-286 581,-316"/>
<text text-anchor="start" x="458" y="-304" font-family="Helvetica,sans-Serif" font-size="10.00">DeclareParameter&lt; std</text>
<text text-anchor="middle" x="515.5" y="-293" font-family="Helvetica,sans-Serif" font-size="10.00">::string &gt;</text>
</a>
</g>
</g>
<!-- Node2&#45;&gt;Node3 -->
<g id="edge2_Node000002_Node000003" class="edge">
<title>Node2&#45;&gt;Node3</title>
<g id="a_edge2_Node000002_Node000003"><a xlink:title=" ">
<path fill="none" stroke="#63b8ff" d="M387.51,-284.87C404.7,-287.05 422.65,-289.33 439.45,-291.46"/>
<polygon fill="#63b8ff" stroke="#63b8ff" points="439.39,-294.98 449.75,-292.77 440.27,-288.04 439.39,-294.98"/>
</a>
</g>
</g>
<!-- Node2&#45;&gt;Node4 -->
<g id="edge3_Node000002_Node000004" class="edge">
<title>Node2&#45;&gt;Node4</title>
<g id="a_edge3_Node000002_Node000004"><a xlink:title=" ">
<path fill="none" stroke="#63b8ff" d="M387.72,-274.54C518.62,-274.11 775.81,-268.41 991,-234 1006.31,-231.55 1022.45,-228.01 1037.86,-224.15"/>
<polygon fill="#63b8ff" stroke="#63b8ff" points="1039.05,-227.46 1047.86,-221.57 1037.3,-220.68 1039.05,-227.46"/>
</a>
</g>
</g>
<!-- Node4&#45;&gt;Node4 -->
<g id="edge4_Node000004_Node000004" class="edge">
<title>Node4&#45;&gt;Node4</title>
<g id="a_edge4_Node000004_Node000004"><a xlink:title=" ">
<path fill="none" stroke="#63b8ff" d="M1078.64,-221.6C1074.51,-231.15 1087.13,-239.5 1116.5,-239.5 1134.86,-239.5 1146.67,-236.24 1151.94,-231.46"/>
<polygon fill="#63b8ff" stroke="#63b8ff" points="1155.38,-232.14 1154.36,-221.6 1148.58,-230.47 1155.38,-232.14"/>
</a>
</g>
</g>
<!-- Node6 -->
<g id="Node000006" class="node">
<title>Node6</title>
<g id="a_Node000006"><a xlink:href="classiii__drone_1_1perception_1_1hough__transformer__node_1_1HoughTransformerConfigurator.html#a8b05de9a080e53682fc518342e64a1c7" target="_top" xlink:title="Get the Canny kernel size.">
<polygon fill="white" stroke="#666666" points="602,-192 429,-192 429,-140 602,-140 602,-192"/>
<text text-anchor="start" x="437" y="-180" font-family="Helvetica,sans-Serif" font-size="10.00">iii_drone::perception</text>
<text text-anchor="start" x="437" y="-169" font-family="Helvetica,sans-Serif" font-size="10.00">::hough_transformer_node</text>
<text text-anchor="start" x="437" y="-158" font-family="Helvetica,sans-Serif" font-size="10.00">::HoughTransformerConfigurator</text>
<text text-anchor="middle" x="515.5" y="-147" font-family="Helvetica,sans-Serif" font-size="10.00">::canny_kernel_size</text>
</a>
</g>
</g>
<!-- Node5&#45;&gt;Node6 -->
<g id="edge7_Node000005_Node000006" class="edge">
<title>Node5&#45;&gt;Node6</title>
<g id="a_edge7_Node000005_Node000006"><a xlink:title=" ">
<path fill="none" stroke="#63b8ff" d="M393.04,-146C401.55,-147.4 410.18,-148.82 418.72,-150.22"/>
<polygon fill="#63b8ff" stroke="#63b8ff" points="418.26,-153.7 428.7,-151.87 419.4,-146.79 418.26,-153.7"/>
</a>
</g>
</g>
<!-- Node9 -->
<g id="Node000009" class="node">
<title>Node9</title>
<g id="a_Node000009"><a xlink:href="classiii__drone_1_1perception_1_1hough__transformer__node_1_1HoughTransformerConfigurator.html#a187edf29750e6d6c203c55fdb57e139d" target="_top" xlink:title="Get the Canny low threshold.">
<polygon fill="white" stroke="#666666" points="602,-122 429,-122 429,-70 602,-70 602,-122"/>
<text text-anchor="start" x="437" y="-110" font-family="Helvetica,sans-Serif" font-size="10.00">iii_drone::perception</text>
<text text-anchor="start" x="437" y="-99" font-family="Helvetica,sans-Serif" font-size="10.00">::hough_transformer_node</text>
<text text-anchor="start" x="437" y="-88" font-family="Helvetica,sans-Serif" font-size="10.00">::HoughTransformerConfigurator</text>
<text text-anchor="middle" x="515.5" y="-77" font-family="Helvetica,sans-Serif" font-size="10.00">::canny_low_threshold</text>
</a>
</g>
</g>
<!-- Node5&#45;&gt;Node9 -->
<g id="edge12_Node000005_Node000009" class="edge">
<title>Node5&#45;&gt;Node9</title>
<g id="a_edge12_Node000005_Node000009"><a xlink:title=" ">
<path fill="none" stroke="#63b8ff" d="M393.04,-116C401.55,-114.6 410.18,-113.18 418.72,-111.78"/>
<polygon fill="#63b8ff" stroke="#63b8ff" points="419.4,-115.21 428.7,-110.13 418.26,-108.3 419.4,-115.21"/>
</a>
</g>
</g>
<!-- Node10 -->
<g id="Node000010" class="node">
<title>Node10</title>
<g id="a_Node000010"><a xlink:href="classiii__drone_1_1perception_1_1hough__transformer__node_1_1HoughTransformerConfigurator.html#ad4ab282a7c6fbaa254f7a339529acbee" target="_top" xlink:title="Get the Canny ratio.">
<polygon fill="white" stroke="#666666" points="602,-52 429,-52 429,0 602,0 602,-52"/>
<text text-anchor="start" x="437" y="-40" font-family="Helvetica,sans-Serif" font-size="10.00">iii_drone::perception</text>
<text text-anchor="start" x="437" y="-29" font-family="Helvetica,sans-Serif" font-size="10.00">::hough_transformer_node</text>
<text text-anchor="start" x="437" y="-18" font-family="Helvetica,sans-Serif" font-size="10.00">::HoughTransformerConfigurator</text>
<text text-anchor="middle" x="515.5" y="-7" font-family="Helvetica,sans-Serif" font-size="10.00">::canny_ratio</text>
</a>
</g>
</g>
<!-- Node5&#45;&gt;Node10 -->
<g id="edge14_Node000005_Node000010" class="edge">
<title>Node5&#45;&gt;Node10</title>
<g id="a_edge14_Node000005_Node000010"><a xlink:title=" ">
<path fill="none" stroke="#63b8ff" d="M346.31,-104.94C370.41,-91.18 400.95,-74.42 429,-61 432.31,-59.42 435.7,-57.84 439.15,-56.28"/>
<polygon fill="#63b8ff" stroke="#63b8ff" points="440.63,-59.45 448.35,-52.19 437.79,-53.05 440.63,-59.45"/>
</a>
</g>
</g>
<!-- Node7 -->
<g id="Node000007" class="node">
<title>Node7</title>
<g id="a_Node000007"><a xlink:href="classiii__drone_1_1configuration_1_1Configurator.html#a896be5ed2c6890f9f5ecaa89cb0eee7d" target="_top" xlink:title="Get a parameter.">
<polygon fill="white" stroke="#666666" points="794,-154 638,-154 638,-124 794,-124 794,-154"/>
<text text-anchor="start" x="646" y="-142" font-family="Helvetica,sans-Serif" font-size="10.00">iii_drone::configuration</text>
<text text-anchor="middle" x="716" y="-131" font-family="Helvetica,sans-Serif" font-size="10.00">::Configurator::GetParameter</text>
</a>
</g>
</g>
<!-- Node6&#45;&gt;Node7 -->
<g id="edge8_Node000006_Node000007" class="edge">
<title>Node6&#45;&gt;Node7</title>
<g id="a_edge8_Node000006_Node000007"><a xlink:title=" ">
<path fill="none" stroke="#63b8ff" d="M602.12,-154.35C610.64,-153.19 619.3,-152.02 627.84,-150.86"/>
<polygon fill="#63b8ff" stroke="#63b8ff" points="628.36,-154.32 637.79,-149.5 627.41,-147.38 628.36,-154.32"/>
</a>
</g>
</g>
<!-- Node7&#45;&gt;Node4 -->
<g id="edge11_Node000007_Node000004" class="edge">
<title>Node7&#45;&gt;Node4</title>
<g id="a_edge11_Node000007_Node000004"><a xlink:title=" ">
<path fill="none" stroke="#63b8ff" d="M783.46,-154.01C798.71,-157.2 814.88,-160.39 830,-163 891.81,-173.66 961.6,-183 1016.7,-189.75"/>
<polygon fill="#63b8ff" stroke="#63b8ff" points="1016.47,-193.25 1026.82,-190.98 1017.31,-186.3 1016.47,-193.25"/>
</a>
</g>
</g>
<!-- Node8 -->
<g id="Node000008" class="node">
<title>Node8</title>
<g id="a_Node000008"><a xlink:href="classiii__drone_1_1configuration_1_1Configurator.html#ad6e7318a12eda7011acfbe4276e7056a" target="_top" xlink:title="Gets multiple parameters.">
<polygon fill="white" stroke="#666666" points="991,-154 830,-154 830,-124 991,-124 991,-154"/>
<text text-anchor="start" x="838" y="-142" font-family="Helvetica,sans-Serif" font-size="10.00">iii_drone::configuration</text>
<text text-anchor="middle" x="910.5" y="-131" font-family="Helvetica,sans-Serif" font-size="10.00">::Configurator::GetParameters</text>
</a>
</g>
</g>
<!-- Node7&#45;&gt;Node8 -->
<g id="edge9_Node000007_Node000008" class="edge">
<title>Node7&#45;&gt;Node8</title>
<g id="a_edge9_Node000007_Node000008"><a xlink:title=" ">
<path fill="none" stroke="#63b8ff" d="M794.19,-139C802.52,-139 811.04,-139 819.51,-139"/>
<polygon fill="#63b8ff" stroke="#63b8ff" points="819.78,-142.5 829.78,-139 819.78,-135.5 819.78,-142.5"/>
</a>
</g>
</g>
<!-- Node8&#45;&gt;Node4 -->
<g id="edge10_Node000008_Node000004" class="edge">
<title>Node8&#45;&gt;Node4</title>
<g id="a_edge10_Node000008_Node000004"><a xlink:title=" ">
<path fill="none" stroke="#63b8ff" d="M960.88,-154.01C983.99,-161.03 1012.06,-169.56 1037.91,-177.42"/>
<polygon fill="#63b8ff" stroke="#63b8ff" points="1037.1,-180.83 1047.69,-180.39 1039.14,-174.13 1037.1,-180.83"/>
</a>
</g>
</g>
<!-- Node9&#45;&gt;Node7 -->
<g id="edge13_Node000009_Node000007" class="edge">
<title>Node9&#45;&gt;Node7</title>
<g id="a_edge13_Node000009_Node000007"><a xlink:title=" ">
<path fill="none" stroke="#63b8ff" d="M602.12,-114.55C613.21,-116.95 624.53,-119.4 635.51,-121.78"/>
<polygon fill="#63b8ff" stroke="#63b8ff" points="634.97,-125.24 645.48,-123.94 636.45,-118.4 634.97,-125.24"/>
</a>
</g>
</g>
<!-- Node10&#45;&gt;Node7 -->
<g id="edge15_Node000010_Node000007" class="edge">
<title>Node10&#45;&gt;Node7</title>
<g id="a_edge15_Node000010_Node000007"><a xlink:title=" ">
<path fill="none" stroke="#63b8ff" d="M584.34,-52.18C590.39,-54.99 596.36,-57.94 602,-61 632.85,-77.71 665.59,-100.99 687.83,-117.76"/>
<polygon fill="#63b8ff" stroke="#63b8ff" points="685.75,-120.57 695.82,-123.84 689.99,-115 685.75,-120.57"/>
</a>
</g>
</g>
</g>
</svg>

<g id="navigator" transform="translate(0 0)" fill="#404254">
  <rect fill="#f2f5e9" fill-opacity="0.5" stroke="#606060" stroke-width=".5" x="0" y="0" width="60" height="60"/>
  <use id="zoomplus" xlink:href="#zoomPlus" x="17" y="9" onmousedown="handleZoom(evt,'in')"/>
  <use id="zoomminus" xlink:href="#zoomMin" x="42" y="9" onmousedown="handleZoom(evt,'out')"/>
  <use id="reset" xlink:href="#resetDef" x="30" y="36" onmousedown="handleReset()"/>
   <use id="arrowup" xlink:href="#arrowUp" x="0" y="0" onmousedown="handlePan(0,-1)"/>
  <use id="arrowright" xlink:href="#arrowRight" x="0" y="0" onmousedown="handlePan(1,0)"/>
  <use id="arrowdown" xlink:href="#arrowDown" x="0" y="0" onmousedown="handlePan(0,1)"/>
  <use id="arrowleft" xlink:href="#arrowLeft" x="0" y="0" onmousedown="handlePan(-1,0)"/>
</g>
<svg viewBox="0 0 15 15" width="100%" height="30px" preserveAspectRatio="xMaxYMin meet">
 <g id="arrow_out" transform="scale(0.3 0.3)">
  <a xlink:href="classiii__drone_1_1perception_1_1hough__transformer__node_1_1HoughTransformerConfigurator_acaaebc90c58dcb3a460fdbb199f0c6bb_cgraph_org.svg" target="_base">
   <rect id="button" ry="5" rx="5" y="6" x="6" height="38" width="38"
        fill="#f2f5e9" fill-opacity="0.5" stroke="#606060" stroke-width="1.0"/>
   <path id="arrow"
     d="M 11.500037,31.436501 C 11.940474,20.09759 22.043105,11.32322 32.158766,21.979434 L 37.068811,17.246167 C 37.068811,17.246167 37.088388,32 37.088388,32 L 22.160133,31.978069 C 22.160133,31.978069 26.997745,27.140456 26.997745,27.140456 C 18.528582,18.264221 13.291696,25.230495 11.500037,31.436501 z"
     style="fill:#404040;"/>
  </a>
 </g>
</svg>

<style type='text/css'>
<![CDATA[
[data-mouse-over-selected='false'] { opacity: 0.7; }
[data-mouse-over-selected='true']  { opacity: 1.0; }
]]>
</style>
<script type="application/ecmascript"><![CDATA[
document.addEventListener('DOMContentLoaded', (event) => {
  highlightEdges();
  highlightAdjacentNodes();
});
]]></script>
</svg>
