<?xml version="1.0" encoding="UTF-8" standalone="no"?>
<!DOCTYPE svg PUBLIC "-//W3C//DTD SVG 1.1//EN"
 "http://www.w3.org/Graphics/SVG/1.1/DTD/svg11.dtd">
<!-- Generated by graphviz version 2.43.0 (0)
 -->
<!-- Title: iii_drone::mission::continuous_mission_orchestrator_node::ContinuousMissionOrchestrator::stateMachineLandingOnCable Pages: 1 -->
<!--zoomable 1088 -->

<svg id="main" version="1.1" xmlns="http://www.w3.org/2000/svg" xmlns:xlink="http://www.w3.org/1999/xlink" xml:space="preserve" onload="init(evt)">
<style type="text/css"><![CDATA[
.node, .edge {opacity: 0.7;}
.node.selected, .edge.selected {opacity: 1;}
.edge:hover path { stroke: red; }
.edge:hover polygon { stroke: red; fill: red; }
]]></style>

<defs>
  <circle id="rim" cx="0" cy="0" r="7"/>
  <circle id="rim2" cx="0" cy="0" r="3.5"/>
  <g id="zoomPlus">
    <use xlink:href="#rim" fill="#404040"><set attributeName="fill" to="#808080" begin="zoomplus.mouseover" end="zoomplus.mouseout"/></use>
    <path d="M-4,0h8M0,-4v8" fill="none" stroke="white" stroke-width="1.5" pointer-events="none"/>
  </g>
  <g id="zoomMin">
    <use xlink:href="#rim" fill="#404040"><set attributeName="fill" to="#808080" begin="zoomminus.mouseover" end="zoomminus.mouseout"/></use>
    <path d="M-4,0h8" fill="none" stroke="white" stroke-width="1.5" pointer-events="none"/>
  </g>
  <g id="arrowUp" transform="translate(30 24)">
    <use xlink:href="#rim"/>
    <path pointer-events="none" fill="none" stroke="white" stroke-width="1.5" d="M0,-3.0v7 M-2.5,-0.5L0,-3.0L2.5,-0.5"/>
  </g>
  <g id="arrowRight" transform="rotate(90) translate(36 -43)">
    <use xlink:href="#rim"/>
    <path pointer-events="none" fill="none" stroke="white" stroke-width="1.5" d="M0,-3.0v7 M-2.5,-0.5L0,-3.0L2.5,-0.5"/>
  </g>
  <g id="arrowDown" transform="rotate(180) translate(-30 -48)">
    <use xlink:href="#rim"/>
    <path pointer-events="none" fill="none" stroke="white" stroke-width="1.5" d="M0,-3.0v7 M-2.5,-0.5L0,-3.0L2.5,-0.5"/>
  </g>
  <g id="arrowLeft" transform="rotate(270) translate(-36 17)">
    <use xlink:href="#rim"/>
    <path pointer-events="none" fill="none" stroke="white" stroke-width="1.5" d="M0,-3.0v7 M-2.5,-0.5L0,-3.0L2.5,-0.5"/>
  </g>
  <g id="resetDef">
    <use xlink:href="#rim2" fill="#404040"><set attributeName="fill" to="#808080" begin="reset.mouseover" end="reset.mouseout"/></use>
  </g>
</defs>
<script type="application/ecmascript">
var viewWidth = 777;
var viewHeight = 1088;
var sectionId = 'dynsection-109';
</script>
<script type="application/ecmascript" xlink:href="svg.min.js"/>
<svg id="graph" class="graph">
<g id="viewport">
<title>iii_drone::mission::continuous_mission_orchestrator_node::ContinuousMissionOrchestrator::stateMachineLandingOnCable</title>
<!-- Node1 -->
<g id="Node000001" class="node">
<title>Node1</title>
<g id="a_Node000001"><a xlink:title=" ">
<polygon fill="#999999" stroke="#666666" points="225,-723 0,-723 0,-660 225,-660 225,-723"/>
<text text-anchor="start" x="8" y="-711" font-family="Helvetica,sans-Serif" font-size="10.00">iii_drone::mission</text>
<text text-anchor="start" x="8" y="-700" font-family="Helvetica,sans-Serif" font-size="10.00">::continuous_mission</text>
<text text-anchor="start" x="8" y="-689" font-family="Helvetica,sans-Serif" font-size="10.00">_orchestrator_node::Continuous</text>
<text text-anchor="start" x="8" y="-678" font-family="Helvetica,sans-Serif" font-size="10.00">MissionOrchestrator::stateMachineLanding</text>
<text text-anchor="middle" x="112.5" y="-667" font-family="Helvetica,sans-Serif" font-size="10.00">OnCable</text>
</a>
</g>
</g>
<!-- Node2 -->
<g id="Node000002" class="node">
<title>Node2</title>
<g id="a_Node000002"><a xlink:href="classiii__drone_1_1mission_1_1continuous__mission__orchestrator__node_1_1ContinuousMissionOrchestrator.html#afa42fc228153051b996b65cf0dc887ee" target="_top" xlink:title=" ">
<polygon fill="white" stroke="#666666" points="476.5,-1079.5 285.5,-1079.5 285.5,-1027.5 476.5,-1027.5 476.5,-1079.5"/>
<text text-anchor="start" x="293.5" y="-1067.5" font-family="Helvetica,sans-Serif" font-size="10.00">iii_drone::mission</text>
<text text-anchor="start" x="293.5" y="-1056.5" font-family="Helvetica,sans-Serif" font-size="10.00">::continuous_mission</text>
<text text-anchor="start" x="293.5" y="-1045.5" font-family="Helvetica,sans-Serif" font-size="10.00">_orchestrator_node::Continuous</text>
<text text-anchor="middle" x="381" y="-1034.5" font-family="Helvetica,sans-Serif" font-size="10.00">MissionOrchestrator::actionTimeout</text>
</a>
</g>
</g>
<!-- Node1&#45;&gt;Node2 -->
<g id="edge1_Node000001_Node000002" class="edge">
<title>Node1&#45;&gt;Node2</title>
<g id="a_edge1_Node000001_Node000002"><a xlink:title=" ">
<path fill="none" stroke="#63b8ff" d="M118.74,-723.26C131.2,-788.48 168.72,-938.12 261,-1018.5 265.74,-1022.63 270.95,-1026.27 276.46,-1029.49"/>
<polygon fill="#63b8ff" stroke="#63b8ff" points="274.86,-1032.6 285.33,-1034.19 278.14,-1026.42 274.86,-1032.6"/>
</a>
</g>
</g>
<!-- Node3 -->
<g id="Node000003" class="node">
<title>Node3</title>
<g id="a_Node000003"><a xlink:href="classiii__drone_1_1mission_1_1continuous__mission__orchestrator__node_1_1ContinuousMissionOrchestrator.html#a69ddb0cba24369af857d3c78986690db" target="_top" xlink:title=" ">
<polygon fill="white" stroke="#666666" points="500,-1009.5 262,-1009.5 262,-957.5 500,-957.5 500,-1009.5"/>
<text text-anchor="start" x="270" y="-997.5" font-family="Helvetica,sans-Serif" font-size="10.00">iii_drone::mission</text>
<text text-anchor="start" x="270" y="-986.5" font-family="Helvetica,sans-Serif" font-size="10.00">::continuous_mission</text>
<text text-anchor="start" x="270" y="-975.5" font-family="Helvetica,sans-Serif" font-size="10.00">_orchestrator_node::Continuous</text>
<text text-anchor="middle" x="381" y="-964.5" font-family="Helvetica,sans-Serif" font-size="10.00">MissionOrchestrator::cableLandingSucceeded</text>
</a>
</g>
</g>
<!-- Node1&#45;&gt;Node3 -->
<g id="edge2_Node000001_Node000003" class="edge">
<title>Node1&#45;&gt;Node3</title>
<g id="a_edge2_Node000001_Node000003"><a xlink:title=" ">
<path fill="none" stroke="#63b8ff" d="M122.98,-723.15C140.88,-777.49 184.87,-888.44 261,-948.5 262.55,-949.73 264.15,-950.91 265.78,-952.05"/>
<polygon fill="#63b8ff" stroke="#63b8ff" points="263.91,-955.01 274.22,-957.42 267.66,-949.1 263.91,-955.01"/>
</a>
</g>
</g>
<!-- Node4 -->
<g id="Node000004" class="node">
<title>Node4</title>
<g id="a_Node000004"><a xlink:href="classiii__drone_1_1mission_1_1continuous__mission__orchestrator__node_1_1ContinuousMissionOrchestrator.html#aa161248635e56fb718cda6b4edd7b0d7" target="_top" xlink:title=" ">
<polygon fill="white" stroke="#666666" points="501,-939.5 261,-939.5 261,-887.5 501,-887.5 501,-939.5"/>
<text text-anchor="start" x="269" y="-927.5" font-family="Helvetica,sans-Serif" font-size="10.00">iii_drone::mission</text>
<text text-anchor="start" x="269" y="-916.5" font-family="Helvetica,sans-Serif" font-size="10.00">::continuous_mission</text>
<text text-anchor="start" x="269" y="-905.5" font-family="Helvetica,sans-Serif" font-size="10.00">_orchestrator_node::Continuous</text>
<text text-anchor="middle" x="381" y="-894.5" font-family="Helvetica,sans-Serif" font-size="10.00">MissionOrchestrator::cableLandingTerminated</text>
</a>
</g>
</g>
<!-- Node1&#45;&gt;Node4 -->
<g id="edge3_Node000001_Node000004" class="edge">
<title>Node1&#45;&gt;Node4</title>
<g id="a_edge3_Node000001_Node000004"><a xlink:title=" ">
<path fill="none" stroke="#63b8ff" d="M130.25,-723.29C153.87,-765.05 200.88,-837.86 261,-878.5 262.96,-879.82 264.96,-881.1 267.01,-882.32"/>
<polygon fill="#63b8ff" stroke="#63b8ff" points="265.81,-885.65 276.25,-887.4 269.18,-879.52 265.81,-885.65"/>
</a>
</g>
</g>
<!-- Node5 -->
<g id="Node000005" class="node">
<title>Node5</title>
<g id="a_Node000005"><a xlink:href="classiii__drone_1_1mission_1_1continuous__mission__orchestrator__node_1_1ContinuousMissionOrchestrator.html#a2891dc2fc04ffcaa2057057df29c98e4" target="_top" xlink:title=" ">
<polygon fill="white" stroke="#666666" points="490,-869.5 272,-869.5 272,-817.5 490,-817.5 490,-869.5"/>
<text text-anchor="start" x="280" y="-857.5" font-family="Helvetica,sans-Serif" font-size="10.00">iii_drone::mission</text>
<text text-anchor="start" x="280" y="-846.5" font-family="Helvetica,sans-Serif" font-size="10.00">::continuous_mission</text>
<text text-anchor="start" x="280" y="-835.5" font-family="Helvetica,sans-Serif" font-size="10.00">_orchestrator_node::Continuous</text>
<text text-anchor="middle" x="381" y="-824.5" font-family="Helvetica,sans-Serif" font-size="10.00">MissionOrchestrator::cancelCableLanding</text>
</a>
</g>
</g>
<!-- Node1&#45;&gt;Node5 -->
<g id="edge4_Node000001_Node000005" class="edge">
<title>Node1&#45;&gt;Node5</title>
<g id="a_edge4_Node000001_Node000005"><a xlink:title=" ">
<path fill="none" stroke="#63b8ff" d="M148.23,-723.1C176.79,-747.74 219.23,-781.39 261,-803.5 267.77,-807.08 274.93,-810.44 282.24,-813.56"/>
<polygon fill="#63b8ff" stroke="#63b8ff" points="280.98,-816.83 291.56,-817.39 283.63,-810.35 280.98,-816.83"/>
</a>
</g>
</g>
<!-- Node6 -->
<g id="Node000006" class="node">
<title>Node6</title>
<g id="a_Node000006"><a xlink:href="classiii__drone_1_1mission_1_1continuous__mission__orchestrator__node_1_1ContinuousMissionOrchestrator.html#a29a1df5808d9d3a7ebe6fc3ada5c72f4" target="_top" xlink:title=" ">
<polygon fill="white" stroke="#666666" points="751.5,-758.5 554.5,-758.5 554.5,-706.5 751.5,-706.5 751.5,-758.5"/>
<text text-anchor="start" x="562.5" y="-746.5" font-family="Helvetica,sans-Serif" font-size="10.00">iii_drone::mission</text>
<text text-anchor="start" x="562.5" y="-735.5" font-family="Helvetica,sans-Serif" font-size="10.00">::continuous_mission</text>
<text text-anchor="start" x="562.5" y="-724.5" font-family="Helvetica,sans-Serif" font-size="10.00">_orchestrator_node::Continuous</text>
<text text-anchor="middle" x="653" y="-713.5" font-family="Helvetica,sans-Serif" font-size="10.00">MissionOrchestrator::getControlState</text>
</a>
</g>
</g>
<!-- Node1&#45;&gt;Node6 -->
<g id="edge5_Node000001_Node000006" class="edge">
<title>Node1&#45;&gt;Node6</title>
<g id="a_edge5_Node000001_Node000006"><a xlink:title=" ">
<path fill="none" stroke="#63b8ff" d="M158.58,-723.19C186.62,-740.92 224.23,-761.27 261,-770.5 357.74,-794.78 471.56,-778.91 551.36,-760.85"/>
<polygon fill="#63b8ff" stroke="#63b8ff" points="552.46,-764.19 561.41,-758.52 550.88,-757.37 552.46,-764.19"/>
</a>
</g>
</g>
<!-- Node7 -->
<g id="Node000007" class="node">
<title>Node7</title>
<g id="a_Node000007"><a xlink:href="classiii__drone_1_1mission_1_1continuous__mission__orchestrator__node_1_1ContinuousMissionOrchestrator.html#ad400869584077107e028c29f64543986" target="_top" xlink:title=" ">
<polygon fill="white" stroke="#666666" points="482.5,-761.5 279.5,-761.5 279.5,-709.5 482.5,-709.5 482.5,-761.5"/>
<text text-anchor="start" x="287.5" y="-749.5" font-family="Helvetica,sans-Serif" font-size="10.00">iii_drone::mission</text>
<text text-anchor="start" x="287.5" y="-738.5" font-family="Helvetica,sans-Serif" font-size="10.00">::continuous_mission</text>
<text text-anchor="start" x="287.5" y="-727.5" font-family="Helvetica,sans-Serif" font-size="10.00">_orchestrator_node::Continuous</text>
<text text-anchor="middle" x="381" y="-716.5" font-family="Helvetica,sans-Serif" font-size="10.00">MissionOrchestrator::getGripperStatus</text>
</a>
</g>
</g>
<!-- Node1&#45;&gt;Node7 -->
<g id="edge6_Node000001_Node000007" class="edge">
<title>Node1&#45;&gt;Node7</title>
<g id="a_edge6_Node000001_Node000007"><a xlink:title=" ">
<path fill="none" stroke="#63b8ff" d="M225.36,-709.97C239.94,-712.38 254.88,-714.84 269.44,-717.25"/>
<polygon fill="#63b8ff" stroke="#63b8ff" points="269.01,-720.72 279.45,-718.9 270.15,-713.82 269.01,-720.72"/>
</a>
</g>
</g>
<!-- Node8 -->
<g id="Node000008" class="node">
<title>Node8</title>
<g id="a_Node000008"><a xlink:href="classiii__drone_1_1mission_1_1continuous__mission__orchestrator__node_1_1ContinuousMissionOrchestrator.html#a255a63c088ad053df407f38cd5c61ea3" target="_top" xlink:title=" ">
<polygon fill="white" stroke="#666666" points="492.5,-673.5 269.5,-673.5 269.5,-621.5 492.5,-621.5 492.5,-673.5"/>
<text text-anchor="start" x="277.5" y="-661.5" font-family="Helvetica,sans-Serif" font-size="10.00">iii_drone::mission</text>
<text text-anchor="start" x="277.5" y="-650.5" font-family="Helvetica,sans-Serif" font-size="10.00">::continuous_mission</text>
<text text-anchor="start" x="277.5" y="-639.5" font-family="Helvetica,sans-Serif" font-size="10.00">_orchestrator_node::Continuous</text>
<text text-anchor="middle" x="381" y="-628.5" font-family="Helvetica,sans-Serif" font-size="10.00">MissionOrchestrator::isInControllableState</text>
</a>
</g>
</g>
<!-- Node1&#45;&gt;Node8 -->
<g id="edge7_Node000001_Node000008" class="edge">
<title>Node1&#45;&gt;Node8</title>
<g id="a_edge7_Node000001_Node000008"><a xlink:title=" ">
<path fill="none" stroke="#63b8ff" d="M225.36,-673.03C236.6,-671.18 248.04,-669.29 259.37,-667.42"/>
<polygon fill="#63b8ff" stroke="#63b8ff" points="259.98,-670.86 269.28,-665.78 258.84,-663.96 259.98,-670.86"/>
</a>
</g>
</g>
<!-- Node9 -->
<g id="Node000009" class="node">
<title>Node9</title>
<g id="a_Node000009"><a xlink:href="classiii__drone_1_1mission_1_1continuous__mission__orchestrator__node_1_1ContinuousMissionOrchestrator.html#acca7ae76bb0157c8a7b9794ef853a992" target="_top" xlink:title=" ">
<polygon fill="white" stroke="#666666" points="466.5,-603.5 295.5,-603.5 295.5,-551.5 466.5,-551.5 466.5,-603.5"/>
<text text-anchor="start" x="303.5" y="-591.5" font-family="Helvetica,sans-Serif" font-size="10.00">iii_drone::mission</text>
<text text-anchor="start" x="303.5" y="-580.5" font-family="Helvetica,sans-Serif" font-size="10.00">::continuous_mission</text>
<text text-anchor="start" x="303.5" y="-569.5" font-family="Helvetica,sans-Serif" font-size="10.00">_orchestrator_node::Continuous</text>
<text text-anchor="middle" x="381" y="-558.5" font-family="Helvetica,sans-Serif" font-size="10.00">MissionOrchestrator::setState</text>
</a>
</g>
</g>
<!-- Node1&#45;&gt;Node9 -->
<g id="edge10_Node000001_Node000009" class="edge">
<title>Node1&#45;&gt;Node9</title>
<g id="a_edge10_Node000001_Node000009"><a xlink:title=" ">
<path fill="none" stroke="#63b8ff" d="M166.16,-659.88C193.74,-644.2 228.47,-625.83 261,-612.5 268.96,-609.24 277.34,-606.14 285.81,-603.24"/>
<polygon fill="#63b8ff" stroke="#63b8ff" points="287.01,-606.53 295.39,-600.04 284.79,-599.89 287.01,-606.53"/>
</a>
</g>
</g>
<!-- Node11 -->
<g id="Node000011" class="node">
<title>Node11</title>
<g id="a_Node000011"><a xlink:href="classiii__drone_1_1mission_1_1continuous__mission__orchestrator__node_1_1ContinuousMissionOrchestrator.html#afc5bc6c1d77577d7c694567f1b8474a2" target="_top" xlink:title=" ">
<polygon fill="white" stroke="#666666" points="482.5,-533.5 279.5,-533.5 279.5,-481.5 482.5,-481.5 482.5,-533.5"/>
<text text-anchor="start" x="287.5" y="-521.5" font-family="Helvetica,sans-Serif" font-size="10.00">iii_drone::mission</text>
<text text-anchor="start" x="287.5" y="-510.5" font-family="Helvetica,sans-Serif" font-size="10.00">::continuous_mission</text>
<text text-anchor="start" x="287.5" y="-499.5" font-family="Helvetica,sans-Serif" font-size="10.00">_orchestrator_node::Continuous</text>
<text text-anchor="middle" x="381" y="-488.5" font-family="Helvetica,sans-Serif" font-size="10.00">MissionOrchestrator::setTargetCableId</text>
</a>
</g>
</g>
<!-- Node1&#45;&gt;Node11 -->
<g id="edge12_Node000001_Node000011" class="edge">
<title>Node1&#45;&gt;Node11</title>
<g id="a_edge12_Node000001_Node000011"><a xlink:title=" ">
<path fill="none" stroke="#63b8ff" d="M136.86,-659.77C163.35,-625.97 209.59,-573.2 261,-542.5 264,-540.71 267.1,-539 270.28,-537.38"/>
<polygon fill="#63b8ff" stroke="#63b8ff" points="271.89,-540.49 279.4,-533.02 268.87,-534.17 271.89,-540.49"/>
</a>
</g>
</g>
<!-- Node12 -->
<g id="Node000012" class="node">
<title>Node12</title>
<g id="a_Node000012"><a xlink:href="classiii__drone_1_1mission_1_1continuous__mission__orchestrator__node_1_1ContinuousMissionOrchestrator.html#a102b2c06ee7e0f4d3e11f391d828a77e" target="_top" xlink:title=" ">
<polygon fill="white" stroke="#666666" points="488.5,-463 273.5,-463 273.5,-400 488.5,-400 488.5,-463"/>
<text text-anchor="start" x="281.5" y="-451" font-family="Helvetica,sans-Serif" font-size="10.00">iii_drone::mission</text>
<text text-anchor="start" x="281.5" y="-440" font-family="Helvetica,sans-Serif" font-size="10.00">::continuous_mission</text>
<text text-anchor="start" x="281.5" y="-429" font-family="Helvetica,sans-Serif" font-size="10.00">_orchestrator_node::Continuous</text>
<text text-anchor="start" x="281.5" y="-418" font-family="Helvetica,sans-Serif" font-size="10.00">MissionOrchestrator::startActionTimeout</text>
<text text-anchor="middle" x="381" y="-407" font-family="Helvetica,sans-Serif" font-size="10.00">Counter</text>
</a>
</g>
</g>
<!-- Node1&#45;&gt;Node12 -->
<g id="edge13_Node000001_Node000012" class="edge">
<title>Node1&#45;&gt;Node12</title>
<g id="a_edge13_Node000001_Node000012"><a xlink:title=" ">
<path fill="none" stroke="#63b8ff" d="M126.76,-659.92C148.2,-612.57 194.83,-523.32 261,-472.5 262.8,-471.12 264.64,-469.79 266.53,-468.5"/>
<polygon fill="#63b8ff" stroke="#63b8ff" points="268.47,-471.41 275.05,-463.11 264.73,-465.49 268.47,-471.41"/>
</a>
</g>
</g>
<!-- Node13 -->
<g id="Node000013" class="node">
<title>Node13</title>
<g id="a_Node000013"><a xlink:href="classiii__drone_1_1mission_1_1continuous__mission__orchestrator__node_1_1ContinuousMissionOrchestrator.html#a94916ea46229cae987e42b9f908d2ec2" target="_top" xlink:title=" ">
<polygon fill="white" stroke="#666666" points="485.5,-381.5 276.5,-381.5 276.5,-329.5 485.5,-329.5 485.5,-381.5"/>
<text text-anchor="start" x="284.5" y="-369.5" font-family="Helvetica,sans-Serif" font-size="10.00">iii_drone::mission</text>
<text text-anchor="start" x="284.5" y="-358.5" font-family="Helvetica,sans-Serif" font-size="10.00">::continuous_mission</text>
<text text-anchor="start" x="284.5" y="-347.5" font-family="Helvetica,sans-Serif" font-size="10.00">_orchestrator_node::Continuous</text>
<text text-anchor="middle" x="381" y="-336.5" font-family="Helvetica,sans-Serif" font-size="10.00">MissionOrchestrator::startCableLanding</text>
</a>
</g>
</g>
<!-- Node1&#45;&gt;Node13 -->
<g id="edge14_Node000001_Node000013" class="edge">
<title>Node1&#45;&gt;Node13</title>
<g id="a_edge14_Node000001_Node000013"><a xlink:title=" ">
<path fill="none" stroke="#63b8ff" d="M120.27,-659.58C134.92,-598.38 175.38,-464.17 261,-391.5 263.24,-389.6 265.57,-387.8 267.99,-386.1"/>
<polygon fill="#63b8ff" stroke="#63b8ff" points="269.95,-389 276.49,-380.66 266.18,-383.1 269.95,-389"/>
</a>
</g>
</g>
<!-- Node18 -->
<g id="Node000018" class="node">
<title>Node18</title>
<g id="a_Node000018"><a xlink:href="classiii__drone_1_1mission_1_1continuous__mission__orchestrator__node_1_1ContinuousMissionOrchestrator.html#ac6e6ef61ee28735566e4424622062d72" target="_top" xlink:title=" ">
<polygon fill="white" stroke="#666666" points="491,-179.5 271,-179.5 271,-127.5 491,-127.5 491,-179.5"/>
<text text-anchor="start" x="279" y="-167.5" font-family="Helvetica,sans-Serif" font-size="10.00">iii_drone::mission</text>
<text text-anchor="start" x="279" y="-156.5" font-family="Helvetica,sans-Serif" font-size="10.00">::continuous_mission</text>
<text text-anchor="start" x="279" y="-145.5" font-family="Helvetica,sans-Serif" font-size="10.00">_orchestrator_node::Continuous</text>
<text text-anchor="middle" x="381" y="-134.5" font-family="Helvetica,sans-Serif" font-size="10.00">MissionOrchestrator::startDisarmOnCable</text>
</a>
</g>
</g>
<!-- Node1&#45;&gt;Node18 -->
<g id="edge19_Node000001_Node000018" class="edge">
<title>Node1&#45;&gt;Node18</title>
<g id="a_edge19_Node000001_Node000018"><a xlink:title=" ">
<path fill="none" stroke="#63b8ff" d="M123.3,-659.57C144.08,-593.9 196.02,-439.8 261,-320.5 287.61,-271.65 326.07,-220.21 352,-187.55"/>
<polygon fill="#63b8ff" stroke="#63b8ff" points="354.8,-189.66 358.31,-179.66 349.33,-185.29 354.8,-189.66"/>
</a>
</g>
</g>
<!-- Node8&#45;&gt;Node6 -->
<g id="edge8_Node000008_Node000006" class="edge">
<title>Node8&#45;&gt;Node6</title>
<g id="a_edge8_Node000008_Node000006"><a xlink:title=" ">
<path fill="none" stroke="#63b8ff" d="M464.84,-673.58C494.78,-683 528.75,-693.7 559.47,-703.37"/>
<polygon fill="#63b8ff" stroke="#63b8ff" points="558.72,-706.8 569.31,-706.47 560.83,-700.13 558.72,-706.8"/>
</a>
</g>
</g>
<!-- Node8&#45;&gt;Node8 -->
<g id="edge9_Node000008_Node000008" class="edge">
<title>Node8&#45;&gt;Node8</title>
<g id="a_edge9_Node000008_Node000008"><a xlink:title=" ">
<path fill="none" stroke="#63b8ff" d="M330.86,-673.7C329.22,-683.46 345.93,-691.5 381,-691.5 404.29,-691.5 419.48,-687.96 426.58,-682.72"/>
<polygon fill="#63b8ff" stroke="#63b8ff" points="429.75,-684.2 431.14,-673.7 423.5,-681.04 429.75,-684.2"/>
</a>
</g>
</g>
<!-- Node10 -->
<g id="Node000010" class="node">
<title>Node10</title>
<g id="a_Node000010"><a xlink:href="classiii__drone_1_1mission_1_1continuous__mission__orchestrator__node_1_1ContinuousMissionOrchestrator.html#a835d55880f4805cb07059aee8cbbfbbc" target="_top" xlink:title=" ">
<polygon fill="white" stroke="#666666" points="750,-620 556,-620 556,-557 750,-557 750,-620"/>
<text text-anchor="start" x="564" y="-608" font-family="Helvetica,sans-Serif" font-size="10.00">iii_drone::mission</text>
<text text-anchor="start" x="564" y="-597" font-family="Helvetica,sans-Serif" font-size="10.00">::continuous_mission</text>
<text text-anchor="start" x="564" y="-586" font-family="Helvetica,sans-Serif" font-size="10.00">_orchestrator_node::Continuous</text>
<text text-anchor="start" x="564" y="-575" font-family="Helvetica,sans-Serif" font-size="10.00">MissionOrchestrator::setTargetCable</text>
<text text-anchor="middle" x="653" y="-564" font-family="Helvetica,sans-Serif" font-size="10.00">IdChanged</text>
</a>
</g>
</g>
<!-- Node9&#45;&gt;Node10 -->
<g id="edge11_Node000009_Node000010" class="edge">
<title>Node9&#45;&gt;Node10</title>
<g id="a_edge11_Node000009_Node000010"><a xlink:title=" ">
<path fill="none" stroke="#63b8ff" d="M466.69,-580.95C491.67,-581.97 519.34,-583.1 545.51,-584.16"/>
<polygon fill="#63b8ff" stroke="#63b8ff" points="545.71,-587.67 555.84,-584.58 546,-580.68 545.71,-587.67"/>
</a>
</g>
</g>
<!-- Node14 -->
<g id="Node000014" class="node">
<title>Node14</title>
<g id="a_Node000014"><a xlink:href="classiii__drone_1_1mission_1_1continuous__mission__orchestrator__node_1_1ContinuousMissionOrchestrator.html#aacac92d91fdd8ca29e1bf8adbf5ac497" target="_top" xlink:title=" ">
<polygon fill="white" stroke="#666666" points="769,-539 537,-539 537,-476 769,-476 769,-539"/>
<text text-anchor="start" x="545" y="-527" font-family="Helvetica,sans-Serif" font-size="10.00">iii_drone::mission</text>
<text text-anchor="start" x="545" y="-516" font-family="Helvetica,sans-Serif" font-size="10.00">::continuous_mission</text>
<text text-anchor="start" x="545" y="-505" font-family="Helvetica,sans-Serif" font-size="10.00">_orchestrator_node::Continuous</text>
<text text-anchor="start" x="545" y="-494" font-family="Helvetica,sans-Serif" font-size="10.00">MissionOrchestrator::cableLandingFeedback</text>
<text text-anchor="middle" x="653" y="-483" font-family="Helvetica,sans-Serif" font-size="10.00">Callback</text>
</a>
</g>
</g>
<!-- Node13&#45;&gt;Node14 -->
<g id="edge15_Node000013_Node000014" class="edge">
<title>Node13&#45;&gt;Node14</title>
<g id="a_edge15_Node000013_Node000014"><a xlink:title=" ">
<path fill="none" stroke="#63b8ff" d="M485.58,-380.58C491.06,-383.79 496.26,-387.41 501,-391.5 529.32,-415.89 509.19,-442.53 537,-467.5 537.85,-468.26 538.71,-469 539.58,-469.73"/>
<polygon fill="#63b8ff" stroke="#63b8ff" points="537.72,-472.71 547.81,-475.94 541.93,-467.13 537.72,-472.71"/>
</a>
</g>
</g>
<!-- Node15 -->
<g id="Node000015" class="node">
<title>Node15</title>
<g id="a_Node000015"><a xlink:href="classiii__drone_1_1mission_1_1continuous__mission__orchestrator__node_1_1ContinuousMissionOrchestrator.html#a83b6f0fdfebffdc8af16878cb76bde0f" target="_top" xlink:title=" ">
<polygon fill="white" stroke="#666666" points="757,-458 549,-458 549,-395 757,-395 757,-458"/>
<text text-anchor="start" x="557" y="-446" font-family="Helvetica,sans-Serif" font-size="10.00">iii_drone::mission</text>
<text text-anchor="start" x="557" y="-435" font-family="Helvetica,sans-Serif" font-size="10.00">::continuous_mission</text>
<text text-anchor="start" x="557" y="-424" font-family="Helvetica,sans-Serif" font-size="10.00">_orchestrator_node::Continuous</text>
<text text-anchor="start" x="557" y="-413" font-family="Helvetica,sans-Serif" font-size="10.00">MissionOrchestrator::cableLandingGoal</text>
<text text-anchor="middle" x="653" y="-402" font-family="Helvetica,sans-Serif" font-size="10.00">ResponseCallback</text>
</a>
</g>
</g>
<!-- Node13&#45;&gt;Node15 -->
<g id="edge16_Node000013_Node000015" class="edge">
<title>Node13&#45;&gt;Node15</title>
<g id="a_edge16_Node000013_Node000015"><a xlink:title=" ">
<path fill="none" stroke="#63b8ff" d="M481,-381.53C499.93,-386.51 519.88,-391.76 539.2,-396.84"/>
<polygon fill="#63b8ff" stroke="#63b8ff" points="538.37,-400.24 548.93,-399.4 540.15,-393.47 538.37,-400.24"/>
</a>
</g>
</g>
<!-- Node16 -->
<g id="Node000016" class="node">
<title>Node16</title>
<g id="a_Node000016"><a xlink:href="classiii__drone_1_1mission_1_1continuous__mission__orchestrator__node_1_1ContinuousMissionOrchestrator.html#a1592f65b4fe81cc2c957bc43594aae98" target="_top" xlink:title=" ">
<polygon fill="white" stroke="#666666" points="761,-377 545,-377 545,-314 761,-314 761,-377"/>
<text text-anchor="start" x="553" y="-365" font-family="Helvetica,sans-Serif" font-size="10.00">iii_drone::mission</text>
<text text-anchor="start" x="553" y="-354" font-family="Helvetica,sans-Serif" font-size="10.00">::continuous_mission</text>
<text text-anchor="start" x="553" y="-343" font-family="Helvetica,sans-Serif" font-size="10.00">_orchestrator_node::Continuous</text>
<text text-anchor="start" x="553" y="-332" font-family="Helvetica,sans-Serif" font-size="10.00">MissionOrchestrator::cableLandingResult</text>
<text text-anchor="middle" x="653" y="-321" font-family="Helvetica,sans-Serif" font-size="10.00">Callback</text>
</a>
</g>
</g>
<!-- Node13&#45;&gt;Node16 -->
<g id="edge17_Node000013_Node000016" class="edge">
<title>Node13&#45;&gt;Node16</title>
<g id="a_edge17_Node000013_Node000016"><a xlink:title=" ">
<path fill="none" stroke="#63b8ff" d="M485.62,-351.66C501.63,-351.07 518.26,-350.45 534.55,-349.85"/>
<polygon fill="#63b8ff" stroke="#63b8ff" points="534.77,-353.34 544.63,-349.48 534.51,-346.35 534.77,-353.34"/>
</a>
</g>
</g>
<!-- Node17 -->
<g id="Node000017" class="node">
<title>Node17</title>
<g id="a_Node000017"><a xlink:href="classiii__drone_1_1mission_1_1continuous__mission__orchestrator__node_1_1ContinuousMissionOrchestrator.html#a4efeaba4750d2187fc340118bdb55cd3" target="_top" xlink:title=" ">
<polygon fill="white" stroke="#666666" points="754.5,-295.5 551.5,-295.5 551.5,-243.5 754.5,-243.5 754.5,-295.5"/>
<text text-anchor="start" x="559.5" y="-283.5" font-family="Helvetica,sans-Serif" font-size="10.00">iii_drone::mission</text>
<text text-anchor="start" x="559.5" y="-272.5" font-family="Helvetica,sans-Serif" font-size="10.00">::continuous_mission</text>
<text text-anchor="start" x="559.5" y="-261.5" font-family="Helvetica,sans-Serif" font-size="10.00">_orchestrator_node::Continuous</text>
<text text-anchor="middle" x="653" y="-250.5" font-family="Helvetica,sans-Serif" font-size="10.00">MissionOrchestrator::getTargetCableId</text>
</a>
</g>
</g>
<!-- Node13&#45;&gt;Node17 -->
<g id="edge18_Node000013_Node000017" class="edge">
<title>Node13&#45;&gt;Node17</title>
<g id="a_edge18_Node000013_Node000017"><a xlink:title=" ">
<path fill="none" stroke="#63b8ff" d="M462.41,-329.42C486.39,-321.68 512.75,-313.21 537,-305.5 543.99,-303.28 551.22,-300.99 558.5,-298.69"/>
<polygon fill="#63b8ff" stroke="#63b8ff" points="559.95,-301.91 568.44,-295.57 557.85,-295.23 559.95,-301.91"/>
</a>
</g>
</g>
<!-- Node19 -->
<g id="Node000019" class="node">
<title>Node19</title>
<g id="a_Node000019"><a xlink:href="classiii__drone_1_1mission_1_1continuous__mission__orchestrator__node_1_1ContinuousMissionOrchestrator.html#a3953537d6c5fd000f2ccb1e7b06b4bed" target="_top" xlink:title=" ">
<polygon fill="white" stroke="#666666" points="751,-225 555,-225 555,-162 751,-162 751,-225"/>
<text text-anchor="start" x="563" y="-213" font-family="Helvetica,sans-Serif" font-size="10.00">iii_drone::mission</text>
<text text-anchor="start" x="563" y="-202" font-family="Helvetica,sans-Serif" font-size="10.00">::continuous_mission</text>
<text text-anchor="start" x="563" y="-191" font-family="Helvetica,sans-Serif" font-size="10.00">_orchestrator_node::Continuous</text>
<text text-anchor="start" x="563" y="-180" font-family="Helvetica,sans-Serif" font-size="10.00">MissionOrchestrator::disarmOnCable</text>
<text text-anchor="middle" x="653" y="-169" font-family="Helvetica,sans-Serif" font-size="10.00">FeedbackCallback</text>
</a>
</g>
</g>
<!-- Node18&#45;&gt;Node19 -->
<g id="edge20_Node000018_Node000019" class="edge">
<title>Node18&#45;&gt;Node19</title>
<g id="a_edge20_Node000018_Node000019"><a xlink:title=" ">
<path fill="none" stroke="#63b8ff" d="M491.04,-169.65C508.66,-172.26 526.89,-174.97 544.47,-177.57"/>
<polygon fill="#63b8ff" stroke="#63b8ff" points="544.33,-181.09 554.74,-179.09 545.36,-174.16 544.33,-181.09"/>
</a>
</g>
</g>
<!-- Node20 -->
<g id="Node000020" class="node">
<title>Node20</title>
<g id="a_Node000020"><a xlink:href="classiii__drone_1_1mission_1_1continuous__mission__orchestrator__node_1_1ContinuousMissionOrchestrator.html#a67bc2aa7c3046d524d4358ff7e3b905d" target="_top" xlink:title=" ">
<polygon fill="white" stroke="#666666" points="751,-144 555,-144 555,-81 751,-81 751,-144"/>
<text text-anchor="start" x="563" y="-132" font-family="Helvetica,sans-Serif" font-size="10.00">iii_drone::mission</text>
<text text-anchor="start" x="563" y="-121" font-family="Helvetica,sans-Serif" font-size="10.00">::continuous_mission</text>
<text text-anchor="start" x="563" y="-110" font-family="Helvetica,sans-Serif" font-size="10.00">_orchestrator_node::Continuous</text>
<text text-anchor="start" x="563" y="-99" font-family="Helvetica,sans-Serif" font-size="10.00">MissionOrchestrator::disarmOnCable</text>
<text text-anchor="middle" x="653" y="-88" font-family="Helvetica,sans-Serif" font-size="10.00">GoalResponseCallback</text>
</a>
</g>
</g>
<!-- Node18&#45;&gt;Node20 -->
<g id="edge21_Node000018_Node000020" class="edge">
<title>Node18&#45;&gt;Node20</title>
<g id="a_edge21_Node000018_Node000020"><a xlink:title=" ">
<path fill="none" stroke="#63b8ff" d="M491.04,-136.94C508.66,-134.27 526.89,-131.5 544.47,-128.83"/>
<polygon fill="#63b8ff" stroke="#63b8ff" points="545.38,-132.23 554.74,-127.27 544.33,-125.31 545.38,-132.23"/>
</a>
</g>
</g>
<!-- Node21 -->
<g id="Node000021" class="node">
<title>Node21</title>
<g id="a_Node000021"><a xlink:href="classiii__drone_1_1mission_1_1continuous__mission__orchestrator__node_1_1ContinuousMissionOrchestrator.html#a40d82924c7f947ef20540e734271471f" target="_top" xlink:title=" ">
<polygon fill="white" stroke="#666666" points="751,-63 555,-63 555,0 751,0 751,-63"/>
<text text-anchor="start" x="563" y="-51" font-family="Helvetica,sans-Serif" font-size="10.00">iii_drone::mission</text>
<text text-anchor="start" x="563" y="-40" font-family="Helvetica,sans-Serif" font-size="10.00">::continuous_mission</text>
<text text-anchor="start" x="563" y="-29" font-family="Helvetica,sans-Serif" font-size="10.00">_orchestrator_node::Continuous</text>
<text text-anchor="start" x="563" y="-18" font-family="Helvetica,sans-Serif" font-size="10.00">MissionOrchestrator::disarmOnCable</text>
<text text-anchor="middle" x="653" y="-7" font-family="Helvetica,sans-Serif" font-size="10.00">ResultCallback</text>
</a>
</g>
</g>
<!-- Node18&#45;&gt;Node21 -->
<g id="edge22_Node000018_Node000021" class="edge">
<title>Node18&#45;&gt;Node21</title>
<g id="a_edge22_Node000018_Node000021"><a xlink:title=" ">
<path fill="none" stroke="#63b8ff" d="M426.89,-127.42C457.36,-110.3 498.9,-88.09 537,-71.5 540.6,-69.93 544.29,-68.38 548.03,-66.85"/>
<polygon fill="#63b8ff" stroke="#63b8ff" points="549.43,-70.06 557.41,-63.1 546.83,-63.56 549.43,-70.06"/>
</a>
</g>
</g>
</g>
</svg>

<g id="navigator" transform="translate(0 0)" fill="#404254">
  <rect fill="#f2f5e9" fill-opacity="0.5" stroke="#606060" stroke-width=".5" x="0" y="0" width="60" height="60"/>
  <use id="zoomplus" xlink:href="#zoomPlus" x="17" y="9" onmousedown="handleZoom(evt,'in')"/>
  <use id="zoomminus" xlink:href="#zoomMin" x="42" y="9" onmousedown="handleZoom(evt,'out')"/>
  <use id="reset" xlink:href="#resetDef" x="30" y="36" onmousedown="handleReset()"/>
   <use id="arrowup" xlink:href="#arrowUp" x="0" y="0" onmousedown="handlePan(0,-1)"/>
  <use id="arrowright" xlink:href="#arrowRight" x="0" y="0" onmousedown="handlePan(1,0)"/>
  <use id="arrowdown" xlink:href="#arrowDown" x="0" y="0" onmousedown="handlePan(0,1)"/>
  <use id="arrowleft" xlink:href="#arrowLeft" x="0" y="0" onmousedown="handlePan(-1,0)"/>
</g>
<svg viewBox="0 0 15 15" width="100%" height="30px" preserveAspectRatio="xMaxYMin meet">
 <g id="arrow_out" transform="scale(0.3 0.3)">
  <a xlink:href="classiii__drone_1_1mission_1_1continuous__mission__orchestrator__node_1_1ContinuousMissionOrchestrator_aced4073ab58729bff6e815d51bf89778_cgraph_org.svg" target="_base">
   <rect id="button" ry="5" rx="5" y="6" x="6" height="38" width="38"
        fill="#f2f5e9" fill-opacity="0.5" stroke="#606060" stroke-width="1.0"/>
   <path id="arrow"
     d="M 11.500037,31.436501 C 11.940474,20.09759 22.043105,11.32322 32.158766,21.979434 L 37.068811,17.246167 C 37.068811,17.246167 37.088388,32 37.088388,32 L 22.160133,31.978069 C 22.160133,31.978069 26.997745,27.140456 26.997745,27.140456 C 18.528582,18.264221 13.291696,25.230495 11.500037,31.436501 z"
     style="fill:#404040;"/>
  </a>
 </g>
</svg>

<style type='text/css'>
<![CDATA[
[data-mouse-over-selected='false'] { opacity: 0.7; }
[data-mouse-over-selected='true']  { opacity: 1.0; }
]]>
</style>
<script type="application/ecmascript"><![CDATA[
document.addEventListener('DOMContentLoaded', (event) => {
  highlightEdges();
  highlightAdjacentNodes();
});
]]></script>
</svg>
