<?xml version="1.0" encoding="UTF-8" standalone="no"?>
<!DOCTYPE svg PUBLIC "-//W3C//DTD SVG 1.1//EN"
 "http://www.w3.org/Graphics/SVG/1.1/DTD/svg11.dtd">
<!-- Generated by graphviz version 2.43.0 (0)
 -->
<!-- Title: iii_drone::control::maneuver::ManeuverServer::handleGoal Pages: 1 -->
<svg width="513pt" height="49pt"
 viewBox="0.00 0.00 513.00 49.00" xmlns="http://www.w3.org/2000/svg" xmlns:xlink="http://www.w3.org/1999/xlink">
<g id="graph0" class="graph" transform="scale(1 1) rotate(0) translate(4 45)">
<title>iii_drone::control::maneuver::ManeuverServer::handleGoal</title>
<!-- Node1 -->
<g id="Node000001" class="node">
<title>Node1</title>
<g id="a_Node000001"><a xlink:title="Handle goal callback.">
<polygon fill="#999999" stroke="#666666" points="158,-41 0,-41 0,0 158,0 158,-41"/>
<text text-anchor="start" x="8" y="-29" font-family="Helvetica,sans-Serif" font-size="10.00">iii_drone::control</text>
<text text-anchor="start" x="8" y="-18" font-family="Helvetica,sans-Serif" font-size="10.00">::maneuver::ManeuverServer</text>
<text text-anchor="middle" x="79" y="-7" font-family="Helvetica,sans-Serif" font-size="10.00">::handleGoal</text>
</a>
</g>
</g>
<!-- Node2 -->
<g id="Node000002" class="node">
<title>Node2</title>
<g id="a_Node000002"><a xlink:href="structiii__drone_1_1control_1_1maneuver_1_1maneuver__t.html#a08a0dd3ddb9ad28558cc799db62a7993" target="_top" xlink:title="Sets type and parameters from goal.">
<polygon fill="white" stroke="#666666" points="322,-41 194,-41 194,0 322,0 322,-41"/>
<text text-anchor="start" x="202" y="-29" font-family="Helvetica,sans-Serif" font-size="10.00">iii_drone::control</text>
<text text-anchor="start" x="202" y="-18" font-family="Helvetica,sans-Serif" font-size="10.00">::maneuver::maneuver</text>
<text text-anchor="middle" x="258" y="-7" font-family="Helvetica,sans-Serif" font-size="10.00">_t::set_from_goal</text>
</a>
</g>
</g>
<!-- Node1&#45;&gt;Node2 -->
<g id="edge1_Node000001_Node000002" class="edge">
<title>Node1&#45;&gt;Node2</title>
<g id="a_edge1_Node000001_Node000002"><a xlink:title=" ">
<path fill="none" stroke="#63b8ff" d="M158.15,-20.5C166.64,-20.5 175.27,-20.5 183.7,-20.5"/>
<polygon fill="#63b8ff" stroke="#63b8ff" points="183.87,-24 193.87,-20.5 183.87,-17 183.87,-24"/>
</a>
</g>
</g>
<!-- Node3 -->
<g id="Node000003" class="node">
<title>Node3</title>
<g id="a_Node000003"><a xlink:href="namespaceiii__drone_1_1types.html#a8215048242190c57b9ff2de3f1daba73" target="_top" xlink:title=" ">
<polygon fill="white" stroke="#666666" points="505,-35.5 358,-35.5 358,-5.5 505,-5.5 505,-35.5"/>
<text text-anchor="start" x="366" y="-23.5" font-family="Helvetica,sans-Serif" font-size="10.00">iii_drone::types::pointFrom</text>
<text text-anchor="middle" x="431.5" y="-12.5" font-family="Helvetica,sans-Serif" font-size="10.00">PointMsg</text>
</a>
</g>
</g>
<!-- Node2&#45;&gt;Node3 -->
<g id="edge2_Node000002_Node000003" class="edge">
<title>Node2&#45;&gt;Node3</title>
<g id="a_edge2_Node000002_Node000003"><a xlink:title=" ">
<path fill="none" stroke="#63b8ff" d="M322.37,-20.5C330.67,-20.5 339.27,-20.5 347.83,-20.5"/>
<polygon fill="#63b8ff" stroke="#63b8ff" points="347.84,-24 357.84,-20.5 347.84,-17 347.84,-24"/>
</a>
</g>
</g>
</g>
</svg>
