<?xml version="1.0" encoding="UTF-8" standalone="no"?>
<!DOCTYPE svg PUBLIC "-//W3C//DTD SVG 1.1//EN"
 "http://www.w3.org/Graphics/SVG/1.1/DTD/svg11.dtd">
<!-- Generated by graphviz version 2.43.0 (0)
 -->
<!-- Title: iii_drone::perception::pl_mapper_node::PowerlineMapperConfigurator::mmwave_frame_id Pages: 1 -->
<svg width="666pt" height="201pt"
 viewBox="0.00 0.00 666.00 200.50" xmlns="http://www.w3.org/2000/svg" xmlns:xlink="http://www.w3.org/1999/xlink">
<g id="graph0" class="graph" transform="scale(1 1) rotate(0) translate(4 196.5)">
<title>iii_drone::perception::pl_mapper_node::PowerlineMapperConfigurator::mmwave_frame_id</title>
<!-- Node1 -->
<g id="Node000001" class="node">
<title>Node1</title>
<g id="a_Node000001"><a xlink:title="Get the mmWave frame ID.">
<polygon fill="#999999" stroke="#666666" points="658,-74.5 493,-74.5 493,-22.5 658,-22.5 658,-74.5"/>
<text text-anchor="start" x="501" y="-62.5" font-family="Helvetica,sans-Serif" font-size="10.00">iii_drone::perception</text>
<text text-anchor="start" x="501" y="-51.5" font-family="Helvetica,sans-Serif" font-size="10.00">::pl_mapper_node::Powerline</text>
<text text-anchor="start" x="501" y="-40.5" font-family="Helvetica,sans-Serif" font-size="10.00">MapperConfigurator::mmwave</text>
<text text-anchor="middle" x="575.5" y="-29.5" font-family="Helvetica,sans-Serif" font-size="10.00">_frame_id</text>
</a>
</g>
</g>
<!-- Node2 -->
<g id="Node000002" class="node">
<title>Node2</title>
<g id="a_Node000002"><a xlink:href="classiii__drone_1_1perception_1_1pl__mapper__node_1_1PowerlineMapperConfigurator.html#a9da2f639fcfb01f409d7a63a62fc91cf" target="_top" xlink:title="Initialize the parameters.">
<polygon fill="white" stroke="#666666" points="457,-128 240,-128 240,-87 457,-87 457,-128"/>
<text text-anchor="start" x="248" y="-116" font-family="Helvetica,sans-Serif" font-size="10.00">iii_drone::perception</text>
<text text-anchor="start" x="248" y="-105" font-family="Helvetica,sans-Serif" font-size="10.00">::pl_mapper_node::Powerline</text>
<text text-anchor="middle" x="348.5" y="-94" font-family="Helvetica,sans-Serif" font-size="10.00">MapperConfigurator::initializeParameters</text>
</a>
</g>
</g>
<!-- Node1&#45;&gt;Node2 -->
<g id="edge1_Node000001_Node000002" class="edge">
<title>Node1&#45;&gt;Node2</title>
<g id="a_edge1_Node000001_Node000002"><a xlink:title=" ">
<path fill="none" stroke="#63b8ff" d="M483.14,-72.46C464.78,-77.27 445.63,-82.29 427.77,-86.98"/>
<polygon fill="#63b8ff" stroke="#63b8ff" points="484.17,-75.81 492.95,-69.88 482.39,-69.03 484.17,-75.81"/>
</a>
</g>
</g>
<!-- Node5 -->
<g id="Node000005" class="node">
<title>Node5</title>
<g id="a_Node000005"><a xlink:href="classiii__drone_1_1perception_1_1pl__mapper__node_1_1PowerlineMapperNode.html#a155acd1e412911b7e8cf989e949a2e2f" target="_top" xlink:title="Callback for mmwave data topic.">
<polygon fill="white" stroke="#666666" points="435,-69 262,-69 262,-28 435,-28 435,-69"/>
<text text-anchor="start" x="270" y="-57" font-family="Helvetica,sans-Serif" font-size="10.00">iii_drone::perception</text>
<text text-anchor="start" x="270" y="-46" font-family="Helvetica,sans-Serif" font-size="10.00">::pl_mapper_node::Powerline</text>
<text text-anchor="middle" x="348.5" y="-35" font-family="Helvetica,sans-Serif" font-size="10.00">MapperNode::mmWaveCallback</text>
</a>
</g>
</g>
<!-- Node1&#45;&gt;Node5 -->
<g id="edge4_Node000001_Node000005" class="edge">
<title>Node1&#45;&gt;Node5</title>
<g id="a_edge4_Node000001_Node000005"><a xlink:title=" ">
<path fill="none" stroke="#63b8ff" d="M482.74,-48.5C467.07,-48.5 450.83,-48.5 435.32,-48.5"/>
<polygon fill="#63b8ff" stroke="#63b8ff" points="482.95,-52 492.95,-48.5 482.95,-45 482.95,-52"/>
</a>
</g>
</g>
<!-- Node6 -->
<g id="Node000006" class="node">
<title>Node6</title>
<g id="a_Node000006"><a xlink:href="classiii__drone_1_1perception_1_1pl__mapper__node_1_1PowerlineMapperNode.html#a703ae72ba683ae11154ce597b8bbad9d" target="_top" xlink:title="Constructor.">
<polygon fill="white" stroke="#666666" points="199.5,-41 4.5,-41 4.5,0 199.5,0 199.5,-41"/>
<text text-anchor="start" x="12.5" y="-29" font-family="Helvetica,sans-Serif" font-size="10.00">iii_drone::perception</text>
<text text-anchor="start" x="12.5" y="-18" font-family="Helvetica,sans-Serif" font-size="10.00">::pl_mapper_node::Powerline</text>
<text text-anchor="middle" x="102" y="-7" font-family="Helvetica,sans-Serif" font-size="10.00">MapperNode::PowerlineMapperNode</text>
</a>
</g>
</g>
<!-- Node1&#45;&gt;Node6 -->
<g id="edge6_Node000001_Node000006" class="edge">
<title>Node1&#45;&gt;Node6</title>
<g id="a_edge6_Node000001_Node000006"><a xlink:title=" ">
<path fill="none" stroke="#63b8ff" d="M483,-22.8C474.27,-21.05 465.5,-19.57 457,-18.5 370.41,-7.62 270.96,-9.43 199.56,-13.19"/>
<polygon fill="#63b8ff" stroke="#63b8ff" points="482.32,-26.23 492.83,-24.87 483.76,-19.38 482.32,-26.23"/>
</a>
</g>
</g>
<!-- Node3 -->
<g id="Node000003" class="node">
<title>Node3</title>
<g id="a_Node000003"><a xlink:href="classiii__drone_1_1perception_1_1pl__mapper__node_1_1PowerlineMapperConfigurator.html#a16671ee9cf2190f4753a79c381e70912" target="_top" xlink:title="Constructor.">
<polygon fill="white" stroke="#666666" points="204,-192.5 0,-192.5 0,-140.5 204,-140.5 204,-192.5"/>
<text text-anchor="start" x="8" y="-180.5" font-family="Helvetica,sans-Serif" font-size="10.00">iii_drone::perception</text>
<text text-anchor="start" x="8" y="-169.5" font-family="Helvetica,sans-Serif" font-size="10.00">::pl_mapper_node::Powerline</text>
<text text-anchor="start" x="8" y="-158.5" font-family="Helvetica,sans-Serif" font-size="10.00">MapperConfigurator::PowerlineMapper</text>
<text text-anchor="middle" x="102" y="-147.5" font-family="Helvetica,sans-Serif" font-size="10.00">Configurator</text>
</a>
</g>
</g>
<!-- Node2&#45;&gt;Node3 -->
<g id="edge2_Node000002_Node000003" class="edge">
<title>Node2&#45;&gt;Node3</title>
<g id="a_edge2_Node000002_Node000003"><a xlink:title=" ">
<path fill="none" stroke="#63b8ff" d="M252.56,-130.41C236.72,-134.23 220.24,-138.21 204.25,-142.07"/>
<polygon fill="#63b8ff" stroke="#63b8ff" points="253.43,-133.8 262.33,-128.05 251.79,-127 253.43,-133.8"/>
</a>
</g>
</g>
<!-- Node4 -->
<g id="Node000004" class="node">
<title>Node4</title>
<g id="a_Node000004"><a xlink:href="classiii__drone_1_1perception_1_1pl__mapper__node_1_1PowerlineMapperConfigurator.html#a31bd150be2affd0af20b334d7efea8ba" target="_top" xlink:title="Constructor.">
<polygon fill="white" stroke="#666666" points="204,-122.5 0,-122.5 0,-70.5 204,-70.5 204,-122.5"/>
<text text-anchor="start" x="8" y="-110.5" font-family="Helvetica,sans-Serif" font-size="10.00">iii_drone::perception</text>
<text text-anchor="start" x="8" y="-99.5" font-family="Helvetica,sans-Serif" font-size="10.00">::pl_mapper_node::Powerline</text>
<text text-anchor="start" x="8" y="-88.5" font-family="Helvetica,sans-Serif" font-size="10.00">MapperConfigurator::PowerlineMapper</text>
<text text-anchor="middle" x="102" y="-77.5" font-family="Helvetica,sans-Serif" font-size="10.00">Configurator</text>
</a>
</g>
</g>
<!-- Node2&#45;&gt;Node4 -->
<g id="edge3_Node000002_Node000004" class="edge">
<title>Node2&#45;&gt;Node4</title>
<g id="a_edge3_Node000002_Node000004"><a xlink:title=" ">
<path fill="none" stroke="#63b8ff" d="M229.82,-102.21C221.2,-101.82 212.56,-101.43 204.05,-101.05"/>
<polygon fill="#63b8ff" stroke="#63b8ff" points="229.76,-105.71 239.9,-102.66 230.07,-98.71 229.76,-105.71"/>
</a>
</g>
</g>
<!-- Node5&#45;&gt;Node6 -->
<g id="edge5_Node000005_Node000006" class="edge">
<title>Node5&#45;&gt;Node6</title>
<g id="a_edge5_Node000005_Node000006"><a xlink:title=" ">
<path fill="none" stroke="#63b8ff" d="M251.98,-37.56C234.83,-35.6 216.94,-33.55 199.75,-31.58"/>
<polygon fill="#63b8ff" stroke="#63b8ff" points="251.65,-41.05 261.99,-38.71 252.45,-34.09 251.65,-41.05"/>
</a>
</g>
</g>
</g>
</svg>
