<?xml version="1.0" encoding="UTF-8" standalone="no"?>
<!DOCTYPE svg PUBLIC "-//W3C//DTD SVG 1.1//EN"
 "http://www.w3.org/Graphics/SVG/1.1/DTD/svg11.dtd">
<!-- Generated by graphviz version 2.43.0 (0)
 -->
<!-- Title: iii_drone::perception::SingleLine::frame_id Pages: 1 -->
<svg width="295pt" height="134pt"
 viewBox="0.00 0.00 295.00 134.00" xmlns="http://www.w3.org/2000/svg" xmlns:xlink="http://www.w3.org/1999/xlink">
<g id="graph0" class="graph" transform="scale(1 1) rotate(0) translate(4 130)">
<title>iii_drone::perception::SingleLine::frame_id</title>
<!-- Node1 -->
<g id="Node000001" class="node">
<title>Node1</title>
<g id="a_Node000001"><a xlink:title="frame_id getter.">
<polygon fill="#999999" stroke="#666666" points="287,-78 165,-78 165,-48 287,-48 287,-78"/>
<text text-anchor="start" x="173" y="-66" font-family="Helvetica,sans-Serif" font-size="10.00">iii_drone::perception</text>
<text text-anchor="middle" x="226" y="-55" font-family="Helvetica,sans-Serif" font-size="10.00">::SingleLine::frame_id</text>
</a>
</g>
</g>
<!-- Node2 -->
<g id="Node000002" class="node">
<title>Node2</title>
<g id="a_Node000002"><a xlink:href="classiii__drone_1_1perception_1_1SingleLine.html#a0133f9ac4eaac14f379b35313e6dfcbe" target="_top" xlink:title="Assignment operator overload.">
<polygon fill="white" stroke="#666666" points="128.5,-126 0.5,-126 0.5,-96 128.5,-96 128.5,-126"/>
<text text-anchor="start" x="8.5" y="-114" font-family="Helvetica,sans-Serif" font-size="10.00">iii_drone::perception</text>
<text text-anchor="middle" x="64.5" y="-103" font-family="Helvetica,sans-Serif" font-size="10.00">::SingleLine::operator=</text>
</a>
</g>
</g>
<!-- Node1&#45;&gt;Node2 -->
<g id="edge1_Node000001_Node000002" class="edge">
<title>Node1&#45;&gt;Node2</title>
<g id="a_edge1_Node000001_Node000002"><a xlink:title=" ">
<path fill="none" stroke="#63b8ff" d="M164.97,-81.07C148.61,-85.99 131.07,-91.27 115.35,-96"/>
<polygon fill="#63b8ff" stroke="#63b8ff" points="166.4,-84.29 174.97,-78.06 164.39,-77.59 166.4,-84.29"/>
</a>
</g>
</g>
<!-- Node3 -->
<g id="Node000003" class="node">
<title>Node3</title>
<g id="a_Node000003"><a xlink:href="classiii__drone_1_1perception_1_1SingleLine.html#a1e23fe7383e4107769b577fab3ff8faa" target="_top" xlink:title="Constructor from position, quaternion and frame_id.">
<polygon fill="white" stroke="#666666" points="129,-78 0,-78 0,-48 129,-48 129,-78"/>
<text text-anchor="start" x="8" y="-66" font-family="Helvetica,sans-Serif" font-size="10.00">iii_drone::perception</text>
<text text-anchor="middle" x="64.5" y="-55" font-family="Helvetica,sans-Serif" font-size="10.00">::SingleLine::SingleLine</text>
</a>
</g>
</g>
<!-- Node1&#45;&gt;Node3 -->
<g id="edge2_Node000001_Node000003" class="edge">
<title>Node1&#45;&gt;Node3</title>
<g id="a_edge2_Node000001_Node000003"><a xlink:title=" ">
<path fill="none" stroke="#63b8ff" d="M154.48,-63C146.02,-63 137.43,-63 129.08,-63"/>
<polygon fill="#63b8ff" stroke="#63b8ff" points="154.7,-66.5 164.7,-63 154.7,-59.5 154.7,-66.5"/>
</a>
</g>
</g>
<!-- Node4 -->
<g id="Node000004" class="node">
<title>Node4</title>
<g id="a_Node000004"><a xlink:href="classiii__drone_1_1perception_1_1SingleLine.html#a23ed739c4d3315789dfc2b62cc586833" target="_top" xlink:title="Copy constructor.">
<polygon fill="white" stroke="#666666" points="129,-30 0,-30 0,0 129,0 129,-30"/>
<text text-anchor="start" x="8" y="-18" font-family="Helvetica,sans-Serif" font-size="10.00">iii_drone::perception</text>
<text text-anchor="middle" x="64.5" y="-7" font-family="Helvetica,sans-Serif" font-size="10.00">::SingleLine::SingleLine</text>
</a>
</g>
</g>
<!-- Node1&#45;&gt;Node4 -->
<g id="edge3_Node000001_Node000004" class="edge">
<title>Node1&#45;&gt;Node4</title>
<g id="a_edge3_Node000001_Node000004"><a xlink:title=" ">
<path fill="none" stroke="#63b8ff" d="M164.97,-44.93C148.61,-40.01 131.07,-34.73 115.35,-30"/>
<polygon fill="#63b8ff" stroke="#63b8ff" points="164.39,-48.41 174.97,-47.94 166.4,-41.71 164.39,-48.41"/>
</a>
</g>
</g>
</g>
</svg>
