<?xml version="1.0" encoding="UTF-8" standalone="no"?>
<!DOCTYPE svg PUBLIC "-//W3C//DTD SVG 1.1//EN"
 "http://www.w3.org/Graphics/SVG/1.1/DTD/svg11.dtd">
<!-- Generated by graphviz version 2.43.0 (0)
 -->
<!-- Title: iii_drone::mission::continuous_mission_orchestrator_node::ContinuousMissionOrchestratorConfigurator::charging_maximum_duration_s Pages: 1 -->
<svg width="788pt" height="78pt"
 viewBox="0.00 0.00 788.00 78.00" xmlns="http://www.w3.org/2000/svg" xmlns:xlink="http://www.w3.org/1999/xlink">
<g id="graph0" class="graph" transform="scale(1 1) rotate(0) translate(4 74)">
<title>iii_drone::mission::continuous_mission_orchestrator_node::ContinuousMissionOrchestratorConfigurator::charging_maximum_duration_s</title>
<!-- Node1 -->
<g id="Node000001" class="node">
<title>Node1</title>
<g id="a_Node000001"><a xlink:title="Get the charging maximum duration in seconds.">
<polygon fill="#999999" stroke="#666666" points="176,-63 0,-63 0,0 176,0 176,-63"/>
<text text-anchor="start" x="8" y="-51" font-family="Helvetica,sans-Serif" font-size="10.00">iii_drone::mission</text>
<text text-anchor="start" x="8" y="-40" font-family="Helvetica,sans-Serif" font-size="10.00">::continuous_mission</text>
<text text-anchor="start" x="8" y="-29" font-family="Helvetica,sans-Serif" font-size="10.00">_orchestrator_node::Continuous</text>
<text text-anchor="start" x="8" y="-18" font-family="Helvetica,sans-Serif" font-size="10.00">MissionOrchestratorConfigurator</text>
<text text-anchor="middle" x="88" y="-7" font-family="Helvetica,sans-Serif" font-size="10.00">::charging_maximum_duration_s</text>
</a>
</g>
</g>
<!-- Node2 -->
<g id="Node000002" class="node">
<title>Node2</title>
<g id="a_Node000002"><a xlink:href="classiii__drone_1_1configuration_1_1Configurator.html#a896be5ed2c6890f9f5ecaa89cb0eee7d" target="_top" xlink:title="Get a parameter.">
<polygon fill="white" stroke="#666666" points="368,-46.5 212,-46.5 212,-16.5 368,-16.5 368,-46.5"/>
<text text-anchor="start" x="220" y="-34.5" font-family="Helvetica,sans-Serif" font-size="10.00">iii_drone::configuration</text>
<text text-anchor="middle" x="290" y="-23.5" font-family="Helvetica,sans-Serif" font-size="10.00">::Configurator::GetParameter</text>
</a>
</g>
</g>
<!-- Node1&#45;&gt;Node2 -->
<g id="edge1_Node000001_Node000002" class="edge">
<title>Node1&#45;&gt;Node2</title>
<g id="a_edge1_Node000001_Node000002"><a xlink:title=" ">
<path fill="none" stroke="#63b8ff" d="M176.14,-31.5C184.6,-31.5 193.18,-31.5 201.64,-31.5"/>
<polygon fill="#63b8ff" stroke="#63b8ff" points="201.88,-35 211.88,-31.5 201.88,-28 201.88,-35"/>
</a>
</g>
</g>
<!-- Node3 -->
<g id="Node000003" class="node">
<title>Node3</title>
<g id="a_Node000003"><a xlink:href="classiii__drone_1_1configuration_1_1Configurator.html#ad6e7318a12eda7011acfbe4276e7056a" target="_top" xlink:title="Gets multiple parameters.">
<polygon fill="white" stroke="#666666" points="565,-68.5 404,-68.5 404,-38.5 565,-38.5 565,-68.5"/>
<text text-anchor="start" x="412" y="-56.5" font-family="Helvetica,sans-Serif" font-size="10.00">iii_drone::configuration</text>
<text text-anchor="middle" x="484.5" y="-45.5" font-family="Helvetica,sans-Serif" font-size="10.00">::Configurator::GetParameters</text>
</a>
</g>
</g>
<!-- Node2&#45;&gt;Node3 -->
<g id="edge2_Node000002_Node000003" class="edge">
<title>Node2&#45;&gt;Node3</title>
<g id="a_edge2_Node000002_Node000003"><a xlink:title=" ">
<path fill="none" stroke="#63b8ff" d="M368.19,-40.32C376.61,-41.28 385.23,-42.27 393.79,-43.25"/>
<polygon fill="#63b8ff" stroke="#63b8ff" points="393.45,-46.73 403.78,-44.39 394.24,-39.78 393.45,-46.73"/>
</a>
</g>
</g>
<!-- Node4 -->
<g id="Node000004" class="node">
<title>Node4</title>
<g id="a_Node000004"><a xlink:href="classiii__drone_1_1configuration_1_1Configurator.html#ac5360ab6b4f31277c7d73b5579815353" target="_top" xlink:title="Static function for getting string representation of a parameter type from template type.">
<polygon fill="white" stroke="#666666" points="780,-52 601,-52 601,-11 780,-11 780,-52"/>
<text text-anchor="start" x="609" y="-40" font-family="Helvetica,sans-Serif" font-size="10.00">iii_drone::configuration</text>
<text text-anchor="start" x="609" y="-29" font-family="Helvetica,sans-Serif" font-size="10.00">::Configurator::GetParameterType</text>
<text text-anchor="middle" x="690.5" y="-18" font-family="Helvetica,sans-Serif" font-size="10.00">String</text>
</a>
</g>
</g>
<!-- Node2&#45;&gt;Node4 -->
<g id="edge5_Node000002_Node000004" class="edge">
<title>Node2&#45;&gt;Node4</title>
<g id="a_edge5_Node000002_Node000004"><a xlink:title=" ">
<path fill="none" stroke="#63b8ff" d="M368.2,-29.95C380.18,-29.76 392.42,-29.6 404,-29.5 475.55,-28.87 493.45,-28.93 565,-29.5 573.31,-29.57 581.94,-29.66 590.59,-29.77"/>
<polygon fill="#63b8ff" stroke="#63b8ff" points="590.7,-33.27 600.75,-29.9 590.8,-26.27 590.7,-33.27"/>
</a>
</g>
</g>
<!-- Node3&#45;&gt;Node4 -->
<g id="edge3_Node000003_Node000004" class="edge">
<title>Node3&#45;&gt;Node4</title>
<g id="a_edge3_Node000003_Node000004"><a xlink:title=" ">
<path fill="none" stroke="#63b8ff" d="M565.25,-44.9C573.6,-44 582.16,-43.08 590.7,-42.16"/>
<polygon fill="#63b8ff" stroke="#63b8ff" points="591.12,-45.63 600.69,-41.08 590.37,-38.67 591.12,-45.63"/>
</a>
</g>
</g>
<!-- Node4&#45;&gt;Node4 -->
<g id="edge4_Node000004_Node000004" class="edge">
<title>Node4&#45;&gt;Node4</title>
<g id="a_edge4_Node000004_Node000004"><a xlink:title=" ">
<path fill="none" stroke="#63b8ff" d="M652.64,-52.1C648.51,-61.65 661.13,-70 690.5,-70 708.86,-70 720.67,-66.74 725.94,-61.96"/>
<polygon fill="#63b8ff" stroke="#63b8ff" points="729.38,-62.64 728.36,-52.1 722.58,-60.97 729.38,-62.64"/>
</a>
</g>
</g>
</g>
</svg>
