<?xml version="1.0" encoding="UTF-8" standalone="no"?>
<!DOCTYPE svg PUBLIC "-//W3C//DTD SVG 1.1//EN"
 "http://www.w3.org/Graphics/SVG/1.1/DTD/svg11.dtd">
<!-- Generated by graphviz version 2.43.0 (0)
 -->
<!-- Title: iii_drone::control::BehaviorState::maneuver_executing Pages: 1 -->
<svg width="972pt" height="122pt"
 viewBox="0.00 0.00 972.00 121.50" xmlns="http://www.w3.org/2000/svg" xmlns:xlink="http://www.w3.org/1999/xlink">
<g id="graph0" class="graph" transform="scale(1 1) rotate(0) translate(4 117.5)">
<title>iii_drone::control::BehaviorState::maneuver_executing</title>
<!-- Node1 -->
<g id="Node000001" class="node">
<title>Node1</title>
<g id="a_Node000001"><a xlink:title="Get whether a maneuver is being executed.">
<polygon fill="#999999" stroke="#666666" points="964,-77 817,-77 817,-36 964,-36 964,-77"/>
<text text-anchor="start" x="825" y="-65" font-family="Helvetica,sans-Serif" font-size="10.00">iii_drone::control</text>
<text text-anchor="start" x="825" y="-54" font-family="Helvetica,sans-Serif" font-size="10.00">::BehaviorState::maneuver</text>
<text text-anchor="middle" x="890.5" y="-43" font-family="Helvetica,sans-Serif" font-size="10.00">_executing</text>
</a>
</g>
</g>
<!-- Node2 -->
<g id="Node000002" class="node">
<title>Node2</title>
<g id="a_Node000002"><a xlink:href="classiii__drone_1_1control_1_1BehaviorState.html#ae413bc1424de620b59ad39f17550cd59" target="_top" xlink:title="Get the behavior state of the drone.">
<polygon fill="white" stroke="#666666" points="781,-71.5 611,-71.5 611,-41.5 781,-41.5 781,-71.5"/>
<text text-anchor="start" x="619" y="-59.5" font-family="Helvetica,sans-Serif" font-size="10.00">iii_drone::control</text>
<text text-anchor="middle" x="696" y="-48.5" font-family="Helvetica,sans-Serif" font-size="10.00">::BehaviorState::behavior_state</text>
</a>
</g>
</g>
<!-- Node1&#45;&gt;Node2 -->
<g id="edge1_Node000001_Node000002" class="edge">
<title>Node1&#45;&gt;Node2</title>
<g id="a_edge1_Node000001_Node000002"><a xlink:title=" ">
<path fill="none" stroke="#63b8ff" d="M806.72,-56.5C798.23,-56.5 789.59,-56.5 781.08,-56.5"/>
<polygon fill="#63b8ff" stroke="#63b8ff" points="807,-60 817,-56.5 807,-53 807,-60"/>
</a>
</g>
</g>
<!-- Node2&#45;&gt;Node2 -->
<g id="edge2_Node000002_Node000002" class="edge">
<title>Node2&#45;&gt;Node2</title>
<g id="a_edge2_Node000002_Node000002"><a xlink:title=" ">
<path fill="none" stroke="#63b8ff" d="M729.96,-82.1C725.32,-86.47 714,-89.5 696,-89.5 665.69,-89.5 654.32,-80.91 661.9,-71.78"/>
<polygon fill="#63b8ff" stroke="#63b8ff" points="733.46,-81.82 730.1,-71.78 726.46,-81.73 733.46,-81.82"/>
</a>
</g>
</g>
<!-- Node3 -->
<g id="Node000003" class="node">
<title>Node3</title>
<g id="a_Node000003"><a xlink:href="classiii__drone_1_1control_1_1BehaviorState.html#aedb61a6110864484c564c923e659d31f" target="_top" xlink:title="Returns the expected behavior state upon completion or failure of given maneuver type,...">
<polygon fill="white" stroke="#666666" points="362.5,-113.5 207.5,-113.5 207.5,-83.5 362.5,-83.5 362.5,-113.5"/>
<text text-anchor="start" x="215.5" y="-101.5" font-family="Helvetica,sans-Serif" font-size="10.00">iii_drone::control</text>
<text text-anchor="middle" x="285" y="-90.5" font-family="Helvetica,sans-Serif" font-size="10.00">::BehaviorState::CanExecute</text>
</a>
</g>
</g>
<!-- Node2&#45;&gt;Node3 -->
<g id="edge3_Node000002_Node000003" class="edge">
<title>Node2&#45;&gt;Node3</title>
<g id="a_edge3_Node000002_Node000003"><a xlink:title=" ">
<path fill="none" stroke="#63b8ff" d="M634.93,-74.06C615.93,-78.93 594.73,-83.65 575,-86.5 503.55,-96.8 421.22,-99.32 362.75,-99.55"/>
<polygon fill="#63b8ff" stroke="#63b8ff" points="635.87,-77.43 644.66,-71.51 634.09,-70.66 635.87,-77.43"/>
</a>
</g>
</g>
<!-- Node4 -->
<g id="Node000004" class="node">
<title>Node4</title>
<g id="a_Node000004"><a xlink:href="classiii__drone_1_1control_1_1BehaviorState.html#a7fbdc5d342e0058bf2d8ac24ce73d7b2" target="_top" xlink:title="Evaluates whether a maneuver can be executed given a behavior state.">
<polygon fill="white" stroke="#666666" points="575,-77 409,-77 409,-36 575,-36 575,-77"/>
<text text-anchor="start" x="417" y="-65" font-family="Helvetica,sans-Serif" font-size="10.00">iii_drone::control</text>
<text text-anchor="start" x="417" y="-54" font-family="Helvetica,sans-Serif" font-size="10.00">::BehaviorState::maneuverCan</text>
<text text-anchor="middle" x="492" y="-43" font-family="Helvetica,sans-Serif" font-size="10.00">Execute</text>
</a>
</g>
</g>
<!-- Node2&#45;&gt;Node4 -->
<g id="edge4_Node000002_Node000004" class="edge">
<title>Node2&#45;&gt;Node4</title>
<g id="a_edge4_Node000002_Node000004"><a xlink:title=" ">
<path fill="none" stroke="#63b8ff" d="M600.78,-56.5C592.21,-56.5 583.57,-56.5 575.12,-56.5"/>
<polygon fill="#63b8ff" stroke="#63b8ff" points="600.8,-60 610.8,-56.5 600.8,-53 600.8,-60"/>
</a>
</g>
</g>
<!-- Node5 -->
<g id="Node000005" class="node">
<title>Node5</title>
<g id="a_Node000005"><a xlink:href="classiii__drone_1_1control_1_1BehaviorState.html#ad608deaa322e450c9cfc95d6febcec84" target="_top" xlink:title="Returns the expected behavior state upon completion or failure of given maneuver type,...">
<polygon fill="white" stroke="#666666" points="373,-41 197,-41 197,0 373,0 373,-41"/>
<text text-anchor="start" x="205" y="-29" font-family="Helvetica,sans-Serif" font-size="10.00">iii_drone::control</text>
<text text-anchor="start" x="205" y="-18" font-family="Helvetica,sans-Serif" font-size="10.00">::BehaviorState::ProjectExpected</text>
<text text-anchor="middle" x="285" y="-7" font-family="Helvetica,sans-Serif" font-size="10.00">BehaviorState</text>
</a>
</g>
</g>
<!-- Node2&#45;&gt;Node5 -->
<g id="edge9_Node000002_Node000005" class="edge">
<title>Node2&#45;&gt;Node5</title>
<g id="a_edge9_Node000002_Node000005"><a xlink:title=" ">
<path fill="none" stroke="#63b8ff" d="M635.75,-38.89C616.55,-33.94 595.03,-29.18 575,-26.5 507.6,-17.49 430.58,-16.34 373.01,-17.25"/>
<polygon fill="#63b8ff" stroke="#63b8ff" points="635,-42.31 645.57,-41.49 636.79,-35.55 635,-42.31"/>
</a>
</g>
</g>
<!-- Node4&#45;&gt;Node3 -->
<g id="edge5_Node000004_Node000003" class="edge">
<title>Node4&#45;&gt;Node3</title>
<g id="a_edge5_Node000004_Node000003"><a xlink:title=" ">
<path fill="none" stroke="#63b8ff" d="M398.75,-75.4C385.52,-78.11 372.07,-80.87 359.28,-83.49"/>
<polygon fill="#63b8ff" stroke="#63b8ff" points="399.71,-78.78 408.8,-73.34 398.3,-71.92 399.71,-78.78"/>
</a>
</g>
</g>
<!-- Node4&#45;&gt;Node5 -->
<g id="edge6_Node000004_Node000005" class="edge">
<title>Node4&#45;&gt;Node5</title>
<g id="a_edge6_Node000004_Node000005"><a xlink:title=" ">
<path fill="none" stroke="#63b8ff" d="M398.86,-40.32C390.34,-38.82 381.72,-37.31 373.25,-35.82"/>
<polygon fill="#63b8ff" stroke="#63b8ff" points="398.35,-43.78 408.8,-42.06 399.56,-36.89 398.35,-43.78"/>
</a>
</g>
</g>
<!-- Node5&#45;&gt;Node5 -->
<g id="edge8_Node000005_Node000005" class="edge">
<title>Node5&#45;&gt;Node5</title>
<g id="a_edge8_Node000005_Node000005"><a xlink:title=" ">
<path fill="none" stroke="#63b8ff" d="M320.1,-50.96C314.88,-55.74 303.18,-59 285,-59 255.91,-59 243.42,-50.65 247.51,-41.1"/>
<polygon fill="#63b8ff" stroke="#63b8ff" points="323.53,-51.64 322.49,-41.1 316.73,-49.99 323.53,-51.64"/>
</a>
</g>
</g>
<!-- Node6 -->
<g id="Node000006" class="node">
<title>Node6</title>
<g id="a_Node000006"><a xlink:href="classiii__drone_1_1control_1_1BehaviorState.html#ab4ed76614b4f7e6dd264d8006c4ddbea" target="_top" xlink:title="Returns whether a given maneuver can execute later.">
<polygon fill="white" stroke="#666666" points="161,-35.5 0,-35.5 0,-5.5 161,-5.5 161,-35.5"/>
<text text-anchor="start" x="8" y="-23.5" font-family="Helvetica,sans-Serif" font-size="10.00">iii_drone::control</text>
<text text-anchor="middle" x="80.5" y="-12.5" font-family="Helvetica,sans-Serif" font-size="10.00">::BehaviorState::CanSchedule</text>
</a>
</g>
</g>
<!-- Node5&#45;&gt;Node6 -->
<g id="edge7_Node000005_Node000006" class="edge">
<title>Node5&#45;&gt;Node6</title>
<g id="a_edge7_Node000005_Node000006"><a xlink:title=" ">
<path fill="none" stroke="#63b8ff" d="M186.86,-20.5C178.24,-20.5 169.58,-20.5 161.12,-20.5"/>
<polygon fill="#63b8ff" stroke="#63b8ff" points="186.95,-24 196.95,-20.5 186.95,-17 186.95,-24"/>
</a>
</g>
</g>
</g>
</svg>
