<?xml version="1.0" encoding="UTF-8" standalone="no"?>
<!DOCTYPE svg PUBLIC "-//W3C//DTD SVG 1.1//EN"
 "http://www.w3.org/Graphics/SVG/1.1/DTD/svg11.dtd">
<!-- Generated by graphviz version 2.43.0 (0)
 -->
<!-- Title: iii_drone::mission::continuous_mission_orchestrator_node::ContinuousMissionOrchestratorConfigurator::battery_voltage_high_threshold Pages: 1 -->
<svg width="789pt" height="78pt"
 viewBox="0.00 0.00 789.00 78.00" xmlns="http://www.w3.org/2000/svg" xmlns:xlink="http://www.w3.org/1999/xlink">
<g id="graph0" class="graph" transform="scale(1 1) rotate(0) translate(4 74)">
<title>iii_drone::mission::continuous_mission_orchestrator_node::ContinuousMissionOrchestratorConfigurator::battery_voltage_high_threshold</title>
<!-- Node1 -->
<g id="Node000001" class="node">
<title>Node1</title>
<g id="a_Node000001"><a xlink:title="Get the battery voltage high threshold.">
<polygon fill="#999999" stroke="#666666" points="177,-63 0,-63 0,0 177,0 177,-63"/>
<text text-anchor="start" x="8" y="-51" font-family="Helvetica,sans-Serif" font-size="10.00">iii_drone::mission</text>
<text text-anchor="start" x="8" y="-40" font-family="Helvetica,sans-Serif" font-size="10.00">::continuous_mission</text>
<text text-anchor="start" x="8" y="-29" font-family="Helvetica,sans-Serif" font-size="10.00">_orchestrator_node::Continuous</text>
<text text-anchor="start" x="8" y="-18" font-family="Helvetica,sans-Serif" font-size="10.00">MissionOrchestratorConfigurator</text>
<text text-anchor="middle" x="88.5" y="-7" font-family="Helvetica,sans-Serif" font-size="10.00">::battery_voltage_high_threshold</text>
</a>
</g>
</g>
<!-- Node2 -->
<g id="Node000002" class="node">
<title>Node2</title>
<g id="a_Node000002"><a xlink:href="classiii__drone_1_1configuration_1_1Configurator.html#a896be5ed2c6890f9f5ecaa89cb0eee7d" target="_top" xlink:title="Get a parameter.">
<polygon fill="white" stroke="#666666" points="369,-46.5 213,-46.5 213,-16.5 369,-16.5 369,-46.5"/>
<text text-anchor="start" x="221" y="-34.5" font-family="Helvetica,sans-Serif" font-size="10.00">iii_drone::configuration</text>
<text text-anchor="middle" x="291" y="-23.5" font-family="Helvetica,sans-Serif" font-size="10.00">::Configurator::GetParameter</text>
</a>
</g>
</g>
<!-- Node1&#45;&gt;Node2 -->
<g id="edge1_Node000001_Node000002" class="edge">
<title>Node1&#45;&gt;Node2</title>
<g id="a_edge1_Node000001_Node000002"><a xlink:title=" ">
<path fill="none" stroke="#63b8ff" d="M177.15,-31.5C185.62,-31.5 194.2,-31.5 202.67,-31.5"/>
<polygon fill="#63b8ff" stroke="#63b8ff" points="202.91,-35 212.91,-31.5 202.91,-28 202.91,-35"/>
</a>
</g>
</g>
<!-- Node3 -->
<g id="Node000003" class="node">
<title>Node3</title>
<g id="a_Node000003"><a xlink:href="classiii__drone_1_1configuration_1_1Configurator.html#ad6e7318a12eda7011acfbe4276e7056a" target="_top" xlink:title="Gets multiple parameters.">
<polygon fill="white" stroke="#666666" points="566,-68.5 405,-68.5 405,-38.5 566,-38.5 566,-68.5"/>
<text text-anchor="start" x="413" y="-56.5" font-family="Helvetica,sans-Serif" font-size="10.00">iii_drone::configuration</text>
<text text-anchor="middle" x="485.5" y="-45.5" font-family="Helvetica,sans-Serif" font-size="10.00">::Configurator::GetParameters</text>
</a>
</g>
</g>
<!-- Node2&#45;&gt;Node3 -->
<g id="edge2_Node000002_Node000003" class="edge">
<title>Node2&#45;&gt;Node3</title>
<g id="a_edge2_Node000002_Node000003"><a xlink:title=" ">
<path fill="none" stroke="#63b8ff" d="M369.19,-40.32C377.61,-41.28 386.23,-42.27 394.79,-43.25"/>
<polygon fill="#63b8ff" stroke="#63b8ff" points="394.45,-46.73 404.78,-44.39 395.24,-39.78 394.45,-46.73"/>
</a>
</g>
</g>
<!-- Node4 -->
<g id="Node000004" class="node">
<title>Node4</title>
<g id="a_Node000004"><a xlink:href="classiii__drone_1_1configuration_1_1Configurator.html#ac5360ab6b4f31277c7d73b5579815353" target="_top" xlink:title="Static function for getting string representation of a parameter type from template type.">
<polygon fill="white" stroke="#666666" points="781,-52 602,-52 602,-11 781,-11 781,-52"/>
<text text-anchor="start" x="610" y="-40" font-family="Helvetica,sans-Serif" font-size="10.00">iii_drone::configuration</text>
<text text-anchor="start" x="610" y="-29" font-family="Helvetica,sans-Serif" font-size="10.00">::Configurator::GetParameterType</text>
<text text-anchor="middle" x="691.5" y="-18" font-family="Helvetica,sans-Serif" font-size="10.00">String</text>
</a>
</g>
</g>
<!-- Node2&#45;&gt;Node4 -->
<g id="edge5_Node000002_Node000004" class="edge">
<title>Node2&#45;&gt;Node4</title>
<g id="a_edge5_Node000002_Node000004"><a xlink:title=" ">
<path fill="none" stroke="#63b8ff" d="M369.2,-29.95C381.18,-29.76 393.42,-29.6 405,-29.5 476.55,-28.87 494.45,-28.93 566,-29.5 574.31,-29.57 582.94,-29.66 591.59,-29.77"/>
<polygon fill="#63b8ff" stroke="#63b8ff" points="591.7,-33.27 601.75,-29.9 591.8,-26.27 591.7,-33.27"/>
</a>
</g>
</g>
<!-- Node3&#45;&gt;Node4 -->
<g id="edge3_Node000003_Node000004" class="edge">
<title>Node3&#45;&gt;Node4</title>
<g id="a_edge3_Node000003_Node000004"><a xlink:title=" ">
<path fill="none" stroke="#63b8ff" d="M566.25,-44.9C574.6,-44 583.16,-43.08 591.7,-42.16"/>
<polygon fill="#63b8ff" stroke="#63b8ff" points="592.12,-45.63 601.69,-41.08 591.37,-38.67 592.12,-45.63"/>
</a>
</g>
</g>
<!-- Node4&#45;&gt;Node4 -->
<g id="edge4_Node000004_Node000004" class="edge">
<title>Node4&#45;&gt;Node4</title>
<g id="a_edge4_Node000004_Node000004"><a xlink:title=" ">
<path fill="none" stroke="#63b8ff" d="M653.64,-52.1C649.51,-61.65 662.13,-70 691.5,-70 709.86,-70 721.67,-66.74 726.94,-61.96"/>
<polygon fill="#63b8ff" stroke="#63b8ff" points="730.38,-62.64 729.36,-52.1 723.58,-60.97 730.38,-62.64"/>
</a>
</g>
</g>
</g>
</svg>
