<?xml version="1.0" encoding="UTF-8" standalone="no"?>
<!DOCTYPE svg PUBLIC "-//W3C//DTD SVG 1.1//EN"
 "http://www.w3.org/Graphics/SVG/1.1/DTD/svg11.dtd">
<!-- Generated by graphviz version 2.43.0 (0)
 -->
<!-- Title: iii_drone::perception::Powerline::UpdateDirection Pages: 1 -->
<svg width="551pt" height="190pt"
 viewBox="0.00 0.00 551.00 189.50" xmlns="http://www.w3.org/2000/svg" xmlns:xlink="http://www.w3.org/1999/xlink">
<g id="graph0" class="graph" transform="scale(1 1) rotate(0) translate(4 185.5)">
<title>iii_drone::perception::Powerline::UpdateDirection</title>
<!-- Node1 -->
<g id="Node000001" class="node">
<title>Node1</title>
<g id="a_Node000001"><a xlink:title="Updates the powerline direction and updates the projection plane.">
<polygon fill="#999999" stroke="#666666" points="156,-133.5 0,-133.5 0,-103.5 156,-103.5 156,-133.5"/>
<text text-anchor="start" x="8" y="-121.5" font-family="Helvetica,sans-Serif" font-size="10.00">iii_drone::perception</text>
<text text-anchor="middle" x="78" y="-110.5" font-family="Helvetica,sans-Serif" font-size="10.00">::Powerline::UpdateDirection</text>
</a>
</g>
</g>
<!-- Node2 -->
<g id="Node000002" class="node">
<title>Node2</title>
<g id="a_Node000002"><a xlink:href="classiii__drone_1_1utils_1_1History.html#ad80957391e0cd45d17f023760daf0350" target="_top" xlink:title="Returns true if the history is full.">
<polygon fill="white" stroke="#666666" points="335,-181.5 208,-181.5 208,-151.5 335,-151.5 335,-181.5"/>
<text text-anchor="start" x="216" y="-169.5" font-family="Helvetica,sans-Serif" font-size="10.00">iii_drone::utils::History</text>
<text text-anchor="middle" x="271.5" y="-158.5" font-family="Helvetica,sans-Serif" font-size="10.00">::full</text>
</a>
</g>
</g>
<!-- Node1&#45;&gt;Node2 -->
<g id="edge1_Node000001_Node000002" class="edge">
<title>Node1&#45;&gt;Node2</title>
<g id="a_edge1_Node000001_Node000002"><a xlink:title=" ">
<path fill="none" stroke="#63b8ff" d="M139.07,-133.56C158.67,-138.47 180.61,-143.97 200.86,-149.04"/>
<polygon fill="#63b8ff" stroke="#63b8ff" points="200.1,-152.46 210.65,-151.5 201.8,-145.67 200.1,-152.46"/>
</a>
</g>
</g>
<!-- Node3 -->
<g id="Node000003" class="node">
<title>Node3</title>
<g id="a_Node000003"><a xlink:href="classiii__drone_1_1utils_1_1Timestamp.html#a373bc0de94c27153e2372c30f0eedbb1" target="_top" xlink:title="Updates the timestamp to now.">
<polygon fill="white" stroke="#666666" points="345,-133.5 198,-133.5 198,-103.5 345,-103.5 345,-133.5"/>
<text text-anchor="start" x="206" y="-121.5" font-family="Helvetica,sans-Serif" font-size="10.00">iii_drone::utils::Timestamp</text>
<text text-anchor="middle" x="271.5" y="-110.5" font-family="Helvetica,sans-Serif" font-size="10.00">::Update</text>
</a>
</g>
</g>
<!-- Node1&#45;&gt;Node3 -->
<g id="edge2_Node000001_Node000003" class="edge">
<title>Node1&#45;&gt;Node3</title>
<g id="a_edge2_Node000001_Node000003"><a xlink:title=" ">
<path fill="none" stroke="#63b8ff" d="M156.06,-118.5C166.54,-118.5 177.32,-118.5 187.89,-118.5"/>
<polygon fill="#63b8ff" stroke="#63b8ff" points="187.94,-122 197.94,-118.5 187.94,-115 187.94,-122"/>
</a>
</g>
</g>
<!-- Node4 -->
<g id="Node000004" class="node">
<title>Node4</title>
<g id="a_Node000004"><a xlink:href="classiii__drone_1_1perception_1_1Powerline.html#a9ee99783c43e6e60f3c8974b40342fcb" target="_top" xlink:title="Updates the projection plane.">
<polygon fill="white" stroke="#666666" points="351,-85 192,-85 192,-44 351,-44 351,-85"/>
<text text-anchor="start" x="200" y="-73" font-family="Helvetica,sans-Serif" font-size="10.00">iii_drone::perception</text>
<text text-anchor="start" x="200" y="-62" font-family="Helvetica,sans-Serif" font-size="10.00">::Powerline::updateProjection</text>
<text text-anchor="middle" x="271.5" y="-51" font-family="Helvetica,sans-Serif" font-size="10.00">Plane</text>
</a>
</g>
</g>
<!-- Node1&#45;&gt;Node4 -->
<g id="edge3_Node000001_Node000004" class="edge">
<title>Node1&#45;&gt;Node4</title>
<g id="a_edge3_Node000001_Node000004"><a xlink:title=" ">
<path fill="none" stroke="#63b8ff" d="M132.34,-103.46C149.59,-98.59 169.14,-93.08 187.99,-87.77"/>
<polygon fill="#63b8ff" stroke="#63b8ff" points="189.09,-91.09 197.76,-85.01 187.19,-84.36 189.09,-91.09"/>
</a>
</g>
</g>
<!-- Node5 -->
<g id="Node000005" class="node">
<title>Node5</title>
<g id="a_Node000005"><a xlink:href="namespaceiii__drone_1_1types.html#a3c643a86317f9f8c192979766cdfbc51" target="_top" xlink:title=" ">
<polygon fill="white" stroke="#666666" points="529,-141.5 401,-141.5 401,-111.5 529,-111.5 529,-141.5"/>
<text text-anchor="start" x="409" y="-129.5" font-family="Helvetica,sans-Serif" font-size="10.00">iii_drone::types::create</text>
<text text-anchor="middle" x="465" y="-118.5" font-family="Helvetica,sans-Serif" font-size="10.00">Plane</text>
</a>
</g>
</g>
<!-- Node4&#45;&gt;Node5 -->
<g id="edge4_Node000004_Node000005" class="edge">
<title>Node4&#45;&gt;Node5</title>
<g id="a_edge4_Node000004_Node000005"><a xlink:title=" ">
<path fill="none" stroke="#63b8ff" d="M333.64,-85.02C350.87,-90.74 369.65,-96.92 387,-102.5 392.95,-104.41 399.16,-106.39 405.37,-108.35"/>
<polygon fill="#63b8ff" stroke="#63b8ff" points="404.49,-111.74 415.08,-111.4 406.59,-105.06 404.49,-111.74"/>
</a>
</g>
</g>
<!-- Node6 -->
<g id="Node000006" class="node">
<title>Node6</title>
<g id="a_Node000006"><a xlink:href="namespaceiii__drone_1_1math.html#a7f61d7905e9118b077f713da7e65e8df" target="_top" xlink:title=" ">
<polygon fill="white" stroke="#666666" points="535,-93 395,-93 395,-74 535,-74 535,-93"/>
<text text-anchor="middle" x="465" y="-81" font-family="Helvetica,sans-Serif" font-size="10.00">iii_drone::math::eulToMat</text>
</a>
</g>
</g>
<!-- Node4&#45;&gt;Node6 -->
<g id="edge5_Node000004_Node000006" class="edge">
<title>Node4&#45;&gt;Node6</title>
<g id="a_edge5_Node000004_Node000006"><a xlink:title=" ">
<path fill="none" stroke="#63b8ff" d="M351.22,-72.31C362.28,-73.41 373.65,-74.54 384.72,-75.63"/>
<polygon fill="#63b8ff" stroke="#63b8ff" points="384.48,-79.13 394.78,-76.63 385.17,-72.16 384.48,-79.13"/>
</a>
</g>
</g>
<!-- Node7 -->
<g id="Node000007" class="node">
<title>Node7</title>
<g id="a_Node000007"><a xlink:href="namespaceiii__drone_1_1math.html#a8e7d7e25d07b368363d6da9939a9abed" target="_top" xlink:title=" ">
<polygon fill="white" stroke="#666666" points="536.5,-56 393.5,-56 393.5,-37 536.5,-37 536.5,-56"/>
<text text-anchor="middle" x="465" y="-44" font-family="Helvetica,sans-Serif" font-size="10.00">iii_drone::math::quatToEul</text>
</a>
</g>
</g>
<!-- Node4&#45;&gt;Node7 -->
<g id="edge6_Node000004_Node000007" class="edge">
<title>Node4&#45;&gt;Node7</title>
<g id="a_edge6_Node000004_Node000007"><a xlink:title=" ">
<path fill="none" stroke="#63b8ff" d="M351.22,-57.1C361.77,-56.11 372.61,-55.09 383.2,-54.09"/>
<polygon fill="#63b8ff" stroke="#63b8ff" points="383.63,-57.57 393.26,-53.15 382.98,-50.6 383.63,-57.57"/>
</a>
</g>
</g>
<!-- Node8 -->
<g id="Node000008" class="node">
<title>Node8</title>
<g id="a_Node000008"><a xlink:href="namespaceiii__drone_1_1math.html#a7263544e2fcd6c68d67d54f5a87a4dee" target="_top" xlink:title=" ">
<polygon fill="white" stroke="#666666" points="543,-19 387,-19 387,0 543,0 543,-19"/>
<text text-anchor="middle" x="465" y="-7" font-family="Helvetica,sans-Serif" font-size="10.00">iii_drone::math::rotateVector</text>
</a>
</g>
</g>
<!-- Node4&#45;&gt;Node8 -->
<g id="edge7_Node000004_Node000008" class="edge">
<title>Node4&#45;&gt;Node8</title>
<g id="a_edge7_Node000004_Node000008"><a xlink:title=" ">
<path fill="none" stroke="#63b8ff" d="M335.28,-43.98C352.02,-38.72 370.15,-33.22 387,-28.5 395.48,-26.12 404.52,-23.75 413.32,-21.52"/>
<polygon fill="#63b8ff" stroke="#63b8ff" points="414.26,-24.9 423.11,-19.08 412.56,-18.11 414.26,-24.9"/>
</a>
</g>
</g>
</g>
</svg>
