<?xml version="1.0" encoding="UTF-8" standalone="no"?>
<!DOCTYPE svg PUBLIC "-//W3C//DTD SVG 1.1//EN"
 "http://www.w3.org/Graphics/SVG/1.1/DTD/svg11.dtd">
<!-- Generated by graphviz version 2.43.0 (0)
 -->
<!-- Title: iii_drone::control::CombinedDroneAwarenessHandler::updateCombinedDroneAwarenessFromVehicleStatus Pages: 1 -->
<svg width="516pt" height="67pt"
 viewBox="0.00 0.00 516.00 67.00" xmlns="http://www.w3.org/2000/svg" xmlns:xlink="http://www.w3.org/1999/xlink">
<g id="graph0" class="graph" transform="scale(1 1) rotate(0) translate(4 63)">
<title>iii_drone::control::CombinedDroneAwarenessHandler::updateCombinedDroneAwarenessFromVehicleStatus</title>
<!-- Node1 -->
<g id="Node000001" class="node">
<title>Node1</title>
<g id="a_Node000001"><a xlink:title="Updates the combined drone awareness from the vehicle status. Triggers updates of armed,...">
<polygon fill="#999999" stroke="#666666" points="279,-41 0,-41 0,0 279,0 279,-41"/>
<text text-anchor="start" x="8" y="-29" font-family="Helvetica,sans-Serif" font-size="10.00">iii_drone::control</text>
<text text-anchor="start" x="8" y="-18" font-family="Helvetica,sans-Serif" font-size="10.00">::CombinedDroneAwarenessHandler</text>
<text text-anchor="middle" x="139.5" y="-7" font-family="Helvetica,sans-Serif" font-size="10.00">::updateCombinedDroneAwarenessFromVehicleStatus</text>
</a>
</g>
</g>
<!-- Node1&#45;&gt;Node1 -->
<g id="edge2_Node000001_Node000001" class="edge">
<title>Node1&#45;&gt;Node1</title>
<g id="a_edge2_Node000001_Node000001"><a xlink:title=" ">
<path fill="none" stroke="#63b8ff" d="M89.51,-41.1C84.05,-50.65 100.72,-59 139.5,-59 163.74,-59 179.34,-55.74 186.3,-50.96"/>
<polygon fill="#63b8ff" stroke="#63b8ff" points="189.74,-51.69 189.49,-41.1 183.08,-49.53 189.74,-51.69"/>
</a>
</g>
</g>
<!-- Node2 -->
<g id="Node000002" class="node">
<title>Node2</title>
<g id="a_Node000002"><a xlink:href="classiii__drone_1_1control_1_1CombinedDroneAwarenessHandler.html#a7489deb4a1885f6b4985a3f6de205b64" target="_top" xlink:title="Getter for the combined drone awareness simple type by copy.">
<polygon fill="white" stroke="#666666" points="508,-41 315,-41 315,0 508,0 508,-41"/>
<text text-anchor="start" x="323" y="-29" font-family="Helvetica,sans-Serif" font-size="10.00">iii_drone::control</text>
<text text-anchor="start" x="323" y="-18" font-family="Helvetica,sans-Serif" font-size="10.00">::CombinedDroneAwarenessHandler</text>
<text text-anchor="middle" x="411.5" y="-7" font-family="Helvetica,sans-Serif" font-size="10.00">::combined_drone_awareness</text>
</a>
</g>
</g>
<!-- Node1&#45;&gt;Node2 -->
<g id="edge1_Node000001_Node000002" class="edge">
<title>Node1&#45;&gt;Node2</title>
<g id="a_edge1_Node000001_Node000002"><a xlink:title=" ">
<path fill="none" stroke="#63b8ff" d="M279.06,-20.5C287.62,-20.5 296.16,-20.5 304.55,-20.5"/>
<polygon fill="#63b8ff" stroke="#63b8ff" points="304.69,-24 314.69,-20.5 304.69,-17 304.69,-24"/>
</a>
</g>
</g>
</g>
</svg>
