<?xml version="1.0" encoding="UTF-8" standalone="no"?>
<!DOCTYPE svg PUBLIC "-//W3C//DTD SVG 1.1//EN"
 "http://www.w3.org/Graphics/SVG/1.1/DTD/svg11.dtd">
<!-- Generated by graphviz version 2.43.0 (0)
 -->
<!-- Title: iii_drone::mission::continuous_mission_orchestrator_node::ContinuousMissionOrchestrator Pages: 1 -->
<svg width="195pt" height="556pt"
 viewBox="0.00 0.00 195.00 556.00" xmlns="http://www.w3.org/2000/svg" xmlns:xlink="http://www.w3.org/1999/xlink">
<g id="graph0" class="graph" transform="scale(1 1) rotate(0) translate(4 552)">
<title>iii_drone::mission::continuous_mission_orchestrator_node::ContinuousMissionOrchestrator</title>
<!-- Node1 -->
<g id="Node000001" class="node">
<title>Node1</title>
<g id="a_Node000001"><a xlink:title=" ">
<polygon fill="#999999" stroke="transparent" points="187,-463 0,-463 0,0 187,0 187,-463"/>
<text text-anchor="start" x="16.5" y="-450.5" font-family="Helvetica,sans-Serif" font-size="10.00">iii_drone::mission</text>
<text text-anchor="start" x="16.5" y="-439.5" font-family="Helvetica,sans-Serif" font-size="10.00">::continuous_mission</text>
<text text-anchor="start" x="16.5" y="-428.5" font-family="Helvetica,sans-Serif" font-size="10.00">_orchestrator_node::Continuous</text>
<text text-anchor="start" x="44.5" y="-417.5" font-family="Helvetica,sans-Serif" font-size="10.00">MissionOrchestrator</text>
<text text-anchor="start" x="7" y="-402.5" font-family="Helvetica,sans-Serif" font-size="10.00">&#45;</text>
<text text-anchor="start" x="17.5" y="-402.5" font-family="Helvetica,sans-Serif" font-size="10.00">fly_under_cable_client_</text>
<text text-anchor="start" x="7" y="-387.5" font-family="Helvetica,sans-Serif" font-size="10.00">&#45;</text>
<text text-anchor="start" x="17.5" y="-387.5" font-family="Helvetica,sans-Serif" font-size="10.00">fly_under_cable_response</text>
<text text-anchor="start" x="17.5" y="-376.5" font-family="Helvetica,sans-Serif" font-size="10.00">_received_</text>
<text text-anchor="start" x="7" y="-361.5" font-family="Helvetica,sans-Serif" font-size="10.00">&#45;</text>
<text text-anchor="start" x="17.5" y="-361.5" font-family="Helvetica,sans-Serif" font-size="10.00">fly_under_cable_goal</text>
<text text-anchor="start" x="17.5" y="-350.5" font-family="Helvetica,sans-Serif" font-size="10.00">_accepted_</text>
<text text-anchor="start" x="7" y="-335.5" font-family="Helvetica,sans-Serif" font-size="10.00">&#45;</text>
<text text-anchor="start" x="17.5" y="-335.5" font-family="Helvetica,sans-Serif" font-size="10.00">fly_under_cable_active_</text>
<text text-anchor="start" x="7" y="-320.5" font-family="Helvetica,sans-Serif" font-size="10.00">&#45;</text>
<text text-anchor="start" x="17.5" y="-320.5" font-family="Helvetica,sans-Serif" font-size="10.00">fly_under_cable_success_</text>
<text text-anchor="start" x="7" y="-305.5" font-family="Helvetica,sans-Serif" font-size="10.00">&#45;</text>
<text text-anchor="start" x="17.5" y="-305.5" font-family="Helvetica,sans-Serif" font-size="10.00">fly_under_cable_mutex_</text>
<text text-anchor="start" x="7" y="-290.5" font-family="Helvetica,sans-Serif" font-size="10.00">&#45;</text>
<text text-anchor="start" x="17.5" y="-290.5" font-family="Helvetica,sans-Serif" font-size="10.00">cable_landing_client_</text>
<text text-anchor="start" x="7" y="-275.5" font-family="Helvetica,sans-Serif" font-size="10.00">&#45;</text>
<text text-anchor="start" x="17.5" y="-275.5" font-family="Helvetica,sans-Serif" font-size="10.00">cable_landing_response</text>
<text text-anchor="start" x="17.5" y="-264.5" font-family="Helvetica,sans-Serif" font-size="10.00">_received_</text>
<text text-anchor="start" x="7" y="-249.5" font-family="Helvetica,sans-Serif" font-size="10.00">&#45;</text>
<text text-anchor="start" x="17.5" y="-249.5" font-family="Helvetica,sans-Serif" font-size="10.00">cable_landing_goal</text>
<text text-anchor="start" x="17.5" y="-238.5" font-family="Helvetica,sans-Serif" font-size="10.00">_accepted_</text>
<text text-anchor="start" x="7" y="-223.5" font-family="Helvetica,sans-Serif" font-size="10.00">&#45;</text>
<text text-anchor="start" x="17.5" y="-223.5" font-family="Helvetica,sans-Serif" font-size="10.00">cable_landing_active_</text>
<text text-anchor="start" x="17.5" y="-208.5" font-family="Helvetica,sans-Serif" font-size="10.00">and 80 more...</text>
<text text-anchor="start" x="4.5" y="-193.5" font-family="Helvetica,sans-Serif" font-size="10.00">+</text>
<text text-anchor="start" x="17.5" y="-193.5" font-family="Helvetica,sans-Serif" font-size="10.00">ContinuousMissionOrchestrator()</text>
<text text-anchor="start" x="7" y="-178.5" font-family="Helvetica,sans-Serif" font-size="10.00">&#45;</text>
<text text-anchor="start" x="17.5" y="-178.5" font-family="Helvetica,sans-Serif" font-size="10.00">flyUnderCableGoalResponse</text>
<text text-anchor="start" x="17.5" y="-167.5" font-family="Helvetica,sans-Serif" font-size="10.00">Callback()</text>
<text text-anchor="start" x="7" y="-152.5" font-family="Helvetica,sans-Serif" font-size="10.00">&#45;</text>
<text text-anchor="start" x="17.5" y="-152.5" font-family="Helvetica,sans-Serif" font-size="10.00">flyUnderCableFeedbackCallback()</text>
<text text-anchor="start" x="7" y="-137.5" font-family="Helvetica,sans-Serif" font-size="10.00">&#45;</text>
<text text-anchor="start" x="17.5" y="-137.5" font-family="Helvetica,sans-Serif" font-size="10.00">flyUnderCableResultCallback()</text>
<text text-anchor="start" x="7" y="-122.5" font-family="Helvetica,sans-Serif" font-size="10.00">&#45;</text>
<text text-anchor="start" x="17.5" y="-122.5" font-family="Helvetica,sans-Serif" font-size="10.00">startFlyUnderCable()</text>
<text text-anchor="start" x="7" y="-107.5" font-family="Helvetica,sans-Serif" font-size="10.00">&#45;</text>
<text text-anchor="start" x="17.5" y="-107.5" font-family="Helvetica,sans-Serif" font-size="10.00">flyUnderCableTerminated()</text>
<text text-anchor="start" x="7" y="-92.5" font-family="Helvetica,sans-Serif" font-size="10.00">&#45;</text>
<text text-anchor="start" x="17.5" y="-92.5" font-family="Helvetica,sans-Serif" font-size="10.00">flyUnderCableSucceeded()</text>
<text text-anchor="start" x="7" y="-77.5" font-family="Helvetica,sans-Serif" font-size="10.00">&#45;</text>
<text text-anchor="start" x="17.5" y="-77.5" font-family="Helvetica,sans-Serif" font-size="10.00">cancelFlyUnderCable()</text>
<text text-anchor="start" x="7" y="-62.5" font-family="Helvetica,sans-Serif" font-size="10.00">&#45;</text>
<text text-anchor="start" x="17.5" y="-62.5" font-family="Helvetica,sans-Serif" font-size="10.00">cableLandingGoalResponse</text>
<text text-anchor="start" x="17.5" y="-51.5" font-family="Helvetica,sans-Serif" font-size="10.00">Callback()</text>
<text text-anchor="start" x="7" y="-36.5" font-family="Helvetica,sans-Serif" font-size="10.00">&#45;</text>
<text text-anchor="start" x="17.5" y="-36.5" font-family="Helvetica,sans-Serif" font-size="10.00">cableLandingFeedbackCallback()</text>
<text text-anchor="start" x="7" y="-21.5" font-family="Helvetica,sans-Serif" font-size="10.00">&#45;</text>
<text text-anchor="start" x="17.5" y="-21.5" font-family="Helvetica,sans-Serif" font-size="10.00">cableLandingResultCallback()</text>
<text text-anchor="start" x="17.5" y="-6.5" font-family="Helvetica,sans-Serif" font-size="10.00">and 99 more...</text>
<polygon fill="#666666" stroke="#666666" points="0.5,-412.5 0.5,-412.5 187.5,-412.5 187.5,-412.5 0.5,-412.5"/>
<polygon fill="#666666" stroke="#666666" points="0.5,-203.5 0.5,-203.5 15.5,-203.5 15.5,-203.5 0.5,-203.5"/>
<polygon fill="#666666" stroke="#666666" points="15.5,-203.5 15.5,-203.5 187.5,-203.5 187.5,-203.5 15.5,-203.5"/>
<polygon fill="none" stroke="#666666" points="0,0 0,-463 187,-463 187,0 0,0"/>
</a>
</g>
</g>
<!-- Node2 -->
<g id="Node000002" class="node">
<title>Node2</title>
<g id="a_Node000002"><a xlink:title=" ">
<polygon fill="white" stroke="transparent" points="129,-548 58,-548 58,-499 129,-499 129,-548"/>
<text text-anchor="start" x="63.5" y="-535.5" font-family="Helvetica,sans-Serif" font-size="10.00">rclcpp::Node</text>
<text text-anchor="start" x="92" y="-520.5" font-family="Helvetica,sans-Serif" font-size="10.00"> </text>
<text text-anchor="start" x="92" y="-505.5" font-family="Helvetica,sans-Serif" font-size="10.00"> </text>
<polygon fill="#666666" stroke="#666666" points="58.5,-530.5 58.5,-530.5 129.5,-530.5 129.5,-530.5 58.5,-530.5"/>
<polygon fill="#666666" stroke="#666666" points="58.5,-515.5 58.5,-515.5 129.5,-515.5 129.5,-515.5 58.5,-515.5"/>
<polygon fill="none" stroke="#666666" points="58,-499 58,-548 129,-548 129,-499 58,-499"/>
</a>
</g>
</g>
<!-- Node2&#45;&gt;Node1 -->
<g id="edge1_Node000001_Node000002" class="edge">
<title>Node2&#45;&gt;Node1</title>
<g id="a_edge1_Node000001_Node000002"><a xlink:title=" ">
<path fill="none" stroke="#63b8ff" d="M93.5,-488.74C93.5,-481.14 93.5,-472.52 93.5,-463.16"/>
<polygon fill="none" stroke="#63b8ff" points="90,-488.77 93.5,-498.77 97,-488.77 90,-488.77"/>
</a>
</g>
</g>
</g>
</svg>
