<?xml version="1.0" encoding="UTF-8" standalone="no"?>
<!DOCTYPE svg PUBLIC "-//W3C//DTD SVG 1.1//EN"
 "http://www.w3.org/Graphics/SVG/1.1/DTD/svg11.dtd">
<!-- Generated by graphviz version 2.43.0 (0)
 -->
<!-- Title: iii_drone::adapters::StateAdapter::StateAdapter Pages: 1 -->
<svg width="532pt" height="110pt"
 viewBox="0.00 0.00 532.00 110.00" xmlns="http://www.w3.org/2000/svg" xmlns:xlink="http://www.w3.org/1999/xlink">
<g id="graph0" class="graph" transform="scale(1 1) rotate(0) translate(4 106)">
<title>iii_drone::adapters::StateAdapter::StateAdapter</title>
<!-- Node1 -->
<g id="Node000001" class="node">
<title>Node1</title>
<g id="a_Node000001"><a xlink:title="Constructor from III&#45;Drone&#45;Interfaces::State msg shared pointer.">
<polygon fill="#999999" stroke="#666666" points="156,-54 0,-54 0,-24 156,-24 156,-54"/>
<text text-anchor="start" x="8" y="-42" font-family="Helvetica,sans-Serif" font-size="10.00">iii_drone::adapters</text>
<text text-anchor="middle" x="78" y="-31" font-family="Helvetica,sans-Serif" font-size="10.00">::StateAdapter::StateAdapter</text>
</a>
</g>
</g>
<!-- Node2 -->
<g id="Node000002" class="node">
<title>Node2</title>
<g id="a_Node000002"><a xlink:href="namespaceiii__drone_1_1types.html#a0f2e38f39e75d541ec3429c76b866229" target="_top" xlink:title=" ">
<polygon fill="white" stroke="#666666" points="338,-78 192,-78 192,-48 338,-48 338,-78"/>
<text text-anchor="start" x="200" y="-66" font-family="Helvetica,sans-Serif" font-size="10.00">iii_drone::types::poseFrom</text>
<text text-anchor="middle" x="265" y="-55" font-family="Helvetica,sans-Serif" font-size="10.00">PoseMsg</text>
</a>
</g>
</g>
<!-- Node1&#45;&gt;Node2 -->
<g id="edge1_Node000001_Node000002" class="edge">
<title>Node1&#45;&gt;Node2</title>
<g id="a_edge1_Node000001_Node000002"><a xlink:title=" ">
<path fill="none" stroke="#63b8ff" d="M156.12,-49C164.6,-50.1 173.25,-51.23 181.79,-52.34"/>
<polygon fill="#63b8ff" stroke="#63b8ff" points="181.38,-55.81 191.75,-53.63 182.28,-48.87 181.38,-55.81"/>
</a>
</g>
</g>
<!-- Node5 -->
<g id="Node000005" class="node">
<title>Node5</title>
<g id="a_Node000005"><a xlink:href="namespaceiii__drone_1_1types.html#a42473d6c26ea6e0c7c0eeda54448907c" target="_top" xlink:title=" ">
<polygon fill="white" stroke="#666666" points="329,-30 201,-30 201,0 329,0 329,-30"/>
<text text-anchor="start" x="209" y="-18" font-family="Helvetica,sans-Serif" font-size="10.00">iii_drone::types::vector</text>
<text text-anchor="middle" x="265" y="-7" font-family="Helvetica,sans-Serif" font-size="10.00">FromVectorMsg</text>
</a>
</g>
</g>
<!-- Node1&#45;&gt;Node5 -->
<g id="edge4_Node000001_Node000005" class="edge">
<title>Node1&#45;&gt;Node5</title>
<g id="a_edge4_Node000001_Node000005"><a xlink:title=" ">
<path fill="none" stroke="#63b8ff" d="M156.12,-29C167.5,-27.52 179.21,-26 190.52,-24.53"/>
<polygon fill="#63b8ff" stroke="#63b8ff" points="191.31,-27.96 200.77,-23.2 190.41,-21.02 191.31,-27.96"/>
</a>
</g>
</g>
<!-- Node3 -->
<g id="Node000003" class="node">
<title>Node3</title>
<g id="a_Node000003"><a xlink:href="namespaceiii__drone_1_1types.html#a8215048242190c57b9ff2de3f1daba73" target="_top" xlink:title=" ">
<polygon fill="white" stroke="#666666" points="522.5,-102 375.5,-102 375.5,-72 522.5,-72 522.5,-102"/>
<text text-anchor="start" x="383.5" y="-90" font-family="Helvetica,sans-Serif" font-size="10.00">iii_drone::types::pointFrom</text>
<text text-anchor="middle" x="449" y="-79" font-family="Helvetica,sans-Serif" font-size="10.00">PointMsg</text>
</a>
</g>
</g>
<!-- Node2&#45;&gt;Node3 -->
<g id="edge2_Node000002_Node000003" class="edge">
<title>Node2&#45;&gt;Node3</title>
<g id="a_edge2_Node000002_Node000003"><a xlink:title=" ">
<path fill="none" stroke="#63b8ff" d="M338.19,-72.52C347.06,-73.69 356.18,-74.89 365.19,-76.08"/>
<polygon fill="#63b8ff" stroke="#63b8ff" points="364.93,-79.58 375.3,-77.41 365.84,-72.64 364.93,-79.58"/>
</a>
</g>
</g>
<!-- Node4 -->
<g id="Node000004" class="node">
<title>Node4</title>
<g id="a_Node000004"><a xlink:href="namespaceiii__drone_1_1types.html#ab684c4851f41301e938970679086de49" target="_top" xlink:title=" ">
<polygon fill="white" stroke="#666666" points="524,-54 374,-54 374,-24 524,-24 524,-54"/>
<text text-anchor="start" x="382" y="-42" font-family="Helvetica,sans-Serif" font-size="10.00">iii_drone::types::quaternion</text>
<text text-anchor="middle" x="449" y="-31" font-family="Helvetica,sans-Serif" font-size="10.00">FromQuaternionMsg</text>
</a>
</g>
</g>
<!-- Node2&#45;&gt;Node4 -->
<g id="edge3_Node000002_Node000004" class="edge">
<title>Node2&#45;&gt;Node4</title>
<g id="a_edge3_Node000002_Node000004"><a xlink:title=" ">
<path fill="none" stroke="#63b8ff" d="M338.19,-53.48C346.61,-52.37 355.25,-51.23 363.81,-50.1"/>
<polygon fill="#63b8ff" stroke="#63b8ff" points="364.35,-53.56 373.81,-48.78 363.43,-46.62 364.35,-53.56"/>
</a>
</g>
</g>
</g>
</svg>
