<?xml version="1.0" encoding="UTF-8" standalone="no"?>
<!DOCTYPE svg PUBLIC "-//W3C//DTD SVG 1.1//EN"
 "http://www.w3.org/Graphics/SVG/1.1/DTD/svg11.dtd">
<!-- Generated by graphviz version 2.43.0 (0)
 -->
<!-- Title: iii_drone::control::maneuver::ManeuverScheduler::CanSchedule Pages: 1 -->
<svg width="997pt" height="275pt"
 viewBox="0.00 0.00 997.00 275.00" xmlns="http://www.w3.org/2000/svg" xmlns:xlink="http://www.w3.org/1999/xlink">
<g id="graph0" class="graph" transform="scale(1 1) rotate(0) translate(4 271)">
<title>iii_drone::control::maneuver::ManeuverScheduler::CanSchedule</title>
<!-- Node1 -->
<g id="Node000001" class="node">
<title>Node1</title>
<g id="a_Node000001"><a xlink:title="Returns whether a given maneuver can execute later.">
<polygon fill="#999999" stroke="#666666" points="175,-154 0,-154 0,-113 175,-113 175,-154"/>
<text text-anchor="start" x="8" y="-142" font-family="Helvetica,sans-Serif" font-size="10.00">iii_drone::control</text>
<text text-anchor="start" x="8" y="-131" font-family="Helvetica,sans-Serif" font-size="10.00">::maneuver::ManeuverScheduler</text>
<text text-anchor="middle" x="87.5" y="-120" font-family="Helvetica,sans-Serif" font-size="10.00">::CanSchedule</text>
</a>
</g>
</g>
<!-- Node2 -->
<g id="Node000002" class="node">
<title>Node2</title>
<g id="a_Node000002"><a xlink:href="classiii__drone_1_1control_1_1maneuver_1_1ManeuverScheduler.html#a506aad4bb58475a1f64148aec17c570f" target="_top" xlink:title="Returns the expected combined drone awareness upon completion or failure of given maneuver type,...">
<polygon fill="white" stroke="#666666" points="386,-154 211,-154 211,-113 386,-113 386,-154"/>
<text text-anchor="start" x="219" y="-142" font-family="Helvetica,sans-Serif" font-size="10.00">iii_drone::control</text>
<text text-anchor="start" x="219" y="-131" font-family="Helvetica,sans-Serif" font-size="10.00">::maneuver::ManeuverScheduler</text>
<text text-anchor="middle" x="298.5" y="-120" font-family="Helvetica,sans-Serif" font-size="10.00">::ProjectExpectedAwarenessFull</text>
</a>
</g>
</g>
<!-- Node1&#45;&gt;Node2 -->
<g id="edge1_Node000001_Node000002" class="edge">
<title>Node1&#45;&gt;Node2</title>
<g id="a_edge1_Node000001_Node000002"><a xlink:title=" ">
<path fill="none" stroke="#63b8ff" d="M175.02,-133.5C183.49,-133.5 192.13,-133.5 200.7,-133.5"/>
<polygon fill="#63b8ff" stroke="#63b8ff" points="200.71,-137 210.71,-133.5 200.71,-130 200.71,-137"/>
</a>
</g>
</g>
<!-- Node3 -->
<g id="Node000003" class="node">
<title>Node3</title>
<g id="a_Node000003"><a xlink:href="classiii__drone_1_1control_1_1CombinedDroneAwarenessHandler.html#a7489deb4a1885f6b4985a3f6de205b64" target="_top" xlink:title="Getter for the combined drone awareness simple type by copy.">
<polygon fill="white" stroke="#666666" points="615,-267 422,-267 422,-226 615,-226 615,-267"/>
<text text-anchor="start" x="430" y="-255" font-family="Helvetica,sans-Serif" font-size="10.00">iii_drone::control</text>
<text text-anchor="start" x="430" y="-244" font-family="Helvetica,sans-Serif" font-size="10.00">::CombinedDroneAwarenessHandler</text>
<text text-anchor="middle" x="518.5" y="-233" font-family="Helvetica,sans-Serif" font-size="10.00">::combined_drone_awareness</text>
</a>
</g>
</g>
<!-- Node2&#45;&gt;Node3 -->
<g id="edge2_Node000002_Node000003" class="edge">
<title>Node2&#45;&gt;Node3</title>
<g id="a_edge2_Node000002_Node000003"><a xlink:title=" ">
<path fill="none" stroke="#63b8ff" d="M324.83,-154.32C348.67,-173.05 385.97,-200.19 422,-217.5 425.36,-219.11 428.83,-220.66 432.37,-222.14"/>
<polygon fill="#63b8ff" stroke="#63b8ff" points="431.27,-225.48 441.86,-225.91 433.86,-218.97 431.27,-225.48"/>
</a>
</g>
</g>
<!-- Node4 -->
<g id="Node000004" class="node">
<title>Node4</title>
<g id="a_Node000004"><a xlink:href="classiii__drone_1_1control_1_1maneuver_1_1ManeuverScheduler.html#a6bfc890dd85039701532c5251b2a20a5" target="_top" xlink:title="Get copy of the currently executing maneuver. The currently executing maneuver is of type MANEUVER_TY...">
<polygon fill="white" stroke="#666666" points="606,-208 431,-208 431,-167 606,-167 606,-208"/>
<text text-anchor="start" x="439" y="-196" font-family="Helvetica,sans-Serif" font-size="10.00">iii_drone::control</text>
<text text-anchor="start" x="439" y="-185" font-family="Helvetica,sans-Serif" font-size="10.00">::maneuver::ManeuverScheduler</text>
<text text-anchor="middle" x="518.5" y="-174" font-family="Helvetica,sans-Serif" font-size="10.00">::current_maneuver</text>
</a>
</g>
</g>
<!-- Node2&#45;&gt;Node4 -->
<g id="edge3_Node000002_Node000004" class="edge">
<title>Node2&#45;&gt;Node4</title>
<g id="a_edge3_Node000002_Node000004"><a xlink:title=" ">
<path fill="none" stroke="#63b8ff" d="M382.54,-154.07C396.29,-157.47 410.62,-161.03 424.6,-164.49"/>
<polygon fill="#63b8ff" stroke="#63b8ff" points="424.14,-167.98 434.69,-166.99 425.83,-161.19 424.14,-167.98"/>
</a>
</g>
</g>
<!-- Node5 -->
<g id="Node000005" class="node">
<title>Node5</title>
<g id="a_Node000005"><a xlink:href="classiii__drone_1_1utils_1_1Atomic.html#a9f8422d86cdbb429f29c6e16c61631ee" target="_top" xlink:title="Get the value.">
<polygon fill="white" stroke="#666666" points="581.5,-148.5 455.5,-148.5 455.5,-118.5 581.5,-118.5 581.5,-148.5"/>
<text text-anchor="start" x="463.5" y="-136.5" font-family="Helvetica,sans-Serif" font-size="10.00">iii_drone::utils::Atomic</text>
<text text-anchor="middle" x="518.5" y="-125.5" font-family="Helvetica,sans-Serif" font-size="10.00">::Load</text>
</a>
</g>
</g>
<!-- Node2&#45;&gt;Node5 -->
<g id="edge4_Node000002_Node000005" class="edge">
<title>Node2&#45;&gt;Node5</title>
<g id="a_edge4_Node000002_Node000005"><a xlink:title=" ">
<path fill="none" stroke="#63b8ff" d="M386.29,-133.5C405.72,-133.5 426.14,-133.5 444.93,-133.5"/>
<polygon fill="#63b8ff" stroke="#63b8ff" points="445.18,-137 455.18,-133.5 445.18,-130 445.18,-137"/>
</a>
</g>
</g>
<!-- Node6 -->
<g id="Node000006" class="node">
<title>Node6</title>
<g id="a_Node000006"><a xlink:href="classiii__drone_1_1control_1_1maneuver_1_1ManeuverScheduler.html#a5c5c0d6419c85f15414b71453a47f69c" target="_top" xlink:title="Returns the expected combined drone awareness upon completion or failure of given maneuver type,...">
<polygon fill="white" stroke="#666666" points="611,-100 426,-100 426,-59 611,-59 611,-100"/>
<text text-anchor="start" x="434" y="-88" font-family="Helvetica,sans-Serif" font-size="10.00">iii_drone::control</text>
<text text-anchor="start" x="434" y="-77" font-family="Helvetica,sans-Serif" font-size="10.00">::maneuver::ManeuverScheduler</text>
<text text-anchor="middle" x="518.5" y="-66" font-family="Helvetica,sans-Serif" font-size="10.00">::ProjectExpectedAwarenessSingle</text>
</a>
</g>
</g>
<!-- Node2&#45;&gt;Node6 -->
<g id="edge5_Node000002_Node000006" class="edge">
<title>Node2&#45;&gt;Node6</title>
<g id="a_edge5_Node000002_Node000006"><a xlink:title=" ">
<path fill="none" stroke="#63b8ff" d="M382.54,-112.93C396.29,-109.53 410.62,-105.97 424.6,-102.51"/>
<polygon fill="#63b8ff" stroke="#63b8ff" points="425.83,-105.81 434.69,-100.01 424.14,-99.02 425.83,-105.81"/>
</a>
</g>
</g>
<!-- Node9 -->
<g id="Node000009" class="node">
<title>Node9</title>
<g id="a_Node000009"><a xlink:href="classiii__drone_1_1control_1_1maneuver_1_1ManeuverQueue.html#a5a6e60809fc0dcfcf8b86f10ae3fd3e9" target="_top" xlink:title="Gets the vector of maneuvers in the queue.">
<polygon fill="white" stroke="#666666" points="597.5,-41 439.5,-41 439.5,0 597.5,0 597.5,-41"/>
<text text-anchor="start" x="447.5" y="-29" font-family="Helvetica,sans-Serif" font-size="10.00">iii_drone::control</text>
<text text-anchor="start" x="447.5" y="-18" font-family="Helvetica,sans-Serif" font-size="10.00">::maneuver::ManeuverQueue</text>
<text text-anchor="middle" x="518.5" y="-7" font-family="Helvetica,sans-Serif" font-size="10.00">::vector</text>
</a>
</g>
</g>
<!-- Node2&#45;&gt;Node9 -->
<g id="edge9_Node000002_Node000009" class="edge">
<title>Node2&#45;&gt;Node9</title>
<g id="a_edge9_Node000002_Node000009"><a xlink:title=" ">
<path fill="none" stroke="#63b8ff" d="M324.83,-112.68C348.67,-93.95 385.97,-66.81 422,-49.5 425.36,-47.89 428.83,-46.34 432.37,-44.86"/>
<polygon fill="#63b8ff" stroke="#63b8ff" points="433.86,-48.03 441.86,-41.09 431.27,-41.52 433.86,-48.03"/>
</a>
</g>
</g>
<!-- Node7 -->
<g id="Node000007" class="node">
<title>Node7</title>
<g id="a_Node000007"><a xlink:href="classiii__drone_1_1control_1_1maneuver_1_1Maneuver.html#a2a1dd737450465c565f5eba36e71ffad" target="_top" xlink:title="Maneuver type getter.">
<polygon fill="white" stroke="#666666" points="989,-99 862,-99 862,-58 989,-58 989,-99"/>
<text text-anchor="start" x="870" y="-87" font-family="Helvetica,sans-Serif" font-size="10.00">iii_drone::control</text>
<text text-anchor="start" x="870" y="-76" font-family="Helvetica,sans-Serif" font-size="10.00">::maneuver::Maneuver</text>
<text text-anchor="middle" x="925.5" y="-65" font-family="Helvetica,sans-Serif" font-size="10.00">::maneuver_type</text>
</a>
</g>
</g>
<!-- Node6&#45;&gt;Node7 -->
<g id="edge6_Node000006_Node000007" class="edge">
<title>Node6&#45;&gt;Node7</title>
<g id="a_edge6_Node000006_Node000007"><a xlink:title=" ">
<path fill="none" stroke="#63b8ff" d="M611.1,-82.64C624.48,-83 638.1,-83.3 651,-83.5 728.77,-84.68 748.25,-85.47 826,-83.5 834.37,-83.29 843.13,-82.97 851.83,-82.61"/>
<polygon fill="#63b8ff" stroke="#63b8ff" points="852.16,-86.1 861.99,-82.15 851.84,-79.1 852.16,-86.1"/>
</a>
</g>
</g>
<!-- Node8 -->
<g id="Node000008" class="node">
<title>Node8</title>
<g id="a_Node000008"><a xlink:href="classiii__drone_1_1control_1_1maneuver_1_1ManeuverScheduler.html#a6ba3cad1d62a50cc78dc835e44ab1050" target="_top" xlink:title="Evaluates whether a maneuver can be executed given an awareness.">
<polygon fill="white" stroke="#666666" points="826,-75 651,-75 651,-34 826,-34 826,-75"/>
<text text-anchor="start" x="659" y="-63" font-family="Helvetica,sans-Serif" font-size="10.00">iii_drone::control</text>
<text text-anchor="start" x="659" y="-52" font-family="Helvetica,sans-Serif" font-size="10.00">::maneuver::ManeuverScheduler</text>
<text text-anchor="middle" x="738.5" y="-41" font-family="Helvetica,sans-Serif" font-size="10.00">::maneuverCanExecute</text>
</a>
</g>
</g>
<!-- Node6&#45;&gt;Node8 -->
<g id="edge7_Node000006_Node000008" class="edge">
<title>Node6&#45;&gt;Node8</title>
<g id="a_edge7_Node000006_Node000008"><a xlink:title=" ">
<path fill="none" stroke="#63b8ff" d="M611,-69.01C620.78,-67.89 630.74,-66.74 640.57,-65.62"/>
<polygon fill="#63b8ff" stroke="#63b8ff" points="641.22,-69.06 650.76,-64.45 640.42,-62.11 641.22,-69.06"/>
</a>
</g>
</g>
<!-- Node8&#45;&gt;Node7 -->
<g id="edge8_Node000008_Node000007" class="edge">
<title>Node8&#45;&gt;Node7</title>
<g id="a_edge8_Node000008_Node000007"><a xlink:title=" ">
<path fill="none" stroke="#63b8ff" d="M826.04,-65.73C834.6,-66.84 843.23,-67.96 851.62,-69.05"/>
<polygon fill="#63b8ff" stroke="#63b8ff" points="851.37,-72.54 861.74,-70.36 852.27,-65.6 851.37,-72.54"/>
</a>
</g>
</g>
</g>
</svg>
