<?xml version="1.0" encoding="UTF-8" standalone="no"?>
<!DOCTYPE svg PUBLIC "-//W3C//DTD SVG 1.1//EN"
 "http://www.w3.org/Graphics/SVG/1.1/DTD/svg11.dtd">
<!-- Generated by graphviz version 2.43.0 (0)
 -->
<!-- Title: iii_drone::perception::Powerline::predictLines Pages: 1 -->
<svg width="517pt" height="180pt"
 viewBox="0.00 0.00 517.00 179.50" xmlns="http://www.w3.org/2000/svg" xmlns:xlink="http://www.w3.org/1999/xlink">
<g id="graph0" class="graph" transform="scale(1 1) rotate(0) translate(4 175.5)">
<title>iii_drone::perception::Powerline::predictLines</title>
<!-- Node1 -->
<g id="Node000001" class="node">
<title>Node1</title>
<g id="a_Node000001"><a xlink:title="Runs the Kalman Filter predict step for all lines.">
<polygon fill="#999999" stroke="#666666" points="136,-106.5 0,-106.5 0,-76.5 136,-76.5 136,-106.5"/>
<text text-anchor="start" x="8" y="-94.5" font-family="Helvetica,sans-Serif" font-size="10.00">iii_drone::perception</text>
<text text-anchor="middle" x="68" y="-83.5" font-family="Helvetica,sans-Serif" font-size="10.00">::Powerline::predictLines</text>
</a>
</g>
</g>
<!-- Node2 -->
<g id="Node000002" class="node">
<title>Node2</title>
<g id="a_Node000002"><a xlink:href="classiii__drone_1_1perception_1_1Powerline.html#ae01313af26d0faefd560f290feb28daf" target="_top" xlink:title="Returns the drone quaternion orientation.">
<polygon fill="white" stroke="#666666" points="317.5,-171.5 184.5,-171.5 184.5,-141.5 317.5,-141.5 317.5,-171.5"/>
<text text-anchor="start" x="192.5" y="-159.5" font-family="Helvetica,sans-Serif" font-size="10.00">iii_drone::perception</text>
<text text-anchor="middle" x="251" y="-148.5" font-family="Helvetica,sans-Serif" font-size="10.00">::Powerline::drone_pose</text>
</a>
</g>
</g>
<!-- Node1&#45;&gt;Node2 -->
<g id="edge1_Node000001_Node000002" class="edge">
<title>Node1&#45;&gt;Node2</title>
<g id="a_edge1_Node000001_Node000002"><a xlink:title=" ">
<path fill="none" stroke="#63b8ff" d="M104.96,-106.64C124.62,-114.7 149.49,-124.57 172,-132.5 177.56,-134.46 183.38,-136.42 189.22,-138.32"/>
<polygon fill="#63b8ff" stroke="#63b8ff" points="188.45,-141.75 199.04,-141.47 190.58,-135.08 188.45,-141.75"/>
</a>
</g>
</g>
<!-- Node4 -->
<g id="Node000004" class="node">
<title>Node4</title>
<g id="a_Node000004"><a xlink:href="namespaceiii__drone_1_1math.html#af4cd05fd620f368b776def1c899e2f17" target="_top" xlink:title=" ">
<polygon fill="white" stroke="#666666" points="325.5,-123 176.5,-123 176.5,-104 325.5,-104 325.5,-123"/>
<text text-anchor="middle" x="251" y="-111" font-family="Helvetica,sans-Serif" font-size="10.00">iii_drone::math::matToQuat</text>
</a>
</g>
</g>
<!-- Node1&#45;&gt;Node4 -->
<g id="edge3_Node000001_Node000004" class="edge">
<title>Node1&#45;&gt;Node4</title>
<g id="a_edge3_Node000001_Node000004"><a xlink:title=" ">
<path fill="none" stroke="#63b8ff" d="M136.14,-99.66C145.95,-100.85 156.15,-102.09 166.24,-103.32"/>
<polygon fill="#63b8ff" stroke="#63b8ff" points="165.93,-106.81 176.28,-104.54 166.77,-99.86 165.93,-106.81"/>
</a>
</g>
</g>
<!-- Node5 -->
<g id="Node000005" class="node">
<title>Node5</title>
<g id="a_Node000005"><a xlink:href="classiii__drone_1_1perception_1_1Powerline.html#a210005c21c48227d8b6961e2a8f6cb86" target="_top" xlink:title="Returns the powerline projection plane.">
<polygon fill="white" stroke="#666666" points="330,-85.5 172,-85.5 172,-55.5 330,-55.5 330,-85.5"/>
<text text-anchor="start" x="180" y="-73.5" font-family="Helvetica,sans-Serif" font-size="10.00">iii_drone::perception</text>
<text text-anchor="middle" x="251" y="-62.5" font-family="Helvetica,sans-Serif" font-size="10.00">::Powerline::projection_plane</text>
</a>
</g>
</g>
<!-- Node1&#45;&gt;Node5 -->
<g id="edge4_Node000001_Node000005" class="edge">
<title>Node1&#45;&gt;Node5</title>
<g id="a_edge4_Node000001_Node000005"><a xlink:title=" ">
<path fill="none" stroke="#63b8ff" d="M136.14,-83.71C144.53,-82.74 153.2,-81.73 161.85,-80.73"/>
<polygon fill="#63b8ff" stroke="#63b8ff" points="162.44,-84.18 171.97,-79.55 161.63,-77.23 162.44,-84.18"/>
</a>
</g>
</g>
<!-- Node6 -->
<g id="Node000006" class="node">
<title>Node6</title>
<g id="a_Node000006"><a xlink:href="namespaceiii__drone_1_1math.html#af8c96a0fa3940e1034c8db8425586ba8" target="_top" xlink:title=" ">
<polygon fill="white" stroke="#666666" points="324.5,-37 177.5,-37 177.5,-18 324.5,-18 324.5,-37"/>
<text text-anchor="middle" x="251" y="-25" font-family="Helvetica,sans-Serif" font-size="10.00">iii_drone::math::quatToMat</text>
</a>
</g>
</g>
<!-- Node1&#45;&gt;Node6 -->
<g id="edge5_Node000001_Node000006" class="edge">
<title>Node1&#45;&gt;Node6</title>
<g id="a_edge5_Node000001_Node000006"><a xlink:title=" ">
<path fill="none" stroke="#63b8ff" d="M99.55,-76.49C119.76,-66.98 147.04,-54.92 172,-46.5 179.43,-43.99 187.36,-41.67 195.21,-39.57"/>
<polygon fill="#63b8ff" stroke="#63b8ff" points="196.26,-42.92 205.07,-37.04 194.52,-36.14 196.26,-42.92"/>
</a>
</g>
</g>
<!-- Node3 -->
<g id="Node000003" class="node">
<title>Node3</title>
<g id="a_Node000003"><a xlink:href="classiii__drone_1_1utils_1_1History.html#a4b015ee2da0e8a06ec7ac24e9fff5da3" target="_top" xlink:title="Returns true if the history is empty.">
<polygon fill="white" stroke="#666666" points="501,-171.5 374,-171.5 374,-141.5 501,-141.5 501,-171.5"/>
<text text-anchor="start" x="382" y="-159.5" font-family="Helvetica,sans-Serif" font-size="10.00">iii_drone::utils::History</text>
<text text-anchor="middle" x="437.5" y="-148.5" font-family="Helvetica,sans-Serif" font-size="10.00">::empty</text>
</a>
</g>
</g>
<!-- Node2&#45;&gt;Node3 -->
<g id="edge2_Node000002_Node000003" class="edge">
<title>Node2&#45;&gt;Node3</title>
<g id="a_edge2_Node000002_Node000003"><a xlink:title=" ">
<path fill="none" stroke="#63b8ff" d="M317.57,-156.5C332.46,-156.5 348.37,-156.5 363.55,-156.5"/>
<polygon fill="#63b8ff" stroke="#63b8ff" points="363.93,-160 373.93,-156.5 363.93,-153 363.93,-160"/>
</a>
</g>
</g>
<!-- Node7 -->
<g id="Node000007" class="node">
<title>Node7</title>
<g id="a_Node000007"><a xlink:href="namespaceiii__drone_1_1math.html#a7f61d7905e9118b077f713da7e65e8df" target="_top" xlink:title=" ">
<polygon fill="white" stroke="#666666" points="507.5,-56 367.5,-56 367.5,-37 507.5,-37 507.5,-56"/>
<text text-anchor="middle" x="437.5" y="-44" font-family="Helvetica,sans-Serif" font-size="10.00">iii_drone::math::eulToMat</text>
</a>
</g>
</g>
<!-- Node6&#45;&gt;Node7 -->
<g id="edge6_Node000006_Node000007" class="edge">
<title>Node6&#45;&gt;Node7</title>
<g id="a_edge6_Node000006_Node000007"><a xlink:title=" ">
<path fill="none" stroke="#63b8ff" d="M324.65,-34.98C335.28,-36.08 346.26,-37.21 357.01,-38.31"/>
<polygon fill="#63b8ff" stroke="#63b8ff" points="356.92,-41.82 367.23,-39.37 357.64,-34.86 356.92,-41.82"/>
</a>
</g>
</g>
<!-- Node8 -->
<g id="Node000008" class="node">
<title>Node8</title>
<g id="a_Node000008"><a xlink:href="namespaceiii__drone_1_1math.html#a8e7d7e25d07b368363d6da9939a9abed" target="_top" xlink:title=" ">
<polygon fill="white" stroke="#666666" points="509,-19 366,-19 366,0 509,0 509,-19"/>
<text text-anchor="middle" x="437.5" y="-7" font-family="Helvetica,sans-Serif" font-size="10.00">iii_drone::math::quatToEul</text>
</a>
</g>
</g>
<!-- Node6&#45;&gt;Node8 -->
<g id="edge7_Node000006_Node000008" class="edge">
<title>Node6&#45;&gt;Node8</title>
<g id="a_edge7_Node000006_Node000008"><a xlink:title=" ">
<path fill="none" stroke="#63b8ff" d="M324.65,-20.41C334.79,-19.42 345.25,-18.4 355.53,-17.4"/>
<polygon fill="#63b8ff" stroke="#63b8ff" points="356.11,-20.86 365.72,-16.41 355.43,-13.89 356.11,-20.86"/>
</a>
</g>
</g>
</g>
</svg>
