<?xml version="1.0" encoding="UTF-8" standalone="no"?>
<!DOCTYPE svg PUBLIC "-//W3C//DTD SVG 1.1//EN"
 "http://www.w3.org/Graphics/SVG/1.1/DTD/svg11.dtd">
<!-- Generated by graphviz version 2.43.0 (0)
 -->
<!-- Title: iii_drone::mission::continuous_mission_orchestrator_node::ContinuousMissionOrchestrator::setTargetCableId Pages: 1 -->
<svg width="998pt" height="420pt"
 viewBox="0.00 0.00 998.00 420.03" xmlns="http://www.w3.org/2000/svg" xmlns:xlink="http://www.w3.org/1999/xlink">
<g id="graph0" class="graph" transform="scale(1 1) rotate(0) translate(4 416.03)">
<title>iii_drone::mission::continuous_mission_orchestrator_node::ContinuousMissionOrchestrator::setTargetCableId</title>
<!-- Node1 -->
<g id="Node000001" class="node">
<title>Node1</title>
<g id="a_Node000001"><a xlink:title=" ">
<polygon fill="#999999" stroke="#666666" points="990,-252.5 787,-252.5 787,-200.5 990,-200.5 990,-252.5"/>
<text text-anchor="start" x="795" y="-240.5" font-family="Helvetica,sans-Serif" font-size="10.00">iii_drone::mission</text>
<text text-anchor="start" x="795" y="-229.5" font-family="Helvetica,sans-Serif" font-size="10.00">::continuous_mission</text>
<text text-anchor="start" x="795" y="-218.5" font-family="Helvetica,sans-Serif" font-size="10.00">_orchestrator_node::Continuous</text>
<text text-anchor="middle" x="888.5" y="-207.5" font-family="Helvetica,sans-Serif" font-size="10.00">MissionOrchestrator::setTargetCableId</text>
</a>
</g>
</g>
<!-- Node2 -->
<g id="Node000002" class="node">
<title>Node2</title>
<g id="a_Node000002"><a xlink:href="classiii__drone_1_1mission_1_1continuous__mission__orchestrator__node_1_1ContinuousMissionOrchestrator.html#a4622a66fb18e75d7cf8ca70376e9dd86" target="_top" xlink:title=" ">
<polygon fill="white" stroke="#666666" points="460.5,-385 266.5,-385 266.5,-322 460.5,-322 460.5,-385"/>
<text text-anchor="start" x="274.5" y="-373" font-family="Helvetica,sans-Serif" font-size="10.00">iii_drone::mission</text>
<text text-anchor="start" x="274.5" y="-362" font-family="Helvetica,sans-Serif" font-size="10.00">::continuous_mission</text>
<text text-anchor="start" x="274.5" y="-351" font-family="Helvetica,sans-Serif" font-size="10.00">_orchestrator_node::Continuous</text>
<text text-anchor="start" x="274.5" y="-340" font-family="Helvetica,sans-Serif" font-size="10.00">MissionOrchestrator::setTargetCable</text>
<text text-anchor="middle" x="363.5" y="-329" font-family="Helvetica,sans-Serif" font-size="10.00">IdSrvCallback</text>
</a>
</g>
</g>
<!-- Node1&#45;&gt;Node2 -->
<g id="edge1_Node000001_Node000002" class="edge">
<title>Node1&#45;&gt;Node2</title>
<g id="a_edge1_Node000001_Node000002"><a xlink:title=" ">
<path fill="none" stroke="#63b8ff" d="M869.78,-261.41C847.87,-300.24 806.56,-360.87 751,-386.5 655.91,-430.37 533.74,-408.77 452.47,-385.05"/>
<polygon fill="#63b8ff" stroke="#63b8ff" points="872.91,-262.97 874.67,-252.52 866.78,-259.6 872.91,-262.97"/>
</a>
</g>
</g>
<!-- Node4 -->
<g id="Node000004" class="node">
<title>Node4</title>
<g id="a_Node000004"><a xlink:href="classiii__drone_1_1mission_1_1continuous__mission__orchestrator__node_1_1ContinuousMissionOrchestrator.html#af7c5486c9ef326fe3920e39b136982fd" target="_top" xlink:title=" ">
<polygon fill="white" stroke="#666666" points="744,-377 521,-377 521,-314 744,-314 744,-377"/>
<text text-anchor="start" x="529" y="-365" font-family="Helvetica,sans-Serif" font-size="10.00">iii_drone::mission</text>
<text text-anchor="start" x="529" y="-354" font-family="Helvetica,sans-Serif" font-size="10.00">::continuous_mission</text>
<text text-anchor="start" x="529" y="-343" font-family="Helvetica,sans-Serif" font-size="10.00">_orchestrator_node::Continuous</text>
<text text-anchor="start" x="529" y="-332" font-family="Helvetica,sans-Serif" font-size="10.00">MissionOrchestrator::stateMachineClosing</text>
<text text-anchor="middle" x="632.5" y="-321" font-family="Helvetica,sans-Serif" font-size="10.00">Gripper</text>
</a>
</g>
</g>
<!-- Node1&#45;&gt;Node4 -->
<g id="edge3_Node000001_Node000004" class="edge">
<title>Node1&#45;&gt;Node4</title>
<g id="a_edge3_Node000001_Node000004"><a xlink:title=" ">
<path fill="none" stroke="#63b8ff" d="M838.67,-257.9C813.18,-273.47 781.1,-291.82 751,-305.5 744.62,-308.4 737.97,-311.2 731.22,-313.89"/>
<polygon fill="#63b8ff" stroke="#63b8ff" points="840.72,-260.74 847.4,-252.52 837.05,-254.79 840.72,-260.74"/>
</a>
</g>
</g>
<!-- Node6 -->
<g id="Node000006" class="node">
<title>Node6</title>
<g id="a_Node000006"><a xlink:href="classiii__drone_1_1mission_1_1continuous__mission__orchestrator__node_1_1ContinuousMissionOrchestrator.html#a793891d2f8615cd25b0ec0eae9b50013" target="_top" xlink:title=" ">
<polygon fill="white" stroke="#666666" points="741,-296 524,-296 524,-233 741,-233 741,-296"/>
<text text-anchor="start" x="532" y="-284" font-family="Helvetica,sans-Serif" font-size="10.00">iii_drone::mission</text>
<text text-anchor="start" x="532" y="-273" font-family="Helvetica,sans-Serif" font-size="10.00">::continuous_mission</text>
<text text-anchor="start" x="532" y="-262" font-family="Helvetica,sans-Serif" font-size="10.00">_orchestrator_node::Continuous</text>
<text text-anchor="start" x="532" y="-251" font-family="Helvetica,sans-Serif" font-size="10.00">MissionOrchestrator::stateMachineFlying</text>
<text text-anchor="middle" x="632.5" y="-240" font-family="Helvetica,sans-Serif" font-size="10.00">UnderCable</text>
</a>
</g>
</g>
<!-- Node1&#45;&gt;Node6 -->
<g id="edge6_Node000001_Node000006" class="edge">
<title>Node1&#45;&gt;Node6</title>
<g id="a_edge6_Node000001_Node000006"><a xlink:title=" ">
<path fill="none" stroke="#63b8ff" d="M776.51,-243.1C764.8,-244.86 752.9,-246.64 741.23,-248.38"/>
<polygon fill="#63b8ff" stroke="#63b8ff" points="777.38,-246.51 786.75,-241.57 776.34,-239.59 777.38,-246.51"/>
</a>
</g>
</g>
<!-- Node7 -->
<g id="Node000007" class="node">
<title>Node7</title>
<g id="a_Node000007"><a xlink:href="classiii__drone_1_1mission_1_1continuous__mission__orchestrator__node_1_1ContinuousMissionOrchestrator.html#ac2bddae403ea4b73684263ebe30ca6cd" target="_top" xlink:title=" ">
<polygon fill="white" stroke="#666666" points="751,-214.5 514,-214.5 514,-162.5 751,-162.5 751,-214.5"/>
<text text-anchor="start" x="522" y="-202.5" font-family="Helvetica,sans-Serif" font-size="10.00">iii_drone::mission</text>
<text text-anchor="start" x="522" y="-191.5" font-family="Helvetica,sans-Serif" font-size="10.00">::continuous_mission</text>
<text text-anchor="start" x="522" y="-180.5" font-family="Helvetica,sans-Serif" font-size="10.00">_orchestrator_node::Continuous</text>
<text text-anchor="middle" x="632.5" y="-169.5" font-family="Helvetica,sans-Serif" font-size="10.00">MissionOrchestrator::stateMachineInspecting</text>
</a>
</g>
</g>
<!-- Node1&#45;&gt;Node7 -->
<g id="edge8_Node000001_Node000007" class="edge">
<title>Node1&#45;&gt;Node7</title>
<g id="a_edge8_Node000001_Node000007"><a xlink:title=" ">
<path fill="none" stroke="#63b8ff" d="M776.59,-209.91C768.22,-208.65 759.75,-207.39 751.34,-206.13"/>
<polygon fill="#63b8ff" stroke="#63b8ff" points="776.34,-213.41 786.75,-211.43 777.38,-206.49 776.34,-213.41"/>
</a>
</g>
</g>
<!-- Node8 -->
<g id="Node000008" class="node">
<title>Node8</title>
<g id="a_Node000008"><a xlink:href="classiii__drone_1_1mission_1_1continuous__mission__orchestrator__node_1_1ContinuousMissionOrchestrator.html#aced4073ab58729bff6e815d51bf89778" target="_top" xlink:title=" ">
<polygon fill="white" stroke="#666666" points="745,-144 520,-144 520,-81 745,-81 745,-144"/>
<text text-anchor="start" x="528" y="-132" font-family="Helvetica,sans-Serif" font-size="10.00">iii_drone::mission</text>
<text text-anchor="start" x="528" y="-121" font-family="Helvetica,sans-Serif" font-size="10.00">::continuous_mission</text>
<text text-anchor="start" x="528" y="-110" font-family="Helvetica,sans-Serif" font-size="10.00">_orchestrator_node::Continuous</text>
<text text-anchor="start" x="528" y="-99" font-family="Helvetica,sans-Serif" font-size="10.00">MissionOrchestrator::stateMachineLanding</text>
<text text-anchor="middle" x="632.5" y="-88" font-family="Helvetica,sans-Serif" font-size="10.00">OnCable</text>
</a>
</g>
</g>
<!-- Node1&#45;&gt;Node8 -->
<g id="edge10_Node000001_Node000008" class="edge">
<title>Node1&#45;&gt;Node8</title>
<g id="a_edge10_Node000001_Node000008"><a xlink:title=" ">
<path fill="none" stroke="#63b8ff" d="M833.99,-195.4C809.19,-181.63 779.06,-165.81 751,-153.5 743.58,-150.25 735.81,-147.06 727.96,-144"/>
<polygon fill="#63b8ff" stroke="#63b8ff" points="832.44,-198.54 842.88,-200.36 835.86,-192.43 832.44,-198.54"/>
</a>
</g>
</g>
<!-- Node9 -->
<g id="Node000009" class="node">
<title>Node9</title>
<g id="a_Node000009"><a xlink:href="classiii__drone_1_1mission_1_1continuous__mission__orchestrator__node_1_1ContinuousMissionOrchestrator.html#a1884ad099408cb1bfd50b9da8a467132" target="_top" xlink:title=" ">
<polygon fill="white" stroke="#666666" points="737,-63 528,-63 528,0 737,0 737,-63"/>
<text text-anchor="start" x="536" y="-51" font-family="Helvetica,sans-Serif" font-size="10.00">iii_drone::mission</text>
<text text-anchor="start" x="536" y="-40" font-family="Helvetica,sans-Serif" font-size="10.00">::continuous_mission</text>
<text text-anchor="start" x="536" y="-29" font-family="Helvetica,sans-Serif" font-size="10.00">_orchestrator_node::Continuous</text>
<text text-anchor="start" x="536" y="-18" font-family="Helvetica,sans-Serif" font-size="10.00">MissionOrchestrator::stateMachineWait</text>
<text text-anchor="middle" x="632.5" y="-7" font-family="Helvetica,sans-Serif" font-size="10.00">ForTargetLine</text>
</a>
</g>
</g>
<!-- Node1&#45;&gt;Node9 -->
<g id="edge12_Node000001_Node000009" class="edge">
<title>Node1&#45;&gt;Node9</title>
<g id="a_edge12_Node000001_Node000009"><a xlink:title=" ">
<path fill="none" stroke="#63b8ff" d="M865.05,-191.76C840.8,-156.81 799.12,-103.61 751,-71.5 746.52,-68.51 741.79,-65.72 736.91,-63.13"/>
<polygon fill="#63b8ff" stroke="#63b8ff" points="862.3,-193.94 870.83,-200.23 868.08,-190 862.3,-193.94"/>
</a>
</g>
</g>
<!-- Node3 -->
<g id="Node000003" class="node">
<title>Node3</title>
<g id="a_Node000003"><a xlink:href="classiii__drone_1_1mission_1_1continuous__mission__orchestrator__node_1_1ContinuousMissionOrchestrator.html#a7d652b0b72969090c91c494f5c032eba" target="_top" xlink:title=" ">
<polygon fill="white" stroke="#666666" points="213,-296 0,-296 0,-233 213,-233 213,-296"/>
<text text-anchor="start" x="8" y="-284" font-family="Helvetica,sans-Serif" font-size="10.00">iii_drone::mission</text>
<text text-anchor="start" x="8" y="-273" font-family="Helvetica,sans-Serif" font-size="10.00">::continuous_mission</text>
<text text-anchor="start" x="8" y="-262" font-family="Helvetica,sans-Serif" font-size="10.00">_orchestrator_node::Continuous</text>
<text text-anchor="start" x="8" y="-251" font-family="Helvetica,sans-Serif" font-size="10.00">MissionOrchestrator::ContinuousMission</text>
<text text-anchor="middle" x="106.5" y="-240" font-family="Helvetica,sans-Serif" font-size="10.00">Orchestrator</text>
</a>
</g>
</g>
<!-- Node2&#45;&gt;Node3 -->
<g id="edge2_Node000002_Node000003" class="edge">
<title>Node2&#45;&gt;Node3</title>
<g id="a_edge2_Node000002_Node000003"><a xlink:title=" ">
<path fill="none" stroke="#63b8ff" d="M262.55,-318.62C241.29,-311.2 218.96,-303.4 198.07,-296.11"/>
<polygon fill="#63b8ff" stroke="#63b8ff" points="261.64,-322.01 272.24,-322 263.95,-315.4 261.64,-322.01"/>
</a>
</g>
</g>
<!-- Node5 -->
<g id="Node000005" class="node">
<title>Node5</title>
<g id="a_Node000005"><a xlink:href="classiii__drone_1_1mission_1_1continuous__mission__orchestrator__node_1_1ContinuousMissionOrchestrator.html#a03d16a0b3a80d3d63fd1ac37c08829c7" target="_top" xlink:title=" ">
<polygon fill="white" stroke="#666666" points="478,-252.5 249,-252.5 249,-200.5 478,-200.5 478,-252.5"/>
<text text-anchor="start" x="257" y="-240.5" font-family="Helvetica,sans-Serif" font-size="10.00">iii_drone::mission</text>
<text text-anchor="start" x="257" y="-229.5" font-family="Helvetica,sans-Serif" font-size="10.00">::continuous_mission</text>
<text text-anchor="start" x="257" y="-218.5" font-family="Helvetica,sans-Serif" font-size="10.00">_orchestrator_node::Continuous</text>
<text text-anchor="middle" x="363.5" y="-207.5" font-family="Helvetica,sans-Serif" font-size="10.00">MissionOrchestrator::stateMachineCallback</text>
</a>
</g>
</g>
<!-- Node4&#45;&gt;Node5 -->
<g id="edge4_Node000004_Node000005" class="edge">
<title>Node4&#45;&gt;Node5</title>
<g id="a_edge4_Node000004_Node000005"><a xlink:title=" ">
<path fill="none" stroke="#63b8ff" d="M525.26,-310.2C521.44,-308.65 517.68,-307.09 514,-305.5 477.88,-289.92 438.61,-269.01 409.39,-252.61"/>
<polygon fill="#63b8ff" stroke="#63b8ff" points="524.26,-313.56 534.85,-313.97 526.83,-307.05 524.26,-313.56"/>
</a>
</g>
</g>
<!-- Node5&#45;&gt;Node3 -->
<g id="edge5_Node000005_Node000003" class="edge">
<title>Node5&#45;&gt;Node3</title>
<g id="a_edge5_Node000005_Node000003"><a xlink:title=" ">
<path fill="none" stroke="#63b8ff" d="M238.79,-244.93C230.26,-246.21 221.7,-247.48 213.27,-248.74"/>
<polygon fill="#63b8ff" stroke="#63b8ff" points="239.42,-248.38 248.8,-243.44 238.39,-241.46 239.42,-248.38"/>
</a>
</g>
</g>
<!-- Node6&#45;&gt;Node5 -->
<g id="edge7_Node000006_Node000005" class="edge">
<title>Node6&#45;&gt;Node5</title>
<g id="a_edge7_Node000006_Node000005"><a xlink:title=" ">
<path fill="none" stroke="#63b8ff" d="M513.48,-247.7C501.82,-246.04 490.01,-244.36 478.4,-242.71"/>
<polygon fill="#63b8ff" stroke="#63b8ff" points="513.28,-251.21 523.67,-249.15 514.26,-244.28 513.28,-251.21"/>
</a>
</g>
</g>
<!-- Node7&#45;&gt;Node5 -->
<g id="edge9_Node000007_Node000005" class="edge">
<title>Node7&#45;&gt;Node5</title>
<g id="a_edge9_Node000007_Node000005"><a xlink:title=" ">
<path fill="none" stroke="#63b8ff" d="M503.68,-206.69C495.2,-207.9 486.69,-209.11 478.29,-210.31"/>
<polygon fill="#63b8ff" stroke="#63b8ff" points="504.21,-210.15 513.61,-205.28 503.22,-203.22 504.21,-210.15"/>
</a>
</g>
</g>
<!-- Node8&#45;&gt;Node5 -->
<g id="edge11_Node000008_Node000005" class="edge">
<title>Node8&#45;&gt;Node5</title>
<g id="a_edge11_Node000008_Node000005"><a xlink:title=" ">
<path fill="none" stroke="#63b8ff" d="M528.36,-147.7C523.49,-149.61 518.68,-151.55 514,-153.5 480.01,-167.67 442.79,-185.83 413.99,-200.5"/>
<polygon fill="#63b8ff" stroke="#63b8ff" points="529.73,-150.93 537.8,-144.07 527.21,-144.39 529.73,-150.93"/>
</a>
</g>
</g>
<!-- Node9&#45;&gt;Node5 -->
<g id="edge13_Node000009_Node000005" class="edge">
<title>Node9&#45;&gt;Node5</title>
<g id="a_edge13_Node000009_Node000005"><a xlink:title=" ">
<path fill="none" stroke="#63b8ff" d="M519.88,-67.94C517.88,-69.09 515.92,-70.28 514,-71.5 458.77,-106.57 409.19,-166.13 383.34,-200.3"/>
<polygon fill="#63b8ff" stroke="#63b8ff" points="521.72,-70.92 528.84,-63.07 518.38,-64.77 521.72,-70.92"/>
</a>
</g>
</g>
</g>
</svg>
