<?xml version="1.0" encoding="UTF-8" standalone="no"?>
<!DOCTYPE svg PUBLIC "-//W3C//DTD SVG 1.1//EN"
 "http://www.w3.org/Graphics/SVG/1.1/DTD/svg11.dtd">
<!-- Generated by graphviz version 2.43.0 (0)
 -->
<!-- Title: iii_drone::adapters::StateAdapter::ToPoseStampedMsg Pages: 1 -->
<svg width="743pt" height="158pt"
 viewBox="0.00 0.00 743.00 158.00" xmlns="http://www.w3.org/2000/svg" xmlns:xlink="http://www.w3.org/1999/xlink">
<g id="graph0" class="graph" transform="scale(1 1) rotate(0) translate(4 154)">
<title>iii_drone::adapters::StateAdapter::ToPoseStampedMsg</title>
<!-- Node1 -->
<g id="Node000001" class="node">
<title>Node1</title>
<g id="a_Node000001"><a xlink:title="Converts to PoseStamped msg.">
<polygon fill="#999999" stroke="#666666" points="190,-78 0,-78 0,-48 190,-48 190,-78"/>
<text text-anchor="start" x="8" y="-66" font-family="Helvetica,sans-Serif" font-size="10.00">iii_drone::adapters</text>
<text text-anchor="middle" x="95" y="-55" font-family="Helvetica,sans-Serif" font-size="10.00">::StateAdapter::ToPoseStampedMsg</text>
</a>
</g>
</g>
<!-- Node2 -->
<g id="Node000002" class="node">
<title>Node2</title>
<g id="a_Node000002"><a xlink:href="classiii__drone_1_1adapters_1_1StateAdapter.html#af26b6d4bae9e9d9fc7fecc6a355d2aab" target="_top" xlink:title="Converts to Pose msg.">
<polygon fill="white" stroke="#666666" points="372,-78 226,-78 226,-48 372,-48 372,-78"/>
<text text-anchor="start" x="234" y="-66" font-family="Helvetica,sans-Serif" font-size="10.00">iii_drone::adapters</text>
<text text-anchor="middle" x="299" y="-55" font-family="Helvetica,sans-Serif" font-size="10.00">::StateAdapter::ToPoseMsg</text>
</a>
</g>
</g>
<!-- Node1&#45;&gt;Node2 -->
<g id="edge1_Node000001_Node000002" class="edge">
<title>Node1&#45;&gt;Node2</title>
<g id="a_edge1_Node000001_Node000002"><a xlink:title=" ">
<path fill="none" stroke="#63b8ff" d="M190.2,-63C198.68,-63 207.23,-63 215.6,-63"/>
<polygon fill="#63b8ff" stroke="#63b8ff" points="215.7,-66.5 225.7,-63 215.7,-59.5 215.7,-66.5"/>
</a>
</g>
</g>
<!-- Node3 -->
<g id="Node000003" class="node">
<title>Node3</title>
<g id="a_Node000003"><a xlink:href="namespaceiii__drone_1_1types.html#a2b1316cd0e6d4f226b2e11e7f9dd03c9" target="_top" xlink:title=" ">
<polygon fill="white" stroke="#666666" points="549,-126 408,-126 408,-96 549,-96 549,-126"/>
<text text-anchor="start" x="416" y="-114" font-family="Helvetica,sans-Serif" font-size="10.00">iii_drone::types::poseMsg</text>
<text text-anchor="middle" x="478.5" y="-103" font-family="Helvetica,sans-Serif" font-size="10.00">FromPose</text>
</a>
</g>
</g>
<!-- Node2&#45;&gt;Node3 -->
<g id="edge2_Node000002_Node000003" class="edge">
<title>Node2&#45;&gt;Node3</title>
<g id="a_edge2_Node000002_Node000003"><a xlink:title=" ">
<path fill="none" stroke="#63b8ff" d="M355.68,-78.06C373.6,-82.9 393.63,-88.32 412.18,-93.34"/>
<polygon fill="#63b8ff" stroke="#63b8ff" points="411.46,-96.77 422.02,-96 413.28,-90.01 411.46,-96.77"/>
</a>
</g>
</g>
<!-- Node6 -->
<g id="Node000006" class="node">
<title>Node6</title>
<g id="a_Node000006"><a xlink:href="classiii__drone_1_1control_1_1State.html#ac7d02a667c215a72d7f7f2fdf1501eb4" target="_top" xlink:title=" ">
<polygon fill="white" stroke="#666666" points="527.5,-78 429.5,-78 429.5,-48 527.5,-48 527.5,-78"/>
<text text-anchor="start" x="437.5" y="-66" font-family="Helvetica,sans-Serif" font-size="10.00">iii_drone::control</text>
<text text-anchor="middle" x="478.5" y="-55" font-family="Helvetica,sans-Serif" font-size="10.00">::State::position</text>
</a>
</g>
</g>
<!-- Node2&#45;&gt;Node6 -->
<g id="edge5_Node000002_Node000006" class="edge">
<title>Node2&#45;&gt;Node6</title>
<g id="a_edge5_Node000002_Node000006"><a xlink:title=" ">
<path fill="none" stroke="#63b8ff" d="M372.2,-63C387.87,-63 404.26,-63 419.31,-63"/>
<polygon fill="#63b8ff" stroke="#63b8ff" points="419.5,-66.5 429.5,-63 419.5,-59.5 419.5,-66.5"/>
</a>
</g>
</g>
<!-- Node7 -->
<g id="Node000007" class="node">
<title>Node7</title>
<g id="a_Node000007"><a xlink:href="classiii__drone_1_1control_1_1State.html#a730c06d2972e469a61c4a0e053f47b85" target="_top" xlink:title=" ">
<polygon fill="white" stroke="#666666" points="532,-30 425,-30 425,0 532,0 532,-30"/>
<text text-anchor="start" x="433" y="-18" font-family="Helvetica,sans-Serif" font-size="10.00">iii_drone::control</text>
<text text-anchor="middle" x="478.5" y="-7" font-family="Helvetica,sans-Serif" font-size="10.00">::State::quaternion</text>
</a>
</g>
</g>
<!-- Node2&#45;&gt;Node7 -->
<g id="edge6_Node000002_Node000007" class="edge">
<title>Node2&#45;&gt;Node7</title>
<g id="a_edge6_Node000002_Node000007"><a xlink:title=" ">
<path fill="none" stroke="#63b8ff" d="M355.68,-47.94C374.46,-42.86 395.56,-37.16 414.85,-31.94"/>
<polygon fill="#63b8ff" stroke="#63b8ff" points="416.01,-35.25 424.75,-29.27 414.18,-28.5 416.01,-35.25"/>
</a>
</g>
</g>
<!-- Node4 -->
<g id="Node000004" class="node">
<title>Node4</title>
<g id="a_Node000004"><a xlink:href="namespaceiii__drone_1_1types.html#adf49c0d0a898eea29ad3e752a6712734" target="_top" xlink:title=" ">
<polygon fill="white" stroke="#666666" points="731.5,-150 588.5,-150 588.5,-120 731.5,-120 731.5,-150"/>
<text text-anchor="start" x="596.5" y="-138" font-family="Helvetica,sans-Serif" font-size="10.00">iii_drone::types::pointMsg</text>
<text text-anchor="middle" x="660" y="-127" font-family="Helvetica,sans-Serif" font-size="10.00">FromPoint</text>
</a>
</g>
</g>
<!-- Node3&#45;&gt;Node4 -->
<g id="edge3_Node000003_Node000004" class="edge">
<title>Node3&#45;&gt;Node4</title>
<g id="a_edge3_Node000003_Node000004"><a xlink:title=" ">
<path fill="none" stroke="#63b8ff" d="M549.16,-120.31C558.74,-121.59 568.64,-122.92 578.4,-124.22"/>
<polygon fill="#63b8ff" stroke="#63b8ff" points="578.12,-127.72 588.5,-125.57 579.05,-120.78 578.12,-127.72"/>
</a>
</g>
</g>
<!-- Node5 -->
<g id="Node000005" class="node">
<title>Node5</title>
<g id="a_Node000005"><a xlink:href="namespaceiii__drone_1_1types.html#a345601fdf3366d6af6d7c2003d74275b" target="_top" xlink:title=" ">
<polygon fill="white" stroke="#666666" points="735,-102 585,-102 585,-72 735,-72 735,-102"/>
<text text-anchor="start" x="593" y="-90" font-family="Helvetica,sans-Serif" font-size="10.00">iii_drone::types::quaternion</text>
<text text-anchor="middle" x="660" y="-79" font-family="Helvetica,sans-Serif" font-size="10.00">MsgFromQuaternion</text>
</a>
</g>
</g>
<!-- Node3&#45;&gt;Node5 -->
<g id="edge4_Node000003_Node000005" class="edge">
<title>Node3&#45;&gt;Node5</title>
<g id="a_edge4_Node000003_Node000005"><a xlink:title=" ">
<path fill="none" stroke="#63b8ff" d="M549.16,-101.69C557.59,-100.56 566.26,-99.4 574.87,-98.25"/>
<polygon fill="#63b8ff" stroke="#63b8ff" points="575.48,-101.7 584.93,-96.9 574.55,-94.76 575.48,-101.7"/>
</a>
</g>
</g>
</g>
</svg>
