<?xml version="1.0" encoding="UTF-8" standalone="no"?>
<!DOCTYPE svg PUBLIC "-//W3C//DTD SVG 1.1//EN"
 "http://www.w3.org/Graphics/SVG/1.1/DTD/svg11.dtd">
<!-- Generated by graphviz version 2.43.0 (0)
 -->
<!-- Title: iii_drone::control::maneuver::Maneuver::goal_handle Pages: 1 -->
<!--zoomable 560 -->

<svg id="main" version="1.1" xmlns="http://www.w3.org/2000/svg" xmlns:xlink="http://www.w3.org/1999/xlink" xml:space="preserve" onload="init(evt)">
<style type="text/css"><![CDATA[
.node, .edge {opacity: 0.7;}
.node.selected, .edge.selected {opacity: 1;}
.edge:hover path { stroke: red; }
.edge:hover polygon { stroke: red; fill: red; }
]]></style>

<defs>
  <circle id="rim" cx="0" cy="0" r="7"/>
  <circle id="rim2" cx="0" cy="0" r="3.5"/>
  <g id="zoomPlus">
    <use xlink:href="#rim" fill="#404040"><set attributeName="fill" to="#808080" begin="zoomplus.mouseover" end="zoomplus.mouseout"/></use>
    <path d="M-4,0h8M0,-4v8" fill="none" stroke="white" stroke-width="1.5" pointer-events="none"/>
  </g>
  <g id="zoomMin">
    <use xlink:href="#rim" fill="#404040"><set attributeName="fill" to="#808080" begin="zoomminus.mouseover" end="zoomminus.mouseout"/></use>
    <path d="M-4,0h8" fill="none" stroke="white" stroke-width="1.5" pointer-events="none"/>
  </g>
  <g id="arrowUp" transform="translate(30 24)">
    <use xlink:href="#rim"/>
    <path pointer-events="none" fill="none" stroke="white" stroke-width="1.5" d="M0,-3.0v7 M-2.5,-0.5L0,-3.0L2.5,-0.5"/>
  </g>
  <g id="arrowRight" transform="rotate(90) translate(36 -43)">
    <use xlink:href="#rim"/>
    <path pointer-events="none" fill="none" stroke="white" stroke-width="1.5" d="M0,-3.0v7 M-2.5,-0.5L0,-3.0L2.5,-0.5"/>
  </g>
  <g id="arrowDown" transform="rotate(180) translate(-30 -48)">
    <use xlink:href="#rim"/>
    <path pointer-events="none" fill="none" stroke="white" stroke-width="1.5" d="M0,-3.0v7 M-2.5,-0.5L0,-3.0L2.5,-0.5"/>
  </g>
  <g id="arrowLeft" transform="rotate(270) translate(-36 17)">
    <use xlink:href="#rim"/>
    <path pointer-events="none" fill="none" stroke="white" stroke-width="1.5" d="M0,-3.0v7 M-2.5,-0.5L0,-3.0L2.5,-0.5"/>
  </g>
  <g id="resetDef">
    <use xlink:href="#rim2" fill="#404040"><set attributeName="fill" to="#808080" begin="reset.mouseover" end="reset.mouseout"/></use>
  </g>
</defs>
<script type="application/ecmascript">
var viewWidth = 1019;
var viewHeight = 560;
var sectionId = 'dynsection-3';
</script>
<script type="application/ecmascript" xlink:href="svg.min.js"/>
<svg id="graph" class="graph">
<g id="viewport">
<title>iii_drone::control::maneuver::Maneuver::goal_handle</title>
<!-- Node1 -->
<g id="Node000001" class="node">
<title>Node1</title>
<g id="a_Node000001"><a xlink:title="Goal handle getter.">
<polygon fill="#999999" stroke="#666666" points="1011,-306 884,-306 884,-265 1011,-265 1011,-306"/>
<text text-anchor="start" x="892" y="-294" font-family="Helvetica,sans-Serif" font-size="10.00">iii_drone::control</text>
<text text-anchor="start" x="892" y="-283" font-family="Helvetica,sans-Serif" font-size="10.00">::maneuver::Maneuver</text>
<text text-anchor="middle" x="947.5" y="-272" font-family="Helvetica,sans-Serif" font-size="10.00">::goal_handle</text>
</a>
</g>
</g>
<!-- Node2 -->
<g id="Node000002" class="node">
<title>Node2</title>
<g id="a_Node000002"><a xlink:href="classiii__drone_1_1control_1_1maneuver_1_1Maneuver.html#a5d55359435d8940ff933bfd5e1470a2e" target="_top" xlink:title="Static constructor from goal handle.">
<polygon fill="white" stroke="#666666" points="811.5,-552 684.5,-552 684.5,-511 811.5,-511 811.5,-552"/>
<text text-anchor="start" x="692.5" y="-540" font-family="Helvetica,sans-Serif" font-size="10.00">iii_drone::control</text>
<text text-anchor="start" x="692.5" y="-529" font-family="Helvetica,sans-Serif" font-size="10.00">::maneuver::Maneuver</text>
<text text-anchor="middle" x="748" y="-518" font-family="Helvetica,sans-Serif" font-size="10.00">::FromGoalHandle</text>
</a>
</g>
</g>
<!-- Node1&#45;&gt;Node2 -->
<g id="edge1_Node000001_Node000002" class="edge">
<title>Node1&#45;&gt;Node2</title>
<g id="a_edge1_Node000001_Node000002"><a xlink:title=" ">
<path fill="none" stroke="#63b8ff" d="M940.2,-315.93C929.24,-361.42 902.44,-447.1 848,-496.5 837.67,-505.87 824.68,-512.77 811.53,-517.83"/>
<polygon fill="#63b8ff" stroke="#63b8ff" points="943.63,-316.59 942.47,-306.06 936.81,-315.02 943.63,-316.59"/>
</a>
</g>
</g>
<!-- Node3 -->
<g id="Node000003" class="node">
<title>Node3</title>
<g id="a_Node000003"><a xlink:href="classiii__drone_1_1control_1_1maneuver_1_1ManeuverScheduler.html#a99d218271b8aa908b0e179076f2ca733" target="_top" xlink:title="Progresses the scheduler. If a maneuver is executing, evaluates whether it has terminated....">
<polygon fill="white" stroke="#666666" points="612,-272 437,-272 437,-231 612,-231 612,-272"/>
<text text-anchor="start" x="445" y="-260" font-family="Helvetica,sans-Serif" font-size="10.00">iii_drone::control</text>
<text text-anchor="start" x="445" y="-249" font-family="Helvetica,sans-Serif" font-size="10.00">::maneuver::ManeuverScheduler</text>
<text text-anchor="middle" x="524.5" y="-238" font-family="Helvetica,sans-Serif" font-size="10.00">::progressScheduler</text>
</a>
</g>
</g>
<!-- Node1&#45;&gt;Node3 -->
<g id="edge2_Node000001_Node000003" class="edge">
<title>Node1&#45;&gt;Node3</title>
<g id="a_edge2_Node000001_Node000003"><a xlink:title=" ">
<path fill="none" stroke="#63b8ff" d="M939.71,-316.17C928.6,-358.05 902.13,-431.59 848,-463.5 771.43,-508.64 724.99,-507.93 648,-463.5 574.73,-421.22 541.35,-316.57 530.12,-272.06"/>
<polygon fill="#63b8ff" stroke="#63b8ff" points="943.16,-316.8 942.21,-306.24 936.37,-315.09 943.16,-316.8"/>
</a>
</g>
</g>
<!-- Node6 -->
<g id="Node000006" class="node">
<title>Node6</title>
<g id="a_Node000006"><a xlink:href="classiii__drone_1_1control_1_1maneuver_1_1FlyToObjectManeuverServer.html#a207c2c72ecfb7376ef44bd986e00ccce" target="_top" xlink:title="Publishes the feedback.">
<polygon fill="white" stroke="#666666" points="840,-454 656,-454 656,-413 840,-413 840,-454"/>
<text text-anchor="start" x="664" y="-442" font-family="Helvetica,sans-Serif" font-size="10.00">iii_drone::control</text>
<text text-anchor="start" x="664" y="-431" font-family="Helvetica,sans-Serif" font-size="10.00">::maneuver::FlyToObjectManeuver</text>
<text text-anchor="middle" x="748" y="-420" font-family="Helvetica,sans-Serif" font-size="10.00">Server::publishFeedback</text>
</a>
</g>
</g>
<!-- Node1&#45;&gt;Node6 -->
<g id="edge5_Node000001_Node000006" class="edge">
<title>Node1&#45;&gt;Node6</title>
<g id="a_edge5_Node000001_Node000006"><a xlink:title=" ">
<path fill="none" stroke="#63b8ff" d="M929.26,-315.09C912,-342.17 883.02,-381.45 848,-404.5 843.21,-407.65 838.08,-410.47 832.75,-412.98"/>
<polygon fill="#63b8ff" stroke="#63b8ff" points="932.35,-316.75 934.65,-306.41 926.4,-313.05 932.35,-316.75"/>
</a>
</g>
</g>
<!-- Node7 -->
<g id="Node000007" class="node">
<title>Node7</title>
<g id="a_Node000007"><a xlink:href="classiii__drone_1_1control_1_1maneuver_1_1FlyToPositionManeuverServer.html#a5918df6e93a4e3b9c9a500bab1c17c6b" target="_top" xlink:title="Publishes the feedback.">
<polygon fill="white" stroke="#666666" points="843.5,-395 652.5,-395 652.5,-354 843.5,-354 843.5,-395"/>
<text text-anchor="start" x="660.5" y="-383" font-family="Helvetica,sans-Serif" font-size="10.00">iii_drone::control</text>
<text text-anchor="start" x="660.5" y="-372" font-family="Helvetica,sans-Serif" font-size="10.00">::maneuver::FlyToPositionManeuver</text>
<text text-anchor="middle" x="748" y="-361" font-family="Helvetica,sans-Serif" font-size="10.00">Server::publishFeedback</text>
</a>
</g>
</g>
<!-- Node1&#45;&gt;Node7 -->
<g id="edge6_Node000001_Node000007" class="edge">
<title>Node1&#45;&gt;Node7</title>
<g id="a_edge6_Node000001_Node000007"><a xlink:title=" ">
<path fill="none" stroke="#63b8ff" d="M909.01,-311.54C891.14,-323.11 869.09,-336.18 848,-345.5 841.12,-348.54 833.83,-351.36 826.46,-353.96"/>
<polygon fill="#63b8ff" stroke="#63b8ff" points="911,-314.42 917.43,-306 907.15,-308.57 911,-314.42"/>
</a>
</g>
</g>
<!-- Node8 -->
<g id="Node000008" class="node">
<title>Node8</title>
<g id="a_Node000008"><a xlink:href="classiii__drone_1_1control_1_1maneuver_1_1FlyToObjectManeuverServer.html#a2afb702a953aa331d30fa250830ec4b0" target="_top" xlink:title="Publishes the result and finalizes the maneuver according to the maneuver result type.">
<polygon fill="white" stroke="#666666" points="840,-336 656,-336 656,-295 840,-295 840,-336"/>
<text text-anchor="start" x="664" y="-324" font-family="Helvetica,sans-Serif" font-size="10.00">iii_drone::control</text>
<text text-anchor="start" x="664" y="-313" font-family="Helvetica,sans-Serif" font-size="10.00">::maneuver::FlyToObjectManeuver</text>
<text text-anchor="middle" x="748" y="-302" font-family="Helvetica,sans-Serif" font-size="10.00">Server::publishResultAndFinalize</text>
</a>
</g>
</g>
<!-- Node1&#45;&gt;Node8 -->
<g id="edge7_Node000001_Node000008" class="edge">
<title>Node1&#45;&gt;Node8</title>
<g id="a_edge7_Node000001_Node000008"><a xlink:title=" ">
<path fill="none" stroke="#63b8ff" d="M873.81,-296.54C862.83,-298.21 851.39,-299.95 840.09,-301.66"/>
<polygon fill="#63b8ff" stroke="#63b8ff" points="874.38,-300 883.74,-295.03 873.33,-293.07 874.38,-300"/>
</a>
</g>
</g>
<!-- Node9 -->
<g id="Node000009" class="node">
<title>Node9</title>
<g id="a_Node000009"><a xlink:href="classiii__drone_1_1control_1_1maneuver_1_1FlyToPositionManeuverServer.html#aaf7ca9231f71cc21e168c8d733c58a56" target="_top" xlink:title="Publishes the result and finalizes the maneuver according to the maneuver result type.">
<polygon fill="white" stroke="#666666" points="843.5,-277 652.5,-277 652.5,-236 843.5,-236 843.5,-277"/>
<text text-anchor="start" x="660.5" y="-265" font-family="Helvetica,sans-Serif" font-size="10.00">iii_drone::control</text>
<text text-anchor="start" x="660.5" y="-254" font-family="Helvetica,sans-Serif" font-size="10.00">::maneuver::FlyToPositionManeuver</text>
<text text-anchor="middle" x="748" y="-243" font-family="Helvetica,sans-Serif" font-size="10.00">Server::publishResultAndFinalize</text>
</a>
</g>
</g>
<!-- Node1&#45;&gt;Node9 -->
<g id="edge8_Node000001_Node000009" class="edge">
<title>Node1&#45;&gt;Node9</title>
<g id="a_edge8_Node000001_Node000009"><a xlink:title=" ">
<path fill="none" stroke="#63b8ff" d="M873.7,-274.81C863.92,-273.37 853.78,-271.89 843.69,-270.4"/>
<polygon fill="#63b8ff" stroke="#63b8ff" points="873.34,-278.29 883.74,-276.28 874.35,-271.37 873.34,-278.29"/>
</a>
</g>
</g>
<!-- Node10 -->
<g id="Node000010" class="node">
<title>Node10</title>
<g id="a_Node000010"><a xlink:href="classiii__drone_1_1control_1_1maneuver_1_1HoverByObjectManeuverServer.html#a80336b2dc5cac8ed93bfe98b420c8e4d" target="_top" xlink:title="Publishes the result and finalizes the maneuver according to the maneuver result type.">
<polygon fill="white" stroke="#666666" points="848,-218 648,-218 648,-177 848,-177 848,-218"/>
<text text-anchor="start" x="656" y="-206" font-family="Helvetica,sans-Serif" font-size="10.00">iii_drone::control</text>
<text text-anchor="start" x="656" y="-195" font-family="Helvetica,sans-Serif" font-size="10.00">::maneuver::HoverByObjectManeuver</text>
<text text-anchor="middle" x="748" y="-184" font-family="Helvetica,sans-Serif" font-size="10.00">Server::publishResultAndFinalize</text>
</a>
</g>
</g>
<!-- Node1&#45;&gt;Node10 -->
<g id="edge9_Node000001_Node000010" class="edge">
<title>Node1&#45;&gt;Node10</title>
<g id="a_edge9_Node000001_Node000010"><a xlink:title=" ">
<path fill="none" stroke="#63b8ff" d="M907.18,-259.43C889.58,-248.54 868.27,-236.39 848,-227.5 840.27,-224.11 832.04,-220.95 823.76,-218.06"/>
<polygon fill="#63b8ff" stroke="#63b8ff" points="905.68,-262.63 916.01,-264.99 909.41,-256.7 905.68,-262.63"/>
</a>
</g>
</g>
<!-- Node11 -->
<g id="Node000011" class="node">
<title>Node11</title>
<g id="a_Node000011"><a xlink:href="classiii__drone_1_1control_1_1maneuver_1_1HoverManeuverServer.html#a8b01d8b3f542c24d41300810f6851d4c" target="_top" xlink:title="Publishes the result and finalizes the maneuver according to the maneuver result type.">
<polygon fill="white" stroke="#666666" points="842,-159 654,-159 654,-118 842,-118 842,-159"/>
<text text-anchor="start" x="662" y="-147" font-family="Helvetica,sans-Serif" font-size="10.00">iii_drone::control</text>
<text text-anchor="start" x="662" y="-136" font-family="Helvetica,sans-Serif" font-size="10.00">::maneuver::HoverManeuverServer</text>
<text text-anchor="middle" x="748" y="-125" font-family="Helvetica,sans-Serif" font-size="10.00">::publishResultAndFinalize</text>
</a>
</g>
</g>
<!-- Node1&#45;&gt;Node11 -->
<g id="edge10_Node000001_Node000011" class="edge">
<title>Node1&#45;&gt;Node11</title>
<g id="a_edge10_Node000001_Node000011"><a xlink:title=" ">
<path fill="none" stroke="#63b8ff" d="M928.79,-256.03C911.39,-229.47 882.46,-191.21 848,-168.5 842.6,-164.94 836.76,-161.79 830.72,-159.01"/>
<polygon fill="#63b8ff" stroke="#63b8ff" points="925.91,-258.01 934.25,-264.55 931.8,-254.24 925.91,-258.01"/>
</a>
</g>
</g>
<!-- Node12 -->
<g id="Node000012" class="node">
<title>Node12</title>
<g id="a_Node000012"><a xlink:href="classiii__drone_1_1control_1_1maneuver_1_1HoverOnCableManeuverServer.html#aa06efd9bfb0a37553e8599a3bc5060f8" target="_top" xlink:title="Publish the result and finalize the maneuver based on the maneuver result type.">
<polygon fill="white" stroke="#666666" points="846.5,-100 649.5,-100 649.5,-59 846.5,-59 846.5,-100"/>
<text text-anchor="start" x="657.5" y="-88" font-family="Helvetica,sans-Serif" font-size="10.00">iii_drone::control</text>
<text text-anchor="start" x="657.5" y="-77" font-family="Helvetica,sans-Serif" font-size="10.00">::maneuver::HoverOnCableManeuver</text>
<text text-anchor="middle" x="748" y="-66" font-family="Helvetica,sans-Serif" font-size="10.00">Server::publishResultAndFinalize</text>
</a>
</g>
</g>
<!-- Node1&#45;&gt;Node12 -->
<g id="edge11_Node000001_Node000012" class="edge">
<title>Node1&#45;&gt;Node12</title>
<g id="a_edge11_Node000001_Node000012"><a xlink:title=" ">
<path fill="none" stroke="#63b8ff" d="M937.45,-255.18C924.17,-215.88 895.69,-147.86 848,-109.5 843.66,-106.01 838.92,-102.93 833.94,-100.2"/>
<polygon fill="#63b8ff" stroke="#63b8ff" points="934.14,-256.33 940.57,-264.75 940.8,-254.16 934.14,-256.33"/>
</a>
</g>
</g>
<!-- Node13 -->
<g id="Node000013" class="node">
<title>Node13</title>
<g id="a_Node000013"><a xlink:href="classiii__drone_1_1control_1_1maneuver_1_1Maneuver.html#a326847216fc83f70e8e2e14c4d766df0" target="_top" xlink:title="Triggers the maneuver to start by calling the underlying execute function on the goal handle.">
<polygon fill="white" stroke="#666666" points="811.5,-41 684.5,-41 684.5,0 811.5,0 811.5,-41"/>
<text text-anchor="start" x="692.5" y="-29" font-family="Helvetica,sans-Serif" font-size="10.00">iii_drone::control</text>
<text text-anchor="start" x="692.5" y="-18" font-family="Helvetica,sans-Serif" font-size="10.00">::maneuver::Maneuver</text>
<text text-anchor="middle" x="748" y="-7" font-family="Helvetica,sans-Serif" font-size="10.00">::Start</text>
</a>
</g>
</g>
<!-- Node1&#45;&gt;Node13 -->
<g id="edge12_Node000001_Node000013" class="edge">
<title>Node1&#45;&gt;Node13</title>
<g id="a_edge12_Node000001_Node000013"><a xlink:title=" ">
<path fill="none" stroke="#63b8ff" d="M942.17,-254.96C933.47,-204.97 909.17,-105.69 848,-50.5 837.8,-41.3 824.85,-34.91 811.72,-30.49"/>
<polygon fill="#63b8ff" stroke="#63b8ff" points="938.72,-255.55 943.8,-264.85 945.63,-254.42 938.72,-255.55"/>
</a>
</g>
</g>
<!-- Node4 -->
<g id="Node000004" class="node">
<title>Node4</title>
<g id="a_Node000004"><a xlink:href="classiii__drone_1_1control_1_1maneuver_1_1ManeuverScheduler.html#a3f6d63fc07809f25313347856ffdcd78" target="_top" xlink:title="The maneuver execution timer callback.">
<polygon fill="white" stroke="#666666" points="401,-272 211,-272 211,-231 401,-231 401,-272"/>
<text text-anchor="start" x="219" y="-260" font-family="Helvetica,sans-Serif" font-size="10.00">iii_drone::control</text>
<text text-anchor="start" x="219" y="-249" font-family="Helvetica,sans-Serif" font-size="10.00">::maneuver::ManeuverScheduler</text>
<text text-anchor="middle" x="306" y="-238" font-family="Helvetica,sans-Serif" font-size="10.00">::maneuverExecutionTimerCallback</text>
</a>
</g>
</g>
<!-- Node3&#45;&gt;Node4 -->
<g id="edge3_Node000003_Node000004" class="edge">
<title>Node3&#45;&gt;Node4</title>
<g id="a_edge3_Node000003_Node000004"><a xlink:title=" ">
<path fill="none" stroke="#63b8ff" d="M426.52,-251.5C418.13,-251.5 409.65,-251.5 401.28,-251.5"/>
<polygon fill="#63b8ff" stroke="#63b8ff" points="426.69,-255 436.69,-251.5 426.69,-248 426.69,-255"/>
</a>
</g>
</g>
<!-- Node5 -->
<g id="Node000005" class="node">
<title>Node5</title>
<g id="a_Node000005"><a xlink:href="classiii__drone_1_1control_1_1maneuver_1_1ManeuverScheduler.html#ab930f227bbd30171806a49ab06c4e3b8" target="_top" xlink:title="Constructor.">
<polygon fill="white" stroke="#666666" points="175,-272 0,-272 0,-231 175,-231 175,-272"/>
<text text-anchor="start" x="8" y="-260" font-family="Helvetica,sans-Serif" font-size="10.00">iii_drone::control</text>
<text text-anchor="start" x="8" y="-249" font-family="Helvetica,sans-Serif" font-size="10.00">::maneuver::ManeuverScheduler</text>
<text text-anchor="middle" x="87.5" y="-238" font-family="Helvetica,sans-Serif" font-size="10.00">::ManeuverScheduler</text>
</a>
</g>
</g>
<!-- Node4&#45;&gt;Node5 -->
<g id="edge4_Node000004_Node000005" class="edge">
<title>Node4&#45;&gt;Node5</title>
<g id="a_edge4_Node000004_Node000005"><a xlink:title=" ">
<path fill="none" stroke="#63b8ff" d="M200.93,-251.5C192.34,-251.5 183.71,-251.5 175.27,-251.5"/>
<polygon fill="#63b8ff" stroke="#63b8ff" points="200.98,-255 210.98,-251.5 200.98,-248 200.98,-255"/>
</a>
</g>
</g>
<!-- Node13&#45;&gt;Node3 -->
<g id="edge13_Node000013_Node000003" class="edge">
<title>Node13&#45;&gt;Node3</title>
<g id="a_edge13_Node000013_Node000003"><a xlink:title=" ">
<path fill="none" stroke="#63b8ff" d="M674.83,-35.5C665.24,-39.4 655.99,-44.32 648,-50.5 585.15,-99.16 547.09,-189.91 532.43,-230.7"/>
<polygon fill="#63b8ff" stroke="#63b8ff" points="676.32,-38.67 684.48,-31.92 673.89,-32.11 676.32,-38.67"/>
</a>
</g>
</g>
</g>
</svg>

<g id="navigator" transform="translate(0 0)" fill="#404254">
  <rect fill="#f2f5e9" fill-opacity="0.5" stroke="#606060" stroke-width=".5" x="0" y="0" width="60" height="60"/>
  <use id="zoomplus" xlink:href="#zoomPlus" x="17" y="9" onmousedown="handleZoom(evt,'in')"/>
  <use id="zoomminus" xlink:href="#zoomMin" x="42" y="9" onmousedown="handleZoom(evt,'out')"/>
  <use id="reset" xlink:href="#resetDef" x="30" y="36" onmousedown="handleReset()"/>
   <use id="arrowup" xlink:href="#arrowUp" x="0" y="0" onmousedown="handlePan(0,-1)"/>
  <use id="arrowright" xlink:href="#arrowRight" x="0" y="0" onmousedown="handlePan(1,0)"/>
  <use id="arrowdown" xlink:href="#arrowDown" x="0" y="0" onmousedown="handlePan(0,1)"/>
  <use id="arrowleft" xlink:href="#arrowLeft" x="0" y="0" onmousedown="handlePan(-1,0)"/>
</g>
<svg viewBox="0 0 15 15" width="100%" height="30px" preserveAspectRatio="xMaxYMin meet">
 <g id="arrow_out" transform="scale(0.3 0.3)">
  <a xlink:href="classiii__drone_1_1control_1_1maneuver_1_1Maneuver_a0b7b01d9ab27db008c54f7ef0099fcd0_icgraph_org.svg" target="_base">
   <rect id="button" ry="5" rx="5" y="6" x="6" height="38" width="38"
        fill="#f2f5e9" fill-opacity="0.5" stroke="#606060" stroke-width="1.0"/>
   <path id="arrow"
     d="M 11.500037,31.436501 C 11.940474,20.09759 22.043105,11.32322 32.158766,21.979434 L 37.068811,17.246167 C 37.068811,17.246167 37.088388,32 37.088388,32 L 22.160133,31.978069 C 22.160133,31.978069 26.997745,27.140456 26.997745,27.140456 C 18.528582,18.264221 13.291696,25.230495 11.500037,31.436501 z"
     style="fill:#404040;"/>
  </a>
 </g>
</svg>

<style type='text/css'>
<![CDATA[
[data-mouse-over-selected='false'] { opacity: 0.7; }
[data-mouse-over-selected='true']  { opacity: 1.0; }
]]>
</style>
<script type="application/ecmascript"><![CDATA[
document.addEventListener('DOMContentLoaded', (event) => {
  highlightEdges();
  highlightAdjacentNodes();
});
]]></script>
</svg>
