<?xml version="1.0" encoding="UTF-8" standalone="no"?>
<!DOCTYPE svg PUBLIC "-//W3C//DTD SVG 1.1//EN"
 "http://www.w3.org/Graphics/SVG/1.1/DTD/svg11.dtd">
<!-- Generated by graphviz version 2.43.0 (0)
 -->
<!-- Title: iii_drone::perception::SingleLine::SingleLine Pages: 1 -->
<svg width="339pt" height="182pt"
 viewBox="0.00 0.00 339.00 182.00" xmlns="http://www.w3.org/2000/svg" xmlns:xlink="http://www.w3.org/1999/xlink">

<svg id="main" version="1.1" xmlns="http://www.w3.org/2000/svg" xmlns:xlink="http://www.w3.org/1999/xlink" xml:space="preserve" onload="init(evt)">
<style type="text/css"><![CDATA[
.node, .edge {opacity: 0.7;}
.node.selected, .edge.selected {opacity: 1;}
.edge:hover path { stroke: red; }
.edge:hover polygon { stroke: red; fill: red; }
]]></style>
<script type="application/ecmascript" xlink:href="svg.min.js"/>
<svg id="graph" class="graph">
<g id="graph0" class="graph" transform="scale(1 1) rotate(0) translate(4 178)">
<title>iii_drone::perception::SingleLine::SingleLine</title>
<!-- Node1 -->
<g id="Node000001" class="node">
<title>Node1</title>
<g id="a_Node000001"><a xlink:title="Constructor from Pose msg.">
<polygon fill="#999999" stroke="#666666" points="129,-102 0,-102 0,-72 129,-72 129,-102"/>
<text text-anchor="start" x="8" y="-90" font-family="Helvetica,sans-Serif" font-size="10.00">iii_drone::perception</text>
<text text-anchor="middle" x="64.5" y="-79" font-family="Helvetica,sans-Serif" font-size="10.00">::SingleLine::SingleLine</text>
</a>
</g>
</g>
<!-- Node2 -->
<g id="Node000002" class="node">
<title>Node2</title>
<g id="a_Node000002"><a xlink:href="classiii__drone_1_1perception_1_1SingleLine.html#abfb685964e0af6f5d46fc2c70e6c9412" target="_top" xlink:title="Id getter.">
<polygon fill="white" stroke="#666666" points="306,-174 190,-174 190,-144 306,-144 306,-174"/>
<text text-anchor="start" x="198" y="-162" font-family="Helvetica,sans-Serif" font-size="10.00">iii_drone::perception</text>
<text text-anchor="middle" x="248" y="-151" font-family="Helvetica,sans-Serif" font-size="10.00">::SingleLine::id</text>
</a>
</g>
</g>
<!-- Node1&#45;&gt;Node2 -->
<g id="edge1_Node000001_Node000002" class="edge">
<title>Node1&#45;&gt;Node2</title>
<g id="a_edge1_Node000001_Node000002"><a xlink:title=" ">
<path fill="none" stroke="#63b8ff" d="M93.69,-102.14C113.31,-112.29 140.3,-125.5 165,-135 170.19,-137 175.62,-138.92 181.11,-140.76"/>
<polygon fill="#63b8ff" stroke="#63b8ff" points="180.42,-144.21 191.01,-143.95 182.57,-137.55 180.42,-144.21"/>
</a>
</g>
</g>
<!-- Node3 -->
<g id="Node000003" class="node">
<title>Node3</title>
<g id="a_Node000003"><a xlink:href="namespaceiii__drone_1_1types.html#a8215048242190c57b9ff2de3f1daba73" target="_top" xlink:title=" ">
<polygon fill="white" stroke="#666666" points="321.5,-126 174.5,-126 174.5,-96 321.5,-96 321.5,-126"/>
<text text-anchor="start" x="182.5" y="-114" font-family="Helvetica,sans-Serif" font-size="10.00">iii_drone::types::pointFrom</text>
<text text-anchor="middle" x="248" y="-103" font-family="Helvetica,sans-Serif" font-size="10.00">PointMsg</text>
</a>
</g>
</g>
<!-- Node1&#45;&gt;Node3 -->
<g id="edge2_Node000001_Node000003" class="edge">
<title>Node1&#45;&gt;Node3</title>
<g id="a_edge2_Node000001_Node000003"><a xlink:title=" ">
<path fill="none" stroke="#63b8ff" d="M129.23,-95.43C140.53,-96.92 152.44,-98.5 164.18,-100.05"/>
<polygon fill="#63b8ff" stroke="#63b8ff" points="164.05,-103.56 174.42,-101.4 164.97,-96.62 164.05,-103.56"/>
</a>
</g>
</g>
<!-- Node4 -->
<g id="Node000004" class="node">
<title>Node4</title>
<g id="a_Node000004"><a xlink:href="namespaceiii__drone_1_1types.html#ab684c4851f41301e938970679086de49" target="_top" xlink:title=" ">
<polygon fill="white" stroke="#666666" points="323,-78 173,-78 173,-48 323,-48 323,-78"/>
<text text-anchor="start" x="181" y="-66" font-family="Helvetica,sans-Serif" font-size="10.00">iii_drone::types::quaternion</text>
<text text-anchor="middle" x="248" y="-55" font-family="Helvetica,sans-Serif" font-size="10.00">FromQuaternionMsg</text>
</a>
</g>
</g>
<!-- Node1&#45;&gt;Node4 -->
<g id="edge3_Node000001_Node000004" class="edge">
<title>Node1&#45;&gt;Node4</title>
<g id="a_edge3_Node000001_Node000004"><a xlink:title=" ">
<path fill="none" stroke="#63b8ff" d="M129.23,-78.57C140.03,-77.15 151.38,-75.64 162.6,-74.16"/>
<polygon fill="#63b8ff" stroke="#63b8ff" points="163.4,-77.59 172.85,-72.8 162.48,-70.65 163.4,-77.59"/>
</a>
</g>
</g>
<!-- Node5 -->
<g id="Node000005" class="node">
<title>Node5</title>
<g id="a_Node000005"><a xlink:href="classiii__drone_1_1perception_1_1SingleLine.html#a5d1eacaca3e2b1b0361ac5d4844e6d1d" target="_top" xlink:title="Resets the Kalman Filter estimates.">
<polygon fill="white" stroke="#666666" points="331,-30 165,-30 165,0 331,0 331,-30"/>
<text text-anchor="start" x="173" y="-18" font-family="Helvetica,sans-Serif" font-size="10.00">iii_drone::perception</text>
<text text-anchor="middle" x="248" y="-7" font-family="Helvetica,sans-Serif" font-size="10.00">::SingleLine::resetKalmanFilter</text>
</a>
</g>
</g>
<!-- Node1&#45;&gt;Node5 -->
<g id="edge4_Node000001_Node000005" class="edge">
<title>Node1&#45;&gt;Node5</title>
<g id="a_edge4_Node000001_Node000005"><a xlink:title=" ">
<path fill="none" stroke="#63b8ff" d="M93.69,-71.86C113.31,-61.71 140.3,-48.5 165,-39 170.19,-37 175.62,-35.08 181.11,-33.24"/>
<polygon fill="#63b8ff" stroke="#63b8ff" points="182.57,-36.45 191.01,-30.05 180.42,-29.79 182.57,-36.45"/>
</a>
</g>
</g>
</g>
</svg>
</svg>

<style type='text/css'>
<![CDATA[
[data-mouse-over-selected='false'] { opacity: 0.7; }
[data-mouse-over-selected='true']  { opacity: 1.0; }
]]>
</style>
<script type="application/ecmascript"><![CDATA[
document.addEventListener('DOMContentLoaded', (event) => {
  highlightEdges();
  highlightAdjacentNodes();
});
]]></script>
</svg>
