<?xml version="1.0" encoding="UTF-8" standalone="no"?>
<!DOCTYPE svg PUBLIC "-//W3C//DTD SVG 1.1//EN"
 "http://www.w3.org/Graphics/SVG/1.1/DTD/svg11.dtd">
<!-- Generated by graphviz version 2.43.0 (0)
 -->
<!-- Title: iii_drone::control::maneuver::HoverOnCableManeuverServer::registerReferenceCallbackOnSuccess Pages: 1 -->
<svg width="868pt" height="137pt"
 viewBox="0.00 0.00 868.00 137.00" xmlns="http://www.w3.org/2000/svg" xmlns:xlink="http://www.w3.org/1999/xlink">
<g id="graph0" class="graph" transform="scale(1 1) rotate(0) translate(4 133)">
<title>iii_drone::control::maneuver::HoverOnCableManeuverServer::registerReferenceCallbackOnSuccess</title>
<!-- Node1 -->
<g id="Node000001" class="node">
<title>Node1</title>
<g id="a_Node000001"><a xlink:title="Register the hover on cable reference callback on success.">
<polygon fill="#999999" stroke="#666666" points="197,-75.5 0,-75.5 0,-23.5 197,-23.5 197,-75.5"/>
<text text-anchor="start" x="8" y="-63.5" font-family="Helvetica,sans-Serif" font-size="10.00">iii_drone::control</text>
<text text-anchor="start" x="8" y="-52.5" font-family="Helvetica,sans-Serif" font-size="10.00">::maneuver::HoverOnCableManeuver</text>
<text text-anchor="start" x="8" y="-41.5" font-family="Helvetica,sans-Serif" font-size="10.00">Server::registerReferenceCallbackOn</text>
<text text-anchor="middle" x="98.5" y="-30.5" font-family="Helvetica,sans-Serif" font-size="10.00">Success</text>
</a>
</g>
</g>
<!-- Node2 -->
<g id="Node000002" class="node">
<title>Node2</title>
<g id="a_Node000002"><a xlink:href="classiii__drone_1_1control_1_1maneuver_1_1HoverOnCableManeuverServer.html#ac87c548fbbbeb13a210a267c39c685d3" target="_top" xlink:title="Gets the hover on cable reference. Will call the on fail callback if the drone is not on the cable.">
<polygon fill="white" stroke="#666666" points="430,-100 233,-100 233,-59 430,-59 430,-100"/>
<text text-anchor="start" x="241" y="-88" font-family="Helvetica,sans-Serif" font-size="10.00">iii_drone::control</text>
<text text-anchor="start" x="241" y="-77" font-family="Helvetica,sans-Serif" font-size="10.00">::maneuver::HoverOnCableManeuver</text>
<text text-anchor="middle" x="331.5" y="-66" font-family="Helvetica,sans-Serif" font-size="10.00">Server::GetReference</text>
</a>
</g>
</g>
<!-- Node1&#45;&gt;Node2 -->
<g id="edge1_Node000001_Node000002" class="edge">
<title>Node1&#45;&gt;Node2</title>
<g id="a_edge1_Node000001_Node000002"><a xlink:title=" ">
<path fill="none" stroke="#63b8ff" d="M197.13,-62.18C205.63,-63.28 214.25,-64.4 222.83,-65.52"/>
<polygon fill="#63b8ff" stroke="#63b8ff" points="222.48,-69 232.85,-66.82 223.38,-62.06 222.48,-69"/>
</a>
</g>
</g>
<!-- Node6 -->
<g id="Node000006" class="node">
<title>Node6</title>
<g id="a_Node000006"><a xlink:href="classiii__drone_1_1control_1_1maneuver_1_1ManeuverServer.html#ad50ebd57620bbb5863a8d8e40fca2f12" target="_top" xlink:title="Registers a callback function for the reference. The callback function should be registered with the ...">
<polygon fill="white" stroke="#666666" points="410.5,-41 252.5,-41 252.5,0 410.5,0 410.5,-41"/>
<text text-anchor="start" x="260.5" y="-29" font-family="Helvetica,sans-Serif" font-size="10.00">iii_drone::control</text>
<text text-anchor="start" x="260.5" y="-18" font-family="Helvetica,sans-Serif" font-size="10.00">::maneuver::ManeuverServer</text>
<text text-anchor="middle" x="331.5" y="-7" font-family="Helvetica,sans-Serif" font-size="10.00">::registerCallback</text>
</a>
</g>
</g>
<!-- Node1&#45;&gt;Node6 -->
<g id="edge5_Node000001_Node000006" class="edge">
<title>Node1&#45;&gt;Node6</title>
<g id="a_edge5_Node000001_Node000006"><a xlink:title=" ">
<path fill="none" stroke="#63b8ff" d="M197.13,-37.24C212.14,-35.36 227.56,-33.42 242.34,-31.57"/>
<polygon fill="#63b8ff" stroke="#63b8ff" points="242.98,-35.02 252.46,-30.3 242.11,-28.07 242.98,-35.02"/>
</a>
</g>
</g>
<!-- Node3 -->
<g id="Node000003" class="node">
<title>Node3</title>
<g id="a_Node000003"><a xlink:href="classiii__drone_1_1control_1_1maneuver_1_1ManeuverServer.html#aa25571ba492acf43cd9af009c02cf72e" target="_top" xlink:title="Combined drone awareness handler, accessible to derived classes through the protected method.">
<polygon fill="white" stroke="#666666" points="643.5,-129 485.5,-129 485.5,-88 643.5,-88 643.5,-129"/>
<text text-anchor="start" x="493.5" y="-117" font-family="Helvetica,sans-Serif" font-size="10.00">iii_drone::control</text>
<text text-anchor="start" x="493.5" y="-106" font-family="Helvetica,sans-Serif" font-size="10.00">::maneuver::ManeuverServer</text>
<text text-anchor="middle" x="564.5" y="-95" font-family="Helvetica,sans-Serif" font-size="10.00">::awareness_handler</text>
</a>
</g>
</g>
<!-- Node2&#45;&gt;Node3 -->
<g id="edge2_Node000002_Node000003" class="edge">
<title>Node2&#45;&gt;Node3</title>
<g id="a_edge2_Node000002_Node000003"><a xlink:title=" ">
<path fill="none" stroke="#63b8ff" d="M430.13,-91.76C445.14,-93.64 460.56,-95.58 475.34,-97.43"/>
<polygon fill="#63b8ff" stroke="#63b8ff" points="475.11,-100.93 485.46,-98.7 475.98,-93.98 475.11,-100.93"/>
</a>
</g>
</g>
<!-- Node4 -->
<g id="Node000004" class="node">
<title>Node4</title>
<g id="a_Node000004"><a xlink:href="classiii__drone_1_1control_1_1maneuver_1_1HoverOnCableManeuverServer.html#a7ebbdce1a5988daf4eb40334583432e4" target="_top" xlink:title="Validates that the drone is on the cable.">
<polygon fill="white" stroke="#666666" points="663,-70 466,-70 466,-29 663,-29 663,-70"/>
<text text-anchor="start" x="474" y="-58" font-family="Helvetica,sans-Serif" font-size="10.00">iii_drone::control</text>
<text text-anchor="start" x="474" y="-47" font-family="Helvetica,sans-Serif" font-size="10.00">::maneuver::HoverOnCableManeuver</text>
<text text-anchor="middle" x="564.5" y="-36" font-family="Helvetica,sans-Serif" font-size="10.00">Server::validateAwareness</text>
</a>
</g>
</g>
<!-- Node2&#45;&gt;Node4 -->
<g id="edge3_Node000002_Node000004" class="edge">
<title>Node2&#45;&gt;Node4</title>
<g id="a_edge3_Node000002_Node000004"><a xlink:title=" ">
<path fill="none" stroke="#63b8ff" d="M430.13,-66.82C438.63,-65.72 447.25,-64.6 455.83,-63.48"/>
<polygon fill="#63b8ff" stroke="#63b8ff" points="456.38,-66.94 465.85,-62.18 455.48,-60 456.38,-66.94"/>
</a>
</g>
</g>
<!-- Node5 -->
<g id="Node000005" class="node">
<title>Node5</title>
<g id="a_Node000005"><a xlink:href="structiii__drone_1_1control_1_1combined__drone__awareness__t.html#aeba579c277752c404e5a8a6c7298eab8" target="_top" xlink:title=" ">
<polygon fill="white" stroke="#666666" points="860,-70 699,-70 699,-29 860,-29 860,-70"/>
<text text-anchor="start" x="707" y="-58" font-family="Helvetica,sans-Serif" font-size="10.00">iii_drone::control</text>
<text text-anchor="start" x="707" y="-47" font-family="Helvetica,sans-Serif" font-size="10.00">::combined_drone_awareness</text>
<text text-anchor="middle" x="779.5" y="-36" font-family="Helvetica,sans-Serif" font-size="10.00">_t::on_cable</text>
</a>
</g>
</g>
<!-- Node4&#45;&gt;Node5 -->
<g id="edge4_Node000004_Node000005" class="edge">
<title>Node4&#45;&gt;Node5</title>
<g id="a_edge4_Node000004_Node000005"><a xlink:title=" ">
<path fill="none" stroke="#63b8ff" d="M663.27,-49.5C671.75,-49.5 680.3,-49.5 688.7,-49.5"/>
<polygon fill="#63b8ff" stroke="#63b8ff" points="688.87,-53 698.87,-49.5 688.87,-46 688.87,-53"/>
</a>
</g>
</g>
</g>
</svg>
