<?xml version="1.0" encoding="UTF-8" standalone="no"?>
<!DOCTYPE svg PUBLIC "-//W3C//DTD SVG 1.1//EN"
 "http://www.w3.org/Graphics/SVG/1.1/DTD/svg11.dtd">
<!-- Generated by graphviz version 2.43.0 (0)
 -->
<!-- Title: iii_drone::control::CombinedDroneAwarenessHandler::updateCombinedDroneAwarenessFromTargetCableId Pages: 1 -->
<svg width="709pt" height="97pt"
 viewBox="0.00 0.00 709.00 96.50" xmlns="http://www.w3.org/2000/svg" xmlns:xlink="http://www.w3.org/1999/xlink">
<g id="graph0" class="graph" transform="scale(1 1) rotate(0) translate(4 92.5)">
<title>iii_drone::control::CombinedDroneAwarenessHandler::updateCombinedDroneAwarenessFromTargetCableId</title>
<!-- Node1 -->
<g id="Node000001" class="node">
<title>Node1</title>
<g id="a_Node000001"><a xlink:title="Updates the combined drone awareness from the target cable id. Triggers updates of target_cable_id,...">
<polygon fill="#999999" stroke="#666666" points="701,-70.5 458,-70.5 458,-18.5 701,-18.5 701,-70.5"/>
<text text-anchor="start" x="466" y="-58.5" font-family="Helvetica,sans-Serif" font-size="10.00">iii_drone::control</text>
<text text-anchor="start" x="466" y="-47.5" font-family="Helvetica,sans-Serif" font-size="10.00">::CombinedDroneAwarenessHandler</text>
<text text-anchor="start" x="466" y="-36.5" font-family="Helvetica,sans-Serif" font-size="10.00">::updateCombinedDroneAwarenessFromTarget</text>
<text text-anchor="middle" x="579.5" y="-25.5" font-family="Helvetica,sans-Serif" font-size="10.00">CableId</text>
</a>
</g>
</g>
<!-- Node1&#45;&gt;Node1 -->
<g id="edge4_Node000001_Node000001" class="edge">
<title>Node1&#45;&gt;Node1</title>
<g id="a_edge4_Node000001_Node000001"><a xlink:title=" ">
<path fill="none" stroke="#63b8ff" d="M622.46,-79.9C615.63,-85.04 601.31,-88.5 579.5,-88.5 546.26,-88.5 530.42,-80.46 531.98,-70.7"/>
<polygon fill="#63b8ff" stroke="#63b8ff" points="625.71,-81.21 627.02,-70.7 619.44,-78.1 625.71,-81.21"/>
</a>
</g>
</g>
<!-- Node2 -->
<g id="Node000002" class="node">
<title>Node2</title>
<g id="a_Node000002"><a xlink:href="classiii__drone_1_1control_1_1CombinedDroneAwarenessHandler.html#a45046cb4335f9a4fe757b195ae4851ca" target="_top" xlink:title="Construct a new CombinedDroneAwarenessHandler object, initializing all the subscriptions.">
<polygon fill="white" stroke="#666666" points="193,-65 0,-65 0,-24 193,-24 193,-65"/>
<text text-anchor="start" x="8" y="-53" font-family="Helvetica,sans-Serif" font-size="10.00">iii_drone::control</text>
<text text-anchor="start" x="8" y="-42" font-family="Helvetica,sans-Serif" font-size="10.00">::CombinedDroneAwarenessHandler</text>
<text text-anchor="middle" x="96.5" y="-31" font-family="Helvetica,sans-Serif" font-size="10.00">::CombinedDroneAwarenessHandler</text>
</a>
</g>
</g>
<!-- Node1&#45;&gt;Node2 -->
<g id="edge1_Node000001_Node000002" class="edge">
<title>Node1&#45;&gt;Node2</title>
<g id="a_edge1_Node000001_Node000002"><a xlink:title=" ">
<path fill="none" stroke="#63b8ff" d="M447.48,-49.89C438.85,-50.13 430.3,-50.34 422,-50.5 336.24,-52.14 314.76,-52.46 229,-50.5 217.35,-50.23 205.12,-49.84 193.01,-49.37"/>
<polygon fill="#63b8ff" stroke="#63b8ff" points="447.72,-53.39 457.62,-49.6 447.52,-46.39 447.72,-53.39"/>
</a>
</g>
</g>
<!-- Node3 -->
<g id="Node000003" class="node">
<title>Node3</title>
<g id="a_Node000003"><a xlink:href="classiii__drone_1_1control_1_1CombinedDroneAwarenessHandler.html#a8bcf29ada285948eeeff00d694d185c2" target="_top" xlink:title="Updates the combined drone awareness based on current information. To be called after updating the an...">
<polygon fill="white" stroke="#666666" points="422,-41 229,-41 229,0 422,0 422,-41"/>
<text text-anchor="start" x="237" y="-29" font-family="Helvetica,sans-Serif" font-size="10.00">iii_drone::control</text>
<text text-anchor="start" x="237" y="-18" font-family="Helvetica,sans-Serif" font-size="10.00">::CombinedDroneAwarenessHandler</text>
<text text-anchor="middle" x="325.5" y="-7" font-family="Helvetica,sans-Serif" font-size="10.00">::updateCombinedDroneAwareness</text>
</a>
</g>
</g>
<!-- Node1&#45;&gt;Node3 -->
<g id="edge2_Node000001_Node000003" class="edge">
<title>Node1&#45;&gt;Node3</title>
<g id="a_edge2_Node000001_Node000003"><a xlink:title=" ">
<path fill="none" stroke="#63b8ff" d="M447.64,-32.04C439.11,-31.22 430.6,-30.41 422.28,-29.62"/>
<polygon fill="#63b8ff" stroke="#63b8ff" points="447.38,-35.53 457.67,-32.99 448.04,-28.56 447.38,-35.53"/>
</a>
</g>
</g>
<!-- Node3&#45;&gt;Node2 -->
<g id="edge3_Node000003_Node000002" class="edge">
<title>Node3&#45;&gt;Node2</title>
<g id="a_edge3_Node000003_Node000002"><a xlink:title=" ">
<path fill="none" stroke="#63b8ff" d="M218.82,-31.67C210.21,-32.58 201.53,-33.5 193,-34.4"/>
<polygon fill="#63b8ff" stroke="#63b8ff" points="219.31,-35.14 228.89,-30.61 218.58,-28.18 219.31,-35.14"/>
</a>
</g>
</g>
</g>
</svg>
