<?xml version="1.0" encoding="UTF-8" standalone="no"?>
<!DOCTYPE svg PUBLIC "-//W3C//DTD SVG 1.1//EN"
 "http://www.w3.org/Graphics/SVG/1.1/DTD/svg11.dtd">
<!-- Generated by graphviz version 2.43.0 (0)
 -->
<!-- Title: iii_drone::adapters::PowerlineAdapter Pages: 1 -->
<svg width="328pt" height="869pt"
 viewBox="0.00 0.00 327.50 869.00" xmlns="http://www.w3.org/2000/svg" xmlns:xlink="http://www.w3.org/1999/xlink">
<g id="graph0" class="graph" transform="scale(1 1) rotate(0) translate(4 865)">
<title>iii_drone::adapters::PowerlineAdapter</title>
<!-- Node1 -->
<g id="Node000001" class="node">
<title>Node1</title>
<g id="a_Node000001"><a xlink:title="Powerline message adapter class.">
<polygon fill="#999999" stroke="transparent" points="237,-225 94,-225 94,0 237,0 237,-225"/>
<text text-anchor="start" x="119.5" y="-212.5" font-family="Helvetica,sans-Serif" font-size="10.00">iii_drone::adapters</text>
<text text-anchor="start" x="119.5" y="-201.5" font-family="Helvetica,sans-Serif" font-size="10.00">::PowerlineAdapter</text>
<text text-anchor="start" x="101" y="-186.5" font-family="Helvetica,sans-Serif" font-size="10.00">&#45;</text>
<text text-anchor="start" x="111.5" y="-186.5" font-family="Helvetica,sans-Serif" font-size="10.00">stamp_</text>
<text text-anchor="start" x="98.5" y="-171.5" font-family="Helvetica,sans-Serif" font-size="10.00">+</text>
<text text-anchor="start" x="111.5" y="-171.5" font-family="Helvetica,sans-Serif" font-size="10.00">PowerlineAdapter()</text>
<text text-anchor="start" x="98.5" y="-156.5" font-family="Helvetica,sans-Serif" font-size="10.00">+</text>
<text text-anchor="start" x="111.5" y="-156.5" font-family="Helvetica,sans-Serif" font-size="10.00">PowerlineAdapter()</text>
<text text-anchor="start" x="98.5" y="-141.5" font-family="Helvetica,sans-Serif" font-size="10.00">+</text>
<text text-anchor="start" x="111.5" y="-141.5" font-family="Helvetica,sans-Serif" font-size="10.00">PowerlineAdapter()</text>
<text text-anchor="start" x="98.5" y="-126.5" font-family="Helvetica,sans-Serif" font-size="10.00">+</text>
<text text-anchor="start" x="111.5" y="-126.5" font-family="Helvetica,sans-Serif" font-size="10.00">UpdateFromMsg()</text>
<text text-anchor="start" x="98.5" y="-111.5" font-family="Helvetica,sans-Serif" font-size="10.00">+</text>
<text text-anchor="start" x="111.5" y="-111.5" font-family="Helvetica,sans-Serif" font-size="10.00">ToMsg()</text>
<text text-anchor="start" x="98.5" y="-96.5" font-family="Helvetica,sans-Serif" font-size="10.00">+</text>
<text text-anchor="start" x="111.5" y="-96.5" font-family="Helvetica,sans-Serif" font-size="10.00">GetVisibleLineAdapters()</text>
<text text-anchor="start" x="98.5" y="-81.5" font-family="Helvetica,sans-Serif" font-size="10.00">+</text>
<text text-anchor="start" x="111.5" y="-81.5" font-family="Helvetica,sans-Serif" font-size="10.00">HasLine()</text>
<text text-anchor="start" x="98.5" y="-66.5" font-family="Helvetica,sans-Serif" font-size="10.00">+</text>
<text text-anchor="start" x="111.5" y="-66.5" font-family="Helvetica,sans-Serif" font-size="10.00">GetClosestLine()</text>
<text text-anchor="start" x="98.5" y="-51.5" font-family="Helvetica,sans-Serif" font-size="10.00">+</text>
<text text-anchor="start" x="111.5" y="-51.5" font-family="Helvetica,sans-Serif" font-size="10.00">GetLine()</text>
<text text-anchor="start" x="98.5" y="-36.5" font-family="Helvetica,sans-Serif" font-size="10.00">+</text>
<text text-anchor="start" x="111.5" y="-36.5" font-family="Helvetica,sans-Serif" font-size="10.00">stamp()</text>
<text text-anchor="start" x="98.5" y="-21.5" font-family="Helvetica,sans-Serif" font-size="10.00">+</text>
<text text-anchor="start" x="111.5" y="-21.5" font-family="Helvetica,sans-Serif" font-size="10.00">single_line_adapters()</text>
<text text-anchor="start" x="98.5" y="-6.5" font-family="Helvetica,sans-Serif" font-size="10.00">+</text>
<text text-anchor="start" x="111.5" y="-6.5" font-family="Helvetica,sans-Serif" font-size="10.00">projection_plane()</text>
<polygon fill="#666666" stroke="#666666" points="94.5,-196.5 94.5,-196.5 237.5,-196.5 237.5,-196.5 94.5,-196.5"/>
<polygon fill="#666666" stroke="#666666" points="94.5,-181.5 94.5,-181.5 109.5,-181.5 109.5,-181.5 94.5,-181.5"/>
<polygon fill="#666666" stroke="#666666" points="109.5,-181.5 109.5,-181.5 237.5,-181.5 237.5,-181.5 109.5,-181.5"/>
<polygon fill="none" stroke="#666666" points="94,0 94,-225 237,-225 237,0 94,0"/>
</a>
</g>
</g>
<!-- Node2 -->
<g id="Node000002" class="node">
<title>Node2</title>
<g id="a_Node000002"><a xlink:title=" ">
<polygon fill="white" stroke="transparent" points="165,-334 0,-334 0,-274 165,-274 165,-334"/>
<text text-anchor="start" x="5.5" y="-322" font-family="Helvetica,sans-Serif" font-size="10.00">std::vector&lt; iii_drone</text>
<text text-anchor="start" x="5.5" y="-311" font-family="Helvetica,sans-Serif" font-size="10.00">::adapters::SingleLineAdapter &gt;</text>
<text text-anchor="start" x="81" y="-296" font-family="Helvetica,sans-Serif" font-size="10.00"> </text>
<text text-anchor="start" x="81" y="-281" font-family="Helvetica,sans-Serif" font-size="10.00"> </text>
<polygon fill="#666666" stroke="#666666" points="0.5,-306 0.5,-306 165.5,-306 165.5,-306 0.5,-306"/>
<polygon fill="#666666" stroke="#666666" points="0.5,-291 0.5,-291 165.5,-291 165.5,-291 0.5,-291"/>
<polygon fill="none" stroke="#666666" points="0,-274 0,-334 165,-334 165,-274 0,-274"/>
</a>
</g>
</g>
<!-- Node2&#45;&gt;Node1 -->
<g id="edge1_Node000001_Node000002" class="edge">
<title>Node2&#45;&gt;Node1</title>
<g id="a_edge1_Node000001_Node000002"><a xlink:title=" ">
<path fill="none" stroke="#63b8ff" d="M93.22,-273.85C96.96,-264 101.29,-252.97 105.5,-243 106.42,-240.82 107.36,-238.62 108.31,-236.4"/>
<polygon fill="none" stroke="#63b8ff" points="108.37,-236.26 107.09,-229.16 113.15,-225.25 114.43,-232.34 108.37,-236.26"/>
</a>
</g>
<text text-anchor="middle" x="162" y="-246" font-family="Helvetica,sans-Serif" font-size="10.00" fill="grey"> &#45;single_line_adapters_</text>
</g>
<!-- Node3 -->
<g id="Node000003" class="node">
<title>Node3</title>
<g id="a_Node000003"><a xlink:href="classiii__drone_1_1adapters_1_1SingleLineAdapter.html" target="_top" xlink:title="SingleLine message adapter class.">
<polygon fill="white" stroke="transparent" points="146,-668 19,-668 19,-383 146,-383 146,-668"/>
<text text-anchor="start" x="35.5" y="-655.5" font-family="Helvetica,sans-Serif" font-size="10.00">iii_drone::adapters</text>
<text text-anchor="start" x="35.5" y="-644.5" font-family="Helvetica,sans-Serif" font-size="10.00">::SingleLineAdapter</text>
<text text-anchor="start" x="26" y="-629.5" font-family="Helvetica,sans-Serif" font-size="10.00">&#45;</text>
<text text-anchor="start" x="36.5" y="-629.5" font-family="Helvetica,sans-Serif" font-size="10.00">stamp_</text>
<text text-anchor="start" x="26" y="-614.5" font-family="Helvetica,sans-Serif" font-size="10.00">&#45;</text>
<text text-anchor="start" x="36.5" y="-614.5" font-family="Helvetica,sans-Serif" font-size="10.00">id_</text>
<text text-anchor="start" x="26" y="-599.5" font-family="Helvetica,sans-Serif" font-size="10.00">&#45;</text>
<text text-anchor="start" x="36.5" y="-599.5" font-family="Helvetica,sans-Serif" font-size="10.00">position_</text>
<text text-anchor="start" x="26" y="-584.5" font-family="Helvetica,sans-Serif" font-size="10.00">&#45;</text>
<text text-anchor="start" x="36.5" y="-584.5" font-family="Helvetica,sans-Serif" font-size="10.00">projected_position_</text>
<text text-anchor="start" x="26" y="-569.5" font-family="Helvetica,sans-Serif" font-size="10.00">&#45;</text>
<text text-anchor="start" x="36.5" y="-569.5" font-family="Helvetica,sans-Serif" font-size="10.00">quaternion_</text>
<text text-anchor="start" x="26" y="-554.5" font-family="Helvetica,sans-Serif" font-size="10.00">&#45;</text>
<text text-anchor="start" x="36.5" y="-554.5" font-family="Helvetica,sans-Serif" font-size="10.00">in_fov_</text>
<text text-anchor="start" x="23.5" y="-539.5" font-family="Helvetica,sans-Serif" font-size="10.00">+</text>
<text text-anchor="start" x="36.5" y="-539.5" font-family="Helvetica,sans-Serif" font-size="10.00">SingleLineAdapter()</text>
<text text-anchor="start" x="23.5" y="-524.5" font-family="Helvetica,sans-Serif" font-size="10.00">+</text>
<text text-anchor="start" x="36.5" y="-524.5" font-family="Helvetica,sans-Serif" font-size="10.00">SingleLineAdapter()</text>
<text text-anchor="start" x="23.5" y="-509.5" font-family="Helvetica,sans-Serif" font-size="10.00">+</text>
<text text-anchor="start" x="36.5" y="-509.5" font-family="Helvetica,sans-Serif" font-size="10.00">SingleLineAdapter()</text>
<text text-anchor="start" x="23.5" y="-494.5" font-family="Helvetica,sans-Serif" font-size="10.00">+</text>
<text text-anchor="start" x="36.5" y="-494.5" font-family="Helvetica,sans-Serif" font-size="10.00">SingleLineAdapter()</text>
<text text-anchor="start" x="23.5" y="-479.5" font-family="Helvetica,sans-Serif" font-size="10.00">+</text>
<text text-anchor="start" x="36.5" y="-479.5" font-family="Helvetica,sans-Serif" font-size="10.00">SingleLineAdapter()</text>
<text text-anchor="start" x="23.5" y="-464.5" font-family="Helvetica,sans-Serif" font-size="10.00">+</text>
<text text-anchor="start" x="36.5" y="-464.5" font-family="Helvetica,sans-Serif" font-size="10.00">ToMsg()</text>
<text text-anchor="start" x="23.5" y="-449.5" font-family="Helvetica,sans-Serif" font-size="10.00">+</text>
<text text-anchor="start" x="36.5" y="-449.5" font-family="Helvetica,sans-Serif" font-size="10.00">ToPoseMsg()</text>
<text text-anchor="start" x="23.5" y="-434.5" font-family="Helvetica,sans-Serif" font-size="10.00">+</text>
<text text-anchor="start" x="36.5" y="-434.5" font-family="Helvetica,sans-Serif" font-size="10.00">ToPoseStampedMsg()</text>
<text text-anchor="start" x="23.5" y="-419.5" font-family="Helvetica,sans-Serif" font-size="10.00">+</text>
<text text-anchor="start" x="36.5" y="-419.5" font-family="Helvetica,sans-Serif" font-size="10.00">stamp()</text>
<text text-anchor="start" x="23.5" y="-404.5" font-family="Helvetica,sans-Serif" font-size="10.00">+</text>
<text text-anchor="start" x="36.5" y="-404.5" font-family="Helvetica,sans-Serif" font-size="10.00">frame_id()</text>
<text text-anchor="start" x="36.5" y="-389.5" font-family="Helvetica,sans-Serif" font-size="10.00">and 6 more...</text>
<polygon fill="#666666" stroke="#666666" points="19.5,-639.5 19.5,-639.5 146.5,-639.5 146.5,-639.5 19.5,-639.5"/>
<polygon fill="#666666" stroke="#666666" points="19.5,-549.5 19.5,-549.5 34.5,-549.5 34.5,-549.5 19.5,-549.5"/>
<polygon fill="#666666" stroke="#666666" points="34.5,-549.5 34.5,-549.5 146.5,-549.5 146.5,-549.5 34.5,-549.5"/>
<polygon fill="none" stroke="#666666" points="19,-383 19,-668 146,-668 146,-383 19,-383"/>
</a>
</g>
</g>
<!-- Node3&#45;&gt;Node2 -->
<g id="edge2_Node000002_Node000003" class="edge">
<title>Node3&#45;&gt;Node2</title>
<g id="a_edge2_Node000002_Node000003"><a xlink:title=" ">
<path fill="none" stroke="#63b8ff" d="M82.5,-382.7C82.5,-369.62 82.5,-357.21 82.5,-346.3"/>
<polygon fill="none" stroke="#63b8ff" points="82.5,-346.24 78.5,-340.24 82.5,-334.24 86.5,-340.24 82.5,-346.24"/>
</a>
</g>
<text text-anchor="middle" x="111.5" y="-357" font-family="Helvetica,sans-Serif" font-size="10.00" fill="grey"> +elements</text>
</g>
<!-- Node4 -->
<g id="Node000004" class="node">
<title>Node4</title>
<g id="a_Node000004"><a xlink:title=" ">
<polygon fill="white" stroke="transparent" points="112,-764 53,-764 53,-715 112,-715 112,-764"/>
<text text-anchor="start" x="58.5" y="-751.5" font-family="Helvetica,sans-Serif" font-size="10.00">std::string</text>
<text text-anchor="start" x="81" y="-736.5" font-family="Helvetica,sans-Serif" font-size="10.00"> </text>
<text text-anchor="start" x="81" y="-721.5" font-family="Helvetica,sans-Serif" font-size="10.00"> </text>
<polygon fill="#666666" stroke="#666666" points="53.5,-746.5 53.5,-746.5 112.5,-746.5 112.5,-746.5 53.5,-746.5"/>
<polygon fill="#666666" stroke="#666666" points="53.5,-731.5 53.5,-731.5 112.5,-731.5 112.5,-731.5 53.5,-731.5"/>
<polygon fill="none" stroke="#666666" points="53,-715 53,-764 112,-764 112,-715 53,-715"/>
</a>
</g>
</g>
<!-- Node4&#45;&gt;Node3 -->
<g id="edge3_Node000003_Node000004" class="edge">
<title>Node4&#45;&gt;Node3</title>
<g id="a_edge3_Node000003_Node000004"><a xlink:title=" ">
<path fill="none" stroke="#63b8ff" d="M82.5,-714.59C82.5,-705.14 82.5,-693.45 82.5,-680.55"/>
<polygon fill="none" stroke="#63b8ff" points="82.5,-680.39 78.5,-674.39 82.5,-668.39 86.5,-674.39 82.5,-680.39"/>
</a>
</g>
<text text-anchor="middle" x="110.5" y="-689" font-family="Helvetica,sans-Serif" font-size="10.00" fill="grey"> &#45;frame_id_</text>
</g>
<!-- Node5 -->
<g id="Node000005" class="node">
<title>Node5</title>
<g id="a_Node000005"><a xlink:title=" ">
<polygon fill="white" stroke="transparent" points="131.5,-861 33.5,-861 33.5,-801 131.5,-801 131.5,-861"/>
<text text-anchor="start" x="38.5" y="-849" font-family="Helvetica,sans-Serif" font-size="10.00">std::basic_string&lt;</text>
<text text-anchor="start" x="64" y="-838" font-family="Helvetica,sans-Serif" font-size="10.00"> Char &gt;</text>
<text text-anchor="start" x="80.5" y="-823" font-family="Helvetica,sans-Serif" font-size="10.00"> </text>
<text text-anchor="start" x="80.5" y="-808" font-family="Helvetica,sans-Serif" font-size="10.00"> </text>
<polygon fill="#666666" stroke="#666666" points="33.5,-833 33.5,-833 131.5,-833 131.5,-833 33.5,-833"/>
<polygon fill="#666666" stroke="#666666" points="33.5,-818 33.5,-818 131.5,-818 131.5,-818 33.5,-818"/>
<polygon fill="none" stroke="#666666" points="33.5,-801 33.5,-861 131.5,-861 131.5,-801 33.5,-801"/>
</a>
</g>
</g>
<!-- Node5&#45;&gt;Node4 -->
<g id="edge4_Node000004_Node000005" class="edge">
<title>Node5&#45;&gt;Node4</title>
<g id="a_edge4_Node000004_Node000005"><a xlink:title=" ">
<path fill="none" stroke="#63b8ff" d="M82.5,-790.41C82.5,-781.47 82.5,-772.25 82.5,-764.21"/>
<polygon fill="none" stroke="#63b8ff" points="79,-790.69 82.5,-800.69 86,-790.69 79,-790.69"/>
</a>
</g>
</g>
<!-- Node6 -->
<g id="Node000006" class="node">
<title>Node6</title>
<g id="a_Node000006"><a xlink:href="structiii__drone_1_1types_1_1plane__t.html" target="_top" xlink:title=" ">
<polygon fill="white" stroke="transparent" points="311.5,-336 183.5,-336 183.5,-272 311.5,-272 311.5,-336"/>
<text text-anchor="start" x="188.5" y="-324" font-family="Helvetica,sans-Serif" font-size="10.00">iii_drone::types::plane_t</text>
<text text-anchor="start" x="205.5" y="-309" font-family="Helvetica,sans-Serif" font-size="10.00">+</text>
<text text-anchor="start" x="236.5" y="-309" font-family="Helvetica,sans-Serif" font-size="10.00">p</text>
<text text-anchor="start" x="205.5" y="-294" font-family="Helvetica,sans-Serif" font-size="10.00">+</text>
<text text-anchor="start" x="236.5" y="-294" font-family="Helvetica,sans-Serif" font-size="10.00">normal</text>
<text text-anchor="start" x="245.5" y="-279" font-family="Helvetica,sans-Serif" font-size="10.00"> </text>
<polygon fill="#666666" stroke="#666666" points="183.5,-319 183.5,-319 311.5,-319 311.5,-319 183.5,-319"/>
<polygon fill="#666666" stroke="#666666" points="183.5,-289 183.5,-289 234.5,-289 234.5,-289 183.5,-289"/>
<polygon fill="#666666" stroke="#666666" points="234.5,-289 234.5,-289 311.5,-289 311.5,-289 234.5,-289"/>
<polygon fill="none" stroke="#666666" points="183.5,-272 183.5,-336 311.5,-336 311.5,-272 183.5,-272"/>
</a>
</g>
</g>
<!-- Node6&#45;&gt;Node1 -->
<g id="edge5_Node000001_Node000006" class="edge">
<title>Node6&#45;&gt;Node1</title>
<g id="a_edge5_Node000001_Node000006"><a xlink:title=" ">
<path fill="none" stroke="#63b8ff" d="M233.96,-271.71C229.48,-261.36 224.2,-249.14 218.58,-236.16"/>
<polygon fill="none" stroke="#63b8ff" points="218.55,-236.11 212.5,-232.19 213.79,-225.09 219.84,-229.01 218.55,-236.11"/>
</a>
</g>
<text text-anchor="middle" x="272.5" y="-246" font-family="Helvetica,sans-Serif" font-size="10.00" fill="grey"> &#45;projection_plane_</text>
</g>
</g>
</svg>
