<?xml version="1.0" encoding="UTF-8" standalone="no"?>
<!DOCTYPE svg PUBLIC "-//W3C//DTD SVG 1.1//EN"
 "http://www.w3.org/Graphics/SVG/1.1/DTD/svg11.dtd">
<!-- Generated by graphviz version 2.43.0 (0)
 -->
<!-- Title: iii_drone::utils::drone_frame_broadcaster_node::DroneFrameBroadcasterConfigurator Pages: 1 -->
<!--zoomable 531 -->

<svg id="main" version="1.1" xmlns="http://www.w3.org/2000/svg" xmlns:xlink="http://www.w3.org/1999/xlink" xml:space="preserve" onload="init(evt)">
<style type="text/css"><![CDATA[
.node, .edge {opacity: 0.7;}
.node.selected, .edge.selected {opacity: 1;}
.edge:hover path { stroke: red; }
.edge:hover polygon { stroke: red; fill: red; }
]]></style>

<defs>
  <circle id="rim" cx="0" cy="0" r="7"/>
  <circle id="rim2" cx="0" cy="0" r="3.5"/>
  <g id="zoomPlus">
    <use xlink:href="#rim" fill="#404040"><set attributeName="fill" to="#808080" begin="zoomplus.mouseover" end="zoomplus.mouseout"/></use>
    <path d="M-4,0h8M0,-4v8" fill="none" stroke="white" stroke-width="1.5" pointer-events="none"/>
  </g>
  <g id="zoomMin">
    <use xlink:href="#rim" fill="#404040"><set attributeName="fill" to="#808080" begin="zoomminus.mouseover" end="zoomminus.mouseout"/></use>
    <path d="M-4,0h8" fill="none" stroke="white" stroke-width="1.5" pointer-events="none"/>
  </g>
  <g id="arrowUp" transform="translate(30 24)">
    <use xlink:href="#rim"/>
    <path pointer-events="none" fill="none" stroke="white" stroke-width="1.5" d="M0,-3.0v7 M-2.5,-0.5L0,-3.0L2.5,-0.5"/>
  </g>
  <g id="arrowRight" transform="rotate(90) translate(36 -43)">
    <use xlink:href="#rim"/>
    <path pointer-events="none" fill="none" stroke="white" stroke-width="1.5" d="M0,-3.0v7 M-2.5,-0.5L0,-3.0L2.5,-0.5"/>
  </g>
  <g id="arrowDown" transform="rotate(180) translate(-30 -48)">
    <use xlink:href="#rim"/>
    <path pointer-events="none" fill="none" stroke="white" stroke-width="1.5" d="M0,-3.0v7 M-2.5,-0.5L0,-3.0L2.5,-0.5"/>
  </g>
  <g id="arrowLeft" transform="rotate(270) translate(-36 17)">
    <use xlink:href="#rim"/>
    <path pointer-events="none" fill="none" stroke="white" stroke-width="1.5" d="M0,-3.0v7 M-2.5,-0.5L0,-3.0L2.5,-0.5"/>
  </g>
  <g id="resetDef">
    <use xlink:href="#rim2" fill="#404040"><set attributeName="fill" to="#808080" begin="reset.mouseover" end="reset.mouseout"/></use>
  </g>
</defs>
<script type="application/ecmascript">
var viewWidth = 216;
var viewHeight = 531;
var sectionId = 'dynsection-0';
</script>
<script type="application/ecmascript" xlink:href="svg.min.js"/>
<svg id="graph" class="graph">
<g id="viewport">
<title>iii_drone::utils::drone_frame_broadcaster_node::DroneFrameBroadcasterConfigurator</title>
<!-- Node1 -->
<g id="Node000001" class="node">
<title>Node1</title>
<g id="a_Node000001"><a xlink:title="Class for handling parameters for HoughTransformer.">
<polygon fill="#999999" stroke="transparent" points="208,-131 0,-131 0,0 208,0 208,-131"/>
<text text-anchor="start" x="11.5" y="-118.5" font-family="Helvetica,sans-Serif" font-size="10.00">iii_drone::utils::drone</text>
<text text-anchor="start" x="11.5" y="-107.5" font-family="Helvetica,sans-Serif" font-size="10.00">_frame_broadcaster_node</text>
<text text-anchor="start" x="11.5" y="-96.5" font-family="Helvetica,sans-Serif" font-size="10.00">::DroneFrameBroadcasterConfigurator</text>
<text text-anchor="start" x="102" y="-81.5" font-family="Helvetica,sans-Serif" font-size="10.00"> </text>
<text text-anchor="start" x="4" y="-66.5" font-family="Helvetica,sans-Serif" font-size="10.00">+</text>
<text text-anchor="start" x="17" y="-66.5" font-family="Helvetica,sans-Serif" font-size="10.00">DroneFrameBroadcasterConfigurator()</text>
<text text-anchor="start" x="4" y="-51.5" font-family="Helvetica,sans-Serif" font-size="10.00">+</text>
<text text-anchor="start" x="17" y="-51.5" font-family="Helvetica,sans-Serif" font-size="10.00">DroneFrameBroadcasterConfigurator()</text>
<text text-anchor="start" x="4" y="-36.5" font-family="Helvetica,sans-Serif" font-size="10.00">+</text>
<text text-anchor="start" x="17" y="-36.5" font-family="Helvetica,sans-Serif" font-size="10.00">drone_frame_id()</text>
<text text-anchor="start" x="4" y="-21.5" font-family="Helvetica,sans-Serif" font-size="10.00">+</text>
<text text-anchor="start" x="17" y="-21.5" font-family="Helvetica,sans-Serif" font-size="10.00">world_frame_id()</text>
<text text-anchor="start" x="6.5" y="-6.5" font-family="Helvetica,sans-Serif" font-size="10.00">&#45;</text>
<text text-anchor="start" x="17" y="-6.5" font-family="Helvetica,sans-Serif" font-size="10.00">declareNodeParameters()</text>
<polygon fill="#666666" stroke="#666666" points="0,-91.5 0,-91.5 208,-91.5 208,-91.5 0,-91.5"/>
<polygon fill="#666666" stroke="#666666" points="0,-76.5 0,-76.5 208,-76.5 208,-76.5 0,-76.5"/>
<polygon fill="none" stroke="#666666" points="0,0 0,-131 208,-131 208,0 0,0"/>
</a>
</g>
</g>
<!-- Node2 -->
<g id="Node000002" class="node">
<title>Node2</title>
<g id="a_Node000002"><a xlink:href="classiii__drone_1_1configuration_1_1Configurator.html" target="_top" xlink:title="Class for handling parameters of a node. The class works in conjunction with the ConfigurationServer ...">
<polygon fill="white" stroke="transparent" points="194,-523 14,-523 14,-167 194,-167 194,-523"/>
<text text-anchor="start" x="48" y="-511" font-family="Helvetica,sans-Serif" font-size="10.00">iii_drone::configuration</text>
<text text-anchor="start" x="70.5" y="-500" font-family="Helvetica,sans-Serif" font-size="10.00">::Configurator</text>
<text text-anchor="start" x="18" y="-485" font-family="Helvetica,sans-Serif" font-size="10.00">#</text>
<text text-anchor="start" x="31" y="-485" font-family="Helvetica,sans-Serif" font-size="10.00">node_</text>
<text text-anchor="start" x="20.5" y="-470" font-family="Helvetica,sans-Serif" font-size="10.00">&#45;</text>
<text text-anchor="start" x="31" y="-470" font-family="Helvetica,sans-Serif" font-size="10.00">parameters_</text>
<text text-anchor="start" x="20.5" y="-455" font-family="Helvetica,sans-Serif" font-size="10.00">&#45;</text>
<text text-anchor="start" x="31" y="-455" font-family="Helvetica,sans-Serif" font-size="10.00">qos_</text>
<text text-anchor="start" x="20.5" y="-440" font-family="Helvetica,sans-Serif" font-size="10.00">&#45;</text>
<text text-anchor="start" x="31" y="-440" font-family="Helvetica,sans-Serif" font-size="10.00">parameters_mutex_</text>
<text text-anchor="start" x="20.5" y="-425" font-family="Helvetica,sans-Serif" font-size="10.00">&#45;</text>
<text text-anchor="start" x="31" y="-425" font-family="Helvetica,sans-Serif" font-size="10.00">declare_parameter_client_</text>
<text text-anchor="start" x="20.5" y="-410" font-family="Helvetica,sans-Serif" font-size="10.00">&#45;</text>
<text text-anchor="start" x="31" y="-410" font-family="Helvetica,sans-Serif" font-size="10.00">get_parameters_client_</text>
<text text-anchor="start" x="20.5" y="-395" font-family="Helvetica,sans-Serif" font-size="10.00">&#45;</text>
<text text-anchor="start" x="31" y="-395" font-family="Helvetica,sans-Serif" font-size="10.00">parameter_events_subscriber_</text>
<text text-anchor="start" x="20.5" y="-380" font-family="Helvetica,sans-Serif" font-size="10.00">&#45;</text>
<text text-anchor="start" x="31" y="-380" font-family="Helvetica,sans-Serif" font-size="10.00">after_parameter_change</text>
<text text-anchor="start" x="31" y="-369" font-family="Helvetica,sans-Serif" font-size="10.00">_callback_</text>
<text text-anchor="start" x="18" y="-354" font-family="Helvetica,sans-Serif" font-size="10.00">+</text>
<text text-anchor="start" x="31" y="-354" font-family="Helvetica,sans-Serif" font-size="10.00">Configurator()</text>
<text text-anchor="start" x="18" y="-339" font-family="Helvetica,sans-Serif" font-size="10.00">+</text>
<text text-anchor="start" x="31" y="-339" font-family="Helvetica,sans-Serif" font-size="10.00">Configurator()</text>
<text text-anchor="start" x="18" y="-324" font-family="Helvetica,sans-Serif" font-size="10.00">+</text>
<text text-anchor="start" x="31" y="-324" font-family="Helvetica,sans-Serif" font-size="10.00">~Configurator()</text>
<text text-anchor="start" x="18" y="-309" font-family="Helvetica,sans-Serif" font-size="10.00">+</text>
<text text-anchor="start" x="31" y="-309" font-family="Helvetica,sans-Serif" font-size="10.00">DeclareParameter()</text>
<text text-anchor="start" x="18" y="-294" font-family="Helvetica,sans-Serif" font-size="10.00">+</text>
<text text-anchor="start" x="31" y="-294" font-family="Helvetica,sans-Serif" font-size="10.00">GetParameter()</text>
<text text-anchor="start" x="18" y="-279" font-family="Helvetica,sans-Serif" font-size="10.00">+</text>
<text text-anchor="start" x="31" y="-279" font-family="Helvetica,sans-Serif" font-size="10.00">GetParameters()</text>
<text text-anchor="start" x="18" y="-264" font-family="Helvetica,sans-Serif" font-size="10.00">+</text>
<text text-anchor="start" x="31" y="-264" font-family="Helvetica,sans-Serif" font-size="10.00">SyncParameters()</text>
<text text-anchor="start" x="18" y="-249" font-family="Helvetica,sans-Serif" font-size="10.00">+</text>
<text text-anchor="start" x="31" y="-249" font-family="Helvetica,sans-Serif" font-size="10.00">PrintParameters()</text>
<text text-anchor="start" x="18" y="-234" font-family="Helvetica,sans-Serif" font-size="10.00">+</text>
<text text-anchor="start" x="31" y="-234" font-family="Helvetica,sans-Serif" font-size="10.00">GetParameterTypeString()</text>
<text text-anchor="start" x="20.5" y="-219" font-family="Helvetica,sans-Serif" font-size="10.00">&#45;</text>
<text text-anchor="start" x="31" y="-219" font-family="Helvetica,sans-Serif" font-size="10.00">parameterEventCallback()</text>
<text text-anchor="start" x="20.5" y="-204" font-family="Helvetica,sans-Serif" font-size="10.00">&#45;</text>
<text text-anchor="start" x="31" y="-204" font-family="Helvetica,sans-Serif" font-size="10.00">sendDeclareParameterRequest()</text>
<text text-anchor="start" x="20.5" y="-189" font-family="Helvetica,sans-Serif" font-size="10.00">&#45;</text>
<text text-anchor="start" x="31" y="-189" font-family="Helvetica,sans-Serif" font-size="10.00">sendGetParameterRequest()</text>
<text text-anchor="start" x="20.5" y="-174" font-family="Helvetica,sans-Serif" font-size="10.00">&#45;</text>
<text text-anchor="start" x="31" y="-174" font-family="Helvetica,sans-Serif" font-size="10.00">sendGetParametersRequest()</text>
<polygon fill="#666666" stroke="#666666" points="14,-495 14,-495 194,-495 194,-495 14,-495"/>
<polygon fill="#666666" stroke="#666666" points="14,-364 14,-364 29,-364 29,-364 14,-364"/>
<polygon fill="#666666" stroke="#666666" points="29,-364 29,-364 194,-364 194,-364 29,-364"/>
<polygon fill="none" stroke="#666666" points="14,-167 14,-523 194,-523 194,-167 14,-167"/>
</a>
</g>
</g>
<!-- Node2&#45;&gt;Node1 -->
<g id="edge1_Node000001_Node000002" class="edge">
<title>Node2&#45;&gt;Node1</title>
<g id="a_edge1_Node000001_Node000002"><a xlink:title=" ">
<path fill="none" stroke="#63b8ff" d="M104,-156.6C104,-147.77 104,-139.24 104,-131.19"/>
<polygon fill="none" stroke="#63b8ff" points="100.5,-156.68 104,-166.68 107.5,-156.68 100.5,-156.68"/>
</a>
</g>
</g>
</g>
</svg>

<g id="navigator" transform="translate(0 0)" fill="#404254">
  <rect fill="#f2f5e9" fill-opacity="0.5" stroke="#606060" stroke-width=".5" x="0" y="0" width="60" height="60"/>
  <use id="zoomplus" xlink:href="#zoomPlus" x="17" y="9" onmousedown="handleZoom(evt,'in')"/>
  <use id="zoomminus" xlink:href="#zoomMin" x="42" y="9" onmousedown="handleZoom(evt,'out')"/>
  <use id="reset" xlink:href="#resetDef" x="30" y="36" onmousedown="handleReset()"/>
   <use id="arrowup" xlink:href="#arrowUp" x="0" y="0" onmousedown="handlePan(0,-1)"/>
  <use id="arrowright" xlink:href="#arrowRight" x="0" y="0" onmousedown="handlePan(1,0)"/>
  <use id="arrowdown" xlink:href="#arrowDown" x="0" y="0" onmousedown="handlePan(0,1)"/>
  <use id="arrowleft" xlink:href="#arrowLeft" x="0" y="0" onmousedown="handlePan(-1,0)"/>
</g>
<svg viewBox="0 0 15 15" width="100%" height="30px" preserveAspectRatio="xMaxYMin meet">
 <g id="arrow_out" transform="scale(0.3 0.3)">
  <a xlink:href="classiii__drone_1_1utils_1_1drone__frame__broadcaster__node_1_1DroneFrameBroadcasterConfigurator__inherit__graph_org.svg" target="_base">
   <rect id="button" ry="5" rx="5" y="6" x="6" height="38" width="38"
        fill="#f2f5e9" fill-opacity="0.5" stroke="#606060" stroke-width="1.0"/>
   <path id="arrow"
     d="M 11.500037,31.436501 C 11.940474,20.09759 22.043105,11.32322 32.158766,21.979434 L 37.068811,17.246167 C 37.068811,17.246167 37.088388,32 37.088388,32 L 22.160133,31.978069 C 22.160133,31.978069 26.997745,27.140456 26.997745,27.140456 C 18.528582,18.264221 13.291696,25.230495 11.500037,31.436501 z"
     style="fill:#404040;"/>
  </a>
 </g>
</svg>

<style type='text/css'>
<![CDATA[
[data-mouse-over-selected='false'] { opacity: 0.7; }
[data-mouse-over-selected='true']  { opacity: 1.0; }
]]>
</style>
<script type="application/ecmascript"><![CDATA[
document.addEventListener('DOMContentLoaded', (event) => {
  highlightEdges();
  highlightAdjacentNodes();
});
]]></script>
</svg>
