<?xml version="1.0" encoding="UTF-8" standalone="no"?>
<!DOCTYPE svg PUBLIC "-//W3C//DTD SVG 1.1//EN"
 "http://www.w3.org/Graphics/SVG/1.1/DTD/svg11.dtd">
<!-- Generated by graphviz version 2.43.0 (0)
 -->
<!-- Title: iii_drone::adapters::px4::OffboardControlModeAdapter::OffboardControlModeAdapter Pages: 1 -->
<svg width="398pt" height="403pt"
 viewBox="0.00 0.00 398.00 403.00" xmlns="http://www.w3.org/2000/svg" xmlns:xlink="http://www.w3.org/1999/xlink">
<g id="graph0" class="graph" transform="scale(1 1) rotate(0) translate(4 399)">
<title>iii_drone::adapters::px4::OffboardControlModeAdapter::OffboardControlModeAdapter</title>
<!-- Node1 -->
<g id="Node000001" class="node">
<title>Node1</title>
<g id="a_Node000001"><a xlink:title="Constructor.">
<polygon fill="#999999" stroke="#666666" points="203,-218 0,-218 0,-177 203,-177 203,-218"/>
<text text-anchor="start" x="8" y="-206" font-family="Helvetica,sans-Serif" font-size="10.00">iii_drone::adapters</text>
<text text-anchor="start" x="8" y="-195" font-family="Helvetica,sans-Serif" font-size="10.00">::px4::OffboardControlMode</text>
<text text-anchor="middle" x="101.5" y="-184" font-family="Helvetica,sans-Serif" font-size="10.00">Adapter::OffboardControlModeAdapter</text>
</a>
</g>
</g>
<!-- Node2 -->
<g id="Node000002" class="node">
<title>Node2</title>
<g id="a_Node000002"><a xlink:href="classiii__drone_1_1adapters_1_1px4_1_1OffboardControlModeAdapter.html#ab6657aafa196bf46772f0ebecf9f1884" target="_top" xlink:title="Acceleration control enabled getter.">
<polygon fill="white" stroke="#666666" points="390,-395 239,-395 239,-354 390,-354 390,-395"/>
<text text-anchor="start" x="247" y="-383" font-family="Helvetica,sans-Serif" font-size="10.00">iii_drone::adapters</text>
<text text-anchor="start" x="247" y="-372" font-family="Helvetica,sans-Serif" font-size="10.00">::px4::OffboardControlMode</text>
<text text-anchor="middle" x="314.5" y="-361" font-family="Helvetica,sans-Serif" font-size="10.00">Adapter::acceleration</text>
</a>
</g>
</g>
<!-- Node1&#45;&gt;Node2 -->
<g id="edge1_Node000001_Node000002" class="edge">
<title>Node1&#45;&gt;Node2</title>
<g id="a_edge1_Node000001_Node000002"><a xlink:title=" ">
<path fill="none" stroke="#63b8ff" d="M116.76,-218.21C139.37,-249.65 186.3,-309.56 239,-345.5 240.68,-346.64 242.41,-347.75 244.17,-348.82"/>
<polygon fill="#63b8ff" stroke="#63b8ff" points="242.86,-352.1 253.3,-353.89 246.25,-345.97 242.86,-352.1"/>
</a>
</g>
</g>
<!-- Node3 -->
<g id="Node000003" class="node">
<title>Node3</title>
<g id="a_Node000003"><a xlink:href="classiii__drone_1_1adapters_1_1px4_1_1OffboardControlModeAdapter.html#a375c0e8656f0d7bc199aa1f3769aa07d" target="_top" xlink:title="Actuator control enabled getter.">
<polygon fill="white" stroke="#666666" points="390,-336 239,-336 239,-295 390,-295 390,-336"/>
<text text-anchor="start" x="247" y="-324" font-family="Helvetica,sans-Serif" font-size="10.00">iii_drone::adapters</text>
<text text-anchor="start" x="247" y="-313" font-family="Helvetica,sans-Serif" font-size="10.00">::px4::OffboardControlMode</text>
<text text-anchor="middle" x="314.5" y="-302" font-family="Helvetica,sans-Serif" font-size="10.00">Adapter::actuator</text>
</a>
</g>
</g>
<!-- Node1&#45;&gt;Node3 -->
<g id="edge2_Node000001_Node000003" class="edge">
<title>Node1&#45;&gt;Node3</title>
<g id="a_edge2_Node000001_Node000003"><a xlink:title=" ">
<path fill="none" stroke="#63b8ff" d="M130.23,-218.03C157.1,-237.33 199.49,-266.21 239,-286.5 241.75,-287.91 244.59,-289.3 247.47,-290.65"/>
<polygon fill="#63b8ff" stroke="#63b8ff" points="246.26,-293.95 256.82,-294.86 249.14,-287.56 246.26,-293.95"/>
</a>
</g>
</g>
<!-- Node4 -->
<g id="Node000004" class="node">
<title>Node4</title>
<g id="a_Node000004"><a xlink:href="classiii__drone_1_1adapters_1_1px4_1_1OffboardControlModeAdapter.html#acc59d759fcfef3d99e796a86f1a8bf87" target="_top" xlink:title="Attitude control enabled getter.">
<polygon fill="white" stroke="#666666" points="390,-277 239,-277 239,-236 390,-236 390,-277"/>
<text text-anchor="start" x="247" y="-265" font-family="Helvetica,sans-Serif" font-size="10.00">iii_drone::adapters</text>
<text text-anchor="start" x="247" y="-254" font-family="Helvetica,sans-Serif" font-size="10.00">::px4::OffboardControlMode</text>
<text text-anchor="middle" x="314.5" y="-243" font-family="Helvetica,sans-Serif" font-size="10.00">Adapter::attitude</text>
</a>
</g>
</g>
<!-- Node1&#45;&gt;Node4 -->
<g id="edge3_Node000001_Node000004" class="edge">
<title>Node1&#45;&gt;Node4</title>
<g id="a_edge3_Node000001_Node000004"><a xlink:title=" ">
<path fill="none" stroke="#63b8ff" d="M176,-218.05C193.46,-222.93 212.22,-228.18 230.08,-233.17"/>
<polygon fill="#63b8ff" stroke="#63b8ff" points="229.33,-236.6 239.9,-235.92 231.22,-229.86 229.33,-236.6"/>
</a>
</g>
</g>
<!-- Node5 -->
<g id="Node000005" class="node">
<title>Node5</title>
<g id="a_Node000005"><a xlink:href="classiii__drone_1_1adapters_1_1px4_1_1OffboardControlModeAdapter.html#a0ee69bd6cadc7f9560167412ed510f96" target="_top" xlink:title="Body rate control enabled getter.">
<polygon fill="white" stroke="#666666" points="390,-218 239,-218 239,-177 390,-177 390,-218"/>
<text text-anchor="start" x="247" y="-206" font-family="Helvetica,sans-Serif" font-size="10.00">iii_drone::adapters</text>
<text text-anchor="start" x="247" y="-195" font-family="Helvetica,sans-Serif" font-size="10.00">::px4::OffboardControlMode</text>
<text text-anchor="middle" x="314.5" y="-184" font-family="Helvetica,sans-Serif" font-size="10.00">Adapter::body_rate</text>
</a>
</g>
</g>
<!-- Node1&#45;&gt;Node5 -->
<g id="edge4_Node000001_Node000005" class="edge">
<title>Node1&#45;&gt;Node5</title>
<g id="a_edge4_Node000001_Node000005"><a xlink:title=" ">
<path fill="none" stroke="#63b8ff" d="M203.06,-197.5C211.66,-197.5 220.31,-197.5 228.77,-197.5"/>
<polygon fill="#63b8ff" stroke="#63b8ff" points="228.98,-201 238.98,-197.5 228.98,-194 228.98,-201"/>
</a>
</g>
</g>
<!-- Node6 -->
<g id="Node000006" class="node">
<title>Node6</title>
<g id="a_Node000006"><a xlink:href="classiii__drone_1_1adapters_1_1px4_1_1OffboardControlModeAdapter.html#adef831e9ba97ab5efbe5d8174a7215e6" target="_top" xlink:title="Position control enabled getter.">
<polygon fill="white" stroke="#666666" points="390,-159 239,-159 239,-118 390,-118 390,-159"/>
<text text-anchor="start" x="247" y="-147" font-family="Helvetica,sans-Serif" font-size="10.00">iii_drone::adapters</text>
<text text-anchor="start" x="247" y="-136" font-family="Helvetica,sans-Serif" font-size="10.00">::px4::OffboardControlMode</text>
<text text-anchor="middle" x="314.5" y="-125" font-family="Helvetica,sans-Serif" font-size="10.00">Adapter::position</text>
</a>
</g>
</g>
<!-- Node1&#45;&gt;Node6 -->
<g id="edge5_Node000001_Node000006" class="edge">
<title>Node1&#45;&gt;Node6</title>
<g id="a_edge5_Node000001_Node000006"><a xlink:title=" ">
<path fill="none" stroke="#63b8ff" d="M176,-176.95C193.46,-172.07 212.22,-166.82 230.08,-161.83"/>
<polygon fill="#63b8ff" stroke="#63b8ff" points="231.22,-165.14 239.9,-159.08 229.33,-158.4 231.22,-165.14"/>
</a>
</g>
</g>
<!-- Node7 -->
<g id="Node000007" class="node">
<title>Node7</title>
<g id="a_Node000007"><a xlink:href="classiii__drone_1_1adapters_1_1px4_1_1OffboardControlModeAdapter.html#a2179c1dac110fd9e86a6eeb2dc1c463c" target="_top" xlink:title="Timestamp getter.">
<polygon fill="white" stroke="#666666" points="390,-100 239,-100 239,-59 390,-59 390,-100"/>
<text text-anchor="start" x="247" y="-88" font-family="Helvetica,sans-Serif" font-size="10.00">iii_drone::adapters</text>
<text text-anchor="start" x="247" y="-77" font-family="Helvetica,sans-Serif" font-size="10.00">::px4::OffboardControlMode</text>
<text text-anchor="middle" x="314.5" y="-66" font-family="Helvetica,sans-Serif" font-size="10.00">Adapter::stamp</text>
</a>
</g>
</g>
<!-- Node1&#45;&gt;Node7 -->
<g id="edge6_Node000001_Node000007" class="edge">
<title>Node1&#45;&gt;Node7</title>
<g id="a_edge6_Node000001_Node000007"><a xlink:title=" ">
<path fill="none" stroke="#63b8ff" d="M130.83,-176.96C157.8,-157.98 199.94,-129.72 239,-109.5 242.45,-107.71 246.04,-105.96 249.69,-104.25"/>
<polygon fill="#63b8ff" stroke="#63b8ff" points="251.17,-107.42 258.84,-100.11 248.29,-101.04 251.17,-107.42"/>
</a>
</g>
</g>
<!-- Node8 -->
<g id="Node000008" class="node">
<title>Node8</title>
<g id="a_Node000008"><a xlink:href="classiii__drone_1_1adapters_1_1px4_1_1OffboardControlModeAdapter.html#a6ca4e85d6c7c078cc59fe623d487b9e3" target="_top" xlink:title="Velocity control enabled getter.">
<polygon fill="white" stroke="#666666" points="390,-41 239,-41 239,0 390,0 390,-41"/>
<text text-anchor="start" x="247" y="-29" font-family="Helvetica,sans-Serif" font-size="10.00">iii_drone::adapters</text>
<text text-anchor="start" x="247" y="-18" font-family="Helvetica,sans-Serif" font-size="10.00">::px4::OffboardControlMode</text>
<text text-anchor="middle" x="314.5" y="-7" font-family="Helvetica,sans-Serif" font-size="10.00">Adapter::velocity</text>
</a>
</g>
</g>
<!-- Node1&#45;&gt;Node8 -->
<g id="edge7_Node000001_Node000008" class="edge">
<title>Node1&#45;&gt;Node8</title>
<g id="a_edge7_Node000001_Node000008"><a xlink:title=" ">
<path fill="none" stroke="#63b8ff" d="M117.03,-176.76C139.82,-145.57 186.78,-86.43 239,-50.5 241.16,-49.01 243.41,-47.58 245.71,-46.21"/>
<polygon fill="#63b8ff" stroke="#63b8ff" points="247.78,-49.07 254.86,-41.19 244.41,-42.93 247.78,-49.07"/>
</a>
</g>
</g>
</g>
</svg>
