<?xml version="1.0" encoding="UTF-8" standalone="no"?>
<!DOCTYPE svg PUBLIC "-//W3C//DTD SVG 1.1//EN"
 "http://www.w3.org/Graphics/SVG/1.1/DTD/svg11.dtd">
<!-- Generated by graphviz version 2.43.0 (0)
 -->
<!-- Title: iii_drone::configuration::Configurator::sendGetParametersRequest Pages: 1 -->
<svg width="620pt" height="98pt"
 viewBox="0.00 0.00 620.00 97.50" xmlns="http://www.w3.org/2000/svg" xmlns:xlink="http://www.w3.org/1999/xlink">
<g id="graph0" class="graph" transform="scale(1 1) rotate(0) translate(4 93.5)">
<title>iii_drone::configuration::Configurator::sendGetParametersRequest</title>
<!-- Node1 -->
<g id="Node000001" class="node">
<title>Node1</title>
<g id="a_Node000001"><a xlink:title="Sends a GetParameters request to the ConfigurationServer node, which will return the parameters.">
<polygon fill="#999999" stroke="#666666" points="612,-62.5 427,-62.5 427,-21.5 612,-21.5 612,-62.5"/>
<text text-anchor="start" x="435" y="-50.5" font-family="Helvetica,sans-Serif" font-size="10.00">iii_drone::configuration</text>
<text text-anchor="start" x="435" y="-39.5" font-family="Helvetica,sans-Serif" font-size="10.00">::Configurator::sendGetParameters</text>
<text text-anchor="middle" x="519.5" y="-28.5" font-family="Helvetica,sans-Serif" font-size="10.00">Request</text>
</a>
</g>
</g>
<!-- Node2 -->
<g id="Node000002" class="node">
<title>Node2</title>
<g id="a_Node000002"><a xlink:href="classiii__drone_1_1configuration_1_1Configurator.html#a8d61d2ae2d55e090a12b8d5376a101f6" target="_top" xlink:title="Sends a GetParameters request to the ConfigurationServer node, which will return the parameter.">
<polygon fill="white" stroke="#666666" points="391,-89.5 212,-89.5 212,-48.5 391,-48.5 391,-89.5"/>
<text text-anchor="start" x="220" y="-77.5" font-family="Helvetica,sans-Serif" font-size="10.00">iii_drone::configuration</text>
<text text-anchor="start" x="220" y="-66.5" font-family="Helvetica,sans-Serif" font-size="10.00">::Configurator::sendGetParameter</text>
<text text-anchor="middle" x="301.5" y="-55.5" font-family="Helvetica,sans-Serif" font-size="10.00">Request</text>
</a>
</g>
</g>
<!-- Node1&#45;&gt;Node2 -->
<g id="edge1_Node000001_Node000002" class="edge">
<title>Node1&#45;&gt;Node2</title>
<g id="a_edge1_Node000001_Node000002"><a xlink:title=" ">
<path fill="none" stroke="#63b8ff" d="M416.85,-54.71C408.27,-55.78 399.62,-56.86 391.15,-57.92"/>
<polygon fill="#63b8ff" stroke="#63b8ff" points="417.41,-58.16 426.9,-53.45 416.54,-51.22 417.41,-58.16"/>
</a>
</g>
</g>
<!-- Node4 -->
<g id="Node000004" class="node">
<title>Node4</title>
<g id="a_Node000004"><a xlink:href="classiii__drone_1_1configuration_1_1Configurator.html#a53bec586197e8e62dc799f4ef0bfbe61" target="_top" xlink:title="Synchronizes parameters with the parameter server. Should never be necessary.">
<polygon fill="white" stroke="#666666" points="385,-30 218,-30 218,0 385,0 385,-30"/>
<text text-anchor="start" x="226" y="-18" font-family="Helvetica,sans-Serif" font-size="10.00">iii_drone::configuration</text>
<text text-anchor="middle" x="301.5" y="-7" font-family="Helvetica,sans-Serif" font-size="10.00">::Configurator::SyncParameters</text>
</a>
</g>
</g>
<!-- Node1&#45;&gt;Node4 -->
<g id="edge3_Node000001_Node000004" class="edge">
<title>Node1&#45;&gt;Node4</title>
<g id="a_edge3_Node000001_Node000004"><a xlink:title=" ">
<path fill="none" stroke="#63b8ff" d="M416.82,-29.29C406.27,-27.97 395.64,-26.64 385.34,-25.35"/>
<polygon fill="#63b8ff" stroke="#63b8ff" points="416.54,-32.78 426.9,-30.55 417.41,-25.84 416.54,-32.78"/>
</a>
</g>
</g>
<!-- Node3 -->
<g id="Node000003" class="node">
<title>Node3</title>
<g id="a_Node000003"><a xlink:href="classiii__drone_1_1configuration_1_1Configurator.html#ad5b3a74ef59f82e93b24cd485789677e" target="_top" xlink:title=" ">
<polygon fill="white" stroke="#666666" points="176,-84 0,-84 0,-54 176,-54 176,-84"/>
<text text-anchor="start" x="8" y="-72" font-family="Helvetica,sans-Serif" font-size="10.00">iii_drone::configuration</text>
<text text-anchor="middle" x="88" y="-61" font-family="Helvetica,sans-Serif" font-size="10.00">::Configurator::DeclareParameter</text>
</a>
</g>
</g>
<!-- Node2&#45;&gt;Node3 -->
<g id="edge2_Node000002_Node000003" class="edge">
<title>Node2&#45;&gt;Node3</title>
<g id="a_edge2_Node000002_Node000003"><a xlink:title=" ">
<path fill="none" stroke="#63b8ff" d="M201.47,-69C193.03,-69 184.53,-69 176.19,-69"/>
<polygon fill="#63b8ff" stroke="#63b8ff" points="201.72,-72.5 211.72,-69 201.72,-65.5 201.72,-72.5"/>
</a>
</g>
</g>
</g>
</svg>
