<?xml version="1.0" encoding="UTF-8" standalone="no"?>
<!DOCTYPE svg PUBLIC "-//W3C//DTD SVG 1.1//EN"
 "http://www.w3.org/Graphics/SVG/1.1/DTD/svg11.dtd">
<!-- Generated by graphviz version 2.43.0 (0)
 -->
<!-- Title: iii_drone::control::flight_controller_node::FlightControllerConfigurator::FlightControllerConfigurator Pages: 1 -->
<!--zoomable 200 -->

<svg id="main" version="1.1" xmlns="http://www.w3.org/2000/svg" xmlns:xlink="http://www.w3.org/1999/xlink" xml:space="preserve" onload="init(evt)">
<style type="text/css"><![CDATA[
.node, .edge {opacity: 0.7;}
.node.selected, .edge.selected {opacity: 1;}
.edge:hover path { stroke: red; }
.edge:hover polygon { stroke: red; fill: red; }
]]></style>

<defs>
  <circle id="rim" cx="0" cy="0" r="7"/>
  <circle id="rim2" cx="0" cy="0" r="3.5"/>
  <g id="zoomPlus">
    <use xlink:href="#rim" fill="#404040"><set attributeName="fill" to="#808080" begin="zoomplus.mouseover" end="zoomplus.mouseout"/></use>
    <path d="M-4,0h8M0,-4v8" fill="none" stroke="white" stroke-width="1.5" pointer-events="none"/>
  </g>
  <g id="zoomMin">
    <use xlink:href="#rim" fill="#404040"><set attributeName="fill" to="#808080" begin="zoomminus.mouseover" end="zoomminus.mouseout"/></use>
    <path d="M-4,0h8" fill="none" stroke="white" stroke-width="1.5" pointer-events="none"/>
  </g>
  <g id="arrowUp" transform="translate(30 24)">
    <use xlink:href="#rim"/>
    <path pointer-events="none" fill="none" stroke="white" stroke-width="1.5" d="M0,-3.0v7 M-2.5,-0.5L0,-3.0L2.5,-0.5"/>
  </g>
  <g id="arrowRight" transform="rotate(90) translate(36 -43)">
    <use xlink:href="#rim"/>
    <path pointer-events="none" fill="none" stroke="white" stroke-width="1.5" d="M0,-3.0v7 M-2.5,-0.5L0,-3.0L2.5,-0.5"/>
  </g>
  <g id="arrowDown" transform="rotate(180) translate(-30 -48)">
    <use xlink:href="#rim"/>
    <path pointer-events="none" fill="none" stroke="white" stroke-width="1.5" d="M0,-3.0v7 M-2.5,-0.5L0,-3.0L2.5,-0.5"/>
  </g>
  <g id="arrowLeft" transform="rotate(270) translate(-36 17)">
    <use xlink:href="#rim"/>
    <path pointer-events="none" fill="none" stroke="white" stroke-width="1.5" d="M0,-3.0v7 M-2.5,-0.5L0,-3.0L2.5,-0.5"/>
  </g>
  <g id="resetDef">
    <use xlink:href="#rim2" fill="#404040"><set attributeName="fill" to="#808080" begin="reset.mouseover" end="reset.mouseout"/></use>
  </g>
</defs>
<script type="application/ecmascript">
var viewWidth = 1024;
var viewHeight = 200;
var sectionId = 'dynsection-2';
</script>
<script type="application/ecmascript" xlink:href="svg.min.js"/>
<svg id="graph" class="graph">
<g id="viewport">
<title>iii_drone::control::flight_controller_node::FlightControllerConfigurator::FlightControllerConfigurator</title>
<!-- Node1 -->
<g id="Node000001" class="node">
<title>Node1</title>
<g id="a_Node000001"><a xlink:title="Constructor.">
<polygon fill="#999999" stroke="#666666" points="188,-141 0,-141 0,-89 188,-89 188,-141"/>
<text text-anchor="start" x="8" y="-129" font-family="Helvetica,sans-Serif" font-size="10.00">iii_drone::control</text>
<text text-anchor="start" x="8" y="-118" font-family="Helvetica,sans-Serif" font-size="10.00">::flight_controller</text>
<text text-anchor="start" x="8" y="-107" font-family="Helvetica,sans-Serif" font-size="10.00">_node::FlightControllerConfigurator</text>
<text text-anchor="middle" x="94" y="-96" font-family="Helvetica,sans-Serif" font-size="10.00">::FlightControllerConfigurator</text>
</a>
</g>
</g>
<!-- Node2 -->
<g id="Node000002" class="node">
<title>Node2</title>
<g id="a_Node000002"><a xlink:href="classiii__drone_1_1control_1_1flight__controller__node_1_1FlightControllerConfigurator.html#a9895bfe8ec46f5fab03ffbd77844f7d4" target="_top" xlink:title="Declares the node specific parameters.">
<polygon fill="white" stroke="#666666" points="412,-176 224,-176 224,-124 412,-124 412,-176"/>
<text text-anchor="start" x="232" y="-164" font-family="Helvetica,sans-Serif" font-size="10.00">iii_drone::control</text>
<text text-anchor="start" x="232" y="-153" font-family="Helvetica,sans-Serif" font-size="10.00">::flight_controller</text>
<text text-anchor="start" x="232" y="-142" font-family="Helvetica,sans-Serif" font-size="10.00">_node::FlightControllerConfigurator</text>
<text text-anchor="middle" x="318" y="-131" font-family="Helvetica,sans-Serif" font-size="10.00">::declareNodeParameters</text>
</a>
</g>
</g>
<!-- Node1&#45;&gt;Node2 -->
<g id="edge1_Node000001_Node000002" class="edge">
<title>Node1&#45;&gt;Node2</title>
<g id="a_edge1_Node000001_Node000002"><a xlink:title=" ">
<path fill="none" stroke="#63b8ff" d="M188.18,-129.69C196.63,-131.02 205.21,-132.38 213.73,-133.72"/>
<polygon fill="#63b8ff" stroke="#63b8ff" points="213.28,-137.19 223.7,-135.29 214.37,-130.28 213.28,-137.19"/>
</a>
</g>
</g>
<!-- Node5 -->
<g id="Node000005" class="node">
<title>Node5</title>
<g id="a_Node000005"><a xlink:href="classiii__drone_1_1control_1_1flight__controller__node_1_1FlightControllerConfigurator.html#ad1b7d7a11e920cff0e3ade9fb0653ebd" target="_top" xlink:title="Initializes the behavior state parameters.">
<polygon fill="white" stroke="#666666" points="412,-106 224,-106 224,-54 412,-54 412,-106"/>
<text text-anchor="start" x="232" y="-94" font-family="Helvetica,sans-Serif" font-size="10.00">iii_drone::control</text>
<text text-anchor="start" x="232" y="-83" font-family="Helvetica,sans-Serif" font-size="10.00">::flight_controller</text>
<text text-anchor="start" x="232" y="-72" font-family="Helvetica,sans-Serif" font-size="10.00">_node::FlightControllerConfigurator</text>
<text text-anchor="middle" x="318" y="-61" font-family="Helvetica,sans-Serif" font-size="10.00">::initBehaviorStateParameters</text>
</a>
</g>
</g>
<!-- Node1&#45;&gt;Node5 -->
<g id="edge5_Node000001_Node000005" class="edge">
<title>Node1&#45;&gt;Node5</title>
<g id="a_edge5_Node000001_Node000005"><a xlink:title=" ">
<path fill="none" stroke="#63b8ff" d="M188.18,-100.31C196.63,-98.98 205.21,-97.62 213.73,-96.28"/>
<polygon fill="#63b8ff" stroke="#63b8ff" points="214.37,-99.72 223.7,-94.71 213.28,-92.81 214.37,-99.72"/>
</a>
</g>
</g>
<!-- Node3 -->
<g id="Node000003" class="node">
<title>Node3</title>
<g id="a_Node000003"><a xlink:href="configurator_8cpp.html#a4249c2018a72e5ed93ef4d0ef6b9d25f" target="_top" xlink:title=" ">
<polygon fill="white" stroke="#666666" points="591.5,-192 460.5,-192 460.5,-162 591.5,-162 591.5,-192"/>
<text text-anchor="start" x="468.5" y="-180" font-family="Helvetica,sans-Serif" font-size="10.00">DeclareParameter&lt; std</text>
<text text-anchor="middle" x="526" y="-169" font-family="Helvetica,sans-Serif" font-size="10.00">::string &gt;</text>
</a>
</g>
</g>
<!-- Node2&#45;&gt;Node3 -->
<g id="edge2_Node000002_Node000003" class="edge">
<title>Node2&#45;&gt;Node3</title>
<g id="a_edge2_Node000002_Node000003"><a xlink:title=" ">
<path fill="none" stroke="#63b8ff" d="M412.06,-162.2C424.8,-163.87 437.75,-165.56 450.12,-167.18"/>
<polygon fill="#63b8ff" stroke="#63b8ff" points="449.98,-170.7 460.35,-168.53 450.89,-163.76 449.98,-170.7"/>
</a>
</g>
</g>
<!-- Node4 -->
<g id="Node000004" class="node">
<title>Node4</title>
<g id="a_Node000004"><a xlink:href="classiii__drone_1_1configuration_1_1Configurator.html#ac5360ab6b4f31277c7d73b5579815353" target="_top" xlink:title="Static function for getting string representation of a parameter type from template type.">
<polygon fill="white" stroke="#666666" points="1016,-97.5 837,-97.5 837,-56.5 1016,-56.5 1016,-97.5"/>
<text text-anchor="start" x="845" y="-85.5" font-family="Helvetica,sans-Serif" font-size="10.00">iii_drone::configuration</text>
<text text-anchor="start" x="845" y="-74.5" font-family="Helvetica,sans-Serif" font-size="10.00">::Configurator::GetParameterType</text>
<text text-anchor="middle" x="926.5" y="-63.5" font-family="Helvetica,sans-Serif" font-size="10.00">String</text>
</a>
</g>
</g>
<!-- Node2&#45;&gt;Node4 -->
<g id="edge3_Node000002_Node000004" class="edge">
<title>Node2&#45;&gt;Node4</title>
<g id="a_edge3_Node000002_Node000004"><a xlink:title=" ">
<path fill="none" stroke="#63b8ff" d="M412.3,-138.78C509.4,-127.1 665.86,-108.27 801,-92 809.31,-91 817.94,-89.96 826.59,-88.92"/>
<polygon fill="#63b8ff" stroke="#63b8ff" points="827.24,-92.37 836.75,-87.69 826.4,-85.42 827.24,-92.37"/>
</a>
</g>
</g>
<!-- Node4&#45;&gt;Node4 -->
<g id="edge4_Node000004_Node000004" class="edge">
<title>Node4&#45;&gt;Node4</title>
<g id="a_edge4_Node000004_Node000004"><a xlink:title=" ">
<path fill="none" stroke="#63b8ff" d="M888.64,-97.6C884.51,-107.15 897.13,-115.5 926.5,-115.5 944.86,-115.5 956.67,-112.24 961.94,-107.46"/>
<polygon fill="#63b8ff" stroke="#63b8ff" points="965.38,-108.14 964.36,-97.6 958.58,-106.47 965.38,-108.14"/>
</a>
</g>
</g>
<!-- Node5&#45;&gt;Node4 -->
<g id="edge10_Node000005_Node000004" class="edge">
<title>Node5&#45;&gt;Node4</title>
<g id="a_edge10_Node000005_Node000004"><a xlink:title=" ">
<path fill="none" stroke="#63b8ff" d="M412.3,-79.72C509.4,-79.4 665.86,-78.82 801,-78 809.31,-77.95 817.94,-77.89 826.59,-77.83"/>
<polygon fill="#63b8ff" stroke="#63b8ff" points="826.77,-81.33 836.75,-77.76 826.72,-74.33 826.77,-81.33"/>
</a>
</g>
</g>
<!-- Node6 -->
<g id="Node000006" class="node">
<title>Node6</title>
<g id="a_Node000006"><a xlink:href="classiii__drone_1_1configuration_1_1Configurator.html#a896be5ed2c6890f9f5ecaa89cb0eee7d" target="_top" xlink:title="Get a parameter.">
<polygon fill="white" stroke="#666666" points="604,-68 448,-68 448,-38 604,-38 604,-68"/>
<text text-anchor="start" x="456" y="-56" font-family="Helvetica,sans-Serif" font-size="10.00">iii_drone::configuration</text>
<text text-anchor="middle" x="526" y="-45" font-family="Helvetica,sans-Serif" font-size="10.00">::Configurator::GetParameter</text>
</a>
</g>
</g>
<!-- Node5&#45;&gt;Node6 -->
<g id="edge6_Node000005_Node000006" class="edge">
<title>Node5&#45;&gt;Node6</title>
<g id="a_edge6_Node000005_Node000006"><a xlink:title=" ">
<path fill="none" stroke="#63b8ff" d="M412.06,-67.8C420.64,-66.68 429.32,-65.54 437.84,-64.42"/>
<polygon fill="#63b8ff" stroke="#63b8ff" points="438.31,-67.89 447.77,-63.12 437.4,-60.95 438.31,-67.89"/>
</a>
</g>
</g>
<!-- Node6&#45;&gt;Node4 -->
<g id="edge9_Node000006_Node000004" class="edge">
<title>Node6&#45;&gt;Node4</title>
<g id="a_edge9_Node000006_Node000004"><a xlink:title=" ">
<path fill="none" stroke="#63b8ff" d="M604.31,-57.66C667.71,-61.47 757.88,-66.9 826.55,-71.04"/>
<polygon fill="#63b8ff" stroke="#63b8ff" points="826.75,-74.56 836.95,-71.67 827.17,-67.57 826.75,-74.56"/>
</a>
</g>
</g>
<!-- Node7 -->
<g id="Node000007" class="node">
<title>Node7</title>
<g id="a_Node000007"><a xlink:href="classiii__drone_1_1configuration_1_1Configurator.html#ad6e7318a12eda7011acfbe4276e7056a" target="_top" xlink:title="Gets multiple parameters.">
<polygon fill="white" stroke="#666666" points="801,-30 640,-30 640,0 801,0 801,-30"/>
<text text-anchor="start" x="648" y="-18" font-family="Helvetica,sans-Serif" font-size="10.00">iii_drone::configuration</text>
<text text-anchor="middle" x="720.5" y="-7" font-family="Helvetica,sans-Serif" font-size="10.00">::Configurator::GetParameters</text>
</a>
</g>
</g>
<!-- Node6&#45;&gt;Node7 -->
<g id="edge7_Node000006_Node000007" class="edge">
<title>Node6&#45;&gt;Node7</title>
<g id="a_edge7_Node000006_Node000007"><a xlink:title=" ">
<path fill="none" stroke="#63b8ff" d="M603.08,-37.98C613.01,-36.02 623.24,-34 633.33,-32.01"/>
<polygon fill="#63b8ff" stroke="#63b8ff" points="634.21,-35.4 643.34,-30.03 632.85,-28.54 634.21,-35.4"/>
</a>
</g>
</g>
<!-- Node7&#45;&gt;Node4 -->
<g id="edge8_Node000007_Node000004" class="edge">
<title>Node7&#45;&gt;Node4</title>
<g id="a_edge8_Node000007_Node000004"><a xlink:title=" ">
<path fill="none" stroke="#63b8ff" d="M770.88,-30.01C793.99,-37.03 822.06,-45.56 847.91,-53.42"/>
<polygon fill="#63b8ff" stroke="#63b8ff" points="847.1,-56.83 857.69,-56.39 849.14,-50.13 847.1,-56.83"/>
</a>
</g>
</g>
</g>
</svg>

<g id="navigator" transform="translate(0 0)" fill="#404254">
  <rect fill="#f2f5e9" fill-opacity="0.5" stroke="#606060" stroke-width=".5" x="0" y="0" width="60" height="60"/>
  <use id="zoomplus" xlink:href="#zoomPlus" x="17" y="9" onmousedown="handleZoom(evt,'in')"/>
  <use id="zoomminus" xlink:href="#zoomMin" x="42" y="9" onmousedown="handleZoom(evt,'out')"/>
  <use id="reset" xlink:href="#resetDef" x="30" y="36" onmousedown="handleReset()"/>
   <use id="arrowup" xlink:href="#arrowUp" x="0" y="0" onmousedown="handlePan(0,-1)"/>
  <use id="arrowright" xlink:href="#arrowRight" x="0" y="0" onmousedown="handlePan(1,0)"/>
  <use id="arrowdown" xlink:href="#arrowDown" x="0" y="0" onmousedown="handlePan(0,1)"/>
  <use id="arrowleft" xlink:href="#arrowLeft" x="0" y="0" onmousedown="handlePan(-1,0)"/>
</g>
<svg viewBox="0 0 15 15" width="100%" height="30px" preserveAspectRatio="xMaxYMin meet">
 <g id="arrow_out" transform="scale(0.3 0.3)">
  <a xlink:href="classiii__drone_1_1control_1_1flight__controller__node_1_1FlightControllerConfigurator_a18e2ebf5d4e0fdd8e496692c05d1eedb_cgraph_org.svg" target="_base">
   <rect id="button" ry="5" rx="5" y="6" x="6" height="38" width="38"
        fill="#f2f5e9" fill-opacity="0.5" stroke="#606060" stroke-width="1.0"/>
   <path id="arrow"
     d="M 11.500037,31.436501 C 11.940474,20.09759 22.043105,11.32322 32.158766,21.979434 L 37.068811,17.246167 C 37.068811,17.246167 37.088388,32 37.088388,32 L 22.160133,31.978069 C 22.160133,31.978069 26.997745,27.140456 26.997745,27.140456 C 18.528582,18.264221 13.291696,25.230495 11.500037,31.436501 z"
     style="fill:#404040;"/>
  </a>
 </g>
</svg>

<style type='text/css'>
<![CDATA[
[data-mouse-over-selected='false'] { opacity: 0.7; }
[data-mouse-over-selected='true']  { opacity: 1.0; }
]]>
</style>
<script type="application/ecmascript"><![CDATA[
document.addEventListener('DOMContentLoaded', (event) => {
  highlightEdges();
  highlightAdjacentNodes();
});
]]></script>
</svg>
