<?xml version="1.0" encoding="UTF-8" standalone="no"?>
<!DOCTYPE svg PUBLIC "-//W3C//DTD SVG 1.1//EN"
 "http://www.w3.org/Graphics/SVG/1.1/DTD/svg11.dtd">
<!-- Generated by graphviz version 2.43.0 (0)
 -->
<!-- Title: iii_drone::control::maneuver::Maneuver::maneuver_type Pages: 1 -->
<!--zoomable 449 -->

<svg id="main" version="1.1" xmlns="http://www.w3.org/2000/svg" xmlns:xlink="http://www.w3.org/1999/xlink" xml:space="preserve" onload="init(evt)">
<style type="text/css"><![CDATA[
.node, .edge {opacity: 0.7;}
.node.selected, .edge.selected {opacity: 1;}
.edge:hover path { stroke: red; }
.edge:hover polygon { stroke: red; fill: red; }
]]></style>

<defs>
  <circle id="rim" cx="0" cy="0" r="7"/>
  <circle id="rim2" cx="0" cy="0" r="3.5"/>
  <g id="zoomPlus">
    <use xlink:href="#rim" fill="#404040"><set attributeName="fill" to="#808080" begin="zoomplus.mouseover" end="zoomplus.mouseout"/></use>
    <path d="M-4,0h8M0,-4v8" fill="none" stroke="white" stroke-width="1.5" pointer-events="none"/>
  </g>
  <g id="zoomMin">
    <use xlink:href="#rim" fill="#404040"><set attributeName="fill" to="#808080" begin="zoomminus.mouseover" end="zoomminus.mouseout"/></use>
    <path d="M-4,0h8" fill="none" stroke="white" stroke-width="1.5" pointer-events="none"/>
  </g>
  <g id="arrowUp" transform="translate(30 24)">
    <use xlink:href="#rim"/>
    <path pointer-events="none" fill="none" stroke="white" stroke-width="1.5" d="M0,-3.0v7 M-2.5,-0.5L0,-3.0L2.5,-0.5"/>
  </g>
  <g id="arrowRight" transform="rotate(90) translate(36 -43)">
    <use xlink:href="#rim"/>
    <path pointer-events="none" fill="none" stroke="white" stroke-width="1.5" d="M0,-3.0v7 M-2.5,-0.5L0,-3.0L2.5,-0.5"/>
  </g>
  <g id="arrowDown" transform="rotate(180) translate(-30 -48)">
    <use xlink:href="#rim"/>
    <path pointer-events="none" fill="none" stroke="white" stroke-width="1.5" d="M0,-3.0v7 M-2.5,-0.5L0,-3.0L2.5,-0.5"/>
  </g>
  <g id="arrowLeft" transform="rotate(270) translate(-36 17)">
    <use xlink:href="#rim"/>
    <path pointer-events="none" fill="none" stroke="white" stroke-width="1.5" d="M0,-3.0v7 M-2.5,-0.5L0,-3.0L2.5,-0.5"/>
  </g>
  <g id="resetDef">
    <use xlink:href="#rim2" fill="#404040"><set attributeName="fill" to="#808080" begin="reset.mouseover" end="reset.mouseout"/></use>
  </g>
</defs>
<script type="application/ecmascript">
var viewWidth = 1861;
var viewHeight = 449;
var sectionId = 'dynsection-5';
</script>
<script type="application/ecmascript" xlink:href="svg.min.js"/>
<svg id="graph" class="graph">
<g id="viewport">
<title>iii_drone::control::maneuver::Maneuver::maneuver_type</title>
<!-- Node1 -->
<g id="Node000001" class="node">
<title>Node1</title>
<g id="a_Node000001"><a xlink:title="Maneuver type getter.">
<polygon fill="#999999" stroke="#666666" points="1853,-234 1726,-234 1726,-193 1853,-193 1853,-234"/>
<text text-anchor="start" x="1734" y="-222" font-family="Helvetica,sans-Serif" font-size="10.00">iii_drone::control</text>
<text text-anchor="start" x="1734" y="-211" font-family="Helvetica,sans-Serif" font-size="10.00">::maneuver::Maneuver</text>
<text text-anchor="middle" x="1789.5" y="-200" font-family="Helvetica,sans-Serif" font-size="10.00">::maneuver_type</text>
</a>
</g>
</g>
<!-- Node2 -->
<g id="Node000002" class="node">
<title>Node2</title>
<g id="a_Node000002"><a xlink:href="classiii__drone_1_1control_1_1maneuver_1_1FlyToObjectManeuverServer.html#a7a9d2b2d6d91f20491eab552a16f9955" target="_top" xlink:title="Whether the maneuver can be executed.">
<polygon fill="white" stroke="#666666" points="1682,-441 1498,-441 1498,-400 1682,-400 1682,-441"/>
<text text-anchor="start" x="1506" y="-429" font-family="Helvetica,sans-Serif" font-size="10.00">iii_drone::control</text>
<text text-anchor="start" x="1506" y="-418" font-family="Helvetica,sans-Serif" font-size="10.00">::maneuver::FlyToObjectManeuver</text>
<text text-anchor="middle" x="1590" y="-407" font-family="Helvetica,sans-Serif" font-size="10.00">Server::CanExecuteManeuver</text>
</a>
</g>
</g>
<!-- Node1&#45;&gt;Node2 -->
<g id="edge1_Node000001_Node000002" class="edge">
<title>Node1&#45;&gt;Node2</title>
<g id="a_edge1_Node000001_Node000002"><a xlink:title=" ">
<path fill="none" stroke="#63b8ff" d="M1779.7,-243.91C1766.64,-283.68 1738.32,-352.81 1690,-391.5 1686.09,-394.63 1681.84,-397.43 1677.39,-399.92"/>
<polygon fill="#63b8ff" stroke="#63b8ff" points="1783.08,-244.83 1782.77,-234.24 1776.41,-242.71 1783.08,-244.83"/>
</a>
</g>
</g>
<!-- Node3 -->
<g id="Node000003" class="node">
<title>Node3</title>
<g id="a_Node000003"><a xlink:href="classiii__drone_1_1control_1_1maneuver_1_1FlyToPositionManeuverServer.html#a6b744edf6d2a98751e379a344686d37d" target="_top" xlink:title="Whether the maneuver can be executed.">
<polygon fill="white" stroke="#666666" points="1685.5,-382 1494.5,-382 1494.5,-341 1685.5,-341 1685.5,-382"/>
<text text-anchor="start" x="1502.5" y="-370" font-family="Helvetica,sans-Serif" font-size="10.00">iii_drone::control</text>
<text text-anchor="start" x="1502.5" y="-359" font-family="Helvetica,sans-Serif" font-size="10.00">::maneuver::FlyToPositionManeuver</text>
<text text-anchor="middle" x="1590" y="-348" font-family="Helvetica,sans-Serif" font-size="10.00">Server::CanExecuteManeuver</text>
</a>
</g>
</g>
<!-- Node1&#45;&gt;Node3 -->
<g id="edge2_Node000001_Node000003" class="edge">
<title>Node1&#45;&gt;Node3</title>
<g id="a_edge2_Node000001_Node000003"><a xlink:title=" ">
<path fill="none" stroke="#63b8ff" d="M1771.26,-243.09C1754,-270.17 1725.02,-309.45 1690,-332.5 1685.21,-335.65 1680.08,-338.47 1674.75,-340.98"/>
<polygon fill="#63b8ff" stroke="#63b8ff" points="1774.35,-244.75 1776.65,-234.41 1768.4,-241.05 1774.35,-244.75"/>
</a>
</g>
</g>
<!-- Node4 -->
<g id="Node000004" class="node">
<title>Node4</title>
<g id="a_Node000004"><a xlink:href="classiii__drone_1_1control_1_1maneuver_1_1HoverByObjectManeuverServer.html#a43a1bd4911d8cb93397ab2eeabd61ee4" target="_top" xlink:title="Whether the maneuver can be executed, will return false if the target is not visible or the drone has...">
<polygon fill="white" stroke="#666666" points="1690,-323 1490,-323 1490,-282 1690,-282 1690,-323"/>
<text text-anchor="start" x="1498" y="-311" font-family="Helvetica,sans-Serif" font-size="10.00">iii_drone::control</text>
<text text-anchor="start" x="1498" y="-300" font-family="Helvetica,sans-Serif" font-size="10.00">::maneuver::HoverByObjectManeuver</text>
<text text-anchor="middle" x="1590" y="-289" font-family="Helvetica,sans-Serif" font-size="10.00">Server::CanExecuteManeuver</text>
</a>
</g>
</g>
<!-- Node1&#45;&gt;Node4 -->
<g id="edge3_Node000001_Node000004" class="edge">
<title>Node1&#45;&gt;Node4</title>
<g id="a_edge3_Node000001_Node000004"><a xlink:title=" ">
<path fill="none" stroke="#63b8ff" d="M1751.01,-239.54C1733.14,-251.11 1711.09,-264.18 1690,-273.5 1683.12,-276.54 1675.83,-279.36 1668.46,-281.96"/>
<polygon fill="#63b8ff" stroke="#63b8ff" points="1753,-242.42 1759.43,-234 1749.15,-236.57 1753,-242.42"/>
</a>
</g>
</g>
<!-- Node5 -->
<g id="Node000005" class="node">
<title>Node5</title>
<g id="a_Node000005"><a xlink:href="classiii__drone_1_1control_1_1maneuver_1_1HoverManeuverServer.html#a48fc833da5d3dfd1cd701a476d2af542" target="_top" xlink:title="Whether the maneuver can be executed, will return true if the drone is armed and offboard.">
<polygon fill="white" stroke="#666666" points="1684,-264 1496,-264 1496,-223 1684,-223 1684,-264"/>
<text text-anchor="start" x="1504" y="-252" font-family="Helvetica,sans-Serif" font-size="10.00">iii_drone::control</text>
<text text-anchor="start" x="1504" y="-241" font-family="Helvetica,sans-Serif" font-size="10.00">::maneuver::HoverManeuverServer</text>
<text text-anchor="middle" x="1590" y="-230" font-family="Helvetica,sans-Serif" font-size="10.00">::CanExecuteManeuver</text>
</a>
</g>
</g>
<!-- Node1&#45;&gt;Node5 -->
<g id="edge4_Node000001_Node000005" class="edge">
<title>Node1&#45;&gt;Node5</title>
<g id="a_edge4_Node000001_Node000005"><a xlink:title=" ">
<path fill="none" stroke="#63b8ff" d="M1715.66,-224.56C1705.43,-226.12 1694.8,-227.73 1684.25,-229.34"/>
<polygon fill="#63b8ff" stroke="#63b8ff" points="1716.38,-228 1725.74,-223.03 1715.33,-221.07 1716.38,-228"/>
</a>
</g>
</g>
<!-- Node6 -->
<g id="Node000006" class="node">
<title>Node6</title>
<g id="a_Node000006"><a xlink:href="classiii__drone_1_1control_1_1maneuver_1_1HoverOnCableManeuverServer.html#ae2dbb516295d2556599cb855d4453c93" target="_top" xlink:title="Whether the maneuver can be executed, will return false if the drone is not on the cable.">
<polygon fill="white" stroke="#666666" points="1688.5,-205 1491.5,-205 1491.5,-164 1688.5,-164 1688.5,-205"/>
<text text-anchor="start" x="1499.5" y="-193" font-family="Helvetica,sans-Serif" font-size="10.00">iii_drone::control</text>
<text text-anchor="start" x="1499.5" y="-182" font-family="Helvetica,sans-Serif" font-size="10.00">::maneuver::HoverOnCableManeuver</text>
<text text-anchor="middle" x="1590" y="-171" font-family="Helvetica,sans-Serif" font-size="10.00">Server::CanExecuteManeuver</text>
</a>
</g>
</g>
<!-- Node1&#45;&gt;Node6 -->
<g id="edge5_Node000001_Node000006" class="edge">
<title>Node1&#45;&gt;Node6</title>
<g id="a_edge5_Node000001_Node000006"><a xlink:title=" ">
<path fill="none" stroke="#63b8ff" d="M1715.56,-202.79C1706.76,-201.5 1697.66,-200.16 1688.58,-198.83"/>
<polygon fill="#63b8ff" stroke="#63b8ff" points="1715.34,-206.29 1725.74,-204.28 1716.35,-199.37 1715.34,-206.29"/>
</a>
</g>
</g>
<!-- Node7 -->
<g id="Node000007" class="node">
<title>Node7</title>
<g id="a_Node000007"><a xlink:href="classiii__drone_1_1control_1_1maneuver_1_1ManeuverScheduler.html#a6ba3cad1d62a50cc78dc835e44ab1050" target="_top" xlink:title="Evaluates whether a maneuver can be executed given an awareness.">
<polygon fill="white" stroke="#666666" points="1677.5,-146 1502.5,-146 1502.5,-105 1677.5,-105 1677.5,-146"/>
<text text-anchor="start" x="1510.5" y="-134" font-family="Helvetica,sans-Serif" font-size="10.00">iii_drone::control</text>
<text text-anchor="start" x="1510.5" y="-123" font-family="Helvetica,sans-Serif" font-size="10.00">::maneuver::ManeuverScheduler</text>
<text text-anchor="middle" x="1590" y="-112" font-family="Helvetica,sans-Serif" font-size="10.00">::maneuverCanExecute</text>
</a>
</g>
</g>
<!-- Node1&#45;&gt;Node7 -->
<g id="edge6_Node000001_Node000007" class="edge">
<title>Node1&#45;&gt;Node7</title>
<g id="a_edge6_Node000001_Node000007"><a xlink:title=" ">
<path fill="none" stroke="#63b8ff" d="M1749.18,-187.43C1731.58,-176.54 1710.27,-164.39 1690,-155.5 1682.27,-152.11 1674.04,-148.95 1665.76,-146.06"/>
<polygon fill="#63b8ff" stroke="#63b8ff" points="1747.68,-190.63 1758.01,-192.99 1751.41,-184.7 1747.68,-190.63"/>
</a>
</g>
</g>
<!-- Node13 -->
<g id="Node000013" class="node">
<title>Node13</title>
<g id="a_Node000013"><a xlink:href="classiii__drone_1_1control_1_1maneuver_1_1ManeuverScheduler.html#a5c5c0d6419c85f15414b71453a47f69c" target="_top" xlink:title="Returns the expected combined drone awareness upon completion or failure of given maneuver type,...">
<polygon fill="white" stroke="#666666" points="1451.5,-100 1266.5,-100 1266.5,-59 1451.5,-59 1451.5,-100"/>
<text text-anchor="start" x="1274.5" y="-88" font-family="Helvetica,sans-Serif" font-size="10.00">iii_drone::control</text>
<text text-anchor="start" x="1274.5" y="-77" font-family="Helvetica,sans-Serif" font-size="10.00">::maneuver::ManeuverScheduler</text>
<text text-anchor="middle" x="1359" y="-66" font-family="Helvetica,sans-Serif" font-size="10.00">::ProjectExpectedAwarenessSingle</text>
</a>
</g>
</g>
<!-- Node1&#45;&gt;Node13 -->
<g id="edge19_Node000001_Node000013" class="edge">
<title>Node1&#45;&gt;Node13</title>
<g id="a_edge19_Node000001_Node000013"><a xlink:title=" ">
<path fill="none" stroke="#63b8ff" d="M1773.16,-183.67C1756.79,-155.36 1727.99,-114.41 1690,-95.5 1616.06,-58.7 1520.89,-58.23 1451.76,-64.87"/>
<polygon fill="#63b8ff" stroke="#63b8ff" points="1770.29,-185.72 1778.23,-192.74 1776.4,-182.3 1770.29,-185.72"/>
</a>
</g>
</g>
<!-- Node16 -->
<g id="Node000016" class="node">
<title>Node16</title>
<g id="a_Node000016"><a xlink:href="classiii__drone_1_1control_1_1maneuver_1_1ManeuverScheduler.html#a99d218271b8aa908b0e179076f2ca733" target="_top" xlink:title="Progresses the scheduler. If a maneuver is executing, evaluates whether it has terminated....">
<polygon fill="white" stroke="#666666" points="1677.5,-46 1502.5,-46 1502.5,-5 1677.5,-5 1677.5,-46"/>
<text text-anchor="start" x="1510.5" y="-34" font-family="Helvetica,sans-Serif" font-size="10.00">iii_drone::control</text>
<text text-anchor="start" x="1510.5" y="-23" font-family="Helvetica,sans-Serif" font-size="10.00">::maneuver::ManeuverScheduler</text>
<text text-anchor="middle" x="1590" y="-12" font-family="Helvetica,sans-Serif" font-size="10.00">::progressScheduler</text>
</a>
</g>
</g>
<!-- Node1&#45;&gt;Node16 -->
<g id="edge16_Node000001_Node000016" class="edge">
<title>Node1&#45;&gt;Node16</title>
<g id="a_edge16_Node000001_Node000016"><a xlink:title=" ">
<path fill="none" stroke="#63b8ff" d="M1775.99,-183.57C1760.45,-149.78 1730.92,-95.26 1690,-62.5 1681.91,-56.02 1672.57,-50.6 1662.92,-46.08"/>
<polygon fill="#63b8ff" stroke="#63b8ff" points="1772.9,-185.23 1780.18,-192.93 1779.29,-182.37 1772.9,-185.23"/>
</a>
</g>
</g>
<!-- Node8 -->
<g id="Node000008" class="node">
<title>Node8</title>
<g id="a_Node000008"><a xlink:href="classiii__drone_1_1control_1_1maneuver_1_1ManeuverScheduler.html#afff4234827a52c39b91b94ddda380a92" target="_top" xlink:title="Returns whether a given maneuver can immediately execute.">
<polygon fill="white" stroke="#666666" points="1017,-157 842,-157 842,-116 1017,-116 1017,-157"/>
<text text-anchor="start" x="850" y="-145" font-family="Helvetica,sans-Serif" font-size="10.00">iii_drone::control</text>
<text text-anchor="start" x="850" y="-134" font-family="Helvetica,sans-Serif" font-size="10.00">::maneuver::ManeuverScheduler</text>
<text text-anchor="middle" x="929.5" y="-123" font-family="Helvetica,sans-Serif" font-size="10.00">::CanExecute</text>
</a>
</g>
</g>
<!-- Node7&#45;&gt;Node8 -->
<g id="edge7_Node000007_Node000008" class="edge">
<title>Node7&#45;&gt;Node8</title>
<g id="a_edge7_Node000007_Node000008"><a xlink:title=" ">
<path fill="none" stroke="#63b8ff" d="M1492.04,-127.12C1363.87,-129.26 1139.99,-133 1017.19,-135.05"/>
<polygon fill="#63b8ff" stroke="#63b8ff" points="1492.3,-130.62 1502.24,-126.95 1492.18,-123.62 1492.3,-130.62"/>
</a>
</g>
</g>
<!-- Node7&#45;&gt;Node13 -->
<g id="edge12_Node000007_Node000013" class="edge">
<title>Node7&#45;&gt;Node13</title>
<g id="a_edge12_Node000007_Node000013"><a xlink:title=" ">
<path fill="none" stroke="#63b8ff" d="M1492.62,-106.14C1479.05,-103.41 1465.14,-100.62 1451.66,-97.91"/>
<polygon fill="#63b8ff" stroke="#63b8ff" points="1491.93,-109.57 1502.42,-108.11 1493.31,-102.71 1491.93,-109.57"/>
</a>
</g>
</g>
<!-- Node9 -->
<g id="Node000009" class="node">
<title>Node9</title>
<g id="a_Node000009"><a xlink:href="classiii__drone_1_1control_1_1maneuver_1_1ManeuverScheduler.html#acaa8f0628522b25bdd0c63dde8ee24f0" target="_top" xlink:title="Registers a maneuver with the maneuver scheduler. To be called from a maneuver server....">
<polygon fill="white" stroke="#666666" points="806,-127 631,-127 631,-86 806,-86 806,-127"/>
<text text-anchor="start" x="639" y="-115" font-family="Helvetica,sans-Serif" font-size="10.00">iii_drone::control</text>
<text text-anchor="start" x="639" y="-104" font-family="Helvetica,sans-Serif" font-size="10.00">::maneuver::ManeuverScheduler</text>
<text text-anchor="middle" x="718.5" y="-93" font-family="Helvetica,sans-Serif" font-size="10.00">::RegisterManeuver</text>
</a>
</g>
</g>
<!-- Node8&#45;&gt;Node9 -->
<g id="edge8_Node000008_Node000009" class="edge">
<title>Node8&#45;&gt;Node9</title>
<g id="a_edge8_Node000008_Node000009"><a xlink:title=" ">
<path fill="none" stroke="#63b8ff" d="M831.97,-122.64C823.41,-121.41 814.77,-120.17 806.29,-118.96"/>
<polygon fill="#63b8ff" stroke="#63b8ff" points="831.59,-126.12 841.98,-124.08 832.58,-119.2 831.59,-126.12"/>
</a>
</g>
</g>
<!-- Node10 -->
<g id="Node000010" class="node">
<title>Node10</title>
<g id="a_Node000010"><a xlink:href="classiii__drone_1_1control_1_1maneuver_1_1ManeuverScheduler.html#ab393b4204a5c4368ee503e9af8b27a22" target="_top" xlink:title="Registers a maneuver type with a maneuver server.">
<polygon fill="white" stroke="#666666" points="595,-127 420,-127 420,-86 595,-86 595,-127"/>
<text text-anchor="start" x="428" y="-115" font-family="Helvetica,sans-Serif" font-size="10.00">iii_drone::control</text>
<text text-anchor="start" x="428" y="-104" font-family="Helvetica,sans-Serif" font-size="10.00">::maneuver::ManeuverScheduler</text>
<text text-anchor="middle" x="507.5" y="-93" font-family="Helvetica,sans-Serif" font-size="10.00">::RegisterManeuverServer</text>
</a>
</g>
</g>
<!-- Node9&#45;&gt;Node10 -->
<g id="edge9_Node000009_Node000010" class="edge">
<title>Node9&#45;&gt;Node10</title>
<g id="a_edge9_Node000009_Node000010"><a xlink:title=" ">
<path fill="none" stroke="#63b8ff" d="M620.97,-106.5C612.41,-106.5 603.77,-106.5 595.29,-106.5"/>
<polygon fill="#63b8ff" stroke="#63b8ff" points="620.98,-110 630.98,-106.5 620.98,-103 620.98,-110"/>
</a>
</g>
</g>
<!-- Node11 -->
<g id="Node000011" class="node">
<title>Node11</title>
<g id="a_Node000011"><a xlink:href="classiii__drone_1_1control_1_1maneuver__controller__node_1_1ManeuverControllerNode.html#a1c587895df3c61bd6b748e97942cd619" target="_top" xlink:title="Creates and registers all maneuver servers with the maneuver scheduler.">
<polygon fill="white" stroke="#666666" points="384,-132.5 210,-132.5 210,-80.5 384,-80.5 384,-132.5"/>
<text text-anchor="start" x="218" y="-120.5" font-family="Helvetica,sans-Serif" font-size="10.00">iii_drone::control</text>
<text text-anchor="start" x="218" y="-109.5" font-family="Helvetica,sans-Serif" font-size="10.00">::maneuver_controller</text>
<text text-anchor="start" x="218" y="-98.5" font-family="Helvetica,sans-Serif" font-size="10.00">_node::ManeuverControllerNode</text>
<text text-anchor="middle" x="297" y="-87.5" font-family="Helvetica,sans-Serif" font-size="10.00">::registerManeuverServers</text>
</a>
</g>
</g>
<!-- Node10&#45;&gt;Node11 -->
<g id="edge10_Node000010_Node000011" class="edge">
<title>Node10&#45;&gt;Node11</title>
<g id="a_edge10_Node000010_Node000011"><a xlink:title=" ">
<path fill="none" stroke="#63b8ff" d="M409.82,-106.5C401.21,-106.5 392.52,-106.5 384.01,-106.5"/>
<polygon fill="#63b8ff" stroke="#63b8ff" points="409.89,-110 419.89,-106.5 409.89,-103 409.89,-110"/>
</a>
</g>
</g>
<!-- Node12 -->
<g id="Node000012" class="node">
<title>Node12</title>
<g id="a_Node000012"><a xlink:href="classiii__drone_1_1control_1_1maneuver__controller__node_1_1ManeuverControllerNode.html#a291f0abf320443ed6ad4a248ba028b8c" target="_top" xlink:title="Constructor. Creates the node, initializes the configurator, the transform buffer and listener,...">
<polygon fill="white" stroke="#666666" points="174,-132.5 0,-132.5 0,-80.5 174,-80.5 174,-132.5"/>
<text text-anchor="start" x="8" y="-120.5" font-family="Helvetica,sans-Serif" font-size="10.00">iii_drone::control</text>
<text text-anchor="start" x="8" y="-109.5" font-family="Helvetica,sans-Serif" font-size="10.00">::maneuver_controller</text>
<text text-anchor="start" x="8" y="-98.5" font-family="Helvetica,sans-Serif" font-size="10.00">_node::ManeuverControllerNode</text>
<text text-anchor="middle" x="87" y="-87.5" font-family="Helvetica,sans-Serif" font-size="10.00">::ManeuverControllerNode</text>
</a>
</g>
</g>
<!-- Node11&#45;&gt;Node12 -->
<g id="edge11_Node000011_Node000012" class="edge">
<title>Node11&#45;&gt;Node12</title>
<g id="a_edge11_Node000011_Node000012"><a xlink:title=" ">
<path fill="none" stroke="#63b8ff" d="M199.84,-106.5C191.23,-106.5 182.55,-106.5 174.04,-106.5"/>
<polygon fill="#63b8ff" stroke="#63b8ff" points="199.9,-110 209.9,-106.5 199.9,-103 199.9,-110"/>
</a>
</g>
</g>
<!-- Node14 -->
<g id="Node000014" class="node">
<title>Node14</title>
<g id="a_Node000014"><a xlink:href="classiii__drone_1_1control_1_1maneuver_1_1ManeuverScheduler.html#a506aad4bb58475a1f64148aec17c570f" target="_top" xlink:title="Returns the expected combined drone awareness upon completion or failure of given maneuver type,...">
<polygon fill="white" stroke="#666666" points="1228,-100 1053,-100 1053,-59 1228,-59 1228,-100"/>
<text text-anchor="start" x="1061" y="-88" font-family="Helvetica,sans-Serif" font-size="10.00">iii_drone::control</text>
<text text-anchor="start" x="1061" y="-77" font-family="Helvetica,sans-Serif" font-size="10.00">::maneuver::ManeuverScheduler</text>
<text text-anchor="middle" x="1140.5" y="-66" font-family="Helvetica,sans-Serif" font-size="10.00">::ProjectExpectedAwarenessFull</text>
</a>
</g>
</g>
<!-- Node13&#45;&gt;Node14 -->
<g id="edge13_Node000013_Node000014" class="edge">
<title>Node13&#45;&gt;Node14</title>
<g id="a_edge13_Node000013_Node000014"><a xlink:title=" ">
<path fill="none" stroke="#63b8ff" d="M1256.33,-79.5C1246.92,-79.5 1237.45,-79.5 1228.19,-79.5"/>
<polygon fill="#63b8ff" stroke="#63b8ff" points="1256.5,-83 1266.5,-79.5 1256.5,-76 1256.5,-83"/>
</a>
</g>
</g>
<!-- Node15 -->
<g id="Node000015" class="node">
<title>Node15</title>
<g id="a_Node000015"><a xlink:href="classiii__drone_1_1control_1_1maneuver_1_1ManeuverScheduler.html#a6b694f0329c16fecaf0395fc4ef3f597" target="_top" xlink:title="Returns whether a given maneuver can execute later.">
<polygon fill="white" stroke="#666666" points="1017,-98 842,-98 842,-57 1017,-57 1017,-98"/>
<text text-anchor="start" x="850" y="-86" font-family="Helvetica,sans-Serif" font-size="10.00">iii_drone::control</text>
<text text-anchor="start" x="850" y="-75" font-family="Helvetica,sans-Serif" font-size="10.00">::maneuver::ManeuverScheduler</text>
<text text-anchor="middle" x="929.5" y="-64" font-family="Helvetica,sans-Serif" font-size="10.00">::CanSchedule</text>
</a>
</g>
</g>
<!-- Node14&#45;&gt;Node15 -->
<g id="edge14_Node000014_Node000015" class="edge">
<title>Node14&#45;&gt;Node15</title>
<g id="a_edge14_Node000014_Node000015"><a xlink:title=" ">
<path fill="none" stroke="#63b8ff" d="M1042.97,-78.58C1034.41,-78.49 1025.77,-78.41 1017.29,-78.33"/>
<polygon fill="#63b8ff" stroke="#63b8ff" points="1042.95,-82.08 1052.98,-78.67 1043.02,-75.08 1042.95,-82.08"/>
</a>
</g>
</g>
<!-- Node15&#45;&gt;Node9 -->
<g id="edge15_Node000015_Node000009" class="edge">
<title>Node15&#45;&gt;Node9</title>
<g id="a_edge15_Node000015_Node000009"><a xlink:title=" ">
<path fill="none" stroke="#63b8ff" d="M831.97,-90.89C823.41,-92.08 814.77,-93.28 806.29,-94.46"/>
<polygon fill="#63b8ff" stroke="#63b8ff" points="832.56,-94.35 841.98,-89.5 831.6,-87.41 832.56,-94.35"/>
</a>
</g>
</g>
<!-- Node17 -->
<g id="Node000017" class="node">
<title>Node17</title>
<g id="a_Node000017"><a xlink:href="classiii__drone_1_1control_1_1maneuver_1_1ManeuverScheduler.html#a3f6d63fc07809f25313347856ffdcd78" target="_top" xlink:title="The maneuver execution timer callback.">
<polygon fill="white" stroke="#666666" points="1454,-41 1264,-41 1264,0 1454,0 1454,-41"/>
<text text-anchor="start" x="1272" y="-29" font-family="Helvetica,sans-Serif" font-size="10.00">iii_drone::control</text>
<text text-anchor="start" x="1272" y="-18" font-family="Helvetica,sans-Serif" font-size="10.00">::maneuver::ManeuverScheduler</text>
<text text-anchor="middle" x="1359" y="-7" font-family="Helvetica,sans-Serif" font-size="10.00">::maneuverExecutionTimerCallback</text>
</a>
</g>
</g>
<!-- Node16&#45;&gt;Node17 -->
<g id="edge17_Node000016_Node000017" class="edge">
<title>Node16&#45;&gt;Node17</title>
<g id="a_edge17_Node000016_Node000017"><a xlink:title=" ">
<path fill="none" stroke="#63b8ff" d="M1492.4,-23.39C1479.8,-23.12 1466.91,-22.83 1454.35,-22.56"/>
<polygon fill="#63b8ff" stroke="#63b8ff" points="1492.35,-26.89 1502.42,-23.61 1492.5,-19.89 1492.35,-26.89"/>
</a>
</g>
</g>
<!-- Node18 -->
<g id="Node000018" class="node">
<title>Node18</title>
<g id="a_Node000018"><a xlink:href="classiii__drone_1_1control_1_1maneuver_1_1ManeuverScheduler.html#ab930f227bbd30171806a49ab06c4e3b8" target="_top" xlink:title="Constructor.">
<polygon fill="white" stroke="#666666" points="1228,-41 1053,-41 1053,0 1228,0 1228,-41"/>
<text text-anchor="start" x="1061" y="-29" font-family="Helvetica,sans-Serif" font-size="10.00">iii_drone::control</text>
<text text-anchor="start" x="1061" y="-18" font-family="Helvetica,sans-Serif" font-size="10.00">::maneuver::ManeuverScheduler</text>
<text text-anchor="middle" x="1140.5" y="-7" font-family="Helvetica,sans-Serif" font-size="10.00">::ManeuverScheduler</text>
</a>
</g>
</g>
<!-- Node17&#45;&gt;Node18 -->
<g id="edge18_Node000017_Node000018" class="edge">
<title>Node17&#45;&gt;Node18</title>
<g id="a_edge18_Node000017_Node000018"><a xlink:title=" ">
<path fill="none" stroke="#63b8ff" d="M1253.93,-20.5C1245.34,-20.5 1236.71,-20.5 1228.27,-20.5"/>
<polygon fill="#63b8ff" stroke="#63b8ff" points="1253.98,-24 1263.98,-20.5 1253.98,-17 1253.98,-24"/>
</a>
</g>
</g>
</g>
</svg>

<g id="navigator" transform="translate(0 0)" fill="#404254">
  <rect fill="#f2f5e9" fill-opacity="0.5" stroke="#606060" stroke-width=".5" x="0" y="0" width="60" height="60"/>
  <use id="zoomplus" xlink:href="#zoomPlus" x="17" y="9" onmousedown="handleZoom(evt,'in')"/>
  <use id="zoomminus" xlink:href="#zoomMin" x="42" y="9" onmousedown="handleZoom(evt,'out')"/>
  <use id="reset" xlink:href="#resetDef" x="30" y="36" onmousedown="handleReset()"/>
   <use id="arrowup" xlink:href="#arrowUp" x="0" y="0" onmousedown="handlePan(0,-1)"/>
  <use id="arrowright" xlink:href="#arrowRight" x="0" y="0" onmousedown="handlePan(1,0)"/>
  <use id="arrowdown" xlink:href="#arrowDown" x="0" y="0" onmousedown="handlePan(0,1)"/>
  <use id="arrowleft" xlink:href="#arrowLeft" x="0" y="0" onmousedown="handlePan(-1,0)"/>
</g>
<svg viewBox="0 0 15 15" width="100%" height="30px" preserveAspectRatio="xMaxYMin meet">
 <g id="arrow_out" transform="scale(0.3 0.3)">
  <a xlink:href="classiii__drone_1_1control_1_1maneuver_1_1Maneuver_a2a1dd737450465c565f5eba36e71ffad_icgraph_org.svg" target="_base">
   <rect id="button" ry="5" rx="5" y="6" x="6" height="38" width="38"
        fill="#f2f5e9" fill-opacity="0.5" stroke="#606060" stroke-width="1.0"/>
   <path id="arrow"
     d="M 11.500037,31.436501 C 11.940474,20.09759 22.043105,11.32322 32.158766,21.979434 L 37.068811,17.246167 C 37.068811,17.246167 37.088388,32 37.088388,32 L 22.160133,31.978069 C 22.160133,31.978069 26.997745,27.140456 26.997745,27.140456 C 18.528582,18.264221 13.291696,25.230495 11.500037,31.436501 z"
     style="fill:#404040;"/>
  </a>
 </g>
</svg>

<style type='text/css'>
<![CDATA[
[data-mouse-over-selected='false'] { opacity: 0.7; }
[data-mouse-over-selected='true']  { opacity: 1.0; }
]]>
</style>
<script type="application/ecmascript"><![CDATA[
document.addEventListener('DOMContentLoaded', (event) => {
  highlightEdges();
  highlightAdjacentNodes();
});
]]></script>
</svg>
