<?xml version="1.0" encoding="UTF-8" standalone="no"?>
<!DOCTYPE svg PUBLIC "-//W3C//DTD SVG 1.1//EN"
 "http://www.w3.org/Graphics/SVG/1.1/DTD/svg11.dtd">
<!-- Generated by graphviz version 2.43.0 (0)
 -->
<!-- Title: iii_drone::perception::Powerline::UpdateLine Pages: 1 -->
<svg width="502pt" height="230pt"
 viewBox="0.00 0.00 502.00 230.00" xmlns="http://www.w3.org/2000/svg" xmlns:xlink="http://www.w3.org/1999/xlink">
<g id="graph0" class="graph" transform="scale(1 1) rotate(0) translate(4 226)">
<title>iii_drone::perception::Powerline::UpdateLine</title>
<!-- Node1 -->
<g id="Node000001" class="node">
<title>Node1</title>
<g id="a_Node000001"><a xlink:title="Updates from a point. If match is found, runs the Kalman Filter update step for the matching line,...">
<polygon fill="#999999" stroke="#666666" points="132,-126 0,-126 0,-96 132,-96 132,-126"/>
<text text-anchor="start" x="8" y="-114" font-family="Helvetica,sans-Serif" font-size="10.00">iii_drone::perception</text>
<text text-anchor="middle" x="66" y="-103" font-family="Helvetica,sans-Serif" font-size="10.00">::Powerline::UpdateLine</text>
</a>
</g>
</g>
<!-- Node2 -->
<g id="Node000002" class="node">
<title>Node2</title>
<g id="a_Node000002"><a xlink:href="classiii__drone_1_1perception_1_1Powerline.html#a9b87d73cd3bd8843b500824d3dd029d8" target="_top" xlink:title="Finds the matching line for a point.">
<polygon fill="white" stroke="#666666" points="328,-222 168,-222 168,-192 328,-192 328,-222"/>
<text text-anchor="start" x="176" y="-210" font-family="Helvetica,sans-Serif" font-size="10.00">iii_drone::perception</text>
<text text-anchor="middle" x="248" y="-199" font-family="Helvetica,sans-Serif" font-size="10.00">::Powerline::findMatchingLine</text>
</a>
</g>
</g>
<!-- Node1&#45;&gt;Node2 -->
<g id="edge1_Node000001_Node000002" class="edge">
<title>Node1&#45;&gt;Node2</title>
<g id="a_edge1_Node000001_Node000002"><a xlink:title=" ">
<path fill="none" stroke="#63b8ff" d="M84.48,-126.17C103.77,-142.25 136.31,-167.41 168,-183 171.83,-184.89 175.85,-186.66 179.95,-188.32"/>
<polygon fill="#63b8ff" stroke="#63b8ff" points="179.02,-191.71 189.62,-191.99 181.51,-185.17 179.02,-191.71"/>
</a>
</g>
</g>
<!-- Node3 -->
<g id="Node000003" class="node">
<title>Node3</title>
<g id="a_Node000003"><a xlink:href="classiii__drone_1_1utils_1_1History.html#ad80957391e0cd45d17f023760daf0350" target="_top" xlink:title="Returns true if the history is full.">
<polygon fill="white" stroke="#666666" points="311.5,-174 184.5,-174 184.5,-144 311.5,-144 311.5,-174"/>
<text text-anchor="start" x="192.5" y="-162" font-family="Helvetica,sans-Serif" font-size="10.00">iii_drone::utils::History</text>
<text text-anchor="middle" x="248" y="-151" font-family="Helvetica,sans-Serif" font-size="10.00">::full</text>
</a>
</g>
</g>
<!-- Node1&#45;&gt;Node3 -->
<g id="edge2_Node000001_Node000003" class="edge">
<title>Node1&#45;&gt;Node3</title>
<g id="a_edge2_Node000001_Node000003"><a xlink:title=" ">
<path fill="none" stroke="#63b8ff" d="M123.46,-126.06C141.72,-130.93 162.13,-136.37 181.02,-141.41"/>
<polygon fill="#63b8ff" stroke="#63b8ff" points="180.18,-144.8 190.74,-144 181.98,-138.04 180.18,-144.8"/>
</a>
</g>
</g>
<!-- Node4 -->
<g id="Node000004" class="node">
<title>Node4</title>
<g id="a_Node000004"><a xlink:href="classiii__drone_1_1perception_1_1Powerline.html#a5a693a6ba3b403a06a85d150eae9ae38" target="_top" xlink:title="Projects a point onto the powerline projection plane.">
<polygon fill="white" stroke="#666666" points="315.5,-126 180.5,-126 180.5,-96 315.5,-96 315.5,-126"/>
<text text-anchor="start" x="188.5" y="-114" font-family="Helvetica,sans-Serif" font-size="10.00">iii_drone::perception</text>
<text text-anchor="middle" x="248" y="-103" font-family="Helvetica,sans-Serif" font-size="10.00">::Powerline::projectPoint</text>
</a>
</g>
</g>
<!-- Node1&#45;&gt;Node4 -->
<g id="edge3_Node000001_Node000004" class="edge">
<title>Node1&#45;&gt;Node4</title>
<g id="a_edge3_Node000001_Node000004"><a xlink:title=" ">
<path fill="none" stroke="#63b8ff" d="M132.24,-111C144.62,-111 157.69,-111 170.39,-111"/>
<polygon fill="#63b8ff" stroke="#63b8ff" points="170.47,-114.5 180.47,-111 170.47,-107.5 170.47,-114.5"/>
</a>
</g>
</g>
<!-- Node6 -->
<g id="Node000006" class="node">
<title>Node6</title>
<g id="a_Node000006"><a xlink:href="classiii__drone_1_1perception_1_1Powerline.html#aaf01bd6fa116d375dd13f236780aff61" target="_top" xlink:title="Registers a new line.">
<polygon fill="white" stroke="#666666" points="326,-78 170,-78 170,-48 326,-48 326,-78"/>
<text text-anchor="start" x="178" y="-66" font-family="Helvetica,sans-Serif" font-size="10.00">iii_drone::perception</text>
<text text-anchor="middle" x="248" y="-55" font-family="Helvetica,sans-Serif" font-size="10.00">::Powerline::registerNewLine</text>
</a>
</g>
</g>
<!-- Node1&#45;&gt;Node6 -->
<g id="edge5_Node000001_Node000006" class="edge">
<title>Node1&#45;&gt;Node6</title>
<g id="a_edge5_Node000001_Node000006"><a xlink:title=" ">
<path fill="none" stroke="#63b8ff" d="M123.46,-95.94C141.72,-91.07 162.13,-85.63 181.02,-80.59"/>
<polygon fill="#63b8ff" stroke="#63b8ff" points="181.98,-83.96 190.74,-78 180.18,-77.2 181.98,-83.96"/>
</a>
</g>
</g>
<!-- Node7 -->
<g id="Node000007" class="node">
<title>Node7</title>
<g id="a_Node000007"><a xlink:href="classiii__drone_1_1utils_1_1Timestamp.html#a373bc0de94c27153e2372c30f0eedbb1" target="_top" xlink:title="Updates the timestamp to now.">
<polygon fill="white" stroke="#666666" points="321.5,-30 174.5,-30 174.5,0 321.5,0 321.5,-30"/>
<text text-anchor="start" x="182.5" y="-18" font-family="Helvetica,sans-Serif" font-size="10.00">iii_drone::utils::Timestamp</text>
<text text-anchor="middle" x="248" y="-7" font-family="Helvetica,sans-Serif" font-size="10.00">::Update</text>
</a>
</g>
</g>
<!-- Node1&#45;&gt;Node7 -->
<g id="edge6_Node000001_Node000007" class="edge">
<title>Node1&#45;&gt;Node7</title>
<g id="a_edge6_Node000001_Node000007"><a xlink:title=" ">
<path fill="none" stroke="#63b8ff" d="M84.48,-95.83C103.77,-79.75 136.31,-54.59 168,-39 171.83,-37.11 175.85,-35.34 179.95,-33.68"/>
<polygon fill="#63b8ff" stroke="#63b8ff" points="181.51,-36.83 189.62,-30.01 179.02,-30.29 181.51,-36.83"/>
</a>
</g>
</g>
<!-- Node5 -->
<g id="Node000005" class="node">
<title>Node5</title>
<g id="a_Node000005"><a xlink:href="namespaceiii__drone_1_1math.html#aae5152700f4f75e55960b3a9d6962774" target="_top" xlink:title=" ">
<polygon fill="white" stroke="#666666" points="494,-126 364,-126 364,-96 494,-96 494,-126"/>
<text text-anchor="start" x="372" y="-114" font-family="Helvetica,sans-Serif" font-size="10.00">iii_drone::math::project</text>
<text text-anchor="middle" x="429" y="-103" font-family="Helvetica,sans-Serif" font-size="10.00">PointOnPlane</text>
</a>
</g>
</g>
<!-- Node4&#45;&gt;Node5 -->
<g id="edge4_Node000004_Node000005" class="edge">
<title>Node4&#45;&gt;Node5</title>
<g id="a_edge4_Node000004_Node000005"><a xlink:title=" ">
<path fill="none" stroke="#63b8ff" d="M315.65,-111C328.12,-111 341.23,-111 353.91,-111"/>
<polygon fill="#63b8ff" stroke="#63b8ff" points="353.97,-114.5 363.97,-111 353.97,-107.5 353.97,-114.5"/>
</a>
</g>
</g>
</g>
</svg>
