<?xml version="1.0" encoding="UTF-8" standalone="no"?>
<!DOCTYPE svg PUBLIC "-//W3C//DTD SVG 1.1//EN"
 "http://www.w3.org/Graphics/SVG/1.1/DTD/svg11.dtd">
<!-- Generated by graphviz version 2.43.0 (0)
 -->
<!-- Title: iii_drone::configuration::Configurator::parameterEventCallback Pages: 1 -->
<svg width="360pt" height="86pt"
 viewBox="0.00 0.00 360.00 86.00" xmlns="http://www.w3.org/2000/svg" xmlns:xlink="http://www.w3.org/1999/xlink">
<g id="graph0" class="graph" transform="scale(1 1) rotate(0) translate(4 82)">
<title>iii_drone::configuration::Configurator::parameterEventCallback</title>
<!-- Node1 -->
<g id="Node000001" class="node">
<title>Node1</title>
<g id="a_Node000001"><a xlink:title=" ">
<polygon fill="#999999" stroke="#666666" points="352,-59.5 185,-59.5 185,-18.5 352,-18.5 352,-59.5"/>
<text text-anchor="start" x="193" y="-47.5" font-family="Helvetica,sans-Serif" font-size="10.00">iii_drone::configuration</text>
<text text-anchor="start" x="193" y="-36.5" font-family="Helvetica,sans-Serif" font-size="10.00">::Configurator::parameterEvent</text>
<text text-anchor="middle" x="268.5" y="-25.5" font-family="Helvetica,sans-Serif" font-size="10.00">Callback</text>
</a>
</g>
</g>
<!-- Node2 -->
<g id="Node000002" class="node">
<title>Node2</title>
<g id="a_Node000002"><a xlink:href="classiii__drone_1_1configuration_1_1Configurator.html#ac2684c8a7d3c7a5aaa9eb545d78a772a" target="_top" xlink:title=" ">
<polygon fill="white" stroke="#666666" points="149,-78 0,-78 0,-48 149,-48 149,-78"/>
<text text-anchor="start" x="8" y="-66" font-family="Helvetica,sans-Serif" font-size="10.00">iii_drone::configuration</text>
<text text-anchor="middle" x="74.5" y="-55" font-family="Helvetica,sans-Serif" font-size="10.00">::Configurator::Configurator</text>
</a>
</g>
</g>
<!-- Node1&#45;&gt;Node2 -->
<g id="edge1_Node000001_Node000002" class="edge">
<title>Node1&#45;&gt;Node2</title>
<g id="a_edge1_Node000001_Node000002"><a xlink:title=" ">
<path fill="none" stroke="#63b8ff" d="M174.88,-50.58C166.26,-51.66 157.6,-52.74 149.19,-53.79"/>
<polygon fill="#63b8ff" stroke="#63b8ff" points="175.47,-54.03 184.96,-49.32 174.6,-47.08 175.47,-54.03"/>
</a>
</g>
</g>
<!-- Node3 -->
<g id="Node000003" class="node">
<title>Node3</title>
<g id="a_Node000003"><a xlink:href="classiii__drone_1_1configuration_1_1Configurator.html#a56e7d8118219092beeaeca5f21fc0c00" target="_top" xlink:title=" ">
<polygon fill="white" stroke="#666666" points="149,-30 0,-30 0,0 149,0 149,-30"/>
<text text-anchor="start" x="8" y="-18" font-family="Helvetica,sans-Serif" font-size="10.00">iii_drone::configuration</text>
<text text-anchor="middle" x="74.5" y="-7" font-family="Helvetica,sans-Serif" font-size="10.00">::Configurator::Configurator</text>
</a>
</g>
</g>
<!-- Node1&#45;&gt;Node3 -->
<g id="edge2_Node000001_Node000003" class="edge">
<title>Node1&#45;&gt;Node3</title>
<g id="a_edge2_Node000001_Node000003"><a xlink:title=" ">
<path fill="none" stroke="#63b8ff" d="M174.88,-27.42C166.26,-26.34 157.6,-25.26 149.19,-24.21"/>
<polygon fill="#63b8ff" stroke="#63b8ff" points="174.6,-30.92 184.96,-28.68 175.47,-23.97 174.6,-30.92"/>
</a>
</g>
</g>
</g>
</svg>
