<?xml version="1.0" encoding="UTF-8" standalone="no"?>
<!DOCTYPE svg PUBLIC "-//W3C//DTD SVG 1.1//EN"
 "http://www.w3.org/Graphics/SVG/1.1/DTD/svg11.dtd">
<!-- Generated by graphviz version 2.43.0 (0)
 -->
<!-- Title: iii_drone::control::State::State Pages: 1 -->
<svg width="287pt" height="268pt"
 viewBox="0.00 0.00 287.00 268.00" xmlns="http://www.w3.org/2000/svg" xmlns:xlink="http://www.w3.org/1999/xlink">
<g id="graph0" class="graph" transform="scale(1 1) rotate(0) translate(4 264)">
<title>iii_drone::control::State::State</title>
<!-- Node1 -->
<g id="Node000001" class="node">
<title>Node1</title>
<g id="a_Node000001"><a xlink:title=" ">
<polygon fill="#999999" stroke="#666666" points="98,-150 0,-150 0,-120 98,-120 98,-150"/>
<text text-anchor="start" x="8" y="-138" font-family="Helvetica,sans-Serif" font-size="10.00">iii_drone::control</text>
<text text-anchor="middle" x="49" y="-127" font-family="Helvetica,sans-Serif" font-size="10.00">::State::State</text>
</a>
</g>
</g>
<!-- Node2 -->
<g id="Node000002" class="node">
<title>Node2</title>
<g id="a_Node000002"><a xlink:href="classiii__drone_1_1control_1_1State.html#a205d6a8a2d57434cb7ea7c257c6647f6" target="_top" xlink:title=" ">
<polygon fill="white" stroke="#666666" points="274,-260 139,-260 139,-230 274,-230 274,-260"/>
<text text-anchor="start" x="147" y="-248" font-family="Helvetica,sans-Serif" font-size="10.00">iii_drone::control</text>
<text text-anchor="middle" x="206.5" y="-237" font-family="Helvetica,sans-Serif" font-size="10.00">::State::angular_velocity</text>
</a>
</g>
</g>
<!-- Node1&#45;&gt;Node2 -->
<g id="edge1_Node000001_Node000002" class="edge">
<title>Node1&#45;&gt;Node2</title>
<g id="a_edge1_Node000001_Node000002"><a xlink:title=" ">
<path fill="none" stroke="#63b8ff" d="M61.12,-150.21C75.81,-169.28 103.42,-201.81 134,-221 136.63,-222.65 139.39,-224.2 142.23,-225.66"/>
<polygon fill="#63b8ff" stroke="#63b8ff" points="140.97,-228.94 151.51,-229.99 143.93,-222.59 140.97,-228.94"/>
</a>
</g>
</g>
<!-- Node3 -->
<g id="Node000003" class="node">
<title>Node3</title>
<g id="a_Node000003"><a xlink:href="namespaceiii__drone_1_1math.html#a531ed4bd8183770d77ec20b37a8709c2" target="_top" xlink:title=" ">
<polygon fill="white" stroke="#666666" points="279,-211.5 134,-211.5 134,-192.5 279,-192.5 279,-211.5"/>
<text text-anchor="middle" x="206.5" y="-199.5" font-family="Helvetica,sans-Serif" font-size="10.00">iii_drone::math::eulToQuat</text>
</a>
</g>
</g>
<!-- Node1&#45;&gt;Node3 -->
<g id="edge2_Node000001_Node000003" class="edge">
<title>Node1&#45;&gt;Node3</title>
<g id="a_edge2_Node000001_Node000003"><a xlink:title=" ">
<path fill="none" stroke="#63b8ff" d="M72.71,-150.14C89.16,-160.55 112.25,-174.07 134,-183 139.85,-185.4 146.09,-187.58 152.36,-189.53"/>
<polygon fill="#63b8ff" stroke="#63b8ff" points="151.6,-192.96 162.18,-192.42 153.57,-186.24 151.6,-192.96"/>
</a>
</g>
</g>
<!-- Node4 -->
<g id="Node000004" class="node">
<title>Node4</title>
<g id="a_Node000004"><a xlink:href="classiii__drone_1_1control_1_1State.html#ac7d02a667c215a72d7f7f2fdf1501eb4" target="_top" xlink:title=" ">
<polygon fill="white" stroke="#666666" points="255.5,-174 157.5,-174 157.5,-144 255.5,-144 255.5,-174"/>
<text text-anchor="start" x="165.5" y="-162" font-family="Helvetica,sans-Serif" font-size="10.00">iii_drone::control</text>
<text text-anchor="middle" x="206.5" y="-151" font-family="Helvetica,sans-Serif" font-size="10.00">::State::position</text>
</a>
</g>
</g>
<!-- Node1&#45;&gt;Node4 -->
<g id="edge3_Node000001_Node000004" class="edge">
<title>Node1&#45;&gt;Node4</title>
<g id="a_edge3_Node000001_Node000004"><a xlink:title=" ">
<path fill="none" stroke="#63b8ff" d="M98.35,-142.46C113.93,-144.87 131.35,-147.56 147.55,-150.06"/>
<polygon fill="#63b8ff" stroke="#63b8ff" points="147.03,-153.52 157.45,-151.58 148.1,-146.6 147.03,-153.52"/>
</a>
</g>
</g>
<!-- Node5 -->
<g id="Node000005" class="node">
<title>Node5</title>
<g id="a_Node000005"><a xlink:href="classiii__drone_1_1control_1_1State.html#a065d4003d73520ba2e61af2912df6c6c" target="_top" xlink:title=" ">
<polygon fill="white" stroke="#666666" points="255.5,-126 157.5,-126 157.5,-96 255.5,-96 255.5,-126"/>
<text text-anchor="start" x="165.5" y="-114" font-family="Helvetica,sans-Serif" font-size="10.00">iii_drone::control</text>
<text text-anchor="middle" x="206.5" y="-103" font-family="Helvetica,sans-Serif" font-size="10.00">::State::stamp</text>
</a>
</g>
</g>
<!-- Node1&#45;&gt;Node5 -->
<g id="edge4_Node000001_Node000005" class="edge">
<title>Node1&#45;&gt;Node5</title>
<g id="a_edge4_Node000001_Node000005"><a xlink:title=" ">
<path fill="none" stroke="#63b8ff" d="M98.35,-127.54C113.93,-125.13 131.35,-122.44 147.55,-119.94"/>
<polygon fill="#63b8ff" stroke="#63b8ff" points="148.1,-123.4 157.45,-118.42 147.03,-116.48 148.1,-123.4"/>
</a>
</g>
</g>
<!-- Node6 -->
<g id="Node000006" class="node">
<title>Node6</title>
<g id="a_Node000006"><a xlink:href="classiii__drone_1_1control_1_1State.html#a0cf0c57ba34058c7ba14581c17e82f0b" target="_top" xlink:title=" ">
<polygon fill="white" stroke="#666666" points="255.5,-78 157.5,-78 157.5,-48 255.5,-48 255.5,-78"/>
<text text-anchor="start" x="165.5" y="-66" font-family="Helvetica,sans-Serif" font-size="10.00">iii_drone::control</text>
<text text-anchor="middle" x="206.5" y="-55" font-family="Helvetica,sans-Serif" font-size="10.00">::State::velocity</text>
</a>
</g>
</g>
<!-- Node1&#45;&gt;Node6 -->
<g id="edge5_Node000001_Node000006" class="edge">
<title>Node1&#45;&gt;Node6</title>
<g id="a_edge5_Node000001_Node000006"><a xlink:title=" ">
<path fill="none" stroke="#63b8ff" d="M73.61,-119.85C90.09,-109.69 112.85,-96.48 134,-87 138.4,-85.03 143.01,-83.13 147.68,-81.32"/>
<polygon fill="#63b8ff" stroke="#63b8ff" points="149.16,-84.5 157.31,-77.74 146.72,-77.94 149.16,-84.5"/>
</a>
</g>
</g>
<!-- Node7 -->
<g id="Node000007" class="node">
<title>Node7</title>
<g id="a_Node000007"><a xlink:href="classiii__drone_1_1control_1_1State.html#a9853d9f35c2c0ebf0976a472b2624dc2" target="_top" xlink:title=" ">
<polygon fill="white" stroke="#666666" points="255.5,-30 157.5,-30 157.5,0 255.5,0 255.5,-30"/>
<text text-anchor="start" x="165.5" y="-18" font-family="Helvetica,sans-Serif" font-size="10.00">iii_drone::control</text>
<text text-anchor="middle" x="206.5" y="-7" font-family="Helvetica,sans-Serif" font-size="10.00">::State::yaw</text>
</a>
</g>
</g>
<!-- Node1&#45;&gt;Node7 -->
<g id="edge6_Node000001_Node000007" class="edge">
<title>Node1&#45;&gt;Node7</title>
<g id="a_edge6_Node000001_Node000007"><a xlink:title=" ">
<path fill="none" stroke="#63b8ff" d="M59.51,-119.78C73.4,-98.73 101.2,-60.86 134,-39 138.32,-36.12 143.01,-33.56 147.86,-31.29"/>
<polygon fill="#63b8ff" stroke="#63b8ff" points="149.48,-34.4 157.31,-27.26 146.74,-27.96 149.48,-34.4"/>
</a>
</g>
</g>
</g>
</svg>
