<?xml version="1.0" encoding="UTF-8" standalone="no"?>
<!DOCTYPE svg PUBLIC "-//W3C//DTD SVG 1.1//EN"
 "http://www.w3.org/Graphics/SVG/1.1/DTD/svg11.dtd">
<!-- Generated by graphviz version 2.43.0 (0)
 -->
<!-- Title: iii_drone::control::maneuver::ManeuverScheduler::progressScheduler Pages: 1 -->
<svg width="788pt" height="1002pt"
 viewBox="0.00 0.00 788.00 1002.00" xmlns="http://www.w3.org/2000/svg" xmlns:xlink="http://www.w3.org/1999/xlink">
<g id="graph0" class="graph" transform="scale(1 1) rotate(0) translate(4 998)">
<title>iii_drone::control::maneuver::ManeuverScheduler::progressScheduler</title>
<!-- Node1 -->
<g id="Node000001" class="node">
<title>Node1</title>
<g id="a_Node000001"><a xlink:title="Progresses the scheduler. If a maneuver is executing, evaluates whether it has terminated....">
<polygon fill="#999999" stroke="#666666" points="175,-525 0,-525 0,-484 175,-484 175,-525"/>
<text text-anchor="start" x="8" y="-513" font-family="Helvetica,sans-Serif" font-size="10.00">iii_drone::control</text>
<text text-anchor="start" x="8" y="-502" font-family="Helvetica,sans-Serif" font-size="10.00">::maneuver::ManeuverScheduler</text>
<text text-anchor="middle" x="87.5" y="-491" font-family="Helvetica,sans-Serif" font-size="10.00">::progressScheduler</text>
</a>
</g>
</g>
<!-- Node2 -->
<g id="Node000002" class="node">
<title>Node2</title>
<g id="a_Node000002"><a xlink:href="classiii__drone_1_1control_1_1maneuver_1_1ManeuverScheduler.html#a4c24958fe841dcbccfb6385f38f28ec2" target="_top" xlink:title="Cancels all pending maneuvers.">
<polygon fill="white" stroke="#666666" points="398,-994 223,-994 223,-953 398,-953 398,-994"/>
<text text-anchor="start" x="231" y="-982" font-family="Helvetica,sans-Serif" font-size="10.00">iii_drone::control</text>
<text text-anchor="start" x="231" y="-971" font-family="Helvetica,sans-Serif" font-size="10.00">::maneuver::ManeuverScheduler</text>
<text text-anchor="middle" x="310.5" y="-960" font-family="Helvetica,sans-Serif" font-size="10.00">::cancelAllPendingManeuvers</text>
</a>
</g>
</g>
<!-- Node1&#45;&gt;Node2 -->
<g id="edge1_Node000001_Node000002" class="edge">
<title>Node1&#45;&gt;Node2</title>
<g id="a_edge1_Node000001_Node000002"><a xlink:title=" ">
<path fill="none" stroke="#63b8ff" d="M87.71,-525.4C86.27,-595.25 91.35,-823.06 211,-944.5 212.09,-945.61 213.23,-946.68 214.4,-947.71"/>
<polygon fill="#63b8ff" stroke="#63b8ff" points="212.53,-950.68 222.61,-953.93 216.75,-945.1 212.53,-950.68"/>
</a>
</g>
</g>
<!-- Node4 -->
<g id="Node000004" class="node">
<title>Node4</title>
<g id="a_Node000004"><a xlink:href="classiii__drone_1_1control_1_1maneuver_1_1Maneuver.html#a562b9288530756542998d6454984c5ba" target="_top" xlink:title="Creation time getter.">
<polygon fill="white" stroke="#666666" points="374,-935 247,-935 247,-894 374,-894 374,-935"/>
<text text-anchor="start" x="255" y="-923" font-family="Helvetica,sans-Serif" font-size="10.00">iii_drone::control</text>
<text text-anchor="start" x="255" y="-912" font-family="Helvetica,sans-Serif" font-size="10.00">::maneuver::Maneuver</text>
<text text-anchor="middle" x="310.5" y="-901" font-family="Helvetica,sans-Serif" font-size="10.00">::creation_time</text>
</a>
</g>
</g>
<!-- Node1&#45;&gt;Node4 -->
<g id="edge3_Node000001_Node000004" class="edge">
<title>Node1&#45;&gt;Node4</title>
<g id="a_edge3_Node000001_Node000004"><a xlink:title=" ">
<path fill="none" stroke="#63b8ff" d="M89.15,-525.15C92.24,-587.48 109.89,-775.76 211,-879.5 218.52,-887.21 227.84,-893.23 237.73,-897.92"/>
<polygon fill="#63b8ff" stroke="#63b8ff" points="236.36,-901.15 246.93,-901.87 239.12,-894.71 236.36,-901.15"/>
</a>
</g>
</g>
<!-- Node5 -->
<g id="Node000005" class="node">
<title>Node5</title>
<g id="a_Node000005"><a xlink:href="classiii__drone_1_1utils_1_1Token.html#a534f125dc6d51a1f1432f2f973d1ba78" target="_top" xlink:title="Denies all pending token requests, to be called by the master.">
<polygon fill="white" stroke="#666666" points="595,-882.5 476,-882.5 476,-852.5 595,-852.5 595,-882.5"/>
<text text-anchor="start" x="484" y="-870.5" font-family="Helvetica,sans-Serif" font-size="10.00">iii_drone::utils::Token</text>
<text text-anchor="middle" x="535.5" y="-859.5" font-family="Helvetica,sans-Serif" font-size="10.00">::DenyAll</text>
</a>
</g>
</g>
<!-- Node1&#45;&gt;Node5 -->
<g id="edge4_Node000001_Node000005" class="edge">
<title>Node1&#45;&gt;Node5</title>
<g id="a_edge4_Node000001_Node000005"><a xlink:title=" ">
<path fill="none" stroke="#63b8ff" d="M88.67,-525.06C90.42,-586.01 104.73,-766.41 211,-846.5 249.72,-875.68 382.88,-875.1 465.8,-871.59"/>
<polygon fill="#63b8ff" stroke="#63b8ff" points="466.07,-875.08 475.91,-871.14 465.76,-868.09 466.07,-875.08"/>
</a>
</g>
</g>
<!-- Node7 -->
<g id="Node000007" class="node">
<title>Node7</title>
<g id="a_Node000007"><a xlink:href="classiii__drone_1_1utils_1_1Token.html#af1b934282b509c6e59f521b59afaf9ed" target="_top" xlink:title="Gives the token to a slave, to be called by the master.">
<polygon fill="white" stroke="#666666" points="370,-837.5 251,-837.5 251,-807.5 370,-807.5 370,-837.5"/>
<text text-anchor="start" x="259" y="-825.5" font-family="Helvetica,sans-Serif" font-size="10.00">iii_drone::utils::Token</text>
<text text-anchor="middle" x="310.5" y="-814.5" font-family="Helvetica,sans-Serif" font-size="10.00">::Give</text>
</a>
</g>
</g>
<!-- Node1&#45;&gt;Node7 -->
<g id="edge6_Node000001_Node000007" class="edge">
<title>Node1&#45;&gt;Node7</title>
<g id="a_edge6_Node000001_Node000007"><a xlink:title=" ">
<path fill="none" stroke="#63b8ff" d="M91.16,-525.1C99.08,-577.87 127.41,-718.98 211,-793.5 219.64,-801.21 230.25,-806.87 241.25,-811.03"/>
<polygon fill="#63b8ff" stroke="#63b8ff" points="240.4,-814.44 250.99,-814.31 242.63,-807.8 240.4,-814.44"/>
</a>
</g>
</g>
<!-- Node10 -->
<g id="Node000010" class="node">
<title>Node10</title>
<g id="a_Node000010"><a xlink:href="classiii__drone_1_1control_1_1maneuver_1_1Maneuver.html#a0b7b01d9ab27db008c54f7ef0099fcd0" target="_top" xlink:title="Goal handle getter.">
<polygon fill="white" stroke="#666666" points="599,-610 472,-610 472,-569 599,-569 599,-610"/>
<text text-anchor="start" x="480" y="-598" font-family="Helvetica,sans-Serif" font-size="10.00">iii_drone::control</text>
<text text-anchor="start" x="480" y="-587" font-family="Helvetica,sans-Serif" font-size="10.00">::maneuver::Maneuver</text>
<text text-anchor="middle" x="535.5" y="-576" font-family="Helvetica,sans-Serif" font-size="10.00">::goal_handle</text>
</a>
</g>
</g>
<!-- Node1&#45;&gt;Node10 -->
<g id="edge10_Node000001_Node000010" class="edge">
<title>Node1&#45;&gt;Node10</title>
<g id="a_edge10_Node000001_Node000010"><a xlink:title=" ">
<path fill="none" stroke="#63b8ff" d="M91.08,-525.26C98.66,-576.17 125.96,-706.92 211,-760.5 285.83,-807.65 331.18,-800.61 410,-760.5 468.05,-730.96 505.43,-660.26 522.91,-619.62"/>
<polygon fill="#63b8ff" stroke="#63b8ff" points="526.21,-620.8 526.83,-610.22 519.75,-618.11 526.21,-620.8"/>
</a>
</g>
</g>
<!-- Node11 -->
<g id="Node000011" class="node">
<title>Node11</title>
<g id="a_Node000011"><a xlink:href="classiii__drone_1_1utils_1_1Token.html#a123a191aca29aeaff842a0d4a227564d" target="_top" xlink:title="Whether a slave has requested the token.">
<polygon fill="white" stroke="#666666" points="373.5,-751.5 247.5,-751.5 247.5,-721.5 373.5,-721.5 373.5,-751.5"/>
<text text-anchor="start" x="255.5" y="-739.5" font-family="Helvetica,sans-Serif" font-size="10.00">iii_drone::utils::Token</text>
<text text-anchor="middle" x="310.5" y="-728.5" font-family="Helvetica,sans-Serif" font-size="10.00">::has_requested_token</text>
</a>
</g>
</g>
<!-- Node1&#45;&gt;Node11 -->
<g id="edge11_Node000001_Node000011" class="edge">
<title>Node1&#45;&gt;Node11</title>
<g id="a_edge11_Node000001_Node000011"><a xlink:title=" ">
<path fill="none" stroke="#63b8ff" d="M94.56,-525.03C108.09,-567.13 144.89,-663.4 211,-712.5 218.95,-718.4 228.16,-722.87 237.69,-726.25"/>
<polygon fill="#63b8ff" stroke="#63b8ff" points="236.71,-729.61 247.3,-729.28 238.82,-722.93 236.71,-729.61"/>
</a>
</g>
</g>
<!-- Node12 -->
<g id="Node000012" class="node">
<title>Node12</title>
<g id="a_Node000012"><a xlink:href="classiii__drone_1_1control_1_1maneuver_1_1ManeuverSchedulerParameters.html#a73804427ed223a4d558be2ed5cff2a02" target="_top" xlink:title="Get the period for executing maneuvers.">
<polygon fill="white" stroke="#666666" points="400.5,-703.5 220.5,-703.5 220.5,-651.5 400.5,-651.5 400.5,-703.5"/>
<text text-anchor="start" x="228.5" y="-691.5" font-family="Helvetica,sans-Serif" font-size="10.00">iii_drone::control</text>
<text text-anchor="start" x="228.5" y="-680.5" font-family="Helvetica,sans-Serif" font-size="10.00">::maneuver::ManeuverScheduler</text>
<text text-anchor="start" x="228.5" y="-669.5" font-family="Helvetica,sans-Serif" font-size="10.00">Parameters::maneuver_execution</text>
<text text-anchor="middle" x="310.5" y="-658.5" font-family="Helvetica,sans-Serif" font-size="10.00">_period_ms</text>
</a>
</g>
</g>
<!-- Node1&#45;&gt;Node12 -->
<g id="edge12_Node000001_Node000012" class="edge">
<title>Node1&#45;&gt;Node12</title>
<g id="a_edge12_Node000001_Node000012"><a xlink:title=" ">
<path fill="none" stroke="#63b8ff" d="M101.84,-525.24C122.05,-555.14 163.18,-610.27 211,-642.5 213.11,-643.92 215.28,-645.29 217.5,-646.61"/>
<polygon fill="#63b8ff" stroke="#63b8ff" points="215.85,-649.69 226.29,-651.46 219.23,-643.57 215.85,-649.69"/>
</a>
</g>
</g>
<!-- Node13 -->
<g id="Node000013" class="node">
<title>Node13</title>
<g id="a_Node000013"><a xlink:href="classiii__drone_1_1control_1_1maneuver_1_1ManeuverSchedulerParameters.html#ac43259193c169d7b3016c82de5083e69" target="_top" xlink:title="Get the timeout duration for updating a maneuver after registering.">
<polygon fill="white" stroke="#666666" points="398,-633.5 223,-633.5 223,-581.5 398,-581.5 398,-633.5"/>
<text text-anchor="start" x="231" y="-621.5" font-family="Helvetica,sans-Serif" font-size="10.00">iii_drone::control</text>
<text text-anchor="start" x="231" y="-610.5" font-family="Helvetica,sans-Serif" font-size="10.00">::maneuver::ManeuverScheduler</text>
<text text-anchor="start" x="231" y="-599.5" font-family="Helvetica,sans-Serif" font-size="10.00">Parameters::maneuver_register</text>
<text text-anchor="middle" x="310.5" y="-588.5" font-family="Helvetica,sans-Serif" font-size="10.00">_update_timeout_s</text>
</a>
</g>
</g>
<!-- Node1&#45;&gt;Node13 -->
<g id="edge13_Node000001_Node000013" class="edge">
<title>Node1&#45;&gt;Node13</title>
<g id="a_edge13_Node000001_Node000013"><a xlink:title=" ">
<path fill="none" stroke="#63b8ff" d="M122.04,-525.1C146.24,-539.46 179.96,-558.49 211,-572.5 214.86,-574.24 218.84,-575.96 222.88,-577.64"/>
<polygon fill="#63b8ff" stroke="#63b8ff" points="221.8,-580.98 232.38,-581.49 224.43,-574.49 221.8,-580.98"/>
</a>
</g>
</g>
<!-- Node14 -->
<g id="Node000014" class="node">
<title>Node14</title>
<g id="a_Node000014"><a xlink:href="classiii__drone_1_1control_1_1maneuver_1_1ManeuverSchedulerParameters.html#a9bbbf6df2460f1d187486693516b5d23" target="_top" xlink:title="Get the timeout duration for the server to start executing a maneuver after Start() has been called.">
<polygon fill="white" stroke="#666666" points="398,-563.5 223,-563.5 223,-511.5 398,-511.5 398,-563.5"/>
<text text-anchor="start" x="231" y="-551.5" font-family="Helvetica,sans-Serif" font-size="10.00">iii_drone::control</text>
<text text-anchor="start" x="231" y="-540.5" font-family="Helvetica,sans-Serif" font-size="10.00">::maneuver::ManeuverScheduler</text>
<text text-anchor="start" x="231" y="-529.5" font-family="Helvetica,sans-Serif" font-size="10.00">Parameters::maneuver_start</text>
<text text-anchor="middle" x="310.5" y="-518.5" font-family="Helvetica,sans-Serif" font-size="10.00">_timeout_s</text>
</a>
</g>
</g>
<!-- Node1&#45;&gt;Node14 -->
<g id="edge14_Node000001_Node000014" class="edge">
<title>Node1&#45;&gt;Node14</title>
<g id="a_edge14_Node000001_Node000014"><a xlink:title=" ">
<path fill="none" stroke="#63b8ff" d="M175.21,-517.45C187.52,-519.29 200.24,-521.19 212.73,-523.05"/>
<polygon fill="#63b8ff" stroke="#63b8ff" points="212.27,-526.52 222.68,-524.54 213.3,-519.6 212.27,-526.52"/>
</a>
</g>
</g>
<!-- Node15 -->
<g id="Node000015" class="node">
<title>Node15</title>
<g id="a_Node000015"><a xlink:href="classiii__drone_1_1control_1_1maneuver_1_1Maneuver.html#a2a1dd737450465c565f5eba36e71ffad" target="_top" xlink:title="Maneuver type getter.">
<polygon fill="white" stroke="#666666" points="374,-493 247,-493 247,-452 374,-452 374,-493"/>
<text text-anchor="start" x="255" y="-481" font-family="Helvetica,sans-Serif" font-size="10.00">iii_drone::control</text>
<text text-anchor="start" x="255" y="-470" font-family="Helvetica,sans-Serif" font-size="10.00">::maneuver::Maneuver</text>
<text text-anchor="middle" x="310.5" y="-459" font-family="Helvetica,sans-Serif" font-size="10.00">::maneuver_type</text>
</a>
</g>
</g>
<!-- Node1&#45;&gt;Node15 -->
<g id="edge15_Node000001_Node000015" class="edge">
<title>Node1&#45;&gt;Node15</title>
<g id="a_edge15_Node000001_Node000015"><a xlink:title=" ">
<path fill="none" stroke="#63b8ff" d="M175.21,-491.94C195.6,-488.99 217.12,-485.88 236.82,-483.02"/>
<polygon fill="#63b8ff" stroke="#63b8ff" points="237.55,-486.45 246.94,-481.56 236.55,-479.53 237.55,-486.45"/>
</a>
</g>
</g>
<!-- Node16 -->
<g id="Node000016" class="node">
<title>Node16</title>
<g id="a_Node000016"><a xlink:href="classiii__drone_1_1control_1_1maneuver_1_1ManeuverScheduler.html#ab46a10b4f9d526b6e3c2df89c33f78be" target="_top" xlink:title="Get whether a maneuver is being executed or pending.">
<polygon fill="white" stroke="#666666" points="399.5,-218 221.5,-218 221.5,-177 399.5,-177 399.5,-218"/>
<text text-anchor="start" x="229.5" y="-206" font-family="Helvetica,sans-Serif" font-size="10.00">iii_drone::control</text>
<text text-anchor="start" x="229.5" y="-195" font-family="Helvetica,sans-Serif" font-size="10.00">::maneuver::ManeuverScheduler</text>
<text text-anchor="middle" x="310.5" y="-184" font-family="Helvetica,sans-Serif" font-size="10.00">::maneuverIsExecutingOrPending</text>
</a>
</g>
</g>
<!-- Node1&#45;&gt;Node16 -->
<g id="edge16_Node000001_Node000016" class="edge">
<title>Node1&#45;&gt;Node16</title>
<g id="a_edge16_Node000001_Node000016"><a xlink:title=" ">
<path fill="none" stroke="#63b8ff" d="M91.67,-483.66C100.59,-432.3 130.71,-298.64 211,-227.5 212.51,-226.17 214.07,-224.89 215.68,-223.67"/>
<polygon fill="#63b8ff" stroke="#63b8ff" points="217.75,-226.5 224.13,-218.05 213.86,-220.68 217.75,-226.5"/>
</a>
</g>
</g>
<!-- Node18 -->
<g id="Node000018" class="node">
<title>Node18</title>
<g id="a_Node000018"><a xlink:href="classiii__drone_1_1utils_1_1Token.html#a7f242bea6b8c01922066812119e6d5d1" target="_top" xlink:title="Whether the token is held by the master.">
<polygon fill="white" stroke="#666666" points="370,-374.5 251,-374.5 251,-344.5 370,-344.5 370,-374.5"/>
<text text-anchor="start" x="259" y="-362.5" font-family="Helvetica,sans-Serif" font-size="10.00">iii_drone::utils::Token</text>
<text text-anchor="middle" x="310.5" y="-351.5" font-family="Helvetica,sans-Serif" font-size="10.00">::master_has_token</text>
</a>
</g>
</g>
<!-- Node1&#45;&gt;Node18 -->
<g id="edge18_Node000001_Node000018" class="edge">
<title>Node1&#45;&gt;Node18</title>
<g id="a_edge18_Node000001_Node000018"><a xlink:title=" ">
<path fill="none" stroke="#63b8ff" d="M103.89,-483.73C125.01,-456.72 165.58,-410.02 211,-384.5 220.21,-379.33 230.5,-375.21 240.86,-371.93"/>
<polygon fill="#63b8ff" stroke="#63b8ff" points="242.16,-375.2 250.78,-369.04 240.2,-368.47 242.16,-375.2"/>
</a>
</g>
</g>
<!-- Node19 -->
<g id="Node000019" class="node">
<title>Node19</title>
<g id="a_Node000019"><a xlink:href="classiii__drone_1_1control_1_1maneuver_1_1ManeuverSchedulerParameters.html#ac36fb1c35ddd2f43d613e58be53e7c7e" target="_top" xlink:title="Get the number of seconds without a maneuver before the scheduler goes from hovering to idle.">
<polygon fill="white" stroke="#666666" points="410,-326 211,-326 211,-285 410,-285 410,-326"/>
<text text-anchor="start" x="219" y="-314" font-family="Helvetica,sans-Serif" font-size="10.00">iii_drone::control</text>
<text text-anchor="start" x="219" y="-303" font-family="Helvetica,sans-Serif" font-size="10.00">::maneuver::ManeuverScheduler</text>
<text text-anchor="middle" x="310.5" y="-292" font-family="Helvetica,sans-Serif" font-size="10.00">Parameters::no_maneuver_idle_cnt_s</text>
</a>
</g>
</g>
<!-- Node1&#45;&gt;Node19 -->
<g id="edge19_Node000001_Node000019" class="edge">
<title>Node1&#45;&gt;Node19</title>
<g id="a_edge19_Node000001_Node000019"><a xlink:title=" ">
<path fill="none" stroke="#63b8ff" d="M97.96,-483.72C115.26,-448.05 155.39,-375.17 211,-335.5 213.16,-333.96 215.41,-332.49 217.72,-331.1"/>
<polygon fill="#63b8ff" stroke="#63b8ff" points="219.81,-333.95 226.91,-326.09 216.46,-327.8 219.81,-333.95"/>
</a>
</g>
</g>
<!-- Node20 -->
<g id="Node000020" class="node">
<title>Node20</title>
<g id="a_Node000020"><a xlink:href="classiii__drone_1_1control_1_1maneuver_1_1ManeuverQueue.html#aace2908f0d1cd5365227ef5ac313d95d" target="_top" xlink:title="Pops an item from the queue.">
<polygon fill="white" stroke="#666666" points="401.5,-266.5 219.5,-266.5 219.5,-236.5 401.5,-236.5 401.5,-266.5"/>
<text text-anchor="start" x="227.5" y="-254.5" font-family="Helvetica,sans-Serif" font-size="10.00">iii_drone::control</text>
<text text-anchor="middle" x="310.5" y="-243.5" font-family="Helvetica,sans-Serif" font-size="10.00">::maneuver::ManeuverQueue::Pop</text>
</a>
</g>
</g>
<!-- Node1&#45;&gt;Node20 -->
<g id="edge20_Node000001_Node000020" class="edge">
<title>Node1&#45;&gt;Node20</title>
<g id="a_edge20_Node000001_Node000020"><a xlink:title=" ">
<path fill="none" stroke="#63b8ff" d="M93.47,-483.67C105.4,-438.35 140.08,-330.46 211,-275.5 212.81,-274.1 214.69,-272.78 216.62,-271.53"/>
<polygon fill="#63b8ff" stroke="#63b8ff" points="218.47,-274.51 225.46,-266.54 215.03,-268.41 218.47,-274.51"/>
</a>
</g>
</g>
<!-- Node21 -->
<g id="Node000021" class="node">
<title>Node21</title>
<g id="a_Node000021"><a xlink:href="classiii__drone_1_1control_1_1maneuver_1_1Maneuver.html#a326847216fc83f70e8e2e14c4d766df0" target="_top" xlink:title="Triggers the maneuver to start by calling the underlying execute function on the goal handle.">
<polygon fill="white" stroke="#666666" points="374,-434 247,-434 247,-393 374,-393 374,-434"/>
<text text-anchor="start" x="255" y="-422" font-family="Helvetica,sans-Serif" font-size="10.00">iii_drone::control</text>
<text text-anchor="start" x="255" y="-411" font-family="Helvetica,sans-Serif" font-size="10.00">::maneuver::Maneuver</text>
<text text-anchor="middle" x="310.5" y="-400" font-family="Helvetica,sans-Serif" font-size="10.00">::Start</text>
</a>
</g>
</g>
<!-- Node1&#45;&gt;Node21 -->
<g id="edge22_Node000001_Node000021" class="edge">
<title>Node1&#45;&gt;Node21</title>
<g id="a_edge22_Node000001_Node000021"><a xlink:title=" ">
<path fill="none" stroke="#63b8ff" d="M125.83,-483.88C149.72,-471.19 181.64,-455.19 211,-443.5 219.42,-440.15 228.36,-436.95 237.29,-433.97"/>
<polygon fill="#63b8ff" stroke="#63b8ff" points="238.53,-437.25 246.95,-430.83 236.36,-430.6 238.53,-437.25"/>
</a>
</g>
</g>
<!-- Node22 -->
<g id="Node000022" class="node">
<title>Node22</title>
<g id="a_Node000022"><a xlink:href="classiii__drone_1_1control_1_1maneuver_1_1Maneuver.html#a24304ffcd95c3bbdcd0395d7485820c5" target="_top" xlink:title="Start time getter.">
<polygon fill="white" stroke="#666666" points="374,-159 247,-159 247,-118 374,-118 374,-159"/>
<text text-anchor="start" x="255" y="-147" font-family="Helvetica,sans-Serif" font-size="10.00">iii_drone::control</text>
<text text-anchor="start" x="255" y="-136" font-family="Helvetica,sans-Serif" font-size="10.00">::maneuver::Maneuver</text>
<text text-anchor="middle" x="310.5" y="-125" font-family="Helvetica,sans-Serif" font-size="10.00">::start_time</text>
</a>
</g>
</g>
<!-- Node1&#45;&gt;Node22 -->
<g id="edge24_Node000001_Node000022" class="edge">
<title>Node1&#45;&gt;Node22</title>
<g id="a_edge24_Node000001_Node000022"><a xlink:title=" ">
<path fill="none" stroke="#63b8ff" d="M89.78,-483.6C94.53,-424.83 116.18,-256.59 211,-167.5 218.53,-160.42 227.7,-155.07 237.39,-151.01"/>
<polygon fill="#63b8ff" stroke="#63b8ff" points="238.64,-154.28 246.79,-147.51 236.2,-147.72 238.64,-154.28"/>
</a>
</g>
</g>
<!-- Node23 -->
<g id="Node000023" class="node">
<title>Node23</title>
<g id="a_Node000023"><a xlink:href="classiii__drone_1_1control_1_1maneuver_1_1Maneuver.html#a8788992c198b7547518561a5ab184406" target="_top" xlink:title="Getter for the success flag.">
<polygon fill="white" stroke="#666666" points="374,-100 247,-100 247,-59 374,-59 374,-100"/>
<text text-anchor="start" x="255" y="-88" font-family="Helvetica,sans-Serif" font-size="10.00">iii_drone::control</text>
<text text-anchor="start" x="255" y="-77" font-family="Helvetica,sans-Serif" font-size="10.00">::maneuver::Maneuver</text>
<text text-anchor="middle" x="310.5" y="-66" font-family="Helvetica,sans-Serif" font-size="10.00">::success</text>
</a>
</g>
</g>
<!-- Node1&#45;&gt;Node23 -->
<g id="edge25_Node000001_Node000023" class="edge">
<title>Node1&#45;&gt;Node23</title>
<g id="a_edge25_Node000001_Node000023"><a xlink:title=" ">
<path fill="none" stroke="#63b8ff" d="M88.47,-483.85C89.54,-418.8 101.87,-216.14 211,-108.5 218.45,-101.15 227.67,-95.64 237.45,-91.52"/>
<polygon fill="#63b8ff" stroke="#63b8ff" points="238.81,-94.75 246.96,-87.99 236.37,-88.19 238.81,-94.75"/>
</a>
</g>
</g>
<!-- Node24 -->
<g id="Node000024" class="node">
<title>Node24</title>
<g id="a_Node000024"><a xlink:href="classiii__drone_1_1control_1_1maneuver_1_1Maneuver.html#a6e8c99e2bd771ee723136e06611b19ff" target="_top" xlink:title="Getter for the termianted flag.">
<polygon fill="white" stroke="#666666" points="374,-41 247,-41 247,0 374,0 374,-41"/>
<text text-anchor="start" x="255" y="-29" font-family="Helvetica,sans-Serif" font-size="10.00">iii_drone::control</text>
<text text-anchor="start" x="255" y="-18" font-family="Helvetica,sans-Serif" font-size="10.00">::maneuver::Maneuver</text>
<text text-anchor="middle" x="310.5" y="-7" font-family="Helvetica,sans-Serif" font-size="10.00">::terminated</text>
</a>
</g>
</g>
<!-- Node1&#45;&gt;Node24 -->
<g id="edge26_Node000001_Node000024" class="edge">
<title>Node1&#45;&gt;Node24</title>
<g id="a_edge26_Node000001_Node000024"><a xlink:title=" ">
<path fill="none" stroke="#63b8ff" d="M91.36,-483.86C102.84,-403.63 148.12,-113.87 211,-49.5 218.36,-41.96 227.58,-36.36 237.4,-32.2"/>
<polygon fill="#63b8ff" stroke="#63b8ff" points="238.81,-35.41 246.95,-28.64 236.36,-28.85 238.81,-35.41"/>
</a>
</g>
</g>
<!-- Node3 -->
<g id="Node000003" class="node">
<title>Node3</title>
<g id="a_Node000003"><a xlink:href="classiii__drone_1_1control_1_1maneuver_1_1ManeuverQueue.html#afc039e2eeb8e4587c1bdb1a61f664739" target="_top" xlink:title="Clears the queue.">
<polygon fill="white" stroke="#666666" points="614.5,-994 456.5,-994 456.5,-953 614.5,-953 614.5,-994"/>
<text text-anchor="start" x="464.5" y="-982" font-family="Helvetica,sans-Serif" font-size="10.00">iii_drone::control</text>
<text text-anchor="start" x="464.5" y="-971" font-family="Helvetica,sans-Serif" font-size="10.00">::maneuver::ManeuverQueue</text>
<text text-anchor="middle" x="535.5" y="-960" font-family="Helvetica,sans-Serif" font-size="10.00">::Clear</text>
</a>
</g>
</g>
<!-- Node2&#45;&gt;Node3 -->
<g id="edge2_Node000002_Node000003" class="edge">
<title>Node2&#45;&gt;Node3</title>
<g id="a_edge2_Node000002_Node000003"><a xlink:title=" ">
<path fill="none" stroke="#63b8ff" d="M398.04,-973.5C413.8,-973.5 430.27,-973.5 446.09,-973.5"/>
<polygon fill="#63b8ff" stroke="#63b8ff" points="446.38,-977 456.38,-973.5 446.38,-970 446.38,-977"/>
</a>
</g>
</g>
<!-- Node6 -->
<g id="Node000006" class="node">
<title>Node6</title>
<g id="a_Node000006"><a xlink:href="classiii__drone_1_1utils_1_1Token.html#a057c789e1b27853924392e4a029d84b8" target="_top" xlink:title="Is master.">
<polygon fill="white" stroke="#666666" points="780,-882.5 661,-882.5 661,-852.5 780,-852.5 780,-882.5"/>
<text text-anchor="start" x="669" y="-870.5" font-family="Helvetica,sans-Serif" font-size="10.00">iii_drone::utils::Token</text>
<text text-anchor="middle" x="720.5" y="-859.5" font-family="Helvetica,sans-Serif" font-size="10.00">::is_master</text>
</a>
</g>
</g>
<!-- Node5&#45;&gt;Node6 -->
<g id="edge5_Node000005_Node000006" class="edge">
<title>Node5&#45;&gt;Node6</title>
<g id="a_edge5_Node000005_Node000006"><a xlink:title=" ">
<path fill="none" stroke="#63b8ff" d="M595.16,-867.5C612.89,-867.5 632.51,-867.5 650.84,-867.5"/>
<polygon fill="#63b8ff" stroke="#63b8ff" points="650.86,-871 660.86,-867.5 650.86,-864 650.86,-871"/>
</a>
</g>
</g>
<!-- Node8 -->
<g id="Node000008" class="node">
<title>Node8</title>
<g id="a_Node000008"><a xlink:href="classiii__drone_1_1utils_1_1Token.html#ac7a559ecadf3304f332d4ad32422ab34" target="_top" xlink:title="Answers a slave acquisition request.">
<polygon fill="white" stroke="#666666" points="625,-834.5 446,-834.5 446,-804.5 625,-804.5 625,-834.5"/>
<text text-anchor="start" x="454" y="-822.5" font-family="Helvetica,sans-Serif" font-size="10.00">iii_drone::utils::Token</text>
<text text-anchor="middle" x="535.5" y="-811.5" font-family="Helvetica,sans-Serif" font-size="10.00">::answerSlaveAcquisitionRequest</text>
</a>
</g>
</g>
<!-- Node7&#45;&gt;Node8 -->
<g id="edge7_Node000007_Node000008" class="edge">
<title>Node7&#45;&gt;Node8</title>
<g id="a_edge7_Node000007_Node000008"><a xlink:title=" ">
<path fill="none" stroke="#63b8ff" d="M370.09,-821.71C390.12,-821.44 413.12,-821.13 435.44,-820.83"/>
<polygon fill="#63b8ff" stroke="#63b8ff" points="435.69,-824.33 445.64,-820.7 435.59,-817.33 435.69,-824.33"/>
</a>
</g>
</g>
<!-- Node8&#45;&gt;Node6 -->
<g id="edge9_Node000008_Node000006" class="edge">
<title>Node8&#45;&gt;Node6</title>
<g id="a_edge9_Node000008_Node000006"><a xlink:title=" ">
<path fill="none" stroke="#63b8ff" d="M593.9,-834.56C612.47,-839.43 633.22,-844.87 652.42,-849.91"/>
<polygon fill="#63b8ff" stroke="#63b8ff" points="651.74,-853.35 662.3,-852.5 653.52,-846.57 651.74,-853.35"/>
</a>
</g>
</g>
<!-- Node9 -->
<g id="Node000009" class="node">
<title>Node9</title>
<g id="a_Node000009"><a xlink:href="classiii__drone_1_1utils_1_1Token.html#af0160e7c7f1f4c358ce903f3490c1026" target="_top" xlink:title="Whether the token is held by the calling thread.">
<polygon fill="white" stroke="#666666" points="780,-834.5 661,-834.5 661,-804.5 780,-804.5 780,-834.5"/>
<text text-anchor="start" x="669" y="-822.5" font-family="Helvetica,sans-Serif" font-size="10.00">iii_drone::utils::Token</text>
<text text-anchor="middle" x="720.5" y="-811.5" font-family="Helvetica,sans-Serif" font-size="10.00">::has_token</text>
</a>
</g>
</g>
<!-- Node8&#45;&gt;Node9 -->
<g id="edge8_Node000008_Node000009" class="edge">
<title>Node8&#45;&gt;Node9</title>
<g id="a_edge8_Node000008_Node000009"><a xlink:title=" ">
<path fill="none" stroke="#63b8ff" d="M625.05,-819.5C633.68,-819.5 642.34,-819.5 650.73,-819.5"/>
<polygon fill="#63b8ff" stroke="#63b8ff" points="650.81,-823 660.81,-819.5 650.81,-816 650.81,-823"/>
</a>
</g>
</g>
<!-- Node17 -->
<g id="Node000017" class="node">
<title>Node17</title>
<g id="a_Node000017"><a xlink:href="classiii__drone_1_1control_1_1maneuver_1_1ManeuverQueue.html#a6ba6788f60421f28a651fcefadf2361d" target="_top" xlink:title="Whether the queue is empty.">
<polygon fill="white" stroke="#666666" points="614.5,-245 456.5,-245 456.5,-204 614.5,-204 614.5,-245"/>
<text text-anchor="start" x="464.5" y="-233" font-family="Helvetica,sans-Serif" font-size="10.00">iii_drone::control</text>
<text text-anchor="start" x="464.5" y="-222" font-family="Helvetica,sans-Serif" font-size="10.00">::maneuver::ManeuverQueue</text>
<text text-anchor="middle" x="535.5" y="-211" font-family="Helvetica,sans-Serif" font-size="10.00">::empty</text>
</a>
</g>
</g>
<!-- Node16&#45;&gt;Node17 -->
<g id="edge17_Node000016_Node000017" class="edge">
<title>Node16&#45;&gt;Node17</title>
<g id="a_edge17_Node000016_Node000017"><a xlink:title=" ">
<path fill="none" stroke="#63b8ff" d="M399.64,-208.17C415.02,-210.03 431.02,-211.97 446.39,-213.83"/>
<polygon fill="#63b8ff" stroke="#63b8ff" points="446.05,-217.32 456.4,-215.04 446.89,-210.37 446.05,-217.32"/>
</a>
</g>
</g>
<!-- Node20&#45;&gt;Node17 -->
<g id="edge21_Node000020_Node000017" class="edge">
<title>Node20&#45;&gt;Node17</title>
<g id="a_edge21_Node000020_Node000017"><a xlink:title=" ">
<path fill="none" stroke="#63b8ff" d="M401.56,-240.6C416.29,-238.81 431.54,-236.97 446.23,-235.19"/>
<polygon fill="#63b8ff" stroke="#63b8ff" points="446.79,-238.65 456.3,-233.97 445.95,-231.7 446.79,-238.65"/>
</a>
</g>
</g>
<!-- Node21&#45;&gt;Node10 -->
<g id="edge23_Node000021_Node000010" class="edge">
<title>Node21&#45;&gt;Node10</title>
<g id="a_edge23_Node000021_Node000010"><a xlink:title=" ">
<path fill="none" stroke="#63b8ff" d="M374.07,-426.69C386.56,-430.91 399.16,-436.4 410,-443.5 456.6,-474.05 495.46,-527.01 516.8,-560.05"/>
<polygon fill="#63b8ff" stroke="#63b8ff" points="514.03,-562.23 522.34,-568.81 519.95,-558.49 514.03,-562.23"/>
</a>
</g>
</g>
</g>
</svg>
