<?xml version="1.0" encoding="UTF-8" standalone="no"?>
<!DOCTYPE svg PUBLIC "-//W3C//DTD SVG 1.1//EN"
 "http://www.w3.org/Graphics/SVG/1.1/DTD/svg11.dtd">
<!-- Generated by graphviz version 2.43.0 (0)
 -->
<!-- Title: iii_drone::adapters::PointCloudAdapter::points Pages: 1 -->
<svg width="561pt" height="167pt"
 viewBox="0.00 0.00 561.00 167.00" xmlns="http://www.w3.org/2000/svg" xmlns:xlink="http://www.w3.org/1999/xlink">
<g id="graph0" class="graph" transform="scale(1 1) rotate(0) translate(4 163)">
<title>iii_drone::adapters::PointCloudAdapter::points</title>
<!-- Node1 -->
<g id="Node000001" class="node">
<title>Node1</title>
<g id="a_Node000001"><a xlink:title="Point cloud data getter.">
<polygon fill="#999999" stroke="#666666" points="553,-100 440,-100 440,-59 553,-59 553,-100"/>
<text text-anchor="start" x="448" y="-88" font-family="Helvetica,sans-Serif" font-size="10.00">iii_drone::adapters</text>
<text text-anchor="start" x="448" y="-77" font-family="Helvetica,sans-Serif" font-size="10.00">::PointCloudAdapter</text>
<text text-anchor="middle" x="496.5" y="-66" font-family="Helvetica,sans-Serif" font-size="10.00">::points</text>
</a>
</g>
</g>
<!-- Node2 -->
<g id="Node000002" class="node">
<title>Node2</title>
<g id="a_Node000002"><a xlink:href="classiii__drone_1_1perception_1_1pl__mapper__node_1_1PowerlineMapperNode.html#a155acd1e412911b7e8cf989e949a2e2f" target="_top" xlink:title="Callback for mmwave data topic.">
<polygon fill="white" stroke="#666666" points="404,-159 231,-159 231,-118 404,-118 404,-159"/>
<text text-anchor="start" x="239" y="-147" font-family="Helvetica,sans-Serif" font-size="10.00">iii_drone::perception</text>
<text text-anchor="start" x="239" y="-136" font-family="Helvetica,sans-Serif" font-size="10.00">::pl_mapper_node::Powerline</text>
<text text-anchor="middle" x="317.5" y="-125" font-family="Helvetica,sans-Serif" font-size="10.00">MapperNode::mmWaveCallback</text>
</a>
</g>
</g>
<!-- Node1&#45;&gt;Node2 -->
<g id="edge1_Node000001_Node000002" class="edge">
<title>Node1&#45;&gt;Node2</title>
<g id="a_edge1_Node000001_Node000002"><a xlink:title=" ">
<path fill="none" stroke="#63b8ff" d="M430.48,-101.17C414.08,-106.64 396.52,-112.49 380.29,-117.9"/>
<polygon fill="#63b8ff" stroke="#63b8ff" points="431.6,-104.49 439.98,-98.01 429.39,-97.85 431.6,-104.49"/>
</a>
</g>
</g>
<!-- Node4 -->
<g id="Node000004" class="node">
<title>Node4</title>
<g id="a_Node000004"><a xlink:href="classiii__drone_1_1adapters_1_1PointCloudAdapter.html#a6e701f75e0c829e58ee194c8be33e155" target="_top" xlink:title="Constructor.">
<polygon fill="white" stroke="#666666" points="374,-100 261,-100 261,-59 374,-59 374,-100"/>
<text text-anchor="start" x="269" y="-88" font-family="Helvetica,sans-Serif" font-size="10.00">iii_drone::adapters</text>
<text text-anchor="start" x="269" y="-77" font-family="Helvetica,sans-Serif" font-size="10.00">::PointCloudAdapter</text>
<text text-anchor="middle" x="317.5" y="-66" font-family="Helvetica,sans-Serif" font-size="10.00">::PointCloudAdapter</text>
</a>
</g>
</g>
<!-- Node1&#45;&gt;Node4 -->
<g id="edge3_Node000001_Node000004" class="edge">
<title>Node1&#45;&gt;Node4</title>
<g id="a_edge3_Node000001_Node000004"><a xlink:title=" ">
<path fill="none" stroke="#63b8ff" d="M429.95,-79.5C411.61,-79.5 391.84,-79.5 374.13,-79.5"/>
<polygon fill="#63b8ff" stroke="#63b8ff" points="429.98,-83 439.98,-79.5 429.98,-76 429.98,-83"/>
</a>
</g>
</g>
<!-- Node5 -->
<g id="Node000005" class="node">
<title>Node5</title>
<g id="a_Node000005"><a xlink:href="classiii__drone_1_1adapters_1_1PointCloudAdapter.html#a917bfe0a995ba8ba6f921baa65eca5e6" target="_top" xlink:title="Reads points from a ROS2 message.">
<polygon fill="white" stroke="#666666" points="374,-41 261,-41 261,0 374,0 374,-41"/>
<text text-anchor="start" x="269" y="-29" font-family="Helvetica,sans-Serif" font-size="10.00">iii_drone::adapters</text>
<text text-anchor="start" x="269" y="-18" font-family="Helvetica,sans-Serif" font-size="10.00">::PointCloudAdapter</text>
<text text-anchor="middle" x="317.5" y="-7" font-family="Helvetica,sans-Serif" font-size="10.00">::readPoints</text>
</a>
</g>
</g>
<!-- Node1&#45;&gt;Node5 -->
<g id="edge4_Node000001_Node000005" class="edge">
<title>Node1&#45;&gt;Node5</title>
<g id="a_edge4_Node000001_Node000005"><a xlink:title=" ">
<path fill="none" stroke="#63b8ff" d="M430.46,-57.82C411.97,-51.66 392,-45 374.13,-39.04"/>
<polygon fill="#63b8ff" stroke="#63b8ff" points="429.39,-61.15 439.98,-60.99 431.6,-54.51 429.39,-61.15"/>
</a>
</g>
</g>
<!-- Node3 -->
<g id="Node000003" class="node">
<title>Node3</title>
<g id="a_Node000003"><a xlink:href="classiii__drone_1_1perception_1_1pl__mapper__node_1_1PowerlineMapperNode.html#a703ae72ba683ae11154ce597b8bbad9d" target="_top" xlink:title="Constructor.">
<polygon fill="white" stroke="#666666" points="195,-159 0,-159 0,-118 195,-118 195,-159"/>
<text text-anchor="start" x="8" y="-147" font-family="Helvetica,sans-Serif" font-size="10.00">iii_drone::perception</text>
<text text-anchor="start" x="8" y="-136" font-family="Helvetica,sans-Serif" font-size="10.00">::pl_mapper_node::Powerline</text>
<text text-anchor="middle" x="97.5" y="-125" font-family="Helvetica,sans-Serif" font-size="10.00">MapperNode::PowerlineMapperNode</text>
</a>
</g>
</g>
<!-- Node2&#45;&gt;Node3 -->
<g id="edge2_Node000002_Node000003" class="edge">
<title>Node2&#45;&gt;Node3</title>
<g id="a_edge2_Node000002_Node000003"><a xlink:title=" ">
<path fill="none" stroke="#63b8ff" d="M220.75,-138.5C212.32,-138.5 203.78,-138.5 195.34,-138.5"/>
<polygon fill="#63b8ff" stroke="#63b8ff" points="220.97,-142 230.97,-138.5 220.97,-135 220.97,-142"/>
</a>
</g>
</g>
<!-- Node6 -->
<g id="Node000006" class="node">
<title>Node6</title>
<g id="a_Node000006"><a xlink:href="classiii__drone_1_1adapters_1_1PointCloudAdapter.html#ac41555cbcad8392d7befd751dabc4949" target="_top" xlink:title="Constructor from ROS2 message.">
<polygon fill="white" stroke="#666666" points="154,-41 41,-41 41,0 154,0 154,-41"/>
<text text-anchor="start" x="49" y="-29" font-family="Helvetica,sans-Serif" font-size="10.00">iii_drone::adapters</text>
<text text-anchor="start" x="49" y="-18" font-family="Helvetica,sans-Serif" font-size="10.00">::PointCloudAdapter</text>
<text text-anchor="middle" x="97.5" y="-7" font-family="Helvetica,sans-Serif" font-size="10.00">::PointCloudAdapter</text>
</a>
</g>
</g>
<!-- Node5&#45;&gt;Node6 -->
<g id="edge5_Node000005_Node000006" class="edge">
<title>Node5&#45;&gt;Node6</title>
<g id="a_edge5_Node000005_Node000006"><a xlink:title=" ">
<path fill="none" stroke="#63b8ff" d="M250.72,-20.5C219.98,-20.5 183.75,-20.5 154.35,-20.5"/>
<polygon fill="#63b8ff" stroke="#63b8ff" points="250.93,-24 260.93,-20.5 250.93,-17 250.93,-24"/>
</a>
</g>
</g>
</g>
</svg>
