<?xml version="1.0" encoding="UTF-8" standalone="no"?>
<!DOCTYPE svg PUBLIC "-//W3C//DTD SVG 1.1//EN"
 "http://www.w3.org/Graphics/SVG/1.1/DTD/svg11.dtd">
<!-- Generated by graphviz version 2.43.0 (0)
 -->
<!-- Title: iii_drone::adapters::ReferenceAdapter Pages: 1 -->
<svg width="135pt" height="490pt"
 viewBox="0.00 0.00 135.00 490.00" xmlns="http://www.w3.org/2000/svg" xmlns:xlink="http://www.w3.org/1999/xlink">
<g id="graph0" class="graph" transform="scale(1 1) rotate(0) translate(4 486)">
<title>iii_drone::adapters::ReferenceAdapter</title>
<!-- Node1 -->
<g id="Node000001" class="node">
<title>Node1</title>
<g id="a_Node000001"><a xlink:title="Class for adapting the III&#45;Drone&#45;Core::Reference to the III&#45;Drone&#45;Interfaces::Reference.">
<polygon fill="#999999" stroke="transparent" points="127,-150 0,-150 0,0 127,0 127,-150"/>
<text text-anchor="start" x="17" y="-138" font-family="Helvetica,sans-Serif" font-size="10.00">iii_drone::adapters</text>
<text text-anchor="start" x="17" y="-127" font-family="Helvetica,sans-Serif" font-size="10.00">::ReferenceAdapter</text>
<text text-anchor="start" x="62" y="-112" font-family="Helvetica,sans-Serif" font-size="10.00"> </text>
<text text-anchor="start" x="4.5" y="-97" font-family="Helvetica,sans-Serif" font-size="10.00">+</text>
<text text-anchor="start" x="17.5" y="-97" font-family="Helvetica,sans-Serif" font-size="10.00">ReferenceAdapter()</text>
<text text-anchor="start" x="4.5" y="-82" font-family="Helvetica,sans-Serif" font-size="10.00">+</text>
<text text-anchor="start" x="17.5" y="-82" font-family="Helvetica,sans-Serif" font-size="10.00">ReferenceAdapter()</text>
<text text-anchor="start" x="4.5" y="-67" font-family="Helvetica,sans-Serif" font-size="10.00">+</text>
<text text-anchor="start" x="17.5" y="-67" font-family="Helvetica,sans-Serif" font-size="10.00">ReferenceAdapter()</text>
<text text-anchor="start" x="4.5" y="-52" font-family="Helvetica,sans-Serif" font-size="10.00">+</text>
<text text-anchor="start" x="17.5" y="-52" font-family="Helvetica,sans-Serif" font-size="10.00">ReferenceAdapter()</text>
<text text-anchor="start" x="4.5" y="-37" font-family="Helvetica,sans-Serif" font-size="10.00">+</text>
<text text-anchor="start" x="17.5" y="-37" font-family="Helvetica,sans-Serif" font-size="10.00">ToMsg()</text>
<text text-anchor="start" x="4.5" y="-22" font-family="Helvetica,sans-Serif" font-size="10.00">+</text>
<text text-anchor="start" x="17.5" y="-22" font-family="Helvetica,sans-Serif" font-size="10.00">ToPoseStampedMsg()</text>
<text text-anchor="start" x="4.5" y="-7" font-family="Helvetica,sans-Serif" font-size="10.00">+</text>
<text text-anchor="start" x="17.5" y="-7" font-family="Helvetica,sans-Serif" font-size="10.00">reference()</text>
<polygon fill="#666666" stroke="#666666" points="0.5,-122 0.5,-122 127.5,-122 127.5,-122 0.5,-122"/>
<polygon fill="#666666" stroke="#666666" points="0.5,-107 0.5,-107 127.5,-107 127.5,-107 0.5,-107"/>
<polygon fill="none" stroke="#666666" points="0,0 0,-150 127,-150 127,0 0,0"/>
</a>
</g>
</g>
<!-- Node2 -->
<g id="Node000002" class="node">
<title>Node2</title>
<g id="a_Node000002"><a xlink:href="classiii__drone_1_1control_1_1Reference.html" target="_top" xlink:title=" ">
<polygon fill="white" stroke="transparent" points="121,-482 6,-482 6,-197 121,-197 121,-482"/>
<text text-anchor="start" x="23" y="-469.5" font-family="Helvetica,sans-Serif" font-size="10.00">iii_drone::control</text>
<text text-anchor="start" x="36" y="-458.5" font-family="Helvetica,sans-Serif" font-size="10.00">::Reference</text>
<text text-anchor="start" x="13" y="-443.5" font-family="Helvetica,sans-Serif" font-size="10.00">&#45;</text>
<text text-anchor="start" x="23.5" y="-443.5" font-family="Helvetica,sans-Serif" font-size="10.00">position_</text>
<text text-anchor="start" x="13" y="-428.5" font-family="Helvetica,sans-Serif" font-size="10.00">&#45;</text>
<text text-anchor="start" x="23.5" y="-428.5" font-family="Helvetica,sans-Serif" font-size="10.00">yaw_</text>
<text text-anchor="start" x="13" y="-413.5" font-family="Helvetica,sans-Serif" font-size="10.00">&#45;</text>
<text text-anchor="start" x="23.5" y="-413.5" font-family="Helvetica,sans-Serif" font-size="10.00">velocity_</text>
<text text-anchor="start" x="13" y="-398.5" font-family="Helvetica,sans-Serif" font-size="10.00">&#45;</text>
<text text-anchor="start" x="23.5" y="-398.5" font-family="Helvetica,sans-Serif" font-size="10.00">yaw_rate_</text>
<text text-anchor="start" x="13" y="-383.5" font-family="Helvetica,sans-Serif" font-size="10.00">&#45;</text>
<text text-anchor="start" x="23.5" y="-383.5" font-family="Helvetica,sans-Serif" font-size="10.00">acceleration_</text>
<text text-anchor="start" x="13" y="-368.5" font-family="Helvetica,sans-Serif" font-size="10.00">&#45;</text>
<text text-anchor="start" x="23.5" y="-368.5" font-family="Helvetica,sans-Serif" font-size="10.00">yaw_acceleration_</text>
<text text-anchor="start" x="13" y="-353.5" font-family="Helvetica,sans-Serif" font-size="10.00">&#45;</text>
<text text-anchor="start" x="23.5" y="-353.5" font-family="Helvetica,sans-Serif" font-size="10.00">stamp_</text>
<text text-anchor="start" x="10.5" y="-338.5" font-family="Helvetica,sans-Serif" font-size="10.00">+</text>
<text text-anchor="start" x="23.5" y="-338.5" font-family="Helvetica,sans-Serif" font-size="10.00">Reference()</text>
<text text-anchor="start" x="10.5" y="-323.5" font-family="Helvetica,sans-Serif" font-size="10.00">+</text>
<text text-anchor="start" x="23.5" y="-323.5" font-family="Helvetica,sans-Serif" font-size="10.00">Reference()</text>
<text text-anchor="start" x="10.5" y="-308.5" font-family="Helvetica,sans-Serif" font-size="10.00">+</text>
<text text-anchor="start" x="23.5" y="-308.5" font-family="Helvetica,sans-Serif" font-size="10.00">Reference()</text>
<text text-anchor="start" x="10.5" y="-293.5" font-family="Helvetica,sans-Serif" font-size="10.00">+</text>
<text text-anchor="start" x="23.5" y="-293.5" font-family="Helvetica,sans-Serif" font-size="10.00">position()</text>
<text text-anchor="start" x="10.5" y="-278.5" font-family="Helvetica,sans-Serif" font-size="10.00">+</text>
<text text-anchor="start" x="23.5" y="-278.5" font-family="Helvetica,sans-Serif" font-size="10.00">yaw()</text>
<text text-anchor="start" x="10.5" y="-263.5" font-family="Helvetica,sans-Serif" font-size="10.00">+</text>
<text text-anchor="start" x="23.5" y="-263.5" font-family="Helvetica,sans-Serif" font-size="10.00">velocity()</text>
<text text-anchor="start" x="10.5" y="-248.5" font-family="Helvetica,sans-Serif" font-size="10.00">+</text>
<text text-anchor="start" x="23.5" y="-248.5" font-family="Helvetica,sans-Serif" font-size="10.00">yaw_rate()</text>
<text text-anchor="start" x="10.5" y="-233.5" font-family="Helvetica,sans-Serif" font-size="10.00">+</text>
<text text-anchor="start" x="23.5" y="-233.5" font-family="Helvetica,sans-Serif" font-size="10.00">acceleration()</text>
<text text-anchor="start" x="10.5" y="-218.5" font-family="Helvetica,sans-Serif" font-size="10.00">+</text>
<text text-anchor="start" x="23.5" y="-218.5" font-family="Helvetica,sans-Serif" font-size="10.00">yaw_acceleration()</text>
<text text-anchor="start" x="10.5" y="-203.5" font-family="Helvetica,sans-Serif" font-size="10.00">+</text>
<text text-anchor="start" x="23.5" y="-203.5" font-family="Helvetica,sans-Serif" font-size="10.00">stamp()</text>
<polygon fill="#666666" stroke="#666666" points="6.5,-453.5 6.5,-453.5 121.5,-453.5 121.5,-453.5 6.5,-453.5"/>
<polygon fill="#666666" stroke="#666666" points="6.5,-348.5 6.5,-348.5 21.5,-348.5 21.5,-348.5 6.5,-348.5"/>
<polygon fill="#666666" stroke="#666666" points="21.5,-348.5 21.5,-348.5 121.5,-348.5 121.5,-348.5 21.5,-348.5"/>
<polygon fill="none" stroke="#666666" points="6,-197 6,-482 121,-482 121,-197 6,-197"/>
</a>
</g>
</g>
<!-- Node2&#45;&gt;Node1 -->
<g id="edge1_Node000001_Node000002" class="edge">
<title>Node2&#45;&gt;Node1</title>
<g id="a_edge1_Node000001_Node000002"><a xlink:title=" ">
<path fill="none" stroke="#63b8ff" d="M63.5,-196.88C63.5,-185.18 63.5,-173.59 63.5,-162.48"/>
<polygon fill="none" stroke="#63b8ff" points="63.5,-162.17 59.5,-156.17 63.5,-150.17 67.5,-156.17 63.5,-162.17"/>
</a>
</g>
<text text-anchor="middle" x="93" y="-171" font-family="Helvetica,sans-Serif" font-size="10.00" fill="grey"> &#45;reference_</text>
</g>
</g>
</svg>
