<?xml version="1.0" encoding="UTF-8" standalone="no"?>
<!DOCTYPE svg PUBLIC "-//W3C//DTD SVG 1.1//EN"
 "http://www.w3.org/Graphics/SVG/1.1/DTD/svg11.dtd">
<!-- Generated by graphviz version 2.43.0 (0)
 -->
<!-- Title: iii_drone::adapters::PointCloudAdapter::ToMsg Pages: 1 -->
<!--zoomable 108 -->

<svg id="main" version="1.1" xmlns="http://www.w3.org/2000/svg" xmlns:xlink="http://www.w3.org/1999/xlink" xml:space="preserve" onload="init(evt)">
<style type="text/css"><![CDATA[
.node, .edge {opacity: 0.7;}
.node.selected, .edge.selected {opacity: 1;}
.edge:hover path { stroke: red; }
.edge:hover polygon { stroke: red; fill: red; }
]]></style>

<defs>
  <circle id="rim" cx="0" cy="0" r="7"/>
  <circle id="rim2" cx="0" cy="0" r="3.5"/>
  <g id="zoomPlus">
    <use xlink:href="#rim" fill="#404040"><set attributeName="fill" to="#808080" begin="zoomplus.mouseover" end="zoomplus.mouseout"/></use>
    <path d="M-4,0h8M0,-4v8" fill="none" stroke="white" stroke-width="1.5" pointer-events="none"/>
  </g>
  <g id="zoomMin">
    <use xlink:href="#rim" fill="#404040"><set attributeName="fill" to="#808080" begin="zoomminus.mouseover" end="zoomminus.mouseout"/></use>
    <path d="M-4,0h8" fill="none" stroke="white" stroke-width="1.5" pointer-events="none"/>
  </g>
  <g id="arrowUp" transform="translate(30 24)">
    <use xlink:href="#rim"/>
    <path pointer-events="none" fill="none" stroke="white" stroke-width="1.5" d="M0,-3.0v7 M-2.5,-0.5L0,-3.0L2.5,-0.5"/>
  </g>
  <g id="arrowRight" transform="rotate(90) translate(36 -43)">
    <use xlink:href="#rim"/>
    <path pointer-events="none" fill="none" stroke="white" stroke-width="1.5" d="M0,-3.0v7 M-2.5,-0.5L0,-3.0L2.5,-0.5"/>
  </g>
  <g id="arrowDown" transform="rotate(180) translate(-30 -48)">
    <use xlink:href="#rim"/>
    <path pointer-events="none" fill="none" stroke="white" stroke-width="1.5" d="M0,-3.0v7 M-2.5,-0.5L0,-3.0L2.5,-0.5"/>
  </g>
  <g id="arrowLeft" transform="rotate(270) translate(-36 17)">
    <use xlink:href="#rim"/>
    <path pointer-events="none" fill="none" stroke="white" stroke-width="1.5" d="M0,-3.0v7 M-2.5,-0.5L0,-3.0L2.5,-0.5"/>
  </g>
  <g id="resetDef">
    <use xlink:href="#rim2" fill="#404040"><set attributeName="fill" to="#808080" begin="reset.mouseover" end="reset.mouseout"/></use>
  </g>
</defs>
<script type="application/ecmascript">
var viewWidth = 766;
var viewHeight = 108;
var sectionId = 'dynsection-8';
</script>
<script type="application/ecmascript" xlink:href="svg.min.js"/>
<svg id="graph" class="graph">
<g id="viewport">
<title>iii_drone::adapters::PointCloudAdapter::ToMsg</title>
<!-- Node1 -->
<g id="Node000001" class="node">
<title>Node1</title>
<g id="a_Node000001"><a xlink:title="Convert to ROS2 message.">
<polygon fill="#999999" stroke="#666666" points="758,-70 645,-70 645,-29 758,-29 758,-70"/>
<text text-anchor="start" x="653" y="-58" font-family="Helvetica,sans-Serif" font-size="10.00">iii_drone::adapters</text>
<text text-anchor="start" x="653" y="-47" font-family="Helvetica,sans-Serif" font-size="10.00">::PointCloudAdapter</text>
<text text-anchor="middle" x="701.5" y="-36" font-family="Helvetica,sans-Serif" font-size="10.00">::ToMsg</text>
</a>
</g>
</g>
<!-- Node2 -->
<g id="Node000002" class="node">
<title>Node2</title>
<g id="a_Node000002"><a xlink:href="classiii__drone_1_1perception_1_1pl__mapper__node_1_1PowerlineMapperNode.html#ab169bb89cd56cc2d80d1888a38196c0d" target="_top" xlink:title="Publishes point cloud data on a given publisher.">
<polygon fill="white" stroke="#666666" points="604,-100 446,-100 446,-59 604,-59 604,-100"/>
<text text-anchor="start" x="454" y="-88" font-family="Helvetica,sans-Serif" font-size="10.00">iii_drone::perception</text>
<text text-anchor="start" x="454" y="-77" font-family="Helvetica,sans-Serif" font-size="10.00">::pl_mapper_node::Powerline</text>
<text text-anchor="middle" x="525" y="-66" font-family="Helvetica,sans-Serif" font-size="10.00">MapperNode::publishPoints</text>
</a>
</g>
</g>
<!-- Node1&#45;&gt;Node2 -->
<g id="edge1_Node000001_Node000002" class="edge">
<title>Node1&#45;&gt;Node2</title>
<g id="a_edge1_Node000001_Node000002"><a xlink:title=" ">
<path fill="none" stroke="#63b8ff" d="M634.9,-60.78C624.84,-62.51 614.37,-64.31 604.07,-66.08"/>
<polygon fill="#63b8ff" stroke="#63b8ff" points="635.54,-64.22 644.81,-59.07 634.36,-57.32 635.54,-64.22"/>
</a>
</g>
</g>
<!-- Node5 -->
<g id="Node000005" class="node">
<title>Node5</title>
<g id="a_Node000005"><a xlink:href="classiii__drone_1_1perception_1_1pl__mapper__node_1_1PowerlineMapperNode.html#ae63deed15fc864af363d4a3b3ef76ae1" target="_top" xlink:title="Publishes the powerline message.">
<polygon fill="white" stroke="#666666" points="609,-41 441,-41 441,0 609,0 609,-41"/>
<text text-anchor="start" x="449" y="-29" font-family="Helvetica,sans-Serif" font-size="10.00">iii_drone::perception</text>
<text text-anchor="start" x="449" y="-18" font-family="Helvetica,sans-Serif" font-size="10.00">::pl_mapper_node::Powerline</text>
<text text-anchor="middle" x="525" y="-7" font-family="Helvetica,sans-Serif" font-size="10.00">MapperNode::publishPowerline</text>
</a>
</g>
</g>
<!-- Node1&#45;&gt;Node5 -->
<g id="edge4_Node000001_Node000005" class="edge">
<title>Node1&#45;&gt;Node5</title>
<g id="a_edge4_Node000001_Node000005"><a xlink:title=" ">
<path fill="none" stroke="#63b8ff" d="M634.76,-38.58C626.39,-37.18 617.74,-35.75 609.15,-34.32"/>
<polygon fill="#63b8ff" stroke="#63b8ff" points="634.37,-42.06 644.81,-40.24 635.52,-35.15 634.37,-42.06"/>
</a>
</g>
</g>
<!-- Node3 -->
<g id="Node000003" class="node">
<title>Node3</title>
<g id="a_Node000003"><a xlink:href="classiii__drone_1_1perception_1_1pl__mapper__node_1_1PowerlineMapperNode.html#a155acd1e412911b7e8cf989e949a2e2f" target="_top" xlink:title="Callback for mmwave data topic.">
<polygon fill="white" stroke="#666666" points="404.5,-100 231.5,-100 231.5,-59 404.5,-59 404.5,-100"/>
<text text-anchor="start" x="239.5" y="-88" font-family="Helvetica,sans-Serif" font-size="10.00">iii_drone::perception</text>
<text text-anchor="start" x="239.5" y="-77" font-family="Helvetica,sans-Serif" font-size="10.00">::pl_mapper_node::Powerline</text>
<text text-anchor="middle" x="318" y="-66" font-family="Helvetica,sans-Serif" font-size="10.00">MapperNode::mmWaveCallback</text>
</a>
</g>
</g>
<!-- Node2&#45;&gt;Node3 -->
<g id="edge2_Node000002_Node000003" class="edge">
<title>Node2&#45;&gt;Node3</title>
<g id="a_edge2_Node000002_Node000003"><a xlink:title=" ">
<path fill="none" stroke="#63b8ff" d="M435.72,-79.5C425.44,-79.5 414.97,-79.5 404.73,-79.5"/>
<polygon fill="#63b8ff" stroke="#63b8ff" points="435.91,-83 445.91,-79.5 435.91,-76 435.91,-83"/>
</a>
</g>
</g>
<!-- Node4 -->
<g id="Node000004" class="node">
<title>Node4</title>
<g id="a_Node000004"><a xlink:href="classiii__drone_1_1perception_1_1pl__mapper__node_1_1PowerlineMapperNode.html#a703ae72ba683ae11154ce597b8bbad9d" target="_top" xlink:title="Constructor.">
<polygon fill="white" stroke="#666666" points="195,-70 0,-70 0,-29 195,-29 195,-70"/>
<text text-anchor="start" x="8" y="-58" font-family="Helvetica,sans-Serif" font-size="10.00">iii_drone::perception</text>
<text text-anchor="start" x="8" y="-47" font-family="Helvetica,sans-Serif" font-size="10.00">::pl_mapper_node::Powerline</text>
<text text-anchor="middle" x="97.5" y="-36" font-family="Helvetica,sans-Serif" font-size="10.00">MapperNode::PowerlineMapperNode</text>
</a>
</g>
</g>
<!-- Node3&#45;&gt;Node4 -->
<g id="edge3_Node000003_Node000004" class="edge">
<title>Node3&#45;&gt;Node4</title>
<g id="a_edge3_Node000003_Node000004"><a xlink:title=" ">
<path fill="none" stroke="#63b8ff" d="M221.2,-66.35C212.57,-65.16 203.83,-63.96 195.19,-62.78"/>
<polygon fill="#63b8ff" stroke="#63b8ff" points="220.89,-69.84 231.27,-67.73 221.84,-62.9 220.89,-69.84"/>
</a>
</g>
</g>
<!-- Node6 -->
<g id="Node000006" class="node">
<title>Node6</title>
<g id="a_Node000006"><a xlink:href="classiii__drone_1_1perception_1_1pl__mapper__node_1_1PowerlineMapperNode.html#ae98c3a40fb32f1305c1528467205ba33" target="_top" xlink:title="Callback for fetching drone transform.">
<polygon fill="white" stroke="#666666" points="405,-41 231,-41 231,0 405,0 405,-41"/>
<text text-anchor="start" x="239" y="-29" font-family="Helvetica,sans-Serif" font-size="10.00">iii_drone::perception</text>
<text text-anchor="start" x="239" y="-18" font-family="Helvetica,sans-Serif" font-size="10.00">::pl_mapper_node::Powerline</text>
<text text-anchor="middle" x="318" y="-7" font-family="Helvetica,sans-Serif" font-size="10.00">MapperNode::odometryCallback</text>
</a>
</g>
</g>
<!-- Node5&#45;&gt;Node6 -->
<g id="edge5_Node000005_Node000006" class="edge">
<title>Node5&#45;&gt;Node6</title>
<g id="a_edge5_Node000005_Node000006"><a xlink:title=" ">
<path fill="none" stroke="#63b8ff" d="M430.64,-20.5C422.17,-20.5 413.61,-20.5 405.21,-20.5"/>
<polygon fill="#63b8ff" stroke="#63b8ff" points="430.91,-24 440.91,-20.5 430.91,-17 430.91,-24"/>
</a>
</g>
</g>
<!-- Node6&#45;&gt;Node4 -->
<g id="edge6_Node000006_Node000004" class="edge">
<title>Node6&#45;&gt;Node4</title>
<g id="a_edge6_Node000006_Node000004"><a xlink:title=" ">
<path fill="none" stroke="#63b8ff" d="M221.01,-33.24C212.48,-34.37 203.84,-35.52 195.3,-36.65"/>
<polygon fill="#63b8ff" stroke="#63b8ff" points="221.5,-36.71 230.96,-31.92 220.58,-29.77 221.5,-36.71"/>
</a>
</g>
</g>
</g>
</svg>

<g id="navigator" transform="translate(0 0)" fill="#404254">
  <rect fill="#f2f5e9" fill-opacity="0.5" stroke="#606060" stroke-width=".5" x="0" y="0" width="60" height="60"/>
  <use id="zoomplus" xlink:href="#zoomPlus" x="17" y="9" onmousedown="handleZoom(evt,'in')"/>
  <use id="zoomminus" xlink:href="#zoomMin" x="42" y="9" onmousedown="handleZoom(evt,'out')"/>
  <use id="reset" xlink:href="#resetDef" x="30" y="36" onmousedown="handleReset()"/>
   <use id="arrowup" xlink:href="#arrowUp" x="0" y="0" onmousedown="handlePan(0,-1)"/>
  <use id="arrowright" xlink:href="#arrowRight" x="0" y="0" onmousedown="handlePan(1,0)"/>
  <use id="arrowdown" xlink:href="#arrowDown" x="0" y="0" onmousedown="handlePan(0,1)"/>
  <use id="arrowleft" xlink:href="#arrowLeft" x="0" y="0" onmousedown="handlePan(-1,0)"/>
</g>
<svg viewBox="0 0 15 15" width="100%" height="30px" preserveAspectRatio="xMaxYMin meet">
 <g id="arrow_out" transform="scale(0.3 0.3)">
  <a xlink:href="classiii__drone_1_1adapters_1_1PointCloudAdapter_abc0d1153908b68c2ad22cd5f6a70596f_icgraph_org.svg" target="_base">
   <rect id="button" ry="5" rx="5" y="6" x="6" height="38" width="38"
        fill="#f2f5e9" fill-opacity="0.5" stroke="#606060" stroke-width="1.0"/>
   <path id="arrow"
     d="M 11.500037,31.436501 C 11.940474,20.09759 22.043105,11.32322 32.158766,21.979434 L 37.068811,17.246167 C 37.068811,17.246167 37.088388,32 37.088388,32 L 22.160133,31.978069 C 22.160133,31.978069 26.997745,27.140456 26.997745,27.140456 C 18.528582,18.264221 13.291696,25.230495 11.500037,31.436501 z"
     style="fill:#404040;"/>
  </a>
 </g>
</svg>

<style type='text/css'>
<![CDATA[
[data-mouse-over-selected='false'] { opacity: 0.7; }
[data-mouse-over-selected='true']  { opacity: 1.0; }
]]>
</style>
<script type="application/ecmascript"><![CDATA[
document.addEventListener('DOMContentLoaded', (event) => {
  highlightEdges();
  highlightAdjacentNodes();
});
]]></script>
</svg>
