<?xml version="1.0" encoding="UTF-8" standalone="no"?>
<!DOCTYPE svg PUBLIC "-//W3C//DTD SVG 1.1//EN"
 "http://www.w3.org/Graphics/SVG/1.1/DTD/svg11.dtd">
<!-- Generated by graphviz version 2.43.0 (0)
 -->
<!-- Title: iii_drone::control::maneuver::HoverByObjectManeuverServer::hasFailed Pages: 1 -->
<!--zoomable 590 -->

<svg id="main" version="1.1" xmlns="http://www.w3.org/2000/svg" xmlns:xlink="http://www.w3.org/1999/xlink" xml:space="preserve" onload="init(evt)">
<style type="text/css"><![CDATA[
.node, .edge {opacity: 0.7;}
.node.selected, .edge.selected {opacity: 1;}
.edge:hover path { stroke: red; }
.edge:hover polygon { stroke: red; fill: red; }
]]></style>

<defs>
  <circle id="rim" cx="0" cy="0" r="7"/>
  <circle id="rim2" cx="0" cy="0" r="3.5"/>
  <g id="zoomPlus">
    <use xlink:href="#rim" fill="#404040"><set attributeName="fill" to="#808080" begin="zoomplus.mouseover" end="zoomplus.mouseout"/></use>
    <path d="M-4,0h8M0,-4v8" fill="none" stroke="white" stroke-width="1.5" pointer-events="none"/>
  </g>
  <g id="zoomMin">
    <use xlink:href="#rim" fill="#404040"><set attributeName="fill" to="#808080" begin="zoomminus.mouseover" end="zoomminus.mouseout"/></use>
    <path d="M-4,0h8" fill="none" stroke="white" stroke-width="1.5" pointer-events="none"/>
  </g>
  <g id="arrowUp" transform="translate(30 24)">
    <use xlink:href="#rim"/>
    <path pointer-events="none" fill="none" stroke="white" stroke-width="1.5" d="M0,-3.0v7 M-2.5,-0.5L0,-3.0L2.5,-0.5"/>
  </g>
  <g id="arrowRight" transform="rotate(90) translate(36 -43)">
    <use xlink:href="#rim"/>
    <path pointer-events="none" fill="none" stroke="white" stroke-width="1.5" d="M0,-3.0v7 M-2.5,-0.5L0,-3.0L2.5,-0.5"/>
  </g>
  <g id="arrowDown" transform="rotate(180) translate(-30 -48)">
    <use xlink:href="#rim"/>
    <path pointer-events="none" fill="none" stroke="white" stroke-width="1.5" d="M0,-3.0v7 M-2.5,-0.5L0,-3.0L2.5,-0.5"/>
  </g>
  <g id="arrowLeft" transform="rotate(270) translate(-36 17)">
    <use xlink:href="#rim"/>
    <path pointer-events="none" fill="none" stroke="white" stroke-width="1.5" d="M0,-3.0v7 M-2.5,-0.5L0,-3.0L2.5,-0.5"/>
  </g>
  <g id="resetDef">
    <use xlink:href="#rim2" fill="#404040"><set attributeName="fill" to="#808080" begin="reset.mouseover" end="reset.mouseout"/></use>
  </g>
</defs>
<script type="application/ecmascript">
var viewWidth = 1281;
var viewHeight = 590;
var sectionId = 'dynsection-6';
</script>
<script type="application/ecmascript" xlink:href="svg.min.js"/>
<svg id="graph" class="graph">
<g id="viewport">
<title>iii_drone::control::maneuver::HoverByObjectManeuverServer::hasFailed</title>
<!-- Node1 -->
<g id="Node000001" class="node">
<title>Node1</title>
<g id="a_Node000001"><a xlink:title="Returns true if the maneuver has failed. Has failed if the target is not visible or the drone has dri...">
<polygon fill="#999999" stroke="#666666" points="200,-331.5 0,-331.5 0,-290.5 200,-290.5 200,-331.5"/>
<text text-anchor="start" x="8" y="-319.5" font-family="Helvetica,sans-Serif" font-size="10.00">iii_drone::control</text>
<text text-anchor="start" x="8" y="-308.5" font-family="Helvetica,sans-Serif" font-size="10.00">::maneuver::HoverByObjectManeuver</text>
<text text-anchor="middle" x="100" y="-297.5" font-family="Helvetica,sans-Serif" font-size="10.00">Server::hasFailed</text>
</a>
</g>
</g>
<!-- Node2 -->
<g id="Node000002" class="node">
<title>Node2</title>
<g id="a_Node000002"><a xlink:href="classiii__drone_1_1control_1_1maneuver_1_1HoverByObjectManeuverServer.html#a7e09c4b73237e76701d9e83785e05077" target="_top" xlink:title="Returns true if the maneuver has succeeded. Has succeeded if the target is visible and the drone is w...">
<polygon fill="white" stroke="#666666" points="436,-331.5 236,-331.5 236,-290.5 436,-290.5 436,-331.5"/>
<text text-anchor="start" x="244" y="-319.5" font-family="Helvetica,sans-Serif" font-size="10.00">iii_drone::control</text>
<text text-anchor="start" x="244" y="-308.5" font-family="Helvetica,sans-Serif" font-size="10.00">::maneuver::HoverByObjectManeuver</text>
<text text-anchor="middle" x="336" y="-297.5" font-family="Helvetica,sans-Serif" font-size="10.00">Server::hasSucceeded</text>
</a>
</g>
</g>
<!-- Node1&#45;&gt;Node2 -->
<g id="edge1_Node000001_Node000002" class="edge">
<title>Node1&#45;&gt;Node2</title>
<g id="a_edge1_Node000001_Node000002"><a xlink:title=" ">
<path fill="none" stroke="#63b8ff" d="M200.24,-311C208.74,-311 217.38,-311 225.95,-311"/>
<polygon fill="#63b8ff" stroke="#63b8ff" points="225.98,-314.5 235.98,-311 225.98,-307.5 225.98,-314.5"/>
</a>
</g>
</g>
<!-- Node3 -->
<g id="Node000003" class="node">
<title>Node3</title>
<g id="a_Node000003"><a xlink:href="classiii__drone_1_1control_1_1maneuver_1_1ManeuverServer.html#aa25571ba492acf43cd9af009c02cf72e" target="_top" xlink:title="Combined drone awareness handler, accessible to derived classes through the protected method.">
<polygon fill="white" stroke="#666666" points="651,-390.5 493,-390.5 493,-349.5 651,-349.5 651,-390.5"/>
<text text-anchor="start" x="501" y="-378.5" font-family="Helvetica,sans-Serif" font-size="10.00">iii_drone::control</text>
<text text-anchor="start" x="501" y="-367.5" font-family="Helvetica,sans-Serif" font-size="10.00">::maneuver::ManeuverServer</text>
<text text-anchor="middle" x="572" y="-356.5" font-family="Helvetica,sans-Serif" font-size="10.00">::awareness_handler</text>
</a>
</g>
</g>
<!-- Node2&#45;&gt;Node3 -->
<g id="edge2_Node000002_Node000003" class="edge">
<title>Node2&#45;&gt;Node3</title>
<g id="a_edge2_Node000002_Node000003"><a xlink:title=" ">
<path fill="none" stroke="#63b8ff" d="M418.51,-331.55C439.35,-336.81 461.85,-342.48 482.99,-347.81"/>
<polygon fill="#63b8ff" stroke="#63b8ff" points="482.38,-351.26 492.93,-350.32 484.09,-344.48 482.38,-351.26"/>
</a>
</g>
</g>
<!-- Node4 -->
<g id="Node000004" class="node">
<title>Node4</title>
<g id="a_Node000004"><a xlink:href="classiii__drone_1_1control_1_1CombinedDroneAwarenessHandler.html#ab9c3e7f08103bc40c70efd3ca93f040b" target="_top" xlink:title="Computes a target transform given a target adapter.">
<polygon fill="white" stroke="#666666" points="668.5,-331.5 475.5,-331.5 475.5,-290.5 668.5,-290.5 668.5,-331.5"/>
<text text-anchor="start" x="483.5" y="-319.5" font-family="Helvetica,sans-Serif" font-size="10.00">iii_drone::control</text>
<text text-anchor="start" x="483.5" y="-308.5" font-family="Helvetica,sans-Serif" font-size="10.00">::CombinedDroneAwarenessHandler</text>
<text text-anchor="middle" x="572" y="-297.5" font-family="Helvetica,sans-Serif" font-size="10.00">::ComputeTargetTransform</text>
</a>
</g>
</g>
<!-- Node2&#45;&gt;Node4 -->
<g id="edge3_Node000002_Node000004" class="edge">
<title>Node2&#45;&gt;Node4</title>
<g id="a_edge3_Node000002_Node000004"><a xlink:title=" ">
<path fill="none" stroke="#63b8ff" d="M436.24,-311C445.85,-311 455.63,-311 465.31,-311"/>
<polygon fill="#63b8ff" stroke="#63b8ff" points="465.34,-314.5 475.34,-311 465.34,-307.5 465.34,-314.5"/>
</a>
</g>
</g>
<!-- Node22 -->
<g id="Node000022" class="node">
<title>Node22</title>
<g id="a_Node000022"><a xlink:href="classiii__drone_1_1control_1_1maneuver_1_1HoverByObjectManeuverServer.html#a0fbdbb7505bd07854fe3db49bfe8b8b8" target="_top" xlink:title="Validates that the target transform and the drone state are within the maximum euclidean distance.">
<polygon fill="white" stroke="#666666" points="672,-83.5 472,-83.5 472,-42.5 672,-42.5 672,-83.5"/>
<text text-anchor="start" x="480" y="-71.5" font-family="Helvetica,sans-Serif" font-size="10.00">iii_drone::control</text>
<text text-anchor="start" x="480" y="-60.5" font-family="Helvetica,sans-Serif" font-size="10.00">::maneuver::HoverByObjectManeuver</text>
<text text-anchor="middle" x="572" y="-49.5" font-family="Helvetica,sans-Serif" font-size="10.00">Server::validateTargetTransform</text>
</a>
</g>
</g>
<!-- Node2&#45;&gt;Node22 -->
<g id="edge21_Node000002_Node000022" class="edge">
<title>Node2&#45;&gt;Node22</title>
<g id="a_edge21_Node000002_Node000022"><a xlink:title=" ">
<path fill="none" stroke="#63b8ff" d="M356.55,-290.28C398.44,-245.88 496.93,-141.5 544.44,-91.15"/>
<polygon fill="#63b8ff" stroke="#63b8ff" points="547.03,-93.51 551.34,-83.83 541.93,-88.7 547.03,-93.51"/>
</a>
</g>
</g>
<!-- Node5 -->
<g id="Node000005" class="node">
<title>Node5</title>
<g id="a_Node000005"><a xlink:href="namespaceiii__drone_1_1math.html#a7bf2d65f6ca43a8f7a1c5385a29808fe" target="_top" xlink:title=" ">
<polygon fill="white" stroke="#666666" points="892.5,-569 716.5,-569 716.5,-539 892.5,-539 892.5,-569"/>
<text text-anchor="start" x="724.5" y="-557" font-family="Helvetica,sans-Serif" font-size="10.00">iii_drone::math::createTransform</text>
<text text-anchor="middle" x="804.5" y="-546" font-family="Helvetica,sans-Serif" font-size="10.00">Matrix</text>
</a>
</g>
</g>
<!-- Node4&#45;&gt;Node5 -->
<g id="edge4_Node000004_Node000005" class="edge">
<title>Node4&#45;&gt;Node5</title>
<g id="a_edge4_Node000004_Node000005"><a xlink:title=" ">
<path fill="none" stroke="#63b8ff" d="M661.58,-331.73C665.37,-334.45 668.88,-337.53 672,-341 729.18,-404.58 649.31,-467.81 708,-530 708.79,-530.84 709.61,-531.65 710.45,-532.44"/>
<polygon fill="#63b8ff" stroke="#63b8ff" points="708.54,-535.39 718.57,-538.8 712.86,-529.88 708.54,-535.39"/>
</a>
</g>
</g>
<!-- Node9 -->
<g id="Node000009" class="node">
<title>Node9</title>
<g id="a_Node000009"><a xlink:href="classiii__drone_1_1adapters_1_1PowerlineAdapter.html#a5bf5fcde3fc28a2e3ba77293abc5ec4e" target="_top" xlink:title="Returns the single line adapter with the given id.">
<polygon fill="white" stroke="#666666" points="862,-520.5 747,-520.5 747,-479.5 862,-479.5 862,-520.5"/>
<text text-anchor="start" x="755" y="-508.5" font-family="Helvetica,sans-Serif" font-size="10.00">iii_drone::adapters</text>
<text text-anchor="start" x="755" y="-497.5" font-family="Helvetica,sans-Serif" font-size="10.00">::PowerlineAdapter::</text>
<text text-anchor="middle" x="804.5" y="-486.5" font-family="Helvetica,sans-Serif" font-size="10.00">GetLine</text>
</a>
</g>
</g>
<!-- Node4&#45;&gt;Node9 -->
<g id="edge8_Node000004_Node000009" class="edge">
<title>Node4&#45;&gt;Node9</title>
<g id="a_edge8_Node000004_Node000009"><a xlink:title=" ">
<path fill="none" stroke="#63b8ff" d="M660.79,-331.75C664.83,-334.46 668.61,-337.53 672,-341 713.62,-383.55 666.59,-427.24 708,-470 716.04,-478.3 726.35,-484.32 737.21,-488.67"/>
<polygon fill="#63b8ff" stroke="#63b8ff" points="736.25,-492.05 746.85,-492.09 738.59,-485.45 736.25,-492.05"/>
</a>
</g>
</g>
<!-- Node10 -->
<g id="Node000010" class="node">
<title>Node10</title>
<g id="a_Node000010"><a xlink:href="namespaceiii__drone_1_1types.html#a0f2e38f39e75d541ec3429c76b866229" target="_top" xlink:title=" ">
<polygon fill="white" stroke="#666666" points="877.5,-461 731.5,-461 731.5,-431 877.5,-431 877.5,-461"/>
<text text-anchor="start" x="739.5" y="-449" font-family="Helvetica,sans-Serif" font-size="10.00">iii_drone::types::poseFrom</text>
<text text-anchor="middle" x="804.5" y="-438" font-family="Helvetica,sans-Serif" font-size="10.00">PoseMsg</text>
</a>
</g>
</g>
<!-- Node4&#45;&gt;Node10 -->
<g id="edge9_Node000004_Node000010" class="edge">
<title>Node4&#45;&gt;Node10</title>
<g id="a_edge9_Node000004_Node000010"><a xlink:title=" ">
<path fill="none" stroke="#63b8ff" d="M658.8,-331.52C663.51,-334.29 667.96,-337.43 672,-341 701.53,-367.08 677.85,-396.64 708,-422 712.25,-425.58 716.96,-428.63 721.95,-431.24"/>
<polygon fill="#63b8ff" stroke="#63b8ff" points="720.63,-434.49 731.18,-435.47 723.55,-428.12 720.63,-434.49"/>
</a>
</g>
</g>
<!-- Node13 -->
<g id="Node000013" class="node">
<title>Node13</title>
<g id="a_Node000013"><a xlink:href="classiii__drone_1_1control_1_1CombinedDroneAwarenessHandler.html#a210daa5f6654327a96c6d24dae007816" target="_top" xlink:title="Returns the current target adapter, will have TARGET_TYPE_NONE if no target.">
<polygon fill="white" stroke="#666666" points="901,-412.5 708,-412.5 708,-371.5 901,-371.5 901,-412.5"/>
<text text-anchor="start" x="716" y="-400.5" font-family="Helvetica,sans-Serif" font-size="10.00">iii_drone::control</text>
<text text-anchor="start" x="716" y="-389.5" font-family="Helvetica,sans-Serif" font-size="10.00">::CombinedDroneAwarenessHandler</text>
<text text-anchor="middle" x="804.5" y="-378.5" font-family="Helvetica,sans-Serif" font-size="10.00">::target_adapter</text>
</a>
</g>
</g>
<!-- Node4&#45;&gt;Node13 -->
<g id="edge12_Node000004_Node000013" class="edge">
<title>Node4&#45;&gt;Node13</title>
<g id="a_edge12_Node000004_Node000013"><a xlink:title=" ">
<path fill="none" stroke="#63b8ff" d="M647.48,-331.5C655.85,-334.41 664.18,-337.59 672,-341 688.98,-348.4 691.06,-354.51 708,-362 712.65,-364.06 717.48,-366.03 722.4,-367.92"/>
<polygon fill="#63b8ff" stroke="#63b8ff" points="721.33,-371.26 731.92,-371.45 723.76,-364.69 721.33,-371.26"/>
</a>
</g>
</g>
<!-- Node14 -->
<g id="Node000014" class="node">
<title>Node14</title>
<g id="a_Node000014"><a xlink:href="classiii__drone_1_1adapters_1_1TargetAdapter.html#af4648a3bc6fd3ac93e610700e24b2d14" target="_top" xlink:title="Gets the target id.">
<polygon fill="white" stroke="#666666" points="874.5,-353 734.5,-353 734.5,-323 874.5,-323 874.5,-353"/>
<text text-anchor="start" x="742.5" y="-341" font-family="Helvetica,sans-Serif" font-size="10.00">iii_drone::adapters</text>
<text text-anchor="middle" x="804.5" y="-330" font-family="Helvetica,sans-Serif" font-size="10.00">::TargetAdapter::target_id</text>
</a>
</g>
</g>
<!-- Node4&#45;&gt;Node14 -->
<g id="edge13_Node000004_Node000014" class="edge">
<title>Node4&#45;&gt;Node14</title>
<g id="a_edge13_Node000004_Node000014"><a xlink:title=" ">
<path fill="none" stroke="#63b8ff" d="M668.75,-322.22C687.16,-324.37 706.24,-326.61 724.06,-328.7"/>
<polygon fill="#63b8ff" stroke="#63b8ff" points="724.05,-332.22 734.39,-329.91 724.87,-325.27 724.05,-332.22"/>
</a>
</g>
</g>
<!-- Node15 -->
<g id="Node000015" class="node">
<title>Node15</title>
<g id="a_Node000015"><a xlink:href="classiii__drone_1_1adapters_1_1TargetAdapter.html#a5b378f4de1effed87e2309d5f052d74a" target="_top" xlink:title="Gets the target transform.">
<polygon fill="white" stroke="#666666" points="867.5,-304.5 741.5,-304.5 741.5,-263.5 867.5,-263.5 867.5,-304.5"/>
<text text-anchor="start" x="749.5" y="-292.5" font-family="Helvetica,sans-Serif" font-size="10.00">iii_drone::adapters</text>
<text text-anchor="start" x="749.5" y="-281.5" font-family="Helvetica,sans-Serif" font-size="10.00">::TargetAdapter::target</text>
<text text-anchor="middle" x="804.5" y="-270.5" font-family="Helvetica,sans-Serif" font-size="10.00">_transform</text>
</a>
</g>
</g>
<!-- Node4&#45;&gt;Node15 -->
<g id="edge14_Node000004_Node000015" class="edge">
<title>Node4&#45;&gt;Node15</title>
<g id="a_edge14_Node000004_Node000015"><a xlink:title=" ">
<path fill="none" stroke="#63b8ff" d="M668.75,-299.78C689.61,-297.34 711.34,-294.8 731.11,-292.48"/>
<polygon fill="#63b8ff" stroke="#63b8ff" points="731.73,-295.93 741.25,-291.29 730.91,-288.98 731.73,-295.93"/>
</a>
</g>
</g>
<!-- Node16 -->
<g id="Node000016" class="node">
<title>Node16</title>
<g id="a_Node000016"><a xlink:href="classiii__drone_1_1adapters_1_1TargetAdapter.html#a7b5c36b234213f1d19fa8f1943c26c4a" target="_top" xlink:title="Gets the target type.">
<polygon fill="white" stroke="#666666" points="881,-245 728,-245 728,-215 881,-215 881,-245"/>
<text text-anchor="start" x="736" y="-233" font-family="Helvetica,sans-Serif" font-size="10.00">iii_drone::adapters</text>
<text text-anchor="middle" x="804.5" y="-222" font-family="Helvetica,sans-Serif" font-size="10.00">::TargetAdapter::target_type</text>
</a>
</g>
</g>
<!-- Node4&#45;&gt;Node16 -->
<g id="edge15_Node000004_Node000016" class="edge">
<title>Node4&#45;&gt;Node16</title>
<g id="a_edge15_Node000004_Node000016"><a xlink:title=" ">
<path fill="none" stroke="#63b8ff" d="M618.33,-290.37C644.26,-279.03 677.58,-265.24 708,-255 715.51,-252.47 723.41,-250.05 731.33,-247.76"/>
<polygon fill="#63b8ff" stroke="#63b8ff" points="732.3,-251.13 740.98,-245.05 730.4,-244.39 732.3,-251.13"/>
</a>
</g>
</g>
<!-- Node17 -->
<g id="Node000017" class="node">
<title>Node17</title>
<g id="a_Node000017"><a xlink:href="classiii__drone_1_1adapters_1_1SingleLineAdapter.html#a0e51bbd6fad04d9daf990a9f228c12bf" target="_top" xlink:title="Converts to PoseStamped msg.">
<polygon fill="white" stroke="#666666" points="864.5,-196.5 744.5,-196.5 744.5,-155.5 864.5,-155.5 864.5,-196.5"/>
<text text-anchor="start" x="752.5" y="-184.5" font-family="Helvetica,sans-Serif" font-size="10.00">iii_drone::adapters</text>
<text text-anchor="start" x="752.5" y="-173.5" font-family="Helvetica,sans-Serif" font-size="10.00">::SingleLineAdapter</text>
<text text-anchor="middle" x="804.5" y="-162.5" font-family="Helvetica,sans-Serif" font-size="10.00">::ToPoseStampedMsg</text>
</a>
</g>
</g>
<!-- Node4&#45;&gt;Node17 -->
<g id="edge16_Node000004_Node000017" class="edge">
<title>Node4&#45;&gt;Node17</title>
<g id="a_edge16_Node000004_Node000017"><a xlink:title=" ">
<path fill="none" stroke="#63b8ff" d="M594.68,-290.1C620.01,-266.69 664.08,-229.02 708,-206 716.4,-201.6 725.55,-197.71 734.76,-194.32"/>
<polygon fill="#63b8ff" stroke="#63b8ff" points="736.07,-197.57 744.35,-190.96 733.75,-190.96 736.07,-197.57"/>
</a>
</g>
</g>
<!-- Node21 -->
<g id="Node000021" class="node">
<title>Node21</title>
<g id="a_Node000021"><a xlink:href="classiii__drone_1_1control_1_1CombinedDroneAwarenessHandlerParameters.html#a462d0dc30c33f34df6165dbcc7829aa1" target="_top" xlink:title="Get the world frame id.">
<polygon fill="white" stroke="#666666" points="901,-137.5 708,-137.5 708,-96.5 901,-96.5 901,-137.5"/>
<text text-anchor="start" x="716" y="-125.5" font-family="Helvetica,sans-Serif" font-size="10.00">iii_drone::control</text>
<text text-anchor="start" x="716" y="-114.5" font-family="Helvetica,sans-Serif" font-size="10.00">::CombinedDroneAwarenessHandler</text>
<text text-anchor="middle" x="804.5" y="-103.5" font-family="Helvetica,sans-Serif" font-size="10.00">Parameters::world_frame_id</text>
</a>
</g>
</g>
<!-- Node4&#45;&gt;Node21 -->
<g id="edge20_Node000004_Node000021" class="edge">
<title>Node4&#45;&gt;Node21</title>
<g id="a_edge20_Node000004_Node000021"><a xlink:title=" ">
<path fill="none" stroke="#63b8ff" d="M584.51,-290.36C604.9,-255.66 650.67,-185.66 708,-147 710.43,-145.36 712.96,-143.81 715.55,-142.33"/>
<polygon fill="#63b8ff" stroke="#63b8ff" points="717.36,-145.34 724.63,-137.64 714.14,-139.13 717.36,-145.34"/>
</a>
</g>
</g>
<!-- Node6 -->
<g id="Node000006" class="node">
<title>Node6</title>
<g id="a_Node000006"><a xlink:href="namespaceiii__drone_1_1math.html#af8c96a0fa3940e1034c8db8425586ba8" target="_top" xlink:title=" ">
<polygon fill="white" stroke="#666666" points="1085.5,-563.5 938.5,-563.5 938.5,-544.5 1085.5,-544.5 1085.5,-563.5"/>
<text text-anchor="middle" x="1012" y="-551.5" font-family="Helvetica,sans-Serif" font-size="10.00">iii_drone::math::quatToMat</text>
</a>
</g>
</g>
<!-- Node5&#45;&gt;Node6 -->
<g id="edge5_Node000005_Node000006" class="edge">
<title>Node5&#45;&gt;Node6</title>
<g id="a_edge5_Node000005_Node000006"><a xlink:title=" ">
<path fill="none" stroke="#63b8ff" d="M892.65,-554C904.41,-554 916.45,-554 928.13,-554"/>
<polygon fill="#63b8ff" stroke="#63b8ff" points="928.29,-557.5 938.29,-554 928.29,-550.5 928.29,-557.5"/>
</a>
</g>
</g>
<!-- Node7 -->
<g id="Node000007" class="node">
<title>Node7</title>
<g id="a_Node000007"><a xlink:href="namespaceiii__drone_1_1math.html#a7f61d7905e9118b077f713da7e65e8df" target="_top" xlink:title=" ">
<polygon fill="white" stroke="#666666" points="1268,-581.5 1128,-581.5 1128,-562.5 1268,-562.5 1268,-581.5"/>
<text text-anchor="middle" x="1198" y="-569.5" font-family="Helvetica,sans-Serif" font-size="10.00">iii_drone::math::eulToMat</text>
</a>
</g>
</g>
<!-- Node6&#45;&gt;Node7 -->
<g id="edge6_Node000006_Node000007" class="edge">
<title>Node6&#45;&gt;Node7</title>
<g id="a_edge6_Node000006_Node000007"><a xlink:title=" ">
<path fill="none" stroke="#63b8ff" d="M1085.72,-561.11C1096.23,-562.14 1107.08,-563.2 1117.71,-564.24"/>
<polygon fill="#63b8ff" stroke="#63b8ff" points="1117.51,-567.74 1127.81,-565.23 1118.19,-560.77 1117.51,-567.74"/>
</a>
</g>
</g>
<!-- Node8 -->
<g id="Node000008" class="node">
<title>Node8</title>
<g id="a_Node000008"><a xlink:href="namespaceiii__drone_1_1math.html#a8e7d7e25d07b368363d6da9939a9abed" target="_top" xlink:title=" ">
<polygon fill="white" stroke="#666666" points="1269.5,-544.5 1126.5,-544.5 1126.5,-525.5 1269.5,-525.5 1269.5,-544.5"/>
<text text-anchor="middle" x="1198" y="-532.5" font-family="Helvetica,sans-Serif" font-size="10.00">iii_drone::math::quatToEul</text>
</a>
</g>
</g>
<!-- Node6&#45;&gt;Node8 -->
<g id="edge7_Node000006_Node000008" class="edge">
<title>Node6&#45;&gt;Node8</title>
<g id="a_edge7_Node000006_Node000008"><a xlink:title=" ">
<path fill="none" stroke="#63b8ff" d="M1085.72,-546.49C1095.74,-545.46 1106.08,-544.39 1116.24,-543.34"/>
<polygon fill="#63b8ff" stroke="#63b8ff" points="1116.72,-546.81 1126.31,-542.3 1116,-539.85 1116.72,-546.81"/>
</a>
</g>
</g>
<!-- Node11 -->
<g id="Node000011" class="node">
<title>Node11</title>
<g id="a_Node000011"><a xlink:href="namespaceiii__drone_1_1types.html#a8215048242190c57b9ff2de3f1daba73" target="_top" xlink:title=" ">
<polygon fill="white" stroke="#666666" points="1085.5,-485 938.5,-485 938.5,-455 1085.5,-455 1085.5,-485"/>
<text text-anchor="start" x="946.5" y="-473" font-family="Helvetica,sans-Serif" font-size="10.00">iii_drone::types::pointFrom</text>
<text text-anchor="middle" x="1012" y="-462" font-family="Helvetica,sans-Serif" font-size="10.00">PointMsg</text>
</a>
</g>
</g>
<!-- Node10&#45;&gt;Node11 -->
<g id="edge10_Node000010_Node000011" class="edge">
<title>Node10&#45;&gt;Node11</title>
<g id="a_edge10_Node000010_Node000011"><a xlink:title=" ">
<path fill="none" stroke="#63b8ff" d="M877.66,-454.43C893.94,-456.33 911.35,-458.36 928.04,-460.31"/>
<polygon fill="#63b8ff" stroke="#63b8ff" points="927.98,-463.83 938.32,-461.51 928.79,-456.87 927.98,-463.83"/>
</a>
</g>
</g>
<!-- Node12 -->
<g id="Node000012" class="node">
<title>Node12</title>
<g id="a_Node000012"><a xlink:href="namespaceiii__drone_1_1types.html#ab684c4851f41301e938970679086de49" target="_top" xlink:title=" ">
<polygon fill="white" stroke="#666666" points="1087,-437 937,-437 937,-407 1087,-407 1087,-437"/>
<text text-anchor="start" x="945" y="-425" font-family="Helvetica,sans-Serif" font-size="10.00">iii_drone::types::quaternion</text>
<text text-anchor="middle" x="1012" y="-414" font-family="Helvetica,sans-Serif" font-size="10.00">FromQuaternionMsg</text>
</a>
</g>
</g>
<!-- Node10&#45;&gt;Node12 -->
<g id="edge11_Node000010_Node000012" class="edge">
<title>Node10&#45;&gt;Node12</title>
<g id="a_edge11_Node000010_Node000012"><a xlink:title=" ">
<path fill="none" stroke="#63b8ff" d="M877.66,-437.57C893.56,-435.72 910.53,-433.73 926.86,-431.83"/>
<polygon fill="#63b8ff" stroke="#63b8ff" points="927.4,-435.29 936.92,-430.65 926.59,-428.33 927.4,-435.29"/>
</a>
</g>
</g>
<!-- Node18 -->
<g id="Node000018" class="node">
<title>Node18</title>
<g id="a_Node000018"><a xlink:href="classiii__drone_1_1adapters_1_1SingleLineAdapter.html#a93dc5170f28f0b86439146049989ce60" target="_top" xlink:title="Converts to Pose msg.">
<polygon fill="white" stroke="#666666" points="1067.5,-196.5 956.5,-196.5 956.5,-155.5 1067.5,-155.5 1067.5,-196.5"/>
<text text-anchor="start" x="964.5" y="-184.5" font-family="Helvetica,sans-Serif" font-size="10.00">iii_drone::adapters</text>
<text text-anchor="start" x="964.5" y="-173.5" font-family="Helvetica,sans-Serif" font-size="10.00">::SingleLineAdapter</text>
<text text-anchor="middle" x="1012" y="-162.5" font-family="Helvetica,sans-Serif" font-size="10.00">::ToPoseMsg</text>
</a>
</g>
</g>
<!-- Node17&#45;&gt;Node18 -->
<g id="edge17_Node000017_Node000018" class="edge">
<title>Node17&#45;&gt;Node18</title>
<g id="a_edge17_Node000017_Node000018"><a xlink:title=" ">
<path fill="none" stroke="#63b8ff" d="M864.66,-176C890.2,-176 920.16,-176 946.29,-176"/>
<polygon fill="#63b8ff" stroke="#63b8ff" points="946.47,-179.5 956.47,-176 946.47,-172.5 946.47,-179.5"/>
</a>
</g>
</g>
<!-- Node19 -->
<g id="Node000019" class="node">
<title>Node19</title>
<g id="a_Node000019"><a xlink:href="namespaceiii__drone_1_1types.html#adf49c0d0a898eea29ad3e752a6712734" target="_top" xlink:title=" ">
<polygon fill="white" stroke="#666666" points="1269.5,-215 1126.5,-215 1126.5,-185 1269.5,-185 1269.5,-215"/>
<text text-anchor="start" x="1134.5" y="-203" font-family="Helvetica,sans-Serif" font-size="10.00">iii_drone::types::pointMsg</text>
<text text-anchor="middle" x="1198" y="-192" font-family="Helvetica,sans-Serif" font-size="10.00">FromPoint</text>
</a>
</g>
</g>
<!-- Node18&#45;&gt;Node19 -->
<g id="edge18_Node000018_Node000019" class="edge">
<title>Node18&#45;&gt;Node19</title>
<g id="a_edge18_Node000018_Node000019"><a xlink:title=" ">
<path fill="none" stroke="#63b8ff" d="M1067.71,-183.14C1082.97,-185.13 1099.89,-187.33 1116.31,-189.48"/>
<polygon fill="#63b8ff" stroke="#63b8ff" points="1116.09,-192.98 1126.45,-190.8 1116.99,-186.03 1116.09,-192.98"/>
</a>
</g>
</g>
<!-- Node20 -->
<g id="Node000020" class="node">
<title>Node20</title>
<g id="a_Node000020"><a xlink:href="namespaceiii__drone_1_1types.html#a345601fdf3366d6af6d7c2003d74275b" target="_top" xlink:title=" ">
<polygon fill="white" stroke="#666666" points="1273,-167 1123,-167 1123,-137 1273,-137 1273,-167"/>
<text text-anchor="start" x="1131" y="-155" font-family="Helvetica,sans-Serif" font-size="10.00">iii_drone::types::quaternion</text>
<text text-anchor="middle" x="1198" y="-144" font-family="Helvetica,sans-Serif" font-size="10.00">MsgFromQuaternion</text>
</a>
</g>
</g>
<!-- Node18&#45;&gt;Node20 -->
<g id="edge19_Node000018_Node000020" class="edge">
<title>Node18&#45;&gt;Node20</title>
<g id="a_edge19_Node000018_Node000020"><a xlink:title=" ">
<path fill="none" stroke="#63b8ff" d="M1067.71,-168.86C1081.87,-167.02 1097.46,-164.98 1112.75,-162.99"/>
<polygon fill="#63b8ff" stroke="#63b8ff" points="1113.28,-166.45 1122.75,-161.69 1112.38,-159.51 1113.28,-166.45"/>
</a>
</g>
</g>
<!-- Node23 -->
<g id="Node000023" class="node">
<title>Node23</title>
<g id="a_Node000023"><a xlink:href="namespaceiii__drone_1_1types.html#a1bfb762d3daf82decf272d74978c0aff" target="_top" xlink:title=" ">
<polygon fill="white" stroke="#666666" points="877.5,-78 731.5,-78 731.5,-48 877.5,-48 877.5,-78"/>
<text text-anchor="start" x="739.5" y="-66" font-family="Helvetica,sans-Serif" font-size="10.00">iii_drone::types::poseFrom</text>
<text text-anchor="middle" x="804.5" y="-55" font-family="Helvetica,sans-Serif" font-size="10.00">TransformMatrix</text>
</a>
</g>
</g>
<!-- Node22&#45;&gt;Node23 -->
<g id="edge22_Node000022_Node000023" class="edge">
<title>Node22&#45;&gt;Node23</title>
<g id="a_edge22_Node000022_Node000023"><a xlink:title=" ">
<path fill="none" stroke="#63b8ff" d="M672.09,-63C688.41,-63 705.16,-63 721.02,-63"/>
<polygon fill="#63b8ff" stroke="#63b8ff" points="721.29,-66.5 731.29,-63 721.29,-59.5 721.29,-66.5"/>
</a>
</g>
</g>
<!-- Node26 -->
<g id="Node000026" class="node">
<title>Node26</title>
<g id="a_Node000026"><a xlink:href="classiii__drone_1_1control_1_1State.html#ac7d02a667c215a72d7f7f2fdf1501eb4" target="_top" xlink:title=" ">
<polygon fill="white" stroke="#666666" points="853.5,-30 755.5,-30 755.5,0 853.5,0 853.5,-30"/>
<text text-anchor="start" x="763.5" y="-18" font-family="Helvetica,sans-Serif" font-size="10.00">iii_drone::control</text>
<text text-anchor="middle" x="804.5" y="-7" font-family="Helvetica,sans-Serif" font-size="10.00">::State::position</text>
</a>
</g>
</g>
<!-- Node22&#45;&gt;Node26 -->
<g id="edge25_Node000022_Node000026" class="edge">
<title>Node22&#45;&gt;Node26</title>
<g id="a_edge25_Node000022_Node000026"><a xlink:title=" ">
<path fill="none" stroke="#63b8ff" d="M671.76,-42.43C696.87,-37.21 723.05,-31.75 745.39,-27.1"/>
<polygon fill="#63b8ff" stroke="#63b8ff" points="746.29,-30.49 755.37,-25.02 744.87,-23.63 746.29,-30.49"/>
</a>
</g>
</g>
<!-- Node24 -->
<g id="Node000024" class="node">
<title>Node24</title>
<g id="a_Node000024"><a xlink:href="namespaceiii__drone_1_1types.html#a697d4ff4e536df203d0c6acf6daf0751" target="_top" xlink:title=" ">
<polygon fill="white" stroke="#666666" points="1087,-78 937,-78 937,-48 1087,-48 1087,-78"/>
<text text-anchor="start" x="945" y="-66" font-family="Helvetica,sans-Serif" font-size="10.00">iii_drone::types::quaternion</text>
<text text-anchor="middle" x="1012" y="-55" font-family="Helvetica,sans-Serif" font-size="10.00">FromTransformMatrix</text>
</a>
</g>
</g>
<!-- Node23&#45;&gt;Node24 -->
<g id="edge23_Node000023_Node000024" class="edge">
<title>Node23&#45;&gt;Node24</title>
<g id="a_edge23_Node000023_Node000024"><a xlink:title=" ">
<path fill="none" stroke="#63b8ff" d="M877.66,-63C893.56,-63 910.53,-63 926.86,-63"/>
<polygon fill="#63b8ff" stroke="#63b8ff" points="926.92,-66.5 936.92,-63 926.92,-59.5 926.92,-66.5"/>
</a>
</g>
</g>
<!-- Node25 -->
<g id="Node000025" class="node">
<title>Node25</title>
<g id="a_Node000025"><a xlink:href="namespaceiii__drone_1_1math.html#af4cd05fd620f368b776def1c899e2f17" target="_top" xlink:title=" ">
<polygon fill="white" stroke="#666666" points="1272.5,-72.5 1123.5,-72.5 1123.5,-53.5 1272.5,-53.5 1272.5,-72.5"/>
<text text-anchor="middle" x="1198" y="-60.5" font-family="Helvetica,sans-Serif" font-size="10.00">iii_drone::math::matToQuat</text>
</a>
</g>
</g>
<!-- Node24&#45;&gt;Node25 -->
<g id="edge24_Node000024_Node000025" class="edge">
<title>Node24&#45;&gt;Node25</title>
<g id="a_edge24_Node000024_Node000025"><a xlink:title=" ">
<path fill="none" stroke="#63b8ff" d="M1087.04,-63C1095.66,-63 1104.49,-63 1113.22,-63"/>
<polygon fill="#63b8ff" stroke="#63b8ff" points="1113.41,-66.5 1123.41,-63 1113.41,-59.5 1113.41,-66.5"/>
</a>
</g>
</g>
</g>
</svg>

<g id="navigator" transform="translate(0 0)" fill="#404254">
  <rect fill="#f2f5e9" fill-opacity="0.5" stroke="#606060" stroke-width=".5" x="0" y="0" width="60" height="60"/>
  <use id="zoomplus" xlink:href="#zoomPlus" x="17" y="9" onmousedown="handleZoom(evt,'in')"/>
  <use id="zoomminus" xlink:href="#zoomMin" x="42" y="9" onmousedown="handleZoom(evt,'out')"/>
  <use id="reset" xlink:href="#resetDef" x="30" y="36" onmousedown="handleReset()"/>
   <use id="arrowup" xlink:href="#arrowUp" x="0" y="0" onmousedown="handlePan(0,-1)"/>
  <use id="arrowright" xlink:href="#arrowRight" x="0" y="0" onmousedown="handlePan(1,0)"/>
  <use id="arrowdown" xlink:href="#arrowDown" x="0" y="0" onmousedown="handlePan(0,1)"/>
  <use id="arrowleft" xlink:href="#arrowLeft" x="0" y="0" onmousedown="handlePan(-1,0)"/>
</g>
<svg viewBox="0 0 15 15" width="100%" height="30px" preserveAspectRatio="xMaxYMin meet">
 <g id="arrow_out" transform="scale(0.3 0.3)">
  <a xlink:href="classiii__drone_1_1control_1_1maneuver_1_1HoverByObjectManeuverServer_af8528504b83c4c9b405f496ccc269e10_cgraph_org.svg" target="_base">
   <rect id="button" ry="5" rx="5" y="6" x="6" height="38" width="38"
        fill="#f2f5e9" fill-opacity="0.5" stroke="#606060" stroke-width="1.0"/>
   <path id="arrow"
     d="M 11.500037,31.436501 C 11.940474,20.09759 22.043105,11.32322 32.158766,21.979434 L 37.068811,17.246167 C 37.068811,17.246167 37.088388,32 37.088388,32 L 22.160133,31.978069 C 22.160133,31.978069 26.997745,27.140456 26.997745,27.140456 C 18.528582,18.264221 13.291696,25.230495 11.500037,31.436501 z"
     style="fill:#404040;"/>
  </a>
 </g>
</svg>

<style type='text/css'>
<![CDATA[
[data-mouse-over-selected='false'] { opacity: 0.7; }
[data-mouse-over-selected='true']  { opacity: 1.0; }
]]>
</style>
<script type="application/ecmascript"><![CDATA[
document.addEventListener('DOMContentLoaded', (event) => {
  highlightEdges();
  highlightAdjacentNodes();
});
]]></script>
</svg>
