<?xml version="1.0" encoding="UTF-8" standalone="no"?>
<!DOCTYPE svg PUBLIC "-//W3C//DTD SVG 1.1//EN"
 "http://www.w3.org/Graphics/SVG/1.1/DTD/svg11.dtd">
<!-- Generated by graphviz version 2.43.0 (0)
 -->
<!-- Title: iii_drone::control::CombinedDroneAwarenessHandler::CombinedDroneAwarenessHandler Pages: 1 -->
<!--zoomable 606 -->

<svg id="main" version="1.1" xmlns="http://www.w3.org/2000/svg" xmlns:xlink="http://www.w3.org/1999/xlink" xml:space="preserve" onload="init(evt)">
<style type="text/css"><![CDATA[
.node, .edge {opacity: 0.7;}
.node.selected, .edge.selected {opacity: 1;}
.edge:hover path { stroke: red; }
.edge:hover polygon { stroke: red; fill: red; }
]]></style>

<defs>
  <circle id="rim" cx="0" cy="0" r="7"/>
  <circle id="rim2" cx="0" cy="0" r="3.5"/>
  <g id="zoomPlus">
    <use xlink:href="#rim" fill="#404040"><set attributeName="fill" to="#808080" begin="zoomplus.mouseover" end="zoomplus.mouseout"/></use>
    <path d="M-4,0h8M0,-4v8" fill="none" stroke="white" stroke-width="1.5" pointer-events="none"/>
  </g>
  <g id="zoomMin">
    <use xlink:href="#rim" fill="#404040"><set attributeName="fill" to="#808080" begin="zoomminus.mouseover" end="zoomminus.mouseout"/></use>
    <path d="M-4,0h8" fill="none" stroke="white" stroke-width="1.5" pointer-events="none"/>
  </g>
  <g id="arrowUp" transform="translate(30 24)">
    <use xlink:href="#rim"/>
    <path pointer-events="none" fill="none" stroke="white" stroke-width="1.5" d="M0,-3.0v7 M-2.5,-0.5L0,-3.0L2.5,-0.5"/>
  </g>
  <g id="arrowRight" transform="rotate(90) translate(36 -43)">
    <use xlink:href="#rim"/>
    <path pointer-events="none" fill="none" stroke="white" stroke-width="1.5" d="M0,-3.0v7 M-2.5,-0.5L0,-3.0L2.5,-0.5"/>
  </g>
  <g id="arrowDown" transform="rotate(180) translate(-30 -48)">
    <use xlink:href="#rim"/>
    <path pointer-events="none" fill="none" stroke="white" stroke-width="1.5" d="M0,-3.0v7 M-2.5,-0.5L0,-3.0L2.5,-0.5"/>
  </g>
  <g id="arrowLeft" transform="rotate(270) translate(-36 17)">
    <use xlink:href="#rim"/>
    <path pointer-events="none" fill="none" stroke="white" stroke-width="1.5" d="M0,-3.0v7 M-2.5,-0.5L0,-3.0L2.5,-0.5"/>
  </g>
  <g id="resetDef">
    <use xlink:href="#rim2" fill="#404040"><set attributeName="fill" to="#808080" begin="reset.mouseover" end="reset.mouseout"/></use>
  </g>
</defs>
<script type="application/ecmascript">
var viewWidth = 1346;
var viewHeight = 606;
var sectionId = 'dynsection-1';
</script>
<script type="application/ecmascript" xlink:href="svg.min.js"/>
<svg id="graph" class="graph">
<g id="viewport">
<title>iii_drone::control::CombinedDroneAwarenessHandler::CombinedDroneAwarenessHandler</title>
<!-- Node1 -->
<g id="Node000001" class="node">
<title>Node1</title>
<g id="a_Node000001"><a xlink:title="Construct a new CombinedDroneAwarenessHandler object, initializing all the subscriptions.">
<polygon fill="#999999" stroke="#666666" points="193,-370 0,-370 0,-329 193,-329 193,-370"/>
<text text-anchor="start" x="8" y="-358" font-family="Helvetica,sans-Serif" font-size="10.00">iii_drone::control</text>
<text text-anchor="start" x="8" y="-347" font-family="Helvetica,sans-Serif" font-size="10.00">::CombinedDroneAwarenessHandler</text>
<text text-anchor="middle" x="96.5" y="-336" font-family="Helvetica,sans-Serif" font-size="10.00">::CombinedDroneAwarenessHandler</text>
</a>
</g>
</g>
<!-- Node2 -->
<g id="Node000002" class="node">
<title>Node2</title>
<g id="a_Node000002"><a xlink:href="classiii__drone_1_1control_1_1CombinedDroneAwarenessHandlerParameters.html#ac4e47dd364b694d1c37bb7c660f84367" target="_top" xlink:title="Get the period for updating the ground estimate.">
<polygon fill="white" stroke="#666666" points="422,-597.5 229,-597.5 229,-545.5 422,-545.5 422,-597.5"/>
<text text-anchor="start" x="237" y="-585.5" font-family="Helvetica,sans-Serif" font-size="10.00">iii_drone::control</text>
<text text-anchor="start" x="237" y="-574.5" font-family="Helvetica,sans-Serif" font-size="10.00">::CombinedDroneAwarenessHandler</text>
<text text-anchor="start" x="237" y="-563.5" font-family="Helvetica,sans-Serif" font-size="10.00">Parameters::ground_estimate</text>
<text text-anchor="middle" x="325.5" y="-552.5" font-family="Helvetica,sans-Serif" font-size="10.00">_update_period_ms</text>
</a>
</g>
</g>
<!-- Node1&#45;&gt;Node2 -->
<g id="edge1_Node000001_Node000002" class="edge">
<title>Node1&#45;&gt;Node2</title>
<g id="a_edge1_Node000001_Node000002"><a xlink:title=" ">
<path fill="none" stroke="#63b8ff" d="M106.71,-370.02C124.81,-408.11 168.55,-490.1 229,-536.5 230.58,-537.71 232.2,-538.88 233.86,-540.01"/>
<polygon fill="#63b8ff" stroke="#63b8ff" points="232.11,-543.05 242.45,-545.37 235.82,-537.11 232.11,-543.05"/>
</a>
</g>
</g>
<!-- Node3 -->
<g id="Node000003" class="node">
<title>Node3</title>
<g id="a_Node000003"><a xlink:href="classiii__drone_1_1control_1_1CombinedDroneAwarenessHandlerParameters.html#a5b8f9354057c4234cbac889a2f3c3047" target="_top" xlink:title="Get the window size for the ground estimate history.">
<polygon fill="white" stroke="#666666" points="422,-527.5 229,-527.5 229,-475.5 422,-475.5 422,-527.5"/>
<text text-anchor="start" x="237" y="-515.5" font-family="Helvetica,sans-Serif" font-size="10.00">iii_drone::control</text>
<text text-anchor="start" x="237" y="-504.5" font-family="Helvetica,sans-Serif" font-size="10.00">::CombinedDroneAwarenessHandler</text>
<text text-anchor="start" x="237" y="-493.5" font-family="Helvetica,sans-Serif" font-size="10.00">Parameters::ground_estimate</text>
<text text-anchor="middle" x="325.5" y="-482.5" font-family="Helvetica,sans-Serif" font-size="10.00">_window_size</text>
</a>
</g>
</g>
<!-- Node1&#45;&gt;Node3 -->
<g id="edge2_Node000001_Node000003" class="edge">
<title>Node1&#45;&gt;Node3</title>
<g id="a_edge2_Node000001_Node000003"><a xlink:title=" ">
<path fill="none" stroke="#63b8ff" d="M116.11,-370.31C140.04,-395.97 183.9,-439.51 229,-466.5 231.49,-467.99 234.05,-469.43 236.66,-470.82"/>
<polygon fill="#63b8ff" stroke="#63b8ff" points="235.22,-474.01 245.72,-475.38 238.36,-467.76 235.22,-474.01"/>
</a>
</g>
</g>
<!-- Node4 -->
<g id="Node000004" class="node">
<title>Node4</title>
<g id="a_Node000004"><a xlink:href="classiii__drone_1_1control_1_1CombinedDroneAwarenessHandler.html#ab2ef26b588a1fc6558514c10ec25feb9" target="_top" xlink:title="Publishes the members.">
<polygon fill="white" stroke="#666666" points="422,-457 229,-457 229,-416 422,-416 422,-457"/>
<text text-anchor="start" x="237" y="-445" font-family="Helvetica,sans-Serif" font-size="10.00">iii_drone::control</text>
<text text-anchor="start" x="237" y="-434" font-family="Helvetica,sans-Serif" font-size="10.00">::CombinedDroneAwarenessHandler</text>
<text text-anchor="middle" x="325.5" y="-423" font-family="Helvetica,sans-Serif" font-size="10.00">::publishMembers</text>
</a>
</g>
</g>
<!-- Node1&#45;&gt;Node4 -->
<g id="edge3_Node000001_Node000004" class="edge">
<title>Node1&#45;&gt;Node4</title>
<g id="a_edge3_Node000001_Node000004"><a xlink:title=" ">
<path fill="none" stroke="#63b8ff" d="M151.01,-370.01C184.08,-382.68 226.68,-399.01 261.39,-412.31"/>
<polygon fill="#63b8ff" stroke="#63b8ff" points="260.37,-415.67 270.96,-415.98 262.87,-409.13 260.37,-415.67"/>
</a>
</g>
</g>
<!-- Node13 -->
<g id="Node000013" class="node">
<title>Node13</title>
<g id="a_Node000013"><a xlink:href="classiii__drone_1_1control_1_1CombinedDroneAwarenessHandler.html#a8bcf29ada285948eeeff00d694d185c2" target="_top" xlink:title="Updates the combined drone awareness based on current information. To be called after updating the an...">
<polygon fill="white" stroke="#666666" points="422,-234 229,-234 229,-193 422,-193 422,-234"/>
<text text-anchor="start" x="237" y="-222" font-family="Helvetica,sans-Serif" font-size="10.00">iii_drone::control</text>
<text text-anchor="start" x="237" y="-211" font-family="Helvetica,sans-Serif" font-size="10.00">::CombinedDroneAwarenessHandler</text>
<text text-anchor="middle" x="325.5" y="-200" font-family="Helvetica,sans-Serif" font-size="10.00">::updateCombinedDroneAwareness</text>
</a>
</g>
</g>
<!-- Node1&#45;&gt;Node13 -->
<g id="edge12_Node000001_Node000013" class="edge">
<title>Node1&#45;&gt;Node13</title>
<g id="a_edge12_Node000001_Node000013"><a xlink:title=" ">
<path fill="none" stroke="#63b8ff" d="M130.3,-328.92C156.81,-312.39 195.14,-288.67 229,-268.5 245.21,-258.84 263.11,-248.46 278.99,-239.35"/>
<polygon fill="#63b8ff" stroke="#63b8ff" points="281.14,-242.15 288.07,-234.14 277.66,-236.08 281.14,-242.15"/>
</a>
</g>
</g>
<!-- Node15 -->
<g id="Node000015" class="node">
<title>Node15</title>
<g id="a_Node000015"><a xlink:href="classiii__drone_1_1control_1_1CombinedDroneAwarenessHandler.html#ad6d5cbd2b74f81deecc3d6b935018800" target="_top" xlink:title="Updates the combined drone awareness from the gripper status. Triggers updates of gripper_open.">
<polygon fill="white" stroke="#666666" points="738,-41 458,-41 458,0 738,0 738,-41"/>
<text text-anchor="start" x="466" y="-29" font-family="Helvetica,sans-Serif" font-size="10.00">iii_drone::control</text>
<text text-anchor="start" x="466" y="-18" font-family="Helvetica,sans-Serif" font-size="10.00">::CombinedDroneAwarenessHandler</text>
<text text-anchor="middle" x="598" y="-7" font-family="Helvetica,sans-Serif" font-size="10.00">::updateCombinedDroneAwarenessFromGripperStatus</text>
</a>
</g>
</g>
<!-- Node1&#45;&gt;Node15 -->
<g id="edge29_Node000001_Node000015" class="edge">
<title>Node1&#45;&gt;Node15</title>
<g id="a_edge29_Node000001_Node000015"><a xlink:title=" ">
<path fill="none" stroke="#63b8ff" d="M109.47,-328.99C130.12,-295.09 175.42,-226.89 229,-184.5 315.54,-116.04 435.16,-69.68 514.24,-44.17"/>
<polygon fill="#63b8ff" stroke="#63b8ff" points="515.69,-47.39 524.15,-41.02 513.56,-40.72 515.69,-47.39"/>
</a>
</g>
</g>
<!-- Node16 -->
<g id="Node000016" class="node">
<title>Node16</title>
<g id="a_Node000016"><a xlink:href="classiii__drone_1_1control_1_1CombinedDroneAwarenessHandler.html#a6c9bf5862bcb8d6240db1eb7bb2aa221" target="_top" xlink:title="Updates the combined drone awareness from the powerline. Triggers updates of target_cable_position_kn...">
<polygon fill="white" stroke="#666666" points="728.5,-400 467.5,-400 467.5,-359 728.5,-359 728.5,-400"/>
<text text-anchor="start" x="475.5" y="-388" font-family="Helvetica,sans-Serif" font-size="10.00">iii_drone::control</text>
<text text-anchor="start" x="475.5" y="-377" font-family="Helvetica,sans-Serif" font-size="10.00">::CombinedDroneAwarenessHandler</text>
<text text-anchor="middle" x="598" y="-366" font-family="Helvetica,sans-Serif" font-size="10.00">::updateCombinedDroneAwarenessFromPowerline</text>
</a>
</g>
</g>
<!-- Node1&#45;&gt;Node16 -->
<g id="edge30_Node000001_Node000016" class="edge">
<title>Node1&#45;&gt;Node16</title>
<g id="a_edge30_Node000001_Node000016"><a xlink:title=" ">
<path fill="none" stroke="#63b8ff" d="M193.22,-355.25C267.94,-359.74 372.84,-366.04 456.99,-371.09"/>
<polygon fill="#63b8ff" stroke="#63b8ff" points="456.96,-374.6 467.15,-371.7 457.38,-367.61 456.96,-374.6"/>
</a>
</g>
</g>
<!-- Node18 -->
<g id="Node000018" class="node">
<title>Node18</title>
<g id="a_Node000018"><a xlink:href="classiii__drone_1_1control_1_1CombinedDroneAwarenessHandler.html#a4e034376edf0fa35dfb08d24220826ab" target="_top" xlink:title="Updates the combined drone awareness from the vehicle odometry. Triggers updates of ground altitude e...">
<polygon fill="white" stroke="#666666" points="722,-322.5 474,-322.5 474,-270.5 722,-270.5 722,-322.5"/>
<text text-anchor="start" x="482" y="-310.5" font-family="Helvetica,sans-Serif" font-size="10.00">iii_drone::control</text>
<text text-anchor="start" x="482" y="-299.5" font-family="Helvetica,sans-Serif" font-size="10.00">::CombinedDroneAwarenessHandler</text>
<text text-anchor="start" x="482" y="-288.5" font-family="Helvetica,sans-Serif" font-size="10.00">::updateCombinedDroneAwarenessFromVehicle</text>
<text text-anchor="middle" x="598" y="-277.5" font-family="Helvetica,sans-Serif" font-size="10.00">Odometry</text>
</a>
</g>
</g>
<!-- Node1&#45;&gt;Node18 -->
<g id="edge31_Node000001_Node000018" class="edge">
<title>Node1&#45;&gt;Node18</title>
<g id="a_edge31_Node000001_Node000018"><a xlink:title=" ">
<path fill="none" stroke="#63b8ff" d="M193.22,-339.34C269.92,-331.2 378.43,-319.69 463.65,-310.65"/>
<polygon fill="#63b8ff" stroke="#63b8ff" points="464.09,-314.12 473.66,-309.59 463.35,-307.16 464.09,-314.12"/>
</a>
</g>
</g>
<!-- Node19 -->
<g id="Node000019" class="node">
<title>Node19</title>
<g id="a_Node000019"><a xlink:href="classiii__drone_1_1control_1_1CombinedDroneAwarenessHandler.html#ad999fbf4444ded0e2b496089e6cd14ae" target="_top" xlink:title="Updates the combined drone awareness from the vehicle status. Triggers updates of armed,...">
<polygon fill="white" stroke="#666666" points="737.5,-234 458.5,-234 458.5,-193 737.5,-193 737.5,-234"/>
<text text-anchor="start" x="466.5" y="-222" font-family="Helvetica,sans-Serif" font-size="10.00">iii_drone::control</text>
<text text-anchor="start" x="466.5" y="-211" font-family="Helvetica,sans-Serif" font-size="10.00">::CombinedDroneAwarenessHandler</text>
<text text-anchor="middle" x="598" y="-200" font-family="Helvetica,sans-Serif" font-size="10.00">::updateCombinedDroneAwarenessFromVehicleStatus</text>
</a>
</g>
</g>
<!-- Node1&#45;&gt;Node19 -->
<g id="edge32_Node000001_Node000019" class="edge">
<title>Node1&#45;&gt;Node19</title>
<g id="a_edge32_Node000001_Node000019"><a xlink:title=" ">
<path fill="none" stroke="#63b8ff" d="M165.3,-328.96C185.73,-322.89 208.25,-316.31 229,-310.5 323.23,-284.12 431.59,-255.79 506.2,-236.61"/>
<polygon fill="#63b8ff" stroke="#63b8ff" points="507.23,-239.96 516.04,-234.08 505.49,-233.18 507.23,-239.96"/>
</a>
</g>
</g>
<!-- Node5 -->
<g id="Node000005" class="node">
<title>Node5</title>
<g id="a_Node000005"><a xlink:href="classiii__drone_1_1control_1_1CombinedDroneAwarenessHandler.html#a210daa5f6654327a96c6d24dae007816" target="_top" xlink:title="Returns the current target adapter, will have TARGET_TYPE_NONE if no target.">
<polygon fill="white" stroke="#666666" points="694.5,-574 501.5,-574 501.5,-533 694.5,-533 694.5,-574"/>
<text text-anchor="start" x="509.5" y="-562" font-family="Helvetica,sans-Serif" font-size="10.00">iii_drone::control</text>
<text text-anchor="start" x="509.5" y="-551" font-family="Helvetica,sans-Serif" font-size="10.00">::CombinedDroneAwarenessHandler</text>
<text text-anchor="middle" x="598" y="-540" font-family="Helvetica,sans-Serif" font-size="10.00">::target_adapter</text>
</a>
</g>
</g>
<!-- Node4&#45;&gt;Node5 -->
<g id="edge4_Node000004_Node000005" class="edge">
<title>Node4&#45;&gt;Node5</title>
<g id="a_edge4_Node000004_Node000005"><a xlink:title=" ">
<path fill="none" stroke="#63b8ff" d="M407.3,-457.17C412.5,-459.91 417.46,-463 422,-466.5 445.75,-484.77 433.44,-506.33 458,-523.5 468.14,-530.59 479.63,-536.05 491.57,-540.25"/>
<polygon fill="#63b8ff" stroke="#63b8ff" points="490.62,-543.62 501.21,-543.36 492.76,-536.96 490.62,-543.62"/>
</a>
</g>
</g>
<!-- Node6 -->
<g id="Node000006" class="node">
<title>Node6</title>
<g id="a_Node000006"><a xlink:href="classiii__drone_1_1adapters_1_1TargetAdapter.html#a7b5c36b234213f1d19fa8f1943c26c4a" target="_top" xlink:title="Gets the target type.">
<polygon fill="white" stroke="#666666" points="674.5,-514.5 521.5,-514.5 521.5,-484.5 674.5,-484.5 674.5,-514.5"/>
<text text-anchor="start" x="529.5" y="-502.5" font-family="Helvetica,sans-Serif" font-size="10.00">iii_drone::adapters</text>
<text text-anchor="middle" x="598" y="-491.5" font-family="Helvetica,sans-Serif" font-size="10.00">::TargetAdapter::target_type</text>
</a>
</g>
</g>
<!-- Node4&#45;&gt;Node6 -->
<g id="edge5_Node000004_Node000006" class="edge">
<title>Node4&#45;&gt;Node6</title>
<g id="a_edge5_Node000004_Node000006"><a xlink:title=" ">
<path fill="none" stroke="#63b8ff" d="M390.31,-457.06C411.68,-463.51 435.74,-470.3 458,-475.5 475.04,-479.48 493.4,-483.11 511.02,-486.28"/>
<polygon fill="#63b8ff" stroke="#63b8ff" points="510.83,-489.8 521.29,-488.09 512.05,-482.9 510.83,-489.8"/>
</a>
</g>
</g>
<!-- Node7 -->
<g id="Node000007" class="node">
<title>Node7</title>
<g id="a_Node000007"><a xlink:href="classiii__drone_1_1adapters_1_1TargetAdapter.html#a7f5e4134e43162cc5d8652ae3f3676f9" target="_top" xlink:title="Converts to a target message.">
<polygon fill="white" stroke="#666666" points="662,-466.5 534,-466.5 534,-436.5 662,-436.5 662,-466.5"/>
<text text-anchor="start" x="542" y="-454.5" font-family="Helvetica,sans-Serif" font-size="10.00">iii_drone::adapters</text>
<text text-anchor="middle" x="598" y="-443.5" font-family="Helvetica,sans-Serif" font-size="10.00">::TargetAdapter::ToMsg</text>
</a>
</g>
</g>
<!-- Node4&#45;&gt;Node7 -->
<g id="edge6_Node000004_Node000007" class="edge">
<title>Node4&#45;&gt;Node7</title>
<g id="a_edge6_Node000004_Node000007"><a xlink:title=" ">
<path fill="none" stroke="#63b8ff" d="M422.25,-441.81C455.57,-443.66 492.39,-445.7 523.61,-447.43"/>
<polygon fill="#63b8ff" stroke="#63b8ff" points="523.79,-450.95 533.97,-448 524.18,-443.96 523.79,-450.95"/>
</a>
</g>
</g>
<!-- Node8 -->
<g id="Node000008" class="node">
<title>Node8</title>
<g id="a_Node000008"><a xlink:href="namespaceiii__drone_1_1types.html#a0396acee98ad42f5c2ac88b92619c1d8" target="_top" xlink:title=" ">
<polygon fill="white" stroke="#666666" points="943.5,-466.5 797.5,-466.5 797.5,-436.5 943.5,-436.5 943.5,-466.5"/>
<text text-anchor="start" x="805.5" y="-454.5" font-family="Helvetica,sans-Serif" font-size="10.00">iii_drone::types::transform</text>
<text text-anchor="middle" x="870.5" y="-443.5" font-family="Helvetica,sans-Serif" font-size="10.00">MsgFromTransformMatrix</text>
</a>
</g>
</g>
<!-- Node7&#45;&gt;Node8 -->
<g id="edge7_Node000007_Node000008" class="edge">
<title>Node7&#45;&gt;Node8</title>
<g id="a_edge7_Node000007_Node000008"><a xlink:title=" ">
<path fill="none" stroke="#63b8ff" d="M662.08,-451.5C699.35,-451.5 746.97,-451.5 787.18,-451.5"/>
<polygon fill="#63b8ff" stroke="#63b8ff" points="787.23,-455 797.23,-451.5 787.23,-448 787.23,-455"/>
</a>
</g>
</g>
<!-- Node9 -->
<g id="Node000009" class="node">
<title>Node9</title>
<g id="a_Node000009"><a xlink:href="namespaceiii__drone_1_1types.html#a697d4ff4e536df203d0c6acf6daf0751" target="_top" xlink:title=" ">
<polygon fill="white" stroke="#666666" points="1153,-514.5 1003,-514.5 1003,-484.5 1153,-484.5 1153,-514.5"/>
<text text-anchor="start" x="1011" y="-502.5" font-family="Helvetica,sans-Serif" font-size="10.00">iii_drone::types::quaternion</text>
<text text-anchor="middle" x="1078" y="-491.5" font-family="Helvetica,sans-Serif" font-size="10.00">FromTransformMatrix</text>
</a>
</g>
</g>
<!-- Node8&#45;&gt;Node9 -->
<g id="edge8_Node000008_Node000009" class="edge">
<title>Node8&#45;&gt;Node9</title>
<g id="a_edge8_Node000008_Node000009"><a xlink:title=" ">
<path fill="none" stroke="#63b8ff" d="M935.96,-466.56C957.19,-471.51 980.97,-477.07 1002.86,-482.18"/>
<polygon fill="#63b8ff" stroke="#63b8ff" points="1002.24,-485.63 1012.77,-484.5 1003.83,-478.81 1002.24,-485.63"/>
</a>
</g>
</g>
<!-- Node11 -->
<g id="Node000011" class="node">
<title>Node11</title>
<g id="a_Node000011"><a xlink:href="namespaceiii__drone_1_1types.html#a345601fdf3366d6af6d7c2003d74275b" target="_top" xlink:title=" ">
<polygon fill="white" stroke="#666666" points="1153,-466.5 1003,-466.5 1003,-436.5 1153,-436.5 1153,-466.5"/>
<text text-anchor="start" x="1011" y="-454.5" font-family="Helvetica,sans-Serif" font-size="10.00">iii_drone::types::quaternion</text>
<text text-anchor="middle" x="1078" y="-443.5" font-family="Helvetica,sans-Serif" font-size="10.00">MsgFromQuaternion</text>
</a>
</g>
</g>
<!-- Node8&#45;&gt;Node11 -->
<g id="edge10_Node000008_Node000011" class="edge">
<title>Node8&#45;&gt;Node11</title>
<g id="a_edge10_Node000008_Node000011"><a xlink:title=" ">
<path fill="none" stroke="#63b8ff" d="M943.66,-451.5C959.56,-451.5 976.53,-451.5 992.86,-451.5"/>
<polygon fill="#63b8ff" stroke="#63b8ff" points="992.92,-455 1002.92,-451.5 992.92,-448 992.92,-455"/>
</a>
</g>
</g>
<!-- Node12 -->
<g id="Node000012" class="node">
<title>Node12</title>
<g id="a_Node000012"><a xlink:href="namespaceiii__drone_1_1types.html#a55650c4ff895bbd1c624ee51c235a102" target="_top" xlink:title=" ">
<polygon fill="white" stroke="#666666" points="1142,-418.5 1014,-418.5 1014,-388.5 1142,-388.5 1142,-418.5"/>
<text text-anchor="start" x="1022" y="-406.5" font-family="Helvetica,sans-Serif" font-size="10.00">iii_drone::types::vector</text>
<text text-anchor="middle" x="1078" y="-395.5" font-family="Helvetica,sans-Serif" font-size="10.00">MsgFromVector</text>
</a>
</g>
</g>
<!-- Node8&#45;&gt;Node12 -->
<g id="edge11_Node000008_Node000012" class="edge">
<title>Node8&#45;&gt;Node12</title>
<g id="a_edge11_Node000008_Node000012"><a xlink:title=" ">
<path fill="none" stroke="#63b8ff" d="M935.96,-436.44C957.5,-431.41 981.65,-425.77 1003.81,-420.6"/>
<polygon fill="#63b8ff" stroke="#63b8ff" points="1004.89,-423.94 1013.83,-418.26 1003.29,-417.12 1004.89,-423.94"/>
</a>
</g>
</g>
<!-- Node10 -->
<g id="Node000010" class="node">
<title>Node10</title>
<g id="a_Node000010"><a xlink:href="namespaceiii__drone_1_1math.html#af4cd05fd620f368b776def1c899e2f17" target="_top" xlink:title=" ">
<polygon fill="white" stroke="#666666" points="1338,-509 1189,-509 1189,-490 1338,-490 1338,-509"/>
<text text-anchor="middle" x="1263.5" y="-497" font-family="Helvetica,sans-Serif" font-size="10.00">iii_drone::math::matToQuat</text>
</a>
</g>
</g>
<!-- Node9&#45;&gt;Node10 -->
<g id="edge9_Node000009_Node000010" class="edge">
<title>Node9&#45;&gt;Node10</title>
<g id="a_edge9_Node000009_Node000010"><a xlink:title=" ">
<path fill="none" stroke="#63b8ff" d="M1153.11,-499.5C1161.45,-499.5 1170,-499.5 1178.46,-499.5"/>
<polygon fill="#63b8ff" stroke="#63b8ff" points="1178.71,-503 1188.71,-499.5 1178.71,-496 1178.71,-503"/>
</a>
</g>
</g>
<!-- Node14 -->
<g id="Node000014" class="node">
<title>Node14</title>
<g id="a_Node000014"><a xlink:href="classiii__drone_1_1control_1_1CombinedDroneAwarenessHandler.html#a7489deb4a1885f6b4985a3f6de205b64" target="_top" xlink:title="Getter for the combined drone awareness simple type by copy.">
<polygon fill="white" stroke="#666666" points="967,-196 774,-196 774,-155 967,-155 967,-196"/>
<text text-anchor="start" x="782" y="-184" font-family="Helvetica,sans-Serif" font-size="10.00">iii_drone::control</text>
<text text-anchor="start" x="782" y="-173" font-family="Helvetica,sans-Serif" font-size="10.00">::CombinedDroneAwarenessHandler</text>
<text text-anchor="middle" x="870.5" y="-162" font-family="Helvetica,sans-Serif" font-size="10.00">::combined_drone_awareness</text>
</a>
</g>
</g>
<!-- Node13&#45;&gt;Node14 -->
<g id="edge13_Node000013_Node000014" class="edge">
<title>Node13&#45;&gt;Node14</title>
<g id="a_edge13_Node000013_Node000014"><a xlink:title=" ">
<path fill="none" stroke="#63b8ff" d="M343.48,-192.88C366.34,-166.92 409.74,-123.65 458,-106.5 575.26,-64.82 617.17,-76.72 738,-106.5 771.81,-114.83 806.55,-133.58 831.83,-149.43"/>
<polygon fill="#63b8ff" stroke="#63b8ff" points="830.05,-152.45 840.36,-154.9 833.83,-146.56 830.05,-152.45"/>
</a>
</g>
</g>
<!-- Node13&#45;&gt;Node15 -->
<g id="edge14_Node000013_Node000015" class="edge">
<title>Node13&#45;&gt;Node15</title>
<g id="a_edge14_Node000013_Node000015"><a xlink:title=" ">
<path fill="none" stroke="#63b8ff" d="M345.07,-192.72C378.08,-155.93 444.77,-82.37 458,-73.5 475.33,-61.88 495.56,-52.32 515.14,-44.67"/>
<polygon fill="#63b8ff" stroke="#63b8ff" points="516.57,-47.88 524.69,-41.07 514.09,-41.33 516.57,-47.88"/>
</a>
</g>
</g>
<!-- Node13&#45;&gt;Node16 -->
<g id="edge17_Node000013_Node000016" class="edge">
<title>Node13&#45;&gt;Node16</title>
<g id="a_edge17_Node000013_Node000016"><a xlink:title=" ">
<path fill="none" stroke="#63b8ff" d="M340.37,-234.24C361.82,-264.59 406.04,-320.61 458,-349.5 461.48,-351.44 465.08,-353.25 468.75,-354.94"/>
<polygon fill="#63b8ff" stroke="#63b8ff" points="467.49,-358.2 478.06,-358.91 470.24,-351.77 467.49,-358.2"/>
</a>
</g>
</g>
<!-- Node17 -->
<g id="Node000017" class="node">
<title>Node17</title>
<g id="a_Node000017"><a xlink:href="classiii__drone_1_1control_1_1CombinedDroneAwarenessHandler.html#ad188c61fd53e863b42cbd21c67d9bbf3" target="_top" xlink:title="Updates the combined drone awareness from the target adapter. Triggers updates of target_adapter,...">
<polygon fill="white" stroke="#666666" points="719.5,-157 476.5,-157 476.5,-116 719.5,-116 719.5,-157"/>
<text text-anchor="start" x="484.5" y="-145" font-family="Helvetica,sans-Serif" font-size="10.00">iii_drone::control</text>
<text text-anchor="start" x="484.5" y="-134" font-family="Helvetica,sans-Serif" font-size="10.00">::CombinedDroneAwarenessHandler</text>
<text text-anchor="middle" x="598" y="-123" font-family="Helvetica,sans-Serif" font-size="10.00">::updateCombinedDroneAwarenessFromTarget</text>
</a>
</g>
</g>
<!-- Node13&#45;&gt;Node17 -->
<g id="edge20_Node000013_Node000017" class="edge">
<title>Node13&#45;&gt;Node17</title>
<g id="a_edge20_Node000013_Node000017"><a xlink:title=" ">
<path fill="none" stroke="#63b8ff" d="M398.63,-192.97C434.41,-182.78 477.77,-170.44 514.83,-159.89"/>
<polygon fill="#63b8ff" stroke="#63b8ff" points="515.94,-163.21 524.6,-157.11 514.02,-156.48 515.94,-163.21"/>
</a>
</g>
</g>
<!-- Node13&#45;&gt;Node18 -->
<g id="edge23_Node000013_Node000018" class="edge">
<title>Node13&#45;&gt;Node18</title>
<g id="a_edge23_Node000013_Node000018"><a xlink:title=" ">
<path fill="none" stroke="#63b8ff" d="M378.87,-234.02C402.8,-243.04 431.63,-253.39 458,-261.5 464.87,-263.61 471.96,-265.69 479.12,-267.72"/>
<polygon fill="#63b8ff" stroke="#63b8ff" points="478.37,-271.14 488.94,-270.46 480.25,-264.4 478.37,-271.14"/>
</a>
</g>
</g>
<!-- Node13&#45;&gt;Node19 -->
<g id="edge26_Node000013_Node000019" class="edge">
<title>Node13&#45;&gt;Node19</title>
<g id="a_edge26_Node000013_Node000019"><a xlink:title=" ">
<path fill="none" stroke="#63b8ff" d="M422.25,-213.5C430.66,-213.5 439.29,-213.5 448.01,-213.5"/>
<polygon fill="#63b8ff" stroke="#63b8ff" points="448.26,-217 458.26,-213.5 448.26,-210 448.26,-217"/>
</a>
</g>
</g>
<!-- Node15&#45;&gt;Node14 -->
<g id="edge15_Node000015_Node000014" class="edge">
<title>Node15&#45;&gt;Node14</title>
<g id="a_edge15_Node000015_Node000014"><a xlink:title=" ">
<path fill="none" stroke="#63b8ff" d="M664.8,-41.08C688.57,-49.67 715.15,-60.66 738,-73.5 775.5,-94.58 813.86,-125.64 839.4,-147.94"/>
<polygon fill="#63b8ff" stroke="#63b8ff" points="837.41,-150.85 847.22,-154.85 842.04,-145.61 837.41,-150.85"/>
</a>
</g>
</g>
<!-- Node15&#45;&gt;Node15 -->
<g id="edge16_Node000015_Node000015" class="edge">
<title>Node15&#45;&gt;Node15</title>
<g id="a_edge16_Node000015_Node000015"><a xlink:title=" ">
<path fill="none" stroke="#63b8ff" d="M548.01,-41.1C542.55,-50.65 559.22,-59 598,-59 622.24,-59 637.84,-55.74 644.8,-50.96"/>
<polygon fill="#63b8ff" stroke="#63b8ff" points="648.24,-51.69 647.99,-41.1 641.58,-49.53 648.24,-51.69"/>
</a>
</g>
</g>
<!-- Node16&#45;&gt;Node14 -->
<g id="edge18_Node000016_Node000014" class="edge">
<title>Node16&#45;&gt;Node14</title>
<g id="a_edge18_Node000016_Node000014"><a xlink:title=" ">
<path fill="none" stroke="#63b8ff" d="M720.54,-358.88C726.62,-356.13 732.49,-353.02 738,-349.5 794.05,-313.72 835.08,-245.15 855.33,-205.61"/>
<polygon fill="#63b8ff" stroke="#63b8ff" points="858.68,-206.73 860.02,-196.22 852.42,-203.6 858.68,-206.73"/>
</a>
</g>
</g>
<!-- Node16&#45;&gt;Node16 -->
<g id="edge19_Node000016_Node000016" class="edge">
<title>Node16&#45;&gt;Node16</title>
<g id="a_edge19_Node000016_Node000016"><a xlink:title=" ">
<path fill="none" stroke="#63b8ff" d="M548.01,-400.1C542.55,-409.65 559.22,-418 598,-418 622.24,-418 637.84,-414.74 644.8,-409.96"/>
<polygon fill="#63b8ff" stroke="#63b8ff" points="648.24,-410.69 647.99,-400.1 641.58,-408.53 648.24,-410.69"/>
</a>
</g>
</g>
<!-- Node17&#45;&gt;Node14 -->
<g id="edge21_Node000017_Node000014" class="edge">
<title>Node17&#45;&gt;Node14</title>
<g id="a_edge21_Node000017_Node000014"><a xlink:title=" ">
<path fill="none" stroke="#63b8ff" d="M719.61,-153.89C734.38,-156.02 749.38,-158.18 763.91,-160.28"/>
<polygon fill="#63b8ff" stroke="#63b8ff" points="763.48,-163.75 773.87,-161.71 764.48,-156.82 763.48,-163.75"/>
</a>
</g>
</g>
<!-- Node17&#45;&gt;Node17 -->
<g id="edge22_Node000017_Node000017" class="edge">
<title>Node17&#45;&gt;Node17</title>
<g id="a_edge22_Node000017_Node000017"><a xlink:title=" ">
<path fill="none" stroke="#63b8ff" d="M548.01,-157.1C542.55,-166.65 559.22,-175 598,-175 622.24,-175 637.84,-171.74 644.8,-166.96"/>
<polygon fill="#63b8ff" stroke="#63b8ff" points="648.24,-167.69 647.99,-157.1 641.58,-165.53 648.24,-167.69"/>
</a>
</g>
</g>
<!-- Node18&#45;&gt;Node14 -->
<g id="edge24_Node000018_Node000014" class="edge">
<title>Node18&#45;&gt;Node14</title>
<g id="a_edge24_Node000018_Node000014"><a xlink:title=" ">
<path fill="none" stroke="#63b8ff" d="M714.91,-270.47C722.82,-267.73 730.59,-264.75 738,-261.5 773.47,-245.96 810.03,-221.21 835.58,-202.24"/>
<polygon fill="#63b8ff" stroke="#63b8ff" points="837.91,-204.87 843.8,-196.06 833.7,-199.27 837.91,-204.87"/>
</a>
</g>
</g>
<!-- Node18&#45;&gt;Node18 -->
<g id="edge25_Node000018_Node000018" class="edge">
<title>Node18&#45;&gt;Node18</title>
<g id="a_edge25_Node000018_Node000018"><a xlink:title=" ">
<path fill="none" stroke="#63b8ff" d="M547.11,-322.7C545.44,-332.46 562.41,-340.5 598,-340.5 621.64,-340.5 637.06,-336.96 644.26,-331.72"/>
<polygon fill="#63b8ff" stroke="#63b8ff" points="647.44,-333.19 648.89,-322.7 641.21,-330 647.44,-333.19"/>
</a>
</g>
</g>
<!-- Node19&#45;&gt;Node14 -->
<g id="edge27_Node000019_Node000014" class="edge">
<title>Node19&#45;&gt;Node14</title>
<g id="a_edge27_Node000019_Node000014"><a xlink:title=" ">
<path fill="none" stroke="#63b8ff" d="M737.82,-194C746.58,-192.77 755.32,-191.54 763.9,-190.33"/>
<polygon fill="#63b8ff" stroke="#63b8ff" points="764.47,-193.79 773.88,-188.93 763.49,-186.86 764.47,-193.79"/>
</a>
</g>
</g>
<!-- Node19&#45;&gt;Node19 -->
<g id="edge28_Node000019_Node000019" class="edge">
<title>Node19&#45;&gt;Node19</title>
<g id="a_edge28_Node000019_Node000019"><a xlink:title=" ">
<path fill="none" stroke="#63b8ff" d="M548.01,-234.1C542.55,-243.65 559.22,-252 598,-252 622.24,-252 637.84,-248.74 644.8,-243.96"/>
<polygon fill="#63b8ff" stroke="#63b8ff" points="648.24,-244.69 647.99,-234.1 641.58,-242.53 648.24,-244.69"/>
</a>
</g>
</g>
</g>
</svg>

<g id="navigator" transform="translate(0 0)" fill="#404254">
  <rect fill="#f2f5e9" fill-opacity="0.5" stroke="#606060" stroke-width=".5" x="0" y="0" width="60" height="60"/>
  <use id="zoomplus" xlink:href="#zoomPlus" x="17" y="9" onmousedown="handleZoom(evt,'in')"/>
  <use id="zoomminus" xlink:href="#zoomMin" x="42" y="9" onmousedown="handleZoom(evt,'out')"/>
  <use id="reset" xlink:href="#resetDef" x="30" y="36" onmousedown="handleReset()"/>
   <use id="arrowup" xlink:href="#arrowUp" x="0" y="0" onmousedown="handlePan(0,-1)"/>
  <use id="arrowright" xlink:href="#arrowRight" x="0" y="0" onmousedown="handlePan(1,0)"/>
  <use id="arrowdown" xlink:href="#arrowDown" x="0" y="0" onmousedown="handlePan(0,1)"/>
  <use id="arrowleft" xlink:href="#arrowLeft" x="0" y="0" onmousedown="handlePan(-1,0)"/>
</g>
<svg viewBox="0 0 15 15" width="100%" height="30px" preserveAspectRatio="xMaxYMin meet">
 <g id="arrow_out" transform="scale(0.3 0.3)">
  <a xlink:href="classiii__drone_1_1control_1_1CombinedDroneAwarenessHandler_a45046cb4335f9a4fe757b195ae4851ca_cgraph_org.svg" target="_base">
   <rect id="button" ry="5" rx="5" y="6" x="6" height="38" width="38"
        fill="#f2f5e9" fill-opacity="0.5" stroke="#606060" stroke-width="1.0"/>
   <path id="arrow"
     d="M 11.500037,31.436501 C 11.940474,20.09759 22.043105,11.32322 32.158766,21.979434 L 37.068811,17.246167 C 37.068811,17.246167 37.088388,32 37.088388,32 L 22.160133,31.978069 C 22.160133,31.978069 26.997745,27.140456 26.997745,27.140456 C 18.528582,18.264221 13.291696,25.230495 11.500037,31.436501 z"
     style="fill:#404040;"/>
  </a>
 </g>
</svg>

<style type='text/css'>
<![CDATA[
[data-mouse-over-selected='false'] { opacity: 0.7; }
[data-mouse-over-selected='true']  { opacity: 1.0; }
]]>
</style>
<script type="application/ecmascript"><![CDATA[
document.addEventListener('DOMContentLoaded', (event) => {
  highlightEdges();
  highlightAdjacentNodes();
});
]]></script>
</svg>
