<?xml version="1.0" encoding="UTF-8" standalone="no"?>
<!DOCTYPE svg PUBLIC "-//W3C//DTD SVG 1.1//EN"
 "http://www.w3.org/Graphics/SVG/1.1/DTD/svg11.dtd">
<!-- Generated by graphviz version 2.43.0 (0)
 -->
<!-- Title: iii_drone::mission::continuous_mission_orchestrator_node::ContinuousMissionOrchestrator::stateMachineOpeningGripper Pages: 1 -->
<svg width="758pt" height="663pt"
 viewBox="0.00 0.00 758.00 662.50" xmlns="http://www.w3.org/2000/svg" xmlns:xlink="http://www.w3.org/1999/xlink">
<g id="graph0" class="graph" transform="scale(1 1) rotate(0) translate(4 658.5)">
<title>iii_drone::mission::continuous_mission_orchestrator_node::ContinuousMissionOrchestrator::stateMachineOpeningGripper</title>
<!-- Node1 -->
<g id="Node000001" class="node">
<title>Node1</title>
<g id="a_Node000001"><a xlink:title=" ">
<polygon fill="#999999" stroke="#666666" points="227,-426 0,-426 0,-363 227,-363 227,-426"/>
<text text-anchor="start" x="8" y="-414" font-family="Helvetica,sans-Serif" font-size="10.00">iii_drone::mission</text>
<text text-anchor="start" x="8" y="-403" font-family="Helvetica,sans-Serif" font-size="10.00">::continuous_mission</text>
<text text-anchor="start" x="8" y="-392" font-family="Helvetica,sans-Serif" font-size="10.00">_orchestrator_node::Continuous</text>
<text text-anchor="start" x="8" y="-381" font-family="Helvetica,sans-Serif" font-size="10.00">MissionOrchestrator::stateMachineOpening</text>
<text text-anchor="middle" x="113.5" y="-370" font-family="Helvetica,sans-Serif" font-size="10.00">Gripper</text>
</a>
</g>
</g>
<!-- Node2 -->
<g id="Node000002" class="node">
<title>Node2</title>
<g id="a_Node000002"><a xlink:href="classiii__drone_1_1mission_1_1continuous__mission__orchestrator__node_1_1ContinuousMissionOrchestrator.html#afa42fc228153051b996b65cf0dc887ee" target="_top" xlink:title=" ">
<polygon fill="white" stroke="#666666" points="470,-654.5 279,-654.5 279,-602.5 470,-602.5 470,-654.5"/>
<text text-anchor="start" x="287" y="-642.5" font-family="Helvetica,sans-Serif" font-size="10.00">iii_drone::mission</text>
<text text-anchor="start" x="287" y="-631.5" font-family="Helvetica,sans-Serif" font-size="10.00">::continuous_mission</text>
<text text-anchor="start" x="287" y="-620.5" font-family="Helvetica,sans-Serif" font-size="10.00">_orchestrator_node::Continuous</text>
<text text-anchor="middle" x="374.5" y="-609.5" font-family="Helvetica,sans-Serif" font-size="10.00">MissionOrchestrator::actionTimeout</text>
</a>
</g>
</g>
<!-- Node1&#45;&gt;Node2 -->
<g id="edge1_Node000001_Node000002" class="edge">
<title>Node1&#45;&gt;Node2</title>
<g id="a_edge1_Node000001_Node000002"><a xlink:title=" ">
<path fill="none" stroke="#63b8ff" d="M131.1,-426.21C154.91,-468.8 202.61,-544.25 263,-588.5 267.47,-591.78 272.24,-594.81 277.2,-597.62"/>
<polygon fill="#63b8ff" stroke="#63b8ff" points="275.81,-600.84 286.28,-602.42 279.08,-594.65 275.81,-600.84"/>
</a>
</g>
</g>
<!-- Node3 -->
<g id="Node000003" class="node">
<title>Node3</title>
<g id="a_Node000003"><a xlink:href="classiii__drone_1_1mission_1_1continuous__mission__orchestrator__node_1_1ContinuousMissionOrchestrator.html#a2f2669bf4c93ef1c98f84291bb7df783" target="_top" xlink:title=" ">
<polygon fill="white" stroke="#666666" points="739,-610 533,-610 533,-547 739,-547 739,-610"/>
<text text-anchor="start" x="541" y="-598" font-family="Helvetica,sans-Serif" font-size="10.00">iii_drone::mission</text>
<text text-anchor="start" x="541" y="-587" font-family="Helvetica,sans-Serif" font-size="10.00">::continuous_mission</text>
<text text-anchor="start" x="541" y="-576" font-family="Helvetica,sans-Serif" font-size="10.00">_orchestrator_node::Continuous</text>
<text text-anchor="start" x="541" y="-565" font-family="Helvetica,sans-Serif" font-size="10.00">MissionOrchestrator::gripperCommand</text>
<text text-anchor="middle" x="636" y="-554" font-family="Helvetica,sans-Serif" font-size="10.00">Succeeded</text>
</a>
</g>
</g>
<!-- Node1&#45;&gt;Node3 -->
<g id="edge2_Node000001_Node000003" class="edge">
<title>Node1&#45;&gt;Node3</title>
<g id="a_edge2_Node000001_Node000003"><a xlink:title=" ">
<path fill="none" stroke="#63b8ff" d="M132.89,-426.06C157.2,-464.39 203.93,-527.42 263,-555.5 307.36,-576.59 429.92,-580.75 522.34,-580.65"/>
<polygon fill="#63b8ff" stroke="#63b8ff" points="522.61,-584.15 532.6,-580.62 522.59,-577.15 522.61,-584.15"/>
</a>
</g>
</g>
<!-- Node4 -->
<g id="Node000004" class="node">
<title>Node4</title>
<g id="a_Node000004"><a xlink:href="classiii__drone_1_1mission_1_1continuous__mission__orchestrator__node_1_1ContinuousMissionOrchestrator.html#a92753f5f3cbef8bc241e748f94226212" target="_top" xlink:title=" ">
<polygon fill="white" stroke="#666666" points="477.5,-546 271.5,-546 271.5,-483 477.5,-483 477.5,-546"/>
<text text-anchor="start" x="279.5" y="-534" font-family="Helvetica,sans-Serif" font-size="10.00">iii_drone::mission</text>
<text text-anchor="start" x="279.5" y="-523" font-family="Helvetica,sans-Serif" font-size="10.00">::continuous_mission</text>
<text text-anchor="start" x="279.5" y="-512" font-family="Helvetica,sans-Serif" font-size="10.00">_orchestrator_node::Continuous</text>
<text text-anchor="start" x="279.5" y="-501" font-family="Helvetica,sans-Serif" font-size="10.00">MissionOrchestrator::gripperCommand</text>
<text text-anchor="middle" x="374.5" y="-490" font-family="Helvetica,sans-Serif" font-size="10.00">Terminated</text>
</a>
</g>
</g>
<!-- Node1&#45;&gt;Node4 -->
<g id="edge3_Node000001_Node000004" class="edge">
<title>Node1&#45;&gt;Node4</title>
<g id="a_edge3_Node000001_Node000004"><a xlink:title=" ">
<path fill="none" stroke="#63b8ff" d="M169.68,-426.12C197.27,-441.34 231.43,-459.32 263,-473.5 267.15,-475.37 271.42,-477.22 275.75,-479.04"/>
<polygon fill="#63b8ff" stroke="#63b8ff" points="274.73,-482.41 285.31,-482.99 277.4,-475.94 274.73,-482.41"/>
</a>
</g>
</g>
<!-- Node5 -->
<g id="Node000005" class="node">
<title>Node5</title>
<g id="a_Node000005"><a xlink:href="classiii__drone_1_1mission_1_1continuous__mission__orchestrator__node_1_1ContinuousMissionOrchestrator.html#a6469634804b73036ef9c941471bd4725" target="_top" xlink:title=" ">
<polygon fill="white" stroke="#666666" points="469,-464.5 280,-464.5 280,-412.5 469,-412.5 469,-464.5"/>
<text text-anchor="start" x="288" y="-452.5" font-family="Helvetica,sans-Serif" font-size="10.00">iii_drone::mission</text>
<text text-anchor="start" x="288" y="-441.5" font-family="Helvetica,sans-Serif" font-size="10.00">::continuous_mission</text>
<text text-anchor="start" x="288" y="-430.5" font-family="Helvetica,sans-Serif" font-size="10.00">_orchestrator_node::Continuous</text>
<text text-anchor="middle" x="374.5" y="-419.5" font-family="Helvetica,sans-Serif" font-size="10.00">MissionOrchestrator::gripperIsOpen</text>
</a>
</g>
</g>
<!-- Node1&#45;&gt;Node5 -->
<g id="edge4_Node000001_Node000005" class="edge">
<title>Node1&#45;&gt;Node5</title>
<g id="a_edge4_Node000001_Node000005"><a xlink:title=" ">
<path fill="none" stroke="#63b8ff" d="M227.35,-413.67C241.39,-416.06 255.69,-418.49 269.59,-420.85"/>
<polygon fill="#63b8ff" stroke="#63b8ff" points="269.18,-424.33 279.63,-422.55 270.36,-417.43 269.18,-424.33"/>
</a>
</g>
</g>
<!-- Node8 -->
<g id="Node000008" class="node">
<title>Node8</title>
<g id="a_Node000008"><a xlink:href="classiii__drone_1_1mission_1_1continuous__mission__orchestrator__node_1_1ContinuousMissionOrchestrator.html#a255a63c088ad053df407f38cd5c61ea3" target="_top" xlink:title=" ">
<polygon fill="white" stroke="#666666" points="486,-376.5 263,-376.5 263,-324.5 486,-324.5 486,-376.5"/>
<text text-anchor="start" x="271" y="-364.5" font-family="Helvetica,sans-Serif" font-size="10.00">iii_drone::mission</text>
<text text-anchor="start" x="271" y="-353.5" font-family="Helvetica,sans-Serif" font-size="10.00">::continuous_mission</text>
<text text-anchor="start" x="271" y="-342.5" font-family="Helvetica,sans-Serif" font-size="10.00">_orchestrator_node::Continuous</text>
<text text-anchor="middle" x="374.5" y="-331.5" font-family="Helvetica,sans-Serif" font-size="10.00">MissionOrchestrator::isInControllableState</text>
</a>
</g>
</g>
<!-- Node1&#45;&gt;Node8 -->
<g id="edge8_Node000001_Node000008" class="edge">
<title>Node1&#45;&gt;Node8</title>
<g id="a_edge8_Node000001_Node000008"><a xlink:title=" ">
<path fill="none" stroke="#63b8ff" d="M227.35,-375.33C235.77,-373.9 244.3,-372.45 252.77,-371.01"/>
<polygon fill="#63b8ff" stroke="#63b8ff" points="253.41,-374.45 262.68,-369.33 252.24,-367.55 253.41,-374.45"/>
</a>
</g>
</g>
<!-- Node10 -->
<g id="Node000010" class="node">
<title>Node10</title>
<g id="a_Node000010"><a xlink:href="classiii__drone_1_1mission_1_1continuous__mission__orchestrator__node_1_1ContinuousMissionOrchestrator.html#acca7ae76bb0157c8a7b9794ef853a992" target="_top" xlink:title=" ">
<polygon fill="white" stroke="#666666" points="460,-306.5 289,-306.5 289,-254.5 460,-254.5 460,-306.5"/>
<text text-anchor="start" x="297" y="-294.5" font-family="Helvetica,sans-Serif" font-size="10.00">iii_drone::mission</text>
<text text-anchor="start" x="297" y="-283.5" font-family="Helvetica,sans-Serif" font-size="10.00">::continuous_mission</text>
<text text-anchor="start" x="297" y="-272.5" font-family="Helvetica,sans-Serif" font-size="10.00">_orchestrator_node::Continuous</text>
<text text-anchor="middle" x="374.5" y="-261.5" font-family="Helvetica,sans-Serif" font-size="10.00">MissionOrchestrator::setState</text>
</a>
</g>
</g>
<!-- Node1&#45;&gt;Node10 -->
<g id="edge11_Node000001_Node000010" class="edge">
<title>Node1&#45;&gt;Node10</title>
<g id="a_edge11_Node000001_Node000010"><a xlink:title=" ">
<path fill="none" stroke="#63b8ff" d="M168,-362.99C195.76,-347.43 230.56,-329.13 263,-315.5 268.29,-313.28 273.77,-311.12 279.33,-309.03"/>
<polygon fill="#63b8ff" stroke="#63b8ff" points="280.57,-312.31 288.76,-305.59 278.17,-305.73 280.57,-312.31"/>
</a>
</g>
</g>
<!-- Node12 -->
<g id="Node000012" class="node">
<title>Node12</title>
<g id="a_Node000012"><a xlink:href="classiii__drone_1_1mission_1_1continuous__mission__orchestrator__node_1_1ContinuousMissionOrchestrator.html#a102b2c06ee7e0f4d3e11f391d828a77e" target="_top" xlink:title=" ">
<polygon fill="white" stroke="#666666" points="482,-236 267,-236 267,-173 482,-173 482,-236"/>
<text text-anchor="start" x="275" y="-224" font-family="Helvetica,sans-Serif" font-size="10.00">iii_drone::mission</text>
<text text-anchor="start" x="275" y="-213" font-family="Helvetica,sans-Serif" font-size="10.00">::continuous_mission</text>
<text text-anchor="start" x="275" y="-202" font-family="Helvetica,sans-Serif" font-size="10.00">_orchestrator_node::Continuous</text>
<text text-anchor="start" x="275" y="-191" font-family="Helvetica,sans-Serif" font-size="10.00">MissionOrchestrator::startActionTimeout</text>
<text text-anchor="middle" x="374.5" y="-180" font-family="Helvetica,sans-Serif" font-size="10.00">Counter</text>
</a>
</g>
</g>
<!-- Node1&#45;&gt;Node12 -->
<g id="edge13_Node000001_Node000012" class="edge">
<title>Node1&#45;&gt;Node12</title>
<g id="a_edge13_Node000001_Node000012"><a xlink:title=" ">
<path fill="none" stroke="#63b8ff" d="M138.98,-362.84C166.12,-329.61 212.77,-277.78 263,-245.5 265.46,-243.92 267.99,-242.39 270.58,-240.9"/>
<polygon fill="#63b8ff" stroke="#63b8ff" points="272.43,-243.88 279.55,-236.04 269.09,-237.72 272.43,-243.88"/>
</a>
</g>
</g>
<!-- Node13 -->
<g id="Node000013" class="node">
<title>Node13</title>
<g id="a_Node000013"><a xlink:href="classiii__drone_1_1mission_1_1continuous__mission__orchestrator__node_1_1ContinuousMissionOrchestrator.html#a38eab316ca57a76f0dadb2ac3ead1e5e" target="_top" xlink:title=" ">
<polygon fill="white" stroke="#666666" points="477.5,-146.5 271.5,-146.5 271.5,-94.5 477.5,-94.5 477.5,-146.5"/>
<text text-anchor="start" x="279.5" y="-134.5" font-family="Helvetica,sans-Serif" font-size="10.00">iii_drone::mission</text>
<text text-anchor="start" x="279.5" y="-123.5" font-family="Helvetica,sans-Serif" font-size="10.00">::continuous_mission</text>
<text text-anchor="start" x="279.5" y="-112.5" font-family="Helvetica,sans-Serif" font-size="10.00">_orchestrator_node::Continuous</text>
<text text-anchor="middle" x="374.5" y="-101.5" font-family="Helvetica,sans-Serif" font-size="10.00">MissionOrchestrator::startCableTakeoff</text>
</a>
</g>
</g>
<!-- Node1&#45;&gt;Node13 -->
<g id="edge14_Node000001_Node000013" class="edge">
<title>Node1&#45;&gt;Node13</title>
<g id="a_edge14_Node000001_Node000013"><a xlink:title=" ">
<path fill="none" stroke="#63b8ff" d="M127.19,-362.73C148.34,-313.55 195.27,-218.87 263,-163.5 268.35,-159.12 274.21,-155.15 280.33,-151.56"/>
<polygon fill="#63b8ff" stroke="#63b8ff" points="282.38,-154.43 289.48,-146.57 279.03,-148.29 282.38,-154.43"/>
</a>
</g>
</g>
<!-- Node5&#45;&gt;Node3 -->
<g id="edge7_Node000005_Node000003" class="edge">
<title>Node5&#45;&gt;Node3</title>
<g id="a_edge7_Node000005_Node000003"><a xlink:title=" ">
<path fill="none" stroke="#63b8ff" d="M469.21,-463.29C475.17,-466.58 480.84,-470.3 486,-474.5 511.01,-494.86 497.33,-516.73 522,-537.5 523.53,-538.79 525.1,-540.03 526.71,-541.24"/>
<polygon fill="#63b8ff" stroke="#63b8ff" points="524.82,-544.19 535.04,-546.98 528.79,-538.42 524.82,-544.19"/>
</a>
</g>
</g>
<!-- Node6 -->
<g id="Node000006" class="node">
<title>Node6</title>
<g id="a_Node000006"><a xlink:href="classiii__drone_1_1mission_1_1continuous__mission__orchestrator__node_1_1ContinuousMissionOrchestrator.html#ad400869584077107e028c29f64543986" target="_top" xlink:title=" ">
<polygon fill="white" stroke="#666666" points="737.5,-528.5 534.5,-528.5 534.5,-476.5 737.5,-476.5 737.5,-528.5"/>
<text text-anchor="start" x="542.5" y="-516.5" font-family="Helvetica,sans-Serif" font-size="10.00">iii_drone::mission</text>
<text text-anchor="start" x="542.5" y="-505.5" font-family="Helvetica,sans-Serif" font-size="10.00">::continuous_mission</text>
<text text-anchor="start" x="542.5" y="-494.5" font-family="Helvetica,sans-Serif" font-size="10.00">_orchestrator_node::Continuous</text>
<text text-anchor="middle" x="636" y="-483.5" font-family="Helvetica,sans-Serif" font-size="10.00">MissionOrchestrator::getGripperStatus</text>
</a>
</g>
</g>
<!-- Node5&#45;&gt;Node6 -->
<g id="edge5_Node000005_Node000006" class="edge">
<title>Node5&#45;&gt;Node6</title>
<g id="a_edge5_Node000005_Node000006"><a xlink:title=" ">
<path fill="none" stroke="#63b8ff" d="M469.19,-461.61C487.15,-466.04 506.12,-470.71 524.56,-475.26"/>
<polygon fill="#63b8ff" stroke="#63b8ff" points="523.89,-478.7 534.44,-477.7 525.57,-471.91 523.89,-478.7"/>
</a>
</g>
</g>
<!-- Node7 -->
<g id="Node000007" class="node">
<title>Node7</title>
<g id="a_Node000007"><a xlink:href="classiii__drone_1_1mission_1_1continuous__mission__orchestrator__node_1_1ContinuousMissionOrchestrator.html#a631076092c6400101d6614996a77b302" target="_top" xlink:title=" ">
<polygon fill="white" stroke="#666666" points="732.5,-458 539.5,-458 539.5,-395 732.5,-395 732.5,-458"/>
<text text-anchor="start" x="547.5" y="-446" font-family="Helvetica,sans-Serif" font-size="10.00">iii_drone::mission</text>
<text text-anchor="start" x="547.5" y="-435" font-family="Helvetica,sans-Serif" font-size="10.00">::continuous_mission</text>
<text text-anchor="start" x="547.5" y="-424" font-family="Helvetica,sans-Serif" font-size="10.00">_orchestrator_node::Continuous</text>
<text text-anchor="start" x="547.5" y="-413" font-family="Helvetica,sans-Serif" font-size="10.00">MissionOrchestrator::getLastGripper</text>
<text text-anchor="middle" x="636" y="-402" font-family="Helvetica,sans-Serif" font-size="10.00">CommandClose</text>
</a>
</g>
</g>
<!-- Node5&#45;&gt;Node7 -->
<g id="edge6_Node000005_Node000007" class="edge">
<title>Node5&#45;&gt;Node7</title>
<g id="a_edge6_Node000005_Node000007"><a xlink:title=" ">
<path fill="none" stroke="#63b8ff" d="M469.19,-434.17C488.68,-433.27 509.36,-432.31 529.26,-431.39"/>
<polygon fill="#63b8ff" stroke="#63b8ff" points="529.44,-434.89 539.27,-430.93 529.12,-427.89 529.44,-434.89"/>
</a>
</g>
</g>
<!-- Node8&#45;&gt;Node8 -->
<g id="edge10_Node000008_Node000008" class="edge">
<title>Node8&#45;&gt;Node8</title>
<g id="a_edge10_Node000008_Node000008"><a xlink:title=" ">
<path fill="none" stroke="#63b8ff" d="M325.86,-376.7C324.26,-386.46 340.48,-394.5 374.5,-394.5 396.83,-394.5 411.49,-391.04 418.47,-385.9"/>
<polygon fill="#63b8ff" stroke="#63b8ff" points="421.74,-387.2 423.14,-376.7 415.5,-384.03 421.74,-387.2"/>
</a>
</g>
</g>
<!-- Node9 -->
<g id="Node000009" class="node">
<title>Node9</title>
<g id="a_Node000009"><a xlink:href="classiii__drone_1_1mission_1_1continuous__mission__orchestrator__node_1_1ContinuousMissionOrchestrator.html#a29a1df5808d9d3a7ebe6fc3ada5c72f4" target="_top" xlink:title=" ">
<polygon fill="white" stroke="#666666" points="734.5,-376.5 537.5,-376.5 537.5,-324.5 734.5,-324.5 734.5,-376.5"/>
<text text-anchor="start" x="545.5" y="-364.5" font-family="Helvetica,sans-Serif" font-size="10.00">iii_drone::mission</text>
<text text-anchor="start" x="545.5" y="-353.5" font-family="Helvetica,sans-Serif" font-size="10.00">::continuous_mission</text>
<text text-anchor="start" x="545.5" y="-342.5" font-family="Helvetica,sans-Serif" font-size="10.00">_orchestrator_node::Continuous</text>
<text text-anchor="middle" x="636" y="-331.5" font-family="Helvetica,sans-Serif" font-size="10.00">MissionOrchestrator::getControlState</text>
</a>
</g>
</g>
<!-- Node8&#45;&gt;Node9 -->
<g id="edge9_Node000008_Node000009" class="edge">
<title>Node8&#45;&gt;Node9</title>
<g id="a_edge9_Node000008_Node000009"><a xlink:title=" ">
<path fill="none" stroke="#63b8ff" d="M486.3,-350.5C499.81,-350.5 513.59,-350.5 527.05,-350.5"/>
<polygon fill="#63b8ff" stroke="#63b8ff" points="527.27,-354 537.27,-350.5 527.27,-347 527.27,-354"/>
</a>
</g>
</g>
<!-- Node11 -->
<g id="Node000011" class="node">
<title>Node11</title>
<g id="a_Node000011"><a xlink:href="classiii__drone_1_1mission_1_1continuous__mission__orchestrator__node_1_1ContinuousMissionOrchestrator.html#a835d55880f4805cb07059aee8cbbfbbc" target="_top" xlink:title=" ">
<polygon fill="white" stroke="#666666" points="733,-306 539,-306 539,-243 733,-243 733,-306"/>
<text text-anchor="start" x="547" y="-294" font-family="Helvetica,sans-Serif" font-size="10.00">iii_drone::mission</text>
<text text-anchor="start" x="547" y="-283" font-family="Helvetica,sans-Serif" font-size="10.00">::continuous_mission</text>
<text text-anchor="start" x="547" y="-272" font-family="Helvetica,sans-Serif" font-size="10.00">_orchestrator_node::Continuous</text>
<text text-anchor="start" x="547" y="-261" font-family="Helvetica,sans-Serif" font-size="10.00">MissionOrchestrator::setTargetCable</text>
<text text-anchor="middle" x="636" y="-250" font-family="Helvetica,sans-Serif" font-size="10.00">IdChanged</text>
</a>
</g>
</g>
<!-- Node10&#45;&gt;Node11 -->
<g id="edge12_Node000010_Node000011" class="edge">
<title>Node10&#45;&gt;Node11</title>
<g id="a_edge12_Node000010_Node000011"><a xlink:title=" ">
<path fill="none" stroke="#63b8ff" d="M460.11,-278.54C482.01,-278.04 505.88,-277.49 528.73,-276.96"/>
<polygon fill="#63b8ff" stroke="#63b8ff" points="528.89,-280.45 538.81,-276.72 528.73,-273.46 528.89,-280.45"/>
</a>
</g>
</g>
<!-- Node14 -->
<g id="Node000014" class="node">
<title>Node14</title>
<g id="a_Node000014"><a xlink:href="classiii__drone_1_1mission_1_1continuous__mission__orchestrator__node_1_1ContinuousMissionOrchestrator.html#a9dff5b535bd816cf1d67209694e7b1f6" target="_top" xlink:title=" ">
<polygon fill="white" stroke="#666666" points="750,-225 522,-225 522,-162 750,-162 750,-225"/>
<text text-anchor="start" x="530" y="-213" font-family="Helvetica,sans-Serif" font-size="10.00">iii_drone::mission</text>
<text text-anchor="start" x="530" y="-202" font-family="Helvetica,sans-Serif" font-size="10.00">::continuous_mission</text>
<text text-anchor="start" x="530" y="-191" font-family="Helvetica,sans-Serif" font-size="10.00">_orchestrator_node::Continuous</text>
<text text-anchor="start" x="530" y="-180" font-family="Helvetica,sans-Serif" font-size="10.00">MissionOrchestrator::cableTakeoffFeedback</text>
<text text-anchor="middle" x="636" y="-169" font-family="Helvetica,sans-Serif" font-size="10.00">Callback</text>
</a>
</g>
</g>
<!-- Node13&#45;&gt;Node14 -->
<g id="edge15_Node000013_Node000014" class="edge">
<title>Node13&#45;&gt;Node14</title>
<g id="a_edge15_Node000013_Node000014"><a xlink:title=" ">
<path fill="none" stroke="#63b8ff" d="M468.09,-146.55C482.65,-150.64 497.9,-154.93 513.01,-159.18"/>
<polygon fill="#63b8ff" stroke="#63b8ff" points="512.34,-162.63 522.91,-161.97 514.23,-155.89 512.34,-162.63"/>
</a>
</g>
</g>
<!-- Node15 -->
<g id="Node000015" class="node">
<title>Node15</title>
<g id="a_Node000015"><a xlink:href="classiii__drone_1_1mission_1_1continuous__mission__orchestrator__node_1_1ContinuousMissionOrchestrator.html#a8127d4f00f371ae776e2db19d9191dbb" target="_top" xlink:title=" ">
<polygon fill="white" stroke="#666666" points="738,-144 534,-144 534,-81 738,-81 738,-144"/>
<text text-anchor="start" x="542" y="-132" font-family="Helvetica,sans-Serif" font-size="10.00">iii_drone::mission</text>
<text text-anchor="start" x="542" y="-121" font-family="Helvetica,sans-Serif" font-size="10.00">::continuous_mission</text>
<text text-anchor="start" x="542" y="-110" font-family="Helvetica,sans-Serif" font-size="10.00">_orchestrator_node::Continuous</text>
<text text-anchor="start" x="542" y="-99" font-family="Helvetica,sans-Serif" font-size="10.00">MissionOrchestrator::cableTakeoffGoal</text>
<text text-anchor="middle" x="636" y="-88" font-family="Helvetica,sans-Serif" font-size="10.00">ResponseCallback</text>
</a>
</g>
</g>
<!-- Node13&#45;&gt;Node15 -->
<g id="edge16_Node000013_Node000015" class="edge">
<title>Node13&#45;&gt;Node15</title>
<g id="a_edge16_Node000013_Node000015"><a xlink:title=" ">
<path fill="none" stroke="#63b8ff" d="M477.69,-117.35C492.67,-116.89 508.16,-116.41 523.32,-115.94"/>
<polygon fill="#63b8ff" stroke="#63b8ff" points="523.87,-119.43 533.75,-115.62 523.65,-112.43 523.87,-119.43"/>
</a>
</g>
</g>
<!-- Node16 -->
<g id="Node000016" class="node">
<title>Node16</title>
<g id="a_Node000016"><a xlink:href="classiii__drone_1_1mission_1_1continuous__mission__orchestrator__node_1_1ContinuousMissionOrchestrator.html#a786c6a024bc402c06736f758be8b2f1f" target="_top" xlink:title=" ">
<polygon fill="white" stroke="#666666" points="742,-63 530,-63 530,0 742,0 742,-63"/>
<text text-anchor="start" x="538" y="-51" font-family="Helvetica,sans-Serif" font-size="10.00">iii_drone::mission</text>
<text text-anchor="start" x="538" y="-40" font-family="Helvetica,sans-Serif" font-size="10.00">::continuous_mission</text>
<text text-anchor="start" x="538" y="-29" font-family="Helvetica,sans-Serif" font-size="10.00">_orchestrator_node::Continuous</text>
<text text-anchor="start" x="538" y="-18" font-family="Helvetica,sans-Serif" font-size="10.00">MissionOrchestrator::cableTakeoffResult</text>
<text text-anchor="middle" x="636" y="-7" font-family="Helvetica,sans-Serif" font-size="10.00">Callback</text>
</a>
</g>
</g>
<!-- Node13&#45;&gt;Node16 -->
<g id="edge17_Node000013_Node000016" class="edge">
<title>Node13&#45;&gt;Node16</title>
<g id="a_edge17_Node000013_Node000016"><a xlink:title=" ">
<path fill="none" stroke="#63b8ff" d="M451.61,-94.4C477.16,-85.63 506.08,-75.72 533.27,-66.39"/>
<polygon fill="#63b8ff" stroke="#63b8ff" points="534.49,-69.67 542.81,-63.12 532.22,-63.05 534.49,-69.67"/>
</a>
</g>
</g>
</g>
</svg>
