<?xml version="1.0" encoding="UTF-8" standalone="no"?>
<!DOCTYPE svg PUBLIC "-//W3C//DTD SVG 1.1//EN"
 "http://www.w3.org/Graphics/SVG/1.1/DTD/svg11.dtd">
<!-- Generated by graphviz version 2.43.0 (0)
 -->
<!-- Title: iii_drone::perception::pl_dir_computer_node::PowerlineDirectionComputerNode::odometryCallback Pages: 1 -->
<!--zoomable 421 -->

<svg id="main" version="1.1" xmlns="http://www.w3.org/2000/svg" xmlns:xlink="http://www.w3.org/1999/xlink" xml:space="preserve" onload="init(evt)">
<style type="text/css"><![CDATA[
.node, .edge {opacity: 0.7;}
.node.selected, .edge.selected {opacity: 1;}
.edge:hover path { stroke: red; }
.edge:hover polygon { stroke: red; fill: red; }
]]></style>

<defs>
  <circle id="rim" cx="0" cy="0" r="7"/>
  <circle id="rim2" cx="0" cy="0" r="3.5"/>
  <g id="zoomPlus">
    <use xlink:href="#rim" fill="#404040"><set attributeName="fill" to="#808080" begin="zoomplus.mouseover" end="zoomplus.mouseout"/></use>
    <path d="M-4,0h8M0,-4v8" fill="none" stroke="white" stroke-width="1.5" pointer-events="none"/>
  </g>
  <g id="zoomMin">
    <use xlink:href="#rim" fill="#404040"><set attributeName="fill" to="#808080" begin="zoomminus.mouseover" end="zoomminus.mouseout"/></use>
    <path d="M-4,0h8" fill="none" stroke="white" stroke-width="1.5" pointer-events="none"/>
  </g>
  <g id="arrowUp" transform="translate(30 24)">
    <use xlink:href="#rim"/>
    <path pointer-events="none" fill="none" stroke="white" stroke-width="1.5" d="M0,-3.0v7 M-2.5,-0.5L0,-3.0L2.5,-0.5"/>
  </g>
  <g id="arrowRight" transform="rotate(90) translate(36 -43)">
    <use xlink:href="#rim"/>
    <path pointer-events="none" fill="none" stroke="white" stroke-width="1.5" d="M0,-3.0v7 M-2.5,-0.5L0,-3.0L2.5,-0.5"/>
  </g>
  <g id="arrowDown" transform="rotate(180) translate(-30 -48)">
    <use xlink:href="#rim"/>
    <path pointer-events="none" fill="none" stroke="white" stroke-width="1.5" d="M0,-3.0v7 M-2.5,-0.5L0,-3.0L2.5,-0.5"/>
  </g>
  <g id="arrowLeft" transform="rotate(270) translate(-36 17)">
    <use xlink:href="#rim"/>
    <path pointer-events="none" fill="none" stroke="white" stroke-width="1.5" d="M0,-3.0v7 M-2.5,-0.5L0,-3.0L2.5,-0.5"/>
  </g>
  <g id="resetDef">
    <use xlink:href="#rim2" fill="#404040"><set attributeName="fill" to="#808080" begin="reset.mouseover" end="reset.mouseout"/></use>
  </g>
</defs>
<script type="application/ecmascript">
var viewWidth = 1318;
var viewHeight = 421;
var sectionId = 'dynsection-3';
</script>
<script type="application/ecmascript" xlink:href="svg.min.js"/>
<svg id="graph" class="graph">
<g id="viewport">
<title>iii_drone::perception::pl_dir_computer_node::PowerlineDirectionComputerNode::odometryCallback</title>
<!-- Node1 -->
<g id="Node000001" class="node">
<title>Node1</title>
<g id="a_Node000001"><a xlink:title="Callback function for the odometry timer.">
<polygon fill="#999999" stroke="#666666" points="188,-219 0,-219 0,-167 188,-167 188,-219"/>
<text text-anchor="start" x="8" y="-207" font-family="Helvetica,sans-Serif" font-size="10.00">iii_drone::perception</text>
<text text-anchor="start" x="8" y="-196" font-family="Helvetica,sans-Serif" font-size="10.00">::pl_dir_computer_node</text>
<text text-anchor="start" x="8" y="-185" font-family="Helvetica,sans-Serif" font-size="10.00">::PowerlineDirectionComputerNode</text>
<text text-anchor="middle" x="94" y="-174" font-family="Helvetica,sans-Serif" font-size="10.00">::odometryCallback</text>
</a>
</g>
</g>
<!-- Node2 -->
<g id="Node000002" class="node">
<title>Node2</title>
<g id="a_Node000002"><a xlink:href="classiii__drone_1_1perception_1_1pl__dir__computer__node_1_1PowerlineDirectionComputerConfigurator.html#aa5ade61f215dcaf34665da92eb0b392f" target="_top" xlink:title="Get the drone frame ID.">
<polygon fill="white" stroke="#666666" points="706,-219 483,-219 483,-167 706,-167 706,-219"/>
<text text-anchor="start" x="491" y="-207" font-family="Helvetica,sans-Serif" font-size="10.00">iii_drone::perception</text>
<text text-anchor="start" x="491" y="-196" font-family="Helvetica,sans-Serif" font-size="10.00">::pl_dir_computer_node</text>
<text text-anchor="start" x="491" y="-185" font-family="Helvetica,sans-Serif" font-size="10.00">::PowerlineDirectionComputerConfigurator</text>
<text text-anchor="middle" x="594.5" y="-174" font-family="Helvetica,sans-Serif" font-size="10.00">::drone_frame_id</text>
</a>
</g>
</g>
<!-- Node1&#45;&gt;Node2 -->
<g id="edge1_Node000001_Node000002" class="edge">
<title>Node1&#45;&gt;Node2</title>
<g id="a_edge1_Node000001_Node000002"><a xlink:title=" ">
<path fill="none" stroke="#63b8ff" d="M188.18,-193C268.55,-193 385.15,-193 472.68,-193"/>
<polygon fill="#63b8ff" stroke="#63b8ff" points="472.94,-196.5 482.94,-193 472.94,-189.5 472.94,-196.5"/>
</a>
</g>
</g>
<!-- Node6 -->
<g id="Node000006" class="node">
<title>Node6</title>
<g id="a_Node000006"><a xlink:href="classiii__drone_1_1perception_1_1PowerlineDirection.html#a1f751f8f0562b55f31d42142c6b55ffc" target="_top" xlink:title="Runs the Kalman Filter predict step from a drone quaternion.">
<polygon fill="white" stroke="#666666" points="393.5,-345.5 277.5,-345.5 277.5,-304.5 393.5,-304.5 393.5,-345.5"/>
<text text-anchor="start" x="285.5" y="-333.5" font-family="Helvetica,sans-Serif" font-size="10.00">iii_drone::perception</text>
<text text-anchor="start" x="285.5" y="-322.5" font-family="Helvetica,sans-Serif" font-size="10.00">::PowerlineDirection</text>
<text text-anchor="middle" x="335.5" y="-311.5" font-family="Helvetica,sans-Serif" font-size="10.00">::Predict</text>
</a>
</g>
</g>
<!-- Node1&#45;&gt;Node6 -->
<g id="edge7_Node000001_Node000006" class="edge">
<title>Node1&#45;&gt;Node6</title>
<g id="a_edge7_Node000001_Node000006"><a xlink:title=" ">
<path fill="none" stroke="#63b8ff" d="M128.12,-219.06C153.4,-238.14 189.62,-263.77 224,-282 237.8,-289.32 253.13,-296.07 267.86,-301.96"/>
<polygon fill="#63b8ff" stroke="#63b8ff" points="266.85,-305.32 277.44,-305.7 269.4,-298.8 266.85,-305.32"/>
</a>
</g>
</g>
<!-- Node10 -->
<g id="Node000010" class="node">
<title>Node10</title>
<g id="a_Node000010"><a xlink:href="classiii__drone_1_1perception_1_1pl__dir__computer__node_1_1PowerlineDirectionComputerNode.html#a3945fa1d3c10fcb92f12e3a019a2fc63" target="_top" xlink:title="Publishes the estimated powerline direction.">
<polygon fill="white" stroke="#666666" points="429.5,-159 241.5,-159 241.5,-107 429.5,-107 429.5,-159"/>
<text text-anchor="start" x="249.5" y="-147" font-family="Helvetica,sans-Serif" font-size="10.00">iii_drone::perception</text>
<text text-anchor="start" x="249.5" y="-136" font-family="Helvetica,sans-Serif" font-size="10.00">::pl_dir_computer_node</text>
<text text-anchor="start" x="249.5" y="-125" font-family="Helvetica,sans-Serif" font-size="10.00">::PowerlineDirectionComputerNode</text>
<text text-anchor="middle" x="335.5" y="-114" font-family="Helvetica,sans-Serif" font-size="10.00">::publishPowerlineDirection</text>
</a>
</g>
</g>
<!-- Node1&#45;&gt;Node10 -->
<g id="edge11_Node000001_Node000010" class="edge">
<title>Node1&#45;&gt;Node10</title>
<g id="a_edge11_Node000001_Node000010"><a xlink:title=" ">
<path fill="none" stroke="#63b8ff" d="M188.28,-169.63C202.48,-166.07 217.19,-162.39 231.58,-158.78"/>
<polygon fill="#63b8ff" stroke="#63b8ff" points="232.62,-162.13 241.47,-156.31 230.92,-155.34 232.62,-162.13"/>
</a>
</g>
</g>
<!-- Node17 -->
<g id="Node000017" class="node">
<title>Node17</title>
<g id="a_Node000017"><a xlink:href="namespaceiii__drone_1_1types.html#a131af051a39eb6c37544ecdad43a68bb" target="_top" xlink:title=" ">
<polygon fill="white" stroke="#666666" points="410.5,-62 260.5,-62 260.5,-32 410.5,-32 410.5,-62"/>
<text text-anchor="start" x="268.5" y="-50" font-family="Helvetica,sans-Serif" font-size="10.00">iii_drone::types::quaternion</text>
<text text-anchor="middle" x="335.5" y="-39" font-family="Helvetica,sans-Serif" font-size="10.00">FromTransformMsg</text>
</a>
</g>
</g>
<!-- Node1&#45;&gt;Node17 -->
<g id="edge21_Node000001_Node000017" class="edge">
<title>Node1&#45;&gt;Node17</title>
<g id="a_edge21_Node000001_Node000017"><a xlink:title=" ">
<path fill="none" stroke="#63b8ff" d="M126.62,-166.89C152,-146.65 189.04,-118.65 224,-98 244.18,-86.08 267.62,-74.91 287.71,-66.09"/>
<polygon fill="#63b8ff" stroke="#63b8ff" points="289.18,-69.26 296.97,-62.07 286.4,-62.84 289.18,-69.26"/>
</a>
</g>
</g>
<!-- Node19 -->
<g id="Node000019" class="node">
<title>Node19</title>
<g id="a_Node000019"><a xlink:href="classiii__drone_1_1perception_1_1pl__dir__computer__node_1_1PowerlineDirectionComputerConfigurator.html#a677085ca977279fd1cca74b4a39fba02" target="_top" xlink:title="Get the world frame ID.">
<polygon fill="white" stroke="#666666" points="447,-273 224,-273 224,-221 447,-221 447,-273"/>
<text text-anchor="start" x="232" y="-261" font-family="Helvetica,sans-Serif" font-size="10.00">iii_drone::perception</text>
<text text-anchor="start" x="232" y="-250" font-family="Helvetica,sans-Serif" font-size="10.00">::pl_dir_computer_node</text>
<text text-anchor="start" x="232" y="-239" font-family="Helvetica,sans-Serif" font-size="10.00">::PowerlineDirectionComputerConfigurator</text>
<text text-anchor="middle" x="335.5" y="-228" font-family="Helvetica,sans-Serif" font-size="10.00">::world_frame_id</text>
</a>
</g>
</g>
<!-- Node1&#45;&gt;Node19 -->
<g id="edge23_Node000001_Node000019" class="edge">
<title>Node1&#45;&gt;Node19</title>
<g id="a_edge23_Node000001_Node000019"><a xlink:title=" ">
<path fill="none" stroke="#63b8ff" d="M188.28,-214.03C196.78,-215.95 205.46,-217.9 214.14,-219.86"/>
<polygon fill="#63b8ff" stroke="#63b8ff" points="213.41,-223.29 223.94,-222.07 214.95,-216.46 213.41,-223.29"/>
</a>
</g>
</g>
<!-- Node3 -->
<g id="Node000003" class="node">
<title>Node3</title>
<g id="a_Node000003"><a xlink:href="classiii__drone_1_1configuration_1_1Configurator.html#a896be5ed2c6890f9f5ecaa89cb0eee7d" target="_top" xlink:title="Get a parameter.">
<polygon fill="white" stroke="#666666" points="898,-226 742,-226 742,-196 898,-196 898,-226"/>
<text text-anchor="start" x="750" y="-214" font-family="Helvetica,sans-Serif" font-size="10.00">iii_drone::configuration</text>
<text text-anchor="middle" x="820" y="-203" font-family="Helvetica,sans-Serif" font-size="10.00">::Configurator::GetParameter</text>
</a>
</g>
</g>
<!-- Node2&#45;&gt;Node3 -->
<g id="edge2_Node000002_Node000003" class="edge">
<title>Node2&#45;&gt;Node3</title>
<g id="a_edge2_Node000002_Node000003"><a xlink:title=" ">
<path fill="none" stroke="#63b8ff" d="M706.27,-201.92C714.85,-202.61 723.44,-203.3 731.84,-203.98"/>
<polygon fill="#63b8ff" stroke="#63b8ff" points="731.72,-207.48 741.97,-204.8 732.29,-200.5 731.72,-207.48"/>
</a>
</g>
</g>
<!-- Node4 -->
<g id="Node000004" class="node">
<title>Node4</title>
<g id="a_Node000004"><a xlink:href="classiii__drone_1_1configuration_1_1Configurator.html#ad6e7318a12eda7011acfbe4276e7056a" target="_top" xlink:title="Gets multiple parameters.">
<polygon fill="white" stroke="#666666" points="1095,-245 934,-245 934,-215 1095,-215 1095,-245"/>
<text text-anchor="start" x="942" y="-233" font-family="Helvetica,sans-Serif" font-size="10.00">iii_drone::configuration</text>
<text text-anchor="middle" x="1014.5" y="-222" font-family="Helvetica,sans-Serif" font-size="10.00">::Configurator::GetParameters</text>
</a>
</g>
</g>
<!-- Node3&#45;&gt;Node4 -->
<g id="edge3_Node000003_Node000004" class="edge">
<title>Node3&#45;&gt;Node4</title>
<g id="a_edge3_Node000003_Node000004"><a xlink:title=" ">
<path fill="none" stroke="#63b8ff" d="M898.19,-218.62C906.61,-219.45 915.23,-220.3 923.79,-221.15"/>
<polygon fill="#63b8ff" stroke="#63b8ff" points="923.48,-224.63 933.78,-222.13 924.17,-217.67 923.48,-224.63"/>
</a>
</g>
</g>
<!-- Node5 -->
<g id="Node000005" class="node">
<title>Node5</title>
<g id="a_Node000005"><a xlink:href="classiii__drone_1_1configuration_1_1Configurator.html#ac5360ab6b4f31277c7d73b5579815353" target="_top" xlink:title="Static function for getting string representation of a parameter type from template type.">
<polygon fill="white" stroke="#666666" points="1310,-228.5 1131,-228.5 1131,-187.5 1310,-187.5 1310,-228.5"/>
<text text-anchor="start" x="1139" y="-216.5" font-family="Helvetica,sans-Serif" font-size="10.00">iii_drone::configuration</text>
<text text-anchor="start" x="1139" y="-205.5" font-family="Helvetica,sans-Serif" font-size="10.00">::Configurator::GetParameterType</text>
<text text-anchor="middle" x="1220.5" y="-194.5" font-family="Helvetica,sans-Serif" font-size="10.00">String</text>
</a>
</g>
</g>
<!-- Node3&#45;&gt;Node5 -->
<g id="edge6_Node000003_Node000005" class="edge">
<title>Node3&#45;&gt;Node5</title>
<g id="a_edge6_Node000003_Node000005"><a xlink:title=" ">
<path fill="none" stroke="#63b8ff" d="M898.18,-207.13C910.17,-206.66 922.42,-206.26 934,-206 996.05,-204.63 1065.69,-205.08 1120.67,-205.89"/>
<polygon fill="#63b8ff" stroke="#63b8ff" points="1120.7,-209.39 1130.75,-206.05 1120.81,-202.39 1120.7,-209.39"/>
</a>
</g>
</g>
<!-- Node4&#45;&gt;Node5 -->
<g id="edge4_Node000004_Node000005" class="edge">
<title>Node4&#45;&gt;Node5</title>
<g id="a_edge4_Node000004_Node000005"><a xlink:title=" ">
<path fill="none" stroke="#63b8ff" d="M1095.25,-221.4C1103.6,-220.5 1112.16,-219.58 1120.7,-218.66"/>
<polygon fill="#63b8ff" stroke="#63b8ff" points="1121.12,-222.13 1130.69,-217.58 1120.37,-215.17 1121.12,-222.13"/>
</a>
</g>
</g>
<!-- Node5&#45;&gt;Node5 -->
<g id="edge5_Node000005_Node000005" class="edge">
<title>Node5&#45;&gt;Node5</title>
<g id="a_edge5_Node000005_Node000005"><a xlink:title=" ">
<path fill="none" stroke="#63b8ff" d="M1182.64,-228.6C1178.51,-238.15 1191.13,-246.5 1220.5,-246.5 1238.86,-246.5 1250.67,-243.24 1255.94,-238.46"/>
<polygon fill="#63b8ff" stroke="#63b8ff" points="1259.38,-239.14 1258.36,-228.6 1252.58,-237.47 1259.38,-239.14"/>
</a>
</g>
</g>
<!-- Node7 -->
<g id="Node000007" class="node">
<title>Node7</title>
<g id="a_Node000007"><a xlink:href="classiii__drone_1_1perception_1_1PowerlineDirection.html#a6792ff220aae8a0084425d379f227c5c" target="_top" xlink:title="Maps the angle back into the correct range after having performed the Kalman filter.">
<polygon fill="white" stroke="#666666" points="652.5,-412.5 536.5,-412.5 536.5,-371.5 652.5,-371.5 652.5,-412.5"/>
<text text-anchor="start" x="544.5" y="-400.5" font-family="Helvetica,sans-Serif" font-size="10.00">iii_drone::perception</text>
<text text-anchor="start" x="544.5" y="-389.5" font-family="Helvetica,sans-Serif" font-size="10.00">::PowerlineDirection</text>
<text text-anchor="middle" x="594.5" y="-378.5" font-family="Helvetica,sans-Serif" font-size="10.00">::backmapAngle</text>
</a>
</g>
</g>
<!-- Node6&#45;&gt;Node7 -->
<g id="edge8_Node000006_Node000007" class="edge">
<title>Node6&#45;&gt;Node7</title>
<g id="a_edge8_Node000006_Node000007"><a xlink:title=" ">
<path fill="none" stroke="#63b8ff" d="M393.54,-339.87C432.83,-350.11 485.19,-363.76 526.48,-374.53"/>
<polygon fill="#63b8ff" stroke="#63b8ff" points="525.62,-377.92 536.18,-377.06 527.39,-371.15 525.62,-377.92"/>
</a>
</g>
</g>
<!-- Node8 -->
<g id="Node000008" class="node">
<title>Node8</title>
<g id="a_Node000008"><a xlink:href="classiii__drone_1_1utils_1_1History.html#ad80957391e0cd45d17f023760daf0350" target="_top" xlink:title="Returns true if the history is full.">
<polygon fill="white" stroke="#666666" points="658,-353 531,-353 531,-323 658,-323 658,-353"/>
<text text-anchor="start" x="539" y="-341" font-family="Helvetica,sans-Serif" font-size="10.00">iii_drone::utils::History</text>
<text text-anchor="middle" x="594.5" y="-330" font-family="Helvetica,sans-Serif" font-size="10.00">::full</text>
</a>
</g>
</g>
<!-- Node6&#45;&gt;Node8 -->
<g id="edge9_Node000006_Node000008" class="edge">
<title>Node6&#45;&gt;Node8</title>
<g id="a_edge9_Node000006_Node000008"><a xlink:title=" ">
<path fill="none" stroke="#63b8ff" d="M393.54,-327.89C431.03,-329.78 480.42,-332.28 520.73,-334.32"/>
<polygon fill="#63b8ff" stroke="#63b8ff" points="520.61,-337.82 530.77,-334.83 520.96,-330.83 520.61,-337.82"/>
</a>
</g>
</g>
<!-- Node9 -->
<g id="Node000009" class="node">
<title>Node9</title>
<g id="a_Node000009"><a xlink:href="classiii__drone_1_1utils_1_1Timestamp.html#a373bc0de94c27153e2372c30f0eedbb1" target="_top" xlink:title="Updates the timestamp to now.">
<polygon fill="white" stroke="#666666" points="668,-305 521,-305 521,-275 668,-275 668,-305"/>
<text text-anchor="start" x="529" y="-293" font-family="Helvetica,sans-Serif" font-size="10.00">iii_drone::utils::Timestamp</text>
<text text-anchor="middle" x="594.5" y="-282" font-family="Helvetica,sans-Serif" font-size="10.00">::Update</text>
</a>
</g>
</g>
<!-- Node6&#45;&gt;Node9 -->
<g id="edge10_Node000006_Node000009" class="edge">
<title>Node6&#45;&gt;Node9</title>
<g id="a_edge10_Node000006_Node000009"><a xlink:title=" ">
<path fill="none" stroke="#63b8ff" d="M393.54,-317.23C428.02,-312.54 472.56,-306.47 510.86,-301.26"/>
<polygon fill="#63b8ff" stroke="#63b8ff" points="511.52,-304.7 520.96,-299.88 510.58,-297.76 511.52,-304.7"/>
</a>
</g>
</g>
<!-- Node10&#45;&gt;Node2 -->
<g id="edge12_Node000010_Node000002" class="edge">
<title>Node10&#45;&gt;Node2</title>
<g id="a_edge12_Node000010_Node000002"><a xlink:title=" ">
<path fill="none" stroke="#63b8ff" d="M429.65,-154.75C443.65,-158.02 458.27,-161.43 472.75,-164.81"/>
<polygon fill="#63b8ff" stroke="#63b8ff" points="472.21,-168.28 482.74,-167.14 473.8,-161.46 472.21,-168.28"/>
</a>
</g>
</g>
<!-- Node11 -->
<g id="Node000011" class="node">
<title>Node11</title>
<g id="a_Node000011"><a xlink:href="classiii__drone_1_1perception_1_1PowerlineDirection.html#a2c93fe708f8c700a005e6dd6d8c08e53" target="_top" xlink:title="Converts to pose stamped message.">
<polygon fill="white" stroke="#666666" points="654.5,-148.5 534.5,-148.5 534.5,-107.5 654.5,-107.5 654.5,-148.5"/>
<text text-anchor="start" x="542.5" y="-136.5" font-family="Helvetica,sans-Serif" font-size="10.00">iii_drone::perception</text>
<text text-anchor="start" x="542.5" y="-125.5" font-family="Helvetica,sans-Serif" font-size="10.00">::PowerlineDirection</text>
<text text-anchor="middle" x="594.5" y="-114.5" font-family="Helvetica,sans-Serif" font-size="10.00">::ToPoseStampedMsg</text>
</a>
</g>
</g>
<!-- Node10&#45;&gt;Node11 -->
<g id="edge13_Node000010_Node000011" class="edge">
<title>Node10&#45;&gt;Node11</title>
<g id="a_edge13_Node000010_Node000011"><a xlink:title=" ">
<path fill="none" stroke="#63b8ff" d="M429.65,-131.19C460.87,-130.58 495.12,-129.91 524.19,-129.35"/>
<polygon fill="#63b8ff" stroke="#63b8ff" points="524.31,-132.85 534.24,-129.15 524.18,-125.85 524.31,-132.85"/>
</a>
</g>
</g>
<!-- Node16 -->
<g id="Node000016" class="node">
<title>Node16</title>
<g id="a_Node000016"><a xlink:href="classiii__drone_1_1perception_1_1PowerlineDirection.html#a6b98a0735a5158f0f520531e0ef0f622" target="_top" xlink:title="Converts to quaternion stamped message.">
<polygon fill="white" stroke="#666666" points="670,-89.5 519,-89.5 519,-48.5 670,-48.5 670,-89.5"/>
<text text-anchor="start" x="527" y="-77.5" font-family="Helvetica,sans-Serif" font-size="10.00">iii_drone::perception</text>
<text text-anchor="start" x="527" y="-66.5" font-family="Helvetica,sans-Serif" font-size="10.00">::PowerlineDirection</text>
<text text-anchor="middle" x="594.5" y="-55.5" font-family="Helvetica,sans-Serif" font-size="10.00">::ToQuaternionStampedMsg</text>
</a>
</g>
</g>
<!-- Node10&#45;&gt;Node16 -->
<g id="edge18_Node000010_Node000016" class="edge">
<title>Node10&#45;&gt;Node16</title>
<g id="a_edge18_Node000010_Node000016"><a xlink:title=" ">
<path fill="none" stroke="#63b8ff" d="M429.65,-109.8C455.52,-103.36 483.46,-96.4 508.82,-90.09"/>
<polygon fill="#63b8ff" stroke="#63b8ff" points="509.91,-93.42 518.77,-87.61 508.22,-86.63 509.91,-93.42"/>
</a>
</g>
</g>
<!-- Node12 -->
<g id="Node000012" class="node">
<title>Node12</title>
<g id="a_Node000012"><a xlink:href="classiii__drone_1_1utils_1_1History.html#a4b015ee2da0e8a06ec7ac24e9fff5da3" target="_top" xlink:title="Returns true if the history is empty.">
<polygon fill="white" stroke="#666666" points="883.5,-111 756.5,-111 756.5,-81 883.5,-81 883.5,-111"/>
<text text-anchor="start" x="764.5" y="-99" font-family="Helvetica,sans-Serif" font-size="10.00">iii_drone::utils::History</text>
<text text-anchor="middle" x="820" y="-88" font-family="Helvetica,sans-Serif" font-size="10.00">::empty</text>
</a>
</g>
</g>
<!-- Node11&#45;&gt;Node12 -->
<g id="edge14_Node000011_Node000012" class="edge">
<title>Node11&#45;&gt;Node12</title>
<g id="a_edge14_Node000011_Node000012"><a xlink:title=" ">
<path fill="none" stroke="#63b8ff" d="M654.51,-119.55C682.51,-115.54 716.24,-110.71 745.84,-106.47"/>
<polygon fill="#63b8ff" stroke="#63b8ff" points="746.73,-109.88 756.13,-105 745.73,-102.95 746.73,-109.88"/>
</a>
</g>
</g>
<!-- Node13 -->
<g id="Node000013" class="node">
<title>Node13</title>
<g id="a_Node000013"><a xlink:href="namespaceiii__drone_1_1types.html#a2b1316cd0e6d4f226b2e11e7f9dd03c9" target="_top" xlink:title=" ">
<polygon fill="white" stroke="#666666" points="890.5,-159 749.5,-159 749.5,-129 890.5,-129 890.5,-159"/>
<text text-anchor="start" x="757.5" y="-147" font-family="Helvetica,sans-Serif" font-size="10.00">iii_drone::types::poseMsg</text>
<text text-anchor="middle" x="820" y="-136" font-family="Helvetica,sans-Serif" font-size="10.00">FromPose</text>
</a>
</g>
</g>
<!-- Node11&#45;&gt;Node13 -->
<g id="edge15_Node000011_Node000013" class="edge">
<title>Node11&#45;&gt;Node13</title>
<g id="a_edge15_Node000011_Node000013"><a xlink:title=" ">
<path fill="none" stroke="#63b8ff" d="M654.51,-132.22C680.43,-134.08 711.26,-136.29 739.18,-138.29"/>
<polygon fill="#63b8ff" stroke="#63b8ff" points="739.1,-141.79 749.32,-139.01 739.6,-134.81 739.1,-141.79"/>
</a>
</g>
</g>
<!-- Node14 -->
<g id="Node000014" class="node">
<title>Node14</title>
<g id="a_Node000014"><a xlink:href="namespaceiii__drone_1_1types.html#adf49c0d0a898eea29ad3e752a6712734" target="_top" xlink:title=" ">
<polygon fill="white" stroke="#666666" points="1086,-159 943,-159 943,-129 1086,-129 1086,-159"/>
<text text-anchor="start" x="951" y="-147" font-family="Helvetica,sans-Serif" font-size="10.00">iii_drone::types::pointMsg</text>
<text text-anchor="middle" x="1014.5" y="-136" font-family="Helvetica,sans-Serif" font-size="10.00">FromPoint</text>
</a>
</g>
</g>
<!-- Node13&#45;&gt;Node14 -->
<g id="edge16_Node000013_Node000014" class="edge">
<title>Node13&#45;&gt;Node14</title>
<g id="a_edge16_Node000013_Node000014"><a xlink:title=" ">
<path fill="none" stroke="#63b8ff" d="M890.77,-144C904.45,-144 918.9,-144 932.9,-144"/>
<polygon fill="#63b8ff" stroke="#63b8ff" points="933,-147.5 943,-144 933,-140.5 933,-147.5"/>
</a>
</g>
</g>
<!-- Node15 -->
<g id="Node000015" class="node">
<title>Node15</title>
<g id="a_Node000015"><a xlink:href="namespaceiii__drone_1_1types.html#a345601fdf3366d6af6d7c2003d74275b" target="_top" xlink:title=" ">
<polygon fill="white" stroke="#666666" points="1089.5,-90 939.5,-90 939.5,-60 1089.5,-60 1089.5,-90"/>
<text text-anchor="start" x="947.5" y="-78" font-family="Helvetica,sans-Serif" font-size="10.00">iii_drone::types::quaternion</text>
<text text-anchor="middle" x="1014.5" y="-67" font-family="Helvetica,sans-Serif" font-size="10.00">MsgFromQuaternion</text>
</a>
</g>
</g>
<!-- Node13&#45;&gt;Node15 -->
<g id="edge17_Node000013_Node000015" class="edge">
<title>Node13&#45;&gt;Node15</title>
<g id="a_edge17_Node000013_Node000015"><a xlink:title=" ">
<path fill="none" stroke="#63b8ff" d="M871.28,-128.88C880.22,-126.04 889.41,-123.01 898,-120 921.07,-111.92 946.41,-102.15 967.46,-93.78"/>
<polygon fill="#63b8ff" stroke="#63b8ff" points="968.82,-97.01 976.81,-90.04 966.23,-90.51 968.82,-97.01"/>
</a>
</g>
</g>
<!-- Node16&#45;&gt;Node12 -->
<g id="edge19_Node000016_Node000012" class="edge">
<title>Node16&#45;&gt;Node12</title>
<g id="a_edge19_Node000016_Node000012"><a xlink:title=" ">
<path fill="none" stroke="#63b8ff" d="M670.23,-78.03C694.66,-80.98 721.75,-84.25 746.05,-87.19"/>
<polygon fill="#63b8ff" stroke="#63b8ff" points="745.92,-90.7 756.27,-88.42 746.76,-83.75 745.92,-90.7"/>
</a>
</g>
</g>
<!-- Node16&#45;&gt;Node15 -->
<g id="edge20_Node000016_Node000015" class="edge">
<title>Node16&#45;&gt;Node15</title>
<g id="a_edge20_Node000016_Node000015"><a xlink:title=" ">
<path fill="none" stroke="#63b8ff" d="M670.09,-69.41C731.32,-69.82 820.28,-70.61 898,-72 908.11,-72.18 918.71,-72.41 929.22,-72.65"/>
<polygon fill="#63b8ff" stroke="#63b8ff" points="929.17,-76.15 939.26,-72.9 929.34,-69.16 929.17,-76.15"/>
</a>
</g>
</g>
<!-- Node18 -->
<g id="Node000018" class="node">
<title>Node18</title>
<g id="a_Node000018"><a xlink:href="namespaceiii__drone_1_1types.html#ab684c4851f41301e938970679086de49" target="_top" xlink:title=" ">
<polygon fill="white" stroke="#666666" points="669.5,-30 519.5,-30 519.5,0 669.5,0 669.5,-30"/>
<text text-anchor="start" x="527.5" y="-18" font-family="Helvetica,sans-Serif" font-size="10.00">iii_drone::types::quaternion</text>
<text text-anchor="middle" x="594.5" y="-7" font-family="Helvetica,sans-Serif" font-size="10.00">FromQuaternionMsg</text>
</a>
</g>
</g>
<!-- Node17&#45;&gt;Node18 -->
<g id="edge22_Node000017_Node000018" class="edge">
<title>Node17&#45;&gt;Node18</title>
<g id="a_edge22_Node000017_Node000018"><a xlink:title=" ">
<path fill="none" stroke="#63b8ff" d="M410.84,-37.74C441.6,-33.91 477.44,-29.45 509.18,-25.5"/>
<polygon fill="#63b8ff" stroke="#63b8ff" points="509.84,-28.94 519.33,-24.23 508.98,-22 509.84,-28.94"/>
</a>
</g>
</g>
<!-- Node19&#45;&gt;Node3 -->
<g id="edge24_Node000019_Node000003" class="edge">
<title>Node19&#45;&gt;Node3</title>
<g id="a_edge24_Node000019_Node000003"><a xlink:title=" ">
<path fill="none" stroke="#63b8ff" d="M447.06,-244.14C520.59,-241.55 619.24,-236.74 706,-228 714.37,-227.16 723.07,-226.13 731.76,-224.99"/>
<polygon fill="#63b8ff" stroke="#63b8ff" points="732.49,-228.43 741.93,-223.62 731.55,-221.49 732.49,-228.43"/>
</a>
</g>
</g>
</g>
</svg>

<g id="navigator" transform="translate(0 0)" fill="#404254">
  <rect fill="#f2f5e9" fill-opacity="0.5" stroke="#606060" stroke-width=".5" x="0" y="0" width="60" height="60"/>
  <use id="zoomplus" xlink:href="#zoomPlus" x="17" y="9" onmousedown="handleZoom(evt,'in')"/>
  <use id="zoomminus" xlink:href="#zoomMin" x="42" y="9" onmousedown="handleZoom(evt,'out')"/>
  <use id="reset" xlink:href="#resetDef" x="30" y="36" onmousedown="handleReset()"/>
   <use id="arrowup" xlink:href="#arrowUp" x="0" y="0" onmousedown="handlePan(0,-1)"/>
  <use id="arrowright" xlink:href="#arrowRight" x="0" y="0" onmousedown="handlePan(1,0)"/>
  <use id="arrowdown" xlink:href="#arrowDown" x="0" y="0" onmousedown="handlePan(0,1)"/>
  <use id="arrowleft" xlink:href="#arrowLeft" x="0" y="0" onmousedown="handlePan(-1,0)"/>
</g>
<svg viewBox="0 0 15 15" width="100%" height="30px" preserveAspectRatio="xMaxYMin meet">
 <g id="arrow_out" transform="scale(0.3 0.3)">
  <a xlink:href="classiii__drone_1_1perception_1_1pl__dir__computer__node_1_1PowerlineDirectionComputerNode_ab34c86cec88426267f792caac6bbedee_cgraph_org.svg" target="_base">
   <rect id="button" ry="5" rx="5" y="6" x="6" height="38" width="38"
        fill="#f2f5e9" fill-opacity="0.5" stroke="#606060" stroke-width="1.0"/>
   <path id="arrow"
     d="M 11.500037,31.436501 C 11.940474,20.09759 22.043105,11.32322 32.158766,21.979434 L 37.068811,17.246167 C 37.068811,17.246167 37.088388,32 37.088388,32 L 22.160133,31.978069 C 22.160133,31.978069 26.997745,27.140456 26.997745,27.140456 C 18.528582,18.264221 13.291696,25.230495 11.500037,31.436501 z"
     style="fill:#404040;"/>
  </a>
 </g>
</svg>

<style type='text/css'>
<![CDATA[
[data-mouse-over-selected='false'] { opacity: 0.7; }
[data-mouse-over-selected='true']  { opacity: 1.0; }
]]>
</style>
<script type="application/ecmascript"><![CDATA[
document.addEventListener('DOMContentLoaded', (event) => {
  highlightEdges();
  highlightAdjacentNodes();
});
]]></script>
</svg>
