<?xml version="1.0" encoding="UTF-8" standalone="no"?>
<!DOCTYPE svg PUBLIC "-//W3C//DTD SVG 1.1//EN"
 "http://www.w3.org/Graphics/SVG/1.1/DTD/svg11.dtd">
<!-- Generated by graphviz version 2.43.0 (0)
 -->
<!-- Title: iii_drone::utils::drone_frame_broadcaster_node::DroneFrameBroadcasterNode Pages: 1 -->
<svg width="181pt" height="224pt"
 viewBox="0.00 0.00 181.00 224.00" xmlns="http://www.w3.org/2000/svg" xmlns:xlink="http://www.w3.org/1999/xlink">

<svg id="main" version="1.1" xmlns="http://www.w3.org/2000/svg" xmlns:xlink="http://www.w3.org/1999/xlink" xml:space="preserve" onload="init(evt)">
<style type="text/css"><![CDATA[
.node, .edge {opacity: 0.7;}
.node.selected, .edge.selected {opacity: 1;}
.edge:hover path { stroke: red; }
.edge:hover polygon { stroke: red; fill: red; }
]]></style>
<script type="application/ecmascript" xlink:href="svg.min.js"/>
<svg id="graph" class="graph">
<g id="graph0" class="graph" transform="scale(1 1) rotate(0) translate(4 220)">
<title>iii_drone::utils::drone_frame_broadcaster_node::DroneFrameBroadcasterNode</title>
<!-- Node1 -->
<g id="Node000001" class="node">
<title>Node1</title>
<g id="a_Node000001"><a xlink:title=" ">
<polygon fill="#999999" stroke="transparent" points="173,-131 0,-131 0,0 173,0 173,-131"/>
<text text-anchor="start" x="11.5" y="-118.5" font-family="Helvetica,sans-Serif" font-size="10.00">iii_drone::utils::drone</text>
<text text-anchor="start" x="11.5" y="-107.5" font-family="Helvetica,sans-Serif" font-size="10.00">_frame_broadcaster_node</text>
<text text-anchor="start" x="11.5" y="-96.5" font-family="Helvetica,sans-Serif" font-size="10.00">::DroneFrameBroadcasterNode</text>
<text text-anchor="start" x="7" y="-81.5" font-family="Helvetica,sans-Serif" font-size="10.00">&#45;</text>
<text text-anchor="start" x="17.5" y="-81.5" font-family="Helvetica,sans-Serif" font-size="10.00">subscription_</text>
<text text-anchor="start" x="7" y="-66.5" font-family="Helvetica,sans-Serif" font-size="10.00">&#45;</text>
<text text-anchor="start" x="17.5" y="-66.5" font-family="Helvetica,sans-Serif" font-size="10.00">tf_broadcaster_</text>
<text text-anchor="start" x="7" y="-51.5" font-family="Helvetica,sans-Serif" font-size="10.00">&#45;</text>
<text text-anchor="start" x="17.5" y="-51.5" font-family="Helvetica,sans-Serif" font-size="10.00">R_NED_to_body_frame</text>
<text text-anchor="start" x="7" y="-36.5" font-family="Helvetica,sans-Serif" font-size="10.00">&#45;</text>
<text text-anchor="start" x="17.5" y="-36.5" font-family="Helvetica,sans-Serif" font-size="10.00">tf_configurator_</text>
<text text-anchor="start" x="4.5" y="-21.5" font-family="Helvetica,sans-Serif" font-size="10.00">+</text>
<text text-anchor="start" x="17.5" y="-21.5" font-family="Helvetica,sans-Serif" font-size="10.00">DroneFrameBroadcasterNode()</text>
<text text-anchor="start" x="7" y="-6.5" font-family="Helvetica,sans-Serif" font-size="10.00">&#45;</text>
<text text-anchor="start" x="17.5" y="-6.5" font-family="Helvetica,sans-Serif" font-size="10.00">odometryCallback()</text>
<polygon fill="#666666" stroke="#666666" points="0.5,-91.5 0.5,-91.5 173.5,-91.5 173.5,-91.5 0.5,-91.5"/>
<polygon fill="#666666" stroke="#666666" points="0.5,-31.5 0.5,-31.5 15.5,-31.5 15.5,-31.5 0.5,-31.5"/>
<polygon fill="#666666" stroke="#666666" points="15.5,-31.5 15.5,-31.5 173.5,-31.5 173.5,-31.5 15.5,-31.5"/>
<polygon fill="none" stroke="#666666" points="0,0 0,-131 173,-131 173,0 0,0"/>
</a>
</g>
</g>
<!-- Node2 -->
<g id="Node000002" class="node">
<title>Node2</title>
<g id="a_Node000002"><a xlink:title=" ">
<polygon fill="white" stroke="transparent" points="122,-216 51,-216 51,-167 122,-167 122,-216"/>
<text text-anchor="start" x="56.5" y="-203.5" font-family="Helvetica,sans-Serif" font-size="10.00">rclcpp::Node</text>
<text text-anchor="start" x="85" y="-188.5" font-family="Helvetica,sans-Serif" font-size="10.00"> </text>
<text text-anchor="start" x="85" y="-173.5" font-family="Helvetica,sans-Serif" font-size="10.00"> </text>
<polygon fill="#666666" stroke="#666666" points="51.5,-198.5 51.5,-198.5 122.5,-198.5 122.5,-198.5 51.5,-198.5"/>
<polygon fill="#666666" stroke="#666666" points="51.5,-183.5 51.5,-183.5 122.5,-183.5 122.5,-183.5 51.5,-183.5"/>
<polygon fill="none" stroke="#666666" points="51,-167 51,-216 122,-216 122,-167 51,-167"/>
</a>
</g>
</g>
<!-- Node2&#45;&gt;Node1 -->
<g id="edge1_Node000001_Node000002" class="edge">
<title>Node2&#45;&gt;Node1</title>
<g id="a_edge1_Node000001_Node000002"><a xlink:title=" ">
<path fill="none" stroke="#63b8ff" d="M86.5,-156.85C86.5,-148.82 86.5,-139.98 86.5,-131.06"/>
<polygon fill="none" stroke="#63b8ff" points="83,-156.88 86.5,-166.88 90,-156.88 83,-156.88"/>
</a>
</g>
</g>
</g>
</svg>
</svg>

<style type='text/css'>
<![CDATA[
[data-mouse-over-selected='false'] { opacity: 0.7; }
[data-mouse-over-selected='true']  { opacity: 1.0; }
]]>
</style>
<script type="application/ecmascript"><![CDATA[
document.addEventListener('DOMContentLoaded', (event) => {
  highlightEdges();
  highlightAdjacentNodes();
});
]]></script>
</svg>
