<?xml version="1.0" encoding="UTF-8" standalone="no"?>
<!DOCTYPE svg PUBLIC "-//W3C//DTD SVG 1.1//EN"
 "http://www.w3.org/Graphics/SVG/1.1/DTD/svg11.dtd">
<!-- Generated by graphviz version 2.43.0 (0)
 -->
<!-- Title: iii_drone::perception::pl_dir_computer_node::PowerlineDirectionComputerConfigurator::declareNodeParameters Pages: 1 -->
<svg width="446pt" height="116pt"
 viewBox="0.00 0.00 446.00 115.50" xmlns="http://www.w3.org/2000/svg" xmlns:xlink="http://www.w3.org/1999/xlink">
<g id="graph0" class="graph" transform="scale(1 1) rotate(0) translate(4 111.5)">
<title>iii_drone::perception::pl_dir_computer_node::PowerlineDirectionComputerConfigurator::declareNodeParameters</title>
<!-- Node1 -->
<g id="Node000001" class="node">
<title>Node1</title>
<g id="a_Node000001"><a xlink:title="Declares the node specific parameters.">
<polygon fill="#999999" stroke="#666666" points="223,-82.5 0,-82.5 0,-30.5 223,-30.5 223,-82.5"/>
<text text-anchor="start" x="8" y="-70.5" font-family="Helvetica,sans-Serif" font-size="10.00">iii_drone::perception</text>
<text text-anchor="start" x="8" y="-59.5" font-family="Helvetica,sans-Serif" font-size="10.00">::pl_dir_computer_node</text>
<text text-anchor="start" x="8" y="-48.5" font-family="Helvetica,sans-Serif" font-size="10.00">::PowerlineDirectionComputerConfigurator</text>
<text text-anchor="middle" x="111.5" y="-37.5" font-family="Helvetica,sans-Serif" font-size="10.00">::declareNodeParameters</text>
</a>
</g>
</g>
<!-- Node2 -->
<g id="Node000002" class="node">
<title>Node2</title>
<g id="a_Node000002"><a xlink:href="configurator_8cpp.html#a4249c2018a72e5ed93ef4d0ef6b9d25f" target="_top" xlink:title=" ">
<polygon fill="white" stroke="#666666" points="414,-107.5 283,-107.5 283,-77.5 414,-77.5 414,-107.5"/>
<text text-anchor="start" x="291" y="-95.5" font-family="Helvetica,sans-Serif" font-size="10.00">DeclareParameter&lt; std</text>
<text text-anchor="middle" x="348.5" y="-84.5" font-family="Helvetica,sans-Serif" font-size="10.00">::string &gt;</text>
</a>
</g>
</g>
<!-- Node1&#45;&gt;Node2 -->
<g id="edge1_Node000001_Node000002" class="edge">
<title>Node1&#45;&gt;Node2</title>
<g id="a_edge1_Node000001_Node000002"><a xlink:title=" ">
<path fill="none" stroke="#63b8ff" d="M223.12,-73.45C239.92,-76.02 256.9,-78.62 272.69,-81.04"/>
<polygon fill="#63b8ff" stroke="#63b8ff" points="272.47,-84.55 282.89,-82.6 273.53,-77.63 272.47,-84.55"/>
</a>
</g>
</g>
<!-- Node3 -->
<g id="Node000003" class="node">
<title>Node3</title>
<g id="a_Node000003"><a xlink:href="classiii__drone_1_1configuration_1_1Configurator.html#ac5360ab6b4f31277c7d73b5579815353" target="_top" xlink:title="Static function for getting string representation of a parameter type from template type.">
<polygon fill="white" stroke="#666666" points="438,-41 259,-41 259,0 438,0 438,-41"/>
<text text-anchor="start" x="267" y="-29" font-family="Helvetica,sans-Serif" font-size="10.00">iii_drone::configuration</text>
<text text-anchor="start" x="267" y="-18" font-family="Helvetica,sans-Serif" font-size="10.00">::Configurator::GetParameterType</text>
<text text-anchor="middle" x="348.5" y="-7" font-family="Helvetica,sans-Serif" font-size="10.00">String</text>
</a>
</g>
</g>
<!-- Node1&#45;&gt;Node3 -->
<g id="edge2_Node000001_Node000003" class="edge">
<title>Node1&#45;&gt;Node3</title>
<g id="a_edge2_Node000001_Node000003"><a xlink:title=" ">
<path fill="none" stroke="#63b8ff" d="M223.12,-39.55C231.76,-38.23 240.45,-36.9 249.01,-35.59"/>
<polygon fill="#63b8ff" stroke="#63b8ff" points="249.62,-39.04 258.97,-34.06 248.56,-32.12 249.62,-39.04"/>
</a>
</g>
</g>
<!-- Node3&#45;&gt;Node3 -->
<g id="edge3_Node000003_Node000003" class="edge">
<title>Node3&#45;&gt;Node3</title>
<g id="a_edge3_Node000003_Node000003"><a xlink:title=" ">
<path fill="none" stroke="#63b8ff" d="M305.13,-41.1C300.39,-50.65 314.85,-59 348.5,-59 369.53,-59 383.06,-55.74 389.1,-50.96"/>
<polygon fill="#63b8ff" stroke="#63b8ff" points="392.54,-51.67 391.87,-41.1 385.8,-49.78 392.54,-51.67"/>
</a>
</g>
</g>
</g>
</svg>
