<?xml version="1.0" encoding="UTF-8" standalone="no"?>
<!DOCTYPE svg PUBLIC "-//W3C//DTD SVG 1.1//EN"
 "http://www.w3.org/Graphics/SVG/1.1/DTD/svg11.dtd">
<!-- Generated by graphviz version 2.43.0 (0)
 -->
<!-- Title: iii_drone::control::maneuver::FlyToObjectManeuverServerParameters Pages: 1 -->
<svg width="263pt" height="532pt"
 viewBox="0.00 0.00 262.50 532.00" xmlns="http://www.w3.org/2000/svg" xmlns:xlink="http://www.w3.org/1999/xlink">
<g id="graph0" class="graph" transform="scale(1 1) rotate(0) translate(4 528)">
<title>iii_drone::control::maneuver::FlyToObjectManeuverServerParameters</title>
<!-- Node1 -->
<g id="Node000001" class="node">
<title>Node1</title>
<g id="a_Node000001"><a xlink:title="Class for handling parameters for the FlyToObjectManeuverServer object.">
<polygon fill="#999999" stroke="transparent" points="203.5,-331 25.5,-331 25.5,0 203.5,0 203.5,-331"/>
<text text-anchor="start" x="30.5" y="-318.5" font-family="Helvetica,sans-Serif" font-size="10.00">iii_drone::control</text>
<text text-anchor="start" x="30.5" y="-307.5" font-family="Helvetica,sans-Serif" font-size="10.00">::maneuver::FlyToObjectManeuver</text>
<text text-anchor="start" x="70.5" y="-296.5" font-family="Helvetica,sans-Serif" font-size="10.00">ServerParameters</text>
<text text-anchor="start" x="36.5" y="-281.5" font-family="Helvetica,sans-Serif" font-size="10.00">&#45;</text>
<text text-anchor="start" x="51.5" y="-281.5" font-family="Helvetica,sans-Serif" font-size="10.00">reached_position_euclidean</text>
<text text-anchor="start" x="51.5" y="-270.5" font-family="Helvetica,sans-Serif" font-size="10.00">_distance_threshold_</text>
<text text-anchor="start" x="36.5" y="-255.5" font-family="Helvetica,sans-Serif" font-size="10.00">&#45;</text>
<text text-anchor="start" x="51.5" y="-255.5" font-family="Helvetica,sans-Serif" font-size="10.00">minimum_target_altitude_</text>
<text text-anchor="start" x="36.5" y="-240.5" font-family="Helvetica,sans-Serif" font-size="10.00">&#45;</text>
<text text-anchor="start" x="51.5" y="-240.5" font-family="Helvetica,sans-Serif" font-size="10.00">generate_trajectories</text>
<text text-anchor="start" x="51.5" y="-229.5" font-family="Helvetica,sans-Serif" font-size="10.00">_asynchronously_with</text>
<text text-anchor="start" x="51.5" y="-218.5" font-family="Helvetica,sans-Serif" font-size="10.00">_delay_</text>
<text text-anchor="start" x="36.5" y="-203.5" font-family="Helvetica,sans-Serif" font-size="10.00">&#45;</text>
<text text-anchor="start" x="51.5" y="-203.5" font-family="Helvetica,sans-Serif" font-size="10.00">generate_trajectories</text>
<text text-anchor="start" x="51.5" y="-192.5" font-family="Helvetica,sans-Serif" font-size="10.00">_poll_period_ms_</text>
<text text-anchor="start" x="34" y="-177.5" font-family="Helvetica,sans-Serif" font-size="10.00">+</text>
<text text-anchor="start" x="51.5" y="-177.5" font-family="Helvetica,sans-Serif" font-size="10.00">FlyToObjectManeuverServer</text>
<text text-anchor="start" x="51.5" y="-166.5" font-family="Helvetica,sans-Serif" font-size="10.00">Parameters()</text>
<text text-anchor="start" x="34" y="-151.5" font-family="Helvetica,sans-Serif" font-size="10.00">+</text>
<text text-anchor="start" x="51.5" y="-151.5" font-family="Helvetica,sans-Serif" font-size="10.00">reached_position_euclidean</text>
<text text-anchor="start" x="51.5" y="-140.5" font-family="Helvetica,sans-Serif" font-size="10.00">_distance_threshold()</text>
<text text-anchor="start" x="34" y="-125.5" font-family="Helvetica,sans-Serif" font-size="10.00">+</text>
<text text-anchor="start" x="51.5" y="-125.5" font-family="Helvetica,sans-Serif" font-size="10.00">reached_position_euclidean</text>
<text text-anchor="start" x="51.5" y="-114.5" font-family="Helvetica,sans-Serif" font-size="10.00">_distance_threshold()</text>
<text text-anchor="start" x="34" y="-99.5" font-family="Helvetica,sans-Serif" font-size="10.00">+</text>
<text text-anchor="start" x="51.5" y="-99.5" font-family="Helvetica,sans-Serif" font-size="10.00">minimum_target_altitude()</text>
<text text-anchor="start" x="34" y="-84.5" font-family="Helvetica,sans-Serif" font-size="10.00">+</text>
<text text-anchor="start" x="51.5" y="-84.5" font-family="Helvetica,sans-Serif" font-size="10.00">minimum_target_altitude()</text>
<text text-anchor="start" x="34" y="-69.5" font-family="Helvetica,sans-Serif" font-size="10.00">+</text>
<text text-anchor="start" x="51.5" y="-69.5" font-family="Helvetica,sans-Serif" font-size="10.00">generate_trajectories</text>
<text text-anchor="start" x="51.5" y="-58.5" font-family="Helvetica,sans-Serif" font-size="10.00">_asynchronously_with</text>
<text text-anchor="start" x="51.5" y="-47.5" font-family="Helvetica,sans-Serif" font-size="10.00">_delay()</text>
<text text-anchor="start" x="34" y="-32.5" font-family="Helvetica,sans-Serif" font-size="10.00">+</text>
<text text-anchor="start" x="51.5" y="-32.5" font-family="Helvetica,sans-Serif" font-size="10.00">generate_trajectories</text>
<text text-anchor="start" x="51.5" y="-21.5" font-family="Helvetica,sans-Serif" font-size="10.00">_poll_period_ms()</text>
<text text-anchor="start" x="34" y="-6.5" font-family="Helvetica,sans-Serif" font-size="10.00">+</text>
<text text-anchor="start" x="51.5" y="-6.5" font-family="Helvetica,sans-Serif" font-size="10.00">world_frame_id()</text>
<polygon fill="#666666" stroke="#666666" points="25.5,-291.5 25.5,-291.5 203.5,-291.5 203.5,-291.5 25.5,-291.5"/>
<polygon fill="#666666" stroke="#666666" points="25.5,-187.5 25.5,-187.5 49.5,-187.5 49.5,-187.5 25.5,-187.5"/>
<polygon fill="#666666" stroke="#666666" points="49.5,-187.5 49.5,-187.5 203.5,-187.5 203.5,-187.5 49.5,-187.5"/>
<polygon fill="none" stroke="#666666" points="25.5,0 25.5,-331 203.5,-331 203.5,0 25.5,0"/>
</a>
</g>
</g>
<!-- Node2 -->
<g id="Node000002" class="node">
<title>Node2</title>
<g id="a_Node000002"><a xlink:title=" ">
<polygon fill="white" stroke="transparent" points="101,-427 0,-427 0,-378 101,-378 101,-427"/>
<text text-anchor="start" x="5.5" y="-414.5" font-family="Helvetica,sans-Serif" font-size="10.00">std::shared_mutex</text>
<text text-anchor="start" x="49" y="-399.5" font-family="Helvetica,sans-Serif" font-size="10.00"> </text>
<text text-anchor="start" x="49" y="-384.5" font-family="Helvetica,sans-Serif" font-size="10.00"> </text>
<polygon fill="#666666" stroke="#666666" points="0.5,-409.5 0.5,-409.5 101.5,-409.5 101.5,-409.5 0.5,-409.5"/>
<polygon fill="#666666" stroke="#666666" points="0.5,-394.5 0.5,-394.5 101.5,-394.5 101.5,-394.5 0.5,-394.5"/>
<polygon fill="none" stroke="#666666" points="0,-378 0,-427 101,-427 101,-378 0,-378"/>
</a>
</g>
</g>
<!-- Node2&#45;&gt;Node1 -->
<g id="edge1_Node000001_Node000002" class="edge">
<title>Node2&#45;&gt;Node1</title>
<g id="a_edge1_Node000001_Node000002"><a xlink:title=" ">
<path fill="none" stroke="#63b8ff" d="M49.39,-377.83C49.37,-368.75 49.84,-358.33 51.5,-349 51.86,-346.96 52.24,-344.91 52.64,-342.85"/>
<polygon fill="none" stroke="#63b8ff" points="52.66,-342.76 49.98,-336.07 55.13,-331.02 57.81,-337.71 52.66,-342.76"/>
</a>
</g>
<text text-anchor="middle" x="104.5" y="-352" font-family="Helvetica,sans-Serif" font-size="10.00" fill="grey"> &#45;parameters_mutex_</text>
</g>
<!-- Node3 -->
<g id="Node000003" class="node">
<title>Node3</title>
<g id="a_Node000003"><a xlink:title=" ">
<polygon fill="white" stroke="transparent" points="209,-427 150,-427 150,-378 209,-378 209,-427"/>
<text text-anchor="start" x="155.5" y="-414.5" font-family="Helvetica,sans-Serif" font-size="10.00">std::string</text>
<text text-anchor="start" x="178" y="-399.5" font-family="Helvetica,sans-Serif" font-size="10.00"> </text>
<text text-anchor="start" x="178" y="-384.5" font-family="Helvetica,sans-Serif" font-size="10.00"> </text>
<polygon fill="#666666" stroke="#666666" points="150.5,-409.5 150.5,-409.5 209.5,-409.5 209.5,-409.5 150.5,-409.5"/>
<polygon fill="#666666" stroke="#666666" points="150.5,-394.5 150.5,-394.5 209.5,-394.5 209.5,-394.5 150.5,-394.5"/>
<polygon fill="none" stroke="#666666" points="150,-378 150,-427 209,-427 209,-378 150,-378"/>
</a>
</g>
</g>
<!-- Node3&#45;&gt;Node1 -->
<g id="edge2_Node000001_Node000003" class="edge">
<title>Node3&#45;&gt;Node1</title>
<g id="a_edge2_Node000001_Node000003"><a xlink:title=" ">
<path fill="none" stroke="#63b8ff" d="M172.91,-377.67C170.28,-368.15 167,-356.3 163.35,-343.11"/>
<polygon fill="none" stroke="#63b8ff" points="163.25,-342.76 157.8,-338.04 160.05,-331.19 165.51,-335.91 163.25,-342.76"/>
</a>
</g>
<text text-anchor="middle" x="210.5" y="-352" font-family="Helvetica,sans-Serif" font-size="10.00" fill="grey"> &#45;world_frame_id_</text>
</g>
<!-- Node4 -->
<g id="Node000004" class="node">
<title>Node4</title>
<g id="a_Node000004"><a xlink:title=" ">
<polygon fill="white" stroke="transparent" points="228.5,-524 130.5,-524 130.5,-464 228.5,-464 228.5,-524"/>
<text text-anchor="start" x="135.5" y="-512" font-family="Helvetica,sans-Serif" font-size="10.00">std::basic_string&lt;</text>
<text text-anchor="start" x="161" y="-501" font-family="Helvetica,sans-Serif" font-size="10.00"> Char &gt;</text>
<text text-anchor="start" x="177.5" y="-486" font-family="Helvetica,sans-Serif" font-size="10.00"> </text>
<text text-anchor="start" x="177.5" y="-471" font-family="Helvetica,sans-Serif" font-size="10.00"> </text>
<polygon fill="#666666" stroke="#666666" points="130.5,-496 130.5,-496 228.5,-496 228.5,-496 130.5,-496"/>
<polygon fill="#666666" stroke="#666666" points="130.5,-481 130.5,-481 228.5,-481 228.5,-481 130.5,-481"/>
<polygon fill="none" stroke="#666666" points="130.5,-464 130.5,-524 228.5,-524 228.5,-464 130.5,-464"/>
</a>
</g>
</g>
<!-- Node4&#45;&gt;Node3 -->
<g id="edge3_Node000003_Node000004" class="edge">
<title>Node4&#45;&gt;Node3</title>
<g id="a_edge3_Node000003_Node000004"><a xlink:title=" ">
<path fill="none" stroke="#63b8ff" d="M179.5,-453.41C179.5,-444.47 179.5,-435.25 179.5,-427.21"/>
<polygon fill="none" stroke="#63b8ff" points="176,-453.69 179.5,-463.69 183,-453.69 176,-453.69"/>
</a>
</g>
</g>
</g>
</svg>
