<?xml version="1.0" encoding="UTF-8" standalone="no"?>
<!DOCTYPE svg PUBLIC "-//W3C//DTD SVG 1.1//EN"
 "http://www.w3.org/Graphics/SVG/1.1/DTD/svg11.dtd">
<!-- Generated by graphviz version 2.43.0 (0)
 -->
<!-- Title: iii_drone::perception::Powerline::updateProjectionPlane Pages: 1 -->
<svg width="359pt" height="150pt"
 viewBox="0.00 0.00 359.00 149.50" xmlns="http://www.w3.org/2000/svg" xmlns:xlink="http://www.w3.org/1999/xlink">
<g id="graph0" class="graph" transform="scale(1 1) rotate(0) translate(4 145.5)">
<title>iii_drone::perception::Powerline::updateProjectionPlane</title>
<!-- Node1 -->
<g id="Node000001" class="node">
<title>Node1</title>
<g id="a_Node000001"><a xlink:title="Updates the projection plane.">
<polygon fill="#999999" stroke="#666666" points="159,-85 0,-85 0,-44 159,-44 159,-85"/>
<text text-anchor="start" x="8" y="-73" font-family="Helvetica,sans-Serif" font-size="10.00">iii_drone::perception</text>
<text text-anchor="start" x="8" y="-62" font-family="Helvetica,sans-Serif" font-size="10.00">::Powerline::updateProjection</text>
<text text-anchor="middle" x="79.5" y="-51" font-family="Helvetica,sans-Serif" font-size="10.00">Plane</text>
</a>
</g>
</g>
<!-- Node2 -->
<g id="Node000002" class="node">
<title>Node2</title>
<g id="a_Node000002"><a xlink:href="namespaceiii__drone_1_1types.html#a3c643a86317f9f8c192979766cdfbc51" target="_top" xlink:title=" ">
<polygon fill="white" stroke="#666666" points="337,-141.5 209,-141.5 209,-111.5 337,-111.5 337,-141.5"/>
<text text-anchor="start" x="217" y="-129.5" font-family="Helvetica,sans-Serif" font-size="10.00">iii_drone::types::create</text>
<text text-anchor="middle" x="273" y="-118.5" font-family="Helvetica,sans-Serif" font-size="10.00">Plane</text>
</a>
</g>
</g>
<!-- Node1&#45;&gt;Node2 -->
<g id="edge1_Node000001_Node000002" class="edge">
<title>Node1&#45;&gt;Node2</title>
<g id="a_edge1_Node000001_Node000002"><a xlink:title=" ">
<path fill="none" stroke="#63b8ff" d="M141.64,-85.02C158.87,-90.74 177.65,-96.92 195,-102.5 200.95,-104.41 207.16,-106.39 213.37,-108.35"/>
<polygon fill="#63b8ff" stroke="#63b8ff" points="212.49,-111.74 223.08,-111.4 214.59,-105.06 212.49,-111.74"/>
</a>
</g>
</g>
<!-- Node3 -->
<g id="Node000003" class="node">
<title>Node3</title>
<g id="a_Node000003"><a xlink:href="namespaceiii__drone_1_1math.html#a7f61d7905e9118b077f713da7e65e8df" target="_top" xlink:title=" ">
<polygon fill="white" stroke="#666666" points="343,-93 203,-93 203,-74 343,-74 343,-93"/>
<text text-anchor="middle" x="273" y="-81" font-family="Helvetica,sans-Serif" font-size="10.00">iii_drone::math::eulToMat</text>
</a>
</g>
</g>
<!-- Node1&#45;&gt;Node3 -->
<g id="edge2_Node000001_Node000003" class="edge">
<title>Node1&#45;&gt;Node3</title>
<g id="a_edge2_Node000001_Node000003"><a xlink:title=" ">
<path fill="none" stroke="#63b8ff" d="M159.22,-72.31C170.28,-73.41 181.65,-74.54 192.72,-75.63"/>
<polygon fill="#63b8ff" stroke="#63b8ff" points="192.48,-79.13 202.78,-76.63 193.17,-72.16 192.48,-79.13"/>
</a>
</g>
</g>
<!-- Node4 -->
<g id="Node000004" class="node">
<title>Node4</title>
<g id="a_Node000004"><a xlink:href="namespaceiii__drone_1_1math.html#a8e7d7e25d07b368363d6da9939a9abed" target="_top" xlink:title=" ">
<polygon fill="white" stroke="#666666" points="344.5,-56 201.5,-56 201.5,-37 344.5,-37 344.5,-56"/>
<text text-anchor="middle" x="273" y="-44" font-family="Helvetica,sans-Serif" font-size="10.00">iii_drone::math::quatToEul</text>
</a>
</g>
</g>
<!-- Node1&#45;&gt;Node4 -->
<g id="edge3_Node000001_Node000004" class="edge">
<title>Node1&#45;&gt;Node4</title>
<g id="a_edge3_Node000001_Node000004"><a xlink:title=" ">
<path fill="none" stroke="#63b8ff" d="M159.22,-57.1C169.77,-56.11 180.61,-55.09 191.2,-54.09"/>
<polygon fill="#63b8ff" stroke="#63b8ff" points="191.63,-57.57 201.26,-53.15 190.98,-50.6 191.63,-57.57"/>
</a>
</g>
</g>
<!-- Node5 -->
<g id="Node000005" class="node">
<title>Node5</title>
<g id="a_Node000005"><a xlink:href="namespaceiii__drone_1_1math.html#a7263544e2fcd6c68d67d54f5a87a4dee" target="_top" xlink:title=" ">
<polygon fill="white" stroke="#666666" points="351,-19 195,-19 195,0 351,0 351,-19"/>
<text text-anchor="middle" x="273" y="-7" font-family="Helvetica,sans-Serif" font-size="10.00">iii_drone::math::rotateVector</text>
</a>
</g>
</g>
<!-- Node1&#45;&gt;Node5 -->
<g id="edge4_Node000001_Node000005" class="edge">
<title>Node1&#45;&gt;Node5</title>
<g id="a_edge4_Node000001_Node000005"><a xlink:title=" ">
<path fill="none" stroke="#63b8ff" d="M143.28,-43.98C160.02,-38.72 178.15,-33.22 195,-28.5 203.48,-26.12 212.52,-23.75 221.32,-21.52"/>
<polygon fill="#63b8ff" stroke="#63b8ff" points="222.26,-24.9 231.11,-19.08 220.56,-18.11 222.26,-24.9"/>
</a>
</g>
</g>
</g>
</svg>
