<?xml version="1.0" encoding="UTF-8" standalone="no"?>
<!DOCTYPE svg PUBLIC "-//W3C//DTD SVG 1.1//EN"
 "http://www.w3.org/Graphics/SVG/1.1/DTD/svg11.dtd">
<!-- Generated by graphviz version 2.43.0 (0)
 -->
<!-- Title: iii_drone::control::maneuver::ManeuverQueue::Find Pages: 1 -->
<svg width="601pt" height="38pt"
 viewBox="0.00 0.00 601.00 38.00" xmlns="http://www.w3.org/2000/svg" xmlns:xlink="http://www.w3.org/1999/xlink">
<g id="graph0" class="graph" transform="scale(1 1) rotate(0) translate(4 34)">
<title>iii_drone::control::maneuver::ManeuverQueue::Find</title>
<!-- Node1 -->
<g id="Node000001" class="node">
<title>Node1</title>
<g id="a_Node000001"><a xlink:title="Finds a maneuver from UUID.">
<polygon fill="#999999" stroke="#666666" points="185,-30 0,-30 0,0 185,0 185,-30"/>
<text text-anchor="start" x="8" y="-18" font-family="Helvetica,sans-Serif" font-size="10.00">iii_drone::control</text>
<text text-anchor="middle" x="92.5" y="-7" font-family="Helvetica,sans-Serif" font-size="10.00">::maneuver::ManeuverQueue::Find</text>
</a>
</g>
</g>
<!-- Node2 -->
<g id="Node000002" class="node">
<title>Node2</title>
<g id="a_Node000002"><a xlink:href="classiii__drone_1_1control_1_1maneuver_1_1ManeuverQueue.html#a5d1aebf4c43998899389737a1b50b6a7" target="_top" xlink:title="Finds a maneuver in the queue by its UUID.">
<polygon fill="white" stroke="#666666" points="403,-30 221,-30 221,0 403,0 403,-30"/>
<text text-anchor="start" x="229" y="-18" font-family="Helvetica,sans-Serif" font-size="10.00">iii_drone::control</text>
<text text-anchor="middle" x="312" y="-7" font-family="Helvetica,sans-Serif" font-size="10.00">::maneuver::ManeuverQueue::find</text>
</a>
</g>
</g>
<!-- Node1&#45;&gt;Node2 -->
<g id="edge1_Node000001_Node000002" class="edge">
<title>Node1&#45;&gt;Node2</title>
<g id="a_edge1_Node000001_Node000002"><a xlink:title=" ">
<path fill="none" stroke="#63b8ff" d="M185.11,-15C193.62,-15 202.28,-15 210.86,-15"/>
<polygon fill="#63b8ff" stroke="#63b8ff" points="210.89,-18.5 220.89,-15 210.89,-11.5 210.89,-18.5"/>
</a>
</g>
</g>
<!-- Node3 -->
<g id="Node000003" class="node">
<title>Node3</title>
<g id="a_Node000003"><a xlink:href="classiii__drone_1_1control_1_1maneuver_1_1Maneuver.html#a0490fe188e37c65b3e33ea5d82875c92" target="_top" xlink:title="UUID getter.">
<polygon fill="white" stroke="#666666" points="593,-30 439,-30 439,0 593,0 593,-30"/>
<text text-anchor="start" x="447" y="-18" font-family="Helvetica,sans-Serif" font-size="10.00">iii_drone::control</text>
<text text-anchor="middle" x="516" y="-7" font-family="Helvetica,sans-Serif" font-size="10.00">::maneuver::Maneuver::uuid</text>
</a>
</g>
</g>
<!-- Node2&#45;&gt;Node3 -->
<g id="edge2_Node000002_Node000003" class="edge">
<title>Node2&#45;&gt;Node3</title>
<g id="a_edge2_Node000002_Node000003"><a xlink:title=" ">
<path fill="none" stroke="#63b8ff" d="M403.07,-15C411.6,-15 420.23,-15 428.72,-15"/>
<polygon fill="#63b8ff" stroke="#63b8ff" points="428.99,-18.5 438.99,-15 428.99,-11.5 428.99,-18.5"/>
</a>
</g>
</g>
</g>
</svg>
