<?xml version="1.0" encoding="UTF-8" standalone="no"?>
<!DOCTYPE svg PUBLIC "-//W3C//DTD SVG 1.1//EN"
 "http://www.w3.org/Graphics/SVG/1.1/DTD/svg11.dtd">
<!-- Generated by graphviz version 2.43.0 (0)
 -->
<!-- Title: iii_drone::adapters::PowerlineAdapter::single_line_adapters Pages: 1 -->
<svg width="653pt" height="114pt"
 viewBox="0.00 0.00 653.00 113.50" xmlns="http://www.w3.org/2000/svg" xmlns:xlink="http://www.w3.org/1999/xlink">
<g id="graph0" class="graph" transform="scale(1 1) rotate(0) translate(4 109.5)">
<title>iii_drone::adapters::PowerlineAdapter::single_line_adapters</title>
<!-- Node1 -->
<g id="Node000001" class="node">
<title>Node1</title>
<g id="a_Node000001"><a xlink:title="Line adapters getter.">
<polygon fill="#999999" stroke="#666666" points="645,-70 528,-70 528,-29 645,-29 645,-70"/>
<text text-anchor="start" x="536" y="-58" font-family="Helvetica,sans-Serif" font-size="10.00">iii_drone::adapters</text>
<text text-anchor="start" x="536" y="-47" font-family="Helvetica,sans-Serif" font-size="10.00">::PowerlineAdapter::</text>
<text text-anchor="middle" x="586.5" y="-36" font-family="Helvetica,sans-Serif" font-size="10.00">single_line_adapters</text>
</a>
</g>
</g>
<!-- Node2 -->
<g id="Node000002" class="node">
<title>Node2</title>
<g id="a_Node000002"><a xlink:href="classiii__drone_1_1perception_1_1PowerlineDirection.html#a6c0d3f6de6be448f8d02e044c1739f1a" target="_top" xlink:title="Checks if any cable is in the field of view.">
<polygon fill="white" stroke="#666666" points="492,-100 376,-100 376,-59 492,-59 492,-100"/>
<text text-anchor="start" x="384" y="-88" font-family="Helvetica,sans-Serif" font-size="10.00">iii_drone::perception</text>
<text text-anchor="start" x="384" y="-77" font-family="Helvetica,sans-Serif" font-size="10.00">::PowerlineDirection</text>
<text text-anchor="middle" x="434" y="-66" font-family="Helvetica,sans-Serif" font-size="10.00">::anyCableInFOV</text>
</a>
</g>
</g>
<!-- Node1&#45;&gt;Node2 -->
<g id="edge1_Node000001_Node000002" class="edge">
<title>Node1&#45;&gt;Node2</title>
<g id="a_edge1_Node000001_Node000002"><a xlink:title=" ">
<path fill="none" stroke="#63b8ff" d="M517.84,-62.99C509.33,-64.68 500.69,-66.41 492.35,-68.07"/>
<polygon fill="#63b8ff" stroke="#63b8ff" points="518.62,-66.4 527.74,-61.01 517.25,-59.54 518.62,-66.4"/>
</a>
</g>
</g>
<!-- Node5 -->
<g id="Node000005" class="node">
<title>Node5</title>
<g id="a_Node000005"><a xlink:href="classiii__drone_1_1adapters_1_1PowerlineAdapter.html#ae72e1dd3a4465c523575ca541a8a3314" target="_top" xlink:title="Constructor from members.">
<polygon fill="white" stroke="#666666" points="491.5,-41 376.5,-41 376.5,0 491.5,0 491.5,-41"/>
<text text-anchor="start" x="384.5" y="-29" font-family="Helvetica,sans-Serif" font-size="10.00">iii_drone::adapters</text>
<text text-anchor="start" x="384.5" y="-18" font-family="Helvetica,sans-Serif" font-size="10.00">::PowerlineAdapter::</text>
<text text-anchor="middle" x="434" y="-7" font-family="Helvetica,sans-Serif" font-size="10.00">PowerlineAdapter</text>
</a>
</g>
</g>
<!-- Node1&#45;&gt;Node5 -->
<g id="edge4_Node000001_Node000005" class="edge">
<title>Node1&#45;&gt;Node5</title>
<g id="a_edge4_Node000001_Node000005"><a xlink:title=" ">
<path fill="none" stroke="#63b8ff" d="M517.7,-36.43C509.06,-34.77 500.3,-33.08 491.86,-31.46"/>
<polygon fill="#63b8ff" stroke="#63b8ff" points="517.26,-39.92 527.74,-38.37 518.59,-33.04 517.26,-39.92"/>
</a>
</g>
</g>
<!-- Node3 -->
<g id="Node000003" class="node">
<title>Node3</title>
<g id="a_Node000003"><a xlink:href="classiii__drone_1_1perception_1_1PowerlineDirection.html#a15ab1216adf0aff5c7be05e851c70040" target="_top" xlink:title="Runs the Kalman Filter update step from an observed yaw angle.">
<polygon fill="white" stroke="#666666" points="340,-100 224,-100 224,-59 340,-59 340,-100"/>
<text text-anchor="start" x="232" y="-88" font-family="Helvetica,sans-Serif" font-size="10.00">iii_drone::perception</text>
<text text-anchor="start" x="232" y="-77" font-family="Helvetica,sans-Serif" font-size="10.00">::PowerlineDirection</text>
<text text-anchor="middle" x="282" y="-66" font-family="Helvetica,sans-Serif" font-size="10.00">::Update</text>
</a>
</g>
</g>
<!-- Node2&#45;&gt;Node3 -->
<g id="edge2_Node000002_Node000003" class="edge">
<title>Node2&#45;&gt;Node3</title>
<g id="a_edge2_Node000002_Node000003"><a xlink:title=" ">
<path fill="none" stroke="#63b8ff" d="M365.69,-79.5C357.27,-79.5 348.72,-79.5 340.47,-79.5"/>
<polygon fill="#63b8ff" stroke="#63b8ff" points="365.86,-83 375.86,-79.5 365.86,-76 365.86,-83"/>
</a>
</g>
</g>
<!-- Node4 -->
<g id="Node000004" class="node">
<title>Node4</title>
<g id="a_Node000004"><a xlink:href="classiii__drone_1_1perception_1_1pl__dir__computer__node_1_1PowerlineDirectionComputerNode.html#a7d69d952785cf09e8cd381bd624480f2" target="_top" xlink:title="Construct a new Powerline Direction Computer Node object.">
<polygon fill="white" stroke="#666666" points="188,-105.5 0,-105.5 0,-53.5 188,-53.5 188,-105.5"/>
<text text-anchor="start" x="8" y="-93.5" font-family="Helvetica,sans-Serif" font-size="10.00">iii_drone::perception</text>
<text text-anchor="start" x="8" y="-82.5" font-family="Helvetica,sans-Serif" font-size="10.00">::pl_dir_computer_node</text>
<text text-anchor="start" x="8" y="-71.5" font-family="Helvetica,sans-Serif" font-size="10.00">::PowerlineDirectionComputerNode</text>
<text text-anchor="middle" x="94" y="-60.5" font-family="Helvetica,sans-Serif" font-size="10.00">::PowerlineDirectionComputerNode</text>
</a>
</g>
</g>
<!-- Node3&#45;&gt;Node4 -->
<g id="edge3_Node000003_Node000004" class="edge">
<title>Node3&#45;&gt;Node4</title>
<g id="a_edge3_Node000003_Node000004"><a xlink:title=" ">
<path fill="none" stroke="#63b8ff" d="M213.92,-79.5C205.58,-79.5 196.94,-79.5 188.29,-79.5"/>
<polygon fill="#63b8ff" stroke="#63b8ff" points="213.93,-83 223.93,-79.5 213.93,-76 213.93,-83"/>
</a>
</g>
</g>
</g>
</svg>
