<?xml version="1.0" encoding="UTF-8" standalone="no"?>
<!DOCTYPE svg PUBLIC "-//W3C//DTD SVG 1.1//EN"
 "http://www.w3.org/Graphics/SVG/1.1/DTD/svg11.dtd">
<!-- Generated by graphviz version 2.43.0 (0)
 -->
<!-- Title: iii_drone::adapters::StateAdapter::ToPoseMsg Pages: 1 -->
<svg width="517pt" height="158pt"
 viewBox="0.00 0.00 517.00 158.00" xmlns="http://www.w3.org/2000/svg" xmlns:xlink="http://www.w3.org/1999/xlink">
<g id="graph0" class="graph" transform="scale(1 1) rotate(0) translate(4 154)">
<title>iii_drone::adapters::StateAdapter::ToPoseMsg</title>
<!-- Node1 -->
<g id="Node000001" class="node">
<title>Node1</title>
<g id="a_Node000001"><a xlink:title="Converts to Pose msg.">
<polygon fill="#999999" stroke="#666666" points="146,-78 0,-78 0,-48 146,-48 146,-78"/>
<text text-anchor="start" x="8" y="-66" font-family="Helvetica,sans-Serif" font-size="10.00">iii_drone::adapters</text>
<text text-anchor="middle" x="73" y="-55" font-family="Helvetica,sans-Serif" font-size="10.00">::StateAdapter::ToPoseMsg</text>
</a>
</g>
</g>
<!-- Node2 -->
<g id="Node000002" class="node">
<title>Node2</title>
<g id="a_Node000002"><a xlink:href="namespaceiii__drone_1_1types.html#a2b1316cd0e6d4f226b2e11e7f9dd03c9" target="_top" xlink:title=" ">
<polygon fill="white" stroke="#666666" points="323,-126 182,-126 182,-96 323,-96 323,-126"/>
<text text-anchor="start" x="190" y="-114" font-family="Helvetica,sans-Serif" font-size="10.00">iii_drone::types::poseMsg</text>
<text text-anchor="middle" x="252.5" y="-103" font-family="Helvetica,sans-Serif" font-size="10.00">FromPose</text>
</a>
</g>
</g>
<!-- Node1&#45;&gt;Node2 -->
<g id="edge1_Node000001_Node000002" class="edge">
<title>Node1&#45;&gt;Node2</title>
<g id="a_edge1_Node000001_Node000002"><a xlink:title=" ">
<path fill="none" stroke="#63b8ff" d="M129.68,-78.06C147.6,-82.9 167.63,-88.32 186.18,-93.34"/>
<polygon fill="#63b8ff" stroke="#63b8ff" points="185.46,-96.77 196.02,-96 187.28,-90.01 185.46,-96.77"/>
</a>
</g>
</g>
<!-- Node5 -->
<g id="Node000005" class="node">
<title>Node5</title>
<g id="a_Node000005"><a xlink:href="classiii__drone_1_1control_1_1State.html#ac7d02a667c215a72d7f7f2fdf1501eb4" target="_top" xlink:title=" ">
<polygon fill="white" stroke="#666666" points="301.5,-78 203.5,-78 203.5,-48 301.5,-48 301.5,-78"/>
<text text-anchor="start" x="211.5" y="-66" font-family="Helvetica,sans-Serif" font-size="10.00">iii_drone::control</text>
<text text-anchor="middle" x="252.5" y="-55" font-family="Helvetica,sans-Serif" font-size="10.00">::State::position</text>
</a>
</g>
</g>
<!-- Node1&#45;&gt;Node5 -->
<g id="edge4_Node000001_Node000005" class="edge">
<title>Node1&#45;&gt;Node5</title>
<g id="a_edge4_Node000001_Node000005"><a xlink:title=" ">
<path fill="none" stroke="#63b8ff" d="M146.2,-63C161.87,-63 178.26,-63 193.31,-63"/>
<polygon fill="#63b8ff" stroke="#63b8ff" points="193.5,-66.5 203.5,-63 193.5,-59.5 193.5,-66.5"/>
</a>
</g>
</g>
<!-- Node6 -->
<g id="Node000006" class="node">
<title>Node6</title>
<g id="a_Node000006"><a xlink:href="classiii__drone_1_1control_1_1State.html#a730c06d2972e469a61c4a0e053f47b85" target="_top" xlink:title=" ">
<polygon fill="white" stroke="#666666" points="306,-30 199,-30 199,0 306,0 306,-30"/>
<text text-anchor="start" x="207" y="-18" font-family="Helvetica,sans-Serif" font-size="10.00">iii_drone::control</text>
<text text-anchor="middle" x="252.5" y="-7" font-family="Helvetica,sans-Serif" font-size="10.00">::State::quaternion</text>
</a>
</g>
</g>
<!-- Node1&#45;&gt;Node6 -->
<g id="edge5_Node000001_Node000006" class="edge">
<title>Node1&#45;&gt;Node6</title>
<g id="a_edge5_Node000001_Node000006"><a xlink:title=" ">
<path fill="none" stroke="#63b8ff" d="M129.68,-47.94C148.46,-42.86 169.56,-37.16 188.85,-31.94"/>
<polygon fill="#63b8ff" stroke="#63b8ff" points="190.01,-35.25 198.75,-29.27 188.18,-28.5 190.01,-35.25"/>
</a>
</g>
</g>
<!-- Node3 -->
<g id="Node000003" class="node">
<title>Node3</title>
<g id="a_Node000003"><a xlink:href="namespaceiii__drone_1_1types.html#adf49c0d0a898eea29ad3e752a6712734" target="_top" xlink:title=" ">
<polygon fill="white" stroke="#666666" points="505.5,-150 362.5,-150 362.5,-120 505.5,-120 505.5,-150"/>
<text text-anchor="start" x="370.5" y="-138" font-family="Helvetica,sans-Serif" font-size="10.00">iii_drone::types::pointMsg</text>
<text text-anchor="middle" x="434" y="-127" font-family="Helvetica,sans-Serif" font-size="10.00">FromPoint</text>
</a>
</g>
</g>
<!-- Node2&#45;&gt;Node3 -->
<g id="edge2_Node000002_Node000003" class="edge">
<title>Node2&#45;&gt;Node3</title>
<g id="a_edge2_Node000002_Node000003"><a xlink:title=" ">
<path fill="none" stroke="#63b8ff" d="M323.16,-120.31C332.74,-121.59 342.64,-122.92 352.4,-124.22"/>
<polygon fill="#63b8ff" stroke="#63b8ff" points="352.12,-127.72 362.5,-125.57 353.05,-120.78 352.12,-127.72"/>
</a>
</g>
</g>
<!-- Node4 -->
<g id="Node000004" class="node">
<title>Node4</title>
<g id="a_Node000004"><a xlink:href="namespaceiii__drone_1_1types.html#a345601fdf3366d6af6d7c2003d74275b" target="_top" xlink:title=" ">
<polygon fill="white" stroke="#666666" points="509,-102 359,-102 359,-72 509,-72 509,-102"/>
<text text-anchor="start" x="367" y="-90" font-family="Helvetica,sans-Serif" font-size="10.00">iii_drone::types::quaternion</text>
<text text-anchor="middle" x="434" y="-79" font-family="Helvetica,sans-Serif" font-size="10.00">MsgFromQuaternion</text>
</a>
</g>
</g>
<!-- Node2&#45;&gt;Node4 -->
<g id="edge3_Node000002_Node000004" class="edge">
<title>Node2&#45;&gt;Node4</title>
<g id="a_edge3_Node000002_Node000004"><a xlink:title=" ">
<path fill="none" stroke="#63b8ff" d="M323.16,-101.69C331.59,-100.56 340.26,-99.4 348.87,-98.25"/>
<polygon fill="#63b8ff" stroke="#63b8ff" points="349.48,-101.7 358.93,-96.9 348.55,-94.76 349.48,-101.7"/>
</a>
</g>
</g>
</g>
</svg>
