<?xml version="1.0" encoding="UTF-8" standalone="no"?>
<!DOCTYPE svg PUBLIC "-//W3C//DTD SVG 1.1//EN"
 "http://www.w3.org/Graphics/SVG/1.1/DTD/svg11.dtd">
<!-- Generated by graphviz version 2.43.0 (0)
 -->
<!-- Title: iii_drone::utils::History::empty Pages: 1 -->
<!--zoomable 394 -->

<svg id="main" version="1.1" xmlns="http://www.w3.org/2000/svg" xmlns:xlink="http://www.w3.org/1999/xlink" xml:space="preserve" onload="init(evt)">
<style type="text/css"><![CDATA[
.node, .edge {opacity: 0.7;}
.node.selected, .edge.selected {opacity: 1;}
.edge:hover path { stroke: red; }
.edge:hover polygon { stroke: red; fill: red; }
]]></style>

<defs>
  <circle id="rim" cx="0" cy="0" r="7"/>
  <circle id="rim2" cx="0" cy="0" r="3.5"/>
  <g id="zoomPlus">
    <use xlink:href="#rim" fill="#404040"><set attributeName="fill" to="#808080" begin="zoomplus.mouseover" end="zoomplus.mouseout"/></use>
    <path d="M-4,0h8M0,-4v8" fill="none" stroke="white" stroke-width="1.5" pointer-events="none"/>
  </g>
  <g id="zoomMin">
    <use xlink:href="#rim" fill="#404040"><set attributeName="fill" to="#808080" begin="zoomminus.mouseover" end="zoomminus.mouseout"/></use>
    <path d="M-4,0h8" fill="none" stroke="white" stroke-width="1.5" pointer-events="none"/>
  </g>
  <g id="arrowUp" transform="translate(30 24)">
    <use xlink:href="#rim"/>
    <path pointer-events="none" fill="none" stroke="white" stroke-width="1.5" d="M0,-3.0v7 M-2.5,-0.5L0,-3.0L2.5,-0.5"/>
  </g>
  <g id="arrowRight" transform="rotate(90) translate(36 -43)">
    <use xlink:href="#rim"/>
    <path pointer-events="none" fill="none" stroke="white" stroke-width="1.5" d="M0,-3.0v7 M-2.5,-0.5L0,-3.0L2.5,-0.5"/>
  </g>
  <g id="arrowDown" transform="rotate(180) translate(-30 -48)">
    <use xlink:href="#rim"/>
    <path pointer-events="none" fill="none" stroke="white" stroke-width="1.5" d="M0,-3.0v7 M-2.5,-0.5L0,-3.0L2.5,-0.5"/>
  </g>
  <g id="arrowLeft" transform="rotate(270) translate(-36 17)">
    <use xlink:href="#rim"/>
    <path pointer-events="none" fill="none" stroke="white" stroke-width="1.5" d="M0,-3.0v7 M-2.5,-0.5L0,-3.0L2.5,-0.5"/>
  </g>
  <g id="resetDef">
    <use xlink:href="#rim2" fill="#404040"><set attributeName="fill" to="#808080" begin="reset.mouseover" end="reset.mouseout"/></use>
  </g>
</defs>
<script type="application/ecmascript">
var viewWidth = 1225;
var viewHeight = 394;
var sectionId = 'dynsection-4';
</script>
<script type="application/ecmascript" xlink:href="svg.min.js"/>
<svg id="graph" class="graph">
<g id="viewport">
<title>iii_drone::utils::History::empty</title>
<!-- Node1 -->
<g id="Node000001" class="node">
<title>Node1</title>
<g id="a_Node000001"><a xlink:title="Returns true if the history is empty.">
<polygon fill="#999999" stroke="#666666" points="1217,-192.5 1090,-192.5 1090,-162.5 1217,-162.5 1217,-192.5"/>
<text text-anchor="start" x="1098" y="-180.5" font-family="Helvetica,sans-Serif" font-size="10.00">iii_drone::utils::History</text>
<text text-anchor="middle" x="1153.5" y="-169.5" font-family="Helvetica,sans-Serif" font-size="10.00">::empty</text>
</a>
</g>
</g>
<!-- Node2 -->
<g id="Node000002" class="node">
<title>Node2</title>
<g id="a_Node000002"><a xlink:href="classiii__drone_1_1perception_1_1Powerline.html#ae01313af26d0faefd560f290feb28daf" target="_top" xlink:title="Returns the drone quaternion orientation.">
<polygon fill="white" stroke="#666666" points="1045,-364.5 912,-364.5 912,-334.5 1045,-334.5 1045,-364.5"/>
<text text-anchor="start" x="920" y="-352.5" font-family="Helvetica,sans-Serif" font-size="10.00">iii_drone::perception</text>
<text text-anchor="middle" x="978.5" y="-341.5" font-family="Helvetica,sans-Serif" font-size="10.00">::Powerline::drone_pose</text>
</a>
</g>
</g>
<!-- Node1&#45;&gt;Node2 -->
<g id="edge1_Node000001_Node000002" class="edge">
<title>Node1&#45;&gt;Node2</title>
<g id="a_edge1_Node000001_Node000002"><a xlink:title=" ">
<path fill="none" stroke="#63b8ff" d="M1142.53,-201.82C1127.88,-234.59 1097.5,-292.59 1054,-325.5 1049.45,-328.94 1044.38,-331.9 1039.1,-334.44"/>
<polygon fill="#63b8ff" stroke="#63b8ff" points="1145.79,-203.09 1146.56,-192.52 1139.37,-200.3 1145.79,-203.09"/>
</a>
</g>
</g>
<!-- Node7 -->
<g id="Node000007" class="node">
<title>Node7</title>
<g id="a_Node000007"><a xlink:href="classiii__drone_1_1perception_1_1Powerline.html#aef8a20bf08884aae433f5b128f318b91" target="_top" xlink:title="Returns the powerline quaternion direction.">
<polygon fill="white" stroke="#666666" points="1041,-316 916,-316 916,-275 1041,-275 1041,-316"/>
<text text-anchor="start" x="924" y="-304" font-family="Helvetica,sans-Serif" font-size="10.00">iii_drone::perception</text>
<text text-anchor="start" x="924" y="-293" font-family="Helvetica,sans-Serif" font-size="10.00">::Powerline::powerline</text>
<text text-anchor="middle" x="978.5" y="-282" font-family="Helvetica,sans-Serif" font-size="10.00">_direction</text>
</a>
</g>
</g>
<!-- Node1&#45;&gt;Node7 -->
<g id="edge7_Node000001_Node000007" class="edge">
<title>Node1&#45;&gt;Node7</title>
<g id="a_edge7_Node000001_Node000007"><a xlink:title=" ">
<path fill="none" stroke="#63b8ff" d="M1132.29,-199.9C1113.56,-219.58 1084.13,-247.91 1054,-266.5 1049.16,-269.49 1043.96,-272.26 1038.63,-274.82"/>
<polygon fill="#63b8ff" stroke="#63b8ff" points="1134.88,-202.25 1139.16,-192.56 1129.77,-197.47 1134.88,-202.25"/>
</a>
</g>
</g>
<!-- Node8 -->
<g id="Node000008" class="node">
<title>Node8</title>
<g id="a_Node000008"><a xlink:href="classiii__drone_1_1perception_1_1PowerlineDirection.html#a84bd59d26cad94ce6a10cbc201cd7044" target="_top" xlink:title="Powerline quaternion getter.">
<polygon fill="white" stroke="#666666" points="1036.5,-257 920.5,-257 920.5,-216 1036.5,-216 1036.5,-257"/>
<text text-anchor="start" x="928.5" y="-245" font-family="Helvetica,sans-Serif" font-size="10.00">iii_drone::perception</text>
<text text-anchor="start" x="928.5" y="-234" font-family="Helvetica,sans-Serif" font-size="10.00">::PowerlineDirection</text>
<text text-anchor="middle" x="978.5" y="-223" font-family="Helvetica,sans-Serif" font-size="10.00">::quaternion</text>
</a>
</g>
</g>
<!-- Node1&#45;&gt;Node8 -->
<g id="edge8_Node000001_Node000008" class="edge">
<title>Node1&#45;&gt;Node8</title>
<g id="a_edge8_Node000001_Node000008"><a xlink:title=" ">
<path fill="none" stroke="#63b8ff" d="M1098.93,-195.77C1079.15,-202.51 1056.68,-210.18 1036.61,-217.02"/>
<polygon fill="#63b8ff" stroke="#63b8ff" points="1100.06,-199.08 1108.4,-192.54 1097.8,-192.46 1100.06,-199.08"/>
</a>
</g>
</g>
<!-- Node9 -->
<g id="Node000009" class="node">
<title>Node9</title>
<g id="a_Node000009"><a xlink:href="classiii__drone_1_1perception_1_1PowerlineDirection.html#a045bf2524790cddf13b531d46d548280" target="_top" xlink:title="Resets the Kalman filter estimates.">
<polygon fill="white" stroke="#666666" points="1036.5,-198 920.5,-198 920.5,-157 1036.5,-157 1036.5,-198"/>
<text text-anchor="start" x="928.5" y="-186" font-family="Helvetica,sans-Serif" font-size="10.00">iii_drone::perception</text>
<text text-anchor="start" x="928.5" y="-175" font-family="Helvetica,sans-Serif" font-size="10.00">::PowerlineDirection</text>
<text text-anchor="middle" x="978.5" y="-164" font-family="Helvetica,sans-Serif" font-size="10.00">::resetKalmanFilter</text>
</a>
</g>
</g>
<!-- Node1&#45;&gt;Node9 -->
<g id="edge9_Node000001_Node000009" class="edge">
<title>Node1&#45;&gt;Node9</title>
<g id="a_edge9_Node000001_Node000009"><a xlink:title=" ">
<path fill="none" stroke="#63b8ff" d="M1079.29,-177.5C1065.04,-177.5 1050.3,-177.5 1036.66,-177.5"/>
<polygon fill="#63b8ff" stroke="#63b8ff" points="1079.55,-181 1089.55,-177.5 1079.55,-174 1079.55,-181"/>
</a>
</g>
</g>
<!-- Node11 -->
<g id="Node000011" class="node">
<title>Node11</title>
<g id="a_Node000011"><a xlink:href="classiii__drone_1_1perception_1_1PowerlineDirection.html#a15ab1216adf0aff5c7be05e851c70040" target="_top" xlink:title="Runs the Kalman Filter update step from an observed yaw angle.">
<polygon fill="white" stroke="#666666" points="831,-149 715,-149 715,-108 831,-108 831,-149"/>
<text text-anchor="start" x="723" y="-137" font-family="Helvetica,sans-Serif" font-size="10.00">iii_drone::perception</text>
<text text-anchor="start" x="723" y="-126" font-family="Helvetica,sans-Serif" font-size="10.00">::PowerlineDirection</text>
<text text-anchor="middle" x="773" y="-115" font-family="Helvetica,sans-Serif" font-size="10.00">::Update</text>
</a>
</g>
</g>
<!-- Node1&#45;&gt;Node11 -->
<g id="edge19_Node000001_Node000011" class="edge">
<title>Node1&#45;&gt;Node11</title>
<g id="a_edge19_Node000001_Node000011"><a xlink:title=" ">
<path fill="none" stroke="#63b8ff" d="M1099.07,-159.5C1084.59,-155.25 1068.82,-151.18 1054,-148.5 977.63,-134.7 887.92,-130.33 831.02,-129"/>
<polygon fill="#63b8ff" stroke="#63b8ff" points="1098.27,-162.92 1108.86,-162.46 1100.3,-156.21 1098.27,-162.92"/>
</a>
</g>
</g>
<!-- Node13 -->
<g id="Node000013" class="node">
<title>Node13</title>
<g id="a_Node000013"><a xlink:href="classiii__drone_1_1perception_1_1PowerlineDirection.html#a2c93fe708f8c700a005e6dd6d8c08e53" target="_top" xlink:title="Converts to pose stamped message.">
<polygon fill="white" stroke="#666666" points="1038.5,-100 918.5,-100 918.5,-59 1038.5,-59 1038.5,-100"/>
<text text-anchor="start" x="926.5" y="-88" font-family="Helvetica,sans-Serif" font-size="10.00">iii_drone::perception</text>
<text text-anchor="start" x="926.5" y="-77" font-family="Helvetica,sans-Serif" font-size="10.00">::PowerlineDirection</text>
<text text-anchor="middle" x="978.5" y="-66" font-family="Helvetica,sans-Serif" font-size="10.00">::ToPoseStampedMsg</text>
</a>
</g>
</g>
<!-- Node1&#45;&gt;Node13 -->
<g id="edge13_Node000001_Node000013" class="edge">
<title>Node1&#45;&gt;Node13</title>
<g id="a_edge13_Node000001_Node000013"><a xlink:title=" ">
<path fill="none" stroke="#63b8ff" d="M1122.37,-156.78C1103.18,-143.96 1077.58,-127.51 1054,-114.5 1044.99,-109.53 1035.16,-104.59 1025.67,-100.05"/>
<polygon fill="#63b8ff" stroke="#63b8ff" points="1120.45,-159.71 1130.7,-162.4 1124.36,-153.91 1120.45,-159.71"/>
</a>
</g>
</g>
<!-- Node16 -->
<g id="Node000016" class="node">
<title>Node16</title>
<g id="a_Node000016"><a xlink:href="classiii__drone_1_1perception_1_1PowerlineDirection.html#a6b98a0735a5158f0f520531e0ef0f622" target="_top" xlink:title="Converts to quaternion stamped message.">
<polygon fill="white" stroke="#666666" points="1054,-41 903,-41 903,0 1054,0 1054,-41"/>
<text text-anchor="start" x="911" y="-29" font-family="Helvetica,sans-Serif" font-size="10.00">iii_drone::perception</text>
<text text-anchor="start" x="911" y="-18" font-family="Helvetica,sans-Serif" font-size="10.00">::PowerlineDirection</text>
<text text-anchor="middle" x="978.5" y="-7" font-family="Helvetica,sans-Serif" font-size="10.00">::ToQuaternionStampedMsg</text>
</a>
</g>
</g>
<!-- Node1&#45;&gt;Node16 -->
<g id="edge17_Node000001_Node000016" class="edge">
<title>Node1&#45;&gt;Node16</title>
<g id="a_edge17_Node000001_Node000016"><a xlink:title=" ">
<path fill="none" stroke="#63b8ff" d="M1139.48,-153.45C1123,-125.04 1092.1,-78.05 1054,-49.5 1049.89,-46.42 1045.41,-43.63 1040.76,-41.1"/>
<polygon fill="#63b8ff" stroke="#63b8ff" points="1136.53,-155.34 1144.51,-162.32 1142.62,-151.89 1136.53,-155.34"/>
</a>
</g>
</g>
<!-- Node3 -->
<g id="Node000003" class="node">
<title>Node3</title>
<g id="a_Node000003"><a xlink:href="classiii__drone_1_1perception_1_1Powerline.html#abb9d44570c4decb7fc26620eb2ceb38d" target="_top" xlink:title="Runs the Kalman Filter predict step for all lines.">
<polygon fill="white" stroke="#666666" points="841,-385.5 705,-385.5 705,-355.5 841,-355.5 841,-385.5"/>
<text text-anchor="start" x="713" y="-373.5" font-family="Helvetica,sans-Serif" font-size="10.00">iii_drone::perception</text>
<text text-anchor="middle" x="773" y="-362.5" font-family="Helvetica,sans-Serif" font-size="10.00">::Powerline::predictLines</text>
</a>
</g>
</g>
<!-- Node2&#45;&gt;Node3 -->
<g id="edge2_Node000002_Node000003" class="edge">
<title>Node2&#45;&gt;Node3</title>
<g id="a_edge2_Node000002_Node000003"><a xlink:title=" ">
<path fill="none" stroke="#63b8ff" d="M902.01,-357.29C882.04,-359.35 860.63,-361.56 841.13,-363.57"/>
<polygon fill="#63b8ff" stroke="#63b8ff" points="902.4,-360.77 911.99,-356.26 901.68,-353.81 902.4,-360.77"/>
</a>
</g>
</g>
<!-- Node4 -->
<g id="Node000004" class="node">
<title>Node4</title>
<g id="a_Node000004"><a xlink:href="classiii__drone_1_1perception_1_1Powerline.html#ae0f6a983c3039c6a41bda6258ec2b70d" target="_top" xlink:title="Updates the powerline from odometry.">
<polygon fill="white" stroke="#666666" points="629.5,-363.5 468.5,-363.5 468.5,-333.5 629.5,-333.5 629.5,-363.5"/>
<text text-anchor="start" x="476.5" y="-351.5" font-family="Helvetica,sans-Serif" font-size="10.00">iii_drone::perception</text>
<text text-anchor="middle" x="549" y="-340.5" font-family="Helvetica,sans-Serif" font-size="10.00">::Powerline::UpdateOdometry</text>
</a>
</g>
</g>
<!-- Node2&#45;&gt;Node4 -->
<g id="edge6_Node000002_Node000004" class="edge">
<title>Node2&#45;&gt;Node4</title>
<g id="a_edge6_Node000002_Node000004"><a xlink:title=" ">
<path fill="none" stroke="#63b8ff" d="M901.65,-347.17C890.05,-346.89 878.21,-346.65 867,-346.5 783.45,-345.37 762.55,-345.85 679,-346.5 663.1,-346.62 646.09,-346.83 629.82,-347.07"/>
<polygon fill="#63b8ff" stroke="#63b8ff" points="901.69,-350.67 911.77,-347.42 901.86,-343.67 901.69,-350.67"/>
</a>
</g>
</g>
<!-- Node3&#45;&gt;Node4 -->
<g id="edge3_Node000003_Node000004" class="edge">
<title>Node3&#45;&gt;Node4</title>
<g id="a_edge3_Node000003_Node000004"><a xlink:title=" ">
<path fill="none" stroke="#63b8ff" d="M694.66,-362.84C673.7,-360.76 650.97,-358.51 629.88,-356.42"/>
<polygon fill="#63b8ff" stroke="#63b8ff" points="694.49,-366.34 704.79,-363.84 695.18,-359.37 694.49,-366.34"/>
</a>
</g>
</g>
<!-- Node5 -->
<g id="Node000005" class="node">
<title>Node5</title>
<g id="a_Node000005"><a xlink:href="classiii__drone_1_1perception_1_1pl__mapper__node_1_1PowerlineMapperNode.html#ae98c3a40fb32f1305c1528467205ba33" target="_top" xlink:title="Callback for fetching drone transform.">
<polygon fill="white" stroke="#666666" points="412,-369 238,-369 238,-328 412,-328 412,-369"/>
<text text-anchor="start" x="246" y="-357" font-family="Helvetica,sans-Serif" font-size="10.00">iii_drone::perception</text>
<text text-anchor="start" x="246" y="-346" font-family="Helvetica,sans-Serif" font-size="10.00">::pl_mapper_node::Powerline</text>
<text text-anchor="middle" x="325" y="-335" font-family="Helvetica,sans-Serif" font-size="10.00">MapperNode::odometryCallback</text>
</a>
</g>
</g>
<!-- Node4&#45;&gt;Node5 -->
<g id="edge4_Node000004_Node000005" class="edge">
<title>Node4&#45;&gt;Node5</title>
<g id="a_edge4_Node000004_Node000005"><a xlink:title=" ">
<path fill="none" stroke="#63b8ff" d="M458.08,-348.5C442.9,-348.5 427.18,-348.5 412.11,-348.5"/>
<polygon fill="#63b8ff" stroke="#63b8ff" points="458.48,-352 468.48,-348.5 458.48,-345 458.48,-352"/>
</a>
</g>
</g>
<!-- Node6 -->
<g id="Node000006" class="node">
<title>Node6</title>
<g id="a_Node000006"><a xlink:href="classiii__drone_1_1perception_1_1pl__mapper__node_1_1PowerlineMapperNode.html#a703ae72ba683ae11154ce597b8bbad9d" target="_top" xlink:title="Constructor.">
<polygon fill="white" stroke="#666666" points="195,-369 0,-369 0,-328 195,-328 195,-369"/>
<text text-anchor="start" x="8" y="-357" font-family="Helvetica,sans-Serif" font-size="10.00">iii_drone::perception</text>
<text text-anchor="start" x="8" y="-346" font-family="Helvetica,sans-Serif" font-size="10.00">::pl_mapper_node::Powerline</text>
<text text-anchor="middle" x="97.5" y="-335" font-family="Helvetica,sans-Serif" font-size="10.00">MapperNode::PowerlineMapperNode</text>
</a>
</g>
</g>
<!-- Node5&#45;&gt;Node6 -->
<g id="edge5_Node000005_Node000006" class="edge">
<title>Node5&#45;&gt;Node6</title>
<g id="a_edge5_Node000005_Node000006"><a xlink:title=" ">
<path fill="none" stroke="#63b8ff" d="M227.58,-348.5C216.86,-348.5 205.93,-348.5 195.21,-348.5"/>
<polygon fill="#63b8ff" stroke="#63b8ff" points="227.78,-352 237.78,-348.5 227.78,-345 227.78,-352"/>
</a>
</g>
</g>
<!-- Node10 -->
<g id="Node000010" class="node">
<title>Node10</title>
<g id="a_Node000010"><a xlink:href="classiii__drone_1_1perception_1_1PowerlineDirection.html#a896518120e987d3be288e56dd34410b9" target="_top" xlink:title="Default constructor.">
<polygon fill="white" stroke="#666666" points="831,-208 715,-208 715,-167 831,-167 831,-208"/>
<text text-anchor="start" x="723" y="-196" font-family="Helvetica,sans-Serif" font-size="10.00">iii_drone::perception</text>
<text text-anchor="start" x="723" y="-185" font-family="Helvetica,sans-Serif" font-size="10.00">::PowerlineDirection</text>
<text text-anchor="middle" x="773" y="-174" font-family="Helvetica,sans-Serif" font-size="10.00">::PowerlineDirection</text>
</a>
</g>
</g>
<!-- Node9&#45;&gt;Node10 -->
<g id="edge10_Node000009_Node000010" class="edge">
<title>Node9&#45;&gt;Node10</title>
<g id="a_edge10_Node000009_Node000010"><a xlink:title=" ">
<path fill="none" stroke="#63b8ff" d="M910.27,-180.8C884.66,-182.06 855.74,-183.48 831.15,-184.69"/>
<polygon fill="#63b8ff" stroke="#63b8ff" points="910.46,-184.3 920.27,-180.31 910.11,-177.31 910.46,-184.3"/>
</a>
</g>
</g>
<!-- Node9&#45;&gt;Node11 -->
<g id="edge11_Node000009_Node000011" class="edge">
<title>Node9&#45;&gt;Node11</title>
<g id="a_edge11_Node000009_Node000011"><a xlink:title=" ">
<path fill="none" stroke="#63b8ff" d="M910.27,-161.31C884.66,-155.14 855.74,-148.18 831.15,-142.26"/>
<polygon fill="#63b8ff" stroke="#63b8ff" points="909.73,-164.78 920.27,-163.72 911.37,-157.98 909.73,-164.78"/>
</a>
</g>
</g>
<!-- Node12 -->
<g id="Node000012" class="node">
<title>Node12</title>
<g id="a_Node000012"><a xlink:href="classiii__drone_1_1perception_1_1pl__dir__computer__node_1_1PowerlineDirectionComputerNode.html#a7d69d952785cf09e8cd381bd624480f2" target="_top" xlink:title="Construct a new Powerline Direction Computer Node object.">
<polygon fill="white" stroke="#666666" points="419,-121.5 231,-121.5 231,-69.5 419,-69.5 419,-121.5"/>
<text text-anchor="start" x="239" y="-109.5" font-family="Helvetica,sans-Serif" font-size="10.00">iii_drone::perception</text>
<text text-anchor="start" x="239" y="-98.5" font-family="Helvetica,sans-Serif" font-size="10.00">::pl_dir_computer_node</text>
<text text-anchor="start" x="239" y="-87.5" font-family="Helvetica,sans-Serif" font-size="10.00">::PowerlineDirectionComputerNode</text>
<text text-anchor="middle" x="325" y="-76.5" font-family="Helvetica,sans-Serif" font-size="10.00">::PowerlineDirectionComputerNode</text>
</a>
</g>
</g>
<!-- Node11&#45;&gt;Node12 -->
<g id="edge12_Node000011_Node000012" class="edge">
<title>Node11&#45;&gt;Node12</title>
<g id="a_edge12_Node000011_Node000012"><a xlink:title=" ">
<path fill="none" stroke="#63b8ff" d="M704.2,-123.48C628.18,-117.86 504.41,-108.7 419.29,-102.4"/>
<polygon fill="#63b8ff" stroke="#63b8ff" points="704.38,-127.01 714.61,-124.25 704.89,-120.02 704.38,-127.01"/>
</a>
</g>
</g>
<!-- Node14 -->
<g id="Node000014" class="node">
<title>Node14</title>
<g id="a_Node000014"><a xlink:href="classiii__drone_1_1perception_1_1pl__dir__computer__node_1_1PowerlineDirectionComputerNode.html#a3945fa1d3c10fcb92f12e3a019a2fc63" target="_top" xlink:title="Publishes the estimated powerline direction.">
<polygon fill="white" stroke="#666666" points="867,-89.5 679,-89.5 679,-37.5 867,-37.5 867,-89.5"/>
<text text-anchor="start" x="687" y="-77.5" font-family="Helvetica,sans-Serif" font-size="10.00">iii_drone::perception</text>
<text text-anchor="start" x="687" y="-66.5" font-family="Helvetica,sans-Serif" font-size="10.00">::pl_dir_computer_node</text>
<text text-anchor="start" x="687" y="-55.5" font-family="Helvetica,sans-Serif" font-size="10.00">::PowerlineDirectionComputerNode</text>
<text text-anchor="middle" x="773" y="-44.5" font-family="Helvetica,sans-Serif" font-size="10.00">::publishPowerlineDirection</text>
</a>
</g>
</g>
<!-- Node13&#45;&gt;Node14 -->
<g id="edge14_Node000013_Node000014" class="edge">
<title>Node13&#45;&gt;Node14</title>
<g id="a_edge14_Node000013_Node000014"><a xlink:title=" ">
<path fill="none" stroke="#63b8ff" d="M908.37,-74.06C895.07,-73.02 880.93,-71.91 867.02,-70.81"/>
<polygon fill="#63b8ff" stroke="#63b8ff" points="908.12,-77.56 918.37,-74.85 908.67,-70.58 908.12,-77.56"/>
</a>
</g>
</g>
<!-- Node15 -->
<g id="Node000015" class="node">
<title>Node15</title>
<g id="a_Node000015"><a xlink:href="classiii__drone_1_1perception_1_1pl__dir__computer__node_1_1PowerlineDirectionComputerNode.html#ab34c86cec88426267f792caac6bbedee" target="_top" xlink:title="Callback function for the odometry timer.">
<polygon fill="white" stroke="#666666" points="643,-92.5 455,-92.5 455,-40.5 643,-40.5 643,-92.5"/>
<text text-anchor="start" x="463" y="-80.5" font-family="Helvetica,sans-Serif" font-size="10.00">iii_drone::perception</text>
<text text-anchor="start" x="463" y="-69.5" font-family="Helvetica,sans-Serif" font-size="10.00">::pl_dir_computer_node</text>
<text text-anchor="start" x="463" y="-58.5" font-family="Helvetica,sans-Serif" font-size="10.00">::PowerlineDirectionComputerNode</text>
<text text-anchor="middle" x="549" y="-47.5" font-family="Helvetica,sans-Serif" font-size="10.00">::odometryCallback</text>
</a>
</g>
</g>
<!-- Node14&#45;&gt;Node15 -->
<g id="edge15_Node000014_Node000015" class="edge">
<title>Node14&#45;&gt;Node15</title>
<g id="a_edge15_Node000014_Node000015"><a xlink:title=" ">
<path fill="none" stroke="#63b8ff" d="M668.57,-64.9C660.14,-65.01 651.65,-65.13 643.3,-65.24"/>
<polygon fill="#63b8ff" stroke="#63b8ff" points="668.87,-68.39 678.82,-64.76 668.77,-61.39 668.87,-68.39"/>
</a>
</g>
</g>
<!-- Node15&#45;&gt;Node12 -->
<g id="edge16_Node000015_Node000012" class="edge">
<title>Node15&#45;&gt;Node12</title>
<g id="a_edge16_Node000015_Node000012"><a xlink:title=" ">
<path fill="none" stroke="#63b8ff" d="M444.85,-79.97C436.33,-81.09 427.74,-82.21 419.3,-83.31"/>
<polygon fill="#63b8ff" stroke="#63b8ff" points="445.35,-83.44 454.82,-78.67 444.45,-76.5 445.35,-83.44"/>
</a>
</g>
</g>
<!-- Node16&#45;&gt;Node14 -->
<g id="edge18_Node000016_Node000014" class="edge">
<title>Node16&#45;&gt;Node14</title>
<g id="a_edge18_Node000016_Node000014"><a xlink:title=" ">
<path fill="none" stroke="#63b8ff" d="M893.01,-38.35C884.53,-40.14 875.88,-41.97 867.31,-43.78"/>
<polygon fill="#63b8ff" stroke="#63b8ff" points="893.82,-41.76 902.88,-36.27 892.37,-34.91 893.82,-41.76"/>
</a>
</g>
</g>
</g>
</svg>

<g id="navigator" transform="translate(0 0)" fill="#404254">
  <rect fill="#f2f5e9" fill-opacity="0.5" stroke="#606060" stroke-width=".5" x="0" y="0" width="60" height="60"/>
  <use id="zoomplus" xlink:href="#zoomPlus" x="17" y="9" onmousedown="handleZoom(evt,'in')"/>
  <use id="zoomminus" xlink:href="#zoomMin" x="42" y="9" onmousedown="handleZoom(evt,'out')"/>
  <use id="reset" xlink:href="#resetDef" x="30" y="36" onmousedown="handleReset()"/>
   <use id="arrowup" xlink:href="#arrowUp" x="0" y="0" onmousedown="handlePan(0,-1)"/>
  <use id="arrowright" xlink:href="#arrowRight" x="0" y="0" onmousedown="handlePan(1,0)"/>
  <use id="arrowdown" xlink:href="#arrowDown" x="0" y="0" onmousedown="handlePan(0,1)"/>
  <use id="arrowleft" xlink:href="#arrowLeft" x="0" y="0" onmousedown="handlePan(-1,0)"/>
</g>
<svg viewBox="0 0 15 15" width="100%" height="30px" preserveAspectRatio="xMaxYMin meet">
 <g id="arrow_out" transform="scale(0.3 0.3)">
  <a xlink:href="classiii__drone_1_1utils_1_1History_a4b015ee2da0e8a06ec7ac24e9fff5da3_icgraph_org.svg" target="_base">
   <rect id="button" ry="5" rx="5" y="6" x="6" height="38" width="38"
        fill="#f2f5e9" fill-opacity="0.5" stroke="#606060" stroke-width="1.0"/>
   <path id="arrow"
     d="M 11.500037,31.436501 C 11.940474,20.09759 22.043105,11.32322 32.158766,21.979434 L 37.068811,17.246167 C 37.068811,17.246167 37.088388,32 37.088388,32 L 22.160133,31.978069 C 22.160133,31.978069 26.997745,27.140456 26.997745,27.140456 C 18.528582,18.264221 13.291696,25.230495 11.500037,31.436501 z"
     style="fill:#404040;"/>
  </a>
 </g>
</svg>

<style type='text/css'>
<![CDATA[
[data-mouse-over-selected='false'] { opacity: 0.7; }
[data-mouse-over-selected='true']  { opacity: 1.0; }
]]>
</style>
<script type="application/ecmascript"><![CDATA[
document.addEventListener('DOMContentLoaded', (event) => {
  highlightEdges();
  highlightAdjacentNodes();
});
]]></script>
</svg>
