<?xml version="1.0" encoding="UTF-8" standalone="no"?>
<!DOCTYPE svg PUBLIC "-//W3C//DTD SVG 1.1//EN"
 "http://www.w3.org/Graphics/SVG/1.1/DTD/svg11.dtd">
<!-- Generated by graphviz version 2.43.0 (0)
 -->
<!-- Title: iii_drone::perception::PowerlineDirection::backmapAngle Pages: 1 -->
<svg width="724pt" height="120pt"
 viewBox="0.00 0.00 724.00 119.50" xmlns="http://www.w3.org/2000/svg" xmlns:xlink="http://www.w3.org/1999/xlink">
<g id="graph0" class="graph" transform="scale(1 1) rotate(0) translate(4 115.5)">
<title>iii_drone::perception::PowerlineDirection::backmapAngle</title>
<!-- Node1 -->
<g id="Node000001" class="node">
<title>Node1</title>
<g id="a_Node000001"><a xlink:title="Maps the angle back into the correct range after having performed the Kalman filter.">
<polygon fill="#999999" stroke="#666666" points="716,-73 600,-73 600,-32 716,-32 716,-73"/>
<text text-anchor="start" x="608" y="-61" font-family="Helvetica,sans-Serif" font-size="10.00">iii_drone::perception</text>
<text text-anchor="start" x="608" y="-50" font-family="Helvetica,sans-Serif" font-size="10.00">::PowerlineDirection</text>
<text text-anchor="middle" x="658" y="-39" font-family="Helvetica,sans-Serif" font-size="10.00">::backmapAngle</text>
</a>
</g>
</g>
<!-- Node2 -->
<g id="Node000002" class="node">
<title>Node2</title>
<g id="a_Node000002"><a xlink:href="classiii__drone_1_1perception_1_1PowerlineDirection.html#a1f751f8f0562b55f31d42142c6b55ffc" target="_top" xlink:title="Runs the Kalman Filter predict step from a drone quaternion.">
<polygon fill="white" stroke="#666666" points="564,-102 448,-102 448,-61 564,-61 564,-102"/>
<text text-anchor="start" x="456" y="-90" font-family="Helvetica,sans-Serif" font-size="10.00">iii_drone::perception</text>
<text text-anchor="start" x="456" y="-79" font-family="Helvetica,sans-Serif" font-size="10.00">::PowerlineDirection</text>
<text text-anchor="middle" x="506" y="-68" font-family="Helvetica,sans-Serif" font-size="10.00">::Predict</text>
</a>
</g>
</g>
<!-- Node1&#45;&gt;Node2 -->
<g id="edge1_Node000001_Node000002" class="edge">
<title>Node1&#45;&gt;Node2</title>
<g id="a_edge1_Node000001_Node000002"><a xlink:title=" ">
<path fill="none" stroke="#63b8ff" d="M589.97,-65.46C581.46,-67.1 572.81,-68.78 564.47,-70.39"/>
<polygon fill="#63b8ff" stroke="#63b8ff" points="590.71,-68.88 599.86,-63.55 589.38,-62.01 590.71,-68.88"/>
</a>
</g>
</g>
<!-- Node5 -->
<g id="Node000005" class="node">
<title>Node5</title>
<g id="a_Node000005"><a xlink:href="classiii__drone_1_1perception_1_1PowerlineDirection.html#a15ab1216adf0aff5c7be05e851c70040" target="_top" xlink:title="Runs the Kalman Filter update step from an observed yaw angle.">
<polygon fill="white" stroke="#666666" points="376,-41 260,-41 260,0 376,0 376,-41"/>
<text text-anchor="start" x="268" y="-29" font-family="Helvetica,sans-Serif" font-size="10.00">iii_drone::perception</text>
<text text-anchor="start" x="268" y="-18" font-family="Helvetica,sans-Serif" font-size="10.00">::PowerlineDirection</text>
<text text-anchor="middle" x="318" y="-7" font-family="Helvetica,sans-Serif" font-size="10.00">::Update</text>
</a>
</g>
</g>
<!-- Node1&#45;&gt;Node5 -->
<g id="edge4_Node000001_Node000005" class="edge">
<title>Node1&#45;&gt;Node5</title>
<g id="a_edge4_Node000001_Node000005"><a xlink:title=" ">
<path fill="none" stroke="#63b8ff" d="M589.5,-46.11C526.98,-40.19 435,-31.48 376.05,-25.9"/>
<polygon fill="#63b8ff" stroke="#63b8ff" points="589.38,-49.61 599.66,-47.07 590.04,-42.64 589.38,-49.61"/>
</a>
</g>
</g>
<!-- Node3 -->
<g id="Node000003" class="node">
<title>Node3</title>
<g id="a_Node000003"><a xlink:href="classiii__drone_1_1perception_1_1pl__dir__computer__node_1_1PowerlineDirectionComputerNode.html#ab34c86cec88426267f792caac6bbedee" target="_top" xlink:title="Callback function for the odometry timer.">
<polygon fill="white" stroke="#666666" points="412,-111.5 224,-111.5 224,-59.5 412,-59.5 412,-111.5"/>
<text text-anchor="start" x="232" y="-99.5" font-family="Helvetica,sans-Serif" font-size="10.00">iii_drone::perception</text>
<text text-anchor="start" x="232" y="-88.5" font-family="Helvetica,sans-Serif" font-size="10.00">::pl_dir_computer_node</text>
<text text-anchor="start" x="232" y="-77.5" font-family="Helvetica,sans-Serif" font-size="10.00">::PowerlineDirectionComputerNode</text>
<text text-anchor="middle" x="318" y="-66.5" font-family="Helvetica,sans-Serif" font-size="10.00">::odometryCallback</text>
</a>
</g>
</g>
<!-- Node2&#45;&gt;Node3 -->
<g id="edge2_Node000002_Node000003" class="edge">
<title>Node2&#45;&gt;Node3</title>
<g id="a_edge2_Node000002_Node000003"><a xlink:title=" ">
<path fill="none" stroke="#63b8ff" d="M437.92,-82.94C429.58,-83.12 420.94,-83.31 412.29,-83.49"/>
<polygon fill="#63b8ff" stroke="#63b8ff" points="438.01,-86.44 447.93,-82.73 437.86,-79.44 438.01,-86.44"/>
</a>
</g>
</g>
<!-- Node4 -->
<g id="Node000004" class="node">
<title>Node4</title>
<g id="a_Node000004"><a xlink:href="classiii__drone_1_1perception_1_1pl__dir__computer__node_1_1PowerlineDirectionComputerNode.html#a7d69d952785cf09e8cd381bd624480f2" target="_top" xlink:title="Construct a new Powerline Direction Computer Node object.">
<polygon fill="white" stroke="#666666" points="188,-78.5 0,-78.5 0,-26.5 188,-26.5 188,-78.5"/>
<text text-anchor="start" x="8" y="-66.5" font-family="Helvetica,sans-Serif" font-size="10.00">iii_drone::perception</text>
<text text-anchor="start" x="8" y="-55.5" font-family="Helvetica,sans-Serif" font-size="10.00">::pl_dir_computer_node</text>
<text text-anchor="start" x="8" y="-44.5" font-family="Helvetica,sans-Serif" font-size="10.00">::PowerlineDirectionComputerNode</text>
<text text-anchor="middle" x="94" y="-33.5" font-family="Helvetica,sans-Serif" font-size="10.00">::PowerlineDirectionComputerNode</text>
</a>
</g>
</g>
<!-- Node3&#45;&gt;Node4 -->
<g id="edge3_Node000003_Node000004" class="edge">
<title>Node3&#45;&gt;Node4</title>
<g id="a_edge3_Node000003_Node000004"><a xlink:title=" ">
<path fill="none" stroke="#63b8ff" d="M213.85,-70.17C205.33,-68.9 196.74,-67.62 188.3,-66.37"/>
<polygon fill="#63b8ff" stroke="#63b8ff" points="213.41,-73.64 223.82,-71.65 214.44,-66.72 213.41,-73.64"/>
</a>
</g>
</g>
<!-- Node5&#45;&gt;Node4 -->
<g id="edge5_Node000005_Node000004" class="edge">
<title>Node5&#45;&gt;Node4</title>
<g id="a_edge5_Node000005_Node000004"><a xlink:title=" ">
<path fill="none" stroke="#63b8ff" d="M249.88,-30.18C230.44,-32.98 208.87,-36.09 188.15,-39.07"/>
<polygon fill="#63b8ff" stroke="#63b8ff" points="250.43,-33.63 259.83,-28.74 249.43,-26.7 250.43,-33.63"/>
</a>
</g>
</g>
</g>
</svg>
