<?xml version="1.0" encoding="UTF-8" standalone="no"?>
<!DOCTYPE svg PUBLIC "-//W3C//DTD SVG 1.1//EN"
 "http://www.w3.org/Graphics/SVG/1.1/DTD/svg11.dtd">
<!-- Generated by graphviz version 2.43.0 (0)
 -->
<!-- Title: iii_drone::control::maneuver::ManeuverScheduler::ProjectExpectedAwarenessFull Pages: 1 -->
<!--zoomable 275 -->

<svg id="main" version="1.1" xmlns="http://www.w3.org/2000/svg" xmlns:xlink="http://www.w3.org/1999/xlink" xml:space="preserve" onload="init(evt)">
<style type="text/css"><![CDATA[
.node, .edge {opacity: 0.7;}
.node.selected, .edge.selected {opacity: 1;}
.edge:hover path { stroke: red; }
.edge:hover polygon { stroke: red; fill: red; }
]]></style>

<defs>
  <circle id="rim" cx="0" cy="0" r="7"/>
  <circle id="rim2" cx="0" cy="0" r="3.5"/>
  <g id="zoomPlus">
    <use xlink:href="#rim" fill="#404040"><set attributeName="fill" to="#808080" begin="zoomplus.mouseover" end="zoomplus.mouseout"/></use>
    <path d="M-4,0h8M0,-4v8" fill="none" stroke="white" stroke-width="1.5" pointer-events="none"/>
  </g>
  <g id="zoomMin">
    <use xlink:href="#rim" fill="#404040"><set attributeName="fill" to="#808080" begin="zoomminus.mouseover" end="zoomminus.mouseout"/></use>
    <path d="M-4,0h8" fill="none" stroke="white" stroke-width="1.5" pointer-events="none"/>
  </g>
  <g id="arrowUp" transform="translate(30 24)">
    <use xlink:href="#rim"/>
    <path pointer-events="none" fill="none" stroke="white" stroke-width="1.5" d="M0,-3.0v7 M-2.5,-0.5L0,-3.0L2.5,-0.5"/>
  </g>
  <g id="arrowRight" transform="rotate(90) translate(36 -43)">
    <use xlink:href="#rim"/>
    <path pointer-events="none" fill="none" stroke="white" stroke-width="1.5" d="M0,-3.0v7 M-2.5,-0.5L0,-3.0L2.5,-0.5"/>
  </g>
  <g id="arrowDown" transform="rotate(180) translate(-30 -48)">
    <use xlink:href="#rim"/>
    <path pointer-events="none" fill="none" stroke="white" stroke-width="1.5" d="M0,-3.0v7 M-2.5,-0.5L0,-3.0L2.5,-0.5"/>
  </g>
  <g id="arrowLeft" transform="rotate(270) translate(-36 17)">
    <use xlink:href="#rim"/>
    <path pointer-events="none" fill="none" stroke="white" stroke-width="1.5" d="M0,-3.0v7 M-2.5,-0.5L0,-3.0L2.5,-0.5"/>
  </g>
  <g id="resetDef">
    <use xlink:href="#rim2" fill="#404040"><set attributeName="fill" to="#808080" begin="reset.mouseover" end="reset.mouseout"/></use>
  </g>
</defs>
<script type="application/ecmascript">
var viewWidth = 786;
var viewHeight = 275;
var sectionId = 'dynsection-26';
</script>
<script type="application/ecmascript" xlink:href="svg.min.js"/>
<svg id="graph" class="graph">
<g id="viewport">
<title>iii_drone::control::maneuver::ManeuverScheduler::ProjectExpectedAwarenessFull</title>
<!-- Node1 -->
<g id="Node000001" class="node">
<title>Node1</title>
<g id="a_Node000001"><a xlink:title="Returns the expected combined drone awareness upon completion or failure of given maneuver type,...">
<polygon fill="#999999" stroke="#666666" points="175,-154 0,-154 0,-113 175,-113 175,-154"/>
<text text-anchor="start" x="8" y="-142" font-family="Helvetica,sans-Serif" font-size="10.00">iii_drone::control</text>
<text text-anchor="start" x="8" y="-131" font-family="Helvetica,sans-Serif" font-size="10.00">::maneuver::ManeuverScheduler</text>
<text text-anchor="middle" x="87.5" y="-120" font-family="Helvetica,sans-Serif" font-size="10.00">::ProjectExpectedAwarenessFull</text>
</a>
</g>
</g>
<!-- Node2 -->
<g id="Node000002" class="node">
<title>Node2</title>
<g id="a_Node000002"><a xlink:href="classiii__drone_1_1control_1_1CombinedDroneAwarenessHandler.html#a7489deb4a1885f6b4985a3f6de205b64" target="_top" xlink:title="Getter for the combined drone awareness simple type by copy.">
<polygon fill="white" stroke="#666666" points="404,-267 211,-267 211,-226 404,-226 404,-267"/>
<text text-anchor="start" x="219" y="-255" font-family="Helvetica,sans-Serif" font-size="10.00">iii_drone::control</text>
<text text-anchor="start" x="219" y="-244" font-family="Helvetica,sans-Serif" font-size="10.00">::CombinedDroneAwarenessHandler</text>
<text text-anchor="middle" x="307.5" y="-233" font-family="Helvetica,sans-Serif" font-size="10.00">::combined_drone_awareness</text>
</a>
</g>
</g>
<!-- Node1&#45;&gt;Node2 -->
<g id="edge1_Node000001_Node000002" class="edge">
<title>Node1&#45;&gt;Node2</title>
<g id="a_edge1_Node000001_Node000002"><a xlink:title=" ">
<path fill="none" stroke="#63b8ff" d="M113.83,-154.32C137.67,-173.05 174.97,-200.19 211,-217.5 214.36,-219.11 217.83,-220.66 221.37,-222.14"/>
<polygon fill="#63b8ff" stroke="#63b8ff" points="220.27,-225.48 230.86,-225.91 222.86,-218.97 220.27,-225.48"/>
</a>
</g>
</g>
<!-- Node3 -->
<g id="Node000003" class="node">
<title>Node3</title>
<g id="a_Node000003"><a xlink:href="classiii__drone_1_1control_1_1maneuver_1_1ManeuverScheduler.html#a6bfc890dd85039701532c5251b2a20a5" target="_top" xlink:title="Get copy of the currently executing maneuver. The currently executing maneuver is of type MANEUVER_TY...">
<polygon fill="white" stroke="#666666" points="395,-208 220,-208 220,-167 395,-167 395,-208"/>
<text text-anchor="start" x="228" y="-196" font-family="Helvetica,sans-Serif" font-size="10.00">iii_drone::control</text>
<text text-anchor="start" x="228" y="-185" font-family="Helvetica,sans-Serif" font-size="10.00">::maneuver::ManeuverScheduler</text>
<text text-anchor="middle" x="307.5" y="-174" font-family="Helvetica,sans-Serif" font-size="10.00">::current_maneuver</text>
</a>
</g>
</g>
<!-- Node1&#45;&gt;Node3 -->
<g id="edge2_Node000001_Node000003" class="edge">
<title>Node1&#45;&gt;Node3</title>
<g id="a_edge2_Node000001_Node000003"><a xlink:title=" ">
<path fill="none" stroke="#63b8ff" d="M171.54,-154.07C185.29,-157.47 199.62,-161.03 213.6,-164.49"/>
<polygon fill="#63b8ff" stroke="#63b8ff" points="213.14,-167.98 223.69,-166.99 214.83,-161.19 213.14,-167.98"/>
</a>
</g>
</g>
<!-- Node4 -->
<g id="Node000004" class="node">
<title>Node4</title>
<g id="a_Node000004"><a xlink:href="classiii__drone_1_1utils_1_1Atomic.html#a9f8422d86cdbb429f29c6e16c61631ee" target="_top" xlink:title="Get the value.">
<polygon fill="white" stroke="#666666" points="370.5,-148.5 244.5,-148.5 244.5,-118.5 370.5,-118.5 370.5,-148.5"/>
<text text-anchor="start" x="252.5" y="-136.5" font-family="Helvetica,sans-Serif" font-size="10.00">iii_drone::utils::Atomic</text>
<text text-anchor="middle" x="307.5" y="-125.5" font-family="Helvetica,sans-Serif" font-size="10.00">::Load</text>
</a>
</g>
</g>
<!-- Node1&#45;&gt;Node4 -->
<g id="edge3_Node000001_Node000004" class="edge">
<title>Node1&#45;&gt;Node4</title>
<g id="a_edge3_Node000001_Node000004"><a xlink:title=" ">
<path fill="none" stroke="#63b8ff" d="M175.29,-133.5C194.72,-133.5 215.14,-133.5 233.93,-133.5"/>
<polygon fill="#63b8ff" stroke="#63b8ff" points="234.18,-137 244.18,-133.5 234.18,-130 234.18,-137"/>
</a>
</g>
</g>
<!-- Node5 -->
<g id="Node000005" class="node">
<title>Node5</title>
<g id="a_Node000005"><a xlink:href="classiii__drone_1_1control_1_1maneuver_1_1ManeuverScheduler.html#a5c5c0d6419c85f15414b71453a47f69c" target="_top" xlink:title="Returns the expected combined drone awareness upon completion or failure of given maneuver type,...">
<polygon fill="white" stroke="#666666" points="400,-100 215,-100 215,-59 400,-59 400,-100"/>
<text text-anchor="start" x="223" y="-88" font-family="Helvetica,sans-Serif" font-size="10.00">iii_drone::control</text>
<text text-anchor="start" x="223" y="-77" font-family="Helvetica,sans-Serif" font-size="10.00">::maneuver::ManeuverScheduler</text>
<text text-anchor="middle" x="307.5" y="-66" font-family="Helvetica,sans-Serif" font-size="10.00">::ProjectExpectedAwarenessSingle</text>
</a>
</g>
</g>
<!-- Node1&#45;&gt;Node5 -->
<g id="edge4_Node000001_Node000005" class="edge">
<title>Node1&#45;&gt;Node5</title>
<g id="a_edge4_Node000001_Node000005"><a xlink:title=" ">
<path fill="none" stroke="#63b8ff" d="M171.54,-112.93C185.29,-109.53 199.62,-105.97 213.6,-102.51"/>
<polygon fill="#63b8ff" stroke="#63b8ff" points="214.83,-105.81 223.69,-100.01 213.14,-99.02 214.83,-105.81"/>
</a>
</g>
</g>
<!-- Node8 -->
<g id="Node000008" class="node">
<title>Node8</title>
<g id="a_Node000008"><a xlink:href="classiii__drone_1_1control_1_1maneuver_1_1ManeuverQueue.html#a5a6e60809fc0dcfcf8b86f10ae3fd3e9" target="_top" xlink:title="Gets the vector of maneuvers in the queue.">
<polygon fill="white" stroke="#666666" points="386.5,-41 228.5,-41 228.5,0 386.5,0 386.5,-41"/>
<text text-anchor="start" x="236.5" y="-29" font-family="Helvetica,sans-Serif" font-size="10.00">iii_drone::control</text>
<text text-anchor="start" x="236.5" y="-18" font-family="Helvetica,sans-Serif" font-size="10.00">::maneuver::ManeuverQueue</text>
<text text-anchor="middle" x="307.5" y="-7" font-family="Helvetica,sans-Serif" font-size="10.00">::vector</text>
</a>
</g>
</g>
<!-- Node1&#45;&gt;Node8 -->
<g id="edge8_Node000001_Node000008" class="edge">
<title>Node1&#45;&gt;Node8</title>
<g id="a_edge8_Node000001_Node000008"><a xlink:title=" ">
<path fill="none" stroke="#63b8ff" d="M113.83,-112.68C137.67,-93.95 174.97,-66.81 211,-49.5 214.36,-47.89 217.83,-46.34 221.37,-44.86"/>
<polygon fill="#63b8ff" stroke="#63b8ff" points="222.86,-48.03 230.86,-41.09 220.27,-41.52 222.86,-48.03"/>
</a>
</g>
</g>
<!-- Node6 -->
<g id="Node000006" class="node">
<title>Node6</title>
<g id="a_Node000006"><a xlink:href="classiii__drone_1_1control_1_1maneuver_1_1Maneuver.html#a2a1dd737450465c565f5eba36e71ffad" target="_top" xlink:title="Maneuver type getter.">
<polygon fill="white" stroke="#666666" points="778,-99 651,-99 651,-58 778,-58 778,-99"/>
<text text-anchor="start" x="659" y="-87" font-family="Helvetica,sans-Serif" font-size="10.00">iii_drone::control</text>
<text text-anchor="start" x="659" y="-76" font-family="Helvetica,sans-Serif" font-size="10.00">::maneuver::Maneuver</text>
<text text-anchor="middle" x="714.5" y="-65" font-family="Helvetica,sans-Serif" font-size="10.00">::maneuver_type</text>
</a>
</g>
</g>
<!-- Node5&#45;&gt;Node6 -->
<g id="edge5_Node000005_Node000006" class="edge">
<title>Node5&#45;&gt;Node6</title>
<g id="a_edge5_Node000005_Node000006"><a xlink:title=" ">
<path fill="none" stroke="#63b8ff" d="M400.1,-82.64C413.48,-83 427.1,-83.3 440,-83.5 517.77,-84.68 537.25,-85.47 615,-83.5 623.37,-83.29 632.13,-82.97 640.83,-82.61"/>
<polygon fill="#63b8ff" stroke="#63b8ff" points="641.16,-86.1 650.99,-82.15 640.84,-79.1 641.16,-86.1"/>
</a>
</g>
</g>
<!-- Node7 -->
<g id="Node000007" class="node">
<title>Node7</title>
<g id="a_Node000007"><a xlink:href="classiii__drone_1_1control_1_1maneuver_1_1ManeuverScheduler.html#a6ba3cad1d62a50cc78dc835e44ab1050" target="_top" xlink:title="Evaluates whether a maneuver can be executed given an awareness.">
<polygon fill="white" stroke="#666666" points="615,-75 440,-75 440,-34 615,-34 615,-75"/>
<text text-anchor="start" x="448" y="-63" font-family="Helvetica,sans-Serif" font-size="10.00">iii_drone::control</text>
<text text-anchor="start" x="448" y="-52" font-family="Helvetica,sans-Serif" font-size="10.00">::maneuver::ManeuverScheduler</text>
<text text-anchor="middle" x="527.5" y="-41" font-family="Helvetica,sans-Serif" font-size="10.00">::maneuverCanExecute</text>
</a>
</g>
</g>
<!-- Node5&#45;&gt;Node7 -->
<g id="edge6_Node000005_Node000007" class="edge">
<title>Node5&#45;&gt;Node7</title>
<g id="a_edge6_Node000005_Node000007"><a xlink:title=" ">
<path fill="none" stroke="#63b8ff" d="M400,-69.01C409.78,-67.89 419.74,-66.74 429.57,-65.62"/>
<polygon fill="#63b8ff" stroke="#63b8ff" points="430.22,-69.06 439.76,-64.45 429.42,-62.11 430.22,-69.06"/>
</a>
</g>
</g>
<!-- Node7&#45;&gt;Node6 -->
<g id="edge7_Node000007_Node000006" class="edge">
<title>Node7&#45;&gt;Node6</title>
<g id="a_edge7_Node000007_Node000006"><a xlink:title=" ">
<path fill="none" stroke="#63b8ff" d="M615.04,-65.73C623.6,-66.84 632.23,-67.96 640.62,-69.05"/>
<polygon fill="#63b8ff" stroke="#63b8ff" points="640.37,-72.54 650.74,-70.36 641.27,-65.6 640.37,-72.54"/>
</a>
</g>
</g>
</g>
</svg>

<g id="navigator" transform="translate(0 0)" fill="#404254">
  <rect fill="#f2f5e9" fill-opacity="0.5" stroke="#606060" stroke-width=".5" x="0" y="0" width="60" height="60"/>
  <use id="zoomplus" xlink:href="#zoomPlus" x="17" y="9" onmousedown="handleZoom(evt,'in')"/>
  <use id="zoomminus" xlink:href="#zoomMin" x="42" y="9" onmousedown="handleZoom(evt,'out')"/>
  <use id="reset" xlink:href="#resetDef" x="30" y="36" onmousedown="handleReset()"/>
   <use id="arrowup" xlink:href="#arrowUp" x="0" y="0" onmousedown="handlePan(0,-1)"/>
  <use id="arrowright" xlink:href="#arrowRight" x="0" y="0" onmousedown="handlePan(1,0)"/>
  <use id="arrowdown" xlink:href="#arrowDown" x="0" y="0" onmousedown="handlePan(0,1)"/>
  <use id="arrowleft" xlink:href="#arrowLeft" x="0" y="0" onmousedown="handlePan(-1,0)"/>
</g>
<svg viewBox="0 0 15 15" width="100%" height="30px" preserveAspectRatio="xMaxYMin meet">
 <g id="arrow_out" transform="scale(0.3 0.3)">
  <a xlink:href="classiii__drone_1_1control_1_1maneuver_1_1ManeuverScheduler_a506aad4bb58475a1f64148aec17c570f_cgraph_org.svg" target="_base">
   <rect id="button" ry="5" rx="5" y="6" x="6" height="38" width="38"
        fill="#f2f5e9" fill-opacity="0.5" stroke="#606060" stroke-width="1.0"/>
   <path id="arrow"
     d="M 11.500037,31.436501 C 11.940474,20.09759 22.043105,11.32322 32.158766,21.979434 L 37.068811,17.246167 C 37.068811,17.246167 37.088388,32 37.088388,32 L 22.160133,31.978069 C 22.160133,31.978069 26.997745,27.140456 26.997745,27.140456 C 18.528582,18.264221 13.291696,25.230495 11.500037,31.436501 z"
     style="fill:#404040;"/>
  </a>
 </g>
</svg>

<style type='text/css'>
<![CDATA[
[data-mouse-over-selected='false'] { opacity: 0.7; }
[data-mouse-over-selected='true']  { opacity: 1.0; }
]]>
</style>
<script type="application/ecmascript"><![CDATA[
document.addEventListener('DOMContentLoaded', (event) => {
  highlightEdges();
  highlightAdjacentNodes();
});
]]></script>
</svg>
