<?xml version="1.0" encoding="UTF-8" standalone="no"?>
<!DOCTYPE svg PUBLIC "-//W3C//DTD SVG 1.1//EN"
 "http://www.w3.org/Graphics/SVG/1.1/DTD/svg11.dtd">
<!-- Generated by graphviz version 2.43.0 (0)
 -->
<!-- Title: iii_drone::perception::Powerline::drone_pose Pages: 1 -->
<svg width="951pt" height="66pt"
 viewBox="0.00 0.00 951.00 65.50" xmlns="http://www.w3.org/2000/svg" xmlns:xlink="http://www.w3.org/1999/xlink">
<g id="graph0" class="graph" transform="scale(1 1) rotate(0) translate(4 61.5)">
<title>iii_drone::perception::Powerline::drone_pose</title>
<!-- Node1 -->
<g id="Node000001" class="node">
<title>Node1</title>
<g id="a_Node000001"><a xlink:title="Returns the drone quaternion orientation.">
<polygon fill="#999999" stroke="#666666" points="943,-35.5 810,-35.5 810,-5.5 943,-5.5 943,-35.5"/>
<text text-anchor="start" x="818" y="-23.5" font-family="Helvetica,sans-Serif" font-size="10.00">iii_drone::perception</text>
<text text-anchor="middle" x="876.5" y="-12.5" font-family="Helvetica,sans-Serif" font-size="10.00">::Powerline::drone_pose</text>
</a>
</g>
</g>
<!-- Node2 -->
<g id="Node000002" class="node">
<title>Node2</title>
<g id="a_Node000002"><a xlink:href="classiii__drone_1_1perception_1_1Powerline.html#abb9d44570c4decb7fc26620eb2ceb38d" target="_top" xlink:title="Runs the Kalman Filter predict step for all lines.">
<polygon fill="white" stroke="#666666" points="774,-57.5 638,-57.5 638,-27.5 774,-27.5 774,-57.5"/>
<text text-anchor="start" x="646" y="-45.5" font-family="Helvetica,sans-Serif" font-size="10.00">iii_drone::perception</text>
<text text-anchor="middle" x="706" y="-34.5" font-family="Helvetica,sans-Serif" font-size="10.00">::Powerline::predictLines</text>
</a>
</g>
</g>
<!-- Node1&#45;&gt;Node2 -->
<g id="edge1_Node000001_Node000002" class="edge">
<title>Node1&#45;&gt;Node2</title>
<g id="a_edge1_Node000001_Node000002"><a xlink:title=" ">
<path fill="none" stroke="#63b8ff" d="M799.87,-30.37C791.29,-31.5 782.58,-32.63 774.12,-33.74"/>
<polygon fill="#63b8ff" stroke="#63b8ff" points="800.41,-33.83 809.87,-29.07 799.5,-26.89 800.41,-33.83"/>
</a>
</g>
</g>
<!-- Node3 -->
<g id="Node000003" class="node">
<title>Node3</title>
<g id="a_Node000003"><a xlink:href="classiii__drone_1_1perception_1_1Powerline.html#ae0f6a983c3039c6a41bda6258ec2b70d" target="_top" xlink:title="Updates the powerline from odometry.">
<polygon fill="white" stroke="#666666" points="602,-35.5 441,-35.5 441,-5.5 602,-5.5 602,-35.5"/>
<text text-anchor="start" x="449" y="-23.5" font-family="Helvetica,sans-Serif" font-size="10.00">iii_drone::perception</text>
<text text-anchor="middle" x="521.5" y="-12.5" font-family="Helvetica,sans-Serif" font-size="10.00">::Powerline::UpdateOdometry</text>
</a>
</g>
</g>
<!-- Node1&#45;&gt;Node3 -->
<g id="edge5_Node000001_Node000003" class="edge">
<title>Node1&#45;&gt;Node3</title>
<g id="a_edge5_Node000001_Node000003"><a xlink:title=" ">
<path fill="none" stroke="#63b8ff" d="M799.81,-18.84C791.11,-18.7 782.36,-18.58 774,-18.5 713.56,-17.9 698.44,-17.98 638,-18.5 626.37,-18.6 614.08,-18.76 602.03,-18.94"/>
<polygon fill="#63b8ff" stroke="#63b8ff" points="799.92,-22.35 809.98,-19.02 800.04,-15.35 799.92,-22.35"/>
</a>
</g>
</g>
<!-- Node2&#45;&gt;Node3 -->
<g id="edge2_Node000002_Node000003" class="edge">
<title>Node2&#45;&gt;Node3</title>
<g id="a_edge2_Node000002_Node000003"><a xlink:title=" ">
<path fill="none" stroke="#63b8ff" d="M627.65,-33.18C619.24,-32.16 610.66,-31.13 602.21,-30.11"/>
<polygon fill="#63b8ff" stroke="#63b8ff" points="627.47,-36.68 637.82,-34.4 628.31,-29.73 627.47,-36.68"/>
</a>
</g>
</g>
<!-- Node4 -->
<g id="Node000004" class="node">
<title>Node4</title>
<g id="a_Node000004"><a xlink:href="classiii__drone_1_1perception_1_1pl__mapper__node_1_1PowerlineMapperNode.html#ae98c3a40fb32f1305c1528467205ba33" target="_top" xlink:title="Callback for fetching drone transform.">
<polygon fill="white" stroke="#666666" points="405,-41 231,-41 231,0 405,0 405,-41"/>
<text text-anchor="start" x="239" y="-29" font-family="Helvetica,sans-Serif" font-size="10.00">iii_drone::perception</text>
<text text-anchor="start" x="239" y="-18" font-family="Helvetica,sans-Serif" font-size="10.00">::pl_mapper_node::Powerline</text>
<text text-anchor="middle" x="318" y="-7" font-family="Helvetica,sans-Serif" font-size="10.00">MapperNode::odometryCallback</text>
</a>
</g>
</g>
<!-- Node3&#45;&gt;Node4 -->
<g id="edge3_Node000003_Node000004" class="edge">
<title>Node3&#45;&gt;Node4</title>
<g id="a_edge3_Node000003_Node000004"><a xlink:title=" ">
<path fill="none" stroke="#63b8ff" d="M430.85,-20.5C422.27,-20.5 413.57,-20.5 405.02,-20.5"/>
<polygon fill="#63b8ff" stroke="#63b8ff" points="430.86,-24 440.86,-20.5 430.86,-17 430.86,-24"/>
</a>
</g>
</g>
<!-- Node5 -->
<g id="Node000005" class="node">
<title>Node5</title>
<g id="a_Node000005"><a xlink:href="classiii__drone_1_1perception_1_1pl__mapper__node_1_1PowerlineMapperNode.html#a703ae72ba683ae11154ce597b8bbad9d" target="_top" xlink:title="Constructor.">
<polygon fill="white" stroke="#666666" points="195,-41 0,-41 0,0 195,0 195,-41"/>
<text text-anchor="start" x="8" y="-29" font-family="Helvetica,sans-Serif" font-size="10.00">iii_drone::perception</text>
<text text-anchor="start" x="8" y="-18" font-family="Helvetica,sans-Serif" font-size="10.00">::pl_mapper_node::Powerline</text>
<text text-anchor="middle" x="97.5" y="-7" font-family="Helvetica,sans-Serif" font-size="10.00">MapperNode::PowerlineMapperNode</text>
</a>
</g>
</g>
<!-- Node4&#45;&gt;Node5 -->
<g id="edge4_Node000004_Node000005" class="edge">
<title>Node4&#45;&gt;Node5</title>
<g id="a_edge4_Node000004_Node000005"><a xlink:title=" ">
<path fill="none" stroke="#63b8ff" d="M220.73,-20.5C212.29,-20.5 203.74,-20.5 195.3,-20.5"/>
<polygon fill="#63b8ff" stroke="#63b8ff" points="220.96,-24 230.96,-20.5 220.96,-17 220.96,-24"/>
</a>
</g>
</g>
</g>
</svg>
