<?xml version="1.0" encoding="UTF-8" standalone="no"?>
<!DOCTYPE svg PUBLIC "-//W3C//DTD SVG 1.1//EN"
 "http://www.w3.org/Graphics/SVG/1.1/DTD/svg11.dtd">
<!-- Generated by graphviz version 2.43.0 (0)
 -->
<!-- Title: iii_drone::perception::PowerlineParameters Pages: 1 -->
<!--zoomable 632 -->

<svg id="main" version="1.1" xmlns="http://www.w3.org/2000/svg" xmlns:xlink="http://www.w3.org/1999/xlink" xml:space="preserve" onload="init(evt)">
<style type="text/css"><![CDATA[
.node, .edge {opacity: 0.7;}
.node.selected, .edge.selected {opacity: 1;}
.edge:hover path { stroke: red; }
.edge:hover polygon { stroke: red; fill: red; }
]]></style>

<defs>
  <circle id="rim" cx="0" cy="0" r="7"/>
  <circle id="rim2" cx="0" cy="0" r="3.5"/>
  <g id="zoomPlus">
    <use xlink:href="#rim" fill="#404040"><set attributeName="fill" to="#808080" begin="zoomplus.mouseover" end="zoomplus.mouseout"/></use>
    <path d="M-4,0h8M0,-4v8" fill="none" stroke="white" stroke-width="1.5" pointer-events="none"/>
  </g>
  <g id="zoomMin">
    <use xlink:href="#rim" fill="#404040"><set attributeName="fill" to="#808080" begin="zoomminus.mouseover" end="zoomminus.mouseout"/></use>
    <path d="M-4,0h8" fill="none" stroke="white" stroke-width="1.5" pointer-events="none"/>
  </g>
  <g id="arrowUp" transform="translate(30 24)">
    <use xlink:href="#rim"/>
    <path pointer-events="none" fill="none" stroke="white" stroke-width="1.5" d="M0,-3.0v7 M-2.5,-0.5L0,-3.0L2.5,-0.5"/>
  </g>
  <g id="arrowRight" transform="rotate(90) translate(36 -43)">
    <use xlink:href="#rim"/>
    <path pointer-events="none" fill="none" stroke="white" stroke-width="1.5" d="M0,-3.0v7 M-2.5,-0.5L0,-3.0L2.5,-0.5"/>
  </g>
  <g id="arrowDown" transform="rotate(180) translate(-30 -48)">
    <use xlink:href="#rim"/>
    <path pointer-events="none" fill="none" stroke="white" stroke-width="1.5" d="M0,-3.0v7 M-2.5,-0.5L0,-3.0L2.5,-0.5"/>
  </g>
  <g id="arrowLeft" transform="rotate(270) translate(-36 17)">
    <use xlink:href="#rim"/>
    <path pointer-events="none" fill="none" stroke="white" stroke-width="1.5" d="M0,-3.0v7 M-2.5,-0.5L0,-3.0L2.5,-0.5"/>
  </g>
  <g id="resetDef">
    <use xlink:href="#rim2" fill="#404040"><set attributeName="fill" to="#808080" begin="reset.mouseover" end="reset.mouseout"/></use>
  </g>
</defs>
<script type="application/ecmascript">
var viewWidth = 277;
var viewHeight = 632;
var sectionId = 'dynsection-0';
</script>
<script type="application/ecmascript" xlink:href="svg.min.js"/>
<svg id="graph" class="graph">
<g id="viewport">
<title>iii_drone::perception::PowerlineParameters</title>
<!-- Node1 -->
<g id="Node000001" class="node">
<title>Node1</title>
<g id="a_Node000001"><a xlink:title="Class for storing the parameters of the powerline object.">
<polygon fill="#999999" stroke="transparent" points="184.5,-420 38.5,-420 38.5,0 184.5,0 184.5,-420"/>
<text text-anchor="start" x="56.5" y="-408" font-family="Helvetica,sans-Serif" font-size="10.00">iii_drone::perception</text>
<text text-anchor="start" x="56.5" y="-397" font-family="Helvetica,sans-Serif" font-size="10.00">::PowerlineParameters</text>
<text text-anchor="start" x="45" y="-382" font-family="Helvetica,sans-Serif" font-size="10.00">&#45;</text>
<text text-anchor="start" x="55.5" y="-382" font-family="Helvetica,sans-Serif" font-size="10.00">kf_r_</text>
<text text-anchor="start" x="45" y="-367" font-family="Helvetica,sans-Serif" font-size="10.00">&#45;</text>
<text text-anchor="start" x="55.5" y="-367" font-family="Helvetica,sans-Serif" font-size="10.00">kf_q_</text>
<text text-anchor="start" x="45" y="-352" font-family="Helvetica,sans-Serif" font-size="10.00">&#45;</text>
<text text-anchor="start" x="55.5" y="-352" font-family="Helvetica,sans-Serif" font-size="10.00">alive_cnt_low_thresh_</text>
<text text-anchor="start" x="45" y="-337" font-family="Helvetica,sans-Serif" font-size="10.00">&#45;</text>
<text text-anchor="start" x="55.5" y="-337" font-family="Helvetica,sans-Serif" font-size="10.00">alive_cnt_high_thresh_</text>
<text text-anchor="start" x="45" y="-322" font-family="Helvetica,sans-Serif" font-size="10.00">&#45;</text>
<text text-anchor="start" x="55.5" y="-322" font-family="Helvetica,sans-Serif" font-size="10.00">alive_cnt_ceiling_</text>
<text text-anchor="start" x="45" y="-307" font-family="Helvetica,sans-Serif" font-size="10.00">&#45;</text>
<text text-anchor="start" x="55.5" y="-307" font-family="Helvetica,sans-Serif" font-size="10.00">matching_line_max_dist_</text>
<text text-anchor="start" x="45" y="-292" font-family="Helvetica,sans-Serif" font-size="10.00">&#45;</text>
<text text-anchor="start" x="55.5" y="-292" font-family="Helvetica,sans-Serif" font-size="10.00">max_lines_</text>
<text text-anchor="start" x="45" y="-277" font-family="Helvetica,sans-Serif" font-size="10.00">&#45;</text>
<text text-anchor="start" x="55.5" y="-277" font-family="Helvetica,sans-Serif" font-size="10.00">min_point_dist_</text>
<text text-anchor="start" x="45" y="-262" font-family="Helvetica,sans-Serif" font-size="10.00">&#45;</text>
<text text-anchor="start" x="55.5" y="-262" font-family="Helvetica,sans-Serif" font-size="10.00">max_point_dist_</text>
<text text-anchor="start" x="45" y="-247" font-family="Helvetica,sans-Serif" font-size="10.00">&#45;</text>
<text text-anchor="start" x="55.5" y="-247" font-family="Helvetica,sans-Serif" font-size="10.00">view_cone_slope_</text>
<text text-anchor="start" x="45" y="-232" font-family="Helvetica,sans-Serif" font-size="10.00">&#45;</text>
<text text-anchor="start" x="55.5" y="-232" font-family="Helvetica,sans-Serif" font-size="10.00">strict_min_point_dist_</text>
<text text-anchor="start" x="45" y="-217" font-family="Helvetica,sans-Serif" font-size="10.00">&#45;</text>
<text text-anchor="start" x="55.5" y="-217" font-family="Helvetica,sans-Serif" font-size="10.00">strict_max_point_dist_</text>
<text text-anchor="start" x="45" y="-202" font-family="Helvetica,sans-Serif" font-size="10.00">&#45;</text>
<text text-anchor="start" x="55.5" y="-202" font-family="Helvetica,sans-Serif" font-size="10.00">strict_view_cone_slope_</text>
<text text-anchor="start" x="45" y="-187" font-family="Helvetica,sans-Serif" font-size="10.00">&#45;</text>
<text text-anchor="start" x="55.5" y="-187" font-family="Helvetica,sans-Serif" font-size="10.00">inter_pos_window_size_</text>
<text text-anchor="start" x="45" y="-172" font-family="Helvetica,sans-Serif" font-size="10.00">&#45;</text>
<text text-anchor="start" x="55.5" y="-172" font-family="Helvetica,sans-Serif" font-size="10.00">simulation_</text>
<text text-anchor="start" x="42.5" y="-157" font-family="Helvetica,sans-Serif" font-size="10.00">+</text>
<text text-anchor="start" x="55.5" y="-157" font-family="Helvetica,sans-Serif" font-size="10.00">PowerlineParameters()</text>
<text text-anchor="start" x="42.5" y="-142" font-family="Helvetica,sans-Serif" font-size="10.00">+</text>
<text text-anchor="start" x="55.5" y="-142" font-family="Helvetica,sans-Serif" font-size="10.00">kf_r()</text>
<text text-anchor="start" x="42.5" y="-127" font-family="Helvetica,sans-Serif" font-size="10.00">+</text>
<text text-anchor="start" x="55.5" y="-127" font-family="Helvetica,sans-Serif" font-size="10.00">kf_r()</text>
<text text-anchor="start" x="42.5" y="-112" font-family="Helvetica,sans-Serif" font-size="10.00">+</text>
<text text-anchor="start" x="55.5" y="-112" font-family="Helvetica,sans-Serif" font-size="10.00">kf_q()</text>
<text text-anchor="start" x="42.5" y="-97" font-family="Helvetica,sans-Serif" font-size="10.00">+</text>
<text text-anchor="start" x="55.5" y="-97" font-family="Helvetica,sans-Serif" font-size="10.00">kf_q()</text>
<text text-anchor="start" x="42.5" y="-82" font-family="Helvetica,sans-Serif" font-size="10.00">+</text>
<text text-anchor="start" x="55.5" y="-82" font-family="Helvetica,sans-Serif" font-size="10.00">alive_cnt_low_thresh()</text>
<text text-anchor="start" x="42.5" y="-67" font-family="Helvetica,sans-Serif" font-size="10.00">+</text>
<text text-anchor="start" x="55.5" y="-67" font-family="Helvetica,sans-Serif" font-size="10.00">alive_cnt_low_thresh()</text>
<text text-anchor="start" x="42.5" y="-52" font-family="Helvetica,sans-Serif" font-size="10.00">+</text>
<text text-anchor="start" x="55.5" y="-52" font-family="Helvetica,sans-Serif" font-size="10.00">alive_cnt_high_thresh()</text>
<text text-anchor="start" x="42.5" y="-37" font-family="Helvetica,sans-Serif" font-size="10.00">+</text>
<text text-anchor="start" x="55.5" y="-37" font-family="Helvetica,sans-Serif" font-size="10.00">alive_cnt_high_thresh()</text>
<text text-anchor="start" x="42.5" y="-22" font-family="Helvetica,sans-Serif" font-size="10.00">+</text>
<text text-anchor="start" x="55.5" y="-22" font-family="Helvetica,sans-Serif" font-size="10.00">alive_cnt_ceiling()</text>
<text text-anchor="start" x="55.5" y="-7" font-family="Helvetica,sans-Serif" font-size="10.00">and 22 more...</text>
<polygon fill="#666666" stroke="#666666" points="38.5,-392 38.5,-392 184.5,-392 184.5,-392 38.5,-392"/>
<polygon fill="#666666" stroke="#666666" points="38.5,-167 38.5,-167 53.5,-167 53.5,-167 38.5,-167"/>
<polygon fill="#666666" stroke="#666666" points="53.5,-167 53.5,-167 184.5,-167 184.5,-167 53.5,-167"/>
<polygon fill="none" stroke="#666666" points="38.5,0 38.5,-420 184.5,-420 184.5,0 38.5,0"/>
</a>
</g>
</g>
<!-- Node2 -->
<g id="Node000002" class="node">
<title>Node2</title>
<g id="a_Node000002"><a xlink:title=" ">
<polygon fill="white" stroke="transparent" points="101,-527 0,-527 0,-478 101,-478 101,-527"/>
<text text-anchor="start" x="5.5" y="-514.5" font-family="Helvetica,sans-Serif" font-size="10.00">std::shared_mutex</text>
<text text-anchor="start" x="49" y="-499.5" font-family="Helvetica,sans-Serif" font-size="10.00"> </text>
<text text-anchor="start" x="49" y="-484.5" font-family="Helvetica,sans-Serif" font-size="10.00"> </text>
<polygon fill="#666666" stroke="#666666" points="0.5,-509.5 0.5,-509.5 101.5,-509.5 101.5,-509.5 0.5,-509.5"/>
<polygon fill="#666666" stroke="#666666" points="0.5,-494.5 0.5,-494.5 101.5,-494.5 101.5,-494.5 0.5,-494.5"/>
<polygon fill="none" stroke="#666666" points="0,-478 0,-527 101,-527 101,-478 0,-478"/>
</a>
</g>
</g>
<!-- Node2&#45;&gt;Node1 -->
<g id="edge1_Node000001_Node000002" class="edge">
<title>Node2&#45;&gt;Node1</title>
<g id="a_edge1_Node000001_Node000002"><a xlink:title=" ">
<path fill="none" stroke="#63b8ff" d="M49.52,-477.87C49.36,-465.88 49.69,-451.11 51.5,-438 51.77,-436.08 52.04,-434.15 52.33,-432.22"/>
<polygon fill="none" stroke="#63b8ff" points="52.34,-432.12 49.33,-425.57 54.21,-420.27 57.23,-426.82 52.34,-432.12"/>
</a>
</g>
<text text-anchor="middle" x="101.5" y="-446.5" font-family="Helvetica,sans-Serif" font-size="10.00" fill="grey"> &#45;parameter_mutex_</text>
</g>
<!-- Node3 -->
<g id="Node000003" class="node">
<title>Node3</title>
<g id="a_Node000003"><a xlink:title=" ">
<polygon fill="white" stroke="transparent" points="203,-527 144,-527 144,-478 203,-478 203,-527"/>
<text text-anchor="start" x="149.5" y="-514.5" font-family="Helvetica,sans-Serif" font-size="10.00">std::string</text>
<text text-anchor="start" x="172" y="-499.5" font-family="Helvetica,sans-Serif" font-size="10.00"> </text>
<text text-anchor="start" x="172" y="-484.5" font-family="Helvetica,sans-Serif" font-size="10.00"> </text>
<polygon fill="#666666" stroke="#666666" points="144.5,-509.5 144.5,-509.5 203.5,-509.5 203.5,-509.5 144.5,-509.5"/>
<polygon fill="#666666" stroke="#666666" points="144.5,-494.5 144.5,-494.5 203.5,-494.5 203.5,-494.5 144.5,-494.5"/>
<polygon fill="none" stroke="#666666" points="144,-478 144,-527 203,-527 203,-478 144,-478"/>
</a>
</g>
</g>
<!-- Node3&#45;&gt;Node1 -->
<g id="edge2_Node000001_Node000003" class="edge">
<title>Node3&#45;&gt;Node1</title>
<g id="a_edge2_Node000001_Node000003"><a xlink:title=" ">
<path fill="none" stroke="#63b8ff" d="M168.43,-477.73C165.86,-465.72 162.48,-449.88 158.64,-431.9"/>
<polygon fill="none" stroke="#63b8ff" points="158.63,-431.85 153.47,-426.82 156.13,-420.11 161.29,-425.15 158.63,-431.85"/>
</a>
</g>
<text text-anchor="middle" x="216.5" y="-452" font-family="Helvetica,sans-Serif" font-size="10.00" fill="grey"> &#45;drone_frame_id_</text>
<text text-anchor="middle" x="216.5" y="-441" font-family="Helvetica,sans-Serif" font-size="10.00" fill="grey">&#45;mmwave_frame_id_</text>
</g>
<!-- Node4 -->
<g id="Node000004" class="node">
<title>Node4</title>
<g id="a_Node000004"><a xlink:title=" ">
<polygon fill="white" stroke="transparent" points="222.5,-624 124.5,-624 124.5,-564 222.5,-564 222.5,-624"/>
<text text-anchor="start" x="129.5" y="-612" font-family="Helvetica,sans-Serif" font-size="10.00">std::basic_string&lt;</text>
<text text-anchor="start" x="155" y="-601" font-family="Helvetica,sans-Serif" font-size="10.00"> Char &gt;</text>
<text text-anchor="start" x="171.5" y="-586" font-family="Helvetica,sans-Serif" font-size="10.00"> </text>
<text text-anchor="start" x="171.5" y="-571" font-family="Helvetica,sans-Serif" font-size="10.00"> </text>
<polygon fill="#666666" stroke="#666666" points="124.5,-596 124.5,-596 222.5,-596 222.5,-596 124.5,-596"/>
<polygon fill="#666666" stroke="#666666" points="124.5,-581 124.5,-581 222.5,-581 222.5,-581 124.5,-581"/>
<polygon fill="none" stroke="#666666" points="124.5,-564 124.5,-624 222.5,-624 222.5,-564 124.5,-564"/>
</a>
</g>
</g>
<!-- Node4&#45;&gt;Node3 -->
<g id="edge3_Node000003_Node000004" class="edge">
<title>Node4&#45;&gt;Node3</title>
<g id="a_edge3_Node000003_Node000004"><a xlink:title=" ">
<path fill="none" stroke="#63b8ff" d="M173.5,-553.41C173.5,-544.47 173.5,-535.25 173.5,-527.21"/>
<polygon fill="none" stroke="#63b8ff" points="170,-553.69 173.5,-563.69 177,-553.69 170,-553.69"/>
</a>
</g>
</g>
</g>
</svg>

<g id="navigator" transform="translate(0 0)" fill="#404254">
  <rect fill="#f2f5e9" fill-opacity="0.5" stroke="#606060" stroke-width=".5" x="0" y="0" width="60" height="60"/>
  <use id="zoomplus" xlink:href="#zoomPlus" x="17" y="9" onmousedown="handleZoom(evt,'in')"/>
  <use id="zoomminus" xlink:href="#zoomMin" x="42" y="9" onmousedown="handleZoom(evt,'out')"/>
  <use id="reset" xlink:href="#resetDef" x="30" y="36" onmousedown="handleReset()"/>
   <use id="arrowup" xlink:href="#arrowUp" x="0" y="0" onmousedown="handlePan(0,-1)"/>
  <use id="arrowright" xlink:href="#arrowRight" x="0" y="0" onmousedown="handlePan(1,0)"/>
  <use id="arrowdown" xlink:href="#arrowDown" x="0" y="0" onmousedown="handlePan(0,1)"/>
  <use id="arrowleft" xlink:href="#arrowLeft" x="0" y="0" onmousedown="handlePan(-1,0)"/>
</g>
<svg viewBox="0 0 15 15" width="100%" height="30px" preserveAspectRatio="xMaxYMin meet">
 <g id="arrow_out" transform="scale(0.3 0.3)">
  <a xlink:href="classiii__drone_1_1perception_1_1PowerlineParameters__coll__graph_org.svg" target="_base">
   <rect id="button" ry="5" rx="5" y="6" x="6" height="38" width="38"
        fill="#f2f5e9" fill-opacity="0.5" stroke="#606060" stroke-width="1.0"/>
   <path id="arrow"
     d="M 11.500037,31.436501 C 11.940474,20.09759 22.043105,11.32322 32.158766,21.979434 L 37.068811,17.246167 C 37.068811,17.246167 37.088388,32 37.088388,32 L 22.160133,31.978069 C 22.160133,31.978069 26.997745,27.140456 26.997745,27.140456 C 18.528582,18.264221 13.291696,25.230495 11.500037,31.436501 z"
     style="fill:#404040;"/>
  </a>
 </g>
</svg>

<style type='text/css'>
<![CDATA[
[data-mouse-over-selected='false'] { opacity: 0.7; }
[data-mouse-over-selected='true']  { opacity: 1.0; }
]]>
</style>
<script type="application/ecmascript"><![CDATA[
document.addEventListener('DOMContentLoaded', (event) => {
  highlightEdges();
  highlightAdjacentNodes();
});
]]></script>
</svg>
