<?xml version="1.0" encoding="UTF-8" standalone="no"?>
<!DOCTYPE svg PUBLIC "-//W3C//DTD SVG 1.1//EN"
 "http://www.w3.org/Graphics/SVG/1.1/DTD/svg11.dtd">
<!-- Generated by graphviz version 2.43.0 (0)
 -->
<!-- Title: iii_drone::adapters::SingleLineAdapter::id Pages: 1 -->
<svg width="678pt" height="340pt"
 viewBox="0.00 0.00 678.00 339.50" xmlns="http://www.w3.org/2000/svg" xmlns:xlink="http://www.w3.org/1999/xlink">
<g id="graph0" class="graph" transform="scale(1 1) rotate(0) translate(4 335.5)">
<title>iii_drone::adapters::SingleLineAdapter::id</title>
<!-- Node1 -->
<g id="Node000001" class="node">
<title>Node1</title>
<g id="a_Node000001"><a xlink:title="Id getter.">
<polygon fill="#999999" stroke="#666666" points="670,-218.5 544,-218.5 544,-188.5 670,-188.5 670,-218.5"/>
<text text-anchor="start" x="552" y="-206.5" font-family="Helvetica,sans-Serif" font-size="10.00">iii_drone::adapters</text>
<text text-anchor="middle" x="607" y="-195.5" font-family="Helvetica,sans-Serif" font-size="10.00">::SingleLineAdapter::id</text>
</a>
</g>
</g>
<!-- Node2 -->
<g id="Node000002" class="node">
<title>Node2</title>
<g id="a_Node000002"><a xlink:href="classiii__drone_1_1perception_1_1SingleLine.html#ad17dc959fe4f359c46b226c98e616e4b" target="_top" xlink:title="Constructor from SingleLineAdapter.">
<polygon fill="white" stroke="#666666" points="476,-331.5 347,-331.5 347,-301.5 476,-301.5 476,-331.5"/>
<text text-anchor="start" x="355" y="-319.5" font-family="Helvetica,sans-Serif" font-size="10.00">iii_drone::perception</text>
<text text-anchor="middle" x="411.5" y="-308.5" font-family="Helvetica,sans-Serif" font-size="10.00">::SingleLine::SingleLine</text>
</a>
</g>
</g>
<!-- Node1&#45;&gt;Node2 -->
<g id="edge1_Node000001_Node000002" class="edge">
<title>Node1&#45;&gt;Node2</title>
<g id="a_edge1_Node000001_Node000002"><a xlink:title=" ">
<path fill="none" stroke="#63b8ff" d="M587.07,-226.13C568.85,-246.46 539.48,-275.64 508,-292.5 498.13,-297.79 487.06,-301.94 476.05,-305.19"/>
<polygon fill="#63b8ff" stroke="#63b8ff" points="589.76,-228.37 593.72,-218.55 584.49,-223.76 589.76,-228.37"/>
</a>
</g>
</g>
<!-- Node3 -->
<g id="Node000003" class="node">
<title>Node3</title>
<g id="a_Node000003"><a xlink:href="classiii__drone_1_1adapters_1_1SingleLineAdapter.html#a524b57b8a93818b95e35323ec8533749" target="_top" xlink:title="Constructor from PoseStamped msg.">
<polygon fill="white" stroke="#666666" points="467,-283 356,-283 356,-242 467,-242 467,-283"/>
<text text-anchor="start" x="364" y="-271" font-family="Helvetica,sans-Serif" font-size="10.00">iii_drone::adapters</text>
<text text-anchor="start" x="364" y="-260" font-family="Helvetica,sans-Serif" font-size="10.00">::SingleLineAdapter</text>
<text text-anchor="middle" x="411.5" y="-249" font-family="Helvetica,sans-Serif" font-size="10.00">::SingleLineAdapter</text>
</a>
</g>
</g>
<!-- Node1&#45;&gt;Node3 -->
<g id="edge2_Node000001_Node000003" class="edge">
<title>Node1&#45;&gt;Node3</title>
<g id="a_edge2_Node000001_Node000003"><a xlink:title=" ">
<path fill="none" stroke="#63b8ff" d="M547.19,-221.53C534.28,-225.48 520.68,-229.63 508,-233.5 494.74,-237.54 480.44,-241.89 467.05,-245.96"/>
<polygon fill="#63b8ff" stroke="#63b8ff" points="548.37,-224.83 556.91,-218.55 546.32,-218.13 548.37,-224.83"/>
</a>
</g>
</g>
<!-- Node4 -->
<g id="Node000004" class="node">
<title>Node4</title>
<g id="a_Node000004"><a xlink:href="classiii__drone_1_1adapters_1_1SingleLineAdapter.html#ad5ca1a5d6a90a4f67c5b9bb59f9c8066" target="_top" xlink:title="Constructor from pose msg.">
<polygon fill="white" stroke="#666666" points="467,-224 356,-224 356,-183 467,-183 467,-224"/>
<text text-anchor="start" x="364" y="-212" font-family="Helvetica,sans-Serif" font-size="10.00">iii_drone::adapters</text>
<text text-anchor="start" x="364" y="-201" font-family="Helvetica,sans-Serif" font-size="10.00">::SingleLineAdapter</text>
<text text-anchor="middle" x="411.5" y="-190" font-family="Helvetica,sans-Serif" font-size="10.00">::SingleLineAdapter</text>
</a>
</g>
</g>
<!-- Node1&#45;&gt;Node4 -->
<g id="edge3_Node000001_Node000004" class="edge">
<title>Node1&#45;&gt;Node4</title>
<g id="a_edge3_Node000001_Node000004"><a xlink:title=" ">
<path fill="none" stroke="#63b8ff" d="M533.69,-203.5C511.72,-203.5 487.94,-203.5 467.32,-203.5"/>
<polygon fill="#63b8ff" stroke="#63b8ff" points="533.98,-207 543.98,-203.5 533.98,-200 533.98,-207"/>
</a>
</g>
</g>
<!-- Node5 -->
<g id="Node000005" class="node">
<title>Node5</title>
<g id="a_Node000005"><a xlink:href="classiii__drone_1_1adapters_1_1SingleLineAdapter.html#a04f02d018320742a79f473e1dd502b31" target="_top" xlink:title="Constructor from members.">
<polygon fill="white" stroke="#666666" points="467,-165 356,-165 356,-124 467,-124 467,-165"/>
<text text-anchor="start" x="364" y="-153" font-family="Helvetica,sans-Serif" font-size="10.00">iii_drone::adapters</text>
<text text-anchor="start" x="364" y="-142" font-family="Helvetica,sans-Serif" font-size="10.00">::SingleLineAdapter</text>
<text text-anchor="middle" x="411.5" y="-131" font-family="Helvetica,sans-Serif" font-size="10.00">::SingleLineAdapter</text>
</a>
</g>
</g>
<!-- Node1&#45;&gt;Node5 -->
<g id="edge4_Node000001_Node000005" class="edge">
<title>Node1&#45;&gt;Node5</title>
<g id="a_edge4_Node000001_Node000005"><a xlink:title=" ">
<path fill="none" stroke="#63b8ff" d="M546.81,-185.45C521.46,-177.72 492.03,-168.75 467.19,-161.18"/>
<polygon fill="#63b8ff" stroke="#63b8ff" points="546.09,-188.89 556.67,-188.46 548.13,-182.19 546.09,-188.89"/>
</a>
</g>
</g>
<!-- Node6 -->
<g id="Node000006" class="node">
<title>Node6</title>
<g id="a_Node000006"><a xlink:href="classiii__drone_1_1control_1_1CombinedDroneAwarenessHandler.html#aca25e593ebb1307381959a3b1e5a751c" target="_top" xlink:title="Updates the drone location of a combined drone awareness object based on current awareness informatio...">
<polygon fill="white" stroke="#666666" points="508,-106 315,-106 315,-65 508,-65 508,-106"/>
<text text-anchor="start" x="323" y="-94" font-family="Helvetica,sans-Serif" font-size="10.00">iii_drone::control</text>
<text text-anchor="start" x="323" y="-83" font-family="Helvetica,sans-Serif" font-size="10.00">::CombinedDroneAwarenessHandler</text>
<text text-anchor="middle" x="411.5" y="-72" font-family="Helvetica,sans-Serif" font-size="10.00">::updateDroneLocation</text>
</a>
</g>
</g>
<!-- Node1&#45;&gt;Node6 -->
<g id="edge5_Node000001_Node000006" class="edge">
<title>Node1&#45;&gt;Node6</title>
<g id="a_edge5_Node000001_Node000006"><a xlink:title=" ">
<path fill="none" stroke="#63b8ff" d="M586.15,-180.88C567.7,-161.1 538.52,-132.89 508,-115.5 501.96,-112.06 495.48,-108.96 488.84,-106.18"/>
<polygon fill="#63b8ff" stroke="#63b8ff" points="583.58,-183.25 592.92,-188.26 588.75,-178.52 583.58,-183.25"/>
</a>
</g>
</g>
<!-- Node7 -->
<g id="Node000007" class="node">
<title>Node7</title>
<g id="a_Node000007"><a xlink:href="classiii__drone_1_1control_1_1CombinedDroneAwarenessHandler.html#ab9e4d04b91ff4a8df5113ccdc0356484" target="_top" xlink:title="Updates the given combined drone awareness from the powerline. Triggers updates of target_cable_posit...">
<polygon fill="white" stroke="#666666" points="270,-171 9,-171 9,-130 270,-130 270,-171"/>
<text text-anchor="start" x="17" y="-159" font-family="Helvetica,sans-Serif" font-size="10.00">iii_drone::control</text>
<text text-anchor="start" x="17" y="-148" font-family="Helvetica,sans-Serif" font-size="10.00">::CombinedDroneAwarenessHandler</text>
<text text-anchor="middle" x="139.5" y="-137" font-family="Helvetica,sans-Serif" font-size="10.00">::updateCombinedDroneAwarenessFromPowerline</text>
</a>
</g>
</g>
<!-- Node6&#45;&gt;Node7 -->
<g id="edge6_Node000006_Node000007" class="edge">
<title>Node6&#45;&gt;Node7</title>
<g id="a_edge6_Node000006_Node000007"><a xlink:title=" ">
<path fill="none" stroke="#63b8ff" d="M325.79,-108.67C310.26,-112.74 294.17,-116.84 279,-120.5 265.85,-123.67 251.95,-126.87 238.24,-129.93"/>
<polygon fill="#63b8ff" stroke="#63b8ff" points="327.12,-111.94 335.9,-106.01 325.33,-105.17 327.12,-111.94"/>
</a>
</g>
</g>
<!-- Node8 -->
<g id="Node000008" class="node">
<title>Node8</title>
<g id="a_Node000008"><a xlink:href="classiii__drone_1_1control_1_1CombinedDroneAwarenessHandler.html#a197c146061816403499a4e652a8fe646" target="_top" xlink:title="Updates the given combined drone awareness from the vehicle odometry. Triggers updates of ground alti...">
<polygon fill="white" stroke="#666666" points="263.5,-111.5 15.5,-111.5 15.5,-59.5 263.5,-59.5 263.5,-111.5"/>
<text text-anchor="start" x="23.5" y="-99.5" font-family="Helvetica,sans-Serif" font-size="10.00">iii_drone::control</text>
<text text-anchor="start" x="23.5" y="-88.5" font-family="Helvetica,sans-Serif" font-size="10.00">::CombinedDroneAwarenessHandler</text>
<text text-anchor="start" x="23.5" y="-77.5" font-family="Helvetica,sans-Serif" font-size="10.00">::updateCombinedDroneAwarenessFromVehicle</text>
<text text-anchor="middle" x="139.5" y="-66.5" font-family="Helvetica,sans-Serif" font-size="10.00">Odometry</text>
</a>
</g>
</g>
<!-- Node6&#45;&gt;Node8 -->
<g id="edge7_Node000006_Node000008" class="edge">
<title>Node6&#45;&gt;Node8</title>
<g id="a_edge7_Node000006_Node000008"><a xlink:title=" ">
<path fill="none" stroke="#63b8ff" d="M304.75,-85.5C291.33,-85.5 277.51,-85.5 263.84,-85.5"/>
<polygon fill="#63b8ff" stroke="#63b8ff" points="304.93,-89 314.93,-85.5 304.93,-82 304.93,-89"/>
</a>
</g>
</g>
<!-- Node9 -->
<g id="Node000009" class="node">
<title>Node9</title>
<g id="a_Node000009"><a xlink:href="classiii__drone_1_1control_1_1CombinedDroneAwarenessHandler.html#a7055ad9c6b81c69e2f810d40c9448fcf" target="_top" xlink:title="Updates the given combined drone awareness from the vehicle status. Triggers updates of armed,...">
<polygon fill="white" stroke="#666666" points="279,-41 0,-41 0,0 279,0 279,-41"/>
<text text-anchor="start" x="8" y="-29" font-family="Helvetica,sans-Serif" font-size="10.00">iii_drone::control</text>
<text text-anchor="start" x="8" y="-18" font-family="Helvetica,sans-Serif" font-size="10.00">::CombinedDroneAwarenessHandler</text>
<text text-anchor="middle" x="139.5" y="-7" font-family="Helvetica,sans-Serif" font-size="10.00">::updateCombinedDroneAwarenessFromVehicleStatus</text>
</a>
</g>
</g>
<!-- Node6&#45;&gt;Node9 -->
<g id="edge8_Node000006_Node000009" class="edge">
<title>Node6&#45;&gt;Node9</title>
<g id="a_edge8_Node000006_Node000009"><a xlink:title=" ">
<path fill="none" stroke="#63b8ff" d="M325.79,-62.33C310.26,-58.26 294.17,-54.16 279,-50.5 265.85,-47.33 251.95,-44.13 238.24,-41.07"/>
<polygon fill="#63b8ff" stroke="#63b8ff" points="325.33,-65.83 335.9,-64.99 327.12,-59.06 325.33,-65.83"/>
</a>
</g>
</g>
</g>
</svg>
