<?xml version="1.0" encoding="UTF-8" standalone="no"?>
<!DOCTYPE svg PUBLIC "-//W3C//DTD SVG 1.1//EN"
 "http://www.w3.org/Graphics/SVG/1.1/DTD/svg11.dtd">
<!-- Generated by graphviz version 2.43.0 (0)
 -->
<!-- Title: iii_drone::adapters::TargetAdapter::target_id Pages: 1 -->
<svg width="917pt" height="334pt"
 viewBox="0.00 0.00 917.00 334.00" xmlns="http://www.w3.org/2000/svg" xmlns:xlink="http://www.w3.org/1999/xlink">
<g id="graph0" class="graph" transform="scale(1 1) rotate(0) translate(4 330)">
<title>iii_drone::adapters::TargetAdapter::target_id</title>
<!-- Node1 -->
<g id="Node000001" class="node">
<title>Node1</title>
<g id="a_Node000001"><a xlink:title="Gets the target id.">
<polygon fill="#999999" stroke="#666666" points="909,-121.5 769,-121.5 769,-91.5 909,-91.5 909,-121.5"/>
<text text-anchor="start" x="777" y="-109.5" font-family="Helvetica,sans-Serif" font-size="10.00">iii_drone::adapters</text>
<text text-anchor="middle" x="839" y="-98.5" font-family="Helvetica,sans-Serif" font-size="10.00">::TargetAdapter::target_id</text>
</a>
</g>
</g>
<!-- Node2 -->
<g id="Node000002" class="node">
<title>Node2</title>
<g id="a_Node000002"><a xlink:href="classiii__drone_1_1control_1_1CombinedDroneAwarenessHandler.html#ab9c3e7f08103bc40c70efd3ca93f040b" target="_top" xlink:title="Computes a target transform given a target adapter.">
<polygon fill="white" stroke="#666666" points="699,-208 506,-208 506,-167 699,-167 699,-208"/>
<text text-anchor="start" x="514" y="-196" font-family="Helvetica,sans-Serif" font-size="10.00">iii_drone::control</text>
<text text-anchor="start" x="514" y="-185" font-family="Helvetica,sans-Serif" font-size="10.00">::CombinedDroneAwarenessHandler</text>
<text text-anchor="middle" x="602.5" y="-174" font-family="Helvetica,sans-Serif" font-size="10.00">::ComputeTargetTransform</text>
</a>
</g>
</g>
<!-- Node1&#45;&gt;Node2 -->
<g id="edge1_Node000001_Node000002" class="edge">
<title>Node1&#45;&gt;Node2</title>
<g id="a_edge1_Node000001_Node000002"><a xlink:title=" ">
<path fill="none" stroke="#63b8ff" d="M802.09,-126.43C782.2,-136.83 756.75,-149.1 733,-157.5 722.23,-161.31 710.78,-164.77 699.32,-167.87"/>
<polygon fill="#63b8ff" stroke="#63b8ff" points="803.9,-129.44 811.09,-121.66 800.62,-123.25 803.9,-129.44"/>
</a>
</g>
</g>
<!-- Node12 -->
<g id="Node000012" class="node">
<title>Node12</title>
<g id="a_Node000012"><a xlink:href="classiii__drone_1_1adapters_1_1TargetAdapter.html#a02f46224e81f2d74df6bf0f308d1535b" target="_top" xlink:title="Constructor from members.">
<polygon fill="white" stroke="#666666" points="685,-148.5 520,-148.5 520,-118.5 685,-118.5 685,-148.5"/>
<text text-anchor="start" x="528" y="-136.5" font-family="Helvetica,sans-Serif" font-size="10.00">iii_drone::adapters</text>
<text text-anchor="middle" x="602.5" y="-125.5" font-family="Helvetica,sans-Serif" font-size="10.00">::TargetAdapter::TargetAdapter</text>
</a>
</g>
</g>
<!-- Node1&#45;&gt;Node12 -->
<g id="edge11_Node000001_Node000012" class="edge">
<title>Node1&#45;&gt;Node12</title>
<g id="a_edge11_Node000001_Node000012"><a xlink:title=" ">
<path fill="none" stroke="#63b8ff" d="M758.91,-115.61C735.22,-118.33 709.2,-121.33 685.33,-124.08"/>
<polygon fill="#63b8ff" stroke="#63b8ff" points="759.38,-119.08 768.91,-114.45 758.58,-112.12 759.38,-119.08"/>
</a>
</g>
</g>
<!-- Node13 -->
<g id="Node000013" class="node">
<title>Node13</title>
<g id="a_Node000013"><a xlink:href="classiii__drone_1_1control_1_1CombinedDroneAwarenessHandler.html#ab9e4d04b91ff4a8df5113ccdc0356484" target="_top" xlink:title="Updates the given combined drone awareness from the powerline. Triggers updates of target_cable_posit...">
<polygon fill="white" stroke="#666666" points="733,-100 472,-100 472,-59 733,-59 733,-100"/>
<text text-anchor="start" x="480" y="-88" font-family="Helvetica,sans-Serif" font-size="10.00">iii_drone::control</text>
<text text-anchor="start" x="480" y="-77" font-family="Helvetica,sans-Serif" font-size="10.00">::CombinedDroneAwarenessHandler</text>
<text text-anchor="middle" x="602.5" y="-66" font-family="Helvetica,sans-Serif" font-size="10.00">::updateCombinedDroneAwarenessFromPowerline</text>
</a>
</g>
</g>
<!-- Node1&#45;&gt;Node13 -->
<g id="edge12_Node000001_Node000013" class="edge">
<title>Node1&#45;&gt;Node13</title>
<g id="a_edge12_Node000001_Node000013"><a xlink:title=" ">
<path fill="none" stroke="#63b8ff" d="M758.9,-97.39C750.56,-96.43 741.94,-95.44 733.22,-94.44"/>
<polygon fill="#63b8ff" stroke="#63b8ff" points="758.58,-100.88 768.91,-98.55 759.38,-93.92 758.58,-100.88"/>
</a>
</g>
</g>
<!-- Node14 -->
<g id="Node000014" class="node">
<title>Node14</title>
<g id="a_Node000014"><a xlink:href="classiii__drone_1_1control_1_1CombinedDroneAwarenessHandler.html#a035e99c1ac97de2388356b0ac3260108" target="_top" xlink:title="Updates the given combined drone awareness from the target adapter. Triggers updates of target_adapte...">
<polygon fill="white" stroke="#666666" points="724,-41 481,-41 481,0 724,0 724,-41"/>
<text text-anchor="start" x="489" y="-29" font-family="Helvetica,sans-Serif" font-size="10.00">iii_drone::control</text>
<text text-anchor="start" x="489" y="-18" font-family="Helvetica,sans-Serif" font-size="10.00">::CombinedDroneAwarenessHandler</text>
<text text-anchor="middle" x="602.5" y="-7" font-family="Helvetica,sans-Serif" font-size="10.00">::updateCombinedDroneAwarenessFromTarget</text>
</a>
</g>
</g>
<!-- Node1&#45;&gt;Node14 -->
<g id="edge13_Node000001_Node000014" class="edge">
<title>Node1&#45;&gt;Node14</title>
<g id="a_edge13_Node000001_Node000014"><a xlink:title=" ">
<path fill="none" stroke="#63b8ff" d="M805.92,-86.05C785.67,-73.93 758.6,-59.1 733,-49.5 724.8,-46.43 716.19,-43.62 707.45,-41.08"/>
<polygon fill="#63b8ff" stroke="#63b8ff" points="804.35,-89.19 814.71,-91.4 807.99,-83.21 804.35,-89.19"/>
</a>
</g>
</g>
<!-- Node3 -->
<g id="Node000003" class="node">
<title>Node3</title>
<g id="a_Node000003"><a xlink:href="classiii__drone_1_1control_1_1maneuver_1_1FlyToObjectManeuverServer.html#a7a9d2b2d6d91f20491eab552a16f9955" target="_top" xlink:title="Whether the maneuver can be executed.">
<polygon fill="white" stroke="#666666" points="428,-326 244,-326 244,-285 428,-285 428,-326"/>
<text text-anchor="start" x="252" y="-314" font-family="Helvetica,sans-Serif" font-size="10.00">iii_drone::control</text>
<text text-anchor="start" x="252" y="-303" font-family="Helvetica,sans-Serif" font-size="10.00">::maneuver::FlyToObjectManeuver</text>
<text text-anchor="middle" x="336" y="-292" font-family="Helvetica,sans-Serif" font-size="10.00">Server::CanExecuteManeuver</text>
</a>
</g>
</g>
<!-- Node2&#45;&gt;Node3 -->
<g id="edge2_Node000002_Node000003" class="edge">
<title>Node2&#45;&gt;Node3</title>
<g id="a_edge2_Node000002_Node000003"><a xlink:title=" ">
<path fill="none" stroke="#63b8ff" d="M559.43,-213.3C526.67,-232.59 479.59,-258.62 436,-276.5 428.71,-279.49 421,-282.31 413.23,-284.93"/>
<polygon fill="#63b8ff" stroke="#63b8ff" points="561.46,-216.16 568.28,-208.04 557.89,-210.14 561.46,-216.16"/>
</a>
</g>
</g>
<!-- Node4 -->
<g id="Node000004" class="node">
<title>Node4</title>
<g id="a_Node000004"><a xlink:href="classiii__drone_1_1control_1_1maneuver_1_1HoverByObjectManeuverServer.html#a43a1bd4911d8cb93397ab2eeabd61ee4" target="_top" xlink:title="Whether the maneuver can be executed, will return false if the target is not visible or the drone has...">
<polygon fill="white" stroke="#666666" points="436,-267 236,-267 236,-226 436,-226 436,-267"/>
<text text-anchor="start" x="244" y="-255" font-family="Helvetica,sans-Serif" font-size="10.00">iii_drone::control</text>
<text text-anchor="start" x="244" y="-244" font-family="Helvetica,sans-Serif" font-size="10.00">::maneuver::HoverByObjectManeuver</text>
<text text-anchor="middle" x="336" y="-233" font-family="Helvetica,sans-Serif" font-size="10.00">Server::CanExecuteManeuver</text>
</a>
</g>
</g>
<!-- Node2&#45;&gt;Node4 -->
<g id="edge3_Node000002_Node000004" class="edge">
<title>Node2&#45;&gt;Node4</title>
<g id="a_edge3_Node000002_Node000004"><a xlink:title=" ">
<path fill="none" stroke="#63b8ff" d="M499.54,-210.24C476.4,-215.4 451.96,-220.86 429.26,-225.92"/>
<polygon fill="#63b8ff" stroke="#63b8ff" points="500.36,-213.65 509.36,-208.05 498.84,-206.81 500.36,-213.65"/>
</a>
</g>
</g>
<!-- Node5 -->
<g id="Node000005" class="node">
<title>Node5</title>
<g id="a_Node000005"><a xlink:href="classiii__drone_1_1control_1_1maneuver_1_1HoverByObjectManeuverServer.html#a4eb2e2eafbed623aeb6b16536465f896" target="_top" xlink:title="Gets the hover reference. The current state is not used. Will call the on fail callback if the target...">
<polygon fill="white" stroke="#666666" points="436,-208 236,-208 236,-167 436,-167 436,-208"/>
<text text-anchor="start" x="244" y="-196" font-family="Helvetica,sans-Serif" font-size="10.00">iii_drone::control</text>
<text text-anchor="start" x="244" y="-185" font-family="Helvetica,sans-Serif" font-size="10.00">::maneuver::HoverByObjectManeuver</text>
<text text-anchor="middle" x="336" y="-174" font-family="Helvetica,sans-Serif" font-size="10.00">Server::GetReference</text>
</a>
</g>
</g>
<!-- Node2&#45;&gt;Node5 -->
<g id="edge4_Node000002_Node000005" class="edge">
<title>Node2&#45;&gt;Node5</title>
<g id="a_edge4_Node000002_Node000005"><a xlink:title=" ">
<path fill="none" stroke="#63b8ff" d="M495.47,-187.5C475.87,-187.5 455.48,-187.5 436.1,-187.5"/>
<polygon fill="#63b8ff" stroke="#63b8ff" points="495.64,-191 505.64,-187.5 495.64,-184 495.64,-191"/>
</a>
</g>
</g>
<!-- Node9 -->
<g id="Node000009" class="node">
<title>Node9</title>
<g id="a_Node000009"><a xlink:href="classiii__drone_1_1control_1_1maneuver_1_1HoverByObjectManeuverServer.html#a7e09c4b73237e76701d9e83785e05077" target="_top" xlink:title="Returns true if the maneuver has succeeded. Has succeeded if the target is visible and the drone is w...">
<polygon fill="white" stroke="#666666" points="436,-149 236,-149 236,-108 436,-108 436,-149"/>
<text text-anchor="start" x="244" y="-137" font-family="Helvetica,sans-Serif" font-size="10.00">iii_drone::control</text>
<text text-anchor="start" x="244" y="-126" font-family="Helvetica,sans-Serif" font-size="10.00">::maneuver::HoverByObjectManeuver</text>
<text text-anchor="middle" x="336" y="-115" font-family="Helvetica,sans-Serif" font-size="10.00">Server::hasSucceeded</text>
</a>
</g>
</g>
<!-- Node2&#45;&gt;Node9 -->
<g id="edge8_Node000002_Node000009" class="edge">
<title>Node2&#45;&gt;Node9</title>
<g id="a_edge8_Node000002_Node000009"><a xlink:title=" ">
<path fill="none" stroke="#63b8ff" d="M499.54,-164.76C476.4,-159.6 451.96,-154.14 429.26,-149.08"/>
<polygon fill="#63b8ff" stroke="#63b8ff" points="498.84,-168.19 509.36,-166.95 500.36,-161.35 498.84,-168.19"/>
</a>
</g>
</g>
<!-- Node11 -->
<g id="Node000011" class="node">
<title>Node11</title>
<g id="a_Node000011"><a xlink:href="classiii__drone_1_1control_1_1maneuver_1_1HoverByObjectManeuverServer.html#ac08b547da2cbfe0165a2ccca6b639c02" target="_top" xlink:title="Updates the hover reference.">
<polygon fill="white" stroke="#666666" points="436,-90 236,-90 236,-49 436,-49 436,-90"/>
<text text-anchor="start" x="244" y="-78" font-family="Helvetica,sans-Serif" font-size="10.00">iii_drone::control</text>
<text text-anchor="start" x="244" y="-67" font-family="Helvetica,sans-Serif" font-size="10.00">::maneuver::HoverByObjectManeuver</text>
<text text-anchor="middle" x="336" y="-56" font-family="Helvetica,sans-Serif" font-size="10.00">Server::Update</text>
</a>
</g>
</g>
<!-- Node2&#45;&gt;Node11 -->
<g id="edge10_Node000002_Node000011" class="edge">
<title>Node2&#45;&gt;Node11</title>
<g id="a_edge10_Node000002_Node000011"><a xlink:title=" ">
<path fill="none" stroke="#63b8ff" d="M496.26,-170.91C487.65,-167.27 479.42,-162.86 472,-157.5 447.09,-139.52 460.38,-117.19 436,-98.5 431.88,-95.34 427.42,-92.52 422.75,-90.02"/>
<polygon fill="#63b8ff" stroke="#63b8ff" points="495.14,-174.23 505.73,-174.57 497.66,-167.7 495.14,-174.23"/>
</a>
</g>
</g>
<!-- Node6 -->
<g id="Node000006" class="node">
<title>Node6</title>
<g id="a_Node000006"><a xlink:href="classiii__drone_1_1control_1_1maneuver_1_1HoverByObjectManeuverServer.html#a8651f18cdc5c9b85ff145c7decac4ddc" target="_top" xlink:title="Computes the hover by object reference for the maneuver server.">
<polygon fill="white" stroke="#666666" points="200,-308 0,-308 0,-267 200,-267 200,-308"/>
<text text-anchor="start" x="8" y="-296" font-family="Helvetica,sans-Serif" font-size="10.00">iii_drone::control</text>
<text text-anchor="start" x="8" y="-285" font-family="Helvetica,sans-Serif" font-size="10.00">::maneuver::HoverByObjectManeuver</text>
<text text-anchor="middle" x="100" y="-274" font-family="Helvetica,sans-Serif" font-size="10.00">Server::computeReference</text>
</a>
</g>
</g>
<!-- Node5&#45;&gt;Node6 -->
<g id="edge5_Node000005_Node000006" class="edge">
<title>Node5&#45;&gt;Node6</title>
<g id="a_edge5_Node000005_Node000006"><a xlink:title=" ">
<path fill="none" stroke="#63b8ff" d="M244.6,-212.52C241.64,-214.08 238.77,-215.74 236,-217.5 215.81,-230.33 220.19,-244.67 200,-257.5 194.47,-261.02 188.5,-264.14 182.33,-266.91"/>
<polygon fill="#63b8ff" stroke="#63b8ff" points="246.21,-215.62 253.67,-208.09 243.14,-209.33 246.21,-215.62"/>
</a>
</g>
</g>
<!-- Node7 -->
<g id="Node000007" class="node">
<title>Node7</title>
<g id="a_Node000007"><a xlink:href="classiii__drone_1_1control_1_1maneuver_1_1FlyToObjectManeuverServer.html#a8cd7c6981d54cd5aa868f25d843ad0d0" target="_top" xlink:title="Registers the hover by object reference callback on success.">
<polygon fill="white" stroke="#666666" points="198.5,-248.5 1.5,-248.5 1.5,-196.5 198.5,-196.5 198.5,-248.5"/>
<text text-anchor="start" x="9.5" y="-236.5" font-family="Helvetica,sans-Serif" font-size="10.00">iii_drone::control</text>
<text text-anchor="start" x="9.5" y="-225.5" font-family="Helvetica,sans-Serif" font-size="10.00">::maneuver::FlyToObjectManeuver</text>
<text text-anchor="start" x="9.5" y="-214.5" font-family="Helvetica,sans-Serif" font-size="10.00">Server::registerReferenceCallbackOn</text>
<text text-anchor="middle" x="100" y="-203.5" font-family="Helvetica,sans-Serif" font-size="10.00">Success</text>
</a>
</g>
</g>
<!-- Node5&#45;&gt;Node7 -->
<g id="edge6_Node000005_Node000007" class="edge">
<title>Node5&#45;&gt;Node7</title>
<g id="a_edge6_Node000005_Node000007"><a xlink:title=" ">
<path fill="none" stroke="#63b8ff" d="M225.6,-203.86C216.56,-205.22 207.46,-206.58 198.52,-207.91"/>
<polygon fill="#63b8ff" stroke="#63b8ff" points="226.39,-207.28 235.76,-202.34 225.36,-200.36 226.39,-207.28"/>
</a>
</g>
</g>
<!-- Node8 -->
<g id="Node000008" class="node">
<title>Node8</title>
<g id="a_Node000008"><a xlink:href="classiii__drone_1_1control_1_1maneuver_1_1HoverByObjectManeuverServer.html#a42d65b247ee89440e63ed7c992c4772e" target="_top" xlink:title="Registers the hover by object reference callback on success.">
<polygon fill="white" stroke="#666666" points="200,-178.5 0,-178.5 0,-126.5 200,-126.5 200,-178.5"/>
<text text-anchor="start" x="8" y="-166.5" font-family="Helvetica,sans-Serif" font-size="10.00">iii_drone::control</text>
<text text-anchor="start" x="8" y="-155.5" font-family="Helvetica,sans-Serif" font-size="10.00">::maneuver::HoverByObjectManeuver</text>
<text text-anchor="start" x="8" y="-144.5" font-family="Helvetica,sans-Serif" font-size="10.00">Server::registerReferenceCallbackOn</text>
<text text-anchor="middle" x="100" y="-133.5" font-family="Helvetica,sans-Serif" font-size="10.00">Success</text>
</a>
</g>
</g>
<!-- Node5&#45;&gt;Node8 -->
<g id="edge7_Node000005_Node000008" class="edge">
<title>Node5&#45;&gt;Node8</title>
<g id="a_edge7_Node000005_Node000008"><a xlink:title=" ">
<path fill="none" stroke="#63b8ff" d="M225.73,-171.16C217.15,-169.87 208.52,-168.58 200.02,-167.31"/>
<polygon fill="#63b8ff" stroke="#63b8ff" points="225.36,-174.64 235.76,-172.66 226.39,-167.72 225.36,-174.64"/>
</a>
</g>
</g>
<!-- Node10 -->
<g id="Node000010" class="node">
<title>Node10</title>
<g id="a_Node000010"><a xlink:href="classiii__drone_1_1control_1_1maneuver_1_1HoverByObjectManeuverServer.html#af8528504b83c4c9b405f496ccc269e10" target="_top" xlink:title="Returns true if the maneuver has failed. Has failed if the target is not visible or the drone has dri...">
<polygon fill="white" stroke="#666666" points="200,-108 0,-108 0,-67 200,-67 200,-108"/>
<text text-anchor="start" x="8" y="-96" font-family="Helvetica,sans-Serif" font-size="10.00">iii_drone::control</text>
<text text-anchor="start" x="8" y="-85" font-family="Helvetica,sans-Serif" font-size="10.00">::maneuver::HoverByObjectManeuver</text>
<text text-anchor="middle" x="100" y="-74" font-family="Helvetica,sans-Serif" font-size="10.00">Server::hasFailed</text>
</a>
</g>
</g>
<!-- Node9&#45;&gt;Node10 -->
<g id="edge9_Node000009_Node000010" class="edge">
<title>Node9&#45;&gt;Node10</title>
<g id="a_edge9_Node000009_Node000010"><a xlink:title=" ">
<path fill="none" stroke="#63b8ff" d="M225.73,-109.35C217.15,-107.85 208.52,-106.34 200.02,-104.85"/>
<polygon fill="#63b8ff" stroke="#63b8ff" points="225.31,-112.83 235.76,-111.11 226.52,-105.94 225.31,-112.83"/>
</a>
</g>
</g>
</g>
</svg>
