<?xml version="1.0" encoding="UTF-8" standalone="no"?>
<!DOCTYPE svg PUBLIC "-//W3C//DTD SVG 1.1//EN"
 "http://www.w3.org/Graphics/SVG/1.1/DTD/svg11.dtd">
<!-- Generated by graphviz version 2.43.0 (0)
 -->
<!-- Title: iii_drone::control::maneuver::ManeuverQueue::find Pages: 1 -->
<svg width="1253pt" height="127pt"
 viewBox="0.00 0.00 1253.00 126.50" xmlns="http://www.w3.org/2000/svg" xmlns:xlink="http://www.w3.org/1999/xlink">
<g id="graph0" class="graph" transform="scale(1 1) rotate(0) translate(4 122.5)">
<title>iii_drone::control::maneuver::ManeuverQueue::find</title>
<!-- Node1 -->
<g id="Node000001" class="node">
<title>Node1</title>
<g id="a_Node000001"><a xlink:title="Finds a maneuver in the queue by its UUID.">
<polygon fill="#999999" stroke="#666666" points="1245,-91.5 1063,-91.5 1063,-61.5 1245,-61.5 1245,-91.5"/>
<text text-anchor="start" x="1071" y="-79.5" font-family="Helvetica,sans-Serif" font-size="10.00">iii_drone::control</text>
<text text-anchor="middle" x="1154" y="-68.5" font-family="Helvetica,sans-Serif" font-size="10.00">::maneuver::ManeuverQueue::find</text>
</a>
</g>
</g>
<!-- Node2 -->
<g id="Node000002" class="node">
<title>Node2</title>
<g id="a_Node000002"><a xlink:href="classiii__drone_1_1control_1_1maneuver_1_1ManeuverQueue.html#a76acc1a7540ee1b506f7b72607b4081f" target="_top" xlink:title="Finds a maneuver from UUID.">
<polygon fill="white" stroke="#666666" points="1027,-118.5 842,-118.5 842,-88.5 1027,-88.5 1027,-118.5"/>
<text text-anchor="start" x="850" y="-106.5" font-family="Helvetica,sans-Serif" font-size="10.00">iii_drone::control</text>
<text text-anchor="middle" x="934.5" y="-95.5" font-family="Helvetica,sans-Serif" font-size="10.00">::maneuver::ManeuverQueue::Find</text>
</a>
</g>
</g>
<!-- Node1&#45;&gt;Node2 -->
<g id="edge1_Node000001_Node000002" class="edge">
<title>Node1&#45;&gt;Node2</title>
<g id="a_edge1_Node000001_Node000002"><a xlink:title=" ">
<path fill="none" stroke="#63b8ff" d="M1052.95,-88.92C1044.37,-89.98 1035.73,-91.06 1027.22,-92.11"/>
<polygon fill="#63b8ff" stroke="#63b8ff" points="1053.47,-92.38 1062.96,-87.68 1052.61,-85.44 1053.47,-92.38"/>
</a>
</g>
</g>
<!-- Node7 -->
<g id="Node000007" class="node">
<title>Node7</title>
<g id="a_Node000007"><a xlink:href="classiii__drone_1_1control_1_1maneuver_1_1ManeuverQueue.html#ad3db1eaff352424f72c3ee535b7fd522" target="_top" xlink:title="Updates a maneuver in the queue. Replace the first occurrence of the maneuver.">
<polygon fill="white" stroke="#666666" points="1013.5,-70 855.5,-70 855.5,-29 1013.5,-29 1013.5,-70"/>
<text text-anchor="start" x="863.5" y="-58" font-family="Helvetica,sans-Serif" font-size="10.00">iii_drone::control</text>
<text text-anchor="start" x="863.5" y="-47" font-family="Helvetica,sans-Serif" font-size="10.00">::maneuver::ManeuverQueue</text>
<text text-anchor="middle" x="934.5" y="-36" font-family="Helvetica,sans-Serif" font-size="10.00">::Update</text>
</a>
</g>
</g>
<!-- Node1&#45;&gt;Node7 -->
<g id="edge7_Node000001_Node000007" class="edge">
<title>Node1&#45;&gt;Node7</title>
<g id="a_edge7_Node000001_Node000007"><a xlink:title=" ">
<path fill="none" stroke="#63b8ff" d="M1052.94,-64.08C1039.76,-62.44 1026.41,-60.79 1013.67,-59.2"/>
<polygon fill="#63b8ff" stroke="#63b8ff" points="1052.61,-67.56 1062.96,-65.32 1053.47,-60.62 1052.61,-67.56"/>
</a>
</g>
</g>
<!-- Node3 -->
<g id="Node000003" class="node">
<title>Node3</title>
<g id="a_Node000003"><a xlink:href="classiii__drone_1_1control_1_1maneuver_1_1ManeuverScheduler.html#ab393b4204a5c4368ee503e9af8b27a22" target="_top" xlink:title="Registers a maneuver type with a maneuver server.">
<polygon fill="white" stroke="#666666" points="595,-100 420,-100 420,-59 595,-59 595,-100"/>
<text text-anchor="start" x="428" y="-88" font-family="Helvetica,sans-Serif" font-size="10.00">iii_drone::control</text>
<text text-anchor="start" x="428" y="-77" font-family="Helvetica,sans-Serif" font-size="10.00">::maneuver::ManeuverScheduler</text>
<text text-anchor="middle" x="507.5" y="-66" font-family="Helvetica,sans-Serif" font-size="10.00">::RegisterManeuverServer</text>
</a>
</g>
</g>
<!-- Node2&#45;&gt;Node3 -->
<g id="edge2_Node000002_Node000003" class="edge">
<title>Node2&#45;&gt;Node3</title>
<g id="a_edge2_Node000002_Node000003"><a xlink:title=" ">
<path fill="none" stroke="#63b8ff" d="M831.78,-112.57C772.92,-116.06 697.55,-117.53 631,-109.5 614.26,-107.48 596.51,-103.96 579.87,-100.03"/>
<polygon fill="#63b8ff" stroke="#63b8ff" points="832.07,-116.06 841.83,-111.95 831.63,-109.08 832.07,-116.06"/>
</a>
</g>
</g>
<!-- Node6 -->
<g id="Node000006" class="node">
<title>Node6</title>
<g id="a_Node000006"><a xlink:href="classiii__drone_1_1control_1_1maneuver_1_1ManeuverScheduler.html#a0c01b257aa516fb896fdc59e91304540" target="_top" xlink:title="Updates a maneuver entry which has been registered with the correct goal handle after the maneuver ha...">
<polygon fill="white" stroke="#666666" points="806,-100 631,-100 631,-59 806,-59 806,-100"/>
<text text-anchor="start" x="639" y="-88" font-family="Helvetica,sans-Serif" font-size="10.00">iii_drone::control</text>
<text text-anchor="start" x="639" y="-77" font-family="Helvetica,sans-Serif" font-size="10.00">::maneuver::ManeuverScheduler</text>
<text text-anchor="middle" x="718.5" y="-66" font-family="Helvetica,sans-Serif" font-size="10.00">::UpdateManeuver</text>
</a>
</g>
</g>
<!-- Node2&#45;&gt;Node6 -->
<g id="edge5_Node000002_Node000006" class="edge">
<title>Node2&#45;&gt;Node6</title>
<g id="a_edge5_Node000002_Node000006"><a xlink:title=" ">
<path fill="none" stroke="#63b8ff" d="M831.81,-92.1C823.26,-91.14 814.67,-90.17 806.25,-89.23"/>
<polygon fill="#63b8ff" stroke="#63b8ff" points="831.49,-95.58 841.81,-93.22 832.27,-88.62 831.49,-95.58"/>
</a>
</g>
</g>
<!-- Node4 -->
<g id="Node000004" class="node">
<title>Node4</title>
<g id="a_Node000004"><a xlink:href="classiii__drone_1_1control_1_1maneuver__controller__node_1_1ManeuverControllerNode.html#a1c587895df3c61bd6b748e97942cd619" target="_top" xlink:title="Creates and registers all maneuver servers with the maneuver scheduler.">
<polygon fill="white" stroke="#666666" points="384,-105.5 210,-105.5 210,-53.5 384,-53.5 384,-105.5"/>
<text text-anchor="start" x="218" y="-93.5" font-family="Helvetica,sans-Serif" font-size="10.00">iii_drone::control</text>
<text text-anchor="start" x="218" y="-82.5" font-family="Helvetica,sans-Serif" font-size="10.00">::maneuver_controller</text>
<text text-anchor="start" x="218" y="-71.5" font-family="Helvetica,sans-Serif" font-size="10.00">_node::ManeuverControllerNode</text>
<text text-anchor="middle" x="297" y="-60.5" font-family="Helvetica,sans-Serif" font-size="10.00">::registerManeuverServers</text>
</a>
</g>
</g>
<!-- Node3&#45;&gt;Node4 -->
<g id="edge3_Node000003_Node000004" class="edge">
<title>Node3&#45;&gt;Node4</title>
<g id="a_edge3_Node000003_Node000004"><a xlink:title=" ">
<path fill="none" stroke="#63b8ff" d="M409.82,-79.5C401.21,-79.5 392.52,-79.5 384.01,-79.5"/>
<polygon fill="#63b8ff" stroke="#63b8ff" points="409.89,-83 419.89,-79.5 409.89,-76 409.89,-83"/>
</a>
</g>
</g>
<!-- Node5 -->
<g id="Node000005" class="node">
<title>Node5</title>
<g id="a_Node000005"><a xlink:href="classiii__drone_1_1control_1_1maneuver__controller__node_1_1ManeuverControllerNode.html#a291f0abf320443ed6ad4a248ba028b8c" target="_top" xlink:title="Constructor. Creates the node, initializes the configurator, the transform buffer and listener,...">
<polygon fill="white" stroke="#666666" points="174,-105.5 0,-105.5 0,-53.5 174,-53.5 174,-105.5"/>
<text text-anchor="start" x="8" y="-93.5" font-family="Helvetica,sans-Serif" font-size="10.00">iii_drone::control</text>
<text text-anchor="start" x="8" y="-82.5" font-family="Helvetica,sans-Serif" font-size="10.00">::maneuver_controller</text>
<text text-anchor="start" x="8" y="-71.5" font-family="Helvetica,sans-Serif" font-size="10.00">_node::ManeuverControllerNode</text>
<text text-anchor="middle" x="87" y="-60.5" font-family="Helvetica,sans-Serif" font-size="10.00">::ManeuverControllerNode</text>
</a>
</g>
</g>
<!-- Node4&#45;&gt;Node5 -->
<g id="edge4_Node000004_Node000005" class="edge">
<title>Node4&#45;&gt;Node5</title>
<g id="a_edge4_Node000004_Node000005"><a xlink:title=" ">
<path fill="none" stroke="#63b8ff" d="M199.84,-79.5C191.23,-79.5 182.55,-79.5 174.04,-79.5"/>
<polygon fill="#63b8ff" stroke="#63b8ff" points="199.9,-83 209.9,-79.5 199.9,-76 199.9,-83"/>
</a>
</g>
</g>
<!-- Node6&#45;&gt;Node3 -->
<g id="edge6_Node000006_Node000003" class="edge">
<title>Node6&#45;&gt;Node3</title>
<g id="a_edge6_Node000006_Node000003"><a xlink:title=" ">
<path fill="none" stroke="#63b8ff" d="M620.97,-79.5C612.41,-79.5 603.77,-79.5 595.29,-79.5"/>
<polygon fill="#63b8ff" stroke="#63b8ff" points="620.98,-83 630.98,-79.5 620.98,-76 620.98,-83"/>
</a>
</g>
</g>
<!-- Node7&#45;&gt;Node6 -->
<g id="edge10_Node000007_Node000006" class="edge">
<title>Node7&#45;&gt;Node6</title>
<g id="a_edge10_Node000007_Node000006"><a xlink:title=" ">
<path fill="none" stroke="#63b8ff" d="M845.1,-61.89C832.22,-63.7 818.97,-65.56 806.13,-67.36"/>
<polygon fill="#63b8ff" stroke="#63b8ff" points="845.92,-65.31 855.33,-60.46 844.94,-58.38 845.92,-65.31"/>
</a>
</g>
</g>
<!-- Node8 -->
<g id="Node000008" class="node">
<title>Node8</title>
<g id="a_Node000008"><a xlink:href="classiii__drone_1_1control_1_1maneuver_1_1ManeuverScheduler.html#ae6b24f5665082c8552cdbc5da76069e1" target="_top" xlink:title="Cancels a maneuver entry which has been registered before execution starts.">
<polygon fill="white" stroke="#666666" points="806,-41 631,-41 631,0 806,0 806,-41"/>
<text text-anchor="start" x="639" y="-29" font-family="Helvetica,sans-Serif" font-size="10.00">iii_drone::control</text>
<text text-anchor="start" x="639" y="-18" font-family="Helvetica,sans-Serif" font-size="10.00">::maneuver::ManeuverScheduler</text>
<text text-anchor="middle" x="718.5" y="-7" font-family="Helvetica,sans-Serif" font-size="10.00">::CancelManeuver</text>
</a>
</g>
</g>
<!-- Node7&#45;&gt;Node8 -->
<g id="edge8_Node000007_Node000008" class="edge">
<title>Node7&#45;&gt;Node8</title>
<g id="a_edge8_Node000007_Node000008"><a xlink:title=" ">
<path fill="none" stroke="#63b8ff" d="M845.1,-37.52C832.22,-35.78 818.97,-33.98 806.13,-32.24"/>
<polygon fill="#63b8ff" stroke="#63b8ff" points="844.95,-41.03 855.33,-38.91 845.89,-34.1 844.95,-41.03"/>
</a>
</g>
</g>
<!-- Node8&#45;&gt;Node3 -->
<g id="edge9_Node000008_Node000003" class="edge">
<title>Node8&#45;&gt;Node3</title>
<g id="a_edge9_Node000008_Node000003"><a xlink:title=" ">
<path fill="none" stroke="#63b8ff" d="M634.97,-43.8C617.27,-48.79 598.7,-54.04 581.4,-58.92"/>
<polygon fill="#63b8ff" stroke="#63b8ff" points="636.02,-47.14 644.7,-41.05 634.12,-40.4 636.02,-47.14"/>
</a>
</g>
</g>
</g>
</svg>
