<?xml version="1.0" encoding="UTF-8" standalone="no"?>
<!DOCTYPE svg PUBLIC "-//W3C//DTD SVG 1.1//EN"
 "http://www.w3.org/Graphics/SVG/1.1/DTD/svg11.dtd">
<!-- Generated by graphviz version 2.43.0 (0)
 -->
<!-- Title: iii_drone::adapters::StateAdapter::ToMsg Pages: 1 -->
<svg width="522pt" height="364pt"
 viewBox="0.00 0.00 522.00 364.00" xmlns="http://www.w3.org/2000/svg" xmlns:xlink="http://www.w3.org/1999/xlink">
<g id="graph0" class="graph" transform="scale(1 1) rotate(0) translate(4 360)">
<title>iii_drone::adapters::StateAdapter::ToMsg</title>
<!-- Node1 -->
<g id="Node000001" class="node">
<title>Node1</title>
<g id="a_Node000001"><a xlink:title="Converts to msg.">
<polygon fill="#999999" stroke="#666666" points="123,-198 0,-198 0,-168 123,-168 123,-198"/>
<text text-anchor="start" x="8" y="-186" font-family="Helvetica,sans-Serif" font-size="10.00">iii_drone::adapters</text>
<text text-anchor="middle" x="61.5" y="-175" font-family="Helvetica,sans-Serif" font-size="10.00">::StateAdapter::ToMsg</text>
</a>
</g>
</g>
<!-- Node2 -->
<g id="Node000002" class="node">
<title>Node2</title>
<g id="a_Node000002"><a xlink:href="classiii__drone_1_1control_1_1State.html#a205d6a8a2d57434cb7ea7c257c6647f6" target="_top" xlink:title=" ">
<polygon fill="white" stroke="#666666" points="311,-356 176,-356 176,-326 311,-326 311,-356"/>
<text text-anchor="start" x="184" y="-344" font-family="Helvetica,sans-Serif" font-size="10.00">iii_drone::control</text>
<text text-anchor="middle" x="243.5" y="-333" font-family="Helvetica,sans-Serif" font-size="10.00">::State::angular_velocity</text>
</a>
</g>
</g>
<!-- Node1&#45;&gt;Node2 -->
<g id="edge1_Node000001_Node000002" class="edge">
<title>Node1&#45;&gt;Node2</title>
<g id="a_edge1_Node000001_Node000002"><a xlink:title=" ">
<path fill="none" stroke="#63b8ff" d="M69.34,-198.43C82.54,-226.4 114.22,-285.48 159,-317 161.51,-318.77 164.15,-320.4 166.88,-321.92"/>
<polygon fill="#63b8ff" stroke="#63b8ff" points="165.35,-325.07 175.87,-326.37 168.46,-318.8 165.35,-325.07"/>
</a>
</g>
</g>
<!-- Node3 -->
<g id="Node000003" class="node">
<title>Node3</title>
<g id="a_Node000003"><a xlink:href="namespaceiii__drone_1_1types.html#a9e41bed6f0c8fce5c28c4ddfa25e6a49" target="_top" xlink:title=" ">
<polygon fill="white" stroke="#666666" points="328,-307.5 159,-307.5 159,-288.5 328,-288.5 328,-307.5"/>
<text text-anchor="middle" x="243.5" y="-295.5" font-family="Helvetica,sans-Serif" font-size="10.00">iii_drone::types::poseFromPose</text>
</a>
</g>
</g>
<!-- Node1&#45;&gt;Node3 -->
<g id="edge2_Node000001_Node000003" class="edge">
<title>Node1&#45;&gt;Node3</title>
<g id="a_edge2_Node000001_Node000003"><a xlink:title=" ">
<path fill="none" stroke="#63b8ff" d="M73.38,-198.29C89.53,-219.79 121.94,-258.6 159,-279 163.18,-281.3 167.62,-283.32 172.19,-285.1"/>
<polygon fill="#63b8ff" stroke="#63b8ff" points="171.12,-288.43 181.71,-288.41 173.42,-281.82 171.12,-288.43"/>
</a>
</g>
</g>
<!-- Node4 -->
<g id="Node000004" class="node">
<title>Node4</title>
<g id="a_Node000004"><a xlink:href="namespaceiii__drone_1_1types.html#a2b1316cd0e6d4f226b2e11e7f9dd03c9" target="_top" xlink:title=" ">
<polygon fill="white" stroke="#666666" points="314,-270 173,-270 173,-240 314,-240 314,-270"/>
<text text-anchor="start" x="181" y="-258" font-family="Helvetica,sans-Serif" font-size="10.00">iii_drone::types::poseMsg</text>
<text text-anchor="middle" x="243.5" y="-247" font-family="Helvetica,sans-Serif" font-size="10.00">FromPose</text>
</a>
</g>
</g>
<!-- Node1&#45;&gt;Node4 -->
<g id="edge3_Node000001_Node000004" class="edge">
<title>Node1&#45;&gt;Node4</title>
<g id="a_edge3_Node000001_Node000004"><a xlink:title=" ">
<path fill="none" stroke="#63b8ff" d="M89.35,-198.01C108.39,-208.24 134.76,-221.58 159,-231 164.18,-233.02 169.61,-234.95 175.09,-236.78"/>
<polygon fill="#63b8ff" stroke="#63b8ff" points="174.41,-240.23 185,-239.96 176.55,-233.57 174.41,-240.23"/>
</a>
</g>
</g>
<!-- Node7 -->
<g id="Node000007" class="node">
<title>Node7</title>
<g id="a_Node000007"><a xlink:href="classiii__drone_1_1control_1_1State.html#ac7d02a667c215a72d7f7f2fdf1501eb4" target="_top" xlink:title=" ">
<polygon fill="white" stroke="#666666" points="292.5,-222 194.5,-222 194.5,-192 292.5,-192 292.5,-222"/>
<text text-anchor="start" x="202.5" y="-210" font-family="Helvetica,sans-Serif" font-size="10.00">iii_drone::control</text>
<text text-anchor="middle" x="243.5" y="-199" font-family="Helvetica,sans-Serif" font-size="10.00">::State::position</text>
</a>
</g>
</g>
<!-- Node1&#45;&gt;Node7 -->
<g id="edge6_Node000001_Node000007" class="edge">
<title>Node1&#45;&gt;Node7</title>
<g id="a_edge6_Node000001_Node000007"><a xlink:title=" ">
<path fill="none" stroke="#63b8ff" d="M123.19,-191.09C142.92,-193.72 164.76,-196.63 184.3,-199.24"/>
<polygon fill="#63b8ff" stroke="#63b8ff" points="183.91,-202.72 194.29,-200.57 184.84,-195.78 183.91,-202.72"/>
</a>
</g>
</g>
<!-- Node8 -->
<g id="Node000008" class="node">
<title>Node8</title>
<g id="a_Node000008"><a xlink:href="classiii__drone_1_1control_1_1State.html#a730c06d2972e469a61c4a0e053f47b85" target="_top" xlink:title=" ">
<polygon fill="white" stroke="#666666" points="297,-174 190,-174 190,-144 297,-144 297,-174"/>
<text text-anchor="start" x="198" y="-162" font-family="Helvetica,sans-Serif" font-size="10.00">iii_drone::control</text>
<text text-anchor="middle" x="243.5" y="-151" font-family="Helvetica,sans-Serif" font-size="10.00">::State::quaternion</text>
</a>
</g>
</g>
<!-- Node1&#45;&gt;Node8 -->
<g id="edge7_Node000001_Node000008" class="edge">
<title>Node1&#45;&gt;Node8</title>
<g id="a_edge7_Node000001_Node000008"><a xlink:title=" ">
<path fill="none" stroke="#63b8ff" d="M123.19,-174.91C141.45,-172.47 161.51,-169.8 179.89,-167.35"/>
<polygon fill="#63b8ff" stroke="#63b8ff" points="180.45,-170.8 189.9,-166.01 179.53,-163.87 180.45,-170.8"/>
</a>
</g>
</g>
<!-- Node9 -->
<g id="Node000009" class="node">
<title>Node9</title>
<g id="a_Node000009"><a xlink:href="classiii__drone_1_1control_1_1State.html#a065d4003d73520ba2e61af2912df6c6c" target="_top" xlink:title=" ">
<polygon fill="white" stroke="#666666" points="292.5,-126 194.5,-126 194.5,-96 292.5,-96 292.5,-126"/>
<text text-anchor="start" x="202.5" y="-114" font-family="Helvetica,sans-Serif" font-size="10.00">iii_drone::control</text>
<text text-anchor="middle" x="243.5" y="-103" font-family="Helvetica,sans-Serif" font-size="10.00">::State::stamp</text>
</a>
</g>
</g>
<!-- Node1&#45;&gt;Node9 -->
<g id="edge8_Node000001_Node000009" class="edge">
<title>Node1&#45;&gt;Node9</title>
<g id="a_edge8_Node000001_Node000009"><a xlink:title=" ">
<path fill="none" stroke="#63b8ff" d="M89.35,-167.99C108.39,-157.76 134.76,-144.42 159,-135 167.17,-131.82 175.94,-128.85 184.61,-126.16"/>
<polygon fill="#63b8ff" stroke="#63b8ff" points="185.75,-129.47 194.31,-123.23 183.73,-122.77 185.75,-129.47"/>
</a>
</g>
</g>
<!-- Node10 -->
<g id="Node000010" class="node">
<title>Node10</title>
<g id="a_Node000010"><a xlink:href="namespaceiii__drone_1_1types.html#a55650c4ff895bbd1c624ee51c235a102" target="_top" xlink:title=" ">
<polygon fill="white" stroke="#666666" points="307.5,-78 179.5,-78 179.5,-48 307.5,-48 307.5,-78"/>
<text text-anchor="start" x="187.5" y="-66" font-family="Helvetica,sans-Serif" font-size="10.00">iii_drone::types::vector</text>
<text text-anchor="middle" x="243.5" y="-55" font-family="Helvetica,sans-Serif" font-size="10.00">MsgFromVector</text>
</a>
</g>
</g>
<!-- Node1&#45;&gt;Node10 -->
<g id="edge9_Node000001_Node000010" class="edge">
<title>Node1&#45;&gt;Node10</title>
<g id="a_edge9_Node000001_Node000010"><a xlink:title=" ">
<path fill="none" stroke="#63b8ff" d="M73.54,-167.99C89.88,-146.83 122.53,-108.43 159,-87 162.41,-84.99 166,-83.15 169.7,-81.45"/>
<polygon fill="#63b8ff" stroke="#63b8ff" points="171.2,-84.61 179.07,-77.52 168.49,-78.16 171.2,-84.61"/>
</a>
</g>
</g>
<!-- Node11 -->
<g id="Node000011" class="node">
<title>Node11</title>
<g id="a_Node000011"><a xlink:href="classiii__drone_1_1control_1_1State.html#a0cf0c57ba34058c7ba14581c17e82f0b" target="_top" xlink:title=" ">
<polygon fill="white" stroke="#666666" points="292.5,-30 194.5,-30 194.5,0 292.5,0 292.5,-30"/>
<text text-anchor="start" x="202.5" y="-18" font-family="Helvetica,sans-Serif" font-size="10.00">iii_drone::control</text>
<text text-anchor="middle" x="243.5" y="-7" font-family="Helvetica,sans-Serif" font-size="10.00">::State::velocity</text>
</a>
</g>
</g>
<!-- Node1&#45;&gt;Node11 -->
<g id="edge10_Node000001_Node000011" class="edge">
<title>Node1&#45;&gt;Node11</title>
<g id="a_edge10_Node000001_Node000011"><a xlink:title=" ">
<path fill="none" stroke="#63b8ff" d="M68.44,-167.81C80.73,-138.36 111.83,-73.4 159,-39 166.69,-33.39 175.66,-29.09 184.81,-25.79"/>
<polygon fill="#63b8ff" stroke="#63b8ff" points="185.93,-29.11 194.37,-22.71 183.78,-22.45 185.93,-29.11"/>
</a>
</g>
</g>
<!-- Node5 -->
<g id="Node000005" class="node">
<title>Node5</title>
<g id="a_Node000005"><a xlink:href="namespaceiii__drone_1_1types.html#adf49c0d0a898eea29ad3e752a6712734" target="_top" xlink:title=" ">
<polygon fill="white" stroke="#666666" points="510.5,-294 367.5,-294 367.5,-264 510.5,-264 510.5,-294"/>
<text text-anchor="start" x="375.5" y="-282" font-family="Helvetica,sans-Serif" font-size="10.00">iii_drone::types::pointMsg</text>
<text text-anchor="middle" x="439" y="-271" font-family="Helvetica,sans-Serif" font-size="10.00">FromPoint</text>
</a>
</g>
</g>
<!-- Node4&#45;&gt;Node5 -->
<g id="edge4_Node000004_Node000005" class="edge">
<title>Node4&#45;&gt;Node5</title>
<g id="a_edge4_Node000004_Node000005"><a xlink:title=" ">
<path fill="none" stroke="#63b8ff" d="M314.08,-263.63C328.03,-265.36 342.8,-267.19 357.1,-268.97"/>
<polygon fill="#63b8ff" stroke="#63b8ff" points="357.05,-272.49 367.41,-270.24 357.91,-265.54 357.05,-272.49"/>
</a>
</g>
</g>
<!-- Node6 -->
<g id="Node000006" class="node">
<title>Node6</title>
<g id="a_Node000006"><a xlink:href="namespaceiii__drone_1_1types.html#a345601fdf3366d6af6d7c2003d74275b" target="_top" xlink:title=" ">
<polygon fill="white" stroke="#666666" points="514,-246 364,-246 364,-216 514,-216 514,-246"/>
<text text-anchor="start" x="372" y="-234" font-family="Helvetica,sans-Serif" font-size="10.00">iii_drone::types::quaternion</text>
<text text-anchor="middle" x="439" y="-223" font-family="Helvetica,sans-Serif" font-size="10.00">MsgFromQuaternion</text>
</a>
</g>
</g>
<!-- Node4&#45;&gt;Node6 -->
<g id="edge5_Node000004_Node000006" class="edge">
<title>Node4&#45;&gt;Node6</title>
<g id="a_edge5_Node000004_Node000006"><a xlink:title=" ">
<path fill="none" stroke="#63b8ff" d="M314.08,-246.37C326.95,-244.77 340.51,-243.09 353.76,-241.45"/>
<polygon fill="#63b8ff" stroke="#63b8ff" points="354.31,-244.91 363.8,-240.2 353.45,-237.96 354.31,-244.91"/>
</a>
</g>
</g>
</g>
</svg>
