<?xml version="1.0" encoding="UTF-8" standalone="no"?>
<!DOCTYPE svg PUBLIC "-//W3C//DTD SVG 1.1//EN"
 "http://www.w3.org/Graphics/SVG/1.1/DTD/svg11.dtd">
<!-- Generated by graphviz version 2.43.0 (0)
 -->
<!-- Title: iii_drone::perception::SingleLine::IsInFOV Pages: 1 -->
<svg width="302pt" height="134pt"
 viewBox="0.00 0.00 302.00 134.00" xmlns="http://www.w3.org/2000/svg" xmlns:xlink="http://www.w3.org/1999/xlink">
<g id="graph0" class="graph" transform="scale(1 1) rotate(0) translate(4 130)">
<title>iii_drone::perception::SingleLine::IsInFOV</title>
<!-- Node1 -->
<g id="Node000001" class="node">
<title>Node1</title>
<g id="a_Node000001"><a xlink:title="Returns whether the line is in FOV, non strict.">
<polygon fill="#999999" stroke="#666666" points="294,-78 178,-78 178,-48 294,-48 294,-78"/>
<text text-anchor="start" x="186" y="-66" font-family="Helvetica,sans-Serif" font-size="10.00">iii_drone::perception</text>
<text text-anchor="middle" x="236" y="-55" font-family="Helvetica,sans-Serif" font-size="10.00">::SingleLine::IsInFOV</text>
</a>
</g>
</g>
<!-- Node1&#45;&gt;Node1 -->
<g id="edge2_Node000001_Node000001" class="edge">
<title>Node1&#45;&gt;Node1</title>
<g id="a_edge2_Node000001_Node000001"><a xlink:title=" ">
<path fill="none" stroke="#63b8ff" d="M264.71,-88.6C260.78,-92.97 251.21,-96 236,-96 210.38,-96 200.77,-87.41 207.17,-78.28"/>
<polygon fill="#63b8ff" stroke="#63b8ff" points="268.21,-88.32 264.83,-78.28 261.21,-88.23 268.21,-88.32"/>
</a>
</g>
</g>
<!-- Node2 -->
<g id="Node000002" class="node">
<title>Node2</title>
<g id="a_Node000002"><a xlink:href="classiii__drone_1_1perception_1_1SingleLine.html#ae9804a282e066e92081c54528f9c4a7e" target="_top" xlink:title="Returns whether the line is alive, i.e. whether it is not in the FOV or alive_cnt_ is above alive_cnt...">
<polygon fill="white" stroke="#666666" points="129,-126 13,-126 13,-96 129,-96 129,-126"/>
<text text-anchor="start" x="21" y="-114" font-family="Helvetica,sans-Serif" font-size="10.00">iii_drone::perception</text>
<text text-anchor="middle" x="71" y="-103" font-family="Helvetica,sans-Serif" font-size="10.00">::SingleLine::IsAlive</text>
</a>
</g>
</g>
<!-- Node1&#45;&gt;Node2 -->
<g id="edge1_Node000001_Node000002" class="edge">
<title>Node1&#45;&gt;Node2</title>
<g id="a_edge1_Node000001_Node000002"><a xlink:title=" ">
<path fill="none" stroke="#63b8ff" d="M174.12,-80.93C157.27,-85.89 139.17,-91.22 122.95,-96"/>
<polygon fill="#63b8ff" stroke="#63b8ff" points="175.27,-84.24 183.87,-78.06 173.29,-77.52 175.27,-84.24"/>
</a>
</g>
</g>
<!-- Node3 -->
<g id="Node000003" class="node">
<title>Node3</title>
<g id="a_Node000003"><a xlink:href="classiii__drone_1_1perception_1_1SingleLine.html#ad54f59f23516a68b495cbd198c985833" target="_top" xlink:title="Returns whether the line is in FOV, using the strict parameters.">
<polygon fill="white" stroke="#666666" points="142,-78 0,-78 0,-48 142,-48 142,-78"/>
<text text-anchor="start" x="8" y="-66" font-family="Helvetica,sans-Serif" font-size="10.00">iii_drone::perception</text>
<text text-anchor="middle" x="71" y="-55" font-family="Helvetica,sans-Serif" font-size="10.00">::SingleLine::IsInFOVStrict</text>
</a>
</g>
</g>
<!-- Node1&#45;&gt;Node3 -->
<g id="edge3_Node000001_Node000003" class="edge">
<title>Node1&#45;&gt;Node3</title>
<g id="a_edge3_Node000001_Node000003"><a xlink:title=" ">
<path fill="none" stroke="#63b8ff" d="M167.8,-63C159.34,-63 150.67,-63 142.17,-63"/>
<polygon fill="#63b8ff" stroke="#63b8ff" points="167.99,-66.5 177.99,-63 167.99,-59.5 167.99,-66.5"/>
</a>
</g>
</g>
<!-- Node4 -->
<g id="Node000004" class="node">
<title>Node4</title>
<g id="a_Node000004"><a xlink:href="classiii__drone_1_1perception_1_1SingleLine.html#a572bd83d5f2d58b19895bedce97abf57" target="_top" xlink:title="Converts to SingleLineAdapter.">
<polygon fill="white" stroke="#666666" points="135,-30 7,-30 7,0 135,0 135,-30"/>
<text text-anchor="start" x="15" y="-18" font-family="Helvetica,sans-Serif" font-size="10.00">iii_drone::perception</text>
<text text-anchor="middle" x="71" y="-7" font-family="Helvetica,sans-Serif" font-size="10.00">::SingleLine::ToAdapter</text>
</a>
</g>
</g>
<!-- Node1&#45;&gt;Node4 -->
<g id="edge4_Node000001_Node000004" class="edge">
<title>Node1&#45;&gt;Node4</title>
<g id="a_edge4_Node000001_Node000004"><a xlink:title=" ">
<path fill="none" stroke="#63b8ff" d="M174.12,-45.07C157.27,-40.11 139.17,-34.78 122.95,-30"/>
<polygon fill="#63b8ff" stroke="#63b8ff" points="173.29,-48.48 183.87,-47.94 175.27,-41.76 173.29,-48.48"/>
</a>
</g>
</g>
</g>
</svg>
