<?xml version="1.0" encoding="UTF-8" standalone="no"?>
<!DOCTYPE svg PUBLIC "-//W3C//DTD SVG 1.1//EN"
 "http://www.w3.org/Graphics/SVG/1.1/DTD/svg11.dtd">
<!-- Generated by graphviz version 2.43.0 (0)
 -->
<!-- Title: iii_drone::mission::continuous_mission_orchestrator_node::ContinuousMissionOrchestrator::setState Pages: 1 -->
<!--zoomable 851 -->

<svg id="main" version="1.1" xmlns="http://www.w3.org/2000/svg" xmlns:xlink="http://www.w3.org/1999/xlink" xml:space="preserve" onload="init(evt)">
<style type="text/css"><![CDATA[
.node, .edge {opacity: 0.7;}
.node.selected, .edge.selected {opacity: 1;}
.edge:hover path { stroke: red; }
.edge:hover polygon { stroke: red; fill: red; }
]]></style>

<defs>
  <circle id="rim" cx="0" cy="0" r="7"/>
  <circle id="rim2" cx="0" cy="0" r="3.5"/>
  <g id="zoomPlus">
    <use xlink:href="#rim" fill="#404040"><set attributeName="fill" to="#808080" begin="zoomplus.mouseover" end="zoomplus.mouseout"/></use>
    <path d="M-4,0h8M0,-4v8" fill="none" stroke="white" stroke-width="1.5" pointer-events="none"/>
  </g>
  <g id="zoomMin">
    <use xlink:href="#rim" fill="#404040"><set attributeName="fill" to="#808080" begin="zoomminus.mouseover" end="zoomminus.mouseout"/></use>
    <path d="M-4,0h8" fill="none" stroke="white" stroke-width="1.5" pointer-events="none"/>
  </g>
  <g id="arrowUp" transform="translate(30 24)">
    <use xlink:href="#rim"/>
    <path pointer-events="none" fill="none" stroke="white" stroke-width="1.5" d="M0,-3.0v7 M-2.5,-0.5L0,-3.0L2.5,-0.5"/>
  </g>
  <g id="arrowRight" transform="rotate(90) translate(36 -43)">
    <use xlink:href="#rim"/>
    <path pointer-events="none" fill="none" stroke="white" stroke-width="1.5" d="M0,-3.0v7 M-2.5,-0.5L0,-3.0L2.5,-0.5"/>
  </g>
  <g id="arrowDown" transform="rotate(180) translate(-30 -48)">
    <use xlink:href="#rim"/>
    <path pointer-events="none" fill="none" stroke="white" stroke-width="1.5" d="M0,-3.0v7 M-2.5,-0.5L0,-3.0L2.5,-0.5"/>
  </g>
  <g id="arrowLeft" transform="rotate(270) translate(-36 17)">
    <use xlink:href="#rim"/>
    <path pointer-events="none" fill="none" stroke="white" stroke-width="1.5" d="M0,-3.0v7 M-2.5,-0.5L0,-3.0L2.5,-0.5"/>
  </g>
  <g id="resetDef">
    <use xlink:href="#rim2" fill="#404040"><set attributeName="fill" to="#808080" begin="reset.mouseover" end="reset.mouseout"/></use>
  </g>
</defs>
<script type="application/ecmascript">
var viewWidth = 966;
var viewHeight = 851;
var sectionId = 'dynsection-77';
</script>
<script type="application/ecmascript" xlink:href="svg.min.js"/>
<svg id="graph" class="graph">
<g id="viewport">
<title>iii_drone::mission::continuous_mission_orchestrator_node::ContinuousMissionOrchestrator::setState</title>
<!-- Node1 -->
<g id="Node000001" class="node">
<title>Node1</title>
<g id="a_Node000001"><a xlink:title=" ">
<polygon fill="#999999" stroke="#666666" points="958,-447.5 787,-447.5 787,-395.5 958,-395.5 958,-447.5"/>
<text text-anchor="start" x="795" y="-435.5" font-family="Helvetica,sans-Serif" font-size="10.00">iii_drone::mission</text>
<text text-anchor="start" x="795" y="-424.5" font-family="Helvetica,sans-Serif" font-size="10.00">::continuous_mission</text>
<text text-anchor="start" x="795" y="-413.5" font-family="Helvetica,sans-Serif" font-size="10.00">_orchestrator_node::Continuous</text>
<text text-anchor="middle" x="872.5" y="-402.5" font-family="Helvetica,sans-Serif" font-size="10.00">MissionOrchestrator::setState</text>
</a>
</g>
</g>
<!-- Node2 -->
<g id="Node000002" class="node">
<title>Node2</title>
<g id="a_Node000002"><a xlink:href="classiii__drone_1_1mission_1_1continuous__mission__orchestrator__node_1_1ContinuousMissionOrchestrator.html#a4561aca1944c5e1ba3d803c004aba869" target="_top" xlink:title=" ">
<polygon fill="white" stroke="#666666" points="743.5,-843 521.5,-843 521.5,-780 743.5,-780 743.5,-843"/>
<text text-anchor="start" x="529.5" y="-831" font-family="Helvetica,sans-Serif" font-size="10.00">iii_drone::mission</text>
<text text-anchor="start" x="529.5" y="-820" font-family="Helvetica,sans-Serif" font-size="10.00">::continuous_mission</text>
<text text-anchor="start" x="529.5" y="-809" font-family="Helvetica,sans-Serif" font-size="10.00">_orchestrator_node::Continuous</text>
<text text-anchor="start" x="529.5" y="-798" font-family="Helvetica,sans-Serif" font-size="10.00">MissionOrchestrator::stateMachineArming</text>
<text text-anchor="middle" x="632.5" y="-787" font-family="Helvetica,sans-Serif" font-size="10.00">OnCable</text>
</a>
</g>
</g>
<!-- Node1&#45;&gt;Node2 -->
<g id="edge1_Node000001_Node000002" class="edge">
<title>Node1&#45;&gt;Node2</title>
<g id="a_edge1_Node000001_Node000002"><a xlink:title=" ">
<path fill="none" stroke="#63b8ff" d="M869.12,-457.97C862.61,-528.11 838.59,-682.62 751,-770.5 747.57,-773.94 743.83,-777.1 739.87,-779.99"/>
<polygon fill="#63b8ff" stroke="#63b8ff" points="872.62,-458.12 869.99,-447.86 865.65,-457.52 872.62,-458.12"/>
</a>
</g>
</g>
<!-- Node5 -->
<g id="Node000005" class="node">
<title>Node5</title>
<g id="a_Node000005"><a xlink:href="classiii__drone_1_1mission_1_1continuous__mission__orchestrator__node_1_1ContinuousMissionOrchestrator.html#ad4955fa273cf4890d9560b30d99bd1d3" target="_top" xlink:title=" ">
<polygon fill="white" stroke="#666666" points="747.5,-761.5 517.5,-761.5 517.5,-709.5 747.5,-709.5 747.5,-761.5"/>
<text text-anchor="start" x="525.5" y="-749.5" font-family="Helvetica,sans-Serif" font-size="10.00">iii_drone::mission</text>
<text text-anchor="start" x="525.5" y="-738.5" font-family="Helvetica,sans-Serif" font-size="10.00">::continuous_mission</text>
<text text-anchor="start" x="525.5" y="-727.5" font-family="Helvetica,sans-Serif" font-size="10.00">_orchestrator_node::Continuous</text>
<text text-anchor="middle" x="632.5" y="-716.5" font-family="Helvetica,sans-Serif" font-size="10.00">MissionOrchestrator::stateMachineCharging</text>
</a>
</g>
</g>
<!-- Node1&#45;&gt;Node5 -->
<g id="edge4_Node000001_Node000005" class="edge">
<title>Node1&#45;&gt;Node5</title>
<g id="a_edge4_Node000001_Node000005"><a xlink:title=" ">
<path fill="none" stroke="#63b8ff" d="M865.91,-457.75C854.84,-517.18 824.49,-635.22 751,-700.5 747.34,-703.75 743.39,-706.7 739.23,-709.38"/>
<polygon fill="#63b8ff" stroke="#63b8ff" points="869.39,-458.17 867.7,-447.71 862.5,-456.94 869.39,-458.17"/>
</a>
</g>
</g>
<!-- Node6 -->
<g id="Node000006" class="node">
<title>Node6</title>
<g id="a_Node000006"><a xlink:href="classiii__drone_1_1mission_1_1continuous__mission__orchestrator__node_1_1ContinuousMissionOrchestrator.html#af7c5486c9ef326fe3920e39b136982fd" target="_top" xlink:title=" ">
<polygon fill="white" stroke="#666666" points="744,-691 521,-691 521,-628 744,-628 744,-691"/>
<text text-anchor="start" x="529" y="-679" font-family="Helvetica,sans-Serif" font-size="10.00">iii_drone::mission</text>
<text text-anchor="start" x="529" y="-668" font-family="Helvetica,sans-Serif" font-size="10.00">::continuous_mission</text>
<text text-anchor="start" x="529" y="-657" font-family="Helvetica,sans-Serif" font-size="10.00">_orchestrator_node::Continuous</text>
<text text-anchor="start" x="529" y="-646" font-family="Helvetica,sans-Serif" font-size="10.00">MissionOrchestrator::stateMachineClosing</text>
<text text-anchor="middle" x="632.5" y="-635" font-family="Helvetica,sans-Serif" font-size="10.00">Gripper</text>
</a>
</g>
</g>
<!-- Node1&#45;&gt;Node6 -->
<g id="edge6_Node000001_Node000006" class="edge">
<title>Node1&#45;&gt;Node6</title>
<g id="a_edge6_Node000001_Node000006"><a xlink:title=" ">
<path fill="none" stroke="#63b8ff" d="M858.67,-457.12C841.02,-501.3 805.13,-576.07 751,-619.5 747.22,-622.53 743.19,-625.34 739,-627.95"/>
<polygon fill="#63b8ff" stroke="#63b8ff" points="861.99,-458.24 862.36,-447.65 855.47,-455.7 861.99,-458.24"/>
</a>
</g>
</g>
<!-- Node7 -->
<g id="Node000007" class="node">
<title>Node7</title>
<g id="a_Node000007"><a xlink:href="classiii__drone_1_1mission_1_1continuous__mission__orchestrator__node_1_1ContinuousMissionOrchestrator.html#a1adb6e0b0ad6192f1d46acc54ee68c73" target="_top" xlink:title=" ">
<polygon fill="white" stroke="#666666" points="751,-610 514,-610 514,-547 751,-547 751,-610"/>
<text text-anchor="start" x="522" y="-598" font-family="Helvetica,sans-Serif" font-size="10.00">iii_drone::mission</text>
<text text-anchor="start" x="522" y="-587" font-family="Helvetica,sans-Serif" font-size="10.00">::continuous_mission</text>
<text text-anchor="start" x="522" y="-576" font-family="Helvetica,sans-Serif" font-size="10.00">_orchestrator_node::Continuous</text>
<text text-anchor="start" x="522" y="-565" font-family="Helvetica,sans-Serif" font-size="10.00">MissionOrchestrator::stateMachineDisarming</text>
<text text-anchor="middle" x="632.5" y="-554" font-family="Helvetica,sans-Serif" font-size="10.00">OnCable</text>
</a>
</g>
</g>
<!-- Node1&#45;&gt;Node7 -->
<g id="edge8_Node000001_Node000007" class="edge">
<title>Node1&#45;&gt;Node7</title>
<g id="a_edge8_Node000001_Node000007"><a xlink:title=" ">
<path fill="none" stroke="#63b8ff" d="M843.94,-455.48C821.35,-481.39 787.28,-516.28 751,-538.5 746.13,-541.48 741.01,-544.27 735.74,-546.89"/>
<polygon fill="#63b8ff" stroke="#63b8ff" points="846.72,-457.62 850.57,-447.75 841.41,-453.06 846.72,-457.62"/>
</a>
</g>
</g>
<!-- Node8 -->
<g id="Node000008" class="node">
<title>Node8</title>
<g id="a_Node000008"><a xlink:href="classiii__drone_1_1mission_1_1continuous__mission__orchestrator__node_1_1ContinuousMissionOrchestrator.html#a793891d2f8615cd25b0ec0eae9b50013" target="_top" xlink:title=" ">
<polygon fill="white" stroke="#666666" points="741,-529 524,-529 524,-466 741,-466 741,-529"/>
<text text-anchor="start" x="532" y="-517" font-family="Helvetica,sans-Serif" font-size="10.00">iii_drone::mission</text>
<text text-anchor="start" x="532" y="-506" font-family="Helvetica,sans-Serif" font-size="10.00">::continuous_mission</text>
<text text-anchor="start" x="532" y="-495" font-family="Helvetica,sans-Serif" font-size="10.00">_orchestrator_node::Continuous</text>
<text text-anchor="start" x="532" y="-484" font-family="Helvetica,sans-Serif" font-size="10.00">MissionOrchestrator::stateMachineFlying</text>
<text text-anchor="middle" x="632.5" y="-473" font-family="Helvetica,sans-Serif" font-size="10.00">UnderCable</text>
</a>
</g>
</g>
<!-- Node1&#45;&gt;Node8 -->
<g id="edge10_Node000001_Node000008" class="edge">
<title>Node1&#45;&gt;Node8</title>
<g id="a_edge10_Node000001_Node000008"><a xlink:title=" ">
<path fill="none" stroke="#63b8ff" d="M780.24,-450.64C764.53,-455.66 748.13,-460.89 732.24,-465.97"/>
<polygon fill="#63b8ff" stroke="#63b8ff" points="781.47,-453.92 789.93,-447.55 779.34,-447.26 781.47,-453.92"/>
</a>
</g>
</g>
<!-- Node9 -->
<g id="Node000009" class="node">
<title>Node9</title>
<g id="a_Node000009"><a xlink:href="classiii__drone_1_1mission_1_1continuous__mission__orchestrator__node_1_1ContinuousMissionOrchestrator.html#ac2bddae403ea4b73684263ebe30ca6cd" target="_top" xlink:title=" ">
<polygon fill="white" stroke="#666666" points="751,-447.5 514,-447.5 514,-395.5 751,-395.5 751,-447.5"/>
<text text-anchor="start" x="522" y="-435.5" font-family="Helvetica,sans-Serif" font-size="10.00">iii_drone::mission</text>
<text text-anchor="start" x="522" y="-424.5" font-family="Helvetica,sans-Serif" font-size="10.00">::continuous_mission</text>
<text text-anchor="start" x="522" y="-413.5" font-family="Helvetica,sans-Serif" font-size="10.00">_orchestrator_node::Continuous</text>
<text text-anchor="middle" x="632.5" y="-402.5" font-family="Helvetica,sans-Serif" font-size="10.00">MissionOrchestrator::stateMachineInspecting</text>
</a>
</g>
</g>
<!-- Node1&#45;&gt;Node9 -->
<g id="edge12_Node000001_Node000009" class="edge">
<title>Node1&#45;&gt;Node9</title>
<g id="a_edge12_Node000001_Node000009"><a xlink:title=" ">
<path fill="none" stroke="#63b8ff" d="M776.73,-421.5C768.3,-421.5 759.7,-421.5 751.11,-421.5"/>
<polygon fill="#63b8ff" stroke="#63b8ff" points="776.92,-425 786.92,-421.5 776.92,-418 776.92,-425"/>
</a>
</g>
</g>
<!-- Node10 -->
<g id="Node000010" class="node">
<title>Node10</title>
<g id="a_Node000010"><a xlink:href="classiii__drone_1_1mission_1_1continuous__mission__orchestrator__node_1_1ContinuousMissionOrchestrator.html#aced4073ab58729bff6e815d51bf89778" target="_top" xlink:title=" ">
<polygon fill="white" stroke="#666666" points="745,-377 520,-377 520,-314 745,-314 745,-377"/>
<text text-anchor="start" x="528" y="-365" font-family="Helvetica,sans-Serif" font-size="10.00">iii_drone::mission</text>
<text text-anchor="start" x="528" y="-354" font-family="Helvetica,sans-Serif" font-size="10.00">::continuous_mission</text>
<text text-anchor="start" x="528" y="-343" font-family="Helvetica,sans-Serif" font-size="10.00">_orchestrator_node::Continuous</text>
<text text-anchor="start" x="528" y="-332" font-family="Helvetica,sans-Serif" font-size="10.00">MissionOrchestrator::stateMachineLanding</text>
<text text-anchor="middle" x="632.5" y="-321" font-family="Helvetica,sans-Serif" font-size="10.00">OnCable</text>
</a>
</g>
</g>
<!-- Node1&#45;&gt;Node10 -->
<g id="edge14_Node000001_Node000010" class="edge">
<title>Node1&#45;&gt;Node10</title>
<g id="a_edge14_Node000001_Node000010"><a xlink:title=" ">
<path fill="none" stroke="#63b8ff" d="M780.24,-392.36C764.53,-387.34 748.13,-382.11 732.24,-377.03"/>
<polygon fill="#63b8ff" stroke="#63b8ff" points="779.34,-395.74 789.93,-395.45 781.47,-389.08 779.34,-395.74"/>
</a>
</g>
</g>
<!-- Node11 -->
<g id="Node000011" class="node">
<title>Node11</title>
<g id="a_Node000011"><a xlink:href="classiii__drone_1_1mission_1_1continuous__mission__orchestrator__node_1_1ContinuousMissionOrchestrator.html#a78a1dbad9361b64e87f4a24306b1c7d8" target="_top" xlink:title=" ">
<polygon fill="white" stroke="#666666" points="744,-295.5 521,-295.5 521,-243.5 744,-243.5 744,-295.5"/>
<text text-anchor="start" x="529" y="-283.5" font-family="Helvetica,sans-Serif" font-size="10.00">iii_drone::mission</text>
<text text-anchor="start" x="529" y="-272.5" font-family="Helvetica,sans-Serif" font-size="10.00">::continuous_mission</text>
<text text-anchor="start" x="529" y="-261.5" font-family="Helvetica,sans-Serif" font-size="10.00">_orchestrator_node::Continuous</text>
<text text-anchor="middle" x="632.5" y="-250.5" font-family="Helvetica,sans-Serif" font-size="10.00">MissionOrchestrator::stateMachineManual</text>
</a>
</g>
</g>
<!-- Node1&#45;&gt;Node11 -->
<g id="edge16_Node000001_Node000011" class="edge">
<title>Node1&#45;&gt;Node11</title>
<g id="a_edge16_Node000001_Node000011"><a xlink:title=" ">
<path fill="none" stroke="#63b8ff" d="M844.07,-387.51C821.55,-361.66 787.52,-326.99 751,-305.5 744.84,-301.88 738.28,-298.58 731.53,-295.6"/>
<polygon fill="#63b8ff" stroke="#63b8ff" points="841.52,-389.91 850.68,-395.23 846.83,-385.36 841.52,-389.91"/>
</a>
</g>
</g>
<!-- Node12 -->
<g id="Node000012" class="node">
<title>Node12</title>
<g id="a_Node000012"><a xlink:href="classiii__drone_1_1mission_1_1continuous__mission__orchestrator__node_1_1ContinuousMissionOrchestrator.html#a9041f2692d56d3823dd4ebe8ffc566f2" target="_top" xlink:title=" ">
<polygon fill="white" stroke="#666666" points="746,-225 519,-225 519,-162 746,-162 746,-225"/>
<text text-anchor="start" x="527" y="-213" font-family="Helvetica,sans-Serif" font-size="10.00">iii_drone::mission</text>
<text text-anchor="start" x="527" y="-202" font-family="Helvetica,sans-Serif" font-size="10.00">::continuous_mission</text>
<text text-anchor="start" x="527" y="-191" font-family="Helvetica,sans-Serif" font-size="10.00">_orchestrator_node::Continuous</text>
<text text-anchor="start" x="527" y="-180" font-family="Helvetica,sans-Serif" font-size="10.00">MissionOrchestrator::stateMachineOpening</text>
<text text-anchor="middle" x="632.5" y="-169" font-family="Helvetica,sans-Serif" font-size="10.00">Gripper</text>
</a>
</g>
</g>
<!-- Node1&#45;&gt;Node12 -->
<g id="edge18_Node000001_Node000012" class="edge">
<title>Node1&#45;&gt;Node12</title>
<g id="a_edge18_Node000001_Node000012"><a xlink:title=" ">
<path fill="none" stroke="#63b8ff" d="M857.23,-385.95C838.7,-344.07 802.52,-275.07 751,-234.5 746.67,-231.09 742.04,-227.96 737.21,-225.07"/>
<polygon fill="#63b8ff" stroke="#63b8ff" points="854.06,-387.43 861.24,-395.22 860.48,-384.65 854.06,-387.43"/>
</a>
</g>
</g>
<!-- Node13 -->
<g id="Node000013" class="node">
<title>Node13</title>
<g id="a_Node000013"><a xlink:href="classiii__drone_1_1mission_1_1continuous__mission__orchestrator__node_1_1ContinuousMissionOrchestrator.html#ab02d79b6772f751fe0a38e6ccb5e41ee" target="_top" xlink:title=" ">
<polygon fill="white" stroke="#666666" points="741.5,-144 523.5,-144 523.5,-81 741.5,-81 741.5,-144"/>
<text text-anchor="start" x="531.5" y="-132" font-family="Helvetica,sans-Serif" font-size="10.00">iii_drone::mission</text>
<text text-anchor="start" x="531.5" y="-121" font-family="Helvetica,sans-Serif" font-size="10.00">::continuous_mission</text>
<text text-anchor="start" x="531.5" y="-110" font-family="Helvetica,sans-Serif" font-size="10.00">_orchestrator_node::Continuous</text>
<text text-anchor="start" x="531.5" y="-99" font-family="Helvetica,sans-Serif" font-size="10.00">MissionOrchestrator::stateMachineTaking</text>
<text text-anchor="middle" x="632.5" y="-88" font-family="Helvetica,sans-Serif" font-size="10.00">OffFromCable</text>
</a>
</g>
</g>
<!-- Node1&#45;&gt;Node13 -->
<g id="edge20_Node000001_Node000013" class="edge">
<title>Node1&#45;&gt;Node13</title>
<g id="a_edge20_Node000001_Node000013"><a xlink:title=" ">
<path fill="none" stroke="#63b8ff" d="M864.79,-385.36C852.35,-328.25 820.39,-217.11 751,-153.5 747.26,-150.07 743.21,-146.92 738.95,-144.04"/>
<polygon fill="#63b8ff" stroke="#63b8ff" points="861.41,-386.3 866.89,-395.37 868.26,-384.86 861.41,-386.3"/>
</a>
</g>
</g>
<!-- Node14 -->
<g id="Node000014" class="node">
<title>Node14</title>
<g id="a_Node000014"><a xlink:href="classiii__drone_1_1mission_1_1continuous__mission__orchestrator__node_1_1ContinuousMissionOrchestrator.html#a1884ad099408cb1bfd50b9da8a467132" target="_top" xlink:title=" ">
<polygon fill="white" stroke="#666666" points="737,-63 528,-63 528,0 737,0 737,-63"/>
<text text-anchor="start" x="536" y="-51" font-family="Helvetica,sans-Serif" font-size="10.00">iii_drone::mission</text>
<text text-anchor="start" x="536" y="-40" font-family="Helvetica,sans-Serif" font-size="10.00">::continuous_mission</text>
<text text-anchor="start" x="536" y="-29" font-family="Helvetica,sans-Serif" font-size="10.00">_orchestrator_node::Continuous</text>
<text text-anchor="start" x="536" y="-18" font-family="Helvetica,sans-Serif" font-size="10.00">MissionOrchestrator::stateMachineWait</text>
<text text-anchor="middle" x="632.5" y="-7" font-family="Helvetica,sans-Serif" font-size="10.00">ForTargetLine</text>
</a>
</g>
</g>
<!-- Node1&#45;&gt;Node14 -->
<g id="edge22_Node000001_Node000014" class="edge">
<title>Node1&#45;&gt;Node14</title>
<g id="a_edge22_Node000001_Node000014"><a xlink:title=" ">
<path fill="none" stroke="#63b8ff" d="M869.12,-385.03C862.61,-314.89 838.59,-160.38 751,-72.5 746.81,-68.29 742.16,-64.51 737.2,-61.12"/>
<polygon fill="#63b8ff" stroke="#63b8ff" points="865.65,-385.48 869.99,-395.14 872.62,-384.88 865.65,-385.48"/>
</a>
</g>
</g>
<!-- Node3 -->
<g id="Node000003" class="node">
<title>Node3</title>
<g id="a_Node000003"><a xlink:href="classiii__drone_1_1mission_1_1continuous__mission__orchestrator__node_1_1ContinuousMissionOrchestrator.html#a03d16a0b3a80d3d63fd1ac37c08829c7" target="_top" xlink:title=" ">
<polygon fill="white" stroke="#666666" points="478,-447.5 249,-447.5 249,-395.5 478,-395.5 478,-447.5"/>
<text text-anchor="start" x="257" y="-435.5" font-family="Helvetica,sans-Serif" font-size="10.00">iii_drone::mission</text>
<text text-anchor="start" x="257" y="-424.5" font-family="Helvetica,sans-Serif" font-size="10.00">::continuous_mission</text>
<text text-anchor="start" x="257" y="-413.5" font-family="Helvetica,sans-Serif" font-size="10.00">_orchestrator_node::Continuous</text>
<text text-anchor="middle" x="363.5" y="-402.5" font-family="Helvetica,sans-Serif" font-size="10.00">MissionOrchestrator::stateMachineCallback</text>
</a>
</g>
</g>
<!-- Node2&#45;&gt;Node3 -->
<g id="edge2_Node000002_Node000003" class="edge">
<title>Node2&#45;&gt;Node3</title>
<g id="a_edge2_Node000002_Node000003"><a xlink:title=" ">
<path fill="none" stroke="#63b8ff" d="M517.49,-773.6C516.3,-772.59 515.14,-771.56 514,-770.5 415.94,-678.98 379.31,-512.43 368.41,-447.97"/>
<polygon fill="#63b8ff" stroke="#63b8ff" points="515.63,-776.58 525.7,-779.86 519.87,-771.01 515.63,-776.58"/>
</a>
</g>
</g>
<!-- Node4 -->
<g id="Node000004" class="node">
<title>Node4</title>
<g id="a_Node000004"><a xlink:href="classiii__drone_1_1mission_1_1continuous__mission__orchestrator__node_1_1ContinuousMissionOrchestrator.html#a7d652b0b72969090c91c494f5c032eba" target="_top" xlink:title=" ">
<polygon fill="white" stroke="#666666" points="213,-453 0,-453 0,-390 213,-390 213,-453"/>
<text text-anchor="start" x="8" y="-441" font-family="Helvetica,sans-Serif" font-size="10.00">iii_drone::mission</text>
<text text-anchor="start" x="8" y="-430" font-family="Helvetica,sans-Serif" font-size="10.00">::continuous_mission</text>
<text text-anchor="start" x="8" y="-419" font-family="Helvetica,sans-Serif" font-size="10.00">_orchestrator_node::Continuous</text>
<text text-anchor="start" x="8" y="-408" font-family="Helvetica,sans-Serif" font-size="10.00">MissionOrchestrator::ContinuousMission</text>
<text text-anchor="middle" x="106.5" y="-397" font-family="Helvetica,sans-Serif" font-size="10.00">Orchestrator</text>
</a>
</g>
</g>
<!-- Node3&#45;&gt;Node4 -->
<g id="edge3_Node000003_Node000004" class="edge">
<title>Node3&#45;&gt;Node4</title>
<g id="a_edge3_Node000003_Node000004"><a xlink:title=" ">
<path fill="none" stroke="#63b8ff" d="M238.79,-421.5C230.26,-421.5 221.7,-421.5 213.27,-421.5"/>
<polygon fill="#63b8ff" stroke="#63b8ff" points="238.8,-425 248.8,-421.5 238.8,-418 238.8,-425"/>
</a>
</g>
</g>
<!-- Node5&#45;&gt;Node3 -->
<g id="edge5_Node000005_Node000003" class="edge">
<title>Node5&#45;&gt;Node3</title>
<g id="a_edge5_Node000005_Node000003"><a xlink:title=" ">
<path fill="none" stroke="#63b8ff" d="M518.27,-703.79C516.81,-702.73 515.39,-701.63 514,-700.5 429.9,-631.9 386.58,-503.09 371.18,-447.8"/>
<polygon fill="#63b8ff" stroke="#63b8ff" points="516.66,-706.92 526.94,-709.49 520.5,-701.07 516.66,-706.92"/>
</a>
</g>
</g>
<!-- Node6&#45;&gt;Node3 -->
<g id="edge7_Node000006_Node000003" class="edge">
<title>Node6&#45;&gt;Node3</title>
<g id="a_edge7_Node000006_Node000003"><a xlink:title=" ">
<path fill="none" stroke="#63b8ff" d="M518.41,-622.55C516.91,-621.56 515.44,-620.54 514,-619.5 449.25,-572.68 399.84,-489.75 377.54,-447.63"/>
<polygon fill="#63b8ff" stroke="#63b8ff" points="516.87,-625.72 527.23,-627.96 520.53,-619.75 516.87,-625.72"/>
</a>
</g>
</g>
<!-- Node7&#45;&gt;Node3 -->
<g id="edge9_Node000007_Node000003" class="edge">
<title>Node7&#45;&gt;Node3</title>
<g id="a_edge9_Node000007_Node000003"><a xlink:title=" ">
<path fill="none" stroke="#63b8ff" d="M521.89,-542.58C519.21,-541.25 516.58,-539.89 514,-538.5 467.48,-513.32 420.53,-473.73 391.97,-447.69"/>
<polygon fill="#63b8ff" stroke="#63b8ff" points="520.61,-545.84 531.15,-546.94 523.59,-539.51 520.61,-545.84"/>
</a>
</g>
</g>
<!-- Node8&#45;&gt;Node3 -->
<g id="edge11_Node000008_Node000003" class="edge">
<title>Node8&#45;&gt;Node3</title>
<g id="a_edge11_Node000008_Node000003"><a xlink:title=" ">
<path fill="none" stroke="#63b8ff" d="M513.89,-464.02C494.5,-458.5 474.65,-452.85 456.02,-447.55"/>
<polygon fill="#63b8ff" stroke="#63b8ff" points="513.09,-467.44 523.67,-466.81 515.01,-460.7 513.09,-467.44"/>
</a>
</g>
</g>
<!-- Node9&#45;&gt;Node3 -->
<g id="edge13_Node000009_Node000003" class="edge">
<title>Node9&#45;&gt;Node3</title>
<g id="a_edge13_Node000009_Node000003"><a xlink:title=" ">
<path fill="none" stroke="#63b8ff" d="M503.4,-421.5C495.02,-421.5 486.6,-421.5 478.29,-421.5"/>
<polygon fill="#63b8ff" stroke="#63b8ff" points="503.61,-425 513.61,-421.5 503.61,-418 503.61,-425"/>
</a>
</g>
</g>
<!-- Node10&#45;&gt;Node3 -->
<g id="edge15_Node000010_Node000003" class="edge">
<title>Node10&#45;&gt;Node3</title>
<g id="a_edge15_Node000010_Node000003"><a xlink:title=" ">
<path fill="none" stroke="#63b8ff" d="M510.72,-379.88C492.34,-385.11 473.63,-390.44 456.02,-395.45"/>
<polygon fill="#63b8ff" stroke="#63b8ff" points="511.93,-383.17 520.59,-377.07 510.01,-376.44 511.93,-383.17"/>
</a>
</g>
</g>
<!-- Node11&#45;&gt;Node3 -->
<g id="edge17_Node000011_Node000003" class="edge">
<title>Node11&#45;&gt;Node3</title>
<g id="a_edge17_Node000011_Node000003"><a xlink:title=" ">
<path fill="none" stroke="#63b8ff" d="M526.36,-299.57C522.13,-301.45 518,-303.43 514,-305.5 467.05,-329.86 420.02,-369.46 391.59,-395.5"/>
<polygon fill="#63b8ff" stroke="#63b8ff" points="527.88,-302.72 535.73,-295.6 525.16,-296.28 527.88,-302.72"/>
</a>
</g>
</g>
<!-- Node12&#45;&gt;Node3 -->
<g id="edge19_Node000012_Node000003" class="edge">
<title>Node12&#45;&gt;Node3</title>
<g id="a_edge19_Node000012_Node000003"><a xlink:title=" ">
<path fill="none" stroke="#63b8ff" d="M520.41,-230.22C518.22,-231.6 516.08,-233.03 514,-234.5 451.92,-278.45 402.2,-355.12 378.89,-395.28"/>
<polygon fill="#63b8ff" stroke="#63b8ff" points="522.22,-233.22 529.07,-225.14 518.68,-227.18 522.22,-233.22"/>
</a>
</g>
</g>
<!-- Node13&#45;&gt;Node3 -->
<g id="edge21_Node000013_Node000003" class="edge">
<title>Node13&#45;&gt;Node3</title>
<g id="a_edge21_Node000013_Node000003"><a xlink:title=" ">
<path fill="none" stroke="#63b8ff" d="M518.68,-149.78C517.08,-150.98 515.52,-152.22 514,-153.5 434.05,-220.68 388.89,-342.09 372.11,-395.31"/>
<polygon fill="#63b8ff" stroke="#63b8ff" points="520.71,-152.64 526.96,-144.09 516.74,-146.87 520.71,-152.64"/>
</a>
</g>
</g>
<!-- Node14&#45;&gt;Node3 -->
<g id="edge23_Node000014_Node000003" class="edge">
<title>Node14&#45;&gt;Node3</title>
<g id="a_edge23_Node000014_Node000003"><a xlink:title=" ">
<path fill="none" stroke="#63b8ff" d="M519.39,-67.84C517.53,-69.33 515.73,-70.88 514,-72.5 415.94,-164.02 379.31,-330.57 368.41,-395.03"/>
<polygon fill="#63b8ff" stroke="#63b8ff" points="521.85,-70.38 527.88,-61.67 517.73,-64.71 521.85,-70.38"/>
</a>
</g>
</g>
</g>
</svg>

<g id="navigator" transform="translate(0 0)" fill="#404254">
  <rect fill="#f2f5e9" fill-opacity="0.5" stroke="#606060" stroke-width=".5" x="0" y="0" width="60" height="60"/>
  <use id="zoomplus" xlink:href="#zoomPlus" x="17" y="9" onmousedown="handleZoom(evt,'in')"/>
  <use id="zoomminus" xlink:href="#zoomMin" x="42" y="9" onmousedown="handleZoom(evt,'out')"/>
  <use id="reset" xlink:href="#resetDef" x="30" y="36" onmousedown="handleReset()"/>
   <use id="arrowup" xlink:href="#arrowUp" x="0" y="0" onmousedown="handlePan(0,-1)"/>
  <use id="arrowright" xlink:href="#arrowRight" x="0" y="0" onmousedown="handlePan(1,0)"/>
  <use id="arrowdown" xlink:href="#arrowDown" x="0" y="0" onmousedown="handlePan(0,1)"/>
  <use id="arrowleft" xlink:href="#arrowLeft" x="0" y="0" onmousedown="handlePan(-1,0)"/>
</g>
<svg viewBox="0 0 15 15" width="100%" height="30px" preserveAspectRatio="xMaxYMin meet">
 <g id="arrow_out" transform="scale(0.3 0.3)">
  <a xlink:href="classiii__drone_1_1mission_1_1continuous__mission__orchestrator__node_1_1ContinuousMissionOrchestrator_acca7ae76bb0157c8a7b9794ef853a992_icgraph_org.svg" target="_base">
   <rect id="button" ry="5" rx="5" y="6" x="6" height="38" width="38"
        fill="#f2f5e9" fill-opacity="0.5" stroke="#606060" stroke-width="1.0"/>
   <path id="arrow"
     d="M 11.500037,31.436501 C 11.940474,20.09759 22.043105,11.32322 32.158766,21.979434 L 37.068811,17.246167 C 37.068811,17.246167 37.088388,32 37.088388,32 L 22.160133,31.978069 C 22.160133,31.978069 26.997745,27.140456 26.997745,27.140456 C 18.528582,18.264221 13.291696,25.230495 11.500037,31.436501 z"
     style="fill:#404040;"/>
  </a>
 </g>
</svg>

<style type='text/css'>
<![CDATA[
[data-mouse-over-selected='false'] { opacity: 0.7; }
[data-mouse-over-selected='true']  { opacity: 1.0; }
]]>
</style>
<script type="application/ecmascript"><![CDATA[
document.addEventListener('DOMContentLoaded', (event) => {
  highlightEdges();
  highlightAdjacentNodes();
});
]]></script>
</svg>
