<?xml version="1.0" encoding="UTF-8" standalone="no"?>
<!DOCTYPE svg PUBLIC "-//W3C//DTD SVG 1.1//EN"
 "http://www.w3.org/Graphics/SVG/1.1/DTD/svg11.dtd">
<!-- Generated by graphviz version 2.43.0 (0)
 -->
<!-- Title: iii_drone::adapters::SingleLineAdapter::SingleLineAdapter Pages: 1 -->
<svg width="491pt" height="194pt"
 viewBox="0.00 0.00 491.00 194.00" xmlns="http://www.w3.org/2000/svg" xmlns:xlink="http://www.w3.org/1999/xlink">
<g id="graph0" class="graph" transform="scale(1 1) rotate(0) translate(4 190)">
<title>iii_drone::adapters::SingleLineAdapter::SingleLineAdapter</title>
<!-- Node1 -->
<g id="Node000001" class="node">
<title>Node1</title>
<g id="a_Node000001"><a xlink:title="Constructor from PoseStamped msg.">
<polygon fill="#999999" stroke="#666666" points="111,-110.5 0,-110.5 0,-69.5 111,-69.5 111,-110.5"/>
<text text-anchor="start" x="8" y="-98.5" font-family="Helvetica,sans-Serif" font-size="10.00">iii_drone::adapters</text>
<text text-anchor="start" x="8" y="-87.5" font-family="Helvetica,sans-Serif" font-size="10.00">::SingleLineAdapter</text>
<text text-anchor="middle" x="55.5" y="-76.5" font-family="Helvetica,sans-Serif" font-size="10.00">::SingleLineAdapter</text>
</a>
</g>
</g>
<!-- Node2 -->
<g id="Node000002" class="node">
<title>Node2</title>
<g id="a_Node000002"><a xlink:href="classiii__drone_1_1adapters_1_1SingleLineAdapter.html#a094ffe670b1d879fa9bd9012255a6173" target="_top" xlink:title="Id getter.">
<polygon fill="white" stroke="#666666" points="285,-186 159,-186 159,-156 285,-156 285,-186"/>
<text text-anchor="start" x="167" y="-174" font-family="Helvetica,sans-Serif" font-size="10.00">iii_drone::adapters</text>
<text text-anchor="middle" x="222" y="-163" font-family="Helvetica,sans-Serif" font-size="10.00">::SingleLineAdapter::id</text>
</a>
</g>
</g>
<!-- Node1&#45;&gt;Node2 -->
<g id="edge1_Node000001_Node000002" class="edge">
<title>Node1&#45;&gt;Node2</title>
<g id="a_edge1_Node000001_Node000002"><a xlink:title=" ">
<path fill="none" stroke="#63b8ff" d="M85.2,-110.67C102.5,-122.45 125.31,-136.84 147,-147 151.03,-148.89 155.25,-150.69 159.54,-152.39"/>
<polygon fill="#63b8ff" stroke="#63b8ff" points="158.42,-155.71 169.01,-155.96 160.89,-149.15 158.42,-155.71"/>
</a>
</g>
</g>
<!-- Node3 -->
<g id="Node000003" class="node">
<title>Node3</title>
<g id="a_Node000003"><a xlink:href="classiii__drone_1_1adapters_1_1SingleLineAdapter.html#a6ffd87a0b1e2778edceec92aa9673cf2" target="_top" xlink:title="In FOV getter.">
<polygon fill="white" stroke="#666666" points="277.5,-137.5 166.5,-137.5 166.5,-96.5 277.5,-96.5 277.5,-137.5"/>
<text text-anchor="start" x="174.5" y="-125.5" font-family="Helvetica,sans-Serif" font-size="10.00">iii_drone::adapters</text>
<text text-anchor="start" x="174.5" y="-114.5" font-family="Helvetica,sans-Serif" font-size="10.00">::SingleLineAdapter</text>
<text text-anchor="middle" x="222" y="-103.5" font-family="Helvetica,sans-Serif" font-size="10.00">::in_fov</text>
</a>
</g>
</g>
<!-- Node1&#45;&gt;Node3 -->
<g id="edge2_Node000001_Node000003" class="edge">
<title>Node1&#45;&gt;Node3</title>
<g id="a_edge2_Node000001_Node000003"><a xlink:title=" ">
<path fill="none" stroke="#63b8ff" d="M111.28,-98.99C125.7,-101.36 141.41,-103.94 156.3,-106.38"/>
<polygon fill="#63b8ff" stroke="#63b8ff" points="156.03,-109.88 166.46,-108.05 157.16,-102.98 156.03,-109.88"/>
</a>
</g>
</g>
<!-- Node4 -->
<g id="Node000004" class="node">
<title>Node4</title>
<g id="a_Node000004"><a xlink:href="namespaceiii__drone_1_1types.html#a68ca357a87fb655434d05d6c6bdac45f" target="_top" xlink:title=" ">
<polygon fill="white" stroke="#666666" points="295.5,-78 148.5,-78 148.5,-48 295.5,-48 295.5,-78"/>
<text text-anchor="start" x="156.5" y="-66" font-family="Helvetica,sans-Serif" font-size="10.00">iii_drone::types::pointFrom</text>
<text text-anchor="middle" x="222" y="-55" font-family="Helvetica,sans-Serif" font-size="10.00">PoseMsg</text>
</a>
</g>
</g>
<!-- Node1&#45;&gt;Node4 -->
<g id="edge3_Node000001_Node000004" class="edge">
<title>Node1&#45;&gt;Node4</title>
<g id="a_edge3_Node000001_Node000004"><a xlink:title=" ">
<path fill="none" stroke="#63b8ff" d="M111.28,-81.01C119.99,-79.58 129.18,-78.07 138.36,-76.56"/>
<polygon fill="#63b8ff" stroke="#63b8ff" points="139.01,-80 148.31,-74.93 137.88,-73.1 139.01,-80"/>
</a>
</g>
</g>
<!-- Node6 -->
<g id="Node000006" class="node">
<title>Node6</title>
<g id="a_Node000006"><a xlink:href="namespaceiii__drone_1_1types.html#a25802a3ab0d3c28800d37b3c6a9a6578" target="_top" xlink:title=" ">
<polygon fill="white" stroke="#666666" points="297,-30 147,-30 147,0 297,0 297,-30"/>
<text text-anchor="start" x="155" y="-18" font-family="Helvetica,sans-Serif" font-size="10.00">iii_drone::types::quaternion</text>
<text text-anchor="middle" x="222" y="-7" font-family="Helvetica,sans-Serif" font-size="10.00">FromPoseMsg</text>
</a>
</g>
</g>
<!-- Node1&#45;&gt;Node6 -->
<g id="edge5_Node000001_Node000006" class="edge">
<title>Node1&#45;&gt;Node6</title>
<g id="a_edge5_Node000001_Node000006"><a xlink:title=" ">
<path fill="none" stroke="#63b8ff" d="M89.21,-69.47C106.06,-59.44 127.18,-47.69 147,-39 151.33,-37.1 155.87,-35.27 160.46,-33.53"/>
<polygon fill="#63b8ff" stroke="#63b8ff" points="161.74,-36.78 169.94,-30.08 159.35,-30.21 161.74,-36.78"/>
</a>
</g>
</g>
<!-- Node5 -->
<g id="Node000005" class="node">
<title>Node5</title>
<g id="a_Node000005"><a xlink:href="namespaceiii__drone_1_1types.html#a8215048242190c57b9ff2de3f1daba73" target="_top" xlink:title=" ">
<polygon fill="white" stroke="#666666" points="481.5,-78 334.5,-78 334.5,-48 481.5,-48 481.5,-78"/>
<text text-anchor="start" x="342.5" y="-66" font-family="Helvetica,sans-Serif" font-size="10.00">iii_drone::types::pointFrom</text>
<text text-anchor="middle" x="408" y="-55" font-family="Helvetica,sans-Serif" font-size="10.00">PointMsg</text>
</a>
</g>
</g>
<!-- Node4&#45;&gt;Node5 -->
<g id="edge4_Node000004_Node000005" class="edge">
<title>Node4&#45;&gt;Node5</title>
<g id="a_edge4_Node000004_Node000005"><a xlink:title=" ">
<path fill="none" stroke="#63b8ff" d="M295.72,-63C305.02,-63 314.59,-63 324.03,-63"/>
<polygon fill="#63b8ff" stroke="#63b8ff" points="324.2,-66.5 334.2,-63 324.2,-59.5 324.2,-66.5"/>
</a>
</g>
</g>
<!-- Node7 -->
<g id="Node000007" class="node">
<title>Node7</title>
<g id="a_Node000007"><a xlink:href="namespaceiii__drone_1_1types.html#ab684c4851f41301e938970679086de49" target="_top" xlink:title=" ">
<polygon fill="white" stroke="#666666" points="483,-30 333,-30 333,0 483,0 483,-30"/>
<text text-anchor="start" x="341" y="-18" font-family="Helvetica,sans-Serif" font-size="10.00">iii_drone::types::quaternion</text>
<text text-anchor="middle" x="408" y="-7" font-family="Helvetica,sans-Serif" font-size="10.00">FromQuaternionMsg</text>
</a>
</g>
</g>
<!-- Node6&#45;&gt;Node7 -->
<g id="edge6_Node000006_Node000007" class="edge">
<title>Node6&#45;&gt;Node7</title>
<g id="a_edge6_Node000006_Node000007"><a xlink:title=" ">
<path fill="none" stroke="#63b8ff" d="M297.04,-15C305.51,-15 314.19,-15 322.78,-15"/>
<polygon fill="#63b8ff" stroke="#63b8ff" points="322.81,-18.5 332.81,-15 322.81,-11.5 322.81,-18.5"/>
</a>
</g>
</g>
</g>
</svg>
