<?xml version="1.0" encoding="UTF-8" standalone="no"?>
<!DOCTYPE svg PUBLIC "-//W3C//DTD SVG 1.1//EN"
 "http://www.w3.org/Graphics/SVG/1.1/DTD/svg11.dtd">
<!-- Generated by graphviz version 2.43.0 (0)
 -->
<!-- Title: iii_drone::control::maneuver::ManeuverQueue::find Pages: 1 -->
<!--zoomable 127 -->

<svg id="main" version="1.1" xmlns="http://www.w3.org/2000/svg" xmlns:xlink="http://www.w3.org/1999/xlink" xml:space="preserve" onload="init(evt)">
<style type="text/css"><![CDATA[
.node, .edge {opacity: 0.7;}
.node.selected, .edge.selected {opacity: 1;}
.edge:hover path { stroke: red; }
.edge:hover polygon { stroke: red; fill: red; }
]]></style>

<defs>
  <circle id="rim" cx="0" cy="0" r="7"/>
  <circle id="rim2" cx="0" cy="0" r="3.5"/>
  <g id="zoomPlus">
    <use xlink:href="#rim" fill="#404040"><set attributeName="fill" to="#808080" begin="zoomplus.mouseover" end="zoomplus.mouseout"/></use>
    <path d="M-4,0h8M0,-4v8" fill="none" stroke="white" stroke-width="1.5" pointer-events="none"/>
  </g>
  <g id="zoomMin">
    <use xlink:href="#rim" fill="#404040"><set attributeName="fill" to="#808080" begin="zoomminus.mouseover" end="zoomminus.mouseout"/></use>
    <path d="M-4,0h8" fill="none" stroke="white" stroke-width="1.5" pointer-events="none"/>
  </g>
  <g id="arrowUp" transform="translate(30 24)">
    <use xlink:href="#rim"/>
    <path pointer-events="none" fill="none" stroke="white" stroke-width="1.5" d="M0,-3.0v7 M-2.5,-0.5L0,-3.0L2.5,-0.5"/>
  </g>
  <g id="arrowRight" transform="rotate(90) translate(36 -43)">
    <use xlink:href="#rim"/>
    <path pointer-events="none" fill="none" stroke="white" stroke-width="1.5" d="M0,-3.0v7 M-2.5,-0.5L0,-3.0L2.5,-0.5"/>
  </g>
  <g id="arrowDown" transform="rotate(180) translate(-30 -48)">
    <use xlink:href="#rim"/>
    <path pointer-events="none" fill="none" stroke="white" stroke-width="1.5" d="M0,-3.0v7 M-2.5,-0.5L0,-3.0L2.5,-0.5"/>
  </g>
  <g id="arrowLeft" transform="rotate(270) translate(-36 17)">
    <use xlink:href="#rim"/>
    <path pointer-events="none" fill="none" stroke="white" stroke-width="1.5" d="M0,-3.0v7 M-2.5,-0.5L0,-3.0L2.5,-0.5"/>
  </g>
  <g id="resetDef">
    <use xlink:href="#rim2" fill="#404040"><set attributeName="fill" to="#808080" begin="reset.mouseover" end="reset.mouseout"/></use>
  </g>
</defs>
<script type="application/ecmascript">
var viewWidth = 1253;
var viewHeight = 127;
var sectionId = 'dynsection-8';
</script>
<script type="application/ecmascript" xlink:href="svg.min.js"/>
<svg id="graph" class="graph">
<g id="viewport">
<title>iii_drone::control::maneuver::ManeuverQueue::find</title>
<!-- Node1 -->
<g id="Node000001" class="node">
<title>Node1</title>
<g id="a_Node000001"><a xlink:title="Finds a maneuver in the queue by its UUID.">
<polygon fill="#999999" stroke="#666666" points="1245,-91.5 1063,-91.5 1063,-61.5 1245,-61.5 1245,-91.5"/>
<text text-anchor="start" x="1071" y="-79.5" font-family="Helvetica,sans-Serif" font-size="10.00">iii_drone::control</text>
<text text-anchor="middle" x="1154" y="-68.5" font-family="Helvetica,sans-Serif" font-size="10.00">::maneuver::ManeuverQueue::find</text>
</a>
</g>
</g>
<!-- Node2 -->
<g id="Node000002" class="node">
<title>Node2</title>
<g id="a_Node000002"><a xlink:href="classiii__drone_1_1control_1_1maneuver_1_1ManeuverQueue.html#a76acc1a7540ee1b506f7b72607b4081f" target="_top" xlink:title="Finds a maneuver from UUID.">
<polygon fill="white" stroke="#666666" points="1027,-118.5 842,-118.5 842,-88.5 1027,-88.5 1027,-118.5"/>
<text text-anchor="start" x="850" y="-106.5" font-family="Helvetica,sans-Serif" font-size="10.00">iii_drone::control</text>
<text text-anchor="middle" x="934.5" y="-95.5" font-family="Helvetica,sans-Serif" font-size="10.00">::maneuver::ManeuverQueue::Find</text>
</a>
</g>
</g>
<!-- Node1&#45;&gt;Node2 -->
<g id="edge1_Node000001_Node000002" class="edge">
<title>Node1&#45;&gt;Node2</title>
<g id="a_edge1_Node000001_Node000002"><a xlink:title=" ">
<path fill="none" stroke="#63b8ff" d="M1052.95,-88.92C1044.37,-89.98 1035.73,-91.06 1027.22,-92.11"/>
<polygon fill="#63b8ff" stroke="#63b8ff" points="1053.47,-92.38 1062.96,-87.68 1052.61,-85.44 1053.47,-92.38"/>
</a>
</g>
</g>
<!-- Node7 -->
<g id="Node000007" class="node">
<title>Node7</title>
<g id="a_Node000007"><a xlink:href="classiii__drone_1_1control_1_1maneuver_1_1ManeuverQueue.html#ad3db1eaff352424f72c3ee535b7fd522" target="_top" xlink:title="Updates a maneuver in the queue. Replace the first occurrence of the maneuver.">
<polygon fill="white" stroke="#666666" points="1013.5,-70 855.5,-70 855.5,-29 1013.5,-29 1013.5,-70"/>
<text text-anchor="start" x="863.5" y="-58" font-family="Helvetica,sans-Serif" font-size="10.00">iii_drone::control</text>
<text text-anchor="start" x="863.5" y="-47" font-family="Helvetica,sans-Serif" font-size="10.00">::maneuver::ManeuverQueue</text>
<text text-anchor="middle" x="934.5" y="-36" font-family="Helvetica,sans-Serif" font-size="10.00">::Update</text>
</a>
</g>
</g>
<!-- Node1&#45;&gt;Node7 -->
<g id="edge7_Node000001_Node000007" class="edge">
<title>Node1&#45;&gt;Node7</title>
<g id="a_edge7_Node000001_Node000007"><a xlink:title=" ">
<path fill="none" stroke="#63b8ff" d="M1052.94,-64.08C1039.76,-62.44 1026.41,-60.79 1013.67,-59.2"/>
<polygon fill="#63b8ff" stroke="#63b8ff" points="1052.61,-67.56 1062.96,-65.32 1053.47,-60.62 1052.61,-67.56"/>
</a>
</g>
</g>
<!-- Node3 -->
<g id="Node000003" class="node">
<title>Node3</title>
<g id="a_Node000003"><a xlink:href="classiii__drone_1_1control_1_1maneuver_1_1ManeuverScheduler.html#ab393b4204a5c4368ee503e9af8b27a22" target="_top" xlink:title="Registers a maneuver type with a maneuver server.">
<polygon fill="white" stroke="#666666" points="595,-100 420,-100 420,-59 595,-59 595,-100"/>
<text text-anchor="start" x="428" y="-88" font-family="Helvetica,sans-Serif" font-size="10.00">iii_drone::control</text>
<text text-anchor="start" x="428" y="-77" font-family="Helvetica,sans-Serif" font-size="10.00">::maneuver::ManeuverScheduler</text>
<text text-anchor="middle" x="507.5" y="-66" font-family="Helvetica,sans-Serif" font-size="10.00">::RegisterManeuverServer</text>
</a>
</g>
</g>
<!-- Node2&#45;&gt;Node3 -->
<g id="edge2_Node000002_Node000003" class="edge">
<title>Node2&#45;&gt;Node3</title>
<g id="a_edge2_Node000002_Node000003"><a xlink:title=" ">
<path fill="none" stroke="#63b8ff" d="M831.78,-112.57C772.92,-116.06 697.55,-117.53 631,-109.5 614.26,-107.48 596.51,-103.96 579.87,-100.03"/>
<polygon fill="#63b8ff" stroke="#63b8ff" points="832.07,-116.06 841.83,-111.95 831.63,-109.08 832.07,-116.06"/>
</a>
</g>
</g>
<!-- Node6 -->
<g id="Node000006" class="node">
<title>Node6</title>
<g id="a_Node000006"><a xlink:href="classiii__drone_1_1control_1_1maneuver_1_1ManeuverScheduler.html#a0c01b257aa516fb896fdc59e91304540" target="_top" xlink:title="Updates a maneuver entry which has been registered with the correct goal handle after the maneuver ha...">
<polygon fill="white" stroke="#666666" points="806,-100 631,-100 631,-59 806,-59 806,-100"/>
<text text-anchor="start" x="639" y="-88" font-family="Helvetica,sans-Serif" font-size="10.00">iii_drone::control</text>
<text text-anchor="start" x="639" y="-77" font-family="Helvetica,sans-Serif" font-size="10.00">::maneuver::ManeuverScheduler</text>
<text text-anchor="middle" x="718.5" y="-66" font-family="Helvetica,sans-Serif" font-size="10.00">::UpdateManeuver</text>
</a>
</g>
</g>
<!-- Node2&#45;&gt;Node6 -->
<g id="edge5_Node000002_Node000006" class="edge">
<title>Node2&#45;&gt;Node6</title>
<g id="a_edge5_Node000002_Node000006"><a xlink:title=" ">
<path fill="none" stroke="#63b8ff" d="M831.81,-92.1C823.26,-91.14 814.67,-90.17 806.25,-89.23"/>
<polygon fill="#63b8ff" stroke="#63b8ff" points="831.49,-95.58 841.81,-93.22 832.27,-88.62 831.49,-95.58"/>
</a>
</g>
</g>
<!-- Node4 -->
<g id="Node000004" class="node">
<title>Node4</title>
<g id="a_Node000004"><a xlink:href="classiii__drone_1_1control_1_1maneuver__controller__node_1_1ManeuverControllerNode.html#a1c587895df3c61bd6b748e97942cd619" target="_top" xlink:title="Creates and registers all maneuver servers with the maneuver scheduler.">
<polygon fill="white" stroke="#666666" points="384,-105.5 210,-105.5 210,-53.5 384,-53.5 384,-105.5"/>
<text text-anchor="start" x="218" y="-93.5" font-family="Helvetica,sans-Serif" font-size="10.00">iii_drone::control</text>
<text text-anchor="start" x="218" y="-82.5" font-family="Helvetica,sans-Serif" font-size="10.00">::maneuver_controller</text>
<text text-anchor="start" x="218" y="-71.5" font-family="Helvetica,sans-Serif" font-size="10.00">_node::ManeuverControllerNode</text>
<text text-anchor="middle" x="297" y="-60.5" font-family="Helvetica,sans-Serif" font-size="10.00">::registerManeuverServers</text>
</a>
</g>
</g>
<!-- Node3&#45;&gt;Node4 -->
<g id="edge3_Node000003_Node000004" class="edge">
<title>Node3&#45;&gt;Node4</title>
<g id="a_edge3_Node000003_Node000004"><a xlink:title=" ">
<path fill="none" stroke="#63b8ff" d="M409.82,-79.5C401.21,-79.5 392.52,-79.5 384.01,-79.5"/>
<polygon fill="#63b8ff" stroke="#63b8ff" points="409.89,-83 419.89,-79.5 409.89,-76 409.89,-83"/>
</a>
</g>
</g>
<!-- Node5 -->
<g id="Node000005" class="node">
<title>Node5</title>
<g id="a_Node000005"><a xlink:href="classiii__drone_1_1control_1_1maneuver__controller__node_1_1ManeuverControllerNode.html#a291f0abf320443ed6ad4a248ba028b8c" target="_top" xlink:title="Constructor. Creates the node, initializes the configurator, the transform buffer and listener,...">
<polygon fill="white" stroke="#666666" points="174,-105.5 0,-105.5 0,-53.5 174,-53.5 174,-105.5"/>
<text text-anchor="start" x="8" y="-93.5" font-family="Helvetica,sans-Serif" font-size="10.00">iii_drone::control</text>
<text text-anchor="start" x="8" y="-82.5" font-family="Helvetica,sans-Serif" font-size="10.00">::maneuver_controller</text>
<text text-anchor="start" x="8" y="-71.5" font-family="Helvetica,sans-Serif" font-size="10.00">_node::ManeuverControllerNode</text>
<text text-anchor="middle" x="87" y="-60.5" font-family="Helvetica,sans-Serif" font-size="10.00">::ManeuverControllerNode</text>
</a>
</g>
</g>
<!-- Node4&#45;&gt;Node5 -->
<g id="edge4_Node000004_Node000005" class="edge">
<title>Node4&#45;&gt;Node5</title>
<g id="a_edge4_Node000004_Node000005"><a xlink:title=" ">
<path fill="none" stroke="#63b8ff" d="M199.84,-79.5C191.23,-79.5 182.55,-79.5 174.04,-79.5"/>
<polygon fill="#63b8ff" stroke="#63b8ff" points="199.9,-83 209.9,-79.5 199.9,-76 199.9,-83"/>
</a>
</g>
</g>
<!-- Node6&#45;&gt;Node3 -->
<g id="edge6_Node000006_Node000003" class="edge">
<title>Node6&#45;&gt;Node3</title>
<g id="a_edge6_Node000006_Node000003"><a xlink:title=" ">
<path fill="none" stroke="#63b8ff" d="M620.97,-79.5C612.41,-79.5 603.77,-79.5 595.29,-79.5"/>
<polygon fill="#63b8ff" stroke="#63b8ff" points="620.98,-83 630.98,-79.5 620.98,-76 620.98,-83"/>
</a>
</g>
</g>
<!-- Node7&#45;&gt;Node6 -->
<g id="edge10_Node000007_Node000006" class="edge">
<title>Node7&#45;&gt;Node6</title>
<g id="a_edge10_Node000007_Node000006"><a xlink:title=" ">
<path fill="none" stroke="#63b8ff" d="M845.1,-61.89C832.22,-63.7 818.97,-65.56 806.13,-67.36"/>
<polygon fill="#63b8ff" stroke="#63b8ff" points="845.92,-65.31 855.33,-60.46 844.94,-58.38 845.92,-65.31"/>
</a>
</g>
</g>
<!-- Node8 -->
<g id="Node000008" class="node">
<title>Node8</title>
<g id="a_Node000008"><a xlink:href="classiii__drone_1_1control_1_1maneuver_1_1ManeuverScheduler.html#ae6b24f5665082c8552cdbc5da76069e1" target="_top" xlink:title="Cancels a maneuver entry which has been registered before execution starts.">
<polygon fill="white" stroke="#666666" points="806,-41 631,-41 631,0 806,0 806,-41"/>
<text text-anchor="start" x="639" y="-29" font-family="Helvetica,sans-Serif" font-size="10.00">iii_drone::control</text>
<text text-anchor="start" x="639" y="-18" font-family="Helvetica,sans-Serif" font-size="10.00">::maneuver::ManeuverScheduler</text>
<text text-anchor="middle" x="718.5" y="-7" font-family="Helvetica,sans-Serif" font-size="10.00">::CancelManeuver</text>
</a>
</g>
</g>
<!-- Node7&#45;&gt;Node8 -->
<g id="edge8_Node000007_Node000008" class="edge">
<title>Node7&#45;&gt;Node8</title>
<g id="a_edge8_Node000007_Node000008"><a xlink:title=" ">
<path fill="none" stroke="#63b8ff" d="M845.1,-37.52C832.22,-35.78 818.97,-33.98 806.13,-32.24"/>
<polygon fill="#63b8ff" stroke="#63b8ff" points="844.95,-41.03 855.33,-38.91 845.89,-34.1 844.95,-41.03"/>
</a>
</g>
</g>
<!-- Node8&#45;&gt;Node3 -->
<g id="edge9_Node000008_Node000003" class="edge">
<title>Node8&#45;&gt;Node3</title>
<g id="a_edge9_Node000008_Node000003"><a xlink:title=" ">
<path fill="none" stroke="#63b8ff" d="M634.97,-43.8C617.27,-48.79 598.7,-54.04 581.4,-58.92"/>
<polygon fill="#63b8ff" stroke="#63b8ff" points="636.02,-47.14 644.7,-41.05 634.12,-40.4 636.02,-47.14"/>
</a>
</g>
</g>
</g>
</svg>

<g id="navigator" transform="translate(0 0)" fill="#404254">
  <rect fill="#f2f5e9" fill-opacity="0.5" stroke="#606060" stroke-width=".5" x="0" y="0" width="60" height="60"/>
  <use id="zoomplus" xlink:href="#zoomPlus" x="17" y="9" onmousedown="handleZoom(evt,'in')"/>
  <use id="zoomminus" xlink:href="#zoomMin" x="42" y="9" onmousedown="handleZoom(evt,'out')"/>
  <use id="reset" xlink:href="#resetDef" x="30" y="36" onmousedown="handleReset()"/>
   <use id="arrowup" xlink:href="#arrowUp" x="0" y="0" onmousedown="handlePan(0,-1)"/>
  <use id="arrowright" xlink:href="#arrowRight" x="0" y="0" onmousedown="handlePan(1,0)"/>
  <use id="arrowdown" xlink:href="#arrowDown" x="0" y="0" onmousedown="handlePan(0,1)"/>
  <use id="arrowleft" xlink:href="#arrowLeft" x="0" y="0" onmousedown="handlePan(-1,0)"/>
</g>
<svg viewBox="0 0 15 15" width="100%" height="30px" preserveAspectRatio="xMaxYMin meet">
 <g id="arrow_out" transform="scale(0.3 0.3)">
  <a xlink:href="classiii__drone_1_1control_1_1maneuver_1_1ManeuverQueue_a5d1aebf4c43998899389737a1b50b6a7_icgraph_org.svg" target="_base">
   <rect id="button" ry="5" rx="5" y="6" x="6" height="38" width="38"
        fill="#f2f5e9" fill-opacity="0.5" stroke="#606060" stroke-width="1.0"/>
   <path id="arrow"
     d="M 11.500037,31.436501 C 11.940474,20.09759 22.043105,11.32322 32.158766,21.979434 L 37.068811,17.246167 C 37.068811,17.246167 37.088388,32 37.088388,32 L 22.160133,31.978069 C 22.160133,31.978069 26.997745,27.140456 26.997745,27.140456 C 18.528582,18.264221 13.291696,25.230495 11.500037,31.436501 z"
     style="fill:#404040;"/>
  </a>
 </g>
</svg>

<style type='text/css'>
<![CDATA[
[data-mouse-over-selected='false'] { opacity: 0.7; }
[data-mouse-over-selected='true']  { opacity: 1.0; }
]]>
</style>
<script type="application/ecmascript"><![CDATA[
document.addEventListener('DOMContentLoaded', (event) => {
  highlightEdges();
  highlightAdjacentNodes();
});
]]></script>
</svg>
