<?xml version="1.0" encoding="UTF-8" standalone="no"?>
<!DOCTYPE svg PUBLIC "-//W3C//DTD SVG 1.1//EN"
 "http://www.w3.org/Graphics/SVG/1.1/DTD/svg11.dtd">
<!-- Generated by graphviz version 2.43.0 (0)
 -->
<!-- Title: iii_drone::control::maneuver_controller_node::ManeuverControllerNode Pages: 1 -->
<svg width="176pt" height="436pt"
 viewBox="0.00 0.00 176.00 436.00" xmlns="http://www.w3.org/2000/svg" xmlns:xlink="http://www.w3.org/1999/xlink">
<g id="graph0" class="graph" transform="scale(1 1) rotate(0) translate(4 432)">
<title>iii_drone::control::maneuver_controller_node::ManeuverControllerNode</title>
<!-- Node1 -->
<g id="Node000001" class="node">
<title>Node1</title>
<g id="a_Node000001"><a xlink:title="The ManeuverControllerNode class. Responsible for execution of maneuvers. Uses the CombinedDroneAware...">
<polygon fill="#999999" stroke="transparent" points="168,-343 0,-343 0,0 168,0 168,-343"/>
<text text-anchor="start" x="5" y="-330.5" font-family="Helvetica,sans-Serif" font-size="10.00">iii_drone::control</text>
<text text-anchor="start" x="5" y="-319.5" font-family="Helvetica,sans-Serif" font-size="10.00">::maneuver_controller</text>
<text text-anchor="start" x="5" y="-308.5" font-family="Helvetica,sans-Serif" font-size="10.00">_node::ManeuverControllerNode</text>
<text text-anchor="start" x="8.5" y="-293.5" font-family="Helvetica,sans-Serif" font-size="10.00">&#45;</text>
<text text-anchor="start" x="21" y="-293.5" font-family="Helvetica,sans-Serif" font-size="10.00">configurator_</text>
<text text-anchor="start" x="8.5" y="-278.5" font-family="Helvetica,sans-Serif" font-size="10.00">&#45;</text>
<text text-anchor="start" x="21" y="-278.5" font-family="Helvetica,sans-Serif" font-size="10.00">tf_buffer_</text>
<text text-anchor="start" x="8.5" y="-263.5" font-family="Helvetica,sans-Serif" font-size="10.00">&#45;</text>
<text text-anchor="start" x="21" y="-263.5" font-family="Helvetica,sans-Serif" font-size="10.00">tf_listener_</text>
<text text-anchor="start" x="8.5" y="-248.5" font-family="Helvetica,sans-Serif" font-size="10.00">&#45;</text>
<text text-anchor="start" x="21" y="-248.5" font-family="Helvetica,sans-Serif" font-size="10.00">combined_drone_awareness</text>
<text text-anchor="start" x="21" y="-237.5" font-family="Helvetica,sans-Serif" font-size="10.00">_handler_</text>
<text text-anchor="start" x="8.5" y="-222.5" font-family="Helvetica,sans-Serif" font-size="10.00">&#45;</text>
<text text-anchor="start" x="21" y="-222.5" font-family="Helvetica,sans-Serif" font-size="10.00">trajectory_generator</text>
<text text-anchor="start" x="21" y="-211.5" font-family="Helvetica,sans-Serif" font-size="10.00">_client_</text>
<text text-anchor="start" x="8.5" y="-196.5" font-family="Helvetica,sans-Serif" font-size="10.00">&#45;</text>
<text text-anchor="start" x="21" y="-196.5" font-family="Helvetica,sans-Serif" font-size="10.00">maneuver_execution</text>
<text text-anchor="start" x="21" y="-185.5" font-family="Helvetica,sans-Serif" font-size="10.00">_cb_group_</text>
<text text-anchor="start" x="8.5" y="-170.5" font-family="Helvetica,sans-Serif" font-size="10.00">&#45;</text>
<text text-anchor="start" x="21" y="-170.5" font-family="Helvetica,sans-Serif" font-size="10.00">maneuver_scheduler_</text>
<text text-anchor="start" x="8.5" y="-155.5" font-family="Helvetica,sans-Serif" font-size="10.00">&#45;</text>
<text text-anchor="start" x="21" y="-155.5" font-family="Helvetica,sans-Serif" font-size="10.00">hover_maneuver_server_</text>
<text text-anchor="start" x="8.5" y="-140.5" font-family="Helvetica,sans-Serif" font-size="10.00">&#45;</text>
<text text-anchor="start" x="21" y="-140.5" font-family="Helvetica,sans-Serif" font-size="10.00">hover_by_object_maneuver</text>
<text text-anchor="start" x="21" y="-129.5" font-family="Helvetica,sans-Serif" font-size="10.00">_server_</text>
<text text-anchor="start" x="8.5" y="-114.5" font-family="Helvetica,sans-Serif" font-size="10.00">&#45;</text>
<text text-anchor="start" x="21" y="-114.5" font-family="Helvetica,sans-Serif" font-size="10.00">hover_on_cable_maneuver</text>
<text text-anchor="start" x="21" y="-103.5" font-family="Helvetica,sans-Serif" font-size="10.00">_server_</text>
<text text-anchor="start" x="8.5" y="-88.5" font-family="Helvetica,sans-Serif" font-size="10.00">&#45;</text>
<text text-anchor="start" x="21" y="-88.5" font-family="Helvetica,sans-Serif" font-size="10.00">fly_to_position_maneuver</text>
<text text-anchor="start" x="21" y="-77.5" font-family="Helvetica,sans-Serif" font-size="10.00">_server_</text>
<text text-anchor="start" x="8.5" y="-62.5" font-family="Helvetica,sans-Serif" font-size="10.00">&#45;</text>
<text text-anchor="start" x="21" y="-62.5" font-family="Helvetica,sans-Serif" font-size="10.00">fly_to_object_maneuver</text>
<text text-anchor="start" x="21" y="-51.5" font-family="Helvetica,sans-Serif" font-size="10.00">_server_</text>
<text text-anchor="start" x="6" y="-36.5" font-family="Helvetica,sans-Serif" font-size="10.00">+</text>
<text text-anchor="start" x="21" y="-36.5" font-family="Helvetica,sans-Serif" font-size="10.00">ManeuverControllerNode()</text>
<text text-anchor="start" x="6" y="-21.5" font-family="Helvetica,sans-Serif" font-size="10.00">+</text>
<text text-anchor="start" x="21" y="-21.5" font-family="Helvetica,sans-Serif" font-size="10.00">~ManeuverControllerNode()</text>
<text text-anchor="start" x="8.5" y="-6.5" font-family="Helvetica,sans-Serif" font-size="10.00">&#45;</text>
<text text-anchor="start" x="21" y="-6.5" font-family="Helvetica,sans-Serif" font-size="10.00">registerManeuverServers()</text>
<polygon fill="#666666" stroke="#666666" points="0,-303.5 0,-303.5 168,-303.5 168,-303.5 0,-303.5"/>
<polygon fill="#666666" stroke="#666666" points="0,-46.5 0,-46.5 19,-46.5 19,-46.5 0,-46.5"/>
<polygon fill="#666666" stroke="#666666" points="19,-46.5 19,-46.5 168,-46.5 168,-46.5 19,-46.5"/>
<polygon fill="none" stroke="#666666" points="0,0 0,-343 168,-343 168,0 0,0"/>
</a>
</g>
</g>
<!-- Node2 -->
<g id="Node000002" class="node">
<title>Node2</title>
<g id="a_Node000002"><a xlink:title=" ">
<polygon fill="white" stroke="transparent" points="119.5,-428 48.5,-428 48.5,-379 119.5,-379 119.5,-428"/>
<text text-anchor="start" x="54" y="-415.5" font-family="Helvetica,sans-Serif" font-size="10.00">rclcpp::Node</text>
<text text-anchor="start" x="82.5" y="-400.5" font-family="Helvetica,sans-Serif" font-size="10.00"> </text>
<text text-anchor="start" x="82.5" y="-385.5" font-family="Helvetica,sans-Serif" font-size="10.00"> </text>
<polygon fill="#666666" stroke="#666666" points="49,-410.5 49,-410.5 120,-410.5 120,-410.5 49,-410.5"/>
<polygon fill="#666666" stroke="#666666" points="49,-395.5 49,-395.5 120,-395.5 120,-395.5 49,-395.5"/>
<polygon fill="none" stroke="#666666" points="48.5,-379 48.5,-428 119.5,-428 119.5,-379 48.5,-379"/>
</a>
</g>
</g>
<!-- Node2&#45;&gt;Node1 -->
<g id="edge1_Node000001_Node000002" class="edge">
<title>Node2&#45;&gt;Node1</title>
<g id="a_edge1_Node000001_Node000002"><a xlink:title=" ">
<path fill="none" stroke="#63b8ff" d="M84,-368.66C84,-361.04 84,-352.45 84,-343.23"/>
<polygon fill="none" stroke="#63b8ff" points="80.5,-368.75 84,-378.75 87.5,-368.75 80.5,-368.75"/>
</a>
</g>
</g>
</g>
</svg>
