<?xml version="1.0" encoding="UTF-8" standalone="no"?>
<!DOCTYPE svg PUBLIC "-//W3C//DTD SVG 1.1//EN"
 "http://www.w3.org/Graphics/SVG/1.1/DTD/svg11.dtd">
<!-- Generated by graphviz version 2.43.0 (0)
 -->
<!-- Title: iii_drone::adapters::SingleLineAdapter::stamp Pages: 1 -->
<svg width="674pt" height="202pt"
 viewBox="0.00 0.00 674.00 201.50" xmlns="http://www.w3.org/2000/svg" xmlns:xlink="http://www.w3.org/1999/xlink">
<g id="graph0" class="graph" transform="scale(1 1) rotate(0) translate(4 197.5)">
<title>iii_drone::adapters::SingleLineAdapter::stamp</title>
<!-- Node1 -->
<g id="Node000001" class="node">
<title>Node1</title>
<g id="a_Node000001"><a xlink:title="Timestamp getter.">
<polygon fill="#999999" stroke="#666666" points="666,-134.5 555,-134.5 555,-93.5 666,-93.5 666,-134.5"/>
<text text-anchor="start" x="563" y="-122.5" font-family="Helvetica,sans-Serif" font-size="10.00">iii_drone::adapters</text>
<text text-anchor="start" x="563" y="-111.5" font-family="Helvetica,sans-Serif" font-size="10.00">::SingleLineAdapter</text>
<text text-anchor="middle" x="610.5" y="-100.5" font-family="Helvetica,sans-Serif" font-size="10.00">::stamp</text>
</a>
</g>
</g>
<!-- Node2 -->
<g id="Node000002" class="node">
<title>Node2</title>
<g id="a_Node000002"><a xlink:href="classiii__drone_1_1adapters_1_1SingleLineAdapter.html#ad5ca1a5d6a90a4f67c5b9bb59f9c8066" target="_top" xlink:title="Constructor from pose msg.">
<polygon fill="white" stroke="#666666" points="517,-193.5 406,-193.5 406,-152.5 517,-152.5 517,-193.5"/>
<text text-anchor="start" x="414" y="-181.5" font-family="Helvetica,sans-Serif" font-size="10.00">iii_drone::adapters</text>
<text text-anchor="start" x="414" y="-170.5" font-family="Helvetica,sans-Serif" font-size="10.00">::SingleLineAdapter</text>
<text text-anchor="middle" x="461.5" y="-159.5" font-family="Helvetica,sans-Serif" font-size="10.00">::SingleLineAdapter</text>
</a>
</g>
</g>
<!-- Node1&#45;&gt;Node2 -->
<g id="edge1_Node000001_Node000002" class="edge">
<title>Node1&#45;&gt;Node2</title>
<g id="a_edge1_Node000001_Node000002"><a xlink:title=" ">
<path fill="none" stroke="#63b8ff" d="M548.48,-138.49C536.89,-143.14 524.88,-147.96 513.64,-152.48"/>
<polygon fill="#63b8ff" stroke="#63b8ff" points="550.11,-141.61 558.09,-134.64 547.5,-135.11 550.11,-141.61"/>
</a>
</g>
</g>
<!-- Node3 -->
<g id="Node000003" class="node">
<title>Node3</title>
<g id="a_Node000003"><a xlink:href="classiii__drone_1_1adapters_1_1SingleLineAdapter.html#a04f02d018320742a79f473e1dd502b31" target="_top" xlink:title="Constructor from members.">
<polygon fill="white" stroke="#666666" points="517,-134.5 406,-134.5 406,-93.5 517,-93.5 517,-134.5"/>
<text text-anchor="start" x="414" y="-122.5" font-family="Helvetica,sans-Serif" font-size="10.00">iii_drone::adapters</text>
<text text-anchor="start" x="414" y="-111.5" font-family="Helvetica,sans-Serif" font-size="10.00">::SingleLineAdapter</text>
<text text-anchor="middle" x="461.5" y="-100.5" font-family="Helvetica,sans-Serif" font-size="10.00">::SingleLineAdapter</text>
</a>
</g>
</g>
<!-- Node1&#45;&gt;Node3 -->
<g id="edge2_Node000001_Node000003" class="edge">
<title>Node1&#45;&gt;Node3</title>
<g id="a_edge2_Node000001_Node000003"><a xlink:title=" ">
<path fill="none" stroke="#63b8ff" d="M544.58,-114C535.47,-114 526.18,-114 517.28,-114"/>
<polygon fill="#63b8ff" stroke="#63b8ff" points="544.76,-117.5 554.76,-114 544.76,-110.5 544.76,-117.5"/>
</a>
</g>
</g>
<!-- Node4 -->
<g id="Node000004" class="node">
<title>Node4</title>
<g id="a_Node000004"><a xlink:href="classiii__drone_1_1adapters_1_1PowerlineAdapter.html#aef819ac0c9aae37561e82c687446a718" target="_top" xlink:title="Updates the powerline adapter object from a message.">
<polygon fill="white" stroke="#666666" points="519,-75.5 404,-75.5 404,-34.5 519,-34.5 519,-75.5"/>
<text text-anchor="start" x="412" y="-63.5" font-family="Helvetica,sans-Serif" font-size="10.00">iii_drone::adapters</text>
<text text-anchor="start" x="412" y="-52.5" font-family="Helvetica,sans-Serif" font-size="10.00">::PowerlineAdapter::</text>
<text text-anchor="middle" x="461.5" y="-41.5" font-family="Helvetica,sans-Serif" font-size="10.00">UpdateFromMsg</text>
</a>
</g>
</g>
<!-- Node1&#45;&gt;Node4 -->
<g id="edge3_Node000001_Node000004" class="edge">
<title>Node1&#45;&gt;Node4</title>
<g id="a_edge3_Node000001_Node000004"><a xlink:title=" ">
<path fill="none" stroke="#63b8ff" d="M548.48,-89.51C536.89,-84.86 524.88,-80.04 513.64,-75.52"/>
<polygon fill="#63b8ff" stroke="#63b8ff" points="547.5,-92.89 558.09,-93.36 550.11,-86.39 547.5,-92.89"/>
</a>
</g>
</g>
<!-- Node5 -->
<g id="Node000005" class="node">
<title>Node5</title>
<g id="a_Node000005"><a xlink:href="classiii__drone_1_1adapters_1_1PowerlineAdapter.html#a103e03296fccb8a4a89307566a19eaff" target="_top" xlink:title="Constructor from message.">
<polygon fill="white" stroke="#666666" points="353.5,-105.5 238.5,-105.5 238.5,-64.5 353.5,-64.5 353.5,-105.5"/>
<text text-anchor="start" x="246.5" y="-93.5" font-family="Helvetica,sans-Serif" font-size="10.00">iii_drone::adapters</text>
<text text-anchor="start" x="246.5" y="-82.5" font-family="Helvetica,sans-Serif" font-size="10.00">::PowerlineAdapter::</text>
<text text-anchor="middle" x="296" y="-71.5" font-family="Helvetica,sans-Serif" font-size="10.00">PowerlineAdapter</text>
</a>
</g>
</g>
<!-- Node4&#45;&gt;Node5 -->
<g id="edge4_Node000004_Node000005" class="edge">
<title>Node4&#45;&gt;Node5</title>
<g id="a_edge4_Node000004_Node000005"><a xlink:title=" ">
<path fill="none" stroke="#63b8ff" d="M393.73,-67.25C380.42,-69.69 366.56,-72.24 353.63,-74.61"/>
<polygon fill="#63b8ff" stroke="#63b8ff" points="394.57,-70.66 403.77,-65.41 393.31,-63.77 394.57,-70.66"/>
</a>
</g>
</g>
<!-- Node6 -->
<g id="Node000006" class="node">
<title>Node6</title>
<g id="a_Node000006"><a xlink:href="classiii__drone_1_1perception_1_1PowerlineDirection.html#a53c5f053feca67888e972a889476ccc8" target="_top" xlink:title="Updates the PowerlineAdapter object.">
<polygon fill="white" stroke="#666666" points="368,-46.5 224,-46.5 224,-5.5 368,-5.5 368,-46.5"/>
<text text-anchor="start" x="232" y="-34.5" font-family="Helvetica,sans-Serif" font-size="10.00">iii_drone::perception</text>
<text text-anchor="start" x="232" y="-23.5" font-family="Helvetica,sans-Serif" font-size="10.00">::PowerlineDirection</text>
<text text-anchor="middle" x="296" y="-12.5" font-family="Helvetica,sans-Serif" font-size="10.00">::UpdatePowerlineAdapter</text>
</a>
</g>
</g>
<!-- Node4&#45;&gt;Node6 -->
<g id="edge5_Node000004_Node000006" class="edge">
<title>Node4&#45;&gt;Node6</title>
<g id="a_edge5_Node000004_Node000006"><a xlink:title=" ">
<path fill="none" stroke="#63b8ff" d="M393.9,-43.19C385.37,-41.67 376.62,-40.12 368.03,-38.6"/>
<polygon fill="#63b8ff" stroke="#63b8ff" points="393.32,-46.64 403.77,-44.94 394.54,-39.75 393.32,-46.64"/>
</a>
</g>
</g>
<!-- Node7 -->
<g id="Node000007" class="node">
<title>Node7</title>
<g id="a_Node000007"><a xlink:href="classiii__drone_1_1perception_1_1pl__dir__computer__node_1_1PowerlineDirectionComputerNode.html#a7d69d952785cf09e8cd381bd624480f2" target="_top" xlink:title="Construct a new Powerline Direction Computer Node object.">
<polygon fill="white" stroke="#666666" points="188,-52 0,-52 0,0 188,0 188,-52"/>
<text text-anchor="start" x="8" y="-40" font-family="Helvetica,sans-Serif" font-size="10.00">iii_drone::perception</text>
<text text-anchor="start" x="8" y="-29" font-family="Helvetica,sans-Serif" font-size="10.00">::pl_dir_computer_node</text>
<text text-anchor="start" x="8" y="-18" font-family="Helvetica,sans-Serif" font-size="10.00">::PowerlineDirectionComputerNode</text>
<text text-anchor="middle" x="94" y="-7" font-family="Helvetica,sans-Serif" font-size="10.00">::PowerlineDirectionComputerNode</text>
</a>
</g>
</g>
<!-- Node6&#45;&gt;Node7 -->
<g id="edge6_Node000006_Node000007" class="edge">
<title>Node6&#45;&gt;Node7</title>
<g id="a_edge6_Node000006_Node000007"><a xlink:title=" ">
<path fill="none" stroke="#63b8ff" d="M213.77,-26C205.36,-26 196.76,-26 188.23,-26"/>
<polygon fill="#63b8ff" stroke="#63b8ff" points="213.92,-29.5 223.92,-26 213.92,-22.5 213.92,-29.5"/>
</a>
</g>
</g>
</g>
</svg>
