<?xml version="1.0" encoding="UTF-8" standalone="no"?>
<!DOCTYPE svg PUBLIC "-//W3C//DTD SVG 1.1//EN"
 "http://www.w3.org/Graphics/SVG/1.1/DTD/svg11.dtd">
<!-- Generated by graphviz version 2.43.0 (0)
 -->
<!-- Title: iii_drone::control::maneuver::FlyToPositionManeuverServer::hasSucceeded Pages: 1 -->
<svg width="428pt" height="312pt"
 viewBox="0.00 0.00 428.00 311.50" xmlns="http://www.w3.org/2000/svg" xmlns:xlink="http://www.w3.org/1999/xlink">

<svg id="main" version="1.1" xmlns="http://www.w3.org/2000/svg" xmlns:xlink="http://www.w3.org/1999/xlink" xml:space="preserve" onload="init(evt)">
<style type="text/css"><![CDATA[
.node, .edge {opacity: 0.7;}
.node.selected, .edge.selected {opacity: 1;}
.edge:hover path { stroke: red; }
.edge:hover polygon { stroke: red; fill: red; }
]]></style>
<script type="application/ecmascript" xlink:href="svg.min.js"/>
<svg id="graph" class="graph">
<g id="graph0" class="graph" transform="scale(1 1) rotate(0) translate(4 307.5)">
<title>iii_drone::control::maneuver::FlyToPositionManeuverServer::hasSucceeded</title>
<!-- Node1 -->
<g id="Node000001" class="node">
<title>Node1</title>
<g id="a_Node000001"><a xlink:title="Whether the maneuver has succeeded, returns true if the drone is within the position tolerance.">
<polygon fill="#999999" stroke="#666666" points="191,-171.5 0,-171.5 0,-130.5 191,-130.5 191,-171.5"/>
<text text-anchor="start" x="8" y="-159.5" font-family="Helvetica,sans-Serif" font-size="10.00">iii_drone::control</text>
<text text-anchor="start" x="8" y="-148.5" font-family="Helvetica,sans-Serif" font-size="10.00">::maneuver::FlyToPositionManeuver</text>
<text text-anchor="middle" x="95.5" y="-137.5" font-family="Helvetica,sans-Serif" font-size="10.00">Server::hasSucceeded</text>
</a>
</g>
</g>
<!-- Node2 -->
<g id="Node000002" class="node">
<title>Node2</title>
<g id="a_Node000002"><a xlink:href="classiii__drone_1_1control_1_1maneuver_1_1ManeuverServer.html#aa25571ba492acf43cd9af009c02cf72e" target="_top" xlink:title="Combined drone awareness handler, accessible to derived classes through the protected method.">
<polygon fill="white" stroke="#666666" points="402.5,-303.5 244.5,-303.5 244.5,-262.5 402.5,-262.5 402.5,-303.5"/>
<text text-anchor="start" x="252.5" y="-291.5" font-family="Helvetica,sans-Serif" font-size="10.00">iii_drone::control</text>
<text text-anchor="start" x="252.5" y="-280.5" font-family="Helvetica,sans-Serif" font-size="10.00">::maneuver::ManeuverServer</text>
<text text-anchor="middle" x="323.5" y="-269.5" font-family="Helvetica,sans-Serif" font-size="10.00">::awareness_handler</text>
</a>
</g>
</g>
<!-- Node1&#45;&gt;Node2 -->
<g id="edge1_Node000001_Node000002" class="edge">
<title>Node1&#45;&gt;Node2</title>
<g id="a_edge1_Node000001_Node000002"><a xlink:title=" ">
<path fill="none" stroke="#63b8ff" d="M117.88,-171.72C142.42,-194.5 184.75,-230.79 227,-253 230.72,-254.96 234.59,-256.81 238.55,-258.56"/>
<polygon fill="#63b8ff" stroke="#63b8ff" points="237.34,-261.85 247.92,-262.48 240.04,-255.39 237.34,-261.85"/>
</a>
</g>
</g>
<!-- Node3 -->
<g id="Node000003" class="node">
<title>Node3</title>
<g id="a_Node000003"><a xlink:href="classiii__drone_1_1control_1_1Reference.html#a2ba5647e5161e35e0588394dcae0663b" target="_top" xlink:title=" ">
<polygon fill="white" stroke="#666666" points="382,-244 265,-244 265,-214 382,-214 382,-244"/>
<text text-anchor="start" x="273" y="-232" font-family="Helvetica,sans-Serif" font-size="10.00">iii_drone::control</text>
<text text-anchor="middle" x="323.5" y="-221" font-family="Helvetica,sans-Serif" font-size="10.00">::Reference::position</text>
</a>
</g>
</g>
<!-- Node1&#45;&gt;Node3 -->
<g id="edge2_Node000001_Node000003" class="edge">
<title>Node1&#45;&gt;Node3</title>
<g id="a_edge2_Node000001_Node000003"><a xlink:title=" ">
<path fill="none" stroke="#63b8ff" d="M141.48,-171.52C166.36,-182.38 198.02,-195.42 227,-205 235.97,-207.97 245.53,-210.77 254.99,-213.35"/>
<polygon fill="#63b8ff" stroke="#63b8ff" points="254.23,-216.77 264.79,-215.94 256.02,-210 254.23,-216.77"/>
</a>
</g>
</g>
<!-- Node4 -->
<g id="Node000004" class="node">
<title>Node4</title>
<g id="a_Node000004"><a xlink:href="classiii__drone_1_1control_1_1State.html#ac7d02a667c215a72d7f7f2fdf1501eb4" target="_top" xlink:title=" ">
<polygon fill="white" stroke="#666666" points="372.5,-196 274.5,-196 274.5,-166 372.5,-166 372.5,-196"/>
<text text-anchor="start" x="282.5" y="-184" font-family="Helvetica,sans-Serif" font-size="10.00">iii_drone::control</text>
<text text-anchor="middle" x="323.5" y="-173" font-family="Helvetica,sans-Serif" font-size="10.00">::State::position</text>
</a>
</g>
</g>
<!-- Node1&#45;&gt;Node4 -->
<g id="edge3_Node000001_Node000004" class="edge">
<title>Node1&#45;&gt;Node4</title>
<g id="a_edge3_Node000001_Node000004"><a xlink:title=" ">
<path fill="none" stroke="#63b8ff" d="M191.03,-163.55C215.89,-166.85 241.98,-170.31 264.3,-173.27"/>
<polygon fill="#63b8ff" stroke="#63b8ff" points="263.9,-176.75 274.27,-174.6 264.82,-169.81 263.9,-176.75"/>
</a>
</g>
</g>
<!-- Node5 -->
<g id="Node000005" class="node">
<title>Node5</title>
<g id="a_Node000005"><a xlink:href="classiii__drone_1_1control_1_1maneuver_1_1FlyToPositionManeuverServerParameters.html#aa16e26ec4d575c843940c3edb36f433d" target="_top" xlink:title="Get the reached position euclidean distance threshold.">
<polygon fill="white" stroke="#666666" points="420,-148 227,-148 227,-96 420,-96 420,-148"/>
<text text-anchor="start" x="235" y="-136" font-family="Helvetica,sans-Serif" font-size="10.00">iii_drone::control</text>
<text text-anchor="start" x="235" y="-125" font-family="Helvetica,sans-Serif" font-size="10.00">::maneuver::FlyToPositionManeuver</text>
<text text-anchor="start" x="235" y="-114" font-family="Helvetica,sans-Serif" font-size="10.00">ServerParameters::reached_position</text>
<text text-anchor="middle" x="323.5" y="-103" font-family="Helvetica,sans-Serif" font-size="10.00">_euclidean_distance_threshold</text>
</a>
</g>
</g>
<!-- Node1&#45;&gt;Node5 -->
<g id="edge4_Node000001_Node000005" class="edge">
<title>Node1&#45;&gt;Node5</title>
<g id="a_edge4_Node000001_Node000005"><a xlink:title=" ">
<path fill="none" stroke="#63b8ff" d="M191.03,-138.87C199.55,-137.78 208.22,-136.66 216.83,-135.56"/>
<polygon fill="#63b8ff" stroke="#63b8ff" points="217.42,-139.01 226.89,-134.27 216.53,-132.07 217.42,-139.01"/>
</a>
</g>
</g>
<!-- Node6 -->
<g id="Node000006" class="node">
<title>Node6</title>
<g id="a_Node000006"><a xlink:href="classiii__drone_1_1control_1_1Reference.html#a784277cbb64476953132a8e239f9ae9e" target="_top" xlink:title=" ">
<polygon fill="white" stroke="#666666" points="372.5,-78 274.5,-78 274.5,-48 372.5,-48 372.5,-78"/>
<text text-anchor="start" x="282.5" y="-66" font-family="Helvetica,sans-Serif" font-size="10.00">iii_drone::control</text>
<text text-anchor="middle" x="323.5" y="-55" font-family="Helvetica,sans-Serif" font-size="10.00">::Reference::yaw</text>
</a>
</g>
</g>
<!-- Node1&#45;&gt;Node6 -->
<g id="edge5_Node000001_Node000006" class="edge">
<title>Node1&#45;&gt;Node6</title>
<g id="a_edge5_Node000001_Node000006"><a xlink:title=" ">
<path fill="none" stroke="#63b8ff" d="M133.28,-130.38C158.93,-116.64 194.3,-98.98 227,-87 238.91,-82.64 251.93,-78.79 264.42,-75.52"/>
<polygon fill="#63b8ff" stroke="#63b8ff" points="265.46,-78.87 274.3,-73.03 263.75,-72.08 265.46,-78.87"/>
</a>
</g>
</g>
<!-- Node7 -->
<g id="Node000007" class="node">
<title>Node7</title>
<g id="a_Node000007"><a xlink:href="classiii__drone_1_1control_1_1State.html#a9853d9f35c2c0ebf0976a472b2624dc2" target="_top" xlink:title=" ">
<polygon fill="white" stroke="#666666" points="372.5,-30 274.5,-30 274.5,0 372.5,0 372.5,-30"/>
<text text-anchor="start" x="282.5" y="-18" font-family="Helvetica,sans-Serif" font-size="10.00">iii_drone::control</text>
<text text-anchor="middle" x="323.5" y="-7" font-family="Helvetica,sans-Serif" font-size="10.00">::State::yaw</text>
</a>
</g>
</g>
<!-- Node1&#45;&gt;Node7 -->
<g id="edge6_Node000001_Node000007" class="edge">
<title>Node1&#45;&gt;Node7</title>
<g id="a_edge6_Node000001_Node000007"><a xlink:title=" ">
<path fill="none" stroke="#63b8ff" d="M114.7,-130.36C138.16,-105.05 181.4,-62.61 227,-39 238.5,-33.05 251.56,-28.51 264.24,-25.08"/>
<polygon fill="#63b8ff" stroke="#63b8ff" points="265.45,-28.39 274.3,-22.56 263.74,-21.6 265.45,-28.39"/>
</a>
</g>
</g>
</g>
</svg>
</svg>

<style type='text/css'>
<![CDATA[
[data-mouse-over-selected='false'] { opacity: 0.7; }
[data-mouse-over-selected='true']  { opacity: 1.0; }
]]>
</style>
<script type="application/ecmascript"><![CDATA[
document.addEventListener('DOMContentLoaded', (event) => {
  highlightEdges();
  highlightAdjacentNodes();
});
]]></script>
</svg>
