<?xml version="1.0" encoding="UTF-8" standalone="no"?>
<!DOCTYPE svg PUBLIC "-//W3C//DTD SVG 1.1//EN"
 "http://www.w3.org/Graphics/SVG/1.1/DTD/svg11.dtd">
<!-- Generated by graphviz version 2.43.0 (0)
 -->
<!-- Title: iii_drone::perception::SingleLine::id Pages: 1 -->
<svg width="289pt" height="230pt"
 viewBox="0.00 0.00 289.00 230.00" xmlns="http://www.w3.org/2000/svg" xmlns:xlink="http://www.w3.org/1999/xlink">
<g id="graph0" class="graph" transform="scale(1 1) rotate(0) translate(4 226)">
<title>iii_drone::perception::SingleLine::id</title>
<!-- Node1 -->
<g id="Node000001" class="node">
<title>Node1</title>
<g id="a_Node000001"><a xlink:title="Id getter.">
<polygon fill="#999999" stroke="#666666" points="281,-126 165,-126 165,-96 281,-96 281,-126"/>
<text text-anchor="start" x="173" y="-114" font-family="Helvetica,sans-Serif" font-size="10.00">iii_drone::perception</text>
<text text-anchor="middle" x="223" y="-103" font-family="Helvetica,sans-Serif" font-size="10.00">::SingleLine::id</text>
</a>
</g>
</g>
<!-- Node2 -->
<g id="Node000002" class="node">
<title>Node2</title>
<g id="a_Node000002"><a xlink:href="classiii__drone_1_1perception_1_1SingleLine.html#a0133f9ac4eaac14f379b35313e6dfcbe" target="_top" xlink:title="Assignment operator overload.">
<polygon fill="white" stroke="#666666" points="128.5,-222 0.5,-222 0.5,-192 128.5,-192 128.5,-222"/>
<text text-anchor="start" x="8.5" y="-210" font-family="Helvetica,sans-Serif" font-size="10.00">iii_drone::perception</text>
<text text-anchor="middle" x="64.5" y="-199" font-family="Helvetica,sans-Serif" font-size="10.00">::SingleLine::operator=</text>
</a>
</g>
</g>
<!-- Node1&#45;&gt;Node2 -->
<g id="edge1_Node000001_Node000002" class="edge">
<title>Node1&#45;&gt;Node2</title>
<g id="a_edge1_Node000001_Node000002"><a xlink:title=" ">
<path fill="none" stroke="#63b8ff" d="M197.91,-132.91C179.91,-148.43 154.19,-168.91 129,-183 123.14,-186.28 116.74,-189.29 110.33,-191.99"/>
<polygon fill="#63b8ff" stroke="#63b8ff" points="200.38,-135.39 205.6,-126.17 195.77,-130.13 200.38,-135.39"/>
</a>
</g>
</g>
<!-- Node3 -->
<g id="Node000003" class="node">
<title>Node3</title>
<g id="a_Node000003"><a xlink:href="classiii__drone_1_1perception_1_1SingleLine.html#a0394950ec7fe3fd5a4210267495c9929" target="_top" xlink:title="Constructor from Pose msg.">
<polygon fill="white" stroke="#666666" points="129,-174 0,-174 0,-144 129,-144 129,-174"/>
<text text-anchor="start" x="8" y="-162" font-family="Helvetica,sans-Serif" font-size="10.00">iii_drone::perception</text>
<text text-anchor="middle" x="64.5" y="-151" font-family="Helvetica,sans-Serif" font-size="10.00">::SingleLine::SingleLine</text>
</a>
</g>
</g>
<!-- Node1&#45;&gt;Node3 -->
<g id="edge2_Node000001_Node000003" class="edge">
<title>Node1&#45;&gt;Node3</title>
<g id="a_edge2_Node000001_Node000003"><a xlink:title=" ">
<path fill="none" stroke="#63b8ff" d="M163.1,-129.07C147.05,-133.99 129.84,-139.27 114.41,-144"/>
<polygon fill="#63b8ff" stroke="#63b8ff" points="164.38,-132.33 172.91,-126.06 162.33,-125.64 164.38,-132.33"/>
</a>
</g>
</g>
<!-- Node4 -->
<g id="Node000004" class="node">
<title>Node4</title>
<g id="a_Node000004"><a xlink:href="classiii__drone_1_1perception_1_1SingleLine.html#aeae812b3b71d393bf0ecfab593b82d74" target="_top" xlink:title="Constructor from position and quaternion.">
<polygon fill="white" stroke="#666666" points="129,-126 0,-126 0,-96 129,-96 129,-126"/>
<text text-anchor="start" x="8" y="-114" font-family="Helvetica,sans-Serif" font-size="10.00">iii_drone::perception</text>
<text text-anchor="middle" x="64.5" y="-103" font-family="Helvetica,sans-Serif" font-size="10.00">::SingleLine::SingleLine</text>
</a>
</g>
</g>
<!-- Node1&#45;&gt;Node4 -->
<g id="edge3_Node000001_Node000004" class="edge">
<title>Node1&#45;&gt;Node4</title>
<g id="a_edge3_Node000001_Node000004"><a xlink:title=" ">
<path fill="none" stroke="#63b8ff" d="M154.49,-111C146.1,-111 137.55,-111 129.22,-111"/>
<polygon fill="#63b8ff" stroke="#63b8ff" points="154.61,-114.5 164.61,-111 154.61,-107.5 154.61,-114.5"/>
</a>
</g>
</g>
<!-- Node5 -->
<g id="Node000005" class="node">
<title>Node5</title>
<g id="a_Node000005"><a xlink:href="classiii__drone_1_1perception_1_1SingleLine.html#a1e23fe7383e4107769b577fab3ff8faa" target="_top" xlink:title="Constructor from position, quaternion and frame_id.">
<polygon fill="white" stroke="#666666" points="129,-78 0,-78 0,-48 129,-48 129,-78"/>
<text text-anchor="start" x="8" y="-66" font-family="Helvetica,sans-Serif" font-size="10.00">iii_drone::perception</text>
<text text-anchor="middle" x="64.5" y="-55" font-family="Helvetica,sans-Serif" font-size="10.00">::SingleLine::SingleLine</text>
</a>
</g>
</g>
<!-- Node1&#45;&gt;Node5 -->
<g id="edge4_Node000001_Node000005" class="edge">
<title>Node1&#45;&gt;Node5</title>
<g id="a_edge4_Node000001_Node000005"><a xlink:title=" ">
<path fill="none" stroke="#63b8ff" d="M163.1,-92.93C147.05,-88.01 129.84,-82.73 114.41,-78"/>
<polygon fill="#63b8ff" stroke="#63b8ff" points="162.33,-96.36 172.91,-95.94 164.38,-89.67 162.33,-96.36"/>
</a>
</g>
</g>
<!-- Node6 -->
<g id="Node000006" class="node">
<title>Node6</title>
<g id="a_Node000006"><a xlink:href="classiii__drone_1_1perception_1_1SingleLine.html#a23ed739c4d3315789dfc2b62cc586833" target="_top" xlink:title="Copy constructor.">
<polygon fill="white" stroke="#666666" points="129,-30 0,-30 0,0 129,0 129,-30"/>
<text text-anchor="start" x="8" y="-18" font-family="Helvetica,sans-Serif" font-size="10.00">iii_drone::perception</text>
<text text-anchor="middle" x="64.5" y="-7" font-family="Helvetica,sans-Serif" font-size="10.00">::SingleLine::SingleLine</text>
</a>
</g>
</g>
<!-- Node1&#45;&gt;Node6 -->
<g id="edge5_Node000001_Node000006" class="edge">
<title>Node1&#45;&gt;Node6</title>
<g id="a_edge5_Node000001_Node000006"><a xlink:title=" ">
<path fill="none" stroke="#63b8ff" d="M197.91,-89.09C179.91,-73.57 154.19,-53.09 129,-39 123.14,-35.72 116.74,-32.71 110.33,-30.01"/>
<polygon fill="#63b8ff" stroke="#63b8ff" points="195.77,-91.87 205.6,-95.83 200.38,-86.61 195.77,-91.87"/>
</a>
</g>
</g>
</g>
</svg>
