<?xml version="1.0" encoding="UTF-8" standalone="no"?>
<!DOCTYPE svg PUBLIC "-//W3C//DTD SVG 1.1//EN"
 "http://www.w3.org/Graphics/SVG/1.1/DTD/svg11.dtd">
<!-- Generated by graphviz version 2.43.0 (0)
 -->
<!-- Title: iii_drone::control::CombinedDroneAwarenessHandler::updateCombinedDroneAwarenessFromVehicleOdometry Pages: 1 -->
<svg width="714pt" height="97pt"
 viewBox="0.00 0.00 714.00 96.50" xmlns="http://www.w3.org/2000/svg" xmlns:xlink="http://www.w3.org/1999/xlink">
<g id="graph0" class="graph" transform="scale(1 1) rotate(0) translate(4 92.5)">
<title>iii_drone::control::CombinedDroneAwarenessHandler::updateCombinedDroneAwarenessFromVehicleOdometry</title>
<!-- Node1 -->
<g id="Node000001" class="node">
<title>Node1</title>
<g id="a_Node000001"><a xlink:title="Updates the combined drone awareness from the vehicle odometry. Triggers updates of ground altitude e...">
<polygon fill="#999999" stroke="#666666" points="706,-70.5 458,-70.5 458,-18.5 706,-18.5 706,-70.5"/>
<text text-anchor="start" x="466" y="-58.5" font-family="Helvetica,sans-Serif" font-size="10.00">iii_drone::control</text>
<text text-anchor="start" x="466" y="-47.5" font-family="Helvetica,sans-Serif" font-size="10.00">::CombinedDroneAwarenessHandler</text>
<text text-anchor="start" x="466" y="-36.5" font-family="Helvetica,sans-Serif" font-size="10.00">::updateCombinedDroneAwarenessFromVehicle</text>
<text text-anchor="middle" x="582" y="-25.5" font-family="Helvetica,sans-Serif" font-size="10.00">Odometry</text>
</a>
</g>
</g>
<!-- Node1&#45;&gt;Node1 -->
<g id="edge4_Node000001_Node000001" class="edge">
<title>Node1&#45;&gt;Node1</title>
<g id="a_edge4_Node000001_Node000001"><a xlink:title=" ">
<path fill="none" stroke="#63b8ff" d="M625.3,-79.9C618.42,-85.04 603.98,-88.5 582,-88.5 548.5,-88.5 532.54,-80.46 534.11,-70.7"/>
<polygon fill="#63b8ff" stroke="#63b8ff" points="628.56,-81.21 629.89,-70.7 622.29,-78.08 628.56,-81.21"/>
</a>
</g>
</g>
<!-- Node2 -->
<g id="Node000002" class="node">
<title>Node2</title>
<g id="a_Node000002"><a xlink:href="classiii__drone_1_1control_1_1CombinedDroneAwarenessHandler.html#a45046cb4335f9a4fe757b195ae4851ca" target="_top" xlink:title="Construct a new CombinedDroneAwarenessHandler object, initializing all the subscriptions.">
<polygon fill="white" stroke="#666666" points="193,-65 0,-65 0,-24 193,-24 193,-65"/>
<text text-anchor="start" x="8" y="-53" font-family="Helvetica,sans-Serif" font-size="10.00">iii_drone::control</text>
<text text-anchor="start" x="8" y="-42" font-family="Helvetica,sans-Serif" font-size="10.00">::CombinedDroneAwarenessHandler</text>
<text text-anchor="middle" x="96.5" y="-31" font-family="Helvetica,sans-Serif" font-size="10.00">::CombinedDroneAwarenessHandler</text>
</a>
</g>
</g>
<!-- Node1&#45;&gt;Node2 -->
<g id="edge1_Node000001_Node000002" class="edge">
<title>Node1&#45;&gt;Node2</title>
<g id="a_edge1_Node000001_Node000002"><a xlink:title=" ">
<path fill="none" stroke="#63b8ff" d="M447.57,-49.9C438.92,-50.14 430.34,-50.34 422,-50.5 336.24,-52.12 314.76,-52.46 229,-50.5 217.35,-50.23 205.12,-49.84 193.01,-49.37"/>
<polygon fill="#63b8ff" stroke="#63b8ff" points="447.86,-53.4 457.75,-49.61 447.66,-46.4 447.86,-53.4"/>
</a>
</g>
</g>
<!-- Node3 -->
<g id="Node000003" class="node">
<title>Node3</title>
<g id="a_Node000003"><a xlink:href="classiii__drone_1_1control_1_1CombinedDroneAwarenessHandler.html#a8bcf29ada285948eeeff00d694d185c2" target="_top" xlink:title="Updates the combined drone awareness based on current information. To be called after updating the an...">
<polygon fill="white" stroke="#666666" points="422,-41 229,-41 229,0 422,0 422,-41"/>
<text text-anchor="start" x="237" y="-29" font-family="Helvetica,sans-Serif" font-size="10.00">iii_drone::control</text>
<text text-anchor="start" x="237" y="-18" font-family="Helvetica,sans-Serif" font-size="10.00">::CombinedDroneAwarenessHandler</text>
<text text-anchor="middle" x="325.5" y="-7" font-family="Helvetica,sans-Serif" font-size="10.00">::updateCombinedDroneAwareness</text>
</a>
</g>
</g>
<!-- Node1&#45;&gt;Node3 -->
<g id="edge2_Node000001_Node000003" class="edge">
<title>Node1&#45;&gt;Node3</title>
<g id="a_edge2_Node000001_Node000003"><a xlink:title=" ">
<path fill="none" stroke="#63b8ff" d="M447.79,-31.94C439.22,-31.13 430.69,-30.32 422.35,-29.54"/>
<polygon fill="#63b8ff" stroke="#63b8ff" points="447.57,-35.43 457.85,-32.89 448.22,-28.46 447.57,-35.43"/>
</a>
</g>
</g>
<!-- Node3&#45;&gt;Node2 -->
<g id="edge3_Node000003_Node000002" class="edge">
<title>Node3&#45;&gt;Node2</title>
<g id="a_edge3_Node000003_Node000002"><a xlink:title=" ">
<path fill="none" stroke="#63b8ff" d="M218.82,-31.67C210.21,-32.58 201.53,-33.5 193,-34.4"/>
<polygon fill="#63b8ff" stroke="#63b8ff" points="219.31,-35.14 228.89,-30.61 218.58,-28.18 219.31,-35.14"/>
</a>
</g>
</g>
</g>
</svg>
