<?xml version="1.0" encoding="UTF-8" standalone="no"?>
<!DOCTYPE svg PUBLIC "-//W3C//DTD SVG 1.1//EN"
 "http://www.w3.org/Graphics/SVG/1.1/DTD/svg11.dtd">
<!-- Generated by graphviz version 2.43.0 (0)
 -->
<!-- Title: iii_drone::perception::Powerline::Reset Pages: 1 -->
<svg width="307pt" height="134pt"
 viewBox="0.00 0.00 307.00 134.00" xmlns="http://www.w3.org/2000/svg" xmlns:xlink="http://www.w3.org/1999/xlink">
<g id="graph0" class="graph" transform="scale(1 1) rotate(0) translate(4 130)">
<title>iii_drone::perception::Powerline::Reset</title>
<!-- Node1 -->
<g id="Node000001" class="node">
<title>Node1</title>
<g id="a_Node000001"><a xlink:title="Resets the powerline object.">
<polygon fill="#999999" stroke="#666666" points="116,-78 0,-78 0,-48 116,-48 116,-78"/>
<text text-anchor="start" x="8" y="-66" font-family="Helvetica,sans-Serif" font-size="10.00">iii_drone::perception</text>
<text text-anchor="middle" x="58" y="-55" font-family="Helvetica,sans-Serif" font-size="10.00">::Powerline::Reset</text>
</a>
</g>
</g>
<!-- Node2 -->
<g id="Node000002" class="node">
<title>Node2</title>
<g id="a_Node000002"><a xlink:href="classiii__drone_1_1utils_1_1History.html#ae7308fbe644db5887924651e3eac0db3" target="_top" xlink:title="Clear the history.">
<polygon fill="white" stroke="#666666" points="289,-126 162,-126 162,-96 289,-96 289,-126"/>
<text text-anchor="start" x="170" y="-114" font-family="Helvetica,sans-Serif" font-size="10.00">iii_drone::utils::History</text>
<text text-anchor="middle" x="225.5" y="-103" font-family="Helvetica,sans-Serif" font-size="10.00">::clear</text>
</a>
</g>
</g>
<!-- Node1&#45;&gt;Node2 -->
<g id="edge1_Node000001_Node000002" class="edge">
<title>Node1&#45;&gt;Node2</title>
<g id="a_edge1_Node000001_Node000002"><a xlink:title=" ">
<path fill="none" stroke="#63b8ff" d="M110.91,-78.06C127.39,-82.84 145.78,-88.17 162.88,-93.13"/>
<polygon fill="#63b8ff" stroke="#63b8ff" points="162.19,-96.57 172.77,-96 164.14,-89.85 162.19,-96.57"/>
</a>
</g>
</g>
<!-- Node3 -->
<g id="Node000003" class="node">
<title>Node3</title>
<g id="a_Node000003"><a xlink:href="namespaceiii__drone_1_1types.html#a3c643a86317f9f8c192979766cdfbc51" target="_top" xlink:title=" ">
<polygon fill="white" stroke="#666666" points="289.5,-78 161.5,-78 161.5,-48 289.5,-48 289.5,-78"/>
<text text-anchor="start" x="169.5" y="-66" font-family="Helvetica,sans-Serif" font-size="10.00">iii_drone::types::create</text>
<text text-anchor="middle" x="225.5" y="-55" font-family="Helvetica,sans-Serif" font-size="10.00">Plane</text>
</a>
</g>
</g>
<!-- Node1&#45;&gt;Node3 -->
<g id="edge2_Node000001_Node000003" class="edge">
<title>Node1&#45;&gt;Node3</title>
<g id="a_edge2_Node000001_Node000003"><a xlink:title=" ">
<path fill="none" stroke="#63b8ff" d="M116.42,-63C127.61,-63 139.49,-63 151.11,-63"/>
<polygon fill="#63b8ff" stroke="#63b8ff" points="151.24,-66.5 161.24,-63 151.24,-59.5 151.24,-66.5"/>
</a>
</g>
</g>
<!-- Node4 -->
<g id="Node000004" class="node">
<title>Node4</title>
<g id="a_Node000004"><a xlink:href="classiii__drone_1_1utils_1_1Timestamp.html#a373bc0de94c27153e2372c30f0eedbb1" target="_top" xlink:title="Updates the timestamp to now.">
<polygon fill="white" stroke="#666666" points="299,-30 152,-30 152,0 299,0 299,-30"/>
<text text-anchor="start" x="160" y="-18" font-family="Helvetica,sans-Serif" font-size="10.00">iii_drone::utils::Timestamp</text>
<text text-anchor="middle" x="225.5" y="-7" font-family="Helvetica,sans-Serif" font-size="10.00">::Update</text>
</a>
</g>
</g>
<!-- Node1&#45;&gt;Node4 -->
<g id="edge3_Node000001_Node000004" class="edge">
<title>Node1&#45;&gt;Node4</title>
<g id="a_edge3_Node000001_Node000004"><a xlink:title=" ">
<path fill="none" stroke="#63b8ff" d="M110.91,-47.94C127.39,-43.16 145.78,-37.83 162.88,-32.87"/>
<polygon fill="#63b8ff" stroke="#63b8ff" points="164.14,-36.15 172.77,-30 162.19,-29.43 164.14,-36.15"/>
</a>
</g>
</g>
</g>
</svg>
