<?xml version="1.0" encoding="UTF-8" standalone="no"?>
<!DOCTYPE svg PUBLIC "-//W3C//DTD SVG 1.1//EN"
 "http://www.w3.org/Graphics/SVG/1.1/DTD/svg11.dtd">
<!-- Generated by graphviz version 2.43.0 (0)
 -->
<!-- Title: iii_drone::control::maneuver_controller_node::ManeuverControllerNodeConfigurator::maneuver_execution_period_ms Pages: 1 -->
<svg width="797pt" height="78pt"
 viewBox="0.00 0.00 797.00 78.00" xmlns="http://www.w3.org/2000/svg" xmlns:xlink="http://www.w3.org/1999/xlink">
<g id="graph0" class="graph" transform="scale(1 1) rotate(0) translate(4 74)">
<title>iii_drone::control::maneuver_controller_node::ManeuverControllerNodeConfigurator::maneuver_execution_period_ms</title>
<!-- Node1 -->
<g id="Node000001" class="node">
<title>Node1</title>
<g id="a_Node000001"><a xlink:title="Get the period for executing maneuvers.">
<polygon fill="#999999" stroke="#666666" points="185,-63 0,-63 0,0 185,0 185,-63"/>
<text text-anchor="start" x="8" y="-51" font-family="Helvetica,sans-Serif" font-size="10.00">iii_drone::control</text>
<text text-anchor="start" x="8" y="-40" font-family="Helvetica,sans-Serif" font-size="10.00">::maneuver_controller</text>
<text text-anchor="start" x="8" y="-29" font-family="Helvetica,sans-Serif" font-size="10.00">_node::ManeuverControllerNode</text>
<text text-anchor="start" x="8" y="-18" font-family="Helvetica,sans-Serif" font-size="10.00">Configurator::maneuver_execution</text>
<text text-anchor="middle" x="92.5" y="-7" font-family="Helvetica,sans-Serif" font-size="10.00">_period_ms</text>
</a>
</g>
</g>
<!-- Node2 -->
<g id="Node000002" class="node">
<title>Node2</title>
<g id="a_Node000002"><a xlink:href="classiii__drone_1_1configuration_1_1Configurator.html#a896be5ed2c6890f9f5ecaa89cb0eee7d" target="_top" xlink:title="Get a parameter.">
<polygon fill="white" stroke="#666666" points="377,-46.5 221,-46.5 221,-16.5 377,-16.5 377,-46.5"/>
<text text-anchor="start" x="229" y="-34.5" font-family="Helvetica,sans-Serif" font-size="10.00">iii_drone::configuration</text>
<text text-anchor="middle" x="299" y="-23.5" font-family="Helvetica,sans-Serif" font-size="10.00">::Configurator::GetParameter</text>
</a>
</g>
</g>
<!-- Node1&#45;&gt;Node2 -->
<g id="edge1_Node000001_Node000002" class="edge">
<title>Node1&#45;&gt;Node2</title>
<g id="a_edge1_Node000001_Node000002"><a xlink:title=" ">
<path fill="none" stroke="#63b8ff" d="M185.28,-31.5C193.74,-31.5 202.29,-31.5 210.7,-31.5"/>
<polygon fill="#63b8ff" stroke="#63b8ff" points="210.88,-35 220.88,-31.5 210.88,-28 210.88,-35"/>
</a>
</g>
</g>
<!-- Node3 -->
<g id="Node000003" class="node">
<title>Node3</title>
<g id="a_Node000003"><a xlink:href="classiii__drone_1_1configuration_1_1Configurator.html#ad6e7318a12eda7011acfbe4276e7056a" target="_top" xlink:title="Gets multiple parameters.">
<polygon fill="white" stroke="#666666" points="574,-68.5 413,-68.5 413,-38.5 574,-38.5 574,-68.5"/>
<text text-anchor="start" x="421" y="-56.5" font-family="Helvetica,sans-Serif" font-size="10.00">iii_drone::configuration</text>
<text text-anchor="middle" x="493.5" y="-45.5" font-family="Helvetica,sans-Serif" font-size="10.00">::Configurator::GetParameters</text>
</a>
</g>
</g>
<!-- Node2&#45;&gt;Node3 -->
<g id="edge2_Node000002_Node000003" class="edge">
<title>Node2&#45;&gt;Node3</title>
<g id="a_edge2_Node000002_Node000003"><a xlink:title=" ">
<path fill="none" stroke="#63b8ff" d="M377.19,-40.32C385.61,-41.28 394.23,-42.27 402.79,-43.25"/>
<polygon fill="#63b8ff" stroke="#63b8ff" points="402.45,-46.73 412.78,-44.39 403.24,-39.78 402.45,-46.73"/>
</a>
</g>
</g>
<!-- Node4 -->
<g id="Node000004" class="node">
<title>Node4</title>
<g id="a_Node000004"><a xlink:href="classiii__drone_1_1configuration_1_1Configurator.html#ac5360ab6b4f31277c7d73b5579815353" target="_top" xlink:title="Static function for getting string representation of a parameter type from template type.">
<polygon fill="white" stroke="#666666" points="789,-52 610,-52 610,-11 789,-11 789,-52"/>
<text text-anchor="start" x="618" y="-40" font-family="Helvetica,sans-Serif" font-size="10.00">iii_drone::configuration</text>
<text text-anchor="start" x="618" y="-29" font-family="Helvetica,sans-Serif" font-size="10.00">::Configurator::GetParameterType</text>
<text text-anchor="middle" x="699.5" y="-18" font-family="Helvetica,sans-Serif" font-size="10.00">String</text>
</a>
</g>
</g>
<!-- Node2&#45;&gt;Node4 -->
<g id="edge5_Node000002_Node000004" class="edge">
<title>Node2&#45;&gt;Node4</title>
<g id="a_edge5_Node000002_Node000004"><a xlink:title=" ">
<path fill="none" stroke="#63b8ff" d="M377.2,-29.95C389.18,-29.76 401.42,-29.6 413,-29.5 484.55,-28.87 502.45,-28.93 574,-29.5 582.31,-29.57 590.94,-29.66 599.59,-29.77"/>
<polygon fill="#63b8ff" stroke="#63b8ff" points="599.7,-33.27 609.75,-29.9 599.8,-26.27 599.7,-33.27"/>
</a>
</g>
</g>
<!-- Node3&#45;&gt;Node4 -->
<g id="edge3_Node000003_Node000004" class="edge">
<title>Node3&#45;&gt;Node4</title>
<g id="a_edge3_Node000003_Node000004"><a xlink:title=" ">
<path fill="none" stroke="#63b8ff" d="M574.25,-44.9C582.6,-44 591.16,-43.08 599.7,-42.16"/>
<polygon fill="#63b8ff" stroke="#63b8ff" points="600.12,-45.63 609.69,-41.08 599.37,-38.67 600.12,-45.63"/>
</a>
</g>
</g>
<!-- Node4&#45;&gt;Node4 -->
<g id="edge4_Node000004_Node000004" class="edge">
<title>Node4&#45;&gt;Node4</title>
<g id="a_edge4_Node000004_Node000004"><a xlink:title=" ">
<path fill="none" stroke="#63b8ff" d="M661.64,-52.1C657.51,-61.65 670.13,-70 699.5,-70 717.86,-70 729.67,-66.74 734.94,-61.96"/>
<polygon fill="#63b8ff" stroke="#63b8ff" points="738.38,-62.64 737.36,-52.1 731.58,-60.97 738.38,-62.64"/>
</a>
</g>
</g>
</g>
</svg>
