<?xml version="1.0" encoding="UTF-8" standalone="no"?>
<!DOCTYPE svg PUBLIC "-//W3C//DTD SVG 1.1//EN"
 "http://www.w3.org/Graphics/SVG/1.1/DTD/svg11.dtd">
<!-- Generated by graphviz version 2.43.0 (0)
 -->
<!-- Title: iii_drone::control::CombinedDroneAwarenessHandler::updateCombinedDroneAwarenessFromPowerline Pages: 1 -->
<!--zoomable 721 -->

<svg id="main" version="1.1" xmlns="http://www.w3.org/2000/svg" xmlns:xlink="http://www.w3.org/1999/xlink" xml:space="preserve" onload="init(evt)">
<style type="text/css"><![CDATA[
.node, .edge {opacity: 0.7;}
.node.selected, .edge.selected {opacity: 1;}
.edge:hover path { stroke: red; }
.edge:hover polygon { stroke: red; fill: red; }
]]></style>

<defs>
  <circle id="rim" cx="0" cy="0" r="7"/>
  <circle id="rim2" cx="0" cy="0" r="3.5"/>
  <g id="zoomPlus">
    <use xlink:href="#rim" fill="#404040"><set attributeName="fill" to="#808080" begin="zoomplus.mouseover" end="zoomplus.mouseout"/></use>
    <path d="M-4,0h8M0,-4v8" fill="none" stroke="white" stroke-width="1.5" pointer-events="none"/>
  </g>
  <g id="zoomMin">
    <use xlink:href="#rim" fill="#404040"><set attributeName="fill" to="#808080" begin="zoomminus.mouseover" end="zoomminus.mouseout"/></use>
    <path d="M-4,0h8" fill="none" stroke="white" stroke-width="1.5" pointer-events="none"/>
  </g>
  <g id="arrowUp" transform="translate(30 24)">
    <use xlink:href="#rim"/>
    <path pointer-events="none" fill="none" stroke="white" stroke-width="1.5" d="M0,-3.0v7 M-2.5,-0.5L0,-3.0L2.5,-0.5"/>
  </g>
  <g id="arrowRight" transform="rotate(90) translate(36 -43)">
    <use xlink:href="#rim"/>
    <path pointer-events="none" fill="none" stroke="white" stroke-width="1.5" d="M0,-3.0v7 M-2.5,-0.5L0,-3.0L2.5,-0.5"/>
  </g>
  <g id="arrowDown" transform="rotate(180) translate(-30 -48)">
    <use xlink:href="#rim"/>
    <path pointer-events="none" fill="none" stroke="white" stroke-width="1.5" d="M0,-3.0v7 M-2.5,-0.5L0,-3.0L2.5,-0.5"/>
  </g>
  <g id="arrowLeft" transform="rotate(270) translate(-36 17)">
    <use xlink:href="#rim"/>
    <path pointer-events="none" fill="none" stroke="white" stroke-width="1.5" d="M0,-3.0v7 M-2.5,-0.5L0,-3.0L2.5,-0.5"/>
  </g>
  <g id="resetDef">
    <use xlink:href="#rim2" fill="#404040"><set attributeName="fill" to="#808080" begin="reset.mouseover" end="reset.mouseout"/></use>
  </g>
</defs>
<script type="application/ecmascript">
var viewWidth = 891;
var viewHeight = 721;
var sectionId = 'dynsection-27';
</script>
<script type="application/ecmascript" xlink:href="svg.min.js"/>
<svg id="graph" class="graph">
<g id="viewport">
<title>iii_drone::control::CombinedDroneAwarenessHandler::updateCombinedDroneAwarenessFromPowerline</title>
<!-- Node1 -->
<g id="Node000001" class="node">
<title>Node1</title>
<g id="a_Node000001"><a xlink:title="Updates the given combined drone awareness from the powerline. Triggers updates of target_cable_posit...">
<polygon fill="#999999" stroke="#666666" points="261,-625.5 0,-625.5 0,-584.5 261,-584.5 261,-625.5"/>
<text text-anchor="start" x="8" y="-613.5" font-family="Helvetica,sans-Serif" font-size="10.00">iii_drone::control</text>
<text text-anchor="start" x="8" y="-602.5" font-family="Helvetica,sans-Serif" font-size="10.00">::CombinedDroneAwarenessHandler</text>
<text text-anchor="middle" x="130.5" y="-591.5" font-family="Helvetica,sans-Serif" font-size="10.00">::updateCombinedDroneAwarenessFromPowerline</text>
</a>
</g>
</g>
<!-- Node2 -->
<g id="Node000002" class="node">
<title>Node2</title>
<g id="a_Node000002"><a xlink:href="classiii__drone_1_1control_1_1CombinedDroneAwarenessHandler.html#a7489deb4a1885f6b4985a3f6de205b64" target="_top" xlink:title="Getter for the combined drone awareness simple type by copy.">
<polygon fill="white" stroke="#666666" points="719,-634.5 526,-634.5 526,-593.5 719,-593.5 719,-634.5"/>
<text text-anchor="start" x="534" y="-622.5" font-family="Helvetica,sans-Serif" font-size="10.00">iii_drone::control</text>
<text text-anchor="start" x="534" y="-611.5" font-family="Helvetica,sans-Serif" font-size="10.00">::CombinedDroneAwarenessHandler</text>
<text text-anchor="middle" x="622.5" y="-600.5" font-family="Helvetica,sans-Serif" font-size="10.00">::combined_drone_awareness</text>
</a>
</g>
</g>
<!-- Node1&#45;&gt;Node2 -->
<g id="edge1_Node000001_Node000002" class="edge">
<title>Node1&#45;&gt;Node2</title>
<g id="a_edge1_Node000001_Node000002"><a xlink:title=" ">
<path fill="none" stroke="#63b8ff" d="M261.2,-607.38C340.55,-608.84 440.79,-610.68 515.38,-612.05"/>
<polygon fill="#63b8ff" stroke="#63b8ff" points="515.67,-615.56 525.73,-612.24 515.8,-608.56 515.67,-615.56"/>
</a>
</g>
</g>
<!-- Node3 -->
<g id="Node000003" class="node">
<title>Node3</title>
<g id="a_Node000003"><a xlink:href="structiii__drone_1_1control_1_1combined__drone__awareness__t.html#a37d03ec5b79bac750108791d049f2990" target="_top" xlink:title=" ">
<polygon fill="white" stroke="#666666" points="474,-712.5 313,-712.5 313,-671.5 474,-671.5 474,-712.5"/>
<text text-anchor="start" x="321" y="-700.5" font-family="Helvetica,sans-Serif" font-size="10.00">iii_drone::control</text>
<text text-anchor="start" x="321" y="-689.5" font-family="Helvetica,sans-Serif" font-size="10.00">::combined_drone_awareness</text>
<text text-anchor="middle" x="393.5" y="-678.5" font-family="Helvetica,sans-Serif" font-size="10.00">_t::has_target</text>
</a>
</g>
</g>
<!-- Node1&#45;&gt;Node3 -->
<g id="edge2_Node000001_Node000003" class="edge">
<title>Node1&#45;&gt;Node3</title>
<g id="a_edge2_Node000001_Node000003"><a xlink:title=" ">
<path fill="none" stroke="#63b8ff" d="M193.02,-625.51C231.45,-638.32 281.08,-654.86 321.21,-668.24"/>
<polygon fill="#63b8ff" stroke="#63b8ff" points="320.34,-671.64 330.94,-671.48 322.56,-665 320.34,-671.64"/>
</a>
</g>
</g>
<!-- Node4 -->
<g id="Node000004" class="node">
<title>Node4</title>
<g id="a_Node000004"><a xlink:href="classiii__drone_1_1adapters_1_1TargetAdapter.html#a7b5c36b234213f1d19fa8f1943c26c4a" target="_top" xlink:title="Gets the target type.">
<polygon fill="white" stroke="#666666" points="699,-699 546,-699 546,-669 699,-669 699,-699"/>
<text text-anchor="start" x="554" y="-687" font-family="Helvetica,sans-Serif" font-size="10.00">iii_drone::adapters</text>
<text text-anchor="middle" x="622.5" y="-676" font-family="Helvetica,sans-Serif" font-size="10.00">::TargetAdapter::target_type</text>
</a>
</g>
</g>
<!-- Node1&#45;&gt;Node4 -->
<g id="edge5_Node000001_Node000004" class="edge">
<title>Node1&#45;&gt;Node4</title>
<g id="a_edge5_Node000001_Node000004"><a xlink:title=" ">
<path fill="none" stroke="#63b8ff" d="M261.39,-625.39C329.49,-636.15 414.27,-649.65 490,-662 504.8,-664.42 520.54,-667.02 535.79,-669.56"/>
<polygon fill="#63b8ff" stroke="#63b8ff" points="535.28,-673.02 545.72,-671.21 536.43,-666.12 535.28,-673.02"/>
</a>
</g>
</g>
<!-- Node5 -->
<g id="Node000005" class="node">
<title>Node5</title>
<g id="a_Node000005"><a xlink:href="classiii__drone_1_1adapters_1_1TargetAdapter.html#af4648a3bc6fd3ac93e610700e24b2d14" target="_top" xlink:title="Gets the target id.">
<polygon fill="white" stroke="#666666" points="463.5,-577 323.5,-577 323.5,-547 463.5,-547 463.5,-577"/>
<text text-anchor="start" x="331.5" y="-565" font-family="Helvetica,sans-Serif" font-size="10.00">iii_drone::adapters</text>
<text text-anchor="middle" x="393.5" y="-554" font-family="Helvetica,sans-Serif" font-size="10.00">::TargetAdapter::target_id</text>
</a>
</g>
</g>
<!-- Node1&#45;&gt;Node5 -->
<g id="edge4_Node000001_Node000005" class="edge">
<title>Node1&#45;&gt;Node5</title>
<g id="a_edge4_Node000001_Node000005"><a xlink:title=" ">
<path fill="none" stroke="#63b8ff" d="M256.27,-584.44C275.64,-581.25 295.18,-578.03 313.18,-575.07"/>
<polygon fill="#63b8ff" stroke="#63b8ff" points="314,-578.48 323.3,-573.4 312.86,-571.57 314,-578.48"/>
</a>
</g>
</g>
<!-- Node6 -->
<g id="Node000006" class="node">
<title>Node6</title>
<g id="a_Node000006"><a xlink:href="classiii__drone_1_1control_1_1CombinedDroneAwarenessHandler.html#aca25e593ebb1307381959a3b1e5a751c" target="_top" xlink:title="Updates the drone location of a combined drone awareness object based on current awareness informatio...">
<polygon fill="white" stroke="#666666" points="490,-365.5 297,-365.5 297,-324.5 490,-324.5 490,-365.5"/>
<text text-anchor="start" x="305" y="-353.5" font-family="Helvetica,sans-Serif" font-size="10.00">iii_drone::control</text>
<text text-anchor="start" x="305" y="-342.5" font-family="Helvetica,sans-Serif" font-size="10.00">::CombinedDroneAwarenessHandler</text>
<text text-anchor="middle" x="393.5" y="-331.5" font-family="Helvetica,sans-Serif" font-size="10.00">::updateDroneLocation</text>
</a>
</g>
</g>
<!-- Node1&#45;&gt;Node6 -->
<g id="edge6_Node000001_Node000006" class="edge">
<title>Node1&#45;&gt;Node6</title>
<g id="a_edge6_Node000001_Node000006"><a xlink:title=" ">
<path fill="none" stroke="#63b8ff" d="M152.42,-584.16C199.11,-537.65 311.86,-425.33 364.53,-372.87"/>
<polygon fill="#63b8ff" stroke="#63b8ff" points="367.23,-375.11 371.85,-365.58 362.29,-370.15 367.23,-375.11"/>
</a>
</g>
</g>
<!-- Node3&#45;&gt;Node4 -->
<g id="edge3_Node000003_Node000004" class="edge">
<title>Node3&#45;&gt;Node4</title>
<g id="a_edge3_Node000003_Node000004"><a xlink:title=" ">
<path fill="none" stroke="#63b8ff" d="M474.21,-689.19C494.1,-688.49 515.52,-687.74 535.69,-687.02"/>
<polygon fill="#63b8ff" stroke="#63b8ff" points="535.92,-690.52 545.79,-686.67 535.67,-683.52 535.92,-690.52"/>
</a>
</g>
</g>
<!-- Node6&#45;&gt;Node2 -->
<g id="edge8_Node000006_Node000002" class="edge">
<title>Node6&#45;&gt;Node2</title>
<g id="a_edge8_Node000006_Node000002"><a xlink:title=" ">
<path fill="none" stroke="#63b8ff" d="M403.44,-365.63C426.41,-417.83 488.35,-553.17 526,-584 527.75,-585.43 529.56,-586.79 531.44,-588.09"/>
<polygon fill="#63b8ff" stroke="#63b8ff" points="529.64,-591.1 539.99,-593.38 533.32,-585.14 529.64,-591.1"/>
</a>
</g>
</g>
<!-- Node7 -->
<g id="Node000007" class="node">
<title>Node7</title>
<g id="a_Node000007"><a xlink:href="classiii__drone_1_1control_1_1CombinedDroneAwarenessHandlerParameters.html#a7d96b3308344aa084d497d5a455a8bd5" target="_top" xlink:title="Get the cable gripper frame id.">
<polygon fill="white" stroke="#666666" points="719,-468 526,-468 526,-416 719,-416 719,-468"/>
<text text-anchor="start" x="534" y="-456" font-family="Helvetica,sans-Serif" font-size="10.00">iii_drone::control</text>
<text text-anchor="start" x="534" y="-445" font-family="Helvetica,sans-Serif" font-size="10.00">::CombinedDroneAwarenessHandler</text>
<text text-anchor="start" x="534" y="-434" font-family="Helvetica,sans-Serif" font-size="10.00">Parameters::cable_gripper</text>
<text text-anchor="middle" x="622.5" y="-423" font-family="Helvetica,sans-Serif" font-size="10.00">_frame_id</text>
</a>
</g>
</g>
<!-- Node6&#45;&gt;Node7 -->
<g id="edge7_Node000006_Node000007" class="edge">
<title>Node6&#45;&gt;Node7</title>
<g id="a_edge7_Node000006_Node000007"><a xlink:title=" ">
<path fill="none" stroke="#63b8ff" d="M436.79,-365.58C462.39,-377.81 495.83,-393.34 526,-406 530.95,-408.08 536.07,-410.17 541.25,-412.24"/>
<polygon fill="#63b8ff" stroke="#63b8ff" points="540.02,-415.52 550.6,-415.94 542.59,-409.01 540.02,-415.52"/>
</a>
</g>
</g>
<!-- Node8 -->
<g id="Node000008" class="node">
<title>Node8</title>
<g id="a_Node000008"><a xlink:href="classiii__drone_1_1control_1_1CombinedDroneAwarenessHandlerParameters.html#a743b014a9b151e936625a065f635f4bf" target="_top" xlink:title="Get the drone frame id.">
<polygon fill="white" stroke="#666666" points="719,-397.5 526,-397.5 526,-356.5 719,-356.5 719,-397.5"/>
<text text-anchor="start" x="534" y="-385.5" font-family="Helvetica,sans-Serif" font-size="10.00">iii_drone::control</text>
<text text-anchor="start" x="534" y="-374.5" font-family="Helvetica,sans-Serif" font-size="10.00">::CombinedDroneAwarenessHandler</text>
<text text-anchor="middle" x="622.5" y="-363.5" font-family="Helvetica,sans-Serif" font-size="10.00">Parameters::drone_frame_id</text>
</a>
</g>
</g>
<!-- Node6&#45;&gt;Node8 -->
<g id="edge9_Node000006_Node000008" class="edge">
<title>Node6&#45;&gt;Node8</title>
<g id="a_edge9_Node000006_Node000008"><a xlink:title=" ">
<path fill="none" stroke="#63b8ff" d="M490.11,-358.48C498.65,-359.68 507.32,-360.9 515.93,-362.12"/>
<polygon fill="#63b8ff" stroke="#63b8ff" points="515.61,-365.61 526,-363.54 516.59,-358.68 515.61,-365.61"/>
</a>
</g>
</g>
<!-- Node9 -->
<g id="Node000009" class="node">
<title>Node9</title>
<g id="a_Node000009"><a xlink:href="classiii__drone_1_1control_1_1CombinedDroneAwarenessHandlerParameters.html#a6a8310bc7fa578f2f426ddc40ad311b2" target="_top" xlink:title="Get the fail_on_unable_to_locate value.">
<polygon fill="white" stroke="#666666" points="719,-338 526,-338 526,-286 719,-286 719,-338"/>
<text text-anchor="start" x="534" y="-326" font-family="Helvetica,sans-Serif" font-size="10.00">iii_drone::control</text>
<text text-anchor="start" x="534" y="-315" font-family="Helvetica,sans-Serif" font-size="10.00">::CombinedDroneAwarenessHandler</text>
<text text-anchor="start" x="534" y="-304" font-family="Helvetica,sans-Serif" font-size="10.00">Parameters::fail_on_unable</text>
<text text-anchor="middle" x="622.5" y="-293" font-family="Helvetica,sans-Serif" font-size="10.00">_to_locate</text>
</a>
</g>
</g>
<!-- Node6&#45;&gt;Node9 -->
<g id="edge10_Node000006_Node000009" class="edge">
<title>Node6&#45;&gt;Node9</title>
<g id="a_edge10_Node000006_Node000009"><a xlink:title=" ">
<path fill="none" stroke="#63b8ff" d="M490.11,-331.1C498.65,-329.86 507.32,-328.6 515.93,-327.35"/>
<polygon fill="#63b8ff" stroke="#63b8ff" points="516.61,-330.79 526,-325.88 515.6,-323.86 516.61,-330.79"/>
</a>
</g>
</g>
<!-- Node10 -->
<g id="Node000010" class="node">
<title>Node10</title>
<g id="a_Node000010"><a xlink:href="classiii__drone_1_1adapters_1_1PowerlineAdapter.html#a06ac6ce8729f92e9b5bb343f81301c97" target="_top" xlink:title="Returns the single line adapter which is closest to the given position.">
<polygon fill="white" stroke="#666666" points="680,-267.5 565,-267.5 565,-226.5 680,-226.5 680,-267.5"/>
<text text-anchor="start" x="573" y="-255.5" font-family="Helvetica,sans-Serif" font-size="10.00">iii_drone::adapters</text>
<text text-anchor="start" x="573" y="-244.5" font-family="Helvetica,sans-Serif" font-size="10.00">::PowerlineAdapter::</text>
<text text-anchor="middle" x="622.5" y="-233.5" font-family="Helvetica,sans-Serif" font-size="10.00">GetClosestLine</text>
</a>
</g>
</g>
<!-- Node6&#45;&gt;Node10 -->
<g id="edge11_Node000006_Node000010" class="edge">
<title>Node6&#45;&gt;Node10</title>
<g id="a_edge11_Node000006_Node000010"><a xlink:title=" ">
<path fill="none" stroke="#63b8ff" d="M430.26,-324.36C456.26,-309.89 492.61,-290.76 526,-277 535.28,-273.18 545.23,-269.55 555.08,-266.23"/>
<polygon fill="#63b8ff" stroke="#63b8ff" points="556.46,-269.46 564.87,-263.01 554.28,-262.81 556.46,-269.46"/>
</a>
</g>
</g>
<!-- Node11 -->
<g id="Node000011" class="node">
<title>Node11</title>
<g id="a_Node000011"><a xlink:href="classiii__drone_1_1adapters_1_1SingleLineAdapter.html#aee7b33b95f9bc339fd4f02709ce9033c" target="_top" xlink:title="position getter.">
<polygon fill="white" stroke="#666666" points="874.5,-243.5 763.5,-243.5 763.5,-202.5 874.5,-202.5 874.5,-243.5"/>
<text text-anchor="start" x="771.5" y="-231.5" font-family="Helvetica,sans-Serif" font-size="10.00">iii_drone::adapters</text>
<text text-anchor="start" x="771.5" y="-220.5" font-family="Helvetica,sans-Serif" font-size="10.00">::SingleLineAdapter</text>
<text text-anchor="middle" x="819" y="-209.5" font-family="Helvetica,sans-Serif" font-size="10.00">::position</text>
</a>
</g>
</g>
<!-- Node6&#45;&gt;Node11 -->
<g id="edge17_Node000006_Node000011" class="edge">
<title>Node6&#45;&gt;Node11</title>
<g id="a_edge17_Node000006_Node000011"><a xlink:title=" ">
<path fill="none" stroke="#63b8ff" d="M407.82,-324.32C428.72,-294.01 472.43,-238.77 526,-217 599.64,-187.08 692.6,-196.05 753.59,-207.51"/>
<polygon fill="#63b8ff" stroke="#63b8ff" points="752.99,-210.96 763.47,-209.44 754.33,-204.08 752.99,-210.96"/>
</a>
</g>
</g>
<!-- Node12 -->
<g id="Node000012" class="node">
<title>Node12</title>
<g id="a_Node000012"><a xlink:href="classiii__drone_1_1adapters_1_1SingleLineAdapter.html#a094ffe670b1d879fa9bd9012255a6173" target="_top" xlink:title="Id getter.">
<polygon fill="white" stroke="#666666" points="685.5,-170 559.5,-170 559.5,-140 685.5,-140 685.5,-170"/>
<text text-anchor="start" x="567.5" y="-158" font-family="Helvetica,sans-Serif" font-size="10.00">iii_drone::adapters</text>
<text text-anchor="middle" x="622.5" y="-147" font-family="Helvetica,sans-Serif" font-size="10.00">::SingleLineAdapter::id</text>
</a>
</g>
</g>
<!-- Node6&#45;&gt;Node12 -->
<g id="edge13_Node000006_Node000012" class="edge">
<title>Node6&#45;&gt;Node12</title>
<g id="a_edge13_Node000006_Node000012"><a xlink:title=" ">
<path fill="none" stroke="#63b8ff" d="M405.79,-324.4C425.61,-290.16 469.94,-221.57 526,-184 533.32,-179.09 541.5,-174.99 549.91,-171.57"/>
<polygon fill="#63b8ff" stroke="#63b8ff" points="551.34,-174.77 559.47,-167.99 548.88,-168.22 551.34,-174.77"/>
</a>
</g>
</g>
<!-- Node13 -->
<g id="Node000013" class="node">
<title>Node13</title>
<g id="a_Node000013"><a xlink:href="classiii__drone_1_1control_1_1CombinedDroneAwarenessHandlerParameters.html#acbc8e0c084e8547f17943fce38d30ca9" target="_top" xlink:title="Get the altitude threshold for the drone to be considered landed.">
<polygon fill="white" stroke="#666666" points="719,-122 526,-122 526,-70 719,-70 719,-122"/>
<text text-anchor="start" x="534" y="-110" font-family="Helvetica,sans-Serif" font-size="10.00">iii_drone::control</text>
<text text-anchor="start" x="534" y="-99" font-family="Helvetica,sans-Serif" font-size="10.00">::CombinedDroneAwarenessHandler</text>
<text text-anchor="start" x="534" y="-88" font-family="Helvetica,sans-Serif" font-size="10.00">Parameters::landed_altitude</text>
<text text-anchor="middle" x="622.5" y="-77" font-family="Helvetica,sans-Serif" font-size="10.00">_threshold</text>
</a>
</g>
</g>
<!-- Node6&#45;&gt;Node13 -->
<g id="edge14_Node000006_Node000013" class="edge">
<title>Node6&#45;&gt;Node13</title>
<g id="a_edge14_Node000006_Node000013"><a xlink:title=" ">
<path fill="none" stroke="#63b8ff" d="M401.76,-324.48C417.69,-282.3 459.67,-185.25 526,-131 527.36,-129.89 528.76,-128.8 530.2,-127.76"/>
<polygon fill="#63b8ff" stroke="#63b8ff" points="532.34,-130.54 538.75,-122.11 528.48,-124.7 532.34,-130.54"/>
</a>
</g>
</g>
<!-- Node14 -->
<g id="Node000014" class="node">
<title>Node14</title>
<g id="a_Node000014"><a xlink:href="classiii__drone_1_1control_1_1CombinedDroneAwarenessHandlerParameters.html#a49045d5bb86f8a722653169a89589fb9" target="_top" xlink:title="Get the on_cable_max_euc_distance value.">
<polygon fill="white" stroke="#666666" points="719,-52 526,-52 526,0 719,0 719,-52"/>
<text text-anchor="start" x="534" y="-40" font-family="Helvetica,sans-Serif" font-size="10.00">iii_drone::control</text>
<text text-anchor="start" x="534" y="-29" font-family="Helvetica,sans-Serif" font-size="10.00">::CombinedDroneAwarenessHandler</text>
<text text-anchor="start" x="534" y="-18" font-family="Helvetica,sans-Serif" font-size="10.00">Parameters::on_cable_max_euc</text>
<text text-anchor="middle" x="622.5" y="-7" font-family="Helvetica,sans-Serif" font-size="10.00">_distance</text>
</a>
</g>
</g>
<!-- Node6&#45;&gt;Node14 -->
<g id="edge15_Node000006_Node000014" class="edge">
<title>Node6&#45;&gt;Node14</title>
<g id="a_edge15_Node000006_Node000014"><a xlink:title=" ">
<path fill="none" stroke="#63b8ff" d="M398.4,-324.28C409.2,-272.51 444.26,-136.27 526,-61 526.99,-60.09 528,-59.21 529.03,-58.34"/>
<polygon fill="#63b8ff" stroke="#63b8ff" points="531.43,-60.93 537.38,-52.16 527.26,-55.3 531.43,-60.93"/>
</a>
</g>
</g>
<!-- Node15 -->
<g id="Node000015" class="node">
<title>Node15</title>
<g id="a_Node000015"><a xlink:href="classiii__drone_1_1adapters_1_1px4_1_1VehicleOdometryAdapter.html#a82c0aa2397ba3aa4df53c8ca6f97e487" target="_top" xlink:title="Position getter.">
<polygon fill="white" stroke="#666666" points="707,-575.5 538,-575.5 538,-534.5 707,-534.5 707,-575.5"/>
<text text-anchor="start" x="546" y="-563.5" font-family="Helvetica,sans-Serif" font-size="10.00">iii_drone::adapters</text>
<text text-anchor="start" x="546" y="-552.5" font-family="Helvetica,sans-Serif" font-size="10.00">::px4::VehicleOdometryAdapter</text>
<text text-anchor="middle" x="622.5" y="-541.5" font-family="Helvetica,sans-Serif" font-size="10.00">::position</text>
</a>
</g>
</g>
<!-- Node6&#45;&gt;Node15 -->
<g id="edge16_Node000006_Node000015" class="edge">
<title>Node6&#45;&gt;Node15</title>
<g id="a_edge16_Node000006_Node000015"><a xlink:title=" ">
<path fill="none" stroke="#63b8ff" d="M404.01,-365.59C422.3,-402.93 465.93,-481.92 526,-525 528.16,-526.55 530.41,-528.02 532.72,-529.42"/>
<polygon fill="#63b8ff" stroke="#63b8ff" points="531.47,-532.73 541.92,-534.45 534.82,-526.58 531.47,-532.73"/>
</a>
</g>
</g>
<!-- Node16 -->
<g id="Node000016" class="node">
<title>Node16</title>
<g id="a_Node000016"><a xlink:href="namespaceiii__drone_1_1types.html#a91daf68da0f0ed4ca21d3d61efddc99c" target="_top" xlink:title=" ">
<polygon fill="white" stroke="#666666" points="686.5,-516 558.5,-516 558.5,-486 686.5,-486 686.5,-516"/>
<text text-anchor="start" x="566.5" y="-504" font-family="Helvetica,sans-Serif" font-size="10.00">iii_drone::types::vector</text>
<text text-anchor="middle" x="622.5" y="-493" font-family="Helvetica,sans-Serif" font-size="10.00">FromTransformMsg</text>
</a>
</g>
</g>
<!-- Node6&#45;&gt;Node16 -->
<g id="edge18_Node000006_Node000016" class="edge">
<title>Node6&#45;&gt;Node16</title>
<g id="a_edge18_Node000006_Node000016"><a xlink:title=" ">
<path fill="none" stroke="#63b8ff" d="M409.37,-365.88C431.42,-395.26 475.66,-448.39 526,-477 533.08,-481.02 540.83,-484.38 548.76,-487.18"/>
<polygon fill="#63b8ff" stroke="#63b8ff" points="547.89,-490.58 558.48,-490.32 550.05,-483.92 547.89,-490.58"/>
</a>
</g>
</g>
<!-- Node10&#45;&gt;Node11 -->
<g id="edge12_Node000010_Node000011" class="edge">
<title>Node10&#45;&gt;Node11</title>
<g id="a_edge12_Node000010_Node000011"><a xlink:title=" ">
<path fill="none" stroke="#63b8ff" d="M680.02,-240.03C702.98,-237.19 729.65,-233.9 753.38,-230.97"/>
<polygon fill="#63b8ff" stroke="#63b8ff" points="753.85,-234.44 763.35,-229.74 753,-227.49 753.85,-234.44"/>
</a>
</g>
</g>
<!-- Node17 -->
<g id="Node000017" class="node">
<title>Node17</title>
<g id="a_Node000017"><a xlink:href="namespaceiii__drone_1_1types.html#a42473d6c26ea6e0c7c0eeda54448907c" target="_top" xlink:title=" ">
<polygon fill="white" stroke="#666666" points="883,-516 755,-516 755,-486 883,-486 883,-516"/>
<text text-anchor="start" x="763" y="-504" font-family="Helvetica,sans-Serif" font-size="10.00">iii_drone::types::vector</text>
<text text-anchor="middle" x="819" y="-493" font-family="Helvetica,sans-Serif" font-size="10.00">FromVectorMsg</text>
</a>
</g>
</g>
<!-- Node16&#45;&gt;Node17 -->
<g id="edge19_Node000016_Node000017" class="edge">
<title>Node16&#45;&gt;Node17</title>
<g id="a_edge19_Node000016_Node000017"><a xlink:title=" ">
<path fill="none" stroke="#63b8ff" d="M686.65,-501C705.17,-501 725.58,-501 744.68,-501"/>
<polygon fill="#63b8ff" stroke="#63b8ff" points="744.84,-504.5 754.84,-501 744.84,-497.5 744.84,-504.5"/>
</a>
</g>
</g>
</g>
</svg>

<g id="navigator" transform="translate(0 0)" fill="#404254">
  <rect fill="#f2f5e9" fill-opacity="0.5" stroke="#606060" stroke-width=".5" x="0" y="0" width="60" height="60"/>
  <use id="zoomplus" xlink:href="#zoomPlus" x="17" y="9" onmousedown="handleZoom(evt,'in')"/>
  <use id="zoomminus" xlink:href="#zoomMin" x="42" y="9" onmousedown="handleZoom(evt,'out')"/>
  <use id="reset" xlink:href="#resetDef" x="30" y="36" onmousedown="handleReset()"/>
   <use id="arrowup" xlink:href="#arrowUp" x="0" y="0" onmousedown="handlePan(0,-1)"/>
  <use id="arrowright" xlink:href="#arrowRight" x="0" y="0" onmousedown="handlePan(1,0)"/>
  <use id="arrowdown" xlink:href="#arrowDown" x="0" y="0" onmousedown="handlePan(0,1)"/>
  <use id="arrowleft" xlink:href="#arrowLeft" x="0" y="0" onmousedown="handlePan(-1,0)"/>
</g>
<svg viewBox="0 0 15 15" width="100%" height="30px" preserveAspectRatio="xMaxYMin meet">
 <g id="arrow_out" transform="scale(0.3 0.3)">
  <a xlink:href="classiii__drone_1_1control_1_1CombinedDroneAwarenessHandler_ab9e4d04b91ff4a8df5113ccdc0356484_cgraph_org.svg" target="_base">
   <rect id="button" ry="5" rx="5" y="6" x="6" height="38" width="38"
        fill="#f2f5e9" fill-opacity="0.5" stroke="#606060" stroke-width="1.0"/>
   <path id="arrow"
     d="M 11.500037,31.436501 C 11.940474,20.09759 22.043105,11.32322 32.158766,21.979434 L 37.068811,17.246167 C 37.068811,17.246167 37.088388,32 37.088388,32 L 22.160133,31.978069 C 22.160133,31.978069 26.997745,27.140456 26.997745,27.140456 C 18.528582,18.264221 13.291696,25.230495 11.500037,31.436501 z"
     style="fill:#404040;"/>
  </a>
 </g>
</svg>

<style type='text/css'>
<![CDATA[
[data-mouse-over-selected='false'] { opacity: 0.7; }
[data-mouse-over-selected='true']  { opacity: 1.0; }
]]>
</style>
<script type="application/ecmascript"><![CDATA[
document.addEventListener('DOMContentLoaded', (event) => {
  highlightEdges();
  highlightAdjacentNodes();
});
]]></script>
</svg>
