<?xml version="1.0" encoding="UTF-8" standalone="no"?>
<!DOCTYPE svg PUBLIC "-//W3C//DTD SVG 1.1//EN"
 "http://www.w3.org/Graphics/SVG/1.1/DTD/svg11.dtd">
<!-- Generated by graphviz version 2.43.0 (0)
 -->
<!-- Title: iii_drone::control::CombinedDroneAwarenessHandler::ComputeTargetTransform Pages: 1 -->
<!--zoomable 285 -->

<svg id="main" version="1.1" xmlns="http://www.w3.org/2000/svg" xmlns:xlink="http://www.w3.org/1999/xlink" xml:space="preserve" onload="init(evt)">
<style type="text/css"><![CDATA[
.node, .edge {opacity: 0.7;}
.node.selected, .edge.selected {opacity: 1;}
.edge:hover path { stroke: red; }
.edge:hover polygon { stroke: red; fill: red; }
]]></style>

<defs>
  <circle id="rim" cx="0" cy="0" r="7"/>
  <circle id="rim2" cx="0" cy="0" r="3.5"/>
  <g id="zoomPlus">
    <use xlink:href="#rim" fill="#404040"><set attributeName="fill" to="#808080" begin="zoomplus.mouseover" end="zoomplus.mouseout"/></use>
    <path d="M-4,0h8M0,-4v8" fill="none" stroke="white" stroke-width="1.5" pointer-events="none"/>
  </g>
  <g id="zoomMin">
    <use xlink:href="#rim" fill="#404040"><set attributeName="fill" to="#808080" begin="zoomminus.mouseover" end="zoomminus.mouseout"/></use>
    <path d="M-4,0h8" fill="none" stroke="white" stroke-width="1.5" pointer-events="none"/>
  </g>
  <g id="arrowUp" transform="translate(30 24)">
    <use xlink:href="#rim"/>
    <path pointer-events="none" fill="none" stroke="white" stroke-width="1.5" d="M0,-3.0v7 M-2.5,-0.5L0,-3.0L2.5,-0.5"/>
  </g>
  <g id="arrowRight" transform="rotate(90) translate(36 -43)">
    <use xlink:href="#rim"/>
    <path pointer-events="none" fill="none" stroke="white" stroke-width="1.5" d="M0,-3.0v7 M-2.5,-0.5L0,-3.0L2.5,-0.5"/>
  </g>
  <g id="arrowDown" transform="rotate(180) translate(-30 -48)">
    <use xlink:href="#rim"/>
    <path pointer-events="none" fill="none" stroke="white" stroke-width="1.5" d="M0,-3.0v7 M-2.5,-0.5L0,-3.0L2.5,-0.5"/>
  </g>
  <g id="arrowLeft" transform="rotate(270) translate(-36 17)">
    <use xlink:href="#rim"/>
    <path pointer-events="none" fill="none" stroke="white" stroke-width="1.5" d="M0,-3.0v7 M-2.5,-0.5L0,-3.0L2.5,-0.5"/>
  </g>
  <g id="resetDef">
    <use xlink:href="#rim2" fill="#404040"><set attributeName="fill" to="#808080" begin="reset.mouseover" end="reset.mouseout"/></use>
  </g>
</defs>
<script type="application/ecmascript">
var viewWidth = 673;
var viewHeight = 285;
var sectionId = 'dynsection-7';
</script>
<script type="application/ecmascript" xlink:href="svg.min.js"/>
<svg id="graph" class="graph">
<g id="viewport">
<title>iii_drone::control::CombinedDroneAwarenessHandler::ComputeTargetTransform</title>
<!-- Node1 -->
<g id="Node000001" class="node">
<title>Node1</title>
<g id="a_Node000001"><a xlink:title="Computes a target transform given a target adapter.">
<polygon fill="#999999" stroke="#666666" points="665,-159 472,-159 472,-118 665,-118 665,-159"/>
<text text-anchor="start" x="480" y="-147" font-family="Helvetica,sans-Serif" font-size="10.00">iii_drone::control</text>
<text text-anchor="start" x="480" y="-136" font-family="Helvetica,sans-Serif" font-size="10.00">::CombinedDroneAwarenessHandler</text>
<text text-anchor="middle" x="568.5" y="-125" font-family="Helvetica,sans-Serif" font-size="10.00">::ComputeTargetTransform</text>
</a>
</g>
</g>
<!-- Node2 -->
<g id="Node000002" class="node">
<title>Node2</title>
<g id="a_Node000002"><a xlink:href="classiii__drone_1_1control_1_1maneuver_1_1FlyToObjectManeuverServer.html#a7a9d2b2d6d91f20491eab552a16f9955" target="_top" xlink:title="Whether the maneuver can be executed.">
<polygon fill="white" stroke="#666666" points="428,-277 244,-277 244,-236 428,-236 428,-277"/>
<text text-anchor="start" x="252" y="-265" font-family="Helvetica,sans-Serif" font-size="10.00">iii_drone::control</text>
<text text-anchor="start" x="252" y="-254" font-family="Helvetica,sans-Serif" font-size="10.00">::maneuver::FlyToObjectManeuver</text>
<text text-anchor="middle" x="336" y="-243" font-family="Helvetica,sans-Serif" font-size="10.00">Server::CanExecuteManeuver</text>
</a>
</g>
</g>
<!-- Node1&#45;&gt;Node2 -->
<g id="edge1_Node000001_Node000002" class="edge">
<title>Node1&#45;&gt;Node2</title>
<g id="a_edge1_Node000001_Node000002"><a xlink:title=" ">
<path fill="none" stroke="#63b8ff" d="M534.02,-165.46C508.44,-184.96 471.63,-210.73 436,-227.5 429.52,-230.55 422.65,-233.36 415.66,-235.92"/>
<polygon fill="#63b8ff" stroke="#63b8ff" points="536.47,-167.99 542.25,-159.11 532.2,-162.45 536.47,-167.99"/>
</a>
</g>
</g>
<!-- Node3 -->
<g id="Node000003" class="node">
<title>Node3</title>
<g id="a_Node000003"><a xlink:href="classiii__drone_1_1control_1_1maneuver_1_1HoverByObjectManeuverServer.html#a43a1bd4911d8cb93397ab2eeabd61ee4" target="_top" xlink:title="Whether the maneuver can be executed, will return false if the target is not visible or the drone has...">
<polygon fill="white" stroke="#666666" points="436,-218 236,-218 236,-177 436,-177 436,-218"/>
<text text-anchor="start" x="244" y="-206" font-family="Helvetica,sans-Serif" font-size="10.00">iii_drone::control</text>
<text text-anchor="start" x="244" y="-195" font-family="Helvetica,sans-Serif" font-size="10.00">::maneuver::HoverByObjectManeuver</text>
<text text-anchor="middle" x="336" y="-184" font-family="Helvetica,sans-Serif" font-size="10.00">Server::CanExecuteManeuver</text>
</a>
</g>
</g>
<!-- Node1&#45;&gt;Node3 -->
<g id="edge2_Node000001_Node000003" class="edge">
<title>Node1&#45;&gt;Node3</title>
<g id="a_edge2_Node000001_Node000003"><a xlink:title=" ">
<path fill="none" stroke="#63b8ff" d="M477.29,-161.59C457.53,-166.65 436.74,-171.97 417.4,-176.92"/>
<polygon fill="#63b8ff" stroke="#63b8ff" points="478.39,-164.92 487.21,-159.05 476.65,-158.14 478.39,-164.92"/>
</a>
</g>
</g>
<!-- Node4 -->
<g id="Node000004" class="node">
<title>Node4</title>
<g id="a_Node000004"><a xlink:href="classiii__drone_1_1control_1_1maneuver_1_1HoverByObjectManeuverServer.html#a4eb2e2eafbed623aeb6b16536465f896" target="_top" xlink:title="Gets the hover reference. The current state is not used. Will call the on fail callback if the target...">
<polygon fill="white" stroke="#666666" points="436,-159 236,-159 236,-118 436,-118 436,-159"/>
<text text-anchor="start" x="244" y="-147" font-family="Helvetica,sans-Serif" font-size="10.00">iii_drone::control</text>
<text text-anchor="start" x="244" y="-136" font-family="Helvetica,sans-Serif" font-size="10.00">::maneuver::HoverByObjectManeuver</text>
<text text-anchor="middle" x="336" y="-125" font-family="Helvetica,sans-Serif" font-size="10.00">Server::GetReference</text>
</a>
</g>
</g>
<!-- Node1&#45;&gt;Node4 -->
<g id="edge3_Node000001_Node000004" class="edge">
<title>Node1&#45;&gt;Node4</title>
<g id="a_edge3_Node000001_Node000004"><a xlink:title=" ">
<path fill="none" stroke="#63b8ff" d="M461.5,-138.5C453.06,-138.5 444.56,-138.5 436.17,-138.5"/>
<polygon fill="#63b8ff" stroke="#63b8ff" points="461.75,-142 471.75,-138.5 461.75,-135 461.75,-142"/>
</a>
</g>
</g>
<!-- Node8 -->
<g id="Node000008" class="node">
<title>Node8</title>
<g id="a_Node000008"><a xlink:href="classiii__drone_1_1control_1_1maneuver_1_1HoverByObjectManeuverServer.html#a7e09c4b73237e76701d9e83785e05077" target="_top" xlink:title="Returns true if the maneuver has succeeded. Has succeeded if the target is visible and the drone is w...">
<polygon fill="white" stroke="#666666" points="436,-100 236,-100 236,-59 436,-59 436,-100"/>
<text text-anchor="start" x="244" y="-88" font-family="Helvetica,sans-Serif" font-size="10.00">iii_drone::control</text>
<text text-anchor="start" x="244" y="-77" font-family="Helvetica,sans-Serif" font-size="10.00">::maneuver::HoverByObjectManeuver</text>
<text text-anchor="middle" x="336" y="-66" font-family="Helvetica,sans-Serif" font-size="10.00">Server::hasSucceeded</text>
</a>
</g>
</g>
<!-- Node1&#45;&gt;Node8 -->
<g id="edge7_Node000001_Node000008" class="edge">
<title>Node1&#45;&gt;Node8</title>
<g id="a_edge7_Node000001_Node000008"><a xlink:title=" ">
<path fill="none" stroke="#63b8ff" d="M477.29,-115.41C457.53,-110.35 436.74,-105.03 417.4,-100.08"/>
<polygon fill="#63b8ff" stroke="#63b8ff" points="476.65,-118.86 487.21,-117.95 478.39,-112.08 476.65,-118.86"/>
</a>
</g>
</g>
<!-- Node10 -->
<g id="Node000010" class="node">
<title>Node10</title>
<g id="a_Node000010"><a xlink:href="classiii__drone_1_1control_1_1maneuver_1_1HoverByObjectManeuverServer.html#ac08b547da2cbfe0165a2ccca6b639c02" target="_top" xlink:title="Updates the hover reference.">
<polygon fill="white" stroke="#666666" points="436,-41 236,-41 236,0 436,0 436,-41"/>
<text text-anchor="start" x="244" y="-29" font-family="Helvetica,sans-Serif" font-size="10.00">iii_drone::control</text>
<text text-anchor="start" x="244" y="-18" font-family="Helvetica,sans-Serif" font-size="10.00">::maneuver::HoverByObjectManeuver</text>
<text text-anchor="middle" x="336" y="-7" font-family="Helvetica,sans-Serif" font-size="10.00">Server::Update</text>
</a>
</g>
</g>
<!-- Node1&#45;&gt;Node10 -->
<g id="edge9_Node000001_Node000010" class="edge">
<title>Node1&#45;&gt;Node10</title>
<g id="a_edge9_Node000001_Node000010"><a xlink:title=" ">
<path fill="none" stroke="#63b8ff" d="M534.02,-111.54C508.44,-92.04 471.63,-66.27 436,-49.5 429.52,-46.45 422.65,-43.64 415.66,-41.08"/>
<polygon fill="#63b8ff" stroke="#63b8ff" points="532.2,-114.55 542.25,-117.89 536.47,-109.01 532.2,-114.55"/>
</a>
</g>
</g>
<!-- Node5 -->
<g id="Node000005" class="node">
<title>Node5</title>
<g id="a_Node000005"><a xlink:href="classiii__drone_1_1control_1_1maneuver_1_1HoverByObjectManeuverServer.html#a8651f18cdc5c9b85ff145c7decac4ddc" target="_top" xlink:title="Computes the hover by object reference for the maneuver server.">
<polygon fill="white" stroke="#666666" points="200,-259 0,-259 0,-218 200,-218 200,-259"/>
<text text-anchor="start" x="8" y="-247" font-family="Helvetica,sans-Serif" font-size="10.00">iii_drone::control</text>
<text text-anchor="start" x="8" y="-236" font-family="Helvetica,sans-Serif" font-size="10.00">::maneuver::HoverByObjectManeuver</text>
<text text-anchor="middle" x="100" y="-225" font-family="Helvetica,sans-Serif" font-size="10.00">Server::computeReference</text>
</a>
</g>
</g>
<!-- Node4&#45;&gt;Node5 -->
<g id="edge4_Node000004_Node000005" class="edge">
<title>Node4&#45;&gt;Node5</title>
<g id="a_edge4_Node000004_Node000005"><a xlink:title=" ">
<path fill="none" stroke="#63b8ff" d="M244.6,-163.52C241.64,-165.08 238.77,-166.74 236,-168.5 215.81,-181.33 220.19,-195.67 200,-208.5 194.47,-212.02 188.5,-215.14 182.33,-217.91"/>
<polygon fill="#63b8ff" stroke="#63b8ff" points="246.21,-166.62 253.67,-159.09 243.14,-160.33 246.21,-166.62"/>
</a>
</g>
</g>
<!-- Node6 -->
<g id="Node000006" class="node">
<title>Node6</title>
<g id="a_Node000006"><a xlink:href="classiii__drone_1_1control_1_1maneuver_1_1FlyToObjectManeuverServer.html#a8cd7c6981d54cd5aa868f25d843ad0d0" target="_top" xlink:title="Registers the hover by object reference callback on success.">
<polygon fill="white" stroke="#666666" points="198.5,-199.5 1.5,-199.5 1.5,-147.5 198.5,-147.5 198.5,-199.5"/>
<text text-anchor="start" x="9.5" y="-187.5" font-family="Helvetica,sans-Serif" font-size="10.00">iii_drone::control</text>
<text text-anchor="start" x="9.5" y="-176.5" font-family="Helvetica,sans-Serif" font-size="10.00">::maneuver::FlyToObjectManeuver</text>
<text text-anchor="start" x="9.5" y="-165.5" font-family="Helvetica,sans-Serif" font-size="10.00">Server::registerReferenceCallbackOn</text>
<text text-anchor="middle" x="100" y="-154.5" font-family="Helvetica,sans-Serif" font-size="10.00">Success</text>
</a>
</g>
</g>
<!-- Node4&#45;&gt;Node6 -->
<g id="edge5_Node000004_Node000006" class="edge">
<title>Node4&#45;&gt;Node6</title>
<g id="a_edge5_Node000004_Node000006"><a xlink:title=" ">
<path fill="none" stroke="#63b8ff" d="M225.6,-154.86C216.56,-156.22 207.46,-157.58 198.52,-158.91"/>
<polygon fill="#63b8ff" stroke="#63b8ff" points="226.39,-158.28 235.76,-153.34 225.36,-151.36 226.39,-158.28"/>
</a>
</g>
</g>
<!-- Node7 -->
<g id="Node000007" class="node">
<title>Node7</title>
<g id="a_Node000007"><a xlink:href="classiii__drone_1_1control_1_1maneuver_1_1HoverByObjectManeuverServer.html#a42d65b247ee89440e63ed7c992c4772e" target="_top" xlink:title="Registers the hover by object reference callback on success.">
<polygon fill="white" stroke="#666666" points="200,-129.5 0,-129.5 0,-77.5 200,-77.5 200,-129.5"/>
<text text-anchor="start" x="8" y="-117.5" font-family="Helvetica,sans-Serif" font-size="10.00">iii_drone::control</text>
<text text-anchor="start" x="8" y="-106.5" font-family="Helvetica,sans-Serif" font-size="10.00">::maneuver::HoverByObjectManeuver</text>
<text text-anchor="start" x="8" y="-95.5" font-family="Helvetica,sans-Serif" font-size="10.00">Server::registerReferenceCallbackOn</text>
<text text-anchor="middle" x="100" y="-84.5" font-family="Helvetica,sans-Serif" font-size="10.00">Success</text>
</a>
</g>
</g>
<!-- Node4&#45;&gt;Node7 -->
<g id="edge6_Node000004_Node000007" class="edge">
<title>Node4&#45;&gt;Node7</title>
<g id="a_edge6_Node000004_Node000007"><a xlink:title=" ">
<path fill="none" stroke="#63b8ff" d="M225.73,-122.16C217.15,-120.87 208.52,-119.58 200.02,-118.31"/>
<polygon fill="#63b8ff" stroke="#63b8ff" points="225.36,-125.64 235.76,-123.66 226.39,-118.72 225.36,-125.64"/>
</a>
</g>
</g>
<!-- Node9 -->
<g id="Node000009" class="node">
<title>Node9</title>
<g id="a_Node000009"><a xlink:href="classiii__drone_1_1control_1_1maneuver_1_1HoverByObjectManeuverServer.html#af8528504b83c4c9b405f496ccc269e10" target="_top" xlink:title="Returns true if the maneuver has failed. Has failed if the target is not visible or the drone has dri...">
<polygon fill="white" stroke="#666666" points="200,-59 0,-59 0,-18 200,-18 200,-59"/>
<text text-anchor="start" x="8" y="-47" font-family="Helvetica,sans-Serif" font-size="10.00">iii_drone::control</text>
<text text-anchor="start" x="8" y="-36" font-family="Helvetica,sans-Serif" font-size="10.00">::maneuver::HoverByObjectManeuver</text>
<text text-anchor="middle" x="100" y="-25" font-family="Helvetica,sans-Serif" font-size="10.00">Server::hasFailed</text>
</a>
</g>
</g>
<!-- Node8&#45;&gt;Node9 -->
<g id="edge8_Node000008_Node000009" class="edge">
<title>Node8&#45;&gt;Node9</title>
<g id="a_edge8_Node000008_Node000009"><a xlink:title=" ">
<path fill="none" stroke="#63b8ff" d="M225.73,-60.35C217.15,-58.85 208.52,-57.34 200.02,-55.85"/>
<polygon fill="#63b8ff" stroke="#63b8ff" points="225.31,-63.83 235.76,-62.11 226.52,-56.94 225.31,-63.83"/>
</a>
</g>
</g>
</g>
</svg>

<g id="navigator" transform="translate(0 0)" fill="#404254">
  <rect fill="#f2f5e9" fill-opacity="0.5" stroke="#606060" stroke-width=".5" x="0" y="0" width="60" height="60"/>
  <use id="zoomplus" xlink:href="#zoomPlus" x="17" y="9" onmousedown="handleZoom(evt,'in')"/>
  <use id="zoomminus" xlink:href="#zoomMin" x="42" y="9" onmousedown="handleZoom(evt,'out')"/>
  <use id="reset" xlink:href="#resetDef" x="30" y="36" onmousedown="handleReset()"/>
   <use id="arrowup" xlink:href="#arrowUp" x="0" y="0" onmousedown="handlePan(0,-1)"/>
  <use id="arrowright" xlink:href="#arrowRight" x="0" y="0" onmousedown="handlePan(1,0)"/>
  <use id="arrowdown" xlink:href="#arrowDown" x="0" y="0" onmousedown="handlePan(0,1)"/>
  <use id="arrowleft" xlink:href="#arrowLeft" x="0" y="0" onmousedown="handlePan(-1,0)"/>
</g>
<svg viewBox="0 0 15 15" width="100%" height="30px" preserveAspectRatio="xMaxYMin meet">
 <g id="arrow_out" transform="scale(0.3 0.3)">
  <a xlink:href="classiii__drone_1_1control_1_1CombinedDroneAwarenessHandler_ab9c3e7f08103bc40c70efd3ca93f040b_icgraph_org.svg" target="_base">
   <rect id="button" ry="5" rx="5" y="6" x="6" height="38" width="38"
        fill="#f2f5e9" fill-opacity="0.5" stroke="#606060" stroke-width="1.0"/>
   <path id="arrow"
     d="M 11.500037,31.436501 C 11.940474,20.09759 22.043105,11.32322 32.158766,21.979434 L 37.068811,17.246167 C 37.068811,17.246167 37.088388,32 37.088388,32 L 22.160133,31.978069 C 22.160133,31.978069 26.997745,27.140456 26.997745,27.140456 C 18.528582,18.264221 13.291696,25.230495 11.500037,31.436501 z"
     style="fill:#404040;"/>
  </a>
 </g>
</svg>

<style type='text/css'>
<![CDATA[
[data-mouse-over-selected='false'] { opacity: 0.7; }
[data-mouse-over-selected='true']  { opacity: 1.0; }
]]>
</style>
<script type="application/ecmascript"><![CDATA[
document.addEventListener('DOMContentLoaded', (event) => {
  highlightEdges();
  highlightAdjacentNodes();
});
]]></script>
</svg>
