<?xml version="1.0" encoding="UTF-8" standalone="no"?>
<!DOCTYPE svg PUBLIC "-//W3C//DTD SVG 1.1//EN"
 "http://www.w3.org/Graphics/SVG/1.1/DTD/svg11.dtd">
<!-- Generated by graphviz version 2.43.0 (0)
 -->
<!-- Title: iii_drone::control::maneuver::ManeuverScheduler::ManeuverScheduler Pages: 1 -->
<!--zoomable 1063 -->

<svg id="main" version="1.1" xmlns="http://www.w3.org/2000/svg" xmlns:xlink="http://www.w3.org/1999/xlink" xml:space="preserve" onload="init(evt)">
<style type="text/css"><![CDATA[
.node, .edge {opacity: 0.7;}
.node.selected, .edge.selected {opacity: 1;}
.edge:hover path { stroke: red; }
.edge:hover polygon { stroke: red; fill: red; }
]]></style>

<defs>
  <circle id="rim" cx="0" cy="0" r="7"/>
  <circle id="rim2" cx="0" cy="0" r="3.5"/>
  <g id="zoomPlus">
    <use xlink:href="#rim" fill="#404040"><set attributeName="fill" to="#808080" begin="zoomplus.mouseover" end="zoomplus.mouseout"/></use>
    <path d="M-4,0h8M0,-4v8" fill="none" stroke="white" stroke-width="1.5" pointer-events="none"/>
  </g>
  <g id="zoomMin">
    <use xlink:href="#rim" fill="#404040"><set attributeName="fill" to="#808080" begin="zoomminus.mouseover" end="zoomminus.mouseout"/></use>
    <path d="M-4,0h8" fill="none" stroke="white" stroke-width="1.5" pointer-events="none"/>
  </g>
  <g id="arrowUp" transform="translate(30 24)">
    <use xlink:href="#rim"/>
    <path pointer-events="none" fill="none" stroke="white" stroke-width="1.5" d="M0,-3.0v7 M-2.5,-0.5L0,-3.0L2.5,-0.5"/>
  </g>
  <g id="arrowRight" transform="rotate(90) translate(36 -43)">
    <use xlink:href="#rim"/>
    <path pointer-events="none" fill="none" stroke="white" stroke-width="1.5" d="M0,-3.0v7 M-2.5,-0.5L0,-3.0L2.5,-0.5"/>
  </g>
  <g id="arrowDown" transform="rotate(180) translate(-30 -48)">
    <use xlink:href="#rim"/>
    <path pointer-events="none" fill="none" stroke="white" stroke-width="1.5" d="M0,-3.0v7 M-2.5,-0.5L0,-3.0L2.5,-0.5"/>
  </g>
  <g id="arrowLeft" transform="rotate(270) translate(-36 17)">
    <use xlink:href="#rim"/>
    <path pointer-events="none" fill="none" stroke="white" stroke-width="1.5" d="M0,-3.0v7 M-2.5,-0.5L0,-3.0L2.5,-0.5"/>
  </g>
  <g id="resetDef">
    <use xlink:href="#rim2" fill="#404040"><set attributeName="fill" to="#808080" begin="reset.mouseover" end="reset.mouseout"/></use>
  </g>
</defs>
<script type="application/ecmascript">
var viewWidth = 1225;
var viewHeight = 1063;
var sectionId = 'dynsection-1';
</script>
<script type="application/ecmascript" xlink:href="svg.min.js"/>
<svg id="graph" class="graph">
<g id="viewport">
<title>iii_drone::control::maneuver::ManeuverScheduler::ManeuverScheduler</title>
<!-- Node1 -->
<g id="Node000001" class="node">
<title>Node1</title>
<g id="a_Node000001"><a xlink:title="Constructor.">
<polygon fill="#999999" stroke="#666666" points="175,-832 0,-832 0,-791 175,-791 175,-832"/>
<text text-anchor="start" x="8" y="-820" font-family="Helvetica,sans-Serif" font-size="10.00">iii_drone::control</text>
<text text-anchor="start" x="8" y="-809" font-family="Helvetica,sans-Serif" font-size="10.00">::maneuver::ManeuverScheduler</text>
<text text-anchor="middle" x="87.5" y="-798" font-family="Helvetica,sans-Serif" font-size="10.00">::ManeuverScheduler</text>
</a>
</g>
</g>
<!-- Node2 -->
<g id="Node000002" class="node">
<title>Node2</title>
<g id="a_Node000002"><a xlink:href="classiii__drone_1_1control_1_1maneuver_1_1ManeuverSchedulerParameters.html#a73804427ed223a4d558be2ed5cff2a02" target="_top" xlink:title="Get the period for executing maneuvers.">
<polygon fill="white" stroke="#666666" points="837.5,-1054.5 657.5,-1054.5 657.5,-1002.5 837.5,-1002.5 837.5,-1054.5"/>
<text text-anchor="start" x="665.5" y="-1042.5" font-family="Helvetica,sans-Serif" font-size="10.00">iii_drone::control</text>
<text text-anchor="start" x="665.5" y="-1031.5" font-family="Helvetica,sans-Serif" font-size="10.00">::maneuver::ManeuverScheduler</text>
<text text-anchor="start" x="665.5" y="-1020.5" font-family="Helvetica,sans-Serif" font-size="10.00">Parameters::maneuver_execution</text>
<text text-anchor="middle" x="747.5" y="-1009.5" font-family="Helvetica,sans-Serif" font-size="10.00">_period_ms</text>
</a>
</g>
</g>
<!-- Node1&#45;&gt;Node2 -->
<g id="edge1_Node000001_Node000002" class="edge">
<title>Node1&#45;&gt;Node2</title>
<g id="a_edge1_Node000001_Node000002"><a xlink:title=" ">
<path fill="none" stroke="#63b8ff" d="M150.7,-832.01C268.1,-870.73 522.66,-954.68 657.9,-999.28"/>
<polygon fill="#63b8ff" stroke="#63b8ff" points="656.83,-1002.61 667.42,-1002.42 659.02,-995.97 656.83,-1002.61"/>
</a>
</g>
</g>
<!-- Node3 -->
<g id="Node000003" class="node">
<title>Node3</title>
<g id="a_Node000003"><a xlink:href="classiii__drone_1_1control_1_1maneuver_1_1ManeuverSchedulerParameters.html#ade96a612c50d544c76e8d99993005dc7" target="_top" xlink:title="Get the size of the maneuver queue.">
<polygon fill="white" stroke="#666666" points="400,-832 212,-832 212,-791 400,-791 400,-832"/>
<text text-anchor="start" x="220" y="-820" font-family="Helvetica,sans-Serif" font-size="10.00">iii_drone::control</text>
<text text-anchor="start" x="220" y="-809" font-family="Helvetica,sans-Serif" font-size="10.00">::maneuver::ManeuverScheduler</text>
<text text-anchor="middle" x="306" y="-798" font-family="Helvetica,sans-Serif" font-size="10.00">Parameters::maneuver_queue_size</text>
</a>
</g>
</g>
<!-- Node1&#45;&gt;Node3 -->
<g id="edge2_Node000001_Node000003" class="edge">
<title>Node1&#45;&gt;Node3</title>
<g id="a_edge2_Node000001_Node000003"><a xlink:title=" ">
<path fill="none" stroke="#63b8ff" d="M175.31,-811.5C183.94,-811.5 192.75,-811.5 201.52,-811.5"/>
<polygon fill="#63b8ff" stroke="#63b8ff" points="201.79,-815 211.79,-811.5 201.79,-808 201.79,-815"/>
</a>
</g>
</g>
<!-- Node4 -->
<g id="Node000004" class="node">
<title>Node4</title>
<g id="a_Node000004"><a xlink:href="classiii__drone_1_1control_1_1maneuver_1_1ManeuverScheduler.html#a3f6d63fc07809f25313347856ffdcd78" target="_top" xlink:title="The maneuver execution timer callback.">
<polygon fill="white" stroke="#666666" points="401,-577 211,-577 211,-536 401,-536 401,-577"/>
<text text-anchor="start" x="219" y="-565" font-family="Helvetica,sans-Serif" font-size="10.00">iii_drone::control</text>
<text text-anchor="start" x="219" y="-554" font-family="Helvetica,sans-Serif" font-size="10.00">::maneuver::ManeuverScheduler</text>
<text text-anchor="middle" x="306" y="-543" font-family="Helvetica,sans-Serif" font-size="10.00">::maneuverExecutionTimerCallback</text>
</a>
</g>
</g>
<!-- Node1&#45;&gt;Node4 -->
<g id="edge3_Node000001_Node000004" class="edge">
<title>Node1&#45;&gt;Node4</title>
<g id="a_edge3_Node000001_Node000004"><a xlink:title=" ">
<path fill="none" stroke="#63b8ff" d="M106.22,-790.63C144.85,-745.13 236.72,-636.92 280.71,-585.11"/>
<polygon fill="#63b8ff" stroke="#63b8ff" points="283.54,-587.19 287.34,-577.3 278.2,-582.66 283.54,-587.19"/>
</a>
</g>
</g>
<!-- Node5 -->
<g id="Node000005" class="node">
<title>Node5</title>
<g id="a_Node000005"><a xlink:href="classiii__drone_1_1control_1_1maneuver_1_1ManeuverScheduler.html#ab8f37f3486e4fd495946feb71ed4dcf3" target="_top" xlink:title="Fetches the next reference and publishes it. Will fetch the reference using the registered callback,...">
<polygon fill="white" stroke="#666666" points="612,-294 437,-294 437,-253 612,-253 612,-294"/>
<text text-anchor="start" x="445" y="-282" font-family="Helvetica,sans-Serif" font-size="10.00">iii_drone::control</text>
<text text-anchor="start" x="445" y="-271" font-family="Helvetica,sans-Serif" font-size="10.00">::maneuver::ManeuverScheduler</text>
<text text-anchor="middle" x="524.5" y="-260" font-family="Helvetica,sans-Serif" font-size="10.00">::fetchNextReferenceAndPublish</text>
</a>
</g>
</g>
<!-- Node4&#45;&gt;Node5 -->
<g id="edge4_Node000004_Node000005" class="edge">
<title>Node4&#45;&gt;Node5</title>
<g id="a_edge4_Node000004_Node000005"><a xlink:title=" ">
<path fill="none" stroke="#63b8ff" d="M322.92,-535.69C361,-485.91 457.44,-359.85 501.24,-302.59"/>
<polygon fill="#63b8ff" stroke="#63b8ff" points="504.26,-304.41 507.56,-294.34 498.7,-300.16 504.26,-304.41"/>
</a>
</g>
</g>
<!-- Node7 -->
<g id="Node000007" class="node">
<title>Node7</title>
<g id="a_Node000007"><a xlink:href="classiii__drone_1_1control_1_1maneuver_1_1ManeuverScheduler.html#a99d218271b8aa908b0e179076f2ca733" target="_top" xlink:title="Progresses the scheduler. If a maneuver is executing, evaluates whether it has terminated....">
<polygon fill="white" stroke="#666666" points="612,-577 437,-577 437,-536 612,-536 612,-577"/>
<text text-anchor="start" x="445" y="-565" font-family="Helvetica,sans-Serif" font-size="10.00">iii_drone::control</text>
<text text-anchor="start" x="445" y="-554" font-family="Helvetica,sans-Serif" font-size="10.00">::maneuver::ManeuverScheduler</text>
<text text-anchor="middle" x="524.5" y="-543" font-family="Helvetica,sans-Serif" font-size="10.00">::progressScheduler</text>
</a>
</g>
</g>
<!-- Node4&#45;&gt;Node7 -->
<g id="edge6_Node000004_Node000007" class="edge">
<title>Node4&#45;&gt;Node7</title>
<g id="a_edge6_Node000004_Node000007"><a xlink:title=" ">
<path fill="none" stroke="#63b8ff" d="M401.02,-556.5C409.45,-556.5 418.01,-556.5 426.47,-556.5"/>
<polygon fill="#63b8ff" stroke="#63b8ff" points="426.73,-560 436.73,-556.5 426.73,-553 426.73,-560"/>
</a>
</g>
</g>
<!-- Node6 -->
<g id="Node000006" class="node">
<title>Node6</title>
<g id="a_Node000006"><a xlink:href="classiii__drone_1_1control_1_1CombinedDroneAwarenessHandler.html#aa6358b3ccf11823819089a1706b7cd02" target="_top" xlink:title="Get the current drone state.">
<polygon fill="white" stroke="#666666" points="844,-41 651,-41 651,0 844,0 844,-41"/>
<text text-anchor="start" x="659" y="-29" font-family="Helvetica,sans-Serif" font-size="10.00">iii_drone::control</text>
<text text-anchor="start" x="659" y="-18" font-family="Helvetica,sans-Serif" font-size="10.00">::CombinedDroneAwarenessHandler</text>
<text text-anchor="middle" x="747.5" y="-7" font-family="Helvetica,sans-Serif" font-size="10.00">::GetState</text>
</a>
</g>
</g>
<!-- Node5&#45;&gt;Node6 -->
<g id="edge5_Node000005_Node000006" class="edge">
<title>Node5&#45;&gt;Node6</title>
<g id="a_edge5_Node000005_Node000006"><a xlink:title=" ">
<path fill="none" stroke="#63b8ff" d="M530.99,-252.7C543.76,-208.45 579.67,-104.57 648,-49.5 649.21,-48.52 650.46,-47.58 651.74,-46.66"/>
<polygon fill="#63b8ff" stroke="#63b8ff" points="653.96,-49.4 660.53,-41.08 650.21,-43.49 653.96,-49.4"/>
</a>
</g>
</g>
<!-- Node7&#45;&gt;Node2 -->
<g id="edge18_Node000007_Node000002" class="edge">
<title>Node7&#45;&gt;Node2</title>
<g id="a_edge18_Node000007_Node000002"><a xlink:title=" ">
<path fill="none" stroke="#63b8ff" d="M528.7,-577.03C541.22,-654.84 589.04,-930.38 648,-993.5 648.65,-994.2 649.32,-994.88 649.99,-995.55"/>
<polygon fill="#63b8ff" stroke="#63b8ff" points="647.89,-998.35 657.76,-1002.21 652.45,-993.04 647.89,-998.35"/>
</a>
</g>
</g>
<!-- Node8 -->
<g id="Node000008" class="node">
<title>Node8</title>
<g id="a_Node000008"><a xlink:href="classiii__drone_1_1control_1_1maneuver_1_1ManeuverScheduler.html#a4c24958fe841dcbccfb6385f38f28ec2" target="_top" xlink:title="Cancels all pending maneuvers.">
<polygon fill="white" stroke="#666666" points="835,-866 660,-866 660,-825 835,-825 835,-866"/>
<text text-anchor="start" x="668" y="-854" font-family="Helvetica,sans-Serif" font-size="10.00">iii_drone::control</text>
<text text-anchor="start" x="668" y="-843" font-family="Helvetica,sans-Serif" font-size="10.00">::maneuver::ManeuverScheduler</text>
<text text-anchor="middle" x="747.5" y="-832" font-family="Helvetica,sans-Serif" font-size="10.00">::cancelAllPendingManeuvers</text>
</a>
</g>
</g>
<!-- Node7&#45;&gt;Node8 -->
<g id="edge7_Node000007_Node000008" class="edge">
<title>Node7&#45;&gt;Node8</title>
<g id="a_edge7_Node000007_Node000008"><a xlink:title=" ">
<path fill="none" stroke="#63b8ff" d="M529.26,-577.21C539.28,-626.34 571.27,-750.76 648,-816.5 649.14,-817.48 650.32,-818.42 651.52,-819.34"/>
<polygon fill="#63b8ff" stroke="#63b8ff" points="649.58,-822.25 659.83,-824.92 653.48,-816.44 649.58,-822.25"/>
</a>
</g>
</g>
<!-- Node10 -->
<g id="Node000010" class="node">
<title>Node10</title>
<g id="a_Node000010"><a xlink:href="classiii__drone_1_1control_1_1maneuver_1_1Maneuver.html#a562b9288530756542998d6454984c5ba" target="_top" xlink:title="Creation time getter.">
<polygon fill="white" stroke="#666666" points="811,-807 684,-807 684,-766 811,-766 811,-807"/>
<text text-anchor="start" x="692" y="-795" font-family="Helvetica,sans-Serif" font-size="10.00">iii_drone::control</text>
<text text-anchor="start" x="692" y="-784" font-family="Helvetica,sans-Serif" font-size="10.00">::maneuver::Maneuver</text>
<text text-anchor="middle" x="747.5" y="-773" font-family="Helvetica,sans-Serif" font-size="10.00">::creation_time</text>
</a>
</g>
</g>
<!-- Node7&#45;&gt;Node10 -->
<g id="edge9_Node000007_Node000010" class="edge">
<title>Node7&#45;&gt;Node10</title>
<g id="a_edge9_Node000007_Node000010"><a xlink:title=" ">
<path fill="none" stroke="#63b8ff" d="M533.05,-577.04C548.54,-616.47 587.64,-703.12 648,-751.5 655.86,-757.8 664.94,-763.01 674.34,-767.31"/>
<polygon fill="#63b8ff" stroke="#63b8ff" points="673.25,-770.65 683.82,-771.32 675.97,-764.2 673.25,-770.65"/>
</a>
</g>
</g>
<!-- Node11 -->
<g id="Node000011" class="node">
<title>Node11</title>
<g id="a_Node000011"><a xlink:href="classiii__drone_1_1utils_1_1Token.html#a534f125dc6d51a1f1432f2f973d1ba78" target="_top" xlink:title="Denies all pending token requests, to be called by the master.">
<polygon fill="white" stroke="#666666" points="1032,-754.5 913,-754.5 913,-724.5 1032,-724.5 1032,-754.5"/>
<text text-anchor="start" x="921" y="-742.5" font-family="Helvetica,sans-Serif" font-size="10.00">iii_drone::utils::Token</text>
<text text-anchor="middle" x="972.5" y="-731.5" font-family="Helvetica,sans-Serif" font-size="10.00">::DenyAll</text>
</a>
</g>
</g>
<!-- Node7&#45;&gt;Node11 -->
<g id="edge10_Node000007_Node000011" class="edge">
<title>Node7&#45;&gt;Node11</title>
<g id="a_edge10_Node000007_Node000011"><a xlink:title=" ">
<path fill="none" stroke="#63b8ff" d="M534.1,-577.2C550.31,-613.27 589.17,-686.81 648,-718.5 727.3,-761.21 833.87,-758.73 902.63,-750.87"/>
<polygon fill="#63b8ff" stroke="#63b8ff" points="903.41,-754.3 912.92,-749.62 902.57,-747.35 903.41,-754.3"/>
</a>
</g>
</g>
<!-- Node13 -->
<g id="Node000013" class="node">
<title>Node13</title>
<g id="a_Node000013"><a xlink:href="classiii__drone_1_1utils_1_1Token.html#af1b934282b509c6e59f521b59afaf9ed" target="_top" xlink:title="Gives the token to a slave, to be called by the master.">
<polygon fill="white" stroke="#666666" points="807,-709.5 688,-709.5 688,-679.5 807,-679.5 807,-709.5"/>
<text text-anchor="start" x="696" y="-697.5" font-family="Helvetica,sans-Serif" font-size="10.00">iii_drone::utils::Token</text>
<text text-anchor="middle" x="747.5" y="-686.5" font-family="Helvetica,sans-Serif" font-size="10.00">::Give</text>
</a>
</g>
</g>
<!-- Node7&#45;&gt;Node13 -->
<g id="edge12_Node000007_Node000013" class="edge">
<title>Node7&#45;&gt;Node13</title>
<g id="a_edge12_Node000007_Node000013"><a xlink:title=" ">
<path fill="none" stroke="#63b8ff" d="M541.83,-577.16C563.37,-602.98 603.75,-646.66 648,-670.5 657.28,-675.5 667.6,-679.47 677.98,-682.63"/>
<polygon fill="#63b8ff" stroke="#63b8ff" points="677.33,-686.08 687.91,-685.41 679.22,-679.34 677.33,-686.08"/>
</a>
</g>
</g>
<!-- Node16 -->
<g id="Node000016" class="node">
<title>Node16</title>
<g id="a_Node000016"><a xlink:href="classiii__drone_1_1control_1_1maneuver_1_1Maneuver.html#a0b7b01d9ab27db008c54f7ef0099fcd0" target="_top" xlink:title="Goal handle getter.">
<polygon fill="white" stroke="#666666" points="1036,-511 909,-511 909,-470 1036,-470 1036,-511"/>
<text text-anchor="start" x="917" y="-499" font-family="Helvetica,sans-Serif" font-size="10.00">iii_drone::control</text>
<text text-anchor="start" x="917" y="-488" font-family="Helvetica,sans-Serif" font-size="10.00">::maneuver::Maneuver</text>
<text text-anchor="middle" x="972.5" y="-477" font-family="Helvetica,sans-Serif" font-size="10.00">::goal_handle</text>
</a>
</g>
</g>
<!-- Node7&#45;&gt;Node16 -->
<g id="edge16_Node000007_Node000016" class="edge">
<title>Node7&#45;&gt;Node16</title>
<g id="a_edge16_Node000007_Node000016"><a xlink:title=" ">
<path fill="none" stroke="#63b8ff" d="M531.3,-535.84C544.24,-494.2 579.83,-400.97 648,-363.5 725.51,-320.89 765.46,-329.25 847,-363.5 893.9,-383.2 931.99,-430.14 953.19,-461.1"/>
<polygon fill="#63b8ff" stroke="#63b8ff" points="950.51,-463.38 958.97,-469.76 956.33,-459.5 950.51,-463.38"/>
</a>
</g>
</g>
<!-- Node17 -->
<g id="Node000017" class="node">
<title>Node17</title>
<g id="a_Node000017"><a xlink:href="classiii__drone_1_1utils_1_1Token.html#a123a191aca29aeaff842a0d4a227564d" target="_top" xlink:title="Whether a slave has requested the token.">
<polygon fill="white" stroke="#666666" points="810.5,-601.5 684.5,-601.5 684.5,-571.5 810.5,-571.5 810.5,-601.5"/>
<text text-anchor="start" x="692.5" y="-589.5" font-family="Helvetica,sans-Serif" font-size="10.00">iii_drone::utils::Token</text>
<text text-anchor="middle" x="747.5" y="-578.5" font-family="Helvetica,sans-Serif" font-size="10.00">::has_requested_token</text>
</a>
</g>
</g>
<!-- Node7&#45;&gt;Node17 -->
<g id="edge17_Node000007_Node000017" class="edge">
<title>Node7&#45;&gt;Node17</title>
<g id="a_edge17_Node000007_Node000017"><a xlink:title=" ">
<path fill="none" stroke="#63b8ff" d="M612.21,-568.27C632.7,-571.05 654.34,-573.99 674.12,-576.67"/>
<polygon fill="#63b8ff" stroke="#63b8ff" points="673.9,-580.18 684.28,-578.05 674.84,-573.24 673.9,-580.18"/>
</a>
</g>
</g>
<!-- Node18 -->
<g id="Node000018" class="node">
<title>Node18</title>
<g id="a_Node000018"><a xlink:href="classiii__drone_1_1control_1_1maneuver_1_1ManeuverSchedulerParameters.html#ac43259193c169d7b3016c82de5083e69" target="_top" xlink:title="Get the timeout duration for updating a maneuver after registering.">
<polygon fill="white" stroke="#666666" points="835,-553.5 660,-553.5 660,-501.5 835,-501.5 835,-553.5"/>
<text text-anchor="start" x="668" y="-541.5" font-family="Helvetica,sans-Serif" font-size="10.00">iii_drone::control</text>
<text text-anchor="start" x="668" y="-530.5" font-family="Helvetica,sans-Serif" font-size="10.00">::maneuver::ManeuverScheduler</text>
<text text-anchor="start" x="668" y="-519.5" font-family="Helvetica,sans-Serif" font-size="10.00">Parameters::maneuver_register</text>
<text text-anchor="middle" x="747.5" y="-508.5" font-family="Helvetica,sans-Serif" font-size="10.00">_update_timeout_s</text>
</a>
</g>
</g>
<!-- Node7&#45;&gt;Node18 -->
<g id="edge19_Node000007_Node000018" class="edge">
<title>Node7&#45;&gt;Node18</title>
<g id="a_edge19_Node000007_Node000018"><a xlink:title=" ">
<path fill="none" stroke="#63b8ff" d="M612.21,-545.12C624.52,-543.51 637.24,-541.84 649.73,-540.2"/>
<polygon fill="#63b8ff" stroke="#63b8ff" points="650.22,-543.66 659.68,-538.89 649.31,-536.72 650.22,-543.66"/>
</a>
</g>
</g>
<!-- Node19 -->
<g id="Node000019" class="node">
<title>Node19</title>
<g id="a_Node000019"><a xlink:href="classiii__drone_1_1control_1_1maneuver_1_1ManeuverSchedulerParameters.html#a9bbbf6df2460f1d187486693516b5d23" target="_top" xlink:title="Get the timeout duration for the server to start executing a maneuver after Start() has been called.">
<polygon fill="white" stroke="#666666" points="835,-483.5 660,-483.5 660,-431.5 835,-431.5 835,-483.5"/>
<text text-anchor="start" x="668" y="-471.5" font-family="Helvetica,sans-Serif" font-size="10.00">iii_drone::control</text>
<text text-anchor="start" x="668" y="-460.5" font-family="Helvetica,sans-Serif" font-size="10.00">::maneuver::ManeuverScheduler</text>
<text text-anchor="start" x="668" y="-449.5" font-family="Helvetica,sans-Serif" font-size="10.00">Parameters::maneuver_start</text>
<text text-anchor="middle" x="747.5" y="-438.5" font-family="Helvetica,sans-Serif" font-size="10.00">_timeout_s</text>
</a>
</g>
</g>
<!-- Node7&#45;&gt;Node19 -->
<g id="edge20_Node000007_Node000019" class="edge">
<title>Node7&#45;&gt;Node19</title>
<g id="a_edge20_Node000007_Node000019"><a xlink:title=" ">
<path fill="none" stroke="#63b8ff" d="M561.57,-535.95C585.63,-522.67 618.2,-505.5 648,-492.5 652.04,-490.74 656.2,-488.99 660.42,-487.28"/>
<polygon fill="#63b8ff" stroke="#63b8ff" points="661.72,-490.53 669.73,-483.59 659.14,-484.02 661.72,-490.53"/>
</a>
</g>
</g>
<!-- Node20 -->
<g id="Node000020" class="node">
<title>Node20</title>
<g id="a_Node000020"><a xlink:href="classiii__drone_1_1control_1_1maneuver_1_1Maneuver.html#a2a1dd737450465c565f5eba36e71ffad" target="_top" xlink:title="Maneuver type getter.">
<polygon fill="white" stroke="#666666" points="811,-413 684,-413 684,-372 811,-372 811,-413"/>
<text text-anchor="start" x="692" y="-401" font-family="Helvetica,sans-Serif" font-size="10.00">iii_drone::control</text>
<text text-anchor="start" x="692" y="-390" font-family="Helvetica,sans-Serif" font-size="10.00">::maneuver::Maneuver</text>
<text text-anchor="middle" x="747.5" y="-379" font-family="Helvetica,sans-Serif" font-size="10.00">::maneuver_type</text>
</a>
</g>
</g>
<!-- Node7&#45;&gt;Node20 -->
<g id="edge21_Node000007_Node000020" class="edge">
<title>Node7&#45;&gt;Node20</title>
<g id="a_edge21_Node000007_Node000020"><a xlink:title=" ">
<path fill="none" stroke="#63b8ff" d="M539.13,-535.6C559.41,-506.13 600.29,-452.61 648,-422.5 656.08,-417.4 665.08,-413.13 674.26,-409.55"/>
<polygon fill="#63b8ff" stroke="#63b8ff" points="675.65,-412.77 683.86,-406.07 673.27,-406.19 675.65,-412.77"/>
</a>
</g>
</g>
<!-- Node21 -->
<g id="Node000021" class="node">
<title>Node21</title>
<g id="a_Node000021"><a xlink:href="classiii__drone_1_1control_1_1maneuver_1_1ManeuverScheduler.html#ab46a10b4f9d526b6e3c2df89c33f78be" target="_top" xlink:title="Get whether a maneuver is being executed or pending.">
<polygon fill="white" stroke="#666666" points="836.5,-208 658.5,-208 658.5,-167 836.5,-167 836.5,-208"/>
<text text-anchor="start" x="666.5" y="-196" font-family="Helvetica,sans-Serif" font-size="10.00">iii_drone::control</text>
<text text-anchor="start" x="666.5" y="-185" font-family="Helvetica,sans-Serif" font-size="10.00">::maneuver::ManeuverScheduler</text>
<text text-anchor="middle" x="747.5" y="-174" font-family="Helvetica,sans-Serif" font-size="10.00">::maneuverIsExecutingOrPending</text>
</a>
</g>
</g>
<!-- Node7&#45;&gt;Node21 -->
<g id="edge22_Node000007_Node000021" class="edge">
<title>Node7&#45;&gt;Node21</title>
<g id="a_edge22_Node000007_Node000021"><a xlink:title=" ">
<path fill="none" stroke="#63b8ff" d="M532.47,-535.61C556.6,-463.56 635.72,-229.17 648,-217.5 649.29,-216.27 650.63,-215.1 652.02,-213.97"/>
<polygon fill="#63b8ff" stroke="#63b8ff" points="654.26,-216.66 660.37,-208.01 650.2,-210.96 654.26,-216.66"/>
</a>
</g>
</g>
<!-- Node23 -->
<g id="Node000023" class="node">
<title>Node23</title>
<g id="a_Node000023"><a xlink:href="classiii__drone_1_1utils_1_1Token.html#a7f242bea6b8c01922066812119e6d5d1" target="_top" xlink:title="Whether the token is held by the master.">
<polygon fill="white" stroke="#666666" points="807,-315.5 688,-315.5 688,-285.5 807,-285.5 807,-315.5"/>
<text text-anchor="start" x="696" y="-303.5" font-family="Helvetica,sans-Serif" font-size="10.00">iii_drone::utils::Token</text>
<text text-anchor="middle" x="747.5" y="-292.5" font-family="Helvetica,sans-Serif" font-size="10.00">::master_has_token</text>
</a>
</g>
</g>
<!-- Node7&#45;&gt;Node23 -->
<g id="edge24_Node000007_Node000023" class="edge">
<title>Node7&#45;&gt;Node23</title>
<g id="a_edge24_Node000007_Node000023"><a xlink:title=" ">
<path fill="none" stroke="#63b8ff" d="M530.81,-535.76C543.33,-491.12 578.94,-385.47 648,-329.5 656.84,-322.34 667.39,-316.94 678.25,-312.88"/>
<polygon fill="#63b8ff" stroke="#63b8ff" points="679.48,-316.16 687.84,-309.65 677.25,-309.53 679.48,-316.16"/>
</a>
</g>
</g>
<!-- Node24 -->
<g id="Node000024" class="node">
<title>Node24</title>
<g id="a_Node000024"><a xlink:href="classiii__drone_1_1control_1_1maneuver_1_1ManeuverSchedulerParameters.html#ac36fb1c35ddd2f43d613e58be53e7c7e" target="_top" xlink:title="Get the number of seconds without a maneuver before the scheduler goes from hovering to idle.">
<polygon fill="white" stroke="#666666" points="847,-267 648,-267 648,-226 847,-226 847,-267"/>
<text text-anchor="start" x="656" y="-255" font-family="Helvetica,sans-Serif" font-size="10.00">iii_drone::control</text>
<text text-anchor="start" x="656" y="-244" font-family="Helvetica,sans-Serif" font-size="10.00">::maneuver::ManeuverScheduler</text>
<text text-anchor="middle" x="747.5" y="-233" font-family="Helvetica,sans-Serif" font-size="10.00">Parameters::no_maneuver_idle_cnt_s</text>
</a>
</g>
</g>
<!-- Node7&#45;&gt;Node24 -->
<g id="edge25_Node000007_Node000024" class="edge">
<title>Node7&#45;&gt;Node24</title>
<g id="a_edge25_Node000007_Node000024"><a xlink:title=" ">
<path fill="none" stroke="#63b8ff" d="M528.54,-535.82C537.21,-484.19 566.93,-348.62 648,-276.5 649.5,-275.16 651.06,-273.89 652.67,-272.67"/>
<polygon fill="#63b8ff" stroke="#63b8ff" points="654.74,-275.49 661.11,-267.03 650.85,-269.67 654.74,-275.49"/>
</a>
</g>
</g>
<!-- Node25 -->
<g id="Node000025" class="node">
<title>Node25</title>
<g id="a_Node000025"><a xlink:href="classiii__drone_1_1control_1_1maneuver_1_1ManeuverQueue.html#aace2908f0d1cd5365227ef5ac313d95d" target="_top" xlink:title="Pops an item from the queue.">
<polygon fill="white" stroke="#666666" points="838.5,-148.5 656.5,-148.5 656.5,-118.5 838.5,-118.5 838.5,-148.5"/>
<text text-anchor="start" x="664.5" y="-136.5" font-family="Helvetica,sans-Serif" font-size="10.00">iii_drone::control</text>
<text text-anchor="middle" x="747.5" y="-125.5" font-family="Helvetica,sans-Serif" font-size="10.00">::maneuver::ManeuverQueue::Pop</text>
</a>
</g>
</g>
<!-- Node7&#45;&gt;Node25 -->
<g id="edge26_Node000007_Node000025" class="edge">
<title>Node7&#45;&gt;Node25</title>
<g id="a_edge26_Node000007_Node000025"><a xlink:title=" ">
<path fill="none" stroke="#63b8ff" d="M533.29,-535.7C549.25,-492.72 586.3,-390.78 612,-303.5 630.76,-239.8 601.17,-205.57 648,-158.5 649.45,-157.05 650.96,-155.67 652.55,-154.38"/>
<polygon fill="#63b8ff" stroke="#63b8ff" points="654.74,-157.11 660.92,-148.5 650.72,-151.38 654.74,-157.11"/>
</a>
</g>
</g>
<!-- Node26 -->
<g id="Node000026" class="node">
<title>Node26</title>
<g id="a_Node000026"><a xlink:href="classiii__drone_1_1control_1_1maneuver_1_1Maneuver.html#a326847216fc83f70e8e2e14c4d766df0" target="_top" xlink:title="Triggers the maneuver to start by calling the underlying execute function on the goal handle.">
<polygon fill="white" stroke="#666666" points="811,-661 684,-661 684,-620 811,-620 811,-661"/>
<text text-anchor="start" x="692" y="-649" font-family="Helvetica,sans-Serif" font-size="10.00">iii_drone::control</text>
<text text-anchor="start" x="692" y="-638" font-family="Helvetica,sans-Serif" font-size="10.00">::maneuver::Maneuver</text>
<text text-anchor="middle" x="747.5" y="-627" font-family="Helvetica,sans-Serif" font-size="10.00">::Start</text>
</a>
</g>
</g>
<!-- Node7&#45;&gt;Node26 -->
<g id="edge28_Node000007_Node000026" class="edge">
<title>Node7&#45;&gt;Node26</title>
<g id="a_edge28_Node000007_Node000026"><a xlink:title=" ">
<path fill="none" stroke="#63b8ff" d="M568.64,-577.03C591.87,-587.7 621.2,-600.55 648,-610.5 656.43,-613.63 665.35,-616.69 674.24,-619.58"/>
<polygon fill="#63b8ff" stroke="#63b8ff" points="673.27,-622.94 683.86,-622.65 675.4,-616.27 673.27,-622.94"/>
</a>
</g>
</g>
<!-- Node27 -->
<g id="Node000027" class="node">
<title>Node27</title>
<g id="a_Node000027"><a xlink:href="classiii__drone_1_1control_1_1maneuver_1_1Maneuver.html#a24304ffcd95c3bbdcd0395d7485820c5" target="_top" xlink:title="Start time getter.">
<polygon fill="white" stroke="#666666" points="811,-100 684,-100 684,-59 811,-59 811,-100"/>
<text text-anchor="start" x="692" y="-88" font-family="Helvetica,sans-Serif" font-size="10.00">iii_drone::control</text>
<text text-anchor="start" x="692" y="-77" font-family="Helvetica,sans-Serif" font-size="10.00">::maneuver::Maneuver</text>
<text text-anchor="middle" x="747.5" y="-66" font-family="Helvetica,sans-Serif" font-size="10.00">::start_time</text>
</a>
</g>
</g>
<!-- Node7&#45;&gt;Node27 -->
<g id="edge30_Node000007_Node000027" class="edge">
<title>Node7&#45;&gt;Node27</title>
<g id="a_edge30_Node000007_Node000027"><a xlink:title=" ">
<path fill="none" stroke="#63b8ff" d="M533.72,-535.82C550.48,-493.06 588.92,-391.51 612,-303.5 634.24,-218.67 589.56,-174.89 648,-109.5 655.2,-101.44 664.5,-95.51 674.5,-91.16"/>
<polygon fill="#63b8ff" stroke="#63b8ff" points="675.75,-94.43 683.85,-87.59 673.26,-87.89 675.75,-94.43"/>
</a>
</g>
</g>
<!-- Node28 -->
<g id="Node000028" class="node">
<title>Node28</title>
<g id="a_Node000028"><a xlink:href="classiii__drone_1_1control_1_1maneuver_1_1Maneuver.html#a8788992c198b7547518561a5ab184406" target="_top" xlink:title="Getter for the success flag.">
<polygon fill="white" stroke="#666666" points="811,-984 684,-984 684,-943 811,-943 811,-984"/>
<text text-anchor="start" x="692" y="-972" font-family="Helvetica,sans-Serif" font-size="10.00">iii_drone::control</text>
<text text-anchor="start" x="692" y="-961" font-family="Helvetica,sans-Serif" font-size="10.00">::maneuver::Maneuver</text>
<text text-anchor="middle" x="747.5" y="-950" font-family="Helvetica,sans-Serif" font-size="10.00">::success</text>
</a>
</g>
</g>
<!-- Node7&#45;&gt;Node28 -->
<g id="edge31_Node000007_Node000028" class="edge">
<title>Node7&#45;&gt;Node28</title>
<g id="a_edge31_Node000007_Node000028"><a xlink:title=" ">
<path fill="none" stroke="#63b8ff" d="M525.82,-577.12C527.96,-640.21 543.2,-832.5 648,-934.5 655.45,-941.76 664.63,-947.21 674.35,-951.31"/>
<polygon fill="#63b8ff" stroke="#63b8ff" points="673.21,-954.62 683.8,-954.83 675.66,-948.06 673.21,-954.62"/>
</a>
</g>
</g>
<!-- Node29 -->
<g id="Node000029" class="node">
<title>Node29</title>
<g id="a_Node000029"><a xlink:href="classiii__drone_1_1control_1_1maneuver_1_1Maneuver.html#a6e8c99e2bd771ee723136e06611b19ff" target="_top" xlink:title="Getter for the termianted flag.">
<polygon fill="white" stroke="#666666" points="811,-925 684,-925 684,-884 811,-884 811,-925"/>
<text text-anchor="start" x="692" y="-913" font-family="Helvetica,sans-Serif" font-size="10.00">iii_drone::control</text>
<text text-anchor="start" x="692" y="-902" font-family="Helvetica,sans-Serif" font-size="10.00">::maneuver::Maneuver</text>
<text text-anchor="middle" x="747.5" y="-891" font-family="Helvetica,sans-Serif" font-size="10.00">::terminated</text>
</a>
</g>
</g>
<!-- Node7&#45;&gt;Node29 -->
<g id="edge32_Node000007_Node000029" class="edge">
<title>Node7&#45;&gt;Node29</title>
<g id="a_edge32_Node000007_Node000029"><a xlink:title=" ">
<path fill="none" stroke="#63b8ff" d="M527.24,-577.11C533.12,-633.53 557.31,-791.82 648,-875.5 655.6,-882.51 664.8,-887.83 674.5,-891.87"/>
<polygon fill="#63b8ff" stroke="#63b8ff" points="673.32,-895.16 683.91,-895.36 675.76,-888.6 673.32,-895.16"/>
</a>
</g>
</g>
<!-- Node9 -->
<g id="Node000009" class="node">
<title>Node9</title>
<g id="a_Node000009"><a xlink:href="classiii__drone_1_1control_1_1maneuver_1_1ManeuverQueue.html#afc039e2eeb8e4587c1bdb1a61f664739" target="_top" xlink:title="Clears the queue.">
<polygon fill="white" stroke="#666666" points="1051.5,-866 893.5,-866 893.5,-825 1051.5,-825 1051.5,-866"/>
<text text-anchor="start" x="901.5" y="-854" font-family="Helvetica,sans-Serif" font-size="10.00">iii_drone::control</text>
<text text-anchor="start" x="901.5" y="-843" font-family="Helvetica,sans-Serif" font-size="10.00">::maneuver::ManeuverQueue</text>
<text text-anchor="middle" x="972.5" y="-832" font-family="Helvetica,sans-Serif" font-size="10.00">::Clear</text>
</a>
</g>
</g>
<!-- Node8&#45;&gt;Node9 -->
<g id="edge8_Node000008_Node000009" class="edge">
<title>Node8&#45;&gt;Node9</title>
<g id="a_edge8_Node000008_Node000009"><a xlink:title=" ">
<path fill="none" stroke="#63b8ff" d="M835.04,-845.5C850.8,-845.5 867.27,-845.5 883.09,-845.5"/>
<polygon fill="#63b8ff" stroke="#63b8ff" points="883.38,-849 893.38,-845.5 883.38,-842 883.38,-849"/>
</a>
</g>
</g>
<!-- Node12 -->
<g id="Node000012" class="node">
<title>Node12</title>
<g id="a_Node000012"><a xlink:href="classiii__drone_1_1utils_1_1Token.html#a057c789e1b27853924392e4a029d84b8" target="_top" xlink:title="Is master.">
<polygon fill="white" stroke="#666666" points="1217,-754.5 1098,-754.5 1098,-724.5 1217,-724.5 1217,-754.5"/>
<text text-anchor="start" x="1106" y="-742.5" font-family="Helvetica,sans-Serif" font-size="10.00">iii_drone::utils::Token</text>
<text text-anchor="middle" x="1157.5" y="-731.5" font-family="Helvetica,sans-Serif" font-size="10.00">::is_master</text>
</a>
</g>
</g>
<!-- Node11&#45;&gt;Node12 -->
<g id="edge11_Node000011_Node000012" class="edge">
<title>Node11&#45;&gt;Node12</title>
<g id="a_edge11_Node000011_Node000012"><a xlink:title=" ">
<path fill="none" stroke="#63b8ff" d="M1032.16,-739.5C1049.89,-739.5 1069.51,-739.5 1087.84,-739.5"/>
<polygon fill="#63b8ff" stroke="#63b8ff" points="1087.86,-743 1097.86,-739.5 1087.86,-736 1087.86,-743"/>
</a>
</g>
</g>
<!-- Node14 -->
<g id="Node000014" class="node">
<title>Node14</title>
<g id="a_Node000014"><a xlink:href="classiii__drone_1_1utils_1_1Token.html#ac7a559ecadf3304f332d4ad32422ab34" target="_top" xlink:title="Answers a slave acquisition request.">
<polygon fill="white" stroke="#666666" points="1062,-706.5 883,-706.5 883,-676.5 1062,-676.5 1062,-706.5"/>
<text text-anchor="start" x="891" y="-694.5" font-family="Helvetica,sans-Serif" font-size="10.00">iii_drone::utils::Token</text>
<text text-anchor="middle" x="972.5" y="-683.5" font-family="Helvetica,sans-Serif" font-size="10.00">::answerSlaveAcquisitionRequest</text>
</a>
</g>
</g>
<!-- Node13&#45;&gt;Node14 -->
<g id="edge13_Node000013_Node000014" class="edge">
<title>Node13&#45;&gt;Node14</title>
<g id="a_edge13_Node000013_Node000014"><a xlink:title=" ">
<path fill="none" stroke="#63b8ff" d="M807.09,-693.71C827.12,-693.44 850.12,-693.13 872.44,-692.83"/>
<polygon fill="#63b8ff" stroke="#63b8ff" points="872.69,-696.33 882.64,-692.7 872.59,-689.33 872.69,-696.33"/>
</a>
</g>
</g>
<!-- Node14&#45;&gt;Node12 -->
<g id="edge15_Node000014_Node000012" class="edge">
<title>Node14&#45;&gt;Node12</title>
<g id="a_edge15_Node000014_Node000012"><a xlink:title=" ">
<path fill="none" stroke="#63b8ff" d="M1030.9,-706.56C1049.47,-711.43 1070.22,-716.87 1089.42,-721.91"/>
<polygon fill="#63b8ff" stroke="#63b8ff" points="1088.74,-725.35 1099.3,-724.5 1090.52,-718.57 1088.74,-725.35"/>
</a>
</g>
</g>
<!-- Node15 -->
<g id="Node000015" class="node">
<title>Node15</title>
<g id="a_Node000015"><a xlink:href="classiii__drone_1_1utils_1_1Token.html#af0160e7c7f1f4c358ce903f3490c1026" target="_top" xlink:title="Whether the token is held by the calling thread.">
<polygon fill="white" stroke="#666666" points="1217,-706.5 1098,-706.5 1098,-676.5 1217,-676.5 1217,-706.5"/>
<text text-anchor="start" x="1106" y="-694.5" font-family="Helvetica,sans-Serif" font-size="10.00">iii_drone::utils::Token</text>
<text text-anchor="middle" x="1157.5" y="-683.5" font-family="Helvetica,sans-Serif" font-size="10.00">::has_token</text>
</a>
</g>
</g>
<!-- Node14&#45;&gt;Node15 -->
<g id="edge14_Node000014_Node000015" class="edge">
<title>Node14&#45;&gt;Node15</title>
<g id="a_edge14_Node000014_Node000015"><a xlink:title=" ">
<path fill="none" stroke="#63b8ff" d="M1062.05,-691.5C1070.68,-691.5 1079.34,-691.5 1087.73,-691.5"/>
<polygon fill="#63b8ff" stroke="#63b8ff" points="1087.81,-695 1097.81,-691.5 1087.81,-688 1087.81,-695"/>
</a>
</g>
</g>
<!-- Node22 -->
<g id="Node000022" class="node">
<title>Node22</title>
<g id="a_Node000022"><a xlink:href="classiii__drone_1_1control_1_1maneuver_1_1ManeuverQueue.html#a6ba6788f60421f28a651fcefadf2361d" target="_top" xlink:title="Whether the queue is empty.">
<polygon fill="white" stroke="#666666" points="1051.5,-181 893.5,-181 893.5,-140 1051.5,-140 1051.5,-181"/>
<text text-anchor="start" x="901.5" y="-169" font-family="Helvetica,sans-Serif" font-size="10.00">iii_drone::control</text>
<text text-anchor="start" x="901.5" y="-158" font-family="Helvetica,sans-Serif" font-size="10.00">::maneuver::ManeuverQueue</text>
<text text-anchor="middle" x="972.5" y="-147" font-family="Helvetica,sans-Serif" font-size="10.00">::empty</text>
</a>
</g>
</g>
<!-- Node21&#45;&gt;Node22 -->
<g id="edge23_Node000021_Node000022" class="edge">
<title>Node21&#45;&gt;Node22</title>
<g id="a_edge23_Node000021_Node000022"><a xlink:title=" ">
<path fill="none" stroke="#63b8ff" d="M836.64,-176.83C852.02,-174.97 868.02,-173.03 883.39,-171.17"/>
<polygon fill="#63b8ff" stroke="#63b8ff" points="883.89,-174.63 893.4,-169.96 883.05,-167.68 883.89,-174.63"/>
</a>
</g>
</g>
<!-- Node25&#45;&gt;Node22 -->
<g id="edge27_Node000025_Node000022" class="edge">
<title>Node25&#45;&gt;Node22</title>
<g id="a_edge27_Node000025_Node000022"><a xlink:title=" ">
<path fill="none" stroke="#63b8ff" d="M838.56,-144.4C853.29,-146.19 868.54,-148.03 883.23,-149.81"/>
<polygon fill="#63b8ff" stroke="#63b8ff" points="882.95,-153.3 893.3,-151.03 883.79,-146.35 882.95,-153.3"/>
</a>
</g>
</g>
<!-- Node26&#45;&gt;Node16 -->
<g id="edge29_Node000026_Node000016" class="edge">
<title>Node26&#45;&gt;Node16</title>
<g id="a_edge29_Node000026_Node000016"><a xlink:title=" ">
<path fill="none" stroke="#63b8ff" d="M811.07,-626.3C823.43,-622.17 835.98,-616.98 847,-610.5 887.81,-586.52 925.58,-546.55 948.58,-519.39"/>
<polygon fill="#63b8ff" stroke="#63b8ff" points="951.52,-521.33 955.22,-511.4 946.14,-516.85 951.52,-521.33"/>
</a>
</g>
</g>
</g>
</svg>

<g id="navigator" transform="translate(0 0)" fill="#404254">
  <rect fill="#f2f5e9" fill-opacity="0.5" stroke="#606060" stroke-width=".5" x="0" y="0" width="60" height="60"/>
  <use id="zoomplus" xlink:href="#zoomPlus" x="17" y="9" onmousedown="handleZoom(evt,'in')"/>
  <use id="zoomminus" xlink:href="#zoomMin" x="42" y="9" onmousedown="handleZoom(evt,'out')"/>
  <use id="reset" xlink:href="#resetDef" x="30" y="36" onmousedown="handleReset()"/>
   <use id="arrowup" xlink:href="#arrowUp" x="0" y="0" onmousedown="handlePan(0,-1)"/>
  <use id="arrowright" xlink:href="#arrowRight" x="0" y="0" onmousedown="handlePan(1,0)"/>
  <use id="arrowdown" xlink:href="#arrowDown" x="0" y="0" onmousedown="handlePan(0,1)"/>
  <use id="arrowleft" xlink:href="#arrowLeft" x="0" y="0" onmousedown="handlePan(-1,0)"/>
</g>
<svg viewBox="0 0 15 15" width="100%" height="30px" preserveAspectRatio="xMaxYMin meet">
 <g id="arrow_out" transform="scale(0.3 0.3)">
  <a xlink:href="classiii__drone_1_1control_1_1maneuver_1_1ManeuverScheduler_ab930f227bbd30171806a49ab06c4e3b8_cgraph_org.svg" target="_base">
   <rect id="button" ry="5" rx="5" y="6" x="6" height="38" width="38"
        fill="#f2f5e9" fill-opacity="0.5" stroke="#606060" stroke-width="1.0"/>
   <path id="arrow"
     d="M 11.500037,31.436501 C 11.940474,20.09759 22.043105,11.32322 32.158766,21.979434 L 37.068811,17.246167 C 37.068811,17.246167 37.088388,32 37.088388,32 L 22.160133,31.978069 C 22.160133,31.978069 26.997745,27.140456 26.997745,27.140456 C 18.528582,18.264221 13.291696,25.230495 11.500037,31.436501 z"
     style="fill:#404040;"/>
  </a>
 </g>
</svg>

<style type='text/css'>
<![CDATA[
[data-mouse-over-selected='false'] { opacity: 0.7; }
[data-mouse-over-selected='true']  { opacity: 1.0; }
]]>
</style>
<script type="application/ecmascript"><![CDATA[
document.addEventListener('DOMContentLoaded', (event) => {
  highlightEdges();
  highlightAdjacentNodes();
});
]]></script>
</svg>
