<?xml version="1.0" encoding="UTF-8" standalone="no"?>
<!DOCTYPE svg PUBLIC "-//W3C//DTD SVG 1.1//EN"
 "http://www.w3.org/Graphics/SVG/1.1/DTD/svg11.dtd">
<!-- Generated by graphviz version 2.43.0 (0)
 -->
<!-- Title: iii_drone::control::State::angular_velocity Pages: 1 -->
<!--zoomable 194 -->

<svg id="main" version="1.1" xmlns="http://www.w3.org/2000/svg" xmlns:xlink="http://www.w3.org/1999/xlink" xml:space="preserve" onload="init(evt)">
<style type="text/css"><![CDATA[
.node, .edge {opacity: 0.7;}
.node.selected, .edge.selected {opacity: 1;}
.edge:hover path { stroke: red; }
.edge:hover polygon { stroke: red; fill: red; }
]]></style>

<defs>
  <circle id="rim" cx="0" cy="0" r="7"/>
  <circle id="rim2" cx="0" cy="0" r="3.5"/>
  <g id="zoomPlus">
    <use xlink:href="#rim" fill="#404040"><set attributeName="fill" to="#808080" begin="zoomplus.mouseover" end="zoomplus.mouseout"/></use>
    <path d="M-4,0h8M0,-4v8" fill="none" stroke="white" stroke-width="1.5" pointer-events="none"/>
  </g>
  <g id="zoomMin">
    <use xlink:href="#rim" fill="#404040"><set attributeName="fill" to="#808080" begin="zoomminus.mouseover" end="zoomminus.mouseout"/></use>
    <path d="M-4,0h8" fill="none" stroke="white" stroke-width="1.5" pointer-events="none"/>
  </g>
  <g id="arrowUp" transform="translate(30 24)">
    <use xlink:href="#rim"/>
    <path pointer-events="none" fill="none" stroke="white" stroke-width="1.5" d="M0,-3.0v7 M-2.5,-0.5L0,-3.0L2.5,-0.5"/>
  </g>
  <g id="arrowRight" transform="rotate(90) translate(36 -43)">
    <use xlink:href="#rim"/>
    <path pointer-events="none" fill="none" stroke="white" stroke-width="1.5" d="M0,-3.0v7 M-2.5,-0.5L0,-3.0L2.5,-0.5"/>
  </g>
  <g id="arrowDown" transform="rotate(180) translate(-30 -48)">
    <use xlink:href="#rim"/>
    <path pointer-events="none" fill="none" stroke="white" stroke-width="1.5" d="M0,-3.0v7 M-2.5,-0.5L0,-3.0L2.5,-0.5"/>
  </g>
  <g id="arrowLeft" transform="rotate(270) translate(-36 17)">
    <use xlink:href="#rim"/>
    <path pointer-events="none" fill="none" stroke="white" stroke-width="1.5" d="M0,-3.0v7 M-2.5,-0.5L0,-3.0L2.5,-0.5"/>
  </g>
  <g id="resetDef">
    <use xlink:href="#rim2" fill="#404040"><set attributeName="fill" to="#808080" begin="reset.mouseover" end="reset.mouseout"/></use>
  </g>
</defs>
<script type="application/ecmascript">
var viewWidth = 1051;
var viewHeight = 194;
var sectionId = 'dynsection-3';
</script>
<script type="application/ecmascript" xlink:href="svg.min.js"/>
<svg id="graph" class="graph">
<g id="viewport">
<title>iii_drone::control::State::angular_velocity</title>
<!-- Node1 -->
<g id="Node000001" class="node">
<title>Node1</title>
<g id="a_Node000001"><a xlink:title=" ">
<polygon fill="#999999" stroke="#666666" points="1043,-113.5 908,-113.5 908,-83.5 1043,-83.5 1043,-113.5"/>
<text text-anchor="start" x="916" y="-101.5" font-family="Helvetica,sans-Serif" font-size="10.00">iii_drone::control</text>
<text text-anchor="middle" x="975.5" y="-90.5" font-family="Helvetica,sans-Serif" font-size="10.00">::State::angular_velocity</text>
</a>
</g>
</g>
<!-- Node2 -->
<g id="Node000002" class="node">
<title>Node2</title>
<g id="a_Node000002"><a xlink:href="classiii__drone_1_1control_1_1State.html#ab56f9d033f57c3815174bf4106b31ac5" target="_top" xlink:title=" ">
<polygon fill="white" stroke="#666666" points="834.5,-185.5 736.5,-185.5 736.5,-155.5 834.5,-155.5 834.5,-185.5"/>
<text text-anchor="start" x="744.5" y="-173.5" font-family="Helvetica,sans-Serif" font-size="10.00">iii_drone::control</text>
<text text-anchor="middle" x="785.5" y="-162.5" font-family="Helvetica,sans-Serif" font-size="10.00">::State::State</text>
</a>
</g>
</g>
<!-- Node1&#45;&gt;Node2 -->
<g id="edge1_Node000001_Node000002" class="edge">
<title>Node1&#45;&gt;Node2</title>
<g id="a_edge1_Node000001_Node000002"><a xlink:title=" ">
<path fill="none" stroke="#63b8ff" d="M936.49,-118.12C917.45,-127.48 893.84,-138.38 872,-146.5 860.15,-150.9 847.12,-154.95 834.88,-158.41"/>
<polygon fill="#63b8ff" stroke="#63b8ff" points="938.05,-121.26 945.44,-113.67 934.93,-114.99 938.05,-121.26"/>
</a>
</g>
</g>
<!-- Node3 -->
<g id="Node000003" class="node">
<title>Node3</title>
<g id="a_Node000003"><a xlink:href="classiii__drone_1_1control_1_1State.html#af1d4e966cfd9ac0912c8823e627c4b07" target="_top" xlink:title=" ">
<polygon fill="white" stroke="#666666" points="834.5,-137.5 736.5,-137.5 736.5,-107.5 834.5,-107.5 834.5,-137.5"/>
<text text-anchor="start" x="744.5" y="-125.5" font-family="Helvetica,sans-Serif" font-size="10.00">iii_drone::control</text>
<text text-anchor="middle" x="785.5" y="-114.5" font-family="Helvetica,sans-Serif" font-size="10.00">::State::State</text>
</a>
</g>
</g>
<!-- Node1&#45;&gt;Node3 -->
<g id="edge2_Node000001_Node000003" class="edge">
<title>Node1&#45;&gt;Node3</title>
<g id="a_edge2_Node000001_Node000003"><a xlink:title=" ">
<path fill="none" stroke="#63b8ff" d="M897.9,-108.28C876.51,-111.01 853.87,-113.9 834.63,-116.36"/>
<polygon fill="#63b8ff" stroke="#63b8ff" points="898.48,-111.73 907.95,-107 897.59,-104.79 898.48,-111.73"/>
</a>
</g>
</g>
<!-- Node4 -->
<g id="Node000004" class="node">
<title>Node4</title>
<g id="a_Node000004"><a xlink:href="classiii__drone_1_1adapters_1_1StateAdapter.html#aa660f72a3e258818e71a888cfa6cd766" target="_top" xlink:title="Converts to msg.">
<polygon fill="white" stroke="#666666" points="847,-89.5 724,-89.5 724,-59.5 847,-59.5 847,-89.5"/>
<text text-anchor="start" x="732" y="-77.5" font-family="Helvetica,sans-Serif" font-size="10.00">iii_drone::adapters</text>
<text text-anchor="middle" x="785.5" y="-66.5" font-family="Helvetica,sans-Serif" font-size="10.00">::StateAdapter::ToMsg</text>
</a>
</g>
</g>
<!-- Node1&#45;&gt;Node4 -->
<g id="edge3_Node000001_Node000004" class="edge">
<title>Node1&#45;&gt;Node4</title>
<g id="a_edge3_Node000001_Node000004"><a xlink:title=" ">
<path fill="none" stroke="#63b8ff" d="M897.63,-88.69C880.87,-86.55 863.35,-84.31 847.31,-82.26"/>
<polygon fill="#63b8ff" stroke="#63b8ff" points="897.59,-92.21 907.95,-90 898.48,-85.27 897.59,-92.21"/>
</a>
</g>
</g>
<!-- Node9 -->
<g id="Node000009" class="node">
<title>Node9</title>
<g id="a_Node000009"><a xlink:href="classiii__drone_1_1adapters_1_1px4_1_1TrajectorySetpointAdapter.html#a40190ec04a78561669213dc2ceba176a" target="_top" xlink:title="Constructor from iii_drone::control::State.">
<polygon fill="white" stroke="#666666" points="872,-41 699,-41 699,0 872,0 872,-41"/>
<text text-anchor="start" x="707" y="-29" font-family="Helvetica,sans-Serif" font-size="10.00">iii_drone::adapters</text>
<text text-anchor="start" x="707" y="-18" font-family="Helvetica,sans-Serif" font-size="10.00">::px4::TrajectorySetpointAdapter</text>
<text text-anchor="middle" x="785.5" y="-7" font-family="Helvetica,sans-Serif" font-size="10.00">::TrajectorySetpointAdapter</text>
</a>
</g>
</g>
<!-- Node1&#45;&gt;Node9 -->
<g id="edge10_Node000001_Node000009" class="edge">
<title>Node1&#45;&gt;Node9</title>
<g id="a_edge10_Node000001_Node000009"><a xlink:title=" ">
<path fill="none" stroke="#63b8ff" d="M935.16,-78.95C916.26,-69.84 893.16,-59.14 872,-50.5 864.14,-47.29 855.78,-44.1 847.5,-41.06"/>
<polygon fill="#63b8ff" stroke="#63b8ff" points="933.83,-82.19 944.36,-83.41 936.89,-75.89 933.83,-82.19"/>
</a>
</g>
</g>
<!-- Node5 -->
<g id="Node000005" class="node">
<title>Node5</title>
<g id="a_Node000005"><a xlink:href="classiii__drone_1_1control_1_1TrajectoryGeneratorClient.html#a2b3ee03aed559d8c1ea8d052336d25ff" target="_top" xlink:title="Starts generating a trajectory.">
<polygon fill="white" stroke="#666666" points="663,-95 469,-95 469,-54 663,-54 663,-95"/>
<text text-anchor="start" x="477" y="-83" font-family="Helvetica,sans-Serif" font-size="10.00">iii_drone::control</text>
<text text-anchor="start" x="477" y="-72" font-family="Helvetica,sans-Serif" font-size="10.00">::TrajectoryGeneratorClient</text>
<text text-anchor="middle" x="566" y="-61" font-family="Helvetica,sans-Serif" font-size="10.00">::ComputeReferenceTrajectoryAsync</text>
</a>
</g>
</g>
<!-- Node4&#45;&gt;Node5 -->
<g id="edge4_Node000004_Node000005" class="edge">
<title>Node4&#45;&gt;Node5</title>
<g id="a_edge4_Node000004_Node000005"><a xlink:title=" ">
<path fill="none" stroke="#63b8ff" d="M713.53,-74.5C697.43,-74.5 680.07,-74.5 663.13,-74.5"/>
<polygon fill="#63b8ff" stroke="#63b8ff" points="713.91,-78 723.91,-74.5 713.91,-71 713.91,-78"/>
</a>
</g>
</g>
<!-- Node6 -->
<g id="Node000006" class="node">
<title>Node6</title>
<g id="a_Node000006"><a xlink:href="classiii__drone_1_1control_1_1maneuver_1_1FlyToObjectManeuverServer.html#a2ace3412e0d42d07a39c553c89ab0c6a" target="_top" xlink:title="Compute the reference.">
<polygon fill="white" stroke="#666666" points="187.5,-134 3.5,-134 3.5,-93 187.5,-93 187.5,-134"/>
<text text-anchor="start" x="11.5" y="-122" font-family="Helvetica,sans-Serif" font-size="10.00">iii_drone::control</text>
<text text-anchor="start" x="11.5" y="-111" font-family="Helvetica,sans-Serif" font-size="10.00">::maneuver::FlyToObjectManeuver</text>
<text text-anchor="middle" x="95.5" y="-100" font-family="Helvetica,sans-Serif" font-size="10.00">Server::computeReference</text>
</a>
</g>
</g>
<!-- Node5&#45;&gt;Node6 -->
<g id="edge5_Node000005_Node000006" class="edge">
<title>Node5&#45;&gt;Node6</title>
<g id="a_edge5_Node000005_Node000006"><a xlink:title=" ">
<path fill="none" stroke="#63b8ff" d="M476.34,-97.16C461.93,-100.11 447.11,-102.72 433,-104.5 350.37,-114.89 255.47,-116.5 187.56,-115.89"/>
<polygon fill="#63b8ff" stroke="#63b8ff" points="477.17,-100.56 486.23,-95.06 475.72,-93.71 477.17,-100.56"/>
</a>
</g>
</g>
<!-- Node7 -->
<g id="Node000007" class="node">
<title>Node7</title>
<g id="a_Node000007"><a xlink:href="classiii__drone_1_1control_1_1maneuver_1_1FlyToPositionManeuverServer.html#ac13004e478653d73361c3569e11870dc" target="_top" xlink:title="Compute the reference.">
<polygon fill="white" stroke="#666666" points="191,-65 0,-65 0,-24 191,-24 191,-65"/>
<text text-anchor="start" x="8" y="-53" font-family="Helvetica,sans-Serif" font-size="10.00">iii_drone::control</text>
<text text-anchor="start" x="8" y="-42" font-family="Helvetica,sans-Serif" font-size="10.00">::maneuver::FlyToPositionManeuver</text>
<text text-anchor="middle" x="95.5" y="-31" font-family="Helvetica,sans-Serif" font-size="10.00">Server::computeReference</text>
</a>
</g>
</g>
<!-- Node5&#45;&gt;Node7 -->
<g id="edge6_Node000005_Node000007" class="edge">
<title>Node5&#45;&gt;Node7</title>
<g id="a_edge6_Node000005_Node000007"><a xlink:title=" ">
<path fill="none" stroke="#63b8ff" d="M477.82,-51.81C462.96,-48.77 447.61,-46.14 433,-44.5 351.72,-35.38 258.7,-36.24 191.09,-38.88"/>
<polygon fill="#63b8ff" stroke="#63b8ff" points="477.51,-55.32 488.02,-53.97 478.96,-48.47 477.51,-55.32"/>
</a>
</g>
</g>
<!-- Node8 -->
<g id="Node000008" class="node">
<title>Node8</title>
<g id="a_Node000008"><a xlink:href="classiii__drone_1_1control_1_1TrajectoryGeneratorClient.html#a0e32180d729e74d24edeef891d1ac843" target="_top" xlink:title="Generates a trajectory and blocks until it is done.">
<polygon fill="white" stroke="#666666" points="433,-95 227,-95 227,-54 433,-54 433,-95"/>
<text text-anchor="start" x="235" y="-83" font-family="Helvetica,sans-Serif" font-size="10.00">iii_drone::control</text>
<text text-anchor="start" x="235" y="-72" font-family="Helvetica,sans-Serif" font-size="10.00">::TrajectoryGeneratorClient</text>
<text text-anchor="middle" x="330" y="-61" font-family="Helvetica,sans-Serif" font-size="10.00">::ComputeReferenceTrajectoryBlocking</text>
</a>
</g>
</g>
<!-- Node5&#45;&gt;Node8 -->
<g id="edge7_Node000005_Node000008" class="edge">
<title>Node5&#45;&gt;Node8</title>
<g id="a_edge7_Node000005_Node000008"><a xlink:title=" ">
<path fill="none" stroke="#63b8ff" d="M458.58,-74.5C450.16,-74.5 441.66,-74.5 433.27,-74.5"/>
<polygon fill="#63b8ff" stroke="#63b8ff" points="458.81,-78 468.81,-74.5 458.81,-71 458.81,-78"/>
</a>
</g>
</g>
<!-- Node8&#45;&gt;Node6 -->
<g id="edge8_Node000008_Node000006" class="edge">
<title>Node8&#45;&gt;Node6</title>
<g id="a_edge8_Node000008_Node000006"><a xlink:title=" ">
<path fill="none" stroke="#63b8ff" d="M216.57,-93.36C206.83,-94.99 197.06,-96.63 187.53,-98.23"/>
<polygon fill="#63b8ff" stroke="#63b8ff" points="217.4,-96.77 226.68,-91.66 216.24,-89.87 217.4,-96.77"/>
</a>
</g>
</g>
<!-- Node8&#45;&gt;Node7 -->
<g id="edge9_Node000008_Node000007" class="edge">
<title>Node8&#45;&gt;Node7</title>
<g id="a_edge9_Node000008_Node000007"><a xlink:title=" ">
<path fill="none" stroke="#63b8ff" d="M216.68,-60.01C208.13,-58.9 199.56,-57.8 191.14,-56.71"/>
<polygon fill="#63b8ff" stroke="#63b8ff" points="216.32,-63.49 226.68,-61.3 217.21,-56.55 216.32,-63.49"/>
</a>
</g>
</g>
</g>
</svg>

<g id="navigator" transform="translate(0 0)" fill="#404254">
  <rect fill="#f2f5e9" fill-opacity="0.5" stroke="#606060" stroke-width=".5" x="0" y="0" width="60" height="60"/>
  <use id="zoomplus" xlink:href="#zoomPlus" x="17" y="9" onmousedown="handleZoom(evt,'in')"/>
  <use id="zoomminus" xlink:href="#zoomMin" x="42" y="9" onmousedown="handleZoom(evt,'out')"/>
  <use id="reset" xlink:href="#resetDef" x="30" y="36" onmousedown="handleReset()"/>
   <use id="arrowup" xlink:href="#arrowUp" x="0" y="0" onmousedown="handlePan(0,-1)"/>
  <use id="arrowright" xlink:href="#arrowRight" x="0" y="0" onmousedown="handlePan(1,0)"/>
  <use id="arrowdown" xlink:href="#arrowDown" x="0" y="0" onmousedown="handlePan(0,1)"/>
  <use id="arrowleft" xlink:href="#arrowLeft" x="0" y="0" onmousedown="handlePan(-1,0)"/>
</g>
<svg viewBox="0 0 15 15" width="100%" height="30px" preserveAspectRatio="xMaxYMin meet">
 <g id="arrow_out" transform="scale(0.3 0.3)">
  <a xlink:href="classiii__drone_1_1control_1_1State_a205d6a8a2d57434cb7ea7c257c6647f6_icgraph_org.svg" target="_base">
   <rect id="button" ry="5" rx="5" y="6" x="6" height="38" width="38"
        fill="#f2f5e9" fill-opacity="0.5" stroke="#606060" stroke-width="1.0"/>
   <path id="arrow"
     d="M 11.500037,31.436501 C 11.940474,20.09759 22.043105,11.32322 32.158766,21.979434 L 37.068811,17.246167 C 37.068811,17.246167 37.088388,32 37.088388,32 L 22.160133,31.978069 C 22.160133,31.978069 26.997745,27.140456 26.997745,27.140456 C 18.528582,18.264221 13.291696,25.230495 11.500037,31.436501 z"
     style="fill:#404040;"/>
  </a>
 </g>
</svg>

<style type='text/css'>
<![CDATA[
[data-mouse-over-selected='false'] { opacity: 0.7; }
[data-mouse-over-selected='true']  { opacity: 1.0; }
]]>
</style>
<script type="application/ecmascript"><![CDATA[
document.addEventListener('DOMContentLoaded', (event) => {
  highlightEdges();
  highlightAdjacentNodes();
});
]]></script>
</svg>
