<?xml version="1.0" encoding="UTF-8" standalone="no"?>
<!DOCTYPE svg PUBLIC "-//W3C//DTD SVG 1.1//EN"
 "http://www.w3.org/Graphics/SVG/1.1/DTD/svg11.dtd">
<!-- Generated by graphviz version 2.43.0 (0)
 -->
<!-- Title: iii_drone::control::maneuver::ManeuverScheduler::maneuverIsExecutingOrPending Pages: 1 -->
<svg width="1254pt" height="114pt"
 viewBox="0.00 0.00 1254.00 113.50" xmlns="http://www.w3.org/2000/svg" xmlns:xlink="http://www.w3.org/1999/xlink">
<g id="graph0" class="graph" transform="scale(1 1) rotate(0) translate(4 109.5)">
<title>iii_drone::control::maneuver::ManeuverScheduler::maneuverIsExecutingOrPending</title>
<!-- Node1 -->
<g id="Node000001" class="node">
<title>Node1</title>
<g id="a_Node000001"><a xlink:title="Get whether a maneuver is being executed or pending.">
<polygon fill="#999999" stroke="#666666" points="1246,-70 1068,-70 1068,-29 1246,-29 1246,-70"/>
<text text-anchor="start" x="1076" y="-58" font-family="Helvetica,sans-Serif" font-size="10.00">iii_drone::control</text>
<text text-anchor="start" x="1076" y="-47" font-family="Helvetica,sans-Serif" font-size="10.00">::maneuver::ManeuverScheduler</text>
<text text-anchor="middle" x="1157" y="-36" font-family="Helvetica,sans-Serif" font-size="10.00">::maneuverIsExecutingOrPending</text>
</a>
</g>
</g>
<!-- Node2 -->
<g id="Node000002" class="node">
<title>Node2</title>
<g id="a_Node000002"><a xlink:href="classiii__drone_1_1control_1_1maneuver_1_1ManeuverScheduler.html#afff4234827a52c39b91b94ddda380a92" target="_top" xlink:title="Returns whether a given maneuver can immediately execute.">
<polygon fill="white" stroke="#666666" points="1032,-100 857,-100 857,-59 1032,-59 1032,-100"/>
<text text-anchor="start" x="865" y="-88" font-family="Helvetica,sans-Serif" font-size="10.00">iii_drone::control</text>
<text text-anchor="start" x="865" y="-77" font-family="Helvetica,sans-Serif" font-size="10.00">::maneuver::ManeuverScheduler</text>
<text text-anchor="middle" x="944.5" y="-66" font-family="Helvetica,sans-Serif" font-size="10.00">::CanExecute</text>
</a>
</g>
</g>
<!-- Node1&#45;&gt;Node2 -->
<g id="edge1_Node000001_Node000002" class="edge">
<title>Node1&#45;&gt;Node2</title>
<g id="a_edge1_Node000001_Node000002"><a xlink:title=" ">
<path fill="none" stroke="#63b8ff" d="M1057.91,-63.48C1049.32,-64.7 1040.67,-65.94 1032.19,-67.15"/>
<polygon fill="#63b8ff" stroke="#63b8ff" points="1058.54,-66.92 1067.95,-62.05 1057.55,-59.99 1058.54,-66.92"/>
</a>
</g>
</g>
<!-- Node7 -->
<g id="Node000007" class="node">
<title>Node7</title>
<g id="a_Node000007"><a xlink:href="classiii__drone_1_1control_1_1maneuver_1_1ManeuverScheduler.html#a99d218271b8aa908b0e179076f2ca733" target="_top" xlink:title="Progresses the scheduler. If a maneuver is executing, evaluates whether it has terminated....">
<polygon fill="white" stroke="#666666" points="1032,-41 857,-41 857,0 1032,0 1032,-41"/>
<text text-anchor="start" x="865" y="-29" font-family="Helvetica,sans-Serif" font-size="10.00">iii_drone::control</text>
<text text-anchor="start" x="865" y="-18" font-family="Helvetica,sans-Serif" font-size="10.00">::maneuver::ManeuverScheduler</text>
<text text-anchor="middle" x="944.5" y="-7" font-family="Helvetica,sans-Serif" font-size="10.00">::progressScheduler</text>
</a>
</g>
</g>
<!-- Node1&#45;&gt;Node7 -->
<g id="edge6_Node000001_Node000007" class="edge">
<title>Node1&#45;&gt;Node7</title>
<g id="a_edge6_Node000001_Node000007"><a xlink:title=" ">
<path fill="none" stroke="#63b8ff" d="M1057.91,-35.99C1049.32,-34.8 1040.67,-33.61 1032.19,-32.44"/>
<polygon fill="#63b8ff" stroke="#63b8ff" points="1057.56,-39.47 1067.95,-37.37 1058.52,-32.54 1057.56,-39.47"/>
</a>
</g>
</g>
<!-- Node3 -->
<g id="Node000003" class="node">
<title>Node3</title>
<g id="a_Node000003"><a xlink:href="classiii__drone_1_1control_1_1maneuver_1_1ManeuverScheduler.html#acaa8f0628522b25bdd0c63dde8ee24f0" target="_top" xlink:title="Registers a maneuver with the maneuver scheduler. To be called from a maneuver server....">
<polygon fill="white" stroke="#666666" points="813.5,-100 638.5,-100 638.5,-59 813.5,-59 813.5,-100"/>
<text text-anchor="start" x="646.5" y="-88" font-family="Helvetica,sans-Serif" font-size="10.00">iii_drone::control</text>
<text text-anchor="start" x="646.5" y="-77" font-family="Helvetica,sans-Serif" font-size="10.00">::maneuver::ManeuverScheduler</text>
<text text-anchor="middle" x="726" y="-66" font-family="Helvetica,sans-Serif" font-size="10.00">::RegisterManeuver</text>
</a>
</g>
</g>
<!-- Node2&#45;&gt;Node3 -->
<g id="edge2_Node000002_Node000003" class="edge">
<title>Node2&#45;&gt;Node3</title>
<g id="a_edge2_Node000002_Node000003"><a xlink:title=" ">
<path fill="none" stroke="#63b8ff" d="M846.36,-79.5C835.52,-79.5 824.53,-79.5 813.83,-79.5"/>
<polygon fill="#63b8ff" stroke="#63b8ff" points="846.69,-83 856.69,-79.5 846.69,-76 846.69,-83"/>
</a>
</g>
</g>
<!-- Node4 -->
<g id="Node000004" class="node">
<title>Node4</title>
<g id="a_Node000004"><a xlink:href="classiii__drone_1_1control_1_1maneuver_1_1ManeuverScheduler.html#ab393b4204a5c4368ee503e9af8b27a22" target="_top" xlink:title="Registers a maneuver type with a maneuver server.">
<polygon fill="white" stroke="#666666" points="595,-100 420,-100 420,-59 595,-59 595,-100"/>
<text text-anchor="start" x="428" y="-88" font-family="Helvetica,sans-Serif" font-size="10.00">iii_drone::control</text>
<text text-anchor="start" x="428" y="-77" font-family="Helvetica,sans-Serif" font-size="10.00">::maneuver::ManeuverScheduler</text>
<text text-anchor="middle" x="507.5" y="-66" font-family="Helvetica,sans-Serif" font-size="10.00">::RegisterManeuverServer</text>
</a>
</g>
</g>
<!-- Node3&#45;&gt;Node4 -->
<g id="edge3_Node000003_Node000004" class="edge">
<title>Node3&#45;&gt;Node4</title>
<g id="a_edge3_Node000003_Node000004"><a xlink:title=" ">
<path fill="none" stroke="#63b8ff" d="M627.86,-79.5C617.02,-79.5 606.03,-79.5 595.33,-79.5"/>
<polygon fill="#63b8ff" stroke="#63b8ff" points="628.19,-83 638.19,-79.5 628.19,-76 628.19,-83"/>
</a>
</g>
</g>
<!-- Node5 -->
<g id="Node000005" class="node">
<title>Node5</title>
<g id="a_Node000005"><a xlink:href="classiii__drone_1_1control_1_1maneuver__controller__node_1_1ManeuverControllerNode.html#a1c587895df3c61bd6b748e97942cd619" target="_top" xlink:title="Creates and registers all maneuver servers with the maneuver scheduler.">
<polygon fill="white" stroke="#666666" points="384,-105.5 210,-105.5 210,-53.5 384,-53.5 384,-105.5"/>
<text text-anchor="start" x="218" y="-93.5" font-family="Helvetica,sans-Serif" font-size="10.00">iii_drone::control</text>
<text text-anchor="start" x="218" y="-82.5" font-family="Helvetica,sans-Serif" font-size="10.00">::maneuver_controller</text>
<text text-anchor="start" x="218" y="-71.5" font-family="Helvetica,sans-Serif" font-size="10.00">_node::ManeuverControllerNode</text>
<text text-anchor="middle" x="297" y="-60.5" font-family="Helvetica,sans-Serif" font-size="10.00">::registerManeuverServers</text>
</a>
</g>
</g>
<!-- Node4&#45;&gt;Node5 -->
<g id="edge4_Node000004_Node000005" class="edge">
<title>Node4&#45;&gt;Node5</title>
<g id="a_edge4_Node000004_Node000005"><a xlink:title=" ">
<path fill="none" stroke="#63b8ff" d="M409.82,-79.5C401.21,-79.5 392.52,-79.5 384.01,-79.5"/>
<polygon fill="#63b8ff" stroke="#63b8ff" points="409.89,-83 419.89,-79.5 409.89,-76 409.89,-83"/>
</a>
</g>
</g>
<!-- Node6 -->
<g id="Node000006" class="node">
<title>Node6</title>
<g id="a_Node000006"><a xlink:href="classiii__drone_1_1control_1_1maneuver__controller__node_1_1ManeuverControllerNode.html#a291f0abf320443ed6ad4a248ba028b8c" target="_top" xlink:title="Constructor. Creates the node, initializes the configurator, the transform buffer and listener,...">
<polygon fill="white" stroke="#666666" points="174,-105.5 0,-105.5 0,-53.5 174,-53.5 174,-105.5"/>
<text text-anchor="start" x="8" y="-93.5" font-family="Helvetica,sans-Serif" font-size="10.00">iii_drone::control</text>
<text text-anchor="start" x="8" y="-82.5" font-family="Helvetica,sans-Serif" font-size="10.00">::maneuver_controller</text>
<text text-anchor="start" x="8" y="-71.5" font-family="Helvetica,sans-Serif" font-size="10.00">_node::ManeuverControllerNode</text>
<text text-anchor="middle" x="87" y="-60.5" font-family="Helvetica,sans-Serif" font-size="10.00">::ManeuverControllerNode</text>
</a>
</g>
</g>
<!-- Node5&#45;&gt;Node6 -->
<g id="edge5_Node000005_Node000006" class="edge">
<title>Node5&#45;&gt;Node6</title>
<g id="a_edge5_Node000005_Node000006"><a xlink:title=" ">
<path fill="none" stroke="#63b8ff" d="M199.84,-79.5C191.23,-79.5 182.55,-79.5 174.04,-79.5"/>
<polygon fill="#63b8ff" stroke="#63b8ff" points="199.9,-83 209.9,-79.5 199.9,-76 199.9,-83"/>
</a>
</g>
</g>
<!-- Node8 -->
<g id="Node000008" class="node">
<title>Node8</title>
<g id="a_Node000008"><a xlink:href="classiii__drone_1_1control_1_1maneuver_1_1ManeuverScheduler.html#a3f6d63fc07809f25313347856ffdcd78" target="_top" xlink:title="The maneuver execution timer callback.">
<polygon fill="white" stroke="#666666" points="821,-41 631,-41 631,0 821,0 821,-41"/>
<text text-anchor="start" x="639" y="-29" font-family="Helvetica,sans-Serif" font-size="10.00">iii_drone::control</text>
<text text-anchor="start" x="639" y="-18" font-family="Helvetica,sans-Serif" font-size="10.00">::maneuver::ManeuverScheduler</text>
<text text-anchor="middle" x="726" y="-7" font-family="Helvetica,sans-Serif" font-size="10.00">::maneuverExecutionTimerCallback</text>
</a>
</g>
</g>
<!-- Node7&#45;&gt;Node8 -->
<g id="edge7_Node000007_Node000008" class="edge">
<title>Node7&#45;&gt;Node8</title>
<g id="a_edge7_Node000007_Node000008"><a xlink:title=" ">
<path fill="none" stroke="#63b8ff" d="M846.52,-20.5C838.13,-20.5 829.65,-20.5 821.28,-20.5"/>
<polygon fill="#63b8ff" stroke="#63b8ff" points="846.69,-24 856.69,-20.5 846.69,-17 846.69,-24"/>
</a>
</g>
</g>
<!-- Node9 -->
<g id="Node000009" class="node">
<title>Node9</title>
<g id="a_Node000009"><a xlink:href="classiii__drone_1_1control_1_1maneuver_1_1ManeuverScheduler.html#ab930f227bbd30171806a49ab06c4e3b8" target="_top" xlink:title="Constructor.">
<polygon fill="white" stroke="#666666" points="595,-41 420,-41 420,0 595,0 595,-41"/>
<text text-anchor="start" x="428" y="-29" font-family="Helvetica,sans-Serif" font-size="10.00">iii_drone::control</text>
<text text-anchor="start" x="428" y="-18" font-family="Helvetica,sans-Serif" font-size="10.00">::maneuver::ManeuverScheduler</text>
<text text-anchor="middle" x="507.5" y="-7" font-family="Helvetica,sans-Serif" font-size="10.00">::ManeuverScheduler</text>
</a>
</g>
</g>
<!-- Node8&#45;&gt;Node9 -->
<g id="edge8_Node000008_Node000009" class="edge">
<title>Node8&#45;&gt;Node9</title>
<g id="a_edge8_Node000008_Node000009"><a xlink:title=" ">
<path fill="none" stroke="#63b8ff" d="M620.93,-20.5C612.34,-20.5 603.71,-20.5 595.27,-20.5"/>
<polygon fill="#63b8ff" stroke="#63b8ff" points="620.98,-24 630.98,-20.5 620.98,-17 620.98,-24"/>
</a>
</g>
</g>
</g>
</svg>
