<?xml version="1.0" encoding="UTF-8" standalone="no"?>
<!DOCTYPE svg PUBLIC "-//W3C//DTD SVG 1.1//EN"
 "http://www.w3.org/Graphics/SVG/1.1/DTD/svg11.dtd">
<!-- Generated by graphviz version 2.43.0 (0)
 -->
<!-- Title: iii_drone::utils::History::Store Pages: 1 -->
<svg width="1117pt" height="166pt"
 viewBox="0.00 0.00 1117.00 166.00" xmlns="http://www.w3.org/2000/svg" xmlns:xlink="http://www.w3.org/1999/xlink">
<g id="graph0" class="graph" transform="scale(1 1) rotate(0) translate(4 162)">
<title>iii_drone::utils::History::Store</title>
<!-- Node1 -->
<g id="Node000001" class="node">
<title>Node1</title>
<g id="a_Node000001"><a xlink:title="Store the latest value.">
<polygon fill="#999999" stroke="#666666" points="1109,-104 982,-104 982,-74 1109,-74 1109,-104"/>
<text text-anchor="start" x="990" y="-92" font-family="Helvetica,sans-Serif" font-size="10.00">iii_drone::utils::History</text>
<text text-anchor="middle" x="1045.5" y="-81" font-family="Helvetica,sans-Serif" font-size="10.00">::Store</text>
</a>
</g>
</g>
<!-- Node2 -->
<g id="Node000002" class="node">
<title>Node2</title>
<g id="a_Node000002"><a xlink:href="classiii__drone_1_1utils_1_1History.html#affc9e854e31d4e48d430d931fa3abecb" target="_top" xlink:title="Assignment operator, stores the value as the latest value in the history.">
<polygon fill="white" stroke="#666666" points="913,-158 786,-158 786,-128 913,-128 913,-158"/>
<text text-anchor="start" x="794" y="-146" font-family="Helvetica,sans-Serif" font-size="10.00">iii_drone::utils::History</text>
<text text-anchor="middle" x="849.5" y="-135" font-family="Helvetica,sans-Serif" font-size="10.00">::operator=</text>
</a>
</g>
</g>
<!-- Node1&#45;&gt;Node2 -->
<g id="edge1_Node000001_Node000002" class="edge">
<title>Node1&#45;&gt;Node2</title>
<g id="a_edge1_Node000001_Node000002"><a xlink:title=" ">
<path fill="none" stroke="#63b8ff" d="M986.96,-107.05C973.55,-111.11 959.31,-115.3 946,-119 935.13,-122.02 923.52,-125.08 912.26,-127.95"/>
<polygon fill="#63b8ff" stroke="#63b8ff" points="988,-110.39 996.54,-104.13 985.96,-103.69 988,-110.39"/>
</a>
</g>
</g>
<!-- Node3 -->
<g id="Node000003" class="node">
<title>Node3</title>
<g id="a_Node000003"><a xlink:href="classiii__drone_1_1control_1_1TrajectoryGeneratorClient.html#ab84fe87c3598334fb114e24d0cd64bf5" target="_top" xlink:title="Service result callback.">
<polygon fill="white" stroke="#666666" points="923.5,-109.5 775.5,-109.5 775.5,-68.5 923.5,-68.5 923.5,-109.5"/>
<text text-anchor="start" x="783.5" y="-97.5" font-family="Helvetica,sans-Serif" font-size="10.00">iii_drone::control</text>
<text text-anchor="start" x="783.5" y="-86.5" font-family="Helvetica,sans-Serif" font-size="10.00">::TrajectoryGeneratorClient</text>
<text text-anchor="middle" x="849.5" y="-75.5" font-family="Helvetica,sans-Serif" font-size="10.00">::serviceResultCallback</text>
</a>
</g>
</g>
<!-- Node1&#45;&gt;Node3 -->
<g id="edge2_Node000001_Node000003" class="edge">
<title>Node1&#45;&gt;Node3</title>
<g id="a_edge2_Node000001_Node000003"><a xlink:title=" ">
<path fill="none" stroke="#63b8ff" d="M971.65,-89C956.01,-89 939.47,-89 923.81,-89"/>
<polygon fill="#63b8ff" stroke="#63b8ff" points="971.78,-92.5 981.78,-89 971.78,-85.5 971.78,-92.5"/>
</a>
</g>
</g>
<!-- Node8 -->
<g id="Node000008" class="node">
<title>Node8</title>
<g id="a_Node000008"><a xlink:href="classiii__drone_1_1control_1_1CombinedDroneAwarenessHandler.html#a074d271a237bc7fc08e75ba137478b30" target="_top" xlink:title="Updates the ground altitude estimate based on given information. Will either start or stop the timer ...">
<polygon fill="white" stroke="#666666" points="946,-49.5 753,-49.5 753,-8.5 946,-8.5 946,-49.5"/>
<text text-anchor="start" x="761" y="-37.5" font-family="Helvetica,sans-Serif" font-size="10.00">iii_drone::control</text>
<text text-anchor="start" x="761" y="-26.5" font-family="Helvetica,sans-Serif" font-size="10.00">::CombinedDroneAwarenessHandler</text>
<text text-anchor="middle" x="849.5" y="-15.5" font-family="Helvetica,sans-Serif" font-size="10.00">::updateGroundAltitudeEstimate</text>
</a>
</g>
</g>
<!-- Node1&#45;&gt;Node8 -->
<g id="edge9_Node000001_Node000008" class="edge">
<title>Node1&#45;&gt;Node8</title>
<g id="a_edge9_Node000001_Node000008"><a xlink:title=" ">
<path fill="none" stroke="#63b8ff" d="M985.81,-70.85C964.11,-64.14 939.37,-56.49 917.03,-49.58"/>
<polygon fill="#63b8ff" stroke="#63b8ff" points="984.96,-74.25 995.55,-73.86 987.03,-67.56 984.96,-74.25"/>
</a>
</g>
</g>
<!-- Node4 -->
<g id="Node000004" class="node">
<title>Node4</title>
<g id="a_Node000004"><a xlink:href="classiii__drone_1_1control_1_1TrajectoryGeneratorClient.html#a2b3ee03aed559d8c1ea8d052336d25ff" target="_top" xlink:title="Starts generating a trajectory.">
<polygon fill="white" stroke="#666666" points="690,-111.5 496,-111.5 496,-70.5 690,-70.5 690,-111.5"/>
<text text-anchor="start" x="504" y="-99.5" font-family="Helvetica,sans-Serif" font-size="10.00">iii_drone::control</text>
<text text-anchor="start" x="504" y="-88.5" font-family="Helvetica,sans-Serif" font-size="10.00">::TrajectoryGeneratorClient</text>
<text text-anchor="middle" x="593" y="-77.5" font-family="Helvetica,sans-Serif" font-size="10.00">::ComputeReferenceTrajectoryAsync</text>
</a>
</g>
</g>
<!-- Node3&#45;&gt;Node4 -->
<g id="edge3_Node000003_Node000004" class="edge">
<title>Node3&#45;&gt;Node4</title>
<g id="a_edge3_Node000003_Node000004"><a xlink:title=" ">
<path fill="none" stroke="#63b8ff" d="M765.15,-89.66C741.27,-89.84 715.04,-90.05 690.44,-90.24"/>
<polygon fill="#63b8ff" stroke="#63b8ff" points="765.26,-93.15 775.23,-89.58 765.2,-86.15 765.26,-93.15"/>
</a>
</g>
</g>
<!-- Node5 -->
<g id="Node000005" class="node">
<title>Node5</title>
<g id="a_Node000005"><a xlink:href="classiii__drone_1_1control_1_1maneuver_1_1FlyToObjectManeuverServer.html#a2ace3412e0d42d07a39c553c89ab0c6a" target="_top" xlink:title="Compute the reference.">
<polygon fill="white" stroke="#666666" points="187.5,-150.5 3.5,-150.5 3.5,-109.5 187.5,-109.5 187.5,-150.5"/>
<text text-anchor="start" x="11.5" y="-138.5" font-family="Helvetica,sans-Serif" font-size="10.00">iii_drone::control</text>
<text text-anchor="start" x="11.5" y="-127.5" font-family="Helvetica,sans-Serif" font-size="10.00">::maneuver::FlyToObjectManeuver</text>
<text text-anchor="middle" x="95.5" y="-116.5" font-family="Helvetica,sans-Serif" font-size="10.00">Server::computeReference</text>
</a>
</g>
</g>
<!-- Node4&#45;&gt;Node5 -->
<g id="edge4_Node000004_Node000005" class="edge">
<title>Node4&#45;&gt;Node5</title>
<g id="a_edge4_Node000004_Node000005"><a xlink:title=" ">
<path fill="none" stroke="#63b8ff" d="M486.18,-113.4C468.49,-116.44 450.28,-119.15 433,-121 350.34,-129.85 255.64,-131.64 187.81,-131.49"/>
<polygon fill="#63b8ff" stroke="#63b8ff" points="487.28,-116.76 496.52,-111.57 486.06,-109.87 487.28,-116.76"/>
</a>
</g>
</g>
<!-- Node6 -->
<g id="Node000006" class="node">
<title>Node6</title>
<g id="a_Node000006"><a xlink:href="classiii__drone_1_1control_1_1maneuver_1_1FlyToPositionManeuverServer.html#ac13004e478653d73361c3569e11870dc" target="_top" xlink:title="Compute the reference.">
<polygon fill="white" stroke="#666666" points="191,-81.5 0,-81.5 0,-40.5 191,-40.5 191,-81.5"/>
<text text-anchor="start" x="8" y="-69.5" font-family="Helvetica,sans-Serif" font-size="10.00">iii_drone::control</text>
<text text-anchor="start" x="8" y="-58.5" font-family="Helvetica,sans-Serif" font-size="10.00">::maneuver::FlyToPositionManeuver</text>
<text text-anchor="middle" x="95.5" y="-47.5" font-family="Helvetica,sans-Serif" font-size="10.00">Server::computeReference</text>
</a>
</g>
</g>
<!-- Node4&#45;&gt;Node6 -->
<g id="edge5_Node000004_Node000006" class="edge">
<title>Node4&#45;&gt;Node6</title>
<g id="a_edge5_Node000004_Node000006"><a xlink:title=" ">
<path fill="none" stroke="#63b8ff" d="M485.47,-68.89C468.01,-66.04 450.05,-63.57 433,-62 351.7,-54.52 258.88,-54.91 191.35,-56.81"/>
<polygon fill="#63b8ff" stroke="#63b8ff" points="485.24,-72.4 495.68,-70.6 486.4,-65.49 485.24,-72.4"/>
</a>
</g>
</g>
<!-- Node7 -->
<g id="Node000007" class="node">
<title>Node7</title>
<g id="a_Node000007"><a xlink:href="classiii__drone_1_1control_1_1TrajectoryGeneratorClient.html#a0e32180d729e74d24edeef891d1ac843" target="_top" xlink:title="Generates a trajectory and blocks until it is done.">
<polygon fill="white" stroke="#666666" points="433,-111.5 227,-111.5 227,-70.5 433,-70.5 433,-111.5"/>
<text text-anchor="start" x="235" y="-99.5" font-family="Helvetica,sans-Serif" font-size="10.00">iii_drone::control</text>
<text text-anchor="start" x="235" y="-88.5" font-family="Helvetica,sans-Serif" font-size="10.00">::TrajectoryGeneratorClient</text>
<text text-anchor="middle" x="330" y="-77.5" font-family="Helvetica,sans-Serif" font-size="10.00">::ComputeReferenceTrajectoryBlocking</text>
</a>
</g>
</g>
<!-- Node4&#45;&gt;Node7 -->
<g id="edge6_Node000004_Node000007" class="edge">
<title>Node4&#45;&gt;Node7</title>
<g id="a_edge6_Node000004_Node000007"><a xlink:title=" ">
<path fill="none" stroke="#63b8ff" d="M485.75,-91C468.33,-91 450.32,-91 433.01,-91"/>
<polygon fill="#63b8ff" stroke="#63b8ff" points="485.93,-94.5 495.93,-91 485.93,-87.5 485.93,-94.5"/>
</a>
</g>
</g>
<!-- Node7&#45;&gt;Node5 -->
<g id="edge7_Node000007_Node000005" class="edge">
<title>Node7&#45;&gt;Node5</title>
<g id="a_edge7_Node000007_Node000005"><a xlink:title=" ">
<path fill="none" stroke="#63b8ff" d="M216.57,-109.86C206.83,-111.49 197.06,-113.13 187.53,-114.73"/>
<polygon fill="#63b8ff" stroke="#63b8ff" points="217.4,-113.27 226.68,-108.16 216.24,-106.37 217.4,-113.27"/>
</a>
</g>
</g>
<!-- Node7&#45;&gt;Node6 -->
<g id="edge8_Node000007_Node000006" class="edge">
<title>Node7&#45;&gt;Node6</title>
<g id="a_edge8_Node000007_Node000006"><a xlink:title=" ">
<path fill="none" stroke="#63b8ff" d="M216.68,-76.51C208.13,-75.4 199.56,-74.3 191.14,-73.21"/>
<polygon fill="#63b8ff" stroke="#63b8ff" points="216.32,-79.99 226.68,-77.8 217.21,-73.05 216.32,-79.99"/>
</a>
</g>
</g>
<!-- Node9 -->
<g id="Node000009" class="node">
<title>Node9</title>
<g id="a_Node000009"><a xlink:href="classiii__drone_1_1control_1_1CombinedDroneAwarenessHandler.html#a197c146061816403499a4e652a8fe646" target="_top" xlink:title="Updates the given combined drone awareness from the vehicle odometry. Triggers updates of ground alti...">
<polygon fill="white" stroke="#666666" points="717,-52 469,-52 469,0 717,0 717,-52"/>
<text text-anchor="start" x="477" y="-40" font-family="Helvetica,sans-Serif" font-size="10.00">iii_drone::control</text>
<text text-anchor="start" x="477" y="-29" font-family="Helvetica,sans-Serif" font-size="10.00">::CombinedDroneAwarenessHandler</text>
<text text-anchor="start" x="477" y="-18" font-family="Helvetica,sans-Serif" font-size="10.00">::updateCombinedDroneAwarenessFromVehicle</text>
<text text-anchor="middle" x="593" y="-7" font-family="Helvetica,sans-Serif" font-size="10.00">Odometry</text>
</a>
</g>
</g>
<!-- Node8&#45;&gt;Node9 -->
<g id="edge10_Node000008_Node000009" class="edge">
<title>Node8&#45;&gt;Node9</title>
<g id="a_edge10_Node000008_Node000009"><a xlink:title=" ">
<path fill="none" stroke="#63b8ff" d="M742.55,-27.75C734.2,-27.65 725.74,-27.55 717.29,-27.45"/>
<polygon fill="#63b8ff" stroke="#63b8ff" points="742.61,-31.25 752.65,-27.87 742.69,-24.25 742.61,-31.25"/>
</a>
</g>
</g>
</g>
</svg>
