<?xml version="1.0" encoding="UTF-8" standalone="no"?>
<!DOCTYPE svg PUBLIC "-//W3C//DTD SVG 1.1//EN"
 "http://www.w3.org/Graphics/SVG/1.1/DTD/svg11.dtd">
<!-- Generated by graphviz version 2.43.0 (0)
 -->
<!-- Title: iii_drone::control::ManeuverSchedulerParameters Pages: 1 -->
<svg width="287pt" height="470pt"
 viewBox="0.00 0.00 286.50 470.00" xmlns="http://www.w3.org/2000/svg" xmlns:xlink="http://www.w3.org/1999/xlink">
<g id="graph0" class="graph" transform="scale(1 1) rotate(0) translate(4 466)">
<title>iii_drone::control::ManeuverSchedulerParameters</title>
<!-- Node1 -->
<g id="Node000001" class="node">
<title>Node1</title>
<g id="a_Node000001"><a xlink:title="Class for handling parameters for the behavior handler object.">
<polygon fill="#999999" stroke="transparent" points="205,-225 24,-225 24,0 205,0 205,-225"/>
<text text-anchor="start" x="35.5" y="-212.5" font-family="Helvetica,sans-Serif" font-size="10.00">iii_drone::control</text>
<text text-anchor="start" x="35.5" y="-201.5" font-family="Helvetica,sans-Serif" font-size="10.00">::ManeuverSchedulerParameters</text>
<text text-anchor="start" x="31" y="-186.5" font-family="Helvetica,sans-Serif" font-size="10.00">&#45;</text>
<text text-anchor="start" x="41.5" y="-186.5" font-family="Helvetica,sans-Serif" font-size="10.00">landed_altitude_threshold_</text>
<text text-anchor="start" x="31" y="-171.5" font-family="Helvetica,sans-Serif" font-size="10.00">&#45;</text>
<text text-anchor="start" x="41.5" y="-171.5" font-family="Helvetica,sans-Serif" font-size="10.00">on_cable_max_euc_distance_</text>
<text text-anchor="start" x="31" y="-156.5" font-family="Helvetica,sans-Serif" font-size="10.00">&#45;</text>
<text text-anchor="start" x="41.5" y="-156.5" font-family="Helvetica,sans-Serif" font-size="10.00">minimum_target_altitude_</text>
<text text-anchor="start" x="28.5" y="-141.5" font-family="Helvetica,sans-Serif" font-size="10.00">+</text>
<text text-anchor="start" x="41.5" y="-141.5" font-family="Helvetica,sans-Serif" font-size="10.00">ManeuverSchedulerParameters()</text>
<text text-anchor="start" x="28.5" y="-126.5" font-family="Helvetica,sans-Serif" font-size="10.00">+</text>
<text text-anchor="start" x="41.5" y="-126.5" font-family="Helvetica,sans-Serif" font-size="10.00">landed_altitude_threshold()</text>
<text text-anchor="start" x="28.5" y="-111.5" font-family="Helvetica,sans-Serif" font-size="10.00">+</text>
<text text-anchor="start" x="41.5" y="-111.5" font-family="Helvetica,sans-Serif" font-size="10.00">landed_altitude_threshold()</text>
<text text-anchor="start" x="28.5" y="-96.5" font-family="Helvetica,sans-Serif" font-size="10.00">+</text>
<text text-anchor="start" x="41.5" y="-96.5" font-family="Helvetica,sans-Serif" font-size="10.00">on_cable_max_euc_distance()</text>
<text text-anchor="start" x="28.5" y="-81.5" font-family="Helvetica,sans-Serif" font-size="10.00">+</text>
<text text-anchor="start" x="41.5" y="-81.5" font-family="Helvetica,sans-Serif" font-size="10.00">on_cable_max_euc_distance()</text>
<text text-anchor="start" x="28.5" y="-66.5" font-family="Helvetica,sans-Serif" font-size="10.00">+</text>
<text text-anchor="start" x="41.5" y="-66.5" font-family="Helvetica,sans-Serif" font-size="10.00">minimum_target_altitude()</text>
<text text-anchor="start" x="28.5" y="-51.5" font-family="Helvetica,sans-Serif" font-size="10.00">+</text>
<text text-anchor="start" x="41.5" y="-51.5" font-family="Helvetica,sans-Serif" font-size="10.00">minimum_target_altitude()</text>
<text text-anchor="start" x="28.5" y="-36.5" font-family="Helvetica,sans-Serif" font-size="10.00">+</text>
<text text-anchor="start" x="41.5" y="-36.5" font-family="Helvetica,sans-Serif" font-size="10.00">cable_gripper_frame_id()</text>
<text text-anchor="start" x="28.5" y="-21.5" font-family="Helvetica,sans-Serif" font-size="10.00">+</text>
<text text-anchor="start" x="41.5" y="-21.5" font-family="Helvetica,sans-Serif" font-size="10.00">drone_frame_id()</text>
<text text-anchor="start" x="28.5" y="-6.5" font-family="Helvetica,sans-Serif" font-size="10.00">+</text>
<text text-anchor="start" x="41.5" y="-6.5" font-family="Helvetica,sans-Serif" font-size="10.00">world_frame_id()</text>
<polygon fill="#666666" stroke="#666666" points="24.5,-196.5 24.5,-196.5 205.5,-196.5 205.5,-196.5 24.5,-196.5"/>
<polygon fill="#666666" stroke="#666666" points="24.5,-151.5 24.5,-151.5 39.5,-151.5 39.5,-151.5 24.5,-151.5"/>
<polygon fill="#666666" stroke="#666666" points="39.5,-151.5 39.5,-151.5 205.5,-151.5 205.5,-151.5 39.5,-151.5"/>
<polygon fill="none" stroke="#666666" points="24,0 24,-225 205,-225 205,0 24,0"/>
</a>
</g>
</g>
<!-- Node2 -->
<g id="Node000002" class="node">
<title>Node2</title>
<g id="a_Node000002"><a xlink:title=" ">
<polygon fill="white" stroke="transparent" points="101,-365 0,-365 0,-316 101,-316 101,-365"/>
<text text-anchor="start" x="5.5" y="-352.5" font-family="Helvetica,sans-Serif" font-size="10.00">std::shared_mutex</text>
<text text-anchor="start" x="49" y="-337.5" font-family="Helvetica,sans-Serif" font-size="10.00"> </text>
<text text-anchor="start" x="49" y="-322.5" font-family="Helvetica,sans-Serif" font-size="10.00"> </text>
<polygon fill="#666666" stroke="#666666" points="0.5,-347.5 0.5,-347.5 101.5,-347.5 101.5,-347.5 0.5,-347.5"/>
<polygon fill="#666666" stroke="#666666" points="0.5,-332.5 0.5,-332.5 101.5,-332.5 101.5,-332.5 0.5,-332.5"/>
<polygon fill="none" stroke="#666666" points="0,-316 0,-365 101,-365 101,-316 0,-316"/>
</a>
</g>
</g>
<!-- Node2&#45;&gt;Node1 -->
<g id="edge1_Node000001_Node000002" class="edge">
<title>Node2&#45;&gt;Node1</title>
<g id="a_edge1_Node000001_Node000002"><a xlink:title=" ">
<path fill="none" stroke="#63b8ff" d="M47.88,-315.75C46.37,-296 45.77,-267.3 51.5,-243 52.01,-240.86 52.55,-238.71 53.13,-236.56"/>
<polygon fill="none" stroke="#63b8ff" points="53.14,-236.54 51.02,-229.65 56.57,-225.04 58.69,-231.94 53.14,-236.54"/>
</a>
</g>
<text text-anchor="middle" x="104.5" y="-268" font-family="Helvetica,sans-Serif" font-size="10.00" fill="grey"> &#45;parameters_mutex_</text>
</g>
<!-- Node3 -->
<g id="Node000003" class="node">
<title>Node3</title>
<g id="a_Node000003"><a xlink:title=" ">
<polygon fill="white" stroke="transparent" points="209,-365 150,-365 150,-316 209,-316 209,-365"/>
<text text-anchor="start" x="155.5" y="-352.5" font-family="Helvetica,sans-Serif" font-size="10.00">std::string</text>
<text text-anchor="start" x="178" y="-337.5" font-family="Helvetica,sans-Serif" font-size="10.00"> </text>
<text text-anchor="start" x="178" y="-322.5" font-family="Helvetica,sans-Serif" font-size="10.00"> </text>
<polygon fill="#666666" stroke="#666666" points="150.5,-347.5 150.5,-347.5 209.5,-347.5 209.5,-347.5 150.5,-347.5"/>
<polygon fill="#666666" stroke="#666666" points="150.5,-332.5 150.5,-332.5 209.5,-332.5 209.5,-332.5 150.5,-332.5"/>
<polygon fill="none" stroke="#666666" points="150,-316 150,-365 209,-365 209,-316 150,-316"/>
</a>
</g>
</g>
<!-- Node3&#45;&gt;Node1 -->
<g id="edge2_Node000001_Node000003" class="edge">
<title>Node3&#45;&gt;Node1</title>
<g id="a_edge2_Node000001_Node000003"><a xlink:title=" ">
<path fill="none" stroke="#63b8ff" d="M174.79,-315.94C170.71,-296.3 164.39,-267.66 157.5,-243 156.94,-241 156.37,-238.99 155.79,-236.96"/>
<polygon fill="none" stroke="#63b8ff" points="155.73,-236.77 150.2,-232.13 152.35,-225.25 157.88,-229.88 155.73,-236.77"/>
</a>
</g>
<text text-anchor="start" x="170.5" y="-290" font-family="Helvetica,sans-Serif" font-size="10.00" fill="grey"> &#45;cable_gripper_frame</text>
<text text-anchor="middle" x="224.5" y="-279" font-family="Helvetica,sans-Serif" font-size="10.00" fill="grey">_id_</text>
<text text-anchor="start" x="170.5" y="-268" font-family="Helvetica,sans-Serif" font-size="10.00" fill="grey">&#45;drone_frame_id</text>
<text text-anchor="middle" x="224.5" y="-257" font-family="Helvetica,sans-Serif" font-size="10.00" fill="grey">_</text>
<text text-anchor="middle" x="224.5" y="-246" font-family="Helvetica,sans-Serif" font-size="10.00" fill="grey">&#45;world_frame_id_</text>
</g>
<!-- Node4 -->
<g id="Node000004" class="node">
<title>Node4</title>
<g id="a_Node000004"><a xlink:title=" ">
<polygon fill="white" stroke="transparent" points="228.5,-462 130.5,-462 130.5,-402 228.5,-402 228.5,-462"/>
<text text-anchor="start" x="135.5" y="-450" font-family="Helvetica,sans-Serif" font-size="10.00">std::basic_string&lt;</text>
<text text-anchor="start" x="161" y="-439" font-family="Helvetica,sans-Serif" font-size="10.00"> Char &gt;</text>
<text text-anchor="start" x="177.5" y="-424" font-family="Helvetica,sans-Serif" font-size="10.00"> </text>
<text text-anchor="start" x="177.5" y="-409" font-family="Helvetica,sans-Serif" font-size="10.00"> </text>
<polygon fill="#666666" stroke="#666666" points="130.5,-434 130.5,-434 228.5,-434 228.5,-434 130.5,-434"/>
<polygon fill="#666666" stroke="#666666" points="130.5,-419 130.5,-419 228.5,-419 228.5,-419 130.5,-419"/>
<polygon fill="none" stroke="#666666" points="130.5,-402 130.5,-462 228.5,-462 228.5,-402 130.5,-402"/>
</a>
</g>
</g>
<!-- Node4&#45;&gt;Node3 -->
<g id="edge3_Node000003_Node000004" class="edge">
<title>Node4&#45;&gt;Node3</title>
<g id="a_edge3_Node000003_Node000004"><a xlink:title=" ">
<path fill="none" stroke="#63b8ff" d="M179.5,-391.41C179.5,-382.47 179.5,-373.25 179.5,-365.21"/>
<polygon fill="none" stroke="#63b8ff" points="176,-391.69 179.5,-401.69 183,-391.69 176,-391.69"/>
</a>
</g>
</g>
</g>
</svg>
