<?xml version="1.0" encoding="UTF-8" standalone="no"?>
<!DOCTYPE svg PUBLIC "-//W3C//DTD SVG 1.1//EN"
 "http://www.w3.org/Graphics/SVG/1.1/DTD/svg11.dtd">
<!-- Generated by graphviz version 2.43.0 (0)
 -->
<!-- Title: iii_drone::control::flight_controller_node::FlightControllerConfigurator::target_cable_safety_margin_distance_threshold Pages: 1 -->
<svg width="800pt" height="78pt"
 viewBox="0.00 0.00 800.00 78.00" xmlns="http://www.w3.org/2000/svg" xmlns:xlink="http://www.w3.org/1999/xlink">
<g id="graph0" class="graph" transform="scale(1 1) rotate(0) translate(4 74)">
<title>iii_drone::control::flight_controller_node::FlightControllerConfigurator::target_cable_safety_margin_distance_threshold</title>
<!-- Node1 -->
<g id="Node000001" class="node">
<title>Node1</title>
<g id="a_Node000001"><a xlink:title="The distance threshold to consider the target position reached when the drone is following a cable.">
<polygon fill="#999999" stroke="#666666" points="188,-63 0,-63 0,0 188,0 188,-63"/>
<text text-anchor="start" x="8" y="-51" font-family="Helvetica,sans-Serif" font-size="10.00">iii_drone::control</text>
<text text-anchor="start" x="8" y="-40" font-family="Helvetica,sans-Serif" font-size="10.00">::flight_controller</text>
<text text-anchor="start" x="8" y="-29" font-family="Helvetica,sans-Serif" font-size="10.00">_node::FlightControllerConfigurator</text>
<text text-anchor="start" x="8" y="-18" font-family="Helvetica,sans-Serif" font-size="10.00">::target_cable_safety_margin</text>
<text text-anchor="middle" x="94" y="-7" font-family="Helvetica,sans-Serif" font-size="10.00">_distance_threshold</text>
</a>
</g>
</g>
<!-- Node2 -->
<g id="Node000002" class="node">
<title>Node2</title>
<g id="a_Node000002"><a xlink:href="classiii__drone_1_1configuration_1_1Configurator.html#a896be5ed2c6890f9f5ecaa89cb0eee7d" target="_top" xlink:title="Get a parameter.">
<polygon fill="white" stroke="#666666" points="380,-46.5 224,-46.5 224,-16.5 380,-16.5 380,-46.5"/>
<text text-anchor="start" x="232" y="-34.5" font-family="Helvetica,sans-Serif" font-size="10.00">iii_drone::configuration</text>
<text text-anchor="middle" x="302" y="-23.5" font-family="Helvetica,sans-Serif" font-size="10.00">::Configurator::GetParameter</text>
</a>
</g>
</g>
<!-- Node1&#45;&gt;Node2 -->
<g id="edge1_Node000001_Node000002" class="edge">
<title>Node1&#45;&gt;Node2</title>
<g id="a_edge1_Node000001_Node000002"><a xlink:title=" ">
<path fill="none" stroke="#63b8ff" d="M188.06,-31.5C196.55,-31.5 205.13,-31.5 213.56,-31.5"/>
<polygon fill="#63b8ff" stroke="#63b8ff" points="213.77,-35 223.77,-31.5 213.77,-28 213.77,-35"/>
</a>
</g>
</g>
<!-- Node3 -->
<g id="Node000003" class="node">
<title>Node3</title>
<g id="a_Node000003"><a xlink:href="classiii__drone_1_1configuration_1_1Configurator.html#ad6e7318a12eda7011acfbe4276e7056a" target="_top" xlink:title="Gets multiple parameters.">
<polygon fill="white" stroke="#666666" points="577,-68.5 416,-68.5 416,-38.5 577,-38.5 577,-68.5"/>
<text text-anchor="start" x="424" y="-56.5" font-family="Helvetica,sans-Serif" font-size="10.00">iii_drone::configuration</text>
<text text-anchor="middle" x="496.5" y="-45.5" font-family="Helvetica,sans-Serif" font-size="10.00">::Configurator::GetParameters</text>
</a>
</g>
</g>
<!-- Node2&#45;&gt;Node3 -->
<g id="edge2_Node000002_Node000003" class="edge">
<title>Node2&#45;&gt;Node3</title>
<g id="a_edge2_Node000002_Node000003"><a xlink:title=" ">
<path fill="none" stroke="#63b8ff" d="M380.19,-40.32C388.61,-41.28 397.23,-42.27 405.79,-43.25"/>
<polygon fill="#63b8ff" stroke="#63b8ff" points="405.45,-46.73 415.78,-44.39 406.24,-39.78 405.45,-46.73"/>
</a>
</g>
</g>
<!-- Node4 -->
<g id="Node000004" class="node">
<title>Node4</title>
<g id="a_Node000004"><a xlink:href="classiii__drone_1_1configuration_1_1Configurator.html#ac5360ab6b4f31277c7d73b5579815353" target="_top" xlink:title="Static function for getting string representation of a parameter type from template type.">
<polygon fill="white" stroke="#666666" points="792,-52 613,-52 613,-11 792,-11 792,-52"/>
<text text-anchor="start" x="621" y="-40" font-family="Helvetica,sans-Serif" font-size="10.00">iii_drone::configuration</text>
<text text-anchor="start" x="621" y="-29" font-family="Helvetica,sans-Serif" font-size="10.00">::Configurator::GetParameterType</text>
<text text-anchor="middle" x="702.5" y="-18" font-family="Helvetica,sans-Serif" font-size="10.00">String</text>
</a>
</g>
</g>
<!-- Node2&#45;&gt;Node4 -->
<g id="edge5_Node000002_Node000004" class="edge">
<title>Node2&#45;&gt;Node4</title>
<g id="a_edge5_Node000002_Node000004"><a xlink:title=" ">
<path fill="none" stroke="#63b8ff" d="M380.2,-29.95C392.18,-29.76 404.42,-29.6 416,-29.5 487.55,-28.87 505.45,-28.93 577,-29.5 585.31,-29.57 593.94,-29.66 602.59,-29.77"/>
<polygon fill="#63b8ff" stroke="#63b8ff" points="602.7,-33.27 612.75,-29.9 602.8,-26.27 602.7,-33.27"/>
</a>
</g>
</g>
<!-- Node3&#45;&gt;Node4 -->
<g id="edge3_Node000003_Node000004" class="edge">
<title>Node3&#45;&gt;Node4</title>
<g id="a_edge3_Node000003_Node000004"><a xlink:title=" ">
<path fill="none" stroke="#63b8ff" d="M577.25,-44.9C585.6,-44 594.16,-43.08 602.7,-42.16"/>
<polygon fill="#63b8ff" stroke="#63b8ff" points="603.12,-45.63 612.69,-41.08 602.37,-38.67 603.12,-45.63"/>
</a>
</g>
</g>
<!-- Node4&#45;&gt;Node4 -->
<g id="edge4_Node000004_Node000004" class="edge">
<title>Node4&#45;&gt;Node4</title>
<g id="a_edge4_Node000004_Node000004"><a xlink:title=" ">
<path fill="none" stroke="#63b8ff" d="M664.64,-52.1C660.51,-61.65 673.13,-70 702.5,-70 720.86,-70 732.67,-66.74 737.94,-61.96"/>
<polygon fill="#63b8ff" stroke="#63b8ff" points="741.38,-62.64 740.36,-52.1 734.58,-60.97 741.38,-62.64"/>
</a>
</g>
</g>
</g>
</svg>
