<?xml version="1.0" encoding="UTF-8" standalone="no"?>
<!DOCTYPE svg PUBLIC "-//W3C//DTD SVG 1.1//EN"
 "http://www.w3.org/Graphics/SVG/1.1/DTD/svg11.dtd">
<!-- Generated by graphviz version 2.43.0 (0)
 -->
<!-- Title: iii_drone::adapters::PowerlineAdapter::UpdateFromMsg Pages: 1 -->
<svg width="305pt" height="157pt"
 viewBox="0.00 0.00 305.00 157.00" xmlns="http://www.w3.org/2000/svg" xmlns:xlink="http://www.w3.org/1999/xlink">
<g id="graph0" class="graph" transform="scale(1 1) rotate(0) translate(4 153)">
<title>iii_drone::adapters::PowerlineAdapter::UpdateFromMsg</title>
<!-- Node1 -->
<g id="Node000001" class="node">
<title>Node1</title>
<g id="a_Node000001"><a xlink:title="Updates the powerline adapter object from a message.">
<polygon fill="#999999" stroke="#666666" points="115,-95 0,-95 0,-54 115,-54 115,-95"/>
<text text-anchor="start" x="8" y="-83" font-family="Helvetica,sans-Serif" font-size="10.00">iii_drone::adapters</text>
<text text-anchor="start" x="8" y="-72" font-family="Helvetica,sans-Serif" font-size="10.00">::PowerlineAdapter::</text>
<text text-anchor="middle" x="57.5" y="-61" font-family="Helvetica,sans-Serif" font-size="10.00">UpdateFromMsg</text>
</a>
</g>
</g>
<!-- Node2 -->
<g id="Node000002" class="node">
<title>Node2</title>
<g id="a_Node000002"><a xlink:href="classiii__drone_1_1adapters_1_1ProjectionPlaneAdapter.html#a9bfc424f36ccefe67fc3e1337dbe2819" target="_top" xlink:title="Projection plane getter.">
<polygon fill="white" stroke="#666666" points="292.5,-149 155.5,-149 155.5,-108 292.5,-108 292.5,-149"/>
<text text-anchor="start" x="163.5" y="-137" font-family="Helvetica,sans-Serif" font-size="10.00">iii_drone::adapters</text>
<text text-anchor="start" x="163.5" y="-126" font-family="Helvetica,sans-Serif" font-size="10.00">::ProjectionPlaneAdapter</text>
<text text-anchor="middle" x="224" y="-115" font-family="Helvetica,sans-Serif" font-size="10.00">::projection_plane</text>
</a>
</g>
</g>
<!-- Node1&#45;&gt;Node2 -->
<g id="edge1_Node000001_Node000002" class="edge">
<title>Node1&#45;&gt;Node2</title>
<g id="a_edge1_Node000001_Node000002"><a xlink:title=" ">
<path fill="none" stroke="#63b8ff" d="M115.11,-93.08C126.62,-96.86 138.88,-100.89 150.85,-104.82"/>
<polygon fill="#63b8ff" stroke="#63b8ff" points="149.78,-108.15 160.37,-107.94 151.96,-101.5 149.78,-108.15"/>
</a>
</g>
</g>
<!-- Node3 -->
<g id="Node000003" class="node">
<title>Node3</title>
<g id="a_Node000003"><a xlink:href="classiii__drone_1_1adapters_1_1PowerlineAdapter.html#a2cc31803edd82e7f5c00d70ad51f3c59" target="_top" xlink:title="Stamp getter.">
<polygon fill="white" stroke="#666666" points="297,-89.5 151,-89.5 151,-59.5 297,-59.5 297,-89.5"/>
<text text-anchor="start" x="159" y="-77.5" font-family="Helvetica,sans-Serif" font-size="10.00">iii_drone::adapters</text>
<text text-anchor="middle" x="224" y="-66.5" font-family="Helvetica,sans-Serif" font-size="10.00">::PowerlineAdapter::stamp</text>
</a>
</g>
</g>
<!-- Node1&#45;&gt;Node3 -->
<g id="edge2_Node000001_Node000003" class="edge">
<title>Node1&#45;&gt;Node3</title>
<g id="a_edge2_Node000001_Node000003"><a xlink:title=" ">
<path fill="none" stroke="#63b8ff" d="M115.11,-74.5C123.39,-74.5 132.06,-74.5 140.73,-74.5"/>
<polygon fill="#63b8ff" stroke="#63b8ff" points="140.89,-78 150.89,-74.5 140.89,-71 140.89,-78"/>
</a>
</g>
</g>
<!-- Node4 -->
<g id="Node000004" class="node">
<title>Node4</title>
<g id="a_Node000004"><a xlink:href="classiii__drone_1_1adapters_1_1SingleLineAdapter.html#ae353f420f984e5fe68d67cd5be7e565b" target="_top" xlink:title="Timestamp getter.">
<polygon fill="white" stroke="#666666" points="279.5,-41 168.5,-41 168.5,0 279.5,0 279.5,-41"/>
<text text-anchor="start" x="176.5" y="-29" font-family="Helvetica,sans-Serif" font-size="10.00">iii_drone::adapters</text>
<text text-anchor="start" x="176.5" y="-18" font-family="Helvetica,sans-Serif" font-size="10.00">::SingleLineAdapter</text>
<text text-anchor="middle" x="224" y="-7" font-family="Helvetica,sans-Serif" font-size="10.00">::stamp</text>
</a>
</g>
</g>
<!-- Node1&#45;&gt;Node4 -->
<g id="edge3_Node000001_Node000004" class="edge">
<title>Node1&#45;&gt;Node4</title>
<g id="a_edge3_Node000001_Node000004"><a xlink:title=" ">
<path fill="none" stroke="#63b8ff" d="M115.11,-55.92C129.08,-51.33 144.15,-46.38 158.46,-41.69"/>
<polygon fill="#63b8ff" stroke="#63b8ff" points="159.82,-44.92 168.23,-38.48 157.64,-38.27 159.82,-44.92"/>
</a>
</g>
</g>
</g>
</svg>
