<?xml version="1.0" encoding="UTF-8" standalone="no"?>
<!DOCTYPE svg PUBLIC "-//W3C//DTD SVG 1.1//EN"
 "http://www.w3.org/Graphics/SVG/1.1/DTD/svg11.dtd">
<!-- Generated by graphviz version 2.43.0 (0)
 -->
<!-- Title: iii_drone::control::Reference::position Pages: 1 -->
<svg width="1275pt" height="539pt"
 viewBox="0.00 0.00 1275.00 539.00" xmlns="http://www.w3.org/2000/svg" xmlns:xlink="http://www.w3.org/1999/xlink">
<g id="graph0" class="graph" transform="scale(1 1) rotate(0) translate(4 535)">
<title>iii_drone::control::Reference::position</title>
<!-- Node1 -->
<g id="Node000001" class="node">
<title>Node1</title>
<g id="a_Node000001"><a xlink:title=" ">
<polygon fill="#999999" stroke="#666666" points="1267,-285.5 1150,-285.5 1150,-255.5 1267,-255.5 1267,-285.5"/>
<text text-anchor="start" x="1158" y="-273.5" font-family="Helvetica,sans-Serif" font-size="10.00">iii_drone::control</text>
<text text-anchor="middle" x="1208.5" y="-262.5" font-family="Helvetica,sans-Serif" font-size="10.00">::Reference::position</text>
</a>
</g>
</g>
<!-- Node2 -->
<g id="Node000002" class="node">
<title>Node2</title>
<g id="a_Node000002"><a xlink:href="classiii__drone_1_1control_1_1maneuver_1_1FlyToObjectManeuverServer.html#aae038a1f6dfe0351d898c874557fb397" target="_top" xlink:title="Whether the maneuver has succeeded, returns true if the drone is within the position tolerance.">
<polygon fill="white" stroke="#666666" points="1110.5,-531 926.5,-531 926.5,-490 1110.5,-490 1110.5,-531"/>
<text text-anchor="start" x="934.5" y="-519" font-family="Helvetica,sans-Serif" font-size="10.00">iii_drone::control</text>
<text text-anchor="start" x="934.5" y="-508" font-family="Helvetica,sans-Serif" font-size="10.00">::maneuver::FlyToObjectManeuver</text>
<text text-anchor="middle" x="1018.5" y="-497" font-family="Helvetica,sans-Serif" font-size="10.00">Server::hasSucceeded</text>
</a>
</g>
</g>
<!-- Node1&#45;&gt;Node2 -->
<g id="edge1_Node000001_Node000002" class="edge">
<title>Node1&#45;&gt;Node2</title>
<g id="a_edge1_Node000001_Node000002"><a xlink:title=" ">
<path fill="none" stroke="#63b8ff" d="M1203.39,-295.37C1194.83,-339.37 1170.9,-431.02 1114,-481.5 1110.53,-484.58 1106.75,-487.32 1102.75,-489.78"/>
<polygon fill="#63b8ff" stroke="#63b8ff" points="1206.84,-295.98 1205.21,-285.51 1199.96,-294.71 1206.84,-295.98"/>
</a>
</g>
</g>
<!-- Node3 -->
<g id="Node000003" class="node">
<title>Node3</title>
<g id="a_Node000003"><a xlink:href="classiii__drone_1_1control_1_1maneuver_1_1FlyToPositionManeuverServer.html#aed56d774bdeb50bb928b2be358e33fc3" target="_top" xlink:title="Whether the maneuver has succeeded, returns true if the drone is within the position tolerance.">
<polygon fill="white" stroke="#666666" points="1114,-472 923,-472 923,-431 1114,-431 1114,-472"/>
<text text-anchor="start" x="931" y="-460" font-family="Helvetica,sans-Serif" font-size="10.00">iii_drone::control</text>
<text text-anchor="start" x="931" y="-449" font-family="Helvetica,sans-Serif" font-size="10.00">::maneuver::FlyToPositionManeuver</text>
<text text-anchor="middle" x="1018.5" y="-438" font-family="Helvetica,sans-Serif" font-size="10.00">Server::hasSucceeded</text>
</a>
</g>
</g>
<!-- Node1&#45;&gt;Node3 -->
<g id="edge2_Node000001_Node000003" class="edge">
<title>Node1&#45;&gt;Node3</title>
<g id="a_edge2_Node000001_Node000003"><a xlink:title=" ">
<path fill="none" stroke="#63b8ff" d="M1198.52,-295.34C1185.18,-328.8 1156.98,-388.01 1114,-421.5 1109.52,-424.99 1104.62,-428.08 1099.49,-430.81"/>
<polygon fill="#63b8ff" stroke="#63b8ff" points="1201.85,-296.43 1202.18,-285.84 1195.32,-293.91 1201.85,-296.43"/>
</a>
</g>
</g>
<!-- Node4 -->
<g id="Node000004" class="node">
<title>Node4</title>
<g id="a_Node000004"><a xlink:href="classiii__drone_1_1control_1_1maneuver_1_1FlyToObjectManeuverServer.html#a207c2c72ecfb7376ef44bd986e00ccce" target="_top" xlink:title="Publishes the feedback.">
<polygon fill="white" stroke="#666666" points="646,-275 462,-275 462,-234 646,-234 646,-275"/>
<text text-anchor="start" x="470" y="-263" font-family="Helvetica,sans-Serif" font-size="10.00">iii_drone::control</text>
<text text-anchor="start" x="470" y="-252" font-family="Helvetica,sans-Serif" font-size="10.00">::maneuver::FlyToObjectManeuver</text>
<text text-anchor="middle" x="554" y="-241" font-family="Helvetica,sans-Serif" font-size="10.00">Server::publishFeedback</text>
</a>
</g>
</g>
<!-- Node1&#45;&gt;Node4 -->
<g id="edge3_Node000001_Node000004" class="edge">
<title>Node1&#45;&gt;Node4</title>
<g id="a_edge3_Node000001_Node000004"><a xlink:title=" ">
<path fill="none" stroke="#63b8ff" d="M1139.6,-267.43C1130.99,-267.09 1122.29,-266.77 1114,-266.5 949.06,-261.2 756.68,-257.65 646.03,-255.86"/>
<polygon fill="#63b8ff" stroke="#63b8ff" points="1139.52,-270.92 1149.65,-267.83 1139.8,-263.93 1139.52,-270.92"/>
</a>
</g>
</g>
<!-- Node5 -->
<g id="Node000005" class="node">
<title>Node5</title>
<g id="a_Node000005"><a xlink:href="classiii__drone_1_1control_1_1Reference.html#a35bfe2b61bbb5a41457c6712bd7203cf" target="_top" xlink:title=" ">
<polygon fill="white" stroke="#666666" points="1082.5,-364.5 954.5,-364.5 954.5,-334.5 1082.5,-334.5 1082.5,-364.5"/>
<text text-anchor="start" x="962.5" y="-352.5" font-family="Helvetica,sans-Serif" font-size="10.00">iii_drone::control</text>
<text text-anchor="middle" x="1018.5" y="-341.5" font-family="Helvetica,sans-Serif" font-size="10.00">::Reference::Reference</text>
</a>
</g>
</g>
<!-- Node1&#45;&gt;Node5 -->
<g id="edge4_Node000001_Node000005" class="edge">
<title>Node1&#45;&gt;Node5</title>
<g id="a_edge4_Node000001_Node000005"><a xlink:title=" ">
<path fill="none" stroke="#63b8ff" d="M1177,-291.42C1159.26,-302.82 1136.1,-316.41 1114,-325.5 1104.06,-329.59 1093.24,-333.13 1082.58,-336.13"/>
<polygon fill="#63b8ff" stroke="#63b8ff" points="1179.3,-294.1 1185.75,-285.7 1175.47,-288.24 1179.3,-294.1"/>
</a>
</g>
</g>
<!-- Node6 -->
<g id="Node000006" class="node">
<title>Node6</title>
<g id="a_Node000006"><a xlink:href="classiii__drone_1_1control_1_1TrajectoryGenerator.html#a584f2e31540f693d8acf36b852e8cb38" target="_top" xlink:title="Sets up the MPC.">
<polygon fill="white" stroke="#666666" points="1078,-316 959,-316 959,-275 1078,-275 1078,-316"/>
<text text-anchor="start" x="967" y="-304" font-family="Helvetica,sans-Serif" font-size="10.00">iii_drone::control</text>
<text text-anchor="start" x="967" y="-293" font-family="Helvetica,sans-Serif" font-size="10.00">::TrajectoryGenerator</text>
<text text-anchor="middle" x="1018.5" y="-282" font-family="Helvetica,sans-Serif" font-size="10.00">::setupMPC</text>
</a>
</g>
</g>
<!-- Node1&#45;&gt;Node6 -->
<g id="edge5_Node000001_Node000006" class="edge">
<title>Node1&#45;&gt;Node6</title>
<g id="a_edge5_Node000001_Node000006"><a xlink:title=" ">
<path fill="none" stroke="#63b8ff" d="M1139.75,-279.51C1119.56,-282.19 1097.6,-285.11 1078.05,-287.71"/>
<polygon fill="#63b8ff" stroke="#63b8ff" points="1140.36,-282.96 1149.82,-278.17 1139.44,-276.02 1140.36,-282.96"/>
</a>
</g>
</g>
<!-- Node10 -->
<g id="Node000010" class="node">
<title>Node10</title>
<g id="a_Node000010"><a xlink:href="classiii__drone_1_1adapters_1_1ReferenceAdapter.html#a56e8b2fdd992d460615cc6502eab7ba7" target="_top" xlink:title="Converts to msg.">
<polygon fill="white" stroke="#666666" points="1092,-412.5 945,-412.5 945,-382.5 1092,-382.5 1092,-412.5"/>
<text text-anchor="start" x="953" y="-400.5" font-family="Helvetica,sans-Serif" font-size="10.00">iii_drone::adapters</text>
<text text-anchor="middle" x="1018.5" y="-389.5" font-family="Helvetica,sans-Serif" font-size="10.00">::ReferenceAdapter::ToMsg</text>
</a>
</g>
</g>
<!-- Node1&#45;&gt;Node10 -->
<g id="edge9_Node000001_Node000010" class="edge">
<title>Node1&#45;&gt;Node10</title>
<g id="a_edge9_Node000001_Node000010"><a xlink:title=" ">
<path fill="none" stroke="#63b8ff" d="M1192.31,-294.08C1175.85,-317.72 1147.41,-353.42 1114,-373.5 1107.33,-377.51 1100,-380.86 1092.47,-383.64"/>
<polygon fill="#63b8ff" stroke="#63b8ff" points="1195.3,-295.91 1198.02,-285.67 1189.51,-291.98 1195.3,-295.91"/>
</a>
</g>
</g>
<!-- Node16 -->
<g id="Node000016" class="node">
<title>Node16</title>
<g id="a_Node000016"><a xlink:href="classiii__drone_1_1adapters_1_1ReferenceAdapter.html#aa8e55f2f2d08f81b59bb9e0b452dc0f7" target="_top" xlink:title="Converts to pose stamped msg.">
<polygon fill="white" stroke="#666666" points="1076.5,-218 960.5,-218 960.5,-177 1076.5,-177 1076.5,-218"/>
<text text-anchor="start" x="968.5" y="-206" font-family="Helvetica,sans-Serif" font-size="10.00">iii_drone::adapters</text>
<text text-anchor="start" x="968.5" y="-195" font-family="Helvetica,sans-Serif" font-size="10.00">::ReferenceAdapter::</text>
<text text-anchor="middle" x="1018.5" y="-184" font-family="Helvetica,sans-Serif" font-size="10.00">ToPoseStampedMsg</text>
</a>
</g>
</g>
<!-- Node1&#45;&gt;Node16 -->
<g id="edge18_Node000001_Node000016" class="edge">
<title>Node1&#45;&gt;Node16</title>
<g id="a_edge18_Node000001_Node000016"><a xlink:title=" ">
<path fill="none" stroke="#63b8ff" d="M1161.56,-251.49C1146.45,-245.33 1129.54,-238.54 1114,-232.5 1101.69,-227.72 1088.42,-222.71 1075.83,-218.03"/>
<polygon fill="#63b8ff" stroke="#63b8ff" points="1160.61,-254.89 1171.19,-255.44 1163.26,-248.41 1160.61,-254.89"/>
</a>
</g>
</g>
<!-- Node20 -->
<g id="Node000020" class="node">
<title>Node20</title>
<g id="a_Node000020"><a xlink:href="classiii__drone_1_1adapters_1_1px4_1_1TrajectorySetpointAdapter.html#a1c5d082bd10a5ddc1b0966b9b55c0e9b" target="_top" xlink:title="Constructor from iii_drone::adapters::ReferenceAdapter.">
<polygon fill="white" stroke="#666666" points="1105,-159 932,-159 932,-118 1105,-118 1105,-159"/>
<text text-anchor="start" x="940" y="-147" font-family="Helvetica,sans-Serif" font-size="10.00">iii_drone::adapters</text>
<text text-anchor="start" x="940" y="-136" font-family="Helvetica,sans-Serif" font-size="10.00">::px4::TrajectorySetpointAdapter</text>
<text text-anchor="middle" x="1018.5" y="-125" font-family="Helvetica,sans-Serif" font-size="10.00">::TrajectorySetpointAdapter</text>
</a>
</g>
</g>
<!-- Node1&#45;&gt;Node20 -->
<g id="edge26_Node000001_Node000020" class="edge">
<title>Node1&#45;&gt;Node20</title>
<g id="a_edge26_Node000001_Node000020"><a xlink:title=" ">
<path fill="none" stroke="#63b8ff" d="M1191.74,-247.17C1175,-224.07 1146.5,-189.24 1114,-168.5 1108.49,-164.98 1102.53,-161.85 1096.38,-159.06"/>
<polygon fill="#63b8ff" stroke="#63b8ff" points="1188.93,-249.25 1197.56,-255.39 1194.64,-245.21 1188.93,-249.25"/>
</a>
</g>
</g>
<!-- Node21 -->
<g id="Node000021" class="node">
<title>Node21</title>
<g id="a_Node000021"><a xlink:href="classiii__drone_1_1adapters_1_1px4_1_1TrajectorySetpointAdapter.html#ac1e2f8f8c6ef2c387256c6b59e0a3a6e" target="_top" xlink:title="Constructor from iii::control::Reference.">
<polygon fill="white" stroke="#666666" points="1105,-100 932,-100 932,-59 1105,-59 1105,-100"/>
<text text-anchor="start" x="940" y="-88" font-family="Helvetica,sans-Serif" font-size="10.00">iii_drone::adapters</text>
<text text-anchor="start" x="940" y="-77" font-family="Helvetica,sans-Serif" font-size="10.00">::px4::TrajectorySetpointAdapter</text>
<text text-anchor="middle" x="1018.5" y="-66" font-family="Helvetica,sans-Serif" font-size="10.00">::TrajectorySetpointAdapter</text>
</a>
</g>
</g>
<!-- Node1&#45;&gt;Node21 -->
<g id="edge27_Node000001_Node000021" class="edge">
<title>Node1&#45;&gt;Node21</title>
<g id="a_edge27_Node000001_Node000021"><a xlink:title=" ">
<path fill="none" stroke="#63b8ff" d="M1199.8,-245.9C1187.44,-210.36 1159.78,-144.96 1114,-108.5 1110.11,-105.4 1105.88,-102.63 1101.45,-100.15"/>
<polygon fill="#63b8ff" stroke="#63b8ff" points="1196.52,-247.12 1203.02,-255.49 1203.16,-244.9 1196.52,-247.12"/>
</a>
</g>
</g>
<!-- Node22 -->
<g id="Node000022" class="node">
<title>Node22</title>
<g id="a_Node000022"><a xlink:href="classiii__drone_1_1control_1_1maneuver_1_1HoverManeuverServer.html#a1916ac7629d7c121ceaf342a7e979377" target="_top" xlink:title="Updates the hover reference.">
<polygon fill="white" stroke="#666666" points="1112.5,-41 924.5,-41 924.5,0 1112.5,0 1112.5,-41"/>
<text text-anchor="start" x="932.5" y="-29" font-family="Helvetica,sans-Serif" font-size="10.00">iii_drone::control</text>
<text text-anchor="start" x="932.5" y="-18" font-family="Helvetica,sans-Serif" font-size="10.00">::maneuver::HoverManeuverServer</text>
<text text-anchor="middle" x="1018.5" y="-7" font-family="Helvetica,sans-Serif" font-size="10.00">::Update</text>
</a>
</g>
</g>
<!-- Node1&#45;&gt;Node22 -->
<g id="edge28_Node000001_Node000022" class="edge">
<title>Node1&#45;&gt;Node22</title>
<g id="a_edge28_Node000001_Node000022"><a xlink:title=" ">
<path fill="none" stroke="#63b8ff" d="M1203.92,-245.43C1196.09,-199.77 1173.13,-102.86 1114,-49.5 1110.56,-46.4 1106.79,-43.62 1102.81,-41.15"/>
<polygon fill="#63b8ff" stroke="#63b8ff" points="1200.48,-246.06 1205.53,-255.37 1207.39,-244.94 1200.48,-246.06"/>
</a>
</g>
</g>
<!-- Node7 -->
<g id="Node000007" class="node">
<title>Node7</title>
<g id="a_Node000007"><a xlink:href="classiii__drone_1_1control_1_1TrajectoryGenerator.html#a78eab9ed7ef8b604e5753192fbf8561b" target="_top" xlink:title="Computes the reference trajectory for the MPC.">
<polygon fill="white" stroke="#666666" points="872,-321 708,-321 708,-280 872,-280 872,-321"/>
<text text-anchor="start" x="716" y="-309" font-family="Helvetica,sans-Serif" font-size="10.00">iii_drone::control</text>
<text text-anchor="start" x="716" y="-298" font-family="Helvetica,sans-Serif" font-size="10.00">::TrajectoryGenerator</text>
<text text-anchor="middle" x="790" y="-287" font-family="Helvetica,sans-Serif" font-size="10.00">::ComputeReferenceTrajectory</text>
</a>
</g>
</g>
<!-- Node6&#45;&gt;Node7 -->
<g id="edge6_Node000006_Node000007" class="edge">
<title>Node6&#45;&gt;Node7</title>
<g id="a_edge6_Node000006_Node000007"><a xlink:title=" ">
<path fill="none" stroke="#63b8ff" d="M948.77,-297.02C924.69,-297.55 897.42,-298.15 872.41,-298.7"/>
<polygon fill="#63b8ff" stroke="#63b8ff" points="948.96,-300.51 958.88,-296.79 948.8,-293.52 948.96,-300.51"/>
</a>
</g>
</g>
<!-- Node8 -->
<g id="Node000008" class="node">
<title>Node8</title>
<g id="a_Node000008"><a xlink:href="classiii__drone_1_1control_1_1trajectory__generator__node_1_1TrajectoryGeneratorNode.html#aefc447399b185fef5b912770b5059936" target="_top" xlink:title="The compute reference trajectory service callback.">
<polygon fill="white" stroke="#666666" points="415,-270.5 210,-270.5 210,-218.5 415,-218.5 415,-270.5"/>
<text text-anchor="start" x="218" y="-258.5" font-family="Helvetica,sans-Serif" font-size="10.00">iii_drone::control</text>
<text text-anchor="start" x="218" y="-247.5" font-family="Helvetica,sans-Serif" font-size="10.00">::trajectory_generator</text>
<text text-anchor="start" x="218" y="-236.5" font-family="Helvetica,sans-Serif" font-size="10.00">_node::TrajectoryGeneratorNode</text>
<text text-anchor="middle" x="312.5" y="-225.5" font-family="Helvetica,sans-Serif" font-size="10.00">::computeReferenceTrajectoryCallback</text>
</a>
</g>
</g>
<!-- Node7&#45;&gt;Node8 -->
<g id="edge7_Node000007_Node000008" class="edge">
<title>Node7&#45;&gt;Node8</title>
<g id="a_edge7_Node000007_Node000008"><a xlink:title=" ">
<path fill="none" stroke="#63b8ff" d="M697.54,-301.97C629.18,-301.67 533.68,-298.28 451,-284.5 431.38,-281.23 410.6,-276.1 391.29,-270.58"/>
<polygon fill="#63b8ff" stroke="#63b8ff" points="697.84,-305.47 707.85,-302 697.86,-298.47 697.84,-305.47"/>
</a>
</g>
</g>
<!-- Node9 -->
<g id="Node000009" class="node">
<title>Node9</title>
<g id="a_Node000009"><a xlink:href="classiii__drone_1_1control_1_1trajectory__generator__node_1_1TrajectoryGeneratorNode.html#ac58d9ceab1e2ecc71cb971a5f360bc00" target="_top" xlink:title=" ">
<polygon fill="white" stroke="#666666" points="174,-213.5 0,-213.5 0,-161.5 174,-161.5 174,-213.5"/>
<text text-anchor="start" x="8" y="-201.5" font-family="Helvetica,sans-Serif" font-size="10.00">iii_drone::control</text>
<text text-anchor="start" x="8" y="-190.5" font-family="Helvetica,sans-Serif" font-size="10.00">::trajectory_generator</text>
<text text-anchor="start" x="8" y="-179.5" font-family="Helvetica,sans-Serif" font-size="10.00">_node::TrajectoryGeneratorNode</text>
<text text-anchor="middle" x="87" y="-168.5" font-family="Helvetica,sans-Serif" font-size="10.00">::TrajectoryGeneratorNode</text>
</a>
</g>
</g>
<!-- Node8&#45;&gt;Node9 -->
<g id="edge8_Node000008_Node000009" class="edge">
<title>Node8&#45;&gt;Node9</title>
<g id="a_edge8_Node000008_Node000009"><a xlink:title=" ">
<path fill="none" stroke="#63b8ff" d="M200.12,-216.09C191.46,-213.89 182.79,-211.68 174.34,-209.52"/>
<polygon fill="#63b8ff" stroke="#63b8ff" points="199.33,-219.51 209.89,-218.59 201.06,-212.72 199.33,-219.51"/>
</a>
</g>
</g>
<!-- Node11 -->
<g id="Node000011" class="node">
<title>Node11</title>
<g id="a_Node000011"><a xlink:href="classiii__drone_1_1control_1_1TrajectoryGeneratorClient.html#a2b3ee03aed559d8c1ea8d052336d25ff" target="_top" xlink:title="Starts generating a trajectory.">
<polygon fill="white" stroke="#666666" points="887,-448 693,-448 693,-407 887,-407 887,-448"/>
<text text-anchor="start" x="701" y="-436" font-family="Helvetica,sans-Serif" font-size="10.00">iii_drone::control</text>
<text text-anchor="start" x="701" y="-425" font-family="Helvetica,sans-Serif" font-size="10.00">::TrajectoryGeneratorClient</text>
<text text-anchor="middle" x="790" y="-414" font-family="Helvetica,sans-Serif" font-size="10.00">::ComputeReferenceTrajectoryAsync</text>
</a>
</g>
</g>
<!-- Node10&#45;&gt;Node11 -->
<g id="edge10_Node000010_Node000011" class="edge">
<title>Node10&#45;&gt;Node11</title>
<g id="a_edge10_Node000010_Node000011"><a xlink:title=" ">
<path fill="none" stroke="#63b8ff" d="M934.85,-408.45C919.35,-410.5 903.03,-412.66 887.17,-414.76"/>
<polygon fill="#63b8ff" stroke="#63b8ff" points="935.45,-411.9 944.9,-407.12 934.53,-404.96 935.45,-411.9"/>
</a>
</g>
</g>
<!-- Node15 -->
<g id="Node000015" class="node">
<title>Node15</title>
<g id="a_Node000015"><a xlink:href="classiii__drone_1_1adapters_1_1ReferenceTrajectoryAdapter.html#a1a7886f7329ea52f8d9eed2e17f5066f" target="_top" xlink:title="Converts to msg.">
<polygon fill="white" stroke="#666666" points="869,-386 711,-386 711,-345 869,-345 869,-386"/>
<text text-anchor="start" x="719" y="-374" font-family="Helvetica,sans-Serif" font-size="10.00">iii_drone::adapters</text>
<text text-anchor="start" x="719" y="-363" font-family="Helvetica,sans-Serif" font-size="10.00">::ReferenceTrajectoryAdapter</text>
<text text-anchor="middle" x="790" y="-352" font-family="Helvetica,sans-Serif" font-size="10.00">::ToMsg</text>
</a>
</g>
</g>
<!-- Node10&#45;&gt;Node15 -->
<g id="edge16_Node000010_Node000015" class="edge">
<title>Node10&#45;&gt;Node15</title>
<g id="a_edge16_Node000010_Node000015"><a xlink:title=" ">
<path fill="none" stroke="#63b8ff" d="M934.83,-385.82C913.35,-382.79 890.29,-379.53 869.06,-376.53"/>
<polygon fill="#63b8ff" stroke="#63b8ff" points="934.51,-389.31 944.9,-387.24 935.49,-382.38 934.51,-389.31"/>
</a>
</g>
</g>
<!-- Node12 -->
<g id="Node000012" class="node">
<title>Node12</title>
<g id="a_Node000012"><a xlink:href="classiii__drone_1_1control_1_1maneuver_1_1FlyToObjectManeuverServer.html#a2ace3412e0d42d07a39c553c89ab0c6a" target="_top" xlink:title="Compute the reference.">
<polygon fill="white" stroke="#666666" points="404.5,-410 220.5,-410 220.5,-369 404.5,-369 404.5,-410"/>
<text text-anchor="start" x="228.5" y="-398" font-family="Helvetica,sans-Serif" font-size="10.00">iii_drone::control</text>
<text text-anchor="start" x="228.5" y="-387" font-family="Helvetica,sans-Serif" font-size="10.00">::maneuver::FlyToObjectManeuver</text>
<text text-anchor="middle" x="312.5" y="-376" font-family="Helvetica,sans-Serif" font-size="10.00">Server::computeReference</text>
</a>
</g>
</g>
<!-- Node11&#45;&gt;Node12 -->
<g id="edge11_Node000011_Node000012" class="edge">
<title>Node11&#45;&gt;Node12</title>
<g id="a_edge11_Node000011_Node000012"><a xlink:title=" ">
<path fill="none" stroke="#63b8ff" d="M693.01,-405.04C680.94,-402.84 668.72,-400.9 657,-399.5 571.84,-389.31 474.01,-387.41 404.59,-387.71"/>
<polygon fill="#63b8ff" stroke="#63b8ff" points="692.63,-408.53 703.1,-406.95 693.93,-401.65 692.63,-408.53"/>
</a>
</g>
</g>
<!-- Node13 -->
<g id="Node000013" class="node">
<title>Node13</title>
<g id="a_Node000013"><a xlink:href="classiii__drone_1_1control_1_1maneuver_1_1FlyToPositionManeuverServer.html#ac13004e478653d73361c3569e11870dc" target="_top" xlink:title="Compute the reference.">
<polygon fill="white" stroke="#666666" points="408,-488 217,-488 217,-447 408,-447 408,-488"/>
<text text-anchor="start" x="225" y="-476" font-family="Helvetica,sans-Serif" font-size="10.00">iii_drone::control</text>
<text text-anchor="start" x="225" y="-465" font-family="Helvetica,sans-Serif" font-size="10.00">::maneuver::FlyToPositionManeuver</text>
<text text-anchor="middle" x="312.5" y="-454" font-family="Helvetica,sans-Serif" font-size="10.00">Server::computeReference</text>
</a>
</g>
</g>
<!-- Node11&#45;&gt;Node13 -->
<g id="edge12_Node000011_Node000013" class="edge">
<title>Node11&#45;&gt;Node13</title>
<g id="a_edge12_Node000011_Node000013"><a xlink:title=" ">
<path fill="none" stroke="#63b8ff" d="M703.41,-450.28C688.06,-453.59 672.13,-456.55 657,-458.5 573.43,-469.29 477.51,-470.92 408.3,-470.2"/>
<polygon fill="#63b8ff" stroke="#63b8ff" points="704.4,-453.64 713.4,-448.05 702.88,-446.81 704.4,-453.64"/>
</a>
</g>
</g>
<!-- Node14 -->
<g id="Node000014" class="node">
<title>Node14</title>
<g id="a_Node000014"><a xlink:href="classiii__drone_1_1control_1_1TrajectoryGeneratorClient.html#a0e32180d729e74d24edeef891d1ac843" target="_top" xlink:title="Generates a trajectory and blocks until it is done.">
<polygon fill="white" stroke="#666666" points="657,-449 451,-449 451,-408 657,-408 657,-449"/>
<text text-anchor="start" x="459" y="-437" font-family="Helvetica,sans-Serif" font-size="10.00">iii_drone::control</text>
<text text-anchor="start" x="459" y="-426" font-family="Helvetica,sans-Serif" font-size="10.00">::TrajectoryGeneratorClient</text>
<text text-anchor="middle" x="554" y="-415" font-family="Helvetica,sans-Serif" font-size="10.00">::ComputeReferenceTrajectoryBlocking</text>
</a>
</g>
</g>
<!-- Node11&#45;&gt;Node14 -->
<g id="edge13_Node000011_Node000014" class="edge">
<title>Node11&#45;&gt;Node14</title>
<g id="a_edge13_Node000011_Node000014"><a xlink:title=" ">
<path fill="none" stroke="#63b8ff" d="M682.58,-427.95C674.16,-427.99 665.66,-428.03 657.27,-428.06"/>
<polygon fill="#63b8ff" stroke="#63b8ff" points="682.83,-431.45 692.81,-427.91 682.8,-424.45 682.83,-431.45"/>
</a>
</g>
</g>
<!-- Node14&#45;&gt;Node12 -->
<g id="edge14_Node000014_Node000012" class="edge">
<title>Node14&#45;&gt;Node12</title>
<g id="a_edge14_Node000014_Node000012"><a xlink:title=" ">
<path fill="none" stroke="#63b8ff" d="M440.68,-410.21C428.67,-408.25 416.55,-406.28 404.82,-404.37"/>
<polygon fill="#63b8ff" stroke="#63b8ff" points="440.3,-413.69 450.74,-411.85 441.43,-406.79 440.3,-413.69"/>
</a>
</g>
</g>
<!-- Node14&#45;&gt;Node13 -->
<g id="edge15_Node000014_Node000013" class="edge">
<title>Node14&#45;&gt;Node13</title>
<g id="a_edge15_Node000014_Node000013"><a xlink:title=" ">
<path fill="none" stroke="#63b8ff" d="M440.77,-446.78C429.88,-448.55 418.91,-450.34 408.21,-452.08"/>
<polygon fill="#63b8ff" stroke="#63b8ff" points="441.43,-450.21 450.74,-445.15 440.3,-443.31 441.43,-450.21"/>
</a>
</g>
</g>
<!-- Node15&#45;&gt;Node8 -->
<g id="edge17_Node000015_Node000008" class="edge">
<title>Node15&#45;&gt;Node8</title>
<g id="a_edge17_Node000015_Node000008"><a xlink:title=" ">
<path fill="none" stroke="#63b8ff" d="M700.88,-356.26C631.83,-347.56 533.9,-331.98 451,-306.5 420.96,-297.27 388.87,-283.07 363.26,-270.59"/>
<polygon fill="#63b8ff" stroke="#63b8ff" points="700.49,-359.74 710.85,-357.5 701.35,-352.79 700.49,-359.74"/>
</a>
</g>
</g>
<!-- Node17 -->
<g id="Node000017" class="node">
<title>Node17</title>
<g id="a_Node000017"><a xlink:href="classiii__drone_1_1control_1_1trajectory__generator__node_1_1TrajectoryGeneratorNode.html#a25bc69c79e137bb796ce2fea69bafe57" target="_top" xlink:title="Publishes the currently planned trajectory.">
<polygon fill="white" stroke="#666666" points="641,-156.5 467,-156.5 467,-104.5 641,-104.5 641,-156.5"/>
<text text-anchor="start" x="475" y="-144.5" font-family="Helvetica,sans-Serif" font-size="10.00">iii_drone::control</text>
<text text-anchor="start" x="475" y="-133.5" font-family="Helvetica,sans-Serif" font-size="10.00">::trajectory_generator</text>
<text text-anchor="start" x="475" y="-122.5" font-family="Helvetica,sans-Serif" font-size="10.00">_node::TrajectoryGeneratorNode</text>
<text text-anchor="middle" x="554" y="-111.5" font-family="Helvetica,sans-Serif" font-size="10.00">::publishPlannedTrajectory</text>
</a>
</g>
</g>
<!-- Node16&#45;&gt;Node17 -->
<g id="edge19_Node000016_Node000017" class="edge">
<title>Node16&#45;&gt;Node17</title>
<g id="a_edge19_Node000016_Node000017"><a xlink:title=" ">
<path fill="none" stroke="#63b8ff" d="M950.51,-180.55C930.21,-175.83 907.78,-171.03 887,-167.5 803.95,-153.38 708.27,-143.37 641.02,-137.35"/>
<polygon fill="#63b8ff" stroke="#63b8ff" points="949.76,-183.96 960.29,-182.85 951.36,-177.15 949.76,-183.96"/>
</a>
</g>
</g>
<!-- Node18 -->
<g id="Node000018" class="node">
<title>Node18</title>
<g id="a_Node000018"><a xlink:href="classiii__drone_1_1adapters_1_1ReferenceTrajectoryAdapter.html#aa29c58cadc42cf79a2fb56426a2b678f" target="_top" xlink:title="Converts to Path msg.">
<polygon fill="white" stroke="#666666" points="869,-217 711,-217 711,-176 869,-176 869,-217"/>
<text text-anchor="start" x="719" y="-205" font-family="Helvetica,sans-Serif" font-size="10.00">iii_drone::adapters</text>
<text text-anchor="start" x="719" y="-194" font-family="Helvetica,sans-Serif" font-size="10.00">::ReferenceTrajectoryAdapter</text>
<text text-anchor="middle" x="790" y="-183" font-family="Helvetica,sans-Serif" font-size="10.00">::ToPathMsg</text>
</a>
</g>
</g>
<!-- Node16&#45;&gt;Node18 -->
<g id="edge22_Node000016_Node000018" class="edge">
<title>Node16&#45;&gt;Node18</title>
<g id="a_edge22_Node000016_Node000018"><a xlink:title=" ">
<path fill="none" stroke="#63b8ff" d="M950.05,-197.2C924.6,-197.09 895.44,-196.96 869.1,-196.84"/>
<polygon fill="#63b8ff" stroke="#63b8ff" points="950.33,-200.7 960.34,-197.25 950.36,-193.7 950.33,-200.7"/>
</a>
</g>
</g>
<!-- Node17&#45;&gt;Node8 -->
<g id="edge20_Node000017_Node000008" class="edge">
<title>Node17&#45;&gt;Node8</title>
<g id="a_edge20_Node000017_Node000008"><a xlink:title=" ">
<path fill="none" stroke="#63b8ff" d="M465.3,-160.31C460.43,-162.32 455.63,-164.39 451,-166.5 417.66,-181.7 381.7,-202.25 354.92,-218.45"/>
<polygon fill="#63b8ff" stroke="#63b8ff" points="466.77,-163.49 474.75,-156.52 464.16,-157 466.77,-163.49"/>
</a>
</g>
</g>
<!-- Node17&#45;&gt;Node9 -->
<g id="edge21_Node000017_Node000009" class="edge">
<title>Node17&#45;&gt;Node9</title>
<g id="a_edge21_Node000017_Node000009"><a xlink:title=" ">
<path fill="none" stroke="#63b8ff" d="M456.93,-142.28C373.64,-152.49 254.21,-167.13 174.01,-176.96"/>
<polygon fill="#63b8ff" stroke="#63b8ff" points="457.4,-145.75 466.9,-141.05 456.55,-138.8 457.4,-145.75"/>
</a>
</g>
</g>
<!-- Node18&#45;&gt;Node4 -->
<g id="edge23_Node000018_Node000004" class="edge">
<title>Node18&#45;&gt;Node4</title>
<g id="a_edge23_Node000018_Node000004"><a xlink:title=" ">
<path fill="none" stroke="#63b8ff" d="M701.05,-218.3C680.38,-223.42 658.42,-228.87 637.98,-233.93"/>
<polygon fill="#63b8ff" stroke="#63b8ff" points="701.89,-221.7 710.76,-215.89 700.21,-214.9 701.89,-221.7"/>
</a>
</g>
</g>
<!-- Node18&#45;&gt;Node17 -->
<g id="edge25_Node000018_Node000017" class="edge">
<title>Node18&#45;&gt;Node17</title>
<g id="a_edge25_Node000018_Node000017"><a xlink:title=" ">
<path fill="none" stroke="#63b8ff" d="M706.36,-173.19C685.26,-167.24 662.53,-160.83 641.26,-154.83"/>
<polygon fill="#63b8ff" stroke="#63b8ff" points="705.67,-176.63 716.24,-175.98 707.57,-169.9 705.67,-176.63"/>
</a>
</g>
</g>
<!-- Node19 -->
<g id="Node000019" class="node">
<title>Node19</title>
<g id="a_Node000019"><a xlink:href="classiii__drone_1_1control_1_1maneuver_1_1FlyToPositionManeuverServer.html#a5918df6e93a4e3b9c9a500bab1c17c6b" target="_top" xlink:title="Publishes the feedback.">
<polygon fill="white" stroke="#666666" points="649.5,-216 458.5,-216 458.5,-175 649.5,-175 649.5,-216"/>
<text text-anchor="start" x="466.5" y="-204" font-family="Helvetica,sans-Serif" font-size="10.00">iii_drone::control</text>
<text text-anchor="start" x="466.5" y="-193" font-family="Helvetica,sans-Serif" font-size="10.00">::maneuver::FlyToPositionManeuver</text>
<text text-anchor="middle" x="554" y="-182" font-family="Helvetica,sans-Serif" font-size="10.00">Server::publishFeedback</text>
</a>
</g>
</g>
<!-- Node18&#45;&gt;Node19 -->
<g id="edge24_Node000018_Node000019" class="edge">
<title>Node18&#45;&gt;Node19</title>
<g id="a_edge24_Node000018_Node000019"><a xlink:title=" ">
<path fill="none" stroke="#63b8ff" d="M700.55,-196.12C683.98,-196.05 666.59,-195.98 649.83,-195.91"/>
<polygon fill="#63b8ff" stroke="#63b8ff" points="700.74,-199.62 710.76,-196.17 700.77,-192.62 700.74,-199.62"/>
</a>
</g>
</g>
</g>
</svg>
