<?xml version="1.0" encoding="UTF-8" standalone="no"?>
<!DOCTYPE svg PUBLIC "-//W3C//DTD SVG 1.1//EN"
 "http://www.w3.org/Graphics/SVG/1.1/DTD/svg11.dtd">
<!-- Generated by graphviz version 2.43.0 (0)
 -->
<!-- Title: iii_drone::control::TrajectoryGenerator::setupMPC Pages: 1 -->
<svg width="280pt" height="182pt"
 viewBox="0.00 0.00 280.00 182.00" xmlns="http://www.w3.org/2000/svg" xmlns:xlink="http://www.w3.org/1999/xlink">

<svg id="main" version="1.1" xmlns="http://www.w3.org/2000/svg" xmlns:xlink="http://www.w3.org/1999/xlink" xml:space="preserve" onload="init(evt)">
<style type="text/css"><![CDATA[
.node, .edge {opacity: 0.7;}
.node.selected, .edge.selected {opacity: 1;}
.edge:hover path { stroke: red; }
.edge:hover polygon { stroke: red; fill: red; }
]]></style>
<script type="application/ecmascript" xlink:href="svg.min.js"/>
<svg id="graph" class="graph">
<g id="graph0" class="graph" transform="scale(1 1) rotate(0) translate(4 178)">
<title>iii_drone::control::TrajectoryGenerator::setupMPC</title>
<!-- Node1 -->
<g id="Node000001" class="node">
<title>Node1</title>
<g id="a_Node000001"><a xlink:title="Sets up the MPC.">
<polygon fill="#999999" stroke="#666666" points="119,-107.5 0,-107.5 0,-66.5 119,-66.5 119,-107.5"/>
<text text-anchor="start" x="8" y="-95.5" font-family="Helvetica,sans-Serif" font-size="10.00">iii_drone::control</text>
<text text-anchor="start" x="8" y="-84.5" font-family="Helvetica,sans-Serif" font-size="10.00">::TrajectoryGenerator</text>
<text text-anchor="middle" x="59.5" y="-73.5" font-family="Helvetica,sans-Serif" font-size="10.00">::setupMPC</text>
</a>
</g>
</g>
<!-- Node2 -->
<g id="Node000002" class="node">
<title>Node2</title>
<g id="a_Node000002"><a xlink:href="classiii__drone_1_1control_1_1Reference.html#a2ba5647e5161e35e0588394dcae0663b" target="_top" xlink:title=" ">
<polygon fill="white" stroke="#666666" points="272,-174 155,-174 155,-144 272,-144 272,-174"/>
<text text-anchor="start" x="163" y="-162" font-family="Helvetica,sans-Serif" font-size="10.00">iii_drone::control</text>
<text text-anchor="middle" x="213.5" y="-151" font-family="Helvetica,sans-Serif" font-size="10.00">::Reference::position</text>
</a>
</g>
</g>
<!-- Node1&#45;&gt;Node2 -->
<g id="edge1_Node000001_Node000002" class="edge">
<title>Node1&#45;&gt;Node2</title>
<g id="a_edge1_Node000001_Node000002"><a xlink:title=" ">
<path fill="none" stroke="#63b8ff" d="M99.26,-107.51C116.23,-116.27 136.46,-126.44 155,-135 158.54,-136.64 162.23,-138.29 165.95,-139.92"/>
<polygon fill="#63b8ff" stroke="#63b8ff" points="164.64,-143.16 175.21,-143.91 167.41,-136.74 164.64,-143.16"/>
</a>
</g>
</g>
<!-- Node3 -->
<g id="Node000003" class="node">
<title>Node3</title>
<g id="a_Node000003"><a xlink:href="classiii__drone_1_1control_1_1State.html#ac7d02a667c215a72d7f7f2fdf1501eb4" target="_top" xlink:title=" ">
<polygon fill="white" stroke="#666666" points="262.5,-126 164.5,-126 164.5,-96 262.5,-96 262.5,-126"/>
<text text-anchor="start" x="172.5" y="-114" font-family="Helvetica,sans-Serif" font-size="10.00">iii_drone::control</text>
<text text-anchor="middle" x="213.5" y="-103" font-family="Helvetica,sans-Serif" font-size="10.00">::State::position</text>
</a>
</g>
</g>
<!-- Node1&#45;&gt;Node3 -->
<g id="edge2_Node000001_Node000003" class="edge">
<title>Node1&#45;&gt;Node3</title>
<g id="a_edge2_Node000001_Node000003"><a xlink:title=" ">
<path fill="none" stroke="#63b8ff" d="M119.27,-96.28C130.77,-98.1 142.83,-100 154.31,-101.81"/>
<polygon fill="#63b8ff" stroke="#63b8ff" points="153.8,-105.27 164.22,-103.38 154.89,-98.36 153.8,-105.27"/>
</a>
</g>
</g>
<!-- Node4 -->
<g id="Node000004" class="node">
<title>Node4</title>
<g id="a_Node000004"><a xlink:href="classiii__drone_1_1control_1_1Reference.html#a5d85fddf537e6663badb5654a23a4bce" target="_top" xlink:title=" ">
<polygon fill="white" stroke="#666666" points="272,-78 155,-78 155,-48 272,-48 272,-78"/>
<text text-anchor="start" x="163" y="-66" font-family="Helvetica,sans-Serif" font-size="10.00">iii_drone::control</text>
<text text-anchor="middle" x="213.5" y="-55" font-family="Helvetica,sans-Serif" font-size="10.00">::Reference::velocity</text>
</a>
</g>
</g>
<!-- Node1&#45;&gt;Node4 -->
<g id="edge3_Node000001_Node000004" class="edge">
<title>Node1&#45;&gt;Node4</title>
<g id="a_edge3_Node000001_Node000004"><a xlink:title=" ">
<path fill="none" stroke="#63b8ff" d="M119.27,-77.72C127.67,-76.39 136.38,-75.02 144.94,-73.67"/>
<polygon fill="#63b8ff" stroke="#63b8ff" points="145.56,-77.11 154.89,-72.1 144.47,-70.2 145.56,-77.11"/>
</a>
</g>
</g>
<!-- Node5 -->
<g id="Node000005" class="node">
<title>Node5</title>
<g id="a_Node000005"><a xlink:href="classiii__drone_1_1control_1_1State.html#a0cf0c57ba34058c7ba14581c17e82f0b" target="_top" xlink:title=" ">
<polygon fill="white" stroke="#666666" points="262.5,-30 164.5,-30 164.5,0 262.5,0 262.5,-30"/>
<text text-anchor="start" x="172.5" y="-18" font-family="Helvetica,sans-Serif" font-size="10.00">iii_drone::control</text>
<text text-anchor="middle" x="213.5" y="-7" font-family="Helvetica,sans-Serif" font-size="10.00">::State::velocity</text>
</a>
</g>
</g>
<!-- Node1&#45;&gt;Node5 -->
<g id="edge4_Node000001_Node000005" class="edge">
<title>Node1&#45;&gt;Node5</title>
<g id="a_edge4_Node000001_Node000005"><a xlink:title=" ">
<path fill="none" stroke="#63b8ff" d="M99.26,-66.49C116.23,-57.73 136.46,-47.56 155,-39 158.54,-37.36 162.23,-35.71 165.95,-34.08"/>
<polygon fill="#63b8ff" stroke="#63b8ff" points="167.41,-37.26 175.21,-30.09 164.64,-30.84 167.41,-37.26"/>
</a>
</g>
</g>
</g>
</svg>
</svg>

<style type='text/css'>
<![CDATA[
[data-mouse-over-selected='false'] { opacity: 0.7; }
[data-mouse-over-selected='true']  { opacity: 1.0; }
]]>
</style>
<script type="application/ecmascript"><![CDATA[
document.addEventListener('DOMContentLoaded', (event) => {
  highlightEdges();
  highlightAdjacentNodes();
});
]]></script>
</svg>
