<?xml version="1.0" encoding="UTF-8" standalone="no"?>
<!DOCTYPE svg PUBLIC "-//W3C//DTD SVG 1.1//EN"
 "http://www.w3.org/Graphics/SVG/1.1/DTD/svg11.dtd">
<!-- Generated by graphviz version 2.43.0 (0)
 -->
<!-- Title: iii_drone::perception::hough_transformer_node::HoughTransformerNode Pages: 1 -->
<svg width="161pt" height="239pt"
 viewBox="0.00 0.00 161.00 239.00" xmlns="http://www.w3.org/2000/svg" xmlns:xlink="http://www.w3.org/1999/xlink">
<g id="graph0" class="graph" transform="scale(1 1) rotate(0) translate(4 235)">
<title>iii_drone::perception::hough_transformer_node::HoughTransformerNode</title>
<!-- Node1 -->
<g id="Node000001" class="node">
<title>Node1</title>
<g id="a_Node000001"><a xlink:title="Node for computing hough transform on images to detect powerline direction.">
<polygon fill="#999999" stroke="transparent" points="153,-146 0,-146 0,0 153,0 153,-146"/>
<text text-anchor="start" x="12.5" y="-134" font-family="Helvetica,sans-Serif" font-size="10.00">iii_drone::perception</text>
<text text-anchor="start" x="12.5" y="-123" font-family="Helvetica,sans-Serif" font-size="10.00">::hough_transformer_node</text>
<text text-anchor="start" x="16" y="-112" font-family="Helvetica,sans-Serif" font-size="10.00">::HoughTransformerNode</text>
<text text-anchor="start" x="7" y="-97" font-family="Helvetica,sans-Serif" font-size="10.00">&#45;</text>
<text text-anchor="start" x="17.5" y="-97" font-family="Helvetica,sans-Serif" font-size="10.00">configurator_</text>
<text text-anchor="start" x="7" y="-82" font-family="Helvetica,sans-Serif" font-size="10.00">&#45;</text>
<text text-anchor="start" x="17.5" y="-82" font-family="Helvetica,sans-Serif" font-size="10.00">hough_transformer_</text>
<text text-anchor="start" x="7" y="-67" font-family="Helvetica,sans-Serif" font-size="10.00">&#45;</text>
<text text-anchor="start" x="17.5" y="-67" font-family="Helvetica,sans-Serif" font-size="10.00">camera_subscription_</text>
<text text-anchor="start" x="7" y="-52" font-family="Helvetica,sans-Serif" font-size="10.00">&#45;</text>
<text text-anchor="start" x="17.5" y="-52" font-family="Helvetica,sans-Serif" font-size="10.00">cable_yaw_publisher_</text>
<text text-anchor="start" x="4.5" y="-37" font-family="Helvetica,sans-Serif" font-size="10.00">+</text>
<text text-anchor="start" x="17.5" y="-37" font-family="Helvetica,sans-Serif" font-size="10.00">HoughTransformerNode()</text>
<text text-anchor="start" x="4.5" y="-22" font-family="Helvetica,sans-Serif" font-size="10.00">+</text>
<text text-anchor="start" x="17.5" y="-22" font-family="Helvetica,sans-Serif" font-size="10.00">~HoughTransformerNode()</text>
<text text-anchor="start" x="7" y="-7" font-family="Helvetica,sans-Serif" font-size="10.00">&#45;</text>
<text text-anchor="start" x="17.5" y="-7" font-family="Helvetica,sans-Serif" font-size="10.00">OnCameraMsg()</text>
<polygon fill="#666666" stroke="#666666" points="0.5,-107 0.5,-107 153.5,-107 153.5,-107 0.5,-107"/>
<polygon fill="#666666" stroke="#666666" points="0.5,-47 0.5,-47 15.5,-47 15.5,-47 0.5,-47"/>
<polygon fill="#666666" stroke="#666666" points="15.5,-47 15.5,-47 153.5,-47 153.5,-47 15.5,-47"/>
<polygon fill="none" stroke="#666666" points="0,0 0,-146 153,-146 153,0 0,0"/>
</a>
</g>
</g>
<!-- Node2 -->
<g id="Node000002" class="node">
<title>Node2</title>
<g id="a_Node000002"><a xlink:title=" ">
<polygon fill="white" stroke="transparent" points="112,-231 41,-231 41,-182 112,-182 112,-231"/>
<text text-anchor="start" x="46.5" y="-218.5" font-family="Helvetica,sans-Serif" font-size="10.00">rclcpp::Node</text>
<text text-anchor="start" x="75" y="-203.5" font-family="Helvetica,sans-Serif" font-size="10.00"> </text>
<text text-anchor="start" x="75" y="-188.5" font-family="Helvetica,sans-Serif" font-size="10.00"> </text>
<polygon fill="#666666" stroke="#666666" points="41.5,-213.5 41.5,-213.5 112.5,-213.5 112.5,-213.5 41.5,-213.5"/>
<polygon fill="#666666" stroke="#666666" points="41.5,-198.5 41.5,-198.5 112.5,-198.5 112.5,-198.5 41.5,-198.5"/>
<polygon fill="none" stroke="#666666" points="41,-182 41,-231 112,-231 112,-182 41,-182"/>
</a>
</g>
</g>
<!-- Node2&#45;&gt;Node1 -->
<g id="edge1_Node000001_Node000002" class="edge">
<title>Node2&#45;&gt;Node1</title>
<g id="a_edge1_Node000001_Node000002"><a xlink:title=" ">
<path fill="none" stroke="#63b8ff" d="M76.5,-171.73C76.5,-163.78 76.5,-155.01 76.5,-146.08"/>
<polygon fill="none" stroke="#63b8ff" points="73,-171.99 76.5,-181.99 80,-171.99 73,-171.99"/>
</a>
</g>
</g>
</g>
</svg>
