<?xml version="1.0" encoding="UTF-8" standalone="no"?>
<!DOCTYPE svg PUBLIC "-//W3C//DTD SVG 1.1//EN"
 "http://www.w3.org/Graphics/SVG/1.1/DTD/svg11.dtd">
<!-- Generated by graphviz version 2.43.0 (0)
 -->
<!-- Title: iii_drone::adapters::px4::VehicleOdometryAdapter::ToTransformStamped Pages: 1 -->
<svg width="545pt" height="86pt"
 viewBox="0.00 0.00 545.00 86.00" xmlns="http://www.w3.org/2000/svg" xmlns:xlink="http://www.w3.org/1999/xlink">
<g id="graph0" class="graph" transform="scale(1 1) rotate(0) translate(4 82)">
<title>iii_drone::adapters::px4::VehicleOdometryAdapter::ToTransformStamped</title>
<!-- Node1 -->
<g id="Node000001" class="node">
<title>Node1</title>
<g id="a_Node000001"><a xlink:title="Converts the object to a geometry_msgs::msg::TransformStamped object.">
<polygon fill="#999999" stroke="#666666" points="169,-59.5 0,-59.5 0,-18.5 169,-18.5 169,-59.5"/>
<text text-anchor="start" x="8" y="-47.5" font-family="Helvetica,sans-Serif" font-size="10.00">iii_drone::adapters</text>
<text text-anchor="start" x="8" y="-36.5" font-family="Helvetica,sans-Serif" font-size="10.00">::px4::VehicleOdometryAdapter</text>
<text text-anchor="middle" x="84.5" y="-25.5" font-family="Helvetica,sans-Serif" font-size="10.00">::ToTransformStamped</text>
</a>
</g>
</g>
<!-- Node2 -->
<g id="Node000002" class="node">
<title>Node2</title>
<g id="a_Node000002"><a xlink:href="namespaceiii__drone_1_1types.html#aa98e988d47c7d29c21cc73c1acdf2478" target="_top" xlink:title=" ">
<polygon fill="white" stroke="#666666" points="351,-54 205,-54 205,-24 351,-24 351,-54"/>
<text text-anchor="start" x="213" y="-42" font-family="Helvetica,sans-Serif" font-size="10.00">iii_drone::types::transform</text>
<text text-anchor="middle" x="278" y="-31" font-family="Helvetica,sans-Serif" font-size="10.00">MsgFromTransform</text>
</a>
</g>
</g>
<!-- Node1&#45;&gt;Node2 -->
<g id="edge1_Node000001_Node000002" class="edge">
<title>Node1&#45;&gt;Node2</title>
<g id="a_edge1_Node000001_Node000002"><a xlink:title=" ">
<path fill="none" stroke="#63b8ff" d="M169.22,-39C177.66,-39 186.23,-39 194.66,-39"/>
<polygon fill="#63b8ff" stroke="#63b8ff" points="194.85,-42.5 204.85,-39 194.85,-35.5 194.85,-42.5"/>
</a>
</g>
</g>
<!-- Node3 -->
<g id="Node000003" class="node">
<title>Node3</title>
<g id="a_Node000003"><a xlink:href="namespaceiii__drone_1_1types.html#a345601fdf3366d6af6d7c2003d74275b" target="_top" xlink:title=" ">
<polygon fill="white" stroke="#666666" points="537,-78 387,-78 387,-48 537,-48 537,-78"/>
<text text-anchor="start" x="395" y="-66" font-family="Helvetica,sans-Serif" font-size="10.00">iii_drone::types::quaternion</text>
<text text-anchor="middle" x="462" y="-55" font-family="Helvetica,sans-Serif" font-size="10.00">MsgFromQuaternion</text>
</a>
</g>
</g>
<!-- Node2&#45;&gt;Node3 -->
<g id="edge2_Node000002_Node000003" class="edge">
<title>Node2&#45;&gt;Node3</title>
<g id="a_edge2_Node000002_Node000003"><a xlink:title=" ">
<path fill="none" stroke="#63b8ff" d="M351.19,-48.52C359.61,-49.63 368.25,-50.77 376.81,-51.9"/>
<polygon fill="#63b8ff" stroke="#63b8ff" points="376.43,-55.38 386.81,-53.22 377.35,-48.44 376.43,-55.38"/>
</a>
</g>
</g>
<!-- Node4 -->
<g id="Node000004" class="node">
<title>Node4</title>
<g id="a_Node000004"><a xlink:href="namespaceiii__drone_1_1types.html#a55650c4ff895bbd1c624ee51c235a102" target="_top" xlink:title=" ">
<polygon fill="white" stroke="#666666" points="526,-30 398,-30 398,0 526,0 526,-30"/>
<text text-anchor="start" x="406" y="-18" font-family="Helvetica,sans-Serif" font-size="10.00">iii_drone::types::vector</text>
<text text-anchor="middle" x="462" y="-7" font-family="Helvetica,sans-Serif" font-size="10.00">MsgFromVector</text>
</a>
</g>
</g>
<!-- Node2&#45;&gt;Node4 -->
<g id="edge3_Node000002_Node000004" class="edge">
<title>Node2&#45;&gt;Node4</title>
<g id="a_edge3_Node000002_Node000004"><a xlink:title=" ">
<path fill="none" stroke="#63b8ff" d="M351.19,-29.48C363.21,-27.9 375.69,-26.25 387.73,-24.66"/>
<polygon fill="#63b8ff" stroke="#63b8ff" points="388.27,-28.12 397.73,-23.34 387.36,-21.18 388.27,-28.12"/>
</a>
</g>
</g>
</g>
</svg>
