<?xml version="1.0" encoding="UTF-8" standalone="no"?>
<!DOCTYPE svg PUBLIC "-//W3C//DTD SVG 1.1//EN"
 "http://www.w3.org/Graphics/SVG/1.1/DTD/svg11.dtd">
<!-- Generated by graphviz version 2.43.0 (0)
 -->
<!-- Title: iii_drone::adapters::px4::VehicleOdometryAdapter::UpdateFromMsg Pages: 1 -->
<svg width="358pt" height="64pt"
 viewBox="0.00 0.00 358.00 64.00" xmlns="http://www.w3.org/2000/svg" xmlns:xlink="http://www.w3.org/1999/xlink">
<g id="graph0" class="graph" transform="scale(1 1) rotate(0) translate(4 60)">
<title>iii_drone::adapters::px4::VehicleOdometryAdapter::UpdateFromMsg</title>
<!-- Node1 -->
<g id="Node000001" class="node">
<title>Node1</title>
<g id="a_Node000001"><a xlink:title="Updates the object from a new PX4 odometry message.">
<polygon fill="#999999" stroke="#666666" points="169,-48 0,-48 0,-7 169,-7 169,-48"/>
<text text-anchor="start" x="8" y="-36" font-family="Helvetica,sans-Serif" font-size="10.00">iii_drone::adapters</text>
<text text-anchor="start" x="8" y="-25" font-family="Helvetica,sans-Serif" font-size="10.00">::px4::VehicleOdometryAdapter</text>
<text text-anchor="middle" x="84.5" y="-14" font-family="Helvetica,sans-Serif" font-size="10.00">::UpdateFromMsg</text>
</a>
</g>
</g>
<!-- Node2 -->
<g id="Node000002" class="node">
<title>Node2</title>
<g id="a_Node000002"><a xlink:href="namespaceiii__drone_1_1math.html#a531ed4bd8183770d77ec20b37a8709c2" target="_top" xlink:title=" ">
<polygon fill="white" stroke="#666666" points="350,-56 205,-56 205,-37 350,-37 350,-56"/>
<text text-anchor="middle" x="277.5" y="-44" font-family="Helvetica,sans-Serif" font-size="10.00">iii_drone::math::eulToQuat</text>
</a>
</g>
</g>
<!-- Node1&#45;&gt;Node2 -->
<g id="edge1_Node000001_Node000002" class="edge">
<title>Node1&#45;&gt;Node2</title>
<g id="a_edge1_Node000001_Node000002"><a xlink:title=" ">
<path fill="none" stroke="#63b8ff" d="M169.28,-35.83C177.68,-36.67 186.22,-37.52 194.6,-38.35"/>
<polygon fill="#63b8ff" stroke="#63b8ff" points="194.45,-41.86 204.75,-39.36 195.14,-34.89 194.45,-41.86"/>
</a>
</g>
</g>
<!-- Node3 -->
<g id="Node000003" class="node">
<title>Node3</title>
<g id="a_Node000003"><a xlink:href="namespaceiii__drone_1_1math.html#a8e7d7e25d07b368363d6da9939a9abed" target="_top" xlink:title=" ">
<polygon fill="white" stroke="#666666" points="349,-19 206,-19 206,0 349,0 349,-19"/>
<text text-anchor="middle" x="277.5" y="-7" font-family="Helvetica,sans-Serif" font-size="10.00">iii_drone::math::quatToEul</text>
</a>
</g>
</g>
<!-- Node1&#45;&gt;Node3 -->
<g id="edge2_Node000001_Node000003" class="edge">
<title>Node1&#45;&gt;Node3</title>
<g id="a_edge2_Node000001_Node000003"><a xlink:title=" ">
<path fill="none" stroke="#63b8ff" d="M169.28,-19.6C178.06,-18.78 186.99,-17.94 195.74,-17.11"/>
<polygon fill="#63b8ff" stroke="#63b8ff" points="196.3,-20.57 205.92,-16.15 195.64,-13.6 196.3,-20.57"/>
</a>
</g>
</g>
</g>
</svg>
