<?xml version="1.0" encoding="UTF-8" standalone="no"?>
<!DOCTYPE svg PUBLIC "-//W3C//DTD SVG 1.1//EN"
 "http://www.w3.org/Graphics/SVG/1.1/DTD/svg11.dtd">
<!-- Generated by graphviz version 2.43.0 (0)
 -->
<!-- Title: iii_drone::adapters::px4::VehicleOdometryAdapter::VehicleOdometryAdapter Pages: 1 -->
<svg width="563pt" height="64pt"
 viewBox="0.00 0.00 563.00 64.00" xmlns="http://www.w3.org/2000/svg" xmlns:xlink="http://www.w3.org/1999/xlink">
<g id="graph0" class="graph" transform="scale(1 1) rotate(0) translate(4 60)">
<title>iii_drone::adapters::px4::VehicleOdometryAdapter::VehicleOdometryAdapter</title>
<!-- Node1 -->
<g id="Node000001" class="node">
<title>Node1</title>
<g id="a_Node000001"><a xlink:title=" ">
<polygon fill="#999999" stroke="#666666" points="169,-48 0,-48 0,-7 169,-7 169,-48"/>
<text text-anchor="start" x="8" y="-36" font-family="Helvetica,sans-Serif" font-size="10.00">iii_drone::adapters</text>
<text text-anchor="start" x="8" y="-25" font-family="Helvetica,sans-Serif" font-size="10.00">::px4::VehicleOdometryAdapter</text>
<text text-anchor="middle" x="84.5" y="-14" font-family="Helvetica,sans-Serif" font-size="10.00">::VehicleOdometryAdapter</text>
</a>
</g>
</g>
<!-- Node2 -->
<g id="Node000002" class="node">
<title>Node2</title>
<g id="a_Node000002"><a xlink:href="classiii__drone_1_1adapters_1_1px4_1_1VehicleOdometryAdapter.html#add458b12c101a10e2ab7d75e46186ea9" target="_top" xlink:title="Updates the object from a new PX4 odometry message.">
<polygon fill="white" stroke="#666666" points="374,-48 205,-48 205,-7 374,-7 374,-48"/>
<text text-anchor="start" x="213" y="-36" font-family="Helvetica,sans-Serif" font-size="10.00">iii_drone::adapters</text>
<text text-anchor="start" x="213" y="-25" font-family="Helvetica,sans-Serif" font-size="10.00">::px4::VehicleOdometryAdapter</text>
<text text-anchor="middle" x="289.5" y="-14" font-family="Helvetica,sans-Serif" font-size="10.00">::UpdateFromMsg</text>
</a>
</g>
</g>
<!-- Node1&#45;&gt;Node2 -->
<g id="edge1_Node000001_Node000002" class="edge">
<title>Node1&#45;&gt;Node2</title>
<g id="a_edge1_Node000001_Node000002"><a xlink:title=" ">
<path fill="none" stroke="#63b8ff" d="M169.24,-27.5C177.72,-27.5 186.37,-27.5 194.94,-27.5"/>
<polygon fill="#63b8ff" stroke="#63b8ff" points="194.95,-31 204.95,-27.5 194.95,-24 194.95,-31"/>
</a>
</g>
</g>
<!-- Node3 -->
<g id="Node000003" class="node">
<title>Node3</title>
<g id="a_Node000003"><a xlink:href="namespaceiii__drone_1_1math.html#a531ed4bd8183770d77ec20b37a8709c2" target="_top" xlink:title=" ">
<polygon fill="white" stroke="#666666" points="555,-56 410,-56 410,-37 555,-37 555,-56"/>
<text text-anchor="middle" x="482.5" y="-44" font-family="Helvetica,sans-Serif" font-size="10.00">iii_drone::math::eulToQuat</text>
</a>
</g>
</g>
<!-- Node2&#45;&gt;Node3 -->
<g id="edge2_Node000002_Node000003" class="edge">
<title>Node2&#45;&gt;Node3</title>
<g id="a_edge2_Node000002_Node000003"><a xlink:title=" ">
<path fill="none" stroke="#63b8ff" d="M374.28,-35.83C382.68,-36.67 391.22,-37.52 399.6,-38.35"/>
<polygon fill="#63b8ff" stroke="#63b8ff" points="399.45,-41.86 409.75,-39.36 400.14,-34.89 399.45,-41.86"/>
</a>
</g>
</g>
<!-- Node4 -->
<g id="Node000004" class="node">
<title>Node4</title>
<g id="a_Node000004"><a xlink:href="namespaceiii__drone_1_1math.html#a8e7d7e25d07b368363d6da9939a9abed" target="_top" xlink:title=" ">
<polygon fill="white" stroke="#666666" points="554,-19 411,-19 411,0 554,0 554,-19"/>
<text text-anchor="middle" x="482.5" y="-7" font-family="Helvetica,sans-Serif" font-size="10.00">iii_drone::math::quatToEul</text>
</a>
</g>
</g>
<!-- Node2&#45;&gt;Node4 -->
<g id="edge3_Node000002_Node000004" class="edge">
<title>Node2&#45;&gt;Node4</title>
<g id="a_edge3_Node000002_Node000004"><a xlink:title=" ">
<path fill="none" stroke="#63b8ff" d="M374.28,-19.6C383.06,-18.78 391.99,-17.94 400.74,-17.11"/>
<polygon fill="#63b8ff" stroke="#63b8ff" points="401.3,-20.57 410.92,-16.15 400.64,-13.6 401.3,-20.57"/>
</a>
</g>
</g>
</g>
</svg>
