<?xml version="1.0" encoding="UTF-8" standalone="no"?>
<!DOCTYPE svg PUBLIC "-//W3C//DTD SVG 1.1//EN"
 "http://www.w3.org/Graphics/SVG/1.1/DTD/svg11.dtd">
<!-- Generated by graphviz version 2.43.0 (0)
 -->
<!-- Title: iii_drone::adapters::StateAdapter Pages: 1 -->
<svg width="135pt" height="475pt"
 viewBox="0.00 0.00 135.00 475.00" xmlns="http://www.w3.org/2000/svg" xmlns:xlink="http://www.w3.org/1999/xlink">
<g id="graph0" class="graph" transform="scale(1 1) rotate(0) translate(4 471)">
<title>iii_drone::adapters::StateAdapter</title>
<!-- Node1 -->
<g id="Node000001" class="node">
<title>Node1</title>
<g id="a_Node000001"><a xlink:title="Class for adapting the III&#45;Drone&#45;Core::State to the III&#45;Drone&#45;Interfaces::State.">
<polygon fill="#999999" stroke="transparent" points="127,-165 0,-165 0,0 127,0 127,-165"/>
<text text-anchor="start" x="18.5" y="-152.5" font-family="Helvetica,sans-Serif" font-size="10.00">iii_drone::adapters</text>
<text text-anchor="start" x="29" y="-141.5" font-family="Helvetica,sans-Serif" font-size="10.00">::StateAdapter</text>
<text text-anchor="start" x="62" y="-126.5" font-family="Helvetica,sans-Serif" font-size="10.00"> </text>
<text text-anchor="start" x="4.5" y="-111.5" font-family="Helvetica,sans-Serif" font-size="10.00">+</text>
<text text-anchor="start" x="17.5" y="-111.5" font-family="Helvetica,sans-Serif" font-size="10.00">StateAdapter()</text>
<text text-anchor="start" x="4.5" y="-96.5" font-family="Helvetica,sans-Serif" font-size="10.00">+</text>
<text text-anchor="start" x="17.5" y="-96.5" font-family="Helvetica,sans-Serif" font-size="10.00">StateAdapter()</text>
<text text-anchor="start" x="4.5" y="-81.5" font-family="Helvetica,sans-Serif" font-size="10.00">+</text>
<text text-anchor="start" x="17.5" y="-81.5" font-family="Helvetica,sans-Serif" font-size="10.00">StateAdapter()</text>
<text text-anchor="start" x="4.5" y="-66.5" font-family="Helvetica,sans-Serif" font-size="10.00">+</text>
<text text-anchor="start" x="17.5" y="-66.5" font-family="Helvetica,sans-Serif" font-size="10.00">StateAdapter()</text>
<text text-anchor="start" x="4.5" y="-51.5" font-family="Helvetica,sans-Serif" font-size="10.00">+</text>
<text text-anchor="start" x="17.5" y="-51.5" font-family="Helvetica,sans-Serif" font-size="10.00">ToMsg()</text>
<text text-anchor="start" x="4.5" y="-36.5" font-family="Helvetica,sans-Serif" font-size="10.00">+</text>
<text text-anchor="start" x="17.5" y="-36.5" font-family="Helvetica,sans-Serif" font-size="10.00">ToPoseMsg()</text>
<text text-anchor="start" x="4.5" y="-21.5" font-family="Helvetica,sans-Serif" font-size="10.00">+</text>
<text text-anchor="start" x="17.5" y="-21.5" font-family="Helvetica,sans-Serif" font-size="10.00">ToPoseStampedMsg()</text>
<text text-anchor="start" x="4.5" y="-6.5" font-family="Helvetica,sans-Serif" font-size="10.00">+</text>
<text text-anchor="start" x="17.5" y="-6.5" font-family="Helvetica,sans-Serif" font-size="10.00">state()</text>
<polygon fill="#666666" stroke="#666666" points="0.5,-136.5 0.5,-136.5 127.5,-136.5 127.5,-136.5 0.5,-136.5"/>
<polygon fill="#666666" stroke="#666666" points="0.5,-121.5 0.5,-121.5 127.5,-121.5 127.5,-121.5 0.5,-121.5"/>
<polygon fill="none" stroke="#666666" points="0,0 0,-165 127,-165 127,0 0,0"/>
</a>
</g>
</g>
<!-- Node2 -->
<g id="Node000002" class="node">
<title>Node2</title>
<g id="a_Node000002"><a xlink:href="classiii__drone_1_1control_1_1State.html" target="_top" xlink:title=" ">
<polygon fill="white" stroke="transparent" points="118.5,-467 8.5,-467 8.5,-212 118.5,-212 118.5,-467"/>
<text text-anchor="start" x="22.5" y="-454.5" font-family="Helvetica,sans-Serif" font-size="10.00">iii_drone::control</text>
<text text-anchor="start" x="47.5" y="-443.5" font-family="Helvetica,sans-Serif" font-size="10.00">::State</text>
<text text-anchor="start" x="15" y="-428.5" font-family="Helvetica,sans-Serif" font-size="10.00">&#45;</text>
<text text-anchor="start" x="25.5" y="-428.5" font-family="Helvetica,sans-Serif" font-size="10.00">position_</text>
<text text-anchor="start" x="15" y="-413.5" font-family="Helvetica,sans-Serif" font-size="10.00">&#45;</text>
<text text-anchor="start" x="25.5" y="-413.5" font-family="Helvetica,sans-Serif" font-size="10.00">velocity_</text>
<text text-anchor="start" x="15" y="-398.5" font-family="Helvetica,sans-Serif" font-size="10.00">&#45;</text>
<text text-anchor="start" x="25.5" y="-398.5" font-family="Helvetica,sans-Serif" font-size="10.00">quaternion_</text>
<text text-anchor="start" x="15" y="-383.5" font-family="Helvetica,sans-Serif" font-size="10.00">&#45;</text>
<text text-anchor="start" x="25.5" y="-383.5" font-family="Helvetica,sans-Serif" font-size="10.00">yaw_</text>
<text text-anchor="start" x="15" y="-368.5" font-family="Helvetica,sans-Serif" font-size="10.00">&#45;</text>
<text text-anchor="start" x="25.5" y="-368.5" font-family="Helvetica,sans-Serif" font-size="10.00">angular_velocity_</text>
<text text-anchor="start" x="15" y="-353.5" font-family="Helvetica,sans-Serif" font-size="10.00">&#45;</text>
<text text-anchor="start" x="25.5" y="-353.5" font-family="Helvetica,sans-Serif" font-size="10.00">stamp_</text>
<text text-anchor="start" x="12.5" y="-338.5" font-family="Helvetica,sans-Serif" font-size="10.00">+</text>
<text text-anchor="start" x="25.5" y="-338.5" font-family="Helvetica,sans-Serif" font-size="10.00">State()</text>
<text text-anchor="start" x="12.5" y="-323.5" font-family="Helvetica,sans-Serif" font-size="10.00">+</text>
<text text-anchor="start" x="25.5" y="-323.5" font-family="Helvetica,sans-Serif" font-size="10.00">State()</text>
<text text-anchor="start" x="12.5" y="-308.5" font-family="Helvetica,sans-Serif" font-size="10.00">+</text>
<text text-anchor="start" x="25.5" y="-308.5" font-family="Helvetica,sans-Serif" font-size="10.00">State()</text>
<text text-anchor="start" x="12.5" y="-293.5" font-family="Helvetica,sans-Serif" font-size="10.00">+</text>
<text text-anchor="start" x="25.5" y="-293.5" font-family="Helvetica,sans-Serif" font-size="10.00">position()</text>
<text text-anchor="start" x="12.5" y="-278.5" font-family="Helvetica,sans-Serif" font-size="10.00">+</text>
<text text-anchor="start" x="25.5" y="-278.5" font-family="Helvetica,sans-Serif" font-size="10.00">velocity()</text>
<text text-anchor="start" x="12.5" y="-263.5" font-family="Helvetica,sans-Serif" font-size="10.00">+</text>
<text text-anchor="start" x="25.5" y="-263.5" font-family="Helvetica,sans-Serif" font-size="10.00">quaternion()</text>
<text text-anchor="start" x="12.5" y="-248.5" font-family="Helvetica,sans-Serif" font-size="10.00">+</text>
<text text-anchor="start" x="25.5" y="-248.5" font-family="Helvetica,sans-Serif" font-size="10.00">yaw()</text>
<text text-anchor="start" x="12.5" y="-233.5" font-family="Helvetica,sans-Serif" font-size="10.00">+</text>
<text text-anchor="start" x="25.5" y="-233.5" font-family="Helvetica,sans-Serif" font-size="10.00">angular_velocity()</text>
<text text-anchor="start" x="12.5" y="-218.5" font-family="Helvetica,sans-Serif" font-size="10.00">+</text>
<text text-anchor="start" x="25.5" y="-218.5" font-family="Helvetica,sans-Serif" font-size="10.00">stamp()</text>
<polygon fill="#666666" stroke="#666666" points="8.5,-438.5 8.5,-438.5 118.5,-438.5 118.5,-438.5 8.5,-438.5"/>
<polygon fill="#666666" stroke="#666666" points="8.5,-348.5 8.5,-348.5 23.5,-348.5 23.5,-348.5 8.5,-348.5"/>
<polygon fill="#666666" stroke="#666666" points="23.5,-348.5 23.5,-348.5 118.5,-348.5 118.5,-348.5 23.5,-348.5"/>
<polygon fill="none" stroke="#666666" points="8.5,-212 8.5,-467 118.5,-467 118.5,-212 8.5,-212"/>
</a>
</g>
</g>
<!-- Node2&#45;&gt;Node1 -->
<g id="edge1_Node000001_Node000002" class="edge">
<title>Node2&#45;&gt;Node1</title>
<g id="a_edge1_Node000001_Node000002"><a xlink:title=" ">
<path fill="none" stroke="#63b8ff" d="M63.5,-211.75C63.5,-200.09 63.5,-188.42 63.5,-177.14"/>
<polygon fill="none" stroke="#63b8ff" points="63.5,-177.06 59.5,-171.06 63.5,-165.06 67.5,-171.06 63.5,-177.06"/>
</a>
</g>
<text text-anchor="middle" x="82" y="-186" font-family="Helvetica,sans-Serif" font-size="10.00" fill="grey"> &#45;state_</text>
</g>
</g>
</svg>
