<?xml version="1.0" encoding="UTF-8" standalone="no"?>
<!DOCTYPE svg PUBLIC "-//W3C//DTD SVG 1.1//EN"
 "http://www.w3.org/Graphics/SVG/1.1/DTD/svg11.dtd">
<!-- Generated by graphviz version 2.43.0 (0)
 -->
<!-- Title: iii_drone::control::maneuver::HoverOnCableManeuverServer::CanExecuteManeuver Pages: 1 -->
<svg width="635pt" height="167pt"
 viewBox="0.00 0.00 635.00 167.00" xmlns="http://www.w3.org/2000/svg" xmlns:xlink="http://www.w3.org/1999/xlink">
<g id="graph0" class="graph" transform="scale(1 1) rotate(0) translate(4 163)">
<title>iii_drone::control::maneuver::HoverOnCableManeuverServer::CanExecuteManeuver</title>
<!-- Node1 -->
<g id="Node000001" class="node">
<title>Node1</title>
<g id="a_Node000001"><a xlink:title="Whether the maneuver can be executed, will return false if the drone is not on the cable.">
<polygon fill="#999999" stroke="#666666" points="197,-100 0,-100 0,-59 197,-59 197,-100"/>
<text text-anchor="start" x="8" y="-88" font-family="Helvetica,sans-Serif" font-size="10.00">iii_drone::control</text>
<text text-anchor="start" x="8" y="-77" font-family="Helvetica,sans-Serif" font-size="10.00">::maneuver::HoverOnCableManeuver</text>
<text text-anchor="middle" x="98.5" y="-66" font-family="Helvetica,sans-Serif" font-size="10.00">Server::CanExecuteManeuver</text>
</a>
</g>
</g>
<!-- Node2 -->
<g id="Node000002" class="node">
<title>Node2</title>
<g id="a_Node000002"><a xlink:href="classiii__drone_1_1control_1_1maneuver_1_1Maneuver.html#ad2bda3296f5382b9e566b6c3de3dd2e4" target="_top" xlink:title="Maneuver parameters getter.">
<polygon fill="white" stroke="#666666" points="395,-159 268,-159 268,-118 395,-118 395,-159"/>
<text text-anchor="start" x="276" y="-147" font-family="Helvetica,sans-Serif" font-size="10.00">iii_drone::control</text>
<text text-anchor="start" x="276" y="-136" font-family="Helvetica,sans-Serif" font-size="10.00">::maneuver::Maneuver</text>
<text text-anchor="middle" x="331.5" y="-125" font-family="Helvetica,sans-Serif" font-size="10.00">::maneuver_params</text>
</a>
</g>
</g>
<!-- Node1&#45;&gt;Node2 -->
<g id="edge1_Node000001_Node000002" class="edge">
<title>Node1&#45;&gt;Node2</title>
<g id="a_edge1_Node000001_Node000002"><a xlink:title=" ">
<path fill="none" stroke="#63b8ff" d="M179.97,-100.05C205.37,-106.54 233.27,-113.67 258.08,-120"/>
<polygon fill="#63b8ff" stroke="#63b8ff" points="257.23,-123.4 267.78,-122.48 258.96,-116.62 257.23,-123.4"/>
</a>
</g>
</g>
<!-- Node3 -->
<g id="Node000003" class="node">
<title>Node3</title>
<g id="a_Node000003"><a xlink:href="classiii__drone_1_1control_1_1maneuver_1_1Maneuver.html#a2a1dd737450465c565f5eba36e71ffad" target="_top" xlink:title="Maneuver type getter.">
<polygon fill="white" stroke="#666666" points="395,-100 268,-100 268,-59 395,-59 395,-100"/>
<text text-anchor="start" x="276" y="-88" font-family="Helvetica,sans-Serif" font-size="10.00">iii_drone::control</text>
<text text-anchor="start" x="276" y="-77" font-family="Helvetica,sans-Serif" font-size="10.00">::maneuver::Maneuver</text>
<text text-anchor="middle" x="331.5" y="-66" font-family="Helvetica,sans-Serif" font-size="10.00">::maneuver_type</text>
</a>
</g>
</g>
<!-- Node1&#45;&gt;Node3 -->
<g id="edge2_Node000001_Node000003" class="edge">
<title>Node1&#45;&gt;Node3</title>
<g id="a_edge2_Node000001_Node000003"><a xlink:title=" ">
<path fill="none" stroke="#63b8ff" d="M197.13,-79.5C217.38,-79.5 238.38,-79.5 257.56,-79.5"/>
<polygon fill="#63b8ff" stroke="#63b8ff" points="257.71,-83 267.71,-79.5 257.71,-76 257.71,-83"/>
</a>
</g>
</g>
<!-- Node4 -->
<g id="Node000004" class="node">
<title>Node4</title>
<g id="a_Node000004"><a xlink:href="classiii__drone_1_1control_1_1maneuver_1_1HoverOnCableManeuverServer.html#a7ebbdce1a5988daf4eb40334583432e4" target="_top" xlink:title="Validates that the drone is on the cable.">
<polygon fill="white" stroke="#666666" points="430,-41 233,-41 233,0 430,0 430,-41"/>
<text text-anchor="start" x="241" y="-29" font-family="Helvetica,sans-Serif" font-size="10.00">iii_drone::control</text>
<text text-anchor="start" x="241" y="-18" font-family="Helvetica,sans-Serif" font-size="10.00">::maneuver::HoverOnCableManeuver</text>
<text text-anchor="middle" x="331.5" y="-7" font-family="Helvetica,sans-Serif" font-size="10.00">Server::validateAwareness</text>
</a>
</g>
</g>
<!-- Node1&#45;&gt;Node4 -->
<g id="edge3_Node000001_Node000004" class="edge">
<title>Node1&#45;&gt;Node4</title>
<g id="a_edge3_Node000001_Node000004"><a xlink:title=" ">
<path fill="none" stroke="#63b8ff" d="M179.97,-58.95C199.35,-54 220.19,-48.68 239.99,-43.62"/>
<polygon fill="#63b8ff" stroke="#63b8ff" points="241.11,-46.94 249.93,-41.08 239.37,-40.16 241.11,-46.94"/>
</a>
</g>
</g>
<!-- Node5 -->
<g id="Node000005" class="node">
<title>Node5</title>
<g id="a_Node000005"><a xlink:href="structiii__drone_1_1control_1_1combined__drone__awareness__t.html#aeba579c277752c404e5a8a6c7298eab8" target="_top" xlink:title=" ">
<polygon fill="white" stroke="#666666" points="627,-41 466,-41 466,0 627,0 627,-41"/>
<text text-anchor="start" x="474" y="-29" font-family="Helvetica,sans-Serif" font-size="10.00">iii_drone::control</text>
<text text-anchor="start" x="474" y="-18" font-family="Helvetica,sans-Serif" font-size="10.00">::combined_drone_awareness</text>
<text text-anchor="middle" x="546.5" y="-7" font-family="Helvetica,sans-Serif" font-size="10.00">_t::on_cable</text>
</a>
</g>
</g>
<!-- Node4&#45;&gt;Node5 -->
<g id="edge4_Node000004_Node000005" class="edge">
<title>Node4&#45;&gt;Node5</title>
<g id="a_edge4_Node000004_Node000005"><a xlink:title=" ">
<path fill="none" stroke="#63b8ff" d="M430.27,-20.5C438.75,-20.5 447.3,-20.5 455.7,-20.5"/>
<polygon fill="#63b8ff" stroke="#63b8ff" points="455.87,-24 465.87,-20.5 455.87,-17 455.87,-24"/>
</a>
</g>
</g>
</g>
</svg>
