<?xml version="1.0" encoding="UTF-8" standalone="no"?>
<!DOCTYPE svg PUBLIC "-//W3C//DTD SVG 1.1//EN"
 "http://www.w3.org/Graphics/SVG/1.1/DTD/svg11.dtd">
<!-- Generated by graphviz version 2.43.0 (0)
 -->
<!-- Title: iii_drone::control::Reference::acceleration Pages: 1 -->
<svg width="1054pt" height="250pt"
 viewBox="0.00 0.00 1054.00 250.00" xmlns="http://www.w3.org/2000/svg" xmlns:xlink="http://www.w3.org/1999/xlink">
<g id="graph0" class="graph" transform="scale(1 1) rotate(0) translate(4 246)">
<title>iii_drone::control::Reference::acceleration</title>
<!-- Node1 -->
<g id="Node000001" class="node">
<title>Node1</title>
<g id="a_Node000001"><a xlink:title=" ">
<polygon fill="#999999" stroke="#666666" points="1046,-121.5 908,-121.5 908,-91.5 1046,-91.5 1046,-121.5"/>
<text text-anchor="start" x="916" y="-109.5" font-family="Helvetica,sans-Serif" font-size="10.00">iii_drone::control</text>
<text text-anchor="middle" x="977" y="-98.5" font-family="Helvetica,sans-Serif" font-size="10.00">::Reference::acceleration</text>
</a>
</g>
</g>
<!-- Node2 -->
<g id="Node000002" class="node">
<title>Node2</title>
<g id="a_Node000002"><a xlink:href="classiii__drone_1_1control_1_1Reference.html#a35bfe2b61bbb5a41457c6712bd7203cf" target="_top" xlink:title=" ">
<polygon fill="white" stroke="#666666" points="849.5,-196.5 721.5,-196.5 721.5,-166.5 849.5,-166.5 849.5,-196.5"/>
<text text-anchor="start" x="729.5" y="-184.5" font-family="Helvetica,sans-Serif" font-size="10.00">iii_drone::control</text>
<text text-anchor="middle" x="785.5" y="-173.5" font-family="Helvetica,sans-Serif" font-size="10.00">::Reference::Reference</text>
</a>
</g>
</g>
<!-- Node1&#45;&gt;Node2 -->
<g id="edge1_Node000001_Node000002" class="edge">
<title>Node1&#45;&gt;Node2</title>
<g id="a_edge1_Node000001_Node000002"><a xlink:title=" ">
<path fill="none" stroke="#63b8ff" d="M939.88,-126.24C920.2,-136.47 895.19,-148.64 872,-157.5 863.65,-160.69 854.69,-163.67 845.83,-166.36"/>
<polygon fill="#63b8ff" stroke="#63b8ff" points="941.58,-129.3 948.8,-121.54 938.32,-123.1 941.58,-129.3"/>
</a>
</g>
</g>
<!-- Node3 -->
<g id="Node000003" class="node">
<title>Node3</title>
<g id="a_Node000003"><a xlink:href="classiii__drone_1_1adapters_1_1ReferenceAdapter.html#a56e8b2fdd992d460615cc6502eab7ba7" target="_top" xlink:title="Converts to msg.">
<polygon fill="white" stroke="#666666" points="859,-148.5 712,-148.5 712,-118.5 859,-118.5 859,-148.5"/>
<text text-anchor="start" x="720" y="-136.5" font-family="Helvetica,sans-Serif" font-size="10.00">iii_drone::adapters</text>
<text text-anchor="middle" x="785.5" y="-125.5" font-family="Helvetica,sans-Serif" font-size="10.00">::ReferenceAdapter::ToMsg</text>
</a>
</g>
</g>
<!-- Node1&#45;&gt;Node3 -->
<g id="edge2_Node000001_Node000003" class="edge">
<title>Node1&#45;&gt;Node3</title>
<g id="a_edge2_Node000001_Node000003"><a xlink:title=" ">
<path fill="none" stroke="#63b8ff" d="M897.72,-117.65C884.96,-119.47 871.78,-121.35 859.16,-123.15"/>
<polygon fill="#63b8ff" stroke="#63b8ff" points="898.45,-121.09 907.85,-116.21 897.46,-114.16 898.45,-121.09"/>
</a>
</g>
</g>
<!-- Node11 -->
<g id="Node000011" class="node">
<title>Node11</title>
<g id="a_Node000011"><a xlink:href="classiii__drone_1_1adapters_1_1px4_1_1TrajectorySetpointAdapter.html#a1c5d082bd10a5ddc1b0966b9b55c0e9b" target="_top" xlink:title="Constructor from iii_drone::adapters::ReferenceAdapter.">
<polygon fill="white" stroke="#666666" points="872,-100 699,-100 699,-59 872,-59 872,-100"/>
<text text-anchor="start" x="707" y="-88" font-family="Helvetica,sans-Serif" font-size="10.00">iii_drone::adapters</text>
<text text-anchor="start" x="707" y="-77" font-family="Helvetica,sans-Serif" font-size="10.00">::px4::TrajectorySetpointAdapter</text>
<text text-anchor="middle" x="785.5" y="-66" font-family="Helvetica,sans-Serif" font-size="10.00">::TrajectorySetpointAdapter</text>
</a>
</g>
</g>
<!-- Node1&#45;&gt;Node11 -->
<g id="edge12_Node000001_Node000011" class="edge">
<title>Node1&#45;&gt;Node11</title>
<g id="a_edge12_Node000001_Node000011"><a xlink:title=" ">
<path fill="none" stroke="#63b8ff" d="M897.7,-95.34C889.28,-94.14 880.69,-92.92 872.2,-91.71"/>
<polygon fill="#63b8ff" stroke="#63b8ff" points="897.46,-98.84 907.85,-96.79 898.45,-91.91 897.46,-98.84"/>
</a>
</g>
</g>
<!-- Node12 -->
<g id="Node000012" class="node">
<title>Node12</title>
<g id="a_Node000012"><a xlink:href="classiii__drone_1_1adapters_1_1px4_1_1TrajectorySetpointAdapter.html#ac1e2f8f8c6ef2c387256c6b59e0a3a6e" target="_top" xlink:title="Constructor from iii::control::Reference.">
<polygon fill="white" stroke="#666666" points="872,-41 699,-41 699,0 872,0 872,-41"/>
<text text-anchor="start" x="707" y="-29" font-family="Helvetica,sans-Serif" font-size="10.00">iii_drone::adapters</text>
<text text-anchor="start" x="707" y="-18" font-family="Helvetica,sans-Serif" font-size="10.00">::px4::TrajectorySetpointAdapter</text>
<text text-anchor="middle" x="785.5" y="-7" font-family="Helvetica,sans-Serif" font-size="10.00">::TrajectorySetpointAdapter</text>
</a>
</g>
</g>
<!-- Node1&#45;&gt;Node12 -->
<g id="edge13_Node000001_Node000012" class="edge">
<title>Node1&#45;&gt;Node12</title>
<g id="a_edge13_Node000001_Node000012"><a xlink:title=" ">
<path fill="none" stroke="#63b8ff" d="M942.66,-86.28C922.62,-74.63 896.35,-60.21 872,-49.5 865.4,-46.6 858.41,-43.8 851.39,-41.17"/>
<polygon fill="#63b8ff" stroke="#63b8ff" points="941.01,-89.37 951.4,-91.42 944.55,-83.34 941.01,-89.37"/>
</a>
</g>
</g>
<!-- Node4 -->
<g id="Node000004" class="node">
<title>Node4</title>
<g id="a_Node000004"><a xlink:href="classiii__drone_1_1control_1_1TrajectoryGeneratorClient.html#a2b3ee03aed559d8c1ea8d052336d25ff" target="_top" xlink:title="Starts generating a trajectory.">
<polygon fill="white" stroke="#666666" points="663,-189 469,-189 469,-148 663,-148 663,-189"/>
<text text-anchor="start" x="477" y="-177" font-family="Helvetica,sans-Serif" font-size="10.00">iii_drone::control</text>
<text text-anchor="start" x="477" y="-166" font-family="Helvetica,sans-Serif" font-size="10.00">::TrajectoryGeneratorClient</text>
<text text-anchor="middle" x="566" y="-155" font-family="Helvetica,sans-Serif" font-size="10.00">::ComputeReferenceTrajectoryAsync</text>
</a>
</g>
</g>
<!-- Node3&#45;&gt;Node4 -->
<g id="edge3_Node000003_Node000004" class="edge">
<title>Node3&#45;&gt;Node4</title>
<g id="a_edge3_Node000003_Node000004"><a xlink:title=" ">
<path fill="none" stroke="#63b8ff" d="M701.79,-146.81C689.2,-148.84 676.11,-150.94 663.25,-153.01"/>
<polygon fill="#63b8ff" stroke="#63b8ff" points="702.46,-150.25 711.77,-145.2 701.34,-143.34 702.46,-150.25"/>
</a>
</g>
</g>
<!-- Node8 -->
<g id="Node000008" class="node">
<title>Node8</title>
<g id="a_Node000008"><a xlink:href="classiii__drone_1_1adapters_1_1ReferenceTrajectoryAdapter.html#a1a7886f7329ea52f8d9eed2e17f5066f" target="_top" xlink:title="Converts to msg.">
<polygon fill="white" stroke="#666666" points="645,-119 487,-119 487,-78 645,-78 645,-119"/>
<text text-anchor="start" x="495" y="-107" font-family="Helvetica,sans-Serif" font-size="10.00">iii_drone::adapters</text>
<text text-anchor="start" x="495" y="-96" font-family="Helvetica,sans-Serif" font-size="10.00">::ReferenceTrajectoryAdapter</text>
<text text-anchor="middle" x="566" y="-85" font-family="Helvetica,sans-Serif" font-size="10.00">::ToMsg</text>
</a>
</g>
</g>
<!-- Node3&#45;&gt;Node8 -->
<g id="edge9_Node000003_Node000008" class="edge">
<title>Node3&#45;&gt;Node8</title>
<g id="a_edge9_Node000003_Node000008"><a xlink:title=" ">
<path fill="none" stroke="#63b8ff" d="M701.88,-120.2C683.3,-117.22 663.65,-114.05 645.26,-111.09"/>
<polygon fill="#63b8ff" stroke="#63b8ff" points="701.34,-123.66 711.77,-121.8 702.46,-116.75 701.34,-123.66"/>
</a>
</g>
</g>
<!-- Node5 -->
<g id="Node000005" class="node">
<title>Node5</title>
<g id="a_Node000005"><a xlink:href="classiii__drone_1_1control_1_1maneuver_1_1FlyToObjectManeuverServer.html#a2ace3412e0d42d07a39c553c89ab0c6a" target="_top" xlink:title="Compute the reference.">
<polygon fill="white" stroke="#666666" points="187.5,-242 3.5,-242 3.5,-201 187.5,-201 187.5,-242"/>
<text text-anchor="start" x="11.5" y="-230" font-family="Helvetica,sans-Serif" font-size="10.00">iii_drone::control</text>
<text text-anchor="start" x="11.5" y="-219" font-family="Helvetica,sans-Serif" font-size="10.00">::maneuver::FlyToObjectManeuver</text>
<text text-anchor="middle" x="95.5" y="-208" font-family="Helvetica,sans-Serif" font-size="10.00">Server::computeReference</text>
</a>
</g>
</g>
<!-- Node4&#45;&gt;Node5 -->
<g id="edge4_Node000004_Node000005" class="edge">
<title>Node4&#45;&gt;Node5</title>
<g id="a_edge4_Node000004_Node000005"><a xlink:title=" ">
<path fill="none" stroke="#63b8ff" d="M500.68,-192.23C479.42,-199.05 455.46,-205.68 433,-209.5 350.88,-223.46 255.92,-225.6 187.85,-224.75"/>
<polygon fill="#63b8ff" stroke="#63b8ff" points="501.83,-195.53 510.24,-189.09 499.65,-188.88 501.83,-195.53"/>
</a>
</g>
</g>
<!-- Node6 -->
<g id="Node000006" class="node">
<title>Node6</title>
<g id="a_Node000006"><a xlink:href="classiii__drone_1_1control_1_1maneuver_1_1FlyToPositionManeuverServer.html#ac13004e478653d73361c3569e11870dc" target="_top" xlink:title="Compute the reference.">
<polygon fill="white" stroke="#666666" points="191,-176 0,-176 0,-135 191,-135 191,-176"/>
<text text-anchor="start" x="8" y="-164" font-family="Helvetica,sans-Serif" font-size="10.00">iii_drone::control</text>
<text text-anchor="start" x="8" y="-153" font-family="Helvetica,sans-Serif" font-size="10.00">::maneuver::FlyToPositionManeuver</text>
<text text-anchor="middle" x="95.5" y="-142" font-family="Helvetica,sans-Serif" font-size="10.00">Server::computeReference</text>
</a>
</g>
</g>
<!-- Node4&#45;&gt;Node6 -->
<g id="edge5_Node000004_Node000006" class="edge">
<title>Node4&#45;&gt;Node6</title>
<g id="a_edge5_Node000004_Node000006"><a xlink:title=" ">
<path fill="none" stroke="#63b8ff" d="M458.72,-152.74C450.03,-151.84 441.38,-151.07 433,-150.5 351.54,-144.97 258.74,-146.97 191.25,-149.92"/>
<polygon fill="#63b8ff" stroke="#63b8ff" points="458.59,-156.25 468.91,-153.85 459.35,-149.29 458.59,-156.25"/>
</a>
</g>
</g>
<!-- Node7 -->
<g id="Node000007" class="node">
<title>Node7</title>
<g id="a_Node000007"><a xlink:href="classiii__drone_1_1control_1_1TrajectoryGeneratorClient.html#a0e32180d729e74d24edeef891d1ac843" target="_top" xlink:title="Generates a trajectory and blocks until it is done.">
<polygon fill="white" stroke="#666666" points="433,-200 227,-200 227,-159 433,-159 433,-200"/>
<text text-anchor="start" x="235" y="-188" font-family="Helvetica,sans-Serif" font-size="10.00">iii_drone::control</text>
<text text-anchor="start" x="235" y="-177" font-family="Helvetica,sans-Serif" font-size="10.00">::TrajectoryGeneratorClient</text>
<text text-anchor="middle" x="330" y="-166" font-family="Helvetica,sans-Serif" font-size="10.00">::ComputeReferenceTrajectoryBlocking</text>
</a>
</g>
</g>
<!-- Node4&#45;&gt;Node7 -->
<g id="edge6_Node000004_Node000007" class="edge">
<title>Node4&#45;&gt;Node7</title>
<g id="a_edge6_Node000004_Node000007"><a xlink:title=" ">
<path fill="none" stroke="#63b8ff" d="M458.58,-173.5C450.16,-173.9 441.66,-174.3 433.27,-174.69"/>
<polygon fill="#63b8ff" stroke="#63b8ff" points="458.99,-176.99 468.81,-173.02 458.66,-170 458.99,-176.99"/>
</a>
</g>
</g>
<!-- Node7&#45;&gt;Node5 -->
<g id="edge7_Node000007_Node000005" class="edge">
<title>Node7&#45;&gt;Node5</title>
<g id="a_edge7_Node000007_Node000005"><a xlink:title=" ">
<path fill="none" stroke="#63b8ff" d="M216.57,-199.81C206.83,-201.57 197.06,-203.33 187.53,-205.06"/>
<polygon fill="#63b8ff" stroke="#63b8ff" points="217.47,-203.2 226.68,-197.98 216.22,-196.32 217.47,-203.2"/>
</a>
</g>
</g>
<!-- Node7&#45;&gt;Node6 -->
<g id="edge8_Node000007_Node000006" class="edge">
<title>Node7&#45;&gt;Node6</title>
<g id="a_edge8_Node000007_Node000006"><a xlink:title=" ">
<path fill="none" stroke="#63b8ff" d="M216.68,-167.91C208.13,-167.02 199.56,-166.14 191.14,-165.27"/>
<polygon fill="#63b8ff" stroke="#63b8ff" points="216.38,-171.39 226.68,-168.94 217.1,-164.43 216.38,-171.39"/>
</a>
</g>
</g>
<!-- Node9 -->
<g id="Node000009" class="node">
<title>Node9</title>
<g id="a_Node000009"><a xlink:href="classiii__drone_1_1control_1_1trajectory__generator__node_1_1TrajectoryGeneratorNode.html#aefc447399b185fef5b912770b5059936" target="_top" xlink:title="The compute reference trajectory service callback.">
<polygon fill="white" stroke="#666666" points="432.5,-102.5 227.5,-102.5 227.5,-50.5 432.5,-50.5 432.5,-102.5"/>
<text text-anchor="start" x="235.5" y="-90.5" font-family="Helvetica,sans-Serif" font-size="10.00">iii_drone::control</text>
<text text-anchor="start" x="235.5" y="-79.5" font-family="Helvetica,sans-Serif" font-size="10.00">::trajectory_generator</text>
<text text-anchor="start" x="235.5" y="-68.5" font-family="Helvetica,sans-Serif" font-size="10.00">_node::TrajectoryGeneratorNode</text>
<text text-anchor="middle" x="330" y="-57.5" font-family="Helvetica,sans-Serif" font-size="10.00">::computeReferenceTrajectoryCallback</text>
</a>
</g>
</g>
<!-- Node8&#45;&gt;Node9 -->
<g id="edge10_Node000008_Node000009" class="edge">
<title>Node8&#45;&gt;Node9</title>
<g id="a_edge10_Node000008_Node000009"><a xlink:title=" ">
<path fill="none" stroke="#63b8ff" d="M476.5,-90.18C462.26,-88.84 447.42,-87.45 432.89,-86.08"/>
<polygon fill="#63b8ff" stroke="#63b8ff" points="476.47,-93.69 486.76,-91.14 477.13,-86.72 476.47,-93.69"/>
</a>
</g>
</g>
<!-- Node10 -->
<g id="Node000010" class="node">
<title>Node10</title>
<g id="a_Node000010"><a xlink:href="classiii__drone_1_1control_1_1trajectory__generator__node_1_1TrajectoryGeneratorNode.html#ac58d9ceab1e2ecc71cb971a5f360bc00" target="_top" xlink:title=" ">
<polygon fill="white" stroke="#666666" points="182.5,-102.5 8.5,-102.5 8.5,-50.5 182.5,-50.5 182.5,-102.5"/>
<text text-anchor="start" x="16.5" y="-90.5" font-family="Helvetica,sans-Serif" font-size="10.00">iii_drone::control</text>
<text text-anchor="start" x="16.5" y="-79.5" font-family="Helvetica,sans-Serif" font-size="10.00">::trajectory_generator</text>
<text text-anchor="start" x="16.5" y="-68.5" font-family="Helvetica,sans-Serif" font-size="10.00">_node::TrajectoryGeneratorNode</text>
<text text-anchor="middle" x="95.5" y="-57.5" font-family="Helvetica,sans-Serif" font-size="10.00">::TrajectoryGeneratorNode</text>
</a>
</g>
</g>
<!-- Node9&#45;&gt;Node10 -->
<g id="edge11_Node000009_Node000010" class="edge">
<title>Node9&#45;&gt;Node10</title>
<g id="a_edge11_Node000009_Node000010"><a xlink:title=" ">
<path fill="none" stroke="#63b8ff" d="M217.19,-76.5C205.59,-76.5 193.92,-76.5 182.66,-76.5"/>
<polygon fill="#63b8ff" stroke="#63b8ff" points="217.36,-80 227.36,-76.5 217.36,-73 217.36,-80"/>
</a>
</g>
</g>
</g>
</svg>
