<?xml version="1.0" encoding="UTF-8" standalone="no"?>
<!DOCTYPE svg PUBLIC "-//W3C//DTD SVG 1.1//EN"
 "http://www.w3.org/Graphics/SVG/1.1/DTD/svg11.dtd">
<!-- Generated by graphviz version 2.43.0 (0)
 -->
<!-- Title: iii_drone::control::flight_controller_node::FlightController::FlightController Pages: 1 -->
<svg width="979pt" height="190pt"
 viewBox="0.00 0.00 979.00 190.00" xmlns="http://www.w3.org/2000/svg" xmlns:xlink="http://www.w3.org/1999/xlink">
<g id="graph0" class="graph" transform="scale(1 1) rotate(0) translate(4 186)">
<title>iii_drone::control::flight_controller_node::FlightController::FlightController</title>
<!-- Node1 -->
<g id="Node000001" class="node">
<title>Node1</title>
<g id="a_Node000001"><a xlink:title="Construct a new Trajectory Controller object.">
<polygon fill="#999999" stroke="#666666" points="128,-117 0,-117 0,-65 128,-65 128,-117"/>
<text text-anchor="start" x="8" y="-105" font-family="Helvetica,sans-Serif" font-size="10.00">iii_drone::control</text>
<text text-anchor="start" x="8" y="-94" font-family="Helvetica,sans-Serif" font-size="10.00">::flight_controller</text>
<text text-anchor="start" x="8" y="-83" font-family="Helvetica,sans-Serif" font-size="10.00">_node::FlightController</text>
<text text-anchor="middle" x="64" y="-72" font-family="Helvetica,sans-Serif" font-size="10.00">::FlightController</text>
</a>
</g>
</g>
<!-- Node2 -->
<g id="Node000002" class="node">
<title>Node2</title>
<g id="a_Node000002"><a xlink:href="classiii__drone_1_1control_1_1flight__controller__node_1_1FlightControllerConfigurator.html#ac54a74b85a7899cfa731360bc053de6c" target="_top" xlink:title="Whether the drone should always hover in offboard mode.">
<polygon fill="white" stroke="#666666" points="359.5,-182 171.5,-182 171.5,-130 359.5,-130 359.5,-182"/>
<text text-anchor="start" x="179.5" y="-170" font-family="Helvetica,sans-Serif" font-size="10.00">iii_drone::control</text>
<text text-anchor="start" x="179.5" y="-159" font-family="Helvetica,sans-Serif" font-size="10.00">::flight_controller</text>
<text text-anchor="start" x="179.5" y="-148" font-family="Helvetica,sans-Serif" font-size="10.00">_node::FlightControllerConfigurator</text>
<text text-anchor="middle" x="265.5" y="-137" font-family="Helvetica,sans-Serif" font-size="10.00">::always_hover_in_offboard</text>
</a>
</g>
</g>
<!-- Node1&#45;&gt;Node2 -->
<g id="edge1_Node000001_Node000002" class="edge">
<title>Node1&#45;&gt;Node2</title>
<g id="a_edge1_Node000001_Node000002"><a xlink:title=" ">
<path fill="none" stroke="#63b8ff" d="M128.12,-111.57C142.96,-116.4 159.06,-121.65 174.82,-126.78"/>
<polygon fill="#63b8ff" stroke="#63b8ff" points="173.98,-130.19 184.58,-129.96 176.15,-123.53 173.98,-130.19"/>
</a>
</g>
</g>
<!-- Node6 -->
<g id="Node000006" class="node">
<title>Node6</title>
<g id="a_Node000006"><a xlink:href="classiii__drone_1_1control_1_1flight__controller__node_1_1FlightControllerConfigurator.html#a1d8eb55e676cafec2fb632e90acd0c2e" target="_top" xlink:title="The time step for the trajectory controller.">
<polygon fill="white" stroke="#666666" points="367,-111.5 164,-111.5 164,-70.5 367,-70.5 367,-111.5"/>
<text text-anchor="start" x="172" y="-99.5" font-family="Helvetica,sans-Serif" font-size="10.00">iii_drone::control</text>
<text text-anchor="start" x="172" y="-88.5" font-family="Helvetica,sans-Serif" font-size="10.00">::flight_controller</text>
<text text-anchor="middle" x="265.5" y="-77.5" font-family="Helvetica,sans-Serif" font-size="10.00">_node::FlightControllerConfigurator::dt</text>
</a>
</g>
</g>
<!-- Node1&#45;&gt;Node6 -->
<g id="edge7_Node000001_Node000006" class="edge">
<title>Node1&#45;&gt;Node6</title>
<g id="a_edge7_Node000001_Node000006"><a xlink:title=" ">
<path fill="none" stroke="#63b8ff" d="M128.12,-91C136.33,-91 144.92,-91 153.62,-91"/>
<polygon fill="#63b8ff" stroke="#63b8ff" points="153.87,-94.5 163.87,-91 153.87,-87.5 153.87,-94.5"/>
</a>
</g>
</g>
<!-- Node7 -->
<g id="Node000007" class="node">
<title>Node7</title>
<g id="a_Node000007"><a xlink:href="classiii__drone_1_1control_1_1flight__controller__node_1_1FlightControllerConfigurator.html#a7bbf840c5d1824e4d9027586748e38f3" target="_top" xlink:title="Whether to use Cartesian PID control for the trajectory controller.">
<polygon fill="white" stroke="#666666" points="359.5,-52 171.5,-52 171.5,0 359.5,0 359.5,-52"/>
<text text-anchor="start" x="179.5" y="-40" font-family="Helvetica,sans-Serif" font-size="10.00">iii_drone::control</text>
<text text-anchor="start" x="179.5" y="-29" font-family="Helvetica,sans-Serif" font-size="10.00">::flight_controller</text>
<text text-anchor="start" x="179.5" y="-18" font-family="Helvetica,sans-Serif" font-size="10.00">_node::FlightControllerConfigurator</text>
<text text-anchor="middle" x="265.5" y="-7" font-family="Helvetica,sans-Serif" font-size="10.00">::use_cartesian_PID</text>
</a>
</g>
</g>
<!-- Node1&#45;&gt;Node7 -->
<g id="edge9_Node000001_Node000007" class="edge">
<title>Node1&#45;&gt;Node7</title>
<g id="a_edge9_Node000001_Node000007"><a xlink:title=" ">
<path fill="none" stroke="#63b8ff" d="M128.12,-70.43C142.96,-65.6 159.06,-60.35 174.82,-55.22"/>
<polygon fill="#63b8ff" stroke="#63b8ff" points="176.15,-58.47 184.58,-52.04 173.98,-51.81 176.15,-58.47"/>
</a>
</g>
</g>
<!-- Node3 -->
<g id="Node000003" class="node">
<title>Node3</title>
<g id="a_Node000003"><a xlink:href="classiii__drone_1_1configuration_1_1Configurator.html#a896be5ed2c6890f9f5ecaa89cb0eee7d" target="_top" xlink:title="Get a parameter.">
<polygon fill="white" stroke="#666666" points="559,-106 403,-106 403,-76 559,-76 559,-106"/>
<text text-anchor="start" x="411" y="-94" font-family="Helvetica,sans-Serif" font-size="10.00">iii_drone::configuration</text>
<text text-anchor="middle" x="481" y="-83" font-family="Helvetica,sans-Serif" font-size="10.00">::Configurator::GetParameter</text>
</a>
</g>
</g>
<!-- Node2&#45;&gt;Node3 -->
<g id="edge2_Node000002_Node000003" class="edge">
<title>Node2&#45;&gt;Node3</title>
<g id="a_edge2_Node000002_Node000003"><a xlink:title=" ">
<path fill="none" stroke="#63b8ff" d="M352.11,-129.94C375.14,-122.92 399.55,-115.49 420.79,-109.03"/>
<polygon fill="#63b8ff" stroke="#63b8ff" points="422.08,-112.29 430.63,-106.03 420.04,-105.6 422.08,-112.29"/>
</a>
</g>
</g>
<!-- Node4 -->
<g id="Node000004" class="node">
<title>Node4</title>
<g id="a_Node000004"><a xlink:href="classiii__drone_1_1configuration_1_1Configurator.html#ad6e7318a12eda7011acfbe4276e7056a" target="_top" xlink:title="Gets multiple parameters.">
<polygon fill="white" stroke="#666666" points="756,-128 595,-128 595,-98 756,-98 756,-128"/>
<text text-anchor="start" x="603" y="-116" font-family="Helvetica,sans-Serif" font-size="10.00">iii_drone::configuration</text>
<text text-anchor="middle" x="675.5" y="-105" font-family="Helvetica,sans-Serif" font-size="10.00">::Configurator::GetParameters</text>
</a>
</g>
</g>
<!-- Node3&#45;&gt;Node4 -->
<g id="edge3_Node000003_Node000004" class="edge">
<title>Node3&#45;&gt;Node4</title>
<g id="a_edge3_Node000003_Node000004"><a xlink:title=" ">
<path fill="none" stroke="#63b8ff" d="M559.19,-99.82C567.61,-100.78 576.23,-101.77 584.79,-102.75"/>
<polygon fill="#63b8ff" stroke="#63b8ff" points="584.45,-106.23 594.78,-103.89 585.24,-99.28 584.45,-106.23"/>
</a>
</g>
</g>
<!-- Node5 -->
<g id="Node000005" class="node">
<title>Node5</title>
<g id="a_Node000005"><a xlink:href="classiii__drone_1_1configuration_1_1Configurator.html#ac5360ab6b4f31277c7d73b5579815353" target="_top" xlink:title="Static function for getting string representation of a parameter type from template type.">
<polygon fill="white" stroke="#666666" points="971,-111.5 792,-111.5 792,-70.5 971,-70.5 971,-111.5"/>
<text text-anchor="start" x="800" y="-99.5" font-family="Helvetica,sans-Serif" font-size="10.00">iii_drone::configuration</text>
<text text-anchor="start" x="800" y="-88.5" font-family="Helvetica,sans-Serif" font-size="10.00">::Configurator::GetParameterType</text>
<text text-anchor="middle" x="881.5" y="-77.5" font-family="Helvetica,sans-Serif" font-size="10.00">String</text>
</a>
</g>
</g>
<!-- Node3&#45;&gt;Node5 -->
<g id="edge6_Node000003_Node000005" class="edge">
<title>Node3&#45;&gt;Node5</title>
<g id="a_edge6_Node000003_Node000005"><a xlink:title=" ">
<path fill="none" stroke="#63b8ff" d="M559.2,-89.45C571.18,-89.26 583.42,-89.1 595,-89 666.55,-88.37 684.45,-88.43 756,-89 764.31,-89.07 772.94,-89.16 781.59,-89.27"/>
<polygon fill="#63b8ff" stroke="#63b8ff" points="781.7,-92.77 791.75,-89.4 781.8,-85.77 781.7,-92.77"/>
</a>
</g>
</g>
<!-- Node4&#45;&gt;Node5 -->
<g id="edge4_Node000004_Node000005" class="edge">
<title>Node4&#45;&gt;Node5</title>
<g id="a_edge4_Node000004_Node000005"><a xlink:title=" ">
<path fill="none" stroke="#63b8ff" d="M756.25,-104.4C764.6,-103.5 773.16,-102.58 781.7,-101.66"/>
<polygon fill="#63b8ff" stroke="#63b8ff" points="782.12,-105.13 791.69,-100.58 781.37,-98.17 782.12,-105.13"/>
</a>
</g>
</g>
<!-- Node5&#45;&gt;Node5 -->
<g id="edge5_Node000005_Node000005" class="edge">
<title>Node5&#45;&gt;Node5</title>
<g id="a_edge5_Node000005_Node000005"><a xlink:title=" ">
<path fill="none" stroke="#63b8ff" d="M843.64,-111.6C839.51,-121.15 852.13,-129.5 881.5,-129.5 899.86,-129.5 911.67,-126.24 916.94,-121.46"/>
<polygon fill="#63b8ff" stroke="#63b8ff" points="920.38,-122.14 919.36,-111.6 913.58,-120.47 920.38,-122.14"/>
</a>
</g>
</g>
<!-- Node6&#45;&gt;Node3 -->
<g id="edge8_Node000006_Node000003" class="edge">
<title>Node6&#45;&gt;Node3</title>
<g id="a_edge8_Node000006_Node000003"><a xlink:title=" ">
<path fill="none" stroke="#63b8ff" d="M367.31,-91C375.83,-91 384.4,-91 392.8,-91"/>
<polygon fill="#63b8ff" stroke="#63b8ff" points="392.96,-94.5 402.96,-91 392.96,-87.5 392.96,-94.5"/>
</a>
</g>
</g>
<!-- Node7&#45;&gt;Node3 -->
<g id="edge10_Node000007_Node000003" class="edge">
<title>Node7&#45;&gt;Node3</title>
<g id="a_edge10_Node000007_Node000003"><a xlink:title=" ">
<path fill="none" stroke="#63b8ff" d="M352.11,-52.06C375.14,-59.08 399.55,-66.51 420.79,-72.97"/>
<polygon fill="#63b8ff" stroke="#63b8ff" points="420.04,-76.4 430.63,-75.97 422.08,-69.71 420.04,-76.4"/>
</a>
</g>
</g>
</g>
</svg>
