<?xml version="1.0" encoding="UTF-8" standalone="no"?>
<!DOCTYPE svg PUBLIC "-//W3C//DTD SVG 1.1//EN"
 "http://www.w3.org/Graphics/SVG/1.1/DTD/svg11.dtd">
<!-- Generated by graphviz version 2.43.0 (0)
 -->
<!-- Title: iii_drone::perception::pl_mapper_node::PowerlineMapperConfigurator::plMapperOnParameterChange Pages: 1 -->
<svg width="452pt" height="73pt"
 viewBox="0.00 0.00 452.00 72.50" xmlns="http://www.w3.org/2000/svg" xmlns:xlink="http://www.w3.org/1999/xlink">
<g id="graph0" class="graph" transform="scale(1 1) rotate(0) translate(4 68.5)">
<title>iii_drone::perception::pl_mapper_node::PowerlineMapperConfigurator::plMapperOnParameterChange</title>
<!-- Node1 -->
<g id="Node000001" class="node">
<title>Node1</title>
<g id="a_Node000001"><a xlink:title="On changed parameter callback.">
<polygon fill="#999999" stroke="#666666" points="229,-52 0,-52 0,0 229,0 229,-52"/>
<text text-anchor="start" x="8" y="-40" font-family="Helvetica,sans-Serif" font-size="10.00">iii_drone::perception</text>
<text text-anchor="start" x="8" y="-29" font-family="Helvetica,sans-Serif" font-size="10.00">::pl_mapper_node::Powerline</text>
<text text-anchor="start" x="8" y="-18" font-family="Helvetica,sans-Serif" font-size="10.00">MapperConfigurator::plMapperOnParameter</text>
<text text-anchor="middle" x="114.5" y="-7" font-family="Helvetica,sans-Serif" font-size="10.00">Change</text>
</a>
</g>
</g>
<!-- Node2 -->
<g id="Node000002" class="node">
<title>Node2</title>
<g id="a_Node000002"><a xlink:href="classiii__drone_1_1configuration_1_1Configurator.html#ac5360ab6b4f31277c7d73b5579815353" target="_top" xlink:title="Static function for getting string representation of a parameter type from template type.">
<polygon fill="white" stroke="#666666" points="444,-46.5 265,-46.5 265,-5.5 444,-5.5 444,-46.5"/>
<text text-anchor="start" x="273" y="-34.5" font-family="Helvetica,sans-Serif" font-size="10.00">iii_drone::configuration</text>
<text text-anchor="start" x="273" y="-23.5" font-family="Helvetica,sans-Serif" font-size="10.00">::Configurator::GetParameterType</text>
<text text-anchor="middle" x="354.5" y="-12.5" font-family="Helvetica,sans-Serif" font-size="10.00">String</text>
</a>
</g>
</g>
<!-- Node1&#45;&gt;Node2 -->
<g id="edge1_Node000001_Node000002" class="edge">
<title>Node1&#45;&gt;Node2</title>
<g id="a_edge1_Node000001_Node000002"><a xlink:title=" ">
<path fill="none" stroke="#63b8ff" d="M229.27,-26C237.77,-26 246.3,-26 254.69,-26"/>
<polygon fill="#63b8ff" stroke="#63b8ff" points="254.85,-29.5 264.85,-26 254.85,-22.5 254.85,-29.5"/>
</a>
</g>
</g>
<!-- Node2&#45;&gt;Node2 -->
<g id="edge2_Node000002_Node000002" class="edge">
<title>Node2&#45;&gt;Node2</title>
<g id="a_edge2_Node000002_Node000002"><a xlink:title=" ">
<path fill="none" stroke="#63b8ff" d="M310.39,-46.6C305.58,-56.15 320.28,-64.5 354.5,-64.5 375.89,-64.5 389.65,-61.24 395.79,-56.46"/>
<polygon fill="#63b8ff" stroke="#63b8ff" points="399.23,-57.17 398.61,-46.6 392.5,-55.25 399.23,-57.17"/>
</a>
</g>
</g>
</g>
</svg>
