<?xml version="1.0" encoding="UTF-8" standalone="no"?>
<!DOCTYPE svg PUBLIC "-//W3C//DTD SVG 1.1//EN"
 "http://www.w3.org/Graphics/SVG/1.1/DTD/svg11.dtd">
<!-- Generated by graphviz version 2.43.0 (0)
 -->
<!-- Title: iii_drone::control::flight_controller_node::FlightControllerConfigurator::initBehaviorStateParameters Pages: 1 -->
<svg width="800pt" height="109pt"
 viewBox="0.00 0.00 800.00 109.00" xmlns="http://www.w3.org/2000/svg" xmlns:xlink="http://www.w3.org/1999/xlink">
<g id="graph0" class="graph" transform="scale(1 1) rotate(0) translate(4 105)">
<title>iii_drone::control::flight_controller_node::FlightControllerConfigurator::initBehaviorStateParameters</title>
<!-- Node1 -->
<g id="Node000001" class="node">
<title>Node1</title>
<g id="a_Node000001"><a xlink:title="Initializes the behavior state parameters.">
<polygon fill="#999999" stroke="#666666" points="188,-52 0,-52 0,0 188,0 188,-52"/>
<text text-anchor="start" x="8" y="-40" font-family="Helvetica,sans-Serif" font-size="10.00">iii_drone::control</text>
<text text-anchor="start" x="8" y="-29" font-family="Helvetica,sans-Serif" font-size="10.00">::flight_controller</text>
<text text-anchor="start" x="8" y="-18" font-family="Helvetica,sans-Serif" font-size="10.00">_node::FlightControllerConfigurator</text>
<text text-anchor="middle" x="94" y="-7" font-family="Helvetica,sans-Serif" font-size="10.00">::initBehaviorStateParameters</text>
</a>
</g>
</g>
<!-- Node2 -->
<g id="Node000002" class="node">
<title>Node2</title>
<g id="a_Node000002"><a xlink:href="classiii__drone_1_1configuration_1_1Configurator.html#a896be5ed2c6890f9f5ecaa89cb0eee7d" target="_top" xlink:title="Get a parameter.">
<polygon fill="white" stroke="#666666" points="380,-63 224,-63 224,-33 380,-33 380,-63"/>
<text text-anchor="start" x="232" y="-51" font-family="Helvetica,sans-Serif" font-size="10.00">iii_drone::configuration</text>
<text text-anchor="middle" x="302" y="-40" font-family="Helvetica,sans-Serif" font-size="10.00">::Configurator::GetParameter</text>
</a>
</g>
</g>
<!-- Node1&#45;&gt;Node2 -->
<g id="edge1_Node000001_Node000002" class="edge">
<title>Node1&#45;&gt;Node2</title>
<g id="a_edge1_Node000001_Node000002"><a xlink:title=" ">
<path fill="none" stroke="#63b8ff" d="M188.06,-35.94C196.55,-36.84 205.13,-37.76 213.56,-38.66"/>
<polygon fill="#63b8ff" stroke="#63b8ff" points="213.46,-42.17 223.77,-39.75 214.2,-35.21 213.46,-42.17"/>
</a>
</g>
</g>
<!-- Node4 -->
<g id="Node000004" class="node">
<title>Node4</title>
<g id="a_Node000004"><a xlink:href="classiii__drone_1_1configuration_1_1Configurator.html#ac5360ab6b4f31277c7d73b5579815353" target="_top" xlink:title="Static function for getting string representation of a parameter type from template type.">
<polygon fill="white" stroke="#666666" points="792,-63.5 613,-63.5 613,-22.5 792,-22.5 792,-63.5"/>
<text text-anchor="start" x="621" y="-51.5" font-family="Helvetica,sans-Serif" font-size="10.00">iii_drone::configuration</text>
<text text-anchor="start" x="621" y="-40.5" font-family="Helvetica,sans-Serif" font-size="10.00">::Configurator::GetParameterType</text>
<text text-anchor="middle" x="702.5" y="-29.5" font-family="Helvetica,sans-Serif" font-size="10.00">String</text>
</a>
</g>
</g>
<!-- Node1&#45;&gt;Node4 -->
<g id="edge6_Node000001_Node000004" class="edge">
<title>Node1&#45;&gt;Node4</title>
<g id="a_edge6_Node000001_Node000004"><a xlink:title=" ">
<path fill="none" stroke="#63b8ff" d="M188.01,-24.39C200.12,-24.23 212.35,-24.09 224,-24 293.33,-23.46 310.7,-21.95 380,-24 454.8,-26.21 539.27,-31.3 602.84,-35.66"/>
<polygon fill="#63b8ff" stroke="#63b8ff" points="602.64,-39.15 612.86,-36.35 603.13,-32.17 602.64,-39.15"/>
</a>
</g>
</g>
<!-- Node3 -->
<g id="Node000003" class="node">
<title>Node3</title>
<g id="a_Node000003"><a xlink:href="classiii__drone_1_1configuration_1_1Configurator.html#ad6e7318a12eda7011acfbe4276e7056a" target="_top" xlink:title="Gets multiple parameters.">
<polygon fill="white" stroke="#666666" points="577,-101 416,-101 416,-71 577,-71 577,-101"/>
<text text-anchor="start" x="424" y="-89" font-family="Helvetica,sans-Serif" font-size="10.00">iii_drone::configuration</text>
<text text-anchor="middle" x="496.5" y="-78" font-family="Helvetica,sans-Serif" font-size="10.00">::Configurator::GetParameters</text>
</a>
</g>
</g>
<!-- Node2&#45;&gt;Node3 -->
<g id="edge2_Node000002_Node000003" class="edge">
<title>Node2&#45;&gt;Node3</title>
<g id="a_edge2_Node000002_Node000003"><a xlink:title=" ">
<path fill="none" stroke="#63b8ff" d="M379.08,-63.02C389.01,-64.98 399.24,-67 409.33,-68.99"/>
<polygon fill="#63b8ff" stroke="#63b8ff" points="408.85,-72.46 419.34,-70.97 410.21,-65.6 408.85,-72.46"/>
</a>
</g>
</g>
<!-- Node2&#45;&gt;Node4 -->
<g id="edge5_Node000002_Node000004" class="edge">
<title>Node2&#45;&gt;Node4</title>
<g id="a_edge5_Node000002_Node000004"><a xlink:title=" ">
<path fill="none" stroke="#63b8ff" d="M380.31,-47.03C443.71,-46.23 533.88,-45.1 602.55,-44.24"/>
<polygon fill="#63b8ff" stroke="#63b8ff" points="602.99,-47.74 612.95,-44.11 602.9,-40.74 602.99,-47.74"/>
</a>
</g>
</g>
<!-- Node3&#45;&gt;Node4 -->
<g id="edge3_Node000003_Node000004" class="edge">
<title>Node3&#45;&gt;Node4</title>
<g id="a_edge3_Node000003_Node000004"><a xlink:title=" ">
<path fill="none" stroke="#63b8ff" d="M568.85,-70.96C579.87,-68.64 591.41,-66.2 602.9,-63.78"/>
<polygon fill="#63b8ff" stroke="#63b8ff" points="603.91,-67.15 612.97,-61.66 602.46,-60.3 603.91,-67.15"/>
</a>
</g>
</g>
<!-- Node4&#45;&gt;Node4 -->
<g id="edge4_Node000004_Node000004" class="edge">
<title>Node4&#45;&gt;Node4</title>
<g id="a_edge4_Node000004_Node000004"><a xlink:title=" ">
<path fill="none" stroke="#63b8ff" d="M664.64,-63.6C660.51,-73.15 673.13,-81.5 702.5,-81.5 720.86,-81.5 732.67,-78.24 737.94,-73.46"/>
<polygon fill="#63b8ff" stroke="#63b8ff" points="741.38,-74.14 740.36,-63.6 734.58,-72.47 741.38,-74.14"/>
</a>
</g>
</g>
</g>
</svg>
