<?xml version="1.0" encoding="UTF-8" standalone="no"?>
<!DOCTYPE svg PUBLIC "-//W3C//DTD SVG 1.1//EN"
 "http://www.w3.org/Graphics/SVG/1.1/DTD/svg11.dtd">
<!-- Generated by graphviz version 2.43.0 (0)
 -->
<!-- Title: iii_drone::adapters::ReferenceAdapter::reference Pages: 1 -->
<svg width="575pt" height="238pt"
 viewBox="0.00 0.00 575.00 237.50" xmlns="http://www.w3.org/2000/svg" xmlns:xlink="http://www.w3.org/1999/xlink">
<g id="graph0" class="graph" transform="scale(1 1) rotate(0) translate(4 233.5)">
<title>iii_drone::adapters::ReferenceAdapter::reference</title>
<!-- Node1 -->
<g id="Node000001" class="node">
<title>Node1</title>
<g id="a_Node000001"><a xlink:title="Reference getter.">
<polygon fill="#999999" stroke="#666666" points="567,-129 451,-129 451,-88 567,-88 567,-129"/>
<text text-anchor="start" x="459" y="-117" font-family="Helvetica,sans-Serif" font-size="10.00">iii_drone::adapters</text>
<text text-anchor="start" x="459" y="-106" font-family="Helvetica,sans-Serif" font-size="10.00">::ReferenceAdapter::</text>
<text text-anchor="middle" x="509" y="-95" font-family="Helvetica,sans-Serif" font-size="10.00">reference</text>
</a>
</g>
</g>
<!-- Node2 -->
<g id="Node000002" class="node">
<title>Node2</title>
<g id="a_Node000002"><a xlink:href="classiii__drone_1_1control_1_1trajectory__generator__node_1_1TrajectoryGeneratorNode.html#aefc447399b185fef5b912770b5059936" target="_top" xlink:title="The compute reference trajectory service callback.">
<polygon fill="white" stroke="#666666" points="415,-229.5 210,-229.5 210,-177.5 415,-177.5 415,-229.5"/>
<text text-anchor="start" x="218" y="-217.5" font-family="Helvetica,sans-Serif" font-size="10.00">iii_drone::control</text>
<text text-anchor="start" x="218" y="-206.5" font-family="Helvetica,sans-Serif" font-size="10.00">::trajectory_generator</text>
<text text-anchor="start" x="218" y="-195.5" font-family="Helvetica,sans-Serif" font-size="10.00">_node::TrajectoryGeneratorNode</text>
<text text-anchor="middle" x="312.5" y="-184.5" font-family="Helvetica,sans-Serif" font-size="10.00">::computeReferenceTrajectoryCallback</text>
</a>
</g>
</g>
<!-- Node1&#45;&gt;Node2 -->
<g id="edge1_Node000001_Node000002" class="edge">
<title>Node1&#45;&gt;Node2</title>
<g id="a_edge1_Node000001_Node000002"><a xlink:title=" ">
<path fill="none" stroke="#63b8ff" d="M471.76,-134.79C455.03,-146.15 434.57,-158.99 415,-168.5 408.55,-171.64 401.74,-174.62 394.83,-177.43"/>
<polygon fill="#63b8ff" stroke="#63b8ff" points="473.89,-137.56 480.14,-129 469.92,-131.8 473.89,-137.56"/>
</a>
</g>
</g>
<!-- Node4 -->
<g id="Node000004" class="node">
<title>Node4</title>
<g id="a_Node000004"><a xlink:href="classiii__drone_1_1adapters_1_1ReferenceTrajectoryAdapter.html#af800d09b0d21a1af103e85d423b063c7" target="_top" xlink:title="Constructor from III&#45;Drone&#45;Interfaces::ReferenceTrajectory msg.">
<polygon fill="white" stroke="#666666" points="391.5,-159 233.5,-159 233.5,-118 391.5,-118 391.5,-159"/>
<text text-anchor="start" x="241.5" y="-147" font-family="Helvetica,sans-Serif" font-size="10.00">iii_drone::adapters</text>
<text text-anchor="start" x="241.5" y="-136" font-family="Helvetica,sans-Serif" font-size="10.00">::ReferenceTrajectoryAdapter</text>
<text text-anchor="middle" x="312.5" y="-125" font-family="Helvetica,sans-Serif" font-size="10.00">::ReferenceTrajectoryAdapter</text>
</a>
</g>
</g>
<!-- Node1&#45;&gt;Node4 -->
<g id="edge3_Node000001_Node000004" class="edge">
<title>Node1&#45;&gt;Node4</title>
<g id="a_edge3_Node000001_Node000004"><a xlink:title=" ">
<path fill="none" stroke="#63b8ff" d="M440.78,-118.87C425,-121.3 408.06,-123.91 391.85,-126.42"/>
<polygon fill="#63b8ff" stroke="#63b8ff" points="441.61,-122.28 450.96,-117.3 440.54,-115.36 441.61,-122.28"/>
</a>
</g>
</g>
<!-- Node5 -->
<g id="Node000005" class="node">
<title>Node5</title>
<g id="a_Node000005"><a xlink:href="classiii__drone_1_1adapters_1_1ReferenceTrajectoryAdapter.html#a6abf0ba4e43634f0f61dd445b60e6466" target="_top" xlink:title="Constructor from III&#45;Drone&#45;Interfaces::ReferenceTrajectory msg shared pointer.">
<polygon fill="white" stroke="#666666" points="391.5,-100 233.5,-100 233.5,-59 391.5,-59 391.5,-100"/>
<text text-anchor="start" x="241.5" y="-88" font-family="Helvetica,sans-Serif" font-size="10.00">iii_drone::adapters</text>
<text text-anchor="start" x="241.5" y="-77" font-family="Helvetica,sans-Serif" font-size="10.00">::ReferenceTrajectoryAdapter</text>
<text text-anchor="middle" x="312.5" y="-66" font-family="Helvetica,sans-Serif" font-size="10.00">::ReferenceTrajectoryAdapter</text>
</a>
</g>
</g>
<!-- Node1&#45;&gt;Node5 -->
<g id="edge4_Node000001_Node000005" class="edge">
<title>Node1&#45;&gt;Node5</title>
<g id="a_edge4_Node000001_Node000005"><a xlink:title=" ">
<path fill="none" stroke="#63b8ff" d="M440.78,-98.48C425,-96.13 408.06,-93.6 391.85,-91.18"/>
<polygon fill="#63b8ff" stroke="#63b8ff" points="440.55,-101.98 450.96,-99.99 441.58,-95.06 440.55,-101.98"/>
</a>
</g>
</g>
<!-- Node6 -->
<g id="Node000006" class="node">
<title>Node6</title>
<g id="a_Node000006"><a xlink:href="classiii__drone_1_1adapters_1_1px4_1_1TrajectorySetpointAdapter.html#a1c5d082bd10a5ddc1b0966b9b55c0e9b" target="_top" xlink:title="Constructor from iii_drone::adapters::ReferenceAdapter.">
<polygon fill="white" stroke="#666666" points="399,-41 226,-41 226,0 399,0 399,-41"/>
<text text-anchor="start" x="234" y="-29" font-family="Helvetica,sans-Serif" font-size="10.00">iii_drone::adapters</text>
<text text-anchor="start" x="234" y="-18" font-family="Helvetica,sans-Serif" font-size="10.00">::px4::TrajectorySetpointAdapter</text>
<text text-anchor="middle" x="312.5" y="-7" font-family="Helvetica,sans-Serif" font-size="10.00">::TrajectorySetpointAdapter</text>
</a>
</g>
</g>
<!-- Node1&#45;&gt;Node6 -->
<g id="edge5_Node000001_Node000006" class="edge">
<title>Node1&#45;&gt;Node6</title>
<g id="a_edge5_Node000001_Node000006"><a xlink:title=" ">
<path fill="none" stroke="#63b8ff" d="M471.08,-82.26C454.51,-71.34 434.36,-59.2 415,-50.5 407.37,-47.07 399.25,-43.91 391.05,-41.04"/>
<polygon fill="#63b8ff" stroke="#63b8ff" points="469.14,-85.17 479.4,-87.83 473.04,-79.35 469.14,-85.17"/>
</a>
</g>
</g>
<!-- Node3 -->
<g id="Node000003" class="node">
<title>Node3</title>
<g id="a_Node000003"><a xlink:href="classiii__drone_1_1control_1_1trajectory__generator__node_1_1TrajectoryGeneratorNode.html#ac58d9ceab1e2ecc71cb971a5f360bc00" target="_top" xlink:title=" ">
<polygon fill="white" stroke="#666666" points="174,-229.5 0,-229.5 0,-177.5 174,-177.5 174,-229.5"/>
<text text-anchor="start" x="8" y="-217.5" font-family="Helvetica,sans-Serif" font-size="10.00">iii_drone::control</text>
<text text-anchor="start" x="8" y="-206.5" font-family="Helvetica,sans-Serif" font-size="10.00">::trajectory_generator</text>
<text text-anchor="start" x="8" y="-195.5" font-family="Helvetica,sans-Serif" font-size="10.00">_node::TrajectoryGeneratorNode</text>
<text text-anchor="middle" x="87" y="-184.5" font-family="Helvetica,sans-Serif" font-size="10.00">::TrajectoryGeneratorNode</text>
</a>
</g>
</g>
<!-- Node2&#45;&gt;Node3 -->
<g id="edge2_Node000002_Node000003" class="edge">
<title>Node2&#45;&gt;Node3</title>
<g id="a_edge2_Node000002_Node000003"><a xlink:title=" ">
<path fill="none" stroke="#63b8ff" d="M199.84,-203.5C191.27,-203.5 182.7,-203.5 174.34,-203.5"/>
<polygon fill="#63b8ff" stroke="#63b8ff" points="199.89,-207 209.89,-203.5 199.89,-200 199.89,-207"/>
</a>
</g>
</g>
</g>
</svg>
