<?xml version="1.0" encoding="UTF-8" standalone="no"?>
<!DOCTYPE svg PUBLIC "-//W3C//DTD SVG 1.1//EN"
 "http://www.w3.org/Graphics/SVG/1.1/DTD/svg11.dtd">
<!-- Generated by graphviz version 2.43.0 (0)
 -->
<!-- Title: iii_drone::configuration::Configurator Pages: 1 -->
<svg width="400pt" height="426pt"
 viewBox="0.00 0.00 399.50 426.00" xmlns="http://www.w3.org/2000/svg" xmlns:xlink="http://www.w3.org/1999/xlink">

<svg id="main" version="1.1" xmlns="http://www.w3.org/2000/svg" xmlns:xlink="http://www.w3.org/1999/xlink" xml:space="preserve" onload="init(evt)">
<style type="text/css"><![CDATA[
.node, .edge {opacity: 0.7;}
.node.selected, .edge.selected {opacity: 1;}
.edge:hover path { stroke: red; }
.edge:hover polygon { stroke: red; fill: red; }
]]></style>
<script type="application/ecmascript" xlink:href="svg.min.js"/>
<svg id="graph" class="graph">
<g id="graph0" class="graph" transform="scale(1 1) rotate(0) translate(4 422)">
<title>iii_drone::configuration::Configurator</title>
<!-- Node1 -->
<g id="Node000001" class="node">
<title>Node1</title>
<g id="a_Node000001"><a xlink:title="Class for handling parameters of a node. The class works in conjunction with the ConfigurationServer ...">
<polygon fill="#999999" stroke="transparent" points="273.5,-311 93.5,-311 93.5,0 273.5,0 273.5,-311"/>
<text text-anchor="start" x="127.5" y="-298.5" font-family="Helvetica,sans-Serif" font-size="10.00">iii_drone::configuration</text>
<text text-anchor="start" x="150" y="-287.5" font-family="Helvetica,sans-Serif" font-size="10.00">::Configurator</text>
<text text-anchor="start" x="97.5" y="-272.5" font-family="Helvetica,sans-Serif" font-size="10.00">#</text>
<text text-anchor="start" x="110.5" y="-272.5" font-family="Helvetica,sans-Serif" font-size="10.00">node_</text>
<text text-anchor="start" x="100" y="-257.5" font-family="Helvetica,sans-Serif" font-size="10.00">&#45;</text>
<text text-anchor="start" x="110.5" y="-257.5" font-family="Helvetica,sans-Serif" font-size="10.00">declare_parameter_client_</text>
<text text-anchor="start" x="100" y="-242.5" font-family="Helvetica,sans-Serif" font-size="10.00">&#45;</text>
<text text-anchor="start" x="110.5" y="-242.5" font-family="Helvetica,sans-Serif" font-size="10.00">get_parameters_client_</text>
<text text-anchor="start" x="100" y="-227.5" font-family="Helvetica,sans-Serif" font-size="10.00">&#45;</text>
<text text-anchor="start" x="110.5" y="-227.5" font-family="Helvetica,sans-Serif" font-size="10.00">parameter_events_subscriber_</text>
<text text-anchor="start" x="100" y="-212.5" font-family="Helvetica,sans-Serif" font-size="10.00">&#45;</text>
<text text-anchor="start" x="110.5" y="-212.5" font-family="Helvetica,sans-Serif" font-size="10.00">after_parameter_change</text>
<text text-anchor="start" x="110.5" y="-201.5" font-family="Helvetica,sans-Serif" font-size="10.00">_callback_</text>
<text text-anchor="start" x="97.5" y="-186.5" font-family="Helvetica,sans-Serif" font-size="10.00">+</text>
<text text-anchor="start" x="110.5" y="-186.5" font-family="Helvetica,sans-Serif" font-size="10.00">Configurator()</text>
<text text-anchor="start" x="97.5" y="-171.5" font-family="Helvetica,sans-Serif" font-size="10.00">+</text>
<text text-anchor="start" x="110.5" y="-171.5" font-family="Helvetica,sans-Serif" font-size="10.00">Configurator()</text>
<text text-anchor="start" x="97.5" y="-156.5" font-family="Helvetica,sans-Serif" font-size="10.00">+</text>
<text text-anchor="start" x="110.5" y="-156.5" font-family="Helvetica,sans-Serif" font-size="10.00">~Configurator()</text>
<text text-anchor="start" x="97.5" y="-141.5" font-family="Helvetica,sans-Serif" font-size="10.00">+</text>
<text text-anchor="start" x="110.5" y="-141.5" font-family="Helvetica,sans-Serif" font-size="10.00">DeclareParameter()</text>
<text text-anchor="start" x="97.5" y="-126.5" font-family="Helvetica,sans-Serif" font-size="10.00">+</text>
<text text-anchor="start" x="110.5" y="-126.5" font-family="Helvetica,sans-Serif" font-size="10.00">GetParameter()</text>
<text text-anchor="start" x="97.5" y="-111.5" font-family="Helvetica,sans-Serif" font-size="10.00">+</text>
<text text-anchor="start" x="110.5" y="-111.5" font-family="Helvetica,sans-Serif" font-size="10.00">GetParameters()</text>
<text text-anchor="start" x="97.5" y="-96.5" font-family="Helvetica,sans-Serif" font-size="10.00">+</text>
<text text-anchor="start" x="110.5" y="-96.5" font-family="Helvetica,sans-Serif" font-size="10.00">SyncParameters()</text>
<text text-anchor="start" x="97.5" y="-81.5" font-family="Helvetica,sans-Serif" font-size="10.00">+</text>
<text text-anchor="start" x="110.5" y="-81.5" font-family="Helvetica,sans-Serif" font-size="10.00">PrintParameters()</text>
<text text-anchor="start" x="97.5" y="-66.5" font-family="Helvetica,sans-Serif" font-size="10.00">+</text>
<text text-anchor="start" x="110.5" y="-66.5" font-family="Helvetica,sans-Serif" font-size="10.00">GetParameterTypeString()</text>
<text text-anchor="start" x="100" y="-51.5" font-family="Helvetica,sans-Serif" font-size="10.00">&#45;</text>
<text text-anchor="start" x="110.5" y="-51.5" font-family="Helvetica,sans-Serif" font-size="10.00">parameterEventCallback()</text>
<text text-anchor="start" x="100" y="-36.5" font-family="Helvetica,sans-Serif" font-size="10.00">&#45;</text>
<text text-anchor="start" x="110.5" y="-36.5" font-family="Helvetica,sans-Serif" font-size="10.00">sendDeclareParameterRequest()</text>
<text text-anchor="start" x="100" y="-21.5" font-family="Helvetica,sans-Serif" font-size="10.00">&#45;</text>
<text text-anchor="start" x="110.5" y="-21.5" font-family="Helvetica,sans-Serif" font-size="10.00">sendGetParameterRequest()</text>
<text text-anchor="start" x="100" y="-6.5" font-family="Helvetica,sans-Serif" font-size="10.00">&#45;</text>
<text text-anchor="start" x="110.5" y="-6.5" font-family="Helvetica,sans-Serif" font-size="10.00">sendGetParametersRequest()</text>
<polygon fill="#666666" stroke="#666666" points="93.5,-282.5 93.5,-282.5 273.5,-282.5 273.5,-282.5 93.5,-282.5"/>
<polygon fill="#666666" stroke="#666666" points="93.5,-196.5 93.5,-196.5 108.5,-196.5 108.5,-196.5 93.5,-196.5"/>
<polygon fill="#666666" stroke="#666666" points="108.5,-196.5 108.5,-196.5 273.5,-196.5 273.5,-196.5 108.5,-196.5"/>
<polygon fill="none" stroke="#666666" points="93.5,0 93.5,-311 273.5,-311 273.5,0 93.5,0"/>
</a>
</g>
</g>
<!-- Node2 -->
<g id="Node000002" class="node">
<title>Node2</title>
<g id="a_Node000002"><a xlink:title=" ">
<polygon fill="white" stroke="transparent" points="103,-418 0,-418 0,-358 103,-358 103,-418"/>
<text text-anchor="start" x="5.5" y="-406" font-family="Helvetica,sans-Serif" font-size="10.00">std::vector&lt; rclcpp</text>
<text text-anchor="start" x="18" y="-395" font-family="Helvetica,sans-Serif" font-size="10.00">::Parameter &gt;</text>
<text text-anchor="start" x="13.5" y="-380" font-family="Helvetica,sans-Serif" font-size="10.00">+</text>
<text text-anchor="start" x="35.5" y="-380" font-family="Helvetica,sans-Serif" font-size="10.00">elements</text>
<text text-anchor="start" x="50" y="-365" font-family="Helvetica,sans-Serif" font-size="10.00"> </text>
<polygon fill="#666666" stroke="#666666" points="0.5,-390 0.5,-390 103.5,-390 103.5,-390 0.5,-390"/>
<polygon fill="#666666" stroke="#666666" points="0.5,-375 0.5,-375 33.5,-375 33.5,-375 0.5,-375"/>
<polygon fill="#666666" stroke="#666666" points="33.5,-375 33.5,-375 103.5,-375 103.5,-375 33.5,-375"/>
<polygon fill="none" stroke="#666666" points="0,-358 0,-418 103,-418 103,-358 0,-358"/>
</a>
</g>
</g>
<!-- Node2&#45;&gt;Node1 -->
<g id="edge1_Node000001_Node000002" class="edge">
<title>Node2&#45;&gt;Node1</title>
<g id="a_edge1_Node000001_Node000002"><a xlink:title=" ">
<path fill="none" stroke="#63b8ff" d="M68.22,-357.81C74.08,-347.57 81.14,-335.24 88.85,-321.77"/>
<polygon fill="none" stroke="#63b8ff" points="88.9,-321.68 88.41,-314.49 94.87,-311.27 95.36,-318.47 88.9,-321.68"/>
</a>
</g>
<text text-anchor="middle" x="118" y="-332" font-family="Helvetica,sans-Serif" font-size="10.00" fill="grey"> &#45;parameters_</text>
</g>
<!-- Node3 -->
<g id="Node000003" class="node">
<title>Node3</title>
<g id="a_Node000003"><a xlink:title=" ">
<polygon fill="white" stroke="transparent" points="245.5,-418 121.5,-418 121.5,-358 245.5,-358 245.5,-418"/>
<text text-anchor="start" x="126.5" y="-406" font-family="Helvetica,sans-Serif" font-size="10.00">std::unique_ptr&lt; rclcpp</text>
<text text-anchor="start" x="165" y="-395" font-family="Helvetica,sans-Serif" font-size="10.00">::QoS &gt;</text>
<text text-anchor="start" x="136" y="-380" font-family="Helvetica,sans-Serif" font-size="10.00">+</text>
<text text-anchor="start" x="159.5" y="-380" font-family="Helvetica,sans-Serif" font-size="10.00">ptr</text>
<text text-anchor="start" x="136" y="-365" font-family="Helvetica,sans-Serif" font-size="10.00">+</text>
<text text-anchor="start" x="159.5" y="-365" font-family="Helvetica,sans-Serif" font-size="10.00">operator&#45;&gt;()</text>
<polygon fill="#666666" stroke="#666666" points="121.5,-390 121.5,-390 245.5,-390 245.5,-390 121.5,-390"/>
<polygon fill="#666666" stroke="#666666" points="121.5,-375 121.5,-375 157.5,-375 157.5,-375 121.5,-375"/>
<polygon fill="#666666" stroke="#666666" points="157.5,-375 157.5,-375 245.5,-375 245.5,-375 157.5,-375"/>
<polygon fill="none" stroke="#666666" points="121.5,-358 121.5,-418 245.5,-418 245.5,-358 121.5,-358"/>
</a>
</g>
</g>
<!-- Node3&#45;&gt;Node1 -->
<g id="edge2_Node000001_Node000003" class="edge">
<title>Node3&#45;&gt;Node1</title>
<g id="a_edge2_Node000001_Node000003"><a xlink:title=" ">
<path fill="none" stroke="#63b8ff" d="M183.5,-357.81C183.5,-347.98 183.5,-336.2 183.5,-323.35"/>
<polygon fill="none" stroke="#63b8ff" points="183.5,-323.27 179.5,-317.27 183.5,-311.27 187.5,-317.27 183.5,-323.27"/>
</a>
</g>
<text text-anchor="middle" x="198.5" y="-332" font-family="Helvetica,sans-Serif" font-size="10.00" fill="grey"> &#45;qos_</text>
</g>
<!-- Node4 -->
<g id="Node000004" class="node">
<title>Node4</title>
<g id="a_Node000004"><a xlink:title=" ">
<polygon fill="white" stroke="transparent" points="365,-412.5 264,-412.5 264,-363.5 365,-363.5 365,-412.5"/>
<text text-anchor="start" x="269.5" y="-400" font-family="Helvetica,sans-Serif" font-size="10.00">std::shared_mutex</text>
<text text-anchor="start" x="313" y="-385" font-family="Helvetica,sans-Serif" font-size="10.00"> </text>
<text text-anchor="start" x="313" y="-370" font-family="Helvetica,sans-Serif" font-size="10.00"> </text>
<polygon fill="#666666" stroke="#666666" points="264.5,-395 264.5,-395 365.5,-395 365.5,-395 264.5,-395"/>
<polygon fill="#666666" stroke="#666666" points="264.5,-380 264.5,-380 365.5,-380 365.5,-380 264.5,-380"/>
<polygon fill="none" stroke="#666666" points="264,-363.5 264,-412.5 365,-412.5 365,-363.5 264,-363.5"/>
</a>
</g>
</g>
<!-- Node4&#45;&gt;Node1 -->
<g id="edge3_Node000001_Node000004" class="edge">
<title>Node4&#45;&gt;Node1</title>
<g id="a_edge3_Node000001_Node000004"><a xlink:title=" ">
<path fill="none" stroke="#63b8ff" d="M300.97,-363.2C294.65,-352.07 286.51,-337.75 277.48,-321.86"/>
<polygon fill="none" stroke="#63b8ff" points="277.36,-321.64 270.91,-318.4 271.43,-311.21 277.87,-314.45 277.36,-321.64"/>
</a>
</g>
<text text-anchor="middle" x="338.5" y="-332" font-family="Helvetica,sans-Serif" font-size="10.00" fill="grey"> &#45;parameters_mutex_</text>
</g>
</g>
</svg>
</svg>

<style type='text/css'>
<![CDATA[
[data-mouse-over-selected='false'] { opacity: 0.7; }
[data-mouse-over-selected='true']  { opacity: 1.0; }
]]>
</style>
<script type="application/ecmascript"><![CDATA[
document.addEventListener('DOMContentLoaded', (event) => {
  highlightEdges();
  highlightAdjacentNodes();
});
]]></script>
</svg>
