<?xml version="1.0" encoding="UTF-8" standalone="no"?>
<!DOCTYPE svg PUBLIC "-//W3C//DTD SVG 1.1//EN"
 "http://www.w3.org/Graphics/SVG/1.1/DTD/svg11.dtd">
<!-- Generated by graphviz version 2.43.0 (0)
 -->
<!-- Title: iii_drone::control::maneuver::ManeuverServer::ManeuverServer Pages: 1 -->
<svg width="748pt" height="167pt"
 viewBox="0.00 0.00 748.00 167.00" xmlns="http://www.w3.org/2000/svg" xmlns:xlink="http://www.w3.org/1999/xlink">
<g id="graph0" class="graph" transform="scale(1 1) rotate(0) translate(4 163)">
<title>iii_drone::control::maneuver::ManeuverServer::ManeuverServer</title>
<!-- Node1 -->
<g id="Node000001" class="node">
<title>Node1</title>
<g id="a_Node000001"><a xlink:title="Constructor.">
<polygon fill="#999999" stroke="#666666" points="158,-100 0,-100 0,-59 158,-59 158,-100"/>
<text text-anchor="start" x="8" y="-88" font-family="Helvetica,sans-Serif" font-size="10.00">iii_drone::control</text>
<text text-anchor="start" x="8" y="-77" font-family="Helvetica,sans-Serif" font-size="10.00">::maneuver::ManeuverServer</text>
<text text-anchor="middle" x="79" y="-66" font-family="Helvetica,sans-Serif" font-size="10.00">::ManeuverServer</text>
</a>
</g>
</g>
<!-- Node2 -->
<g id="Node000002" class="node">
<title>Node2</title>
<g id="a_Node000002"><a xlink:href="classiii__drone_1_1control_1_1maneuver_1_1ManeuverServer.html#ab26a6fab643c98429b5f7963520a10c3" target="_top" xlink:title="Handle accepted callback.">
<polygon fill="white" stroke="#666666" points="352,-159 194,-159 194,-118 352,-118 352,-159"/>
<text text-anchor="start" x="202" y="-147" font-family="Helvetica,sans-Serif" font-size="10.00">iii_drone::control</text>
<text text-anchor="start" x="202" y="-136" font-family="Helvetica,sans-Serif" font-size="10.00">::maneuver::ManeuverServer</text>
<text text-anchor="middle" x="273" y="-125" font-family="Helvetica,sans-Serif" font-size="10.00">::handleAccepted</text>
</a>
</g>
</g>
<!-- Node1&#45;&gt;Node2 -->
<g id="edge1_Node000001_Node000002" class="edge">
<title>Node1&#45;&gt;Node2</title>
<g id="a_edge1_Node000001_Node000002"><a xlink:title=" ">
<path fill="none" stroke="#63b8ff" d="M146.88,-100.05C162.48,-104.84 179.2,-109.98 195.19,-114.9"/>
<polygon fill="#63b8ff" stroke="#63b8ff" points="194.45,-118.33 205.03,-117.92 196.5,-111.64 194.45,-118.33"/>
</a>
</g>
</g>
<!-- Node5 -->
<g id="Node000005" class="node">
<title>Node5</title>
<g id="a_Node000005"><a xlink:href="classiii__drone_1_1control_1_1maneuver_1_1ManeuverServer.html#a474472c186eb6280c28bab0fe043b6e7" target="_top" xlink:title="Handle cancel callback.">
<polygon fill="white" stroke="#666666" points="352,-100 194,-100 194,-59 352,-59 352,-100"/>
<text text-anchor="start" x="202" y="-88" font-family="Helvetica,sans-Serif" font-size="10.00">iii_drone::control</text>
<text text-anchor="start" x="202" y="-77" font-family="Helvetica,sans-Serif" font-size="10.00">::maneuver::ManeuverServer</text>
<text text-anchor="middle" x="273" y="-66" font-family="Helvetica,sans-Serif" font-size="10.00">::handleCancel</text>
</a>
</g>
</g>
<!-- Node1&#45;&gt;Node5 -->
<g id="edge4_Node000001_Node000005" class="edge">
<title>Node1&#45;&gt;Node5</title>
<g id="a_edge4_Node000001_Node000005"><a xlink:title=" ">
<path fill="none" stroke="#63b8ff" d="M158.09,-79.5C166.6,-79.5 175.3,-79.5 183.92,-79.5"/>
<polygon fill="#63b8ff" stroke="#63b8ff" points="183.98,-83 193.98,-79.5 183.98,-76 183.98,-83"/>
</a>
</g>
</g>
<!-- Node6 -->
<g id="Node000006" class="node">
<title>Node6</title>
<g id="a_Node000006"><a xlink:href="classiii__drone_1_1control_1_1maneuver_1_1ManeuverServer.html#ad0bea8650490a43c4651e50c9bacd443" target="_top" xlink:title="Handle goal callback.">
<polygon fill="white" stroke="#666666" points="352,-41 194,-41 194,0 352,0 352,-41"/>
<text text-anchor="start" x="202" y="-29" font-family="Helvetica,sans-Serif" font-size="10.00">iii_drone::control</text>
<text text-anchor="start" x="202" y="-18" font-family="Helvetica,sans-Serif" font-size="10.00">::maneuver::ManeuverServer</text>
<text text-anchor="middle" x="273" y="-7" font-family="Helvetica,sans-Serif" font-size="10.00">::handleGoal</text>
</a>
</g>
</g>
<!-- Node1&#45;&gt;Node6 -->
<g id="edge5_Node000001_Node000006" class="edge">
<title>Node1&#45;&gt;Node6</title>
<g id="a_edge5_Node000001_Node000006"><a xlink:title=" ">
<path fill="none" stroke="#63b8ff" d="M146.88,-58.95C162.48,-54.16 179.2,-49.02 195.19,-44.1"/>
<polygon fill="#63b8ff" stroke="#63b8ff" points="196.5,-47.36 205.03,-41.08 194.45,-40.67 196.5,-47.36"/>
</a>
</g>
</g>
<!-- Node3 -->
<g id="Node000003" class="node">
<title>Node3</title>
<g id="a_Node000003"><a xlink:href="classiii__drone_1_1control_1_1maneuver_1_1ManeuverServer.html#a351eaab981ef2f8023d814b116391218" target="_top" xlink:title="Execute.">
<polygon fill="white" stroke="#666666" points="546,-159 388,-159 388,-118 546,-118 546,-159"/>
<text text-anchor="start" x="396" y="-147" font-family="Helvetica,sans-Serif" font-size="10.00">iii_drone::control</text>
<text text-anchor="start" x="396" y="-136" font-family="Helvetica,sans-Serif" font-size="10.00">::maneuver::ManeuverServer</text>
<text text-anchor="middle" x="467" y="-125" font-family="Helvetica,sans-Serif" font-size="10.00">::execute</text>
</a>
</g>
</g>
<!-- Node2&#45;&gt;Node3 -->
<g id="edge2_Node000002_Node000003" class="edge">
<title>Node2&#45;&gt;Node3</title>
<g id="a_edge2_Node000002_Node000003"><a xlink:title=" ">
<path fill="none" stroke="#63b8ff" d="M352.09,-138.5C360.6,-138.5 369.3,-138.5 377.92,-138.5"/>
<polygon fill="#63b8ff" stroke="#63b8ff" points="377.98,-142 387.98,-138.5 377.98,-135 377.98,-142"/>
</a>
</g>
</g>
<!-- Node4 -->
<g id="Node000004" class="node">
<title>Node4</title>
<g id="a_Node000004"><a xlink:href="classiii__drone_1_1control_1_1maneuver_1_1ManeuverServer.html#a2e1d61a952417f23bb49b7c7b012075c" target="_top" xlink:title="Get reference callback.">
<polygon fill="white" stroke="#666666" points="740,-159 582,-159 582,-118 740,-118 740,-159"/>
<text text-anchor="start" x="590" y="-147" font-family="Helvetica,sans-Serif" font-size="10.00">iii_drone::control</text>
<text text-anchor="start" x="590" y="-136" font-family="Helvetica,sans-Serif" font-size="10.00">::maneuver::ManeuverServer</text>
<text text-anchor="middle" x="661" y="-125" font-family="Helvetica,sans-Serif" font-size="10.00">::getReference</text>
</a>
</g>
</g>
<!-- Node3&#45;&gt;Node4 -->
<g id="edge3_Node000003_Node000004" class="edge">
<title>Node3&#45;&gt;Node4</title>
<g id="a_edge3_Node000003_Node000004"><a xlink:title=" ">
<path fill="none" stroke="#63b8ff" d="M546.09,-138.5C554.6,-138.5 563.3,-138.5 571.92,-138.5"/>
<polygon fill="#63b8ff" stroke="#63b8ff" points="571.98,-142 581.98,-138.5 571.98,-135 571.98,-142"/>
</a>
</g>
</g>
</g>
</svg>
