<?xml version="1.0" encoding="UTF-8" standalone="no"?>
<!DOCTYPE svg PUBLIC "-//W3C//DTD SVG 1.1//EN"
 "http://www.w3.org/Graphics/SVG/1.1/DTD/svg11.dtd">
<!-- Generated by graphviz version 2.43.0 (0)
 -->
<!-- Title: iii_drone::control::Reference::Reference Pages: 1 -->
<svg width="336pt" height="326pt"
 viewBox="0.00 0.00 336.00 326.00" xmlns="http://www.w3.org/2000/svg" xmlns:xlink="http://www.w3.org/1999/xlink">
<g id="graph0" class="graph" transform="scale(1 1) rotate(0) translate(4 322)">
<title>iii_drone::control::Reference::Reference</title>
<!-- Node1 -->
<g id="Node000001" class="node">
<title>Node1</title>
<g id="a_Node000001"><a xlink:title=" ">
<polygon fill="#999999" stroke="#666666" points="128,-174 0,-174 0,-144 128,-144 128,-174"/>
<text text-anchor="start" x="8" y="-162" font-family="Helvetica,sans-Serif" font-size="10.00">iii_drone::control</text>
<text text-anchor="middle" x="64" y="-151" font-family="Helvetica,sans-Serif" font-size="10.00">::Reference::Reference</text>
</a>
</g>
</g>
<!-- Node2 -->
<g id="Node000002" class="node">
<title>Node2</title>
<g id="a_Node000002"><a xlink:href="classiii__drone_1_1control_1_1Reference.html#af6cf6c27339aab63f6b029e976caa4b7" target="_top" xlink:title=" ">
<polygon fill="white" stroke="#666666" points="315,-318 177,-318 177,-288 315,-288 315,-318"/>
<text text-anchor="start" x="185" y="-306" font-family="Helvetica,sans-Serif" font-size="10.00">iii_drone::control</text>
<text text-anchor="middle" x="246" y="-295" font-family="Helvetica,sans-Serif" font-size="10.00">::Reference::acceleration</text>
</a>
</g>
</g>
<!-- Node1&#45;&gt;Node2 -->
<g id="edge1_Node000001_Node000002" class="edge">
<title>Node1&#45;&gt;Node2</title>
<g id="a_edge1_Node000001_Node000002"><a xlink:title=" ">
<path fill="none" stroke="#63b8ff" d="M73.52,-174.38C88.47,-199.95 121.88,-251.13 164,-279 166.41,-280.59 168.92,-282.08 171.52,-283.48"/>
<polygon fill="#63b8ff" stroke="#63b8ff" points="170.07,-286.66 180.6,-287.85 173.11,-280.36 170.07,-286.66"/>
</a>
</g>
</g>
<!-- Node3 -->
<g id="Node000003" class="node">
<title>Node3</title>
<g id="a_Node000003"><a xlink:href="classiii__drone_1_1control_1_1Reference.html#a2ba5647e5161e35e0588394dcae0663b" target="_top" xlink:title=" ">
<polygon fill="white" stroke="#666666" points="304.5,-270 187.5,-270 187.5,-240 304.5,-240 304.5,-270"/>
<text text-anchor="start" x="195.5" y="-258" font-family="Helvetica,sans-Serif" font-size="10.00">iii_drone::control</text>
<text text-anchor="middle" x="246" y="-247" font-family="Helvetica,sans-Serif" font-size="10.00">::Reference::position</text>
</a>
</g>
</g>
<!-- Node1&#45;&gt;Node3 -->
<g id="edge2_Node000001_Node000003" class="edge">
<title>Node1&#45;&gt;Node3</title>
<g id="a_edge2_Node000001_Node000003"><a xlink:title=" ">
<path fill="none" stroke="#63b8ff" d="M82.06,-174.24C100.91,-190.37 132.74,-215.58 164,-231 168.37,-233.16 172.98,-235.16 177.68,-237.01"/>
<polygon fill="#63b8ff" stroke="#63b8ff" points="176.83,-240.43 187.42,-240.6 179.24,-233.86 176.83,-240.43"/>
</a>
</g>
</g>
<!-- Node4 -->
<g id="Node000004" class="node">
<title>Node4</title>
<g id="a_Node000004"><a xlink:href="classiii__drone_1_1control_1_1Reference.html#a2ef1baafb09875a2af495e006f98c7c5" target="_top" xlink:title=" ">
<polygon fill="white" stroke="#666666" points="300.5,-222 191.5,-222 191.5,-192 300.5,-192 300.5,-222"/>
<text text-anchor="start" x="199.5" y="-210" font-family="Helvetica,sans-Serif" font-size="10.00">iii_drone::control</text>
<text text-anchor="middle" x="246" y="-199" font-family="Helvetica,sans-Serif" font-size="10.00">::Reference::stamp</text>
</a>
</g>
</g>
<!-- Node1&#45;&gt;Node4 -->
<g id="edge3_Node000001_Node000004" class="edge">
<title>Node1&#45;&gt;Node4</title>
<g id="a_edge3_Node000001_Node000004"><a xlink:title=" ">
<path fill="none" stroke="#63b8ff" d="M121.46,-174.06C140.51,-179.14 161.9,-184.84 181.46,-190.06"/>
<polygon fill="#63b8ff" stroke="#63b8ff" points="180.64,-193.46 191.2,-192.65 182.44,-186.69 180.64,-193.46"/>
</a>
</g>
</g>
<!-- Node5 -->
<g id="Node000005" class="node">
<title>Node5</title>
<g id="a_Node000005"><a xlink:href="classiii__drone_1_1control_1_1Reference.html#a5d85fddf537e6663badb5654a23a4bce" target="_top" xlink:title=" ">
<polygon fill="white" stroke="#666666" points="304.5,-174 187.5,-174 187.5,-144 304.5,-144 304.5,-174"/>
<text text-anchor="start" x="195.5" y="-162" font-family="Helvetica,sans-Serif" font-size="10.00">iii_drone::control</text>
<text text-anchor="middle" x="246" y="-151" font-family="Helvetica,sans-Serif" font-size="10.00">::Reference::velocity</text>
</a>
</g>
</g>
<!-- Node1&#45;&gt;Node5 -->
<g id="edge4_Node000001_Node000005" class="edge">
<title>Node1&#45;&gt;Node5</title>
<g id="a_edge4_Node000001_Node000005"><a xlink:title=" ">
<path fill="none" stroke="#63b8ff" d="M128.21,-159C144,-159 161,-159 177,-159"/>
<polygon fill="#63b8ff" stroke="#63b8ff" points="177.36,-162.5 187.36,-159 177.36,-155.5 177.36,-162.5"/>
</a>
</g>
</g>
<!-- Node6 -->
<g id="Node000006" class="node">
<title>Node6</title>
<g id="a_Node000006"><a xlink:href="classiii__drone_1_1control_1_1Reference.html#a784277cbb64476953132a8e239f9ae9e" target="_top" xlink:title=" ">
<polygon fill="white" stroke="#666666" points="295,-126 197,-126 197,-96 295,-96 295,-126"/>
<text text-anchor="start" x="205" y="-114" font-family="Helvetica,sans-Serif" font-size="10.00">iii_drone::control</text>
<text text-anchor="middle" x="246" y="-103" font-family="Helvetica,sans-Serif" font-size="10.00">::Reference::yaw</text>
</a>
</g>
</g>
<!-- Node1&#45;&gt;Node6 -->
<g id="edge5_Node000001_Node000006" class="edge">
<title>Node1&#45;&gt;Node6</title>
<g id="a_edge5_Node000001_Node000006"><a xlink:title=" ">
<path fill="none" stroke="#63b8ff" d="M121.46,-143.94C142.38,-138.37 166.11,-132.04 187.15,-126.43"/>
<polygon fill="#63b8ff" stroke="#63b8ff" points="188.16,-129.78 196.92,-123.82 186.36,-123.02 188.16,-129.78"/>
</a>
</g>
</g>
<!-- Node7 -->
<g id="Node000007" class="node">
<title>Node7</title>
<g id="a_Node000007"><a xlink:href="classiii__drone_1_1control_1_1Reference.html#a94ddbc48fd727336b1896eb1c666170a" target="_top" xlink:title=" ">
<polygon fill="white" stroke="#666666" points="328,-78 164,-78 164,-48 328,-48 328,-78"/>
<text text-anchor="start" x="172" y="-66" font-family="Helvetica,sans-Serif" font-size="10.00">iii_drone::control</text>
<text text-anchor="middle" x="246" y="-55" font-family="Helvetica,sans-Serif" font-size="10.00">::Reference::yaw_acceleration</text>
</a>
</g>
</g>
<!-- Node1&#45;&gt;Node7 -->
<g id="edge6_Node000001_Node000007" class="edge">
<title>Node1&#45;&gt;Node7</title>
<g id="a_edge6_Node000001_Node000007"><a xlink:title=" ">
<path fill="none" stroke="#63b8ff" d="M82.06,-143.76C100.91,-127.63 132.74,-102.42 164,-87 167.95,-85.05 172.1,-83.22 176.33,-81.53"/>
<polygon fill="#63b8ff" stroke="#63b8ff" points="177.57,-84.8 185.7,-78 175.11,-78.25 177.57,-84.8"/>
</a>
</g>
</g>
<!-- Node8 -->
<g id="Node000008" class="node">
<title>Node8</title>
<g id="a_Node000008"><a xlink:href="classiii__drone_1_1control_1_1Reference.html#abbbec5f6fe1f64fd6c4984349ac87840" target="_top" xlink:title=" ">
<polygon fill="white" stroke="#666666" points="307.5,-30 184.5,-30 184.5,0 307.5,0 307.5,-30"/>
<text text-anchor="start" x="192.5" y="-18" font-family="Helvetica,sans-Serif" font-size="10.00">iii_drone::control</text>
<text text-anchor="middle" x="246" y="-7" font-family="Helvetica,sans-Serif" font-size="10.00">::Reference::yaw_rate</text>
</a>
</g>
</g>
<!-- Node1&#45;&gt;Node8 -->
<g id="edge7_Node000001_Node000008" class="edge">
<title>Node1&#45;&gt;Node8</title>
<g id="a_edge7_Node000001_Node000008"><a xlink:title=" ">
<path fill="none" stroke="#63b8ff" d="M73.52,-143.62C88.47,-118.05 121.88,-66.87 164,-39 167.51,-36.68 171.25,-34.58 175.12,-32.67"/>
<polygon fill="#63b8ff" stroke="#63b8ff" points="176.64,-35.83 184.36,-28.58 173.8,-29.43 176.64,-35.83"/>
</a>
</g>
</g>
</g>
</svg>
