<?xml version="1.0" encoding="UTF-8" standalone="no"?>
<!DOCTYPE svg PUBLIC "-//W3C//DTD SVG 1.1//EN"
 "http://www.w3.org/Graphics/SVG/1.1/DTD/svg11.dtd">
<!-- Generated by graphviz version 2.43.0 (0)
 -->
<!-- Title: iii_drone::mission::continuous_mission_orchestrator_node::ContinuousMissionOrchestrator::stateMachineClosingGripper Pages: 1 -->
<svg width="765pt" height="705pt"
 viewBox="0.00 0.00 765.00 704.50" xmlns="http://www.w3.org/2000/svg" xmlns:xlink="http://www.w3.org/1999/xlink">
<g id="graph0" class="graph" transform="scale(1 1) rotate(0) translate(4 700.5)">
<title>iii_drone::mission::continuous_mission_orchestrator_node::ContinuousMissionOrchestrator::stateMachineClosingGripper</title>
<!-- Node1 -->
<g id="Node000001" class="node">
<title>Node1</title>
<g id="a_Node000001"><a xlink:title=" ">
<polygon fill="#999999" stroke="#666666" points="223,-451.5 0,-451.5 0,-388.5 223,-388.5 223,-451.5"/>
<text text-anchor="start" x="8" y="-439.5" font-family="Helvetica,sans-Serif" font-size="10.00">iii_drone::mission</text>
<text text-anchor="start" x="8" y="-428.5" font-family="Helvetica,sans-Serif" font-size="10.00">::continuous_mission</text>
<text text-anchor="start" x="8" y="-417.5" font-family="Helvetica,sans-Serif" font-size="10.00">_orchestrator_node::Continuous</text>
<text text-anchor="start" x="8" y="-406.5" font-family="Helvetica,sans-Serif" font-size="10.00">MissionOrchestrator::stateMachineClosing</text>
<text text-anchor="middle" x="111.5" y="-395.5" font-family="Helvetica,sans-Serif" font-size="10.00">Gripper</text>
</a>
</g>
</g>
<!-- Node2 -->
<g id="Node000002" class="node">
<title>Node2</title>
<g id="a_Node000002"><a xlink:href="classiii__drone_1_1mission_1_1continuous__mission__orchestrator__node_1_1ContinuousMissionOrchestrator.html#a2f2669bf4c93ef1c98f84291bb7df783" target="_top" xlink:title=" ">
<polygon fill="white" stroke="#666666" points="477,-696.5 271,-696.5 271,-633.5 477,-633.5 477,-696.5"/>
<text text-anchor="start" x="279" y="-684.5" font-family="Helvetica,sans-Serif" font-size="10.00">iii_drone::mission</text>
<text text-anchor="start" x="279" y="-673.5" font-family="Helvetica,sans-Serif" font-size="10.00">::continuous_mission</text>
<text text-anchor="start" x="279" y="-662.5" font-family="Helvetica,sans-Serif" font-size="10.00">_orchestrator_node::Continuous</text>
<text text-anchor="start" x="279" y="-651.5" font-family="Helvetica,sans-Serif" font-size="10.00">MissionOrchestrator::gripperCommand</text>
<text text-anchor="middle" x="374" y="-640.5" font-family="Helvetica,sans-Serif" font-size="10.00">Succeeded</text>
</a>
</g>
</g>
<!-- Node1&#45;&gt;Node2 -->
<g id="edge1_Node000001_Node000002" class="edge">
<title>Node1&#45;&gt;Node2</title>
<g id="a_edge1_Node000001_Node000002"><a xlink:title=" ">
<path fill="none" stroke="#63b8ff" d="M127.29,-451.72C149.7,-496.5 196.38,-577.99 259,-625 260.38,-626.04 261.8,-627.05 263.24,-628.04"/>
<polygon fill="#63b8ff" stroke="#63b8ff" points="261.42,-631.03 271.74,-633.43 265.17,-625.12 261.42,-631.03"/>
</a>
</g>
</g>
<!-- Node3 -->
<g id="Node000003" class="node">
<title>Node3</title>
<g id="a_Node000003"><a xlink:href="classiii__drone_1_1mission_1_1continuous__mission__orchestrator__node_1_1ContinuousMissionOrchestrator.html#a92753f5f3cbef8bc241e748f94226212" target="_top" xlink:title=" ">
<polygon fill="white" stroke="#666666" points="477,-615.5 271,-615.5 271,-552.5 477,-552.5 477,-615.5"/>
<text text-anchor="start" x="279" y="-603.5" font-family="Helvetica,sans-Serif" font-size="10.00">iii_drone::mission</text>
<text text-anchor="start" x="279" y="-592.5" font-family="Helvetica,sans-Serif" font-size="10.00">::continuous_mission</text>
<text text-anchor="start" x="279" y="-581.5" font-family="Helvetica,sans-Serif" font-size="10.00">_orchestrator_node::Continuous</text>
<text text-anchor="start" x="279" y="-570.5" font-family="Helvetica,sans-Serif" font-size="10.00">MissionOrchestrator::gripperCommand</text>
<text text-anchor="middle" x="374" y="-559.5" font-family="Helvetica,sans-Serif" font-size="10.00">Terminated</text>
</a>
</g>
</g>
<!-- Node1&#45;&gt;Node3 -->
<g id="edge2_Node000001_Node000003" class="edge">
<title>Node1&#45;&gt;Node3</title>
<g id="a_edge2_Node000001_Node000003"><a xlink:title=" ">
<path fill="none" stroke="#63b8ff" d="M143.45,-451.68C171.51,-478.94 215.1,-517.76 259,-543 262.01,-544.73 265.1,-546.41 268.26,-548.03"/>
<polygon fill="#63b8ff" stroke="#63b8ff" points="266.78,-551.2 277.3,-552.47 269.86,-544.92 266.78,-551.2"/>
</a>
</g>
</g>
<!-- Node4 -->
<g id="Node000004" class="node">
<title>Node4</title>
<g id="a_Node000004"><a xlink:href="classiii__drone_1_1mission_1_1continuous__mission__orchestrator__node_1_1ContinuousMissionOrchestrator.html#a255a63c088ad053df407f38cd5c61ea3" target="_top" xlink:title=" ">
<polygon fill="white" stroke="#666666" points="485.5,-516 262.5,-516 262.5,-464 485.5,-464 485.5,-516"/>
<text text-anchor="start" x="270.5" y="-504" font-family="Helvetica,sans-Serif" font-size="10.00">iii_drone::mission</text>
<text text-anchor="start" x="270.5" y="-493" font-family="Helvetica,sans-Serif" font-size="10.00">::continuous_mission</text>
<text text-anchor="start" x="270.5" y="-482" font-family="Helvetica,sans-Serif" font-size="10.00">_orchestrator_node::Continuous</text>
<text text-anchor="middle" x="374" y="-471" font-family="Helvetica,sans-Serif" font-size="10.00">MissionOrchestrator::isInControllableState</text>
</a>
</g>
</g>
<!-- Node1&#45;&gt;Node4 -->
<g id="edge3_Node000001_Node000004" class="edge">
<title>Node1&#45;&gt;Node4</title>
<g id="a_edge3_Node000001_Node000004"><a xlink:title=" ">
<path fill="none" stroke="#63b8ff" d="M223.35,-449.79C237.64,-453.63 252.25,-457.55 266.47,-461.37"/>
<polygon fill="#63b8ff" stroke="#63b8ff" points="265.67,-464.78 276.24,-464 267.49,-458.02 265.67,-464.78"/>
</a>
</g>
</g>
<!-- Node6 -->
<g id="Node000006" class="node">
<title>Node6</title>
<g id="a_Node000006"><a xlink:href="classiii__drone_1_1mission_1_1continuous__mission__orchestrator__node_1_1ContinuousMissionOrchestrator.html#ac96fc41a3f1349a256b434d325928df8" target="_top" xlink:title=" ">
<polygon fill="white" stroke="#666666" points="489,-446 259,-446 259,-394 489,-394 489,-446"/>
<text text-anchor="start" x="267" y="-434" font-family="Helvetica,sans-Serif" font-size="10.00">iii_drone::mission</text>
<text text-anchor="start" x="267" y="-423" font-family="Helvetica,sans-Serif" font-size="10.00">::continuous_mission</text>
<text text-anchor="start" x="267" y="-412" font-family="Helvetica,sans-Serif" font-size="10.00">_orchestrator_node::Continuous</text>
<text text-anchor="middle" x="374" y="-401" font-family="Helvetica,sans-Serif" font-size="10.00">MissionOrchestrator::sendGripperCommand</text>
</a>
</g>
</g>
<!-- Node1&#45;&gt;Node6 -->
<g id="edge6_Node000001_Node000006" class="edge">
<title>Node1&#45;&gt;Node6</title>
<g id="a_edge6_Node000001_Node000006"><a xlink:title=" ">
<path fill="none" stroke="#63b8ff" d="M223.35,-420C231.72,-420 240.2,-420 248.64,-420"/>
<polygon fill="#63b8ff" stroke="#63b8ff" points="248.92,-423.5 258.92,-420 248.92,-416.5 248.92,-423.5"/>
</a>
</g>
</g>
<!-- Node8 -->
<g id="Node000008" class="node">
<title>Node8</title>
<g id="a_Node000008"><a xlink:href="classiii__drone_1_1mission_1_1continuous__mission__orchestrator__node_1_1ContinuousMissionOrchestrator.html#acca7ae76bb0157c8a7b9794ef853a992" target="_top" xlink:title=" ">
<polygon fill="white" stroke="#666666" points="459.5,-376 288.5,-376 288.5,-324 459.5,-324 459.5,-376"/>
<text text-anchor="start" x="296.5" y="-364" font-family="Helvetica,sans-Serif" font-size="10.00">iii_drone::mission</text>
<text text-anchor="start" x="296.5" y="-353" font-family="Helvetica,sans-Serif" font-size="10.00">::continuous_mission</text>
<text text-anchor="start" x="296.5" y="-342" font-family="Helvetica,sans-Serif" font-size="10.00">_orchestrator_node::Continuous</text>
<text text-anchor="middle" x="374" y="-331" font-family="Helvetica,sans-Serif" font-size="10.00">MissionOrchestrator::setState</text>
</a>
</g>
</g>
<!-- Node1&#45;&gt;Node8 -->
<g id="edge8_Node000001_Node000008" class="edge">
<title>Node1&#45;&gt;Node8</title>
<g id="a_edge8_Node000001_Node000008"><a xlink:title=" ">
<path fill="none" stroke="#63b8ff" d="M223.35,-390.21C241.7,-385.28 260.57,-380.21 278.46,-375.4"/>
<polygon fill="#63b8ff" stroke="#63b8ff" points="279.54,-378.74 288.29,-372.76 277.73,-371.98 279.54,-378.74"/>
</a>
</g>
</g>
<!-- Node10 -->
<g id="Node000010" class="node">
<title>Node10</title>
<g id="a_Node000010"><a xlink:href="classiii__drone_1_1mission_1_1continuous__mission__orchestrator__node_1_1ContinuousMissionOrchestrator.html#afc5bc6c1d77577d7c694567f1b8474a2" target="_top" xlink:title=" ">
<polygon fill="white" stroke="#666666" points="475.5,-306 272.5,-306 272.5,-254 475.5,-254 475.5,-306"/>
<text text-anchor="start" x="280.5" y="-294" font-family="Helvetica,sans-Serif" font-size="10.00">iii_drone::mission</text>
<text text-anchor="start" x="280.5" y="-283" font-family="Helvetica,sans-Serif" font-size="10.00">::continuous_mission</text>
<text text-anchor="start" x="280.5" y="-272" font-family="Helvetica,sans-Serif" font-size="10.00">_orchestrator_node::Continuous</text>
<text text-anchor="middle" x="374" y="-261" font-family="Helvetica,sans-Serif" font-size="10.00">MissionOrchestrator::setTargetCableId</text>
</a>
</g>
</g>
<!-- Node1&#45;&gt;Node10 -->
<g id="edge10_Node000001_Node000010" class="edge">
<title>Node1&#45;&gt;Node10</title>
<g id="a_edge10_Node000001_Node000010"><a xlink:title=" ">
<path fill="none" stroke="#63b8ff" d="M149.49,-388.3C177.89,-365.3 218.9,-334.86 259,-315 262.55,-313.24 266.21,-311.55 269.94,-309.93"/>
<polygon fill="#63b8ff" stroke="#63b8ff" points="271.43,-313.09 279.33,-306.03 268.75,-306.63 271.43,-313.09"/>
</a>
</g>
</g>
<!-- Node11 -->
<g id="Node000011" class="node">
<title>Node11</title>
<g id="a_Node000011"><a xlink:href="classiii__drone_1_1mission_1_1continuous__mission__orchestrator__node_1_1ContinuousMissionOrchestrator.html#a94916ea46229cae987e42b9f908d2ec2" target="_top" xlink:title=" ">
<polygon fill="white" stroke="#666666" points="478.5,-209 269.5,-209 269.5,-157 478.5,-157 478.5,-209"/>
<text text-anchor="start" x="277.5" y="-197" font-family="Helvetica,sans-Serif" font-size="10.00">iii_drone::mission</text>
<text text-anchor="start" x="277.5" y="-186" font-family="Helvetica,sans-Serif" font-size="10.00">::continuous_mission</text>
<text text-anchor="start" x="277.5" y="-175" font-family="Helvetica,sans-Serif" font-size="10.00">_orchestrator_node::Continuous</text>
<text text-anchor="middle" x="374" y="-164" font-family="Helvetica,sans-Serif" font-size="10.00">MissionOrchestrator::startCableLanding</text>
</a>
</g>
</g>
<!-- Node1&#45;&gt;Node11 -->
<g id="edge11_Node000001_Node000011" class="edge">
<title>Node1&#45;&gt;Node11</title>
<g id="a_edge11_Node000001_Node000011"><a xlink:title=" ">
<path fill="none" stroke="#63b8ff" d="M133.34,-388.47C159.38,-350.84 206.88,-287.67 259,-245 273.27,-233.32 290.07,-222.77 306.32,-213.82"/>
<polygon fill="#63b8ff" stroke="#63b8ff" points="308.11,-216.83 315.27,-209.02 304.8,-210.67 308.11,-216.83"/>
</a>
</g>
</g>
<!-- Node4&#45;&gt;Node4 -->
<g id="edge5_Node000004_Node000004" class="edge">
<title>Node4&#45;&gt;Node4</title>
<g id="a_edge5_Node000004_Node000004"><a xlink:title=" ">
<path fill="none" stroke="#63b8ff" d="M324.98,-516.2C323.38,-525.96 339.71,-534 374,-534 396.5,-534 411.27,-530.54 418.31,-525.4"/>
<polygon fill="#63b8ff" stroke="#63b8ff" points="421.58,-526.7 423.02,-516.2 415.35,-523.51 421.58,-526.7"/>
</a>
</g>
</g>
<!-- Node5 -->
<g id="Node000005" class="node">
<title>Node5</title>
<g id="a_Node000005"><a xlink:href="classiii__drone_1_1mission_1_1continuous__mission__orchestrator__node_1_1ContinuousMissionOrchestrator.html#a29a1df5808d9d3a7ebe6fc3ada5c72f4" target="_top" xlink:title=" ">
<polygon fill="white" stroke="#666666" points="739.5,-528 542.5,-528 542.5,-476 739.5,-476 739.5,-528"/>
<text text-anchor="start" x="550.5" y="-516" font-family="Helvetica,sans-Serif" font-size="10.00">iii_drone::mission</text>
<text text-anchor="start" x="550.5" y="-505" font-family="Helvetica,sans-Serif" font-size="10.00">::continuous_mission</text>
<text text-anchor="start" x="550.5" y="-494" font-family="Helvetica,sans-Serif" font-size="10.00">_orchestrator_node::Continuous</text>
<text text-anchor="middle" x="641" y="-483" font-family="Helvetica,sans-Serif" font-size="10.00">MissionOrchestrator::getControlState</text>
</a>
</g>
</g>
<!-- Node4&#45;&gt;Node5 -->
<g id="edge4_Node000004_Node000005" class="edge">
<title>Node4&#45;&gt;Node5</title>
<g id="a_edge4_Node000004_Node000005"><a xlink:title=" ">
<path fill="none" stroke="#63b8ff" d="M485.85,-495.02C501.06,-495.71 516.66,-496.41 531.82,-497.1"/>
<polygon fill="#63b8ff" stroke="#63b8ff" points="532.09,-500.62 542.24,-497.57 532.41,-493.62 532.09,-500.62"/>
</a>
</g>
</g>
<!-- Node7 -->
<g id="Node000007" class="node">
<title>Node7</title>
<g id="a_Node000007"><a xlink:href="classiii__drone_1_1mission_1_1continuous__mission__orchestrator__node_1_1ContinuousMissionOrchestrator.html#a08263cd0f07707f311c87a6c466cecf6" target="_top" xlink:title=" ">
<polygon fill="white" stroke="#666666" points="744,-457.5 538,-457.5 538,-394.5 744,-394.5 744,-457.5"/>
<text text-anchor="start" x="546" y="-445.5" font-family="Helvetica,sans-Serif" font-size="10.00">iii_drone::mission</text>
<text text-anchor="start" x="546" y="-434.5" font-family="Helvetica,sans-Serif" font-size="10.00">::continuous_mission</text>
<text text-anchor="start" x="546" y="-423.5" font-family="Helvetica,sans-Serif" font-size="10.00">_orchestrator_node::Continuous</text>
<text text-anchor="start" x="546" y="-412.5" font-family="Helvetica,sans-Serif" font-size="10.00">MissionOrchestrator::gripperCommand</text>
<text text-anchor="middle" x="641" y="-401.5" font-family="Helvetica,sans-Serif" font-size="10.00">ResponseCallback</text>
</a>
</g>
</g>
<!-- Node6&#45;&gt;Node7 -->
<g id="edge7_Node000006_Node000007" class="edge">
<title>Node6&#45;&gt;Node7</title>
<g id="a_edge7_Node000006_Node000007"><a xlink:title=" ">
<path fill="none" stroke="#63b8ff" d="M489.31,-422.59C502.02,-422.88 514.96,-423.17 527.64,-423.46"/>
<polygon fill="#63b8ff" stroke="#63b8ff" points="527.68,-426.96 537.76,-423.69 527.84,-419.96 527.68,-426.96"/>
</a>
</g>
</g>
<!-- Node9 -->
<g id="Node000009" class="node">
<title>Node9</title>
<g id="a_Node000009"><a xlink:href="classiii__drone_1_1mission_1_1continuous__mission__orchestrator__node_1_1ContinuousMissionOrchestrator.html#a835d55880f4805cb07059aee8cbbfbbc" target="_top" xlink:title=" ">
<polygon fill="white" stroke="#666666" points="738,-376.5 544,-376.5 544,-313.5 738,-313.5 738,-376.5"/>
<text text-anchor="start" x="552" y="-364.5" font-family="Helvetica,sans-Serif" font-size="10.00">iii_drone::mission</text>
<text text-anchor="start" x="552" y="-353.5" font-family="Helvetica,sans-Serif" font-size="10.00">::continuous_mission</text>
<text text-anchor="start" x="552" y="-342.5" font-family="Helvetica,sans-Serif" font-size="10.00">_orchestrator_node::Continuous</text>
<text text-anchor="start" x="552" y="-331.5" font-family="Helvetica,sans-Serif" font-size="10.00">MissionOrchestrator::setTargetCable</text>
<text text-anchor="middle" x="641" y="-320.5" font-family="Helvetica,sans-Serif" font-size="10.00">IdChanged</text>
</a>
</g>
</g>
<!-- Node8&#45;&gt;Node9 -->
<g id="edge9_Node000008_Node000009" class="edge">
<title>Node8&#45;&gt;Node9</title>
<g id="a_edge9_Node000008_Node000009"><a xlink:title=" ">
<path fill="none" stroke="#63b8ff" d="M459.58,-348.4C483.14,-347.96 509.04,-347.47 533.68,-347.01"/>
<polygon fill="#63b8ff" stroke="#63b8ff" points="533.86,-350.5 543.79,-346.82 533.72,-343.5 533.86,-350.5"/>
</a>
</g>
</g>
<!-- Node12 -->
<g id="Node000012" class="node">
<title>Node12</title>
<g id="a_Node000012"><a xlink:href="classiii__drone_1_1mission_1_1continuous__mission__orchestrator__node_1_1ContinuousMissionOrchestrator.html#aacac92d91fdd8ca29e1bf8adbf5ac497" target="_top" xlink:title=" ">
<polygon fill="white" stroke="#666666" points="757,-295.5 525,-295.5 525,-232.5 757,-232.5 757,-295.5"/>
<text text-anchor="start" x="533" y="-283.5" font-family="Helvetica,sans-Serif" font-size="10.00">iii_drone::mission</text>
<text text-anchor="start" x="533" y="-272.5" font-family="Helvetica,sans-Serif" font-size="10.00">::continuous_mission</text>
<text text-anchor="start" x="533" y="-261.5" font-family="Helvetica,sans-Serif" font-size="10.00">_orchestrator_node::Continuous</text>
<text text-anchor="start" x="533" y="-250.5" font-family="Helvetica,sans-Serif" font-size="10.00">MissionOrchestrator::cableLandingFeedback</text>
<text text-anchor="middle" x="641" y="-239.5" font-family="Helvetica,sans-Serif" font-size="10.00">Callback</text>
</a>
</g>
</g>
<!-- Node11&#45;&gt;Node12 -->
<g id="edge12_Node000011_Node000012" class="edge">
<title>Node11&#45;&gt;Node12</title>
<g id="a_edge12_Node000011_Node000012"><a xlink:title=" ">
<path fill="none" stroke="#63b8ff" d="M460.31,-209.07C481.53,-215.56 504.6,-222.61 526.93,-229.44"/>
<polygon fill="#63b8ff" stroke="#63b8ff" points="526.2,-232.87 536.78,-232.45 528.24,-226.18 526.2,-232.87"/>
</a>
</g>
</g>
<!-- Node13 -->
<g id="Node000013" class="node">
<title>Node13</title>
<g id="a_Node000013"><a xlink:href="classiii__drone_1_1mission_1_1continuous__mission__orchestrator__node_1_1ContinuousMissionOrchestrator.html#a83b6f0fdfebffdc8af16878cb76bde0f" target="_top" xlink:title=" ">
<polygon fill="white" stroke="#666666" points="745,-214.5 537,-214.5 537,-151.5 745,-151.5 745,-214.5"/>
<text text-anchor="start" x="545" y="-202.5" font-family="Helvetica,sans-Serif" font-size="10.00">iii_drone::mission</text>
<text text-anchor="start" x="545" y="-191.5" font-family="Helvetica,sans-Serif" font-size="10.00">::continuous_mission</text>
<text text-anchor="start" x="545" y="-180.5" font-family="Helvetica,sans-Serif" font-size="10.00">_orchestrator_node::Continuous</text>
<text text-anchor="start" x="545" y="-169.5" font-family="Helvetica,sans-Serif" font-size="10.00">MissionOrchestrator::cableLandingGoal</text>
<text text-anchor="middle" x="641" y="-158.5" font-family="Helvetica,sans-Serif" font-size="10.00">ResponseCallback</text>
</a>
</g>
</g>
<!-- Node11&#45;&gt;Node13 -->
<g id="edge13_Node000011_Node000013" class="edge">
<title>Node11&#45;&gt;Node13</title>
<g id="a_edge13_Node000011_Node000013"><a xlink:title=" ">
<path fill="none" stroke="#63b8ff" d="M478.59,-183C494.31,-183 510.6,-183 526.52,-183"/>
<polygon fill="#63b8ff" stroke="#63b8ff" points="526.91,-186.5 536.91,-183 526.91,-179.5 526.91,-186.5"/>
</a>
</g>
</g>
<!-- Node14 -->
<g id="Node000014" class="node">
<title>Node14</title>
<g id="a_Node000014"><a xlink:href="classiii__drone_1_1mission_1_1continuous__mission__orchestrator__node_1_1ContinuousMissionOrchestrator.html#a1592f65b4fe81cc2c957bc43594aae98" target="_top" xlink:title=" ">
<polygon fill="white" stroke="#666666" points="749,-133.5 533,-133.5 533,-70.5 749,-70.5 749,-133.5"/>
<text text-anchor="start" x="541" y="-121.5" font-family="Helvetica,sans-Serif" font-size="10.00">iii_drone::mission</text>
<text text-anchor="start" x="541" y="-110.5" font-family="Helvetica,sans-Serif" font-size="10.00">::continuous_mission</text>
<text text-anchor="start" x="541" y="-99.5" font-family="Helvetica,sans-Serif" font-size="10.00">_orchestrator_node::Continuous</text>
<text text-anchor="start" x="541" y="-88.5" font-family="Helvetica,sans-Serif" font-size="10.00">MissionOrchestrator::cableLandingResult</text>
<text text-anchor="middle" x="641" y="-77.5" font-family="Helvetica,sans-Serif" font-size="10.00">Callback</text>
</a>
</g>
</g>
<!-- Node11&#45;&gt;Node14 -->
<g id="edge14_Node000011_Node000014" class="edge">
<title>Node11&#45;&gt;Node14</title>
<g id="a_edge14_Node000011_Node000014"><a xlink:title=" ">
<path fill="none" stroke="#63b8ff" d="M460.31,-156.93C481.53,-150.44 504.6,-143.39 526.93,-136.56"/>
<polygon fill="#63b8ff" stroke="#63b8ff" points="528.24,-139.82 536.78,-133.55 526.2,-133.13 528.24,-139.82"/>
</a>
</g>
</g>
<!-- Node15 -->
<g id="Node000015" class="node">
<title>Node15</title>
<g id="a_Node000015"><a xlink:href="classiii__drone_1_1mission_1_1continuous__mission__orchestrator__node_1_1ContinuousMissionOrchestrator.html#a4efeaba4750d2187fc340118bdb55cd3" target="_top" xlink:title=" ">
<polygon fill="white" stroke="#666666" points="742.5,-52 539.5,-52 539.5,0 742.5,0 742.5,-52"/>
<text text-anchor="start" x="547.5" y="-40" font-family="Helvetica,sans-Serif" font-size="10.00">iii_drone::mission</text>
<text text-anchor="start" x="547.5" y="-29" font-family="Helvetica,sans-Serif" font-size="10.00">::continuous_mission</text>
<text text-anchor="start" x="547.5" y="-18" font-family="Helvetica,sans-Serif" font-size="10.00">_orchestrator_node::Continuous</text>
<text text-anchor="middle" x="641" y="-7" font-family="Helvetica,sans-Serif" font-size="10.00">MissionOrchestrator::getTargetCableId</text>
</a>
</g>
</g>
<!-- Node11&#45;&gt;Node15 -->
<g id="edge15_Node000011_Node000015" class="edge">
<title>Node11&#45;&gt;Node15</title>
<g id="a_edge15_Node000011_Node000015"><a xlink:title=" ">
<path fill="none" stroke="#63b8ff" d="M400.62,-156.83C428.8,-129.4 476.55,-86.79 525,-61 528.13,-59.33 531.36,-57.73 534.65,-56.19"/>
<polygon fill="#63b8ff" stroke="#63b8ff" points="536.34,-59.28 544.08,-52.04 533.52,-52.87 536.34,-59.28"/>
</a>
</g>
</g>
</g>
</svg>
