<?xml version="1.0" encoding="UTF-8" standalone="no"?>
<!DOCTYPE svg PUBLIC "-//W3C//DTD SVG 1.1//EN"
 "http://www.w3.org/Graphics/SVG/1.1/DTD/svg11.dtd">
<!-- Generated by graphviz version 2.43.0 (0)
 -->
<!-- Title: iii_drone::adapters::PointCloudAdapter::PointCloudAdapter Pages: 1 -->
<svg width="270pt" height="167pt"
 viewBox="0.00 0.00 270.00 167.00" xmlns="http://www.w3.org/2000/svg" xmlns:xlink="http://www.w3.org/1999/xlink">
<g id="graph0" class="graph" transform="scale(1 1) rotate(0) translate(4 163)">
<title>iii_drone::adapters::PointCloudAdapter::PointCloudAdapter</title>
<!-- Node1 -->
<g id="Node000001" class="node">
<title>Node1</title>
<g id="a_Node000001"><a xlink:title="Constructor.">
<polygon fill="#999999" stroke="#666666" points="113,-100 0,-100 0,-59 113,-59 113,-100"/>
<text text-anchor="start" x="8" y="-88" font-family="Helvetica,sans-Serif" font-size="10.00">iii_drone::adapters</text>
<text text-anchor="start" x="8" y="-77" font-family="Helvetica,sans-Serif" font-size="10.00">::PointCloudAdapter</text>
<text text-anchor="middle" x="56.5" y="-66" font-family="Helvetica,sans-Serif" font-size="10.00">::PointCloudAdapter</text>
</a>
</g>
</g>
<!-- Node2 -->
<g id="Node000002" class="node">
<title>Node2</title>
<g id="a_Node000002"><a xlink:href="classiii__drone_1_1adapters_1_1PointCloudAdapter.html#a91517d70c8939d0bd4ad5e7fdd6648c7" target="_top" xlink:title="Frame ID getter.">
<polygon fill="white" stroke="#666666" points="262,-159 149,-159 149,-118 262,-118 262,-159"/>
<text text-anchor="start" x="157" y="-147" font-family="Helvetica,sans-Serif" font-size="10.00">iii_drone::adapters</text>
<text text-anchor="start" x="157" y="-136" font-family="Helvetica,sans-Serif" font-size="10.00">::PointCloudAdapter</text>
<text text-anchor="middle" x="205.5" y="-125" font-family="Helvetica,sans-Serif" font-size="10.00">::frame_id</text>
</a>
</g>
</g>
<!-- Node1&#45;&gt;Node2 -->
<g id="edge1_Node000001_Node000002" class="edge">
<title>Node1&#45;&gt;Node2</title>
<g id="a_edge1_Node000001_Node000002"><a xlink:title=" ">
<path fill="none" stroke="#63b8ff" d="M108.91,-100.14C120.17,-104.65 132.18,-109.48 143.77,-114.12"/>
<polygon fill="#63b8ff" stroke="#63b8ff" points="142.78,-117.5 153.36,-117.98 145.39,-111 142.78,-117.5"/>
</a>
</g>
</g>
<!-- Node3 -->
<g id="Node000003" class="node">
<title>Node3</title>
<g id="a_Node000003"><a xlink:href="classiii__drone_1_1adapters_1_1PointCloudAdapter.html#a598a5eb2f039f49655a9fa1be90bca9b" target="_top" xlink:title="Point cloud data getter.">
<polygon fill="white" stroke="#666666" points="262,-100 149,-100 149,-59 262,-59 262,-100"/>
<text text-anchor="start" x="157" y="-88" font-family="Helvetica,sans-Serif" font-size="10.00">iii_drone::adapters</text>
<text text-anchor="start" x="157" y="-77" font-family="Helvetica,sans-Serif" font-size="10.00">::PointCloudAdapter</text>
<text text-anchor="middle" x="205.5" y="-66" font-family="Helvetica,sans-Serif" font-size="10.00">::points</text>
</a>
</g>
</g>
<!-- Node1&#45;&gt;Node3 -->
<g id="edge2_Node000001_Node000003" class="edge">
<title>Node1&#45;&gt;Node3</title>
<g id="a_edge2_Node000001_Node000003"><a xlink:title=" ">
<path fill="none" stroke="#63b8ff" d="M113.07,-79.5C121.49,-79.5 130.24,-79.5 138.84,-79.5"/>
<polygon fill="#63b8ff" stroke="#63b8ff" points="138.85,-83 148.85,-79.5 138.85,-76 138.85,-83"/>
</a>
</g>
</g>
<!-- Node4 -->
<g id="Node000004" class="node">
<title>Node4</title>
<g id="a_Node000004"><a xlink:href="classiii__drone_1_1adapters_1_1PointCloudAdapter.html#a8f4ae66fe7afb140b0b7ae8f368e076e" target="_top" xlink:title="Timestamp getter.">
<polygon fill="white" stroke="#666666" points="262,-41 149,-41 149,0 262,0 262,-41"/>
<text text-anchor="start" x="157" y="-29" font-family="Helvetica,sans-Serif" font-size="10.00">iii_drone::adapters</text>
<text text-anchor="start" x="157" y="-18" font-family="Helvetica,sans-Serif" font-size="10.00">::PointCloudAdapter</text>
<text text-anchor="middle" x="205.5" y="-7" font-family="Helvetica,sans-Serif" font-size="10.00">::stamp</text>
</a>
</g>
</g>
<!-- Node1&#45;&gt;Node4 -->
<g id="edge3_Node000001_Node000004" class="edge">
<title>Node1&#45;&gt;Node4</title>
<g id="a_edge3_Node000001_Node000004"><a xlink:title=" ">
<path fill="none" stroke="#63b8ff" d="M108.91,-58.86C120.17,-54.35 132.18,-49.52 143.77,-44.88"/>
<polygon fill="#63b8ff" stroke="#63b8ff" points="145.39,-48 153.36,-41.02 142.78,-41.5 145.39,-48"/>
</a>
</g>
</g>
</g>
</svg>
