<?xml version="1.0" encoding="UTF-8" standalone="no"?>
<!DOCTYPE svg PUBLIC "-//W3C//DTD SVG 1.1//EN"
 "http://www.w3.org/Graphics/SVG/1.1/DTD/svg11.dtd">
<!-- Generated by graphviz version 2.43.0 (0)
 -->
<!-- Title: iii_drone::control::maneuver::HoverManeuverServer::GetReference Pages: 1 -->
<svg width="441pt" height="238pt"
 viewBox="0.00 0.00 441.00 238.00" xmlns="http://www.w3.org/2000/svg" xmlns:xlink="http://www.w3.org/1999/xlink">
<g id="graph0" class="graph" transform="scale(1 1) rotate(0) translate(4 234)">
<title>iii_drone::control::maneuver::HoverManeuverServer::GetReference</title>
<!-- Node1 -->
<g id="Node000001" class="node">
<title>Node1</title>
<g id="a_Node000001"><a xlink:title="Gets the hover reference.">
<polygon fill="#999999" stroke="#666666" points="433,-138 245,-138 245,-97 433,-97 433,-138"/>
<text text-anchor="start" x="253" y="-126" font-family="Helvetica,sans-Serif" font-size="10.00">iii_drone::control</text>
<text text-anchor="start" x="253" y="-115" font-family="Helvetica,sans-Serif" font-size="10.00">::maneuver::HoverManeuverServer</text>
<text text-anchor="middle" x="339" y="-104" font-family="Helvetica,sans-Serif" font-size="10.00">::GetReference</text>
</a>
</g>
</g>
<!-- Node2 -->
<g id="Node000002" class="node">
<title>Node2</title>
<g id="a_Node000002"><a xlink:href="classiii__drone_1_1control_1_1maneuver_1_1HoverManeuverServer.html#ad951f3205fe701e5c9b5d73a79179e3e" target="_top" xlink:title="Compute the hover reference.">
<polygon fill="white" stroke="#666666" points="198.5,-230 10.5,-230 10.5,-189 198.5,-189 198.5,-230"/>
<text text-anchor="start" x="18.5" y="-218" font-family="Helvetica,sans-Serif" font-size="10.00">iii_drone::control</text>
<text text-anchor="start" x="18.5" y="-207" font-family="Helvetica,sans-Serif" font-size="10.00">::maneuver::HoverManeuverServer</text>
<text text-anchor="middle" x="104.5" y="-196" font-family="Helvetica,sans-Serif" font-size="10.00">::computeReference</text>
</a>
</g>
</g>
<!-- Node1&#45;&gt;Node2 -->
<g id="edge1_Node000001_Node000002" class="edge">
<title>Node1&#45;&gt;Node2</title>
<g id="a_edge1_Node000001_Node000002"><a xlink:title=" ">
<path fill="none" stroke="#63b8ff" d="M291.48,-142.76C267.34,-155.21 237.09,-169.81 209,-180.5 201.15,-183.49 192.87,-186.32 184.54,-188.96"/>
<polygon fill="#63b8ff" stroke="#63b8ff" points="293.17,-145.82 300.42,-138.1 289.94,-139.62 293.17,-145.82"/>
</a>
</g>
</g>
<!-- Node3 -->
<g id="Node000003" class="node">
<title>Node3</title>
<g id="a_Node000003"><a xlink:href="classiii__drone_1_1control_1_1maneuver_1_1ManeuverScheduler.html#afa9c39ec85ed4c05e1cac71ebb197a78" target="_top" xlink:title="Callback function for when the token is yielded from a maneuver server. Registers the hovering refere...">
<polygon fill="white" stroke="#666666" points="209,-171 0,-171 0,-130 209,-130 209,-171"/>
<text text-anchor="start" x="8" y="-159" font-family="Helvetica,sans-Serif" font-size="10.00">iii_drone::control</text>
<text text-anchor="start" x="8" y="-148" font-family="Helvetica,sans-Serif" font-size="10.00">::maneuver::ManeuverScheduler</text>
<text text-anchor="middle" x="104.5" y="-137" font-family="Helvetica,sans-Serif" font-size="10.00">::onReferenceCallbackTokenReacquired</text>
</a>
</g>
</g>
<!-- Node1&#45;&gt;Node3 -->
<g id="edge2_Node000001_Node000003" class="edge">
<title>Node1&#45;&gt;Node3</title>
<g id="a_edge2_Node000001_Node000003"><a xlink:title=" ">
<path fill="none" stroke="#63b8ff" d="M234.79,-132.15C226.25,-133.36 217.6,-134.59 209.05,-135.8"/>
<polygon fill="#63b8ff" stroke="#63b8ff" points="235.36,-135.6 244.77,-130.73 234.38,-128.67 235.36,-135.6"/>
</a>
</g>
</g>
<!-- Node4 -->
<g id="Node000004" class="node">
<title>Node4</title>
<g id="a_Node000004"><a xlink:href="classiii__drone_1_1control_1_1maneuver_1_1FlyToPositionManeuverServer.html#ae4530a3fb2d86a28ddbbcce170bf4a59" target="_top" xlink:title="Registers the hover reference callback on success.">
<polygon fill="white" stroke="#666666" points="203,-111.5 6,-111.5 6,-59.5 203,-59.5 203,-111.5"/>
<text text-anchor="start" x="14" y="-99.5" font-family="Helvetica,sans-Serif" font-size="10.00">iii_drone::control</text>
<text text-anchor="start" x="14" y="-88.5" font-family="Helvetica,sans-Serif" font-size="10.00">::maneuver::FlyToPositionManeuver</text>
<text text-anchor="start" x="14" y="-77.5" font-family="Helvetica,sans-Serif" font-size="10.00">Server::registerReferenceCallbackOn</text>
<text text-anchor="middle" x="104.5" y="-66.5" font-family="Helvetica,sans-Serif" font-size="10.00">Success</text>
</a>
</g>
</g>
<!-- Node1&#45;&gt;Node4 -->
<g id="edge3_Node000001_Node000004" class="edge">
<title>Node1&#45;&gt;Node4</title>
<g id="a_edge3_Node000001_Node000004"><a xlink:title=" ">
<path fill="none" stroke="#63b8ff" d="M234.79,-103.3C224.33,-101.85 213.72,-100.39 203.31,-98.96"/>
<polygon fill="#63b8ff" stroke="#63b8ff" points="234.39,-106.77 244.77,-104.67 235.34,-99.84 234.39,-106.77"/>
</a>
</g>
</g>
<!-- Node5 -->
<g id="Node000005" class="node">
<title>Node5</title>
<g id="a_Node000005"><a xlink:href="classiii__drone_1_1control_1_1maneuver_1_1HoverManeuverServer.html#a1b7af77865700c68fdba0583ba9c9c18" target="_top" xlink:title="Registers the hover reference callback on success.">
<polygon fill="white" stroke="#666666" points="206.5,-41 2.5,-41 2.5,0 206.5,0 206.5,-41"/>
<text text-anchor="start" x="10.5" y="-29" font-family="Helvetica,sans-Serif" font-size="10.00">iii_drone::control</text>
<text text-anchor="start" x="10.5" y="-18" font-family="Helvetica,sans-Serif" font-size="10.00">::maneuver::HoverManeuverServer</text>
<text text-anchor="middle" x="104.5" y="-7" font-family="Helvetica,sans-Serif" font-size="10.00">::registerReferenceCallbackOnSuccess</text>
</a>
</g>
</g>
<!-- Node1&#45;&gt;Node5 -->
<g id="edge4_Node000001_Node000005" class="edge">
<title>Node1&#45;&gt;Node5</title>
<g id="a_edge4_Node000001_Node000005"><a xlink:title=" ">
<path fill="none" stroke="#63b8ff" d="M294,-91.89C269.52,-78.36 238.19,-62.18 209,-50.5 200.58,-47.13 191.63,-43.96 182.66,-41.03"/>
<polygon fill="#63b8ff" stroke="#63b8ff" points="292.58,-95.11 303.02,-96.93 296,-89 292.58,-95.11"/>
</a>
</g>
</g>
</g>
</svg>
