<?xml version="1.0" encoding="UTF-8" standalone="no"?>
<!DOCTYPE svg PUBLIC "-//W3C//DTD SVG 1.1//EN"
 "http://www.w3.org/Graphics/SVG/1.1/DTD/svg11.dtd">
<!-- Generated by graphviz version 2.43.0 (0)
 -->
<!-- Title: iii_drone::perception::HoughTransformer::ComputeAngle Pages: 1 -->
<svg width="566pt" height="108pt"
 viewBox="0.00 0.00 566.00 108.00" xmlns="http://www.w3.org/2000/svg" xmlns:xlink="http://www.w3.org/1999/xlink">
<g id="graph0" class="graph" transform="scale(1 1) rotate(0) translate(4 104)">
<title>iii_drone::perception::HoughTransformer::ComputeAngle</title>
<!-- Node1 -->
<g id="Node000001" class="node">
<title>Node1</title>
<g id="a_Node000001"><a xlink:title="Computes the hough lines direction angle from an image.">
<polygon fill="#999999" stroke="#666666" points="163,-70 0,-70 0,-29 163,-29 163,-70"/>
<text text-anchor="start" x="8" y="-58" font-family="Helvetica,sans-Serif" font-size="10.00">iii_drone::perception</text>
<text text-anchor="start" x="8" y="-47" font-family="Helvetica,sans-Serif" font-size="10.00">::HoughTransformer::Compute</text>
<text text-anchor="middle" x="81.5" y="-36" font-family="Helvetica,sans-Serif" font-size="10.00">Angle</text>
</a>
</g>
</g>
<!-- Node2 -->
<g id="Node000002" class="node">
<title>Node2</title>
<g id="a_Node000002"><a xlink:href="classiii__drone_1_1perception_1_1HoughTransformer.html#ae2985861ff2375cf65841827824dcd7c" target="_top" xlink:title="Computes the hough lines direction angle from hough lines.">
<polygon fill="white" stroke="#666666" points="364,-100 201,-100 201,-59 364,-59 364,-100"/>
<text text-anchor="start" x="209" y="-88" font-family="Helvetica,sans-Serif" font-size="10.00">iii_drone::perception</text>
<text text-anchor="start" x="209" y="-77" font-family="Helvetica,sans-Serif" font-size="10.00">::HoughTransformer::Compute</text>
<text text-anchor="middle" x="282.5" y="-66" font-family="Helvetica,sans-Serif" font-size="10.00">Angle</text>
</a>
</g>
</g>
<!-- Node1&#45;&gt;Node2 -->
<g id="edge1_Node000001_Node000002" class="edge">
<title>Node1&#45;&gt;Node2</title>
<g id="a_edge1_Node000001_Node000002"><a xlink:title=" ">
<path fill="none" stroke="#63b8ff" d="M163.15,-61.66C172.25,-63.03 181.57,-64.44 190.79,-65.82"/>
<polygon fill="#63b8ff" stroke="#63b8ff" points="190.32,-69.29 200.73,-67.32 191.36,-62.37 190.32,-69.29"/>
</a>
</g>
</g>
<!-- Node4 -->
<g id="Node000004" class="node">
<title>Node4</title>
<g id="a_Node000004"><a xlink:href="classiii__drone_1_1perception_1_1HoughTransformer.html#acbe9deada60754526c5bcbf5309f5daf" target="_top" xlink:title="Performs the hough transform on the given image.">
<polygon fill="white" stroke="#666666" points="366,-41 199,-41 199,0 366,0 366,-41"/>
<text text-anchor="start" x="207" y="-29" font-family="Helvetica,sans-Serif" font-size="10.00">iii_drone::perception</text>
<text text-anchor="start" x="207" y="-18" font-family="Helvetica,sans-Serif" font-size="10.00">::HoughTransformer::GetHough</text>
<text text-anchor="middle" x="282.5" y="-7" font-family="Helvetica,sans-Serif" font-size="10.00">Lines</text>
</a>
</g>
</g>
<!-- Node1&#45;&gt;Node4 -->
<g id="edge3_Node000001_Node000004" class="edge">
<title>Node1&#45;&gt;Node4</title>
<g id="a_edge3_Node000001_Node000004"><a xlink:title=" ">
<path fill="none" stroke="#63b8ff" d="M163.15,-37.75C171.59,-36.52 180.22,-35.26 188.78,-34.01"/>
<polygon fill="#63b8ff" stroke="#63b8ff" points="189.4,-37.46 198.79,-32.55 188.39,-30.53 189.4,-37.46"/>
</a>
</g>
</g>
<!-- Node3 -->
<g id="Node000003" class="node">
<title>Node3</title>
<g id="a_Node000003"><a xlink:href="classiii__drone_1_1perception_1_1HoughTransformer.html#ae8669233258083e9dee368a036531577" target="_top" xlink:title="Finds the index of the best hough line match.">
<polygon fill="white" stroke="#666666" points="558,-100 402,-100 402,-59 558,-59 558,-100"/>
<text text-anchor="start" x="410" y="-88" font-family="Helvetica,sans-Serif" font-size="10.00">iii_drone::perception</text>
<text text-anchor="start" x="410" y="-77" font-family="Helvetica,sans-Serif" font-size="10.00">::HoughTransformer::getBest</text>
<text text-anchor="middle" x="480" y="-66" font-family="Helvetica,sans-Serif" font-size="10.00">LineIndex</text>
</a>
</g>
</g>
<!-- Node2&#45;&gt;Node3 -->
<g id="edge2_Node000002_Node000003" class="edge">
<title>Node2&#45;&gt;Node3</title>
<g id="a_edge2_Node000002_Node000003"><a xlink:title=" ">
<path fill="none" stroke="#63b8ff" d="M364.15,-79.5C373.24,-79.5 382.54,-79.5 391.71,-79.5"/>
<polygon fill="#63b8ff" stroke="#63b8ff" points="392,-83 402,-79.5 392,-76 392,-83"/>
</a>
</g>
</g>
</g>
</svg>
