<?xml version="1.0" encoding="UTF-8" standalone="no"?>
<!DOCTYPE svg PUBLIC "-//W3C//DTD SVG 1.1//EN"
 "http://www.w3.org/Graphics/SVG/1.1/DTD/svg11.dtd">
<!-- Generated by graphviz version 2.43.0 (0)
 -->
<!-- Title: iii_drone::control::CombinedDroneAwarenessHandlerParameters::fail_on_unable_to_locate Pages: 1 -->
<!--zoomable 179 -->

<svg id="main" version="1.1" xmlns="http://www.w3.org/2000/svg" xmlns:xlink="http://www.w3.org/1999/xlink" xml:space="preserve" onload="init(evt)">
<style type="text/css"><![CDATA[
.node, .edge {opacity: 0.7;}
.node.selected, .edge.selected {opacity: 1;}
.edge:hover path { stroke: red; }
.edge:hover polygon { stroke: red; fill: red; }
]]></style>

<defs>
  <circle id="rim" cx="0" cy="0" r="7"/>
  <circle id="rim2" cx="0" cy="0" r="3.5"/>
  <g id="zoomPlus">
    <use xlink:href="#rim" fill="#404040"><set attributeName="fill" to="#808080" begin="zoomplus.mouseover" end="zoomplus.mouseout"/></use>
    <path d="M-4,0h8M0,-4v8" fill="none" stroke="white" stroke-width="1.5" pointer-events="none"/>
  </g>
  <g id="zoomMin">
    <use xlink:href="#rim" fill="#404040"><set attributeName="fill" to="#808080" begin="zoomminus.mouseover" end="zoomminus.mouseout"/></use>
    <path d="M-4,0h8" fill="none" stroke="white" stroke-width="1.5" pointer-events="none"/>
  </g>
  <g id="arrowUp" transform="translate(30 24)">
    <use xlink:href="#rim"/>
    <path pointer-events="none" fill="none" stroke="white" stroke-width="1.5" d="M0,-3.0v7 M-2.5,-0.5L0,-3.0L2.5,-0.5"/>
  </g>
  <g id="arrowRight" transform="rotate(90) translate(36 -43)">
    <use xlink:href="#rim"/>
    <path pointer-events="none" fill="none" stroke="white" stroke-width="1.5" d="M0,-3.0v7 M-2.5,-0.5L0,-3.0L2.5,-0.5"/>
  </g>
  <g id="arrowDown" transform="rotate(180) translate(-30 -48)">
    <use xlink:href="#rim"/>
    <path pointer-events="none" fill="none" stroke="white" stroke-width="1.5" d="M0,-3.0v7 M-2.5,-0.5L0,-3.0L2.5,-0.5"/>
  </g>
  <g id="arrowLeft" transform="rotate(270) translate(-36 17)">
    <use xlink:href="#rim"/>
    <path pointer-events="none" fill="none" stroke="white" stroke-width="1.5" d="M0,-3.0v7 M-2.5,-0.5L0,-3.0L2.5,-0.5"/>
  </g>
  <g id="resetDef">
    <use xlink:href="#rim2" fill="#404040"><set attributeName="fill" to="#808080" begin="reset.mouseover" end="reset.mouseout"/></use>
  </g>
</defs>
<script type="application/ecmascript">
var viewWidth = 745;
var viewHeight = 179;
var sectionId = 'dynsection-3';
</script>
<script type="application/ecmascript" xlink:href="svg.min.js"/>
<svg id="graph" class="graph">
<g id="viewport">
<title>iii_drone::control::CombinedDroneAwarenessHandlerParameters::fail_on_unable_to_locate</title>
<!-- Node1 -->
<g id="Node000001" class="node">
<title>Node1</title>
<g id="a_Node000001"><a xlink:title="Get the fail_on_unable_to_locate value.">
<polygon fill="#999999" stroke="#666666" points="737,-111.5 544,-111.5 544,-59.5 737,-59.5 737,-111.5"/>
<text text-anchor="start" x="552" y="-99.5" font-family="Helvetica,sans-Serif" font-size="10.00">iii_drone::control</text>
<text text-anchor="start" x="552" y="-88.5" font-family="Helvetica,sans-Serif" font-size="10.00">::CombinedDroneAwarenessHandler</text>
<text text-anchor="start" x="552" y="-77.5" font-family="Helvetica,sans-Serif" font-size="10.00">Parameters::fail_on_unable</text>
<text text-anchor="middle" x="640.5" y="-66.5" font-family="Helvetica,sans-Serif" font-size="10.00">_to_locate</text>
</a>
</g>
</g>
<!-- Node2 -->
<g id="Node000002" class="node">
<title>Node2</title>
<g id="a_Node000002"><a xlink:href="classiii__drone_1_1control_1_1CombinedDroneAwarenessHandler.html#aca25e593ebb1307381959a3b1e5a751c" target="_top" xlink:title="Updates the drone location of a combined drone awareness object based on current awareness informatio...">
<polygon fill="white" stroke="#666666" points="508,-106 315,-106 315,-65 508,-65 508,-106"/>
<text text-anchor="start" x="323" y="-94" font-family="Helvetica,sans-Serif" font-size="10.00">iii_drone::control</text>
<text text-anchor="start" x="323" y="-83" font-family="Helvetica,sans-Serif" font-size="10.00">::CombinedDroneAwarenessHandler</text>
<text text-anchor="middle" x="411.5" y="-72" font-family="Helvetica,sans-Serif" font-size="10.00">::updateDroneLocation</text>
</a>
</g>
</g>
<!-- Node1&#45;&gt;Node2 -->
<g id="edge1_Node000001_Node000002" class="edge">
<title>Node1&#45;&gt;Node2</title>
<g id="a_edge1_Node000001_Node000002"><a xlink:title=" ">
<path fill="none" stroke="#63b8ff" d="M533.82,-85.5C525.21,-85.5 516.53,-85.5 508,-85.5"/>
<polygon fill="#63b8ff" stroke="#63b8ff" points="533.89,-89 543.89,-85.5 533.89,-82 533.89,-89"/>
</a>
</g>
</g>
<!-- Node3 -->
<g id="Node000003" class="node">
<title>Node3</title>
<g id="a_Node000003"><a xlink:href="classiii__drone_1_1control_1_1CombinedDroneAwarenessHandler.html#ab9e4d04b91ff4a8df5113ccdc0356484" target="_top" xlink:title="Updates the given combined drone awareness from the powerline. Triggers updates of target_cable_posit...">
<polygon fill="white" stroke="#666666" points="270,-171 9,-171 9,-130 270,-130 270,-171"/>
<text text-anchor="start" x="17" y="-159" font-family="Helvetica,sans-Serif" font-size="10.00">iii_drone::control</text>
<text text-anchor="start" x="17" y="-148" font-family="Helvetica,sans-Serif" font-size="10.00">::CombinedDroneAwarenessHandler</text>
<text text-anchor="middle" x="139.5" y="-137" font-family="Helvetica,sans-Serif" font-size="10.00">::updateCombinedDroneAwarenessFromPowerline</text>
</a>
</g>
</g>
<!-- Node2&#45;&gt;Node3 -->
<g id="edge2_Node000002_Node000003" class="edge">
<title>Node2&#45;&gt;Node3</title>
<g id="a_edge2_Node000002_Node000003"><a xlink:title=" ">
<path fill="none" stroke="#63b8ff" d="M325.79,-108.67C310.26,-112.74 294.17,-116.84 279,-120.5 265.85,-123.67 251.95,-126.87 238.24,-129.93"/>
<polygon fill="#63b8ff" stroke="#63b8ff" points="327.12,-111.94 335.9,-106.01 325.33,-105.17 327.12,-111.94"/>
</a>
</g>
</g>
<!-- Node4 -->
<g id="Node000004" class="node">
<title>Node4</title>
<g id="a_Node000004"><a xlink:href="classiii__drone_1_1control_1_1CombinedDroneAwarenessHandler.html#a197c146061816403499a4e652a8fe646" target="_top" xlink:title="Updates the given combined drone awareness from the vehicle odometry. Triggers updates of ground alti...">
<polygon fill="white" stroke="#666666" points="263.5,-111.5 15.5,-111.5 15.5,-59.5 263.5,-59.5 263.5,-111.5"/>
<text text-anchor="start" x="23.5" y="-99.5" font-family="Helvetica,sans-Serif" font-size="10.00">iii_drone::control</text>
<text text-anchor="start" x="23.5" y="-88.5" font-family="Helvetica,sans-Serif" font-size="10.00">::CombinedDroneAwarenessHandler</text>
<text text-anchor="start" x="23.5" y="-77.5" font-family="Helvetica,sans-Serif" font-size="10.00">::updateCombinedDroneAwarenessFromVehicle</text>
<text text-anchor="middle" x="139.5" y="-66.5" font-family="Helvetica,sans-Serif" font-size="10.00">Odometry</text>
</a>
</g>
</g>
<!-- Node2&#45;&gt;Node4 -->
<g id="edge3_Node000002_Node000004" class="edge">
<title>Node2&#45;&gt;Node4</title>
<g id="a_edge3_Node000002_Node000004"><a xlink:title=" ">
<path fill="none" stroke="#63b8ff" d="M304.75,-85.5C291.33,-85.5 277.51,-85.5 263.84,-85.5"/>
<polygon fill="#63b8ff" stroke="#63b8ff" points="304.93,-89 314.93,-85.5 304.93,-82 304.93,-89"/>
</a>
</g>
</g>
<!-- Node5 -->
<g id="Node000005" class="node">
<title>Node5</title>
<g id="a_Node000005"><a xlink:href="classiii__drone_1_1control_1_1CombinedDroneAwarenessHandler.html#a7055ad9c6b81c69e2f810d40c9448fcf" target="_top" xlink:title="Updates the given combined drone awareness from the vehicle status. Triggers updates of armed,...">
<polygon fill="white" stroke="#666666" points="279,-41 0,-41 0,0 279,0 279,-41"/>
<text text-anchor="start" x="8" y="-29" font-family="Helvetica,sans-Serif" font-size="10.00">iii_drone::control</text>
<text text-anchor="start" x="8" y="-18" font-family="Helvetica,sans-Serif" font-size="10.00">::CombinedDroneAwarenessHandler</text>
<text text-anchor="middle" x="139.5" y="-7" font-family="Helvetica,sans-Serif" font-size="10.00">::updateCombinedDroneAwarenessFromVehicleStatus</text>
</a>
</g>
</g>
<!-- Node2&#45;&gt;Node5 -->
<g id="edge4_Node000002_Node000005" class="edge">
<title>Node2&#45;&gt;Node5</title>
<g id="a_edge4_Node000002_Node000005"><a xlink:title=" ">
<path fill="none" stroke="#63b8ff" d="M325.79,-62.33C310.26,-58.26 294.17,-54.16 279,-50.5 265.85,-47.33 251.95,-44.13 238.24,-41.07"/>
<polygon fill="#63b8ff" stroke="#63b8ff" points="325.33,-65.83 335.9,-64.99 327.12,-59.06 325.33,-65.83"/>
</a>
</g>
</g>
</g>
</svg>

<g id="navigator" transform="translate(0 0)" fill="#404254">
  <rect fill="#f2f5e9" fill-opacity="0.5" stroke="#606060" stroke-width=".5" x="0" y="0" width="60" height="60"/>
  <use id="zoomplus" xlink:href="#zoomPlus" x="17" y="9" onmousedown="handleZoom(evt,'in')"/>
  <use id="zoomminus" xlink:href="#zoomMin" x="42" y="9" onmousedown="handleZoom(evt,'out')"/>
  <use id="reset" xlink:href="#resetDef" x="30" y="36" onmousedown="handleReset()"/>
   <use id="arrowup" xlink:href="#arrowUp" x="0" y="0" onmousedown="handlePan(0,-1)"/>
  <use id="arrowright" xlink:href="#arrowRight" x="0" y="0" onmousedown="handlePan(1,0)"/>
  <use id="arrowdown" xlink:href="#arrowDown" x="0" y="0" onmousedown="handlePan(0,1)"/>
  <use id="arrowleft" xlink:href="#arrowLeft" x="0" y="0" onmousedown="handlePan(-1,0)"/>
</g>
<svg viewBox="0 0 15 15" width="100%" height="30px" preserveAspectRatio="xMaxYMin meet">
 <g id="arrow_out" transform="scale(0.3 0.3)">
  <a xlink:href="classiii__drone_1_1control_1_1CombinedDroneAwarenessHandlerParameters_a6a8310bc7fa578f2f426ddc40ad311b2_icgraph_org.svg" target="_base">
   <rect id="button" ry="5" rx="5" y="6" x="6" height="38" width="38"
        fill="#f2f5e9" fill-opacity="0.5" stroke="#606060" stroke-width="1.0"/>
   <path id="arrow"
     d="M 11.500037,31.436501 C 11.940474,20.09759 22.043105,11.32322 32.158766,21.979434 L 37.068811,17.246167 C 37.068811,17.246167 37.088388,32 37.088388,32 L 22.160133,31.978069 C 22.160133,31.978069 26.997745,27.140456 26.997745,27.140456 C 18.528582,18.264221 13.291696,25.230495 11.500037,31.436501 z"
     style="fill:#404040;"/>
  </a>
 </g>
</svg>

<style type='text/css'>
<![CDATA[
[data-mouse-over-selected='false'] { opacity: 0.7; }
[data-mouse-over-selected='true']  { opacity: 1.0; }
]]>
</style>
<script type="application/ecmascript"><![CDATA[
document.addEventListener('DOMContentLoaded', (event) => {
  highlightEdges();
  highlightAdjacentNodes();
});
]]></script>
</svg>
