<?xml version="1.0" encoding="UTF-8" standalone="no"?>
<!DOCTYPE svg PUBLIC "-//W3C//DTD SVG 1.1//EN"
 "http://www.w3.org/Graphics/SVG/1.1/DTD/svg11.dtd">
<!-- Generated by graphviz version 2.43.0 (0)
 -->
<!-- Title: iii_drone::control::State::velocity Pages: 1 -->
<svg width="1014pt" height="302pt"
 viewBox="0.00 0.00 1014.00 301.50" xmlns="http://www.w3.org/2000/svg" xmlns:xlink="http://www.w3.org/1999/xlink">
<g id="graph0" class="graph" transform="scale(1 1) rotate(0) translate(4 297.5)">
<title>iii_drone::control::State::velocity</title>
<!-- Node1 -->
<g id="Node000001" class="node">
<title>Node1</title>
<g id="a_Node000001"><a xlink:title=" ">
<polygon fill="#999999" stroke="#666666" points="1006,-161.5 908,-161.5 908,-131.5 1006,-131.5 1006,-161.5"/>
<text text-anchor="start" x="916" y="-149.5" font-family="Helvetica,sans-Serif" font-size="10.00">iii_drone::control</text>
<text text-anchor="middle" x="957" y="-138.5" font-family="Helvetica,sans-Serif" font-size="10.00">::State::velocity</text>
</a>
</g>
</g>
<!-- Node2 -->
<g id="Node000002" class="node">
<title>Node2</title>
<g id="a_Node000002"><a xlink:href="classiii__drone_1_1control_1_1Reference.html#a6c02bfc4464392a48b88dbd302e1a3f6" target="_top" xlink:title=" ">
<polygon fill="white" stroke="#666666" points="849.5,-293.5 721.5,-293.5 721.5,-263.5 849.5,-263.5 849.5,-293.5"/>
<text text-anchor="start" x="729.5" y="-281.5" font-family="Helvetica,sans-Serif" font-size="10.00">iii_drone::control</text>
<text text-anchor="middle" x="785.5" y="-270.5" font-family="Helvetica,sans-Serif" font-size="10.00">::Reference::Reference</text>
</a>
</g>
</g>
<!-- Node1&#45;&gt;Node2 -->
<g id="edge1_Node000001_Node000002" class="edge">
<title>Node1&#45;&gt;Node2</title>
<g id="a_edge1_Node000001_Node000002"><a xlink:title=" ">
<path fill="none" stroke="#63b8ff" d="M943.37,-170.61C929.23,-195.29 904.03,-232.98 872,-254.5 865.22,-259.06 857.58,-262.76 849.73,-265.76"/>
<polygon fill="#63b8ff" stroke="#63b8ff" points="946.62,-171.98 948.41,-161.54 940.5,-168.58 946.62,-171.98"/>
</a>
</g>
</g>
<!-- Node3 -->
<g id="Node000003" class="node">
<title>Node3</title>
<g id="a_Node000003"><a xlink:href="classiii__drone_1_1control_1_1TrajectoryGenerator.html#a584f2e31540f693d8acf36b852e8cb38" target="_top" xlink:title="Sets up the MPC.">
<polygon fill="white" stroke="#666666" points="845,-245 726,-245 726,-204 845,-204 845,-245"/>
<text text-anchor="start" x="734" y="-233" font-family="Helvetica,sans-Serif" font-size="10.00">iii_drone::control</text>
<text text-anchor="start" x="734" y="-222" font-family="Helvetica,sans-Serif" font-size="10.00">::TrajectoryGenerator</text>
<text text-anchor="middle" x="785.5" y="-211" font-family="Helvetica,sans-Serif" font-size="10.00">::setupMPC</text>
</a>
</g>
</g>
<!-- Node1&#45;&gt;Node3 -->
<g id="edge2_Node000001_Node000003" class="edge">
<title>Node1&#45;&gt;Node3</title>
<g id="a_edge2_Node000001_Node000003"><a xlink:title=" ">
<path fill="none" stroke="#63b8ff" d="M923.76,-166.76C908.42,-175.91 889.63,-186.45 872,-194.5 863.41,-198.42 854.16,-202.15 845.01,-205.57"/>
<polygon fill="#63b8ff" stroke="#63b8ff" points="925.61,-169.73 932.35,-161.56 921.98,-163.74 925.61,-169.73"/>
</a>
</g>
</g>
<!-- Node7 -->
<g id="Node000007" class="node">
<title>Node7</title>
<g id="a_Node000007"><a xlink:href="classiii__drone_1_1control_1_1State.html#ab56f9d033f57c3815174bf4106b31ac5" target="_top" xlink:title=" ">
<polygon fill="white" stroke="#666666" points="834.5,-185.5 736.5,-185.5 736.5,-155.5 834.5,-155.5 834.5,-185.5"/>
<text text-anchor="start" x="744.5" y="-173.5" font-family="Helvetica,sans-Serif" font-size="10.00">iii_drone::control</text>
<text text-anchor="middle" x="785.5" y="-162.5" font-family="Helvetica,sans-Serif" font-size="10.00">::State::State</text>
</a>
</g>
</g>
<!-- Node1&#45;&gt;Node7 -->
<g id="edge6_Node000001_Node000007" class="edge">
<title>Node1&#45;&gt;Node7</title>
<g id="a_edge6_Node000001_Node000007"><a xlink:title=" ">
<path fill="none" stroke="#63b8ff" d="M897.7,-154.75C877.17,-157.66 854.34,-160.89 834.74,-163.67"/>
<polygon fill="#63b8ff" stroke="#63b8ff" points="898.47,-158.18 907.88,-153.31 897.49,-151.25 898.47,-158.18"/>
</a>
</g>
</g>
<!-- Node8 -->
<g id="Node000008" class="node">
<title>Node8</title>
<g id="a_Node000008"><a xlink:href="classiii__drone_1_1control_1_1State.html#af1d4e966cfd9ac0912c8823e627c4b07" target="_top" xlink:title=" ">
<polygon fill="white" stroke="#666666" points="834.5,-137.5 736.5,-137.5 736.5,-107.5 834.5,-107.5 834.5,-137.5"/>
<text text-anchor="start" x="744.5" y="-125.5" font-family="Helvetica,sans-Serif" font-size="10.00">iii_drone::control</text>
<text text-anchor="middle" x="785.5" y="-114.5" font-family="Helvetica,sans-Serif" font-size="10.00">::State::State</text>
</a>
</g>
</g>
<!-- Node1&#45;&gt;Node8 -->
<g id="edge7_Node000001_Node000008" class="edge">
<title>Node1&#45;&gt;Node8</title>
<g id="a_edge7_Node000001_Node000008"><a xlink:title=" ">
<path fill="none" stroke="#63b8ff" d="M897.7,-138.25C877.17,-135.34 854.34,-132.11 834.74,-129.33"/>
<polygon fill="#63b8ff" stroke="#63b8ff" points="897.49,-141.75 907.88,-139.69 898.47,-134.82 897.49,-141.75"/>
</a>
</g>
</g>
<!-- Node9 -->
<g id="Node000009" class="node">
<title>Node9</title>
<g id="a_Node000009"><a xlink:href="classiii__drone_1_1adapters_1_1StateAdapter.html#aa660f72a3e258818e71a888cfa6cd766" target="_top" xlink:title="Converts to msg.">
<polygon fill="white" stroke="#666666" points="847,-89.5 724,-89.5 724,-59.5 847,-59.5 847,-89.5"/>
<text text-anchor="start" x="732" y="-77.5" font-family="Helvetica,sans-Serif" font-size="10.00">iii_drone::adapters</text>
<text text-anchor="middle" x="785.5" y="-66.5" font-family="Helvetica,sans-Serif" font-size="10.00">::StateAdapter::ToMsg</text>
</a>
</g>
</g>
<!-- Node1&#45;&gt;Node9 -->
<g id="edge8_Node000001_Node000009" class="edge">
<title>Node1&#45;&gt;Node9</title>
<g id="a_edge8_Node000001_Node000009"><a xlink:title=" ">
<path fill="none" stroke="#63b8ff" d="M924.64,-126.13C909.24,-116.77 890.13,-106.09 872,-98.5 864.18,-95.23 855.77,-92.25 847.39,-89.6"/>
<polygon fill="#63b8ff" stroke="#63b8ff" points="922.9,-129.17 933.25,-131.46 926.59,-123.22 922.9,-129.17"/>
</a>
</g>
</g>
<!-- Node14 -->
<g id="Node000014" class="node">
<title>Node14</title>
<g id="a_Node000014"><a xlink:href="classiii__drone_1_1adapters_1_1px4_1_1TrajectorySetpointAdapter.html#a40190ec04a78561669213dc2ceba176a" target="_top" xlink:title="Constructor from iii_drone::control::State.">
<polygon fill="white" stroke="#666666" points="872,-41 699,-41 699,0 872,0 872,-41"/>
<text text-anchor="start" x="707" y="-29" font-family="Helvetica,sans-Serif" font-size="10.00">iii_drone::adapters</text>
<text text-anchor="start" x="707" y="-18" font-family="Helvetica,sans-Serif" font-size="10.00">::px4::TrajectorySetpointAdapter</text>
<text text-anchor="middle" x="785.5" y="-7" font-family="Helvetica,sans-Serif" font-size="10.00">::TrajectorySetpointAdapter</text>
</a>
</g>
</g>
<!-- Node1&#45;&gt;Node14 -->
<g id="edge15_Node000001_Node000014" class="edge">
<title>Node1&#45;&gt;Node14</title>
<g id="a_edge15_Node000001_Node000014"><a xlink:title=" ">
<path fill="none" stroke="#63b8ff" d="M940.79,-123.04C925.69,-101.45 900.7,-69.91 872,-50.5 866.79,-46.97 861.12,-43.82 855.26,-41"/>
<polygon fill="#63b8ff" stroke="#63b8ff" points="937.93,-125.06 946.45,-131.35 943.71,-121.11 937.93,-125.06"/>
</a>
</g>
</g>
<!-- Node4 -->
<g id="Node000004" class="node">
<title>Node4</title>
<g id="a_Node000004"><a xlink:href="classiii__drone_1_1control_1_1TrajectoryGenerator.html#a78eab9ed7ef8b604e5753192fbf8561b" target="_top" xlink:title="Computes the reference trajectory for the MPC.">
<polygon fill="white" stroke="#666666" points="648,-245 484,-245 484,-204 648,-204 648,-245"/>
<text text-anchor="start" x="492" y="-233" font-family="Helvetica,sans-Serif" font-size="10.00">iii_drone::control</text>
<text text-anchor="start" x="492" y="-222" font-family="Helvetica,sans-Serif" font-size="10.00">::TrajectoryGenerator</text>
<text text-anchor="middle" x="566" y="-211" font-family="Helvetica,sans-Serif" font-size="10.00">::ComputeReferenceTrajectory</text>
</a>
</g>
</g>
<!-- Node3&#45;&gt;Node4 -->
<g id="edge3_Node000003_Node000004" class="edge">
<title>Node3&#45;&gt;Node4</title>
<g id="a_edge3_Node000003_Node000004"><a xlink:title=" ">
<path fill="none" stroke="#63b8ff" d="M715.91,-224.5C694.39,-224.5 670.44,-224.5 648.15,-224.5"/>
<polygon fill="#63b8ff" stroke="#63b8ff" points="715.93,-228 725.93,-224.5 715.93,-221 715.93,-228"/>
</a>
</g>
</g>
<!-- Node5 -->
<g id="Node000005" class="node">
<title>Node5</title>
<g id="a_Node000005"><a xlink:href="classiii__drone_1_1control_1_1trajectory__generator__node_1_1TrajectoryGeneratorNode.html#aefc447399b185fef5b912770b5059936" target="_top" xlink:title="The compute reference trajectory service callback.">
<polygon fill="white" stroke="#666666" points="432.5,-250.5 227.5,-250.5 227.5,-198.5 432.5,-198.5 432.5,-250.5"/>
<text text-anchor="start" x="235.5" y="-238.5" font-family="Helvetica,sans-Serif" font-size="10.00">iii_drone::control</text>
<text text-anchor="start" x="235.5" y="-227.5" font-family="Helvetica,sans-Serif" font-size="10.00">::trajectory_generator</text>
<text text-anchor="start" x="235.5" y="-216.5" font-family="Helvetica,sans-Serif" font-size="10.00">_node::TrajectoryGeneratorNode</text>
<text text-anchor="middle" x="330" y="-205.5" font-family="Helvetica,sans-Serif" font-size="10.00">::computeReferenceTrajectoryCallback</text>
</a>
</g>
</g>
<!-- Node4&#45;&gt;Node5 -->
<g id="edge4_Node000004_Node000005" class="edge">
<title>Node4&#45;&gt;Node5</title>
<g id="a_edge4_Node000004_Node000005"><a xlink:title=" ">
<path fill="none" stroke="#63b8ff" d="M473.64,-224.5C460.2,-224.5 446.29,-224.5 432.66,-224.5"/>
<polygon fill="#63b8ff" stroke="#63b8ff" points="473.81,-228 483.81,-224.5 473.81,-221 473.81,-228"/>
</a>
</g>
</g>
<!-- Node6 -->
<g id="Node000006" class="node">
<title>Node6</title>
<g id="a_Node000006"><a xlink:href="classiii__drone_1_1control_1_1trajectory__generator__node_1_1TrajectoryGeneratorNode.html#ac58d9ceab1e2ecc71cb971a5f360bc00" target="_top" xlink:title=" ">
<polygon fill="white" stroke="#666666" points="182.5,-250.5 8.5,-250.5 8.5,-198.5 182.5,-198.5 182.5,-250.5"/>
<text text-anchor="start" x="16.5" y="-238.5" font-family="Helvetica,sans-Serif" font-size="10.00">iii_drone::control</text>
<text text-anchor="start" x="16.5" y="-227.5" font-family="Helvetica,sans-Serif" font-size="10.00">::trajectory_generator</text>
<text text-anchor="start" x="16.5" y="-216.5" font-family="Helvetica,sans-Serif" font-size="10.00">_node::TrajectoryGeneratorNode</text>
<text text-anchor="middle" x="95.5" y="-205.5" font-family="Helvetica,sans-Serif" font-size="10.00">::TrajectoryGeneratorNode</text>
</a>
</g>
</g>
<!-- Node5&#45;&gt;Node6 -->
<g id="edge5_Node000005_Node000006" class="edge">
<title>Node5&#45;&gt;Node6</title>
<g id="a_edge5_Node000005_Node000006"><a xlink:title=" ">
<path fill="none" stroke="#63b8ff" d="M217.19,-224.5C205.59,-224.5 193.92,-224.5 182.66,-224.5"/>
<polygon fill="#63b8ff" stroke="#63b8ff" points="217.36,-228 227.36,-224.5 217.36,-221 217.36,-228"/>
</a>
</g>
</g>
<!-- Node10 -->
<g id="Node000010" class="node">
<title>Node10</title>
<g id="a_Node000010"><a xlink:href="classiii__drone_1_1control_1_1TrajectoryGeneratorClient.html#a2b3ee03aed559d8c1ea8d052336d25ff" target="_top" xlink:title="Starts generating a trajectory.">
<polygon fill="white" stroke="#666666" points="663,-95 469,-95 469,-54 663,-54 663,-95"/>
<text text-anchor="start" x="477" y="-83" font-family="Helvetica,sans-Serif" font-size="10.00">iii_drone::control</text>
<text text-anchor="start" x="477" y="-72" font-family="Helvetica,sans-Serif" font-size="10.00">::TrajectoryGeneratorClient</text>
<text text-anchor="middle" x="566" y="-61" font-family="Helvetica,sans-Serif" font-size="10.00">::ComputeReferenceTrajectoryAsync</text>
</a>
</g>
</g>
<!-- Node9&#45;&gt;Node10 -->
<g id="edge9_Node000009_Node000010" class="edge">
<title>Node9&#45;&gt;Node10</title>
<g id="a_edge9_Node000009_Node000010"><a xlink:title=" ">
<path fill="none" stroke="#63b8ff" d="M713.53,-74.5C697.43,-74.5 680.07,-74.5 663.13,-74.5"/>
<polygon fill="#63b8ff" stroke="#63b8ff" points="713.91,-78 723.91,-74.5 713.91,-71 713.91,-78"/>
</a>
</g>
</g>
<!-- Node11 -->
<g id="Node000011" class="node">
<title>Node11</title>
<g id="a_Node000011"><a xlink:href="classiii__drone_1_1control_1_1maneuver_1_1FlyToObjectManeuverServer.html#a2ace3412e0d42d07a39c553c89ab0c6a" target="_top" xlink:title="Compute the reference.">
<polygon fill="white" stroke="#666666" points="187.5,-125 3.5,-125 3.5,-84 187.5,-84 187.5,-125"/>
<text text-anchor="start" x="11.5" y="-113" font-family="Helvetica,sans-Serif" font-size="10.00">iii_drone::control</text>
<text text-anchor="start" x="11.5" y="-102" font-family="Helvetica,sans-Serif" font-size="10.00">::maneuver::FlyToObjectManeuver</text>
<text text-anchor="middle" x="95.5" y="-91" font-family="Helvetica,sans-Serif" font-size="10.00">Server::computeReference</text>
</a>
</g>
</g>
<!-- Node10&#45;&gt;Node11 -->
<g id="edge10_Node000010_Node000011" class="edge">
<title>Node10&#45;&gt;Node11</title>
<g id="a_edge10_Node000010_Node000011"><a xlink:title=" ">
<path fill="none" stroke="#63b8ff" d="M477.82,-97.19C462.96,-100.23 447.61,-102.86 433,-104.5 350.42,-113.77 255.71,-112.73 187.85,-109.99"/>
<polygon fill="#63b8ff" stroke="#63b8ff" points="478.96,-100.53 488.02,-95.03 477.51,-93.68 478.96,-100.53"/>
</a>
</g>
</g>
<!-- Node12 -->
<g id="Node000012" class="node">
<title>Node12</title>
<g id="a_Node000012"><a xlink:href="classiii__drone_1_1control_1_1maneuver_1_1FlyToPositionManeuverServer.html#ac13004e478653d73361c3569e11870dc" target="_top" xlink:title="Compute the reference.">
<polygon fill="white" stroke="#666666" points="191,-56 0,-56 0,-15 191,-15 191,-56"/>
<text text-anchor="start" x="8" y="-44" font-family="Helvetica,sans-Serif" font-size="10.00">iii_drone::control</text>
<text text-anchor="start" x="8" y="-33" font-family="Helvetica,sans-Serif" font-size="10.00">::maneuver::FlyToPositionManeuver</text>
<text text-anchor="middle" x="95.5" y="-22" font-family="Helvetica,sans-Serif" font-size="10.00">Server::computeReference</text>
</a>
</g>
</g>
<!-- Node10&#45;&gt;Node12 -->
<g id="edge11_Node000010_Node000012" class="edge">
<title>Node10&#45;&gt;Node12</title>
<g id="a_edge11_Node000010_Node000012"><a xlink:title=" ">
<path fill="none" stroke="#63b8ff" d="M476.34,-51.84C461.93,-48.89 447.11,-46.28 433,-44.5 351.82,-34.29 258.79,-32.56 191.16,-33.08"/>
<polygon fill="#63b8ff" stroke="#63b8ff" points="475.72,-55.29 486.23,-53.94 477.17,-48.44 475.72,-55.29"/>
</a>
</g>
</g>
<!-- Node13 -->
<g id="Node000013" class="node">
<title>Node13</title>
<g id="a_Node000013"><a xlink:href="classiii__drone_1_1control_1_1TrajectoryGeneratorClient.html#a0e32180d729e74d24edeef891d1ac843" target="_top" xlink:title="Generates a trajectory and blocks until it is done.">
<polygon fill="white" stroke="#666666" points="433,-95 227,-95 227,-54 433,-54 433,-95"/>
<text text-anchor="start" x="235" y="-83" font-family="Helvetica,sans-Serif" font-size="10.00">iii_drone::control</text>
<text text-anchor="start" x="235" y="-72" font-family="Helvetica,sans-Serif" font-size="10.00">::TrajectoryGeneratorClient</text>
<text text-anchor="middle" x="330" y="-61" font-family="Helvetica,sans-Serif" font-size="10.00">::ComputeReferenceTrajectoryBlocking</text>
</a>
</g>
</g>
<!-- Node10&#45;&gt;Node13 -->
<g id="edge12_Node000010_Node000013" class="edge">
<title>Node10&#45;&gt;Node13</title>
<g id="a_edge12_Node000010_Node000013"><a xlink:title=" ">
<path fill="none" stroke="#63b8ff" d="M458.58,-74.5C450.16,-74.5 441.66,-74.5 433.27,-74.5"/>
<polygon fill="#63b8ff" stroke="#63b8ff" points="458.81,-78 468.81,-74.5 458.81,-71 458.81,-78"/>
</a>
</g>
</g>
<!-- Node13&#45;&gt;Node11 -->
<g id="edge13_Node000013_Node000011" class="edge">
<title>Node13&#45;&gt;Node11</title>
<g id="a_edge13_Node000013_Node000011"><a xlink:title=" ">
<path fill="none" stroke="#63b8ff" d="M216.57,-89.01C206.83,-90.26 197.06,-91.52 187.53,-92.75"/>
<polygon fill="#63b8ff" stroke="#63b8ff" points="217.21,-92.45 226.68,-87.7 216.32,-85.51 217.21,-92.45"/>
</a>
</g>
</g>
<!-- Node13&#45;&gt;Node12 -->
<g id="edge14_Node000013_Node000012" class="edge">
<title>Node13&#45;&gt;Node12</title>
<g id="a_edge14_Node000013_Node000012"><a xlink:title=" ">
<path fill="none" stroke="#63b8ff" d="M216.68,-55.66C208.13,-54.23 199.56,-52.79 191.14,-51.38"/>
<polygon fill="#63b8ff" stroke="#63b8ff" points="216.24,-59.13 226.68,-57.34 217.4,-52.23 216.24,-59.13"/>
</a>
</g>
</g>
</g>
</svg>
