<?xml version="1.0" encoding="UTF-8" standalone="no"?>
<!DOCTYPE svg PUBLIC "-//W3C//DTD SVG 1.1//EN"
 "http://www.w3.org/Graphics/SVG/1.1/DTD/svg11.dtd">
<!-- Generated by graphviz version 2.43.0 (0)
 -->
<!-- Title: iii_drone::utils::Timestamp::Update Pages: 1 -->
<!--zoomable 705 -->

<svg id="main" version="1.1" xmlns="http://www.w3.org/2000/svg" xmlns:xlink="http://www.w3.org/1999/xlink" xml:space="preserve" onload="init(evt)">
<style type="text/css"><![CDATA[
.node, .edge {opacity: 0.7;}
.node.selected, .edge.selected {opacity: 1;}
.edge:hover path { stroke: red; }
.edge:hover polygon { stroke: red; fill: red; }
]]></style>

<defs>
  <circle id="rim" cx="0" cy="0" r="7"/>
  <circle id="rim2" cx="0" cy="0" r="3.5"/>
  <g id="zoomPlus">
    <use xlink:href="#rim" fill="#404040"><set attributeName="fill" to="#808080" begin="zoomplus.mouseover" end="zoomplus.mouseout"/></use>
    <path d="M-4,0h8M0,-4v8" fill="none" stroke="white" stroke-width="1.5" pointer-events="none"/>
  </g>
  <g id="zoomMin">
    <use xlink:href="#rim" fill="#404040"><set attributeName="fill" to="#808080" begin="zoomminus.mouseover" end="zoomminus.mouseout"/></use>
    <path d="M-4,0h8" fill="none" stroke="white" stroke-width="1.5" pointer-events="none"/>
  </g>
  <g id="arrowUp" transform="translate(30 24)">
    <use xlink:href="#rim"/>
    <path pointer-events="none" fill="none" stroke="white" stroke-width="1.5" d="M0,-3.0v7 M-2.5,-0.5L0,-3.0L2.5,-0.5"/>
  </g>
  <g id="arrowRight" transform="rotate(90) translate(36 -43)">
    <use xlink:href="#rim"/>
    <path pointer-events="none" fill="none" stroke="white" stroke-width="1.5" d="M0,-3.0v7 M-2.5,-0.5L0,-3.0L2.5,-0.5"/>
  </g>
  <g id="arrowDown" transform="rotate(180) translate(-30 -48)">
    <use xlink:href="#rim"/>
    <path pointer-events="none" fill="none" stroke="white" stroke-width="1.5" d="M0,-3.0v7 M-2.5,-0.5L0,-3.0L2.5,-0.5"/>
  </g>
  <g id="arrowLeft" transform="rotate(270) translate(-36 17)">
    <use xlink:href="#rim"/>
    <path pointer-events="none" fill="none" stroke="white" stroke-width="1.5" d="M0,-3.0v7 M-2.5,-0.5L0,-3.0L2.5,-0.5"/>
  </g>
  <g id="resetDef">
    <use xlink:href="#rim2" fill="#404040"><set attributeName="fill" to="#808080" begin="reset.mouseover" end="reset.mouseout"/></use>
  </g>
</defs>
<script type="application/ecmascript">
var viewWidth = 810;
var viewHeight = 705;
var sectionId = 'dynsection-2';
</script>
<script type="application/ecmascript" xlink:href="svg.min.js"/>
<svg id="graph" class="graph">
<g id="viewport">
<title>iii_drone::utils::Timestamp::Update</title>
<!-- Node1 -->
<g id="Node000001" class="node">
<title>Node1</title>
<g id="a_Node000001"><a xlink:title="Updates the timestamp to now.">
<polygon fill="#999999" stroke="#666666" points="802,-354 655,-354 655,-324 802,-324 802,-354"/>
<text text-anchor="start" x="663" y="-342" font-family="Helvetica,sans-Serif" font-size="10.00">iii_drone::utils::Timestamp</text>
<text text-anchor="middle" x="728.5" y="-331" font-family="Helvetica,sans-Serif" font-size="10.00">::Update</text>
</a>
</g>
</g>
<!-- Node2 -->
<g id="Node000002" class="node">
<title>Node2</title>
<g id="a_Node000002"><a xlink:href="classiii__drone_1_1perception_1_1Powerline.html#ac41b155797547f943848004171fb7c61" target="_top" xlink:title="Cleans up the lines that are not in the sensor FOV.">
<polygon fill="white" stroke="#666666" points="608,-138 466,-138 466,-108 608,-108 608,-138"/>
<text text-anchor="start" x="474" y="-126" font-family="Helvetica,sans-Serif" font-size="10.00">iii_drone::perception</text>
<text text-anchor="middle" x="537" y="-115" font-family="Helvetica,sans-Serif" font-size="10.00">::Powerline::CleanupLines</text>
</a>
</g>
</g>
<!-- Node1&#45;&gt;Node2 -->
<g id="edge1_Node000001_Node000002" class="edge">
<title>Node1&#45;&gt;Node2</title>
<g id="a_edge1_Node000001_Node000002"><a xlink:title=" ">
<path fill="none" stroke="#63b8ff" d="M720.26,-314.22C707,-273.26 674.94,-191.53 619,-147 614.64,-143.53 609.79,-140.56 604.69,-138.02"/>
<polygon fill="#63b8ff" stroke="#63b8ff" points="716.97,-315.44 723.29,-323.94 723.65,-313.35 716.97,-315.44"/>
</a>
</g>
</g>
<!-- Node5 -->
<g id="Node000005" class="node">
<title>Node5</title>
<g id="a_Node000005"><a xlink:href="classiii__drone_1_1perception_1_1Powerline.html#a07f90dc6a742a7f921e041d3b3734d8b" target="_top" xlink:title="Computes the inter line positions.">
<polygon fill="white" stroke="#666666" points="619,-89.5 455,-89.5 455,-48.5 619,-48.5 619,-89.5"/>
<text text-anchor="start" x="463" y="-77.5" font-family="Helvetica,sans-Serif" font-size="10.00">iii_drone::perception</text>
<text text-anchor="start" x="463" y="-66.5" font-family="Helvetica,sans-Serif" font-size="10.00">::Powerline::ComputeInterLine</text>
<text text-anchor="middle" x="537" y="-55.5" font-family="Helvetica,sans-Serif" font-size="10.00">Positions</text>
</a>
</g>
</g>
<!-- Node1&#45;&gt;Node5 -->
<g id="edge4_Node000001_Node000005" class="edge">
<title>Node1&#45;&gt;Node5</title>
<g id="a_edge4_Node000001_Node000005"><a xlink:title=" ">
<path fill="none" stroke="#63b8ff" d="M722.88,-314.11C712.69,-265.95 683.83,-159.45 619,-99 615.27,-95.52 611.1,-92.44 606.68,-89.71"/>
<polygon fill="#63b8ff" stroke="#63b8ff" points="719.47,-314.89 724.88,-323.99 726.33,-313.5 719.47,-314.89"/>
</a>
</g>
</g>
<!-- Node6 -->
<g id="Node000006" class="node">
<title>Node6</title>
<g id="a_Node000006"><a xlink:href="classiii__drone_1_1perception_1_1PowerlineDirection.html#a896518120e987d3be288e56dd34410b9" target="_top" xlink:title="Default constructor.">
<polygon fill="white" stroke="#666666" points="595,-581.5 479,-581.5 479,-540.5 595,-540.5 595,-581.5"/>
<text text-anchor="start" x="487" y="-569.5" font-family="Helvetica,sans-Serif" font-size="10.00">iii_drone::perception</text>
<text text-anchor="start" x="487" y="-558.5" font-family="Helvetica,sans-Serif" font-size="10.00">::PowerlineDirection</text>
<text text-anchor="middle" x="537" y="-547.5" font-family="Helvetica,sans-Serif" font-size="10.00">::PowerlineDirection</text>
</a>
</g>
</g>
<!-- Node1&#45;&gt;Node6 -->
<g id="edge6_Node000001_Node000006" class="edge">
<title>Node1&#45;&gt;Node6</title>
<g id="a_edge6_Node000001_Node000006"><a xlink:title=" ">
<path fill="none" stroke="#63b8ff" d="M719.82,-363.67C706.02,-404.14 673.29,-484.75 619,-531 612.04,-536.93 603.79,-541.74 595.27,-545.62"/>
<polygon fill="#63b8ff" stroke="#63b8ff" points="723.18,-364.66 723,-354.06 716.54,-362.46 723.18,-364.66"/>
</a>
</g>
</g>
<!-- Node7 -->
<g id="Node000007" class="node">
<title>Node7</title>
<g id="a_Node000007"><a xlink:href="classiii__drone_1_1perception_1_1PowerlineDirection.html#a1f751f8f0562b55f31d42142c6b55ffc" target="_top" xlink:title="Runs the Kalman Filter predict step from a drone quaternion.">
<polygon fill="white" stroke="#666666" points="595,-687.5 479,-687.5 479,-646.5 595,-646.5 595,-687.5"/>
<text text-anchor="start" x="487" y="-675.5" font-family="Helvetica,sans-Serif" font-size="10.00">iii_drone::perception</text>
<text text-anchor="start" x="487" y="-664.5" font-family="Helvetica,sans-Serif" font-size="10.00">::PowerlineDirection</text>
<text text-anchor="middle" x="537" y="-653.5" font-family="Helvetica,sans-Serif" font-size="10.00">::Predict</text>
</a>
</g>
</g>
<!-- Node1&#45;&gt;Node7 -->
<g id="edge7_Node000001_Node000007" class="edge">
<title>Node1&#45;&gt;Node7</title>
<g id="a_edge7_Node000001_Node000007"><a xlink:title=" ">
<path fill="none" stroke="#63b8ff" d="M723.98,-364.26C715.31,-418.07 688.33,-545.47 619,-624 611.1,-632.95 600.87,-640.35 590.36,-646.33"/>
<polygon fill="#63b8ff" stroke="#63b8ff" points="727.46,-364.65 725.52,-354.23 720.55,-363.58 727.46,-364.65"/>
</a>
</g>
</g>
<!-- Node10 -->
<g id="Node000010" class="node">
<title>Node10</title>
<g id="a_Node000010"><a xlink:href="classiii__drone_1_1perception_1_1SingleLine.html#a07932346f3f532051cf105e92c1a2ed4" target="_top" xlink:title="Runs the Kalman Filter predict step.">
<polygon fill="white" stroke="#666666" points="595,-474 479,-474 479,-444 595,-444 595,-474"/>
<text text-anchor="start" x="487" y="-462" font-family="Helvetica,sans-Serif" font-size="10.00">iii_drone::perception</text>
<text text-anchor="middle" x="537" y="-451" font-family="Helvetica,sans-Serif" font-size="10.00">::SingleLine::Predict</text>
</a>
</g>
</g>
<!-- Node1&#45;&gt;Node10 -->
<g id="edge10_Node000001_Node000010" class="edge">
<title>Node1&#45;&gt;Node10</title>
<g id="a_edge10_Node000001_Node000010"><a xlink:title=" ">
<path fill="none" stroke="#63b8ff" d="M707.46,-361.74C687.16,-383.46 653.87,-415.67 619,-435 611.56,-439.12 603.33,-442.61 595.06,-445.54"/>
<polygon fill="#63b8ff" stroke="#63b8ff" points="710.14,-363.99 714.33,-354.26 704.99,-359.26 710.14,-363.99"/>
</a>
</g>
</g>
<!-- Node11 -->
<g id="Node000011" class="node">
<title>Node11</title>
<g id="a_Node000011"><a xlink:href="classiii__drone_1_1perception_1_1Powerline.html#aca2026f294b1aa4c3447240d56422c2c" target="_top" xlink:title="Resets the powerline object.">
<polygon fill="white" stroke="#666666" points="595,-522 479,-522 479,-492 595,-492 595,-522"/>
<text text-anchor="start" x="487" y="-510" font-family="Helvetica,sans-Serif" font-size="10.00">iii_drone::perception</text>
<text text-anchor="middle" x="537" y="-499" font-family="Helvetica,sans-Serif" font-size="10.00">::Powerline::Reset</text>
</a>
</g>
</g>
<!-- Node1&#45;&gt;Node11 -->
<g id="edge11_Node000001_Node000011" class="edge">
<title>Node1&#45;&gt;Node11</title>
<g id="a_edge11_Node000001_Node000011"><a xlink:title=" ">
<path fill="none" stroke="#63b8ff" d="M715.54,-363.3C698.5,-395.43 664.22,-451.63 619,-483 611.77,-488.02 603.48,-492 595.02,-495.16"/>
<polygon fill="#63b8ff" stroke="#63b8ff" points="718.79,-364.65 720.27,-354.16 712.57,-361.43 718.79,-364.65"/>
</a>
</g>
</g>
<!-- Node13 -->
<g id="Node000013" class="node">
<title>Node13</title>
<g id="a_Node000013"><a xlink:href="classiii__drone_1_1perception_1_1SingleLine.html#a696e834bec8b059b4c2caccd647b22a0" target="_top" xlink:title="Sets the direction.">
<polygon fill="white" stroke="#666666" points="606.5,-378 467.5,-378 467.5,-348 606.5,-348 606.5,-378"/>
<text text-anchor="start" x="475.5" y="-366" font-family="Helvetica,sans-Serif" font-size="10.00">iii_drone::perception</text>
<text text-anchor="middle" x="537" y="-355" font-family="Helvetica,sans-Serif" font-size="10.00">::SingleLine::SetDirection</text>
</a>
</g>
</g>
<!-- Node1&#45;&gt;Node13 -->
<g id="edge13_Node000001_Node000013" class="edge">
<title>Node1&#45;&gt;Node13</title>
<g id="a_edge13_Node000001_Node000013"><a xlink:title=" ">
<path fill="none" stroke="#63b8ff" d="M644.71,-349.49C632.05,-351.09 619.1,-352.73 606.79,-354.29"/>
<polygon fill="#63b8ff" stroke="#63b8ff" points="645.3,-352.94 654.78,-348.21 644.42,-345.99 645.3,-352.94"/>
</a>
</g>
</g>
<!-- Node14 -->
<g id="Node000014" class="node">
<title>Node14</title>
<g id="a_Node000014"><a xlink:href="classiii__drone_1_1perception_1_1SingleLine.html#a8147790cb624bf4e00ab997e44ab4bd4" target="_top" xlink:title="Sets the position and updates the Kalman Filter estimates.">
<polygon fill="white" stroke="#666666" points="604,-330 470,-330 470,-300 604,-300 604,-330"/>
<text text-anchor="start" x="478" y="-318" font-family="Helvetica,sans-Serif" font-size="10.00">iii_drone::perception</text>
<text text-anchor="middle" x="537" y="-307" font-family="Helvetica,sans-Serif" font-size="10.00">::SingleLine::SetPosition</text>
</a>
</g>
</g>
<!-- Node1&#45;&gt;Node14 -->
<g id="edge14_Node000001_Node000014" class="edge">
<title>Node1&#45;&gt;Node14</title>
<g id="a_edge14_Node000001_Node000014"><a xlink:title=" ">
<path fill="none" stroke="#63b8ff" d="M644.5,-328.49C630.95,-326.77 617.08,-325.02 604.01,-323.36"/>
<polygon fill="#63b8ff" stroke="#63b8ff" points="644.42,-332.01 654.78,-329.79 645.3,-325.06 644.42,-332.01"/>
</a>
</g>
</g>
<!-- Node15 -->
<g id="Node000015" class="node">
<title>Node15</title>
<g id="a_Node000015"><a xlink:href="classiii__drone_1_1utils_1_1Timestamp.html#a2e610487ef16d9d5a8d6dc8ad457a3e7" target="_top" xlink:title="Default constructor.">
<polygon fill="white" stroke="#666666" points="610.5,-282 463.5,-282 463.5,-252 610.5,-252 610.5,-282"/>
<text text-anchor="start" x="471.5" y="-270" font-family="Helvetica,sans-Serif" font-size="10.00">iii_drone::utils::Timestamp</text>
<text text-anchor="middle" x="537" y="-259" font-family="Helvetica,sans-Serif" font-size="10.00">::Timestamp</text>
</a>
</g>
</g>
<!-- Node1&#45;&gt;Node15 -->
<g id="edge15_Node000001_Node000015" class="edge">
<title>Node1&#45;&gt;Node15</title>
<g id="a_edge15_Node000001_Node000015"><a xlink:title=" ">
<path fill="none" stroke="#63b8ff" d="M686.93,-319.57C666.76,-310.29 641.86,-299.41 619,-291 610.47,-287.86 601.31,-284.84 592.34,-282.05"/>
<polygon fill="#63b8ff" stroke="#63b8ff" points="685.59,-322.8 696.13,-323.84 688.53,-316.45 685.59,-322.8"/>
</a>
</g>
</g>
<!-- Node16 -->
<g id="Node000016" class="node">
<title>Node16</title>
<g id="a_Node000016"><a xlink:href="classiii__drone_1_1perception_1_1SingleLine.html#aaa9fb467e21d3eb1a5e38002b0e3a72b" target="_top" xlink:title="Runs the Kalman Filter update step and increments the alive counter.">
<polygon fill="white" stroke="#666666" points="595,-234 479,-234 479,-204 595,-204 595,-234"/>
<text text-anchor="start" x="487" y="-222" font-family="Helvetica,sans-Serif" font-size="10.00">iii_drone::perception</text>
<text text-anchor="middle" x="537" y="-211" font-family="Helvetica,sans-Serif" font-size="10.00">::SingleLine::Update</text>
</a>
</g>
</g>
<!-- Node1&#45;&gt;Node16 -->
<g id="edge16_Node000001_Node000016" class="edge">
<title>Node1&#45;&gt;Node16</title>
<g id="a_edge16_Node000001_Node000016"><a xlink:title=" ">
<path fill="none" stroke="#63b8ff" d="M707.46,-316.26C687.16,-294.54 653.87,-262.33 619,-243 611.56,-238.88 603.33,-235.39 595.06,-232.46"/>
<polygon fill="#63b8ff" stroke="#63b8ff" points="704.99,-318.74 714.33,-323.74 710.14,-314.01 704.99,-318.74"/>
</a>
</g>
</g>
<!-- Node17 -->
<g id="Node000017" class="node">
<title>Node17</title>
<g id="a_Node000017"><a xlink:href="classiii__drone_1_1perception_1_1PowerlineDirection.html#a15ab1216adf0aff5c7be05e851c70040" target="_top" xlink:title="Runs the Kalman Filter update step from an observed yaw angle.">
<polygon fill="white" stroke="#666666" points="383,-626.5 267,-626.5 267,-585.5 383,-585.5 383,-626.5"/>
<text text-anchor="start" x="275" y="-614.5" font-family="Helvetica,sans-Serif" font-size="10.00">iii_drone::perception</text>
<text text-anchor="start" x="275" y="-603.5" font-family="Helvetica,sans-Serif" font-size="10.00">::PowerlineDirection</text>
<text text-anchor="middle" x="325" y="-592.5" font-family="Helvetica,sans-Serif" font-size="10.00">::Update</text>
</a>
</g>
</g>
<!-- Node1&#45;&gt;Node17 -->
<g id="edge17_Node000001_Node000017" class="edge">
<title>Node1&#45;&gt;Node17</title>
<g id="a_edge17_Node000001_Node000017"><a xlink:title=" ">
<path fill="none" stroke="#63b8ff" d="M725.14,-364.46C718.76,-417.09 696.03,-537.43 619,-591 549.48,-639.35 446.69,-631.23 383.15,-619.59"/>
<polygon fill="#63b8ff" stroke="#63b8ff" points="728.64,-364.63 726.27,-354.3 721.69,-363.86 728.64,-364.63"/>
</a>
</g>
</g>
<!-- Node18 -->
<g id="Node000018" class="node">
<title>Node18</title>
<g id="a_Node000018"><a xlink:href="classiii__drone_1_1perception_1_1Powerline.html#ac0f0ef699ab1cca6ab024e2f9549ce8e" target="_top" xlink:title="Updates the powerline direction and updates the projection plane.">
<polygon fill="white" stroke="#666666" points="615,-30 459,-30 459,0 615,0 615,-30"/>
<text text-anchor="start" x="467" y="-18" font-family="Helvetica,sans-Serif" font-size="10.00">iii_drone::perception</text>
<text text-anchor="middle" x="537" y="-7" font-family="Helvetica,sans-Serif" font-size="10.00">::Powerline::UpdateDirection</text>
</a>
</g>
</g>
<!-- Node1&#45;&gt;Node18 -->
<g id="edge19_Node000001_Node000018" class="edge">
<title>Node1&#45;&gt;Node18</title>
<g id="a_edge19_Node000001_Node000018"><a xlink:title=" ">
<path fill="none" stroke="#63b8ff" d="M725.85,-314.02C720.7,-256.81 700.02,-115.38 619,-39 615.37,-35.58 611.28,-32.64 606.91,-30.13"/>
<polygon fill="#63b8ff" stroke="#63b8ff" points="722.36,-314.31 726.66,-323.99 729.34,-313.74 722.36,-314.31"/>
</a>
</g>
</g>
<!-- Node20 -->
<g id="Node000020" class="node">
<title>Node20</title>
<g id="a_Node000020"><a xlink:href="classiii__drone_1_1perception_1_1Powerline.html#a287872d7937bc69956dbeb938aff884e" target="_top" xlink:title="Updates from a point. If match is found, runs the Kalman Filter update step for the matching line,...">
<polygon fill="white" stroke="#666666" points="603,-186 471,-186 471,-156 603,-156 603,-186"/>
<text text-anchor="start" x="479" y="-174" font-family="Helvetica,sans-Serif" font-size="10.00">iii_drone::perception</text>
<text text-anchor="middle" x="537" y="-163" font-family="Helvetica,sans-Serif" font-size="10.00">::Powerline::UpdateLine</text>
</a>
</g>
</g>
<!-- Node1&#45;&gt;Node20 -->
<g id="edge22_Node000001_Node000020" class="edge">
<title>Node1&#45;&gt;Node20</title>
<g id="a_edge22_Node000001_Node000020"><a xlink:title=" ">
<path fill="none" stroke="#63b8ff" d="M715.54,-314.7C698.5,-282.57 664.22,-226.37 619,-195 614.06,-191.57 608.62,-188.63 602.98,-186.1"/>
<polygon fill="#63b8ff" stroke="#63b8ff" points="712.57,-316.57 720.27,-323.84 718.79,-313.35 712.57,-316.57"/>
</a>
</g>
</g>
<!-- Node21 -->
<g id="Node000021" class="node">
<title>Node21</title>
<g id="a_Node000021"><a xlink:href="classiii__drone_1_1perception_1_1Powerline.html#ae0f6a983c3039c6a41bda6258ec2b70d" target="_top" xlink:title="Updates the powerline from odometry.">
<polygon fill="white" stroke="#666666" points="617.5,-426 456.5,-426 456.5,-396 617.5,-396 617.5,-426"/>
<text text-anchor="start" x="464.5" y="-414" font-family="Helvetica,sans-Serif" font-size="10.00">iii_drone::perception</text>
<text text-anchor="middle" x="537" y="-403" font-family="Helvetica,sans-Serif" font-size="10.00">::Powerline::UpdateOdometry</text>
</a>
</g>
</g>
<!-- Node1&#45;&gt;Node21 -->
<g id="edge24_Node000001_Node000021" class="edge">
<title>Node1&#45;&gt;Node21</title>
<g id="a_edge24_Node000001_Node000021"><a xlink:title=" ">
<path fill="none" stroke="#63b8ff" d="M686.93,-358.43C666.76,-367.71 641.86,-378.59 619,-387 610.47,-390.14 601.31,-393.16 592.34,-395.95"/>
<polygon fill="#63b8ff" stroke="#63b8ff" points="688.53,-361.55 696.13,-354.16 685.59,-355.2 688.53,-361.55"/>
</a>
</g>
</g>
<!-- Node3 -->
<g id="Node000003" class="node">
<title>Node3</title>
<g id="a_Node000003"><a xlink:href="classiii__drone_1_1perception_1_1pl__mapper__node_1_1PowerlineMapperNode.html#a155acd1e412911b7e8cf989e949a2e2f" target="_top" xlink:title="Callback for mmwave data topic.">
<polygon fill="white" stroke="#666666" points="411.5,-143.5 238.5,-143.5 238.5,-102.5 411.5,-102.5 411.5,-143.5"/>
<text text-anchor="start" x="246.5" y="-131.5" font-family="Helvetica,sans-Serif" font-size="10.00">iii_drone::perception</text>
<text text-anchor="start" x="246.5" y="-120.5" font-family="Helvetica,sans-Serif" font-size="10.00">::pl_mapper_node::Powerline</text>
<text text-anchor="middle" x="325" y="-109.5" font-family="Helvetica,sans-Serif" font-size="10.00">MapperNode::mmWaveCallback</text>
</a>
</g>
</g>
<!-- Node2&#45;&gt;Node3 -->
<g id="edge2_Node000002_Node000003" class="edge">
<title>Node2&#45;&gt;Node3</title>
<g id="a_edge2_Node000002_Node000003"><a xlink:title=" ">
<path fill="none" stroke="#63b8ff" d="M455.5,-123C441.21,-123 426.28,-123 411.85,-123"/>
<polygon fill="#63b8ff" stroke="#63b8ff" points="455.78,-126.5 465.78,-123 455.78,-119.5 455.78,-126.5"/>
</a>
</g>
</g>
<!-- Node4 -->
<g id="Node000004" class="node">
<title>Node4</title>
<g id="a_Node000004"><a xlink:href="classiii__drone_1_1perception_1_1pl__mapper__node_1_1PowerlineMapperNode.html#a703ae72ba683ae11154ce597b8bbad9d" target="_top" xlink:title="Constructor.">
<polygon fill="white" stroke="#666666" points="195,-143.5 0,-143.5 0,-102.5 195,-102.5 195,-143.5"/>
<text text-anchor="start" x="8" y="-131.5" font-family="Helvetica,sans-Serif" font-size="10.00">iii_drone::perception</text>
<text text-anchor="start" x="8" y="-120.5" font-family="Helvetica,sans-Serif" font-size="10.00">::pl_mapper_node::Powerline</text>
<text text-anchor="middle" x="97.5" y="-109.5" font-family="Helvetica,sans-Serif" font-size="10.00">MapperNode::PowerlineMapperNode</text>
</a>
</g>
</g>
<!-- Node3&#45;&gt;Node4 -->
<g id="edge3_Node000003_Node000004" class="edge">
<title>Node3&#45;&gt;Node4</title>
<g id="a_edge3_Node000003_Node000004"><a xlink:title=" ">
<path fill="none" stroke="#63b8ff" d="M228.1,-123C217.26,-123 206.2,-123 195.34,-123"/>
<polygon fill="#63b8ff" stroke="#63b8ff" points="228.43,-126.5 238.43,-123 228.43,-119.5 228.43,-126.5"/>
</a>
</g>
</g>
<!-- Node5&#45;&gt;Node3 -->
<g id="edge5_Node000005_Node000003" class="edge">
<title>Node5&#45;&gt;Node3</title>
<g id="a_edge5_Node000005_Node000003"><a xlink:title=" ">
<path fill="none" stroke="#63b8ff" d="M446.28,-92.07C432.81,-95.53 419.01,-99.08 405.77,-102.49"/>
<polygon fill="#63b8ff" stroke="#63b8ff" points="447.2,-95.45 456.01,-89.57 445.45,-88.67 447.2,-95.45"/>
</a>
</g>
</g>
<!-- Node8 -->
<g id="Node000008" class="node">
<title>Node8</title>
<g id="a_Node000008"><a xlink:href="classiii__drone_1_1perception_1_1pl__dir__computer__node_1_1PowerlineDirectionComputerNode.html#ab34c86cec88426267f792caac6bbedee" target="_top" xlink:title="Callback function for the odometry timer.">
<polygon fill="white" stroke="#666666" points="419,-697 231,-697 231,-645 419,-645 419,-697"/>
<text text-anchor="start" x="239" y="-685" font-family="Helvetica,sans-Serif" font-size="10.00">iii_drone::perception</text>
<text text-anchor="start" x="239" y="-674" font-family="Helvetica,sans-Serif" font-size="10.00">::pl_dir_computer_node</text>
<text text-anchor="start" x="239" y="-663" font-family="Helvetica,sans-Serif" font-size="10.00">::PowerlineDirectionComputerNode</text>
<text text-anchor="middle" x="325" y="-652" font-family="Helvetica,sans-Serif" font-size="10.00">::odometryCallback</text>
</a>
</g>
</g>
<!-- Node7&#45;&gt;Node8 -->
<g id="edge8_Node000007_Node000008" class="edge">
<title>Node7&#45;&gt;Node8</title>
<g id="a_edge8_Node000007_Node000008"><a xlink:title=" ">
<path fill="none" stroke="#63b8ff" d="M468.72,-668.28C452.91,-668.58 435.8,-668.91 419.09,-669.23"/>
<polygon fill="#63b8ff" stroke="#63b8ff" points="468.96,-671.78 478.89,-668.09 468.83,-664.78 468.96,-671.78"/>
</a>
</g>
</g>
<!-- Node9 -->
<g id="Node000009" class="node">
<title>Node9</title>
<g id="a_Node000009"><a xlink:href="classiii__drone_1_1perception_1_1pl__dir__computer__node_1_1PowerlineDirectionComputerNode.html#a7d69d952785cf09e8cd381bd624480f2" target="_top" xlink:title="Construct a new Powerline Direction Computer Node object.">
<polygon fill="white" stroke="#666666" points="191.5,-664 3.5,-664 3.5,-612 191.5,-612 191.5,-664"/>
<text text-anchor="start" x="11.5" y="-652" font-family="Helvetica,sans-Serif" font-size="10.00">iii_drone::perception</text>
<text text-anchor="start" x="11.5" y="-641" font-family="Helvetica,sans-Serif" font-size="10.00">::pl_dir_computer_node</text>
<text text-anchor="start" x="11.5" y="-630" font-family="Helvetica,sans-Serif" font-size="10.00">::PowerlineDirectionComputerNode</text>
<text text-anchor="middle" x="97.5" y="-619" font-family="Helvetica,sans-Serif" font-size="10.00">::PowerlineDirectionComputerNode</text>
</a>
</g>
</g>
<!-- Node8&#45;&gt;Node9 -->
<g id="edge9_Node000008_Node000009" class="edge">
<title>Node8&#45;&gt;Node9</title>
<g id="a_edge9_Node000008_Node000009"><a xlink:title=" ">
<path fill="none" stroke="#63b8ff" d="M220.88,-655.91C211.14,-654.48 201.31,-653.05 191.67,-651.63"/>
<polygon fill="#63b8ff" stroke="#63b8ff" points="220.58,-659.4 230.98,-657.39 221.59,-652.48 220.58,-659.4"/>
</a>
</g>
</g>
<!-- Node12 -->
<g id="Node000012" class="node">
<title>Node12</title>
<g id="a_Node000012"><a xlink:href="classiii__drone_1_1perception_1_1Powerline.html#a500b7393d0366ea7ff3d165cc0c91d7f" target="_top" xlink:title="Constructor.">
<polygon fill="white" stroke="#666666" points="387.5,-522 262.5,-522 262.5,-492 387.5,-492 387.5,-522"/>
<text text-anchor="start" x="270.5" y="-510" font-family="Helvetica,sans-Serif" font-size="10.00">iii_drone::perception</text>
<text text-anchor="middle" x="325" y="-499" font-family="Helvetica,sans-Serif" font-size="10.00">::Powerline::Powerline</text>
</a>
</g>
</g>
<!-- Node11&#45;&gt;Node12 -->
<g id="edge12_Node000011_Node000012" class="edge">
<title>Node11&#45;&gt;Node12</title>
<g id="a_edge12_Node000011_Node000012"><a xlink:title=" ">
<path fill="none" stroke="#63b8ff" d="M468.72,-507C442.65,-507 413,-507 387.51,-507"/>
<polygon fill="#63b8ff" stroke="#63b8ff" points="468.89,-510.5 478.89,-507 468.89,-503.5 468.89,-510.5"/>
</a>
</g>
</g>
<!-- Node17&#45;&gt;Node9 -->
<g id="edge18_Node000017_Node000009" class="edge">
<title>Node17&#45;&gt;Node9</title>
<g id="a_edge18_Node000017_Node000009"><a xlink:title=" ">
<path fill="none" stroke="#63b8ff" d="M256.67,-615.56C236.23,-618.46 213.4,-621.7 191.58,-624.79"/>
<polygon fill="#63b8ff" stroke="#63b8ff" points="257.4,-618.99 266.81,-614.12 256.41,-612.06 257.4,-618.99"/>
</a>
</g>
</g>
<!-- Node19 -->
<g id="Node000019" class="node">
<title>Node19</title>
<g id="a_Node000019"><a xlink:href="classiii__drone_1_1perception_1_1pl__mapper__node_1_1PowerlineMapperNode.html#a18e832f380107069f279ecf1203f3f16" target="_top" xlink:title="Callback for powerline direction topic.">
<polygon fill="white" stroke="#666666" points="415,-60.5 235,-60.5 235,-19.5 415,-19.5 415,-60.5"/>
<text text-anchor="start" x="243" y="-48.5" font-family="Helvetica,sans-Serif" font-size="10.00">iii_drone::perception</text>
<text text-anchor="start" x="243" y="-37.5" font-family="Helvetica,sans-Serif" font-size="10.00">::pl_mapper_node::Powerline</text>
<text text-anchor="middle" x="325" y="-26.5" font-family="Helvetica,sans-Serif" font-size="10.00">MapperNode::plDirectionCallback</text>
</a>
</g>
</g>
<!-- Node18&#45;&gt;Node19 -->
<g id="edge20_Node000018_Node000019" class="edge">
<title>Node18&#45;&gt;Node19</title>
<g id="a_edge20_Node000018_Node000019"><a xlink:title=" ">
<path fill="none" stroke="#63b8ff" d="M448.85,-25.38C437.69,-26.7 426.27,-28.06 415.08,-29.39"/>
<polygon fill="#63b8ff" stroke="#63b8ff" points="449.48,-28.82 459,-24.17 448.65,-21.87 449.48,-28.82"/>
</a>
</g>
</g>
<!-- Node19&#45;&gt;Node4 -->
<g id="edge21_Node000019_Node000004" class="edge">
<title>Node19&#45;&gt;Node4</title>
<g id="a_edge21_Node000019_Node000004"><a xlink:title=" ">
<path fill="none" stroke="#63b8ff" d="M258.69,-64.04C225.65,-76.2 185.98,-90.8 154.38,-102.43"/>
<polygon fill="#63b8ff" stroke="#63b8ff" points="260.08,-67.26 268.26,-60.52 257.66,-60.69 260.08,-67.26"/>
</a>
</g>
</g>
<!-- Node20&#45;&gt;Node3 -->
<g id="edge23_Node000020_Node000003" class="edge">
<title>Node20&#45;&gt;Node3</title>
<g id="a_edge23_Node000020_Node000003"><a xlink:title=" ">
<path fill="none" stroke="#63b8ff" d="M461.14,-153.89C445.08,-150.22 427.99,-146.31 411.56,-142.56"/>
<polygon fill="#63b8ff" stroke="#63b8ff" points="460.46,-157.32 470.99,-156.14 462.02,-150.5 460.46,-157.32"/>
</a>
</g>
</g>
<!-- Node22 -->
<g id="Node000022" class="node">
<title>Node22</title>
<g id="a_Node000022"><a xlink:href="classiii__drone_1_1perception_1_1pl__mapper__node_1_1PowerlineMapperNode.html#ae98c3a40fb32f1305c1528467205ba33" target="_top" xlink:title="Callback for fetching drone transform.">
<polygon fill="white" stroke="#666666" points="412,-317.5 238,-317.5 238,-276.5 412,-276.5 412,-317.5"/>
<text text-anchor="start" x="246" y="-305.5" font-family="Helvetica,sans-Serif" font-size="10.00">iii_drone::perception</text>
<text text-anchor="start" x="246" y="-294.5" font-family="Helvetica,sans-Serif" font-size="10.00">::pl_mapper_node::Powerline</text>
<text text-anchor="middle" x="325" y="-283.5" font-family="Helvetica,sans-Serif" font-size="10.00">MapperNode::odometryCallback</text>
</a>
</g>
</g>
<!-- Node21&#45;&gt;Node22 -->
<g id="edge25_Node000021_Node000022" class="edge">
<title>Node21&#45;&gt;Node22</title>
<g id="a_edge25_Node000021_Node000022"><a xlink:title=" ">
<path fill="none" stroke="#63b8ff" d="M467.37,-392.38C463.13,-390.71 458.97,-388.91 455,-387 415.88,-368.17 375.59,-338.01 350.68,-317.86"/>
<polygon fill="#63b8ff" stroke="#63b8ff" points="466.17,-395.67 476.76,-395.87 468.6,-389.11 466.17,-395.67"/>
</a>
</g>
</g>
<!-- Node22&#45;&gt;Node4 -->
<g id="edge26_Node000022_Node000004" class="edge">
<title>Node22&#45;&gt;Node4</title>
<g id="a_edge26_Node000022_Node000004"><a xlink:title=" ">
<path fill="none" stroke="#63b8ff" d="M289.2,-270.15C244,-235.27 166.05,-175.13 125.22,-143.62"/>
<polygon fill="#63b8ff" stroke="#63b8ff" points="287.19,-273.02 297.25,-276.36 291.47,-267.48 287.19,-273.02"/>
</a>
</g>
</g>
</g>
</svg>

<g id="navigator" transform="translate(0 0)" fill="#404254">
  <rect fill="#f2f5e9" fill-opacity="0.5" stroke="#606060" stroke-width=".5" x="0" y="0" width="60" height="60"/>
  <use id="zoomplus" xlink:href="#zoomPlus" x="17" y="9" onmousedown="handleZoom(evt,'in')"/>
  <use id="zoomminus" xlink:href="#zoomMin" x="42" y="9" onmousedown="handleZoom(evt,'out')"/>
  <use id="reset" xlink:href="#resetDef" x="30" y="36" onmousedown="handleReset()"/>
   <use id="arrowup" xlink:href="#arrowUp" x="0" y="0" onmousedown="handlePan(0,-1)"/>
  <use id="arrowright" xlink:href="#arrowRight" x="0" y="0" onmousedown="handlePan(1,0)"/>
  <use id="arrowdown" xlink:href="#arrowDown" x="0" y="0" onmousedown="handlePan(0,1)"/>
  <use id="arrowleft" xlink:href="#arrowLeft" x="0" y="0" onmousedown="handlePan(-1,0)"/>
</g>
<svg viewBox="0 0 15 15" width="100%" height="30px" preserveAspectRatio="xMaxYMin meet">
 <g id="arrow_out" transform="scale(0.3 0.3)">
  <a xlink:href="classiii__drone_1_1utils_1_1Timestamp_a373bc0de94c27153e2372c30f0eedbb1_icgraph_org.svg" target="_base">
   <rect id="button" ry="5" rx="5" y="6" x="6" height="38" width="38"
        fill="#f2f5e9" fill-opacity="0.5" stroke="#606060" stroke-width="1.0"/>
   <path id="arrow"
     d="M 11.500037,31.436501 C 11.940474,20.09759 22.043105,11.32322 32.158766,21.979434 L 37.068811,17.246167 C 37.068811,17.246167 37.088388,32 37.088388,32 L 22.160133,31.978069 C 22.160133,31.978069 26.997745,27.140456 26.997745,27.140456 C 18.528582,18.264221 13.291696,25.230495 11.500037,31.436501 z"
     style="fill:#404040;"/>
  </a>
 </g>
</svg>

<style type='text/css'>
<![CDATA[
[data-mouse-over-selected='false'] { opacity: 0.7; }
[data-mouse-over-selected='true']  { opacity: 1.0; }
]]>
</style>
<script type="application/ecmascript"><![CDATA[
document.addEventListener('DOMContentLoaded', (event) => {
  highlightEdges();
  highlightAdjacentNodes();
});
]]></script>
</svg>
