<?xml version="1.0" encoding="UTF-8" standalone="no"?>
<!DOCTYPE svg PUBLIC "-//W3C//DTD SVG 1.1//EN"
 "http://www.w3.org/Graphics/SVG/1.1/DTD/svg11.dtd">
<!-- Generated by graphviz version 2.43.0 (0)
 -->
<!-- Title: iii_drone::perception::Powerline::projection_plane Pages: 1 -->
<svg width="983pt" height="104pt"
 viewBox="0.00 0.00 983.00 104.00" xmlns="http://www.w3.org/2000/svg" xmlns:xlink="http://www.w3.org/1999/xlink">
<g id="graph0" class="graph" transform="scale(1 1) rotate(0) translate(4 100)">
<title>iii_drone::perception::Powerline::projection_plane</title>
<!-- Node1 -->
<g id="Node000001" class="node">
<title>Node1</title>
<g id="a_Node000001"><a xlink:title="Returns the powerline projection plane.">
<polygon fill="#999999" stroke="#666666" points="975,-63 817,-63 817,-33 975,-33 975,-63"/>
<text text-anchor="start" x="825" y="-51" font-family="Helvetica,sans-Serif" font-size="10.00">iii_drone::perception</text>
<text text-anchor="middle" x="896" y="-40" font-family="Helvetica,sans-Serif" font-size="10.00">::Powerline::projection_plane</text>
</a>
</g>
</g>
<!-- Node2 -->
<g id="Node000002" class="node">
<title>Node2</title>
<g id="a_Node000002"><a xlink:href="classiii__drone_1_1perception_1_1Powerline.html#abb9d44570c4decb7fc26620eb2ceb38d" target="_top" xlink:title="Runs the Kalman Filter predict step for all lines.">
<polygon fill="white" stroke="#666666" points="781,-96 645,-96 645,-66 781,-66 781,-96"/>
<text text-anchor="start" x="653" y="-84" font-family="Helvetica,sans-Serif" font-size="10.00">iii_drone::perception</text>
<text text-anchor="middle" x="713" y="-73" font-family="Helvetica,sans-Serif" font-size="10.00">::Powerline::predictLines</text>
</a>
</g>
</g>
<!-- Node1&#45;&gt;Node2 -->
<g id="edge1_Node000001_Node000002" class="edge">
<title>Node1&#45;&gt;Node2</title>
<g id="a_edge1_Node000001_Node000002"><a xlink:title=" ">
<path fill="none" stroke="#63b8ff" d="M807.07,-64.03C798.31,-65.63 789.51,-67.23 781.02,-68.78"/>
<polygon fill="#63b8ff" stroke="#63b8ff" points="807.72,-67.47 816.93,-62.23 806.46,-60.58 807.72,-67.47"/>
</a>
</g>
</g>
<!-- Node6 -->
<g id="Node000006" class="node">
<title>Node6</title>
<g id="a_Node000006"><a xlink:href="classiii__drone_1_1perception_1_1Powerline.html#a8b6f551b8e2df3466930add4b875fefd" target="_top" xlink:title="Converts to a PowerlineAdapter.">
<polygon fill="white" stroke="#666666" points="775.5,-30 650.5,-30 650.5,0 775.5,0 775.5,-30"/>
<text text-anchor="start" x="658.5" y="-18" font-family="Helvetica,sans-Serif" font-size="10.00">iii_drone::perception</text>
<text text-anchor="middle" x="713" y="-7" font-family="Helvetica,sans-Serif" font-size="10.00">::Powerline::ToAdapter</text>
</a>
</g>
</g>
<!-- Node1&#45;&gt;Node6 -->
<g id="edge5_Node000001_Node000006" class="edge">
<title>Node1&#45;&gt;Node6</title>
<g id="a_edge5_Node000001_Node000006"><a xlink:title=" ">
<path fill="none" stroke="#63b8ff" d="M806.87,-31.93C796.34,-30.01 785.77,-28.09 775.73,-26.25"/>
<polygon fill="#63b8ff" stroke="#63b8ff" points="806.46,-35.42 816.93,-33.77 807.72,-28.53 806.46,-35.42"/>
</a>
</g>
</g>
<!-- Node3 -->
<g id="Node000003" class="node">
<title>Node3</title>
<g id="a_Node000003"><a xlink:href="classiii__drone_1_1perception_1_1Powerline.html#ae0f6a983c3039c6a41bda6258ec2b70d" target="_top" xlink:title="Updates the powerline from odometry.">
<polygon fill="white" stroke="#666666" points="605.5,-93 444.5,-93 444.5,-63 605.5,-63 605.5,-93"/>
<text text-anchor="start" x="452.5" y="-81" font-family="Helvetica,sans-Serif" font-size="10.00">iii_drone::perception</text>
<text text-anchor="middle" x="525" y="-70" font-family="Helvetica,sans-Serif" font-size="10.00">::Powerline::UpdateOdometry</text>
</a>
</g>
</g>
<!-- Node2&#45;&gt;Node3 -->
<g id="edge2_Node000002_Node000003" class="edge">
<title>Node2&#45;&gt;Node3</title>
<g id="a_edge2_Node000002_Node000003"><a xlink:title=" ">
<path fill="none" stroke="#63b8ff" d="M634.61,-79.75C625.06,-79.6 615.3,-79.44 605.72,-79.29"/>
<polygon fill="#63b8ff" stroke="#63b8ff" points="634.79,-83.26 644.85,-79.92 634.91,-76.26 634.79,-83.26"/>
</a>
</g>
</g>
<!-- Node4 -->
<g id="Node000004" class="node">
<title>Node4</title>
<g id="a_Node000004"><a xlink:href="classiii__drone_1_1perception_1_1pl__mapper__node_1_1PowerlineMapperNode.html#ae98c3a40fb32f1305c1528467205ba33" target="_top" xlink:title="Callback for fetching drone transform.">
<polygon fill="white" stroke="#666666" points="405,-68.5 231,-68.5 231,-27.5 405,-27.5 405,-68.5"/>
<text text-anchor="start" x="239" y="-56.5" font-family="Helvetica,sans-Serif" font-size="10.00">iii_drone::perception</text>
<text text-anchor="start" x="239" y="-45.5" font-family="Helvetica,sans-Serif" font-size="10.00">::pl_mapper_node::Powerline</text>
<text text-anchor="middle" x="318" y="-34.5" font-family="Helvetica,sans-Serif" font-size="10.00">MapperNode::odometryCallback</text>
</a>
</g>
</g>
<!-- Node3&#45;&gt;Node4 -->
<g id="edge3_Node000003_Node000004" class="edge">
<title>Node3&#45;&gt;Node4</title>
<g id="a_edge3_Node000003_Node000004"><a xlink:title=" ">
<path fill="none" stroke="#63b8ff" d="M434.44,-64.89C424.77,-63.48 414.94,-62.04 405.3,-60.63"/>
<polygon fill="#63b8ff" stroke="#63b8ff" points="434.05,-68.37 444.45,-66.36 435.06,-61.45 434.05,-68.37"/>
</a>
</g>
</g>
<!-- Node5 -->
<g id="Node000005" class="node">
<title>Node5</title>
<g id="a_Node000005"><a xlink:href="classiii__drone_1_1perception_1_1pl__mapper__node_1_1PowerlineMapperNode.html#a703ae72ba683ae11154ce597b8bbad9d" target="_top" xlink:title="Constructor.">
<polygon fill="white" stroke="#666666" points="195,-68.5 0,-68.5 0,-27.5 195,-27.5 195,-68.5"/>
<text text-anchor="start" x="8" y="-56.5" font-family="Helvetica,sans-Serif" font-size="10.00">iii_drone::perception</text>
<text text-anchor="start" x="8" y="-45.5" font-family="Helvetica,sans-Serif" font-size="10.00">::pl_mapper_node::Powerline</text>
<text text-anchor="middle" x="97.5" y="-34.5" font-family="Helvetica,sans-Serif" font-size="10.00">MapperNode::PowerlineMapperNode</text>
</a>
</g>
</g>
<!-- Node4&#45;&gt;Node5 -->
<g id="edge4_Node000004_Node000005" class="edge">
<title>Node4&#45;&gt;Node5</title>
<g id="a_edge4_Node000004_Node000005"><a xlink:title=" ">
<path fill="none" stroke="#63b8ff" d="M220.73,-48C212.29,-48 203.74,-48 195.3,-48"/>
<polygon fill="#63b8ff" stroke="#63b8ff" points="220.96,-51.5 230.96,-48 220.96,-44.5 220.96,-51.5"/>
</a>
</g>
</g>
<!-- Node6&#45;&gt;Node6 -->
<g id="edge8_Node000006_Node000006" class="edge">
<title>Node6&#45;&gt;Node6</title>
<g id="a_edge8_Node000006_Node000006"><a xlink:title=" ">
<path fill="none" stroke="#63b8ff" d="M744.86,-40.6C740.5,-44.97 729.88,-48 713,-48 684.56,-48 673.9,-39.41 681.01,-30.28"/>
<polygon fill="#63b8ff" stroke="#63b8ff" points="748.36,-40.32 744.99,-30.28 741.36,-40.23 748.36,-40.32"/>
</a>
</g>
</g>
<!-- Node7 -->
<g id="Node000007" class="node">
<title>Node7</title>
<g id="a_Node000007"><a xlink:href="classiii__drone_1_1perception_1_1pl__mapper__node_1_1PowerlineMapperNode.html#ae63deed15fc864af363d4a3b3ef76ae1" target="_top" xlink:title="Publishes the powerline message.">
<polygon fill="white" stroke="#666666" points="609,-41.5 441,-41.5 441,-0.5 609,-0.5 609,-41.5"/>
<text text-anchor="start" x="449" y="-29.5" font-family="Helvetica,sans-Serif" font-size="10.00">iii_drone::perception</text>
<text text-anchor="start" x="449" y="-18.5" font-family="Helvetica,sans-Serif" font-size="10.00">::pl_mapper_node::Powerline</text>
<text text-anchor="middle" x="525" y="-7.5" font-family="Helvetica,sans-Serif" font-size="10.00">MapperNode::publishPowerline</text>
</a>
</g>
</g>
<!-- Node6&#45;&gt;Node7 -->
<g id="edge6_Node000006_Node000007" class="edge">
<title>Node6&#45;&gt;Node7</title>
<g id="a_edge6_Node000006_Node000007"><a xlink:title=" ">
<path fill="none" stroke="#63b8ff" d="M640.25,-17.31C630.04,-17.64 619.46,-17.99 609.05,-18.32"/>
<polygon fill="#63b8ff" stroke="#63b8ff" points="640.44,-20.81 650.32,-16.99 640.22,-13.81 640.44,-20.81"/>
</a>
</g>
</g>
<!-- Node7&#45;&gt;Node4 -->
<g id="edge7_Node000007_Node000004" class="edge">
<title>Node7&#45;&gt;Node4</title>
<g id="a_edge7_Node000007_Node000004"><a xlink:title=" ">
<path fill="none" stroke="#63b8ff" d="M430.92,-33.26C422.36,-34.39 413.71,-35.53 405.21,-36.65"/>
<polygon fill="#63b8ff" stroke="#63b8ff" points="431.46,-36.72 440.91,-31.94 430.54,-29.78 431.46,-36.72"/>
</a>
</g>
</g>
</g>
</svg>
