<?xml version="1.0" encoding="UTF-8" standalone="no"?>
<!DOCTYPE svg PUBLIC "-//W3C//DTD SVG 1.1//EN"
 "http://www.w3.org/Graphics/SVG/1.1/DTD/svg11.dtd">
<!-- Generated by graphviz version 2.43.0 (0)
 -->
<!-- Title: iii_drone::control::maneuver::ManeuverQueue::Find Pages: 1 -->
<svg width="1035pt" height="79pt"
 viewBox="0.00 0.00 1035.00 78.50" xmlns="http://www.w3.org/2000/svg" xmlns:xlink="http://www.w3.org/1999/xlink">
<g id="graph0" class="graph" transform="scale(1 1) rotate(0) translate(4 74.5)">
<title>iii_drone::control::maneuver::ManeuverQueue::Find</title>
<!-- Node1 -->
<g id="Node000001" class="node">
<title>Node1</title>
<g id="a_Node000001"><a xlink:title="Finds a maneuver from UUID.">
<polygon fill="#999999" stroke="#666666" points="1027,-59.5 842,-59.5 842,-29.5 1027,-29.5 1027,-59.5"/>
<text text-anchor="start" x="850" y="-47.5" font-family="Helvetica,sans-Serif" font-size="10.00">iii_drone::control</text>
<text text-anchor="middle" x="934.5" y="-36.5" font-family="Helvetica,sans-Serif" font-size="10.00">::maneuver::ManeuverQueue::Find</text>
</a>
</g>
</g>
<!-- Node2 -->
<g id="Node000002" class="node">
<title>Node2</title>
<g id="a_Node000002"><a xlink:href="classiii__drone_1_1control_1_1maneuver_1_1ManeuverScheduler.html#ab393b4204a5c4368ee503e9af8b27a22" target="_top" xlink:title="Registers a maneuver type with a maneuver server.">
<polygon fill="white" stroke="#666666" points="595,-65 420,-65 420,-24 595,-24 595,-65"/>
<text text-anchor="start" x="428" y="-53" font-family="Helvetica,sans-Serif" font-size="10.00">iii_drone::control</text>
<text text-anchor="start" x="428" y="-42" font-family="Helvetica,sans-Serif" font-size="10.00">::maneuver::ManeuverScheduler</text>
<text text-anchor="middle" x="507.5" y="-31" font-family="Helvetica,sans-Serif" font-size="10.00">::RegisterManeuverServer</text>
</a>
</g>
</g>
<!-- Node1&#45;&gt;Node2 -->
<g id="edge1_Node000001_Node000002" class="edge">
<title>Node1&#45;&gt;Node2</title>
<g id="a_edge1_Node000001_Node000002"><a xlink:title=" ">
<path fill="none" stroke="#63b8ff" d="M831.72,-49.72C823.02,-50.03 814.36,-50.3 806,-50.5 728.24,-52.33 708.75,-52.4 631,-50.5 619.4,-50.22 607.19,-49.78 595.15,-49.27"/>
<polygon fill="#63b8ff" stroke="#63b8ff" points="832.08,-53.21 841.94,-49.33 831.81,-46.21 832.08,-53.21"/>
</a>
</g>
</g>
<!-- Node5 -->
<g id="Node000005" class="node">
<title>Node5</title>
<g id="a_Node000005"><a xlink:href="classiii__drone_1_1control_1_1maneuver_1_1ManeuverScheduler.html#a0c01b257aa516fb896fdc59e91304540" target="_top" xlink:title="Updates a maneuver entry which has been registered with the correct goal handle after the maneuver ha...">
<polygon fill="white" stroke="#666666" points="806,-41 631,-41 631,0 806,0 806,-41"/>
<text text-anchor="start" x="639" y="-29" font-family="Helvetica,sans-Serif" font-size="10.00">iii_drone::control</text>
<text text-anchor="start" x="639" y="-18" font-family="Helvetica,sans-Serif" font-size="10.00">::maneuver::ManeuverScheduler</text>
<text text-anchor="middle" x="718.5" y="-7" font-family="Helvetica,sans-Serif" font-size="10.00">::UpdateManeuver</text>
</a>
</g>
</g>
<!-- Node1&#45;&gt;Node5 -->
<g id="edge4_Node000001_Node000005" class="edge">
<title>Node1&#45;&gt;Node5</title>
<g id="a_edge4_Node000001_Node000005"><a xlink:title=" ">
<path fill="none" stroke="#63b8ff" d="M831.81,-33.1C823.26,-32.14 814.67,-31.17 806.25,-30.23"/>
<polygon fill="#63b8ff" stroke="#63b8ff" points="831.49,-36.58 841.81,-34.22 832.27,-29.62 831.49,-36.58"/>
</a>
</g>
</g>
<!-- Node3 -->
<g id="Node000003" class="node">
<title>Node3</title>
<g id="a_Node000003"><a xlink:href="classiii__drone_1_1control_1_1maneuver__controller__node_1_1ManeuverControllerNode.html#a1c587895df3c61bd6b748e97942cd619" target="_top" xlink:title="Creates and registers all maneuver servers with the maneuver scheduler.">
<polygon fill="white" stroke="#666666" points="384,-70.5 210,-70.5 210,-18.5 384,-18.5 384,-70.5"/>
<text text-anchor="start" x="218" y="-58.5" font-family="Helvetica,sans-Serif" font-size="10.00">iii_drone::control</text>
<text text-anchor="start" x="218" y="-47.5" font-family="Helvetica,sans-Serif" font-size="10.00">::maneuver_controller</text>
<text text-anchor="start" x="218" y="-36.5" font-family="Helvetica,sans-Serif" font-size="10.00">_node::ManeuverControllerNode</text>
<text text-anchor="middle" x="297" y="-25.5" font-family="Helvetica,sans-Serif" font-size="10.00">::registerManeuverServers</text>
</a>
</g>
</g>
<!-- Node2&#45;&gt;Node3 -->
<g id="edge2_Node000002_Node000003" class="edge">
<title>Node2&#45;&gt;Node3</title>
<g id="a_edge2_Node000002_Node000003"><a xlink:title=" ">
<path fill="none" stroke="#63b8ff" d="M409.82,-44.5C401.21,-44.5 392.52,-44.5 384.01,-44.5"/>
<polygon fill="#63b8ff" stroke="#63b8ff" points="409.89,-48 419.89,-44.5 409.89,-41 409.89,-48"/>
</a>
</g>
</g>
<!-- Node4 -->
<g id="Node000004" class="node">
<title>Node4</title>
<g id="a_Node000004"><a xlink:href="classiii__drone_1_1control_1_1maneuver__controller__node_1_1ManeuverControllerNode.html#a291f0abf320443ed6ad4a248ba028b8c" target="_top" xlink:title="Constructor. Creates the node, initializes the configurator, the transform buffer and listener,...">
<polygon fill="white" stroke="#666666" points="174,-70.5 0,-70.5 0,-18.5 174,-18.5 174,-70.5"/>
<text text-anchor="start" x="8" y="-58.5" font-family="Helvetica,sans-Serif" font-size="10.00">iii_drone::control</text>
<text text-anchor="start" x="8" y="-47.5" font-family="Helvetica,sans-Serif" font-size="10.00">::maneuver_controller</text>
<text text-anchor="start" x="8" y="-36.5" font-family="Helvetica,sans-Serif" font-size="10.00">_node::ManeuverControllerNode</text>
<text text-anchor="middle" x="87" y="-25.5" font-family="Helvetica,sans-Serif" font-size="10.00">::ManeuverControllerNode</text>
</a>
</g>
</g>
<!-- Node3&#45;&gt;Node4 -->
<g id="edge3_Node000003_Node000004" class="edge">
<title>Node3&#45;&gt;Node4</title>
<g id="a_edge3_Node000003_Node000004"><a xlink:title=" ">
<path fill="none" stroke="#63b8ff" d="M199.84,-44.5C191.23,-44.5 182.55,-44.5 174.04,-44.5"/>
<polygon fill="#63b8ff" stroke="#63b8ff" points="199.9,-48 209.9,-44.5 199.9,-41 199.9,-48"/>
</a>
</g>
</g>
<!-- Node5&#45;&gt;Node2 -->
<g id="edge5_Node000005_Node000002" class="edge">
<title>Node5&#45;&gt;Node2</title>
<g id="a_edge5_Node000005_Node000002"><a xlink:title=" ">
<path fill="none" stroke="#63b8ff" d="M620.97,-31.58C612.41,-32.57 603.77,-33.56 595.29,-34.53"/>
<polygon fill="#63b8ff" stroke="#63b8ff" points="621.45,-35.05 630.98,-30.43 620.65,-28.1 621.45,-35.05"/>
</a>
</g>
</g>
</g>
</svg>
