<?xml version="1.0" encoding="UTF-8" standalone="no"?>
<!DOCTYPE svg PUBLIC "-//W3C//DTD SVG 1.1//EN"
 "http://www.w3.org/Graphics/SVG/1.1/DTD/svg11.dtd">
<!-- Generated by graphviz version 2.43.0 (0)
 -->
<!-- Title: iii_drone::control::maneuver_controller_node::ManeuverControllerNodeConfigurator::declareNodeParameters Pages: 1 -->
<svg width="423pt" height="116pt"
 viewBox="0.00 0.00 423.00 115.50" xmlns="http://www.w3.org/2000/svg" xmlns:xlink="http://www.w3.org/1999/xlink">
<g id="graph0" class="graph" transform="scale(1 1) rotate(0) translate(4 111.5)">
<title>iii_drone::control::maneuver_controller_node::ManeuverControllerNodeConfigurator::declareNodeParameters</title>
<!-- Node1 -->
<g id="Node000001" class="node">
<title>Node1</title>
<g id="a_Node000001"><a xlink:title="Declares the node specific parameters.">
<polygon fill="#999999" stroke="#666666" points="200,-82.5 0,-82.5 0,-30.5 200,-30.5 200,-82.5"/>
<text text-anchor="start" x="8" y="-70.5" font-family="Helvetica,sans-Serif" font-size="10.00">iii_drone::control</text>
<text text-anchor="start" x="8" y="-59.5" font-family="Helvetica,sans-Serif" font-size="10.00">::maneuver_controller</text>
<text text-anchor="start" x="8" y="-48.5" font-family="Helvetica,sans-Serif" font-size="10.00">_node::ManeuverControllerNode</text>
<text text-anchor="middle" x="100" y="-37.5" font-family="Helvetica,sans-Serif" font-size="10.00">Configurator::declareNodeParameters</text>
</a>
</g>
</g>
<!-- Node2 -->
<g id="Node000002" class="node">
<title>Node2</title>
<g id="a_Node000002"><a xlink:href="configurator_8cpp.html#a4249c2018a72e5ed93ef4d0ef6b9d25f" target="_top" xlink:title=" ">
<polygon fill="white" stroke="#666666" points="391,-107.5 260,-107.5 260,-77.5 391,-77.5 391,-107.5"/>
<text text-anchor="start" x="268" y="-95.5" font-family="Helvetica,sans-Serif" font-size="10.00">DeclareParameter&lt; std</text>
<text text-anchor="middle" x="325.5" y="-84.5" font-family="Helvetica,sans-Serif" font-size="10.00">::string &gt;</text>
</a>
</g>
</g>
<!-- Node1&#45;&gt;Node2 -->
<g id="edge1_Node000001_Node000002" class="edge">
<title>Node1&#45;&gt;Node2</title>
<g id="a_edge1_Node000001_Node000002"><a xlink:title=" ">
<path fill="none" stroke="#63b8ff" d="M200.01,-72.45C216.67,-75.13 233.72,-77.88 249.64,-80.44"/>
<polygon fill="#63b8ff" stroke="#63b8ff" points="249.5,-83.96 259.93,-82.1 250.61,-77.05 249.5,-83.96"/>
</a>
</g>
</g>
<!-- Node3 -->
<g id="Node000003" class="node">
<title>Node3</title>
<g id="a_Node000003"><a xlink:href="classiii__drone_1_1configuration_1_1Configurator.html#ac5360ab6b4f31277c7d73b5579815353" target="_top" xlink:title="Static function for getting string representation of a parameter type from template type.">
<polygon fill="white" stroke="#666666" points="415,-41 236,-41 236,0 415,0 415,-41"/>
<text text-anchor="start" x="244" y="-29" font-family="Helvetica,sans-Serif" font-size="10.00">iii_drone::configuration</text>
<text text-anchor="start" x="244" y="-18" font-family="Helvetica,sans-Serif" font-size="10.00">::Configurator::GetParameterType</text>
<text text-anchor="middle" x="325.5" y="-7" font-family="Helvetica,sans-Serif" font-size="10.00">String</text>
</a>
</g>
</g>
<!-- Node1&#45;&gt;Node3 -->
<g id="edge2_Node000001_Node000003" class="edge">
<title>Node1&#45;&gt;Node3</title>
<g id="a_edge2_Node000001_Node000003"><a xlink:title=" ">
<path fill="none" stroke="#63b8ff" d="M200.01,-40.55C208.57,-39.17 217.23,-37.78 225.79,-36.4"/>
<polygon fill="#63b8ff" stroke="#63b8ff" points="226.46,-39.84 235.77,-34.79 225.34,-32.93 226.46,-39.84"/>
</a>
</g>
</g>
<!-- Node3&#45;&gt;Node3 -->
<g id="edge3_Node000003_Node000003" class="edge">
<title>Node3&#45;&gt;Node3</title>
<g id="a_edge3_Node000003_Node000003"><a xlink:title=" ">
<path fill="none" stroke="#63b8ff" d="M284.33,-41.1C279.84,-50.65 293.56,-59 325.5,-59 345.46,-59 358.31,-55.74 364.04,-50.96"/>
<polygon fill="#63b8ff" stroke="#63b8ff" points="367.47,-51.66 366.67,-41.1 360.71,-49.86 367.47,-51.66"/>
</a>
</g>
</g>
</g>
</svg>
