<?xml version="1.0" encoding="UTF-8" standalone="no"?>
<!DOCTYPE svg PUBLIC "-//W3C//DTD SVG 1.1//EN"
 "http://www.w3.org/Graphics/SVG/1.1/DTD/svg11.dtd">
<!-- Generated by graphviz version 2.43.0 (0)
 -->
<!-- Title: iii_drone::perception::SingleLine::SingleLine Pages: 1 -->
<svg width="339pt" height="264pt"
 viewBox="0.00 0.00 339.00 264.00" xmlns="http://www.w3.org/2000/svg" xmlns:xlink="http://www.w3.org/1999/xlink">

<svg id="main" version="1.1" xmlns="http://www.w3.org/2000/svg" xmlns:xlink="http://www.w3.org/1999/xlink" xml:space="preserve" onload="init(evt)">
<style type="text/css"><![CDATA[
.node, .edge {opacity: 0.7;}
.node.selected, .edge.selected {opacity: 1;}
.edge:hover path { stroke: red; }
.edge:hover polygon { stroke: red; fill: red; }
]]></style>
<script type="application/ecmascript" xlink:href="svg.min.js"/>
<svg id="graph" class="graph">
<g id="graph0" class="graph" transform="scale(1 1) rotate(0) translate(4 260)">
<title>iii_drone::perception::SingleLine::SingleLine</title>
<!-- Node1 -->
<g id="Node000001" class="node">
<title>Node1</title>
<g id="a_Node000001"><a xlink:title="Constructor from SingleLineAdapter.">
<polygon fill="#999999" stroke="#666666" points="129,-143 0,-143 0,-113 129,-113 129,-143"/>
<text text-anchor="start" x="8" y="-131" font-family="Helvetica,sans-Serif" font-size="10.00">iii_drone::perception</text>
<text text-anchor="middle" x="64.5" y="-120" font-family="Helvetica,sans-Serif" font-size="10.00">::SingleLine::SingleLine</text>
</a>
</g>
</g>
<!-- Node2 -->
<g id="Node000002" class="node">
<title>Node2</title>
<g id="a_Node000002"><a xlink:href="classiii__drone_1_1adapters_1_1SingleLineAdapter.html#a094ffe670b1d879fa9bd9012255a6173" target="_top" xlink:title="Id getter.">
<polygon fill="white" stroke="#666666" points="311,-256 185,-256 185,-226 311,-226 311,-256"/>
<text text-anchor="start" x="193" y="-244" font-family="Helvetica,sans-Serif" font-size="10.00">iii_drone::adapters</text>
<text text-anchor="middle" x="248" y="-233" font-family="Helvetica,sans-Serif" font-size="10.00">::SingleLineAdapter::id</text>
</a>
</g>
</g>
<!-- Node1&#45;&gt;Node2 -->
<g id="edge1_Node000001_Node000002" class="edge">
<title>Node1&#45;&gt;Node2</title>
<g id="a_edge1_Node000001_Node000002"><a xlink:title=" ">
<path fill="none" stroke="#63b8ff" d="M78.43,-143.17C96.07,-162.94 129.55,-197.3 165,-217 168.4,-218.89 171.97,-220.65 175.63,-222.28"/>
<polygon fill="#63b8ff" stroke="#63b8ff" points="174.31,-225.52 184.89,-226.06 176.96,-219.04 174.31,-225.52"/>
</a>
</g>
</g>
<!-- Node3 -->
<g id="Node000003" class="node">
<title>Node3</title>
<g id="a_Node000003"><a xlink:href="classiii__drone_1_1adapters_1_1SingleLineAdapter.html#aee7b33b95f9bc339fd4f02709ce9033c" target="_top" xlink:title="position getter.">
<polygon fill="white" stroke="#666666" points="303.5,-207.5 192.5,-207.5 192.5,-166.5 303.5,-166.5 303.5,-207.5"/>
<text text-anchor="start" x="200.5" y="-195.5" font-family="Helvetica,sans-Serif" font-size="10.00">iii_drone::adapters</text>
<text text-anchor="start" x="200.5" y="-184.5" font-family="Helvetica,sans-Serif" font-size="10.00">::SingleLineAdapter</text>
<text text-anchor="middle" x="248" y="-173.5" font-family="Helvetica,sans-Serif" font-size="10.00">::position</text>
</a>
</g>
</g>
<!-- Node1&#45;&gt;Node3 -->
<g id="edge2_Node000001_Node000003" class="edge">
<title>Node1&#45;&gt;Node3</title>
<g id="a_edge2_Node000001_Node000003"><a xlink:title=" ">
<path fill="none" stroke="#63b8ff" d="M111.77,-143.04C133.37,-150.06 159.44,-158.54 182.9,-166.16"/>
<polygon fill="#63b8ff" stroke="#63b8ff" points="181.83,-169.5 192.43,-169.26 184,-162.84 181.83,-169.5"/>
</a>
</g>
</g>
<!-- Node4 -->
<g id="Node000004" class="node">
<title>Node4</title>
<g id="a_Node000004"><a xlink:href="classiii__drone_1_1adapters_1_1SingleLineAdapter.html#a23cee2565e8322262133adf8bb71e29e" target="_top" xlink:title="Projected position getter.">
<polygon fill="white" stroke="#666666" points="304.5,-148.5 191.5,-148.5 191.5,-107.5 304.5,-107.5 304.5,-148.5"/>
<text text-anchor="start" x="199.5" y="-136.5" font-family="Helvetica,sans-Serif" font-size="10.00">iii_drone::adapters</text>
<text text-anchor="start" x="199.5" y="-125.5" font-family="Helvetica,sans-Serif" font-size="10.00">::SingleLineAdapter</text>
<text text-anchor="middle" x="248" y="-114.5" font-family="Helvetica,sans-Serif" font-size="10.00">::projected_position</text>
</a>
</g>
</g>
<!-- Node1&#45;&gt;Node4 -->
<g id="edge3_Node000001_Node000004" class="edge">
<title>Node1&#45;&gt;Node4</title>
<g id="a_edge3_Node000001_Node000004"><a xlink:title=" ">
<path fill="none" stroke="#63b8ff" d="M129.23,-128C145.98,-128 164.08,-128 180.95,-128"/>
<polygon fill="#63b8ff" stroke="#63b8ff" points="181.27,-131.5 191.27,-128 181.27,-124.5 181.27,-131.5"/>
</a>
</g>
</g>
<!-- Node5 -->
<g id="Node000005" class="node">
<title>Node5</title>
<g id="a_Node000005"><a xlink:href="classiii__drone_1_1adapters_1_1SingleLineAdapter.html#afd88bc8f611f1c64105958f1abff6df5" target="_top" xlink:title="Quaternion getter.">
<polygon fill="white" stroke="#666666" points="303.5,-89.5 192.5,-89.5 192.5,-48.5 303.5,-48.5 303.5,-89.5"/>
<text text-anchor="start" x="200.5" y="-77.5" font-family="Helvetica,sans-Serif" font-size="10.00">iii_drone::adapters</text>
<text text-anchor="start" x="200.5" y="-66.5" font-family="Helvetica,sans-Serif" font-size="10.00">::SingleLineAdapter</text>
<text text-anchor="middle" x="248" y="-55.5" font-family="Helvetica,sans-Serif" font-size="10.00">::quaternion</text>
</a>
</g>
</g>
<!-- Node1&#45;&gt;Node5 -->
<g id="edge4_Node000001_Node000005" class="edge">
<title>Node1&#45;&gt;Node5</title>
<g id="a_edge4_Node000001_Node000005"><a xlink:title=" ">
<path fill="none" stroke="#63b8ff" d="M111.77,-112.96C133.37,-105.94 159.44,-97.46 182.9,-89.84"/>
<polygon fill="#63b8ff" stroke="#63b8ff" points="184,-93.16 192.43,-86.74 181.83,-86.5 184,-93.16"/>
</a>
</g>
</g>
<!-- Node6 -->
<g id="Node000006" class="node">
<title>Node6</title>
<g id="a_Node000006"><a xlink:href="classiii__drone_1_1perception_1_1SingleLine.html#a5d1eacaca3e2b1b0361ac5d4844e6d1d" target="_top" xlink:title="Resets the Kalman Filter estimates.">
<polygon fill="white" stroke="#666666" points="331,-30 165,-30 165,0 331,0 331,-30"/>
<text text-anchor="start" x="173" y="-18" font-family="Helvetica,sans-Serif" font-size="10.00">iii_drone::perception</text>
<text text-anchor="middle" x="248" y="-7" font-family="Helvetica,sans-Serif" font-size="10.00">::SingleLine::resetKalmanFilter</text>
</a>
</g>
</g>
<!-- Node1&#45;&gt;Node6 -->
<g id="edge5_Node000001_Node000006" class="edge">
<title>Node1&#45;&gt;Node6</title>
<g id="a_edge5_Node000001_Node000006"><a xlink:title=" ">
<path fill="none" stroke="#63b8ff" d="M78.81,-112.73C96.6,-93.2 129.98,-59.59 165,-40 168.9,-37.82 173.02,-35.8 177.25,-33.94"/>
<polygon fill="#63b8ff" stroke="#63b8ff" points="178.7,-37.13 186.64,-30.13 176.06,-30.65 178.7,-37.13"/>
</a>
</g>
</g>
</g>
</svg>
</svg>

<style type='text/css'>
<![CDATA[
[data-mouse-over-selected='false'] { opacity: 0.7; }
[data-mouse-over-selected='true']  { opacity: 1.0; }
]]>
</style>
<script type="application/ecmascript"><![CDATA[
document.addEventListener('DOMContentLoaded', (event) => {
  highlightEdges();
  highlightAdjacentNodes();
});
]]></script>
</svg>
