<?xml version="1.0" encoding="UTF-8" standalone="no"?>
<!DOCTYPE svg PUBLIC "-//W3C//DTD SVG 1.1//EN"
 "http://www.w3.org/Graphics/SVG/1.1/DTD/svg11.dtd">
<!-- Generated by graphviz version 2.43.0 (0)
 -->
<!-- Title: iii_drone::adapters::TargetAdapter::TargetAdapter Pages: 1 -->
<svg width="720pt" height="124pt"
 viewBox="0.00 0.00 720.00 124.00" xmlns="http://www.w3.org/2000/svg" xmlns:xlink="http://www.w3.org/1999/xlink">
<g id="graph0" class="graph" transform="scale(1 1) rotate(0) translate(4 120)">
<title>iii_drone::adapters::TargetAdapter::TargetAdapter</title>
<!-- Node1 -->
<g id="Node000001" class="node">
<title>Node1</title>
<g id="a_Node000001"><a xlink:title="Constructor from msg.">
<polygon fill="#999999" stroke="#666666" points="165,-73 0,-73 0,-43 165,-43 165,-73"/>
<text text-anchor="start" x="8" y="-61" font-family="Helvetica,sans-Serif" font-size="10.00">iii_drone::adapters</text>
<text text-anchor="middle" x="82.5" y="-50" font-family="Helvetica,sans-Serif" font-size="10.00">::TargetAdapter::TargetAdapter</text>
</a>
</g>
</g>
<!-- Node2 -->
<g id="Node000002" class="node">
<title>Node2</title>
<g id="a_Node000002"><a xlink:href="namespaceiii__drone_1_1types.html#a482ee774598db4f38a8b02aa1b956ac3" target="_top" xlink:title=" ">
<polygon fill="white" stroke="#666666" points="347,-73 201,-73 201,-43 347,-43 347,-73"/>
<text text-anchor="start" x="209" y="-61" font-family="Helvetica,sans-Serif" font-size="10.00">iii_drone::types::transform</text>
<text text-anchor="middle" x="274" y="-50" font-family="Helvetica,sans-Serif" font-size="10.00">MatrixFromTransformMsg</text>
</a>
</g>
</g>
<!-- Node1&#45;&gt;Node2 -->
<g id="edge1_Node000001_Node000002" class="edge">
<title>Node1&#45;&gt;Node2</title>
<g id="a_edge1_Node000001_Node000002"><a xlink:title=" ">
<path fill="none" stroke="#63b8ff" d="M165.24,-58C173.64,-58 182.19,-58 190.6,-58"/>
<polygon fill="#63b8ff" stroke="#63b8ff" points="190.77,-61.5 200.77,-58 190.77,-54.5 190.77,-61.5"/>
</a>
</g>
</g>
<!-- Node3 -->
<g id="Node000003" class="node">
<title>Node3</title>
<g id="a_Node000003"><a xlink:href="namespaceiii__drone_1_1types.html#ab684c4851f41301e938970679086de49" target="_top" xlink:title=" ">
<polygon fill="white" stroke="#666666" points="533,-116 383,-116 383,-86 533,-86 533,-116"/>
<text text-anchor="start" x="391" y="-104" font-family="Helvetica,sans-Serif" font-size="10.00">iii_drone::types::quaternion</text>
<text text-anchor="middle" x="458" y="-93" font-family="Helvetica,sans-Serif" font-size="10.00">FromQuaternionMsg</text>
</a>
</g>
</g>
<!-- Node2&#45;&gt;Node3 -->
<g id="edge2_Node000002_Node000003" class="edge">
<title>Node2&#45;&gt;Node3</title>
<g id="a_edge2_Node000002_Node000003"><a xlink:title=" ">
<path fill="none" stroke="#63b8ff" d="M338.65,-73.04C353.06,-76.44 368.48,-80.09 383.27,-83.58"/>
<polygon fill="#63b8ff" stroke="#63b8ff" points="382.84,-87.08 393.38,-85.97 384.45,-80.26 382.84,-87.08"/>
</a>
</g>
</g>
<!-- Node4 -->
<g id="Node000004" class="node">
<title>Node4</title>
<g id="a_Node000004"><a xlink:href="namespaceiii__drone_1_1math.html#af8c96a0fa3940e1034c8db8425586ba8" target="_top" xlink:title=" ">
<polygon fill="white" stroke="#666666" points="531.5,-67.5 384.5,-67.5 384.5,-48.5 531.5,-48.5 531.5,-67.5"/>
<text text-anchor="middle" x="458" y="-55.5" font-family="Helvetica,sans-Serif" font-size="10.00">iii_drone::math::quatToMat</text>
</a>
</g>
</g>
<!-- Node2&#45;&gt;Node4 -->
<g id="edge3_Node000002_Node000004" class="edge">
<title>Node2&#45;&gt;Node4</title>
<g id="a_edge3_Node000002_Node000004"><a xlink:title=" ">
<path fill="none" stroke="#63b8ff" d="M347.19,-58C356.06,-58 365.18,-58 374.19,-58"/>
<polygon fill="#63b8ff" stroke="#63b8ff" points="374.3,-61.5 384.3,-58 374.3,-54.5 374.3,-61.5"/>
</a>
</g>
</g>
<!-- Node7 -->
<g id="Node000007" class="node">
<title>Node7</title>
<g id="a_Node000007"><a xlink:href="namespaceiii__drone_1_1types.html#a42473d6c26ea6e0c7c0eeda54448907c" target="_top" xlink:title=" ">
<polygon fill="white" stroke="#666666" points="522,-30 394,-30 394,0 522,0 522,-30"/>
<text text-anchor="start" x="402" y="-18" font-family="Helvetica,sans-Serif" font-size="10.00">iii_drone::types::vector</text>
<text text-anchor="middle" x="458" y="-7" font-family="Helvetica,sans-Serif" font-size="10.00">FromVectorMsg</text>
</a>
</g>
</g>
<!-- Node2&#45;&gt;Node7 -->
<g id="edge6_Node000002_Node000007" class="edge">
<title>Node2&#45;&gt;Node7</title>
<g id="a_edge6_Node000002_Node000007"><a xlink:title=" ">
<path fill="none" stroke="#63b8ff" d="M338.65,-42.96C353.37,-39.48 369.14,-35.76 384.21,-32.2"/>
<polygon fill="#63b8ff" stroke="#63b8ff" points="385.07,-35.59 394,-29.89 383.46,-28.78 385.07,-35.59"/>
</a>
</g>
</g>
<!-- Node5 -->
<g id="Node000005" class="node">
<title>Node5</title>
<g id="a_Node000005"><a xlink:href="namespaceiii__drone_1_1math.html#a7f61d7905e9118b077f713da7e65e8df" target="_top" xlink:title=" ">
<polygon fill="white" stroke="#666666" points="710.5,-85.5 570.5,-85.5 570.5,-66.5 710.5,-66.5 710.5,-85.5"/>
<text text-anchor="middle" x="640.5" y="-73.5" font-family="Helvetica,sans-Serif" font-size="10.00">iii_drone::math::eulToMat</text>
</a>
</g>
</g>
<!-- Node4&#45;&gt;Node5 -->
<g id="edge4_Node000004_Node000005" class="edge">
<title>Node4&#45;&gt;Node5</title>
<g id="a_edge4_Node000004_Node000005"><a xlink:title=" ">
<path fill="none" stroke="#63b8ff" d="M531.64,-65.24C540.99,-66.18 550.6,-67.13 560.06,-68.08"/>
<polygon fill="#63b8ff" stroke="#63b8ff" points="559.94,-71.58 570.23,-69.09 560.63,-64.62 559.94,-71.58"/>
</a>
</g>
</g>
<!-- Node6 -->
<g id="Node000006" class="node">
<title>Node6</title>
<g id="a_Node000006"><a xlink:href="namespaceiii__drone_1_1math.html#a8e7d7e25d07b368363d6da9939a9abed" target="_top" xlink:title=" ">
<polygon fill="white" stroke="#666666" points="712,-48.5 569,-48.5 569,-29.5 712,-29.5 712,-48.5"/>
<text text-anchor="middle" x="640.5" y="-36.5" font-family="Helvetica,sans-Serif" font-size="10.00">iii_drone::math::quatToEul</text>
</a>
</g>
</g>
<!-- Node4&#45;&gt;Node6 -->
<g id="edge5_Node000004_Node000006" class="edge">
<title>Node4&#45;&gt;Node6</title>
<g id="a_edge5_Node000004_Node000006"><a xlink:title=" ">
<path fill="none" stroke="#63b8ff" d="M531.64,-50.35C540.53,-49.42 549.67,-48.46 558.68,-47.51"/>
<polygon fill="#63b8ff" stroke="#63b8ff" points="559.19,-50.97 568.77,-46.45 558.46,-44.01 559.19,-50.97"/>
</a>
</g>
</g>
</g>
</svg>
