<?xml version="1.0" encoding="UTF-8" standalone="no"?>
<!DOCTYPE svg PUBLIC "-//W3C//DTD SVG 1.1//EN"
 "http://www.w3.org/Graphics/SVG/1.1/DTD/svg11.dtd">
<!-- Generated by graphviz version 2.43.0 (0)
 -->
<!-- Title: iii_drone::control::maneuver::FlyToObjectManeuverServer::publishResultAndFinalize Pages: 1 -->
<svg width="929pt" height="167pt"
 viewBox="0.00 0.00 929.00 167.00" xmlns="http://www.w3.org/2000/svg" xmlns:xlink="http://www.w3.org/1999/xlink">
<g id="graph0" class="graph" transform="scale(1 1) rotate(0) translate(4 163)">
<title>iii_drone::control::maneuver::FlyToObjectManeuverServer::publishResultAndFinalize</title>
<!-- Node1 -->
<g id="Node000001" class="node">
<title>Node1</title>
<g id="a_Node000001"><a xlink:title="Publishes the result and finalizes the maneuver according to the maneuver result type.">
<polygon fill="#999999" stroke="#666666" points="184,-100 0,-100 0,-59 184,-59 184,-100"/>
<text text-anchor="start" x="8" y="-88" font-family="Helvetica,sans-Serif" font-size="10.00">iii_drone::control</text>
<text text-anchor="start" x="8" y="-77" font-family="Helvetica,sans-Serif" font-size="10.00">::maneuver::FlyToObjectManeuver</text>
<text text-anchor="middle" x="92" y="-66" font-family="Helvetica,sans-Serif" font-size="10.00">Server::publishResultAndFinalize</text>
</a>
</g>
</g>
<!-- Node2 -->
<g id="Node000002" class="node">
<title>Node2</title>
<g id="a_Node000002"><a xlink:href="classiii__drone_1_1control_1_1maneuver_1_1ManeuverServer.html#aa25571ba492acf43cd9af009c02cf72e" target="_top" xlink:title="Combined drone awareness handler, accessible to derived classes through the protected method.">
<polygon fill="white" stroke="#666666" points="395.5,-159 237.5,-159 237.5,-118 395.5,-118 395.5,-159"/>
<text text-anchor="start" x="245.5" y="-147" font-family="Helvetica,sans-Serif" font-size="10.00">iii_drone::control</text>
<text text-anchor="start" x="245.5" y="-136" font-family="Helvetica,sans-Serif" font-size="10.00">::maneuver::ManeuverServer</text>
<text text-anchor="middle" x="316.5" y="-125" font-family="Helvetica,sans-Serif" font-size="10.00">::awareness_handler</text>
</a>
</g>
</g>
<!-- Node1&#45;&gt;Node2 -->
<g id="edge1_Node000001_Node000002" class="edge">
<title>Node1&#45;&gt;Node2</title>
<g id="a_edge1_Node000001_Node000002"><a xlink:title=" ">
<path fill="none" stroke="#63b8ff" d="M170.51,-100.05C189.09,-104.98 209.06,-110.28 228.06,-115.31"/>
<polygon fill="#63b8ff" stroke="#63b8ff" points="227.33,-118.74 237.89,-117.92 229.13,-111.98 227.33,-118.74"/>
</a>
</g>
</g>
<!-- Node3 -->
<g id="Node000003" class="node">
<title>Node3</title>
<g id="a_Node000003"><a xlink:href="classiii__drone_1_1control_1_1CombinedDroneAwarenessHandler.html#afa1110206b605274871d3a74bbfe253f" target="_top" xlink:title="Clears the current target.">
<polygon fill="white" stroke="#666666" points="413,-100 220,-100 220,-59 413,-59 413,-100"/>
<text text-anchor="start" x="228" y="-88" font-family="Helvetica,sans-Serif" font-size="10.00">iii_drone::control</text>
<text text-anchor="start" x="228" y="-77" font-family="Helvetica,sans-Serif" font-size="10.00">::CombinedDroneAwarenessHandler</text>
<text text-anchor="middle" x="316.5" y="-66" font-family="Helvetica,sans-Serif" font-size="10.00">::ClearTarget</text>
</a>
</g>
</g>
<!-- Node1&#45;&gt;Node3 -->
<g id="edge2_Node000001_Node000003" class="edge">
<title>Node1&#45;&gt;Node3</title>
<g id="a_edge2_Node000001_Node000003"><a xlink:title=" ">
<path fill="none" stroke="#63b8ff" d="M184.14,-79.5C192.59,-79.5 201.21,-79.5 209.78,-79.5"/>
<polygon fill="#63b8ff" stroke="#63b8ff" points="209.81,-83 219.81,-79.5 209.81,-76 209.81,-83"/>
</a>
</g>
</g>
<!-- Node6 -->
<g id="Node000006" class="node">
<title>Node6</title>
<g id="a_Node000006"><a xlink:href="classiii__drone_1_1control_1_1maneuver_1_1Maneuver.html#a0b7b01d9ab27db008c54f7ef0099fcd0" target="_top" xlink:title="Goal handle getter.">
<polygon fill="white" stroke="#666666" points="380,-41 253,-41 253,0 380,0 380,-41"/>
<text text-anchor="start" x="261" y="-29" font-family="Helvetica,sans-Serif" font-size="10.00">iii_drone::control</text>
<text text-anchor="start" x="261" y="-18" font-family="Helvetica,sans-Serif" font-size="10.00">::maneuver::Maneuver</text>
<text text-anchor="middle" x="316.5" y="-7" font-family="Helvetica,sans-Serif" font-size="10.00">::goal_handle</text>
</a>
</g>
</g>
<!-- Node1&#45;&gt;Node6 -->
<g id="edge6_Node000001_Node000006" class="edge">
<title>Node1&#45;&gt;Node6</title>
<g id="a_edge6_Node000001_Node000006"><a xlink:title=" ">
<path fill="none" stroke="#63b8ff" d="M170.51,-58.95C194.1,-52.69 219.93,-45.84 243.17,-39.68"/>
<polygon fill="#63b8ff" stroke="#63b8ff" points="244.19,-43.03 252.96,-37.08 242.39,-36.26 244.19,-43.03"/>
</a>
</g>
</g>
<!-- Node4 -->
<g id="Node000004" class="node">
<title>Node4</title>
<g id="a_Node000004"><a xlink:href="classiii__drone_1_1control_1_1CombinedDroneAwarenessHandler.html#ad188c61fd53e863b42cbd21c67d9bbf3" target="_top" xlink:title="Updates the combined drone awareness from the target adapter. Triggers updates of target_adapter,...">
<polygon fill="white" stroke="#666666" points="692,-100 449,-100 449,-59 692,-59 692,-100"/>
<text text-anchor="start" x="457" y="-88" font-family="Helvetica,sans-Serif" font-size="10.00">iii_drone::control</text>
<text text-anchor="start" x="457" y="-77" font-family="Helvetica,sans-Serif" font-size="10.00">::CombinedDroneAwarenessHandler</text>
<text text-anchor="middle" x="570.5" y="-66" font-family="Helvetica,sans-Serif" font-size="10.00">::updateCombinedDroneAwarenessFromTarget</text>
</a>
</g>
</g>
<!-- Node3&#45;&gt;Node4 -->
<g id="edge3_Node000003_Node000004" class="edge">
<title>Node3&#45;&gt;Node4</title>
<g id="a_edge3_Node000003_Node000004"><a xlink:title=" ">
<path fill="none" stroke="#63b8ff" d="M413.13,-79.5C421.54,-79.5 430.13,-79.5 438.76,-79.5"/>
<polygon fill="#63b8ff" stroke="#63b8ff" points="438.89,-83 448.89,-79.5 438.89,-76 438.89,-83"/>
</a>
</g>
</g>
<!-- Node4&#45;&gt;Node4 -->
<g id="edge5_Node000004_Node000004" class="edge">
<title>Node4&#45;&gt;Node4</title>
<g id="a_edge5_Node000004_Node000004"><a xlink:title=" ">
<path fill="none" stroke="#63b8ff" d="M523.82,-100.1C518.72,-109.65 534.29,-118 570.5,-118 593.13,-118 607.7,-114.74 614.2,-109.96"/>
<polygon fill="#63b8ff" stroke="#63b8ff" points="617.64,-110.68 617.18,-100.1 610.94,-108.65 617.64,-110.68"/>
</a>
</g>
</g>
<!-- Node5 -->
<g id="Node000005" class="node">
<title>Node5</title>
<g id="a_Node000005"><a xlink:href="classiii__drone_1_1control_1_1CombinedDroneAwarenessHandler.html#a7489deb4a1885f6b4985a3f6de205b64" target="_top" xlink:title="Getter for the combined drone awareness simple type by copy.">
<polygon fill="white" stroke="#666666" points="921,-100 728,-100 728,-59 921,-59 921,-100"/>
<text text-anchor="start" x="736" y="-88" font-family="Helvetica,sans-Serif" font-size="10.00">iii_drone::control</text>
<text text-anchor="start" x="736" y="-77" font-family="Helvetica,sans-Serif" font-size="10.00">::CombinedDroneAwarenessHandler</text>
<text text-anchor="middle" x="824.5" y="-66" font-family="Helvetica,sans-Serif" font-size="10.00">::combined_drone_awareness</text>
</a>
</g>
</g>
<!-- Node4&#45;&gt;Node5 -->
<g id="edge4_Node000004_Node000005" class="edge">
<title>Node4&#45;&gt;Node5</title>
<g id="a_edge4_Node000004_Node000005"><a xlink:title=" ">
<path fill="none" stroke="#63b8ff" d="M692.33,-79.5C700.77,-79.5 709.25,-79.5 717.6,-79.5"/>
<polygon fill="#63b8ff" stroke="#63b8ff" points="717.72,-83 727.72,-79.5 717.72,-76 717.72,-83"/>
</a>
</g>
</g>
</g>
</svg>
