<?xml version="1.0" encoding="UTF-8" standalone="no"?>
<!DOCTYPE svg PUBLIC "-//W3C//DTD SVG 1.1//EN"
 "http://www.w3.org/Graphics/SVG/1.1/DTD/svg11.dtd">
<!-- Generated by graphviz version 2.43.0 (0)
 -->
<!-- Title: iii_drone::control::maneuver::ManeuverScheduler::onReferenceCallbackTokenReacquired Pages: 1 -->
<!--zoomable 264 -->

<svg id="main" version="1.1" xmlns="http://www.w3.org/2000/svg" xmlns:xlink="http://www.w3.org/1999/xlink" xml:space="preserve" onload="init(evt)">
<style type="text/css"><![CDATA[
.node, .edge {opacity: 0.7;}
.node.selected, .edge.selected {opacity: 1;}
.edge:hover path { stroke: red; }
.edge:hover polygon { stroke: red; fill: red; }
]]></style>

<defs>
  <circle id="rim" cx="0" cy="0" r="7"/>
  <circle id="rim2" cx="0" cy="0" r="3.5"/>
  <g id="zoomPlus">
    <use xlink:href="#rim" fill="#404040"><set attributeName="fill" to="#808080" begin="zoomplus.mouseover" end="zoomplus.mouseout"/></use>
    <path d="M-4,0h8M0,-4v8" fill="none" stroke="white" stroke-width="1.5" pointer-events="none"/>
  </g>
  <g id="zoomMin">
    <use xlink:href="#rim" fill="#404040"><set attributeName="fill" to="#808080" begin="zoomminus.mouseover" end="zoomminus.mouseout"/></use>
    <path d="M-4,0h8" fill="none" stroke="white" stroke-width="1.5" pointer-events="none"/>
  </g>
  <g id="arrowUp" transform="translate(30 24)">
    <use xlink:href="#rim"/>
    <path pointer-events="none" fill="none" stroke="white" stroke-width="1.5" d="M0,-3.0v7 M-2.5,-0.5L0,-3.0L2.5,-0.5"/>
  </g>
  <g id="arrowRight" transform="rotate(90) translate(36 -43)">
    <use xlink:href="#rim"/>
    <path pointer-events="none" fill="none" stroke="white" stroke-width="1.5" d="M0,-3.0v7 M-2.5,-0.5L0,-3.0L2.5,-0.5"/>
  </g>
  <g id="arrowDown" transform="rotate(180) translate(-30 -48)">
    <use xlink:href="#rim"/>
    <path pointer-events="none" fill="none" stroke="white" stroke-width="1.5" d="M0,-3.0v7 M-2.5,-0.5L0,-3.0L2.5,-0.5"/>
  </g>
  <g id="arrowLeft" transform="rotate(270) translate(-36 17)">
    <use xlink:href="#rim"/>
    <path pointer-events="none" fill="none" stroke="white" stroke-width="1.5" d="M0,-3.0v7 M-2.5,-0.5L0,-3.0L2.5,-0.5"/>
  </g>
  <g id="resetDef">
    <use xlink:href="#rim2" fill="#404040"><set attributeName="fill" to="#808080" begin="reset.mouseover" end="reset.mouseout"/></use>
  </g>
</defs>
<script type="application/ecmascript">
var viewWidth = 596;
var viewHeight = 264;
var sectionId = 'dynsection-23';
</script>
<script type="application/ecmascript" xlink:href="svg.min.js"/>
<svg id="graph" class="graph">
<g id="viewport">
<title>iii_drone::control::maneuver::ManeuverScheduler::onReferenceCallbackTokenReacquired</title>
<!-- Node1 -->
<g id="Node000001" class="node">
<title>Node1</title>
<g id="a_Node000001"><a xlink:title="Callback function for when the token is yielded from a maneuver server. Registers the hovering refere...">
<polygon fill="#999999" stroke="#666666" points="209,-154 0,-154 0,-113 209,-113 209,-154"/>
<text text-anchor="start" x="8" y="-142" font-family="Helvetica,sans-Serif" font-size="10.00">iii_drone::control</text>
<text text-anchor="start" x="8" y="-131" font-family="Helvetica,sans-Serif" font-size="10.00">::maneuver::ManeuverScheduler</text>
<text text-anchor="middle" x="104.5" y="-120" font-family="Helvetica,sans-Serif" font-size="10.00">::onReferenceCallbackTokenReacquired</text>
</a>
</g>
</g>
<!-- Node2 -->
<g id="Node000002" class="node">
<title>Node2</title>
<g id="a_Node000002"><a xlink:href="classiii__drone_1_1control_1_1maneuver_1_1HoverManeuverServer.html#ac5152adf55a287fa83ad29f4a9f0709b" target="_top" xlink:title="Gets the hover reference.">
<polygon fill="white" stroke="#666666" points="433,-256 245,-256 245,-215 433,-215 433,-256"/>
<text text-anchor="start" x="253" y="-244" font-family="Helvetica,sans-Serif" font-size="10.00">iii_drone::control</text>
<text text-anchor="start" x="253" y="-233" font-family="Helvetica,sans-Serif" font-size="10.00">::maneuver::HoverManeuverServer</text>
<text text-anchor="middle" x="339" y="-222" font-family="Helvetica,sans-Serif" font-size="10.00">::GetReference</text>
</a>
</g>
</g>
<!-- Node1&#45;&gt;Node2 -->
<g id="edge1_Node000001_Node000002" class="edge">
<title>Node1&#45;&gt;Node2</title>
<g id="a_edge1_Node000001_Node000002"><a xlink:title=" ">
<path fill="none" stroke="#63b8ff" d="M141.43,-154.13C169.16,-169.53 208.76,-190.42 245,-205.5 249.99,-207.58 255.18,-209.6 260.45,-211.56"/>
<polygon fill="#63b8ff" stroke="#63b8ff" points="259.38,-214.89 269.97,-214.99 261.75,-208.31 259.38,-214.89"/>
</a>
</g>
</g>
<!-- Node3 -->
<g id="Node000003" class="node">
<title>Node3</title>
<g id="a_Node000003"><a xlink:href="classiii__drone_1_1utils_1_1Token.html#a7f242bea6b8c01922066812119e6d5d1" target="_top" xlink:title="Whether the token is held by the master.">
<polygon fill="white" stroke="#666666" points="398.5,-196.5 279.5,-196.5 279.5,-166.5 398.5,-166.5 398.5,-196.5"/>
<text text-anchor="start" x="287.5" y="-184.5" font-family="Helvetica,sans-Serif" font-size="10.00">iii_drone::utils::Token</text>
<text text-anchor="middle" x="339" y="-173.5" font-family="Helvetica,sans-Serif" font-size="10.00">::master_has_token</text>
</a>
</g>
</g>
<!-- Node1&#45;&gt;Node3 -->
<g id="edge2_Node000001_Node000003" class="edge">
<title>Node1&#45;&gt;Node3</title>
<g id="a_edge2_Node000001_Node000003"><a xlink:title=" ">
<path fill="none" stroke="#63b8ff" d="M205.11,-154.07C226.73,-158.53 249.13,-163.15 269.23,-167.3"/>
<polygon fill="#63b8ff" stroke="#63b8ff" points="268.71,-170.77 279.22,-169.36 270.13,-163.91 268.71,-170.77"/>
</a>
</g>
</g>
<!-- Node4 -->
<g id="Node000004" class="node">
<title>Node4</title>
<g id="a_Node000004"><a xlink:href="classiii__drone_1_1utils_1_1Token.html#af148ea73a4a71657f67da885012b8768" target="_top" xlink:title="Get the resource.">
<polygon fill="white" stroke="#666666" points="398.5,-148.5 279.5,-148.5 279.5,-118.5 398.5,-118.5 398.5,-148.5"/>
<text text-anchor="start" x="287.5" y="-136.5" font-family="Helvetica,sans-Serif" font-size="10.00">iii_drone::utils::Token</text>
<text text-anchor="middle" x="339" y="-125.5" font-family="Helvetica,sans-Serif" font-size="10.00">::resource</text>
</a>
</g>
</g>
<!-- Node1&#45;&gt;Node4 -->
<g id="edge3_Node000001_Node000004" class="edge">
<title>Node1&#45;&gt;Node4</title>
<g id="a_edge3_Node000001_Node000004"><a xlink:title=" ">
<path fill="none" stroke="#63b8ff" d="M209.17,-133.5C229.5,-133.5 250.35,-133.5 269.2,-133.5"/>
<polygon fill="#63b8ff" stroke="#63b8ff" points="269.44,-137 279.44,-133.5 269.44,-130 269.44,-137"/>
</a>
</g>
</g>
<!-- Node6 -->
<g id="Node000006" class="node">
<title>Node6</title>
<g id="a_Node000006"><a xlink:href="classiii__drone_1_1control_1_1maneuver_1_1Maneuver.html#a8788992c198b7547518561a5ab184406" target="_top" xlink:title="Getter for the success flag.">
<polygon fill="white" stroke="#666666" points="402.5,-100 275.5,-100 275.5,-59 402.5,-59 402.5,-100"/>
<text text-anchor="start" x="283.5" y="-88" font-family="Helvetica,sans-Serif" font-size="10.00">iii_drone::control</text>
<text text-anchor="start" x="283.5" y="-77" font-family="Helvetica,sans-Serif" font-size="10.00">::maneuver::Maneuver</text>
<text text-anchor="middle" x="339" y="-66" font-family="Helvetica,sans-Serif" font-size="10.00">::success</text>
</a>
</g>
</g>
<!-- Node1&#45;&gt;Node6 -->
<g id="edge5_Node000001_Node000006" class="edge">
<title>Node1&#45;&gt;Node6</title>
<g id="a_edge5_Node000001_Node000006"><a xlink:title=" ">
<path fill="none" stroke="#63b8ff" d="M194.06,-112.93C217.65,-107.45 242.85,-101.6 265.47,-96.35"/>
<polygon fill="#63b8ff" stroke="#63b8ff" points="266.38,-99.73 275.33,-94.06 264.79,-92.91 266.38,-99.73"/>
</a>
</g>
</g>
<!-- Node7 -->
<g id="Node000007" class="node">
<title>Node7</title>
<g id="a_Node000007"><a xlink:href="classiii__drone_1_1control_1_1maneuver_1_1Maneuver.html#a6e8c99e2bd771ee723136e06611b19ff" target="_top" xlink:title="Getter for the termianted flag.">
<polygon fill="white" stroke="#666666" points="402.5,-41 275.5,-41 275.5,0 402.5,0 402.5,-41"/>
<text text-anchor="start" x="283.5" y="-29" font-family="Helvetica,sans-Serif" font-size="10.00">iii_drone::control</text>
<text text-anchor="start" x="283.5" y="-18" font-family="Helvetica,sans-Serif" font-size="10.00">::maneuver::Maneuver</text>
<text text-anchor="middle" x="339" y="-7" font-family="Helvetica,sans-Serif" font-size="10.00">::terminated</text>
</a>
</g>
</g>
<!-- Node1&#45;&gt;Node7 -->
<g id="edge6_Node000001_Node000007" class="edge">
<title>Node1&#45;&gt;Node7</title>
<g id="a_edge6_Node000001_Node000007"><a xlink:title=" ">
<path fill="none" stroke="#63b8ff" d="M135.45,-112.98C163,-94.78 205.45,-68.37 245,-50.5 251.59,-47.52 258.56,-44.7 265.61,-42.08"/>
<polygon fill="#63b8ff" stroke="#63b8ff" points="267.01,-45.29 275.24,-38.61 264.64,-38.71 267.01,-45.29"/>
</a>
</g>
</g>
<!-- Node5 -->
<g id="Node000005" class="node">
<title>Node5</title>
<g id="a_Node000005"><a xlink:href="classiii__drone_1_1utils_1_1Token.html#af0160e7c7f1f4c358ce903f3490c1026" target="_top" xlink:title="Whether the token is held by the calling thread.">
<polygon fill="white" stroke="#666666" points="588,-148.5 469,-148.5 469,-118.5 588,-118.5 588,-148.5"/>
<text text-anchor="start" x="477" y="-136.5" font-family="Helvetica,sans-Serif" font-size="10.00">iii_drone::utils::Token</text>
<text text-anchor="middle" x="528.5" y="-125.5" font-family="Helvetica,sans-Serif" font-size="10.00">::has_token</text>
</a>
</g>
</g>
<!-- Node4&#45;&gt;Node5 -->
<g id="edge4_Node000004_Node000005" class="edge">
<title>Node4&#45;&gt;Node5</title>
<g id="a_edge4_Node000004_Node000005"><a xlink:title=" ">
<path fill="none" stroke="#63b8ff" d="M398.55,-133.5C417.59,-133.5 438.88,-133.5 458.6,-133.5"/>
<polygon fill="#63b8ff" stroke="#63b8ff" points="458.74,-137 468.74,-133.5 458.74,-130 458.74,-137"/>
</a>
</g>
</g>
</g>
</svg>

<g id="navigator" transform="translate(0 0)" fill="#404254">
  <rect fill="#f2f5e9" fill-opacity="0.5" stroke="#606060" stroke-width=".5" x="0" y="0" width="60" height="60"/>
  <use id="zoomplus" xlink:href="#zoomPlus" x="17" y="9" onmousedown="handleZoom(evt,'in')"/>
  <use id="zoomminus" xlink:href="#zoomMin" x="42" y="9" onmousedown="handleZoom(evt,'out')"/>
  <use id="reset" xlink:href="#resetDef" x="30" y="36" onmousedown="handleReset()"/>
   <use id="arrowup" xlink:href="#arrowUp" x="0" y="0" onmousedown="handlePan(0,-1)"/>
  <use id="arrowright" xlink:href="#arrowRight" x="0" y="0" onmousedown="handlePan(1,0)"/>
  <use id="arrowdown" xlink:href="#arrowDown" x="0" y="0" onmousedown="handlePan(0,1)"/>
  <use id="arrowleft" xlink:href="#arrowLeft" x="0" y="0" onmousedown="handlePan(-1,0)"/>
</g>
<svg viewBox="0 0 15 15" width="100%" height="30px" preserveAspectRatio="xMaxYMin meet">
 <g id="arrow_out" transform="scale(0.3 0.3)">
  <a xlink:href="classiii__drone_1_1control_1_1maneuver_1_1ManeuverScheduler_afa9c39ec85ed4c05e1cac71ebb197a78_cgraph_org.svg" target="_base">
   <rect id="button" ry="5" rx="5" y="6" x="6" height="38" width="38"
        fill="#f2f5e9" fill-opacity="0.5" stroke="#606060" stroke-width="1.0"/>
   <path id="arrow"
     d="M 11.500037,31.436501 C 11.940474,20.09759 22.043105,11.32322 32.158766,21.979434 L 37.068811,17.246167 C 37.068811,17.246167 37.088388,32 37.088388,32 L 22.160133,31.978069 C 22.160133,31.978069 26.997745,27.140456 26.997745,27.140456 C 18.528582,18.264221 13.291696,25.230495 11.500037,31.436501 z"
     style="fill:#404040;"/>
  </a>
 </g>
</svg>

<style type='text/css'>
<![CDATA[
[data-mouse-over-selected='false'] { opacity: 0.7; }
[data-mouse-over-selected='true']  { opacity: 1.0; }
]]>
</style>
<script type="application/ecmascript"><![CDATA[
document.addEventListener('DOMContentLoaded', (event) => {
  highlightEdges();
  highlightAdjacentNodes();
});
]]></script>
</svg>
