<?xml version="1.0" encoding="UTF-8" standalone="no"?>
<!DOCTYPE svg PUBLIC "-//W3C//DTD SVG 1.1//EN"
 "http://www.w3.org/Graphics/SVG/1.1/DTD/svg11.dtd">
<!-- Generated by graphviz version 2.43.0 (0)
 -->
<!-- Title: iii_drone::control::maneuver::HoverByObjectManeuverServer::GetReference Pages: 1 -->
<svg width="1045pt" height="703pt"
 viewBox="0.00 0.00 1045.00 703.00" xmlns="http://www.w3.org/2000/svg" xmlns:xlink="http://www.w3.org/1999/xlink">
<g id="graph0" class="graph" transform="scale(1 1) rotate(0) translate(4 699)">
<title>iii_drone::control::maneuver::HoverByObjectManeuverServer::GetReference</title>
<!-- Node1 -->
<g id="Node000001" class="node">
<title>Node1</title>
<g id="a_Node000001"><a xlink:title="Gets the hover reference. The current state is not used. Will call the on fail callback if the target...">
<polygon fill="#999999" stroke="#666666" points="200,-176.5 0,-176.5 0,-135.5 200,-135.5 200,-176.5"/>
<text text-anchor="start" x="8" y="-164.5" font-family="Helvetica,sans-Serif" font-size="10.00">iii_drone::control</text>
<text text-anchor="start" x="8" y="-153.5" font-family="Helvetica,sans-Serif" font-size="10.00">::maneuver::HoverByObjectManeuver</text>
<text text-anchor="middle" x="100" y="-142.5" font-family="Helvetica,sans-Serif" font-size="10.00">Server::GetReference</text>
</a>
</g>
</g>
<!-- Node2 -->
<g id="Node000002" class="node">
<title>Node2</title>
<g id="a_Node000002"><a xlink:href="classiii__drone_1_1control_1_1maneuver_1_1ManeuverServer.html#aa25571ba492acf43cd9af009c02cf72e" target="_top" xlink:title="Combined drone awareness handler, accessible to derived classes through the protected method.">
<polygon fill="white" stroke="#666666" points="415,-484.5 257,-484.5 257,-443.5 415,-443.5 415,-484.5"/>
<text text-anchor="start" x="265" y="-472.5" font-family="Helvetica,sans-Serif" font-size="10.00">iii_drone::control</text>
<text text-anchor="start" x="265" y="-461.5" font-family="Helvetica,sans-Serif" font-size="10.00">::maneuver::ManeuverServer</text>
<text text-anchor="middle" x="336" y="-450.5" font-family="Helvetica,sans-Serif" font-size="10.00">::awareness_handler</text>
</a>
</g>
</g>
<!-- Node1&#45;&gt;Node2 -->
<g id="edge1_Node000001_Node000002" class="edge">
<title>Node1&#45;&gt;Node2</title>
<g id="a_edge1_Node000001_Node000002"><a xlink:title=" ">
<path fill="none" stroke="#63b8ff" d="M105,-176.7C116.06,-228.35 152.02,-363.9 236,-435 239.56,-438.01 243.41,-440.71 247.47,-443.13"/>
<polygon fill="#63b8ff" stroke="#63b8ff" points="246.16,-446.4 256.64,-447.99 249.44,-440.21 246.16,-446.4"/>
</a>
</g>
</g>
<!-- Node3 -->
<g id="Node000003" class="node">
<title>Node3</title>
<g id="a_Node000003"><a xlink:href="classiii__drone_1_1control_1_1CombinedDroneAwarenessHandler.html#ab9c3e7f08103bc40c70efd3ca93f040b" target="_top" xlink:title="Computes a target transform given a target adapter.">
<polygon fill="white" stroke="#666666" points="432.5,-425.5 239.5,-425.5 239.5,-384.5 432.5,-384.5 432.5,-425.5"/>
<text text-anchor="start" x="247.5" y="-413.5" font-family="Helvetica,sans-Serif" font-size="10.00">iii_drone::control</text>
<text text-anchor="start" x="247.5" y="-402.5" font-family="Helvetica,sans-Serif" font-size="10.00">::CombinedDroneAwarenessHandler</text>
<text text-anchor="middle" x="336" y="-391.5" font-family="Helvetica,sans-Serif" font-size="10.00">::ComputeTargetTransform</text>
</a>
</g>
</g>
<!-- Node1&#45;&gt;Node3 -->
<g id="edge2_Node000001_Node000003" class="edge">
<title>Node1&#45;&gt;Node3</title>
<g id="a_edge2_Node000001_Node000003"><a xlink:title=" ">
<path fill="none" stroke="#63b8ff" d="M120.55,-176.8C162.55,-221.49 261.42,-326.71 308.8,-377.12"/>
<polygon fill="#63b8ff" stroke="#63b8ff" points="306.27,-379.54 315.67,-384.43 311.37,-374.75 306.27,-379.54"/>
</a>
</g>
</g>
<!-- Node7 -->
<g id="Node000007" class="node">
<title>Node7</title>
<g id="a_Node000007"><a xlink:href="namespaceiii__drone_1_1math.html#a8e7d7e25d07b368363d6da9939a9abed" target="_top" xlink:title=" ">
<polygon fill="white" stroke="#666666" points="1033.5,-328.5 890.5,-328.5 890.5,-309.5 1033.5,-309.5 1033.5,-328.5"/>
<text text-anchor="middle" x="962" y="-316.5" font-family="Helvetica,sans-Serif" font-size="10.00">iii_drone::math::quatToEul</text>
</a>
</g>
</g>
<!-- Node1&#45;&gt;Node7 -->
<g id="edge24_Node000001_Node000007" class="edge">
<title>Node1&#45;&gt;Node7</title>
<g id="a_edge24_Node000001_Node000007"><a xlink:title=" ">
<path fill="none" stroke="#63b8ff" d="M200.21,-159.06C313.77,-164.21 504.76,-177.88 665,-214 764.9,-236.52 877.53,-282.51 930.45,-305.41"/>
<polygon fill="#63b8ff" stroke="#63b8ff" points="929.05,-308.62 939.62,-309.41 931.85,-302.2 929.05,-308.62"/>
</a>
</g>
</g>
<!-- Node21 -->
<g id="Node000021" class="node">
<title>Node21</title>
<g id="a_Node000021"><a xlink:href="namespaceiii__drone_1_1types.html#a1bfb762d3daf82decf272d74978c0aff" target="_top" xlink:title=" ">
<polygon fill="white" stroke="#666666" points="641.5,-144 495.5,-144 495.5,-114 641.5,-114 641.5,-144"/>
<text text-anchor="start" x="503.5" y="-132" font-family="Helvetica,sans-Serif" font-size="10.00">iii_drone::types::poseFrom</text>
<text text-anchor="middle" x="568.5" y="-121" font-family="Helvetica,sans-Serif" font-size="10.00">TransformMatrix</text>
</a>
</g>
</g>
<!-- Node1&#45;&gt;Node21 -->
<g id="edge20_Node000001_Node000021" class="edge">
<title>Node1&#45;&gt;Node21</title>
<g id="a_edge20_Node000001_Node000021"><a xlink:title=" ">
<path fill="none" stroke="#63b8ff" d="M200.32,-150.47C266.98,-146.74 356.77,-141.66 436,-137 451.98,-136.06 469.05,-135.04 485.41,-134.05"/>
<polygon fill="#63b8ff" stroke="#63b8ff" points="485.73,-137.53 495.5,-133.43 485.31,-130.55 485.73,-137.53"/>
</a>
</g>
</g>
<!-- Node24 -->
<g id="Node000024" class="node">
<title>Node24</title>
<g id="a_Node000024"><a xlink:href="classiii__drone_1_1control_1_1State.html#ac7d02a667c215a72d7f7f2fdf1501eb4" target="_top" xlink:title=" ">
<polygon fill="white" stroke="#666666" points="617.5,-96 519.5,-96 519.5,-66 617.5,-66 617.5,-96"/>
<text text-anchor="start" x="527.5" y="-84" font-family="Helvetica,sans-Serif" font-size="10.00">iii_drone::control</text>
<text text-anchor="middle" x="568.5" y="-73" font-family="Helvetica,sans-Serif" font-size="10.00">::State::position</text>
</a>
</g>
</g>
<!-- Node1&#45;&gt;Node24 -->
<g id="edge23_Node000001_Node000024" class="edge">
<title>Node1&#45;&gt;Node24</title>
<g id="a_edge23_Node000001_Node000024"><a xlink:title=" ">
<path fill="none" stroke="#63b8ff" d="M126.51,-135.43C152.34,-116.04 194.33,-88.3 236,-77 329,-51.79 442.12,-61.26 509.29,-70.84"/>
<polygon fill="#63b8ff" stroke="#63b8ff" points="508.85,-74.31 519.26,-72.31 509.88,-67.39 508.85,-74.31"/>
</a>
</g>
</g>
<!-- Node25 -->
<g id="Node000025" class="node">
<title>Node25</title>
<g id="a_Node000025"><a xlink:href="classiii__drone_1_1control_1_1maneuver_1_1HoverByObjectManeuverServer.html#a0fbdbb7505bd07854fe3db49bfe8b8b8" target="_top" xlink:title="Validates that the target transform and the drone state are within the maximum euclidean distance.">
<polygon fill="white" stroke="#666666" points="436,-127.5 236,-127.5 236,-86.5 436,-86.5 436,-127.5"/>
<text text-anchor="start" x="244" y="-115.5" font-family="Helvetica,sans-Serif" font-size="10.00">iii_drone::control</text>
<text text-anchor="start" x="244" y="-104.5" font-family="Helvetica,sans-Serif" font-size="10.00">::maneuver::HoverByObjectManeuver</text>
<text text-anchor="middle" x="336" y="-93.5" font-family="Helvetica,sans-Serif" font-size="10.00">Server::validateTargetTransform</text>
</a>
</g>
</g>
<!-- Node1&#45;&gt;Node25 -->
<g id="edge25_Node000001_Node000025" class="edge">
<title>Node1&#45;&gt;Node25</title>
<g id="a_edge25_Node000001_Node000025"><a xlink:title=" ">
<path fill="none" stroke="#63b8ff" d="M199.22,-135.43C208.4,-133.51 217.75,-131.55 227.02,-129.61"/>
<polygon fill="#63b8ff" stroke="#63b8ff" points="227.96,-132.99 237.03,-127.51 226.53,-126.14 227.96,-132.99"/>
</a>
</g>
</g>
<!-- Node26 -->
<g id="Node000026" class="node">
<title>Node26</title>
<g id="a_Node000026"><a xlink:href="classiii__drone_1_1control_1_1State.html#a9853d9f35c2c0ebf0976a472b2624dc2" target="_top" xlink:title=" ">
<polygon fill="white" stroke="#666666" points="385,-30 287,-30 287,0 385,0 385,-30"/>
<text text-anchor="start" x="295" y="-18" font-family="Helvetica,sans-Serif" font-size="10.00">iii_drone::control</text>
<text text-anchor="middle" x="336" y="-7" font-family="Helvetica,sans-Serif" font-size="10.00">::State::yaw</text>
</a>
</g>
</g>
<!-- Node1&#45;&gt;Node26 -->
<g id="edge28_Node000001_Node000026" class="edge">
<title>Node1&#45;&gt;Node26</title>
<g id="a_edge28_Node000001_Node000026"><a xlink:title=" ">
<path fill="none" stroke="#63b8ff" d="M120.56,-135.24C145.23,-110.21 190.02,-68.45 236,-44 248.66,-37.27 263.09,-31.91 276.93,-27.72"/>
<polygon fill="#63b8ff" stroke="#63b8ff" points="278.23,-30.99 286.88,-24.88 276.3,-24.26 278.23,-30.99"/>
</a>
</g>
</g>
<!-- Node4 -->
<g id="Node000004" class="node">
<title>Node4</title>
<g id="a_Node000004"><a xlink:href="namespaceiii__drone_1_1math.html#a7bf2d65f6ca43a8f7a1c5385a29808fe" target="_top" xlink:title=" ">
<polygon fill="white" stroke="#666666" points="656.5,-528 480.5,-528 480.5,-498 656.5,-498 656.5,-528"/>
<text text-anchor="start" x="488.5" y="-516" font-family="Helvetica,sans-Serif" font-size="10.00">iii_drone::math::createTransform</text>
<text text-anchor="middle" x="568.5" y="-505" font-family="Helvetica,sans-Serif" font-size="10.00">Matrix</text>
</a>
</g>
</g>
<!-- Node3&#45;&gt;Node4 -->
<g id="edge3_Node000003_Node000004" class="edge">
<title>Node3&#45;&gt;Node4</title>
<g id="a_edge3_Node000003_Node000004"><a xlink:title=" ">
<path fill="none" stroke="#63b8ff" d="M420.66,-425.59C426.06,-428.35 431.24,-431.47 436,-435 459.16,-452.19 448.43,-472.37 472,-489 474.14,-490.51 476.36,-491.92 478.66,-493.25"/>
<polygon fill="#63b8ff" stroke="#63b8ff" points="477.3,-496.49 487.8,-497.94 480.5,-490.26 477.3,-496.49"/>
</a>
</g>
</g>
<!-- Node8 -->
<g id="Node000008" class="node">
<title>Node8</title>
<g id="a_Node000008"><a xlink:href="classiii__drone_1_1adapters_1_1PowerlineAdapter.html#a5bf5fcde3fc28a2e3ba77293abc5ec4e" target="_top" xlink:title="Returns the single line adapter with the given id.">
<polygon fill="white" stroke="#666666" points="626,-479.5 511,-479.5 511,-438.5 626,-438.5 626,-479.5"/>
<text text-anchor="start" x="519" y="-467.5" font-family="Helvetica,sans-Serif" font-size="10.00">iii_drone::adapters</text>
<text text-anchor="start" x="519" y="-456.5" font-family="Helvetica,sans-Serif" font-size="10.00">::PowerlineAdapter::</text>
<text text-anchor="middle" x="568.5" y="-445.5" font-family="Helvetica,sans-Serif" font-size="10.00">GetLine</text>
</a>
</g>
</g>
<!-- Node3&#45;&gt;Node8 -->
<g id="edge7_Node000003_Node000008" class="edge">
<title>Node3&#45;&gt;Node8</title>
<g id="a_edge7_Node000003_Node000008"><a xlink:title=" ">
<path fill="none" stroke="#63b8ff" d="M424.8,-425.57C450.07,-431.49 477.21,-437.85 500.96,-443.41"/>
<polygon fill="#63b8ff" stroke="#63b8ff" points="500.39,-446.87 510.92,-445.75 501.99,-440.06 500.39,-446.87"/>
</a>
</g>
</g>
<!-- Node9 -->
<g id="Node000009" class="node">
<title>Node9</title>
<g id="a_Node000009"><a xlink:href="namespaceiii__drone_1_1types.html#a0f2e38f39e75d541ec3429c76b866229" target="_top" xlink:title=" ">
<polygon fill="white" stroke="#666666" points="641.5,-420 495.5,-420 495.5,-390 641.5,-390 641.5,-420"/>
<text text-anchor="start" x="503.5" y="-408" font-family="Helvetica,sans-Serif" font-size="10.00">iii_drone::types::poseFrom</text>
<text text-anchor="middle" x="568.5" y="-397" font-family="Helvetica,sans-Serif" font-size="10.00">PoseMsg</text>
</a>
</g>
</g>
<!-- Node3&#45;&gt;Node9 -->
<g id="edge8_Node000003_Node000009" class="edge">
<title>Node3&#45;&gt;Node9</title>
<g id="a_edge8_Node000003_Node000009"><a xlink:title=" ">
<path fill="none" stroke="#63b8ff" d="M432.75,-405C450.06,-405 467.98,-405 484.87,-405"/>
<polygon fill="#63b8ff" stroke="#63b8ff" points="485.25,-408.5 495.25,-405 485.25,-401.5 485.25,-408.5"/>
</a>
</g>
</g>
<!-- Node12 -->
<g id="Node000012" class="node">
<title>Node12</title>
<g id="a_Node000012"><a xlink:href="classiii__drone_1_1control_1_1CombinedDroneAwarenessHandler.html#a210daa5f6654327a96c6d24dae007816" target="_top" xlink:title="Returns the current target adapter, will have TARGET_TYPE_NONE if no target.">
<polygon fill="white" stroke="#666666" points="665,-371.5 472,-371.5 472,-330.5 665,-330.5 665,-371.5"/>
<text text-anchor="start" x="480" y="-359.5" font-family="Helvetica,sans-Serif" font-size="10.00">iii_drone::control</text>
<text text-anchor="start" x="480" y="-348.5" font-family="Helvetica,sans-Serif" font-size="10.00">::CombinedDroneAwarenessHandler</text>
<text text-anchor="middle" x="568.5" y="-337.5" font-family="Helvetica,sans-Serif" font-size="10.00">::target_adapter</text>
</a>
</g>
</g>
<!-- Node3&#45;&gt;Node12 -->
<g id="edge11_Node000003_Node000012" class="edge">
<title>Node3&#45;&gt;Node12</title>
<g id="a_edge11_Node000003_Node000012"><a xlink:title=" ">
<path fill="none" stroke="#63b8ff" d="M424.8,-384.43C439.62,-380.96 455.08,-377.34 470.13,-373.81"/>
<polygon fill="#63b8ff" stroke="#63b8ff" points="471.01,-377.2 479.94,-371.51 469.41,-370.39 471.01,-377.2"/>
</a>
</g>
</g>
<!-- Node13 -->
<g id="Node000013" class="node">
<title>Node13</title>
<g id="a_Node000013"><a xlink:href="classiii__drone_1_1adapters_1_1TargetAdapter.html#af4648a3bc6fd3ac93e610700e24b2d14" target="_top" xlink:title="Gets the target id.">
<polygon fill="white" stroke="#666666" points="638.5,-312 498.5,-312 498.5,-282 638.5,-282 638.5,-312"/>
<text text-anchor="start" x="506.5" y="-300" font-family="Helvetica,sans-Serif" font-size="10.00">iii_drone::adapters</text>
<text text-anchor="middle" x="568.5" y="-289" font-family="Helvetica,sans-Serif" font-size="10.00">::TargetAdapter::target_id</text>
</a>
</g>
</g>
<!-- Node3&#45;&gt;Node13 -->
<g id="edge12_Node000003_Node000013" class="edge">
<title>Node3&#45;&gt;Node13</title>
<g id="a_edge12_Node000003_Node000013"><a xlink:title=" ">
<path fill="none" stroke="#63b8ff" d="M364.89,-384.44C391.3,-365.82 432.66,-338.8 472,-322 477.79,-319.53 483.89,-317.25 490.08,-315.16"/>
<polygon fill="#63b8ff" stroke="#63b8ff" points="491.41,-318.41 499.87,-312.03 489.28,-311.74 491.41,-318.41"/>
</a>
</g>
</g>
<!-- Node14 -->
<g id="Node000014" class="node">
<title>Node14</title>
<g id="a_Node000014"><a xlink:href="classiii__drone_1_1adapters_1_1TargetAdapter.html#a5b378f4de1effed87e2309d5f052d74a" target="_top" xlink:title="Gets the target transform.">
<polygon fill="white" stroke="#666666" points="631.5,-263.5 505.5,-263.5 505.5,-222.5 631.5,-222.5 631.5,-263.5"/>
<text text-anchor="start" x="513.5" y="-251.5" font-family="Helvetica,sans-Serif" font-size="10.00">iii_drone::adapters</text>
<text text-anchor="start" x="513.5" y="-240.5" font-family="Helvetica,sans-Serif" font-size="10.00">::TargetAdapter::target</text>
<text text-anchor="middle" x="568.5" y="-229.5" font-family="Helvetica,sans-Serif" font-size="10.00">_transform</text>
</a>
</g>
</g>
<!-- Node3&#45;&gt;Node14 -->
<g id="edge13_Node000003_Node000014" class="edge">
<title>Node3&#45;&gt;Node14</title>
<g id="a_edge13_Node000003_Node000014"><a xlink:title=" ">
<path fill="none" stroke="#63b8ff" d="M353.02,-384.05C376.22,-355.07 421.93,-302.96 472,-273 479.42,-268.56 487.57,-264.71 495.87,-261.39"/>
<polygon fill="#63b8ff" stroke="#63b8ff" points="497.15,-264.65 505.29,-257.87 494.7,-258.09 497.15,-264.65"/>
</a>
</g>
</g>
<!-- Node15 -->
<g id="Node000015" class="node">
<title>Node15</title>
<g id="a_Node000015"><a xlink:href="classiii__drone_1_1adapters_1_1TargetAdapter.html#a7b5c36b234213f1d19fa8f1943c26c4a" target="_top" xlink:title="Gets the target type.">
<polygon fill="white" stroke="#666666" points="645,-695 492,-695 492,-665 645,-665 645,-695"/>
<text text-anchor="start" x="500" y="-683" font-family="Helvetica,sans-Serif" font-size="10.00">iii_drone::adapters</text>
<text text-anchor="middle" x="568.5" y="-672" font-family="Helvetica,sans-Serif" font-size="10.00">::TargetAdapter::target_type</text>
</a>
</g>
</g>
<!-- Node3&#45;&gt;Node15 -->
<g id="edge14_Node000003_Node000015" class="edge">
<title>Node3&#45;&gt;Node15</title>
<g id="a_edge14_Node000003_Node000015"><a xlink:title=" ">
<path fill="none" stroke="#63b8ff" d="M425.7,-425.63C429.45,-428.38 432.92,-431.49 436,-435 501.55,-509.88 404.67,-582.71 472,-656 475.21,-659.49 478.85,-662.51 482.78,-665.12"/>
<polygon fill="#63b8ff" stroke="#63b8ff" points="481.37,-668.34 491.81,-670.18 484.8,-662.24 481.37,-668.34"/>
</a>
</g>
</g>
<!-- Node16 -->
<g id="Node000016" class="node">
<title>Node16</title>
<g id="a_Node000016"><a xlink:href="classiii__drone_1_1adapters_1_1SingleLineAdapter.html#a0e51bbd6fad04d9daf990a9f228c12bf" target="_top" xlink:title="Converts to PoseStamped msg.">
<polygon fill="white" stroke="#666666" points="628.5,-646.5 508.5,-646.5 508.5,-605.5 628.5,-605.5 628.5,-646.5"/>
<text text-anchor="start" x="516.5" y="-634.5" font-family="Helvetica,sans-Serif" font-size="10.00">iii_drone::adapters</text>
<text text-anchor="start" x="516.5" y="-623.5" font-family="Helvetica,sans-Serif" font-size="10.00">::SingleLineAdapter</text>
<text text-anchor="middle" x="568.5" y="-612.5" font-family="Helvetica,sans-Serif" font-size="10.00">::ToPoseStampedMsg</text>
</a>
</g>
</g>
<!-- Node3&#45;&gt;Node16 -->
<g id="edge15_Node000003_Node000016" class="edge">
<title>Node3&#45;&gt;Node16</title>
<g id="a_edge15_Node000003_Node000016"><a xlink:title=" ">
<path fill="none" stroke="#63b8ff" d="M425.01,-425.53C429,-428.3 432.7,-431.44 436,-435 486.15,-489.09 421.87,-542.9 472,-597 479.23,-604.8 488.48,-610.53 498.37,-614.73"/>
<polygon fill="#63b8ff" stroke="#63b8ff" points="497.41,-618.11 508.01,-618.31 499.85,-611.54 497.41,-618.11"/>
</a>
</g>
</g>
<!-- Node20 -->
<g id="Node000020" class="node">
<title>Node20</title>
<g id="a_Node000020"><a xlink:href="classiii__drone_1_1control_1_1CombinedDroneAwarenessHandlerParameters.html#a462d0dc30c33f34df6165dbcc7829aa1" target="_top" xlink:title="Get the world frame id.">
<polygon fill="white" stroke="#666666" points="665,-587.5 472,-587.5 472,-546.5 665,-546.5 665,-587.5"/>
<text text-anchor="start" x="480" y="-575.5" font-family="Helvetica,sans-Serif" font-size="10.00">iii_drone::control</text>
<text text-anchor="start" x="480" y="-564.5" font-family="Helvetica,sans-Serif" font-size="10.00">::CombinedDroneAwarenessHandler</text>
<text text-anchor="middle" x="568.5" y="-553.5" font-family="Helvetica,sans-Serif" font-size="10.00">Parameters::world_frame_id</text>
</a>
</g>
</g>
<!-- Node3&#45;&gt;Node20 -->
<g id="edge19_Node000003_Node000020" class="edge">
<title>Node3&#45;&gt;Node20</title>
<g id="a_edge19_Node000003_Node000020"><a xlink:title=" ">
<path fill="none" stroke="#63b8ff" d="M424.06,-425.73C428.34,-428.45 432.37,-431.53 436,-435 470.75,-468.22 437.42,-503.61 472,-537 473.13,-538.09 474.31,-539.15 475.51,-540.16"/>
<polygon fill="#63b8ff" stroke="#63b8ff" points="473.81,-543.25 483.95,-546.33 477.94,-537.6 473.81,-543.25"/>
</a>
</g>
</g>
<!-- Node5 -->
<g id="Node000005" class="node">
<title>Node5</title>
<g id="a_Node000005"><a xlink:href="namespaceiii__drone_1_1math.html#af8c96a0fa3940e1034c8db8425586ba8" target="_top" xlink:title=" ">
<polygon fill="white" stroke="#666666" points="849.5,-490.5 702.5,-490.5 702.5,-471.5 849.5,-471.5 849.5,-490.5"/>
<text text-anchor="middle" x="776" y="-478.5" font-family="Helvetica,sans-Serif" font-size="10.00">iii_drone::math::quatToMat</text>
</a>
</g>
</g>
<!-- Node4&#45;&gt;Node5 -->
<g id="edge4_Node000004_Node000005" class="edge">
<title>Node4&#45;&gt;Node5</title>
<g id="a_edge4_Node000004_Node000005"><a xlink:title=" ">
<path fill="none" stroke="#63b8ff" d="M656.65,-499.43C672.29,-496.99 688.43,-494.48 703.57,-492.12"/>
<polygon fill="#63b8ff" stroke="#63b8ff" points="704.52,-495.52 713.86,-490.52 703.45,-488.6 704.52,-495.52"/>
</a>
</g>
</g>
<!-- Node6 -->
<g id="Node000006" class="node">
<title>Node6</title>
<g id="a_Node000006"><a xlink:href="namespaceiii__drone_1_1math.html#a7f61d7905e9118b077f713da7e65e8df" target="_top" xlink:title=" ">
<polygon fill="white" stroke="#666666" points="1032,-490.5 892,-490.5 892,-471.5 1032,-471.5 1032,-490.5"/>
<text text-anchor="middle" x="962" y="-478.5" font-family="Helvetica,sans-Serif" font-size="10.00">iii_drone::math::eulToMat</text>
</a>
</g>
</g>
<!-- Node5&#45;&gt;Node6 -->
<g id="edge5_Node000005_Node000006" class="edge">
<title>Node5&#45;&gt;Node6</title>
<g id="a_edge5_Node000005_Node000006"><a xlink:title=" ">
<path fill="none" stroke="#63b8ff" d="M849.72,-481C860.23,-481 871.08,-481 881.71,-481"/>
<polygon fill="#63b8ff" stroke="#63b8ff" points="881.81,-484.5 891.81,-481 881.81,-477.5 881.81,-484.5"/>
</a>
</g>
</g>
<!-- Node5&#45;&gt;Node7 -->
<g id="edge6_Node000005_Node000007" class="edge">
<title>Node5&#45;&gt;Node7</title>
<g id="a_edge6_Node000005_Node000007"><a xlink:title=" ">
<path fill="none" stroke="#63b8ff" d="M802.76,-471.48C817.69,-465.25 836.36,-456.2 851,-445 892.68,-413.12 930.32,-363.47 948.86,-337.02"/>
<polygon fill="#63b8ff" stroke="#63b8ff" points="951.81,-338.92 954.6,-328.7 946.04,-334.94 951.81,-338.92"/>
</a>
</g>
</g>
<!-- Node10 -->
<g id="Node000010" class="node">
<title>Node10</title>
<g id="a_Node000010"><a xlink:href="namespaceiii__drone_1_1types.html#a8215048242190c57b9ff2de3f1daba73" target="_top" xlink:title=" ">
<polygon fill="white" stroke="#666666" points="849.5,-388 702.5,-388 702.5,-358 849.5,-358 849.5,-388"/>
<text text-anchor="start" x="710.5" y="-376" font-family="Helvetica,sans-Serif" font-size="10.00">iii_drone::types::pointFrom</text>
<text text-anchor="middle" x="776" y="-365" font-family="Helvetica,sans-Serif" font-size="10.00">PointMsg</text>
</a>
</g>
</g>
<!-- Node9&#45;&gt;Node10 -->
<g id="edge9_Node000009_Node000010" class="edge">
<title>Node9&#45;&gt;Node10</title>
<g id="a_edge9_Node000009_Node000010"><a xlink:title=" ">
<path fill="none" stroke="#63b8ff" d="M641.66,-393.76C657.94,-391.23 675.35,-388.52 692.04,-385.92"/>
<polygon fill="#63b8ff" stroke="#63b8ff" points="692.97,-389.32 702.32,-384.32 691.9,-382.4 692.97,-389.32"/>
</a>
</g>
</g>
<!-- Node11 -->
<g id="Node000011" class="node">
<title>Node11</title>
<g id="a_Node000011"><a xlink:href="namespaceiii__drone_1_1types.html#ab684c4851f41301e938970679086de49" target="_top" xlink:title=" ">
<polygon fill="white" stroke="#666666" points="851,-436 701,-436 701,-406 851,-406 851,-436"/>
<text text-anchor="start" x="709" y="-424" font-family="Helvetica,sans-Serif" font-size="10.00">iii_drone::types::quaternion</text>
<text text-anchor="middle" x="776" y="-413" font-family="Helvetica,sans-Serif" font-size="10.00">FromQuaternionMsg</text>
</a>
</g>
</g>
<!-- Node9&#45;&gt;Node11 -->
<g id="edge10_Node000009_Node000011" class="edge">
<title>Node9&#45;&gt;Node11</title>
<g id="a_edge10_Node000009_Node000011"><a xlink:title=" ">
<path fill="none" stroke="#63b8ff" d="M641.66,-410.62C657.56,-411.86 674.53,-413.18 690.86,-414.45"/>
<polygon fill="#63b8ff" stroke="#63b8ff" points="690.68,-417.95 700.92,-415.23 691.23,-410.97 690.68,-417.95"/>
</a>
</g>
</g>
<!-- Node17 -->
<g id="Node000017" class="node">
<title>Node17</title>
<g id="a_Node000017"><a xlink:href="classiii__drone_1_1adapters_1_1SingleLineAdapter.html#a93dc5170f28f0b86439146049989ce60" target="_top" xlink:title="Converts to Pose msg.">
<polygon fill="white" stroke="#666666" points="831.5,-646.5 720.5,-646.5 720.5,-605.5 831.5,-605.5 831.5,-646.5"/>
<text text-anchor="start" x="728.5" y="-634.5" font-family="Helvetica,sans-Serif" font-size="10.00">iii_drone::adapters</text>
<text text-anchor="start" x="728.5" y="-623.5" font-family="Helvetica,sans-Serif" font-size="10.00">::SingleLineAdapter</text>
<text text-anchor="middle" x="776" y="-612.5" font-family="Helvetica,sans-Serif" font-size="10.00">::ToPoseMsg</text>
</a>
</g>
</g>
<!-- Node16&#45;&gt;Node17 -->
<g id="edge16_Node000016_Node000017" class="edge">
<title>Node16&#45;&gt;Node17</title>
<g id="a_edge16_Node000016_Node000017"><a xlink:title=" ">
<path fill="none" stroke="#63b8ff" d="M628.66,-626C654.2,-626 684.16,-626 710.29,-626"/>
<polygon fill="#63b8ff" stroke="#63b8ff" points="710.47,-629.5 720.47,-626 710.47,-622.5 710.47,-629.5"/>
</a>
</g>
</g>
<!-- Node18 -->
<g id="Node000018" class="node">
<title>Node18</title>
<g id="a_Node000018"><a xlink:href="namespaceiii__drone_1_1types.html#adf49c0d0a898eea29ad3e752a6712734" target="_top" xlink:title=" ">
<polygon fill="white" stroke="#666666" points="1033.5,-617 890.5,-617 890.5,-587 1033.5,-587 1033.5,-617"/>
<text text-anchor="start" x="898.5" y="-605" font-family="Helvetica,sans-Serif" font-size="10.00">iii_drone::types::pointMsg</text>
<text text-anchor="middle" x="962" y="-594" font-family="Helvetica,sans-Serif" font-size="10.00">FromPoint</text>
</a>
</g>
</g>
<!-- Node17&#45;&gt;Node18 -->
<g id="edge17_Node000017_Node000018" class="edge">
<title>Node17&#45;&gt;Node18</title>
<g id="a_edge17_Node000017_Node000018"><a xlink:title=" ">
<path fill="none" stroke="#63b8ff" d="M831.71,-618.86C846.97,-616.87 863.89,-614.67 880.31,-612.52"/>
<polygon fill="#63b8ff" stroke="#63b8ff" points="880.99,-615.97 890.45,-611.2 880.09,-609.02 880.99,-615.97"/>
</a>
</g>
</g>
<!-- Node19 -->
<g id="Node000019" class="node">
<title>Node19</title>
<g id="a_Node000019"><a xlink:href="namespaceiii__drone_1_1types.html#a345601fdf3366d6af6d7c2003d74275b" target="_top" xlink:title=" ">
<polygon fill="white" stroke="#666666" points="1037,-665 887,-665 887,-635 1037,-635 1037,-665"/>
<text text-anchor="start" x="895" y="-653" font-family="Helvetica,sans-Serif" font-size="10.00">iii_drone::types::quaternion</text>
<text text-anchor="middle" x="962" y="-642" font-family="Helvetica,sans-Serif" font-size="10.00">MsgFromQuaternion</text>
</a>
</g>
</g>
<!-- Node17&#45;&gt;Node19 -->
<g id="edge18_Node000017_Node000019" class="edge">
<title>Node17&#45;&gt;Node19</title>
<g id="a_edge18_Node000017_Node000019"><a xlink:title=" ">
<path fill="none" stroke="#63b8ff" d="M831.71,-633.14C845.87,-634.98 861.46,-637.02 876.75,-639.01"/>
<polygon fill="#63b8ff" stroke="#63b8ff" points="876.38,-642.49 886.75,-640.31 877.28,-635.55 876.38,-642.49"/>
</a>
</g>
</g>
<!-- Node22 -->
<g id="Node000022" class="node">
<title>Node22</title>
<g id="a_Node000022"><a xlink:href="namespaceiii__drone_1_1types.html#a697d4ff4e536df203d0c6acf6daf0751" target="_top" xlink:title=" ">
<polygon fill="white" stroke="#666666" points="851,-144 701,-144 701,-114 851,-114 851,-144"/>
<text text-anchor="start" x="709" y="-132" font-family="Helvetica,sans-Serif" font-size="10.00">iii_drone::types::quaternion</text>
<text text-anchor="middle" x="776" y="-121" font-family="Helvetica,sans-Serif" font-size="10.00">FromTransformMatrix</text>
</a>
</g>
</g>
<!-- Node21&#45;&gt;Node22 -->
<g id="edge21_Node000021_Node000022" class="edge">
<title>Node21&#45;&gt;Node22</title>
<g id="a_edge21_Node000021_Node000022"><a xlink:title=" ">
<path fill="none" stroke="#63b8ff" d="M641.66,-129C657.56,-129 674.53,-129 690.86,-129"/>
<polygon fill="#63b8ff" stroke="#63b8ff" points="690.92,-132.5 700.92,-129 690.92,-125.5 690.92,-132.5"/>
</a>
</g>
</g>
<!-- Node23 -->
<g id="Node000023" class="node">
<title>Node23</title>
<g id="a_Node000023"><a xlink:href="namespaceiii__drone_1_1math.html#af4cd05fd620f368b776def1c899e2f17" target="_top" xlink:title=" ">
<polygon fill="white" stroke="#666666" points="1036.5,-138.5 887.5,-138.5 887.5,-119.5 1036.5,-119.5 1036.5,-138.5"/>
<text text-anchor="middle" x="962" y="-126.5" font-family="Helvetica,sans-Serif" font-size="10.00">iii_drone::math::matToQuat</text>
</a>
</g>
</g>
<!-- Node22&#45;&gt;Node23 -->
<g id="edge22_Node000022_Node000023" class="edge">
<title>Node22&#45;&gt;Node23</title>
<g id="a_edge22_Node000022_Node000023"><a xlink:title=" ">
<path fill="none" stroke="#63b8ff" d="M851.04,-129C859.66,-129 868.49,-129 877.22,-129"/>
<polygon fill="#63b8ff" stroke="#63b8ff" points="877.41,-132.5 887.41,-129 877.41,-125.5 877.41,-132.5"/>
</a>
</g>
</g>
<!-- Node25&#45;&gt;Node21 -->
<g id="edge26_Node000025_Node000021" class="edge">
<title>Node25&#45;&gt;Node21</title>
<g id="a_edge26_Node000025_Node000021"><a xlink:title=" ">
<path fill="none" stroke="#63b8ff" d="M436.09,-116.46C452.41,-118.01 469.16,-119.61 485.02,-121.13"/>
<polygon fill="#63b8ff" stroke="#63b8ff" points="485,-124.64 495.29,-122.11 485.67,-117.67 485,-124.64"/>
</a>
</g>
</g>
<!-- Node25&#45;&gt;Node24 -->
<g id="edge27_Node000025_Node000024" class="edge">
<title>Node25&#45;&gt;Node24</title>
<g id="a_edge27_Node000025_Node000024"><a xlink:title=" ">
<path fill="none" stroke="#63b8ff" d="M436.09,-95.82C460.95,-93.02 486.83,-90.1 508.99,-87.6"/>
<polygon fill="#63b8ff" stroke="#63b8ff" points="509.67,-91.05 519.21,-86.45 508.89,-84.09 509.67,-91.05"/>
</a>
</g>
</g>
</g>
</svg>
