<?xml version="1.0" encoding="UTF-8" standalone="no"?>
<!DOCTYPE svg PUBLIC "-//W3C//DTD SVG 1.1//EN"
 "http://www.w3.org/Graphics/SVG/1.1/DTD/svg11.dtd">
<!-- Generated by graphviz version 2.43.0 (0)
 -->
<!-- Title: iii_drone::utils::History::full Pages: 1 -->
<!--zoomable 238 -->

<svg id="main" version="1.1" xmlns="http://www.w3.org/2000/svg" xmlns:xlink="http://www.w3.org/1999/xlink" xml:space="preserve" onload="init(evt)">
<style type="text/css"><![CDATA[
.node, .edge {opacity: 0.7;}
.node.selected, .edge.selected {opacity: 1;}
.edge:hover path { stroke: red; }
.edge:hover polygon { stroke: red; fill: red; }
]]></style>

<defs>
  <circle id="rim" cx="0" cy="0" r="7"/>
  <circle id="rim2" cx="0" cy="0" r="3.5"/>
  <g id="zoomPlus">
    <use xlink:href="#rim" fill="#404040"><set attributeName="fill" to="#808080" begin="zoomplus.mouseover" end="zoomplus.mouseout"/></use>
    <path d="M-4,0h8M0,-4v8" fill="none" stroke="white" stroke-width="1.5" pointer-events="none"/>
  </g>
  <g id="zoomMin">
    <use xlink:href="#rim" fill="#404040"><set attributeName="fill" to="#808080" begin="zoomminus.mouseover" end="zoomminus.mouseout"/></use>
    <path d="M-4,0h8" fill="none" stroke="white" stroke-width="1.5" pointer-events="none"/>
  </g>
  <g id="arrowUp" transform="translate(30 24)">
    <use xlink:href="#rim"/>
    <path pointer-events="none" fill="none" stroke="white" stroke-width="1.5" d="M0,-3.0v7 M-2.5,-0.5L0,-3.0L2.5,-0.5"/>
  </g>
  <g id="arrowRight" transform="rotate(90) translate(36 -43)">
    <use xlink:href="#rim"/>
    <path pointer-events="none" fill="none" stroke="white" stroke-width="1.5" d="M0,-3.0v7 M-2.5,-0.5L0,-3.0L2.5,-0.5"/>
  </g>
  <g id="arrowDown" transform="rotate(180) translate(-30 -48)">
    <use xlink:href="#rim"/>
    <path pointer-events="none" fill="none" stroke="white" stroke-width="1.5" d="M0,-3.0v7 M-2.5,-0.5L0,-3.0L2.5,-0.5"/>
  </g>
  <g id="arrowLeft" transform="rotate(270) translate(-36 17)">
    <use xlink:href="#rim"/>
    <path pointer-events="none" fill="none" stroke="white" stroke-width="1.5" d="M0,-3.0v7 M-2.5,-0.5L0,-3.0L2.5,-0.5"/>
  </g>
  <g id="resetDef">
    <use xlink:href="#rim2" fill="#404040"><set attributeName="fill" to="#808080" begin="reset.mouseover" end="reset.mouseout"/></use>
  </g>
</defs>
<script type="application/ecmascript">
var viewWidth = 787;
var viewHeight = 238;
var sectionId = 'dynsection-5';
</script>
<script type="application/ecmascript" xlink:href="svg.min.js"/>
<svg id="graph" class="graph">
<g id="viewport">
<title>iii_drone::utils::History::full</title>
<!-- Node1 -->
<g id="Node000001" class="node">
<title>Node1</title>
<g id="a_Node000001"><a xlink:title="Returns true if the history is full.">
<polygon fill="#999999" stroke="#666666" points="779,-121.5 652,-121.5 652,-91.5 779,-91.5 779,-121.5"/>
<text text-anchor="start" x="660" y="-109.5" font-family="Helvetica,sans-Serif" font-size="10.00">iii_drone::utils::History</text>
<text text-anchor="middle" x="715.5" y="-98.5" font-family="Helvetica,sans-Serif" font-size="10.00">::full</text>
</a>
</g>
</g>
<!-- Node2 -->
<g id="Node000002" class="node">
<title>Node2</title>
<g id="a_Node000002"><a xlink:href="classiii__drone_1_1perception_1_1PowerlineDirection.html#a1f751f8f0562b55f31d42142c6b55ffc" target="_top" xlink:title="Runs the Kalman Filter predict step from a drone quaternion.">
<polygon fill="white" stroke="#666666" points="593.5,-218 477.5,-218 477.5,-177 593.5,-177 593.5,-218"/>
<text text-anchor="start" x="485.5" y="-206" font-family="Helvetica,sans-Serif" font-size="10.00">iii_drone::perception</text>
<text text-anchor="start" x="485.5" y="-195" font-family="Helvetica,sans-Serif" font-size="10.00">::PowerlineDirection</text>
<text text-anchor="middle" x="535.5" y="-184" font-family="Helvetica,sans-Serif" font-size="10.00">::Predict</text>
</a>
</g>
</g>
<!-- Node1&#45;&gt;Node2 -->
<g id="edge1_Node000001_Node000002" class="edge">
<title>Node1&#45;&gt;Node2</title>
<g id="a_edge1_Node000001_Node000002"><a xlink:title=" ">
<path fill="none" stroke="#63b8ff" d="M678.12,-126.61C659.63,-136.69 636.74,-148.97 616,-159.5 604.54,-165.32 592.04,-171.41 580.42,-176.97"/>
<polygon fill="#63b8ff" stroke="#63b8ff" points="680,-129.57 687.09,-121.7 676.63,-123.43 680,-129.57"/>
</a>
</g>
</g>
<!-- Node5 -->
<g id="Node000005" class="node">
<title>Node5</title>
<g id="a_Node000005"><a xlink:href="classiii__drone_1_1perception_1_1Powerline.html#ac0f0ef699ab1cca6ab024e2f9549ce8e" target="_top" xlink:title="Updates the powerline direction and updates the projection plane.">
<polygon fill="white" stroke="#666666" points="613.5,-150.5 457.5,-150.5 457.5,-120.5 613.5,-120.5 613.5,-150.5"/>
<text text-anchor="start" x="465.5" y="-138.5" font-family="Helvetica,sans-Serif" font-size="10.00">iii_drone::perception</text>
<text text-anchor="middle" x="535.5" y="-127.5" font-family="Helvetica,sans-Serif" font-size="10.00">::Powerline::UpdateDirection</text>
</a>
</g>
</g>
<!-- Node1&#45;&gt;Node5 -->
<g id="edge4_Node000001_Node000005" class="edge">
<title>Node1&#45;&gt;Node5</title>
<g id="a_edge4_Node000001_Node000005"><a xlink:title=" ">
<path fill="none" stroke="#63b8ff" d="M641.96,-118.32C632.6,-119.84 622.98,-121.41 613.55,-122.95"/>
<polygon fill="#63b8ff" stroke="#63b8ff" points="642.69,-121.75 651.99,-116.68 641.56,-114.84 642.69,-121.75"/>
</a>
</g>
</g>
<!-- Node8 -->
<g id="Node000008" class="node">
<title>Node8</title>
<g id="a_Node000008"><a xlink:href="classiii__drone_1_1perception_1_1Powerline.html#a287872d7937bc69956dbeb938aff884e" target="_top" xlink:title="Updates from a point. If match is found, runs the Kalman Filter update step for the matching line,...">
<polygon fill="white" stroke="#666666" points="601.5,-97.5 469.5,-97.5 469.5,-67.5 601.5,-67.5 601.5,-97.5"/>
<text text-anchor="start" x="477.5" y="-85.5" font-family="Helvetica,sans-Serif" font-size="10.00">iii_drone::perception</text>
<text text-anchor="middle" x="535.5" y="-74.5" font-family="Helvetica,sans-Serif" font-size="10.00">::Powerline::UpdateLine</text>
</a>
</g>
</g>
<!-- Node1&#45;&gt;Node8 -->
<g id="edge7_Node000001_Node000008" class="edge">
<title>Node1&#45;&gt;Node8</title>
<g id="a_edge7_Node000001_Node000008"><a xlink:title=" ">
<path fill="none" stroke="#63b8ff" d="M641.9,-96.71C628.55,-94.91 614.69,-93.04 601.57,-91.27"/>
<polygon fill="#63b8ff" stroke="#63b8ff" points="641.62,-100.2 651.99,-98.07 642.55,-93.27 641.62,-100.2"/>
</a>
</g>
</g>
<!-- Node10 -->
<g id="Node000010" class="node">
<title>Node10</title>
<g id="a_Node000010"><a xlink:href="classiii__drone_1_1perception_1_1Powerline.html#ae0f6a983c3039c6a41bda6258ec2b70d" target="_top" xlink:title="Updates the powerline from odometry.">
<polygon fill="white" stroke="#666666" points="616,-44.5 455,-44.5 455,-14.5 616,-14.5 616,-44.5"/>
<text text-anchor="start" x="463" y="-32.5" font-family="Helvetica,sans-Serif" font-size="10.00">iii_drone::perception</text>
<text text-anchor="middle" x="535.5" y="-21.5" font-family="Helvetica,sans-Serif" font-size="10.00">::Powerline::UpdateOdometry</text>
</a>
</g>
</g>
<!-- Node1&#45;&gt;Node10 -->
<g id="edge10_Node000001_Node000010" class="edge">
<title>Node1&#45;&gt;Node10</title>
<g id="a_edge10_Node000001_Node000010"><a xlink:title=" ">
<path fill="none" stroke="#63b8ff" d="M676.48,-86.83C658.37,-77.76 636.28,-67.11 616,-58.5 604.64,-53.68 592.18,-48.9 580.56,-44.65"/>
<polygon fill="#63b8ff" stroke="#63b8ff" points="675.05,-90.03 685.56,-91.41 678.21,-83.78 675.05,-90.03"/>
</a>
</g>
</g>
<!-- Node3 -->
<g id="Node000003" class="node">
<title>Node3</title>
<g id="a_Node000003"><a xlink:href="classiii__drone_1_1perception_1_1pl__dir__computer__node_1_1PowerlineDirectionComputerNode.html#ab34c86cec88426267f792caac6bbedee" target="_top" xlink:title="Callback function for the odometry timer.">
<polygon fill="white" stroke="#666666" points="419,-229.5 231,-229.5 231,-177.5 419,-177.5 419,-229.5"/>
<text text-anchor="start" x="239" y="-217.5" font-family="Helvetica,sans-Serif" font-size="10.00">iii_drone::perception</text>
<text text-anchor="start" x="239" y="-206.5" font-family="Helvetica,sans-Serif" font-size="10.00">::pl_dir_computer_node</text>
<text text-anchor="start" x="239" y="-195.5" font-family="Helvetica,sans-Serif" font-size="10.00">::PowerlineDirectionComputerNode</text>
<text text-anchor="middle" x="325" y="-184.5" font-family="Helvetica,sans-Serif" font-size="10.00">::odometryCallback</text>
</a>
</g>
</g>
<!-- Node2&#45;&gt;Node3 -->
<g id="edge2_Node000002_Node000003" class="edge">
<title>Node2&#45;&gt;Node3</title>
<g id="a_edge2_Node000002_Node000003"><a xlink:title=" ">
<path fill="none" stroke="#63b8ff" d="M466.92,-199.44C451.69,-199.88 435.26,-200.36 419.19,-200.82"/>
<polygon fill="#63b8ff" stroke="#63b8ff" points="467.36,-202.93 477.25,-199.15 467.15,-195.94 467.36,-202.93"/>
</a>
</g>
</g>
<!-- Node4 -->
<g id="Node000004" class="node">
<title>Node4</title>
<g id="a_Node000004"><a xlink:href="classiii__drone_1_1perception_1_1pl__dir__computer__node_1_1PowerlineDirectionComputerNode.html#a7d69d952785cf09e8cd381bd624480f2" target="_top" xlink:title="Construct a new Powerline Direction Computer Node object.">
<polygon fill="white" stroke="#666666" points="191.5,-229.5 3.5,-229.5 3.5,-177.5 191.5,-177.5 191.5,-229.5"/>
<text text-anchor="start" x="11.5" y="-217.5" font-family="Helvetica,sans-Serif" font-size="10.00">iii_drone::perception</text>
<text text-anchor="start" x="11.5" y="-206.5" font-family="Helvetica,sans-Serif" font-size="10.00">::pl_dir_computer_node</text>
<text text-anchor="start" x="11.5" y="-195.5" font-family="Helvetica,sans-Serif" font-size="10.00">::PowerlineDirectionComputerNode</text>
<text text-anchor="middle" x="97.5" y="-184.5" font-family="Helvetica,sans-Serif" font-size="10.00">::PowerlineDirectionComputerNode</text>
</a>
</g>
</g>
<!-- Node3&#45;&gt;Node4 -->
<g id="edge3_Node000003_Node000004" class="edge">
<title>Node3&#45;&gt;Node4</title>
<g id="a_edge3_Node000003_Node000004"><a xlink:title=" ">
<path fill="none" stroke="#63b8ff" d="M220.88,-203.5C211.14,-203.5 201.31,-203.5 191.67,-203.5"/>
<polygon fill="#63b8ff" stroke="#63b8ff" points="220.98,-207 230.98,-203.5 220.98,-200 220.98,-207"/>
</a>
</g>
</g>
<!-- Node6 -->
<g id="Node000006" class="node">
<title>Node6</title>
<g id="a_Node000006"><a xlink:href="classiii__drone_1_1perception_1_1pl__mapper__node_1_1PowerlineMapperNode.html#a18e832f380107069f279ecf1203f3f16" target="_top" xlink:title="Callback for powerline direction topic.">
<polygon fill="white" stroke="#666666" points="415,-159 235,-159 235,-118 415,-118 415,-159"/>
<text text-anchor="start" x="243" y="-147" font-family="Helvetica,sans-Serif" font-size="10.00">iii_drone::perception</text>
<text text-anchor="start" x="243" y="-136" font-family="Helvetica,sans-Serif" font-size="10.00">::pl_mapper_node::Powerline</text>
<text text-anchor="middle" x="325" y="-125" font-family="Helvetica,sans-Serif" font-size="10.00">MapperNode::plDirectionCallback</text>
</a>
</g>
</g>
<!-- Node5&#45;&gt;Node6 -->
<g id="edge5_Node000005_Node000006" class="edge">
<title>Node5&#45;&gt;Node6</title>
<g id="a_edge5_Node000005_Node000006"><a xlink:title=" ">
<path fill="none" stroke="#63b8ff" d="M447.32,-136.75C436.65,-136.91 425.74,-137.06 415.05,-137.22"/>
<polygon fill="#63b8ff" stroke="#63b8ff" points="447.51,-140.25 457.45,-136.61 447.41,-133.25 447.51,-140.25"/>
</a>
</g>
</g>
<!-- Node7 -->
<g id="Node000007" class="node">
<title>Node7</title>
<g id="a_Node000007"><a xlink:href="classiii__drone_1_1perception_1_1pl__mapper__node_1_1PowerlineMapperNode.html#a703ae72ba683ae11154ce597b8bbad9d" target="_top" xlink:title="Constructor.">
<polygon fill="white" stroke="#666666" points="195,-100 0,-100 0,-59 195,-59 195,-100"/>
<text text-anchor="start" x="8" y="-88" font-family="Helvetica,sans-Serif" font-size="10.00">iii_drone::perception</text>
<text text-anchor="start" x="8" y="-77" font-family="Helvetica,sans-Serif" font-size="10.00">::pl_mapper_node::Powerline</text>
<text text-anchor="middle" x="97.5" y="-66" font-family="Helvetica,sans-Serif" font-size="10.00">MapperNode::PowerlineMapperNode</text>
</a>
</g>
</g>
<!-- Node6&#45;&gt;Node7 -->
<g id="edge6_Node000006_Node000007" class="edge">
<title>Node6&#45;&gt;Node7</title>
<g id="a_edge6_Node000006_Node000007"><a xlink:title=" ">
<path fill="none" stroke="#63b8ff" d="M235.75,-115.41C216.42,-110.35 196.08,-105.03 177.15,-100.08"/>
<polygon fill="#63b8ff" stroke="#63b8ff" points="234.89,-118.8 245.45,-117.95 236.66,-112.03 234.89,-118.8"/>
</a>
</g>
</g>
<!-- Node9 -->
<g id="Node000009" class="node">
<title>Node9</title>
<g id="a_Node000009"><a xlink:href="classiii__drone_1_1perception_1_1pl__mapper__node_1_1PowerlineMapperNode.html#a155acd1e412911b7e8cf989e949a2e2f" target="_top" xlink:title="Callback for mmwave data topic.">
<polygon fill="white" stroke="#666666" points="411.5,-100 238.5,-100 238.5,-59 411.5,-59 411.5,-100"/>
<text text-anchor="start" x="246.5" y="-88" font-family="Helvetica,sans-Serif" font-size="10.00">iii_drone::perception</text>
<text text-anchor="start" x="246.5" y="-77" font-family="Helvetica,sans-Serif" font-size="10.00">::pl_mapper_node::Powerline</text>
<text text-anchor="middle" x="325" y="-66" font-family="Helvetica,sans-Serif" font-size="10.00">MapperNode::mmWaveCallback</text>
</a>
</g>
</g>
<!-- Node8&#45;&gt;Node9 -->
<g id="edge8_Node000008_Node000009" class="edge">
<title>Node8&#45;&gt;Node9</title>
<g id="a_edge8_Node000008_Node000009"><a xlink:title=" ">
<path fill="none" stroke="#63b8ff" d="M459.37,-81.42C443.89,-81.2 427.48,-80.96 411.66,-80.73"/>
<polygon fill="#63b8ff" stroke="#63b8ff" points="459.34,-84.92 469.39,-81.56 459.44,-77.92 459.34,-84.92"/>
</a>
</g>
</g>
<!-- Node9&#45;&gt;Node7 -->
<g id="edge9_Node000009_Node000007" class="edge">
<title>Node9&#45;&gt;Node7</title>
<g id="a_edge9_Node000009_Node000007"><a xlink:title=" ">
<path fill="none" stroke="#63b8ff" d="M228.1,-79.5C217.26,-79.5 206.2,-79.5 195.34,-79.5"/>
<polygon fill="#63b8ff" stroke="#63b8ff" points="228.43,-83 238.43,-79.5 228.43,-76 228.43,-83"/>
</a>
</g>
</g>
<!-- Node11 -->
<g id="Node000011" class="node">
<title>Node11</title>
<g id="a_Node000011"><a xlink:href="classiii__drone_1_1perception_1_1pl__mapper__node_1_1PowerlineMapperNode.html#ae98c3a40fb32f1305c1528467205ba33" target="_top" xlink:title="Callback for fetching drone transform.">
<polygon fill="white" stroke="#666666" points="412,-41 238,-41 238,0 412,0 412,-41"/>
<text text-anchor="start" x="246" y="-29" font-family="Helvetica,sans-Serif" font-size="10.00">iii_drone::perception</text>
<text text-anchor="start" x="246" y="-18" font-family="Helvetica,sans-Serif" font-size="10.00">::pl_mapper_node::Powerline</text>
<text text-anchor="middle" x="325" y="-7" font-family="Helvetica,sans-Serif" font-size="10.00">MapperNode::odometryCallback</text>
</a>
</g>
</g>
<!-- Node10&#45;&gt;Node11 -->
<g id="edge11_Node000010_Node000011" class="edge">
<title>Node10&#45;&gt;Node11</title>
<g id="a_edge11_Node000010_Node000011"><a xlink:title=" ">
<path fill="none" stroke="#63b8ff" d="M444.58,-25.62C433.86,-25.16 422.93,-24.68 412.27,-24.22"/>
<polygon fill="#63b8ff" stroke="#63b8ff" points="444.64,-29.12 454.78,-26.06 444.94,-22.13 444.64,-29.12"/>
</a>
</g>
</g>
<!-- Node11&#45;&gt;Node7 -->
<g id="edge12_Node000011_Node000007" class="edge">
<title>Node11&#45;&gt;Node7</title>
<g id="a_edge12_Node000011_Node000007"><a xlink:title=" ">
<path fill="none" stroke="#63b8ff" d="M235.75,-43.59C216.42,-48.65 196.08,-53.97 177.15,-58.92"/>
<polygon fill="#63b8ff" stroke="#63b8ff" points="236.66,-46.97 245.45,-41.05 234.89,-40.2 236.66,-46.97"/>
</a>
</g>
</g>
</g>
</svg>

<g id="navigator" transform="translate(0 0)" fill="#404254">
  <rect fill="#f2f5e9" fill-opacity="0.5" stroke="#606060" stroke-width=".5" x="0" y="0" width="60" height="60"/>
  <use id="zoomplus" xlink:href="#zoomPlus" x="17" y="9" onmousedown="handleZoom(evt,'in')"/>
  <use id="zoomminus" xlink:href="#zoomMin" x="42" y="9" onmousedown="handleZoom(evt,'out')"/>
  <use id="reset" xlink:href="#resetDef" x="30" y="36" onmousedown="handleReset()"/>
   <use id="arrowup" xlink:href="#arrowUp" x="0" y="0" onmousedown="handlePan(0,-1)"/>
  <use id="arrowright" xlink:href="#arrowRight" x="0" y="0" onmousedown="handlePan(1,0)"/>
  <use id="arrowdown" xlink:href="#arrowDown" x="0" y="0" onmousedown="handlePan(0,1)"/>
  <use id="arrowleft" xlink:href="#arrowLeft" x="0" y="0" onmousedown="handlePan(-1,0)"/>
</g>
<svg viewBox="0 0 15 15" width="100%" height="30px" preserveAspectRatio="xMaxYMin meet">
 <g id="arrow_out" transform="scale(0.3 0.3)">
  <a xlink:href="classiii__drone_1_1utils_1_1History_ad80957391e0cd45d17f023760daf0350_icgraph_org.svg" target="_base">
   <rect id="button" ry="5" rx="5" y="6" x="6" height="38" width="38"
        fill="#f2f5e9" fill-opacity="0.5" stroke="#606060" stroke-width="1.0"/>
   <path id="arrow"
     d="M 11.500037,31.436501 C 11.940474,20.09759 22.043105,11.32322 32.158766,21.979434 L 37.068811,17.246167 C 37.068811,17.246167 37.088388,32 37.088388,32 L 22.160133,31.978069 C 22.160133,31.978069 26.997745,27.140456 26.997745,27.140456 C 18.528582,18.264221 13.291696,25.230495 11.500037,31.436501 z"
     style="fill:#404040;"/>
  </a>
 </g>
</svg>

<style type='text/css'>
<![CDATA[
[data-mouse-over-selected='false'] { opacity: 0.7; }
[data-mouse-over-selected='true']  { opacity: 1.0; }
]]>
</style>
<script type="application/ecmascript"><![CDATA[
document.addEventListener('DOMContentLoaded', (event) => {
  highlightEdges();
  highlightAdjacentNodes();
});
]]></script>
</svg>
