<?xml version="1.0" encoding="UTF-8" standalone="no"?>
<!DOCTYPE svg PUBLIC "-//W3C//DTD SVG 1.1//EN"
 "http://www.w3.org/Graphics/SVG/1.1/DTD/svg11.dtd">
<!-- Generated by graphviz version 2.43.0 (0)
 -->
<!-- Title: iii_drone::perception::hough_transformer_node::HoughTransformerNode::HoughTransformerNode Pages: 1 -->
<svg width="725pt" height="60pt"
 viewBox="0.00 0.00 725.00 60.00" xmlns="http://www.w3.org/2000/svg" xmlns:xlink="http://www.w3.org/1999/xlink">
<g id="graph0" class="graph" transform="scale(1 1) rotate(0) translate(4 56)">
<title>iii_drone::perception::hough_transformer_node::HoughTransformerNode::HoughTransformerNode</title>
<!-- Node1 -->
<g id="Node000001" class="node">
<title>Node1</title>
<g id="a_Node000001"><a xlink:title="Constructor.">
<polygon fill="#999999" stroke="#666666" points="145,-52 0,-52 0,0 145,0 145,-52"/>
<text text-anchor="start" x="8" y="-40" font-family="Helvetica,sans-Serif" font-size="10.00">iii_drone::perception</text>
<text text-anchor="start" x="8" y="-29" font-family="Helvetica,sans-Serif" font-size="10.00">::hough_transformer_node</text>
<text text-anchor="start" x="8" y="-18" font-family="Helvetica,sans-Serif" font-size="10.00">::HoughTransformerNode::</text>
<text text-anchor="middle" x="72.5" y="-7" font-family="Helvetica,sans-Serif" font-size="10.00">HoughTransformerNode</text>
</a>
</g>
</g>
<!-- Node2 -->
<g id="Node000002" class="node">
<title>Node2</title>
<g id="a_Node000002"><a xlink:href="classiii__drone_1_1perception_1_1hough__transformer__node_1_1HoughTransformerNode.html#aef600649063ab97845d2e6d8b65ff28b" target="_top" xlink:title="Callback function for the image topic.">
<polygon fill="white" stroke="#666666" points="326,-52 181,-52 181,0 326,0 326,-52"/>
<text text-anchor="start" x="189" y="-40" font-family="Helvetica,sans-Serif" font-size="10.00">iii_drone::perception</text>
<text text-anchor="start" x="189" y="-29" font-family="Helvetica,sans-Serif" font-size="10.00">::hough_transformer_node</text>
<text text-anchor="start" x="189" y="-18" font-family="Helvetica,sans-Serif" font-size="10.00">::HoughTransformerNode::</text>
<text text-anchor="middle" x="253.5" y="-7" font-family="Helvetica,sans-Serif" font-size="10.00">OnCameraMsg</text>
</a>
</g>
</g>
<!-- Node1&#45;&gt;Node2 -->
<g id="edge1_Node000001_Node000002" class="edge">
<title>Node1&#45;&gt;Node2</title>
<g id="a_edge1_Node000001_Node000002"><a xlink:title=" ">
<path fill="none" stroke="#63b8ff" d="M145.02,-26C153.49,-26 162.18,-26 170.78,-26"/>
<polygon fill="#63b8ff" stroke="#63b8ff" points="170.8,-29.5 180.8,-26 170.8,-22.5 170.8,-29.5"/>
</a>
</g>
</g>
<!-- Node3 -->
<g id="Node000003" class="node">
<title>Node3</title>
<g id="a_Node000003"><a xlink:href="classiii__drone_1_1perception_1_1HoughTransformer.html#ae2985861ff2375cf65841827824dcd7c" target="_top" xlink:title="Computes the hough lines direction angle from hough lines.">
<polygon fill="white" stroke="#666666" points="525,-46.5 362,-46.5 362,-5.5 525,-5.5 525,-46.5"/>
<text text-anchor="start" x="370" y="-34.5" font-family="Helvetica,sans-Serif" font-size="10.00">iii_drone::perception</text>
<text text-anchor="start" x="370" y="-23.5" font-family="Helvetica,sans-Serif" font-size="10.00">::HoughTransformer::Compute</text>
<text text-anchor="middle" x="443.5" y="-12.5" font-family="Helvetica,sans-Serif" font-size="10.00">Angle</text>
</a>
</g>
</g>
<!-- Node2&#45;&gt;Node3 -->
<g id="edge2_Node000002_Node000003" class="edge">
<title>Node2&#45;&gt;Node3</title>
<g id="a_edge2_Node000002_Node000003"><a xlink:title=" ">
<path fill="none" stroke="#63b8ff" d="M326.11,-26C334.54,-26 343.22,-26 351.87,-26"/>
<polygon fill="#63b8ff" stroke="#63b8ff" points="351.98,-29.5 361.98,-26 351.98,-22.5 351.98,-29.5"/>
</a>
</g>
</g>
<!-- Node4 -->
<g id="Node000004" class="node">
<title>Node4</title>
<g id="a_Node000004"><a xlink:href="classiii__drone_1_1perception_1_1HoughTransformer.html#ae8669233258083e9dee368a036531577" target="_top" xlink:title="Finds the index of the best hough line match.">
<polygon fill="white" stroke="#666666" points="717,-46.5 561,-46.5 561,-5.5 717,-5.5 717,-46.5"/>
<text text-anchor="start" x="569" y="-34.5" font-family="Helvetica,sans-Serif" font-size="10.00">iii_drone::perception</text>
<text text-anchor="start" x="569" y="-23.5" font-family="Helvetica,sans-Serif" font-size="10.00">::HoughTransformer::getBest</text>
<text text-anchor="middle" x="639" y="-12.5" font-family="Helvetica,sans-Serif" font-size="10.00">LineIndex</text>
</a>
</g>
</g>
<!-- Node3&#45;&gt;Node4 -->
<g id="edge3_Node000003_Node000004" class="edge">
<title>Node3&#45;&gt;Node4</title>
<g id="a_edge3_Node000003_Node000004"><a xlink:title=" ">
<path fill="none" stroke="#63b8ff" d="M525.16,-26C533.56,-26 542.14,-26 550.61,-26"/>
<polygon fill="#63b8ff" stroke="#63b8ff" points="550.88,-29.5 560.88,-26 550.88,-22.5 550.88,-29.5"/>
</a>
</g>
</g>
</g>
</svg>
