<?xml version="1.0" encoding="UTF-8" standalone="no"?>
<!DOCTYPE svg PUBLIC "-//W3C//DTD SVG 1.1//EN"
 "http://www.w3.org/Graphics/SVG/1.1/DTD/svg11.dtd">
<!-- Generated by graphviz version 2.43.0 (0)
 -->
<!-- Title: iii_drone::control::maneuver::ManeuverScheduler::maneuverCanExecute Pages: 1 -->
<svg width="1668pt" height="108pt"
 viewBox="0.00 0.00 1668.00 108.00" xmlns="http://www.w3.org/2000/svg" xmlns:xlink="http://www.w3.org/1999/xlink">
<g id="graph0" class="graph" transform="scale(1 1) rotate(0) translate(4 104)">
<title>iii_drone::control::maneuver::ManeuverScheduler::maneuverCanExecute</title>
<!-- Node1 -->
<g id="Node000001" class="node">
<title>Node1</title>
<g id="a_Node000001"><a xlink:title="Evaluates whether a maneuver can be executed given an awareness.">
<polygon fill="#999999" stroke="#666666" points="1660,-70 1485,-70 1485,-29 1660,-29 1660,-70"/>
<text text-anchor="start" x="1493" y="-58" font-family="Helvetica,sans-Serif" font-size="10.00">iii_drone::control</text>
<text text-anchor="start" x="1493" y="-47" font-family="Helvetica,sans-Serif" font-size="10.00">::maneuver::ManeuverScheduler</text>
<text text-anchor="middle" x="1572.5" y="-36" font-family="Helvetica,sans-Serif" font-size="10.00">::maneuverCanExecute</text>
</a>
</g>
</g>
<!-- Node2 -->
<g id="Node000002" class="node">
<title>Node2</title>
<g id="a_Node000002"><a xlink:href="classiii__drone_1_1control_1_1maneuver_1_1ManeuverScheduler.html#afff4234827a52c39b91b94ddda380a92" target="_top" xlink:title="Returns whether a given maneuver can immediately execute.">
<polygon fill="white" stroke="#666666" points="1228,-100 1053,-100 1053,-59 1228,-59 1228,-100"/>
<text text-anchor="start" x="1061" y="-88" font-family="Helvetica,sans-Serif" font-size="10.00">iii_drone::control</text>
<text text-anchor="start" x="1061" y="-77" font-family="Helvetica,sans-Serif" font-size="10.00">::maneuver::ManeuverScheduler</text>
<text text-anchor="middle" x="1140.5" y="-66" font-family="Helvetica,sans-Serif" font-size="10.00">::CanExecute</text>
</a>
</g>
</g>
<!-- Node1&#45;&gt;Node2 -->
<g id="edge1_Node000001_Node000002" class="edge">
<title>Node1&#45;&gt;Node2</title>
<g id="a_edge1_Node000001_Node000002"><a xlink:title=" ">
<path fill="none" stroke="#63b8ff" d="M1474.48,-56.27C1400.47,-61.43 1299.43,-68.48 1228.12,-73.46"/>
<polygon fill="#63b8ff" stroke="#63b8ff" points="1475.01,-59.74 1484.74,-55.55 1474.52,-52.76 1475.01,-59.74"/>
</a>
</g>
</g>
<!-- Node7 -->
<g id="Node000007" class="node">
<title>Node7</title>
<g id="a_Node000007"><a xlink:href="classiii__drone_1_1control_1_1maneuver_1_1ManeuverScheduler.html#a5c5c0d6419c85f15414b71453a47f69c" target="_top" xlink:title="Returns the expected combined drone awareness upon completion or failure of given maneuver type,...">
<polygon fill="white" stroke="#666666" points="1449,-46 1264,-46 1264,-5 1449,-5 1449,-46"/>
<text text-anchor="start" x="1272" y="-34" font-family="Helvetica,sans-Serif" font-size="10.00">iii_drone::control</text>
<text text-anchor="start" x="1272" y="-23" font-family="Helvetica,sans-Serif" font-size="10.00">::maneuver::ManeuverScheduler</text>
<text text-anchor="middle" x="1356.5" y="-12" font-family="Helvetica,sans-Serif" font-size="10.00">::ProjectExpectedAwarenessSingle</text>
</a>
</g>
</g>
<!-- Node1&#45;&gt;Node7 -->
<g id="edge6_Node000001_Node000007" class="edge">
<title>Node1&#45;&gt;Node7</title>
<g id="a_edge6_Node000001_Node000007"><a xlink:title=" ">
<path fill="none" stroke="#63b8ff" d="M1474.83,-38.66C1466.31,-37.7 1457.71,-36.74 1449.24,-35.79"/>
<polygon fill="#63b8ff" stroke="#63b8ff" points="1474.44,-42.14 1484.77,-39.77 1475.22,-35.18 1474.44,-42.14"/>
</a>
</g>
</g>
<!-- Node3 -->
<g id="Node000003" class="node">
<title>Node3</title>
<g id="a_Node000003"><a xlink:href="classiii__drone_1_1control_1_1maneuver_1_1ManeuverScheduler.html#acaa8f0628522b25bdd0c63dde8ee24f0" target="_top" xlink:title="Registers a maneuver with the maneuver scheduler. To be called from a maneuver server....">
<polygon fill="white" stroke="#666666" points="806,-70 631,-70 631,-29 806,-29 806,-70"/>
<text text-anchor="start" x="639" y="-58" font-family="Helvetica,sans-Serif" font-size="10.00">iii_drone::control</text>
<text text-anchor="start" x="639" y="-47" font-family="Helvetica,sans-Serif" font-size="10.00">::maneuver::ManeuverScheduler</text>
<text text-anchor="middle" x="718.5" y="-36" font-family="Helvetica,sans-Serif" font-size="10.00">::RegisterManeuver</text>
</a>
</g>
</g>
<!-- Node2&#45;&gt;Node3 -->
<g id="edge2_Node000002_Node000003" class="edge">
<title>Node2&#45;&gt;Node3</title>
<g id="a_edge2_Node000002_Node000003"><a xlink:title=" ">
<path fill="none" stroke="#63b8ff" d="M1042.64,-72.58C971.3,-67.49 875.11,-60.61 806.26,-55.7"/>
<polygon fill="#63b8ff" stroke="#63b8ff" points="1042.76,-76.1 1052.98,-73.32 1043.26,-69.12 1042.76,-76.1"/>
</a>
</g>
</g>
<!-- Node4 -->
<g id="Node000004" class="node">
<title>Node4</title>
<g id="a_Node000004"><a xlink:href="classiii__drone_1_1control_1_1maneuver_1_1ManeuverScheduler.html#ab393b4204a5c4368ee503e9af8b27a22" target="_top" xlink:title="Registers a maneuver type with a maneuver server.">
<polygon fill="white" stroke="#666666" points="595,-70 420,-70 420,-29 595,-29 595,-70"/>
<text text-anchor="start" x="428" y="-58" font-family="Helvetica,sans-Serif" font-size="10.00">iii_drone::control</text>
<text text-anchor="start" x="428" y="-47" font-family="Helvetica,sans-Serif" font-size="10.00">::maneuver::ManeuverScheduler</text>
<text text-anchor="middle" x="507.5" y="-36" font-family="Helvetica,sans-Serif" font-size="10.00">::RegisterManeuverServer</text>
</a>
</g>
</g>
<!-- Node3&#45;&gt;Node4 -->
<g id="edge3_Node000003_Node000004" class="edge">
<title>Node3&#45;&gt;Node4</title>
<g id="a_edge3_Node000003_Node000004"><a xlink:title=" ">
<path fill="none" stroke="#63b8ff" d="M620.97,-49.5C612.41,-49.5 603.77,-49.5 595.29,-49.5"/>
<polygon fill="#63b8ff" stroke="#63b8ff" points="620.98,-53 630.98,-49.5 620.98,-46 620.98,-53"/>
</a>
</g>
</g>
<!-- Node5 -->
<g id="Node000005" class="node">
<title>Node5</title>
<g id="a_Node000005"><a xlink:href="classiii__drone_1_1control_1_1maneuver__controller__node_1_1ManeuverControllerNode.html#a1c587895df3c61bd6b748e97942cd619" target="_top" xlink:title="Creates and registers all maneuver servers with the maneuver scheduler.">
<polygon fill="white" stroke="#666666" points="384,-75.5 210,-75.5 210,-23.5 384,-23.5 384,-75.5"/>
<text text-anchor="start" x="218" y="-63.5" font-family="Helvetica,sans-Serif" font-size="10.00">iii_drone::control</text>
<text text-anchor="start" x="218" y="-52.5" font-family="Helvetica,sans-Serif" font-size="10.00">::maneuver_controller</text>
<text text-anchor="start" x="218" y="-41.5" font-family="Helvetica,sans-Serif" font-size="10.00">_node::ManeuverControllerNode</text>
<text text-anchor="middle" x="297" y="-30.5" font-family="Helvetica,sans-Serif" font-size="10.00">::registerManeuverServers</text>
</a>
</g>
</g>
<!-- Node4&#45;&gt;Node5 -->
<g id="edge4_Node000004_Node000005" class="edge">
<title>Node4&#45;&gt;Node5</title>
<g id="a_edge4_Node000004_Node000005"><a xlink:title=" ">
<path fill="none" stroke="#63b8ff" d="M409.82,-49.5C401.21,-49.5 392.52,-49.5 384.01,-49.5"/>
<polygon fill="#63b8ff" stroke="#63b8ff" points="409.89,-53 419.89,-49.5 409.89,-46 409.89,-53"/>
</a>
</g>
</g>
<!-- Node6 -->
<g id="Node000006" class="node">
<title>Node6</title>
<g id="a_Node000006"><a xlink:href="classiii__drone_1_1control_1_1maneuver__controller__node_1_1ManeuverControllerNode.html#a291f0abf320443ed6ad4a248ba028b8c" target="_top" xlink:title="Constructor. Creates the node, initializes the configurator, the transform buffer and listener,...">
<polygon fill="white" stroke="#666666" points="174,-75.5 0,-75.5 0,-23.5 174,-23.5 174,-75.5"/>
<text text-anchor="start" x="8" y="-63.5" font-family="Helvetica,sans-Serif" font-size="10.00">iii_drone::control</text>
<text text-anchor="start" x="8" y="-52.5" font-family="Helvetica,sans-Serif" font-size="10.00">::maneuver_controller</text>
<text text-anchor="start" x="8" y="-41.5" font-family="Helvetica,sans-Serif" font-size="10.00">_node::ManeuverControllerNode</text>
<text text-anchor="middle" x="87" y="-30.5" font-family="Helvetica,sans-Serif" font-size="10.00">::ManeuverControllerNode</text>
</a>
</g>
</g>
<!-- Node5&#45;&gt;Node6 -->
<g id="edge5_Node000005_Node000006" class="edge">
<title>Node5&#45;&gt;Node6</title>
<g id="a_edge5_Node000005_Node000006"><a xlink:title=" ">
<path fill="none" stroke="#63b8ff" d="M199.84,-49.5C191.23,-49.5 182.55,-49.5 174.04,-49.5"/>
<polygon fill="#63b8ff" stroke="#63b8ff" points="199.9,-53 209.9,-49.5 199.9,-46 199.9,-53"/>
</a>
</g>
</g>
<!-- Node8 -->
<g id="Node000008" class="node">
<title>Node8</title>
<g id="a_Node000008"><a xlink:href="classiii__drone_1_1control_1_1maneuver_1_1ManeuverScheduler.html#a506aad4bb58475a1f64148aec17c570f" target="_top" xlink:title="Returns the expected combined drone awareness upon completion or failure of given maneuver type,...">
<polygon fill="white" stroke="#666666" points="1228,-41 1053,-41 1053,0 1228,0 1228,-41"/>
<text text-anchor="start" x="1061" y="-29" font-family="Helvetica,sans-Serif" font-size="10.00">iii_drone::control</text>
<text text-anchor="start" x="1061" y="-18" font-family="Helvetica,sans-Serif" font-size="10.00">::maneuver::ManeuverScheduler</text>
<text text-anchor="middle" x="1140.5" y="-7" font-family="Helvetica,sans-Serif" font-size="10.00">::ProjectExpectedAwarenessFull</text>
</a>
</g>
</g>
<!-- Node7&#45;&gt;Node8 -->
<g id="edge7_Node000007_Node000008" class="edge">
<title>Node7&#45;&gt;Node8</title>
<g id="a_edge7_Node000007_Node000008"><a xlink:title=" ">
<path fill="none" stroke="#63b8ff" d="M1253.81,-23.12C1245.26,-22.92 1236.67,-22.72 1228.25,-22.53"/>
<polygon fill="#63b8ff" stroke="#63b8ff" points="1253.73,-26.62 1263.81,-23.36 1253.9,-19.63 1253.73,-26.62"/>
</a>
</g>
</g>
<!-- Node9 -->
<g id="Node000009" class="node">
<title>Node9</title>
<g id="a_Node000009"><a xlink:href="classiii__drone_1_1control_1_1maneuver_1_1ManeuverScheduler.html#a6b694f0329c16fecaf0395fc4ef3f597" target="_top" xlink:title="Returns whether a given maneuver can execute later.">
<polygon fill="white" stroke="#666666" points="1017,-46 842,-46 842,-5 1017,-5 1017,-46"/>
<text text-anchor="start" x="850" y="-34" font-family="Helvetica,sans-Serif" font-size="10.00">iii_drone::control</text>
<text text-anchor="start" x="850" y="-23" font-family="Helvetica,sans-Serif" font-size="10.00">::maneuver::ManeuverScheduler</text>
<text text-anchor="middle" x="929.5" y="-12" font-family="Helvetica,sans-Serif" font-size="10.00">::CanSchedule</text>
</a>
</g>
</g>
<!-- Node8&#45;&gt;Node9 -->
<g id="edge8_Node000008_Node000009" class="edge">
<title>Node8&#45;&gt;Node9</title>
<g id="a_edge8_Node000008_Node000009"><a xlink:title=" ">
<path fill="none" stroke="#63b8ff" d="M1042.97,-22.81C1034.41,-23.01 1025.77,-23.22 1017.29,-23.42"/>
<polygon fill="#63b8ff" stroke="#63b8ff" points="1043.07,-26.31 1052.98,-22.57 1042.9,-19.31 1043.07,-26.31"/>
</a>
</g>
</g>
<!-- Node9&#45;&gt;Node3 -->
<g id="edge9_Node000009_Node000003" class="edge">
<title>Node9&#45;&gt;Node3</title>
<g id="a_edge9_Node000009_Node000003"><a xlink:title=" ">
<path fill="none" stroke="#63b8ff" d="M831.97,-36.58C823.41,-37.57 814.77,-38.56 806.29,-39.53"/>
<polygon fill="#63b8ff" stroke="#63b8ff" points="832.45,-40.05 841.98,-35.43 831.65,-33.1 832.45,-40.05"/>
</a>
</g>
</g>
</g>
</svg>
