<?xml version="1.0" encoding="UTF-8" standalone="no"?>
<!DOCTYPE svg PUBLIC "-//W3C//DTD SVG 1.1//EN"
 "http://www.w3.org/Graphics/SVG/1.1/DTD/svg11.dtd">
<!-- Generated by graphviz version 2.43.0 (0)
 -->
<!-- Title: iii_drone::control::BehaviorState::current_maneuver Pages: 1 -->
<!--zoomable 142 -->

<svg id="main" version="1.1" xmlns="http://www.w3.org/2000/svg" xmlns:xlink="http://www.w3.org/1999/xlink" xml:space="preserve" onload="init(evt)">
<style type="text/css"><![CDATA[
.node, .edge {opacity: 0.7;}
.node.selected, .edge.selected {opacity: 1;}
.edge:hover path { stroke: red; }
.edge:hover polygon { stroke: red; fill: red; }
]]></style>

<defs>
  <circle id="rim" cx="0" cy="0" r="7"/>
  <circle id="rim2" cx="0" cy="0" r="3.5"/>
  <g id="zoomPlus">
    <use xlink:href="#rim" fill="#404040"><set attributeName="fill" to="#808080" begin="zoomplus.mouseover" end="zoomplus.mouseout"/></use>
    <path d="M-4,0h8M0,-4v8" fill="none" stroke="white" stroke-width="1.5" pointer-events="none"/>
  </g>
  <g id="zoomMin">
    <use xlink:href="#rim" fill="#404040"><set attributeName="fill" to="#808080" begin="zoomminus.mouseover" end="zoomminus.mouseout"/></use>
    <path d="M-4,0h8" fill="none" stroke="white" stroke-width="1.5" pointer-events="none"/>
  </g>
  <g id="arrowUp" transform="translate(30 24)">
    <use xlink:href="#rim"/>
    <path pointer-events="none" fill="none" stroke="white" stroke-width="1.5" d="M0,-3.0v7 M-2.5,-0.5L0,-3.0L2.5,-0.5"/>
  </g>
  <g id="arrowRight" transform="rotate(90) translate(36 -43)">
    <use xlink:href="#rim"/>
    <path pointer-events="none" fill="none" stroke="white" stroke-width="1.5" d="M0,-3.0v7 M-2.5,-0.5L0,-3.0L2.5,-0.5"/>
  </g>
  <g id="arrowDown" transform="rotate(180) translate(-30 -48)">
    <use xlink:href="#rim"/>
    <path pointer-events="none" fill="none" stroke="white" stroke-width="1.5" d="M0,-3.0v7 M-2.5,-0.5L0,-3.0L2.5,-0.5"/>
  </g>
  <g id="arrowLeft" transform="rotate(270) translate(-36 17)">
    <use xlink:href="#rim"/>
    <path pointer-events="none" fill="none" stroke="white" stroke-width="1.5" d="M0,-3.0v7 M-2.5,-0.5L0,-3.0L2.5,-0.5"/>
  </g>
  <g id="resetDef">
    <use xlink:href="#rim2" fill="#404040"><set attributeName="fill" to="#808080" begin="reset.mouseover" end="reset.mouseout"/></use>
  </g>
</defs>
<script type="application/ecmascript">
var viewWidth = 1140;
var viewHeight = 142;
var sectionId = 'dynsection-8';
</script>
<script type="application/ecmascript" xlink:href="svg.min.js"/>
<svg id="graph" class="graph">
<g id="viewport">
<title>iii_drone::control::BehaviorState::current_maneuver</title>
<!-- Node1 -->
<g id="Node000001" class="node">
<title>Node1</title>
<g id="a_Node000001"><a xlink:title="Get the current maneuver.">
<polygon fill="#999999" stroke="#666666" points="1132,-65.04 1000,-65.04 1000,-24.04 1132,-24.04 1132,-65.04"/>
<text text-anchor="start" x="1008" y="-53.04" font-family="Helvetica,sans-Serif" font-size="10.00">iii_drone::control</text>
<text text-anchor="start" x="1008" y="-42.04" font-family="Helvetica,sans-Serif" font-size="10.00">::BehaviorState::current</text>
<text text-anchor="middle" x="1066" y="-31.04" font-family="Helvetica,sans-Serif" font-size="10.00">_maneuver</text>
</a>
</g>
</g>
<!-- Node2 -->
<g id="Node000002" class="node">
<title>Node2</title>
<g id="a_Node000002"><a xlink:href="classiii__drone_1_1control_1_1BehaviorState.html#ae413bc1424de620b59ad39f17550cd59" target="_top" xlink:title="Get the behavior state of the drone.">
<polygon fill="white" stroke="#666666" points="781,-97.54 611,-97.54 611,-67.54 781,-67.54 781,-97.54"/>
<text text-anchor="start" x="619" y="-85.54" font-family="Helvetica,sans-Serif" font-size="10.00">iii_drone::control</text>
<text text-anchor="middle" x="696" y="-74.54" font-family="Helvetica,sans-Serif" font-size="10.00">::BehaviorState::behavior_state</text>
</a>
</g>
</g>
<!-- Node1&#45;&gt;Node2 -->
<g id="edge1_Node000001_Node000002" class="edge">
<title>Node1&#45;&gt;Node2</title>
<g id="a_edge1_Node000001_Node000002"><a xlink:title=" ">
<path fill="none" stroke="#63b8ff" d="M995.36,-67.77C984.95,-70.5 974.26,-72.89 964,-74.54 903.33,-84.29 833.94,-86.09 781.1,-85.56"/>
<polygon fill="#63b8ff" stroke="#63b8ff" points="996.52,-71.08 1005.24,-65.06 994.67,-64.33 996.52,-71.08"/>
</a>
</g>
</g>
<!-- Node5 -->
<g id="Node000005" class="node">
<title>Node5</title>
<g id="a_Node000005"><a xlink:href="classiii__drone_1_1control_1_1BehaviorState.html#ad608deaa322e450c9cfc95d6febcec84" target="_top" xlink:title="Returns the expected behavior state upon completion or failure of given maneuver type,...">
<polygon fill="white" stroke="#666666" points="373,-54.04 197,-54.04 197,-13.04 373,-13.04 373,-54.04"/>
<text text-anchor="start" x="205" y="-42.04" font-family="Helvetica,sans-Serif" font-size="10.00">iii_drone::control</text>
<text text-anchor="start" x="205" y="-31.04" font-family="Helvetica,sans-Serif" font-size="10.00">::BehaviorState::ProjectExpected</text>
<text text-anchor="middle" x="285" y="-20.04" font-family="Helvetica,sans-Serif" font-size="10.00">BehaviorState</text>
</a>
</g>
</g>
<!-- Node1&#45;&gt;Node5 -->
<g id="edge12_Node000001_Node000005" class="edge">
<title>Node1&#45;&gt;Node5</title>
<g id="a_edge12_Node000001_Node000005"><a xlink:title=" ">
<path fill="none" stroke="#63b8ff" d="M993.81,-21.43C983.89,-19 973.76,-16.92 964,-15.54 753.54,14.07 502.8,-7.02 373.21,-22.04"/>
<polygon fill="#63b8ff" stroke="#63b8ff" points="993.07,-24.86 1003.63,-23.97 994.82,-18.08 993.07,-24.86"/>
</a>
</g>
</g>
<!-- Node7 -->
<g id="Node000007" class="node">
<title>Node7</title>
<g id="a_Node000007"><a xlink:href="classiii__drone_1_1control_1_1BehaviorState.html#a631f3ff6ee982738366e0e730485a0c4" target="_top" xlink:title="Get whether a maneuver is being executed.">
<polygon fill="white" stroke="#666666" points="964,-65.04 817,-65.04 817,-24.04 964,-24.04 964,-65.04"/>
<text text-anchor="start" x="825" y="-53.04" font-family="Helvetica,sans-Serif" font-size="10.00">iii_drone::control</text>
<text text-anchor="start" x="825" y="-42.04" font-family="Helvetica,sans-Serif" font-size="10.00">::BehaviorState::maneuver</text>
<text text-anchor="middle" x="890.5" y="-31.04" font-family="Helvetica,sans-Serif" font-size="10.00">_executing</text>
</a>
</g>
</g>
<!-- Node1&#45;&gt;Node7 -->
<g id="edge10_Node000001_Node000007" class="edge">
<title>Node1&#45;&gt;Node7</title>
<g id="a_edge10_Node000001_Node000007"><a xlink:title=" ">
<path fill="none" stroke="#63b8ff" d="M989.69,-44.54C981.25,-44.54 972.66,-44.54 964.24,-44.54"/>
<polygon fill="#63b8ff" stroke="#63b8ff" points="989.9,-48.04 999.9,-44.54 989.9,-41.04 989.9,-48.04"/>
</a>
</g>
</g>
<!-- Node2&#45;&gt;Node2 -->
<g id="edge2_Node000002_Node000002" class="edge">
<title>Node2&#45;&gt;Node2</title>
<g id="a_edge2_Node000002_Node000002"><a xlink:title=" ">
<path fill="none" stroke="#63b8ff" d="M729.96,-108.14C725.32,-112.51 714,-115.54 696,-115.54 665.69,-115.54 654.32,-106.95 661.9,-97.82"/>
<polygon fill="#63b8ff" stroke="#63b8ff" points="733.46,-107.87 730.1,-97.82 726.46,-107.77 733.46,-107.87"/>
</a>
</g>
</g>
<!-- Node3 -->
<g id="Node000003" class="node">
<title>Node3</title>
<g id="a_Node000003"><a xlink:href="classiii__drone_1_1control_1_1BehaviorState.html#aedb61a6110864484c564c923e659d31f" target="_top" xlink:title="Returns the expected behavior state upon completion or failure of given maneuver type,...">
<polygon fill="white" stroke="#666666" points="362.5,-133.54 207.5,-133.54 207.5,-103.54 362.5,-103.54 362.5,-133.54"/>
<text text-anchor="start" x="215.5" y="-121.54" font-family="Helvetica,sans-Serif" font-size="10.00">iii_drone::control</text>
<text text-anchor="middle" x="285" y="-110.54" font-family="Helvetica,sans-Serif" font-size="10.00">::BehaviorState::CanExecute</text>
</a>
</g>
</g>
<!-- Node2&#45;&gt;Node3 -->
<g id="edge3_Node000002_Node000003" class="edge">
<title>Node2&#45;&gt;Node3</title>
<g id="a_edge3_Node000002_Node000003"><a xlink:title=" ">
<path fill="none" stroke="#63b8ff" d="M635.75,-100.15C616.55,-105.1 595.03,-109.87 575,-112.54 503.5,-122.1 421.17,-122.82 362.72,-121.61"/>
<polygon fill="#63b8ff" stroke="#63b8ff" points="636.79,-103.5 645.57,-97.55 635,-96.73 636.79,-103.5"/>
</a>
</g>
</g>
<!-- Node4 -->
<g id="Node000004" class="node">
<title>Node4</title>
<g id="a_Node000004"><a xlink:href="classiii__drone_1_1control_1_1BehaviorState.html#a7fbdc5d342e0058bf2d8ac24ce73d7b2" target="_top" xlink:title="Evaluates whether a maneuver can be executed given a behavior state.">
<polygon fill="white" stroke="#666666" points="575,-103.04 409,-103.04 409,-62.04 575,-62.04 575,-103.04"/>
<text text-anchor="start" x="417" y="-91.04" font-family="Helvetica,sans-Serif" font-size="10.00">iii_drone::control</text>
<text text-anchor="start" x="417" y="-80.04" font-family="Helvetica,sans-Serif" font-size="10.00">::BehaviorState::maneuverCan</text>
<text text-anchor="middle" x="492" y="-69.04" font-family="Helvetica,sans-Serif" font-size="10.00">Execute</text>
</a>
</g>
</g>
<!-- Node2&#45;&gt;Node4 -->
<g id="edge4_Node000002_Node000004" class="edge">
<title>Node2&#45;&gt;Node4</title>
<g id="a_edge4_Node000002_Node000004"><a xlink:title=" ">
<path fill="none" stroke="#63b8ff" d="M600.78,-82.54C592.21,-82.54 583.57,-82.54 575.12,-82.54"/>
<polygon fill="#63b8ff" stroke="#63b8ff" points="600.8,-86.04 610.8,-82.54 600.8,-79.04 600.8,-86.04"/>
</a>
</g>
</g>
<!-- Node2&#45;&gt;Node5 -->
<g id="edge9_Node000002_Node000005" class="edge">
<title>Node2&#45;&gt;Node5</title>
<g id="a_edge9_Node000002_Node000005"><a xlink:title=" ">
<path fill="none" stroke="#63b8ff" d="M631.46,-65.08C613.34,-60.68 593.5,-56.4 575,-53.54 507.65,-43.15 430.63,-38.16 373.05,-35.76"/>
<polygon fill="#63b8ff" stroke="#63b8ff" points="630.77,-68.52 641.32,-67.53 632.46,-61.73 630.77,-68.52"/>
</a>
</g>
</g>
<!-- Node4&#45;&gt;Node3 -->
<g id="edge5_Node000004_Node000003" class="edge">
<title>Node4&#45;&gt;Node3</title>
<g id="a_edge5_Node000004_Node000003"><a xlink:title=" ">
<path fill="none" stroke="#63b8ff" d="M398.71,-98.75C386.63,-100.87 374.35,-103.03 362.57,-105.1"/>
<polygon fill="#63b8ff" stroke="#63b8ff" points="399.56,-102.16 408.8,-96.98 398.35,-95.26 399.56,-102.16"/>
</a>
</g>
</g>
<!-- Node4&#45;&gt;Node5 -->
<g id="edge6_Node000004_Node000005" class="edge">
<title>Node4&#45;&gt;Node5</title>
<g id="a_edge6_Node000004_Node000005"><a xlink:title=" ">
<path fill="none" stroke="#63b8ff" d="M399.05,-60.57C390.02,-58.41 380.88,-56.22 371.91,-54.08"/>
<polygon fill="#63b8ff" stroke="#63b8ff" points="398.26,-63.98 408.8,-62.9 399.89,-57.17 398.26,-63.98"/>
</a>
</g>
</g>
<!-- Node5&#45;&gt;Node5 -->
<g id="edge8_Node000005_Node000005" class="edge">
<title>Node5&#45;&gt;Node5</title>
<g id="a_edge8_Node000005_Node000005"><a xlink:title=" ">
<path fill="none" stroke="#63b8ff" d="M320.1,-64C314.88,-68.78 303.18,-72.04 285,-72.04 255.91,-72.04 243.42,-63.7 247.51,-54.14"/>
<polygon fill="#63b8ff" stroke="#63b8ff" points="323.53,-64.68 322.49,-54.14 316.73,-63.03 323.53,-64.68"/>
</a>
</g>
</g>
<!-- Node6 -->
<g id="Node000006" class="node">
<title>Node6</title>
<g id="a_Node000006"><a xlink:href="classiii__drone_1_1control_1_1BehaviorState.html#ab4ed76614b4f7e6dd264d8006c4ddbea" target="_top" xlink:title="Returns whether a given maneuver can execute later.">
<polygon fill="white" stroke="#666666" points="161,-48.54 0,-48.54 0,-18.54 161,-18.54 161,-48.54"/>
<text text-anchor="start" x="8" y="-36.54" font-family="Helvetica,sans-Serif" font-size="10.00">iii_drone::control</text>
<text text-anchor="middle" x="80.5" y="-25.54" font-family="Helvetica,sans-Serif" font-size="10.00">::BehaviorState::CanSchedule</text>
</a>
</g>
</g>
<!-- Node5&#45;&gt;Node6 -->
<g id="edge7_Node000005_Node000006" class="edge">
<title>Node5&#45;&gt;Node6</title>
<g id="a_edge7_Node000005_Node000006"><a xlink:title=" ">
<path fill="none" stroke="#63b8ff" d="M186.86,-33.54C178.24,-33.54 169.58,-33.54 161.12,-33.54"/>
<polygon fill="#63b8ff" stroke="#63b8ff" points="186.95,-37.04 196.95,-33.54 186.95,-30.04 186.95,-37.04"/>
</a>
</g>
</g>
<!-- Node7&#45;&gt;Node2 -->
<g id="edge11_Node000007_Node000002" class="edge">
<title>Node7&#45;&gt;Node2</title>
<g id="a_edge11_Node000007_Node000002"><a xlink:title=" ">
<path fill="none" stroke="#63b8ff" d="M806.85,-60.86C795.71,-63.06 784.32,-65.31 773.29,-67.48"/>
<polygon fill="#63b8ff" stroke="#63b8ff" points="807.87,-64.23 817,-58.86 806.51,-57.36 807.87,-64.23"/>
</a>
</g>
</g>
</g>
</svg>

<g id="navigator" transform="translate(0 0)" fill="#404254">
  <rect fill="#f2f5e9" fill-opacity="0.5" stroke="#606060" stroke-width=".5" x="0" y="0" width="60" height="60"/>
  <use id="zoomplus" xlink:href="#zoomPlus" x="17" y="9" onmousedown="handleZoom(evt,'in')"/>
  <use id="zoomminus" xlink:href="#zoomMin" x="42" y="9" onmousedown="handleZoom(evt,'out')"/>
  <use id="reset" xlink:href="#resetDef" x="30" y="36" onmousedown="handleReset()"/>
   <use id="arrowup" xlink:href="#arrowUp" x="0" y="0" onmousedown="handlePan(0,-1)"/>
  <use id="arrowright" xlink:href="#arrowRight" x="0" y="0" onmousedown="handlePan(1,0)"/>
  <use id="arrowdown" xlink:href="#arrowDown" x="0" y="0" onmousedown="handlePan(0,1)"/>
  <use id="arrowleft" xlink:href="#arrowLeft" x="0" y="0" onmousedown="handlePan(-1,0)"/>
</g>
<svg viewBox="0 0 15 15" width="100%" height="30px" preserveAspectRatio="xMaxYMin meet">
 <g id="arrow_out" transform="scale(0.3 0.3)">
  <a xlink:href="classiii__drone_1_1control_1_1BehaviorState_a74a7c96bc968843d24044aa448d57055_icgraph_org.svg" target="_base">
   <rect id="button" ry="5" rx="5" y="6" x="6" height="38" width="38"
        fill="#f2f5e9" fill-opacity="0.5" stroke="#606060" stroke-width="1.0"/>
   <path id="arrow"
     d="M 11.500037,31.436501 C 11.940474,20.09759 22.043105,11.32322 32.158766,21.979434 L 37.068811,17.246167 C 37.068811,17.246167 37.088388,32 37.088388,32 L 22.160133,31.978069 C 22.160133,31.978069 26.997745,27.140456 26.997745,27.140456 C 18.528582,18.264221 13.291696,25.230495 11.500037,31.436501 z"
     style="fill:#404040;"/>
  </a>
 </g>
</svg>

<style type='text/css'>
<![CDATA[
[data-mouse-over-selected='false'] { opacity: 0.7; }
[data-mouse-over-selected='true']  { opacity: 1.0; }
]]>
</style>
<script type="application/ecmascript"><![CDATA[
document.addEventListener('DOMContentLoaded', (event) => {
  highlightEdges();
  highlightAdjacentNodes();
});
]]></script>
</svg>
