<?xml version="1.0" encoding="UTF-8" standalone="no"?>
<!DOCTYPE svg PUBLIC "-//W3C//DTD SVG 1.1//EN"
 "http://www.w3.org/Graphics/SVG/1.1/DTD/svg11.dtd">
<!-- Generated by graphviz version 2.43.0 (0)
 -->
<!-- Title: iii_drone::mission::continuous_mission_orchestrator_node::ContinuousMissionOrchestrator::isInControllableState Pages: 1 -->
<!--zoomable 638 -->

<svg id="main" version="1.1" xmlns="http://www.w3.org/2000/svg" xmlns:xlink="http://www.w3.org/1999/xlink" xml:space="preserve" onload="init(evt)">
<style type="text/css"><![CDATA[
.node, .edge {opacity: 0.7;}
.node.selected, .edge.selected {opacity: 1;}
.edge:hover path { stroke: red; }
.edge:hover polygon { stroke: red; fill: red; }
]]></style>

<defs>
  <circle id="rim" cx="0" cy="0" r="7"/>
  <circle id="rim2" cx="0" cy="0" r="3.5"/>
  <g id="zoomPlus">
    <use xlink:href="#rim" fill="#404040"><set attributeName="fill" to="#808080" begin="zoomplus.mouseover" end="zoomplus.mouseout"/></use>
    <path d="M-4,0h8M0,-4v8" fill="none" stroke="white" stroke-width="1.5" pointer-events="none"/>
  </g>
  <g id="zoomMin">
    <use xlink:href="#rim" fill="#404040"><set attributeName="fill" to="#808080" begin="zoomminus.mouseover" end="zoomminus.mouseout"/></use>
    <path d="M-4,0h8" fill="none" stroke="white" stroke-width="1.5" pointer-events="none"/>
  </g>
  <g id="arrowUp" transform="translate(30 24)">
    <use xlink:href="#rim"/>
    <path pointer-events="none" fill="none" stroke="white" stroke-width="1.5" d="M0,-3.0v7 M-2.5,-0.5L0,-3.0L2.5,-0.5"/>
  </g>
  <g id="arrowRight" transform="rotate(90) translate(36 -43)">
    <use xlink:href="#rim"/>
    <path pointer-events="none" fill="none" stroke="white" stroke-width="1.5" d="M0,-3.0v7 M-2.5,-0.5L0,-3.0L2.5,-0.5"/>
  </g>
  <g id="arrowDown" transform="rotate(180) translate(-30 -48)">
    <use xlink:href="#rim"/>
    <path pointer-events="none" fill="none" stroke="white" stroke-width="1.5" d="M0,-3.0v7 M-2.5,-0.5L0,-3.0L2.5,-0.5"/>
  </g>
  <g id="arrowLeft" transform="rotate(270) translate(-36 17)">
    <use xlink:href="#rim"/>
    <path pointer-events="none" fill="none" stroke="white" stroke-width="1.5" d="M0,-3.0v7 M-2.5,-0.5L0,-3.0L2.5,-0.5"/>
  </g>
  <g id="resetDef">
    <use xlink:href="#rim2" fill="#404040"><set attributeName="fill" to="#808080" begin="reset.mouseover" end="reset.mouseout"/></use>
  </g>
</defs>
<script type="application/ecmascript">
var viewWidth = 1018;
var viewHeight = 638;
var sectionId = 'dynsection-67';
</script>
<script type="application/ecmascript" xlink:href="svg.min.js"/>
<svg id="graph" class="graph">
<g id="viewport">
<title>iii_drone::mission::continuous_mission_orchestrator_node::ContinuousMissionOrchestrator::isInControllableState</title>
<!-- Node1 -->
<g id="Node000001" class="node">
<title>Node1</title>
<g id="a_Node000001"><a xlink:title=" ">
<polygon fill="#999999" stroke="#666666" points="1010,-340.5 787,-340.5 787,-288.5 1010,-288.5 1010,-340.5"/>
<text text-anchor="start" x="795" y="-328.5" font-family="Helvetica,sans-Serif" font-size="10.00">iii_drone::mission</text>
<text text-anchor="start" x="795" y="-317.5" font-family="Helvetica,sans-Serif" font-size="10.00">::continuous_mission</text>
<text text-anchor="start" x="795" y="-306.5" font-family="Helvetica,sans-Serif" font-size="10.00">_orchestrator_node::Continuous</text>
<text text-anchor="middle" x="898.5" y="-295.5" font-family="Helvetica,sans-Serif" font-size="10.00">MissionOrchestrator::isInControllableState</text>
</a>
</g>
</g>
<!-- Node1&#45;&gt;Node1 -->
<g id="edge1_Node000001_Node000001" class="edge">
<title>Node1&#45;&gt;Node1</title>
<g id="a_edge1_Node000001_Node000001"><a xlink:title=" ">
<path fill="none" stroke="#63b8ff" d="M943.49,-349.9C936.34,-355.04 921.34,-358.5 898.5,-358.5 863.69,-358.5 847.1,-350.46 848.73,-340.7"/>
<polygon fill="#63b8ff" stroke="#63b8ff" points="946.76,-351.19 948.27,-340.7 940.55,-347.96 946.76,-351.19"/>
</a>
</g>
</g>
<!-- Node2 -->
<g id="Node000002" class="node">
<title>Node2</title>
<g id="a_Node000002"><a xlink:href="classiii__drone_1_1mission_1_1continuous__mission__orchestrator__node_1_1ContinuousMissionOrchestrator.html#a4561aca1944c5e1ba3d803c004aba869" target="_top" xlink:title=" ">
<polygon fill="white" stroke="#666666" points="743.5,-630 521.5,-630 521.5,-567 743.5,-567 743.5,-630"/>
<text text-anchor="start" x="529.5" y="-618" font-family="Helvetica,sans-Serif" font-size="10.00">iii_drone::mission</text>
<text text-anchor="start" x="529.5" y="-607" font-family="Helvetica,sans-Serif" font-size="10.00">::continuous_mission</text>
<text text-anchor="start" x="529.5" y="-596" font-family="Helvetica,sans-Serif" font-size="10.00">_orchestrator_node::Continuous</text>
<text text-anchor="start" x="529.5" y="-585" font-family="Helvetica,sans-Serif" font-size="10.00">MissionOrchestrator::stateMachineArming</text>
<text text-anchor="middle" x="632.5" y="-574" font-family="Helvetica,sans-Serif" font-size="10.00">OnCable</text>
</a>
</g>
</g>
<!-- Node1&#45;&gt;Node2 -->
<g id="edge2_Node000001_Node000002" class="edge">
<title>Node1&#45;&gt;Node2</title>
<g id="a_edge2_Node000001_Node000002"><a xlink:title=" ">
<path fill="none" stroke="#63b8ff" d="M885.17,-350.32C865.16,-403.27 820.71,-502.23 751,-558.5 747.23,-561.55 743.21,-564.36 739.02,-566.97"/>
<polygon fill="#63b8ff" stroke="#63b8ff" points="888.55,-351.27 888.73,-340.68 881.98,-348.84 888.55,-351.27"/>
</a>
</g>
</g>
<!-- Node5 -->
<g id="Node000005" class="node">
<title>Node5</title>
<g id="a_Node000005"><a xlink:href="classiii__drone_1_1mission_1_1continuous__mission__orchestrator__node_1_1ContinuousMissionOrchestrator.html#af7c5486c9ef326fe3920e39b136982fd" target="_top" xlink:title=" ">
<polygon fill="white" stroke="#666666" points="744,-549 521,-549 521,-486 744,-486 744,-549"/>
<text text-anchor="start" x="529" y="-537" font-family="Helvetica,sans-Serif" font-size="10.00">iii_drone::mission</text>
<text text-anchor="start" x="529" y="-526" font-family="Helvetica,sans-Serif" font-size="10.00">::continuous_mission</text>
<text text-anchor="start" x="529" y="-515" font-family="Helvetica,sans-Serif" font-size="10.00">_orchestrator_node::Continuous</text>
<text text-anchor="start" x="529" y="-504" font-family="Helvetica,sans-Serif" font-size="10.00">MissionOrchestrator::stateMachineClosing</text>
<text text-anchor="middle" x="632.5" y="-493" font-family="Helvetica,sans-Serif" font-size="10.00">Gripper</text>
</a>
</g>
</g>
<!-- Node1&#45;&gt;Node5 -->
<g id="edge5_Node000001_Node000005" class="edge">
<title>Node1&#45;&gt;Node5</title>
<g id="a_edge5_Node000001_Node000005"><a xlink:title=" ">
<path fill="none" stroke="#63b8ff" d="M874.67,-348.99C848.74,-385.67 803.18,-443.06 751,-477.5 746.41,-480.53 741.58,-483.35 736.58,-485.97"/>
<polygon fill="#63b8ff" stroke="#63b8ff" points="877.68,-350.79 880.52,-340.59 871.93,-346.79 877.68,-350.79"/>
</a>
</g>
</g>
<!-- Node6 -->
<g id="Node000006" class="node">
<title>Node6</title>
<g id="a_Node000006"><a xlink:href="classiii__drone_1_1mission_1_1continuous__mission__orchestrator__node_1_1ContinuousMissionOrchestrator.html#a1adb6e0b0ad6192f1d46acc54ee68c73" target="_top" xlink:title=" ">
<polygon fill="white" stroke="#666666" points="751,-468 514,-468 514,-405 751,-405 751,-468"/>
<text text-anchor="start" x="522" y="-456" font-family="Helvetica,sans-Serif" font-size="10.00">iii_drone::mission</text>
<text text-anchor="start" x="522" y="-445" font-family="Helvetica,sans-Serif" font-size="10.00">::continuous_mission</text>
<text text-anchor="start" x="522" y="-434" font-family="Helvetica,sans-Serif" font-size="10.00">_orchestrator_node::Continuous</text>
<text text-anchor="start" x="522" y="-423" font-family="Helvetica,sans-Serif" font-size="10.00">MissionOrchestrator::stateMachineDisarming</text>
<text text-anchor="middle" x="632.5" y="-412" font-family="Helvetica,sans-Serif" font-size="10.00">OnCable</text>
</a>
</g>
</g>
<!-- Node1&#45;&gt;Node6 -->
<g id="edge7_Node000001_Node000006" class="edge">
<title>Node1&#45;&gt;Node6</title>
<g id="a_edge7_Node000001_Node000006"><a xlink:title=" ">
<path fill="none" stroke="#63b8ff" d="M846.89,-345.84C819.2,-362.21 783.91,-381.83 751,-396.5 744.5,-399.39 737.73,-402.21 730.86,-404.91"/>
<polygon fill="#63b8ff" stroke="#63b8ff" points="848.81,-348.77 855.61,-340.65 845.22,-342.76 848.81,-348.77"/>
</a>
</g>
</g>
<!-- Node7 -->
<g id="Node000007" class="node">
<title>Node7</title>
<g id="a_Node000007"><a xlink:href="classiii__drone_1_1mission_1_1continuous__mission__orchestrator__node_1_1ContinuousMissionOrchestrator.html#a793891d2f8615cd25b0ec0eae9b50013" target="_top" xlink:title=" ">
<polygon fill="white" stroke="#666666" points="741,-387 524,-387 524,-324 741,-324 741,-387"/>
<text text-anchor="start" x="532" y="-375" font-family="Helvetica,sans-Serif" font-size="10.00">iii_drone::mission</text>
<text text-anchor="start" x="532" y="-364" font-family="Helvetica,sans-Serif" font-size="10.00">::continuous_mission</text>
<text text-anchor="start" x="532" y="-353" font-family="Helvetica,sans-Serif" font-size="10.00">_orchestrator_node::Continuous</text>
<text text-anchor="start" x="532" y="-342" font-family="Helvetica,sans-Serif" font-size="10.00">MissionOrchestrator::stateMachineFlying</text>
<text text-anchor="middle" x="632.5" y="-331" font-family="Helvetica,sans-Serif" font-size="10.00">UnderCable</text>
</a>
</g>
</g>
<!-- Node1&#45;&gt;Node7 -->
<g id="edge9_Node000001_Node000007" class="edge">
<title>Node1&#45;&gt;Node7</title>
<g id="a_edge9_Node000001_Node000007"><a xlink:title=" ">
<path fill="none" stroke="#63b8ff" d="M776.73,-333.26C764.84,-335.1 752.82,-336.97 741.07,-338.79"/>
<polygon fill="#63b8ff" stroke="#63b8ff" points="777.34,-336.7 786.69,-331.71 776.27,-329.79 777.34,-336.7"/>
</a>
</g>
</g>
<!-- Node8 -->
<g id="Node000008" class="node">
<title>Node8</title>
<g id="a_Node000008"><a xlink:href="classiii__drone_1_1mission_1_1continuous__mission__orchestrator__node_1_1ContinuousMissionOrchestrator.html#aced4073ab58729bff6e815d51bf89778" target="_top" xlink:title=" ">
<polygon fill="white" stroke="#666666" points="745,-306 520,-306 520,-243 745,-243 745,-306"/>
<text text-anchor="start" x="528" y="-294" font-family="Helvetica,sans-Serif" font-size="10.00">iii_drone::mission</text>
<text text-anchor="start" x="528" y="-283" font-family="Helvetica,sans-Serif" font-size="10.00">::continuous_mission</text>
<text text-anchor="start" x="528" y="-272" font-family="Helvetica,sans-Serif" font-size="10.00">_orchestrator_node::Continuous</text>
<text text-anchor="start" x="528" y="-261" font-family="Helvetica,sans-Serif" font-size="10.00">MissionOrchestrator::stateMachineLanding</text>
<text text-anchor="middle" x="632.5" y="-250" font-family="Helvetica,sans-Serif" font-size="10.00">OnCable</text>
</a>
</g>
</g>
<!-- Node1&#45;&gt;Node8 -->
<g id="edge11_Node000001_Node000008" class="edge">
<title>Node1&#45;&gt;Node8</title>
<g id="a_edge11_Node000001_Node000008"><a xlink:title=" ">
<path fill="none" stroke="#63b8ff" d="M776.7,-296.2C766.24,-294.61 755.68,-293.01 745.3,-291.44"/>
<polygon fill="#63b8ff" stroke="#63b8ff" points="776.28,-299.67 786.69,-297.71 777.32,-292.75 776.28,-299.67"/>
</a>
</g>
</g>
<!-- Node9 -->
<g id="Node000009" class="node">
<title>Node9</title>
<g id="a_Node000009"><a xlink:href="classiii__drone_1_1mission_1_1continuous__mission__orchestrator__node_1_1ContinuousMissionOrchestrator.html#a9041f2692d56d3823dd4ebe8ffc566f2" target="_top" xlink:title=" ">
<polygon fill="white" stroke="#666666" points="746,-225 519,-225 519,-162 746,-162 746,-225"/>
<text text-anchor="start" x="527" y="-213" font-family="Helvetica,sans-Serif" font-size="10.00">iii_drone::mission</text>
<text text-anchor="start" x="527" y="-202" font-family="Helvetica,sans-Serif" font-size="10.00">::continuous_mission</text>
<text text-anchor="start" x="527" y="-191" font-family="Helvetica,sans-Serif" font-size="10.00">_orchestrator_node::Continuous</text>
<text text-anchor="start" x="527" y="-180" font-family="Helvetica,sans-Serif" font-size="10.00">MissionOrchestrator::stateMachineOpening</text>
<text text-anchor="middle" x="632.5" y="-169" font-family="Helvetica,sans-Serif" font-size="10.00">Gripper</text>
</a>
</g>
</g>
<!-- Node1&#45;&gt;Node9 -->
<g id="edge13_Node000001_Node000009" class="edge">
<title>Node1&#45;&gt;Node9</title>
<g id="a_edge13_Node000001_Node000009"><a xlink:title=" ">
<path fill="none" stroke="#63b8ff" d="M845.54,-283.41C818,-267.63 783.27,-248.82 751,-234.5 743.69,-231.26 736.04,-228.09 728.3,-225.06"/>
<polygon fill="#63b8ff" stroke="#63b8ff" points="843.81,-286.45 854.22,-288.42 847.31,-280.39 843.81,-286.45"/>
</a>
</g>
</g>
<!-- Node10 -->
<g id="Node000010" class="node">
<title>Node10</title>
<g id="a_Node000010"><a xlink:href="classiii__drone_1_1mission_1_1continuous__mission__orchestrator__node_1_1ContinuousMissionOrchestrator.html#ab02d79b6772f751fe0a38e6ccb5e41ee" target="_top" xlink:title=" ">
<polygon fill="white" stroke="#666666" points="741.5,-144 523.5,-144 523.5,-81 741.5,-81 741.5,-144"/>
<text text-anchor="start" x="531.5" y="-132" font-family="Helvetica,sans-Serif" font-size="10.00">iii_drone::mission</text>
<text text-anchor="start" x="531.5" y="-121" font-family="Helvetica,sans-Serif" font-size="10.00">::continuous_mission</text>
<text text-anchor="start" x="531.5" y="-110" font-family="Helvetica,sans-Serif" font-size="10.00">_orchestrator_node::Continuous</text>
<text text-anchor="start" x="531.5" y="-99" font-family="Helvetica,sans-Serif" font-size="10.00">MissionOrchestrator::stateMachineTaking</text>
<text text-anchor="middle" x="632.5" y="-88" font-family="Helvetica,sans-Serif" font-size="10.00">OffFromCable</text>
</a>
</g>
</g>
<!-- Node1&#45;&gt;Node10 -->
<g id="edge15_Node000001_Node000010" class="edge">
<title>Node1&#45;&gt;Node10</title>
<g id="a_edge15_Node000001_Node000010"><a xlink:title=" ">
<path fill="none" stroke="#63b8ff" d="M874.08,-279.91C847.95,-243.73 802.51,-187.55 751,-153.5 745.86,-150.1 740.41,-146.96 734.79,-144.04"/>
<polygon fill="#63b8ff" stroke="#63b8ff" points="871.34,-282.09 879.99,-288.21 877.04,-278.03 871.34,-282.09"/>
</a>
</g>
</g>
<!-- Node11 -->
<g id="Node000011" class="node">
<title>Node11</title>
<g id="a_Node000011"><a xlink:href="classiii__drone_1_1mission_1_1continuous__mission__orchestrator__node_1_1ContinuousMissionOrchestrator.html#a1884ad099408cb1bfd50b9da8a467132" target="_top" xlink:title=" ">
<polygon fill="white" stroke="#666666" points="737,-63 528,-63 528,0 737,0 737,-63"/>
<text text-anchor="start" x="536" y="-51" font-family="Helvetica,sans-Serif" font-size="10.00">iii_drone::mission</text>
<text text-anchor="start" x="536" y="-40" font-family="Helvetica,sans-Serif" font-size="10.00">::continuous_mission</text>
<text text-anchor="start" x="536" y="-29" font-family="Helvetica,sans-Serif" font-size="10.00">_orchestrator_node::Continuous</text>
<text text-anchor="start" x="536" y="-18" font-family="Helvetica,sans-Serif" font-size="10.00">MissionOrchestrator::stateMachineWait</text>
<text text-anchor="middle" x="632.5" y="-7" font-family="Helvetica,sans-Serif" font-size="10.00">ForTargetLine</text>
</a>
</g>
</g>
<!-- Node1&#45;&gt;Node11 -->
<g id="edge17_Node000001_Node000011" class="edge">
<title>Node1&#45;&gt;Node11</title>
<g id="a_edge17_Node000001_Node000011"><a xlink:title=" ">
<path fill="none" stroke="#63b8ff" d="M884.88,-278.63C864.62,-226.1 820,-128.42 751,-72.5 746.64,-68.96 741.95,-65.72 737.04,-62.75"/>
<polygon fill="#63b8ff" stroke="#63b8ff" points="881.68,-280.09 888.49,-288.21 888.23,-277.61 881.68,-280.09"/>
</a>
</g>
</g>
<!-- Node3 -->
<g id="Node000003" class="node">
<title>Node3</title>
<g id="a_Node000003"><a xlink:href="classiii__drone_1_1mission_1_1continuous__mission__orchestrator__node_1_1ContinuousMissionOrchestrator.html#a03d16a0b3a80d3d63fd1ac37c08829c7" target="_top" xlink:title=" ">
<polygon fill="white" stroke="#666666" points="478,-340.5 249,-340.5 249,-288.5 478,-288.5 478,-340.5"/>
<text text-anchor="start" x="257" y="-328.5" font-family="Helvetica,sans-Serif" font-size="10.00">iii_drone::mission</text>
<text text-anchor="start" x="257" y="-317.5" font-family="Helvetica,sans-Serif" font-size="10.00">::continuous_mission</text>
<text text-anchor="start" x="257" y="-306.5" font-family="Helvetica,sans-Serif" font-size="10.00">_orchestrator_node::Continuous</text>
<text text-anchor="middle" x="363.5" y="-295.5" font-family="Helvetica,sans-Serif" font-size="10.00">MissionOrchestrator::stateMachineCallback</text>
</a>
</g>
</g>
<!-- Node2&#45;&gt;Node3 -->
<g id="edge3_Node000002_Node000003" class="edge">
<title>Node2&#45;&gt;Node3</title>
<g id="a_edge3_Node000002_Node000003"><a xlink:title=" ">
<path fill="none" stroke="#63b8ff" d="M517.62,-561.27C516.39,-560.37 515.18,-559.45 514,-558.5 439.12,-498.61 392.17,-390.34 373.6,-340.68"/>
<polygon fill="#63b8ff" stroke="#63b8ff" points="515.76,-564.25 526.01,-566.93 519.68,-558.44 515.76,-564.25"/>
</a>
</g>
</g>
<!-- Node4 -->
<g id="Node000004" class="node">
<title>Node4</title>
<g id="a_Node000004"><a xlink:href="classiii__drone_1_1mission_1_1continuous__mission__orchestrator__node_1_1ContinuousMissionOrchestrator.html#a7d652b0b72969090c91c494f5c032eba" target="_top" xlink:title=" ">
<polygon fill="white" stroke="#666666" points="213,-346 0,-346 0,-283 213,-283 213,-346"/>
<text text-anchor="start" x="8" y="-334" font-family="Helvetica,sans-Serif" font-size="10.00">iii_drone::mission</text>
<text text-anchor="start" x="8" y="-323" font-family="Helvetica,sans-Serif" font-size="10.00">::continuous_mission</text>
<text text-anchor="start" x="8" y="-312" font-family="Helvetica,sans-Serif" font-size="10.00">_orchestrator_node::Continuous</text>
<text text-anchor="start" x="8" y="-301" font-family="Helvetica,sans-Serif" font-size="10.00">MissionOrchestrator::ContinuousMission</text>
<text text-anchor="middle" x="106.5" y="-290" font-family="Helvetica,sans-Serif" font-size="10.00">Orchestrator</text>
</a>
</g>
</g>
<!-- Node3&#45;&gt;Node4 -->
<g id="edge4_Node000003_Node000004" class="edge">
<title>Node3&#45;&gt;Node4</title>
<g id="a_edge4_Node000003_Node000004"><a xlink:title=" ">
<path fill="none" stroke="#63b8ff" d="M238.79,-314.5C230.26,-314.5 221.7,-314.5 213.27,-314.5"/>
<polygon fill="#63b8ff" stroke="#63b8ff" points="238.8,-318 248.8,-314.5 238.8,-311 238.8,-318"/>
</a>
</g>
</g>
<!-- Node5&#45;&gt;Node3 -->
<g id="edge6_Node000005_Node000003" class="edge">
<title>Node5&#45;&gt;Node3</title>
<g id="a_edge6_Node000005_Node000003"><a xlink:title=" ">
<path fill="none" stroke="#63b8ff" d="M519.28,-480.79C517.49,-479.72 515.73,-478.63 514,-477.5 456.93,-440.24 407.13,-376.29 381.95,-340.57"/>
<polygon fill="#63b8ff" stroke="#63b8ff" points="518.02,-484.1 528.46,-485.92 521.43,-477.99 518.02,-484.1"/>
</a>
</g>
</g>
<!-- Node6&#45;&gt;Node3 -->
<g id="edge8_Node000006_Node000003" class="edge">
<title>Node6&#45;&gt;Node3</title>
<g id="a_edge8_Node000006_Node000003"><a xlink:title=" ">
<path fill="none" stroke="#63b8ff" d="M525.06,-401.2C521.31,-399.66 517.61,-398.09 514,-396.5 476.89,-380.15 436.68,-357.82 407.32,-340.59"/>
<polygon fill="#63b8ff" stroke="#63b8ff" points="523.9,-404.5 534.48,-404.97 526.5,-398.01 523.9,-404.5"/>
</a>
</g>
</g>
<!-- Node7&#45;&gt;Node3 -->
<g id="edge10_Node000007_Node000003" class="edge">
<title>Node7&#45;&gt;Node3</title>
<g id="a_edge10_Node000007_Node000003"><a xlink:title=" ">
<path fill="none" stroke="#63b8ff" d="M513.48,-337.38C501.82,-335.59 490.01,-333.77 478.4,-331.99"/>
<polygon fill="#63b8ff" stroke="#63b8ff" points="513.26,-340.88 523.67,-338.94 514.32,-333.96 513.26,-340.88"/>
</a>
</g>
</g>
<!-- Node8&#45;&gt;Node3 -->
<g id="edge12_Node000008_Node000003" class="edge">
<title>Node8&#45;&gt;Node3</title>
<g id="a_edge12_Node000008_Node000003"><a xlink:title=" ">
<path fill="none" stroke="#63b8ff" d="M509.8,-292.73C499.32,-294.3 488.73,-295.89 478.31,-297.45"/>
<polygon fill="#63b8ff" stroke="#63b8ff" points="510.44,-296.17 519.82,-291.23 509.41,-289.25 510.44,-296.17"/>
</a>
</g>
</g>
<!-- Node9&#45;&gt;Node3 -->
<g id="edge14_Node000009_Node000003" class="edge">
<title>Node9&#45;&gt;Node3</title>
<g id="a_edge14_Node000009_Node000003"><a xlink:title=" ">
<path fill="none" stroke="#63b8ff" d="M527.53,-228.79C522.93,-230.66 518.41,-232.57 514,-234.5 477.61,-250.47 438.02,-271.84 408.73,-288.48"/>
<polygon fill="#63b8ff" stroke="#63b8ff" points="529.04,-231.95 537.04,-225 526.45,-225.45 529.04,-231.95"/>
</a>
</g>
</g>
<!-- Node10&#45;&gt;Node3 -->
<g id="edge16_Node000010_Node000003" class="edge">
<title>Node10&#45;&gt;Node3</title>
<g id="a_edge16_Node000010_Node000003"><a xlink:title=" ">
<path fill="none" stroke="#63b8ff" d="M521.44,-148.92C518.9,-150.39 516.42,-151.92 514,-153.5 457.65,-190.34 407.94,-252.91 382.5,-288.22"/>
<polygon fill="#63b8ff" stroke="#63b8ff" points="523.16,-151.97 530.25,-144.11 519.8,-145.83 523.16,-151.97"/>
</a>
</g>
</g>
<!-- Node11&#45;&gt;Node3 -->
<g id="edge18_Node000011_Node000003" class="edge">
<title>Node11&#45;&gt;Node3</title>
<g id="a_edge18_Node000011_Node000003"><a xlink:title=" ">
<path fill="none" stroke="#63b8ff" d="M519.49,-68.36C517.61,-69.69 515.78,-71.07 514,-72.5 439.88,-132.02 392.69,-238.86 373.85,-288.2"/>
<polygon fill="#63b8ff" stroke="#63b8ff" points="521.54,-71.2 528,-62.8 517.71,-65.34 521.54,-71.2"/>
</a>
</g>
</g>
</g>
</svg>

<g id="navigator" transform="translate(0 0)" fill="#404254">
  <rect fill="#f2f5e9" fill-opacity="0.5" stroke="#606060" stroke-width=".5" x="0" y="0" width="60" height="60"/>
  <use id="zoomplus" xlink:href="#zoomPlus" x="17" y="9" onmousedown="handleZoom(evt,'in')"/>
  <use id="zoomminus" xlink:href="#zoomMin" x="42" y="9" onmousedown="handleZoom(evt,'out')"/>
  <use id="reset" xlink:href="#resetDef" x="30" y="36" onmousedown="handleReset()"/>
   <use id="arrowup" xlink:href="#arrowUp" x="0" y="0" onmousedown="handlePan(0,-1)"/>
  <use id="arrowright" xlink:href="#arrowRight" x="0" y="0" onmousedown="handlePan(1,0)"/>
  <use id="arrowdown" xlink:href="#arrowDown" x="0" y="0" onmousedown="handlePan(0,1)"/>
  <use id="arrowleft" xlink:href="#arrowLeft" x="0" y="0" onmousedown="handlePan(-1,0)"/>
</g>
<svg viewBox="0 0 15 15" width="100%" height="30px" preserveAspectRatio="xMaxYMin meet">
 <g id="arrow_out" transform="scale(0.3 0.3)">
  <a xlink:href="classiii__drone_1_1mission_1_1continuous__mission__orchestrator__node_1_1ContinuousMissionOrchestrator_a255a63c088ad053df407f38cd5c61ea3_icgraph_org.svg" target="_base">
   <rect id="button" ry="5" rx="5" y="6" x="6" height="38" width="38"
        fill="#f2f5e9" fill-opacity="0.5" stroke="#606060" stroke-width="1.0"/>
   <path id="arrow"
     d="M 11.500037,31.436501 C 11.940474,20.09759 22.043105,11.32322 32.158766,21.979434 L 37.068811,17.246167 C 37.068811,17.246167 37.088388,32 37.088388,32 L 22.160133,31.978069 C 22.160133,31.978069 26.997745,27.140456 26.997745,27.140456 C 18.528582,18.264221 13.291696,25.230495 11.500037,31.436501 z"
     style="fill:#404040;"/>
  </a>
 </g>
</svg>

<style type='text/css'>
<![CDATA[
[data-mouse-over-selected='false'] { opacity: 0.7; }
[data-mouse-over-selected='true']  { opacity: 1.0; }
]]>
</style>
<script type="application/ecmascript"><![CDATA[
document.addEventListener('DOMContentLoaded', (event) => {
  highlightEdges();
  highlightAdjacentNodes();
});
]]></script>
</svg>
