<?xml version="1.0" encoding="UTF-8" standalone="no"?>
<!DOCTYPE svg PUBLIC "-//W3C//DTD SVG 1.1//EN"
 "http://www.w3.org/Graphics/SVG/1.1/DTD/svg11.dtd">
<!-- Generated by graphviz version 2.43.0 (0)
 -->
<!-- Title: iii_drone::adapters::SingleLineAdapter::SingleLineAdapter Pages: 1 -->
<svg width="491pt" height="107pt"
 viewBox="0.00 0.00 491.00 107.00" xmlns="http://www.w3.org/2000/svg" xmlns:xlink="http://www.w3.org/1999/xlink">
<g id="graph0" class="graph" transform="scale(1 1) rotate(0) translate(4 103)">
<title>iii_drone::adapters::SingleLineAdapter::SingleLineAdapter</title>
<!-- Node1 -->
<g id="Node000001" class="node">
<title>Node1</title>
<g id="a_Node000001"><a xlink:title="Constructor from msg.">
<polygon fill="#999999" stroke="#666666" points="111,-83.5 0,-83.5 0,-42.5 111,-42.5 111,-83.5"/>
<text text-anchor="start" x="8" y="-71.5" font-family="Helvetica,sans-Serif" font-size="10.00">iii_drone::adapters</text>
<text text-anchor="start" x="8" y="-60.5" font-family="Helvetica,sans-Serif" font-size="10.00">::SingleLineAdapter</text>
<text text-anchor="middle" x="55.5" y="-49.5" font-family="Helvetica,sans-Serif" font-size="10.00">::SingleLineAdapter</text>
</a>
</g>
</g>
<!-- Node2 -->
<g id="Node000002" class="node">
<title>Node2</title>
<g id="a_Node000002"><a xlink:href="namespaceiii__drone_1_1types.html#a8215048242190c57b9ff2de3f1daba73" target="_top" xlink:title=" ">
<polygon fill="white" stroke="#666666" points="481.5,-99 334.5,-99 334.5,-69 481.5,-69 481.5,-99"/>
<text text-anchor="start" x="342.5" y="-87" font-family="Helvetica,sans-Serif" font-size="10.00">iii_drone::types::pointFrom</text>
<text text-anchor="middle" x="408" y="-76" font-family="Helvetica,sans-Serif" font-size="10.00">PointMsg</text>
</a>
</g>
</g>
<!-- Node1&#45;&gt;Node2 -->
<g id="edge1_Node000001_Node000002" class="edge">
<title>Node1&#45;&gt;Node2</title>
<g id="a_edge1_Node000001_Node000002"><a xlink:title=" ">
<path fill="none" stroke="#63b8ff" d="M111.08,-79.91C122.82,-82.86 135.23,-85.47 147,-87 205.96,-94.69 273.08,-93.67 324.35,-90.87"/>
<polygon fill="#63b8ff" stroke="#63b8ff" points="324.61,-94.36 334.39,-90.29 324.2,-87.37 324.61,-94.36"/>
</a>
</g>
</g>
<!-- Node3 -->
<g id="Node000003" class="node">
<title>Node3</title>
<g id="a_Node000003"><a xlink:href="namespaceiii__drone_1_1types.html#a68ca357a87fb655434d05d6c6bdac45f" target="_top" xlink:title=" ">
<polygon fill="white" stroke="#666666" points="295.5,-78 148.5,-78 148.5,-48 295.5,-48 295.5,-78"/>
<text text-anchor="start" x="156.5" y="-66" font-family="Helvetica,sans-Serif" font-size="10.00">iii_drone::types::pointFrom</text>
<text text-anchor="middle" x="222" y="-55" font-family="Helvetica,sans-Serif" font-size="10.00">PoseMsg</text>
</a>
</g>
</g>
<!-- Node1&#45;&gt;Node3 -->
<g id="edge2_Node000001_Node000003" class="edge">
<title>Node1&#45;&gt;Node3</title>
<g id="a_edge2_Node000001_Node000003"><a xlink:title=" ">
<path fill="none" stroke="#63b8ff" d="M111.28,-63C119.9,-63 128.98,-63 138.07,-63"/>
<polygon fill="#63b8ff" stroke="#63b8ff" points="138.31,-66.5 148.31,-63 138.31,-59.5 138.31,-66.5"/>
</a>
</g>
</g>
<!-- Node4 -->
<g id="Node000004" class="node">
<title>Node4</title>
<g id="a_Node000004"><a xlink:href="namespaceiii__drone_1_1types.html#a25802a3ab0d3c28800d37b3c6a9a6578" target="_top" xlink:title=" ">
<polygon fill="white" stroke="#666666" points="297,-30 147,-30 147,0 297,0 297,-30"/>
<text text-anchor="start" x="155" y="-18" font-family="Helvetica,sans-Serif" font-size="10.00">iii_drone::types::quaternion</text>
<text text-anchor="middle" x="222" y="-7" font-family="Helvetica,sans-Serif" font-size="10.00">FromPoseMsg</text>
</a>
</g>
</g>
<!-- Node1&#45;&gt;Node4 -->
<g id="edge4_Node000001_Node000004" class="edge">
<title>Node1&#45;&gt;Node4</title>
<g id="a_edge4_Node000001_Node000004"><a xlink:title=" ">
<path fill="none" stroke="#63b8ff" d="M111.28,-47.02C126.83,-42.48 143.87,-37.51 159.78,-32.86"/>
<polygon fill="#63b8ff" stroke="#63b8ff" points="160.9,-36.18 169.52,-30.02 158.94,-29.46 160.9,-36.18"/>
</a>
</g>
</g>
<!-- Node3&#45;&gt;Node2 -->
<g id="edge3_Node000003_Node000002" class="edge">
<title>Node3&#45;&gt;Node2</title>
<g id="a_edge3_Node000003_Node000002"><a xlink:title=" ">
<path fill="none" stroke="#63b8ff" d="M295.72,-71.3C305.02,-72.36 314.59,-73.45 324.03,-74.53"/>
<polygon fill="#63b8ff" stroke="#63b8ff" points="323.87,-78.04 334.2,-75.69 324.67,-71.08 323.87,-78.04"/>
</a>
</g>
</g>
<!-- Node5 -->
<g id="Node000005" class="node">
<title>Node5</title>
<g id="a_Node000005"><a xlink:href="namespaceiii__drone_1_1types.html#ab684c4851f41301e938970679086de49" target="_top" xlink:title=" ">
<polygon fill="white" stroke="#666666" points="483,-30 333,-30 333,0 483,0 483,-30"/>
<text text-anchor="start" x="341" y="-18" font-family="Helvetica,sans-Serif" font-size="10.00">iii_drone::types::quaternion</text>
<text text-anchor="middle" x="408" y="-7" font-family="Helvetica,sans-Serif" font-size="10.00">FromQuaternionMsg</text>
</a>
</g>
</g>
<!-- Node4&#45;&gt;Node5 -->
<g id="edge5_Node000004_Node000005" class="edge">
<title>Node4&#45;&gt;Node5</title>
<g id="a_edge5_Node000004_Node000005"><a xlink:title=" ">
<path fill="none" stroke="#63b8ff" d="M297.04,-15C305.51,-15 314.19,-15 322.78,-15"/>
<polygon fill="#63b8ff" stroke="#63b8ff" points="322.81,-18.5 332.81,-15 322.81,-11.5 322.81,-18.5"/>
</a>
</g>
</g>
</g>
</svg>
