<?xml version="1.0" encoding="UTF-8" standalone="no"?>
<!DOCTYPE svg PUBLIC "-//W3C//DTD SVG 1.1//EN"
 "http://www.w3.org/Graphics/SVG/1.1/DTD/svg11.dtd">
<!-- Generated by graphviz version 2.43.0 (0)
 -->
<!-- Title: iii_drone::mission::continuous_mission_orchestrator_node::ContinuousMissionOrchestrator::stateMachineFlyingUnderCable Pages: 1 -->
<svg width="718pt" height="641pt"
 viewBox="0.00 0.00 718.00 640.50" xmlns="http://www.w3.org/2000/svg" xmlns:xlink="http://www.w3.org/1999/xlink">
<g id="graph0" class="graph" transform="scale(1 1) rotate(0) translate(4 636.5)">
<title>iii_drone::mission::continuous_mission_orchestrator_node::ContinuousMissionOrchestrator::stateMachineFlyingUnderCable</title>
<!-- Node1 -->
<g id="Node000001" class="node">
<title>Node1</title>
<g id="a_Node000001"><a xlink:title=" ">
<polygon fill="#999999" stroke="#666666" points="217,-351 0,-351 0,-288 217,-288 217,-351"/>
<text text-anchor="start" x="8" y="-339" font-family="Helvetica,sans-Serif" font-size="10.00">iii_drone::mission</text>
<text text-anchor="start" x="8" y="-328" font-family="Helvetica,sans-Serif" font-size="10.00">::continuous_mission</text>
<text text-anchor="start" x="8" y="-317" font-family="Helvetica,sans-Serif" font-size="10.00">_orchestrator_node::Continuous</text>
<text text-anchor="start" x="8" y="-306" font-family="Helvetica,sans-Serif" font-size="10.00">MissionOrchestrator::stateMachineFlying</text>
<text text-anchor="middle" x="108.5" y="-295" font-family="Helvetica,sans-Serif" font-size="10.00">UnderCable</text>
</a>
</g>
</g>
<!-- Node2 -->
<g id="Node000002" class="node">
<title>Node2</title>
<g id="a_Node000002"><a xlink:href="classiii__drone_1_1mission_1_1continuous__mission__orchestrator__node_1_1ContinuousMissionOrchestrator.html#afa42fc228153051b996b65cf0dc887ee" target="_top" xlink:title=" ">
<polygon fill="white" stroke="#666666" points="460.5,-632.5 269.5,-632.5 269.5,-580.5 460.5,-580.5 460.5,-632.5"/>
<text text-anchor="start" x="277.5" y="-620.5" font-family="Helvetica,sans-Serif" font-size="10.00">iii_drone::mission</text>
<text text-anchor="start" x="277.5" y="-609.5" font-family="Helvetica,sans-Serif" font-size="10.00">::continuous_mission</text>
<text text-anchor="start" x="277.5" y="-598.5" font-family="Helvetica,sans-Serif" font-size="10.00">_orchestrator_node::Continuous</text>
<text text-anchor="middle" x="365" y="-587.5" font-family="Helvetica,sans-Serif" font-size="10.00">MissionOrchestrator::actionTimeout</text>
</a>
</g>
</g>
<!-- Node1&#45;&gt;Node2 -->
<g id="edge1_Node000001_Node000002" class="edge">
<title>Node1&#45;&gt;Node2</title>
<g id="a_edge1_Node000001_Node000002"><a xlink:title=" ">
<path fill="none" stroke="#63b8ff" d="M119.05,-351.23C136.72,-404.58 179.56,-512.19 253,-571.5 255.44,-573.47 257.99,-575.33 260.62,-577.08"/>
<polygon fill="#63b8ff" stroke="#63b8ff" points="258.95,-580.16 269.32,-582.33 262.57,-574.17 258.95,-580.16"/>
</a>
</g>
</g>
<!-- Node3 -->
<g id="Node000003" class="node">
<title>Node3</title>
<g id="a_Node000003"><a xlink:href="classiii__drone_1_1mission_1_1continuous__mission__orchestrator__node_1_1ContinuousMissionOrchestrator.html#a479ff75639220b79506a0ef1956ae4fd" target="_top" xlink:title=" ">
<polygon fill="white" stroke="#666666" points="477,-562.5 253,-562.5 253,-510.5 477,-510.5 477,-562.5"/>
<text text-anchor="start" x="261" y="-550.5" font-family="Helvetica,sans-Serif" font-size="10.00">iii_drone::mission</text>
<text text-anchor="start" x="261" y="-539.5" font-family="Helvetica,sans-Serif" font-size="10.00">::continuous_mission</text>
<text text-anchor="start" x="261" y="-528.5" font-family="Helvetica,sans-Serif" font-size="10.00">_orchestrator_node::Continuous</text>
<text text-anchor="middle" x="365" y="-517.5" font-family="Helvetica,sans-Serif" font-size="10.00">MissionOrchestrator::cancelFlyUnderCable</text>
</a>
</g>
</g>
<!-- Node1&#45;&gt;Node3 -->
<g id="edge2_Node000001_Node000003" class="edge">
<title>Node1&#45;&gt;Node3</title>
<g id="a_edge2_Node000001_Node000003"><a xlink:title=" ">
<path fill="none" stroke="#63b8ff" d="M126.5,-351.31C149.8,-391.94 195.39,-461.72 253,-501.5 254.93,-502.83 256.9,-504.11 258.93,-505.34"/>
<polygon fill="#63b8ff" stroke="#63b8ff" points="257.61,-508.62 268.05,-510.46 261.04,-502.51 257.61,-508.62"/>
</a>
</g>
</g>
<!-- Node4 -->
<g id="Node000004" class="node">
<title>Node4</title>
<g id="a_Node000004"><a xlink:href="classiii__drone_1_1mission_1_1continuous__mission__orchestrator__node_1_1ContinuousMissionOrchestrator.html#acd32b62a2618126849c2e17b387c2894" target="_top" xlink:title=" ">
<polygon fill="white" stroke="#666666" points="460,-492 270,-492 270,-429 460,-429 460,-492"/>
<text text-anchor="start" x="278" y="-480" font-family="Helvetica,sans-Serif" font-size="10.00">iii_drone::mission</text>
<text text-anchor="start" x="278" y="-469" font-family="Helvetica,sans-Serif" font-size="10.00">::continuous_mission</text>
<text text-anchor="start" x="278" y="-458" font-family="Helvetica,sans-Serif" font-size="10.00">_orchestrator_node::Continuous</text>
<text text-anchor="start" x="278" y="-447" font-family="Helvetica,sans-Serif" font-size="10.00">MissionOrchestrator::flyUnderCable</text>
<text text-anchor="middle" x="365" y="-436" font-family="Helvetica,sans-Serif" font-size="10.00">Succeeded</text>
</a>
</g>
</g>
<!-- Node1&#45;&gt;Node4 -->
<g id="edge3_Node000001_Node000004" class="edge">
<title>Node1&#45;&gt;Node4</title>
<g id="a_edge3_Node000001_Node000004"><a xlink:title=" ">
<path fill="none" stroke="#63b8ff" d="M148.18,-351.03C176.07,-372.66 215.3,-400.89 253,-420.5 255.73,-421.92 258.52,-423.31 261.36,-424.67"/>
<polygon fill="#63b8ff" stroke="#63b8ff" points="260,-427.9 270.54,-428.91 262.93,-421.54 260,-427.9"/>
</a>
</g>
</g>
<!-- Node5 -->
<g id="Node000005" class="node">
<title>Node5</title>
<g id="a_Node000005"><a xlink:href="classiii__drone_1_1mission_1_1continuous__mission__orchestrator__node_1_1ContinuousMissionOrchestrator.html#aa8d83ed5dad272af08ce7c9e026faca4" target="_top" xlink:title=" ">
<polygon fill="white" stroke="#666666" points="460,-411 270,-411 270,-348 460,-348 460,-411"/>
<text text-anchor="start" x="278" y="-399" font-family="Helvetica,sans-Serif" font-size="10.00">iii_drone::mission</text>
<text text-anchor="start" x="278" y="-388" font-family="Helvetica,sans-Serif" font-size="10.00">::continuous_mission</text>
<text text-anchor="start" x="278" y="-377" font-family="Helvetica,sans-Serif" font-size="10.00">_orchestrator_node::Continuous</text>
<text text-anchor="start" x="278" y="-366" font-family="Helvetica,sans-Serif" font-size="10.00">MissionOrchestrator::flyUnderCable</text>
<text text-anchor="middle" x="365" y="-355" font-family="Helvetica,sans-Serif" font-size="10.00">Terminated</text>
</a>
</g>
</g>
<!-- Node1&#45;&gt;Node5 -->
<g id="edge4_Node000001_Node000005" class="edge">
<title>Node1&#45;&gt;Node5</title>
<g id="a_edge4_Node000001_Node000005"><a xlink:title=" ">
<path fill="none" stroke="#63b8ff" d="M217.06,-344.86C231.14,-348.18 245.56,-351.58 259.59,-354.88"/>
<polygon fill="#63b8ff" stroke="#63b8ff" points="259.19,-358.39 269.72,-357.27 260.79,-351.57 259.19,-358.39"/>
</a>
</g>
</g>
<!-- Node6 -->
<g id="Node000006" class="node">
<title>Node6</title>
<g id="a_Node000006"><a xlink:href="classiii__drone_1_1mission_1_1continuous__mission__orchestrator__node_1_1ContinuousMissionOrchestrator.html#a29a1df5808d9d3a7ebe6fc3ada5c72f4" target="_top" xlink:title=" ">
<polygon fill="white" stroke="#666666" points="710,-312.5 513,-312.5 513,-260.5 710,-260.5 710,-312.5"/>
<text text-anchor="start" x="521" y="-300.5" font-family="Helvetica,sans-Serif" font-size="10.00">iii_drone::mission</text>
<text text-anchor="start" x="521" y="-289.5" font-family="Helvetica,sans-Serif" font-size="10.00">::continuous_mission</text>
<text text-anchor="start" x="521" y="-278.5" font-family="Helvetica,sans-Serif" font-size="10.00">_orchestrator_node::Continuous</text>
<text text-anchor="middle" x="611.5" y="-267.5" font-family="Helvetica,sans-Serif" font-size="10.00">MissionOrchestrator::getControlState</text>
</a>
</g>
</g>
<!-- Node1&#45;&gt;Node6 -->
<g id="edge5_Node000001_Node000006" class="edge">
<title>Node1&#45;&gt;Node6</title>
<g id="a_edge5_Node000001_Node000006"><a xlink:title=" ">
<path fill="none" stroke="#63b8ff" d="M217.34,-315.43C290.63,-312.29 389.74,-307.33 477,-300.5 485.35,-299.85 493.99,-299.1 502.66,-298.3"/>
<polygon fill="#63b8ff" stroke="#63b8ff" points="503.23,-301.76 512.85,-297.34 502.57,-294.8 503.23,-301.76"/>
</a>
</g>
</g>
<!-- Node7 -->
<g id="Node000007" class="node">
<title>Node7</title>
<g id="a_Node000007"><a xlink:href="classiii__drone_1_1mission_1_1continuous__mission__orchestrator__node_1_1ContinuousMissionOrchestrator.html#a255a63c088ad053df407f38cd5c61ea3" target="_top" xlink:title=" ">
<polygon fill="white" stroke="#666666" points="476.5,-273.5 253.5,-273.5 253.5,-221.5 476.5,-221.5 476.5,-273.5"/>
<text text-anchor="start" x="261.5" y="-261.5" font-family="Helvetica,sans-Serif" font-size="10.00">iii_drone::mission</text>
<text text-anchor="start" x="261.5" y="-250.5" font-family="Helvetica,sans-Serif" font-size="10.00">::continuous_mission</text>
<text text-anchor="start" x="261.5" y="-239.5" font-family="Helvetica,sans-Serif" font-size="10.00">_orchestrator_node::Continuous</text>
<text text-anchor="middle" x="365" y="-228.5" font-family="Helvetica,sans-Serif" font-size="10.00">MissionOrchestrator::isInControllableState</text>
</a>
</g>
</g>
<!-- Node1&#45;&gt;Node7 -->
<g id="edge6_Node000001_Node000007" class="edge">
<title>Node1&#45;&gt;Node7</title>
<g id="a_edge6_Node000001_Node000007"><a xlink:title=" ">
<path fill="none" stroke="#63b8ff" d="M217.06,-289.07C231.97,-284.85 247.26,-280.53 262.06,-276.34"/>
<polygon fill="#63b8ff" stroke="#63b8ff" points="263.04,-279.7 271.71,-273.61 261.14,-272.96 263.04,-279.7"/>
</a>
</g>
</g>
<!-- Node8 -->
<g id="Node000008" class="node">
<title>Node8</title>
<g id="a_Node000008"><a xlink:href="classiii__drone_1_1mission_1_1continuous__mission__orchestrator__node_1_1ContinuousMissionOrchestrator.html#acca7ae76bb0157c8a7b9794ef853a992" target="_top" xlink:title=" ">
<polygon fill="white" stroke="#666666" points="450.5,-203.5 279.5,-203.5 279.5,-151.5 450.5,-151.5 450.5,-203.5"/>
<text text-anchor="start" x="287.5" y="-191.5" font-family="Helvetica,sans-Serif" font-size="10.00">iii_drone::mission</text>
<text text-anchor="start" x="287.5" y="-180.5" font-family="Helvetica,sans-Serif" font-size="10.00">::continuous_mission</text>
<text text-anchor="start" x="287.5" y="-169.5" font-family="Helvetica,sans-Serif" font-size="10.00">_orchestrator_node::Continuous</text>
<text text-anchor="middle" x="365" y="-158.5" font-family="Helvetica,sans-Serif" font-size="10.00">MissionOrchestrator::setState</text>
</a>
</g>
</g>
<!-- Node1&#45;&gt;Node8 -->
<g id="edge9_Node000001_Node000008" class="edge">
<title>Node1&#45;&gt;Node8</title>
<g id="a_edge9_Node000001_Node000008"><a xlink:title=" ">
<path fill="none" stroke="#63b8ff" d="M144.7,-287.93C172.46,-264.41 213.03,-232.96 253,-212.5 258.49,-209.69 264.25,-207.05 270.13,-204.59"/>
<polygon fill="#63b8ff" stroke="#63b8ff" points="271.48,-207.82 279.46,-200.85 268.88,-201.32 271.48,-207.82"/>
</a>
</g>
</g>
<!-- Node10 -->
<g id="Node000010" class="node">
<title>Node10</title>
<g id="a_Node000010"><a xlink:href="classiii__drone_1_1mission_1_1continuous__mission__orchestrator__node_1_1ContinuousMissionOrchestrator.html#afc5bc6c1d77577d7c694567f1b8474a2" target="_top" xlink:title=" ">
<polygon fill="white" stroke="#666666" points="466.5,-133.5 263.5,-133.5 263.5,-81.5 466.5,-81.5 466.5,-133.5"/>
<text text-anchor="start" x="271.5" y="-121.5" font-family="Helvetica,sans-Serif" font-size="10.00">iii_drone::mission</text>
<text text-anchor="start" x="271.5" y="-110.5" font-family="Helvetica,sans-Serif" font-size="10.00">::continuous_mission</text>
<text text-anchor="start" x="271.5" y="-99.5" font-family="Helvetica,sans-Serif" font-size="10.00">_orchestrator_node::Continuous</text>
<text text-anchor="middle" x="365" y="-88.5" font-family="Helvetica,sans-Serif" font-size="10.00">MissionOrchestrator::setTargetCableId</text>
</a>
</g>
</g>
<!-- Node1&#45;&gt;Node10 -->
<g id="edge11_Node000001_Node000010" class="edge">
<title>Node1&#45;&gt;Node10</title>
<g id="a_edge11_Node000001_Node000010"><a xlink:title=" ">
<path fill="none" stroke="#63b8ff" d="M127.13,-287.89C150.78,-248.3 196.42,-181 253,-142.5 254.93,-141.18 256.92,-139.92 258.95,-138.69"/>
<polygon fill="#63b8ff" stroke="#63b8ff" points="261.05,-141.53 268.1,-133.62 257.66,-135.41 261.05,-141.53"/>
</a>
</g>
</g>
<!-- Node11 -->
<g id="Node000011" class="node">
<title>Node11</title>
<g id="a_Node000011"><a xlink:href="classiii__drone_1_1mission_1_1continuous__mission__orchestrator__node_1_1ContinuousMissionOrchestrator.html#a102b2c06ee7e0f4d3e11f391d828a77e" target="_top" xlink:title=" ">
<polygon fill="white" stroke="#666666" points="472.5,-63 257.5,-63 257.5,0 472.5,0 472.5,-63"/>
<text text-anchor="start" x="265.5" y="-51" font-family="Helvetica,sans-Serif" font-size="10.00">iii_drone::mission</text>
<text text-anchor="start" x="265.5" y="-40" font-family="Helvetica,sans-Serif" font-size="10.00">::continuous_mission</text>
<text text-anchor="start" x="265.5" y="-29" font-family="Helvetica,sans-Serif" font-size="10.00">_orchestrator_node::Continuous</text>
<text text-anchor="start" x="265.5" y="-18" font-family="Helvetica,sans-Serif" font-size="10.00">MissionOrchestrator::startActionTimeout</text>
<text text-anchor="middle" x="365" y="-7" font-family="Helvetica,sans-Serif" font-size="10.00">Counter</text>
</a>
</g>
</g>
<!-- Node1&#45;&gt;Node11 -->
<g id="edge12_Node000001_Node000011" class="edge">
<title>Node1&#45;&gt;Node11</title>
<g id="a_edge12_Node000001_Node000011"><a xlink:title=" ">
<path fill="none" stroke="#63b8ff" d="M119.83,-287.93C138.4,-235.91 182.21,-132.03 253,-72.5 254.38,-71.34 255.79,-70.21 257.24,-69.12"/>
<polygon fill="#63b8ff" stroke="#63b8ff" points="259.61,-71.73 265.84,-63.16 255.62,-65.98 259.61,-71.73"/>
</a>
</g>
</g>
<!-- Node7&#45;&gt;Node6 -->
<g id="edge7_Node000007_Node000006" class="edge">
<title>Node7&#45;&gt;Node6</title>
<g id="a_edge7_Node000007_Node000006"><a xlink:title=" ">
<path fill="none" stroke="#63b8ff" d="M476.8,-265.17C485.43,-266.55 494.14,-267.94 502.74,-269.31"/>
<polygon fill="#63b8ff" stroke="#63b8ff" points="502.36,-272.8 512.79,-270.91 503.47,-265.88 502.36,-272.8"/>
</a>
</g>
</g>
<!-- Node7&#45;&gt;Node7 -->
<g id="edge8_Node000007_Node000007" class="edge">
<title>Node7&#45;&gt;Node7</title>
<g id="a_edge8_Node000007_Node000007"><a xlink:title=" ">
<path fill="none" stroke="#63b8ff" d="M318.98,-273.7C317.47,-283.46 332.81,-291.5 365,-291.5 386.13,-291.5 399.99,-288.04 406.61,-282.9"/>
<polygon fill="#63b8ff" stroke="#63b8ff" points="409.85,-284.23 411.02,-273.7 403.54,-281.2 409.85,-284.23"/>
</a>
</g>
</g>
<!-- Node9 -->
<g id="Node000009" class="node">
<title>Node9</title>
<g id="a_Node000009"><a xlink:href="classiii__drone_1_1mission_1_1continuous__mission__orchestrator__node_1_1ContinuousMissionOrchestrator.html#a835d55880f4805cb07059aee8cbbfbbc" target="_top" xlink:title=" ">
<polygon fill="white" stroke="#666666" points="708.5,-209 514.5,-209 514.5,-146 708.5,-146 708.5,-209"/>
<text text-anchor="start" x="522.5" y="-197" font-family="Helvetica,sans-Serif" font-size="10.00">iii_drone::mission</text>
<text text-anchor="start" x="522.5" y="-186" font-family="Helvetica,sans-Serif" font-size="10.00">::continuous_mission</text>
<text text-anchor="start" x="522.5" y="-175" font-family="Helvetica,sans-Serif" font-size="10.00">_orchestrator_node::Continuous</text>
<text text-anchor="start" x="522.5" y="-164" font-family="Helvetica,sans-Serif" font-size="10.00">MissionOrchestrator::setTargetCable</text>
<text text-anchor="middle" x="611.5" y="-153" font-family="Helvetica,sans-Serif" font-size="10.00">IdChanged</text>
</a>
</g>
</g>
<!-- Node8&#45;&gt;Node9 -->
<g id="edge10_Node000008_Node000009" class="edge">
<title>Node8&#45;&gt;Node9</title>
<g id="a_edge10_Node000008_Node000009"><a xlink:title=" ">
<path fill="none" stroke="#63b8ff" d="M450.83,-177.5C467.89,-177.5 486.03,-177.5 503.73,-177.5"/>
<polygon fill="#63b8ff" stroke="#63b8ff" points="504.09,-181 514.09,-177.5 504.09,-174 504.09,-181"/>
</a>
</g>
</g>
</g>
</svg>
