<?xml version="1.0" encoding="UTF-8" standalone="no"?>
<!DOCTYPE svg PUBLIC "-//W3C//DTD SVG 1.1//EN"
 "http://www.w3.org/Graphics/SVG/1.1/DTD/svg11.dtd">
<!-- Generated by graphviz version 2.43.0 (0)
 -->
<!-- Title: iii_drone::control::State::State Pages: 1 -->
<svg width="285pt" height="268pt"
 viewBox="0.00 0.00 285.00 268.00" xmlns="http://www.w3.org/2000/svg" xmlns:xlink="http://www.w3.org/1999/xlink">

<svg id="main" version="1.1" xmlns="http://www.w3.org/2000/svg" xmlns:xlink="http://www.w3.org/1999/xlink" xml:space="preserve" onload="init(evt)">
<style type="text/css"><![CDATA[
.node, .edge {opacity: 0.7;}
.node.selected, .edge.selected {opacity: 1;}
.edge:hover path { stroke: red; }
.edge:hover polygon { stroke: red; fill: red; }
]]></style>
<script type="application/ecmascript" xlink:href="svg.min.js"/>
<svg id="graph" class="graph">
<g id="graph0" class="graph" transform="scale(1 1) rotate(0) translate(4 264)">
<title>iii_drone::control::State::State</title>
<!-- Node1 -->
<g id="Node000001" class="node">
<title>Node1</title>
<g id="a_Node000001"><a xlink:title=" ">
<polygon fill="#999999" stroke="#666666" points="98,-142 0,-142 0,-112 98,-112 98,-142"/>
<text text-anchor="start" x="8" y="-130" font-family="Helvetica,sans-Serif" font-size="10.00">iii_drone::control</text>
<text text-anchor="middle" x="49" y="-119" font-family="Helvetica,sans-Serif" font-size="10.00">::State::State</text>
</a>
</g>
</g>
<!-- Node2 -->
<g id="Node000002" class="node">
<title>Node2</title>
<g id="a_Node000002"><a xlink:href="classiii__drone_1_1control_1_1State.html#a205d6a8a2d57434cb7ea7c257c6647f6" target="_top" xlink:title=" ">
<polygon fill="white" stroke="#666666" points="273,-260 138,-260 138,-230 273,-230 273,-260"/>
<text text-anchor="start" x="146" y="-248" font-family="Helvetica,sans-Serif" font-size="10.00">iii_drone::control</text>
<text text-anchor="middle" x="205.5" y="-237" font-family="Helvetica,sans-Serif" font-size="10.00">::State::angular_velocity</text>
</a>
</g>
</g>
<!-- Node1&#45;&gt;Node2 -->
<g id="edge1_Node000001_Node000002" class="edge">
<title>Node1&#45;&gt;Node2</title>
<g id="a_edge1_Node000001_Node000002"><a xlink:title=" ">
<path fill="none" stroke="#63b8ff" d="M59.83,-142.22C73.91,-162.87 101.7,-199.61 134,-221 136.3,-222.52 138.7,-223.95 141.17,-225.3"/>
<polygon fill="#63b8ff" stroke="#63b8ff" points="139.87,-228.56 150.39,-229.84 142.96,-222.28 139.87,-228.56"/>
</a>
</g>
</g>
<!-- Node3 -->
<g id="Node000003" class="node">
<title>Node3</title>
<g id="a_Node000003"><a xlink:href="classiii__drone_1_1control_1_1State.html#ac7d02a667c215a72d7f7f2fdf1501eb4" target="_top" xlink:title=" ">
<polygon fill="white" stroke="#666666" points="254.5,-212 156.5,-212 156.5,-182 254.5,-182 254.5,-212"/>
<text text-anchor="start" x="164.5" y="-200" font-family="Helvetica,sans-Serif" font-size="10.00">iii_drone::control</text>
<text text-anchor="middle" x="205.5" y="-189" font-family="Helvetica,sans-Serif" font-size="10.00">::State::position</text>
</a>
</g>
</g>
<!-- Node1&#45;&gt;Node3 -->
<g id="edge2_Node000001_Node000003" class="edge">
<title>Node1&#45;&gt;Node3</title>
<g id="a_edge2_Node000001_Node000003"><a xlink:title=" ">
<path fill="none" stroke="#63b8ff" d="M74.79,-142.06C91.22,-151.66 113.46,-163.96 134,-173 138.17,-174.84 142.53,-176.62 146.95,-178.34"/>
<polygon fill="#63b8ff" stroke="#63b8ff" points="146.07,-181.74 156.67,-181.97 148.53,-175.19 146.07,-181.74"/>
</a>
</g>
</g>
<!-- Node4 -->
<g id="Node000004" class="node">
<title>Node4</title>
<g id="a_Node000004"><a xlink:href="classiii__drone_1_1control_1_1State.html#a730c06d2972e469a61c4a0e053f47b85" target="_top" xlink:title=" ">
<polygon fill="white" stroke="#666666" points="259,-164 152,-164 152,-134 259,-134 259,-164"/>
<text text-anchor="start" x="160" y="-152" font-family="Helvetica,sans-Serif" font-size="10.00">iii_drone::control</text>
<text text-anchor="middle" x="205.5" y="-141" font-family="Helvetica,sans-Serif" font-size="10.00">::State::quaternion</text>
</a>
</g>
</g>
<!-- Node1&#45;&gt;Node4 -->
<g id="edge3_Node000001_Node000004" class="edge">
<title>Node1&#45;&gt;Node4</title>
<g id="a_edge3_Node000001_Node000004"><a xlink:title=" ">
<path fill="none" stroke="#63b8ff" d="M98.04,-133.84C111.93,-135.82 127.3,-138.01 141.94,-140.09"/>
<polygon fill="#63b8ff" stroke="#63b8ff" points="141.53,-143.57 151.93,-141.51 142.52,-136.64 141.53,-143.57"/>
</a>
</g>
</g>
<!-- Node5 -->
<g id="Node000005" class="node">
<title>Node5</title>
<g id="a_Node000005"><a xlink:href="namespaceiii__drone_1_1math.html#a8e7d7e25d07b368363d6da9939a9abed" target="_top" xlink:title=" ">
<polygon fill="white" stroke="#666666" points="277,-115.5 134,-115.5 134,-96.5 277,-96.5 277,-115.5"/>
<text text-anchor="middle" x="205.5" y="-103.5" font-family="Helvetica,sans-Serif" font-size="10.00">iii_drone::math::quatToEul</text>
</a>
</g>
</g>
<!-- Node1&#45;&gt;Node5 -->
<g id="edge4_Node000001_Node000005" class="edge">
<title>Node1&#45;&gt;Node5</title>
<g id="a_edge4_Node000001_Node000005"><a xlink:title=" ">
<path fill="none" stroke="#63b8ff" d="M98.04,-120.47C106.4,-119.33 115.31,-118.12 124.26,-116.91"/>
<polygon fill="#63b8ff" stroke="#63b8ff" points="124.94,-120.35 134.37,-115.53 123.99,-113.41 124.94,-120.35"/>
</a>
</g>
</g>
<!-- Node6 -->
<g id="Node000006" class="node">
<title>Node6</title>
<g id="a_Node000006"><a xlink:href="classiii__drone_1_1control_1_1State.html#a065d4003d73520ba2e61af2912df6c6c" target="_top" xlink:title=" ">
<polygon fill="white" stroke="#666666" points="254.5,-78 156.5,-78 156.5,-48 254.5,-48 254.5,-78"/>
<text text-anchor="start" x="164.5" y="-66" font-family="Helvetica,sans-Serif" font-size="10.00">iii_drone::control</text>
<text text-anchor="middle" x="205.5" y="-55" font-family="Helvetica,sans-Serif" font-size="10.00">::State::stamp</text>
</a>
</g>
</g>
<!-- Node1&#45;&gt;Node6 -->
<g id="edge5_Node000001_Node000006" class="edge">
<title>Node1&#45;&gt;Node6</title>
<g id="a_edge5_Node000001_Node000006"><a xlink:title=" ">
<path fill="none" stroke="#63b8ff" d="M80.81,-111.85C96.56,-104.32 116.14,-95.29 134,-88 139.31,-85.83 144.9,-83.66 150.49,-81.56"/>
<polygon fill="#63b8ff" stroke="#63b8ff" points="151.71,-84.85 159.88,-78.11 149.29,-78.28 151.71,-84.85"/>
</a>
</g>
</g>
<!-- Node7 -->
<g id="Node000007" class="node">
<title>Node7</title>
<g id="a_Node000007"><a xlink:href="classiii__drone_1_1control_1_1State.html#a0cf0c57ba34058c7ba14581c17e82f0b" target="_top" xlink:title=" ">
<polygon fill="white" stroke="#666666" points="254.5,-30 156.5,-30 156.5,0 254.5,0 254.5,-30"/>
<text text-anchor="start" x="164.5" y="-18" font-family="Helvetica,sans-Serif" font-size="10.00">iii_drone::control</text>
<text text-anchor="middle" x="205.5" y="-7" font-family="Helvetica,sans-Serif" font-size="10.00">::State::velocity</text>
</a>
</g>
</g>
<!-- Node1&#45;&gt;Node7 -->
<g id="edge6_Node000001_Node000007" class="edge">
<title>Node1&#45;&gt;Node7</title>
<g id="a_edge6_Node000001_Node000007"><a xlink:title=" ">
<path fill="none" stroke="#63b8ff" d="M60.8,-111.79C75.35,-92.33 103.03,-58.78 134,-39 138.08,-36.4 142.47,-34.04 146.99,-31.92"/>
<polygon fill="#63b8ff" stroke="#63b8ff" points="148.6,-35.04 156.41,-27.88 145.84,-28.6 148.6,-35.04"/>
</a>
</g>
</g>
</g>
</svg>
</svg>

<style type='text/css'>
<![CDATA[
[data-mouse-over-selected='false'] { opacity: 0.7; }
[data-mouse-over-selected='true']  { opacity: 1.0; }
]]>
</style>
<script type="application/ecmascript"><![CDATA[
document.addEventListener('DOMContentLoaded', (event) => {
  highlightEdges();
  highlightAdjacentNodes();
});
]]></script>
</svg>
