<?xml version="1.0" encoding="UTF-8" standalone="no"?>
<!DOCTYPE svg PUBLIC "-//W3C//DTD SVG 1.1//EN"
 "http://www.w3.org/Graphics/SVG/1.1/DTD/svg11.dtd">
<!-- Generated by graphviz version 2.43.0 (0)
 -->
<!-- Title: iii_drone::control::flight_controller_node::FlightControllerConfigurator Pages: 1 -->
<!--zoomable 842 -->

<svg id="main" version="1.1" xmlns="http://www.w3.org/2000/svg" xmlns:xlink="http://www.w3.org/1999/xlink" xml:space="preserve" onload="init(evt)">
<style type="text/css"><![CDATA[
.node, .edge {opacity: 0.7;}
.node.selected, .edge.selected {opacity: 1;}
.edge:hover path { stroke: red; }
.edge:hover polygon { stroke: red; fill: red; }
]]></style>

<defs>
  <circle id="rim" cx="0" cy="0" r="7"/>
  <circle id="rim2" cx="0" cy="0" r="3.5"/>
  <g id="zoomPlus">
    <use xlink:href="#rim" fill="#404040"><set attributeName="fill" to="#808080" begin="zoomplus.mouseover" end="zoomplus.mouseout"/></use>
    <path d="M-4,0h8M0,-4v8" fill="none" stroke="white" stroke-width="1.5" pointer-events="none"/>
  </g>
  <g id="zoomMin">
    <use xlink:href="#rim" fill="#404040"><set attributeName="fill" to="#808080" begin="zoomminus.mouseover" end="zoomminus.mouseout"/></use>
    <path d="M-4,0h8" fill="none" stroke="white" stroke-width="1.5" pointer-events="none"/>
  </g>
  <g id="arrowUp" transform="translate(30 24)">
    <use xlink:href="#rim"/>
    <path pointer-events="none" fill="none" stroke="white" stroke-width="1.5" d="M0,-3.0v7 M-2.5,-0.5L0,-3.0L2.5,-0.5"/>
  </g>
  <g id="arrowRight" transform="rotate(90) translate(36 -43)">
    <use xlink:href="#rim"/>
    <path pointer-events="none" fill="none" stroke="white" stroke-width="1.5" d="M0,-3.0v7 M-2.5,-0.5L0,-3.0L2.5,-0.5"/>
  </g>
  <g id="arrowDown" transform="rotate(180) translate(-30 -48)">
    <use xlink:href="#rim"/>
    <path pointer-events="none" fill="none" stroke="white" stroke-width="1.5" d="M0,-3.0v7 M-2.5,-0.5L0,-3.0L2.5,-0.5"/>
  </g>
  <g id="arrowLeft" transform="rotate(270) translate(-36 17)">
    <use xlink:href="#rim"/>
    <path pointer-events="none" fill="none" stroke="white" stroke-width="1.5" d="M0,-3.0v7 M-2.5,-0.5L0,-3.0L2.5,-0.5"/>
  </g>
  <g id="resetDef">
    <use xlink:href="#rim2" fill="#404040"><set attributeName="fill" to="#808080" begin="reset.mouseover" end="reset.mouseout"/></use>
  </g>
</defs>
<script type="application/ecmascript">
var viewWidth = 480;
var viewHeight = 842;
var sectionId = 'dynsection-1';
</script>
<script type="application/ecmascript" xlink:href="svg.min.js"/>
<svg id="graph" class="graph">
<g id="viewport">
<title>iii_drone::control::flight_controller_node::FlightControllerConfigurator</title>
<!-- Node1 -->
<g id="Node000001" class="node">
<title>Node1</title>
<g id="a_Node000001"><a xlink:title="Class for handling parameters for FlightController.">
<polygon fill="#999999" stroke="transparent" points="366.5,-369 184.5,-369 184.5,0 366.5,0 366.5,-369"/>
<text text-anchor="start" x="189.5" y="-356.5" font-family="Helvetica,sans-Serif" font-size="10.00">iii_drone::control</text>
<text text-anchor="start" x="189.5" y="-345.5" font-family="Helvetica,sans-Serif" font-size="10.00">::flight_controller</text>
<text text-anchor="start" x="189.5" y="-334.5" font-family="Helvetica,sans-Serif" font-size="10.00">_node::FlightControllerConfigurator</text>
<text text-anchor="start" x="192" y="-319.5" font-family="Helvetica,sans-Serif" font-size="10.00">&#45;</text>
<text text-anchor="start" x="203.5" y="-319.5" font-family="Helvetica,sans-Serif" font-size="10.00">behavior_state_parameters</text>
<text text-anchor="start" x="203.5" y="-308.5" font-family="Helvetica,sans-Serif" font-size="10.00">_initialized_</text>
<text text-anchor="start" x="192" y="-293.5" font-family="Helvetica,sans-Serif" font-size="10.00">&#45;</text>
<text text-anchor="start" x="203.5" y="-293.5" font-family="Helvetica,sans-Serif" font-size="10.00">after_parameter_change</text>
<text text-anchor="start" x="203.5" y="-282.5" font-family="Helvetica,sans-Serif" font-size="10.00">_callback_</text>
<text text-anchor="start" x="189.5" y="-267.5" font-family="Helvetica,sans-Serif" font-size="10.00">+</text>
<text text-anchor="start" x="203.5" y="-267.5" font-family="Helvetica,sans-Serif" font-size="10.00">FlightControllerConfigurator()</text>
<text text-anchor="start" x="189.5" y="-252.5" font-family="Helvetica,sans-Serif" font-size="10.00">+</text>
<text text-anchor="start" x="203.5" y="-252.5" font-family="Helvetica,sans-Serif" font-size="10.00">FlightControllerConfigurator()</text>
<text text-anchor="start" x="189.5" y="-237.5" font-family="Helvetica,sans-Serif" font-size="10.00">+</text>
<text text-anchor="start" x="203.5" y="-237.5" font-family="Helvetica,sans-Serif" font-size="10.00">always_armed_for_debug()</text>
<text text-anchor="start" x="189.5" y="-222.5" font-family="Helvetica,sans-Serif" font-size="10.00">+</text>
<text text-anchor="start" x="203.5" y="-222.5" font-family="Helvetica,sans-Serif" font-size="10.00">landed_altitude_threshold()</text>
<text text-anchor="start" x="189.5" y="-207.5" font-family="Helvetica,sans-Serif" font-size="10.00">+</text>
<text text-anchor="start" x="203.5" y="-207.5" font-family="Helvetica,sans-Serif" font-size="10.00">use_ground_altitude</text>
<text text-anchor="start" x="203.5" y="-196.5" font-family="Helvetica,sans-Serif" font-size="10.00">_offset()</text>
<text text-anchor="start" x="189.5" y="-181.5" font-family="Helvetica,sans-Serif" font-size="10.00">+</text>
<text text-anchor="start" x="203.5" y="-181.5" font-family="Helvetica,sans-Serif" font-size="10.00">reached_position_euclidean</text>
<text text-anchor="start" x="203.5" y="-170.5" font-family="Helvetica,sans-Serif" font-size="10.00">_distance_threshold()</text>
<text text-anchor="start" x="189.5" y="-155.5" font-family="Helvetica,sans-Serif" font-size="10.00">+</text>
<text text-anchor="start" x="203.5" y="-155.5" font-family="Helvetica,sans-Serif" font-size="10.00">minimum_target_altitude()</text>
<text text-anchor="start" x="189.5" y="-140.5" font-family="Helvetica,sans-Serif" font-size="10.00">+</text>
<text text-anchor="start" x="203.5" y="-140.5" font-family="Helvetica,sans-Serif" font-size="10.00">target_cable_fixed</text>
<text text-anchor="start" x="203.5" y="-129.5" font-family="Helvetica,sans-Serif" font-size="10.00">_position_distance_threshold()</text>
<text text-anchor="start" x="189.5" y="-114.5" font-family="Helvetica,sans-Serif" font-size="10.00">+</text>
<text text-anchor="start" x="203.5" y="-114.5" font-family="Helvetica,sans-Serif" font-size="10.00">target_cable_safety</text>
<text text-anchor="start" x="203.5" y="-103.5" font-family="Helvetica,sans-Serif" font-size="10.00">_margin_distance_threshold()</text>
<text text-anchor="start" x="189.5" y="-88.5" font-family="Helvetica,sans-Serif" font-size="10.00">+</text>
<text text-anchor="start" x="203.5" y="-88.5" font-family="Helvetica,sans-Serif" font-size="10.00">target_cable_safety</text>
<text text-anchor="start" x="203.5" y="-77.5" font-family="Helvetica,sans-Serif" font-size="10.00">_margin_max_euc_distance()</text>
<text text-anchor="start" x="203.5" y="-62.5" font-family="Helvetica,sans-Serif" font-size="10.00">and 39 more...</text>
<text text-anchor="start" x="192" y="-47.5" font-family="Helvetica,sans-Serif" font-size="10.00">&#45;</text>
<text text-anchor="start" x="203.5" y="-47.5" font-family="Helvetica,sans-Serif" font-size="10.00">declareNodeParameters()</text>
<text text-anchor="start" x="192" y="-32.5" font-family="Helvetica,sans-Serif" font-size="10.00">&#45;</text>
<text text-anchor="start" x="203.5" y="-32.5" font-family="Helvetica,sans-Serif" font-size="10.00">initBehaviorStateParameters()</text>
<text text-anchor="start" x="192" y="-17.5" font-family="Helvetica,sans-Serif" font-size="10.00">&#45;</text>
<text text-anchor="start" x="203.5" y="-17.5" font-family="Helvetica,sans-Serif" font-size="10.00">updateBehavorStateParameters</text>
<text text-anchor="start" x="203.5" y="-6.5" font-family="Helvetica,sans-Serif" font-size="10.00">ObjectCallback()</text>
<polygon fill="#666666" stroke="#666666" points="184.5,-329.5 184.5,-329.5 366.5,-329.5 366.5,-329.5 184.5,-329.5"/>
<polygon fill="#666666" stroke="#666666" points="184.5,-277.5 184.5,-277.5 201.5,-277.5 201.5,-277.5 184.5,-277.5"/>
<polygon fill="#666666" stroke="#666666" points="201.5,-277.5 201.5,-277.5 366.5,-277.5 366.5,-277.5 201.5,-277.5"/>
<polygon fill="none" stroke="#666666" points="184.5,0 184.5,-369 366.5,-369 366.5,0 184.5,0"/>
</a>
</g>
</g>
<!-- Node2 -->
<g id="Node000002" class="node">
<title>Node2</title>
<g id="a_Node000002"><a xlink:href="classiii__drone_1_1configuration_1_1Configurator.html" target="_top" xlink:title="Class for handling parameters of a node. The class works in conjunction with the ConfigurationServer ...">
<polygon fill="white" stroke="transparent" points="273.5,-727 93.5,-727 93.5,-416 273.5,-416 273.5,-727"/>
<text text-anchor="start" x="127.5" y="-714.5" font-family="Helvetica,sans-Serif" font-size="10.00">iii_drone::configuration</text>
<text text-anchor="start" x="150" y="-703.5" font-family="Helvetica,sans-Serif" font-size="10.00">::Configurator</text>
<text text-anchor="start" x="97.5" y="-688.5" font-family="Helvetica,sans-Serif" font-size="10.00">#</text>
<text text-anchor="start" x="110.5" y="-688.5" font-family="Helvetica,sans-Serif" font-size="10.00">node_</text>
<text text-anchor="start" x="100" y="-673.5" font-family="Helvetica,sans-Serif" font-size="10.00">&#45;</text>
<text text-anchor="start" x="110.5" y="-673.5" font-family="Helvetica,sans-Serif" font-size="10.00">declare_parameter_client_</text>
<text text-anchor="start" x="100" y="-658.5" font-family="Helvetica,sans-Serif" font-size="10.00">&#45;</text>
<text text-anchor="start" x="110.5" y="-658.5" font-family="Helvetica,sans-Serif" font-size="10.00">get_parameters_client_</text>
<text text-anchor="start" x="100" y="-643.5" font-family="Helvetica,sans-Serif" font-size="10.00">&#45;</text>
<text text-anchor="start" x="110.5" y="-643.5" font-family="Helvetica,sans-Serif" font-size="10.00">parameter_events_subscriber_</text>
<text text-anchor="start" x="100" y="-628.5" font-family="Helvetica,sans-Serif" font-size="10.00">&#45;</text>
<text text-anchor="start" x="110.5" y="-628.5" font-family="Helvetica,sans-Serif" font-size="10.00">after_parameter_change</text>
<text text-anchor="start" x="110.5" y="-617.5" font-family="Helvetica,sans-Serif" font-size="10.00">_callback_</text>
<text text-anchor="start" x="97.5" y="-602.5" font-family="Helvetica,sans-Serif" font-size="10.00">+</text>
<text text-anchor="start" x="110.5" y="-602.5" font-family="Helvetica,sans-Serif" font-size="10.00">Configurator()</text>
<text text-anchor="start" x="97.5" y="-587.5" font-family="Helvetica,sans-Serif" font-size="10.00">+</text>
<text text-anchor="start" x="110.5" y="-587.5" font-family="Helvetica,sans-Serif" font-size="10.00">Configurator()</text>
<text text-anchor="start" x="97.5" y="-572.5" font-family="Helvetica,sans-Serif" font-size="10.00">+</text>
<text text-anchor="start" x="110.5" y="-572.5" font-family="Helvetica,sans-Serif" font-size="10.00">~Configurator()</text>
<text text-anchor="start" x="97.5" y="-557.5" font-family="Helvetica,sans-Serif" font-size="10.00">+</text>
<text text-anchor="start" x="110.5" y="-557.5" font-family="Helvetica,sans-Serif" font-size="10.00">DeclareParameter()</text>
<text text-anchor="start" x="97.5" y="-542.5" font-family="Helvetica,sans-Serif" font-size="10.00">+</text>
<text text-anchor="start" x="110.5" y="-542.5" font-family="Helvetica,sans-Serif" font-size="10.00">GetParameter()</text>
<text text-anchor="start" x="97.5" y="-527.5" font-family="Helvetica,sans-Serif" font-size="10.00">+</text>
<text text-anchor="start" x="110.5" y="-527.5" font-family="Helvetica,sans-Serif" font-size="10.00">GetParameters()</text>
<text text-anchor="start" x="97.5" y="-512.5" font-family="Helvetica,sans-Serif" font-size="10.00">+</text>
<text text-anchor="start" x="110.5" y="-512.5" font-family="Helvetica,sans-Serif" font-size="10.00">SyncParameters()</text>
<text text-anchor="start" x="97.5" y="-497.5" font-family="Helvetica,sans-Serif" font-size="10.00">+</text>
<text text-anchor="start" x="110.5" y="-497.5" font-family="Helvetica,sans-Serif" font-size="10.00">PrintParameters()</text>
<text text-anchor="start" x="97.5" y="-482.5" font-family="Helvetica,sans-Serif" font-size="10.00">+</text>
<text text-anchor="start" x="110.5" y="-482.5" font-family="Helvetica,sans-Serif" font-size="10.00">GetParameterTypeString()</text>
<text text-anchor="start" x="100" y="-467.5" font-family="Helvetica,sans-Serif" font-size="10.00">&#45;</text>
<text text-anchor="start" x="110.5" y="-467.5" font-family="Helvetica,sans-Serif" font-size="10.00">parameterEventCallback()</text>
<text text-anchor="start" x="100" y="-452.5" font-family="Helvetica,sans-Serif" font-size="10.00">&#45;</text>
<text text-anchor="start" x="110.5" y="-452.5" font-family="Helvetica,sans-Serif" font-size="10.00">sendDeclareParameterRequest()</text>
<text text-anchor="start" x="100" y="-437.5" font-family="Helvetica,sans-Serif" font-size="10.00">&#45;</text>
<text text-anchor="start" x="110.5" y="-437.5" font-family="Helvetica,sans-Serif" font-size="10.00">sendGetParameterRequest()</text>
<text text-anchor="start" x="100" y="-422.5" font-family="Helvetica,sans-Serif" font-size="10.00">&#45;</text>
<text text-anchor="start" x="110.5" y="-422.5" font-family="Helvetica,sans-Serif" font-size="10.00">sendGetParametersRequest()</text>
<polygon fill="#666666" stroke="#666666" points="93.5,-698.5 93.5,-698.5 273.5,-698.5 273.5,-698.5 93.5,-698.5"/>
<polygon fill="#666666" stroke="#666666" points="93.5,-612.5 93.5,-612.5 108.5,-612.5 108.5,-612.5 93.5,-612.5"/>
<polygon fill="#666666" stroke="#666666" points="108.5,-612.5 108.5,-612.5 273.5,-612.5 273.5,-612.5 108.5,-612.5"/>
<polygon fill="none" stroke="#666666" points="93.5,-416 93.5,-727 273.5,-727 273.5,-416 93.5,-416"/>
</a>
</g>
</g>
<!-- Node2&#45;&gt;Node1 -->
<g id="edge1_Node000001_Node000002" class="edge">
<title>Node2&#45;&gt;Node1</title>
<g id="a_edge1_Node000001_Node000002"><a xlink:title=" ">
<path fill="none" stroke="#63b8ff" d="M222.79,-406.08C225.71,-393.86 228.67,-381.48 231.61,-369.15"/>
<polygon fill="none" stroke="#63b8ff" points="219.38,-405.31 220.46,-415.85 226.18,-406.93 219.38,-405.31"/>
</a>
</g>
</g>
<!-- Node3 -->
<g id="Node000003" class="node">
<title>Node3</title>
<g id="a_Node000003"><a xlink:title=" ">
<polygon fill="white" stroke="transparent" points="103,-834 0,-834 0,-774 103,-774 103,-834"/>
<text text-anchor="start" x="5.5" y="-822" font-family="Helvetica,sans-Serif" font-size="10.00">std::vector&lt; rclcpp</text>
<text text-anchor="start" x="18" y="-811" font-family="Helvetica,sans-Serif" font-size="10.00">::Parameter &gt;</text>
<text text-anchor="start" x="13.5" y="-796" font-family="Helvetica,sans-Serif" font-size="10.00">+</text>
<text text-anchor="start" x="35.5" y="-796" font-family="Helvetica,sans-Serif" font-size="10.00">elements</text>
<text text-anchor="start" x="50" y="-781" font-family="Helvetica,sans-Serif" font-size="10.00"> </text>
<polygon fill="#666666" stroke="#666666" points="0.5,-806 0.5,-806 103.5,-806 103.5,-806 0.5,-806"/>
<polygon fill="#666666" stroke="#666666" points="0.5,-791 0.5,-791 33.5,-791 33.5,-791 0.5,-791"/>
<polygon fill="#666666" stroke="#666666" points="33.5,-791 33.5,-791 103.5,-791 103.5,-791 33.5,-791"/>
<polygon fill="none" stroke="#666666" points="0,-774 0,-834 103,-834 103,-774 0,-774"/>
</a>
</g>
</g>
<!-- Node3&#45;&gt;Node2 -->
<g id="edge2_Node000002_Node000003" class="edge">
<title>Node3&#45;&gt;Node2</title>
<g id="a_edge2_Node000002_Node000003"><a xlink:title=" ">
<path fill="none" stroke="#63b8ff" d="M68.22,-773.81C74.08,-763.57 81.14,-751.24 88.85,-737.77"/>
<polygon fill="none" stroke="#63b8ff" points="88.9,-737.68 88.41,-730.49 94.87,-727.27 95.36,-734.47 88.9,-737.68"/>
</a>
</g>
<text text-anchor="middle" x="118" y="-748" font-family="Helvetica,sans-Serif" font-size="10.00" fill="grey"> &#45;parameters_</text>
</g>
<!-- Node4 -->
<g id="Node000004" class="node">
<title>Node4</title>
<g id="a_Node000004"><a xlink:title=" ">
<polygon fill="white" stroke="transparent" points="245.5,-834 121.5,-834 121.5,-774 245.5,-774 245.5,-834"/>
<text text-anchor="start" x="126.5" y="-822" font-family="Helvetica,sans-Serif" font-size="10.00">std::unique_ptr&lt; rclcpp</text>
<text text-anchor="start" x="165" y="-811" font-family="Helvetica,sans-Serif" font-size="10.00">::QoS &gt;</text>
<text text-anchor="start" x="136" y="-796" font-family="Helvetica,sans-Serif" font-size="10.00">+</text>
<text text-anchor="start" x="159.5" y="-796" font-family="Helvetica,sans-Serif" font-size="10.00">ptr</text>
<text text-anchor="start" x="136" y="-781" font-family="Helvetica,sans-Serif" font-size="10.00">+</text>
<text text-anchor="start" x="159.5" y="-781" font-family="Helvetica,sans-Serif" font-size="10.00">operator&#45;&gt;()</text>
<polygon fill="#666666" stroke="#666666" points="121.5,-806 121.5,-806 245.5,-806 245.5,-806 121.5,-806"/>
<polygon fill="#666666" stroke="#666666" points="121.5,-791 121.5,-791 157.5,-791 157.5,-791 121.5,-791"/>
<polygon fill="#666666" stroke="#666666" points="157.5,-791 157.5,-791 245.5,-791 245.5,-791 157.5,-791"/>
<polygon fill="none" stroke="#666666" points="121.5,-774 121.5,-834 245.5,-834 245.5,-774 121.5,-774"/>
</a>
</g>
</g>
<!-- Node4&#45;&gt;Node2 -->
<g id="edge3_Node000002_Node000004" class="edge">
<title>Node4&#45;&gt;Node2</title>
<g id="a_edge3_Node000002_Node000004"><a xlink:title=" ">
<path fill="none" stroke="#63b8ff" d="M183.5,-773.81C183.5,-763.98 183.5,-752.2 183.5,-739.35"/>
<polygon fill="none" stroke="#63b8ff" points="183.5,-739.27 179.5,-733.27 183.5,-727.27 187.5,-733.27 183.5,-739.27"/>
</a>
</g>
<text text-anchor="middle" x="198.5" y="-748" font-family="Helvetica,sans-Serif" font-size="10.00" fill="grey"> &#45;qos_</text>
</g>
<!-- Node5 -->
<g id="Node000005" class="node">
<title>Node5</title>
<g id="a_Node000005"><a xlink:title=" ">
<polygon fill="white" stroke="transparent" points="365,-828.5 264,-828.5 264,-779.5 365,-779.5 365,-828.5"/>
<text text-anchor="start" x="269.5" y="-816" font-family="Helvetica,sans-Serif" font-size="10.00">std::shared_mutex</text>
<text text-anchor="start" x="313" y="-801" font-family="Helvetica,sans-Serif" font-size="10.00"> </text>
<text text-anchor="start" x="313" y="-786" font-family="Helvetica,sans-Serif" font-size="10.00"> </text>
<polygon fill="#666666" stroke="#666666" points="264.5,-811 264.5,-811 365.5,-811 365.5,-811 264.5,-811"/>
<polygon fill="#666666" stroke="#666666" points="264.5,-796 264.5,-796 365.5,-796 365.5,-796 264.5,-796"/>
<polygon fill="none" stroke="#666666" points="264,-779.5 264,-828.5 365,-828.5 365,-779.5 264,-779.5"/>
</a>
</g>
</g>
<!-- Node5&#45;&gt;Node2 -->
<g id="edge4_Node000002_Node000005" class="edge">
<title>Node5&#45;&gt;Node2</title>
<g id="a_edge4_Node000002_Node000005"><a xlink:title=" ">
<path fill="none" stroke="#63b8ff" d="M300.97,-779.2C294.65,-768.07 286.51,-753.75 277.48,-737.86"/>
<polygon fill="none" stroke="#63b8ff" points="277.36,-737.64 270.91,-734.4 271.43,-727.21 277.87,-730.45 277.36,-737.64"/>
</a>
</g>
<text text-anchor="middle" x="339.5" y="-748" font-family="Helvetica,sans-Serif" font-size="10.00" fill="grey"> &#45;parameters_mutex_</text>
</g>
<!-- Node6 -->
<g id="Node000006" class="node">
<title>Node6</title>
<g id="a_Node000006"><a xlink:title=" ">
<polygon fill="white" stroke="transparent" points="443.5,-601.5 291.5,-601.5 291.5,-541.5 443.5,-541.5 443.5,-601.5"/>
<text text-anchor="start" x="296.5" y="-589.5" font-family="Helvetica,sans-Serif" font-size="10.00">std::shared_ptr&lt; control</text>
<text text-anchor="start" x="296.5" y="-578.5" font-family="Helvetica,sans-Serif" font-size="10.00">::BehaviorStateParameters &gt;</text>
<text text-anchor="start" x="313" y="-563.5" font-family="Helvetica,sans-Serif" font-size="10.00">+</text>
<text text-anchor="start" x="343.5" y="-563.5" font-family="Helvetica,sans-Serif" font-size="10.00">ptr</text>
<text text-anchor="start" x="313" y="-548.5" font-family="Helvetica,sans-Serif" font-size="10.00">+</text>
<text text-anchor="start" x="343.5" y="-548.5" font-family="Helvetica,sans-Serif" font-size="10.00">operator&#45;&gt;()</text>
<polygon fill="#666666" stroke="#666666" points="291.5,-573.5 291.5,-573.5 443.5,-573.5 443.5,-573.5 291.5,-573.5"/>
<polygon fill="#666666" stroke="#666666" points="291.5,-558.5 291.5,-558.5 341.5,-558.5 341.5,-558.5 291.5,-558.5"/>
<polygon fill="#666666" stroke="#666666" points="341.5,-558.5 341.5,-558.5 443.5,-558.5 443.5,-558.5 341.5,-558.5"/>
<polygon fill="none" stroke="#666666" points="291.5,-541.5 291.5,-601.5 443.5,-601.5 443.5,-541.5 291.5,-541.5"/>
</a>
</g>
</g>
<!-- Node6&#45;&gt;Node1 -->
<g id="edge5_Node000001_Node000006" class="edge">
<title>Node6&#45;&gt;Node1</title>
<g id="a_edge5_Node000001_Node000006"><a xlink:title=" ">
<path fill="none" stroke="#63b8ff" d="M360.51,-541.25C352.08,-505.98 337.17,-443.58 322.16,-380.78"/>
<polygon fill="none" stroke="#63b8ff" points="322.15,-380.73 316.87,-375.82 319.36,-369.06 324.65,-373.96 322.15,-380.73"/>
</a>
</g>
<text text-anchor="middle" x="398" y="-390" font-family="Helvetica,sans-Serif" font-size="10.00" fill="grey"> &#45;behavior_state_parameters_</text>
</g>
</g>
</svg>

<g id="navigator" transform="translate(0 0)" fill="#404254">
  <rect fill="#f2f5e9" fill-opacity="0.5" stroke="#606060" stroke-width=".5" x="0" y="0" width="60" height="60"/>
  <use id="zoomplus" xlink:href="#zoomPlus" x="17" y="9" onmousedown="handleZoom(evt,'in')"/>
  <use id="zoomminus" xlink:href="#zoomMin" x="42" y="9" onmousedown="handleZoom(evt,'out')"/>
  <use id="reset" xlink:href="#resetDef" x="30" y="36" onmousedown="handleReset()"/>
   <use id="arrowup" xlink:href="#arrowUp" x="0" y="0" onmousedown="handlePan(0,-1)"/>
  <use id="arrowright" xlink:href="#arrowRight" x="0" y="0" onmousedown="handlePan(1,0)"/>
  <use id="arrowdown" xlink:href="#arrowDown" x="0" y="0" onmousedown="handlePan(0,1)"/>
  <use id="arrowleft" xlink:href="#arrowLeft" x="0" y="0" onmousedown="handlePan(-1,0)"/>
</g>
<svg viewBox="0 0 15 15" width="100%" height="30px" preserveAspectRatio="xMaxYMin meet">
 <g id="arrow_out" transform="scale(0.3 0.3)">
  <a xlink:href="classiii__drone_1_1control_1_1flight__controller__node_1_1FlightControllerConfigurator__coll__graph_org.svg" target="_base">
   <rect id="button" ry="5" rx="5" y="6" x="6" height="38" width="38"
        fill="#f2f5e9" fill-opacity="0.5" stroke="#606060" stroke-width="1.0"/>
   <path id="arrow"
     d="M 11.500037,31.436501 C 11.940474,20.09759 22.043105,11.32322 32.158766,21.979434 L 37.068811,17.246167 C 37.068811,17.246167 37.088388,32 37.088388,32 L 22.160133,31.978069 C 22.160133,31.978069 26.997745,27.140456 26.997745,27.140456 C 18.528582,18.264221 13.291696,25.230495 11.500037,31.436501 z"
     style="fill:#404040;"/>
  </a>
 </g>
</svg>

<style type='text/css'>
<![CDATA[
[data-mouse-over-selected='false'] { opacity: 0.7; }
[data-mouse-over-selected='true']  { opacity: 1.0; }
]]>
</style>
<script type="application/ecmascript"><![CDATA[
document.addEventListener('DOMContentLoaded', (event) => {
  highlightEdges();
  highlightAdjacentNodes();
});
]]></script>
</svg>
