<?xml version="1.0" encoding="UTF-8" standalone="no"?>
<!DOCTYPE svg PUBLIC "-//W3C//DTD SVG 1.1//EN"
 "http://www.w3.org/Graphics/SVG/1.1/DTD/svg11.dtd">
<!-- Generated by graphviz version 2.43.0 (0)
 -->
<!-- Title: iii_drone::control::CombinedDroneAwarenessHandlerParameters Pages: 1 -->
<!--zoomable 629 -->

<svg id="main" version="1.1" xmlns="http://www.w3.org/2000/svg" xmlns:xlink="http://www.w3.org/1999/xlink" xml:space="preserve" onload="init(evt)">
<style type="text/css"><![CDATA[
.node, .edge {opacity: 0.7;}
.node.selected, .edge.selected {opacity: 1;}
.edge:hover path { stroke: red; }
.edge:hover polygon { stroke: red; fill: red; }
]]></style>

<defs>
  <circle id="rim" cx="0" cy="0" r="7"/>
  <circle id="rim2" cx="0" cy="0" r="3.5"/>
  <g id="zoomPlus">
    <use xlink:href="#rim" fill="#404040"><set attributeName="fill" to="#808080" begin="zoomplus.mouseover" end="zoomplus.mouseout"/></use>
    <path d="M-4,0h8M0,-4v8" fill="none" stroke="white" stroke-width="1.5" pointer-events="none"/>
  </g>
  <g id="zoomMin">
    <use xlink:href="#rim" fill="#404040"><set attributeName="fill" to="#808080" begin="zoomminus.mouseover" end="zoomminus.mouseout"/></use>
    <path d="M-4,0h8" fill="none" stroke="white" stroke-width="1.5" pointer-events="none"/>
  </g>
  <g id="arrowUp" transform="translate(30 24)">
    <use xlink:href="#rim"/>
    <path pointer-events="none" fill="none" stroke="white" stroke-width="1.5" d="M0,-3.0v7 M-2.5,-0.5L0,-3.0L2.5,-0.5"/>
  </g>
  <g id="arrowRight" transform="rotate(90) translate(36 -43)">
    <use xlink:href="#rim"/>
    <path pointer-events="none" fill="none" stroke="white" stroke-width="1.5" d="M0,-3.0v7 M-2.5,-0.5L0,-3.0L2.5,-0.5"/>
  </g>
  <g id="arrowDown" transform="rotate(180) translate(-30 -48)">
    <use xlink:href="#rim"/>
    <path pointer-events="none" fill="none" stroke="white" stroke-width="1.5" d="M0,-3.0v7 M-2.5,-0.5L0,-3.0L2.5,-0.5"/>
  </g>
  <g id="arrowLeft" transform="rotate(270) translate(-36 17)">
    <use xlink:href="#rim"/>
    <path pointer-events="none" fill="none" stroke="white" stroke-width="1.5" d="M0,-3.0v7 M-2.5,-0.5L0,-3.0L2.5,-0.5"/>
  </g>
  <g id="resetDef">
    <use xlink:href="#rim2" fill="#404040"><set attributeName="fill" to="#808080" begin="reset.mouseover" end="reset.mouseout"/></use>
  </g>
</defs>
<script type="application/ecmascript">
var viewWidth = 289;
var viewHeight = 629;
var sectionId = 'dynsection-0';
</script>
<script type="application/ecmascript" xlink:href="svg.min.js"/>
<svg id="graph" class="graph">
<g id="viewport">
<title>iii_drone::control::CombinedDroneAwarenessHandlerParameters</title>
<!-- Node1 -->
<g id="Node000001" class="node">
<title>Node1</title>
<g id="a_Node000001"><a xlink:title="Class for handling parameters for the combined drone awareness handler object.">
<polygon fill="#999999" stroke="transparent" points="210.5,-351 18.5,-351 18.5,0 210.5,0 210.5,-351"/>
<text text-anchor="start" x="26" y="-338.5" font-family="Helvetica,sans-Serif" font-size="10.00">iii_drone::control</text>
<text text-anchor="start" x="26" y="-327.5" font-family="Helvetica,sans-Serif" font-size="10.00">::CombinedDroneAwarenessHandler</text>
<text text-anchor="start" x="86.5" y="-316.5" font-family="Helvetica,sans-Serif" font-size="10.00">Parameters</text>
<text text-anchor="start" x="25" y="-301.5" font-family="Helvetica,sans-Serif" font-size="10.00">&#45;</text>
<text text-anchor="start" x="35.5" y="-301.5" font-family="Helvetica,sans-Serif" font-size="10.00">ground_estimate_window</text>
<text text-anchor="start" x="35.5" y="-290.5" font-family="Helvetica,sans-Serif" font-size="10.00">_size_</text>
<text text-anchor="start" x="25" y="-275.5" font-family="Helvetica,sans-Serif" font-size="10.00">&#45;</text>
<text text-anchor="start" x="35.5" y="-275.5" font-family="Helvetica,sans-Serif" font-size="10.00">ground_estimate_update</text>
<text text-anchor="start" x="35.5" y="-264.5" font-family="Helvetica,sans-Serif" font-size="10.00">_period_ms_</text>
<text text-anchor="start" x="25" y="-249.5" font-family="Helvetica,sans-Serif" font-size="10.00">&#45;</text>
<text text-anchor="start" x="35.5" y="-249.5" font-family="Helvetica,sans-Serif" font-size="10.00">landed_altitude_threshold_</text>
<text text-anchor="start" x="25" y="-234.5" font-family="Helvetica,sans-Serif" font-size="10.00">&#45;</text>
<text text-anchor="start" x="35.5" y="-234.5" font-family="Helvetica,sans-Serif" font-size="10.00">on_cable_max_euc_distance_</text>
<text text-anchor="start" x="25" y="-219.5" font-family="Helvetica,sans-Serif" font-size="10.00">&#45;</text>
<text text-anchor="start" x="35.5" y="-219.5" font-family="Helvetica,sans-Serif" font-size="10.00">fail_on_unable_to_locate_</text>
<text text-anchor="start" x="22.5" y="-204.5" font-family="Helvetica,sans-Serif" font-size="10.00">+</text>
<text text-anchor="start" x="35.5" y="-204.5" font-family="Helvetica,sans-Serif" font-size="10.00">CombinedDroneAwarenessHandler</text>
<text text-anchor="start" x="35.5" y="-193.5" font-family="Helvetica,sans-Serif" font-size="10.00">Parameters()</text>
<text text-anchor="start" x="22.5" y="-178.5" font-family="Helvetica,sans-Serif" font-size="10.00">+</text>
<text text-anchor="start" x="35.5" y="-178.5" font-family="Helvetica,sans-Serif" font-size="10.00">ground_estimate_window</text>
<text text-anchor="start" x="35.5" y="-167.5" font-family="Helvetica,sans-Serif" font-size="10.00">_size()</text>
<text text-anchor="start" x="22.5" y="-152.5" font-family="Helvetica,sans-Serif" font-size="10.00">+</text>
<text text-anchor="start" x="35.5" y="-152.5" font-family="Helvetica,sans-Serif" font-size="10.00">ground_estimate_update</text>
<text text-anchor="start" x="35.5" y="-141.5" font-family="Helvetica,sans-Serif" font-size="10.00">_period_ms()</text>
<text text-anchor="start" x="22.5" y="-126.5" font-family="Helvetica,sans-Serif" font-size="10.00">+</text>
<text text-anchor="start" x="35.5" y="-126.5" font-family="Helvetica,sans-Serif" font-size="10.00">landed_altitude_threshold()</text>
<text text-anchor="start" x="22.5" y="-111.5" font-family="Helvetica,sans-Serif" font-size="10.00">+</text>
<text text-anchor="start" x="35.5" y="-111.5" font-family="Helvetica,sans-Serif" font-size="10.00">landed_altitude_threshold()</text>
<text text-anchor="start" x="22.5" y="-96.5" font-family="Helvetica,sans-Serif" font-size="10.00">+</text>
<text text-anchor="start" x="35.5" y="-96.5" font-family="Helvetica,sans-Serif" font-size="10.00">on_cable_max_euc_distance()</text>
<text text-anchor="start" x="22.5" y="-81.5" font-family="Helvetica,sans-Serif" font-size="10.00">+</text>
<text text-anchor="start" x="35.5" y="-81.5" font-family="Helvetica,sans-Serif" font-size="10.00">on_cable_max_euc_distance()</text>
<text text-anchor="start" x="22.5" y="-66.5" font-family="Helvetica,sans-Serif" font-size="10.00">+</text>
<text text-anchor="start" x="35.5" y="-66.5" font-family="Helvetica,sans-Serif" font-size="10.00">fail_on_unable_to_locate()</text>
<text text-anchor="start" x="22.5" y="-51.5" font-family="Helvetica,sans-Serif" font-size="10.00">+</text>
<text text-anchor="start" x="35.5" y="-51.5" font-family="Helvetica,sans-Serif" font-size="10.00">cable_gripper_frame_id()</text>
<text text-anchor="start" x="22.5" y="-36.5" font-family="Helvetica,sans-Serif" font-size="10.00">+</text>
<text text-anchor="start" x="35.5" y="-36.5" font-family="Helvetica,sans-Serif" font-size="10.00">drone_frame_id()</text>
<text text-anchor="start" x="22.5" y="-21.5" font-family="Helvetica,sans-Serif" font-size="10.00">+</text>
<text text-anchor="start" x="35.5" y="-21.5" font-family="Helvetica,sans-Serif" font-size="10.00">world_frame_id()</text>
<text text-anchor="start" x="22.5" y="-6.5" font-family="Helvetica,sans-Serif" font-size="10.00">+</text>
<text text-anchor="start" x="35.5" y="-6.5" font-family="Helvetica,sans-Serif" font-size="10.00">ground_frame_id()</text>
<polygon fill="#666666" stroke="#666666" points="18.5,-311.5 18.5,-311.5 210.5,-311.5 210.5,-311.5 18.5,-311.5"/>
<polygon fill="#666666" stroke="#666666" points="18.5,-214.5 18.5,-214.5 33.5,-214.5 33.5,-214.5 18.5,-214.5"/>
<polygon fill="#666666" stroke="#666666" points="33.5,-214.5 33.5,-214.5 210.5,-214.5 210.5,-214.5 33.5,-214.5"/>
<polygon fill="none" stroke="#666666" points="18.5,0 18.5,-351 210.5,-351 210.5,0 18.5,0"/>
</a>
</g>
</g>
<!-- Node2 -->
<g id="Node000002" class="node">
<title>Node2</title>
<g id="a_Node000002"><a xlink:title=" ">
<polygon fill="white" stroke="transparent" points="101,-524 0,-524 0,-475 101,-475 101,-524"/>
<text text-anchor="start" x="5.5" y="-511.5" font-family="Helvetica,sans-Serif" font-size="10.00">std::shared_mutex</text>
<text text-anchor="start" x="49" y="-496.5" font-family="Helvetica,sans-Serif" font-size="10.00"> </text>
<text text-anchor="start" x="49" y="-481.5" font-family="Helvetica,sans-Serif" font-size="10.00"> </text>
<polygon fill="#666666" stroke="#666666" points="0.5,-506.5 0.5,-506.5 101.5,-506.5 101.5,-506.5 0.5,-506.5"/>
<polygon fill="#666666" stroke="#666666" points="0.5,-491.5 0.5,-491.5 101.5,-491.5 101.5,-491.5 0.5,-491.5"/>
<polygon fill="none" stroke="#666666" points="0,-475 0,-524 101,-524 101,-475 0,-475"/>
</a>
</g>
</g>
<!-- Node2&#45;&gt;Node1 -->
<g id="edge1_Node000001_Node000002" class="edge">
<title>Node2&#45;&gt;Node1</title>
<g id="a_edge1_Node000001_Node000002"><a xlink:title=" ">
<path fill="none" stroke="#63b8ff" d="M48.52,-474.92C46.83,-448.83 45.52,-405.61 51.5,-369 51.82,-367.06 52.15,-365.12 52.5,-363.17"/>
<polygon fill="none" stroke="#63b8ff" points="52.54,-362.92 49.75,-356.27 54.82,-351.14 57.61,-357.79 52.54,-362.92"/>
</a>
</g>
<text text-anchor="middle" x="104.5" y="-410.5" font-family="Helvetica,sans-Serif" font-size="10.00" fill="grey"> &#45;parameters_mutex_</text>
</g>
<!-- Node3 -->
<g id="Node000003" class="node">
<title>Node3</title>
<g id="a_Node000003"><a xlink:title=" ">
<polygon fill="white" stroke="transparent" points="209,-524 150,-524 150,-475 209,-475 209,-524"/>
<text text-anchor="start" x="155.5" y="-511.5" font-family="Helvetica,sans-Serif" font-size="10.00">std::string</text>
<text text-anchor="start" x="178" y="-496.5" font-family="Helvetica,sans-Serif" font-size="10.00"> </text>
<text text-anchor="start" x="178" y="-481.5" font-family="Helvetica,sans-Serif" font-size="10.00"> </text>
<polygon fill="#666666" stroke="#666666" points="150.5,-506.5 150.5,-506.5 209.5,-506.5 209.5,-506.5 150.5,-506.5"/>
<polygon fill="#666666" stroke="#666666" points="150.5,-491.5 150.5,-491.5 209.5,-491.5 209.5,-491.5 150.5,-491.5"/>
<polygon fill="none" stroke="#666666" points="150,-475 150,-524 209,-524 209,-475 150,-475"/>
</a>
</g>
</g>
<!-- Node3&#45;&gt;Node1 -->
<g id="edge2_Node000001_Node000003" class="edge">
<title>Node3&#45;&gt;Node1</title>
<g id="a_edge2_Node000001_Node000003"><a xlink:title=" ">
<path fill="none" stroke="#63b8ff" d="M175.81,-474.56C171.71,-448.52 164.71,-405.7 157.5,-369 157.1,-366.98 156.7,-364.95 156.29,-362.9"/>
<polygon fill="none" stroke="#63b8ff" points="156.29,-362.88 151.18,-357.79 153.92,-351.11 159.02,-356.2 156.29,-362.88"/>
</a>
</g>
<text text-anchor="start" x="172.5" y="-449" font-family="Helvetica,sans-Serif" font-size="10.00" fill="grey"> &#45;cable_gripper_frame</text>
<text text-anchor="middle" x="226.5" y="-438" font-family="Helvetica,sans-Serif" font-size="10.00" fill="grey">_id_</text>
<text text-anchor="start" x="172.5" y="-427" font-family="Helvetica,sans-Serif" font-size="10.00" fill="grey">&#45;drone_frame_id</text>
<text text-anchor="middle" x="226.5" y="-416" font-family="Helvetica,sans-Serif" font-size="10.00" fill="grey">_</text>
<text text-anchor="start" x="172.5" y="-405" font-family="Helvetica,sans-Serif" font-size="10.00" fill="grey">&#45;ground_frame</text>
<text text-anchor="middle" x="226.5" y="-394" font-family="Helvetica,sans-Serif" font-size="10.00" fill="grey">_id_</text>
<text text-anchor="start" x="172.5" y="-383" font-family="Helvetica,sans-Serif" font-size="10.00" fill="grey">&#45;world_frame</text>
<text text-anchor="middle" x="226.5" y="-372" font-family="Helvetica,sans-Serif" font-size="10.00" fill="grey">_id_</text>
</g>
<!-- Node4 -->
<g id="Node000004" class="node">
<title>Node4</title>
<g id="a_Node000004"><a xlink:title=" ">
<polygon fill="white" stroke="transparent" points="228.5,-621 130.5,-621 130.5,-561 228.5,-561 228.5,-621"/>
<text text-anchor="start" x="135.5" y="-609" font-family="Helvetica,sans-Serif" font-size="10.00">std::basic_string&lt;</text>
<text text-anchor="start" x="161" y="-598" font-family="Helvetica,sans-Serif" font-size="10.00"> Char &gt;</text>
<text text-anchor="start" x="177.5" y="-583" font-family="Helvetica,sans-Serif" font-size="10.00"> </text>
<text text-anchor="start" x="177.5" y="-568" font-family="Helvetica,sans-Serif" font-size="10.00"> </text>
<polygon fill="#666666" stroke="#666666" points="130.5,-593 130.5,-593 228.5,-593 228.5,-593 130.5,-593"/>
<polygon fill="#666666" stroke="#666666" points="130.5,-578 130.5,-578 228.5,-578 228.5,-578 130.5,-578"/>
<polygon fill="none" stroke="#666666" points="130.5,-561 130.5,-621 228.5,-621 228.5,-561 130.5,-561"/>
</a>
</g>
</g>
<!-- Node4&#45;&gt;Node3 -->
<g id="edge3_Node000003_Node000004" class="edge">
<title>Node4&#45;&gt;Node3</title>
<g id="a_edge3_Node000003_Node000004"><a xlink:title=" ">
<path fill="none" stroke="#63b8ff" d="M179.5,-550.41C179.5,-541.47 179.5,-532.25 179.5,-524.21"/>
<polygon fill="none" stroke="#63b8ff" points="176,-550.69 179.5,-560.69 183,-550.69 176,-550.69"/>
</a>
</g>
</g>
</g>
</svg>

<g id="navigator" transform="translate(0 0)" fill="#404254">
  <rect fill="#f2f5e9" fill-opacity="0.5" stroke="#606060" stroke-width=".5" x="0" y="0" width="60" height="60"/>
  <use id="zoomplus" xlink:href="#zoomPlus" x="17" y="9" onmousedown="handleZoom(evt,'in')"/>
  <use id="zoomminus" xlink:href="#zoomMin" x="42" y="9" onmousedown="handleZoom(evt,'out')"/>
  <use id="reset" xlink:href="#resetDef" x="30" y="36" onmousedown="handleReset()"/>
   <use id="arrowup" xlink:href="#arrowUp" x="0" y="0" onmousedown="handlePan(0,-1)"/>
  <use id="arrowright" xlink:href="#arrowRight" x="0" y="0" onmousedown="handlePan(1,0)"/>
  <use id="arrowdown" xlink:href="#arrowDown" x="0" y="0" onmousedown="handlePan(0,1)"/>
  <use id="arrowleft" xlink:href="#arrowLeft" x="0" y="0" onmousedown="handlePan(-1,0)"/>
</g>
<svg viewBox="0 0 15 15" width="100%" height="30px" preserveAspectRatio="xMaxYMin meet">
 <g id="arrow_out" transform="scale(0.3 0.3)">
  <a xlink:href="classiii__drone_1_1control_1_1CombinedDroneAwarenessHandlerParameters__coll__graph_org.svg" target="_base">
   <rect id="button" ry="5" rx="5" y="6" x="6" height="38" width="38"
        fill="#f2f5e9" fill-opacity="0.5" stroke="#606060" stroke-width="1.0"/>
   <path id="arrow"
     d="M 11.500037,31.436501 C 11.940474,20.09759 22.043105,11.32322 32.158766,21.979434 L 37.068811,17.246167 C 37.068811,17.246167 37.088388,32 37.088388,32 L 22.160133,31.978069 C 22.160133,31.978069 26.997745,27.140456 26.997745,27.140456 C 18.528582,18.264221 13.291696,25.230495 11.500037,31.436501 z"
     style="fill:#404040;"/>
  </a>
 </g>
</svg>

<style type='text/css'>
<![CDATA[
[data-mouse-over-selected='false'] { opacity: 0.7; }
[data-mouse-over-selected='true']  { opacity: 1.0; }
]]>
</style>
<script type="application/ecmascript"><![CDATA[
document.addEventListener('DOMContentLoaded', (event) => {
  highlightEdges();
  highlightAdjacentNodes();
});
]]></script>
</svg>
