<?xml version="1.0" encoding="UTF-8" standalone="no"?>
<!DOCTYPE svg PUBLIC "-//W3C//DTD SVG 1.1//EN"
 "http://www.w3.org/Graphics/SVG/1.1/DTD/svg11.dtd">
<!-- Generated by graphviz version 2.43.0 (0)
 -->
<!-- Title: iii_drone::mission::continuous_mission_orchestrator_node::ContinuousMissionOrchestrator::cableLandingGoalResponseCallback Pages: 1 -->
<svg width="1236pt" height="233pt"
 viewBox="0.00 0.00 1236.00 233.00" xmlns="http://www.w3.org/2000/svg" xmlns:xlink="http://www.w3.org/1999/xlink">
<g id="graph0" class="graph" transform="scale(1 1) rotate(0) translate(4 229)">
<title>iii_drone::mission::continuous_mission_orchestrator_node::ContinuousMissionOrchestrator::cableLandingGoalResponseCallback</title>
<!-- Node1 -->
<g id="Node000001" class="node">
<title>Node1</title>
<g id="a_Node000001"><a xlink:title=" ">
<polygon fill="#999999" stroke="#666666" points="1228,-144 1020,-144 1020,-81 1228,-81 1228,-144"/>
<text text-anchor="start" x="1028" y="-132" font-family="Helvetica,sans-Serif" font-size="10.00">iii_drone::mission</text>
<text text-anchor="start" x="1028" y="-121" font-family="Helvetica,sans-Serif" font-size="10.00">::continuous_mission</text>
<text text-anchor="start" x="1028" y="-110" font-family="Helvetica,sans-Serif" font-size="10.00">_orchestrator_node::Continuous</text>
<text text-anchor="start" x="1028" y="-99" font-family="Helvetica,sans-Serif" font-size="10.00">MissionOrchestrator::cableLandingGoal</text>
<text text-anchor="middle" x="1124" y="-88" font-family="Helvetica,sans-Serif" font-size="10.00">ResponseCallback</text>
</a>
</g>
</g>
<!-- Node2 -->
<g id="Node000002" class="node">
<title>Node2</title>
<g id="a_Node000002"><a xlink:href="classiii__drone_1_1mission_1_1continuous__mission__orchestrator__node_1_1ContinuousMissionOrchestrator.html#a94916ea46229cae987e42b9f908d2ec2" target="_top" xlink:title=" ">
<polygon fill="white" stroke="#666666" points="984,-138.5 775,-138.5 775,-86.5 984,-86.5 984,-138.5"/>
<text text-anchor="start" x="783" y="-126.5" font-family="Helvetica,sans-Serif" font-size="10.00">iii_drone::mission</text>
<text text-anchor="start" x="783" y="-115.5" font-family="Helvetica,sans-Serif" font-size="10.00">::continuous_mission</text>
<text text-anchor="start" x="783" y="-104.5" font-family="Helvetica,sans-Serif" font-size="10.00">_orchestrator_node::Continuous</text>
<text text-anchor="middle" x="879.5" y="-93.5" font-family="Helvetica,sans-Serif" font-size="10.00">MissionOrchestrator::startCableLanding</text>
</a>
</g>
</g>
<!-- Node1&#45;&gt;Node2 -->
<g id="edge1_Node000001_Node000002" class="edge">
<title>Node1&#45;&gt;Node2</title>
<g id="a_edge1_Node000001_Node000002"><a xlink:title=" ">
<path fill="none" stroke="#63b8ff" d="M1009.59,-112.5C1001.18,-112.5 992.72,-112.5 984.37,-112.5"/>
<polygon fill="#63b8ff" stroke="#63b8ff" points="1009.81,-116 1019.81,-112.5 1009.81,-109 1009.81,-116"/>
</a>
</g>
</g>
<!-- Node3 -->
<g id="Node000003" class="node">
<title>Node3</title>
<g id="a_Node000003"><a xlink:href="classiii__drone_1_1mission_1_1continuous__mission__orchestrator__node_1_1ContinuousMissionOrchestrator.html#af7c5486c9ef326fe3920e39b136982fd" target="_top" xlink:title=" ">
<polygon fill="white" stroke="#666666" points="738,-225 515,-225 515,-162 738,-162 738,-225"/>
<text text-anchor="start" x="523" y="-213" font-family="Helvetica,sans-Serif" font-size="10.00">iii_drone::mission</text>
<text text-anchor="start" x="523" y="-202" font-family="Helvetica,sans-Serif" font-size="10.00">::continuous_mission</text>
<text text-anchor="start" x="523" y="-191" font-family="Helvetica,sans-Serif" font-size="10.00">_orchestrator_node::Continuous</text>
<text text-anchor="start" x="523" y="-180" font-family="Helvetica,sans-Serif" font-size="10.00">MissionOrchestrator::stateMachineClosing</text>
<text text-anchor="middle" x="626.5" y="-169" font-family="Helvetica,sans-Serif" font-size="10.00">Gripper</text>
</a>
</g>
</g>
<!-- Node2&#45;&gt;Node3 -->
<g id="edge2_Node000002_Node000003" class="edge">
<title>Node2&#45;&gt;Node3</title>
<g id="a_edge2_Node000002_Node000003"><a xlink:title=" ">
<path fill="none" stroke="#63b8ff" d="M788.12,-141.67C767.71,-148.25 745.96,-155.27 725.26,-161.95"/>
<polygon fill="#63b8ff" stroke="#63b8ff" points="789.26,-144.98 797.7,-138.57 787.11,-138.32 789.26,-144.98"/>
</a>
</g>
</g>
<!-- Node6 -->
<g id="Node000006" class="node">
<title>Node6</title>
<g id="a_Node000006"><a xlink:href="classiii__drone_1_1mission_1_1continuous__mission__orchestrator__node_1_1ContinuousMissionOrchestrator.html#aced4073ab58729bff6e815d51bf89778" target="_top" xlink:title=" ">
<polygon fill="white" stroke="#666666" points="739,-144 514,-144 514,-81 739,-81 739,-144"/>
<text text-anchor="start" x="522" y="-132" font-family="Helvetica,sans-Serif" font-size="10.00">iii_drone::mission</text>
<text text-anchor="start" x="522" y="-121" font-family="Helvetica,sans-Serif" font-size="10.00">::continuous_mission</text>
<text text-anchor="start" x="522" y="-110" font-family="Helvetica,sans-Serif" font-size="10.00">_orchestrator_node::Continuous</text>
<text text-anchor="start" x="522" y="-99" font-family="Helvetica,sans-Serif" font-size="10.00">MissionOrchestrator::stateMachineLanding</text>
<text text-anchor="middle" x="626.5" y="-88" font-family="Helvetica,sans-Serif" font-size="10.00">OnCable</text>
</a>
</g>
</g>
<!-- Node2&#45;&gt;Node6 -->
<g id="edge5_Node000002_Node000006" class="edge">
<title>Node2&#45;&gt;Node6</title>
<g id="a_edge5_Node000002_Node000006"><a xlink:title=" ">
<path fill="none" stroke="#63b8ff" d="M764.72,-112.5C756.28,-112.5 747.77,-112.5 739.35,-112.5"/>
<polygon fill="#63b8ff" stroke="#63b8ff" points="764.96,-116 774.96,-112.5 764.96,-109 764.96,-116"/>
</a>
</g>
</g>
<!-- Node7 -->
<g id="Node000007" class="node">
<title>Node7</title>
<g id="a_Node000007"><a xlink:href="classiii__drone_1_1mission_1_1continuous__mission__orchestrator__node_1_1ContinuousMissionOrchestrator.html#ab02d79b6772f751fe0a38e6ccb5e41ee" target="_top" xlink:title=" ">
<polygon fill="white" stroke="#666666" points="735.5,-63 517.5,-63 517.5,0 735.5,0 735.5,-63"/>
<text text-anchor="start" x="525.5" y="-51" font-family="Helvetica,sans-Serif" font-size="10.00">iii_drone::mission</text>
<text text-anchor="start" x="525.5" y="-40" font-family="Helvetica,sans-Serif" font-size="10.00">::continuous_mission</text>
<text text-anchor="start" x="525.5" y="-29" font-family="Helvetica,sans-Serif" font-size="10.00">_orchestrator_node::Continuous</text>
<text text-anchor="start" x="525.5" y="-18" font-family="Helvetica,sans-Serif" font-size="10.00">MissionOrchestrator::stateMachineTaking</text>
<text text-anchor="middle" x="626.5" y="-7" font-family="Helvetica,sans-Serif" font-size="10.00">OffFromCable</text>
</a>
</g>
</g>
<!-- Node2&#45;&gt;Node7 -->
<g id="edge7_Node000002_Node000007" class="edge">
<title>Node2&#45;&gt;Node7</title>
<g id="a_edge7_Node000002_Node000007"><a xlink:title=" ">
<path fill="none" stroke="#63b8ff" d="M788.12,-83.33C767.71,-76.75 745.96,-69.73 725.26,-63.05"/>
<polygon fill="#63b8ff" stroke="#63b8ff" points="787.11,-86.68 797.7,-86.43 789.26,-80.02 787.11,-86.68"/>
</a>
</g>
</g>
<!-- Node4 -->
<g id="Node000004" class="node">
<title>Node4</title>
<g id="a_Node000004"><a xlink:href="classiii__drone_1_1mission_1_1continuous__mission__orchestrator__node_1_1ContinuousMissionOrchestrator.html#a03d16a0b3a80d3d63fd1ac37c08829c7" target="_top" xlink:title=" ">
<polygon fill="white" stroke="#666666" points="478,-138.5 249,-138.5 249,-86.5 478,-86.5 478,-138.5"/>
<text text-anchor="start" x="257" y="-126.5" font-family="Helvetica,sans-Serif" font-size="10.00">iii_drone::mission</text>
<text text-anchor="start" x="257" y="-115.5" font-family="Helvetica,sans-Serif" font-size="10.00">::continuous_mission</text>
<text text-anchor="start" x="257" y="-104.5" font-family="Helvetica,sans-Serif" font-size="10.00">_orchestrator_node::Continuous</text>
<text text-anchor="middle" x="363.5" y="-93.5" font-family="Helvetica,sans-Serif" font-size="10.00">MissionOrchestrator::stateMachineCallback</text>
</a>
</g>
</g>
<!-- Node3&#45;&gt;Node4 -->
<g id="edge3_Node000003_Node000004" class="edge">
<title>Node3&#45;&gt;Node4</title>
<g id="a_edge3_Node000003_Node000004"><a xlink:title=" ">
<path fill="none" stroke="#63b8ff" d="M514.15,-158.94C492.18,-152.12 469.47,-145.08 448.58,-138.59"/>
<polygon fill="#63b8ff" stroke="#63b8ff" points="513.26,-162.33 523.84,-161.95 515.33,-155.64 513.26,-162.33"/>
</a>
</g>
</g>
<!-- Node5 -->
<g id="Node000005" class="node">
<title>Node5</title>
<g id="a_Node000005"><a xlink:href="classiii__drone_1_1mission_1_1continuous__mission__orchestrator__node_1_1ContinuousMissionOrchestrator.html#a7d652b0b72969090c91c494f5c032eba" target="_top" xlink:title=" ">
<polygon fill="white" stroke="#666666" points="213,-144 0,-144 0,-81 213,-81 213,-144"/>
<text text-anchor="start" x="8" y="-132" font-family="Helvetica,sans-Serif" font-size="10.00">iii_drone::mission</text>
<text text-anchor="start" x="8" y="-121" font-family="Helvetica,sans-Serif" font-size="10.00">::continuous_mission</text>
<text text-anchor="start" x="8" y="-110" font-family="Helvetica,sans-Serif" font-size="10.00">_orchestrator_node::Continuous</text>
<text text-anchor="start" x="8" y="-99" font-family="Helvetica,sans-Serif" font-size="10.00">MissionOrchestrator::ContinuousMission</text>
<text text-anchor="middle" x="106.5" y="-88" font-family="Helvetica,sans-Serif" font-size="10.00">Orchestrator</text>
</a>
</g>
</g>
<!-- Node4&#45;&gt;Node5 -->
<g id="edge4_Node000004_Node000005" class="edge">
<title>Node4&#45;&gt;Node5</title>
<g id="a_edge4_Node000004_Node000005"><a xlink:title=" ">
<path fill="none" stroke="#63b8ff" d="M238.79,-112.5C230.26,-112.5 221.7,-112.5 213.27,-112.5"/>
<polygon fill="#63b8ff" stroke="#63b8ff" points="238.8,-116 248.8,-112.5 238.8,-109 238.8,-116"/>
</a>
</g>
</g>
<!-- Node6&#45;&gt;Node4 -->
<g id="edge6_Node000006_Node000004" class="edge">
<title>Node6&#45;&gt;Node4</title>
<g id="a_edge6_Node000006_Node000004"><a xlink:title=" ">
<path fill="none" stroke="#63b8ff" d="M503.44,-112.5C495.01,-112.5 486.54,-112.5 478.17,-112.5"/>
<polygon fill="#63b8ff" stroke="#63b8ff" points="503.68,-116 513.68,-112.5 503.68,-109 503.68,-116"/>
</a>
</g>
</g>
<!-- Node7&#45;&gt;Node4 -->
<g id="edge8_Node000007_Node000004" class="edge">
<title>Node7&#45;&gt;Node4</title>
<g id="a_edge8_Node000007_Node000004"><a xlink:title=" ">
<path fill="none" stroke="#63b8ff" d="M514.15,-66.06C492.18,-72.88 469.47,-79.92 448.58,-86.41"/>
<polygon fill="#63b8ff" stroke="#63b8ff" points="515.33,-69.36 523.84,-63.05 513.26,-62.67 515.33,-69.36"/>
</a>
</g>
</g>
</g>
</svg>
