<?xml version="1.0" encoding="UTF-8" standalone="no"?>
<!DOCTYPE svg PUBLIC "-//W3C//DTD SVG 1.1//EN"
 "http://www.w3.org/Graphics/SVG/1.1/DTD/svg11.dtd">
<!-- Generated by graphviz version 2.43.0 (0)
 -->
<!-- Title: iii_drone::perception::Powerline::ComputeInterLinePositions Pages: 1 -->
<svg width="534pt" height="113pt"
 viewBox="0.00 0.00 534.00 112.50" xmlns="http://www.w3.org/2000/svg" xmlns:xlink="http://www.w3.org/1999/xlink">
<g id="graph0" class="graph" transform="scale(1 1) rotate(0) translate(4 108.5)">
<title>iii_drone::perception::Powerline::ComputeInterLinePositions</title>
<!-- Node1 -->
<g id="Node000001" class="node">
<title>Node1</title>
<g id="a_Node000001"><a xlink:title="Computes the inter line positions.">
<polygon fill="#999999" stroke="#666666" points="164,-78.5 0,-78.5 0,-37.5 164,-37.5 164,-78.5"/>
<text text-anchor="start" x="8" y="-66.5" font-family="Helvetica,sans-Serif" font-size="10.00">iii_drone::perception</text>
<text text-anchor="start" x="8" y="-55.5" font-family="Helvetica,sans-Serif" font-size="10.00">::Powerline::ComputeInterLine</text>
<text text-anchor="middle" x="82" y="-44.5" font-family="Helvetica,sans-Serif" font-size="10.00">Positions</text>
</a>
</g>
</g>
<!-- Node2 -->
<g id="Node000002" class="node">
<title>Node2</title>
<g id="a_Node000002"><a xlink:href="namespaceiii__drone_1_1math.html#a3efad56e6eb85aa0c255b020ab254874" target="_top" xlink:title=" ">
<polygon fill="white" stroke="#666666" points="340,-104.5 207,-104.5 207,-85.5 340,-85.5 340,-104.5"/>
<text text-anchor="middle" x="273.5" y="-92.5" font-family="Helvetica,sans-Serif" font-size="10.00">iii_drone::math::quatInv</text>
</a>
</g>
</g>
<!-- Node1&#45;&gt;Node2 -->
<g id="edge1_Node000001_Node000002" class="edge">
<title>Node1&#45;&gt;Node2</title>
<g id="a_edge1_Node000001_Node000002"><a xlink:title=" ">
<path fill="none" stroke="#63b8ff" d="M164.19,-73.85C180.84,-77.1 198.05,-80.46 213.73,-83.52"/>
<polygon fill="#63b8ff" stroke="#63b8ff" points="213.3,-87.01 223.78,-85.49 214.64,-80.14 213.3,-87.01"/>
</a>
</g>
</g>
<!-- Node3 -->
<g id="Node000003" class="node">
<title>Node3</title>
<g id="a_Node000003"><a xlink:href="namespaceiii__drone_1_1math.html#af8c96a0fa3940e1034c8db8425586ba8" target="_top" xlink:title=" ">
<polygon fill="white" stroke="#666666" points="347,-67.5 200,-67.5 200,-48.5 347,-48.5 347,-67.5"/>
<text text-anchor="middle" x="273.5" y="-55.5" font-family="Helvetica,sans-Serif" font-size="10.00">iii_drone::math::quatToMat</text>
</a>
</g>
</g>
<!-- Node1&#45;&gt;Node3 -->
<g id="edge2_Node000001_Node000003" class="edge">
<title>Node1&#45;&gt;Node3</title>
<g id="a_edge2_Node000001_Node000003"><a xlink:title=" ">
<path fill="none" stroke="#63b8ff" d="M164.19,-58C172.62,-58 181.19,-58 189.64,-58"/>
<polygon fill="#63b8ff" stroke="#63b8ff" points="189.86,-61.5 199.86,-58 189.86,-54.5 189.86,-61.5"/>
</a>
</g>
</g>
<!-- Node6 -->
<g id="Node000006" class="node">
<title>Node6</title>
<g id="a_Node000006"><a xlink:href="classiii__drone_1_1utils_1_1Timestamp.html#a373bc0de94c27153e2372c30f0eedbb1" target="_top" xlink:title="Updates the timestamp to now.">
<polygon fill="white" stroke="#666666" points="347,-30 200,-30 200,0 347,0 347,-30"/>
<text text-anchor="start" x="208" y="-18" font-family="Helvetica,sans-Serif" font-size="10.00">iii_drone::utils::Timestamp</text>
<text text-anchor="middle" x="273.5" y="-7" font-family="Helvetica,sans-Serif" font-size="10.00">::Update</text>
</a>
</g>
</g>
<!-- Node1&#45;&gt;Node6 -->
<g id="edge5_Node000001_Node000006" class="edge">
<title>Node1&#45;&gt;Node6</title>
<g id="a_edge5_Node000001_Node000006"><a xlink:title=" ">
<path fill="none" stroke="#63b8ff" d="M164.19,-39.58C174.85,-37.16 185.74,-34.69 196.31,-32.29"/>
<polygon fill="#63b8ff" stroke="#63b8ff" points="197.35,-35.64 206.33,-30.02 195.8,-28.81 197.35,-35.64"/>
</a>
</g>
</g>
<!-- Node4 -->
<g id="Node000004" class="node">
<title>Node4</title>
<g id="a_Node000004"><a xlink:href="namespaceiii__drone_1_1math.html#a7f61d7905e9118b077f713da7e65e8df" target="_top" xlink:title=" ">
<polygon fill="white" stroke="#666666" points="524.5,-85.5 384.5,-85.5 384.5,-66.5 524.5,-66.5 524.5,-85.5"/>
<text text-anchor="middle" x="454.5" y="-73.5" font-family="Helvetica,sans-Serif" font-size="10.00">iii_drone::math::eulToMat</text>
</a>
</g>
</g>
<!-- Node3&#45;&gt;Node4 -->
<g id="edge3_Node000003_Node000004" class="edge">
<title>Node3&#45;&gt;Node4</title>
<g id="a_edge3_Node000003_Node000004"><a xlink:title=" ">
<path fill="none" stroke="#63b8ff" d="M347.05,-65.3C355.99,-66.19 365.17,-67.12 374.2,-68.03"/>
<polygon fill="#63b8ff" stroke="#63b8ff" points="374.03,-71.53 384.33,-69.04 374.73,-64.56 374.03,-71.53"/>
</a>
</g>
</g>
<!-- Node5 -->
<g id="Node000005" class="node">
<title>Node5</title>
<g id="a_Node000005"><a xlink:href="namespaceiii__drone_1_1math.html#a8e7d7e25d07b368363d6da9939a9abed" target="_top" xlink:title=" ">
<polygon fill="white" stroke="#666666" points="526,-48.5 383,-48.5 383,-29.5 526,-29.5 526,-48.5"/>
<text text-anchor="middle" x="454.5" y="-36.5" font-family="Helvetica,sans-Serif" font-size="10.00">iii_drone::math::quatToEul</text>
</a>
</g>
</g>
<!-- Node3&#45;&gt;Node5 -->
<g id="edge4_Node000003_Node000005" class="edge">
<title>Node3&#45;&gt;Node5</title>
<g id="a_edge4_Node000003_Node000005"><a xlink:title=" ">
<path fill="none" stroke="#63b8ff" d="M347.05,-50.3C355.55,-49.4 364.26,-48.47 372.85,-47.56"/>
<polygon fill="#63b8ff" stroke="#63b8ff" points="373.31,-51.03 382.88,-46.5 372.57,-44.07 373.31,-51.03"/>
</a>
</g>
</g>
</g>
</svg>
