<?xml version="1.0" encoding="UTF-8" standalone="no"?>
<!DOCTYPE svg PUBLIC "-//W3C//DTD SVG 1.1//EN"
 "http://www.w3.org/Graphics/SVG/1.1/DTD/svg11.dtd">
<!-- Generated by graphviz version 2.43.0 (0)
 -->
<!-- Title: iii_drone::control::Reference::stamp Pages: 1 -->
<svg width="1249pt" height="360pt"
 viewBox="0.00 0.00 1249.00 360.00" xmlns="http://www.w3.org/2000/svg" xmlns:xlink="http://www.w3.org/1999/xlink">
<g id="graph0" class="graph" transform="scale(1 1) rotate(0) translate(4 356)">
<title>iii_drone::control::Reference::stamp</title>
<!-- Node1 -->
<g id="Node000001" class="node">
<title>Node1</title>
<g id="a_Node000001"><a xlink:title=" ">
<polygon fill="#999999" stroke="#666666" points="1241,-159.5 1132,-159.5 1132,-129.5 1241,-129.5 1241,-159.5"/>
<text text-anchor="start" x="1140" y="-147.5" font-family="Helvetica,sans-Serif" font-size="10.00">iii_drone::control</text>
<text text-anchor="middle" x="1186.5" y="-136.5" font-family="Helvetica,sans-Serif" font-size="10.00">::Reference::stamp</text>
</a>
</g>
</g>
<!-- Node2 -->
<g id="Node000002" class="node">
<title>Node2</title>
<g id="a_Node000002"><a xlink:href="classiii__drone_1_1control_1_1Reference.html#a35bfe2b61bbb5a41457c6712bd7203cf" target="_top" xlink:title=" ">
<polygon fill="white" stroke="#666666" points="1073.5,-261.5 945.5,-261.5 945.5,-231.5 1073.5,-231.5 1073.5,-261.5"/>
<text text-anchor="start" x="953.5" y="-249.5" font-family="Helvetica,sans-Serif" font-size="10.00">iii_drone::control</text>
<text text-anchor="middle" x="1009.5" y="-238.5" font-family="Helvetica,sans-Serif" font-size="10.00">::Reference::Reference</text>
</a>
</g>
</g>
<!-- Node1&#45;&gt;Node2 -->
<g id="edge1_Node000001_Node000002" class="edge">
<title>Node1&#45;&gt;Node2</title>
<g id="a_edge1_Node000001_Node000002"><a xlink:title=" ">
<path fill="none" stroke="#63b8ff" d="M1164.98,-167.21C1148.06,-184.66 1122.58,-208.14 1096,-222.5 1089.08,-226.24 1081.53,-229.44 1073.86,-232.17"/>
<polygon fill="#63b8ff" stroke="#63b8ff" points="1167.79,-169.33 1172.13,-159.67 1162.71,-164.52 1167.79,-169.33"/>
</a>
</g>
</g>
<!-- Node3 -->
<g id="Node000003" class="node">
<title>Node3</title>
<g id="a_Node000003"><a xlink:href="classiii__drone_1_1adapters_1_1ReferenceAdapter.html#a56e8b2fdd992d460615cc6502eab7ba7" target="_top" xlink:title="Converts to msg.">
<polygon fill="white" stroke="#666666" points="1083,-213.5 936,-213.5 936,-183.5 1083,-183.5 1083,-213.5"/>
<text text-anchor="start" x="944" y="-201.5" font-family="Helvetica,sans-Serif" font-size="10.00">iii_drone::adapters</text>
<text text-anchor="middle" x="1009.5" y="-190.5" font-family="Helvetica,sans-Serif" font-size="10.00">::ReferenceAdapter::ToMsg</text>
</a>
</g>
</g>
<!-- Node1&#45;&gt;Node3 -->
<g id="edge2_Node000001_Node000003" class="edge">
<title>Node1&#45;&gt;Node3</title>
<g id="a_edge2_Node000001_Node000003"><a xlink:title=" ">
<path fill="none" stroke="#63b8ff" d="M1132.16,-162.86C1120.29,-166.81 1107.75,-170.88 1096,-174.5 1086.27,-177.49 1075.88,-180.54 1065.81,-183.41"/>
<polygon fill="#63b8ff" stroke="#63b8ff" points="1133.57,-166.08 1141.94,-159.59 1131.35,-159.44 1133.57,-166.08"/>
</a>
</g>
</g>
<!-- Node11 -->
<g id="Node000011" class="node">
<title>Node11</title>
<g id="a_Node000011"><a xlink:href="classiii__drone_1_1adapters_1_1ReferenceAdapter.html#aa8e55f2f2d08f81b59bb9e0b452dc0f7" target="_top" xlink:title="Converts to pose stamped msg.">
<polygon fill="white" stroke="#666666" points="1067.5,-165 951.5,-165 951.5,-124 1067.5,-124 1067.5,-165"/>
<text text-anchor="start" x="959.5" y="-153" font-family="Helvetica,sans-Serif" font-size="10.00">iii_drone::adapters</text>
<text text-anchor="start" x="959.5" y="-142" font-family="Helvetica,sans-Serif" font-size="10.00">::ReferenceAdapter::</text>
<text text-anchor="middle" x="1009.5" y="-131" font-family="Helvetica,sans-Serif" font-size="10.00">ToPoseStampedMsg</text>
</a>
</g>
</g>
<!-- Node1&#45;&gt;Node11 -->
<g id="edge12_Node000001_Node000011" class="edge">
<title>Node1&#45;&gt;Node11</title>
<g id="a_edge12_Node000001_Node000011"><a xlink:title=" ">
<path fill="none" stroke="#63b8ff" d="M1121.38,-144.5C1103.76,-144.5 1084.78,-144.5 1067.59,-144.5"/>
<polygon fill="#63b8ff" stroke="#63b8ff" points="1121.57,-148 1131.57,-144.5 1121.57,-141 1121.57,-148"/>
</a>
</g>
</g>
<!-- Node16 -->
<g id="Node000016" class="node">
<title>Node16</title>
<g id="a_Node000016"><a xlink:href="classiii__drone_1_1adapters_1_1px4_1_1TrajectorySetpointAdapter.html#a1c5d082bd10a5ddc1b0966b9b55c0e9b" target="_top" xlink:title="Constructor from iii_drone::adapters::ReferenceAdapter.">
<polygon fill="white" stroke="#666666" points="1096,-106 923,-106 923,-65 1096,-65 1096,-106"/>
<text text-anchor="start" x="931" y="-94" font-family="Helvetica,sans-Serif" font-size="10.00">iii_drone::adapters</text>
<text text-anchor="start" x="931" y="-83" font-family="Helvetica,sans-Serif" font-size="10.00">::px4::TrajectorySetpointAdapter</text>
<text text-anchor="middle" x="1009.5" y="-72" font-family="Helvetica,sans-Serif" font-size="10.00">::TrajectorySetpointAdapter</text>
</a>
</g>
</g>
<!-- Node1&#45;&gt;Node16 -->
<g id="edge20_Node000001_Node000016" class="edge">
<title>Node1&#45;&gt;Node16</title>
<g id="a_edge20_Node000001_Node000016"><a xlink:title=" ">
<path fill="none" stroke="#63b8ff" d="M1131.24,-126.21C1112.32,-119.83 1090.97,-112.63 1071.54,-106.08"/>
<polygon fill="#63b8ff" stroke="#63b8ff" points="1130.29,-129.58 1140.89,-129.46 1132.53,-122.95 1130.29,-129.58"/>
</a>
</g>
</g>
<!-- Node17 -->
<g id="Node000017" class="node">
<title>Node17</title>
<g id="a_Node000017"><a xlink:href="classiii__drone_1_1adapters_1_1px4_1_1TrajectorySetpointAdapter.html#ac1e2f8f8c6ef2c387256c6b59e0a3a6e" target="_top" xlink:title="Constructor from iii::control::Reference.">
<polygon fill="white" stroke="#666666" points="1096,-47 923,-47 923,-6 1096,-6 1096,-47"/>
<text text-anchor="start" x="931" y="-35" font-family="Helvetica,sans-Serif" font-size="10.00">iii_drone::adapters</text>
<text text-anchor="start" x="931" y="-24" font-family="Helvetica,sans-Serif" font-size="10.00">::px4::TrajectorySetpointAdapter</text>
<text text-anchor="middle" x="1009.5" y="-13" font-family="Helvetica,sans-Serif" font-size="10.00">::TrajectorySetpointAdapter</text>
</a>
</g>
</g>
<!-- Node1&#45;&gt;Node17 -->
<g id="edge21_Node000001_Node000017" class="edge">
<title>Node1&#45;&gt;Node17</title>
<g id="a_edge21_Node000001_Node000017"><a xlink:title=" ">
<path fill="none" stroke="#63b8ff" d="M1167.57,-121.5C1150.94,-101.55 1124.52,-73.18 1096,-55.5 1091.07,-52.44 1085.78,-49.67 1080.34,-47.15"/>
<polygon fill="#63b8ff" stroke="#63b8ff" points="1165.05,-123.94 1174.08,-129.48 1170.47,-119.51 1165.05,-123.94"/>
</a>
</g>
</g>
<!-- Node4 -->
<g id="Node000004" class="node">
<title>Node4</title>
<g id="a_Node000004"><a xlink:href="classiii__drone_1_1control_1_1TrajectoryGeneratorClient.html#a2b3ee03aed559d8c1ea8d052336d25ff" target="_top" xlink:title="Starts generating a trajectory.">
<polygon fill="white" stroke="#666666" points="887,-292 693,-292 693,-251 887,-251 887,-292"/>
<text text-anchor="start" x="701" y="-280" font-family="Helvetica,sans-Serif" font-size="10.00">iii_drone::control</text>
<text text-anchor="start" x="701" y="-269" font-family="Helvetica,sans-Serif" font-size="10.00">::TrajectoryGeneratorClient</text>
<text text-anchor="middle" x="790" y="-258" font-family="Helvetica,sans-Serif" font-size="10.00">::ComputeReferenceTrajectoryAsync</text>
</a>
</g>
</g>
<!-- Node3&#45;&gt;Node4 -->
<g id="edge3_Node000003_Node000004" class="edge">
<title>Node3&#45;&gt;Node4</title>
<g id="a_edge3_Node000003_Node000004"><a xlink:title=" ">
<path fill="none" stroke="#63b8ff" d="M942.52,-216.44C935.9,-218.41 929.3,-220.45 923,-222.5 896.5,-231.12 867.43,-241.78 843.32,-250.95"/>
<polygon fill="#63b8ff" stroke="#63b8ff" points="943.58,-219.77 952.19,-213.6 941.61,-213.05 943.58,-219.77"/>
</a>
</g>
</g>
<!-- Node8 -->
<g id="Node000008" class="node">
<title>Node8</title>
<g id="a_Node000008"><a xlink:href="classiii__drone_1_1adapters_1_1ReferenceTrajectoryAdapter.html#a1a7886f7329ea52f8d9eed2e17f5066f" target="_top" xlink:title="Converts to msg.">
<polygon fill="white" stroke="#666666" points="869,-219 711,-219 711,-178 869,-178 869,-219"/>
<text text-anchor="start" x="719" y="-207" font-family="Helvetica,sans-Serif" font-size="10.00">iii_drone::adapters</text>
<text text-anchor="start" x="719" y="-196" font-family="Helvetica,sans-Serif" font-size="10.00">::ReferenceTrajectoryAdapter</text>
<text text-anchor="middle" x="790" y="-185" font-family="Helvetica,sans-Serif" font-size="10.00">::ToMsg</text>
</a>
</g>
</g>
<!-- Node3&#45;&gt;Node8 -->
<g id="edge9_Node000003_Node000008" class="edge">
<title>Node3&#45;&gt;Node8</title>
<g id="a_edge9_Node000003_Node000008"><a xlink:title=" ">
<path fill="none" stroke="#63b8ff" d="M925.62,-198.5C907.12,-198.5 887.56,-198.5 869.26,-198.5"/>
<polygon fill="#63b8ff" stroke="#63b8ff" points="925.77,-202 935.77,-198.5 925.77,-195 925.77,-202"/>
</a>
</g>
</g>
<!-- Node5 -->
<g id="Node000005" class="node">
<title>Node5</title>
<g id="a_Node000005"><a xlink:href="classiii__drone_1_1control_1_1maneuver_1_1FlyToObjectManeuverServer.html#a2ace3412e0d42d07a39c553c89ab0c6a" target="_top" xlink:title="Compute the reference.">
<polygon fill="white" stroke="#666666" points="404.5,-352 220.5,-352 220.5,-311 404.5,-311 404.5,-352"/>
<text text-anchor="start" x="228.5" y="-340" font-family="Helvetica,sans-Serif" font-size="10.00">iii_drone::control</text>
<text text-anchor="start" x="228.5" y="-329" font-family="Helvetica,sans-Serif" font-size="10.00">::maneuver::FlyToObjectManeuver</text>
<text text-anchor="middle" x="312.5" y="-318" font-family="Helvetica,sans-Serif" font-size="10.00">Server::computeReference</text>
</a>
</g>
</g>
<!-- Node4&#45;&gt;Node5 -->
<g id="edge4_Node000004_Node000005" class="edge">
<title>Node4&#45;&gt;Node5</title>
<g id="a_edge4_Node000004_Node000005"><a xlink:title=" ">
<path fill="none" stroke="#63b8ff" d="M728.55,-295.53C706.39,-303.3 680.89,-311.05 657,-315.5 572.49,-331.24 474.36,-334.34 404.68,-334.03"/>
<polygon fill="#63b8ff" stroke="#63b8ff" points="729.91,-298.76 738.15,-292.1 727.55,-292.17 729.91,-298.76"/>
</a>
</g>
</g>
<!-- Node6 -->
<g id="Node000006" class="node">
<title>Node6</title>
<g id="a_Node000006"><a xlink:href="classiii__drone_1_1control_1_1maneuver_1_1FlyToPositionManeuverServer.html#ac13004e478653d73361c3569e11870dc" target="_top" xlink:title="Compute the reference.">
<polygon fill="white" stroke="#666666" points="408,-290 217,-290 217,-249 408,-249 408,-290"/>
<text text-anchor="start" x="225" y="-278" font-family="Helvetica,sans-Serif" font-size="10.00">iii_drone::control</text>
<text text-anchor="start" x="225" y="-267" font-family="Helvetica,sans-Serif" font-size="10.00">::maneuver::FlyToPositionManeuver</text>
<text text-anchor="middle" x="312.5" y="-256" font-family="Helvetica,sans-Serif" font-size="10.00">Server::computeReference</text>
</a>
</g>
</g>
<!-- Node4&#45;&gt;Node6 -->
<g id="edge5_Node000004_Node000006" class="edge">
<title>Node4&#45;&gt;Node6</title>
<g id="a_edge5_Node000004_Node000006"><a xlink:title=" ">
<path fill="none" stroke="#63b8ff" d="M682.68,-258.37C674,-257.61 665.36,-256.97 657,-256.5 565.59,-251.32 542.45,-252.19 451,-256.5 437.11,-257.16 422.45,-258.18 408.09,-259.38"/>
<polygon fill="#63b8ff" stroke="#63b8ff" points="682.59,-261.87 692.86,-259.29 683.22,-254.9 682.59,-261.87"/>
</a>
</g>
</g>
<!-- Node7 -->
<g id="Node000007" class="node">
<title>Node7</title>
<g id="a_Node000007"><a xlink:href="classiii__drone_1_1control_1_1TrajectoryGeneratorClient.html#a0e32180d729e74d24edeef891d1ac843" target="_top" xlink:title="Generates a trajectory and blocks until it is done.">
<polygon fill="white" stroke="#666666" points="657,-306 451,-306 451,-265 657,-265 657,-306"/>
<text text-anchor="start" x="459" y="-294" font-family="Helvetica,sans-Serif" font-size="10.00">iii_drone::control</text>
<text text-anchor="start" x="459" y="-283" font-family="Helvetica,sans-Serif" font-size="10.00">::TrajectoryGeneratorClient</text>
<text text-anchor="middle" x="554" y="-272" font-family="Helvetica,sans-Serif" font-size="10.00">::ComputeReferenceTrajectoryBlocking</text>
</a>
</g>
</g>
<!-- Node4&#45;&gt;Node7 -->
<g id="edge6_Node000004_Node000007" class="edge">
<title>Node4&#45;&gt;Node7</title>
<g id="a_edge6_Node000004_Node000007"><a xlink:title=" ">
<path fill="none" stroke="#63b8ff" d="M682.58,-277.87C674.16,-278.37 665.66,-278.88 657.27,-279.38"/>
<polygon fill="#63b8ff" stroke="#63b8ff" points="683.04,-281.35 692.81,-277.25 682.62,-274.36 683.04,-281.35"/>
</a>
</g>
</g>
<!-- Node7&#45;&gt;Node5 -->
<g id="edge7_Node000007_Node000005" class="edge">
<title>Node7&#45;&gt;Node5</title>
<g id="a_edge7_Node000007_Node000005"><a xlink:title=" ">
<path fill="none" stroke="#63b8ff" d="M440.68,-307.07C428.67,-309.38 416.55,-311.71 404.82,-313.96"/>
<polygon fill="#63b8ff" stroke="#63b8ff" points="441.58,-310.47 450.74,-305.14 440.26,-303.59 441.58,-310.47"/>
</a>
</g>
</g>
<!-- Node7&#45;&gt;Node6 -->
<g id="edge8_Node000007_Node000006" class="edge">
<title>Node7&#45;&gt;Node6</title>
<g id="a_edge8_Node000007_Node000006"><a xlink:title=" ">
<path fill="none" stroke="#63b8ff" d="M440.44,-277.98C429.66,-277.26 418.8,-276.53 408.21,-275.83"/>
<polygon fill="#63b8ff" stroke="#63b8ff" points="440.52,-281.49 450.74,-278.67 440.99,-274.51 440.52,-281.49"/>
</a>
</g>
</g>
<!-- Node9 -->
<g id="Node000009" class="node">
<title>Node9</title>
<g id="a_Node000009"><a xlink:href="classiii__drone_1_1control_1_1trajectory__generator__node_1_1TrajectoryGeneratorNode.html#aefc447399b185fef5b912770b5059936" target="_top" xlink:title="The compute reference trajectory service callback.">
<polygon fill="white" stroke="#666666" points="415,-224.5 210,-224.5 210,-172.5 415,-172.5 415,-224.5"/>
<text text-anchor="start" x="218" y="-212.5" font-family="Helvetica,sans-Serif" font-size="10.00">iii_drone::control</text>
<text text-anchor="start" x="218" y="-201.5" font-family="Helvetica,sans-Serif" font-size="10.00">::trajectory_generator</text>
<text text-anchor="start" x="218" y="-190.5" font-family="Helvetica,sans-Serif" font-size="10.00">_node::TrajectoryGeneratorNode</text>
<text text-anchor="middle" x="312.5" y="-179.5" font-family="Helvetica,sans-Serif" font-size="10.00">::computeReferenceTrajectoryCallback</text>
</a>
</g>
</g>
<!-- Node8&#45;&gt;Node9 -->
<g id="edge10_Node000008_Node000009" class="edge">
<title>Node8&#45;&gt;Node9</title>
<g id="a_edge10_Node000008_Node000009"><a xlink:title=" ">
<path fill="none" stroke="#63b8ff" d="M700.58,-198.5C619.64,-198.5 499.9,-198.5 415.06,-198.5"/>
<polygon fill="#63b8ff" stroke="#63b8ff" points="700.75,-202 710.75,-198.5 700.75,-195 700.75,-202"/>
</a>
</g>
</g>
<!-- Node10 -->
<g id="Node000010" class="node">
<title>Node10</title>
<g id="a_Node000010"><a xlink:href="classiii__drone_1_1control_1_1trajectory__generator__node_1_1TrajectoryGeneratorNode.html#ac58d9ceab1e2ecc71cb971a5f360bc00" target="_top" xlink:title=" ">
<polygon fill="white" stroke="#666666" points="174,-197.5 0,-197.5 0,-145.5 174,-145.5 174,-197.5"/>
<text text-anchor="start" x="8" y="-185.5" font-family="Helvetica,sans-Serif" font-size="10.00">iii_drone::control</text>
<text text-anchor="start" x="8" y="-174.5" font-family="Helvetica,sans-Serif" font-size="10.00">::trajectory_generator</text>
<text text-anchor="start" x="8" y="-163.5" font-family="Helvetica,sans-Serif" font-size="10.00">_node::TrajectoryGeneratorNode</text>
<text text-anchor="middle" x="87" y="-152.5" font-family="Helvetica,sans-Serif" font-size="10.00">::TrajectoryGeneratorNode</text>
</a>
</g>
</g>
<!-- Node9&#45;&gt;Node10 -->
<g id="edge11_Node000009_Node000010" class="edge">
<title>Node9&#45;&gt;Node10</title>
<g id="a_edge11_Node000009_Node000010"><a xlink:title=" ">
<path fill="none" stroke="#63b8ff" d="M199.84,-185.01C191.27,-183.98 182.7,-182.94 174.34,-181.93"/>
<polygon fill="#63b8ff" stroke="#63b8ff" points="199.54,-188.5 209.89,-186.22 200.38,-181.55 199.54,-188.5"/>
</a>
</g>
</g>
<!-- Node12 -->
<g id="Node000012" class="node">
<title>Node12</title>
<g id="a_Node000012"><a xlink:href="classiii__drone_1_1control_1_1trajectory__generator__node_1_1TrajectoryGeneratorNode.html#a25bc69c79e137bb796ce2fea69bafe57" target="_top" xlink:title="Publishes the currently planned trajectory.">
<polygon fill="white" stroke="#666666" points="641,-170.5 467,-170.5 467,-118.5 641,-118.5 641,-170.5"/>
<text text-anchor="start" x="475" y="-158.5" font-family="Helvetica,sans-Serif" font-size="10.00">iii_drone::control</text>
<text text-anchor="start" x="475" y="-147.5" font-family="Helvetica,sans-Serif" font-size="10.00">::trajectory_generator</text>
<text text-anchor="start" x="475" y="-136.5" font-family="Helvetica,sans-Serif" font-size="10.00">_node::TrajectoryGeneratorNode</text>
<text text-anchor="middle" x="554" y="-125.5" font-family="Helvetica,sans-Serif" font-size="10.00">::publishPlannedTrajectory</text>
</a>
</g>
</g>
<!-- Node11&#45;&gt;Node12 -->
<g id="edge13_Node000011_Node000012" class="edge">
<title>Node11&#45;&gt;Node12</title>
<g id="a_edge13_Node000011_Node000012"><a xlink:title=" ">
<path fill="none" stroke="#63b8ff" d="M940.65,-144.5C860.9,-144.5 728.42,-144.5 641.4,-144.5"/>
<polygon fill="#63b8ff" stroke="#63b8ff" points="941.06,-148 951.06,-144.5 941.06,-141 941.06,-148"/>
</a>
</g>
</g>
<!-- Node13 -->
<g id="Node000013" class="node">
<title>Node13</title>
<g id="a_Node000013"><a xlink:href="classiii__drone_1_1adapters_1_1ReferenceTrajectoryAdapter.html#aa29c58cadc42cf79a2fb56426a2b678f" target="_top" xlink:title="Converts to Path msg.">
<polygon fill="white" stroke="#666666" points="869,-108 711,-108 711,-67 869,-67 869,-108"/>
<text text-anchor="start" x="719" y="-96" font-family="Helvetica,sans-Serif" font-size="10.00">iii_drone::adapters</text>
<text text-anchor="start" x="719" y="-85" font-family="Helvetica,sans-Serif" font-size="10.00">::ReferenceTrajectoryAdapter</text>
<text text-anchor="middle" x="790" y="-74" font-family="Helvetica,sans-Serif" font-size="10.00">::ToPathMsg</text>
</a>
</g>
</g>
<!-- Node11&#45;&gt;Node13 -->
<g id="edge16_Node000011_Node000013" class="edge">
<title>Node11&#45;&gt;Node13</title>
<g id="a_edge16_Node000011_Node000013"><a xlink:title=" ">
<path fill="none" stroke="#63b8ff" d="M941.4,-126.91C918.5,-120.91 892.7,-114.15 869.02,-107.95"/>
<polygon fill="#63b8ff" stroke="#63b8ff" points="940.79,-130.37 951.35,-129.52 942.57,-123.6 940.79,-130.37"/>
</a>
</g>
</g>
<!-- Node12&#45;&gt;Node9 -->
<g id="edge14_Node000012_Node000009" class="edge">
<title>Node12&#45;&gt;Node9</title>
<g id="a_edge14_Node000012_Node000009"><a xlink:title=" ">
<path fill="none" stroke="#63b8ff" d="M456.95,-166.16C443.21,-169.25 429.03,-172.45 415.18,-175.57"/>
<polygon fill="#63b8ff" stroke="#63b8ff" points="457.89,-169.53 466.87,-163.92 456.35,-162.7 457.89,-169.53"/>
</a>
</g>
</g>
<!-- Node12&#45;&gt;Node10 -->
<g id="edge15_Node000012_Node000010" class="edge">
<title>Node12&#45;&gt;Node10</title>
<g id="a_edge15_Node000012_Node000010"><a xlink:title=" ">
<path fill="none" stroke="#63b8ff" d="M456.62,-149.58C387.87,-153.26 293.24,-158.47 210,-163.5 198.45,-164.2 186.29,-164.96 174.3,-165.73"/>
<polygon fill="#63b8ff" stroke="#63b8ff" points="457.2,-153.05 467,-149.02 456.83,-146.06 457.2,-153.05"/>
</a>
</g>
</g>
<!-- Node13&#45;&gt;Node12 -->
<g id="edge19_Node000013_Node000012" class="edge">
<title>Node13&#45;&gt;Node12</title>
<g id="a_edge19_Node000013_Node000012"><a xlink:title=" ">
<path fill="none" stroke="#63b8ff" d="M700.96,-108.95C681.4,-113.71 660.7,-118.75 641.22,-123.5"/>
<polygon fill="#63b8ff" stroke="#63b8ff" points="701.87,-112.33 710.76,-106.56 700.21,-105.53 701.87,-112.33"/>
</a>
</g>
</g>
<!-- Node14 -->
<g id="Node000014" class="node">
<title>Node14</title>
<g id="a_Node000014"><a xlink:href="classiii__drone_1_1control_1_1maneuver_1_1FlyToObjectManeuverServer.html#a207c2c72ecfb7376ef44bd986e00ccce" target="_top" xlink:title="Publishes the feedback.">
<polygon fill="white" stroke="#666666" points="646,-100 462,-100 462,-59 646,-59 646,-100"/>
<text text-anchor="start" x="470" y="-88" font-family="Helvetica,sans-Serif" font-size="10.00">iii_drone::control</text>
<text text-anchor="start" x="470" y="-77" font-family="Helvetica,sans-Serif" font-size="10.00">::maneuver::FlyToObjectManeuver</text>
<text text-anchor="middle" x="554" y="-66" font-family="Helvetica,sans-Serif" font-size="10.00">Server::publishFeedback</text>
</a>
</g>
</g>
<!-- Node13&#45;&gt;Node14 -->
<g id="edge17_Node000013_Node000014" class="edge">
<title>Node13&#45;&gt;Node14</title>
<g id="a_edge17_Node000013_Node000014"><a xlink:title=" ">
<path fill="none" stroke="#63b8ff" d="M700.42,-84.47C682.66,-83.86 663.97,-83.23 646.13,-82.62"/>
<polygon fill="#63b8ff" stroke="#63b8ff" points="700.64,-87.98 710.76,-84.82 700.88,-80.99 700.64,-87.98"/>
</a>
</g>
</g>
<!-- Node15 -->
<g id="Node000015" class="node">
<title>Node15</title>
<g id="a_Node000015"><a xlink:href="classiii__drone_1_1control_1_1maneuver_1_1FlyToPositionManeuverServer.html#a5918df6e93a4e3b9c9a500bab1c17c6b" target="_top" xlink:title="Publishes the feedback.">
<polygon fill="white" stroke="#666666" points="649.5,-41 458.5,-41 458.5,0 649.5,0 649.5,-41"/>
<text text-anchor="start" x="466.5" y="-29" font-family="Helvetica,sans-Serif" font-size="10.00">iii_drone::control</text>
<text text-anchor="start" x="466.5" y="-18" font-family="Helvetica,sans-Serif" font-size="10.00">::maneuver::FlyToPositionManeuver</text>
<text text-anchor="middle" x="554" y="-7" font-family="Helvetica,sans-Serif" font-size="10.00">Server::publishFeedback</text>
</a>
</g>
</g>
<!-- Node13&#45;&gt;Node15 -->
<g id="edge18_Node000013_Node000015" class="edge">
<title>Node13&#45;&gt;Node15</title>
<g id="a_edge18_Node000013_Node000015"><a xlink:title=" ">
<path fill="none" stroke="#63b8ff" d="M707.96,-64.12C691.12,-59.28 673.48,-54.22 657,-49.5 647.44,-46.77 637.38,-43.89 627.45,-41.07"/>
<polygon fill="#63b8ff" stroke="#63b8ff" points="707.19,-67.54 717.77,-66.95 709.12,-60.82 707.19,-67.54"/>
</a>
</g>
</g>
</g>
</svg>
