<?xml version="1.0" encoding="UTF-8" standalone="no"?>
<!DOCTYPE svg PUBLIC "-//W3C//DTD SVG 1.1//EN"
 "http://www.w3.org/Graphics/SVG/1.1/DTD/svg11.dtd">
<!-- Generated by graphviz version 2.43.0 (0)
 -->
<!-- Title: iii_drone::utils::BlockingQueue&lt; T &gt; Pages: 1 -->
<svg width="217pt" height="421pt"
 viewBox="0.00 0.00 217.00 421.00" xmlns="http://www.w3.org/2000/svg" xmlns:xlink="http://www.w3.org/1999/xlink">
<g id="graph0" class="graph" transform="scale(1 1) rotate(0) translate(4 417)">
<title>iii_drone::utils::BlockingQueue&lt; T &gt;</title>
<!-- Node1 -->
<g id="Node000001" class="node">
<title>Node1</title>
<g id="a_Node000001"><a xlink:title="Generic blocking queue class.">
<polygon fill="#999999" stroke="transparent" points="156,-210 28,-210 28,0 156,0 156,-210"/>
<text text-anchor="start" x="33" y="-198" font-family="Helvetica,sans-Serif" font-size="10.00">iii_drone::utils::Blocking</text>
<text text-anchor="start" x="61.5" y="-187" font-family="Helvetica,sans-Serif" font-size="10.00">Queue&lt; T &gt;</text>
<text text-anchor="start" x="40.5" y="-172" font-family="Helvetica,sans-Serif" font-size="10.00">&#45;</text>
<text text-anchor="start" x="57" y="-172" font-family="Helvetica,sans-Serif" font-size="10.00">max_size_</text>
<text text-anchor="start" x="40.5" y="-157" font-family="Helvetica,sans-Serif" font-size="10.00">&#45;</text>
<text text-anchor="start" x="57" y="-157" font-family="Helvetica,sans-Serif" font-size="10.00">is_not_full_</text>
<text text-anchor="start" x="40.5" y="-142" font-family="Helvetica,sans-Serif" font-size="10.00">&#45;</text>
<text text-anchor="start" x="57" y="-142" font-family="Helvetica,sans-Serif" font-size="10.00">is_not_empty_</text>
<text text-anchor="start" x="38" y="-127" font-family="Helvetica,sans-Serif" font-size="10.00">+</text>
<text text-anchor="start" x="57" y="-127" font-family="Helvetica,sans-Serif" font-size="10.00">BlockingQueue()</text>
<text text-anchor="start" x="38" y="-112" font-family="Helvetica,sans-Serif" font-size="10.00">+</text>
<text text-anchor="start" x="57" y="-112" font-family="Helvetica,sans-Serif" font-size="10.00">Push()</text>
<text text-anchor="start" x="38" y="-97" font-family="Helvetica,sans-Serif" font-size="10.00">+</text>
<text text-anchor="start" x="57" y="-97" font-family="Helvetica,sans-Serif" font-size="10.00">Pop()</text>
<text text-anchor="start" x="38" y="-82" font-family="Helvetica,sans-Serif" font-size="10.00">+</text>
<text text-anchor="start" x="57" y="-82" font-family="Helvetica,sans-Serif" font-size="10.00">Peak()</text>
<text text-anchor="start" x="38" y="-67" font-family="Helvetica,sans-Serif" font-size="10.00">+</text>
<text text-anchor="start" x="57" y="-67" font-family="Helvetica,sans-Serif" font-size="10.00">Empty()</text>
<text text-anchor="start" x="38" y="-52" font-family="Helvetica,sans-Serif" font-size="10.00">+</text>
<text text-anchor="start" x="57" y="-52" font-family="Helvetica,sans-Serif" font-size="10.00">Full()</text>
<text text-anchor="start" x="38" y="-37" font-family="Helvetica,sans-Serif" font-size="10.00">+</text>
<text text-anchor="start" x="57" y="-37" font-family="Helvetica,sans-Serif" font-size="10.00">Clear()</text>
<text text-anchor="start" x="38" y="-22" font-family="Helvetica,sans-Serif" font-size="10.00">+</text>
<text text-anchor="start" x="57" y="-22" font-family="Helvetica,sans-Serif" font-size="10.00">size()</text>
<text text-anchor="start" x="40.5" y="-7" font-family="Helvetica,sans-Serif" font-size="10.00">&#45;</text>
<text text-anchor="start" x="57" y="-7" font-family="Helvetica,sans-Serif" font-size="10.00">readItem()</text>
<polygon fill="#666666" stroke="#666666" points="28,-182 28,-182 156,-182 156,-182 28,-182"/>
<polygon fill="#666666" stroke="#666666" points="28,-137 28,-137 55,-137 55,-137 28,-137"/>
<polygon fill="#666666" stroke="#666666" points="55,-137 55,-137 156,-137 156,-137 55,-137"/>
<polygon fill="none" stroke="#666666" points="28,0 28,-210 156,-210 156,0 28,0"/>
</a>
</g>
</g>
<!-- Node2 -->
<g id="Node000002" class="node">
<title>Node2</title>
<g id="a_Node000002"><a xlink:title=" ">
<polygon fill="white" stroke="transparent" points="90,-317 0,-317 0,-268 90,-268 90,-317"/>
<text text-anchor="start" x="5" y="-304.5" font-family="Helvetica,sans-Serif" font-size="10.00">std::queue&lt; T &gt;</text>
<text text-anchor="start" x="43" y="-289.5" font-family="Helvetica,sans-Serif" font-size="10.00"> </text>
<text text-anchor="start" x="43" y="-274.5" font-family="Helvetica,sans-Serif" font-size="10.00"> </text>
<polygon fill="#666666" stroke="#666666" points="0,-299.5 0,-299.5 90,-299.5 90,-299.5 0,-299.5"/>
<polygon fill="#666666" stroke="#666666" points="0,-284.5 0,-284.5 90,-284.5 90,-284.5 0,-284.5"/>
<polygon fill="none" stroke="#666666" points="0,-268 0,-317 90,-317 90,-268 0,-268"/>
</a>
</g>
</g>
<!-- Node2&#45;&gt;Node1 -->
<g id="edge1_Node000001_Node000002" class="edge">
<title>Node2&#45;&gt;Node1</title>
<g id="a_edge1_Node000001_Node000002"><a xlink:title=" ">
<path fill="none" stroke="#8b1a1a" d="M53.56,-257.73C57.04,-243.98 61.27,-227.27 65.64,-210.04"/>
<polygon fill="none" stroke="#8b1a1a" points="50.11,-257.08 51.05,-267.63 56.9,-258.79 50.11,-257.08"/>
</a>
</g>
</g>
<!-- Node3 -->
<g id="Node000003" class="node">
<title>Node3</title>
<g id="a_Node000003"><a xlink:title=" ">
<polygon fill="white" stroke="transparent" points="53.5,-413 36.5,-413 36.5,-364 53.5,-364 53.5,-413"/>
<text text-anchor="start" x="42" y="-400.5" font-family="Helvetica,sans-Serif" font-size="10.00">T</text>
<text text-anchor="start" x="43.5" y="-385.5" font-family="Helvetica,sans-Serif" font-size="10.00"> </text>
<text text-anchor="start" x="43.5" y="-370.5" font-family="Helvetica,sans-Serif" font-size="10.00"> </text>
<polygon fill="#666666" stroke="#666666" points="37,-395.5 37,-395.5 54,-395.5 54,-395.5 37,-395.5"/>
<polygon fill="#666666" stroke="#666666" points="37,-380.5 37,-380.5 54,-380.5 54,-380.5 37,-380.5"/>
<polygon fill="none" stroke="#666666" points="36.5,-364 36.5,-413 53.5,-413 53.5,-364 36.5,-364"/>
</a>
</g>
</g>
<!-- Node3&#45;&gt;Node2 -->
<g id="edge2_Node000002_Node000003" class="edge">
<title>Node3&#45;&gt;Node2</title>
<g id="a_edge2_Node000002_Node000003"><a xlink:title=" ">
<path fill="none" stroke="#63b8ff" d="M45,-363.78C45,-353.32 45,-340.79 45,-329.23"/>
<polygon fill="none" stroke="#63b8ff" points="45,-329.21 41,-323.21 45,-317.21 49,-323.21 45,-329.21"/>
</a>
</g>
<text text-anchor="middle" x="74" y="-338" font-family="Helvetica,sans-Serif" font-size="10.00" fill="grey"> +elements</text>
</g>
<!-- Node4 -->
<g id="Node000004" class="node">
<title>Node4</title>
<g id="a_Node000004"><a xlink:title=" ">
<polygon fill="white" stroke="transparent" points="171.5,-317 108.5,-317 108.5,-268 171.5,-268 171.5,-317"/>
<text text-anchor="start" x="114" y="-304.5" font-family="Helvetica,sans-Serif" font-size="10.00">std::mutex</text>
<text text-anchor="start" x="138.5" y="-289.5" font-family="Helvetica,sans-Serif" font-size="10.00"> </text>
<text text-anchor="start" x="138.5" y="-274.5" font-family="Helvetica,sans-Serif" font-size="10.00"> </text>
<polygon fill="#666666" stroke="#666666" points="109,-299.5 109,-299.5 172,-299.5 172,-299.5 109,-299.5"/>
<polygon fill="#666666" stroke="#666666" points="109,-284.5 109,-284.5 172,-284.5 172,-284.5 109,-284.5"/>
<polygon fill="none" stroke="#666666" points="108.5,-268 108.5,-317 171.5,-317 171.5,-268 108.5,-268"/>
</a>
</g>
</g>
<!-- Node4&#45;&gt;Node1 -->
<g id="edge3_Node000001_Node000004" class="edge">
<title>Node4&#45;&gt;Node1</title>
<g id="a_edge3_Node000001_Node000004"><a xlink:title=" ">
<path fill="none" stroke="#63b8ff" d="M133.82,-267.63C130.63,-255.31 126.48,-239.27 122.04,-222.08"/>
<polygon fill="none" stroke="#63b8ff" points="121.93,-221.65 116.55,-216.85 118.92,-210.04 124.3,-214.84 121.93,-221.65"/>
</a>
</g>
<text text-anchor="middle" x="168.5" y="-242" font-family="Helvetica,sans-Serif" font-size="10.00" fill="grey"> &#45;reader_mutex_</text>
<text text-anchor="middle" x="168.5" y="-231" font-family="Helvetica,sans-Serif" font-size="10.00" fill="grey">&#45;writer_mutex_</text>
</g>
</g>
</svg>
