<?xml version="1.0" encoding="UTF-8" standalone="no"?>
<!DOCTYPE svg PUBLIC "-//W3C//DTD SVG 1.1//EN"
 "http://www.w3.org/Graphics/SVG/1.1/DTD/svg11.dtd">
<!-- Generated by graphviz version 2.43.0 (0)
 -->
<!-- Title: iii_drone::perception::SingleLine::SingleLine Pages: 1 -->
<!--zoomable 530 -->

<svg id="main" version="1.1" xmlns="http://www.w3.org/2000/svg" xmlns:xlink="http://www.w3.org/1999/xlink" xml:space="preserve" onload="init(evt)">
<style type="text/css"><![CDATA[
.node, .edge {opacity: 0.7;}
.node.selected, .edge.selected {opacity: 1;}
.edge:hover path { stroke: red; }
.edge:hover polygon { stroke: red; fill: red; }
]]></style>

<defs>
  <circle id="rim" cx="0" cy="0" r="7"/>
  <circle id="rim2" cx="0" cy="0" r="3.5"/>
  <g id="zoomPlus">
    <use xlink:href="#rim" fill="#404040"><set attributeName="fill" to="#808080" begin="zoomplus.mouseover" end="zoomplus.mouseout"/></use>
    <path d="M-4,0h8M0,-4v8" fill="none" stroke="white" stroke-width="1.5" pointer-events="none"/>
  </g>
  <g id="zoomMin">
    <use xlink:href="#rim" fill="#404040"><set attributeName="fill" to="#808080" begin="zoomminus.mouseover" end="zoomminus.mouseout"/></use>
    <path d="M-4,0h8" fill="none" stroke="white" stroke-width="1.5" pointer-events="none"/>
  </g>
  <g id="arrowUp" transform="translate(30 24)">
    <use xlink:href="#rim"/>
    <path pointer-events="none" fill="none" stroke="white" stroke-width="1.5" d="M0,-3.0v7 M-2.5,-0.5L0,-3.0L2.5,-0.5"/>
  </g>
  <g id="arrowRight" transform="rotate(90) translate(36 -43)">
    <use xlink:href="#rim"/>
    <path pointer-events="none" fill="none" stroke="white" stroke-width="1.5" d="M0,-3.0v7 M-2.5,-0.5L0,-3.0L2.5,-0.5"/>
  </g>
  <g id="arrowDown" transform="rotate(180) translate(-30 -48)">
    <use xlink:href="#rim"/>
    <path pointer-events="none" fill="none" stroke="white" stroke-width="1.5" d="M0,-3.0v7 M-2.5,-0.5L0,-3.0L2.5,-0.5"/>
  </g>
  <g id="arrowLeft" transform="rotate(270) translate(-36 17)">
    <use xlink:href="#rim"/>
    <path pointer-events="none" fill="none" stroke="white" stroke-width="1.5" d="M0,-3.0v7 M-2.5,-0.5L0,-3.0L2.5,-0.5"/>
  </g>
  <g id="resetDef">
    <use xlink:href="#rim2" fill="#404040"><set attributeName="fill" to="#808080" begin="reset.mouseover" end="reset.mouseout"/></use>
  </g>
</defs>
<script type="application/ecmascript">
var viewWidth = 308;
var viewHeight = 530;
var sectionId = 'dynsection-1';
</script>
<script type="application/ecmascript" xlink:href="svg.min.js"/>
<svg id="graph" class="graph">
<g id="viewport">
<title>iii_drone::perception::SingleLine::SingleLine</title>
<!-- Node1 -->
<g id="Node000001" class="node">
<title>Node1</title>
<g id="a_Node000001"><a xlink:title="Copy constructor.">
<polygon fill="#999999" stroke="#666666" points="129,-276 0,-276 0,-246 129,-246 129,-276"/>
<text text-anchor="start" x="8" y="-264" font-family="Helvetica,sans-Serif" font-size="10.00">iii_drone::perception</text>
<text text-anchor="middle" x="64.5" y="-253" font-family="Helvetica,sans-Serif" font-size="10.00">::SingleLine::SingleLine</text>
</a>
</g>
</g>
<!-- Node2 -->
<g id="Node000002" class="node">
<title>Node2</title>
<g id="a_Node000002"><a xlink:href="classiii__drone_1_1perception_1_1SingleLine.html#a37b9c9397df0291cb6ca18a0bed970ce" target="_top" xlink:title="Alive counter getter.">
<polygon fill="white" stroke="#666666" points="294,-522 171,-522 171,-492 294,-492 294,-522"/>
<text text-anchor="start" x="179" y="-510" font-family="Helvetica,sans-Serif" font-size="10.00">iii_drone::perception</text>
<text text-anchor="middle" x="232.5" y="-499" font-family="Helvetica,sans-Serif" font-size="10.00">::SingleLine::alive_cnt</text>
</a>
</g>
</g>
<!-- Node1&#45;&gt;Node2 -->
<g id="edge1_Node000001_Node000002" class="edge">
<title>Node1&#45;&gt;Node2</title>
<g id="a_edge1_Node000001_Node000002"><a xlink:title=" ">
<path fill="none" stroke="#63b8ff" d="M68.05,-276.04C75.53,-315.61 101.06,-423.68 165,-483 166.27,-484.18 167.6,-485.3 168.98,-486.36"/>
<polygon fill="#63b8ff" stroke="#63b8ff" points="167.1,-489.32 177.38,-491.89 170.95,-483.47 167.1,-489.32"/>
</a>
</g>
</g>
<!-- Node3 -->
<g id="Node000003" class="node">
<title>Node3</title>
<g id="a_Node000003"><a xlink:href="classiii__drone_1_1perception_1_1SingleLine.html#a2ba94b175012e7633ed166ab8c7dd4ec" target="_top" xlink:title="frame_id getter.">
<polygon fill="white" stroke="#666666" points="293.5,-474 171.5,-474 171.5,-444 293.5,-444 293.5,-474"/>
<text text-anchor="start" x="179.5" y="-462" font-family="Helvetica,sans-Serif" font-size="10.00">iii_drone::perception</text>
<text text-anchor="middle" x="232.5" y="-451" font-family="Helvetica,sans-Serif" font-size="10.00">::SingleLine::frame_id</text>
</a>
</g>
</g>
<!-- Node1&#45;&gt;Node3 -->
<g id="edge2_Node000001_Node000003" class="edge">
<title>Node1&#45;&gt;Node3</title>
<g id="a_edge2_Node000001_Node000003"><a xlink:title=" ">
<path fill="none" stroke="#63b8ff" d="M70.13,-276.16C81.11,-309.61 111.85,-390.34 165,-435 166.52,-436.27 168.1,-437.48 169.75,-438.63"/>
<polygon fill="#63b8ff" stroke="#63b8ff" points="168.02,-441.67 178.39,-443.86 171.65,-435.68 168.02,-441.67"/>
</a>
</g>
</g>
<!-- Node4 -->
<g id="Node000004" class="node">
<title>Node4</title>
<g id="a_Node000004"><a xlink:href="classiii__drone_1_1perception_1_1SingleLine.html#abfb685964e0af6f5d46fc2c70e6c9412" target="_top" xlink:title="Id getter.">
<polygon fill="white" stroke="#666666" points="290.5,-426 174.5,-426 174.5,-396 290.5,-396 290.5,-426"/>
<text text-anchor="start" x="182.5" y="-414" font-family="Helvetica,sans-Serif" font-size="10.00">iii_drone::perception</text>
<text text-anchor="middle" x="232.5" y="-403" font-family="Helvetica,sans-Serif" font-size="10.00">::SingleLine::id</text>
</a>
</g>
</g>
<!-- Node1&#45;&gt;Node4 -->
<g id="edge3_Node000001_Node000004" class="edge">
<title>Node1&#45;&gt;Node4</title>
<g id="a_edge3_Node000001_Node000004"><a xlink:title=" ">
<path fill="none" stroke="#63b8ff" d="M73.6,-276.05C88.39,-302.2 122.26,-356.2 165,-387 167.05,-388.48 169.2,-389.87 171.41,-391.18"/>
<polygon fill="#63b8ff" stroke="#63b8ff" points="169.79,-394.28 180.26,-395.87 173.06,-388.1 169.79,-394.28"/>
</a>
</g>
</g>
<!-- Node5 -->
<g id="Node000005" class="node">
<title>Node5</title>
<g id="a_Node000005"><a xlink:href="classiii__drone_1_1perception_1_1SingleLine.html#a87447cb65366cad80636c7700de33a14" target="_top" xlink:title="parameters getter.">
<polygon fill="white" stroke="#666666" points="300,-378 165,-378 165,-348 300,-348 300,-378"/>
<text text-anchor="start" x="173" y="-366" font-family="Helvetica,sans-Serif" font-size="10.00">iii_drone::perception</text>
<text text-anchor="middle" x="232.5" y="-355" font-family="Helvetica,sans-Serif" font-size="10.00">::SingleLine::parameters</text>
</a>
</g>
</g>
<!-- Node1&#45;&gt;Node5 -->
<g id="edge4_Node000001_Node000005" class="edge">
<title>Node1&#45;&gt;Node5</title>
<g id="a_edge4_Node000001_Node000005"><a xlink:title=" ">
<path fill="none" stroke="#63b8ff" d="M81.59,-276.29C100.36,-293.46 132.93,-321.25 165,-339 168.05,-340.69 171.23,-342.29 174.49,-343.82"/>
<polygon fill="#63b8ff" stroke="#63b8ff" points="173.25,-347.09 183.81,-347.89 176.05,-340.68 173.25,-347.09"/>
</a>
</g>
</g>
<!-- Node6 -->
<g id="Node000006" class="node">
<title>Node6</title>
<g id="a_Node000006"><a xlink:href="classiii__drone_1_1perception_1_1SingleLine.html#aeb05d9d3ca876e323a7e46b228d63e0c" target="_top" xlink:title="position getter.">
<polygon fill="white" stroke="#666666" points="291.5,-330 173.5,-330 173.5,-300 291.5,-300 291.5,-330"/>
<text text-anchor="start" x="181.5" y="-318" font-family="Helvetica,sans-Serif" font-size="10.00">iii_drone::perception</text>
<text text-anchor="middle" x="232.5" y="-307" font-family="Helvetica,sans-Serif" font-size="10.00">::SingleLine::position</text>
</a>
</g>
</g>
<!-- Node1&#45;&gt;Node6 -->
<g id="edge5_Node000001_Node000006" class="edge">
<title>Node1&#45;&gt;Node6</title>
<g id="a_edge5_Node000001_Node000006"><a xlink:title=" ">
<path fill="none" stroke="#63b8ff" d="M111.74,-276.04C131.53,-282.48 154.82,-290.06 175.58,-296.81"/>
<polygon fill="#63b8ff" stroke="#63b8ff" points="174.63,-300.18 185.22,-299.95 176.79,-293.52 174.63,-300.18"/>
</a>
</g>
</g>
<!-- Node7 -->
<g id="Node000007" class="node">
<title>Node7</title>
<g id="a_Node000007"><a xlink:href="classiii__drone_1_1perception_1_1SingleLine.html#af2502bc0e92367c2345da34d912b9edf" target="_top" xlink:title="projected_position getter.">
<polygon fill="white" stroke="#666666" points="295,-281.5 170,-281.5 170,-240.5 295,-240.5 295,-281.5"/>
<text text-anchor="start" x="178" y="-269.5" font-family="Helvetica,sans-Serif" font-size="10.00">iii_drone::perception</text>
<text text-anchor="start" x="178" y="-258.5" font-family="Helvetica,sans-Serif" font-size="10.00">::SingleLine::projected</text>
<text text-anchor="middle" x="232.5" y="-247.5" font-family="Helvetica,sans-Serif" font-size="10.00">_position</text>
</a>
</g>
</g>
<!-- Node1&#45;&gt;Node7 -->
<g id="edge6_Node000001_Node000007" class="edge">
<title>Node1&#45;&gt;Node7</title>
<g id="a_edge6_Node000001_Node000007"><a xlink:title=" ">
<path fill="none" stroke="#63b8ff" d="M129.21,-261C139.22,-261 149.63,-261 159.8,-261"/>
<polygon fill="#63b8ff" stroke="#63b8ff" points="159.88,-264.5 169.88,-261 159.88,-257.5 159.88,-264.5"/>
</a>
</g>
</g>
<!-- Node8 -->
<g id="Node000008" class="node">
<title>Node8</title>
<g id="a_Node000008"><a xlink:href="classiii__drone_1_1perception_1_1SingleLine.html#a49650269a9ab4cdd4fa225534700a21e" target="_top" xlink:title="quaternion getter.">
<polygon fill="white" stroke="#666666" points="298,-222 167,-222 167,-192 298,-192 298,-222"/>
<text text-anchor="start" x="175" y="-210" font-family="Helvetica,sans-Serif" font-size="10.00">iii_drone::perception</text>
<text text-anchor="middle" x="232.5" y="-199" font-family="Helvetica,sans-Serif" font-size="10.00">::SingleLine::quaternion</text>
</a>
</g>
</g>
<!-- Node1&#45;&gt;Node8 -->
<g id="edge7_Node000001_Node000008" class="edge">
<title>Node1&#45;&gt;Node8</title>
<g id="a_edge7_Node000001_Node000008"><a xlink:title=" ">
<path fill="none" stroke="#63b8ff" d="M111.74,-245.96C131.53,-239.52 154.82,-231.94 175.58,-225.19"/>
<polygon fill="#63b8ff" stroke="#63b8ff" points="176.79,-228.48 185.22,-222.05 174.63,-221.82 176.79,-228.48"/>
</a>
</g>
</g>
<!-- Node9 -->
<g id="Node000009" class="node">
<title>Node9</title>
<g id="a_Node000009"><a xlink:href="classiii__drone_1_1perception_1_1SingleLine.html#affa629468056b5ad8c8ac57dd6d93425" target="_top" xlink:title="Stamp getter.">
<polygon fill="white" stroke="#666666" points="290.5,-174 174.5,-174 174.5,-144 290.5,-144 290.5,-174"/>
<text text-anchor="start" x="182.5" y="-162" font-family="Helvetica,sans-Serif" font-size="10.00">iii_drone::perception</text>
<text text-anchor="middle" x="232.5" y="-151" font-family="Helvetica,sans-Serif" font-size="10.00">::SingleLine::stamp</text>
</a>
</g>
</g>
<!-- Node1&#45;&gt;Node9 -->
<g id="edge8_Node000001_Node000009" class="edge">
<title>Node1&#45;&gt;Node9</title>
<g id="a_edge8_Node000001_Node000009"><a xlink:title=" ">
<path fill="none" stroke="#63b8ff" d="M81.59,-245.71C100.36,-228.54 132.93,-200.75 165,-183 168.05,-181.31 171.23,-179.71 174.49,-178.18"/>
<polygon fill="#63b8ff" stroke="#63b8ff" points="176.05,-181.32 183.81,-174.11 173.25,-174.91 176.05,-181.32"/>
</a>
</g>
</g>
<!-- Node10 -->
<g id="Node000010" class="node">
<title>Node10</title>
<g id="a_Node000010"><a xlink:href="classiii__drone_1_1perception_1_1SingleLine.html#aa3c33dcce2fe0dd81a383569d85362ba" target="_top" xlink:title="State estimate getter.">
<polygon fill="white" stroke="#666666" points="294.5,-126 170.5,-126 170.5,-96 294.5,-96 294.5,-126"/>
<text text-anchor="start" x="178.5" y="-114" font-family="Helvetica,sans-Serif" font-size="10.00">iii_drone::perception</text>
<text text-anchor="middle" x="232.5" y="-103" font-family="Helvetica,sans-Serif" font-size="10.00">::SingleLine::state_est</text>
</a>
</g>
</g>
<!-- Node1&#45;&gt;Node10 -->
<g id="edge9_Node000001_Node000010" class="edge">
<title>Node1&#45;&gt;Node10</title>
<g id="a_edge9_Node000001_Node000010"><a xlink:title=" ">
<path fill="none" stroke="#63b8ff" d="M73.6,-245.95C88.39,-219.8 122.26,-165.8 165,-135 167.05,-133.52 169.2,-132.13 171.41,-130.82"/>
<polygon fill="#63b8ff" stroke="#63b8ff" points="173.06,-133.9 180.26,-126.13 169.79,-127.72 173.06,-133.9"/>
</a>
</g>
</g>
<!-- Node11 -->
<g id="Node000011" class="node">
<title>Node11</title>
<g id="a_Node000011"><a xlink:href="classiii__drone_1_1perception_1_1SingleLine.html#a2ae6b6360293f666c8a10ca00fc118cc" target="_top" xlink:title="tf_buffer getter.">
<polygon fill="white" stroke="#666666" points="292.5,-78 172.5,-78 172.5,-48 292.5,-48 292.5,-78"/>
<text text-anchor="start" x="180.5" y="-66" font-family="Helvetica,sans-Serif" font-size="10.00">iii_drone::perception</text>
<text text-anchor="middle" x="232.5" y="-55" font-family="Helvetica,sans-Serif" font-size="10.00">::SingleLine::tf_buffer</text>
</a>
</g>
</g>
<!-- Node1&#45;&gt;Node11 -->
<g id="edge10_Node000001_Node000011" class="edge">
<title>Node1&#45;&gt;Node11</title>
<g id="a_edge10_Node000001_Node000011"><a xlink:title=" ">
<path fill="none" stroke="#63b8ff" d="M70.13,-245.84C81.11,-212.39 111.85,-131.66 165,-87 166.52,-85.73 168.1,-84.52 169.75,-83.37"/>
<polygon fill="#63b8ff" stroke="#63b8ff" points="171.65,-86.32 178.39,-78.14 168.02,-80.33 171.65,-86.32"/>
</a>
</g>
</g>
<!-- Node12 -->
<g id="Node000012" class="node">
<title>Node12</title>
<g id="a_Node000012"><a xlink:href="classiii__drone_1_1perception_1_1SingleLine.html#a5b9b25d0f29f7de3873bb01435850ea2" target="_top" xlink:title="Variance estimate getter.">
<polygon fill="white" stroke="#666666" points="290.5,-30 174.5,-30 174.5,0 290.5,0 290.5,-30"/>
<text text-anchor="start" x="182.5" y="-18" font-family="Helvetica,sans-Serif" font-size="10.00">iii_drone::perception</text>
<text text-anchor="middle" x="232.5" y="-7" font-family="Helvetica,sans-Serif" font-size="10.00">::SingleLine::var_est</text>
</a>
</g>
</g>
<!-- Node1&#45;&gt;Node12 -->
<g id="edge11_Node000001_Node000012" class="edge">
<title>Node1&#45;&gt;Node12</title>
<g id="a_edge11_Node000001_Node000012"><a xlink:title=" ">
<path fill="none" stroke="#63b8ff" d="M68.05,-245.96C75.53,-206.39 101.06,-98.32 165,-39 166.27,-37.82 167.6,-36.7 168.98,-35.64"/>
<polygon fill="#63b8ff" stroke="#63b8ff" points="170.95,-38.53 177.38,-30.11 167.1,-32.68 170.95,-38.53"/>
</a>
</g>
</g>
</g>
</svg>

<g id="navigator" transform="translate(0 0)" fill="#404254">
  <rect fill="#f2f5e9" fill-opacity="0.5" stroke="#606060" stroke-width=".5" x="0" y="0" width="60" height="60"/>
  <use id="zoomplus" xlink:href="#zoomPlus" x="17" y="9" onmousedown="handleZoom(evt,'in')"/>
  <use id="zoomminus" xlink:href="#zoomMin" x="42" y="9" onmousedown="handleZoom(evt,'out')"/>
  <use id="reset" xlink:href="#resetDef" x="30" y="36" onmousedown="handleReset()"/>
   <use id="arrowup" xlink:href="#arrowUp" x="0" y="0" onmousedown="handlePan(0,-1)"/>
  <use id="arrowright" xlink:href="#arrowRight" x="0" y="0" onmousedown="handlePan(1,0)"/>
  <use id="arrowdown" xlink:href="#arrowDown" x="0" y="0" onmousedown="handlePan(0,1)"/>
  <use id="arrowleft" xlink:href="#arrowLeft" x="0" y="0" onmousedown="handlePan(-1,0)"/>
</g>
<svg viewBox="0 0 15 15" width="100%" height="30px" preserveAspectRatio="xMaxYMin meet">
 <g id="arrow_out" transform="scale(0.3 0.3)">
  <a xlink:href="classiii__drone_1_1perception_1_1SingleLine_a23ed739c4d3315789dfc2b62cc586833_cgraph_org.svg" target="_base">
   <rect id="button" ry="5" rx="5" y="6" x="6" height="38" width="38"
        fill="#f2f5e9" fill-opacity="0.5" stroke="#606060" stroke-width="1.0"/>
   <path id="arrow"
     d="M 11.500037,31.436501 C 11.940474,20.09759 22.043105,11.32322 32.158766,21.979434 L 37.068811,17.246167 C 37.068811,17.246167 37.088388,32 37.088388,32 L 22.160133,31.978069 C 22.160133,31.978069 26.997745,27.140456 26.997745,27.140456 C 18.528582,18.264221 13.291696,25.230495 11.500037,31.436501 z"
     style="fill:#404040;"/>
  </a>
 </g>
</svg>

<style type='text/css'>
<![CDATA[
[data-mouse-over-selected='false'] { opacity: 0.7; }
[data-mouse-over-selected='true']  { opacity: 1.0; }
]]>
</style>
<script type="application/ecmascript"><![CDATA[
document.addEventListener('DOMContentLoaded', (event) => {
  highlightEdges();
  highlightAdjacentNodes();
});
]]></script>
</svg>
