<?xml version="1.0" encoding="UTF-8" standalone="no"?>
<!DOCTYPE svg PUBLIC "-//W3C//DTD SVG 1.1//EN"
 "http://www.w3.org/Graphics/SVG/1.1/DTD/svg11.dtd">
<!-- Generated by graphviz version 2.43.0 (0)
 -->
<!-- Title: iii_drone::perception::Powerline::updateProjectionPlane Pages: 1 -->
<svg width="806pt" height="49pt"
 viewBox="0.00 0.00 806.00 49.00" xmlns="http://www.w3.org/2000/svg" xmlns:xlink="http://www.w3.org/1999/xlink">
<g id="graph0" class="graph" transform="scale(1 1) rotate(0) translate(4 45)">
<title>iii_drone::perception::Powerline::updateProjectionPlane</title>
<!-- Node1 -->
<g id="Node000001" class="node">
<title>Node1</title>
<g id="a_Node000001"><a xlink:title="Updates the projection plane.">
<polygon fill="#999999" stroke="#666666" points="798,-41 639,-41 639,0 798,0 798,-41"/>
<text text-anchor="start" x="647" y="-29" font-family="Helvetica,sans-Serif" font-size="10.00">iii_drone::perception</text>
<text text-anchor="start" x="647" y="-18" font-family="Helvetica,sans-Serif" font-size="10.00">::Powerline::updateProjection</text>
<text text-anchor="middle" x="718.5" y="-7" font-family="Helvetica,sans-Serif" font-size="10.00">Plane</text>
</a>
</g>
</g>
<!-- Node2 -->
<g id="Node000002" class="node">
<title>Node2</title>
<g id="a_Node000002"><a xlink:href="classiii__drone_1_1perception_1_1Powerline.html#ac0f0ef699ab1cca6ab024e2f9549ce8e" target="_top" xlink:title="Updates the powerline direction and updates the projection plane.">
<polygon fill="white" stroke="#666666" points="603,-35.5 447,-35.5 447,-5.5 603,-5.5 603,-35.5"/>
<text text-anchor="start" x="455" y="-23.5" font-family="Helvetica,sans-Serif" font-size="10.00">iii_drone::perception</text>
<text text-anchor="middle" x="525" y="-12.5" font-family="Helvetica,sans-Serif" font-size="10.00">::Powerline::UpdateDirection</text>
</a>
</g>
</g>
<!-- Node1&#45;&gt;Node2 -->
<g id="edge1_Node000001_Node000002" class="edge">
<title>Node1&#45;&gt;Node2</title>
<g id="a_edge1_Node000001_Node000002"><a xlink:title=" ">
<path fill="none" stroke="#63b8ff" d="M628.51,-20.5C620.05,-20.5 611.52,-20.5 603.18,-20.5"/>
<polygon fill="#63b8ff" stroke="#63b8ff" points="628.78,-24 638.78,-20.5 628.78,-17 628.78,-24"/>
</a>
</g>
</g>
<!-- Node3 -->
<g id="Node000003" class="node">
<title>Node3</title>
<g id="a_Node000003"><a xlink:href="classiii__drone_1_1perception_1_1pl__mapper__node_1_1PowerlineMapperNode.html#a18e832f380107069f279ecf1203f3f16" target="_top" xlink:title="Callback for powerline direction topic.">
<polygon fill="white" stroke="#666666" points="411,-41 231,-41 231,0 411,0 411,-41"/>
<text text-anchor="start" x="239" y="-29" font-family="Helvetica,sans-Serif" font-size="10.00">iii_drone::perception</text>
<text text-anchor="start" x="239" y="-18" font-family="Helvetica,sans-Serif" font-size="10.00">::pl_mapper_node::Powerline</text>
<text text-anchor="middle" x="321" y="-7" font-family="Helvetica,sans-Serif" font-size="10.00">MapperNode::plDirectionCallback</text>
</a>
</g>
</g>
<!-- Node2&#45;&gt;Node3 -->
<g id="edge2_Node000002_Node000003" class="edge">
<title>Node2&#45;&gt;Node3</title>
<g id="a_edge2_Node000002_Node000003"><a xlink:title=" ">
<path fill="none" stroke="#63b8ff" d="M436.53,-20.5C428.07,-20.5 419.48,-20.5 411.01,-20.5"/>
<polygon fill="#63b8ff" stroke="#63b8ff" points="436.77,-24 446.77,-20.5 436.77,-17 436.77,-24"/>
</a>
</g>
</g>
<!-- Node4 -->
<g id="Node000004" class="node">
<title>Node4</title>
<g id="a_Node000004"><a xlink:href="classiii__drone_1_1perception_1_1pl__mapper__node_1_1PowerlineMapperNode.html#a703ae72ba683ae11154ce597b8bbad9d" target="_top" xlink:title="Constructor.">
<polygon fill="white" stroke="#666666" points="195,-41 0,-41 0,0 195,0 195,-41"/>
<text text-anchor="start" x="8" y="-29" font-family="Helvetica,sans-Serif" font-size="10.00">iii_drone::perception</text>
<text text-anchor="start" x="8" y="-18" font-family="Helvetica,sans-Serif" font-size="10.00">::pl_mapper_node::Powerline</text>
<text text-anchor="middle" x="97.5" y="-7" font-family="Helvetica,sans-Serif" font-size="10.00">MapperNode::PowerlineMapperNode</text>
</a>
</g>
</g>
<!-- Node3&#45;&gt;Node4 -->
<g id="edge3_Node000003_Node000004" class="edge">
<title>Node3&#45;&gt;Node4</title>
<g id="a_edge3_Node000003_Node000004"><a xlink:title=" ">
<path fill="none" stroke="#63b8ff" d="M220.86,-20.5C212.28,-20.5 203.62,-20.5 195.07,-20.5"/>
<polygon fill="#63b8ff" stroke="#63b8ff" points="220.86,-24 230.86,-20.5 220.86,-17 220.86,-24"/>
</a>
</g>
</g>
</g>
</svg>
