<?xml version="1.0" encoding="UTF-8" standalone="no"?>
<!DOCTYPE svg PUBLIC "-//W3C//DTD SVG 1.1//EN"
 "http://www.w3.org/Graphics/SVG/1.1/DTD/svg11.dtd">
<!-- Generated by graphviz version 2.43.0 (0)
 -->
<!-- Title: iii_drone::control::maneuver::ManeuverScheduler::RegisterManeuverServer Pages: 1 -->
<svg width="1439pt" height="778pt"
 viewBox="0.00 0.00 1439.00 777.67" xmlns="http://www.w3.org/2000/svg" xmlns:xlink="http://www.w3.org/1999/xlink">
<g id="graph0" class="graph" transform="scale(1 1) rotate(0) translate(4 773.67)">
<title>iii_drone::control::maneuver::ManeuverScheduler::RegisterManeuverServer</title>
<!-- Node1 -->
<g id="Node000001" class="node">
<title>Node1</title>
<g id="a_Node000001"><a xlink:title="Registers a maneuver type with a maneuver server.">
<polygon fill="#999999" stroke="#666666" points="175,-572 0,-572 0,-531 175,-531 175,-572"/>
<text text-anchor="start" x="8" y="-560" font-family="Helvetica,sans-Serif" font-size="10.00">iii_drone::control</text>
<text text-anchor="start" x="8" y="-549" font-family="Helvetica,sans-Serif" font-size="10.00">::maneuver::ManeuverScheduler</text>
<text text-anchor="middle" x="87.5" y="-538" font-family="Helvetica,sans-Serif" font-size="10.00">::RegisterManeuverServer</text>
</a>
</g>
</g>
<!-- Node2 -->
<g id="Node000002" class="node">
<title>Node2</title>
<g id="a_Node000002"><a xlink:href="classiii__drone_1_1control_1_1maneuver_1_1ManeuverScheduler.html#ae6b24f5665082c8552cdbc5da76069e1" target="_top" xlink:title="Cancels a maneuver entry which has been registered before execution starts.">
<polygon fill="white" stroke="#666666" points="386,-653 211,-653 211,-612 386,-612 386,-653"/>
<text text-anchor="start" x="219" y="-641" font-family="Helvetica,sans-Serif" font-size="10.00">iii_drone::control</text>
<text text-anchor="start" x="219" y="-630" font-family="Helvetica,sans-Serif" font-size="10.00">::maneuver::ManeuverScheduler</text>
<text text-anchor="middle" x="298.5" y="-619" font-family="Helvetica,sans-Serif" font-size="10.00">::CancelManeuver</text>
</a>
</g>
</g>
<!-- Node1&#45;&gt;Node2 -->
<g id="edge1_Node000001_Node000002" class="edge">
<title>Node1&#45;&gt;Node2</title>
<g id="a_edge1_Node000001_Node000002"><a xlink:title=" ">
<path fill="none" stroke="#63b8ff" d="M141.51,-572.04C169.99,-583.08 205.28,-596.76 235.08,-608.31"/>
<polygon fill="#63b8ff" stroke="#63b8ff" points="233.96,-611.63 244.55,-611.98 236.49,-605.1 233.96,-611.63"/>
</a>
</g>
</g>
<!-- Node6 -->
<g id="Node000006" class="node">
<title>Node6</title>
<g id="a_Node000006"><a xlink:href="classiii__drone_1_1control_1_1maneuver_1_1Maneuver.html#a0490fe188e37c65b3e33ea5d82875c92" target="_top" xlink:title="UUID getter.">
<polygon fill="white" stroke="#666666" points="1037.5,-626.5 883.5,-626.5 883.5,-596.5 1037.5,-596.5 1037.5,-626.5"/>
<text text-anchor="start" x="891.5" y="-614.5" font-family="Helvetica,sans-Serif" font-size="10.00">iii_drone::control</text>
<text text-anchor="middle" x="960.5" y="-603.5" font-family="Helvetica,sans-Serif" font-size="10.00">::maneuver::Maneuver::uuid</text>
</a>
</g>
</g>
<!-- Node1&#45;&gt;Node6 -->
<g id="edge41_Node000001_Node000006" class="edge">
<title>Node1&#45;&gt;Node6</title>
<g id="a_edge41_Node000001_Node000006"><a xlink:title=" ">
<path fill="none" stroke="#63b8ff" d="M95.98,-572.09C111.01,-609.96 148.83,-689.67 211,-721.5 458.9,-848.42 809.64,-689.63 922.79,-631.35"/>
<polygon fill="#63b8ff" stroke="#63b8ff" points="924.51,-634.4 931.77,-626.68 921.28,-628.19 924.51,-634.4"/>
</a>
</g>
</g>
<!-- Node7 -->
<g id="Node000007" class="node">
<title>Node7</title>
<g id="a_Node000007"><a xlink:href="classiii__drone_1_1utils_1_1Token.html#ac539066ca29ed45c61aa8b9104d45004" target="_top" xlink:title="Creates a slave handle.">
<polygon fill="white" stroke="#666666" points="358,-443.5 239,-443.5 239,-413.5 358,-413.5 358,-443.5"/>
<text text-anchor="start" x="247" y="-431.5" font-family="Helvetica,sans-Serif" font-size="10.00">iii_drone::utils::Token</text>
<text text-anchor="middle" x="298.5" y="-420.5" font-family="Helvetica,sans-Serif" font-size="10.00">::CreateSlaveHandle</text>
</a>
</g>
</g>
<!-- Node1&#45;&gt;Node7 -->
<g id="edge7_Node000001_Node000007" class="edge">
<title>Node1&#45;&gt;Node7</title>
<g id="a_edge7_Node000001_Node000007"><a xlink:title=" ">
<path fill="none" stroke="#63b8ff" d="M123.48,-530.91C162.32,-508.06 224.6,-471.4 263.17,-448.7"/>
<polygon fill="#63b8ff" stroke="#63b8ff" points="265.12,-451.62 271.97,-443.53 261.57,-445.58 265.12,-451.62"/>
</a>
</g>
</g>
<!-- Node9 -->
<g id="Node000009" class="node">
<title>Node9</title>
<g id="a_Node000009"><a xlink:href="classiii__drone_1_1control_1_1maneuver_1_1ManeuverQueue.html#a76acc1a7540ee1b506f7b72607b4081f" target="_top" xlink:title="Finds a maneuver from UUID.">
<polygon fill="white" stroke="#666666" points="608.5,-593.5 423.5,-593.5 423.5,-563.5 608.5,-563.5 608.5,-593.5"/>
<text text-anchor="start" x="431.5" y="-581.5" font-family="Helvetica,sans-Serif" font-size="10.00">iii_drone::control</text>
<text text-anchor="middle" x="516" y="-570.5" font-family="Helvetica,sans-Serif" font-size="10.00">::maneuver::ManeuverQueue::Find</text>
</a>
</g>
</g>
<!-- Node1&#45;&gt;Node9 -->
<g id="edge9_Node000001_Node000009" class="edge">
<title>Node1&#45;&gt;Node9</title>
<g id="a_edge9_Node000001_Node000009"><a xlink:title=" ">
<path fill="none" stroke="#63b8ff" d="M175.07,-556.98C244.02,-561.35 340.68,-567.46 413.31,-572.06"/>
<polygon fill="#63b8ff" stroke="#63b8ff" points="413.2,-575.56 423.4,-572.7 413.64,-568.58 413.2,-575.56"/>
</a>
</g>
</g>
<!-- Node10 -->
<g id="Node000010" class="node">
<title>Node10</title>
<g id="a_Node000010"><a xlink:href="classiii__drone_1_1control_1_1maneuver_1_1ManeuverScheduler.html#a1e11c239a743295aaf2fcd973a7a85a2" target="_top" xlink:title="Callback for when hovering fails (hover by object or hover on cable).">
<polygon fill="white" stroke="#666666" points="386,-311 211,-311 211,-270 386,-270 386,-311"/>
<text text-anchor="start" x="219" y="-299" font-family="Helvetica,sans-Serif" font-size="10.00">iii_drone::control</text>
<text text-anchor="start" x="219" y="-288" font-family="Helvetica,sans-Serif" font-size="10.00">::maneuver::ManeuverScheduler</text>
<text text-anchor="middle" x="298.5" y="-277" font-family="Helvetica,sans-Serif" font-size="10.00">::onHoveringFail</text>
</a>
</g>
</g>
<!-- Node1&#45;&gt;Node10 -->
<g id="edge11_Node000001_Node000010" class="edge">
<title>Node1&#45;&gt;Node10</title>
<g id="a_edge11_Node000001_Node000010"><a xlink:title=" ">
<path fill="none" stroke="#63b8ff" d="M105.25,-530.58C142.49,-484.08 232.19,-372.06 274.58,-319.12"/>
<polygon fill="#63b8ff" stroke="#63b8ff" points="277.44,-321.15 280.96,-311.15 271.98,-316.77 277.44,-321.15"/>
</a>
</g>
</g>
<!-- Node13 -->
<g id="Node000013" class="node">
<title>Node13</title>
<g id="a_Node000013"><a xlink:href="classiii__drone_1_1control_1_1maneuver_1_1ManeuverScheduler.html#a94386d16e3784a2eff8faf59d6bb6b82" target="_top" xlink:title="OnManeuverCompleted callback. Called every time a maneuver is completed.">
<polygon fill="white" stroke="#666666" points="386,-712 211,-712 211,-671 386,-671 386,-712"/>
<text text-anchor="start" x="219" y="-700" font-family="Helvetica,sans-Serif" font-size="10.00">iii_drone::control</text>
<text text-anchor="start" x="219" y="-689" font-family="Helvetica,sans-Serif" font-size="10.00">::maneuver::ManeuverScheduler</text>
<text text-anchor="middle" x="298.5" y="-678" font-family="Helvetica,sans-Serif" font-size="10.00">::onManeuverCompleted</text>
</a>
</g>
</g>
<!-- Node1&#45;&gt;Node13 -->
<g id="edge14_Node000001_Node000013" class="edge">
<title>Node1&#45;&gt;Node13</title>
<g id="a_edge14_Node000001_Node000013"><a xlink:title=" ">
<path fill="none" stroke="#63b8ff" d="M106.43,-572.32C128.69,-596.98 168.9,-637.84 211,-662.5 213.35,-663.88 215.78,-665.2 218.26,-666.47"/>
<polygon fill="#63b8ff" stroke="#63b8ff" points="216.92,-669.71 227.45,-670.84 219.92,-663.39 216.92,-669.71"/>
</a>
</g>
</g>
<!-- Node14 -->
<g id="Node000014" class="node">
<title>Node14</title>
<g id="a_Node000014"><a xlink:href="classiii__drone_1_1control_1_1maneuver_1_1ManeuverScheduler.html#acaa8f0628522b25bdd0c63dde8ee24f0" target="_top" xlink:title="Registers a maneuver with the maneuver scheduler. To be called from a maneuver server....">
<polygon fill="white" stroke="#666666" points="386,-186 211,-186 211,-145 386,-145 386,-186"/>
<text text-anchor="start" x="219" y="-174" font-family="Helvetica,sans-Serif" font-size="10.00">iii_drone::control</text>
<text text-anchor="start" x="219" y="-163" font-family="Helvetica,sans-Serif" font-size="10.00">::maneuver::ManeuverScheduler</text>
<text text-anchor="middle" x="298.5" y="-152" font-family="Helvetica,sans-Serif" font-size="10.00">::RegisterManeuver</text>
</a>
</g>
</g>
<!-- Node1&#45;&gt;Node14 -->
<g id="edge16_Node000001_Node000014" class="edge">
<title>Node1&#45;&gt;Node14</title>
<g id="a_edge16_Node000001_Node000014"><a xlink:title=" ">
<path fill="none" stroke="#63b8ff" d="M94.64,-530.67C109.73,-481.36 151.75,-354.65 211,-261.5 226.91,-236.49 249.44,-211.72 267.51,-193.61"/>
<polygon fill="#63b8ff" stroke="#63b8ff" points="270.29,-195.79 274.96,-186.28 265.38,-190.8 270.29,-195.79"/>
</a>
</g>
</g>
<!-- Node28 -->
<g id="Node000028" class="node">
<title>Node28</title>
<g id="a_Node000028"><a xlink:href="classiii__drone_1_1control_1_1maneuver_1_1ManeuverScheduler.html#a0c01b257aa516fb896fdc59e91304540" target="_top" xlink:title="Updates a maneuver entry which has been registered with the correct goal handle after the maneuver ha...">
<polygon fill="white" stroke="#666666" points="386,-545 211,-545 211,-504 386,-504 386,-545"/>
<text text-anchor="start" x="219" y="-533" font-family="Helvetica,sans-Serif" font-size="10.00">iii_drone::control</text>
<text text-anchor="start" x="219" y="-522" font-family="Helvetica,sans-Serif" font-size="10.00">::maneuver::ManeuverScheduler</text>
<text text-anchor="middle" x="298.5" y="-511" font-family="Helvetica,sans-Serif" font-size="10.00">::UpdateManeuver</text>
</a>
</g>
</g>
<!-- Node1&#45;&gt;Node28 -->
<g id="edge33_Node000001_Node000028" class="edge">
<title>Node1&#45;&gt;Node28</title>
<g id="a_edge33_Node000001_Node000028"><a xlink:title=" ">
<path fill="none" stroke="#63b8ff" d="M175.02,-540.32C183.49,-539.23 192.13,-538.11 200.7,-537.01"/>
<polygon fill="#63b8ff" stroke="#63b8ff" points="201.24,-540.46 210.71,-535.71 200.34,-533.52 201.24,-540.46"/>
</a>
</g>
</g>
<!-- Node3 -->
<g id="Node000003" class="node">
<title>Node3</title>
<g id="a_Node000003"><a xlink:href="classiii__drone_1_1control_1_1maneuver_1_1Maneuver.html#a6e8c99e2bd771ee723136e06611b19ff" target="_top" xlink:title="Getter for the termianted flag.">
<polygon fill="white" stroke="#666666" points="579.5,-712 452.5,-712 452.5,-671 579.5,-671 579.5,-712"/>
<text text-anchor="start" x="460.5" y="-700" font-family="Helvetica,sans-Serif" font-size="10.00">iii_drone::control</text>
<text text-anchor="start" x="460.5" y="-689" font-family="Helvetica,sans-Serif" font-size="10.00">::maneuver::Maneuver</text>
<text text-anchor="middle" x="516" y="-678" font-family="Helvetica,sans-Serif" font-size="10.00">::terminated</text>
</a>
</g>
</g>
<!-- Node2&#45;&gt;Node3 -->
<g id="edge2_Node000002_Node000003" class="edge">
<title>Node2&#45;&gt;Node3</title>
<g id="a_edge2_Node000002_Node000003"><a xlink:title=" ">
<path fill="none" stroke="#63b8ff" d="M374.57,-653.05C396.58,-659.08 420.61,-665.66 442.47,-671.64"/>
<polygon fill="#63b8ff" stroke="#63b8ff" points="441.77,-675.08 452.34,-674.34 443.62,-668.33 441.77,-675.08"/>
</a>
</g>
</g>
<!-- Node4 -->
<g id="Node000004" class="node">
<title>Node4</title>
<g id="a_Node000004"><a xlink:href="classiii__drone_1_1control_1_1maneuver_1_1ManeuverQueue.html#ad3db1eaff352424f72c3ee535b7fd522" target="_top" xlink:title="Updates a maneuver in the queue. Replace the first occurrence of the maneuver.">
<polygon fill="white" stroke="#666666" points="595,-653 437,-653 437,-612 595,-612 595,-653"/>
<text text-anchor="start" x="445" y="-641" font-family="Helvetica,sans-Serif" font-size="10.00">iii_drone::control</text>
<text text-anchor="start" x="445" y="-630" font-family="Helvetica,sans-Serif" font-size="10.00">::maneuver::ManeuverQueue</text>
<text text-anchor="middle" x="516" y="-619" font-family="Helvetica,sans-Serif" font-size="10.00">::Update</text>
</a>
</g>
</g>
<!-- Node2&#45;&gt;Node4 -->
<g id="edge3_Node000002_Node000004" class="edge">
<title>Node2&#45;&gt;Node4</title>
<g id="a_edge3_Node000002_Node000004"><a xlink:title=" ">
<path fill="none" stroke="#63b8ff" d="M386.22,-632.5C399.55,-632.5 413.32,-632.5 426.68,-632.5"/>
<polygon fill="#63b8ff" stroke="#63b8ff" points="426.81,-636 436.81,-632.5 426.81,-629 426.81,-636"/>
</a>
</g>
</g>
<!-- Node5 -->
<g id="Node000005" class="node">
<title>Node5</title>
<g id="a_Node000005"><a xlink:href="classiii__drone_1_1control_1_1maneuver_1_1ManeuverQueue.html#a5d1aebf4c43998899389737a1b50b6a7" target="_top" xlink:title="Finds a maneuver in the queue by its UUID.">
<polygon fill="white" stroke="#666666" points="828,-604.5 646,-604.5 646,-574.5 828,-574.5 828,-604.5"/>
<text text-anchor="start" x="654" y="-592.5" font-family="Helvetica,sans-Serif" font-size="10.00">iii_drone::control</text>
<text text-anchor="middle" x="737" y="-581.5" font-family="Helvetica,sans-Serif" font-size="10.00">::maneuver::ManeuverQueue::find</text>
</a>
</g>
</g>
<!-- Node4&#45;&gt;Node5 -->
<g id="edge4_Node000004_Node000005" class="edge">
<title>Node4&#45;&gt;Node5</title>
<g id="a_edge4_Node000004_Node000005"><a xlink:title=" ">
<path fill="none" stroke="#63b8ff" d="M595.14,-617.16C612.76,-613.7 631.56,-610.01 649.5,-606.48"/>
<polygon fill="#63b8ff" stroke="#63b8ff" points="650.23,-609.91 659.36,-604.55 648.88,-603.04 650.23,-609.91"/>
</a>
</g>
</g>
<!-- Node4&#45;&gt;Node6 -->
<g id="edge6_Node000004_Node000006" class="edge">
<title>Node4&#45;&gt;Node6</title>
<g id="a_edge6_Node000004_Node000006"><a xlink:title=" ">
<path fill="none" stroke="#63b8ff" d="M595.09,-628.79C673.02,-625.1 792.46,-619.43 873.16,-615.6"/>
<polygon fill="#63b8ff" stroke="#63b8ff" points="873.48,-619.09 883.3,-615.12 873.14,-612.09 873.48,-619.09"/>
</a>
</g>
</g>
<!-- Node5&#45;&gt;Node6 -->
<g id="edge5_Node000005_Node000006" class="edge">
<title>Node5&#45;&gt;Node6</title>
<g id="a_edge5_Node000005_Node000006"><a xlink:title=" ">
<path fill="none" stroke="#63b8ff" d="M828.09,-598.45C842.98,-599.93 858.39,-601.46 873.18,-602.93"/>
<polygon fill="#63b8ff" stroke="#63b8ff" points="873.01,-606.43 883.31,-603.93 873.71,-599.46 873.01,-606.43"/>
</a>
</g>
</g>
<!-- Node8 -->
<g id="Node000008" class="node">
<title>Node8</title>
<g id="a_Node000008"><a xlink:href="classiii__drone_1_1utils_1_1Token.html#a057c789e1b27853924392e4a029d84b8" target="_top" xlink:title="Is master.">
<polygon fill="white" stroke="#666666" points="575.5,-317.5 456.5,-317.5 456.5,-287.5 575.5,-287.5 575.5,-317.5"/>
<text text-anchor="start" x="464.5" y="-305.5" font-family="Helvetica,sans-Serif" font-size="10.00">iii_drone::utils::Token</text>
<text text-anchor="middle" x="516" y="-294.5" font-family="Helvetica,sans-Serif" font-size="10.00">::is_master</text>
</a>
</g>
</g>
<!-- Node7&#45;&gt;Node8 -->
<g id="edge8_Node000007_Node000008" class="edge">
<title>Node7&#45;&gt;Node8</title>
<g id="a_edge8_Node000007_Node000008"><a xlink:title=" ">
<path fill="none" stroke="#63b8ff" d="M314.8,-413.25C336.76,-392.14 379.3,-354.05 422,-331.5 429.71,-327.42 438.1,-323.81 446.56,-320.65"/>
<polygon fill="#63b8ff" stroke="#63b8ff" points="447.87,-323.9 456.13,-317.26 445.53,-317.3 447.87,-323.9"/>
</a>
</g>
</g>
<!-- Node9&#45;&gt;Node5 -->
<g id="edge10_Node000009_Node000005" class="edge">
<title>Node9&#45;&gt;Node5</title>
<g id="a_edge10_Node000009_Node000005"><a xlink:title=" ">
<path fill="none" stroke="#63b8ff" d="M608.61,-583.1C617.55,-583.55 626.65,-584.01 635.68,-584.46"/>
<polygon fill="#63b8ff" stroke="#63b8ff" points="635.65,-587.96 645.81,-584.97 636,-580.97 635.65,-587.96"/>
</a>
</g>
</g>
<!-- Node11 -->
<g id="Node000011" class="node">
<title>Node11</title>
<g id="a_Node000011"><a xlink:href="classiii__drone_1_1control_1_1maneuver_1_1ManeuverScheduler.html#a4c24958fe841dcbccfb6385f38f28ec2" target="_top" xlink:title="Cancels all pending maneuvers.">
<polygon fill="white" stroke="#666666" points="603.5,-269 428.5,-269 428.5,-228 603.5,-228 603.5,-269"/>
<text text-anchor="start" x="436.5" y="-257" font-family="Helvetica,sans-Serif" font-size="10.00">iii_drone::control</text>
<text text-anchor="start" x="436.5" y="-246" font-family="Helvetica,sans-Serif" font-size="10.00">::maneuver::ManeuverScheduler</text>
<text text-anchor="middle" x="516" y="-235" font-family="Helvetica,sans-Serif" font-size="10.00">::cancelAllPendingManeuvers</text>
</a>
</g>
</g>
<!-- Node10&#45;&gt;Node11 -->
<g id="edge12_Node000010_Node000011" class="edge">
<title>Node10&#45;&gt;Node11</title>
<g id="a_edge12_Node000010_Node000011"><a xlink:title=" ">
<path fill="none" stroke="#63b8ff" d="M386.22,-273.6C396.88,-271.52 407.82,-269.39 418.61,-267.29"/>
<polygon fill="#63b8ff" stroke="#63b8ff" points="419.31,-270.72 428.46,-265.37 417.97,-263.84 419.31,-270.72"/>
</a>
</g>
</g>
<!-- Node12 -->
<g id="Node000012" class="node">
<title>Node12</title>
<g id="a_Node000012"><a xlink:href="classiii__drone_1_1control_1_1maneuver_1_1ManeuverQueue.html#afc039e2eeb8e4587c1bdb1a61f664739" target="_top" xlink:title="Clears the queue.">
<polygon fill="white" stroke="#666666" points="816,-269 658,-269 658,-228 816,-228 816,-269"/>
<text text-anchor="start" x="666" y="-257" font-family="Helvetica,sans-Serif" font-size="10.00">iii_drone::control</text>
<text text-anchor="start" x="666" y="-246" font-family="Helvetica,sans-Serif" font-size="10.00">::maneuver::ManeuverQueue</text>
<text text-anchor="middle" x="737" y="-235" font-family="Helvetica,sans-Serif" font-size="10.00">::Clear</text>
</a>
</g>
</g>
<!-- Node11&#45;&gt;Node12 -->
<g id="edge13_Node000011_Node000012" class="edge">
<title>Node11&#45;&gt;Node12</title>
<g id="a_edge13_Node000011_Node000012"><a xlink:title=" ">
<path fill="none" stroke="#63b8ff" d="M603.55,-248.5C618.13,-248.5 633.26,-248.5 647.88,-248.5"/>
<polygon fill="#63b8ff" stroke="#63b8ff" points="647.89,-252 657.89,-248.5 647.89,-245 647.89,-252"/>
</a>
</g>
</g>
<!-- Node13&#45;&gt;Node3 -->
<g id="edge15_Node000013_Node000003" class="edge">
<title>Node13&#45;&gt;Node3</title>
<g id="a_edge15_Node000013_Node000003"><a xlink:title=" ">
<path fill="none" stroke="#63b8ff" d="M386.22,-691.5C404.79,-691.5 424.22,-691.5 442.19,-691.5"/>
<polygon fill="#63b8ff" stroke="#63b8ff" points="442.3,-695 452.3,-691.5 442.3,-688 442.3,-695"/>
</a>
</g>
</g>
<!-- Node15 -->
<g id="Node000015" class="node">
<title>Node15</title>
<g id="a_Node000015"><a xlink:href="classiii__drone_1_1control_1_1maneuver_1_1ManeuverScheduler.html#afff4234827a52c39b91b94ddda380a92" target="_top" xlink:title="Returns whether a given maneuver can immediately execute.">
<polygon fill="white" stroke="#666666" points="824.5,-127 649.5,-127 649.5,-86 824.5,-86 824.5,-127"/>
<text text-anchor="start" x="657.5" y="-115" font-family="Helvetica,sans-Serif" font-size="10.00">iii_drone::control</text>
<text text-anchor="start" x="657.5" y="-104" font-family="Helvetica,sans-Serif" font-size="10.00">::maneuver::ManeuverScheduler</text>
<text text-anchor="middle" x="737" y="-93" font-family="Helvetica,sans-Serif" font-size="10.00">::CanExecute</text>
</a>
</g>
</g>
<!-- Node14&#45;&gt;Node15 -->
<g id="edge17_Node000014_Node000015" class="edge">
<title>Node14&#45;&gt;Node15</title>
<g id="a_edge17_Node000014_Node000015"><a xlink:title=" ">
<path fill="none" stroke="#63b8ff" d="M386.26,-153.77C459.31,-143.9 563.69,-129.79 639.39,-119.56"/>
<polygon fill="#63b8ff" stroke="#63b8ff" points="639.96,-123.01 649.4,-118.2 639.03,-116.08 639.96,-123.01"/>
</a>
</g>
</g>
<!-- Node21 -->
<g id="Node000021" class="node">
<title>Node21</title>
<g id="a_Node000021"><a xlink:href="classiii__drone_1_1control_1_1maneuver_1_1ManeuverScheduler.html#a6b694f0329c16fecaf0395fc4ef3f597" target="_top" xlink:title="Returns whether a given maneuver can execute later.">
<polygon fill="white" stroke="#666666" points="603.5,-210 428.5,-210 428.5,-169 603.5,-169 603.5,-210"/>
<text text-anchor="start" x="436.5" y="-198" font-family="Helvetica,sans-Serif" font-size="10.00">iii_drone::control</text>
<text text-anchor="start" x="436.5" y="-187" font-family="Helvetica,sans-Serif" font-size="10.00">::maneuver::ManeuverScheduler</text>
<text text-anchor="middle" x="516" y="-176" font-family="Helvetica,sans-Serif" font-size="10.00">::CanSchedule</text>
</a>
</g>
</g>
<!-- Node14&#45;&gt;Node21 -->
<g id="edge23_Node000014_Node000021" class="edge">
<title>Node14&#45;&gt;Node21</title>
<g id="a_edge23_Node000014_Node000021"><a xlink:title=" ">
<path fill="none" stroke="#63b8ff" d="M386.22,-175.16C396.77,-176.33 407.59,-177.54 418.28,-178.73"/>
<polygon fill="#63b8ff" stroke="#63b8ff" points="418.13,-182.23 428.46,-179.86 418.91,-175.28 418.13,-182.23"/>
</a>
</g>
</g>
<!-- Node27 -->
<g id="Node000027" class="node">
<title>Node27</title>
<g id="a_Node000027"><a xlink:href="classiii__drone_1_1control_1_1maneuver_1_1ManeuverQueue.html#ae770899d35d878379d229e817042c360" target="_top" xlink:title="Pushes an item to the queue.">
<polygon fill="white" stroke="#666666" points="610,-112.5 422,-112.5 422,-82.5 610,-82.5 610,-112.5"/>
<text text-anchor="start" x="430" y="-100.5" font-family="Helvetica,sans-Serif" font-size="10.00">iii_drone::control</text>
<text text-anchor="middle" x="516" y="-89.5" font-family="Helvetica,sans-Serif" font-size="10.00">::maneuver::ManeuverQueue::Push</text>
</a>
</g>
</g>
<!-- Node14&#45;&gt;Node27 -->
<g id="edge32_Node000014_Node000027" class="edge">
<title>Node14&#45;&gt;Node27</title>
<g id="a_edge32_Node000014_Node000027"><a xlink:title=" ">
<path fill="none" stroke="#63b8ff" d="M363.69,-144.98C382.48,-139 403.05,-132.47 422,-126.5 433.1,-123 444.96,-119.29 456.36,-115.73"/>
<polygon fill="#63b8ff" stroke="#63b8ff" points="457.73,-118.97 466.23,-112.65 455.65,-112.28 457.73,-118.97"/>
</a>
</g>
</g>
<!-- Node16 -->
<g id="Node000016" class="node">
<title>Node16</title>
<g id="a_Node000016"><a xlink:href="classiii__drone_1_1control_1_1CombinedDroneAwarenessHandler.html#a7489deb4a1885f6b4985a3f6de205b64" target="_top" xlink:title="Getter for the combined drone awareness simple type by copy.">
<polygon fill="white" stroke="#666666" points="1057,-139 864,-139 864,-98 1057,-98 1057,-139"/>
<text text-anchor="start" x="872" y="-127" font-family="Helvetica,sans-Serif" font-size="10.00">iii_drone::control</text>
<text text-anchor="start" x="872" y="-116" font-family="Helvetica,sans-Serif" font-size="10.00">::CombinedDroneAwarenessHandler</text>
<text text-anchor="middle" x="960.5" y="-105" font-family="Helvetica,sans-Serif" font-size="10.00">::combined_drone_awareness</text>
</a>
</g>
</g>
<!-- Node15&#45;&gt;Node16 -->
<g id="edge18_Node000015_Node000016" class="edge">
<title>Node15&#45;&gt;Node16</title>
<g id="a_edge18_Node000015_Node000016"><a xlink:title=" ">
<path fill="none" stroke="#63b8ff" d="M824.59,-111.19C834.14,-111.71 843.93,-112.24 853.68,-112.77"/>
<polygon fill="#63b8ff" stroke="#63b8ff" points="853.63,-116.27 863.8,-113.32 854.01,-109.28 853.63,-116.27"/>
</a>
</g>
</g>
<!-- Node17 -->
<g id="Node000017" class="node">
<title>Node17</title>
<g id="a_Node000017"><a xlink:href="classiii__drone_1_1control_1_1maneuver_1_1ManeuverScheduler.html#a6ba3cad1d62a50cc78dc835e44ab1050" target="_top" xlink:title="Evaluates whether a maneuver can be executed given an awareness.">
<polygon fill="white" stroke="#666666" points="1268,-149 1093,-149 1093,-108 1268,-108 1268,-149"/>
<text text-anchor="start" x="1101" y="-137" font-family="Helvetica,sans-Serif" font-size="10.00">iii_drone::control</text>
<text text-anchor="start" x="1101" y="-126" font-family="Helvetica,sans-Serif" font-size="10.00">::maneuver::ManeuverScheduler</text>
<text text-anchor="middle" x="1180.5" y="-115" font-family="Helvetica,sans-Serif" font-size="10.00">::maneuverCanExecute</text>
</a>
</g>
</g>
<!-- Node15&#45;&gt;Node17 -->
<g id="edge19_Node000015_Node000017" class="edge">
<title>Node15&#45;&gt;Node17</title>
<g id="a_edge19_Node000015_Node000017"><a xlink:title=" ">
<path fill="none" stroke="#63b8ff" d="M824.82,-91.65C889.25,-83.04 979.07,-76.1 1057,-88.5 1077.7,-91.79 1099.65,-98.03 1119.17,-104.62"/>
<polygon fill="#63b8ff" stroke="#63b8ff" points="1118.24,-108 1128.83,-107.98 1120.53,-101.39 1118.24,-108"/>
</a>
</g>
</g>
<!-- Node19 -->
<g id="Node000019" class="node">
<title>Node19</title>
<g id="a_Node000019"><a xlink:href="classiii__drone_1_1control_1_1maneuver_1_1ManeuverScheduler.html#ab46a10b4f9d526b6e3c2df89c33f78be" target="_top" xlink:title="Get whether a maneuver is being executed or pending.">
<polygon fill="white" stroke="#666666" points="1049.5,-41 871.5,-41 871.5,0 1049.5,0 1049.5,-41"/>
<text text-anchor="start" x="879.5" y="-29" font-family="Helvetica,sans-Serif" font-size="10.00">iii_drone::control</text>
<text text-anchor="start" x="879.5" y="-18" font-family="Helvetica,sans-Serif" font-size="10.00">::maneuver::ManeuverScheduler</text>
<text text-anchor="middle" x="960.5" y="-7" font-family="Helvetica,sans-Serif" font-size="10.00">::maneuverIsExecutingOrPending</text>
</a>
</g>
</g>
<!-- Node15&#45;&gt;Node19 -->
<g id="edge21_Node000015_Node000019" class="edge">
<title>Node15&#45;&gt;Node19</title>
<g id="a_edge21_Node000015_Node000019"><a xlink:title=" ">
<path fill="none" stroke="#63b8ff" d="M787.82,-85.89C810.92,-76.45 838.79,-65.22 864,-55.5 873.33,-51.9 883.2,-48.19 892.93,-44.58"/>
<polygon fill="#63b8ff" stroke="#63b8ff" points="894.41,-47.76 902.57,-41.01 891.98,-41.19 894.41,-47.76"/>
</a>
</g>
</g>
<!-- Node18 -->
<g id="Node000018" class="node">
<title>Node18</title>
<g id="a_Node000018"><a xlink:href="classiii__drone_1_1control_1_1maneuver_1_1Maneuver.html#a2a1dd737450465c565f5eba36e71ffad" target="_top" xlink:title="Maneuver type getter.">
<polygon fill="white" stroke="#666666" points="1431,-173 1304,-173 1304,-132 1431,-132 1431,-173"/>
<text text-anchor="start" x="1312" y="-161" font-family="Helvetica,sans-Serif" font-size="10.00">iii_drone::control</text>
<text text-anchor="start" x="1312" y="-150" font-family="Helvetica,sans-Serif" font-size="10.00">::maneuver::Maneuver</text>
<text text-anchor="middle" x="1367.5" y="-139" font-family="Helvetica,sans-Serif" font-size="10.00">::maneuver_type</text>
</a>
</g>
</g>
<!-- Node17&#45;&gt;Node18 -->
<g id="edge20_Node000017_Node000018" class="edge">
<title>Node17&#45;&gt;Node18</title>
<g id="a_edge20_Node000017_Node000018"><a xlink:title=" ">
<path fill="none" stroke="#63b8ff" d="M1268.04,-139.73C1276.6,-140.84 1285.23,-141.96 1293.62,-143.05"/>
<polygon fill="#63b8ff" stroke="#63b8ff" points="1293.37,-146.54 1303.74,-144.36 1294.27,-139.6 1293.37,-146.54"/>
</a>
</g>
</g>
<!-- Node20 -->
<g id="Node000020" class="node">
<title>Node20</title>
<g id="a_Node000020"><a xlink:href="classiii__drone_1_1control_1_1maneuver_1_1ManeuverQueue.html#a6ba6788f60421f28a651fcefadf2361d" target="_top" xlink:title="Whether the queue is empty.">
<polygon fill="white" stroke="#666666" points="1259.5,-41 1101.5,-41 1101.5,0 1259.5,0 1259.5,-41"/>
<text text-anchor="start" x="1109.5" y="-29" font-family="Helvetica,sans-Serif" font-size="10.00">iii_drone::control</text>
<text text-anchor="start" x="1109.5" y="-18" font-family="Helvetica,sans-Serif" font-size="10.00">::maneuver::ManeuverQueue</text>
<text text-anchor="middle" x="1180.5" y="-7" font-family="Helvetica,sans-Serif" font-size="10.00">::empty</text>
</a>
</g>
</g>
<!-- Node19&#45;&gt;Node20 -->
<g id="edge22_Node000019_Node000020" class="edge">
<title>Node19&#45;&gt;Node20</title>
<g id="a_edge22_Node000019_Node000020"><a xlink:title=" ">
<path fill="none" stroke="#63b8ff" d="M1049.54,-20.5C1063.19,-20.5 1077.3,-20.5 1090.97,-20.5"/>
<polygon fill="#63b8ff" stroke="#63b8ff" points="1091.32,-24 1101.32,-20.5 1091.32,-17 1091.32,-24"/>
</a>
</g>
</g>
<!-- Node22 -->
<g id="Node000022" class="node">
<title>Node22</title>
<g id="a_Node000022"><a xlink:href="classiii__drone_1_1control_1_1maneuver_1_1ManeuverScheduler.html#a506aad4bb58475a1f64148aec17c570f" target="_top" xlink:title="Returns the expected combined drone awareness upon completion or failure of given maneuver type,...">
<polygon fill="white" stroke="#666666" points="824.5,-210 649.5,-210 649.5,-169 824.5,-169 824.5,-210"/>
<text text-anchor="start" x="657.5" y="-198" font-family="Helvetica,sans-Serif" font-size="10.00">iii_drone::control</text>
<text text-anchor="start" x="657.5" y="-187" font-family="Helvetica,sans-Serif" font-size="10.00">::maneuver::ManeuverScheduler</text>
<text text-anchor="middle" x="737" y="-176" font-family="Helvetica,sans-Serif" font-size="10.00">::ProjectExpectedAwarenessFull</text>
</a>
</g>
</g>
<!-- Node21&#45;&gt;Node22 -->
<g id="edge24_Node000021_Node000022" class="edge">
<title>Node21&#45;&gt;Node22</title>
<g id="a_edge24_Node000021_Node000022"><a xlink:title=" ">
<path fill="none" stroke="#63b8ff" d="M603.55,-189.5C615.21,-189.5 627.22,-189.5 639.04,-189.5"/>
<polygon fill="#63b8ff" stroke="#63b8ff" points="639.36,-193 649.36,-189.5 639.36,-186 639.36,-193"/>
</a>
</g>
</g>
<!-- Node22&#45;&gt;Node16 -->
<g id="edge25_Node000022_Node000016" class="edge">
<title>Node22&#45;&gt;Node16</title>
<g id="a_edge25_Node000022_Node000016"><a xlink:title=" ">
<path fill="none" stroke="#63b8ff" d="M800.77,-168.94C820.94,-162.36 843.4,-155.09 864,-148.5 870.45,-146.44 877.15,-144.31 883.87,-142.18"/>
<polygon fill="#63b8ff" stroke="#63b8ff" points="885.23,-145.42 893.71,-139.07 883.12,-138.74 885.23,-145.42"/>
</a>
</g>
</g>
<!-- Node23 -->
<g id="Node000023" class="node">
<title>Node23</title>
<g id="a_Node000023"><a xlink:href="classiii__drone_1_1control_1_1maneuver_1_1ManeuverScheduler.html#a6bfc890dd85039701532c5251b2a20a5" target="_top" xlink:title="Get copy of the currently executing maneuver. The currently executing maneuver is of type MANEUVER_TY...">
<polygon fill="white" stroke="#666666" points="1048,-365 873,-365 873,-324 1048,-324 1048,-365"/>
<text text-anchor="start" x="881" y="-353" font-family="Helvetica,sans-Serif" font-size="10.00">iii_drone::control</text>
<text text-anchor="start" x="881" y="-342" font-family="Helvetica,sans-Serif" font-size="10.00">::maneuver::ManeuverScheduler</text>
<text text-anchor="middle" x="960.5" y="-331" font-family="Helvetica,sans-Serif" font-size="10.00">::current_maneuver</text>
</a>
</g>
</g>
<!-- Node22&#45;&gt;Node23 -->
<g id="edge26_Node000022_Node000023" class="edge">
<title>Node22&#45;&gt;Node23</title>
<g id="a_edge26_Node000022_Node000023"><a xlink:title=" ">
<path fill="none" stroke="#63b8ff" d="M815.83,-210.09C820.21,-212.84 824.32,-215.96 828,-219.5 860.57,-250.77 831.16,-283.51 864,-314.5 865.15,-315.58 866.33,-316.62 867.55,-317.63"/>
<polygon fill="#63b8ff" stroke="#63b8ff" points="865.88,-320.74 876.04,-323.73 869.96,-315.05 865.88,-320.74"/>
</a>
</g>
</g>
<!-- Node24 -->
<g id="Node000024" class="node">
<title>Node24</title>
<g id="a_Node000024"><a xlink:href="classiii__drone_1_1utils_1_1Atomic.html#a9f8422d86cdbb429f29c6e16c61631ee" target="_top" xlink:title="Get the value.">
<polygon fill="white" stroke="#666666" points="1023.5,-305.5 897.5,-305.5 897.5,-275.5 1023.5,-275.5 1023.5,-305.5"/>
<text text-anchor="start" x="905.5" y="-293.5" font-family="Helvetica,sans-Serif" font-size="10.00">iii_drone::utils::Atomic</text>
<text text-anchor="middle" x="960.5" y="-282.5" font-family="Helvetica,sans-Serif" font-size="10.00">::Load</text>
</a>
</g>
</g>
<!-- Node22&#45;&gt;Node24 -->
<g id="edge27_Node000022_Node000024" class="edge">
<title>Node22&#45;&gt;Node24</title>
<g id="a_edge27_Node000022_Node000024"><a xlink:title=" ">
<path fill="none" stroke="#63b8ff" d="M812.01,-210.03C817.63,-212.82 823.04,-215.96 828,-219.5 849.42,-234.78 842.01,-252.04 864,-266.5 871.26,-271.28 879.41,-275.1 887.8,-278.17"/>
<polygon fill="#63b8ff" stroke="#63b8ff" points="886.76,-281.51 897.35,-281.31 888.95,-274.86 886.76,-281.51"/>
</a>
</g>
</g>
<!-- Node25 -->
<g id="Node000025" class="node">
<title>Node25</title>
<g id="a_Node000025"><a xlink:href="classiii__drone_1_1control_1_1maneuver_1_1ManeuverScheduler.html#a5c5c0d6419c85f15414b71453a47f69c" target="_top" xlink:title="Returns the expected combined drone awareness upon completion or failure of given maneuver type,...">
<polygon fill="white" stroke="#666666" points="1053,-198 868,-198 868,-157 1053,-157 1053,-198"/>
<text text-anchor="start" x="876" y="-186" font-family="Helvetica,sans-Serif" font-size="10.00">iii_drone::control</text>
<text text-anchor="start" x="876" y="-175" font-family="Helvetica,sans-Serif" font-size="10.00">::maneuver::ManeuverScheduler</text>
<text text-anchor="middle" x="960.5" y="-164" font-family="Helvetica,sans-Serif" font-size="10.00">::ProjectExpectedAwarenessSingle</text>
</a>
</g>
</g>
<!-- Node22&#45;&gt;Node25 -->
<g id="edge28_Node000022_Node000025" class="edge">
<title>Node22&#45;&gt;Node25</title>
<g id="a_edge28_Node000022_Node000025"><a xlink:title=" ">
<path fill="none" stroke="#63b8ff" d="M824.59,-184.81C835.46,-184.22 846.65,-183.61 857.73,-183.01"/>
<polygon fill="#63b8ff" stroke="#63b8ff" points="858.06,-186.5 867.85,-182.47 857.68,-179.51 858.06,-186.5"/>
</a>
</g>
</g>
<!-- Node26 -->
<g id="Node000026" class="node">
<title>Node26</title>
<g id="a_Node000026"><a xlink:href="classiii__drone_1_1control_1_1maneuver_1_1ManeuverQueue.html#a5a6e60809fc0dcfcf8b86f10ae3fd3e9" target="_top" xlink:title="Gets the vector of maneuvers in the queue.">
<polygon fill="white" stroke="#666666" points="1039.5,-257 881.5,-257 881.5,-216 1039.5,-216 1039.5,-257"/>
<text text-anchor="start" x="889.5" y="-245" font-family="Helvetica,sans-Serif" font-size="10.00">iii_drone::control</text>
<text text-anchor="start" x="889.5" y="-234" font-family="Helvetica,sans-Serif" font-size="10.00">::maneuver::ManeuverQueue</text>
<text text-anchor="middle" x="960.5" y="-223" font-family="Helvetica,sans-Serif" font-size="10.00">::vector</text>
</a>
</g>
</g>
<!-- Node22&#45;&gt;Node26 -->
<g id="edge31_Node000022_Node000026" class="edge">
<title>Node22&#45;&gt;Node26</title>
<g id="a_edge31_Node000022_Node000026"><a xlink:title=" ">
<path fill="none" stroke="#63b8ff" d="M824.59,-207.87C839.92,-211.13 855.89,-214.52 871.27,-217.78"/>
<polygon fill="#63b8ff" stroke="#63b8ff" points="870.76,-221.25 881.27,-219.9 872.21,-214.4 870.76,-221.25"/>
</a>
</g>
</g>
<!-- Node25&#45;&gt;Node17 -->
<g id="edge30_Node000025_Node000017" class="edge">
<title>Node25&#45;&gt;Node17</title>
<g id="a_edge30_Node000025_Node000017"><a xlink:title=" ">
<path fill="none" stroke="#63b8ff" d="M1053,-156.93C1062.88,-154.71 1072.95,-152.45 1082.88,-150.22"/>
<polygon fill="#63b8ff" stroke="#63b8ff" points="1083.77,-153.6 1092.76,-148 1082.23,-146.78 1083.77,-153.6"/>
</a>
</g>
</g>
<!-- Node25&#45;&gt;Node18 -->
<g id="edge29_Node000025_Node000018" class="edge">
<title>Node25&#45;&gt;Node18</title>
<g id="a_edge29_Node000025_Node000018"><a xlink:title=" ">
<path fill="none" stroke="#63b8ff" d="M1053.15,-171.84C1125.95,-167.35 1226.37,-161.15 1293.73,-156.99"/>
<polygon fill="#63b8ff" stroke="#63b8ff" points="1294.07,-160.48 1303.83,-156.37 1293.64,-153.49 1294.07,-160.48"/>
</a>
</g>
</g>
<!-- Node28&#45;&gt;Node4 -->
<g id="edge39_Node000028_Node000004" class="edge">
<title>Node28&#45;&gt;Node4</title>
<g id="a_edge39_Node000028_Node000004"><a xlink:title=" ">
<path fill="none" stroke="#63b8ff" d="M327.51,-545.27C351.6,-562.39 387.78,-586.41 422,-602.5 426.28,-604.51 430.74,-606.45 435.28,-608.29"/>
<polygon fill="#63b8ff" stroke="#63b8ff" points="434.09,-611.58 444.68,-611.95 436.63,-605.06 434.09,-611.58"/>
</a>
</g>
</g>
<!-- Node28&#45;&gt;Node6 -->
<g id="edge40_Node000028_Node000006" class="edge">
<title>Node28&#45;&gt;Node6</title>
<g id="a_edge40_Node000028_Node000006"><a xlink:title=" ">
<path fill="none" stroke="#63b8ff" d="M331.21,-503.91C349.21,-490.92 371.06,-472.8 386,-452.5 410.8,-418.8 387.21,-388.75 422,-365.5 497.01,-315.36 750.61,-319.12 828,-365.5 909.82,-414.54 943.59,-533.77 954.8,-586.13"/>
<polygon fill="#63b8ff" stroke="#63b8ff" points="951.44,-587.14 956.86,-596.24 958.3,-585.74 951.44,-587.14"/>
</a>
</g>
</g>
<!-- Node28&#45;&gt;Node9 -->
<g id="edge35_Node000028_Node000009" class="edge">
<title>Node28&#45;&gt;Node9</title>
<g id="a_edge35_Node000028_Node000009"><a xlink:title=" ">
<path fill="none" stroke="#63b8ff" d="M381.59,-545.07C402.54,-550.32 424.87,-555.92 445.15,-561"/>
<polygon fill="#63b8ff" stroke="#63b8ff" points="444.37,-564.41 454.92,-563.45 446.07,-557.62 444.37,-564.41"/>
</a>
</g>
</g>
<!-- Node29 -->
<g id="Node000029" class="node">
<title>Node29</title>
<g id="a_Node000029"><a xlink:href="classiii__drone_1_1control_1_1maneuver_1_1Maneuver.html#a562b9288530756542998d6454984c5ba" target="_top" xlink:title="Creation time getter.">
<polygon fill="white" stroke="#666666" points="579.5,-545 452.5,-545 452.5,-504 579.5,-504 579.5,-545"/>
<text text-anchor="start" x="460.5" y="-533" font-family="Helvetica,sans-Serif" font-size="10.00">iii_drone::control</text>
<text text-anchor="start" x="460.5" y="-522" font-family="Helvetica,sans-Serif" font-size="10.00">::maneuver::Maneuver</text>
<text text-anchor="middle" x="516" y="-511" font-family="Helvetica,sans-Serif" font-size="10.00">::creation_time</text>
</a>
</g>
</g>
<!-- Node28&#45;&gt;Node29 -->
<g id="edge34_Node000028_Node000029" class="edge">
<title>Node28&#45;&gt;Node29</title>
<g id="a_edge34_Node000028_Node000029"><a xlink:title=" ">
<path fill="none" stroke="#63b8ff" d="M386.22,-524.5C404.79,-524.5 424.22,-524.5 442.19,-524.5"/>
<polygon fill="#63b8ff" stroke="#63b8ff" points="442.3,-528 452.3,-524.5 442.3,-521 442.3,-528"/>
</a>
</g>
</g>
<!-- Node30 -->
<g id="Node000030" class="node">
<title>Node30</title>
<g id="a_Node000030"><a xlink:href="classiii__drone_1_1control_1_1maneuver_1_1ManeuverSchedulerParameters.html#ac43259193c169d7b3016c82de5083e69" target="_top" xlink:title="Get the timeout duration for updating a maneuver after registering.">
<polygon fill="white" stroke="#666666" points="603.5,-485.5 428.5,-485.5 428.5,-433.5 603.5,-433.5 603.5,-485.5"/>
<text text-anchor="start" x="436.5" y="-473.5" font-family="Helvetica,sans-Serif" font-size="10.00">iii_drone::control</text>
<text text-anchor="start" x="436.5" y="-462.5" font-family="Helvetica,sans-Serif" font-size="10.00">::maneuver::ManeuverScheduler</text>
<text text-anchor="start" x="436.5" y="-451.5" font-family="Helvetica,sans-Serif" font-size="10.00">Parameters::maneuver_register</text>
<text text-anchor="middle" x="516" y="-440.5" font-family="Helvetica,sans-Serif" font-size="10.00">_update_timeout_s</text>
</a>
</g>
</g>
<!-- Node28&#45;&gt;Node30 -->
<g id="edge36_Node000028_Node000030" class="edge">
<title>Node28&#45;&gt;Node30</title>
<g id="a_edge36_Node000028_Node000030"><a xlink:title=" ">
<path fill="none" stroke="#63b8ff" d="M367.69,-503.93C383.87,-499.05 401.44,-493.75 418.61,-488.57"/>
<polygon fill="#63b8ff" stroke="#63b8ff" points="420.1,-491.78 428.67,-485.54 418.08,-485.08 420.1,-491.78"/>
</a>
</g>
</g>
<!-- Node31 -->
<g id="Node000031" class="node">
<title>Node31</title>
<g id="a_Node000031"><a xlink:href="classiii__drone_1_1control_1_1maneuver_1_1Maneuver.html#a26a96a488c05107e53e5deecd20226e7" target="_top" xlink:title="Indicate that the maneuver has terminated. Will delete the goal handle pointer.">
<polygon fill="white" stroke="#666666" points="579.5,-415 452.5,-415 452.5,-374 579.5,-374 579.5,-415"/>
<text text-anchor="start" x="460.5" y="-403" font-family="Helvetica,sans-Serif" font-size="10.00">iii_drone::control</text>
<text text-anchor="start" x="460.5" y="-392" font-family="Helvetica,sans-Serif" font-size="10.00">::maneuver::Maneuver</text>
<text text-anchor="middle" x="516" y="-381" font-family="Helvetica,sans-Serif" font-size="10.00">::Terminate</text>
</a>
</g>
</g>
<!-- Node28&#45;&gt;Node31 -->
<g id="edge37_Node000028_Node000031" class="edge">
<title>Node28&#45;&gt;Node31</title>
<g id="a_edge37_Node000028_Node000031"><a xlink:title=" ">
<path fill="none" stroke="#63b8ff" d="M324.33,-503.84C358.54,-475.42 416.59,-427.44 422,-424.5 428.45,-420.99 435.39,-417.81 442.45,-414.94"/>
<polygon fill="#63b8ff" stroke="#63b8ff" points="444.05,-418.08 452.13,-411.23 441.54,-411.54 444.05,-418.08"/>
</a>
</g>
</g>
<!-- Node32 -->
<g id="Node000032" class="node">
<title>Node32</title>
<g id="a_Node000032"><a xlink:href="classiii__drone_1_1control_1_1maneuver_1_1Maneuver.html#a8788992c198b7547518561a5ab184406" target="_top" xlink:title="Getter for the success flag.">
<polygon fill="white" stroke="#666666" points="800.5,-415 673.5,-415 673.5,-374 800.5,-374 800.5,-415"/>
<text text-anchor="start" x="681.5" y="-403" font-family="Helvetica,sans-Serif" font-size="10.00">iii_drone::control</text>
<text text-anchor="start" x="681.5" y="-392" font-family="Helvetica,sans-Serif" font-size="10.00">::maneuver::Maneuver</text>
<text text-anchor="middle" x="737" y="-381" font-family="Helvetica,sans-Serif" font-size="10.00">::success</text>
</a>
</g>
</g>
<!-- Node31&#45;&gt;Node32 -->
<g id="edge38_Node000031_Node000032" class="edge">
<title>Node31&#45;&gt;Node32</title>
<g id="a_edge38_Node000031_Node000032"><a xlink:title=" ">
<path fill="none" stroke="#63b8ff" d="M579.76,-394.5C605.76,-394.5 636.09,-394.5 663.07,-394.5"/>
<polygon fill="#63b8ff" stroke="#63b8ff" points="663.23,-398 673.23,-394.5 663.23,-391 663.23,-398"/>
</a>
</g>
</g>
</g>
</svg>
