<?xml version="1.0" encoding="UTF-8" standalone="no"?>
<!DOCTYPE svg PUBLIC "-//W3C//DTD SVG 1.1//EN"
 "http://www.w3.org/Graphics/SVG/1.1/DTD/svg11.dtd">
<!-- Generated by graphviz version 2.43.0 (0)
 -->
<!-- Title: iii_drone::adapters::PowerlineAdapter::ToMsg Pages: 1 -->
<svg width="799pt" height="62pt"
 viewBox="0.00 0.00 799.00 61.50" xmlns="http://www.w3.org/2000/svg" xmlns:xlink="http://www.w3.org/1999/xlink">
<g id="graph0" class="graph" transform="scale(1 1) rotate(0) translate(4 57.5)">
<title>iii_drone::adapters::PowerlineAdapter::ToMsg</title>
<!-- Node1 -->
<g id="Node000001" class="node">
<title>Node1</title>
<g id="a_Node000001"><a xlink:title="Converts the powerline adapter object to a message.">
<polygon fill="#999999" stroke="#666666" points="791,-35.5 645,-35.5 645,-5.5 791,-5.5 791,-35.5"/>
<text text-anchor="start" x="653" y="-23.5" font-family="Helvetica,sans-Serif" font-size="10.00">iii_drone::adapters</text>
<text text-anchor="middle" x="718" y="-12.5" font-family="Helvetica,sans-Serif" font-size="10.00">::PowerlineAdapter::ToMsg</text>
</a>
</g>
</g>
<!-- Node1&#45;&gt;Node1 -->
<g id="edge4_Node000001_Node000001" class="edge">
<title>Node1&#45;&gt;Node1</title>
<g id="a_edge4_Node000001_Node000001"><a xlink:title=" ">
<path fill="none" stroke="#63b8ff" d="M751.61,-46.1C747.01,-50.47 735.81,-53.5 718,-53.5 688,-53.5 676.75,-44.91 684.25,-35.78"/>
<polygon fill="#63b8ff" stroke="#63b8ff" points="755.11,-45.82 751.75,-35.78 748.11,-45.73 755.11,-45.82"/>
</a>
</g>
</g>
<!-- Node2 -->
<g id="Node000002" class="node">
<title>Node2</title>
<g id="a_Node000002"><a xlink:href="classiii__drone_1_1perception_1_1pl__mapper__node_1_1PowerlineMapperNode.html#ae63deed15fc864af363d4a3b3ef76ae1" target="_top" xlink:title="Publishes the powerline message.">
<polygon fill="white" stroke="#666666" points="609,-41 441,-41 441,0 609,0 609,-41"/>
<text text-anchor="start" x="449" y="-29" font-family="Helvetica,sans-Serif" font-size="10.00">iii_drone::perception</text>
<text text-anchor="start" x="449" y="-18" font-family="Helvetica,sans-Serif" font-size="10.00">::pl_mapper_node::Powerline</text>
<text text-anchor="middle" x="525" y="-7" font-family="Helvetica,sans-Serif" font-size="10.00">MapperNode::publishPowerline</text>
</a>
</g>
</g>
<!-- Node1&#45;&gt;Node2 -->
<g id="edge1_Node000001_Node000002" class="edge">
<title>Node1&#45;&gt;Node2</title>
<g id="a_edge1_Node000001_Node000002"><a xlink:title=" ">
<path fill="none" stroke="#63b8ff" d="M634.61,-20.5C626.19,-20.5 617.63,-20.5 609.21,-20.5"/>
<polygon fill="#63b8ff" stroke="#63b8ff" points="634.79,-24 644.79,-20.5 634.79,-17 634.79,-24"/>
</a>
</g>
</g>
<!-- Node3 -->
<g id="Node000003" class="node">
<title>Node3</title>
<g id="a_Node000003"><a xlink:href="classiii__drone_1_1perception_1_1pl__mapper__node_1_1PowerlineMapperNode.html#ae98c3a40fb32f1305c1528467205ba33" target="_top" xlink:title="Callback for fetching drone transform.">
<polygon fill="white" stroke="#666666" points="405,-41 231,-41 231,0 405,0 405,-41"/>
<text text-anchor="start" x="239" y="-29" font-family="Helvetica,sans-Serif" font-size="10.00">iii_drone::perception</text>
<text text-anchor="start" x="239" y="-18" font-family="Helvetica,sans-Serif" font-size="10.00">::pl_mapper_node::Powerline</text>
<text text-anchor="middle" x="318" y="-7" font-family="Helvetica,sans-Serif" font-size="10.00">MapperNode::odometryCallback</text>
</a>
</g>
</g>
<!-- Node2&#45;&gt;Node3 -->
<g id="edge2_Node000002_Node000003" class="edge">
<title>Node2&#45;&gt;Node3</title>
<g id="a_edge2_Node000002_Node000003"><a xlink:title=" ">
<path fill="none" stroke="#63b8ff" d="M430.64,-20.5C422.17,-20.5 413.61,-20.5 405.21,-20.5"/>
<polygon fill="#63b8ff" stroke="#63b8ff" points="430.91,-24 440.91,-20.5 430.91,-17 430.91,-24"/>
</a>
</g>
</g>
<!-- Node4 -->
<g id="Node000004" class="node">
<title>Node4</title>
<g id="a_Node000004"><a xlink:href="classiii__drone_1_1perception_1_1pl__mapper__node_1_1PowerlineMapperNode.html#a703ae72ba683ae11154ce597b8bbad9d" target="_top" xlink:title="Constructor.">
<polygon fill="white" stroke="#666666" points="195,-41 0,-41 0,0 195,0 195,-41"/>
<text text-anchor="start" x="8" y="-29" font-family="Helvetica,sans-Serif" font-size="10.00">iii_drone::perception</text>
<text text-anchor="start" x="8" y="-18" font-family="Helvetica,sans-Serif" font-size="10.00">::pl_mapper_node::Powerline</text>
<text text-anchor="middle" x="97.5" y="-7" font-family="Helvetica,sans-Serif" font-size="10.00">MapperNode::PowerlineMapperNode</text>
</a>
</g>
</g>
<!-- Node3&#45;&gt;Node4 -->
<g id="edge3_Node000003_Node000004" class="edge">
<title>Node3&#45;&gt;Node4</title>
<g id="a_edge3_Node000003_Node000004"><a xlink:title=" ">
<path fill="none" stroke="#63b8ff" d="M220.73,-20.5C212.29,-20.5 203.74,-20.5 195.3,-20.5"/>
<polygon fill="#63b8ff" stroke="#63b8ff" points="220.96,-24 230.96,-20.5 220.96,-17 220.96,-24"/>
</a>
</g>
</g>
</g>
</svg>
