<?xml version="1.0" encoding="UTF-8" standalone="no"?>
<!DOCTYPE svg PUBLIC "-//W3C//DTD SVG 1.1//EN"
 "http://www.w3.org/Graphics/SVG/1.1/DTD/svg11.dtd">
<!-- Generated by graphviz version 2.43.0 (0)
 -->
<!-- Title: iii_drone::control::maneuver::Maneuver::uuid Pages: 1 -->
<svg width="1443pt" height="155pt"
 viewBox="0.00 0.00 1443.00 155.10" xmlns="http://www.w3.org/2000/svg" xmlns:xlink="http://www.w3.org/1999/xlink">
<g id="graph0" class="graph" transform="scale(1 1) rotate(0) translate(4 151.1)">
<title>iii_drone::control::maneuver::Maneuver::uuid</title>
<!-- Node1 -->
<g id="Node000001" class="node">
<title>Node1</title>
<g id="a_Node000001"><a xlink:title="UUID getter.">
<polygon fill="#999999" stroke="#666666" points="1435,-118.5 1281,-118.5 1281,-88.5 1435,-88.5 1435,-118.5"/>
<text text-anchor="start" x="1289" y="-106.5" font-family="Helvetica,sans-Serif" font-size="10.00">iii_drone::control</text>
<text text-anchor="middle" x="1358" y="-95.5" font-family="Helvetica,sans-Serif" font-size="10.00">::maneuver::Maneuver::uuid</text>
</a>
</g>
</g>
<!-- Node2 -->
<g id="Node000002" class="node">
<title>Node2</title>
<g id="a_Node000002"><a xlink:href="classiii__drone_1_1control_1_1maneuver_1_1ManeuverQueue.html#a5d1aebf4c43998899389737a1b50b6a7" target="_top" xlink:title="Finds a maneuver in the queue by its UUID.">
<polygon fill="white" stroke="#666666" points="1245,-97.5 1063,-97.5 1063,-67.5 1245,-67.5 1245,-97.5"/>
<text text-anchor="start" x="1071" y="-85.5" font-family="Helvetica,sans-Serif" font-size="10.00">iii_drone::control</text>
<text text-anchor="middle" x="1154" y="-74.5" font-family="Helvetica,sans-Serif" font-size="10.00">::maneuver::ManeuverQueue::find</text>
</a>
</g>
</g>
<!-- Node1&#45;&gt;Node2 -->
<g id="edge1_Node000001_Node000002" class="edge">
<title>Node1&#45;&gt;Node2</title>
<g id="a_edge1_Node000001_Node000002"><a xlink:title=" ">
<path fill="none" stroke="#63b8ff" d="M1270.73,-94.53C1262.31,-93.66 1253.75,-92.77 1245.29,-91.89"/>
<polygon fill="#63b8ff" stroke="#63b8ff" points="1270.61,-98.04 1280.92,-95.59 1271.34,-91.08 1270.61,-98.04"/>
</a>
</g>
</g>
<!-- Node4 -->
<g id="Node000004" class="node">
<title>Node4</title>
<g id="a_Node000004"><a xlink:href="classiii__drone_1_1control_1_1maneuver_1_1ManeuverScheduler.html#ab393b4204a5c4368ee503e9af8b27a22" target="_top" xlink:title="Registers a maneuver type with a maneuver server.">
<polygon fill="white" stroke="#666666" points="595,-124 420,-124 420,-83 595,-83 595,-124"/>
<text text-anchor="start" x="428" y="-112" font-family="Helvetica,sans-Serif" font-size="10.00">iii_drone::control</text>
<text text-anchor="start" x="428" y="-101" font-family="Helvetica,sans-Serif" font-size="10.00">::maneuver::ManeuverScheduler</text>
<text text-anchor="middle" x="507.5" y="-90" font-family="Helvetica,sans-Serif" font-size="10.00">::RegisterManeuverServer</text>
</a>
</g>
</g>
<!-- Node1&#45;&gt;Node4 -->
<g id="edge12_Node000001_Node000004" class="edge">
<title>Node1&#45;&gt;Node4</title>
<g id="a_edge12_Node000001_Node000004"><a xlink:title=" ">
<path fill="none" stroke="#63b8ff" d="M1287.95,-120.68C1273.83,-123.52 1259,-126.02 1245,-127.5 973.63,-156.25 902.76,-150.36 631,-125.5 619.38,-124.44 607.21,-122.84 595.24,-120.99"/>
<polygon fill="#63b8ff" stroke="#63b8ff" points="1289.02,-124.03 1298.09,-118.56 1287.58,-117.18 1289.02,-124.03"/>
</a>
</g>
</g>
<!-- Node7 -->
<g id="Node000007" class="node">
<title>Node7</title>
<g id="a_Node000007"><a xlink:href="classiii__drone_1_1control_1_1maneuver_1_1ManeuverScheduler.html#a0c01b257aa516fb896fdc59e91304540" target="_top" xlink:title="Updates a maneuver entry which has been registered with the correct goal handle after the maneuver ha...">
<polygon fill="white" stroke="#666666" points="806,-100 631,-100 631,-59 806,-59 806,-100"/>
<text text-anchor="start" x="639" y="-88" font-family="Helvetica,sans-Serif" font-size="10.00">iii_drone::control</text>
<text text-anchor="start" x="639" y="-77" font-family="Helvetica,sans-Serif" font-size="10.00">::maneuver::ManeuverScheduler</text>
<text text-anchor="middle" x="718.5" y="-66" font-family="Helvetica,sans-Serif" font-size="10.00">::UpdateManeuver</text>
</a>
</g>
</g>
<!-- Node1&#45;&gt;Node7 -->
<g id="edge14_Node000001_Node000007" class="edge">
<title>Node1&#45;&gt;Node7</title>
<g id="a_edge14_Node000001_Node000007"><a xlink:title=" ">
<path fill="none" stroke="#63b8ff" d="M1270.81,-109.99C1168.28,-116.32 992.11,-122.85 842,-106.5 828.69,-105.05 814.7,-102.74 801.13,-100.06"/>
<polygon fill="#63b8ff" stroke="#63b8ff" points="1271.05,-113.48 1280.81,-109.35 1270.6,-106.49 1271.05,-113.48"/>
</a>
</g>
</g>
<!-- Node8 -->
<g id="Node000008" class="node">
<title>Node8</title>
<g id="a_Node000008"><a xlink:href="classiii__drone_1_1control_1_1maneuver_1_1ManeuverQueue.html#ad3db1eaff352424f72c3ee535b7fd522" target="_top" xlink:title="Updates a maneuver in the queue. Replace the first occurrence of the maneuver.">
<polygon fill="white" stroke="#666666" points="1013.5,-49 855.5,-49 855.5,-8 1013.5,-8 1013.5,-49"/>
<text text-anchor="start" x="863.5" y="-37" font-family="Helvetica,sans-Serif" font-size="10.00">iii_drone::control</text>
<text text-anchor="start" x="863.5" y="-26" font-family="Helvetica,sans-Serif" font-size="10.00">::maneuver::ManeuverQueue</text>
<text text-anchor="middle" x="934.5" y="-15" font-family="Helvetica,sans-Serif" font-size="10.00">::Update</text>
</a>
</g>
</g>
<!-- Node1&#45;&gt;Node8 -->
<g id="edge13_Node000001_Node000008" class="edge">
<title>Node1&#45;&gt;Node8</title>
<g id="a_edge13_Node000001_Node000008"><a xlink:title=" ">
<path fill="none" stroke="#63b8ff" d="M1317.17,-84.26C1296.18,-74.96 1269.72,-64.53 1245,-58.5 1167.77,-39.66 1076.99,-32.56 1013.8,-29.94"/>
<polygon fill="#63b8ff" stroke="#63b8ff" points="1315.85,-87.51 1326.41,-88.44 1318.74,-81.13 1315.85,-87.51"/>
</a>
</g>
</g>
<!-- Node3 -->
<g id="Node000003" class="node">
<title>Node3</title>
<g id="a_Node000003"><a xlink:href="classiii__drone_1_1control_1_1maneuver_1_1ManeuverQueue.html#a76acc1a7540ee1b506f7b72607b4081f" target="_top" xlink:title="Finds a maneuver from UUID.">
<polygon fill="white" stroke="#666666" points="1027,-97.5 842,-97.5 842,-67.5 1027,-67.5 1027,-97.5"/>
<text text-anchor="start" x="850" y="-85.5" font-family="Helvetica,sans-Serif" font-size="10.00">iii_drone::control</text>
<text text-anchor="middle" x="934.5" y="-74.5" font-family="Helvetica,sans-Serif" font-size="10.00">::maneuver::ManeuverQueue::Find</text>
</a>
</g>
</g>
<!-- Node2&#45;&gt;Node3 -->
<g id="edge2_Node000002_Node000003" class="edge">
<title>Node2&#45;&gt;Node3</title>
<g id="a_edge2_Node000002_Node000003"><a xlink:title=" ">
<path fill="none" stroke="#63b8ff" d="M1052.95,-82.5C1044.37,-82.5 1035.73,-82.5 1027.22,-82.5"/>
<polygon fill="#63b8ff" stroke="#63b8ff" points="1052.96,-86 1062.96,-82.5 1052.96,-79 1052.96,-86"/>
</a>
</g>
</g>
<!-- Node2&#45;&gt;Node8 -->
<g id="edge8_Node000002_Node000008" class="edge">
<title>Node2&#45;&gt;Node8</title>
<g id="a_edge8_Node000002_Node000008"><a xlink:title=" ">
<path fill="none" stroke="#63b8ff" d="M1082.5,-65C1060.52,-59.54 1036.15,-53.49 1013.68,-47.91"/>
<polygon fill="#63b8ff" stroke="#63b8ff" points="1081.87,-68.45 1092.41,-67.46 1083.55,-61.65 1081.87,-68.45"/>
</a>
</g>
</g>
<!-- Node3&#45;&gt;Node4 -->
<g id="edge3_Node000003_Node000004" class="edge">
<title>Node3&#45;&gt;Node4</title>
<g id="a_edge3_Node000003_Node000004"><a xlink:title=" ">
<path fill="none" stroke="#63b8ff" d="M862.59,-99.59C844.26,-103.28 824.49,-106.63 806,-108.5 735.33,-115.63 654.75,-113.66 595.29,-110.31"/>
<polygon fill="#63b8ff" stroke="#63b8ff" points="863.52,-102.97 872.6,-97.52 862.1,-96.12 863.52,-102.97"/>
</a>
</g>
</g>
<!-- Node3&#45;&gt;Node7 -->
<g id="edge6_Node000003_Node000007" class="edge">
<title>Node3&#45;&gt;Node7</title>
<g id="a_edge6_Node000003_Node000007"><a xlink:title=" ">
<path fill="none" stroke="#63b8ff" d="M831.81,-81.07C823.26,-80.95 814.67,-80.83 806.25,-80.72"/>
<polygon fill="#63b8ff" stroke="#63b8ff" points="831.77,-84.57 841.81,-81.21 831.86,-77.57 831.77,-84.57"/>
</a>
</g>
</g>
<!-- Node5 -->
<g id="Node000005" class="node">
<title>Node5</title>
<g id="a_Node000005"><a xlink:href="classiii__drone_1_1control_1_1maneuver__controller__node_1_1ManeuverControllerNode.html#a1c587895df3c61bd6b748e97942cd619" target="_top" xlink:title="Creates and registers all maneuver servers with the maneuver scheduler.">
<polygon fill="white" stroke="#666666" points="384,-129.5 210,-129.5 210,-77.5 384,-77.5 384,-129.5"/>
<text text-anchor="start" x="218" y="-117.5" font-family="Helvetica,sans-Serif" font-size="10.00">iii_drone::control</text>
<text text-anchor="start" x="218" y="-106.5" font-family="Helvetica,sans-Serif" font-size="10.00">::maneuver_controller</text>
<text text-anchor="start" x="218" y="-95.5" font-family="Helvetica,sans-Serif" font-size="10.00">_node::ManeuverControllerNode</text>
<text text-anchor="middle" x="297" y="-84.5" font-family="Helvetica,sans-Serif" font-size="10.00">::registerManeuverServers</text>
</a>
</g>
</g>
<!-- Node4&#45;&gt;Node5 -->
<g id="edge4_Node000004_Node000005" class="edge">
<title>Node4&#45;&gt;Node5</title>
<g id="a_edge4_Node000004_Node000005"><a xlink:title=" ">
<path fill="none" stroke="#63b8ff" d="M409.82,-103.5C401.21,-103.5 392.52,-103.5 384.01,-103.5"/>
<polygon fill="#63b8ff" stroke="#63b8ff" points="409.89,-107 419.89,-103.5 409.89,-100 409.89,-107"/>
</a>
</g>
</g>
<!-- Node6 -->
<g id="Node000006" class="node">
<title>Node6</title>
<g id="a_Node000006"><a xlink:href="classiii__drone_1_1control_1_1maneuver__controller__node_1_1ManeuverControllerNode.html#a291f0abf320443ed6ad4a248ba028b8c" target="_top" xlink:title="Constructor. Creates the node, initializes the configurator, the transform buffer and listener,...">
<polygon fill="white" stroke="#666666" points="174,-129.5 0,-129.5 0,-77.5 174,-77.5 174,-129.5"/>
<text text-anchor="start" x="8" y="-117.5" font-family="Helvetica,sans-Serif" font-size="10.00">iii_drone::control</text>
<text text-anchor="start" x="8" y="-106.5" font-family="Helvetica,sans-Serif" font-size="10.00">::maneuver_controller</text>
<text text-anchor="start" x="8" y="-95.5" font-family="Helvetica,sans-Serif" font-size="10.00">_node::ManeuverControllerNode</text>
<text text-anchor="middle" x="87" y="-84.5" font-family="Helvetica,sans-Serif" font-size="10.00">::ManeuverControllerNode</text>
</a>
</g>
</g>
<!-- Node5&#45;&gt;Node6 -->
<g id="edge5_Node000005_Node000006" class="edge">
<title>Node5&#45;&gt;Node6</title>
<g id="a_edge5_Node000005_Node000006"><a xlink:title=" ">
<path fill="none" stroke="#63b8ff" d="M199.84,-103.5C191.23,-103.5 182.55,-103.5 174.04,-103.5"/>
<polygon fill="#63b8ff" stroke="#63b8ff" points="199.9,-107 209.9,-103.5 199.9,-100 199.9,-107"/>
</a>
</g>
</g>
<!-- Node7&#45;&gt;Node4 -->
<g id="edge7_Node000007_Node000004" class="edge">
<title>Node7&#45;&gt;Node4</title>
<g id="a_edge7_Node000007_Node000004"><a xlink:title=" ">
<path fill="none" stroke="#63b8ff" d="M620.97,-90.58C612.41,-91.57 603.77,-92.56 595.29,-93.53"/>
<polygon fill="#63b8ff" stroke="#63b8ff" points="621.45,-94.05 630.98,-89.43 620.65,-87.1 621.45,-94.05"/>
</a>
</g>
</g>
<!-- Node8&#45;&gt;Node7 -->
<g id="edge11_Node000008_Node000007" class="edge">
<title>Node8&#45;&gt;Node7</title>
<g id="a_edge11_Node000008_Node000007"><a xlink:title=" ">
<path fill="none" stroke="#63b8ff" d="M845.41,-49.49C832.31,-52.62 818.82,-55.83 805.76,-58.94"/>
<polygon fill="#63b8ff" stroke="#63b8ff" points="846.42,-52.85 855.33,-47.13 844.79,-46.04 846.42,-52.85"/>
</a>
</g>
</g>
<!-- Node9 -->
<g id="Node000009" class="node">
<title>Node9</title>
<g id="a_Node000009"><a xlink:href="classiii__drone_1_1control_1_1maneuver_1_1ManeuverScheduler.html#ae6b24f5665082c8552cdbc5da76069e1" target="_top" xlink:title="Cancels a maneuver entry which has been registered before execution starts.">
<polygon fill="white" stroke="#666666" points="806,-41 631,-41 631,0 806,0 806,-41"/>
<text text-anchor="start" x="639" y="-29" font-family="Helvetica,sans-Serif" font-size="10.00">iii_drone::control</text>
<text text-anchor="start" x="639" y="-18" font-family="Helvetica,sans-Serif" font-size="10.00">::maneuver::ManeuverScheduler</text>
<text text-anchor="middle" x="718.5" y="-7" font-family="Helvetica,sans-Serif" font-size="10.00">::CancelManeuver</text>
</a>
</g>
</g>
<!-- Node8&#45;&gt;Node9 -->
<g id="edge9_Node000008_Node000009" class="edge">
<title>Node8&#45;&gt;Node9</title>
<g id="a_edge9_Node000008_Node000009"><a xlink:title=" ">
<path fill="none" stroke="#63b8ff" d="M845.1,-25.2C832.22,-24.71 818.97,-24.22 806.13,-23.74"/>
<polygon fill="#63b8ff" stroke="#63b8ff" points="845.21,-28.7 855.33,-25.58 845.47,-21.71 845.21,-28.7"/>
</a>
</g>
</g>
<!-- Node9&#45;&gt;Node4 -->
<g id="edge10_Node000009_Node000004" class="edge">
<title>Node9&#45;&gt;Node4</title>
<g id="a_edge10_Node000009_Node000004"><a xlink:title=" ">
<path fill="none" stroke="#63b8ff" d="M644.5,-44.44C639.92,-46.11 635.39,-47.8 631,-49.5 604.67,-59.69 575.73,-72.38 552.6,-82.89"/>
<polygon fill="#63b8ff" stroke="#63b8ff" points="645.72,-47.72 653.96,-41.06 643.36,-41.13 645.72,-47.72"/>
</a>
</g>
</g>
</g>
</svg>
