<?xml version="1.0" encoding="UTF-8" standalone="no"?>
<!DOCTYPE svg PUBLIC "-//W3C//DTD SVG 1.1//EN"
 "http://www.w3.org/Graphics/SVG/1.1/DTD/svg11.dtd">
<!-- Generated by graphviz version 2.43.0 (0)
 -->
<!-- Title: iii_drone::control::BehaviorState::drone_location Pages: 1 -->
<svg width="950pt" height="140pt"
 viewBox="0.00 0.00 950.00 139.50" xmlns="http://www.w3.org/2000/svg" xmlns:xlink="http://www.w3.org/1999/xlink">
<g id="graph0" class="graph" transform="scale(1 1) rotate(0) translate(4 135.5)">
<title>iii_drone::control::BehaviorState::drone_location</title>
<!-- Node1 -->
<g id="Node000001" class="node">
<title>Node1</title>
<g id="a_Node000001"><a xlink:title="Returns the drone location.">
<polygon fill="#999999" stroke="#666666" points="942,-68 817,-68 817,-27 942,-27 942,-68"/>
<text text-anchor="start" x="825" y="-56" font-family="Helvetica,sans-Serif" font-size="10.00">iii_drone::control</text>
<text text-anchor="start" x="825" y="-45" font-family="Helvetica,sans-Serif" font-size="10.00">::BehaviorState::drone</text>
<text text-anchor="middle" x="879.5" y="-34" font-family="Helvetica,sans-Serif" font-size="10.00">_location</text>
</a>
</g>
</g>
<!-- Node1&#45;&gt;Node1 -->
<g id="edge10_Node000001_Node000001" class="edge">
<title>Node1&#45;&gt;Node1</title>
<g id="a_edge10_Node000001_Node000001"><a xlink:title=" ">
<path fill="none" stroke="#63b8ff" d="M910.81,-77.96C906.16,-82.74 895.72,-86 879.5,-86 853.55,-86 842.4,-77.65 846.05,-68.1"/>
<polygon fill="#63b8ff" stroke="#63b8ff" points="914.25,-78.61 912.95,-68.1 907.41,-77.13 914.25,-78.61"/>
</a>
</g>
</g>
<!-- Node2 -->
<g id="Node000002" class="node">
<title>Node2</title>
<g id="a_Node000002"><a xlink:href="classiii__drone_1_1control_1_1BehaviorState.html#ae413bc1424de620b59ad39f17550cd59" target="_top" xlink:title="Get the behavior state of the drone.">
<polygon fill="white" stroke="#666666" points="781,-89.5 611,-89.5 611,-59.5 781,-59.5 781,-89.5"/>
<text text-anchor="start" x="619" y="-77.5" font-family="Helvetica,sans-Serif" font-size="10.00">iii_drone::control</text>
<text text-anchor="middle" x="696" y="-66.5" font-family="Helvetica,sans-Serif" font-size="10.00">::BehaviorState::behavior_state</text>
</a>
</g>
</g>
<!-- Node1&#45;&gt;Node2 -->
<g id="edge1_Node000001_Node000002" class="edge">
<title>Node1&#45;&gt;Node2</title>
<g id="a_edge1_Node000001_Node000002"><a xlink:title=" ">
<path fill="none" stroke="#63b8ff" d="M806.66,-58.19C798.25,-59.44 789.6,-60.72 781.03,-62"/>
<polygon fill="#63b8ff" stroke="#63b8ff" points="807.42,-61.61 816.8,-56.68 806.39,-54.69 807.42,-61.61"/>
</a>
</g>
</g>
<!-- Node7 -->
<g id="Node000007" class="node">
<title>Node7</title>
<g id="a_Node000007"><a xlink:href="classiii__drone_1_1control_1_1BehaviorState.html#a1b5262b99d96767ebdc0be10fb29bdf5" target="_top" xlink:title="Returns the drone location, checks the drone location and sets the on_cable_id if the drone is on a c...">
<polygon fill="white" stroke="#666666" points="758.5,-41 633.5,-41 633.5,0 758.5,0 758.5,-41"/>
<text text-anchor="start" x="641.5" y="-29" font-family="Helvetica,sans-Serif" font-size="10.00">iii_drone::control</text>
<text text-anchor="start" x="641.5" y="-18" font-family="Helvetica,sans-Serif" font-size="10.00">::BehaviorState::drone</text>
<text text-anchor="middle" x="696" y="-7" font-family="Helvetica,sans-Serif" font-size="10.00">_location</text>
</a>
</g>
</g>
<!-- Node1&#45;&gt;Node7 -->
<g id="edge11_Node000001_Node000007" class="edge">
<title>Node1&#45;&gt;Node7</title>
<g id="a_edge11_Node000001_Node000007"><a xlink:title=" ">
<path fill="none" stroke="#63b8ff" d="M806.5,-36.79C790.63,-34.43 773.95,-31.95 758.53,-29.65"/>
<polygon fill="#63b8ff" stroke="#63b8ff" points="806.39,-40.31 816.8,-38.32 807.42,-33.39 806.39,-40.31"/>
</a>
</g>
</g>
<!-- Node2&#45;&gt;Node2 -->
<g id="edge2_Node000002_Node000002" class="edge">
<title>Node2&#45;&gt;Node2</title>
<g id="a_edge2_Node000002_Node000002"><a xlink:title=" ">
<path fill="none" stroke="#63b8ff" d="M727.86,-100.1C723.5,-104.47 712.88,-107.5 696,-107.5 667.56,-107.5 656.9,-98.91 664.01,-89.78"/>
<polygon fill="#63b8ff" stroke="#63b8ff" points="731.36,-99.82 727.99,-89.78 724.36,-99.73 731.36,-99.82"/>
</a>
</g>
</g>
<!-- Node3 -->
<g id="Node000003" class="node">
<title>Node3</title>
<g id="a_Node000003"><a xlink:href="classiii__drone_1_1control_1_1BehaviorState.html#aedb61a6110864484c564c923e659d31f" target="_top" xlink:title="Returns the expected behavior state upon completion or failure of given maneuver type,...">
<polygon fill="white" stroke="#666666" points="362.5,-131.5 207.5,-131.5 207.5,-101.5 362.5,-101.5 362.5,-131.5"/>
<text text-anchor="start" x="215.5" y="-119.5" font-family="Helvetica,sans-Serif" font-size="10.00">iii_drone::control</text>
<text text-anchor="middle" x="285" y="-108.5" font-family="Helvetica,sans-Serif" font-size="10.00">::BehaviorState::CanExecute</text>
</a>
</g>
</g>
<!-- Node2&#45;&gt;Node3 -->
<g id="edge3_Node000002_Node000003" class="edge">
<title>Node2&#45;&gt;Node3</title>
<g id="a_edge3_Node000002_Node000003"><a xlink:title=" ">
<path fill="none" stroke="#63b8ff" d="M634.93,-92.06C615.93,-96.93 594.73,-101.65 575,-104.5 503.55,-114.8 421.22,-117.32 362.75,-117.55"/>
<polygon fill="#63b8ff" stroke="#63b8ff" points="635.87,-95.43 644.66,-89.51 634.09,-88.66 635.87,-95.43"/>
</a>
</g>
</g>
<!-- Node4 -->
<g id="Node000004" class="node">
<title>Node4</title>
<g id="a_Node000004"><a xlink:href="classiii__drone_1_1control_1_1BehaviorState.html#a7fbdc5d342e0058bf2d8ac24ce73d7b2" target="_top" xlink:title="Evaluates whether a maneuver can be executed given a behavior state.">
<polygon fill="white" stroke="#666666" points="575,-95 409,-95 409,-54 575,-54 575,-95"/>
<text text-anchor="start" x="417" y="-83" font-family="Helvetica,sans-Serif" font-size="10.00">iii_drone::control</text>
<text text-anchor="start" x="417" y="-72" font-family="Helvetica,sans-Serif" font-size="10.00">::BehaviorState::maneuverCan</text>
<text text-anchor="middle" x="492" y="-61" font-family="Helvetica,sans-Serif" font-size="10.00">Execute</text>
</a>
</g>
</g>
<!-- Node2&#45;&gt;Node4 -->
<g id="edge4_Node000002_Node000004" class="edge">
<title>Node2&#45;&gt;Node4</title>
<g id="a_edge4_Node000002_Node000004"><a xlink:title=" ">
<path fill="none" stroke="#63b8ff" d="M600.78,-74.5C592.21,-74.5 583.57,-74.5 575.12,-74.5"/>
<polygon fill="#63b8ff" stroke="#63b8ff" points="600.8,-78 610.8,-74.5 600.8,-71 600.8,-78"/>
</a>
</g>
</g>
<!-- Node5 -->
<g id="Node000005" class="node">
<title>Node5</title>
<g id="a_Node000005"><a xlink:href="classiii__drone_1_1control_1_1BehaviorState.html#ad608deaa322e450c9cfc95d6febcec84" target="_top" xlink:title="Returns the expected behavior state upon completion or failure of given maneuver type,...">
<polygon fill="white" stroke="#666666" points="373,-59 197,-59 197,-18 373,-18 373,-59"/>
<text text-anchor="start" x="205" y="-47" font-family="Helvetica,sans-Serif" font-size="10.00">iii_drone::control</text>
<text text-anchor="start" x="205" y="-36" font-family="Helvetica,sans-Serif" font-size="10.00">::BehaviorState::ProjectExpected</text>
<text text-anchor="middle" x="285" y="-25" font-family="Helvetica,sans-Serif" font-size="10.00">BehaviorState</text>
</a>
</g>
</g>
<!-- Node2&#45;&gt;Node5 -->
<g id="edge9_Node000002_Node000005" class="edge">
<title>Node2&#45;&gt;Node5</title>
<g id="a_edge9_Node000002_Node000005"><a xlink:title=" ">
<path fill="none" stroke="#63b8ff" d="M635.75,-56.89C616.55,-51.94 595.03,-47.18 575,-44.5 507.6,-35.49 430.58,-34.34 373.01,-35.25"/>
<polygon fill="#63b8ff" stroke="#63b8ff" points="635,-60.31 645.57,-59.49 636.79,-53.55 635,-60.31"/>
</a>
</g>
</g>
<!-- Node4&#45;&gt;Node3 -->
<g id="edge5_Node000004_Node000003" class="edge">
<title>Node4&#45;&gt;Node3</title>
<g id="a_edge5_Node000004_Node000003"><a xlink:title=" ">
<path fill="none" stroke="#63b8ff" d="M398.75,-93.4C385.52,-96.11 372.07,-98.87 359.28,-101.49"/>
<polygon fill="#63b8ff" stroke="#63b8ff" points="399.71,-96.78 408.8,-91.34 398.3,-89.92 399.71,-96.78"/>
</a>
</g>
</g>
<!-- Node4&#45;&gt;Node5 -->
<g id="edge6_Node000004_Node000005" class="edge">
<title>Node4&#45;&gt;Node5</title>
<g id="a_edge6_Node000004_Node000005"><a xlink:title=" ">
<path fill="none" stroke="#63b8ff" d="M398.86,-58.32C390.34,-56.82 381.72,-55.31 373.25,-53.82"/>
<polygon fill="#63b8ff" stroke="#63b8ff" points="398.35,-61.78 408.8,-60.06 399.56,-54.89 398.35,-61.78"/>
</a>
</g>
</g>
<!-- Node5&#45;&gt;Node5 -->
<g id="edge8_Node000005_Node000005" class="edge">
<title>Node5&#45;&gt;Node5</title>
<g id="a_edge8_Node000005_Node000005"><a xlink:title=" ">
<path fill="none" stroke="#63b8ff" d="M320.1,-68.96C314.88,-73.74 303.18,-77 285,-77 255.91,-77 243.42,-68.65 247.51,-59.1"/>
<polygon fill="#63b8ff" stroke="#63b8ff" points="323.53,-69.64 322.49,-59.1 316.73,-67.99 323.53,-69.64"/>
</a>
</g>
</g>
<!-- Node6 -->
<g id="Node000006" class="node">
<title>Node6</title>
<g id="a_Node000006"><a xlink:href="classiii__drone_1_1control_1_1BehaviorState.html#ab4ed76614b4f7e6dd264d8006c4ddbea" target="_top" xlink:title="Returns whether a given maneuver can execute later.">
<polygon fill="white" stroke="#666666" points="161,-53.5 0,-53.5 0,-23.5 161,-23.5 161,-53.5"/>
<text text-anchor="start" x="8" y="-41.5" font-family="Helvetica,sans-Serif" font-size="10.00">iii_drone::control</text>
<text text-anchor="middle" x="80.5" y="-30.5" font-family="Helvetica,sans-Serif" font-size="10.00">::BehaviorState::CanSchedule</text>
</a>
</g>
</g>
<!-- Node5&#45;&gt;Node6 -->
<g id="edge7_Node000005_Node000006" class="edge">
<title>Node5&#45;&gt;Node6</title>
<g id="a_edge7_Node000005_Node000006"><a xlink:title=" ">
<path fill="none" stroke="#63b8ff" d="M186.86,-38.5C178.24,-38.5 169.58,-38.5 161.12,-38.5"/>
<polygon fill="#63b8ff" stroke="#63b8ff" points="186.95,-42 196.95,-38.5 186.95,-35 186.95,-42"/>
</a>
</g>
</g>
</g>
</svg>
