<?xml version="1.0" encoding="UTF-8" standalone="no"?>
<!DOCTYPE svg PUBLIC "-//W3C//DTD SVG 1.1//EN"
 "http://www.w3.org/Graphics/SVG/1.1/DTD/svg11.dtd">
<!-- Generated by graphviz version 2.43.0 (0)
 -->
<!-- Title: iii_drone::mission::continuous_mission_orchestrator_node::ContinuousMissionOrchestrator::flyUnderCableFeedbackCallback Pages: 1 -->
<!--zoomable 142 -->

<svg id="main" version="1.1" xmlns="http://www.w3.org/2000/svg" xmlns:xlink="http://www.w3.org/1999/xlink" xml:space="preserve" onload="init(evt)">
<style type="text/css"><![CDATA[
.node, .edge {opacity: 0.7;}
.node.selected, .edge.selected {opacity: 1;}
.edge:hover path { stroke: red; }
.edge:hover polygon { stroke: red; fill: red; }
]]></style>

<defs>
  <circle id="rim" cx="0" cy="0" r="7"/>
  <circle id="rim2" cx="0" cy="0" r="3.5"/>
  <g id="zoomPlus">
    <use xlink:href="#rim" fill="#404040"><set attributeName="fill" to="#808080" begin="zoomplus.mouseover" end="zoomplus.mouseout"/></use>
    <path d="M-4,0h8M0,-4v8" fill="none" stroke="white" stroke-width="1.5" pointer-events="none"/>
  </g>
  <g id="zoomMin">
    <use xlink:href="#rim" fill="#404040"><set attributeName="fill" to="#808080" begin="zoomminus.mouseover" end="zoomminus.mouseout"/></use>
    <path d="M-4,0h8" fill="none" stroke="white" stroke-width="1.5" pointer-events="none"/>
  </g>
  <g id="arrowUp" transform="translate(30 24)">
    <use xlink:href="#rim"/>
    <path pointer-events="none" fill="none" stroke="white" stroke-width="1.5" d="M0,-3.0v7 M-2.5,-0.5L0,-3.0L2.5,-0.5"/>
  </g>
  <g id="arrowRight" transform="rotate(90) translate(36 -43)">
    <use xlink:href="#rim"/>
    <path pointer-events="none" fill="none" stroke="white" stroke-width="1.5" d="M0,-3.0v7 M-2.5,-0.5L0,-3.0L2.5,-0.5"/>
  </g>
  <g id="arrowDown" transform="rotate(180) translate(-30 -48)">
    <use xlink:href="#rim"/>
    <path pointer-events="none" fill="none" stroke="white" stroke-width="1.5" d="M0,-3.0v7 M-2.5,-0.5L0,-3.0L2.5,-0.5"/>
  </g>
  <g id="arrowLeft" transform="rotate(270) translate(-36 17)">
    <use xlink:href="#rim"/>
    <path pointer-events="none" fill="none" stroke="white" stroke-width="1.5" d="M0,-3.0v7 M-2.5,-0.5L0,-3.0L2.5,-0.5"/>
  </g>
  <g id="resetDef">
    <use xlink:href="#rim2" fill="#404040"><set attributeName="fill" to="#808080" begin="reset.mouseover" end="reset.mouseout"/></use>
  </g>
</defs>
<script type="application/ecmascript">
var viewWidth = 1236;
var viewHeight = 142;
var sectionId = 'dynsection-41';
</script>
<script type="application/ecmascript" xlink:href="svg.min.js"/>
<svg id="graph" class="graph">
<g id="viewport">
<title>iii_drone::mission::continuous_mission_orchestrator_node::ContinuousMissionOrchestrator::flyUnderCableFeedbackCallback</title>
<!-- Node1 -->
<g id="Node000001" class="node">
<title>Node1</title>
<g id="a_Node000001"><a xlink:title=" ">
<polygon fill="#999999" stroke="#666666" points="1228,-101 1038,-101 1038,-38 1228,-38 1228,-101"/>
<text text-anchor="start" x="1046" y="-89" font-family="Helvetica,sans-Serif" font-size="10.00">iii_drone::mission</text>
<text text-anchor="start" x="1046" y="-78" font-family="Helvetica,sans-Serif" font-size="10.00">::continuous_mission</text>
<text text-anchor="start" x="1046" y="-67" font-family="Helvetica,sans-Serif" font-size="10.00">_orchestrator_node::Continuous</text>
<text text-anchor="start" x="1046" y="-56" font-family="Helvetica,sans-Serif" font-size="10.00">MissionOrchestrator::flyUnderCable</text>
<text text-anchor="middle" x="1133" y="-45" font-family="Helvetica,sans-Serif" font-size="10.00">FeedbackCallback</text>
</a>
</g>
</g>
<!-- Node2 -->
<g id="Node000002" class="node">
<title>Node2</title>
<g id="a_Node000002"><a xlink:href="classiii__drone_1_1mission_1_1continuous__mission__orchestrator__node_1_1ContinuousMissionOrchestrator.html#a8510cf996a9960470eaa051b8995d065" target="_top" xlink:title=" ">
<polygon fill="white" stroke="#666666" points="1002,-95.5 787,-95.5 787,-43.5 1002,-43.5 1002,-95.5"/>
<text text-anchor="start" x="795" y="-83.5" font-family="Helvetica,sans-Serif" font-size="10.00">iii_drone::mission</text>
<text text-anchor="start" x="795" y="-72.5" font-family="Helvetica,sans-Serif" font-size="10.00">::continuous_mission</text>
<text text-anchor="start" x="795" y="-61.5" font-family="Helvetica,sans-Serif" font-size="10.00">_orchestrator_node::Continuous</text>
<text text-anchor="middle" x="894.5" y="-50.5" font-family="Helvetica,sans-Serif" font-size="10.00">MissionOrchestrator::startFlyUnderCable</text>
</a>
</g>
</g>
<!-- Node1&#45;&gt;Node2 -->
<g id="edge1_Node000001_Node000002" class="edge">
<title>Node1&#45;&gt;Node2</title>
<g id="a_edge1_Node000001_Node000002"><a xlink:title=" ">
<path fill="none" stroke="#63b8ff" d="M1027.61,-69.5C1019.17,-69.5 1010.64,-69.5 1002.18,-69.5"/>
<polygon fill="#63b8ff" stroke="#63b8ff" points="1027.85,-73 1037.85,-69.5 1027.85,-66 1027.85,-73"/>
</a>
</g>
</g>
<!-- Node3 -->
<g id="Node000003" class="node">
<title>Node3</title>
<g id="a_Node000003"><a xlink:href="classiii__drone_1_1mission_1_1continuous__mission__orchestrator__node_1_1ContinuousMissionOrchestrator.html#ac2bddae403ea4b73684263ebe30ca6cd" target="_top" xlink:title=" ">
<polygon fill="white" stroke="#666666" points="751,-133.5 514,-133.5 514,-81.5 751,-81.5 751,-133.5"/>
<text text-anchor="start" x="522" y="-121.5" font-family="Helvetica,sans-Serif" font-size="10.00">iii_drone::mission</text>
<text text-anchor="start" x="522" y="-110.5" font-family="Helvetica,sans-Serif" font-size="10.00">::continuous_mission</text>
<text text-anchor="start" x="522" y="-99.5" font-family="Helvetica,sans-Serif" font-size="10.00">_orchestrator_node::Continuous</text>
<text text-anchor="middle" x="632.5" y="-88.5" font-family="Helvetica,sans-Serif" font-size="10.00">MissionOrchestrator::stateMachineInspecting</text>
</a>
</g>
</g>
<!-- Node2&#45;&gt;Node3 -->
<g id="edge2_Node000002_Node000003" class="edge">
<title>Node2&#45;&gt;Node3</title>
<g id="a_edge2_Node000002_Node000003"><a xlink:title=" ">
<path fill="none" stroke="#63b8ff" d="M777,-86.53C768.45,-87.78 759.82,-89.04 751.26,-90.29"/>
<polygon fill="#63b8ff" stroke="#63b8ff" points="777.61,-89.98 787,-85.07 776.6,-83.05 777.61,-89.98"/>
</a>
</g>
</g>
<!-- Node6 -->
<g id="Node000006" class="node">
<title>Node6</title>
<g id="a_Node000006"><a xlink:href="classiii__drone_1_1mission_1_1continuous__mission__orchestrator__node_1_1ContinuousMissionOrchestrator.html#a1884ad099408cb1bfd50b9da8a467132" target="_top" xlink:title=" ">
<polygon fill="white" stroke="#666666" points="737,-63 528,-63 528,0 737,0 737,-63"/>
<text text-anchor="start" x="536" y="-51" font-family="Helvetica,sans-Serif" font-size="10.00">iii_drone::mission</text>
<text text-anchor="start" x="536" y="-40" font-family="Helvetica,sans-Serif" font-size="10.00">::continuous_mission</text>
<text text-anchor="start" x="536" y="-29" font-family="Helvetica,sans-Serif" font-size="10.00">_orchestrator_node::Continuous</text>
<text text-anchor="start" x="536" y="-18" font-family="Helvetica,sans-Serif" font-size="10.00">MissionOrchestrator::stateMachineWait</text>
<text text-anchor="middle" x="632.5" y="-7" font-family="Helvetica,sans-Serif" font-size="10.00">ForTargetLine</text>
</a>
</g>
</g>
<!-- Node2&#45;&gt;Node6 -->
<g id="edge5_Node000002_Node000006" class="edge">
<title>Node2&#45;&gt;Node6</title>
<g id="a_edge5_Node000002_Node000006"><a xlink:title=" ">
<path fill="none" stroke="#63b8ff" d="M776.94,-52.46C763.74,-50.53 750.34,-48.58 737.32,-46.67"/>
<polygon fill="#63b8ff" stroke="#63b8ff" points="776.6,-55.95 787,-53.93 777.61,-49.02 776.6,-55.95"/>
</a>
</g>
</g>
<!-- Node4 -->
<g id="Node000004" class="node">
<title>Node4</title>
<g id="a_Node000004"><a xlink:href="classiii__drone_1_1mission_1_1continuous__mission__orchestrator__node_1_1ContinuousMissionOrchestrator.html#a03d16a0b3a80d3d63fd1ac37c08829c7" target="_top" xlink:title=" ">
<polygon fill="white" stroke="#666666" points="478,-95.5 249,-95.5 249,-43.5 478,-43.5 478,-95.5"/>
<text text-anchor="start" x="257" y="-83.5" font-family="Helvetica,sans-Serif" font-size="10.00">iii_drone::mission</text>
<text text-anchor="start" x="257" y="-72.5" font-family="Helvetica,sans-Serif" font-size="10.00">::continuous_mission</text>
<text text-anchor="start" x="257" y="-61.5" font-family="Helvetica,sans-Serif" font-size="10.00">_orchestrator_node::Continuous</text>
<text text-anchor="middle" x="363.5" y="-50.5" font-family="Helvetica,sans-Serif" font-size="10.00">MissionOrchestrator::stateMachineCallback</text>
</a>
</g>
</g>
<!-- Node3&#45;&gt;Node4 -->
<g id="edge3_Node000003_Node000004" class="edge">
<title>Node3&#45;&gt;Node4</title>
<g id="a_edge3_Node000003_Node000004"><a xlink:title=" ">
<path fill="none" stroke="#63b8ff" d="M503.68,-89.31C495.2,-88.1 486.69,-86.89 478.29,-85.69"/>
<polygon fill="#63b8ff" stroke="#63b8ff" points="503.22,-92.78 513.61,-90.72 504.21,-85.85 503.22,-92.78"/>
</a>
</g>
</g>
<!-- Node5 -->
<g id="Node000005" class="node">
<title>Node5</title>
<g id="a_Node000005"><a xlink:href="classiii__drone_1_1mission_1_1continuous__mission__orchestrator__node_1_1ContinuousMissionOrchestrator.html#a7d652b0b72969090c91c494f5c032eba" target="_top" xlink:title=" ">
<polygon fill="white" stroke="#666666" points="213,-101 0,-101 0,-38 213,-38 213,-101"/>
<text text-anchor="start" x="8" y="-89" font-family="Helvetica,sans-Serif" font-size="10.00">iii_drone::mission</text>
<text text-anchor="start" x="8" y="-78" font-family="Helvetica,sans-Serif" font-size="10.00">::continuous_mission</text>
<text text-anchor="start" x="8" y="-67" font-family="Helvetica,sans-Serif" font-size="10.00">_orchestrator_node::Continuous</text>
<text text-anchor="start" x="8" y="-56" font-family="Helvetica,sans-Serif" font-size="10.00">MissionOrchestrator::ContinuousMission</text>
<text text-anchor="middle" x="106.5" y="-45" font-family="Helvetica,sans-Serif" font-size="10.00">Orchestrator</text>
</a>
</g>
</g>
<!-- Node4&#45;&gt;Node5 -->
<g id="edge4_Node000004_Node000005" class="edge">
<title>Node4&#45;&gt;Node5</title>
<g id="a_edge4_Node000004_Node000005"><a xlink:title=" ">
<path fill="none" stroke="#63b8ff" d="M238.79,-69.5C230.26,-69.5 221.7,-69.5 213.27,-69.5"/>
<polygon fill="#63b8ff" stroke="#63b8ff" points="238.8,-73 248.8,-69.5 238.8,-66 238.8,-73"/>
</a>
</g>
</g>
<!-- Node6&#45;&gt;Node4 -->
<g id="edge6_Node000006_Node000004" class="edge">
<title>Node6&#45;&gt;Node4</title>
<g id="a_edge6_Node000006_Node000004"><a xlink:title=" ">
<path fill="none" stroke="#63b8ff" d="M517.9,-47.67C504.77,-49.54 491.37,-51.44 478.24,-53.31"/>
<polygon fill="#63b8ff" stroke="#63b8ff" points="518.48,-51.12 527.89,-46.25 517.5,-44.19 518.48,-51.12"/>
</a>
</g>
</g>
</g>
</svg>

<g id="navigator" transform="translate(0 0)" fill="#404254">
  <rect fill="#f2f5e9" fill-opacity="0.5" stroke="#606060" stroke-width=".5" x="0" y="0" width="60" height="60"/>
  <use id="zoomplus" xlink:href="#zoomPlus" x="17" y="9" onmousedown="handleZoom(evt,'in')"/>
  <use id="zoomminus" xlink:href="#zoomMin" x="42" y="9" onmousedown="handleZoom(evt,'out')"/>
  <use id="reset" xlink:href="#resetDef" x="30" y="36" onmousedown="handleReset()"/>
   <use id="arrowup" xlink:href="#arrowUp" x="0" y="0" onmousedown="handlePan(0,-1)"/>
  <use id="arrowright" xlink:href="#arrowRight" x="0" y="0" onmousedown="handlePan(1,0)"/>
  <use id="arrowdown" xlink:href="#arrowDown" x="0" y="0" onmousedown="handlePan(0,1)"/>
  <use id="arrowleft" xlink:href="#arrowLeft" x="0" y="0" onmousedown="handlePan(-1,0)"/>
</g>
<svg viewBox="0 0 15 15" width="100%" height="30px" preserveAspectRatio="xMaxYMin meet">
 <g id="arrow_out" transform="scale(0.3 0.3)">
  <a xlink:href="classiii__drone_1_1mission_1_1continuous__mission__orchestrator__node_1_1ContinuousMissionOrchestrator_ad64c71b10a835f9b9ca4f2a75bcb4ad5_icgraph_org.svg" target="_base">
   <rect id="button" ry="5" rx="5" y="6" x="6" height="38" width="38"
        fill="#f2f5e9" fill-opacity="0.5" stroke="#606060" stroke-width="1.0"/>
   <path id="arrow"
     d="M 11.500037,31.436501 C 11.940474,20.09759 22.043105,11.32322 32.158766,21.979434 L 37.068811,17.246167 C 37.068811,17.246167 37.088388,32 37.088388,32 L 22.160133,31.978069 C 22.160133,31.978069 26.997745,27.140456 26.997745,27.140456 C 18.528582,18.264221 13.291696,25.230495 11.500037,31.436501 z"
     style="fill:#404040;"/>
  </a>
 </g>
</svg>

<style type='text/css'>
<![CDATA[
[data-mouse-over-selected='false'] { opacity: 0.7; }
[data-mouse-over-selected='true']  { opacity: 1.0; }
]]>
</style>
<script type="application/ecmascript"><![CDATA[
document.addEventListener('DOMContentLoaded', (event) => {
  highlightEdges();
  highlightAdjacentNodes();
});
]]></script>
</svg>
