<?xml version="1.0" encoding="UTF-8" standalone="no"?>
<!DOCTYPE svg PUBLIC "-//W3C//DTD SVG 1.1//EN"
 "http://www.w3.org/Graphics/SVG/1.1/DTD/svg11.dtd">
<!-- Generated by graphviz version 2.43.0 (0)
 -->
<!-- Title: iii_drone::adapters::SingleLineAdapter::SingleLineAdapter Pages: 1 -->
<svg width="491pt" height="313pt"
 viewBox="0.00 0.00 491.00 313.00" xmlns="http://www.w3.org/2000/svg" xmlns:xlink="http://www.w3.org/1999/xlink">
<g id="graph0" class="graph" transform="scale(1 1) rotate(0) translate(4 309)">
<title>iii_drone::adapters::SingleLineAdapter::SingleLineAdapter</title>
<!-- Node1 -->
<g id="Node000001" class="node">
<title>Node1</title>
<g id="a_Node000001"><a xlink:title="Constructor from pose msg.">
<polygon fill="#999999" stroke="#666666" points="111,-170 0,-170 0,-129 111,-129 111,-170"/>
<text text-anchor="start" x="8" y="-158" font-family="Helvetica,sans-Serif" font-size="10.00">iii_drone::adapters</text>
<text text-anchor="start" x="8" y="-147" font-family="Helvetica,sans-Serif" font-size="10.00">::SingleLineAdapter</text>
<text text-anchor="middle" x="55.5" y="-136" font-family="Helvetica,sans-Serif" font-size="10.00">::SingleLineAdapter</text>
</a>
</g>
</g>
<!-- Node2 -->
<g id="Node000002" class="node">
<title>Node2</title>
<g id="a_Node000002"><a xlink:href="classiii__drone_1_1adapters_1_1SingleLineAdapter.html#a5348a1eb9e8f868cee28cf108fa0dd5a" target="_top" xlink:title="Frame id getter.">
<polygon fill="white" stroke="#666666" points="277.5,-305 166.5,-305 166.5,-264 277.5,-264 277.5,-305"/>
<text text-anchor="start" x="174.5" y="-293" font-family="Helvetica,sans-Serif" font-size="10.00">iii_drone::adapters</text>
<text text-anchor="start" x="174.5" y="-282" font-family="Helvetica,sans-Serif" font-size="10.00">::SingleLineAdapter</text>
<text text-anchor="middle" x="222" y="-271" font-family="Helvetica,sans-Serif" font-size="10.00">::frame_id</text>
</a>
</g>
</g>
<!-- Node1&#45;&gt;Node2 -->
<g id="edge1_Node000001_Node000002" class="edge">
<title>Node1&#45;&gt;Node2</title>
<g id="a_edge1_Node000001_Node000002"><a xlink:title=" ">
<path fill="none" stroke="#63b8ff" d="M69.87,-170.25C85.78,-193.53 114.34,-231.07 147,-254.5 150.26,-256.84 153.74,-259.04 157.33,-261.09"/>
<polygon fill="#63b8ff" stroke="#63b8ff" points="155.99,-264.34 166.46,-265.9 159.25,-258.15 155.99,-264.34"/>
</a>
</g>
</g>
<!-- Node3 -->
<g id="Node000003" class="node">
<title>Node3</title>
<g id="a_Node000003"><a xlink:href="classiii__drone_1_1adapters_1_1SingleLineAdapter.html#a094ffe670b1d879fa9bd9012255a6173" target="_top" xlink:title="Id getter.">
<polygon fill="white" stroke="#666666" points="285,-245.5 159,-245.5 159,-215.5 285,-215.5 285,-245.5"/>
<text text-anchor="start" x="167" y="-233.5" font-family="Helvetica,sans-Serif" font-size="10.00">iii_drone::adapters</text>
<text text-anchor="middle" x="222" y="-222.5" font-family="Helvetica,sans-Serif" font-size="10.00">::SingleLineAdapter::id</text>
</a>
</g>
</g>
<!-- Node1&#45;&gt;Node3 -->
<g id="edge2_Node000001_Node000003" class="edge">
<title>Node1&#45;&gt;Node3</title>
<g id="a_edge2_Node000001_Node000003"><a xlink:title=" ">
<path fill="none" stroke="#63b8ff" d="M85.2,-170.17C102.5,-181.95 125.31,-196.34 147,-206.5 151.03,-208.39 155.25,-210.19 159.54,-211.89"/>
<polygon fill="#63b8ff" stroke="#63b8ff" points="158.42,-215.21 169.01,-215.46 160.89,-208.65 158.42,-215.21"/>
</a>
</g>
</g>
<!-- Node4 -->
<g id="Node000004" class="node">
<title>Node4</title>
<g id="a_Node000004"><a xlink:href="classiii__drone_1_1adapters_1_1SingleLineAdapter.html#a6ffd87a0b1e2778edceec92aa9673cf2" target="_top" xlink:title="In FOV getter.">
<polygon fill="white" stroke="#666666" points="277.5,-197 166.5,-197 166.5,-156 277.5,-156 277.5,-197"/>
<text text-anchor="start" x="174.5" y="-185" font-family="Helvetica,sans-Serif" font-size="10.00">iii_drone::adapters</text>
<text text-anchor="start" x="174.5" y="-174" font-family="Helvetica,sans-Serif" font-size="10.00">::SingleLineAdapter</text>
<text text-anchor="middle" x="222" y="-163" font-family="Helvetica,sans-Serif" font-size="10.00">::in_fov</text>
</a>
</g>
</g>
<!-- Node1&#45;&gt;Node4 -->
<g id="edge3_Node000001_Node000004" class="edge">
<title>Node1&#45;&gt;Node4</title>
<g id="a_edge3_Node000001_Node000004"><a xlink:title=" ">
<path fill="none" stroke="#63b8ff" d="M111.28,-158.49C125.7,-160.86 141.41,-163.44 156.3,-165.88"/>
<polygon fill="#63b8ff" stroke="#63b8ff" points="156.03,-169.38 166.46,-167.55 157.16,-162.48 156.03,-169.38"/>
</a>
</g>
</g>
<!-- Node5 -->
<g id="Node000005" class="node">
<title>Node5</title>
<g id="a_Node000005"><a xlink:href="namespaceiii__drone_1_1types.html#a68ca357a87fb655434d05d6c6bdac45f" target="_top" xlink:title=" ">
<polygon fill="white" stroke="#666666" points="295.5,-137.5 148.5,-137.5 148.5,-107.5 295.5,-107.5 295.5,-137.5"/>
<text text-anchor="start" x="156.5" y="-125.5" font-family="Helvetica,sans-Serif" font-size="10.00">iii_drone::types::pointFrom</text>
<text text-anchor="middle" x="222" y="-114.5" font-family="Helvetica,sans-Serif" font-size="10.00">PoseMsg</text>
</a>
</g>
</g>
<!-- Node1&#45;&gt;Node5 -->
<g id="edge4_Node000001_Node000005" class="edge">
<title>Node1&#45;&gt;Node5</title>
<g id="a_edge4_Node000001_Node000005"><a xlink:title=" ">
<path fill="none" stroke="#63b8ff" d="M111.28,-140.51C119.99,-139.08 129.18,-137.57 138.36,-136.06"/>
<polygon fill="#63b8ff" stroke="#63b8ff" points="139.01,-139.5 148.31,-134.43 137.88,-132.6 139.01,-139.5"/>
</a>
</g>
</g>
<!-- Node7 -->
<g id="Node000007" class="node">
<title>Node7</title>
<g id="a_Node000007"><a xlink:href="namespaceiii__drone_1_1types.html#a25802a3ab0d3c28800d37b3c6a9a6578" target="_top" xlink:title=" ">
<polygon fill="white" stroke="#666666" points="297,-89.5 147,-89.5 147,-59.5 297,-59.5 297,-89.5"/>
<text text-anchor="start" x="155" y="-77.5" font-family="Helvetica,sans-Serif" font-size="10.00">iii_drone::types::quaternion</text>
<text text-anchor="middle" x="222" y="-66.5" font-family="Helvetica,sans-Serif" font-size="10.00">FromPoseMsg</text>
</a>
</g>
</g>
<!-- Node1&#45;&gt;Node7 -->
<g id="edge6_Node000001_Node000007" class="edge">
<title>Node1&#45;&gt;Node7</title>
<g id="a_edge6_Node000001_Node000007"><a xlink:title=" ">
<path fill="none" stroke="#63b8ff" d="M89.21,-128.97C106.06,-118.94 127.18,-107.19 147,-98.5 151.33,-96.6 155.87,-94.77 160.46,-93.03"/>
<polygon fill="#63b8ff" stroke="#63b8ff" points="161.74,-96.28 169.94,-89.58 159.35,-89.71 161.74,-96.28"/>
</a>
</g>
</g>
<!-- Node9 -->
<g id="Node000009" class="node">
<title>Node9</title>
<g id="a_Node000009"><a xlink:href="classiii__drone_1_1adapters_1_1SingleLineAdapter.html#ae353f420f984e5fe68d67cd5be7e565b" target="_top" xlink:title="Timestamp getter.">
<polygon fill="white" stroke="#666666" points="277.5,-41 166.5,-41 166.5,0 277.5,0 277.5,-41"/>
<text text-anchor="start" x="174.5" y="-29" font-family="Helvetica,sans-Serif" font-size="10.00">iii_drone::adapters</text>
<text text-anchor="start" x="174.5" y="-18" font-family="Helvetica,sans-Serif" font-size="10.00">::SingleLineAdapter</text>
<text text-anchor="middle" x="222" y="-7" font-family="Helvetica,sans-Serif" font-size="10.00">::stamp</text>
</a>
</g>
</g>
<!-- Node1&#45;&gt;Node9 -->
<g id="edge8_Node000001_Node000009" class="edge">
<title>Node1&#45;&gt;Node9</title>
<g id="a_edge8_Node000001_Node000009"><a xlink:title=" ">
<path fill="none" stroke="#63b8ff" d="M71.02,-128.78C87.32,-106.8 115.65,-72.31 147,-50.5 150.24,-48.25 153.67,-46.13 157.21,-44.14"/>
<polygon fill="#63b8ff" stroke="#63b8ff" points="158.95,-47.18 166.19,-39.45 155.71,-40.97 158.95,-47.18"/>
</a>
</g>
</g>
<!-- Node6 -->
<g id="Node000006" class="node">
<title>Node6</title>
<g id="a_Node000006"><a xlink:href="namespaceiii__drone_1_1types.html#a8215048242190c57b9ff2de3f1daba73" target="_top" xlink:title=" ">
<polygon fill="white" stroke="#666666" points="481.5,-137.5 334.5,-137.5 334.5,-107.5 481.5,-107.5 481.5,-137.5"/>
<text text-anchor="start" x="342.5" y="-125.5" font-family="Helvetica,sans-Serif" font-size="10.00">iii_drone::types::pointFrom</text>
<text text-anchor="middle" x="408" y="-114.5" font-family="Helvetica,sans-Serif" font-size="10.00">PointMsg</text>
</a>
</g>
</g>
<!-- Node5&#45;&gt;Node6 -->
<g id="edge5_Node000005_Node000006" class="edge">
<title>Node5&#45;&gt;Node6</title>
<g id="a_edge5_Node000005_Node000006"><a xlink:title=" ">
<path fill="none" stroke="#63b8ff" d="M295.72,-122.5C305.02,-122.5 314.59,-122.5 324.03,-122.5"/>
<polygon fill="#63b8ff" stroke="#63b8ff" points="324.2,-126 334.2,-122.5 324.2,-119 324.2,-126"/>
</a>
</g>
</g>
<!-- Node8 -->
<g id="Node000008" class="node">
<title>Node8</title>
<g id="a_Node000008"><a xlink:href="namespaceiii__drone_1_1types.html#ab684c4851f41301e938970679086de49" target="_top" xlink:title=" ">
<polygon fill="white" stroke="#666666" points="483,-89.5 333,-89.5 333,-59.5 483,-59.5 483,-89.5"/>
<text text-anchor="start" x="341" y="-77.5" font-family="Helvetica,sans-Serif" font-size="10.00">iii_drone::types::quaternion</text>
<text text-anchor="middle" x="408" y="-66.5" font-family="Helvetica,sans-Serif" font-size="10.00">FromQuaternionMsg</text>
</a>
</g>
</g>
<!-- Node7&#45;&gt;Node8 -->
<g id="edge7_Node000007_Node000008" class="edge">
<title>Node7&#45;&gt;Node8</title>
<g id="a_edge7_Node000007_Node000008"><a xlink:title=" ">
<path fill="none" stroke="#63b8ff" d="M297.04,-74.5C305.51,-74.5 314.19,-74.5 322.78,-74.5"/>
<polygon fill="#63b8ff" stroke="#63b8ff" points="322.81,-78 332.81,-74.5 322.81,-71 322.81,-78"/>
</a>
</g>
</g>
</g>
</svg>
