<?xml version="1.0" encoding="UTF-8" standalone="no"?>
<!DOCTYPE svg PUBLIC "-//W3C//DTD SVG 1.1//EN"
 "http://www.w3.org/Graphics/SVG/1.1/DTD/svg11.dtd">
<!-- Generated by graphviz version 2.43.0 (0)
 -->
<!-- Title: iii_drone::control::maneuver::ManeuverQueue Pages: 1 -->
<svg width="222pt" height="492pt"
 viewBox="0.00 0.00 221.50 492.00" xmlns="http://www.w3.org/2000/svg" xmlns:xlink="http://www.w3.org/1999/xlink">
<g id="graph0" class="graph" transform="scale(1 1) rotate(0) translate(4 488)">
<title>iii_drone::control::maneuver::ManeuverQueue</title>
<!-- Node1 -->
<g id="Node000001" class="node">
<title>Node1</title>
<g id="a_Node000001"><a xlink:title="Class for handling a queue of maneuvers to be executed.">
<polygon fill="#999999" stroke="transparent" points="192.5,-270 40.5,-270 40.5,0 192.5,0 192.5,-270"/>
<text text-anchor="start" x="45.5" y="-258" font-family="Helvetica,sans-Serif" font-size="10.00">iii_drone::control</text>
<text text-anchor="start" x="45.5" y="-247" font-family="Helvetica,sans-Serif" font-size="10.00">::maneuver::ManeuverQueue</text>
<text text-anchor="start" x="57.5" y="-232" font-family="Helvetica,sans-Serif" font-size="10.00">&#45;</text>
<text text-anchor="start" x="78.5" y="-232" font-family="Helvetica,sans-Serif" font-size="10.00">max_size_</text>
<text text-anchor="start" x="57.5" y="-217" font-family="Helvetica,sans-Serif" font-size="10.00">&#45;</text>
<text text-anchor="start" x="78.5" y="-217" font-family="Helvetica,sans-Serif" font-size="10.00">is_not_full_</text>
<text text-anchor="start" x="57.5" y="-202" font-family="Helvetica,sans-Serif" font-size="10.00">&#45;</text>
<text text-anchor="start" x="78.5" y="-202" font-family="Helvetica,sans-Serif" font-size="10.00">is_not_empty_</text>
<text text-anchor="start" x="55" y="-187" font-family="Helvetica,sans-Serif" font-size="10.00">+</text>
<text text-anchor="start" x="78.5" y="-187" font-family="Helvetica,sans-Serif" font-size="10.00">ManeuverQueue()</text>
<text text-anchor="start" x="55" y="-172" font-family="Helvetica,sans-Serif" font-size="10.00">+</text>
<text text-anchor="start" x="78.5" y="-172" font-family="Helvetica,sans-Serif" font-size="10.00">Push()</text>
<text text-anchor="start" x="55" y="-157" font-family="Helvetica,sans-Serif" font-size="10.00">+</text>
<text text-anchor="start" x="78.5" y="-157" font-family="Helvetica,sans-Serif" font-size="10.00">Pop()</text>
<text text-anchor="start" x="55" y="-142" font-family="Helvetica,sans-Serif" font-size="10.00">+</text>
<text text-anchor="start" x="78.5" y="-142" font-family="Helvetica,sans-Serif" font-size="10.00">Peak()</text>
<text text-anchor="start" x="55" y="-127" font-family="Helvetica,sans-Serif" font-size="10.00">+</text>
<text text-anchor="start" x="78.5" y="-127" font-family="Helvetica,sans-Serif" font-size="10.00">Clear()</text>
<text text-anchor="start" x="55" y="-112" font-family="Helvetica,sans-Serif" font-size="10.00">+</text>
<text text-anchor="start" x="78.5" y="-112" font-family="Helvetica,sans-Serif" font-size="10.00">ClearFrom()</text>
<text text-anchor="start" x="55" y="-97" font-family="Helvetica,sans-Serif" font-size="10.00">+</text>
<text text-anchor="start" x="78.5" y="-97" font-family="Helvetica,sans-Serif" font-size="10.00">Update()</text>
<text text-anchor="start" x="55" y="-82" font-family="Helvetica,sans-Serif" font-size="10.00">+</text>
<text text-anchor="start" x="78.5" y="-82" font-family="Helvetica,sans-Serif" font-size="10.00">Find()</text>
<text text-anchor="start" x="55" y="-67" font-family="Helvetica,sans-Serif" font-size="10.00">+</text>
<text text-anchor="start" x="78.5" y="-67" font-family="Helvetica,sans-Serif" font-size="10.00">vector()</text>
<text text-anchor="start" x="55" y="-52" font-family="Helvetica,sans-Serif" font-size="10.00">+</text>
<text text-anchor="start" x="78.5" y="-52" font-family="Helvetica,sans-Serif" font-size="10.00">size()</text>
<text text-anchor="start" x="55" y="-37" font-family="Helvetica,sans-Serif" font-size="10.00">+</text>
<text text-anchor="start" x="78.5" y="-37" font-family="Helvetica,sans-Serif" font-size="10.00">empty()</text>
<text text-anchor="start" x="55" y="-22" font-family="Helvetica,sans-Serif" font-size="10.00">+</text>
<text text-anchor="start" x="78.5" y="-22" font-family="Helvetica,sans-Serif" font-size="10.00">full()</text>
<text text-anchor="start" x="57.5" y="-7" font-family="Helvetica,sans-Serif" font-size="10.00">&#45;</text>
<text text-anchor="start" x="78.5" y="-7" font-family="Helvetica,sans-Serif" font-size="10.00">find()</text>
<polygon fill="#666666" stroke="#666666" points="40.5,-242 40.5,-242 192.5,-242 192.5,-242 40.5,-242"/>
<polygon fill="#666666" stroke="#666666" points="40.5,-197 40.5,-197 76.5,-197 76.5,-197 40.5,-197"/>
<polygon fill="#666666" stroke="#666666" points="76.5,-197 76.5,-197 192.5,-197 192.5,-197 76.5,-197"/>
<polygon fill="none" stroke="#666666" points="40.5,0 40.5,-270 192.5,-270 192.5,0 40.5,0"/>
</a>
</g>
</g>
<!-- Node2 -->
<g id="Node000002" class="node">
<title>Node2</title>
<g id="a_Node000002"><a xlink:title=" ">
<polygon fill="white" stroke="transparent" points="91,-388 0,-388 0,-339 91,-339 91,-388"/>
<text text-anchor="start" x="5.5" y="-375.5" font-family="Helvetica,sans-Serif" font-size="10.00">std::vector&lt; T &gt;</text>
<text text-anchor="start" x="44" y="-360.5" font-family="Helvetica,sans-Serif" font-size="10.00"> </text>
<text text-anchor="start" x="44" y="-345.5" font-family="Helvetica,sans-Serif" font-size="10.00"> </text>
<polygon fill="#666666" stroke="#666666" points="0.5,-370.5 0.5,-370.5 91.5,-370.5 91.5,-370.5 0.5,-370.5"/>
<polygon fill="#666666" stroke="#666666" points="0.5,-355.5 0.5,-355.5 91.5,-355.5 91.5,-355.5 0.5,-355.5"/>
<polygon fill="none" stroke="#666666" points="0,-339 0,-388 91,-388 91,-339 0,-339"/>
</a>
</g>
</g>
<!-- Node2&#45;&gt;Node1 -->
<g id="edge1_Node000001_Node000002" class="edge">
<title>Node2&#45;&gt;Node1</title>
<g id="a_edge1_Node000001_Node000002"><a xlink:title=" ">
<path fill="none" stroke="#8b1a1a" d="M55.96,-329.14C61.07,-312.83 67.6,-292 74.46,-270.1"/>
<polygon fill="none" stroke="#8b1a1a" points="52.62,-328.1 52.96,-338.69 59.3,-330.19 52.62,-328.1"/>
</a>
</g>
</g>
<!-- Node3 -->
<g id="Node000003" class="node">
<title>Node3</title>
<g id="a_Node000003"><a xlink:title=" ">
<polygon fill="white" stroke="transparent" points="54,-484 37,-484 37,-435 54,-435 54,-484"/>
<text text-anchor="start" x="42.5" y="-471.5" font-family="Helvetica,sans-Serif" font-size="10.00">T</text>
<text text-anchor="start" x="44" y="-456.5" font-family="Helvetica,sans-Serif" font-size="10.00"> </text>
<text text-anchor="start" x="44" y="-441.5" font-family="Helvetica,sans-Serif" font-size="10.00"> </text>
<polygon fill="#666666" stroke="#666666" points="37.5,-466.5 37.5,-466.5 54.5,-466.5 54.5,-466.5 37.5,-466.5"/>
<polygon fill="#666666" stroke="#666666" points="37.5,-451.5 37.5,-451.5 54.5,-451.5 54.5,-451.5 37.5,-451.5"/>
<polygon fill="none" stroke="#666666" points="37,-435 37,-484 54,-484 54,-435 37,-435"/>
</a>
</g>
</g>
<!-- Node3&#45;&gt;Node2 -->
<g id="edge2_Node000002_Node000003" class="edge">
<title>Node3&#45;&gt;Node2</title>
<g id="a_edge2_Node000002_Node000003"><a xlink:title=" ">
<path fill="none" stroke="#63b8ff" d="M45.5,-434.78C45.5,-424.32 45.5,-411.79 45.5,-400.23"/>
<polygon fill="none" stroke="#63b8ff" points="45.5,-400.21 41.5,-394.21 45.5,-388.21 49.5,-394.21 45.5,-400.21"/>
</a>
</g>
<text text-anchor="middle" x="74.5" y="-409" font-family="Helvetica,sans-Serif" font-size="10.00" fill="grey"> +elements</text>
</g>
<!-- Node4 -->
<g id="Node000004" class="node">
<title>Node4</title>
<g id="a_Node000004"><a xlink:title=" ">
<polygon fill="white" stroke="transparent" points="172,-388 109,-388 109,-339 172,-339 172,-388"/>
<text text-anchor="start" x="114.5" y="-375.5" font-family="Helvetica,sans-Serif" font-size="10.00">std::mutex</text>
<text text-anchor="start" x="139" y="-360.5" font-family="Helvetica,sans-Serif" font-size="10.00"> </text>
<text text-anchor="start" x="139" y="-345.5" font-family="Helvetica,sans-Serif" font-size="10.00"> </text>
<polygon fill="#666666" stroke="#666666" points="109.5,-370.5 109.5,-370.5 172.5,-370.5 172.5,-370.5 109.5,-370.5"/>
<polygon fill="#666666" stroke="#666666" points="109.5,-355.5 109.5,-355.5 172.5,-355.5 172.5,-355.5 109.5,-355.5"/>
<polygon fill="none" stroke="#666666" points="109,-339 109,-388 172,-388 172,-339 109,-339"/>
</a>
</g>
</g>
<!-- Node4&#45;&gt;Node1 -->
<g id="edge3_Node000001_Node000004" class="edge">
<title>Node4&#45;&gt;Node1</title>
<g id="a_edge3_Node000001_Node000004"><a xlink:title=" ">
<path fill="none" stroke="#63b8ff" d="M137.98,-338.69C136.43,-324.05 134.3,-303.95 131.98,-282.06"/>
<polygon fill="none" stroke="#63b8ff" points="131.97,-282.03 127.36,-276.49 130.71,-270.1 135.32,-275.64 131.97,-282.03"/>
</a>
</g>
<text text-anchor="middle" x="174.5" y="-313" font-family="Helvetica,sans-Serif" font-size="10.00" fill="grey"> &#45;mutex_</text>
<text text-anchor="middle" x="174.5" y="-302" font-family="Helvetica,sans-Serif" font-size="10.00" fill="grey">&#45;reader_mutex_</text>
<text text-anchor="middle" x="174.5" y="-291" font-family="Helvetica,sans-Serif" font-size="10.00" fill="grey">&#45;writer_mutex_</text>
</g>
</g>
</svg>
