<?xml version="1.0" encoding="UTF-8" standalone="no"?>
<!DOCTYPE svg PUBLIC "-//W3C//DTD SVG 1.1//EN"
 "http://www.w3.org/Graphics/SVG/1.1/DTD/svg11.dtd">
<!-- Generated by graphviz version 2.43.0 (0)
 -->
<!-- Title: iii_drone::perception::SingleLine::operator= Pages: 1 -->
<svg width="307pt" height="530pt"
 viewBox="0.00 0.00 307.00 530.00" xmlns="http://www.w3.org/2000/svg" xmlns:xlink="http://www.w3.org/1999/xlink">
<g id="graph0" class="graph" transform="scale(1 1) rotate(0) translate(4 526)">
<title>iii_drone::perception::SingleLine::operator=</title>
<!-- Node1 -->
<g id="Node000001" class="node">
<title>Node1</title>
<g id="a_Node000001"><a xlink:title="Assignment operator overload.">
<polygon fill="#999999" stroke="#666666" points="128,-276 0,-276 0,-246 128,-246 128,-276"/>
<text text-anchor="start" x="8" y="-264" font-family="Helvetica,sans-Serif" font-size="10.00">iii_drone::perception</text>
<text text-anchor="middle" x="64" y="-253" font-family="Helvetica,sans-Serif" font-size="10.00">::SingleLine::operator=</text>
</a>
</g>
</g>
<!-- Node2 -->
<g id="Node000002" class="node">
<title>Node2</title>
<g id="a_Node000002"><a xlink:href="classiii__drone_1_1perception_1_1SingleLine.html#a37b9c9397df0291cb6ca18a0bed970ce" target="_top" xlink:title="Alive counter getter.">
<polygon fill="white" stroke="#666666" points="293,-522 170,-522 170,-492 293,-492 293,-522"/>
<text text-anchor="start" x="178" y="-510" font-family="Helvetica,sans-Serif" font-size="10.00">iii_drone::perception</text>
<text text-anchor="middle" x="231.5" y="-499" font-family="Helvetica,sans-Serif" font-size="10.00">::SingleLine::alive_cnt</text>
</a>
</g>
</g>
<!-- Node1&#45;&gt;Node2 -->
<g id="edge1_Node000001_Node000002" class="edge">
<title>Node1&#45;&gt;Node2</title>
<g id="a_edge1_Node000001_Node000002"><a xlink:title=" ">
<path fill="none" stroke="#63b8ff" d="M67.51,-276.04C74.9,-315.61 100.17,-423.67 164,-483 165.27,-484.18 166.6,-485.3 167.98,-486.36"/>
<polygon fill="#63b8ff" stroke="#63b8ff" points="166.1,-489.32 176.37,-491.9 169.95,-483.47 166.1,-489.32"/>
</a>
</g>
</g>
<!-- Node3 -->
<g id="Node000003" class="node">
<title>Node3</title>
<g id="a_Node000003"><a xlink:href="classiii__drone_1_1perception_1_1SingleLine.html#a2ba94b175012e7633ed166ab8c7dd4ec" target="_top" xlink:title="frame_id getter.">
<polygon fill="white" stroke="#666666" points="292.5,-474 170.5,-474 170.5,-444 292.5,-444 292.5,-474"/>
<text text-anchor="start" x="178.5" y="-462" font-family="Helvetica,sans-Serif" font-size="10.00">iii_drone::perception</text>
<text text-anchor="middle" x="231.5" y="-451" font-family="Helvetica,sans-Serif" font-size="10.00">::SingleLine::frame_id</text>
</a>
</g>
</g>
<!-- Node1&#45;&gt;Node3 -->
<g id="edge2_Node000001_Node000003" class="edge">
<title>Node1&#45;&gt;Node3</title>
<g id="a_edge2_Node000001_Node000003"><a xlink:title=" ">
<path fill="none" stroke="#63b8ff" d="M69.59,-276.16C80.47,-309.61 110.96,-390.34 164,-435 165.51,-436.27 167.1,-437.48 168.75,-438.63"/>
<polygon fill="#63b8ff" stroke="#63b8ff" points="167.02,-441.68 177.38,-443.86 170.64,-435.69 167.02,-441.68"/>
</a>
</g>
</g>
<!-- Node4 -->
<g id="Node000004" class="node">
<title>Node4</title>
<g id="a_Node000004"><a xlink:href="classiii__drone_1_1perception_1_1SingleLine.html#abfb685964e0af6f5d46fc2c70e6c9412" target="_top" xlink:title="Id getter.">
<polygon fill="white" stroke="#666666" points="289.5,-426 173.5,-426 173.5,-396 289.5,-396 289.5,-426"/>
<text text-anchor="start" x="181.5" y="-414" font-family="Helvetica,sans-Serif" font-size="10.00">iii_drone::perception</text>
<text text-anchor="middle" x="231.5" y="-403" font-family="Helvetica,sans-Serif" font-size="10.00">::SingleLine::id</text>
</a>
</g>
</g>
<!-- Node1&#45;&gt;Node4 -->
<g id="edge3_Node000001_Node000004" class="edge">
<title>Node1&#45;&gt;Node4</title>
<g id="a_edge3_Node000001_Node000004"><a xlink:title=" ">
<path fill="none" stroke="#63b8ff" d="M73.04,-276.05C87.73,-302.21 121.38,-356.21 164,-387 166.05,-388.48 168.19,-389.87 170.41,-391.19"/>
<polygon fill="#63b8ff" stroke="#63b8ff" points="168.78,-394.29 179.25,-395.88 172.06,-388.1 168.78,-394.29"/>
</a>
</g>
</g>
<!-- Node5 -->
<g id="Node000005" class="node">
<title>Node5</title>
<g id="a_Node000005"><a xlink:href="classiii__drone_1_1perception_1_1SingleLine.html#a87447cb65366cad80636c7700de33a14" target="_top" xlink:title="parameters getter.">
<polygon fill="white" stroke="#666666" points="299,-378 164,-378 164,-348 299,-348 299,-378"/>
<text text-anchor="start" x="172" y="-366" font-family="Helvetica,sans-Serif" font-size="10.00">iii_drone::perception</text>
<text text-anchor="middle" x="231.5" y="-355" font-family="Helvetica,sans-Serif" font-size="10.00">::SingleLine::parameters</text>
</a>
</g>
</g>
<!-- Node1&#45;&gt;Node5 -->
<g id="edge4_Node000001_Node000005" class="edge">
<title>Node1&#45;&gt;Node5</title>
<g id="a_edge4_Node000001_Node000005"><a xlink:title=" ">
<path fill="none" stroke="#63b8ff" d="M80.99,-276.3C99.66,-293.47 132.05,-321.26 164,-339 167.04,-340.69 170.23,-342.3 173.49,-343.83"/>
<polygon fill="#63b8ff" stroke="#63b8ff" points="172.24,-347.1 182.8,-347.91 175.05,-340.69 172.24,-347.1"/>
</a>
</g>
</g>
<!-- Node6 -->
<g id="Node000006" class="node">
<title>Node6</title>
<g id="a_Node000006"><a xlink:href="classiii__drone_1_1perception_1_1SingleLine.html#aeb05d9d3ca876e323a7e46b228d63e0c" target="_top" xlink:title="position getter.">
<polygon fill="white" stroke="#666666" points="290.5,-330 172.5,-330 172.5,-300 290.5,-300 290.5,-330"/>
<text text-anchor="start" x="180.5" y="-318" font-family="Helvetica,sans-Serif" font-size="10.00">iii_drone::perception</text>
<text text-anchor="middle" x="231.5" y="-307" font-family="Helvetica,sans-Serif" font-size="10.00">::SingleLine::position</text>
</a>
</g>
</g>
<!-- Node1&#45;&gt;Node6 -->
<g id="edge5_Node000001_Node000006" class="edge">
<title>Node1&#45;&gt;Node6</title>
<g id="a_edge5_Node000001_Node000006"><a xlink:title=" ">
<path fill="none" stroke="#63b8ff" d="M111.1,-276.04C130.83,-282.48 154.05,-290.06 174.74,-296.81"/>
<polygon fill="#63b8ff" stroke="#63b8ff" points="173.77,-300.17 184.36,-299.95 175.94,-293.52 173.77,-300.17"/>
</a>
</g>
</g>
<!-- Node7 -->
<g id="Node000007" class="node">
<title>Node7</title>
<g id="a_Node000007"><a xlink:href="classiii__drone_1_1perception_1_1SingleLine.html#af2502bc0e92367c2345da34d912b9edf" target="_top" xlink:title="projected_position getter.">
<polygon fill="white" stroke="#666666" points="294,-281.5 169,-281.5 169,-240.5 294,-240.5 294,-281.5"/>
<text text-anchor="start" x="177" y="-269.5" font-family="Helvetica,sans-Serif" font-size="10.00">iii_drone::perception</text>
<text text-anchor="start" x="177" y="-258.5" font-family="Helvetica,sans-Serif" font-size="10.00">::SingleLine::projected</text>
<text text-anchor="middle" x="231.5" y="-247.5" font-family="Helvetica,sans-Serif" font-size="10.00">_position</text>
</a>
</g>
</g>
<!-- Node1&#45;&gt;Node7 -->
<g id="edge6_Node000001_Node000007" class="edge">
<title>Node1&#45;&gt;Node7</title>
<g id="a_edge6_Node000001_Node000007"><a xlink:title=" ">
<path fill="none" stroke="#63b8ff" d="M128.04,-261C138.04,-261 148.45,-261 158.64,-261"/>
<polygon fill="#63b8ff" stroke="#63b8ff" points="158.73,-264.5 168.73,-261 158.73,-257.5 158.73,-264.5"/>
</a>
</g>
</g>
<!-- Node8 -->
<g id="Node000008" class="node">
<title>Node8</title>
<g id="a_Node000008"><a xlink:href="classiii__drone_1_1perception_1_1SingleLine.html#a49650269a9ab4cdd4fa225534700a21e" target="_top" xlink:title="quaternion getter.">
<polygon fill="white" stroke="#666666" points="297,-222 166,-222 166,-192 297,-192 297,-222"/>
<text text-anchor="start" x="174" y="-210" font-family="Helvetica,sans-Serif" font-size="10.00">iii_drone::perception</text>
<text text-anchor="middle" x="231.5" y="-199" font-family="Helvetica,sans-Serif" font-size="10.00">::SingleLine::quaternion</text>
</a>
</g>
</g>
<!-- Node1&#45;&gt;Node8 -->
<g id="edge7_Node000001_Node000008" class="edge">
<title>Node1&#45;&gt;Node8</title>
<g id="a_edge7_Node000001_Node000008"><a xlink:title=" ">
<path fill="none" stroke="#63b8ff" d="M111.1,-245.96C130.83,-239.52 154.05,-231.94 174.74,-225.19"/>
<polygon fill="#63b8ff" stroke="#63b8ff" points="175.94,-228.48 184.36,-222.05 173.77,-221.83 175.94,-228.48"/>
</a>
</g>
</g>
<!-- Node9 -->
<g id="Node000009" class="node">
<title>Node9</title>
<g id="a_Node000009"><a xlink:href="classiii__drone_1_1perception_1_1SingleLine.html#affa629468056b5ad8c8ac57dd6d93425" target="_top" xlink:title="Stamp getter.">
<polygon fill="white" stroke="#666666" points="289.5,-174 173.5,-174 173.5,-144 289.5,-144 289.5,-174"/>
<text text-anchor="start" x="181.5" y="-162" font-family="Helvetica,sans-Serif" font-size="10.00">iii_drone::perception</text>
<text text-anchor="middle" x="231.5" y="-151" font-family="Helvetica,sans-Serif" font-size="10.00">::SingleLine::stamp</text>
</a>
</g>
</g>
<!-- Node1&#45;&gt;Node9 -->
<g id="edge8_Node000001_Node000009" class="edge">
<title>Node1&#45;&gt;Node9</title>
<g id="a_edge8_Node000001_Node000009"><a xlink:title=" ">
<path fill="none" stroke="#63b8ff" d="M80.99,-245.7C99.66,-228.53 132.05,-200.74 164,-183 167.04,-181.31 170.23,-179.7 173.49,-178.17"/>
<polygon fill="#63b8ff" stroke="#63b8ff" points="175.05,-181.31 182.8,-174.09 172.24,-174.9 175.05,-181.31"/>
</a>
</g>
</g>
<!-- Node10 -->
<g id="Node000010" class="node">
<title>Node10</title>
<g id="a_Node000010"><a xlink:href="classiii__drone_1_1perception_1_1SingleLine.html#aa3c33dcce2fe0dd81a383569d85362ba" target="_top" xlink:title="State estimate getter.">
<polygon fill="white" stroke="#666666" points="293.5,-126 169.5,-126 169.5,-96 293.5,-96 293.5,-126"/>
<text text-anchor="start" x="177.5" y="-114" font-family="Helvetica,sans-Serif" font-size="10.00">iii_drone::perception</text>
<text text-anchor="middle" x="231.5" y="-103" font-family="Helvetica,sans-Serif" font-size="10.00">::SingleLine::state_est</text>
</a>
</g>
</g>
<!-- Node1&#45;&gt;Node10 -->
<g id="edge9_Node000001_Node000010" class="edge">
<title>Node1&#45;&gt;Node10</title>
<g id="a_edge9_Node000001_Node000010"><a xlink:title=" ">
<path fill="none" stroke="#63b8ff" d="M73.04,-245.95C87.73,-219.79 121.38,-165.79 164,-135 166.05,-133.52 168.19,-132.13 170.41,-130.81"/>
<polygon fill="#63b8ff" stroke="#63b8ff" points="172.06,-133.9 179.25,-126.12 168.78,-127.71 172.06,-133.9"/>
</a>
</g>
</g>
<!-- Node11 -->
<g id="Node000011" class="node">
<title>Node11</title>
<g id="a_Node000011"><a xlink:href="classiii__drone_1_1perception_1_1SingleLine.html#a2ae6b6360293f666c8a10ca00fc118cc" target="_top" xlink:title="tf_buffer getter.">
<polygon fill="white" stroke="#666666" points="291.5,-78 171.5,-78 171.5,-48 291.5,-48 291.5,-78"/>
<text text-anchor="start" x="179.5" y="-66" font-family="Helvetica,sans-Serif" font-size="10.00">iii_drone::perception</text>
<text text-anchor="middle" x="231.5" y="-55" font-family="Helvetica,sans-Serif" font-size="10.00">::SingleLine::tf_buffer</text>
</a>
</g>
</g>
<!-- Node1&#45;&gt;Node11 -->
<g id="edge10_Node000001_Node000011" class="edge">
<title>Node1&#45;&gt;Node11</title>
<g id="a_edge10_Node000001_Node000011"><a xlink:title=" ">
<path fill="none" stroke="#63b8ff" d="M69.59,-245.84C80.47,-212.39 110.96,-131.66 164,-87 165.51,-85.73 167.1,-84.52 168.75,-83.37"/>
<polygon fill="#63b8ff" stroke="#63b8ff" points="170.64,-86.31 177.38,-78.14 167.02,-80.32 170.64,-86.31"/>
</a>
</g>
</g>
<!-- Node12 -->
<g id="Node000012" class="node">
<title>Node12</title>
<g id="a_Node000012"><a xlink:href="classiii__drone_1_1perception_1_1SingleLine.html#a5b9b25d0f29f7de3873bb01435850ea2" target="_top" xlink:title="Variance estimate getter.">
<polygon fill="white" stroke="#666666" points="289.5,-30 173.5,-30 173.5,0 289.5,0 289.5,-30"/>
<text text-anchor="start" x="181.5" y="-18" font-family="Helvetica,sans-Serif" font-size="10.00">iii_drone::perception</text>
<text text-anchor="middle" x="231.5" y="-7" font-family="Helvetica,sans-Serif" font-size="10.00">::SingleLine::var_est</text>
</a>
</g>
</g>
<!-- Node1&#45;&gt;Node12 -->
<g id="edge11_Node000001_Node000012" class="edge">
<title>Node1&#45;&gt;Node12</title>
<g id="a_edge11_Node000001_Node000012"><a xlink:title=" ">
<path fill="none" stroke="#63b8ff" d="M67.51,-245.96C74.9,-206.39 100.17,-98.33 164,-39 165.27,-37.82 166.6,-36.7 167.98,-35.64"/>
<polygon fill="#63b8ff" stroke="#63b8ff" points="169.95,-38.53 176.37,-30.1 166.1,-32.68 169.95,-38.53"/>
</a>
</g>
</g>
</g>
</svg>
