<?xml version="1.0" encoding="UTF-8" standalone="no"?>
<!DOCTYPE svg PUBLIC "-//W3C//DTD SVG 1.1//EN"
 "http://www.w3.org/Graphics/SVG/1.1/DTD/svg11.dtd">
<!-- Generated by graphviz version 2.43.0 (0)
 -->
<!-- Title: iii_drone::control::BehaviorState::maneuver_executing Pages: 1 -->
<svg width="485pt" height="74pt"
 viewBox="0.00 0.00 485.00 74.00" xmlns="http://www.w3.org/2000/svg" xmlns:xlink="http://www.w3.org/1999/xlink">
<g id="graph0" class="graph" transform="scale(1 1) rotate(0) translate(4 70)">
<title>iii_drone::control::BehaviorState::maneuver_executing</title>
<!-- Node1 -->
<g id="Node000001" class="node">
<title>Node1</title>
<g id="a_Node000001"><a xlink:title="Get whether a maneuver is being executed.">
<polygon fill="#999999" stroke="#666666" points="147,-41 0,-41 0,0 147,0 147,-41"/>
<text text-anchor="start" x="8" y="-29" font-family="Helvetica,sans-Serif" font-size="10.00">iii_drone::control</text>
<text text-anchor="start" x="8" y="-18" font-family="Helvetica,sans-Serif" font-size="10.00">::BehaviorState::maneuver</text>
<text text-anchor="middle" x="73.5" y="-7" font-family="Helvetica,sans-Serif" font-size="10.00">_executing</text>
</a>
</g>
</g>
<!-- Node2 -->
<g id="Node000002" class="node">
<title>Node2</title>
<g id="a_Node000002"><a xlink:href="classiii__drone_1_1control_1_1BehaviorState.html#a74a7c96bc968843d24044aa448d57055" target="_top" xlink:title="Get the current maneuver.">
<polygon fill="white" stroke="#666666" points="315,-66 183,-66 183,-25 315,-25 315,-66"/>
<text text-anchor="start" x="191" y="-54" font-family="Helvetica,sans-Serif" font-size="10.00">iii_drone::control</text>
<text text-anchor="start" x="191" y="-43" font-family="Helvetica,sans-Serif" font-size="10.00">::BehaviorState::current</text>
<text text-anchor="middle" x="249" y="-32" font-family="Helvetica,sans-Serif" font-size="10.00">_maneuver</text>
</a>
</g>
</g>
<!-- Node1&#45;&gt;Node2 -->
<g id="edge1_Node000001_Node000002" class="edge">
<title>Node1&#45;&gt;Node2</title>
<g id="a_edge1_Node000001_Node000002"><a xlink:title=" ">
<path fill="none" stroke="#63b8ff" d="M147.07,-30.96C155.62,-32.19 164.35,-33.45 172.93,-34.68"/>
<polygon fill="#63b8ff" stroke="#63b8ff" points="172.5,-38.16 182.9,-36.12 173.5,-31.23 172.5,-38.16"/>
</a>
</g>
</g>
<!-- Node3 -->
<g id="Node000003" class="node">
<title>Node3</title>
<g id="a_Node000003"><a xlink:href="classiii__drone_1_1utils_1_1Atomic.html#a9f8422d86cdbb429f29c6e16c61631ee" target="_top" xlink:title="Get the value.">
<polygon fill="white" stroke="#666666" points="477,-35.5 351,-35.5 351,-5.5 477,-5.5 477,-35.5"/>
<text text-anchor="start" x="359" y="-23.5" font-family="Helvetica,sans-Serif" font-size="10.00">iii_drone::utils::Atomic</text>
<text text-anchor="middle" x="414" y="-12.5" font-family="Helvetica,sans-Serif" font-size="10.00">::Load</text>
</a>
</g>
</g>
<!-- Node1&#45;&gt;Node3 -->
<g id="edge3_Node000001_Node000003" class="edge">
<title>Node1&#45;&gt;Node3</title>
<g id="a_edge3_Node000001_Node000003"><a xlink:title=" ">
<path fill="none" stroke="#63b8ff" d="M147.15,-17.45C159.13,-17.06 171.41,-16.71 183,-16.5 241.66,-15.42 256.35,-15.3 315,-16.5 323.32,-16.67 332.04,-16.92 340.69,-17.22"/>
<polygon fill="#63b8ff" stroke="#63b8ff" points="340.68,-20.72 350.8,-17.58 340.93,-13.72 340.68,-20.72"/>
</a>
</g>
</g>
<!-- Node2&#45;&gt;Node3 -->
<g id="edge2_Node000002_Node000003" class="edge">
<title>Node2&#45;&gt;Node3</title>
<g id="a_edge2_Node000002_Node000003"><a xlink:title=" ">
<path fill="none" stroke="#63b8ff" d="M315.36,-35.48C323.76,-34.19 332.4,-32.86 340.91,-31.56"/>
<polygon fill="#63b8ff" stroke="#63b8ff" points="341.45,-35.02 350.8,-30.04 340.39,-28.1 341.45,-35.02"/>
</a>
</g>
</g>
</g>
</svg>
