<?xml version="1.0" encoding="UTF-8" standalone="no"?>
<!DOCTYPE svg PUBLIC "-//W3C//DTD SVG 1.1//EN"
 "http://www.w3.org/Graphics/SVG/1.1/DTD/svg11.dtd">
<!-- Generated by graphviz version 2.43.0 (0)
 -->
<!-- Title: /home/ffn/Workspace/ros2_humble_ws/src/III&#45;Drone&#45;Core/include/iii_drone_core/control/combined_drone_awareness_handler_parameters.hpp Pages: 1 -->
<svg width="1516pt" height="742pt"
 viewBox="0.00 0.00 1515.97 742.00" xmlns="http://www.w3.org/2000/svg" xmlns:xlink="http://www.w3.org/1999/xlink">
<g id="graph0" class="graph" transform="scale(1 1) rotate(0) translate(4 738)">
<title>/home/ffn/Workspace/ros2_humble_ws/src/III&#45;Drone&#45;Core/include/iii_drone_core/control/combined_drone_awareness_handler_parameters.hpp</title>
<!-- Node1 -->
<g id="Node000001" class="node">
<title>Node1</title>
<g id="a_Node000001"><a xlink:title=" ">
<polygon fill="#999999" stroke="#666666" points="1335.97,-734 1177.97,-734 1177.97,-660 1335.97,-660 1335.97,-734"/>
<text text-anchor="start" x="1185.97" y="-722" font-family="Helvetica,sans-Serif" font-size="10.00">/home/ffn/Workspace</text>
<text text-anchor="start" x="1185.97" y="-711" font-family="Helvetica,sans-Serif" font-size="10.00">/ros2_humble_ws/src</text>
<text text-anchor="start" x="1185.97" y="-700" font-family="Helvetica,sans-Serif" font-size="10.00">/III&#45;Drone&#45;Core/include</text>
<text text-anchor="start" x="1185.97" y="-689" font-family="Helvetica,sans-Serif" font-size="10.00">/iii_drone_core/control</text>
<text text-anchor="start" x="1185.97" y="-678" font-family="Helvetica,sans-Serif" font-size="10.00">/combined_drone_awareness</text>
<text text-anchor="middle" x="1256.97" y="-667" font-family="Helvetica,sans-Serif" font-size="10.00">_handler_parameters.hpp</text>
</a>
</g>
</g>
<!-- Node2 -->
<g id="Node000002" class="node">
<title>Node2</title>
<g id="a_Node000002"><a xlink:href="combined__drone__awareness__handler_8hpp.html" target="_top" xlink:title=" ">
<polygon fill="white" stroke="#666666" points="772.97,-618.5 614.97,-618.5 614.97,-544.5 772.97,-544.5 772.97,-618.5"/>
<text text-anchor="start" x="622.97" y="-606.5" font-family="Helvetica,sans-Serif" font-size="10.00">/home/ffn/Workspace</text>
<text text-anchor="start" x="622.97" y="-595.5" font-family="Helvetica,sans-Serif" font-size="10.00">/ros2_humble_ws/src</text>
<text text-anchor="start" x="622.97" y="-584.5" font-family="Helvetica,sans-Serif" font-size="10.00">/III&#45;Drone&#45;Core/include</text>
<text text-anchor="start" x="622.97" y="-573.5" font-family="Helvetica,sans-Serif" font-size="10.00">/iii_drone_core/control</text>
<text text-anchor="start" x="622.97" y="-562.5" font-family="Helvetica,sans-Serif" font-size="10.00">/combined_drone_awareness</text>
<text text-anchor="middle" x="693.97" y="-551.5" font-family="Helvetica,sans-Serif" font-size="10.00">_handler.hpp</text>
</a>
</g>
</g>
<!-- Node1&#45;&gt;Node2 -->
<g id="edge1_Node000001_Node000002" class="edge">
<title>Node1&#45;&gt;Node2</title>
<g id="a_edge1_Node000001_Node000002"><a xlink:title=" ">
<path fill="none" stroke="#63b8ff" d="M1167.83,-678.03C1059.13,-656.12 877.09,-619.42 773.12,-598.46"/>
<polygon fill="#63b8ff" stroke="#63b8ff" points="1167.3,-681.49 1177.79,-680.04 1168.68,-674.63 1167.3,-681.49"/>
</a>
</g>
</g>
<!-- Node21 -->
<g id="Node000021" class="node">
<title>Node21</title>
<g id="a_Node000021"><a xlink:href="maneuver__controller__node__configurator_8hpp.html" target="_top" xlink:title=" ">
<polygon fill="white" stroke="#666666" points="1331.97,-624 1181.97,-624 1181.97,-539 1331.97,-539 1331.97,-624"/>
<text text-anchor="start" x="1189.97" y="-612" font-family="Helvetica,sans-Serif" font-size="10.00">/home/ffn/Workspace</text>
<text text-anchor="start" x="1189.97" y="-601" font-family="Helvetica,sans-Serif" font-size="10.00">/ros2_humble_ws/src</text>
<text text-anchor="start" x="1189.97" y="-590" font-family="Helvetica,sans-Serif" font-size="10.00">/III&#45;Drone&#45;Core/include</text>
<text text-anchor="start" x="1189.97" y="-579" font-family="Helvetica,sans-Serif" font-size="10.00">/iii_drone_core/control</text>
<text text-anchor="start" x="1189.97" y="-568" font-family="Helvetica,sans-Serif" font-size="10.00">/maneuver_controller_node</text>
<text text-anchor="start" x="1189.97" y="-557" font-family="Helvetica,sans-Serif" font-size="10.00">/maneuver_controller_node</text>
<text text-anchor="middle" x="1256.97" y="-546" font-family="Helvetica,sans-Serif" font-size="10.00">_configurator.hpp</text>
</a>
</g>
</g>
<!-- Node1&#45;&gt;Node21 -->
<g id="edge39_Node000001_Node000021" class="edge">
<title>Node1&#45;&gt;Node21</title>
<g id="a_edge39_Node000001_Node000021"><a xlink:title=" ">
<path fill="none" stroke="#63b8ff" d="M1256.97,-649.72C1256.97,-641.31 1256.97,-632.58 1256.97,-624.31"/>
<polygon fill="#63b8ff" stroke="#63b8ff" points="1253.47,-649.78 1256.97,-659.78 1260.47,-649.78 1253.47,-649.78"/>
</a>
</g>
</g>
<!-- Node23 -->
<g id="Node000023" class="node">
<title>Node23</title>
<g id="a_Node000023"><a xlink:href="combined__drone__awareness__handler__parameters_8cpp.html" target="_top" xlink:title=" ">
<polygon fill="white" stroke="#666666" points="1507.97,-613 1349.97,-613 1349.97,-550 1507.97,-550 1507.97,-613"/>
<text text-anchor="start" x="1357.97" y="-601" font-family="Helvetica,sans-Serif" font-size="10.00">/home/ffn/Workspace</text>
<text text-anchor="start" x="1357.97" y="-590" font-family="Helvetica,sans-Serif" font-size="10.00">/ros2_humble_ws/src</text>
<text text-anchor="start" x="1357.97" y="-579" font-family="Helvetica,sans-Serif" font-size="10.00">/III&#45;Drone&#45;Core/src/control</text>
<text text-anchor="start" x="1357.97" y="-568" font-family="Helvetica,sans-Serif" font-size="10.00">/combined_drone_awareness</text>
<text text-anchor="middle" x="1428.97" y="-557" font-family="Helvetica,sans-Serif" font-size="10.00">_handler_parameters.cpp</text>
</a>
</g>
</g>
<!-- Node1&#45;&gt;Node23 -->
<g id="edge42_Node000001_Node000023" class="edge">
<title>Node1&#45;&gt;Node23</title>
<g id="a_edge42_Node000001_Node000023"><a xlink:title=" ">
<path fill="none" stroke="#63b8ff" d="M1320.28,-654.22C1340.95,-640.58 1363.49,-625.7 1382.67,-613.05"/>
<polygon fill="#63b8ff" stroke="#63b8ff" points="1318.28,-651.35 1311.86,-659.78 1322.13,-657.19 1318.28,-651.35"/>
</a>
</g>
</g>
<!-- Node3 -->
<g id="Node000003" class="node">
<title>Node3</title>
<g id="a_Node000003"><a xlink:href="flight__controller__node_8hpp.html" target="_top" xlink:title=" ">
<polygon fill="white" stroke="#666666" points="1291.97,-173 1145.97,-173 1145.97,-99 1291.97,-99 1291.97,-173"/>
<text text-anchor="start" x="1153.97" y="-161" font-family="Helvetica,sans-Serif" font-size="10.00">/home/ffn/Workspace</text>
<text text-anchor="start" x="1153.97" y="-150" font-family="Helvetica,sans-Serif" font-size="10.00">/ros2_humble_ws/src</text>
<text text-anchor="start" x="1153.97" y="-139" font-family="Helvetica,sans-Serif" font-size="10.00">/III&#45;Drone&#45;Core/include</text>
<text text-anchor="start" x="1153.97" y="-128" font-family="Helvetica,sans-Serif" font-size="10.00">/iii_drone_core/control</text>
<text text-anchor="start" x="1153.97" y="-117" font-family="Helvetica,sans-Serif" font-size="10.00">/_flight_controller_node</text>
<text text-anchor="middle" x="1218.97" y="-106" font-family="Helvetica,sans-Serif" font-size="10.00">/flight_controller_node.hpp</text>
</a>
</g>
</g>
<!-- Node2&#45;&gt;Node3 -->
<g id="edge2_Node000002_Node000003" class="edge">
<title>Node2&#45;&gt;Node3</title>
<g id="a_edge2_Node000002_Node000003"><a xlink:title=" ">
<path fill="none" stroke="#63b8ff" d="M782.98,-575.72C854.99,-568.35 956.63,-549.75 1032.97,-503 1137.65,-438.89 1156.27,-397.72 1199.97,-283 1213.57,-247.29 1217.76,-203.5 1218.9,-173.24"/>
<polygon fill="#63b8ff" stroke="#63b8ff" points="782.63,-572.23 773.02,-576.68 783.31,-579.2 782.63,-572.23"/>
</a>
</g>
</g>
<!-- Node4 -->
<g id="Node000004" class="node">
<title>Node4</title>
<g id="a_Node000004"><a xlink:href="fly__to__object__maneuver__server_8hpp.html" target="_top" xlink:title=" ">
<polygon fill="white" stroke="#666666" points="1190.97,-283 1056.97,-283 1056.97,-209 1190.97,-209 1190.97,-283"/>
<text text-anchor="start" x="1064.97" y="-271" font-family="Helvetica,sans-Serif" font-size="10.00">/home/ffn/Workspace</text>
<text text-anchor="start" x="1064.97" y="-260" font-family="Helvetica,sans-Serif" font-size="10.00">/ros2_humble_ws/src</text>
<text text-anchor="start" x="1064.97" y="-249" font-family="Helvetica,sans-Serif" font-size="10.00">/III&#45;Drone&#45;Core/include</text>
<text text-anchor="start" x="1064.97" y="-238" font-family="Helvetica,sans-Serif" font-size="10.00">/iii_drone_core/control</text>
<text text-anchor="start" x="1064.97" y="-227" font-family="Helvetica,sans-Serif" font-size="10.00">/maneuver/fly_to_object</text>
<text text-anchor="middle" x="1123.97" y="-216" font-family="Helvetica,sans-Serif" font-size="10.00">_maneuver_server.hpp</text>
</a>
</g>
</g>
<!-- Node2&#45;&gt;Node4 -->
<g id="edge3_Node000002_Node000004" class="edge">
<title>Node2&#45;&gt;Node4</title>
<g id="a_edge3_Node000002_Node000004"><a xlink:title=" ">
<path fill="none" stroke="#63b8ff" d="M782.98,-566.36C878.54,-546.03 1026.4,-498.63 1098.97,-393 1121.25,-360.57 1125.82,-314.75 1125.9,-283.14"/>
<polygon fill="#63b8ff" stroke="#63b8ff" points="782.12,-562.96 773.03,-568.42 783.53,-569.82 782.12,-562.96"/>
</a>
</g>
</g>
<!-- Node5 -->
<g id="Node000005" class="node">
<title>Node5</title>
<g id="a_Node000005"><a xlink:href="maneuver__controller__node_8hpp.html" target="_top" xlink:title=" ">
<polygon fill="white" stroke="#666666" points="675.47,-173 504.47,-173 504.47,-99 675.47,-99 675.47,-173"/>
<text text-anchor="start" x="512.47" y="-161" font-family="Helvetica,sans-Serif" font-size="10.00">/home/ffn/Workspace</text>
<text text-anchor="start" x="512.47" y="-150" font-family="Helvetica,sans-Serif" font-size="10.00">/ros2_humble_ws/src</text>
<text text-anchor="start" x="512.47" y="-139" font-family="Helvetica,sans-Serif" font-size="10.00">/III&#45;Drone&#45;Core/include</text>
<text text-anchor="start" x="512.47" y="-128" font-family="Helvetica,sans-Serif" font-size="10.00">/iii_drone_core/control</text>
<text text-anchor="start" x="512.47" y="-117" font-family="Helvetica,sans-Serif" font-size="10.00">/maneuver_controller_node</text>
<text text-anchor="middle" x="589.97" y="-106" font-family="Helvetica,sans-Serif" font-size="10.00">/maneuver_controller_node.hpp</text>
</a>
</g>
</g>
<!-- Node2&#45;&gt;Node5 -->
<g id="edge37_Node000002_Node000005" class="edge">
<title>Node2&#45;&gt;Node5</title>
<g id="a_edge37_Node000002_Node000005"><a xlink:title=" ">
<path fill="none" stroke="#63b8ff" d="M604.58,-574.41C479.7,-564.61 260.61,-542.35 191.97,-503 82.6,-440.31 55.18,-401.77 12.97,-283 1.95,-252.01 -8.8,-233.65 12.97,-209 29.05,-190.78 347.61,-159.21 504.35,-144.7"/>
<polygon fill="#63b8ff" stroke="#63b8ff" points="604.64,-577.93 614.88,-575.21 605.18,-570.95 604.64,-577.93"/>
</a>
</g>
</g>
<!-- Node8 -->
<g id="Node000008" class="node">
<title>Node8</title>
<g id="a_Node000008"><a xlink:href="fly__to__position__maneuver__server_8hpp.html" target="_top" xlink:title=" ">
<polygon fill="white" stroke="#666666" points="165.47,-283 22.47,-283 22.47,-209 165.47,-209 165.47,-283"/>
<text text-anchor="start" x="30.47" y="-271" font-family="Helvetica,sans-Serif" font-size="10.00">/home/ffn/Workspace</text>
<text text-anchor="start" x="30.47" y="-260" font-family="Helvetica,sans-Serif" font-size="10.00">/ros2_humble_ws/src</text>
<text text-anchor="start" x="30.47" y="-249" font-family="Helvetica,sans-Serif" font-size="10.00">/III&#45;Drone&#45;Core/include</text>
<text text-anchor="start" x="30.47" y="-238" font-family="Helvetica,sans-Serif" font-size="10.00">/iii_drone_core/control</text>
<text text-anchor="start" x="30.47" y="-227" font-family="Helvetica,sans-Serif" font-size="10.00">/maneuver/fly_to_position</text>
<text text-anchor="middle" x="93.97" y="-216" font-family="Helvetica,sans-Serif" font-size="10.00">_maneuver_server.hpp</text>
</a>
</g>
</g>
<!-- Node2&#45;&gt;Node8 -->
<g id="edge7_Node000002_Node000008" class="edge">
<title>Node2&#45;&gt;Node8</title>
<g id="a_edge7_Node000002_Node000008"><a xlink:title=" ">
<path fill="none" stroke="#63b8ff" d="M604.36,-574.09C485.04,-560.72 275.1,-519.55 154.97,-393 125.75,-362.22 109.58,-315.41 101.35,-283.14"/>
<polygon fill="#63b8ff" stroke="#63b8ff" points="604.24,-577.6 614.56,-575.19 604.99,-570.64 604.24,-577.6"/>
</a>
</g>
</g>
<!-- Node10 -->
<g id="Node000010" class="node">
<title>Node10</title>
<g id="a_Node000010"><a xlink:href="hover__by__object__maneuver__server_8hpp.html" target="_top" xlink:title=" ">
<polygon fill="white" stroke="#666666" points="1057.97,-393 905.97,-393 905.97,-319 1057.97,-319 1057.97,-393"/>
<text text-anchor="start" x="913.97" y="-381" font-family="Helvetica,sans-Serif" font-size="10.00">/home/ffn/Workspace</text>
<text text-anchor="start" x="913.97" y="-370" font-family="Helvetica,sans-Serif" font-size="10.00">/ros2_humble_ws/src</text>
<text text-anchor="start" x="913.97" y="-359" font-family="Helvetica,sans-Serif" font-size="10.00">/III&#45;Drone&#45;Core/include</text>
<text text-anchor="start" x="913.97" y="-348" font-family="Helvetica,sans-Serif" font-size="10.00">/iii_drone_core/control</text>
<text text-anchor="start" x="913.97" y="-337" font-family="Helvetica,sans-Serif" font-size="10.00">/maneuver/hover_by_object</text>
<text text-anchor="middle" x="981.97" y="-326" font-family="Helvetica,sans-Serif" font-size="10.00">_maneuver_server.hpp</text>
</a>
</g>
</g>
<!-- Node2&#45;&gt;Node10 -->
<g id="edge10_Node000002_Node000010" class="edge">
<title>Node2&#45;&gt;Node10</title>
<g id="a_edge10_Node000002_Node000010"><a xlink:title=" ">
<path fill="none" stroke="#63b8ff" d="M687.2,-534.09C685.08,-500.96 688.21,-457.4 712.97,-429 714.61,-427.11 826.89,-397.49 905.85,-376.83"/>
<polygon fill="#63b8ff" stroke="#63b8ff" points="683.75,-534.77 688.05,-544.45 690.72,-534.2 683.75,-534.77"/>
</a>
</g>
</g>
<!-- Node11 -->
<g id="Node000011" class="node">
<title>Node11</title>
<g id="a_Node000011"><a xlink:href="maneuver__scheduler_8hpp.html" target="_top" xlink:title=" ">
<polygon fill="white" stroke="#666666" points="830.97,-277.5 636.97,-277.5 636.97,-214.5 830.97,-214.5 830.97,-277.5"/>
<text text-anchor="start" x="644.97" y="-265.5" font-family="Helvetica,sans-Serif" font-size="10.00">/home/ffn/Workspace</text>
<text text-anchor="start" x="644.97" y="-254.5" font-family="Helvetica,sans-Serif" font-size="10.00">/ros2_humble_ws/src</text>
<text text-anchor="start" x="644.97" y="-243.5" font-family="Helvetica,sans-Serif" font-size="10.00">/III&#45;Drone&#45;Core/include</text>
<text text-anchor="start" x="644.97" y="-232.5" font-family="Helvetica,sans-Serif" font-size="10.00">/iii_drone_core/control</text>
<text text-anchor="middle" x="733.97" y="-221.5" font-family="Helvetica,sans-Serif" font-size="10.00">/maneuver/maneuver_scheduler.hpp</text>
</a>
</g>
</g>
<!-- Node2&#45;&gt;Node11 -->
<g id="edge27_Node000002_Node000011" class="edge">
<title>Node2&#45;&gt;Node11</title>
<g id="a_edge27_Node000002_Node000011"><a xlink:title=" ">
<path fill="none" stroke="#63b8ff" d="M783.22,-567.86C822.52,-557.36 865.11,-538.15 888.97,-503 936.36,-433.16 895.91,-383.92 841.97,-319 828.5,-302.79 810.46,-288.82 792.99,-277.61"/>
<polygon fill="#63b8ff" stroke="#63b8ff" points="782.16,-564.51 773.31,-570.34 783.86,-571.3 782.16,-564.51"/>
</a>
</g>
</g>
<!-- Node14 -->
<g id="Node000014" class="node">
<title>Node14</title>
<g id="a_Node000014"><a xlink:href="hover__maneuver__server_8hpp.html" target="_top" xlink:title=" ">
<polygon fill="white" stroke="#666666" points="413.47,-393 258.47,-393 258.47,-319 413.47,-319 413.47,-393"/>
<text text-anchor="start" x="266.47" y="-381" font-family="Helvetica,sans-Serif" font-size="10.00">/home/ffn/Workspace</text>
<text text-anchor="start" x="266.47" y="-370" font-family="Helvetica,sans-Serif" font-size="10.00">/ros2_humble_ws/src</text>
<text text-anchor="start" x="266.47" y="-359" font-family="Helvetica,sans-Serif" font-size="10.00">/III&#45;Drone&#45;Core/include</text>
<text text-anchor="start" x="266.47" y="-348" font-family="Helvetica,sans-Serif" font-size="10.00">/iii_drone_core/control</text>
<text text-anchor="start" x="266.47" y="-337" font-family="Helvetica,sans-Serif" font-size="10.00">/maneuver/hover_maneuver</text>
<text text-anchor="middle" x="335.97" y="-326" font-family="Helvetica,sans-Serif" font-size="10.00">_server.hpp</text>
</a>
</g>
</g>
<!-- Node2&#45;&gt;Node14 -->
<g id="edge18_Node000002_Node000014" class="edge">
<title>Node2&#45;&gt;Node14</title>
<g id="a_edge18_Node000002_Node000014"><a xlink:title=" ">
<path fill="none" stroke="#63b8ff" d="M605.06,-562.2C560.19,-550.18 506.43,-531.31 463.97,-503 420.21,-473.83 382.25,-426 359.27,-393.08"/>
<polygon fill="#63b8ff" stroke="#63b8ff" points="604.22,-565.6 614.78,-564.74 605.99,-558.83 604.22,-565.6"/>
</a>
</g>
</g>
<!-- Node16 -->
<g id="Node000016" class="node">
<title>Node16</title>
<g id="a_Node000016"><a xlink:href="hover__on__cable__maneuver__server_8hpp.html" target="_top" xlink:title=" ">
<polygon fill="white" stroke="#666666" points="580.47,-393 431.47,-393 431.47,-319 580.47,-319 580.47,-393"/>
<text text-anchor="start" x="439.47" y="-381" font-family="Helvetica,sans-Serif" font-size="10.00">/home/ffn/Workspace</text>
<text text-anchor="start" x="439.47" y="-370" font-family="Helvetica,sans-Serif" font-size="10.00">/ros2_humble_ws/src</text>
<text text-anchor="start" x="439.47" y="-359" font-family="Helvetica,sans-Serif" font-size="10.00">/III&#45;Drone&#45;Core/include</text>
<text text-anchor="start" x="439.47" y="-348" font-family="Helvetica,sans-Serif" font-size="10.00">/iii_drone_core/control</text>
<text text-anchor="start" x="439.47" y="-337" font-family="Helvetica,sans-Serif" font-size="10.00">/maneuver/hover_on_cable</text>
<text text-anchor="middle" x="505.97" y="-326" font-family="Helvetica,sans-Serif" font-size="10.00">_maneuver_server.hpp</text>
</a>
</g>
</g>
<!-- Node2&#45;&gt;Node16 -->
<g id="edge23_Node000002_Node000016" class="edge">
<title>Node2&#45;&gt;Node16</title>
<g id="a_edge23_Node000002_Node000016"><a xlink:title=" ">
<path fill="none" stroke="#63b8ff" d="M604.91,-572.23C559.27,-562.96 507.44,-543.53 478.97,-503 456.29,-470.73 470.37,-424.88 485.36,-393.21"/>
<polygon fill="#63b8ff" stroke="#63b8ff" points="604.37,-575.69 614.84,-574.11 605.67,-568.81 604.37,-575.69"/>
</a>
</g>
</g>
<!-- Node18 -->
<g id="Node000018" class="node">
<title>Node18</title>
<g id="a_Node000018"><a xlink:href="maneuver__server_8hpp.html" target="_top" xlink:title=" ">
<polygon fill="white" stroke="#666666" points="665.97,-497.5 487.97,-497.5 487.97,-434.5 665.97,-434.5 665.97,-497.5"/>
<text text-anchor="start" x="495.97" y="-485.5" font-family="Helvetica,sans-Serif" font-size="10.00">/home/ffn/Workspace</text>
<text text-anchor="start" x="495.97" y="-474.5" font-family="Helvetica,sans-Serif" font-size="10.00">/ros2_humble_ws/src</text>
<text text-anchor="start" x="495.97" y="-463.5" font-family="Helvetica,sans-Serif" font-size="10.00">/III&#45;Drone&#45;Core/include</text>
<text text-anchor="start" x="495.97" y="-452.5" font-family="Helvetica,sans-Serif" font-size="10.00">/iii_drone_core/control</text>
<text text-anchor="middle" x="576.97" y="-441.5" font-family="Helvetica,sans-Serif" font-size="10.00">/maneuver/maneuver_server.hpp</text>
</a>
</g>
</g>
<!-- Node2&#45;&gt;Node18 -->
<g id="edge28_Node000002_Node000018" class="edge">
<title>Node2&#45;&gt;Node18</title>
<g id="a_edge28_Node000002_Node000018"><a xlink:title=" ">
<path fill="none" stroke="#63b8ff" d="M649.2,-537.08C635.62,-523.9 620.98,-509.7 608.46,-497.55"/>
<polygon fill="#63b8ff" stroke="#63b8ff" points="647.01,-539.83 656.62,-544.28 651.88,-534.8 647.01,-539.83"/>
</a>
</g>
</g>
<!-- Node20 -->
<g id="Node000020" class="node">
<title>Node20</title>
<g id="a_Node000020"><a xlink:href="combined__drone__awareness__handler_8cpp.html" target="_top" xlink:title=" ">
<polygon fill="white" stroke="#666666" points="879.97,-497.5 721.97,-497.5 721.97,-434.5 879.97,-434.5 879.97,-497.5"/>
<text text-anchor="start" x="729.97" y="-485.5" font-family="Helvetica,sans-Serif" font-size="10.00">/home/ffn/Workspace</text>
<text text-anchor="start" x="729.97" y="-474.5" font-family="Helvetica,sans-Serif" font-size="10.00">/ros2_humble_ws/src</text>
<text text-anchor="start" x="729.97" y="-463.5" font-family="Helvetica,sans-Serif" font-size="10.00">/III&#45;Drone&#45;Core/src/control</text>
<text text-anchor="start" x="729.97" y="-452.5" font-family="Helvetica,sans-Serif" font-size="10.00">/combined_drone_awareness</text>
<text text-anchor="middle" x="800.97" y="-441.5" font-family="Helvetica,sans-Serif" font-size="10.00">_handler.cpp</text>
</a>
</g>
</g>
<!-- Node2&#45;&gt;Node20 -->
<g id="edge38_Node000002_Node000020" class="edge">
<title>Node2&#45;&gt;Node20</title>
<g id="a_edge38_Node000002_Node000020"><a xlink:title=" ">
<path fill="none" stroke="#63b8ff" d="M735.25,-536.71C747.58,-523.63 760.82,-509.59 772.16,-497.55"/>
<polygon fill="#63b8ff" stroke="#63b8ff" points="732.43,-534.6 728.12,-544.28 737.52,-539.4 732.43,-534.6"/>
</a>
</g>
</g>
<!-- Node4&#45;&gt;Node5 -->
<g id="edge4_Node000004_Node000005" class="edge">
<title>Node4&#45;&gt;Node5</title>
<g id="a_edge4_Node000004_Node000005"><a xlink:title=" ">
<path fill="none" stroke="#63b8ff" d="M1046.87,-209.04C889.69,-167.45 839.56,-209.29 684.97,-173 681.88,-172.27 678.75,-171.47 675.61,-170.61"/>
<polygon fill="#63b8ff" stroke="#63b8ff" points="1046.32,-212.51 1056.88,-211.76 1048.15,-205.76 1046.32,-212.51"/>
</a>
</g>
</g>
<!-- Node7 -->
<g id="Node000007" class="node">
<title>Node7</title>
<g id="a_Node000007"><a xlink:href="fly__to__object__maneuver__server_8cpp.html" target="_top" xlink:title=" ">
<polygon fill="white" stroke="#666666" points="1127.47,-167.5 938.47,-167.5 938.47,-104.5 1127.47,-104.5 1127.47,-167.5"/>
<text text-anchor="start" x="946.47" y="-155.5" font-family="Helvetica,sans-Serif" font-size="10.00">/home/ffn/Workspace</text>
<text text-anchor="start" x="946.47" y="-144.5" font-family="Helvetica,sans-Serif" font-size="10.00">/ros2_humble_ws/src</text>
<text text-anchor="start" x="946.47" y="-133.5" font-family="Helvetica,sans-Serif" font-size="10.00">/III&#45;Drone&#45;Core/src/control</text>
<text text-anchor="start" x="946.47" y="-122.5" font-family="Helvetica,sans-Serif" font-size="10.00">/maneuver/fly_to_object_maneuver</text>
<text text-anchor="middle" x="1032.97" y="-111.5" font-family="Helvetica,sans-Serif" font-size="10.00">_server.cpp</text>
</a>
</g>
</g>
<!-- Node4&#45;&gt;Node7 -->
<g id="edge6_Node000004_Node000007" class="edge">
<title>Node4&#45;&gt;Node7</title>
<g id="a_edge6_Node000004_Node000007"><a xlink:title=" ">
<path fill="none" stroke="#63b8ff" d="M1086.96,-201.08C1077.48,-189.83 1067.5,-177.99 1058.73,-167.58"/>
<polygon fill="#63b8ff" stroke="#63b8ff" points="1084.29,-203.35 1093.41,-208.74 1089.64,-198.83 1084.29,-203.35"/>
</a>
</g>
</g>
<!-- Node6 -->
<g id="Node000006" class="node">
<title>Node6</title>
<g id="a_Node000006"><a xlink:href="maneuver__controller__node_8cpp.html" target="_top" xlink:title=" ">
<polygon fill="white" stroke="#666666" points="674.97,-63 504.97,-63 504.97,0 674.97,0 674.97,-63"/>
<text text-anchor="start" x="512.97" y="-51" font-family="Helvetica,sans-Serif" font-size="10.00">/home/ffn/Workspace</text>
<text text-anchor="start" x="512.97" y="-40" font-family="Helvetica,sans-Serif" font-size="10.00">/ros2_humble_ws/src</text>
<text text-anchor="start" x="512.97" y="-29" font-family="Helvetica,sans-Serif" font-size="10.00">/III&#45;Drone&#45;Core/src/control</text>
<text text-anchor="start" x="512.97" y="-18" font-family="Helvetica,sans-Serif" font-size="10.00">/maneuver_controller_node</text>
<text text-anchor="middle" x="589.97" y="-7" font-family="Helvetica,sans-Serif" font-size="10.00">/maneuver_controller_node.cpp</text>
</a>
</g>
</g>
<!-- Node5&#45;&gt;Node6 -->
<g id="edge5_Node000005_Node000006" class="edge">
<title>Node5&#45;&gt;Node6</title>
<g id="a_edge5_Node000005_Node000006"><a xlink:title=" ">
<path fill="none" stroke="#63b8ff" d="M589.97,-88.83C589.97,-80.15 589.97,-71.28 589.97,-63.22"/>
<polygon fill="#63b8ff" stroke="#63b8ff" points="586.47,-88.86 589.97,-98.86 593.47,-88.86 586.47,-88.86"/>
</a>
</g>
</g>
<!-- Node8&#45;&gt;Node5 -->
<g id="edge8_Node000008_Node000005" class="edge">
<title>Node8&#45;&gt;Node5</title>
<g id="a_edge8_Node000008_Node000005"><a xlink:title=" ">
<path fill="none" stroke="#63b8ff" d="M175.47,-208.75C292.85,-173.77 421.64,-155.04 504.45,-145.44"/>
<polygon fill="#63b8ff" stroke="#63b8ff" points="174.15,-205.5 165.59,-211.74 176.18,-212.2 174.15,-205.5"/>
</a>
</g>
</g>
<!-- Node9 -->
<g id="Node000009" class="node">
<title>Node9</title>
<g id="a_Node000009"><a xlink:href="fly__to__position__maneuver__server_8cpp.html" target="_top" xlink:title=" ">
<polygon fill="white" stroke="#666666" points="165.47,-167.5 22.47,-167.5 22.47,-104.5 165.47,-104.5 165.47,-167.5"/>
<text text-anchor="start" x="30.47" y="-155.5" font-family="Helvetica,sans-Serif" font-size="10.00">/home/ffn/Workspace</text>
<text text-anchor="start" x="30.47" y="-144.5" font-family="Helvetica,sans-Serif" font-size="10.00">/ros2_humble_ws/src</text>
<text text-anchor="start" x="30.47" y="-133.5" font-family="Helvetica,sans-Serif" font-size="10.00">/III&#45;Drone&#45;Core/src/control</text>
<text text-anchor="start" x="30.47" y="-122.5" font-family="Helvetica,sans-Serif" font-size="10.00">/maneuver/fly_to_position</text>
<text text-anchor="middle" x="93.97" y="-111.5" font-family="Helvetica,sans-Serif" font-size="10.00">_maneuver_server.cpp</text>
</a>
</g>
</g>
<!-- Node8&#45;&gt;Node9 -->
<g id="edge9_Node000008_Node000009" class="edge">
<title>Node8&#45;&gt;Node9</title>
<g id="a_edge9_Node000008_Node000009"><a xlink:title=" ">
<path fill="none" stroke="#63b8ff" d="M93.97,-198.47C93.97,-188.02 93.97,-177.19 93.97,-167.58"/>
<polygon fill="#63b8ff" stroke="#63b8ff" points="90.47,-198.74 93.97,-208.74 97.47,-198.74 90.47,-198.74"/>
</a>
</g>
</g>
<!-- Node10&#45;&gt;Node4 -->
<g id="edge11_Node000010_Node000004" class="edge">
<title>Node10&#45;&gt;Node4</title>
<g id="a_edge11_Node000010_Node000004"><a xlink:title=" ">
<path fill="none" stroke="#63b8ff" d="M1037.86,-312.49C1050.53,-302.85 1063.87,-292.71 1076.17,-283.35"/>
<polygon fill="#63b8ff" stroke="#63b8ff" points="1035.49,-309.9 1029.64,-318.74 1039.72,-315.47 1035.49,-309.9"/>
</a>
</g>
</g>
<!-- Node10&#45;&gt;Node5 -->
<g id="edge16_Node000010_Node000005" class="edge">
<title>Node10&#45;&gt;Node5</title>
<g id="a_edge16_Node000010_Node000005"><a xlink:title=" ">
<path fill="none" stroke="#63b8ff" d="M910.83,-312.82C899,-303.91 887.49,-293.87 877.97,-283 853.59,-255.2 869.12,-231.74 839.97,-209 784.2,-165.51 752.63,-193.58 684.97,-173 681.84,-172.05 678.68,-171.05 675.49,-170.01"/>
<polygon fill="#63b8ff" stroke="#63b8ff" points="908.91,-315.75 919.05,-318.81 913.03,-310.1 908.91,-315.75"/>
</a>
</g>
</g>
<!-- Node10&#45;&gt;Node11 -->
<g id="edge12_Node000010_Node000011" class="edge">
<title>Node10&#45;&gt;Node11</title>
<g id="a_edge12_Node000010_Node000011"><a xlink:title=" ">
<path fill="none" stroke="#63b8ff" d="M896.66,-317.85C866.58,-304.75 833.13,-290.18 804.42,-277.68"/>
<polygon fill="#63b8ff" stroke="#63b8ff" points="895.31,-321.08 905.87,-321.86 898.1,-314.66 895.31,-321.08"/>
</a>
</g>
</g>
<!-- Node13 -->
<g id="Node000013" class="node">
<title>Node13</title>
<g id="a_Node000013"><a xlink:href="hover__by__object__maneuver__server_8cpp.html" target="_top" xlink:title=" ">
<polygon fill="white" stroke="#666666" points="1038.97,-277.5 886.97,-277.5 886.97,-214.5 1038.97,-214.5 1038.97,-277.5"/>
<text text-anchor="start" x="894.97" y="-265.5" font-family="Helvetica,sans-Serif" font-size="10.00">/home/ffn/Workspace</text>
<text text-anchor="start" x="894.97" y="-254.5" font-family="Helvetica,sans-Serif" font-size="10.00">/ros2_humble_ws/src</text>
<text text-anchor="start" x="894.97" y="-243.5" font-family="Helvetica,sans-Serif" font-size="10.00">/III&#45;Drone&#45;Core/src/control</text>
<text text-anchor="start" x="894.97" y="-232.5" font-family="Helvetica,sans-Serif" font-size="10.00">/maneuver/hover_by_object</text>
<text text-anchor="middle" x="962.97" y="-221.5" font-family="Helvetica,sans-Serif" font-size="10.00">_maneuver_server.cpp</text>
</a>
</g>
</g>
<!-- Node10&#45;&gt;Node13 -->
<g id="edge17_Node000010_Node000013" class="edge">
<title>Node10&#45;&gt;Node13</title>
<g id="a_edge17_Node000010_Node000013"><a xlink:title=" ">
<path fill="none" stroke="#63b8ff" d="M973.84,-308.8C971.98,-298.25 970.05,-287.29 968.35,-277.58"/>
<polygon fill="#63b8ff" stroke="#63b8ff" points="970.41,-309.49 975.59,-318.74 977.3,-308.28 970.41,-309.49"/>
</a>
</g>
</g>
<!-- Node11&#45;&gt;Node3 -->
<g id="edge13_Node000011_Node000003" class="edge">
<title>Node11&#45;&gt;Node3</title>
<g id="a_edge13_Node000011_Node000003"><a xlink:title=" ">
<path fill="none" stroke="#63b8ff" d="M841.14,-216.87C853.52,-214.02 865.99,-211.32 877.97,-209 992.06,-186.87 1025.14,-204.66 1136.97,-173 1139.81,-172.2 1142.68,-171.31 1145.56,-170.37"/>
<polygon fill="#63b8ff" stroke="#63b8ff" points="840.19,-213.5 831.25,-219.18 841.78,-220.31 840.19,-213.5"/>
</a>
</g>
</g>
<!-- Node11&#45;&gt;Node5 -->
<g id="edge14_Node000011_Node000005" class="edge">
<title>Node11&#45;&gt;Node5</title>
<g id="a_edge14_Node000011_Node000005"><a xlink:title=" ">
<path fill="none" stroke="#63b8ff" d="M684.86,-208.17C669.75,-196.84 653.13,-184.37 638.08,-173.09"/>
<polygon fill="#63b8ff" stroke="#63b8ff" points="682.99,-211.14 693.09,-214.34 687.19,-205.54 682.99,-211.14"/>
</a>
</g>
</g>
<!-- Node12 -->
<g id="Node000012" class="node">
<title>Node12</title>
<g id="a_Node000012"><a xlink:href="maneuver__scheduler_8cpp.html" target="_top" xlink:title=" ">
<polygon fill="white" stroke="#666666" points="887.97,-162 693.97,-162 693.97,-110 887.97,-110 887.97,-162"/>
<text text-anchor="start" x="701.97" y="-150" font-family="Helvetica,sans-Serif" font-size="10.00">/home/ffn/Workspace</text>
<text text-anchor="start" x="701.97" y="-139" font-family="Helvetica,sans-Serif" font-size="10.00">/ros2_humble_ws/src</text>
<text text-anchor="start" x="701.97" y="-128" font-family="Helvetica,sans-Serif" font-size="10.00">/III&#45;Drone&#45;Core/src/control</text>
<text text-anchor="middle" x="790.97" y="-117" font-family="Helvetica,sans-Serif" font-size="10.00">/maneuver/maneuver_scheduler.cpp</text>
</a>
</g>
</g>
<!-- Node11&#45;&gt;Node12 -->
<g id="edge15_Node000011_Node000012" class="edge">
<title>Node11&#45;&gt;Node12</title>
<g id="a_edge15_Node000011_Node000012"><a xlink:title=" ">
<path fill="none" stroke="#63b8ff" d="M754.99,-205.17C762.56,-190.82 770.89,-175.03 777.63,-162.27"/>
<polygon fill="#63b8ff" stroke="#63b8ff" points="751.72,-203.86 750.15,-214.34 757.91,-207.13 751.72,-203.86"/>
</a>
</g>
</g>
<!-- Node14&#45;&gt;Node5 -->
<g id="edge21_Node000014_Node000005" class="edge">
<title>Node14&#45;&gt;Node5</title>
<g id="a_edge21_Node000014_Node000005"><a xlink:title=" ">
<path fill="none" stroke="#63b8ff" d="M346.81,-308.59C356.33,-271.47 370.81,-223.36 384.97,-209 416.62,-176.9 463.39,-159.08 504.27,-149.21"/>
<polygon fill="#63b8ff" stroke="#63b8ff" points="343.31,-308.17 344.27,-318.72 350.1,-309.88 343.31,-308.17"/>
</a>
</g>
</g>
<!-- Node14&#45;&gt;Node8 -->
<g id="edge19_Node000014_Node000008" class="edge">
<title>Node14&#45;&gt;Node8</title>
<g id="a_edge19_Node000014_Node000008"><a xlink:title=" ">
<path fill="none" stroke="#63b8ff" d="M248.88,-316.38C224.62,-305.6 198.26,-293.86 173.97,-283 171.19,-281.76 168.35,-280.49 165.49,-279.2"/>
<polygon fill="#63b8ff" stroke="#63b8ff" points="247.51,-319.6 258.07,-320.46 250.35,-313.21 247.51,-319.6"/>
</a>
</g>
</g>
<!-- Node14&#45;&gt;Node11 -->
<g id="edge20_Node000014_Node000011" class="edge">
<title>Node14&#45;&gt;Node11</title>
<g id="a_edge20_Node000014_Node000011"><a xlink:title=" ">
<path fill="none" stroke="#63b8ff" d="M423.31,-318.71C499.43,-294.69 577.27,-277.06 636.89,-264.98"/>
<polygon fill="#63b8ff" stroke="#63b8ff" points="422.02,-315.45 413.56,-321.83 424.15,-322.11 422.02,-315.45"/>
</a>
</g>
</g>
<!-- Node15 -->
<g id="Node000015" class="node">
<title>Node15</title>
<g id="a_Node000015"><a xlink:href="hover__maneuver__server_8cpp.html" target="_top" xlink:title=" ">
<polygon fill="white" stroke="#666666" points="338.47,-277.5 183.47,-277.5 183.47,-214.5 338.47,-214.5 338.47,-277.5"/>
<text text-anchor="start" x="191.47" y="-265.5" font-family="Helvetica,sans-Serif" font-size="10.00">/home/ffn/Workspace</text>
<text text-anchor="start" x="191.47" y="-254.5" font-family="Helvetica,sans-Serif" font-size="10.00">/ros2_humble_ws/src</text>
<text text-anchor="start" x="191.47" y="-243.5" font-family="Helvetica,sans-Serif" font-size="10.00">/III&#45;Drone&#45;Core/src/control</text>
<text text-anchor="start" x="191.47" y="-232.5" font-family="Helvetica,sans-Serif" font-size="10.00">/maneuver/hover_maneuver</text>
<text text-anchor="middle" x="260.97" y="-221.5" font-family="Helvetica,sans-Serif" font-size="10.00">_server.cpp</text>
</a>
</g>
</g>
<!-- Node14&#45;&gt;Node15 -->
<g id="edge22_Node000014_Node000015" class="edge">
<title>Node14&#45;&gt;Node15</title>
<g id="a_edge22_Node000014_Node000015"><a xlink:title=" ">
<path fill="none" stroke="#63b8ff" d="M305.01,-310.43C297.34,-299.38 289.29,-287.79 282.2,-277.58"/>
<polygon fill="#63b8ff" stroke="#63b8ff" points="302.2,-312.52 310.78,-318.74 307.95,-308.53 302.2,-312.52"/>
</a>
</g>
</g>
<!-- Node16&#45;&gt;Node5 -->
<g id="edge25_Node000016_Node000005" class="edge">
<title>Node16&#45;&gt;Node5</title>
<g id="a_edge25_Node000016_Node000005"><a xlink:title=" ">
<path fill="none" stroke="#63b8ff" d="M537.54,-310.3C542.87,-301.52 547.96,-292.18 551.97,-283 567.63,-247.11 577.96,-203.35 583.84,-173.15"/>
<polygon fill="#63b8ff" stroke="#63b8ff" points="534.52,-308.54 532.17,-318.87 540.45,-312.26 534.52,-308.54"/>
</a>
</g>
</g>
<!-- Node16&#45;&gt;Node11 -->
<g id="edge24_Node000016_Node000011" class="edge">
<title>Node16&#45;&gt;Node11</title>
<g id="a_edge24_Node000016_Node000011"><a xlink:title=" ">
<path fill="none" stroke="#63b8ff" d="M589.82,-315.28C616.12,-302.82 644.74,-289.27 669.48,-277.54"/>
<polygon fill="#63b8ff" stroke="#63b8ff" points="588.16,-312.19 580.62,-319.64 591.16,-318.52 588.16,-312.19"/>
</a>
</g>
</g>
<!-- Node17 -->
<g id="Node000017" class="node">
<title>Node17</title>
<g id="a_Node000017"><a xlink:href="hover__on__cable__maneuver__server_8cpp.html" target="_top" xlink:title=" ">
<polygon fill="white" stroke="#666666" points="543.47,-277.5 394.47,-277.5 394.47,-214.5 543.47,-214.5 543.47,-277.5"/>
<text text-anchor="start" x="402.47" y="-265.5" font-family="Helvetica,sans-Serif" font-size="10.00">/home/ffn/Workspace</text>
<text text-anchor="start" x="402.47" y="-254.5" font-family="Helvetica,sans-Serif" font-size="10.00">/ros2_humble_ws/src</text>
<text text-anchor="start" x="402.47" y="-243.5" font-family="Helvetica,sans-Serif" font-size="10.00">/III&#45;Drone&#45;Core/src/control</text>
<text text-anchor="start" x="402.47" y="-232.5" font-family="Helvetica,sans-Serif" font-size="10.00">/maneuver/hover_on_cable</text>
<text text-anchor="middle" x="468.97" y="-221.5" font-family="Helvetica,sans-Serif" font-size="10.00">_maneuver_server.cpp</text>
</a>
</g>
</g>
<!-- Node16&#45;&gt;Node17 -->
<g id="edge26_Node000016_Node000017" class="edge">
<title>Node16&#45;&gt;Node17</title>
<g id="a_edge26_Node000016_Node000017"><a xlink:title=" ">
<path fill="none" stroke="#63b8ff" d="M490.25,-309.12C486.6,-298.47 482.8,-287.39 479.44,-277.58"/>
<polygon fill="#63b8ff" stroke="#63b8ff" points="486.99,-310.41 493.54,-318.74 493.61,-308.14 486.99,-310.41"/>
</a>
</g>
</g>
<!-- Node18&#45;&gt;Node4 -->
<g id="edge29_Node000018_Node000004" class="edge">
<title>Node18&#45;&gt;Node4</title>
<g id="a_edge29_Node000018_Node000004"><a xlink:title=" ">
<path fill="none" stroke="#63b8ff" d="M676.01,-436.85C688.39,-433.9 700.93,-431.19 712.97,-429 790.76,-414.84 1004.02,-440.85 1066.97,-393 1085,-379.29 1103.69,-321.66 1114.55,-283.03"/>
<polygon fill="#63b8ff" stroke="#63b8ff" points="675.02,-433.49 666.13,-439.26 676.67,-440.29 675.02,-433.49"/>
</a>
</g>
</g>
<!-- Node18&#45;&gt;Node5 -->
<g id="edge35_Node000018_Node000005" class="edge">
<title>Node18&#45;&gt;Node5</title>
<g id="a_edge35_Node000018_Node000005"><a xlink:title=" ">
<path fill="none" stroke="#63b8ff" d="M584.91,-424.4C586.58,-414.19 588.1,-403.23 588.97,-393 595.59,-314.84 593.55,-222.76 591.65,-173.12"/>
<polygon fill="#63b8ff" stroke="#63b8ff" points="581.45,-423.86 583.2,-434.31 588.35,-425.04 581.45,-423.86"/>
</a>
</g>
</g>
<!-- Node18&#45;&gt;Node8 -->
<g id="edge30_Node000018_Node000008" class="edge">
<title>Node18&#45;&gt;Node8</title>
<g id="a_edge30_Node000018_Node000008"><a xlink:title=" ">
<path fill="none" stroke="#63b8ff" d="M477.73,-457.18C410.07,-448.59 320.19,-430.61 248.97,-393 197.48,-365.81 150.67,-316.82 122.28,-283.14"/>
<polygon fill="#63b8ff" stroke="#63b8ff" points="477.61,-460.7 487.96,-458.43 478.46,-453.75 477.61,-460.7"/>
</a>
</g>
</g>
<!-- Node18&#45;&gt;Node10 -->
<g id="edge31_Node000018_Node000010" class="edge">
<title>Node18&#45;&gt;Node10</title>
<g id="a_edge31_Node000018_Node000010"><a xlink:title=" ">
<path fill="none" stroke="#63b8ff" d="M671.4,-431.45C674.28,-430.6 677.14,-429.78 679.97,-429 756.07,-407.93 777.24,-411.7 853.97,-393 870.79,-388.9 888.74,-384.11 905.71,-379.39"/>
<polygon fill="#63b8ff" stroke="#63b8ff" points="670.11,-428.18 661.56,-434.44 672.14,-434.88 670.11,-428.18"/>
</a>
</g>
</g>
<!-- Node18&#45;&gt;Node11 -->
<g id="edge34_Node000018_Node000011" class="edge">
<title>Node18&#45;&gt;Node11</title>
<g id="a_edge34_Node000018_Node000011"><a xlink:title=" ">
<path fill="none" stroke="#63b8ff" d="M672.12,-431.41C674.76,-430.59 677.38,-429.78 679.97,-429 741.88,-410.31 781.29,-444.08 820.97,-393 841.14,-367.03 834.97,-348.76 820.97,-319 813.29,-302.68 799.89,-288.79 785.88,-277.69"/>
<polygon fill="#63b8ff" stroke="#63b8ff" points="670.96,-428.11 662.49,-434.48 673.08,-434.78 670.96,-428.11"/>
</a>
</g>
</g>
<!-- Node18&#45;&gt;Node14 -->
<g id="edge32_Node000018_Node000014" class="edge">
<title>Node18&#45;&gt;Node14</title>
<g id="a_edge32_Node000018_Node000014"><a xlink:title=" ">
<path fill="none" stroke="#63b8ff" d="M499.69,-430.37C472.18,-418.04 441.21,-404.16 413.66,-391.82"/>
<polygon fill="#63b8ff" stroke="#63b8ff" points="498.31,-433.59 508.87,-434.48 501.18,-427.2 498.31,-433.59"/>
</a>
</g>
</g>
<!-- Node18&#45;&gt;Node16 -->
<g id="edge33_Node000018_Node000016" class="edge">
<title>Node18&#45;&gt;Node16</title>
<g id="a_edge33_Node000018_Node000016"><a xlink:title=" ">
<path fill="none" stroke="#63b8ff" d="M551.3,-425.96C544.24,-415.23 536.63,-403.64 529.69,-393.09"/>
<polygon fill="#63b8ff" stroke="#63b8ff" points="548.39,-427.91 556.81,-434.34 554.24,-424.06 548.39,-427.91"/>
</a>
</g>
</g>
<!-- Node19 -->
<g id="Node000019" class="node">
<title>Node19</title>
<g id="a_Node000019"><a xlink:href="maneuver__server_8cpp.html" target="_top" xlink:title=" ">
<polygon fill="white" stroke="#666666" points="812.47,-382 635.47,-382 635.47,-330 812.47,-330 812.47,-382"/>
<text text-anchor="start" x="643.47" y="-370" font-family="Helvetica,sans-Serif" font-size="10.00">/home/ffn/Workspace</text>
<text text-anchor="start" x="643.47" y="-359" font-family="Helvetica,sans-Serif" font-size="10.00">/ros2_humble_ws/src</text>
<text text-anchor="start" x="643.47" y="-348" font-family="Helvetica,sans-Serif" font-size="10.00">/III&#45;Drone&#45;Core/src/control</text>
<text text-anchor="middle" x="723.97" y="-337" font-family="Helvetica,sans-Serif" font-size="10.00">/maneuver/maneuver_server.cpp</text>
</a>
</g>
</g>
<!-- Node18&#45;&gt;Node19 -->
<g id="edge36_Node000018_Node000019" class="edge">
<title>Node18&#45;&gt;Node19</title>
<g id="a_edge36_Node000018_Node000019"><a xlink:title=" ">
<path fill="none" stroke="#63b8ff" d="M626.76,-428.42C647.42,-413.24 670.87,-396.01 689.57,-382.27"/>
<polygon fill="#63b8ff" stroke="#63b8ff" points="624.68,-425.6 618.7,-434.34 628.83,-431.24 624.68,-425.6"/>
</a>
</g>
</g>
<!-- Node21&#45;&gt;Node5 -->
<g id="edge40_Node000021_Node000005" class="edge">
<title>Node21&#45;&gt;Node5</title>
<g id="a_edge40_Node000021_Node000005"><a xlink:title=" ">
<path fill="none" stroke="#63b8ff" d="M1266.82,-528.97C1279.03,-447.69 1288.58,-290.59 1199.97,-209 1157.77,-170.15 740.99,-185.29 684.97,-173 681.86,-172.32 678.73,-171.56 675.58,-170.73"/>
<polygon fill="#63b8ff" stroke="#63b8ff" points="1263.34,-528.55 1265.24,-538.97 1270.25,-529.64 1263.34,-528.55"/>
</a>
</g>
</g>
<!-- Node22 -->
<g id="Node000022" class="node">
<title>Node22</title>
<g id="a_Node000022"><a xlink:href="maneuver__controller__node__configurator_8cpp.html" target="_top" xlink:title=" ">
<polygon fill="white" stroke="#666666" points="1434.97,-503 1284.97,-503 1284.97,-429 1434.97,-429 1434.97,-503"/>
<text text-anchor="start" x="1292.97" y="-491" font-family="Helvetica,sans-Serif" font-size="10.00">/home/ffn/Workspace</text>
<text text-anchor="start" x="1292.97" y="-480" font-family="Helvetica,sans-Serif" font-size="10.00">/ros2_humble_ws/src</text>
<text text-anchor="start" x="1292.97" y="-469" font-family="Helvetica,sans-Serif" font-size="10.00">/III&#45;Drone&#45;Core/src/control</text>
<text text-anchor="start" x="1292.97" y="-458" font-family="Helvetica,sans-Serif" font-size="10.00">/maneuver_controller_node</text>
<text text-anchor="start" x="1292.97" y="-447" font-family="Helvetica,sans-Serif" font-size="10.00">/maneuver_controller_node</text>
<text text-anchor="middle" x="1359.97" y="-436" font-family="Helvetica,sans-Serif" font-size="10.00">_configurator.cpp</text>
</a>
</g>
</g>
<!-- Node21&#45;&gt;Node22 -->
<g id="edge41_Node000021_Node000022" class="edge">
<title>Node21&#45;&gt;Node22</title>
<g id="a_edge41_Node000021_Node000022"><a xlink:title=" ">
<path fill="none" stroke="#63b8ff" d="M1301.59,-531.33C1310.22,-521.81 1319.13,-512 1327.29,-503"/>
<polygon fill="#63b8ff" stroke="#63b8ff" points="1298.86,-529.12 1294.73,-538.88 1304.05,-533.83 1298.86,-529.12"/>
</a>
</g>
</g>
</g>
</svg>
