<?xml version="1.0" encoding="UTF-8" standalone="no"?>
<!DOCTYPE svg PUBLIC "-//W3C//DTD SVG 1.1//EN"
 "http://www.w3.org/Graphics/SVG/1.1/DTD/svg11.dtd">
<!-- Generated by graphviz version 2.43.0 (0)
 -->
<!-- Title: /home/ffn/Workspace/ros2_humble_ws/src/III&#45;Drone&#45;Core/src/adapters/control_state_adapter.cpp Pages: 1 -->
<svg width="254pt" height="192pt"
 viewBox="0.00 0.00 253.50 192.00" xmlns="http://www.w3.org/2000/svg" xmlns:xlink="http://www.w3.org/1999/xlink">
<g id="graph0" class="graph" transform="scale(1 1) rotate(0) translate(4 188)">
<title>/home/ffn/Workspace/ros2_humble_ws/src/III&#45;Drone&#45;Core/src/adapters/control_state_adapter.cpp</title>
<!-- Node1 -->
<g id="Node000001" class="node">
<title>Node1</title>
<g id="a_Node000001"><a xlink:title=" ">
<polygon fill="#999999" stroke="#666666" points="191,-184 40,-184 40,-132 191,-132 191,-184"/>
<text text-anchor="start" x="48" y="-172" font-family="Helvetica,sans-Serif" font-size="10.00">/home/ffn/Workspace</text>
<text text-anchor="start" x="48" y="-161" font-family="Helvetica,sans-Serif" font-size="10.00">/ros2_humble_ws/src</text>
<text text-anchor="start" x="48" y="-150" font-family="Helvetica,sans-Serif" font-size="10.00">/III&#45;Drone&#45;Core/src/adapters</text>
<text text-anchor="middle" x="115.5" y="-139" font-family="Helvetica,sans-Serif" font-size="10.00">/control_state_adapter.cpp</text>
</a>
</g>
</g>
<!-- Node2 -->
<g id="Node000002" class="node">
<title>Node2</title>
<g id="a_Node000002"><a xlink:href="control__state__adapter_8hpp.html" target="_top" xlink:title=" ">
<polygon fill="white" stroke="#666666" points="188.5,-96 42.5,-96 42.5,-66 188.5,-66 188.5,-96"/>
<text text-anchor="start" x="50.5" y="-84" font-family="Helvetica,sans-Serif" font-size="10.00">iii_drone_core/adapters</text>
<text text-anchor="middle" x="115.5" y="-73" font-family="Helvetica,sans-Serif" font-size="10.00">/control_state_adapter.hpp</text>
</a>
</g>
</g>
<!-- Node1&#45;&gt;Node2 -->
<g id="edge1_Node000001_Node000002" class="edge">
<title>Node1&#45;&gt;Node2</title>
<g id="a_edge1_Node000001_Node000002"><a xlink:title=" ">
<path fill="none" stroke="#63b8ff" d="M115.5,-131.61C115.5,-123.54 115.5,-114.64 115.5,-106.63"/>
<polygon fill="#63b8ff" stroke="#63b8ff" points="119,-106.43 115.5,-96.43 112,-106.43 119,-106.43"/>
</a>
</g>
</g>
<!-- Node3 -->
<g id="Node000003" class="node">
<title>Node3</title>
<g id="a_Node000003"><a xlink:title=" ">
<polygon fill="#e0e0e0" stroke="#999999" points="99,-24.5 0,-24.5 0,-5.5 99,-5.5 99,-24.5"/>
<text text-anchor="middle" x="49.5" y="-12.5" font-family="Helvetica,sans-Serif" font-size="10.00">rclcpp/rclcpp.hpp</text>
</a>
</g>
</g>
<!-- Node2&#45;&gt;Node3 -->
<g id="edge2_Node000002_Node000003" class="edge">
<title>Node2&#45;&gt;Node3</title>
<g id="a_edge2_Node000002_Node000003"><a xlink:title=" ">
<path fill="none" stroke="#63b8ff" d="M100.85,-65.8C90.56,-55.82 76.78,-42.46 66.09,-32.09"/>
<polygon fill="#63b8ff" stroke="#63b8ff" points="68.24,-29.29 58.62,-24.84 63.36,-34.32 68.24,-29.29"/>
</a>
</g>
</g>
<!-- Node4 -->
<g id="Node000004" class="node">
<title>Node4</title>
<g id="a_Node000004"><a xlink:title=" ">
<polygon fill="#e0e0e0" stroke="#999999" points="245.5,-30 117.5,-30 117.5,0 245.5,0 245.5,-30"/>
<text text-anchor="start" x="125.5" y="-18" font-family="Helvetica,sans-Serif" font-size="10.00">iii_drone_interfaces</text>
<text text-anchor="middle" x="181.5" y="-7" font-family="Helvetica,sans-Serif" font-size="10.00">/msg/control_state.hpp</text>
</a>
</g>
</g>
<!-- Node2&#45;&gt;Node4 -->
<g id="edge3_Node000002_Node000004" class="edge">
<title>Node2&#45;&gt;Node4</title>
<g id="a_edge3_Node000002_Node000004"><a xlink:title=" ">
<path fill="none" stroke="#63b8ff" d="M130.15,-65.8C138.78,-57.43 149.86,-46.68 159.52,-37.31"/>
<polygon fill="#63b8ff" stroke="#63b8ff" points="162.15,-39.64 166.89,-30.16 157.28,-34.61 162.15,-39.64"/>
</a>
</g>
</g>
</g>
</svg>
