<?xml version="1.0" encoding="UTF-8" standalone="no"?>
<!DOCTYPE svg PUBLIC "-//W3C//DTD SVG 1.1//EN"
 "http://www.w3.org/Graphics/SVG/1.1/DTD/svg11.dtd">
<!-- Generated by graphviz version 2.43.0 (0)
 -->
<!-- Title: /home/ffn/Workspace/ros2_humble_ws/src/III&#45;Drone&#45;Core/src/mission/continuous_mission_orchestrator_node/continuous_mission_orchestrator_node.cpp Pages: 1 -->
<!--zoomable 357 -->

<svg id="main" version="1.1" xmlns="http://www.w3.org/2000/svg" xmlns:xlink="http://www.w3.org/1999/xlink" xml:space="preserve" onload="init(evt)">
<style type="text/css"><![CDATA[
.node, .edge {opacity: 0.7;}
.node.selected, .edge.selected {opacity: 1;}
.edge:hover path { stroke: red; }
.edge:hover polygon { stroke: red; fill: red; }
]]></style>

<defs>
  <circle id="rim" cx="0" cy="0" r="7"/>
  <circle id="rim2" cx="0" cy="0" r="3.5"/>
  <g id="zoomPlus">
    <use xlink:href="#rim" fill="#404040"><set attributeName="fill" to="#808080" begin="zoomplus.mouseover" end="zoomplus.mouseout"/></use>
    <path d="M-4,0h8M0,-4v8" fill="none" stroke="white" stroke-width="1.5" pointer-events="none"/>
  </g>
  <g id="zoomMin">
    <use xlink:href="#rim" fill="#404040"><set attributeName="fill" to="#808080" begin="zoomminus.mouseover" end="zoomminus.mouseout"/></use>
    <path d="M-4,0h8" fill="none" stroke="white" stroke-width="1.5" pointer-events="none"/>
  </g>
  <g id="arrowUp" transform="translate(30 24)">
    <use xlink:href="#rim"/>
    <path pointer-events="none" fill="none" stroke="white" stroke-width="1.5" d="M0,-3.0v7 M-2.5,-0.5L0,-3.0L2.5,-0.5"/>
  </g>
  <g id="arrowRight" transform="rotate(90) translate(36 -43)">
    <use xlink:href="#rim"/>
    <path pointer-events="none" fill="none" stroke="white" stroke-width="1.5" d="M0,-3.0v7 M-2.5,-0.5L0,-3.0L2.5,-0.5"/>
  </g>
  <g id="arrowDown" transform="rotate(180) translate(-30 -48)">
    <use xlink:href="#rim"/>
    <path pointer-events="none" fill="none" stroke="white" stroke-width="1.5" d="M0,-3.0v7 M-2.5,-0.5L0,-3.0L2.5,-0.5"/>
  </g>
  <g id="arrowLeft" transform="rotate(270) translate(-36 17)">
    <use xlink:href="#rim"/>
    <path pointer-events="none" fill="none" stroke="white" stroke-width="1.5" d="M0,-3.0v7 M-2.5,-0.5L0,-3.0L2.5,-0.5"/>
  </g>
  <g id="resetDef">
    <use xlink:href="#rim2" fill="#404040"><set attributeName="fill" to="#808080" begin="reset.mouseover" end="reset.mouseout"/></use>
  </g>
</defs>
<script type="application/ecmascript">
var viewWidth = 4948;
var viewHeight = 357;
var sectionId = 'dynsection-0';
</script>
<script type="application/ecmascript" xlink:href="svg.min.js"/>
<svg id="graph" class="graph">
<g id="viewport">
<title>/home/ffn/Workspace/ros2_humble_ws/src/III&#45;Drone&#45;Core/src/mission/continuous_mission_orchestrator_node/continuous_mission_orchestrator_node.cpp</title>
<!-- Node1 -->
<g id="Node000001" class="node">
<title>Node1</title>
<g id="a_Node000001"><a xlink:title=" ">
<polygon fill="#999999" stroke="#666666" points="2146.5,-349 1886.5,-349 1886.5,-286 2146.5,-286 2146.5,-349"/>
<text text-anchor="start" x="1894.5" y="-337" font-family="Helvetica,sans-Serif" font-size="10.00">/home/ffn/Workspace</text>
<text text-anchor="start" x="1894.5" y="-326" font-family="Helvetica,sans-Serif" font-size="10.00">/ros2_humble_ws/src</text>
<text text-anchor="start" x="1894.5" y="-315" font-family="Helvetica,sans-Serif" font-size="10.00">/III&#45;Drone&#45;Core/src/mission</text>
<text text-anchor="start" x="1894.5" y="-304" font-family="Helvetica,sans-Serif" font-size="10.00">/continuous_mission_orchestrator</text>
<text text-anchor="middle" x="2016.5" y="-293" font-family="Helvetica,sans-Serif" font-size="10.00">_node/continuous_mission_orchestrator_node.cpp</text>
</a>
</g>
</g>
<!-- Node2 -->
<g id="Node000002" class="node">
<title>Node2</title>
<g id="a_Node000002"><a xlink:href="continuous__mission__orchestrator__node_8hpp.html" target="_top" xlink:title=" ">
<polygon fill="white" stroke="#666666" points="2121.5,-250 1911.5,-250 1911.5,-198 2121.5,-198 2121.5,-250"/>
<text text-anchor="start" x="1919.5" y="-238" font-family="Helvetica,sans-Serif" font-size="10.00">iii_drone_core/mission</text>
<text text-anchor="start" x="1919.5" y="-227" font-family="Helvetica,sans-Serif" font-size="10.00">/continuous_mission_orchestrator</text>
<text text-anchor="start" x="1919.5" y="-216" font-family="Helvetica,sans-Serif" font-size="10.00">_node/continuous_mission_orchestrator</text>
<text text-anchor="middle" x="2016.5" y="-205" font-family="Helvetica,sans-Serif" font-size="10.00">_node.hpp</text>
</a>
</g>
</g>
<!-- Node1&#45;&gt;Node2 -->
<g id="edge1_Node000001_Node000002" class="edge">
<title>Node1&#45;&gt;Node2</title>
<g id="a_edge1_Node000001_Node000002"><a xlink:title=" ">
<path fill="none" stroke="#63b8ff" d="M2016.5,-285.78C2016.5,-277.51 2016.5,-268.51 2016.5,-260.02"/>
<polygon fill="#63b8ff" stroke="#63b8ff" points="2020,-260.02 2016.5,-250.02 2013,-260.02 2020,-260.02"/>
</a>
</g>
</g>
<!-- Node3 -->
<g id="Node000003" class="node">
<title>Node3</title>
<g id="a_Node000003"><a xlink:title=" ">
<polygon fill="#e0e0e0" stroke="#999999" points="53,-151 0,-151 0,-132 53,-132 53,-151"/>
<text text-anchor="middle" x="26.5" y="-139" font-family="Helvetica,sans-Serif" font-size="10.00">stdint.h</text>
</a>
</g>
</g>
<!-- Node2&#45;&gt;Node3 -->
<g id="edge2_Node000002_Node000003" class="edge">
<title>Node2&#45;&gt;Node3</title>
<g id="a_edge2_Node000002_Node000003"><a xlink:title=" ">
<path fill="none" stroke="#63b8ff" d="M1911.27,-222.55C1530.99,-220.54 240.97,-210.21 62.5,-162 57.53,-160.66 52.49,-158.51 47.82,-156.13"/>
<polygon fill="#63b8ff" stroke="#63b8ff" points="49.31,-152.95 38.88,-151.08 45.86,-159.05 49.31,-152.95"/>
</a>
</g>
</g>
<!-- Node4 -->
<g id="Node000004" class="node">
<title>Node4</title>
<g id="a_Node000004"><a xlink:title=" ">
<polygon fill="#e0e0e0" stroke="#999999" points="119.5,-151 71.5,-151 71.5,-132 119.5,-132 119.5,-151"/>
<text text-anchor="middle" x="95.5" y="-139" font-family="Helvetica,sans-Serif" font-size="10.00">mutex</text>
</a>
</g>
</g>
<!-- Node2&#45;&gt;Node4 -->
<g id="edge3_Node000002_Node000004" class="edge">
<title>Node2&#45;&gt;Node4</title>
<g id="a_edge3_Node000002_Node000004"><a xlink:title=" ">
<path fill="none" stroke="#63b8ff" d="M1911.26,-222.65C1539.26,-220.98 299.48,-211.72 128.5,-162 124.11,-160.72 119.71,-158.73 115.61,-156.5"/>
<polygon fill="#63b8ff" stroke="#63b8ff" points="117.11,-153.31 106.75,-151.07 113.45,-159.28 117.11,-153.31"/>
</a>
</g>
</g>
<!-- Node5 -->
<g id="Node000005" class="node">
<title>Node5</title>
<g id="a_Node000005"><a xlink:title=" ">
<polygon fill="#e0e0e0" stroke="#999999" points="203,-151 138,-151 138,-132 203,-132 203,-151"/>
<text text-anchor="middle" x="170.5" y="-139" font-family="Helvetica,sans-Serif" font-size="10.00">functional</text>
</a>
</g>
</g>
<!-- Node2&#45;&gt;Node5 -->
<g id="edge4_Node000002_Node000005" class="edge">
<title>Node2&#45;&gt;Node5</title>
<g id="a_edge4_Node000002_Node000005"><a xlink:title=" ">
<path fill="none" stroke="#63b8ff" d="M1911.44,-221.89C1550.94,-217.74 377.29,-201.32 212.5,-162 206.39,-160.54 200.09,-158.16 194.3,-155.55"/>
<polygon fill="#63b8ff" stroke="#63b8ff" points="195.65,-152.31 185.13,-151.06 192.58,-158.6 195.65,-152.31"/>
</a>
</g>
</g>
<!-- Node6 -->
<g id="Node000006" class="node">
<title>Node6</title>
<g id="a_Node000006"><a xlink:title=" ">
<polygon fill="#e0e0e0" stroke="#999999" points="279.5,-151 221.5,-151 221.5,-132 279.5,-132 279.5,-151"/>
<text text-anchor="middle" x="250.5" y="-139" font-family="Helvetica,sans-Serif" font-size="10.00">memory</text>
</a>
</g>
</g>
<!-- Node2&#45;&gt;Node6 -->
<g id="edge5_Node000002_Node000006" class="edge">
<title>Node2&#45;&gt;Node6</title>
<g id="a_edge5_Node000002_Node000006"><a xlink:title=" ">
<path fill="none" stroke="#63b8ff" d="M1911.27,-221.95C1560.58,-218.09 444.87,-202.71 288.5,-162 283.17,-160.61 277.72,-158.38 272.69,-155.92"/>
<polygon fill="#63b8ff" stroke="#63b8ff" points="274.1,-152.71 263.64,-151.06 270.79,-158.88 274.1,-152.71"/>
</a>
</g>
</g>
<!-- Node7 -->
<g id="Node000007" class="node">
<title>Node7</title>
<g id="a_Node000007"><a xlink:title=" ">
<polygon fill="#e0e0e0" stroke="#999999" points="345.5,-151 297.5,-151 297.5,-132 345.5,-132 345.5,-151"/>
<text text-anchor="middle" x="321.5" y="-139" font-family="Helvetica,sans-Serif" font-size="10.00">thread</text>
</a>
</g>
</g>
<!-- Node2&#45;&gt;Node7 -->
<g id="edge6_Node000002_Node000007" class="edge">
<title>Node2&#45;&gt;Node7</title>
<g id="a_edge6_Node000002_Node000007"><a xlink:title=" ">
<path fill="none" stroke="#63b8ff" d="M1911.35,-222.14C1569.5,-218.95 503.08,-205.56 354.5,-162 350.12,-160.72 345.71,-158.72 341.61,-156.48"/>
<polygon fill="#63b8ff" stroke="#63b8ff" points="343.11,-153.3 332.76,-151.06 339.46,-159.26 343.11,-153.3"/>
</a>
</g>
</g>
<!-- Node8 -->
<g id="Node000008" class="node">
<title>Node8</title>
<g id="a_Node000008"><a xlink:title=" ">
<polygon fill="#e0e0e0" stroke="#999999" points="413.5,-151 363.5,-151 363.5,-132 413.5,-132 413.5,-151"/>
<text text-anchor="middle" x="388.5" y="-139" font-family="Helvetica,sans-Serif" font-size="10.00">climits</text>
</a>
</g>
</g>
<!-- Node2&#45;&gt;Node8 -->
<g id="edge7_Node000002_Node000008" class="edge">
<title>Node2&#45;&gt;Node8</title>
<g id="a_edge7_Node000002_Node000008"><a xlink:title=" ">
<path fill="none" stroke="#63b8ff" d="M1911.33,-221.89C1578.94,-217.98 564.62,-202.79 422.5,-162 417.89,-160.68 413.23,-158.6 408.92,-156.29"/>
<polygon fill="#63b8ff" stroke="#63b8ff" points="410.52,-153.17 400.14,-151.05 406.93,-159.18 410.52,-153.17"/>
</a>
</g>
</g>
<!-- Node9 -->
<g id="Node000009" class="node">
<title>Node9</title>
<g id="a_Node000009"><a xlink:title=" ">
<polygon fill="#e0e0e0" stroke="#999999" points="483,-151 432,-151 432,-132 483,-132 483,-151"/>
<text text-anchor="middle" x="457.5" y="-139" font-family="Helvetica,sans-Serif" font-size="10.00">math.h</text>
</a>
</g>
</g>
<!-- Node2&#45;&gt;Node9 -->
<g id="edge8_Node000002_Node000009" class="edge">
<title>Node2&#45;&gt;Node9</title>
<g id="a_edge8_Node000002_Node000009"><a xlink:title=" ">
<path fill="none" stroke="#63b8ff" d="M1911.46,-221.62C1589.17,-216.98 627.96,-200.1 492.5,-162 487.65,-160.64 482.74,-158.48 478.2,-156.1"/>
<polygon fill="#63b8ff" stroke="#63b8ff" points="479.92,-153.05 469.51,-151.05 476.4,-159.1 479.92,-153.05"/>
</a>
</g>
</g>
<!-- Node10 -->
<g id="Node000010" class="node">
<title>Node10</title>
<g id="a_Node000010"><a xlink:title=" ">
<polygon fill="#e0e0e0" stroke="#999999" points="551.5,-151 501.5,-151 501.5,-132 551.5,-132 551.5,-151"/>
<text text-anchor="middle" x="526.5" y="-139" font-family="Helvetica,sans-Serif" font-size="10.00">chrono</text>
</a>
</g>
</g>
<!-- Node2&#45;&gt;Node10 -->
<g id="edge9_Node000002_Node000010" class="edge">
<title>Node2&#45;&gt;Node10</title>
<g id="a_edge9_Node000002_Node000010"><a xlink:title=" ">
<path fill="none" stroke="#63b8ff" d="M1911.46,-221.48C1598.99,-216.55 689.02,-199.14 560.5,-162 555.89,-160.67 551.24,-158.59 546.92,-156.28"/>
<polygon fill="#63b8ff" stroke="#63b8ff" points="548.52,-153.16 538.14,-151.04 544.93,-159.17 548.52,-153.16"/>
</a>
</g>
</g>
<!-- Node11 -->
<g id="Node000011" class="node">
<title>Node11</title>
<g id="a_Node000011"><a xlink:title=" ">
<polygon fill="#e0e0e0" stroke="#999999" points="629.5,-151 569.5,-151 569.5,-132 629.5,-132 629.5,-151"/>
<text text-anchor="middle" x="599.5" y="-139" font-family="Helvetica,sans-Serif" font-size="10.00">iostream</text>
</a>
</g>
</g>
<!-- Node2&#45;&gt;Node11 -->
<g id="edge10_Node000002_Node000011" class="edge">
<title>Node2&#45;&gt;Node11</title>
<g id="a_edge10_Node000002_Node000011"><a xlink:title=" ">
<path fill="none" stroke="#63b8ff" d="M1911.34,-220.87C1610.52,-214.42 760.26,-193.6 638.5,-162 632.91,-160.55 627.19,-158.23 621.92,-155.7"/>
<polygon fill="#63b8ff" stroke="#63b8ff" points="623.5,-152.58 613.02,-151.03 620.25,-158.77 623.5,-152.58"/>
</a>
</g>
</g>
<!-- Node12 -->
<g id="Node000012" class="node">
<title>Node12</title>
<g id="a_Node000012"><a xlink:title=" ">
<polygon fill="#e0e0e0" stroke="#999999" points="695,-151 648,-151 648,-132 695,-132 695,-151"/>
<text text-anchor="middle" x="671.5" y="-139" font-family="Helvetica,sans-Serif" font-size="10.00">queue</text>
</a>
</g>
</g>
<!-- Node2&#45;&gt;Node12 -->
<g id="edge11_Node000002_Node000012" class="edge">
<title>Node2&#45;&gt;Node12</title>
<g id="a_edge11_Node000002_Node000012"><a xlink:title=" ">
<path fill="none" stroke="#63b8ff" d="M1911.25,-221.11C1620.03,-215.45 817.48,-196.87 703.5,-162 699.23,-160.69 694.95,-158.69 690.97,-156.45"/>
<polygon fill="#63b8ff" stroke="#63b8ff" points="692.71,-153.41 682.39,-151.03 688.97,-159.33 692.71,-153.41"/>
</a>
</g>
</g>
<!-- Node13 -->
<g id="Node000013" class="node">
<title>Node13</title>
<g id="a_Node000013"><a xlink:title=" ">
<polygon fill="#e0e0e0" stroke="#999999" points="760,-151 713,-151 713,-132 760,-132 760,-151"/>
<text text-anchor="middle" x="736.5" y="-139" font-family="Helvetica,sans-Serif" font-size="10.00">vector</text>
</a>
</g>
</g>
<!-- Node2&#45;&gt;Node13 -->
<g id="edge12_Node000002_Node000013" class="edge">
<title>Node2&#45;&gt;Node13</title>
<g id="a_edge12_Node000002_Node000013"><a xlink:title=" ">
<path fill="none" stroke="#63b8ff" d="M1911.44,-220.84C1630.54,-214.63 876.17,-195.08 768.5,-162 764.23,-160.69 759.95,-158.68 755.98,-156.44"/>
<polygon fill="#63b8ff" stroke="#63b8ff" points="757.71,-153.4 747.39,-151.02 753.98,-159.32 757.71,-153.4"/>
</a>
</g>
</g>
<!-- Node14 -->
<g id="Node000014" class="node">
<title>Node14</title>
<g id="a_Node000014"><a xlink:title=" ">
<polygon fill="#e0e0e0" stroke="#999999" points="877,-151 778,-151 778,-132 877,-132 877,-151"/>
<text text-anchor="middle" x="827.5" y="-139" font-family="Helvetica,sans-Serif" font-size="10.00">rclcpp/rclcpp.hpp</text>
</a>
</g>
</g>
<!-- Node2&#45;&gt;Node14 -->
<g id="edge13_Node000002_Node000014" class="edge">
<title>Node2&#45;&gt;Node14</title>
<g id="a_edge13_Node000002_Node000014"><a xlink:title=" ">
<path fill="none" stroke="#63b8ff" d="M1911.45,-220.96C1669.78,-215.67 1080.2,-199.27 885.5,-162 876.33,-160.24 866.61,-157.39 857.81,-154.41"/>
<polygon fill="#63b8ff" stroke="#63b8ff" points="858.94,-151.09 848.34,-151.03 856.59,-157.69 858.94,-151.09"/>
</a>
</g>
</g>
<!-- Node15 -->
<g id="Node000015" class="node">
<title>Node15</title>
<g id="a_Node000015"><a xlink:title=" ">
<polygon fill="#e0e0e0" stroke="#999999" points="1008,-156.5 895,-156.5 895,-126.5 1008,-126.5 1008,-156.5"/>
<text text-anchor="start" x="903" y="-144.5" font-family="Helvetica,sans-Serif" font-size="10.00">rclcpp_action/rclcpp</text>
<text text-anchor="middle" x="951.5" y="-133.5" font-family="Helvetica,sans-Serif" font-size="10.00">_action.hpp</text>
</a>
</g>
</g>
<!-- Node2&#45;&gt;Node15 -->
<g id="edge14_Node000002_Node000015" class="edge">
<title>Node2&#45;&gt;Node15</title>
<g id="a_edge14_Node000002_Node000015"><a xlink:title=" ">
<path fill="none" stroke="#63b8ff" d="M1911.15,-219.59C1690.6,-211.94 1186.71,-191.77 1017.5,-162 1013.01,-161.21 1008.39,-160.22 1003.78,-159.11"/>
<polygon fill="#63b8ff" stroke="#63b8ff" points="1004.33,-155.64 993.77,-156.52 1002.57,-162.42 1004.33,-155.64"/>
</a>
</g>
</g>
<!-- Node16 -->
<g id="Node000016" class="node">
<title>Node16</title>
<g id="a_Node000016"><a xlink:title=" ">
<polygon fill="#e0e0e0" stroke="#999999" points="1178.5,-156.5 1026.5,-156.5 1026.5,-126.5 1178.5,-126.5 1178.5,-156.5"/>
<text text-anchor="start" x="1034.5" y="-144.5" font-family="Helvetica,sans-Serif" font-size="10.00">rclcpp_components/register</text>
<text text-anchor="middle" x="1102.5" y="-133.5" font-family="Helvetica,sans-Serif" font-size="10.00">_node_macro.hpp</text>
</a>
</g>
</g>
<!-- Node2&#45;&gt;Node16 -->
<g id="edge15_Node000002_Node000016" class="edge">
<title>Node2&#45;&gt;Node16</title>
<g id="a_edge15_Node000002_Node000016"><a xlink:title=" ">
<path fill="none" stroke="#63b8ff" d="M1911.24,-220.38C1753.26,-215.29 1445.79,-200.9 1187.5,-162 1181.21,-161.05 1174.7,-159.89 1168.2,-158.61"/>
<polygon fill="#63b8ff" stroke="#63b8ff" points="1168.55,-155.11 1158.05,-156.52 1167.14,-161.97 1168.55,-155.11"/>
</a>
</g>
</g>
<!-- Node17 -->
<g id="Node000017" class="node">
<title>Node17</title>
<g id="a_Node000017"><a xlink:title=" ">
<polygon fill="#e0e0e0" stroke="#999999" points="1348.5,-151 1196.5,-151 1196.5,-132 1348.5,-132 1348.5,-151"/>
<text text-anchor="middle" x="1272.5" y="-139" font-family="Helvetica,sans-Serif" font-size="10.00">tf2_ros/transform_listener.h</text>
</a>
</g>
</g>
<!-- Node2&#45;&gt;Node17 -->
<g id="edge16_Node000002_Node000017" class="edge">
<title>Node2&#45;&gt;Node17</title>
<g id="a_edge16_Node000002_Node000017"><a xlink:title=" ">
<path fill="none" stroke="#63b8ff" d="M1911.24,-217.59C1780.7,-209.89 1551.64,-193.11 1357.5,-162 1343.56,-159.77 1328.5,-156.57 1314.99,-153.42"/>
<polygon fill="#63b8ff" stroke="#63b8ff" points="1315.54,-149.95 1305,-151.02 1313.91,-156.76 1315.54,-149.95"/>
</a>
</g>
</g>
<!-- Node18 -->
<g id="Node000018" class="node">
<title>Node18</title>
<g id="a_Node000018"><a xlink:title=" ">
<polygon fill="#e0e0e0" stroke="#999999" points="1456.5,-151 1366.5,-151 1366.5,-132 1456.5,-132 1456.5,-151"/>
<text text-anchor="middle" x="1411.5" y="-139" font-family="Helvetica,sans-Serif" font-size="10.00">tf2_ros/buffer.h</text>
</a>
</g>
</g>
<!-- Node2&#45;&gt;Node18 -->
<g id="edge17_Node000002_Node000018" class="edge">
<title>Node2&#45;&gt;Node18</title>
<g id="a_edge17_Node000002_Node000018"><a xlink:title=" ">
<path fill="none" stroke="#63b8ff" d="M1911.42,-218.75C1799.62,-212.51 1618.19,-197.49 1465.5,-162 1457.44,-160.13 1448.94,-157.42 1441.12,-154.62"/>
<polygon fill="#63b8ff" stroke="#63b8ff" points="1442.26,-151.31 1431.67,-151.07 1439.8,-157.86 1442.26,-151.31"/>
</a>
</g>
</g>
<!-- Node19 -->
<g id="Node000019" class="node">
<title>Node19</title>
<g id="a_Node000019"><a xlink:title=" ">
<polygon fill="#e0e0e0" stroke="#999999" points="1570,-151 1475,-151 1475,-132 1570,-132 1570,-151"/>
<text text-anchor="middle" x="1522.5" y="-139" font-family="Helvetica,sans-Serif" font-size="10.00">tf2/exceptions.h</text>
</a>
</g>
</g>
<!-- Node2&#45;&gt;Node19 -->
<g id="edge18_Node000002_Node000019" class="edge">
<title>Node2&#45;&gt;Node19</title>
<g id="a_edge18_Node000002_Node000019"><a xlink:title=" ">
<path fill="none" stroke="#63b8ff" d="M1911.43,-214.22C1822.02,-205.36 1690.64,-189.05 1578.5,-162 1570.18,-159.99 1561.35,-157.23 1553.22,-154.42"/>
<polygon fill="#63b8ff" stroke="#63b8ff" points="1554.34,-151.1 1543.74,-151.01 1551.97,-157.68 1554.34,-151.1"/>
</a>
</g>
</g>
<!-- Node20 -->
<g id="Node000020" class="node">
<title>Node20</title>
<g id="a_Node000020"><a xlink:title=" ">
<polygon fill="#e0e0e0" stroke="#999999" points="1719,-156.5 1588,-156.5 1588,-126.5 1719,-126.5 1719,-156.5"/>
<text text-anchor="start" x="1596" y="-144.5" font-family="Helvetica,sans-Serif" font-size="10.00">tf2_geometry_msgs/tf2</text>
<text text-anchor="middle" x="1653.5" y="-133.5" font-family="Helvetica,sans-Serif" font-size="10.00">_geometry_msgs.h</text>
</a>
</g>
</g>
<!-- Node2&#45;&gt;Node20 -->
<g id="edge19_Node000002_Node000020" class="edge">
<title>Node2&#45;&gt;Node20</title>
<g id="a_edge19_Node000002_Node000020"><a xlink:title=" ">
<path fill="none" stroke="#63b8ff" d="M1911.2,-202.08C1856.3,-190.85 1788.12,-176.38 1727.5,-162 1723.61,-161.08 1719.62,-160.1 1715.59,-159.1"/>
<polygon fill="#63b8ff" stroke="#63b8ff" points="1716.12,-155.63 1705.57,-156.57 1714.41,-162.41 1716.12,-155.63"/>
</a>
</g>
</g>
<!-- Node21 -->
<g id="Node000021" class="node">
<title>Node21</title>
<g id="a_Node000021"><a xlink:title=" ">
<polygon fill="#e0e0e0" stroke="#999999" points="1876,-151 1737,-151 1737,-132 1876,-132 1876,-151"/>
<text text-anchor="middle" x="1806.5" y="-139" font-family="Helvetica,sans-Serif" font-size="10.00">std_msgs/msg/string.hpp</text>
</a>
</g>
</g>
<!-- Node2&#45;&gt;Node21 -->
<g id="edge20_Node000002_Node000021" class="edge">
<title>Node2&#45;&gt;Node21</title>
<g id="a_edge20_Node000002_Node000021"><a xlink:title=" ">
<path fill="none" stroke="#63b8ff" d="M1951.21,-197.97C1913.67,-183.58 1868.19,-166.15 1838.36,-154.71"/>
<polygon fill="#63b8ff" stroke="#63b8ff" points="1839.47,-151.39 1828.88,-151.08 1836.97,-157.93 1839.47,-151.39"/>
</a>
</g>
</g>
<!-- Node22 -->
<g id="Node000022" class="node">
<title>Node22</title>
<g id="a_Node000022"><a xlink:title=" ">
<polygon fill="#e0e0e0" stroke="#999999" points="2039,-151 1894,-151 1894,-132 2039,-132 2039,-151"/>
<text text-anchor="middle" x="1966.5" y="-139" font-family="Helvetica,sans-Serif" font-size="10.00">std_msgs/msg/float32.hpp</text>
</a>
</g>
</g>
<!-- Node2&#45;&gt;Node22 -->
<g id="edge21_Node000002_Node000022" class="edge">
<title>Node2&#45;&gt;Node22</title>
<g id="a_edge21_Node000002_Node000022"><a xlink:title=" ">
<path fill="none" stroke="#63b8ff" d="M2000.95,-197.97C1993.33,-185.69 1984.32,-171.19 1977.43,-160.1"/>
<polygon fill="#63b8ff" stroke="#63b8ff" points="1980.26,-158.02 1972.01,-151.37 1974.31,-161.71 1980.26,-158.02"/>
</a>
</g>
</g>
<!-- Node23 -->
<g id="Node000023" class="node">
<title>Node23</title>
<g id="a_Node000023"><a xlink:title=" ">
<polygon fill="#e0e0e0" stroke="#999999" points="2049,-19 1882,-19 1882,0 2049,0 2049,-19"/>
<text text-anchor="middle" x="1965.5" y="-7" font-family="Helvetica,sans-Serif" font-size="10.00">geometry_msgs/msg/pose.hpp</text>
</a>
</g>
</g>
<!-- Node2&#45;&gt;Node23 -->
<g id="edge22_Node000002_Node000023" class="edge">
<title>Node2&#45;&gt;Node23</title>
<g id="a_edge22_Node000002_Node000023"><a xlink:title=" ">
<path fill="none" stroke="#63b8ff" d="M2032.99,-197.74C2044.39,-177.04 2056.1,-147.01 2047.5,-121 2034.66,-82.15 2002.3,-45.83 1982.28,-26.04"/>
<polygon fill="#63b8ff" stroke="#63b8ff" points="1984.67,-23.48 1975.04,-19.06 1979.82,-28.52 1984.67,-23.48"/>
</a>
</g>
</g>
<!-- Node24 -->
<g id="Node000024" class="node">
<title>Node24</title>
<g id="a_Node000024"><a xlink:title=" ">
<polygon fill="#e0e0e0" stroke="#999999" points="2407.5,-156.5 2261.5,-156.5 2261.5,-126.5 2407.5,-126.5 2407.5,-156.5"/>
<text text-anchor="start" x="2269.5" y="-144.5" font-family="Helvetica,sans-Serif" font-size="10.00">geometry_msgs/msg/pose</text>
<text text-anchor="middle" x="2334.5" y="-133.5" font-family="Helvetica,sans-Serif" font-size="10.00">_stamped.hpp</text>
</a>
</g>
</g>
<!-- Node2&#45;&gt;Node24 -->
<g id="edge23_Node000002_Node000024" class="edge">
<title>Node2&#45;&gt;Node24</title>
<g id="a_edge23_Node000002_Node000024"><a xlink:title=" ">
<path fill="none" stroke="#63b8ff" d="M2115.37,-197.97C2165.38,-185.31 2224.69,-170.3 2268.98,-159.09"/>
<polygon fill="#63b8ff" stroke="#63b8ff" points="2269.93,-162.46 2278.76,-156.61 2268.21,-155.67 2269.93,-162.46"/>
</a>
</g>
</g>
<!-- Node25 -->
<g id="Node000025" class="node">
<title>Node25</title>
<g id="a_Node000025"><a xlink:title=" ">
<polygon fill="#e0e0e0" stroke="#999999" points="2595.5,-156.5 2425.5,-156.5 2425.5,-126.5 2595.5,-126.5 2595.5,-156.5"/>
<text text-anchor="start" x="2433.5" y="-144.5" font-family="Helvetica,sans-Serif" font-size="10.00">geometry_msgs/msg/transform</text>
<text text-anchor="middle" x="2510.5" y="-133.5" font-family="Helvetica,sans-Serif" font-size="10.00">_stamped.hpp</text>
</a>
</g>
</g>
<!-- Node2&#45;&gt;Node25 -->
<g id="edge24_Node000002_Node000025" class="edge">
<title>Node2&#45;&gt;Node25</title>
<g id="a_edge24_Node000002_Node000025"><a xlink:title=" ">
<path fill="none" stroke="#63b8ff" d="M2121.61,-208.53C2202.43,-197.03 2316.77,-179.94 2416.5,-162 2422.58,-160.91 2428.87,-159.72 2435.19,-158.49"/>
<polygon fill="#63b8ff" stroke="#63b8ff" points="2435.97,-161.91 2445.1,-156.53 2434.61,-155.04 2435.97,-161.91"/>
</a>
</g>
</g>
<!-- Node26 -->
<g id="Node000026" class="node">
<title>Node26</title>
<g id="a_Node000026"><a xlink:title=" ">
<polygon fill="#e0e0e0" stroke="#999999" points="2741.5,-156.5 2613.5,-156.5 2613.5,-126.5 2741.5,-126.5 2741.5,-156.5"/>
<text text-anchor="start" x="2621.5" y="-144.5" font-family="Helvetica,sans-Serif" font-size="10.00">iii_drone_interfaces</text>
<text text-anchor="middle" x="2677.5" y="-133.5" font-family="Helvetica,sans-Serif" font-size="10.00">/msg/control_state.hpp</text>
</a>
</g>
</g>
<!-- Node2&#45;&gt;Node26 -->
<g id="edge25_Node000002_Node000026" class="edge">
<title>Node2&#45;&gt;Node26</title>
<g id="a_edge25_Node000002_Node000026"><a xlink:title=" ">
<path fill="none" stroke="#63b8ff" d="M2121.57,-217.11C2239.75,-209.33 2437.08,-192.85 2604.5,-162 2609.25,-161.13 2614.14,-160.1 2619.04,-158.98"/>
<polygon fill="#63b8ff" stroke="#63b8ff" points="2620.14,-162.32 2629.05,-156.58 2618.51,-155.51 2620.14,-162.32"/>
</a>
</g>
</g>
<!-- Node27 -->
<g id="Node000027" class="node">
<title>Node27</title>
<g id="a_Node000027"><a xlink:title=" ">
<polygon fill="#e0e0e0" stroke="#999999" points="2873,-156.5 2760,-156.5 2760,-126.5 2873,-126.5 2873,-156.5"/>
<text text-anchor="start" x="2768" y="-144.5" font-family="Helvetica,sans-Serif" font-size="10.00">iii_drone_interfaces</text>
<text text-anchor="middle" x="2816.5" y="-133.5" font-family="Helvetica,sans-Serif" font-size="10.00">/msg/powerline.hpp</text>
</a>
</g>
</g>
<!-- Node2&#45;&gt;Node27 -->
<g id="edge26_Node000002_Node000027" class="edge">
<title>Node2&#45;&gt;Node27</title>
<g id="a_edge26_Node000002_Node000027"><a xlink:title=" ">
<path fill="none" stroke="#63b8ff" d="M2121.63,-221C2264.94,-216.74 2529.14,-203.45 2750.5,-162 2754.85,-161.19 2759.31,-160.2 2763.78,-159.11"/>
<polygon fill="#63b8ff" stroke="#63b8ff" points="2764.7,-162.49 2773.5,-156.58 2762.94,-155.71 2764.7,-162.49"/>
</a>
</g>
</g>
<!-- Node28 -->
<g id="Node000028" class="node">
<title>Node28</title>
<g id="a_Node000028"><a xlink:title=" ">
<polygon fill="#e0e0e0" stroke="#999999" points="3023.5,-162 2891.5,-162 2891.5,-121 3023.5,-121 3023.5,-162"/>
<text text-anchor="start" x="2899.5" y="-150" font-family="Helvetica,sans-Serif" font-size="10.00">iii_drone_interfaces</text>
<text text-anchor="start" x="2899.5" y="-139" font-family="Helvetica,sans-Serif" font-size="10.00">/msg/charger_operating</text>
<text text-anchor="middle" x="2957.5" y="-128" font-family="Helvetica,sans-Serif" font-size="10.00">_mode.hpp</text>
</a>
</g>
</g>
<!-- Node2&#45;&gt;Node28 -->
<g id="edge27_Node000002_Node000028" class="edge">
<title>Node2&#45;&gt;Node28</title>
<g id="a_edge27_Node000002_Node000028"><a xlink:title=" ">
<path fill="none" stroke="#63b8ff" d="M2121.53,-221.82C2283.27,-218.62 2602.89,-206.83 2881.49,-162"/>
<polygon fill="#63b8ff" stroke="#63b8ff" points="2882.08,-165.45 2891.39,-160.39 2880.96,-158.54 2882.08,-165.45"/>
</a>
</g>
</g>
<!-- Node29 -->
<g id="Node000029" class="node">
<title>Node29</title>
<g id="a_Node000029"><a xlink:title=" ">
<polygon fill="#e0e0e0" stroke="#999999" points="3179,-156.5 3042,-156.5 3042,-126.5 3179,-126.5 3179,-156.5"/>
<text text-anchor="start" x="3050" y="-144.5" font-family="Helvetica,sans-Serif" font-size="10.00">iii_drone_interfaces</text>
<text text-anchor="middle" x="3110.5" y="-133.5" font-family="Helvetica,sans-Serif" font-size="10.00">/msg/charger_status.hpp</text>
</a>
</g>
</g>
<!-- Node2&#45;&gt;Node29 -->
<g id="edge28_Node000002_Node000029" class="edge">
<title>Node2&#45;&gt;Node29</title>
<g id="a_edge28_Node000002_Node000029"><a xlink:title=" ">
<path fill="none" stroke="#63b8ff" d="M2121.75,-223.07C2306.98,-221.78 2702.84,-212.66 3032.5,-162 3038.24,-161.12 3044.18,-160.01 3050.1,-158.76"/>
<polygon fill="#63b8ff" stroke="#63b8ff" points="3051,-162.15 3060.01,-156.57 3049.49,-155.31 3051,-162.15"/>
</a>
</g>
</g>
<!-- Node30 -->
<g id="Node000030" class="node">
<title>Node30</title>
<g id="a_Node000030"><a xlink:title=" ">
<polygon fill="#e0e0e0" stroke="#999999" points="3331.5,-156.5 3197.5,-156.5 3197.5,-126.5 3331.5,-126.5 3331.5,-156.5"/>
<text text-anchor="start" x="3205.5" y="-144.5" font-family="Helvetica,sans-Serif" font-size="10.00">iii_drone_interfaces</text>
<text text-anchor="middle" x="3264.5" y="-133.5" font-family="Helvetica,sans-Serif" font-size="10.00">/msg/gripper_status.hpp</text>
</a>
</g>
</g>
<!-- Node2&#45;&gt;Node30 -->
<g id="edge29_Node000002_Node000030" class="edge">
<title>Node2&#45;&gt;Node30</title>
<g id="a_edge29_Node000002_Node000030"><a xlink:title=" ">
<path fill="none" stroke="#63b8ff" d="M2121.95,-220.2C2369.94,-213.19 2984.57,-193.15 3188.5,-162 3194.19,-161.13 3200.08,-160.02 3205.94,-158.76"/>
<polygon fill="#63b8ff" stroke="#63b8ff" points="3206.76,-162.16 3215.74,-156.54 3205.21,-155.34 3206.76,-162.16"/>
</a>
</g>
</g>
<!-- Node31 -->
<g id="Node000031" class="node">
<title>Node31</title>
<g id="a_Node000031"><a xlink:title=" ">
<polygon fill="#e0e0e0" stroke="#999999" points="3497,-156.5 3350,-156.5 3350,-126.5 3497,-126.5 3497,-156.5"/>
<text text-anchor="start" x="3358" y="-144.5" font-family="Helvetica,sans-Serif" font-size="10.00">iii_drone_interfaces</text>
<text text-anchor="middle" x="3423.5" y="-133.5" font-family="Helvetica,sans-Serif" font-size="10.00">/srv/gripper_command.hpp</text>
</a>
</g>
</g>
<!-- Node2&#45;&gt;Node31 -->
<g id="edge30_Node000002_Node000031" class="edge">
<title>Node2&#45;&gt;Node31</title>
<g id="a_edge30_Node000002_Node000031"><a xlink:title=" ">
<path fill="none" stroke="#63b8ff" d="M2121.92,-220.66C2392.35,-214.25 3105.9,-194.68 3340.5,-162 3346.85,-161.12 3353.43,-159.97 3359.97,-158.68"/>
<polygon fill="#63b8ff" stroke="#63b8ff" points="3361.12,-162.02 3370.2,-156.55 3359.69,-155.17 3361.12,-162.02"/>
</a>
</g>
</g>
<!-- Node32 -->
<g id="Node000032" class="node">
<title>Node32</title>
<g id="a_Node000032"><a xlink:title=" ">
<polygon fill="#e0e0e0" stroke="#999999" points="3655.5,-156.5 3515.5,-156.5 3515.5,-126.5 3655.5,-126.5 3655.5,-156.5"/>
<text text-anchor="start" x="3523.5" y="-144.5" font-family="Helvetica,sans-Serif" font-size="10.00">iii_drone_interfaces</text>
<text text-anchor="middle" x="3585.5" y="-133.5" font-family="Helvetica,sans-Serif" font-size="10.00">/srv/initiate_charging.hpp</text>
</a>
</g>
</g>
<!-- Node2&#45;&gt;Node32 -->
<g id="edge31_Node000002_Node000032" class="edge">
<title>Node2&#45;&gt;Node32</title>
<g id="a_edge31_Node000002_Node000032"><a xlink:title=" ">
<path fill="none" stroke="#63b8ff" d="M2121.64,-221.44C2415.04,-216.66 3238.65,-200.14 3506.5,-162 3512.65,-161.12 3519.02,-159.97 3525.35,-158.67"/>
<polygon fill="#63b8ff" stroke="#63b8ff" points="3526.2,-162.07 3535.22,-156.51 3524.71,-155.23 3526.2,-162.07"/>
</a>
</g>
</g>
<!-- Node33 -->
<g id="Node000033" class="node">
<title>Node33</title>
<g id="a_Node000033"><a xlink:title=" ">
<polygon fill="#e0e0e0" stroke="#999999" points="3821.5,-156.5 3673.5,-156.5 3673.5,-126.5 3821.5,-126.5 3821.5,-156.5"/>
<text text-anchor="start" x="3681.5" y="-144.5" font-family="Helvetica,sans-Serif" font-size="10.00">iii_drone_interfaces</text>
<text text-anchor="middle" x="3747.5" y="-133.5" font-family="Helvetica,sans-Serif" font-size="10.00">/srv/interrupt_charging.hpp</text>
</a>
</g>
</g>
<!-- Node2&#45;&gt;Node33 -->
<g id="edge32_Node000002_Node000033" class="edge">
<title>Node2&#45;&gt;Node33</title>
<g id="a_edge32_Node000002_Node000033"><a xlink:title=" ">
<path fill="none" stroke="#63b8ff" d="M2121.66,-221.77C2435.87,-217.68 3364.53,-202.4 3664.5,-162 3671.1,-161.11 3677.95,-159.93 3684.75,-158.59"/>
<polygon fill="#63b8ff" stroke="#63b8ff" points="3685.58,-161.99 3694.65,-156.53 3684.15,-155.14 3685.58,-161.99"/>
</a>
</g>
</g>
<!-- Node34 -->
<g id="Node000034" class="node">
<title>Node34</title>
<g id="a_Node000034"><a xlink:title=" ">
<polygon fill="#e0e0e0" stroke="#999999" points="3959,-162 3840,-162 3840,-121 3959,-121 3959,-162"/>
<text text-anchor="start" x="3848" y="-150" font-family="Helvetica,sans-Serif" font-size="10.00">iii_drone_interfaces</text>
<text text-anchor="start" x="3848" y="-139" font-family="Helvetica,sans-Serif" font-size="10.00">/srv/set_target_cable</text>
<text text-anchor="middle" x="3899.5" y="-128" font-family="Helvetica,sans-Serif" font-size="10.00">_id.hpp</text>
</a>
</g>
</g>
<!-- Node2&#45;&gt;Node34 -->
<g id="edge33_Node000002_Node000034" class="edge">
<title>Node2&#45;&gt;Node34</title>
<g id="a_edge33_Node000002_Node000034"><a xlink:title=" ">
<path fill="none" stroke="#63b8ff" d="M2121.52,-222.8C2453.43,-221.64 3478.07,-213.96 3829.9,-161.82"/>
<polygon fill="#63b8ff" stroke="#63b8ff" points="3830.5,-165.27 3839.86,-160.31 3829.44,-158.35 3830.5,-165.27"/>
</a>
</g>
</g>
<!-- Node35 -->
<g id="Node000035" class="node">
<title>Node35</title>
<g id="a_Node000035"><a xlink:title=" ">
<polygon fill="#e0e0e0" stroke="#999999" points="4120,-156.5 3977,-156.5 3977,-126.5 4120,-126.5 4120,-156.5"/>
<text text-anchor="start" x="3985" y="-144.5" font-family="Helvetica,sans-Serif" font-size="10.00">iii_drone_interfaces</text>
<text text-anchor="middle" x="4048.5" y="-133.5" font-family="Helvetica,sans-Serif" font-size="10.00">/srv/prolong_charging.hpp</text>
</a>
</g>
</g>
<!-- Node2&#45;&gt;Node35 -->
<g id="edge34_Node000002_Node000035" class="edge">
<title>Node2&#45;&gt;Node35</title>
<g id="a_edge34_Node000002_Node000035"><a xlink:title=" ">
<path fill="none" stroke="#63b8ff" d="M2121.65,-222.59C2473.37,-220.78 3606.92,-211.17 3968.5,-162 3974.73,-161.15 3981.18,-160.02 3987.59,-158.73"/>
<polygon fill="#63b8ff" stroke="#63b8ff" points="3988.55,-162.1 3997.59,-156.58 3987.08,-155.26 3988.55,-162.1"/>
</a>
</g>
</g>
<!-- Node36 -->
<g id="Node000036" class="node">
<title>Node36</title>
<g id="a_Node000036"><a xlink:title=" ">
<polygon fill="#e0e0e0" stroke="#999999" points="4288.5,-156.5 4138.5,-156.5 4138.5,-126.5 4288.5,-126.5 4288.5,-156.5"/>
<text text-anchor="start" x="4146.5" y="-144.5" font-family="Helvetica,sans-Serif" font-size="10.00">iii_drone_interfaces</text>
<text text-anchor="middle" x="4213.5" y="-133.5" font-family="Helvetica,sans-Serif" font-size="10.00">/action/fly_under_cable.hpp</text>
</a>
</g>
</g>
<!-- Node2&#45;&gt;Node36 -->
<g id="edge35_Node000002_Node000036" class="edge">
<title>Node2&#45;&gt;Node36</title>
<g id="a_edge35_Node000002_Node000036"><a xlink:title=" ">
<path fill="none" stroke="#63b8ff" d="M2121.5,-222.74C2491.66,-221.37 3734.71,-213 4129.5,-162 4136.18,-161.14 4143.11,-159.97 4150,-158.64"/>
<polygon fill="#63b8ff" stroke="#63b8ff" points="4150.92,-162.03 4160.02,-156.59 4149.52,-155.17 4150.92,-162.03"/>
</a>
</g>
</g>
<!-- Node37 -->
<g id="Node000037" class="node">
<title>Node37</title>
<g id="a_Node000037"><a xlink:title=" ">
<polygon fill="#e0e0e0" stroke="#999999" points="4448,-156.5 4307,-156.5 4307,-126.5 4448,-126.5 4448,-156.5"/>
<text text-anchor="start" x="4315" y="-144.5" font-family="Helvetica,sans-Serif" font-size="10.00">iii_drone_interfaces</text>
<text text-anchor="middle" x="4377.5" y="-133.5" font-family="Helvetica,sans-Serif" font-size="10.00">/action/cable_landing.hpp</text>
</a>
</g>
</g>
<!-- Node2&#45;&gt;Node37 -->
<g id="edge36_Node000002_Node000037" class="edge">
<title>Node2&#45;&gt;Node37</title>
<g id="a_edge36_Node000002_Node000037"><a xlink:title=" ">
<path fill="none" stroke="#63b8ff" d="M2121.71,-223.15C2510.92,-223.24 3868.65,-219.34 4297.5,-162 4303.82,-161.15 4310.37,-160.01 4316.88,-158.7"/>
<polygon fill="#63b8ff" stroke="#63b8ff" points="4317.98,-162.04 4327.02,-156.52 4316.51,-155.2 4317.98,-162.04"/>
</a>
</g>
</g>
<!-- Node38 -->
<g id="Node000038" class="node">
<title>Node38</title>
<g id="a_Node000038"><a xlink:title=" ">
<polygon fill="#e0e0e0" stroke="#999999" points="4622.5,-156.5 4466.5,-156.5 4466.5,-126.5 4622.5,-126.5 4622.5,-156.5"/>
<text text-anchor="start" x="4474.5" y="-144.5" font-family="Helvetica,sans-Serif" font-size="10.00">iii_drone_interfaces</text>
<text text-anchor="middle" x="4544.5" y="-133.5" font-family="Helvetica,sans-Serif" font-size="10.00">/action/disarm_on_cable.hpp</text>
</a>
</g>
</g>
<!-- Node2&#45;&gt;Node38 -->
<g id="edge37_Node000002_Node000038" class="edge">
<title>Node2&#45;&gt;Node38</title>
<g id="a_edge37_Node000002_Node000038"><a xlink:title=" ">
<path fill="none" stroke="#63b8ff" d="M2121.67,-223.11C2527.94,-223.1 3995.23,-219.03 4457.5,-162 4464.68,-161.11 4472.14,-159.9 4479.54,-158.51"/>
<polygon fill="#63b8ff" stroke="#63b8ff" points="4480.43,-161.9 4489.56,-156.52 4479.07,-155.04 4480.43,-161.9"/>
</a>
</g>
</g>
<!-- Node39 -->
<g id="Node000039" class="node">
<title>Node39</title>
<g id="a_Node000039"><a xlink:title=" ">
<polygon fill="#e0e0e0" stroke="#999999" points="4782.5,-156.5 4640.5,-156.5 4640.5,-126.5 4782.5,-126.5 4782.5,-156.5"/>
<text text-anchor="start" x="4648.5" y="-144.5" font-family="Helvetica,sans-Serif" font-size="10.00">iii_drone_interfaces</text>
<text text-anchor="middle" x="4711.5" y="-133.5" font-family="Helvetica,sans-Serif" font-size="10.00">/action/arm_on_cable.hpp</text>
</a>
</g>
</g>
<!-- Node2&#45;&gt;Node39 -->
<g id="edge38_Node000002_Node000039" class="edge">
<title>Node2&#45;&gt;Node39</title>
<g id="a_edge38_Node000002_Node000039"><a xlink:title=" ">
<path fill="none" stroke="#63b8ff" d="M2121.6,-221.89C2578.48,-216.87 4380.22,-195.16 4631.5,-162 4637.82,-161.17 4644.38,-160.03 4650.88,-158.72"/>
<polygon fill="#63b8ff" stroke="#63b8ff" points="4651.98,-162.07 4661.03,-156.55 4650.52,-155.22 4651.98,-162.07"/>
</a>
</g>
</g>
<!-- Node40 -->
<g id="Node000040" class="node">
<title>Node40</title>
<g id="a_Node000040"><a xlink:title=" ">
<polygon fill="#e0e0e0" stroke="#999999" points="4940,-156.5 4801,-156.5 4801,-126.5 4940,-126.5 4940,-156.5"/>
<text text-anchor="start" x="4809" y="-144.5" font-family="Helvetica,sans-Serif" font-size="10.00">iii_drone_interfaces</text>
<text text-anchor="middle" x="4870.5" y="-133.5" font-family="Helvetica,sans-Serif" font-size="10.00">/action/cable_takeoff.hpp</text>
</a>
</g>
</g>
<!-- Node2&#45;&gt;Node40 -->
<g id="edge39_Node000002_Node000040" class="edge">
<title>Node2&#45;&gt;Node40</title>
<g id="a_edge39_Node000002_Node000040"><a xlink:title=" ">
<path fill="none" stroke="#63b8ff" d="M2121.61,-222.06C2595.72,-217.63 4523.69,-197.55 4791.5,-162 4797.75,-161.17 4804.22,-160.04 4810.65,-158.73"/>
<polygon fill="#63b8ff" stroke="#63b8ff" points="4811.64,-162.1 4820.67,-156.56 4810.15,-155.26 4811.64,-162.1"/>
</a>
</g>
</g>
<!-- Node41 -->
<g id="Node000041" class="node">
<title>Node41</title>
<g id="a_Node000041"><a xlink:href="math_8hpp.html" target="_top" xlink:title=" ">
<polygon fill="white" stroke="#666666" points="2205,-156.5 2096,-156.5 2096,-126.5 2205,-126.5 2205,-156.5"/>
<text text-anchor="start" x="2104" y="-144.5" font-family="Helvetica,sans-Serif" font-size="10.00">iii_drone_core/utils</text>
<text text-anchor="middle" x="2150.5" y="-133.5" font-family="Helvetica,sans-Serif" font-size="10.00">/math.hpp</text>
</a>
</g>
</g>
<!-- Node2&#45;&gt;Node41 -->
<g id="edge40_Node000002_Node000041" class="edge">
<title>Node2&#45;&gt;Node41</title>
<g id="a_edge40_Node000002_Node000041"><a xlink:title=" ">
<path fill="none" stroke="#63b8ff" d="M2058.16,-197.97C2077.4,-186.42 2099.9,-172.9 2117.88,-162.1"/>
<polygon fill="#63b8ff" stroke="#63b8ff" points="2120.05,-164.88 2126.82,-156.73 2116.45,-158.87 2120.05,-164.88"/>
</a>
</g>
</g>
<!-- Node43 -->
<g id="Node000043" class="node">
<title>Node43</title>
<g id="a_Node000043"><a xlink:href="types_8hpp.html" target="_top" xlink:title=" ">
<polygon fill="white" stroke="#666666" points="2329,-85 2220,-85 2220,-55 2329,-55 2329,-85"/>
<text text-anchor="start" x="2228" y="-73" font-family="Helvetica,sans-Serif" font-size="10.00">iii_drone_core/utils</text>
<text text-anchor="middle" x="2274.5" y="-62" font-family="Helvetica,sans-Serif" font-size="10.00">/types.hpp</text>
</a>
</g>
</g>
<!-- Node2&#45;&gt;Node43 -->
<g id="edge49_Node000002_Node000043" class="edge">
<title>Node2&#45;&gt;Node43</title>
<g id="a_edge49_Node000002_Node000043"><a xlink:title=" ">
<path fill="none" stroke="#63b8ff" d="M2121.52,-205C2153.57,-195.9 2187.45,-182.28 2214.5,-162 2237.79,-144.54 2254.75,-115.2 2264.59,-94.57"/>
<polygon fill="#63b8ff" stroke="#63b8ff" points="2267.88,-95.78 2268.84,-85.23 2261.51,-92.88 2267.88,-95.78"/>
</a>
</g>
</g>
<!-- Node42 -->
<g id="Node000042" class="node">
<title>Node42</title>
<g id="a_Node000042"><a xlink:title=" ">
<polygon fill="#e0e0e0" stroke="#999999" points="2172,-19 2067,-19 2067,0 2172,0 2172,-19"/>
<text text-anchor="middle" x="2119.5" y="-7" font-family="Helvetica,sans-Serif" font-size="10.00">eigen3/Eigen/Core</text>
</a>
</g>
</g>
<!-- Node41&#45;&gt;Node42 -->
<g id="edge41_Node000041_Node000042" class="edge">
<title>Node41&#45;&gt;Node42</title>
<g id="a_edge41_Node000041_Node000042"><a xlink:title=" ">
<path fill="none" stroke="#63b8ff" d="M2147.12,-126.34C2141.49,-102.73 2130.19,-55.33 2123.93,-29.08"/>
<polygon fill="#63b8ff" stroke="#63b8ff" points="2127.31,-28.16 2121.59,-19.25 2120.5,-29.79 2127.31,-28.16"/>
</a>
</g>
</g>
<!-- Node41&#45;&gt;Node43 -->
<g id="edge42_Node000041_Node000043" class="edge">
<title>Node41&#45;&gt;Node43</title>
<g id="a_edge42_Node000041_Node000043"><a xlink:title=" ">
<path fill="none" stroke="#63b8ff" d="M2175.59,-126.44C2194.33,-115.93 2220.15,-101.46 2240.7,-89.94"/>
<polygon fill="#63b8ff" stroke="#63b8ff" points="2242.43,-92.99 2249.44,-85.04 2239.01,-86.88 2242.43,-92.99"/>
</a>
</g>
</g>
<!-- Node43&#45;&gt;Node23 -->
<g id="edge46_Node000043_Node000023" class="edge">
<title>Node43&#45;&gt;Node23</title>
<g id="a_edge46_Node000043_Node000023"><a xlink:title=" ">
<path fill="none" stroke="#63b8ff" d="M2219.97,-58.68C2163.86,-48.05 2076.93,-31.6 2020.61,-20.93"/>
<polygon fill="#63b8ff" stroke="#63b8ff" points="2020.94,-17.43 2010.46,-19.01 2019.64,-24.31 2020.94,-17.43"/>
</a>
</g>
</g>
<!-- Node43&#45;&gt;Node42 -->
<g id="edge43_Node000043_Node000042" class="edge">
<title>Node43&#45;&gt;Node42</title>
<g id="a_edge43_Node000043_Node000042"><a xlink:title=" ">
<path fill="none" stroke="#63b8ff" d="M2237.37,-54.99C2211.28,-45.14 2176.72,-32.1 2151.77,-22.68"/>
<polygon fill="#63b8ff" stroke="#63b8ff" points="2152.98,-19.4 2142.39,-19.14 2150.51,-25.94 2152.98,-19.4"/>
</a>
</g>
</g>
<!-- Node44 -->
<g id="Node000044" class="node">
<title>Node44</title>
<g id="a_Node000044"><a xlink:title=" ">
<polygon fill="#e0e0e0" stroke="#999999" points="2765.5,-19 2597.5,-19 2597.5,0 2765.5,0 2765.5,-19"/>
<text text-anchor="middle" x="2681.5" y="-7" font-family="Helvetica,sans-Serif" font-size="10.00">geometry_msgs/msg/point.hpp</text>
</a>
</g>
</g>
<!-- Node43&#45;&gt;Node44 -->
<g id="edge44_Node000043_Node000044" class="edge">
<title>Node43&#45;&gt;Node44</title>
<g id="a_edge44_Node000043_Node000044"><a xlink:title=" ">
<path fill="none" stroke="#63b8ff" d="M2329.39,-61.11C2402.63,-50.58 2532.35,-31.94 2612.24,-20.45"/>
<polygon fill="#63b8ff" stroke="#63b8ff" points="2612.81,-23.91 2622.21,-19.02 2611.81,-16.98 2612.81,-23.91"/>
</a>
</g>
</g>
<!-- Node45 -->
<g id="Node000045" class="node">
<title>Node45</title>
<g id="a_Node000045"><a xlink:title=" ">
<polygon fill="#e0e0e0" stroke="#999999" points="2979.5,-19 2783.5,-19 2783.5,0 2979.5,0 2979.5,-19"/>
<text text-anchor="middle" x="2881.5" y="-7" font-family="Helvetica,sans-Serif" font-size="10.00">geometry_msgs/msg/quaternion.hpp</text>
</a>
</g>
</g>
<!-- Node43&#45;&gt;Node45 -->
<g id="edge45_Node000043_Node000045" class="edge">
<title>Node43&#45;&gt;Node45</title>
<g id="a_edge45_Node000043_Node000045"><a xlink:title=" ">
<path fill="none" stroke="#63b8ff" d="M2329.17,-63.73C2431.6,-53.86 2653.69,-32.46 2782.88,-20"/>
<polygon fill="#63b8ff" stroke="#63b8ff" points="2783.55,-23.46 2793.16,-19.01 2782.87,-16.49 2783.55,-23.46"/>
</a>
</g>
</g>
<!-- Node46 -->
<g id="Node000046" class="node">
<title>Node46</title>
<g id="a_Node000046"><a xlink:title=" ">
<polygon fill="#e0e0e0" stroke="#999999" points="2381,-19 2190,-19 2190,0 2381,0 2381,-19"/>
<text text-anchor="middle" x="2285.5" y="-7" font-family="Helvetica,sans-Serif" font-size="10.00">geometry_msgs/msg/transform.hpp</text>
</a>
</g>
</g>
<!-- Node43&#45;&gt;Node46 -->
<g id="edge47_Node000043_Node000046" class="edge">
<title>Node43&#45;&gt;Node46</title>
<g id="a_edge47_Node000043_Node000046"><a xlink:title=" ">
<path fill="none" stroke="#63b8ff" d="M2277.16,-54.84C2278.61,-47.13 2280.43,-37.49 2281.99,-29.17"/>
<polygon fill="#63b8ff" stroke="#63b8ff" points="2285.44,-29.74 2283.85,-19.27 2278.56,-28.45 2285.44,-29.74"/>
</a>
</g>
</g>
<!-- Node47 -->
<g id="Node000047" class="node">
<title>Node47</title>
<g id="a_Node000047"><a xlink:title=" ">
<polygon fill="#e0e0e0" stroke="#999999" points="2579.5,-19 2399.5,-19 2399.5,0 2579.5,0 2579.5,-19"/>
<text text-anchor="middle" x="2489.5" y="-7" font-family="Helvetica,sans-Serif" font-size="10.00">geometry_msgs/msg/vector3.hpp</text>
</a>
</g>
</g>
<!-- Node43&#45;&gt;Node47 -->
<g id="edge48_Node000043_Node000047" class="edge">
<title>Node43&#45;&gt;Node47</title>
<g id="a_edge48_Node000043_Node000047"><a xlink:title=" ">
<path fill="none" stroke="#63b8ff" d="M2326,-54.99C2363.42,-44.8 2413.41,-31.2 2448.23,-21.73"/>
<polygon fill="#63b8ff" stroke="#63b8ff" points="2449.33,-25.06 2458.06,-19.05 2447.5,-18.3 2449.33,-25.06"/>
</a>
</g>
</g>
</g>
</svg>

<g id="navigator" transform="translate(0 0)" fill="#404254">
  <rect fill="#f2f5e9" fill-opacity="0.5" stroke="#606060" stroke-width=".5" x="0" y="0" width="60" height="60"/>
  <use id="zoomplus" xlink:href="#zoomPlus" x="17" y="9" onmousedown="handleZoom(evt,'in')"/>
  <use id="zoomminus" xlink:href="#zoomMin" x="42" y="9" onmousedown="handleZoom(evt,'out')"/>
  <use id="reset" xlink:href="#resetDef" x="30" y="36" onmousedown="handleReset()"/>
   <use id="arrowup" xlink:href="#arrowUp" x="0" y="0" onmousedown="handlePan(0,-1)"/>
  <use id="arrowright" xlink:href="#arrowRight" x="0" y="0" onmousedown="handlePan(1,0)"/>
  <use id="arrowdown" xlink:href="#arrowDown" x="0" y="0" onmousedown="handlePan(0,1)"/>
  <use id="arrowleft" xlink:href="#arrowLeft" x="0" y="0" onmousedown="handlePan(-1,0)"/>
</g>
<svg viewBox="0 0 15 15" width="100%" height="30px" preserveAspectRatio="xMaxYMin meet">
 <g id="arrow_out" transform="scale(0.3 0.3)">
  <a xlink:href="continuous__mission__orchestrator__node_8cpp__incl_org.svg" target="_base">
   <rect id="button" ry="5" rx="5" y="6" x="6" height="38" width="38"
        fill="#f2f5e9" fill-opacity="0.5" stroke="#606060" stroke-width="1.0"/>
   <path id="arrow"
     d="M 11.500037,31.436501 C 11.940474,20.09759 22.043105,11.32322 32.158766,21.979434 L 37.068811,17.246167 C 37.068811,17.246167 37.088388,32 37.088388,32 L 22.160133,31.978069 C 22.160133,31.978069 26.997745,27.140456 26.997745,27.140456 C 18.528582,18.264221 13.291696,25.230495 11.500037,31.436501 z"
     style="fill:#404040;"/>
  </a>
 </g>
</svg>

<style type='text/css'>
<![CDATA[
[data-mouse-over-selected='false'] { opacity: 0.7; }
[data-mouse-over-selected='true']  { opacity: 1.0; }
]]>
</style>
<script type="application/ecmascript"><![CDATA[
document.addEventListener('DOMContentLoaded', (event) => {
  highlightEdges();
  highlightAdjacentNodes();
});
]]></script>
</svg>
