<?xml version="1.0" encoding="UTF-8" standalone="no"?>
<!DOCTYPE svg PUBLIC "-//W3C//DTD SVG 1.1//EN"
 "http://www.w3.org/Graphics/SVG/1.1/DTD/svg11.dtd">
<!-- Generated by graphviz version 2.43.0 (0)
 -->
<!-- Title: /home/ffn/Workspace/ros2_humble_ws/src/III&#45;Drone&#45;Core/include/iii_drone_core/mission/continuous_mission_orchestrator_node/continuous_mission_orchestrator_node_configurator.hpp Pages: 1 -->
<svg width="1029pt" height="225pt"
 viewBox="0.00 0.00 1028.50 225.00" xmlns="http://www.w3.org/2000/svg" xmlns:xlink="http://www.w3.org/1999/xlink">
<g id="graph0" class="graph" transform="scale(1 1) rotate(0) translate(4 221)">
<title>/home/ffn/Workspace/ros2_humble_ws/src/III&#45;Drone&#45;Core/include/iii_drone_core/mission/continuous_mission_orchestrator_node/continuous_mission_orchestrator_node_configurator.hpp</title>
<!-- Node1 -->
<g id="Node000001" class="node">
<title>Node1</title>
<g id="a_Node000001"><a xlink:title=" ">
<polygon fill="#999999" stroke="#666666" points="439.5,-217 229.5,-217 229.5,-132 439.5,-132 439.5,-217"/>
<text text-anchor="start" x="237.5" y="-205" font-family="Helvetica,sans-Serif" font-size="10.00">/home/ffn/Workspace</text>
<text text-anchor="start" x="237.5" y="-194" font-family="Helvetica,sans-Serif" font-size="10.00">/ros2_humble_ws/src</text>
<text text-anchor="start" x="237.5" y="-183" font-family="Helvetica,sans-Serif" font-size="10.00">/III&#45;Drone&#45;Core/include</text>
<text text-anchor="start" x="237.5" y="-172" font-family="Helvetica,sans-Serif" font-size="10.00">/iii_drone_core/mission</text>
<text text-anchor="start" x="237.5" y="-161" font-family="Helvetica,sans-Serif" font-size="10.00">/continuous_mission_orchestrator</text>
<text text-anchor="start" x="237.5" y="-150" font-family="Helvetica,sans-Serif" font-size="10.00">_node/continuous_mission_orchestrator</text>
<text text-anchor="middle" x="334.5" y="-139" font-family="Helvetica,sans-Serif" font-size="10.00">_node_configurator.hpp</text>
</a>
</g>
</g>
<!-- Node2 -->
<g id="Node000002" class="node">
<title>Node2</title>
<g id="a_Node000002"><a xlink:href="configurator_8hpp.html" target="_top" xlink:title=" ">
<polygon fill="white" stroke="#666666" points="694.5,-96 542.5,-96 542.5,-66 694.5,-66 694.5,-96"/>
<text text-anchor="start" x="550.5" y="-84" font-family="Helvetica,sans-Serif" font-size="10.00">iii_drone_core/configuration</text>
<text text-anchor="middle" x="618.5" y="-73" font-family="Helvetica,sans-Serif" font-size="10.00">/configurator.hpp</text>
</a>
</g>
</g>
<!-- Node1&#45;&gt;Node2 -->
<g id="edge1_Node000001_Node000002" class="edge">
<title>Node1&#45;&gt;Node2</title>
<g id="a_edge1_Node000001_Node000002"><a xlink:title=" ">
<path fill="none" stroke="#63b8ff" d="M439.85,-139.56C482.56,-125.8 530.02,-110.51 565.28,-99.15"/>
<polygon fill="#63b8ff" stroke="#63b8ff" points="566.44,-102.45 574.89,-96.05 564.3,-95.79 566.44,-102.45"/>
</a>
</g>
</g>
<!-- Node4 -->
<g id="Node000004" class="node">
<title>Node4</title>
<g id="a_Node000004"><a xlink:title=" ">
<polygon fill="#e0e0e0" stroke="#999999" points="99,-24.5 0,-24.5 0,-5.5 99,-5.5 99,-24.5"/>
<text text-anchor="middle" x="49.5" y="-12.5" font-family="Helvetica,sans-Serif" font-size="10.00">rclcpp/rclcpp.hpp</text>
</a>
</g>
</g>
<!-- Node1&#45;&gt;Node4 -->
<g id="edge12_Node000001_Node000004" class="edge">
<title>Node1&#45;&gt;Node4</title>
<g id="a_edge12_Node000001_Node000004"><a xlink:title=" ">
<path fill="none" stroke="#63b8ff" d="M259.25,-131.91C197.72,-97.91 114.49,-51.91 73.85,-29.46"/>
<polygon fill="#63b8ff" stroke="#63b8ff" points="75.38,-26.3 64.93,-24.53 71.99,-32.43 75.38,-26.3"/>
</a>
</g>
</g>
<!-- Node3 -->
<g id="Node000003" class="node">
<title>Node3</title>
<g id="a_Node000003"><a xlink:title=" ">
<polygon fill="#e0e0e0" stroke="#999999" points="267.5,-30 117.5,-30 117.5,0 267.5,0 267.5,-30"/>
<text text-anchor="start" x="125.5" y="-18" font-family="Helvetica,sans-Serif" font-size="10.00">iii_drone_interfaces</text>
<text text-anchor="middle" x="192.5" y="-7" font-family="Helvetica,sans-Serif" font-size="10.00">/srv/declare_parameter.hpp</text>
</a>
</g>
</g>
<!-- Node2&#45;&gt;Node3 -->
<g id="edge2_Node000002_Node000003" class="edge">
<title>Node2&#45;&gt;Node3</title>
<g id="a_edge2_Node000002_Node000003"><a xlink:title=" ">
<path fill="none" stroke="#63b8ff" d="M542.37,-69.31C475.32,-59.8 374.75,-45.28 277.59,-30.15"/>
<polygon fill="#63b8ff" stroke="#63b8ff" points="278.01,-26.68 267.59,-28.59 276.93,-33.59 278.01,-26.68"/>
</a>
</g>
</g>
<!-- Node2&#45;&gt;Node4 -->
<g id="edge3_Node000002_Node000004" class="edge">
<title>Node2&#45;&gt;Node4</title>
<g id="a_edge3_Node000002_Node000004"><a xlink:title=" ">
<path fill="none" stroke="#63b8ff" d="M542.47,-75.77C442.44,-69.46 261.41,-55.52 108.5,-30 103.11,-29.1 97.49,-27.99 91.94,-26.79"/>
<polygon fill="#63b8ff" stroke="#63b8ff" points="92.63,-23.36 82.11,-24.57 91.09,-30.19 92.63,-23.36"/>
</a>
</g>
</g>
<!-- Node5 -->
<g id="Node000005" class="node">
<title>Node5</title>
<g id="a_Node000005"><a xlink:title=" ">
<polygon fill="#e0e0e0" stroke="#999999" points="410,-30 285,-30 285,0 410,0 410,-30"/>
<text text-anchor="start" x="293" y="-18" font-family="Helvetica,sans-Serif" font-size="10.00">rcl_interfaces/msg</text>
<text text-anchor="middle" x="347.5" y="-7" font-family="Helvetica,sans-Serif" font-size="10.00">/parameter_event.hpp</text>
</a>
</g>
</g>
<!-- Node2&#45;&gt;Node5 -->
<g id="edge4_Node000002_Node000005" class="edge">
<title>Node2&#45;&gt;Node5</title>
<g id="a_edge4_Node000002_Node000005"><a xlink:title=" ">
<path fill="none" stroke="#63b8ff" d="M559.03,-65.95C517.02,-56.03 460.6,-42.71 416.59,-32.32"/>
<polygon fill="#63b8ff" stroke="#63b8ff" points="417.37,-28.9 406.83,-30.01 415.76,-35.72 417.37,-28.9"/>
</a>
</g>
</g>
<!-- Node6 -->
<g id="Node000006" class="node">
<title>Node6</title>
<g id="a_Node000006"><a xlink:title=" ">
<polygon fill="#e0e0e0" stroke="#999999" points="578.5,-30 428.5,-30 428.5,0 578.5,0 578.5,-30"/>
<text text-anchor="start" x="436.5" y="-18" font-family="Helvetica,sans-Serif" font-size="10.00">rcl_interfaces/msg</text>
<text text-anchor="middle" x="503.5" y="-7" font-family="Helvetica,sans-Serif" font-size="10.00">/set_parameters_result.hpp</text>
</a>
</g>
</g>
<!-- Node2&#45;&gt;Node6 -->
<g id="edge5_Node000002_Node000006" class="edge">
<title>Node2&#45;&gt;Node6</title>
<g id="a_edge5_Node000002_Node000006"><a xlink:title=" ">
<path fill="none" stroke="#63b8ff" d="M593.26,-65.95C576.93,-56.87 555.48,-44.93 537.63,-35"/>
<polygon fill="#63b8ff" stroke="#63b8ff" points="539.12,-31.82 528.68,-30.01 535.71,-37.93 539.12,-31.82"/>
</a>
</g>
</g>
<!-- Node7 -->
<g id="Node000007" class="node">
<title>Node7</title>
<g id="a_Node000007"><a xlink:title=" ">
<polygon fill="#e0e0e0" stroke="#999999" points="640.5,-24.5 596.5,-24.5 596.5,-5.5 640.5,-5.5 640.5,-24.5"/>
<text text-anchor="middle" x="618.5" y="-12.5" font-family="Helvetica,sans-Serif" font-size="10.00">string</text>
</a>
</g>
</g>
<!-- Node2&#45;&gt;Node7 -->
<g id="edge6_Node000002_Node000007" class="edge">
<title>Node2&#45;&gt;Node7</title>
<g id="a_edge6_Node000002_Node000007"><a xlink:title=" ">
<path fill="none" stroke="#63b8ff" d="M618.5,-65.8C618.5,-56.7 618.5,-44.79 618.5,-34.9"/>
<polygon fill="#63b8ff" stroke="#63b8ff" points="622,-34.84 618.5,-24.84 615,-34.84 622,-34.84"/>
</a>
</g>
</g>
<!-- Node8 -->
<g id="Node000008" class="node">
<title>Node8</title>
<g id="a_Node000008"><a xlink:title=" ">
<polygon fill="#e0e0e0" stroke="#999999" points="706,-24.5 659,-24.5 659,-5.5 706,-5.5 706,-24.5"/>
<text text-anchor="middle" x="682.5" y="-12.5" font-family="Helvetica,sans-Serif" font-size="10.00">vector</text>
</a>
</g>
</g>
<!-- Node2&#45;&gt;Node8 -->
<g id="edge7_Node000002_Node000008" class="edge">
<title>Node2&#45;&gt;Node8</title>
<g id="a_edge7_Node000002_Node000008"><a xlink:title=" ">
<path fill="none" stroke="#63b8ff" d="M632.7,-65.8C642.68,-55.82 656.04,-42.46 666.41,-32.09"/>
<polygon fill="#63b8ff" stroke="#63b8ff" points="669.06,-34.39 673.66,-24.84 664.11,-29.44 669.06,-34.39"/>
</a>
</g>
</g>
<!-- Node9 -->
<g id="Node000009" class="node">
<title>Node9</title>
<g id="a_Node000009"><a xlink:title=" ">
<polygon fill="#e0e0e0" stroke="#999999" points="772.5,-24.5 724.5,-24.5 724.5,-5.5 772.5,-5.5 772.5,-24.5"/>
<text text-anchor="middle" x="748.5" y="-12.5" font-family="Helvetica,sans-Serif" font-size="10.00">mutex</text>
</a>
</g>
</g>
<!-- Node2&#45;&gt;Node9 -->
<g id="edge8_Node000002_Node000009" class="edge">
<title>Node2&#45;&gt;Node9</title>
<g id="a_edge8_Node000002_Node000009"><a xlink:title=" ">
<path fill="none" stroke="#63b8ff" d="M647.03,-65.95C669.43,-54.93 700.36,-39.7 722.17,-28.96"/>
<polygon fill="#63b8ff" stroke="#63b8ff" points="723.77,-32.07 731.2,-24.52 720.68,-25.79 723.77,-32.07"/>
</a>
</g>
</g>
<!-- Node10 -->
<g id="Node000010" class="node">
<title>Node10</title>
<g id="a_Node000010"><a xlink:title=" ">
<polygon fill="#e0e0e0" stroke="#999999" points="876.5,-24.5 790.5,-24.5 790.5,-5.5 876.5,-5.5 876.5,-24.5"/>
<text text-anchor="middle" x="833.5" y="-12.5" font-family="Helvetica,sans-Serif" font-size="10.00">shared_mutex</text>
</a>
</g>
</g>
<!-- Node2&#45;&gt;Node10 -->
<g id="edge9_Node000002_Node000010" class="edge">
<title>Node2&#45;&gt;Node10</title>
<g id="a_edge9_Node000002_Node000010"><a xlink:title=" ">
<path fill="none" stroke="#63b8ff" d="M665.68,-65.95C704.55,-54.38 758.97,-38.18 795.18,-27.41"/>
<polygon fill="#63b8ff" stroke="#63b8ff" points="796.3,-30.72 804.89,-24.52 794.3,-24.02 796.3,-30.72"/>
</a>
</g>
</g>
<!-- Node11 -->
<g id="Node000011" class="node">
<title>Node11</title>
<g id="a_Node000011"><a xlink:title=" ">
<polygon fill="#e0e0e0" stroke="#999999" points="952.5,-24.5 894.5,-24.5 894.5,-5.5 952.5,-5.5 952.5,-24.5"/>
<text text-anchor="middle" x="923.5" y="-12.5" font-family="Helvetica,sans-Serif" font-size="10.00">memory</text>
</a>
</g>
</g>
<!-- Node2&#45;&gt;Node11 -->
<g id="edge10_Node000002_Node000011" class="edge">
<title>Node2&#45;&gt;Node11</title>
<g id="a_edge10_Node000002_Node000011"><a xlink:title=" ">
<path fill="none" stroke="#63b8ff" d="M694.65,-69.23C748.49,-60.76 822.08,-47.49 885.5,-30 887.79,-29.37 890.13,-28.66 892.48,-27.91"/>
<polygon fill="#63b8ff" stroke="#63b8ff" points="893.68,-31.19 902,-24.63 891.41,-24.58 893.68,-31.19"/>
</a>
</g>
</g>
<!-- Node12 -->
<g id="Node000012" class="node">
<title>Node12</title>
<g id="a_Node000012"><a xlink:title=" ">
<polygon fill="#e0e0e0" stroke="#999999" points="1020.5,-24.5 970.5,-24.5 970.5,-5.5 1020.5,-5.5 1020.5,-24.5"/>
<text text-anchor="middle" x="995.5" y="-12.5" font-family="Helvetica,sans-Serif" font-size="10.00">atomic</text>
</a>
</g>
</g>
<!-- Node2&#45;&gt;Node12 -->
<g id="edge11_Node000002_Node000012" class="edge">
<title>Node2&#45;&gt;Node12</title>
<g id="a_edge11_Node000002_Node000012"><a xlink:title=" ">
<path fill="none" stroke="#63b8ff" d="M694.54,-74.31C764.78,-67.8 871.55,-54.67 961.5,-30 963.44,-29.47 965.42,-28.86 967.39,-28.19"/>
<polygon fill="#63b8ff" stroke="#63b8ff" points="968.95,-31.34 977.08,-24.55 966.49,-24.79 968.95,-31.34"/>
</a>
</g>
</g>
</g>
</svg>
