<?xml version="1.0" encoding="UTF-8" standalone="no"?>
<!DOCTYPE svg PUBLIC "-//W3C//DTD SVG 1.1//EN"
 "http://www.w3.org/Graphics/SVG/1.1/DTD/svg11.dtd">
<!-- Generated by graphviz version 2.43.0 (0)
 -->
<!-- Title: /home/ffn/Workspace/ros2_humble_ws/src/III&#45;Drone&#45;Core/include Pages: 1 -->
<svg width="398pt" height="295pt"
 viewBox="0.00 0.00 397.50 295.00" xmlns="http://www.w3.org/2000/svg" xmlns:xlink="http://www.w3.org/1999/xlink">
<g id="graph0" class="graph" transform="scale(1 1) rotate(0) translate(4 291)">
<title>/home/ffn/Workspace/ros2_humble_ws/src/III&#45;Drone&#45;Core/include</title>
<g id="clust1" class="cluster">
<title>clusterdir_d44c64559bbebec7f509842c48db8b23</title>
<g id="a_clust1"><a xlink:href="dir_d44c64559bbebec7f509842c48db8b23.html" target="_top">
<polygon fill="#edf0f7" stroke="#404040" stroke-width="2" points="8,-8 8,-279 350,-279 350,-8 8,-8"/>
</a>
</g>
</g>
<g id="clust2" class="cluster">
<title>clusterdir_675c2ae8dc1cdd323b7308c72e2b5eff</title>
<g id="a_clust2"><a xlink:href="dir_675c2ae8dc1cdd323b7308c72e2b5eff.html" target="_top">
<polygon fill="#c8d2e7" stroke="#404040" points="142,-16 142,-271 342,-271 342,-16 142,-16"/>
</a>
</g>
</g>
<!-- dir_d44c64559bbebec7f509842c48db8b23 -->
<g id="node1" class="node">
<title>dir_d44c64559bbebec7f509842c48db8b23</title>
<text text-anchor="middle" x="108" y="-251" font-family="Helvetica,sans-Serif" font-size="10.00">include</text>
</g>
<!-- dir_675c2ae8dc1cdd323b7308c72e2b5eff -->
<g id="node2" class="node">
<title>dir_675c2ae8dc1cdd323b7308c72e2b5eff</title>
<text text-anchor="middle" x="291" y="-251" font-family="Helvetica,sans-Serif" font-size="10.00">iii_drone_core</text>
</g>
<!-- dir_8d2df975878b3889d1f4f27f142f8b6b -->
<g id="node3" class="node">
<title>dir_8d2df975878b3889d1f4f27f142f8b6b</title>
<g id="a_node3"><a xlink:href="dir_8d2df975878b3889d1f4f27f142f8b6b.html" target="_top" xlink:title="adapters">
<polygon fill="#a2b4d6" stroke="#404040" points="323.5,-208 264.5,-208 264.5,-189 323.5,-189 323.5,-208"/>
<text text-anchor="middle" x="294" y="-196" font-family="Helvetica,sans-Serif" font-size="10.00">adapters</text>
</a>
</g>
</g>
<!-- dir_64d5253432a7d5ea5d4718f2a0207b0e -->
<g id="node5" class="node">
<title>dir_64d5253432a7d5ea5d4718f2a0207b0e</title>
<g id="a_node5"><a xlink:href="dir_64d5253432a7d5ea5d4718f2a0207b0e.html" target="_top" xlink:title="control">
<polygon fill="#a2b4d6" stroke="#404040" points="334,-153 284,-153 284,-134 334,-134 334,-153"/>
<text text-anchor="middle" x="309" y="-141" font-family="Helvetica,sans-Serif" font-size="10.00">control</text>
</a>
</g>
</g>
<!-- dir_8d2df975878b3889d1f4f27f142f8b6b&#45;&gt;dir_64d5253432a7d5ea5d4718f2a0207b0e -->
<g id="edge1" class="edge">
<title>dir_8d2df975878b3889d1f4f27f142f8b6b&#45;&gt;dir_64d5253432a7d5ea5d4718f2a0207b0e</title>
<g id="a_edge1"><a xlink:href="dir_000002_000008.html" target="_top">
<path fill="none" stroke="#63b8ff" d="M291.31,-188.75C291.79,-181.65 294.27,-171.4 297.45,-162.56"/>
<polygon fill="#63b8ff" stroke="#63b8ff" points="300.79,-163.66 301.44,-153.09 294.33,-160.95 300.79,-163.66"/>
</a>
</g>
<g id="a_edge1&#45;headlabel"><a xlink:href="dir_000002_000008.html" target="_top" xlink:title="6">
<text text-anchor="middle" x="302.01" y="-165.58" font-family="Helvetica,sans-Serif" font-size="10.00" fill="#63b8ff">6</text>
</a>
</g>
</g>
<!-- dir_8d5fce3f9f0b3f85e2b55e571fc75ab3 -->
<g id="node8" class="node">
<title>dir_8d5fce3f9f0b3f85e2b55e571fc75ab3</title>
<g id="a_node8"><a xlink:href="dir_8d5fce3f9f0b3f85e2b55e571fc75ab3.html" target="_top" xlink:title="utils">
<polygon fill="#a2b4d6" stroke="#404040" points="270,-98 232,-98 232,-79 270,-79 270,-98"/>
<text text-anchor="middle" x="251" y="-86" font-family="Helvetica,sans-Serif" font-size="10.00">utils</text>
</a>
</g>
</g>
<!-- dir_8d2df975878b3889d1f4f27f142f8b6b&#45;&gt;dir_8d5fce3f9f0b3f85e2b55e571fc75ab3 -->
<g id="edge2" class="edge">
<title>dir_8d2df975878b3889d1f4f27f142f8b6b&#45;&gt;dir_8d5fce3f9f0b3f85e2b55e571fc75ab3</title>
<g id="a_edge2"><a xlink:href="dir_000002_000036.html" target="_top">
<path fill="none" stroke="#63b8ff" d="M283.3,-188.68C277.18,-179.74 271.02,-165.47 266,-153 259.94,-137.95 253.46,-120.72 250.16,-108.01"/>
<polygon fill="#63b8ff" stroke="#63b8ff" points="253.58,-107.28 248.17,-98.17 246.72,-108.67 253.58,-107.28"/>
</a>
</g>
<g id="a_edge2&#45;headlabel"><a xlink:href="dir_000002_000036.html" target="_top" xlink:title="15">
<text text-anchor="middle" x="257.08" y="-107.74" font-family="Helvetica,sans-Serif" font-size="10.00" fill="#63b8ff">15</text>
</a>
</g>
</g>
<!-- dir_0266f6c656cc8031115a442d81d571fa -->
<g id="node4" class="node">
<title>dir_0266f6c656cc8031115a442d81d571fa</title>
<g id="a_node4"><a xlink:href="dir_0266f6c656cc8031115a442d81d571fa.html" target="_top" xlink:title="configuration">
<polygon fill="#a2b4d6" stroke="#404040" points="265,-43 185,-43 185,-24 265,-24 265,-43"/>
<text text-anchor="middle" x="225" y="-31" font-family="Helvetica,sans-Serif" font-size="10.00">configuration</text>
</a>
</g>
</g>
<!-- dir_64d5253432a7d5ea5d4718f2a0207b0e&#45;&gt;dir_8d2df975878b3889d1f4f27f142f8b6b -->
<g id="edge5" class="edge">
<title>dir_64d5253432a7d5ea5d4718f2a0207b0e&#45;&gt;dir_8d2df975878b3889d1f4f27f142f8b6b</title>
<g id="a_edge5"><a xlink:href="dir_000008_000002.html" target="_top">
<path fill="none" stroke="#63b8ff" d="M311.7,-153.09C311.25,-160.14 308.79,-170.37 305.62,-179.24"/>
<polygon fill="#63b8ff" stroke="#63b8ff" points="302.27,-178.17 301.64,-188.75 308.73,-180.87 302.27,-178.17"/>
</a>
</g>
<g id="a_edge5&#45;headlabel"><a xlink:href="dir_000008_000002.html" target="_top" xlink:title="30">
<text text-anchor="middle" x="301.04" y="-171.26" font-family="Helvetica,sans-Serif" font-size="10.00" fill="#63b8ff">30</text>
</a>
</g>
</g>
<!-- dir_64d5253432a7d5ea5d4718f2a0207b0e&#45;&gt;dir_0266f6c656cc8031115a442d81d571fa -->
<g id="edge3" class="edge">
<title>dir_64d5253432a7d5ea5d4718f2a0207b0e&#45;&gt;dir_0266f6c656cc8031115a442d81d571fa</title>
<g id="a_edge3"><a xlink:href="dir_000008_000004.html" target="_top">
<path fill="none" stroke="#63b8ff" d="M306.2,-133.61C301.84,-120.68 292.48,-96.32 279,-79 270.02,-67.47 257.56,-56.95 246.86,-49.03"/>
<polygon fill="#63b8ff" stroke="#63b8ff" points="248.59,-45.97 238.41,-43.03 244.54,-51.68 248.59,-45.97"/>
</a>
</g>
<g id="a_edge3&#45;headlabel"><a xlink:href="dir_000008_000004.html" target="_top" xlink:title="3">
<text text-anchor="middle" x="253.17" y="-43.23" font-family="Helvetica,sans-Serif" font-size="10.00" fill="#63b8ff">3</text>
</a>
</g>
</g>
<!-- dir_64d5253432a7d5ea5d4718f2a0207b0e&#45;&gt;dir_8d5fce3f9f0b3f85e2b55e571fc75ab3 -->
<g id="edge6" class="edge">
<title>dir_64d5253432a7d5ea5d4718f2a0207b0e&#45;&gt;dir_8d5fce3f9f0b3f85e2b55e571fc75ab3</title>
<g id="a_edge6"><a xlink:href="dir_000008_000036.html" target="_top">
<path fill="none" stroke="#63b8ff" d="M299.68,-133.98C291.19,-126.23 278.44,-114.58 268.12,-105.14"/>
<polygon fill="#63b8ff" stroke="#63b8ff" points="270.23,-102.33 260.49,-98.17 265.51,-107.5 270.23,-102.33"/>
</a>
</g>
<g id="a_edge6&#45;headlabel"><a xlink:href="dir_000008_000036.html" target="_top" xlink:title="42">
<text text-anchor="middle" x="274.8" y="-100.16" font-family="Helvetica,sans-Serif" font-size="10.00" fill="#63b8ff">42</text>
</a>
</g>
</g>
<!-- dir_68267d1309a1af8e8297ef4c3efbcdba -->
<g id="node10" class="node">
<title>dir_68267d1309a1af8e8297ef4c3efbcdba</title>
<g id="a_node10"><a xlink:href="dir_68267d1309a1af8e8297ef4c3efbcdba.html" target="_top" xlink:title="src">
<polygon fill="#edf0f7" stroke="red" points="389.5,-98 358.5,-98 358.5,-79 389.5,-79 389.5,-98"/>
<text text-anchor="middle" x="374" y="-86" font-family="Helvetica,sans-Serif" font-size="10.00">src</text>
</a>
</g>
</g>
<!-- dir_64d5253432a7d5ea5d4718f2a0207b0e&#45;&gt;dir_68267d1309a1af8e8297ef4c3efbcdba -->
<g id="edge4" class="edge">
<title>dir_64d5253432a7d5ea5d4718f2a0207b0e&#45;&gt;dir_68267d1309a1af8e8297ef4c3efbcdba</title>
<g id="a_edge4"><a xlink:href="dir_000008_000033.html" target="_top">
<path fill="none" stroke="#63b8ff" d="M319.44,-133.98C329.15,-126.07 343.82,-114.11 355.5,-104.58"/>
<polygon fill="#63b8ff" stroke="#63b8ff" points="357.83,-107.2 363.37,-98.17 353.4,-101.78 357.83,-107.2"/>
</a>
</g>
<g id="a_edge4&#45;headlabel"><a xlink:href="dir_000008_000033.html" target="_top" xlink:title="4">
<text text-anchor="middle" x="356.84" y="-109.17" font-family="Helvetica,sans-Serif" font-size="10.00" fill="#63b8ff">4</text>
</a>
</g>
</g>
<!-- dir_e2f4441a3dedf42bd2fafa0ad0f471e6 -->
<g id="node6" class="node">
<title>dir_e2f4441a3dedf42bd2fafa0ad0f471e6</title>
<g id="a_node6"><a xlink:href="dir_e2f4441a3dedf42bd2fafa0ad0f471e6.html" target="_top" xlink:title="mission">
<polygon fill="#a2b4d6" stroke="#404040" points="225.5,-153 170.5,-153 170.5,-134 225.5,-134 225.5,-153"/>
<text text-anchor="middle" x="198" y="-141" font-family="Helvetica,sans-Serif" font-size="10.00">mission</text>
</a>
</g>
</g>
<!-- dir_e2f4441a3dedf42bd2fafa0ad0f471e6&#45;&gt;dir_0266f6c656cc8031115a442d81d571fa -->
<g id="edge7" class="edge">
<title>dir_e2f4441a3dedf42bd2fafa0ad0f471e6&#45;&gt;dir_0266f6c656cc8031115a442d81d571fa</title>
<g id="a_edge7"><a xlink:href="dir_000023_000004.html" target="_top">
<path fill="none" stroke="#63b8ff" d="M200.21,-133.66C204.6,-116.09 214.51,-76.45 220.39,-52.95"/>
<polygon fill="#63b8ff" stroke="#63b8ff" points="223.81,-53.71 222.84,-43.16 217.01,-52.01 223.81,-53.71"/>
</a>
</g>
<g id="a_edge7&#45;headlabel"><a xlink:href="dir_000023_000004.html" target="_top" xlink:title="1">
<text text-anchor="middle" x="225.69" y="-55.38" font-family="Helvetica,sans-Serif" font-size="10.00" fill="#63b8ff">1</text>
</a>
</g>
</g>
<!-- dir_e2f4441a3dedf42bd2fafa0ad0f471e6&#45;&gt;dir_8d5fce3f9f0b3f85e2b55e571fc75ab3 -->
<g id="edge8" class="edge">
<title>dir_e2f4441a3dedf42bd2fafa0ad0f471e6&#45;&gt;dir_8d5fce3f9f0b3f85e2b55e571fc75ab3</title>
<g id="a_edge8"><a xlink:href="dir_000023_000036.html" target="_top">
<path fill="none" stroke="#63b8ff" d="M206.75,-133.75C214.47,-126.03 225.9,-114.6 235.22,-105.28"/>
<polygon fill="#63b8ff" stroke="#63b8ff" points="237.81,-107.64 242.41,-98.09 232.86,-102.69 237.81,-107.64"/>
</a>
</g>
<g id="a_edge8&#45;headlabel"><a xlink:href="dir_000023_000036.html" target="_top" xlink:title="2">
<text text-anchor="middle" x="237.28" y="-109.68" font-family="Helvetica,sans-Serif" font-size="10.00" fill="#63b8ff">2</text>
</a>
</g>
</g>
<!-- dir_48cbf7624d6e369bbb294b7c2e607f94 -->
<g id="node7" class="node">
<title>dir_48cbf7624d6e369bbb294b7c2e607f94</title>
<g id="a_node7"><a xlink:href="dir_48cbf7624d6e369bbb294b7c2e607f94.html" target="_top" xlink:title="perception">
<polygon fill="#a2b4d6" stroke="#404040" points="230,-263 162,-263 162,-244 230,-244 230,-263"/>
<text text-anchor="middle" x="196" y="-251" font-family="Helvetica,sans-Serif" font-size="10.00">perception</text>
</a>
</g>
</g>
<!-- dir_48cbf7624d6e369bbb294b7c2e607f94&#45;&gt;dir_8d2df975878b3889d1f4f27f142f8b6b -->
<g id="edge10" class="edge">
<title>dir_48cbf7624d6e369bbb294b7c2e607f94&#45;&gt;dir_8d2df975878b3889d1f4f27f142f8b6b</title>
<g id="a_edge10"><a xlink:href="dir_000025_000002.html" target="_top">
<path fill="none" stroke="#63b8ff" d="M211.75,-243.98C227.23,-235.61 251.09,-222.7 269.14,-212.95"/>
<polygon fill="#63b8ff" stroke="#63b8ff" points="270.84,-216.01 277.97,-208.17 267.51,-209.85 270.84,-216.01"/>
</a>
</g>
<g id="a_edge10&#45;headlabel"><a xlink:href="dir_000025_000002.html" target="_top" xlink:title="9">
<text text-anchor="middle" x="269.03" y="-217.71" font-family="Helvetica,sans-Serif" font-size="10.00" fill="#63b8ff">9</text>
</a>
</g>
</g>
<!-- dir_48cbf7624d6e369bbb294b7c2e607f94&#45;&gt;dir_0266f6c656cc8031115a442d81d571fa -->
<g id="edge9" class="edge">
<title>dir_48cbf7624d6e369bbb294b7c2e607f94&#45;&gt;dir_0266f6c656cc8031115a442d81d571fa</title>
<g id="a_edge9"><a xlink:href="dir_000025_000004.html" target="_top">
<path fill="none" stroke="#63b8ff" d="M189.97,-243.88C177.07,-224.34 148.9,-175.16 161,-134 170.55,-101.51 194.35,-69.59 210.08,-50.99"/>
<polygon fill="#63b8ff" stroke="#63b8ff" points="212.93,-53.05 216.86,-43.21 207.65,-48.45 212.93,-53.05"/>
</a>
</g>
<g id="a_edge9&#45;headlabel"><a xlink:href="dir_000025_000004.html" target="_top" xlink:title="3">
<text text-anchor="middle" x="212.71" y="-55.12" font-family="Helvetica,sans-Serif" font-size="10.00" fill="#63b8ff">3</text>
</a>
</g>
</g>
<!-- dir_48cbf7624d6e369bbb294b7c2e607f94&#45;&gt;dir_8d5fce3f9f0b3f85e2b55e571fc75ab3 -->
<g id="edge11" class="edge">
<title>dir_48cbf7624d6e369bbb294b7c2e607f94&#45;&gt;dir_8d5fce3f9f0b3f85e2b55e571fc75ab3</title>
<g id="a_edge11"><a xlink:href="dir_000025_000036.html" target="_top">
<path fill="none" stroke="#63b8ff" d="M199.82,-243.85C207.28,-226.74 224.01,-187.28 235,-153 239.78,-138.1 244.04,-120.86 246.97,-108.11"/>
<polygon fill="#63b8ff" stroke="#63b8ff" points="250.41,-108.75 249.17,-98.23 243.58,-107.22 250.41,-108.75"/>
</a>
</g>
<g id="a_edge11&#45;headlabel"><a xlink:href="dir_000025_000036.html" target="_top" xlink:title="16">
<text text-anchor="middle" x="252.4" y="-110.37" font-family="Helvetica,sans-Serif" font-size="10.00" fill="#63b8ff">16</text>
</a>
</g>
</g>
<!-- dir_8d5fce3f9f0b3f85e2b55e571fc75ab3&#45;&gt;dir_8d2df975878b3889d1f4f27f142f8b6b -->
<g id="edge13" class="edge">
<title>dir_8d5fce3f9f0b3f85e2b55e571fc75ab3&#45;&gt;dir_8d2df975878b3889d1f4f27f142f8b6b</title>
<g id="a_edge13"><a xlink:href="dir_000036_000002.html" target="_top">
<path fill="none" stroke="#63b8ff" d="M260.12,-98.17C267.63,-110.44 276.17,-133.54 284,-153 287.45,-161.57 291.44,-170.99 294.16,-178.95"/>
<polygon fill="#63b8ff" stroke="#63b8ff" points="290.82,-180.01 296.91,-188.68 297.56,-178.11 290.82,-180.01"/>
</a>
</g>
<g id="a_edge13&#45;headlabel"><a xlink:href="dir_000036_000002.html" target="_top" xlink:title="1">
<text text-anchor="middle" x="287.11" y="-174.82" font-family="Helvetica,sans-Serif" font-size="10.00" fill="#63b8ff">1</text>
</a>
</g>
</g>
<!-- dir_8d5fce3f9f0b3f85e2b55e571fc75ab3&#45;&gt;dir_0266f6c656cc8031115a442d81d571fa -->
<g id="edge12" class="edge">
<title>dir_8d5fce3f9f0b3f85e2b55e571fc75ab3&#45;&gt;dir_0266f6c656cc8031115a442d81d571fa</title>
<g id="a_edge12"><a xlink:href="dir_000036_000004.html" target="_top">
<path fill="none" stroke="#63b8ff" d="M246.71,-78.75C243.19,-71.57 238.09,-61.18 233.72,-52.27"/>
<polygon fill="#63b8ff" stroke="#63b8ff" points="236.76,-50.53 229.21,-43.09 230.48,-53.61 236.76,-50.53"/>
</a>
</g>
<g id="a_edge12&#45;headlabel"><a xlink:href="dir_000036_000004.html" target="_top" xlink:title="1">
<text text-anchor="middle" x="240.89" y="-50" font-family="Helvetica,sans-Serif" font-size="10.00" fill="#63b8ff">1</text>
</a>
</g>
</g>
<!-- dir_2d9a094739e478dbc589127cc7229c0e -->
<g id="node9" class="node">
<title>dir_2d9a094739e478dbc589127cc7229c0e</title>
<g id="a_node9"><a xlink:href="dir_2d9a094739e478dbc589127cc7229c0e.html" target="_top" xlink:title="install">
<polygon fill="#c8d2e7" stroke="#404040" points="63.5,-263 16.5,-263 16.5,-244 63.5,-244 63.5,-263"/>
<text text-anchor="middle" x="40" y="-251" font-family="Helvetica,sans-Serif" font-size="10.00">install</text>
</a>
</g>
</g>
</g>
</svg>
