<?xml version="1.0" encoding="UTF-8" standalone="no"?>
<!DOCTYPE svg PUBLIC "-//W3C//DTD SVG 1.1//EN"
 "http://www.w3.org/Graphics/SVG/1.1/DTD/svg11.dtd">
<!-- Generated by graphviz version 2.43.0 (0)
 -->
<!-- Title: /home/ffn/Workspace/ros2_humble_ws/src/III&#45;Drone&#45;Core/include/iii_drone_core/perception Pages: 1 -->
<!--zoomable 141 -->

<svg id="main" version="1.1" xmlns="http://www.w3.org/2000/svg" xmlns:xlink="http://www.w3.org/1999/xlink" xml:space="preserve" onload="init(evt)">
<style type="text/css"><![CDATA[
.node, .edge {opacity: 0.7;}
.node.selected, .edge.selected {opacity: 1;}
.edge:hover path { stroke: red; }
.edge:hover polygon { stroke: red; fill: red; }
]]></style>

<defs>
  <circle id="rim" cx="0" cy="0" r="7"/>
  <circle id="rim2" cx="0" cy="0" r="3.5"/>
  <g id="zoomPlus">
    <use xlink:href="#rim" fill="#404040"><set attributeName="fill" to="#808080" begin="zoomplus.mouseover" end="zoomplus.mouseout"/></use>
    <path d="M-4,0h8M0,-4v8" fill="none" stroke="white" stroke-width="1.5" pointer-events="none"/>
  </g>
  <g id="zoomMin">
    <use xlink:href="#rim" fill="#404040"><set attributeName="fill" to="#808080" begin="zoomminus.mouseover" end="zoomminus.mouseout"/></use>
    <path d="M-4,0h8" fill="none" stroke="white" stroke-width="1.5" pointer-events="none"/>
  </g>
  <g id="arrowUp" transform="translate(30 24)">
    <use xlink:href="#rim"/>
    <path pointer-events="none" fill="none" stroke="white" stroke-width="1.5" d="M0,-3.0v7 M-2.5,-0.5L0,-3.0L2.5,-0.5"/>
  </g>
  <g id="arrowRight" transform="rotate(90) translate(36 -43)">
    <use xlink:href="#rim"/>
    <path pointer-events="none" fill="none" stroke="white" stroke-width="1.5" d="M0,-3.0v7 M-2.5,-0.5L0,-3.0L2.5,-0.5"/>
  </g>
  <g id="arrowDown" transform="rotate(180) translate(-30 -48)">
    <use xlink:href="#rim"/>
    <path pointer-events="none" fill="none" stroke="white" stroke-width="1.5" d="M0,-3.0v7 M-2.5,-0.5L0,-3.0L2.5,-0.5"/>
  </g>
  <g id="arrowLeft" transform="rotate(270) translate(-36 17)">
    <use xlink:href="#rim"/>
    <path pointer-events="none" fill="none" stroke="white" stroke-width="1.5" d="M0,-3.0v7 M-2.5,-0.5L0,-3.0L2.5,-0.5"/>
  </g>
  <g id="resetDef">
    <use xlink:href="#rim2" fill="#404040"><set attributeName="fill" to="#808080" begin="reset.mouseover" end="reset.mouseout"/></use>
  </g>
</defs>
<script type="application/ecmascript">
var viewWidth = 541;
var viewHeight = 141;
var sectionId = 'dynsection-0';
</script>
<script type="application/ecmascript" xlink:href="svg.min.js"/>
<svg id="graph" class="graph">
<g id="viewport">
<title>/home/ffn/Workspace/ros2_humble_ws/src/III&#45;Drone&#45;Core/include/iii_drone_core/perception</title>
<g id="clust1" class="cluster">
<title>clusterdir_675c2ae8dc1cdd323b7308c72e2b5eff</title>
<g id="a_clust1"><a xlink:href="dir_675c2ae8dc1cdd323b7308c72e2b5eff.html" target="_top" xlink:title="iii_drone_core">
<polygon fill="#edf0f7" stroke="#7f7f7f" stroke-dasharray="5,2" points="8,-8 8,-125 525,-125 525,-8 8,-8"/>
<text text-anchor="middle" x="266.5" y="-113" font-family="Helvetica,sans-Serif" font-size="10.00">iii_drone_core</text>
</a>
</g>
</g>
<g id="clust2" class="cluster">
<title>clusterdir_48cbf7624d6e369bbb294b7c2e607f94</title>
<g id="a_clust2"><a xlink:href="dir_48cbf7624d6e369bbb294b7c2e607f94.html" target="_top">
<polygon fill="#edf0f7" stroke="#404040" stroke-width="2" points="16,-63 16,-98 517,-98 517,-63 16,-63"/>
</a>
</g>
</g>
<!-- dir_0266f6c656cc8031115a442d81d571fa -->
<g id="node1" class="node">
<title>dir_0266f6c656cc8031115a442d81d571fa</title>
<g id="a_node1"><a xlink:href="dir_0266f6c656cc8031115a442d81d571fa.html" target="_top" xlink:title="configuration">
<polygon fill="#c8d2e7" stroke="#404040" points="329,-35 249,-35 249,-16 329,-16 329,-35"/>
<text text-anchor="middle" x="289" y="-23" font-family="Helvetica,sans-Serif" font-size="10.00">configuration</text>
</a>
</g>
</g>
<!-- dir_8d2df975878b3889d1f4f27f142f8b6b -->
<g id="node2" class="node">
<title>dir_8d2df975878b3889d1f4f27f142f8b6b</title>
<g id="a_node2"><a xlink:href="dir_8d2df975878b3889d1f4f27f142f8b6b.html" target="_top" xlink:title="adapters">
<polygon fill="#c8d2e7" stroke="red" points="104.5,-35 45.5,-35 45.5,-16 104.5,-16 104.5,-35"/>
<text text-anchor="middle" x="75" y="-23" font-family="Helvetica,sans-Serif" font-size="10.00">adapters</text>
</a>
</g>
</g>
<!-- dir_8d5fce3f9f0b3f85e2b55e571fc75ab3 -->
<g id="node3" class="node">
<title>dir_8d5fce3f9f0b3f85e2b55e571fc75ab3</title>
<g id="a_node3"><a xlink:href="dir_8d5fce3f9f0b3f85e2b55e571fc75ab3.html" target="_top" xlink:title="utils">
<polygon fill="#c8d2e7" stroke="red" points="178,-35 140,-35 140,-16 178,-16 178,-35"/>
<text text-anchor="middle" x="159" y="-23" font-family="Helvetica,sans-Serif" font-size="10.00">utils</text>
</a>
</g>
</g>
<!-- dir_48cbf7624d6e369bbb294b7c2e607f94 -->
<g id="node4" class="node">
<title>dir_48cbf7624d6e369bbb294b7c2e607f94</title>
<text text-anchor="middle" x="58" y="-78" font-family="Helvetica,sans-Serif" font-size="10.00">perception</text>
</g>
<!-- dir_48cbf7624d6e369bbb294b7c2e607f94&#45;&gt;dir_8d2df975878b3889d1f4f27f142f8b6b -->
<g id="edge1" class="edge">
<title>dir_48cbf7624d6e369bbb294b7c2e607f94&#45;&gt;dir_8d2df975878b3889d1f4f27f142f8b6b</title>
<g id="a_edge1"><a xlink:href="dir_000025_000002.html" target="_top">
<path fill="none" stroke="#63b8ff" d="M60.81,-70.75C63.06,-63.72 66.3,-53.62 69.12,-44.84"/>
<polygon fill="#63b8ff" stroke="#63b8ff" points="72.52,-45.68 72.25,-35.09 65.86,-43.54 72.52,-45.68"/>
</a>
</g>
<g id="a_edge1&#45;headlabel"><a xlink:href="dir_000025_000002.html" target="_top" xlink:title="9">
<text text-anchor="middle" x="74.13" y="-47.47" font-family="Helvetica,sans-Serif" font-size="10.00" fill="#63b8ff">9</text>
</a>
</g>
</g>
<!-- dir_48cbf7624d6e369bbb294b7c2e607f94&#45;&gt;dir_8d5fce3f9f0b3f85e2b55e571fc75ab3 -->
<g id="edge2" class="edge">
<title>dir_48cbf7624d6e369bbb294b7c2e607f94&#45;&gt;dir_8d5fce3f9f0b3f85e2b55e571fc75ab3</title>
<g id="a_edge2"><a xlink:href="dir_000025_000036.html" target="_top">
<path fill="none" stroke="#63b8ff" d="M74.23,-70.98C90.18,-62.61 114.78,-49.7 133.38,-39.95"/>
<polygon fill="#63b8ff" stroke="#63b8ff" points="135.25,-42.92 142.48,-35.17 132,-36.72 135.25,-42.92"/>
</a>
</g>
<g id="a_edge2&#45;headlabel"><a xlink:href="dir_000025_000036.html" target="_top" xlink:title="16">
<text text-anchor="middle" x="133.39" y="-44.6" font-family="Helvetica,sans-Serif" font-size="10.00" fill="#63b8ff">16</text>
</a>
</g>
</g>
<!-- dir_fb31c7bdcf40f0e70ae4037a93e67e15 -->
<g id="node5" class="node">
<title>dir_fb31c7bdcf40f0e70ae4037a93e67e15</title>
<g id="a_node5"><a xlink:href="dir_fb31c7bdcf40f0e70ae4037a93e67e15.html" target="_top" xlink:title="hough_transformer_node">
<polygon fill="#c8d2e7" stroke="#404040" points="508.5,-90 369.5,-90 369.5,-71 508.5,-71 508.5,-90"/>
<text text-anchor="middle" x="439" y="-78" font-family="Helvetica,sans-Serif" font-size="10.00">hough_transformer_node</text>
</a>
</g>
</g>
<!-- dir_fb31c7bdcf40f0e70ae4037a93e67e15&#45;&gt;dir_0266f6c656cc8031115a442d81d571fa -->
<g id="edge3" class="edge">
<title>dir_fb31c7bdcf40f0e70ae4037a93e67e15&#45;&gt;dir_0266f6c656cc8031115a442d81d571fa</title>
<g id="a_edge3"><a xlink:href="dir_000013_000004.html" target="_top">
<path fill="none" stroke="#63b8ff" d="M414.9,-70.98C390.12,-62.23 351.3,-48.51 323.31,-38.62"/>
<polygon fill="#63b8ff" stroke="#63b8ff" points="324.13,-35.2 313.54,-35.17 321.8,-41.8 324.13,-35.2"/>
</a>
</g>
<g id="a_edge3&#45;headlabel"><a xlink:href="dir_000013_000004.html" target="_top" xlink:title="1">
<text text-anchor="middle" x="328.47" y="-31.22" font-family="Helvetica,sans-Serif" font-size="10.00" fill="#63b8ff">1</text>
</a>
</g>
</g>
<!-- dir_ec1361d44c3d71d4c0400ba0b1aec2b7 -->
<g id="node6" class="node">
<title>dir_ec1361d44c3d71d4c0400ba0b1aec2b7</title>
<g id="a_node6"><a xlink:href="dir_ec1361d44c3d71d4c0400ba0b1aec2b7.html" target="_top" xlink:title="pl_dir_computer_node">
<polygon fill="#c8d2e7" stroke="#404040" points="351.5,-90 226.5,-90 226.5,-71 351.5,-71 351.5,-90"/>
<text text-anchor="middle" x="289" y="-78" font-family="Helvetica,sans-Serif" font-size="10.00">pl_dir_computer_node</text>
</a>
</g>
</g>
<!-- dir_ec1361d44c3d71d4c0400ba0b1aec2b7&#45;&gt;dir_0266f6c656cc8031115a442d81d571fa -->
<g id="edge4" class="edge">
<title>dir_ec1361d44c3d71d4c0400ba0b1aec2b7&#45;&gt;dir_0266f6c656cc8031115a442d81d571fa</title>
<g id="a_edge4"><a xlink:href="dir_000027_000004.html" target="_top">
<path fill="none" stroke="#63b8ff" d="M289,-70.75C289,-63.8 289,-53.85 289,-45.13"/>
<polygon fill="#63b8ff" stroke="#63b8ff" points="292.5,-45.09 289,-35.09 285.5,-45.09 292.5,-45.09"/>
</a>
</g>
<g id="a_edge4&#45;headlabel"><a xlink:href="dir_000027_000004.html" target="_top" xlink:title="1">
<text text-anchor="middle" x="295.34" y="-46.18" font-family="Helvetica,sans-Serif" font-size="10.00" fill="#63b8ff">1</text>
</a>
</g>
</g>
<!-- dir_ec1361d44c3d71d4c0400ba0b1aec2b7&#45;&gt;dir_8d5fce3f9f0b3f85e2b55e571fc75ab3 -->
<g id="edge5" class="edge">
<title>dir_ec1361d44c3d71d4c0400ba0b1aec2b7&#45;&gt;dir_8d5fce3f9f0b3f85e2b55e571fc75ab3</title>
<g id="a_edge5"><a xlink:href="dir_000027_000036.html" target="_top">
<path fill="none" stroke="#63b8ff" d="M268.11,-70.98C246.29,-62.09 211.9,-48.07 187.56,-38.15"/>
<polygon fill="#63b8ff" stroke="#63b8ff" points="188.72,-34.84 178.14,-34.3 186.08,-41.32 188.72,-34.84"/>
</a>
</g>
<g id="a_edge5&#45;headlabel"><a xlink:href="dir_000027_000036.html" target="_top" xlink:title="2">
<text text-anchor="middle" x="193.12" y="-31.07" font-family="Helvetica,sans-Serif" font-size="10.00" fill="#63b8ff">2</text>
</a>
</g>
</g>
<!-- dir_8ea78de6a173fb6e8fc12a97280ac84d -->
<g id="node7" class="node">
<title>dir_8ea78de6a173fb6e8fc12a97280ac84d</title>
<g id="a_node7"><a xlink:href="dir_8ea78de6a173fb6e8fc12a97280ac84d.html" target="_top" xlink:title="pl_mapper_node">
<polygon fill="#c8d2e7" stroke="#404040" points="208,-90 110,-90 110,-71 208,-71 208,-90"/>
<text text-anchor="middle" x="159" y="-78" font-family="Helvetica,sans-Serif" font-size="10.00">pl_mapper_node</text>
</a>
</g>
</g>
<!-- dir_8ea78de6a173fb6e8fc12a97280ac84d&#45;&gt;dir_0266f6c656cc8031115a442d81d571fa -->
<g id="edge6" class="edge">
<title>dir_8ea78de6a173fb6e8fc12a97280ac84d&#45;&gt;dir_0266f6c656cc8031115a442d81d571fa</title>
<g id="a_edge6"><a xlink:href="dir_000029_000004.html" target="_top">
<path fill="none" stroke="#63b8ff" d="M179.89,-70.98C201.08,-62.34 234.13,-48.87 258.3,-39.02"/>
<polygon fill="#63b8ff" stroke="#63b8ff" points="259.79,-42.19 267.73,-35.17 257.15,-35.7 259.79,-42.19"/>
</a>
</g>
<g id="a_edge6&#45;headlabel"><a xlink:href="dir_000029_000004.html" target="_top" xlink:title="1">
<text text-anchor="middle" x="257.54" y="-43.67" font-family="Helvetica,sans-Serif" font-size="10.00" fill="#63b8ff">1</text>
</a>
</g>
</g>
<!-- dir_8ea78de6a173fb6e8fc12a97280ac84d&#45;&gt;dir_8d2df975878b3889d1f4f27f142f8b6b -->
<g id="edge7" class="edge">
<title>dir_8ea78de6a173fb6e8fc12a97280ac84d&#45;&gt;dir_8d2df975878b3889d1f4f27f142f8b6b</title>
<g id="a_edge7"><a xlink:href="dir_000029_000002.html" target="_top">
<path fill="none" stroke="#63b8ff" d="M145.5,-70.98C132.6,-62.84 112.9,-50.41 97.6,-40.76"/>
<polygon fill="#63b8ff" stroke="#63b8ff" points="99.07,-37.55 88.74,-35.17 95.33,-43.47 99.07,-37.55"/>
</a>
</g>
<g id="a_edge7&#45;headlabel"><a xlink:href="dir_000029_000002.html" target="_top" xlink:title="4">
<text text-anchor="middle" x="103.62" y="-34.56" font-family="Helvetica,sans-Serif" font-size="10.00" fill="#63b8ff">4</text>
</a>
</g>
</g>
<!-- dir_8ea78de6a173fb6e8fc12a97280ac84d&#45;&gt;dir_8d5fce3f9f0b3f85e2b55e571fc75ab3 -->
<g id="edge8" class="edge">
<title>dir_8ea78de6a173fb6e8fc12a97280ac84d&#45;&gt;dir_8d5fce3f9f0b3f85e2b55e571fc75ab3</title>
<g id="a_edge8"><a xlink:href="dir_000029_000036.html" target="_top">
<path fill="none" stroke="#63b8ff" d="M159,-70.75C159,-63.8 159,-53.85 159,-45.13"/>
<polygon fill="#63b8ff" stroke="#63b8ff" points="162.5,-45.09 159,-35.09 155.5,-45.09 162.5,-45.09"/>
</a>
</g>
<g id="a_edge8&#45;headlabel"><a xlink:href="dir_000029_000036.html" target="_top" xlink:title="2">
<text text-anchor="middle" x="165.34" y="-46.18" font-family="Helvetica,sans-Serif" font-size="10.00" fill="#63b8ff">2</text>
</a>
</g>
</g>
</g>
</svg>

<g id="navigator" transform="translate(0 0)" fill="#404254">
  <rect fill="#f2f5e9" fill-opacity="0.5" stroke="#606060" stroke-width=".5" x="0" y="0" width="60" height="60"/>
  <use id="zoomplus" xlink:href="#zoomPlus" x="17" y="9" onmousedown="handleZoom(evt,'in')"/>
  <use id="zoomminus" xlink:href="#zoomMin" x="42" y="9" onmousedown="handleZoom(evt,'out')"/>
  <use id="reset" xlink:href="#resetDef" x="30" y="36" onmousedown="handleReset()"/>
   <use id="arrowup" xlink:href="#arrowUp" x="0" y="0" onmousedown="handlePan(0,-1)"/>
  <use id="arrowright" xlink:href="#arrowRight" x="0" y="0" onmousedown="handlePan(1,0)"/>
  <use id="arrowdown" xlink:href="#arrowDown" x="0" y="0" onmousedown="handlePan(0,1)"/>
  <use id="arrowleft" xlink:href="#arrowLeft" x="0" y="0" onmousedown="handlePan(-1,0)"/>
</g>
<svg viewBox="0 0 15 15" width="100%" height="30px" preserveAspectRatio="xMaxYMin meet">
 <g id="arrow_out" transform="scale(0.3 0.3)">
  <a xlink:href="dir_48cbf7624d6e369bbb294b7c2e607f94_dep_org.svg" target="_base">
   <rect id="button" ry="5" rx="5" y="6" x="6" height="38" width="38"
        fill="#f2f5e9" fill-opacity="0.5" stroke="#606060" stroke-width="1.0"/>
   <path id="arrow"
     d="M 11.500037,31.436501 C 11.940474,20.09759 22.043105,11.32322 32.158766,21.979434 L 37.068811,17.246167 C 37.068811,17.246167 37.088388,32 37.088388,32 L 22.160133,31.978069 C 22.160133,31.978069 26.997745,27.140456 26.997745,27.140456 C 18.528582,18.264221 13.291696,25.230495 11.500037,31.436501 z"
     style="fill:#404040;"/>
  </a>
 </g>
</svg>

<style type='text/css'>
<![CDATA[
[data-mouse-over-selected='false'] { opacity: 0.7; }
[data-mouse-over-selected='true']  { opacity: 1.0; }
]]>
</style>
<script type="application/ecmascript"><![CDATA[
document.addEventListener('DOMContentLoaded', (event) => {
  highlightEdges();
  highlightAdjacentNodes();
});
]]></script>
</svg>
