<?xml version="1.0" encoding="UTF-8" standalone="no"?>
<!DOCTYPE svg PUBLIC "-//W3C//DTD SVG 1.1//EN"
 "http://www.w3.org/Graphics/SVG/1.1/DTD/svg11.dtd">
<!-- Generated by graphviz version 2.43.0 (0)
 -->
<!-- Title: /home/ffn/Workspace/ros2_humble_ws/src/III&#45;Drone&#45;Core/src Pages: 1 -->
<!--zoomable 118 -->

<svg id="main" version="1.1" xmlns="http://www.w3.org/2000/svg" xmlns:xlink="http://www.w3.org/1999/xlink" xml:space="preserve" onload="init(evt)">
<style type="text/css"><![CDATA[
.node, .edge {opacity: 0.7;}
.node.selected, .edge.selected {opacity: 1;}
.edge:hover path { stroke: red; }
.edge:hover polygon { stroke: red; fill: red; }
]]></style>

<defs>
  <circle id="rim" cx="0" cy="0" r="7"/>
  <circle id="rim2" cx="0" cy="0" r="3.5"/>
  <g id="zoomPlus">
    <use xlink:href="#rim" fill="#404040"><set attributeName="fill" to="#808080" begin="zoomplus.mouseover" end="zoomplus.mouseout"/></use>
    <path d="M-4,0h8M0,-4v8" fill="none" stroke="white" stroke-width="1.5" pointer-events="none"/>
  </g>
  <g id="zoomMin">
    <use xlink:href="#rim" fill="#404040"><set attributeName="fill" to="#808080" begin="zoomminus.mouseover" end="zoomminus.mouseout"/></use>
    <path d="M-4,0h8" fill="none" stroke="white" stroke-width="1.5" pointer-events="none"/>
  </g>
  <g id="arrowUp" transform="translate(30 24)">
    <use xlink:href="#rim"/>
    <path pointer-events="none" fill="none" stroke="white" stroke-width="1.5" d="M0,-3.0v7 M-2.5,-0.5L0,-3.0L2.5,-0.5"/>
  </g>
  <g id="arrowRight" transform="rotate(90) translate(36 -43)">
    <use xlink:href="#rim"/>
    <path pointer-events="none" fill="none" stroke="white" stroke-width="1.5" d="M0,-3.0v7 M-2.5,-0.5L0,-3.0L2.5,-0.5"/>
  </g>
  <g id="arrowDown" transform="rotate(180) translate(-30 -48)">
    <use xlink:href="#rim"/>
    <path pointer-events="none" fill="none" stroke="white" stroke-width="1.5" d="M0,-3.0v7 M-2.5,-0.5L0,-3.0L2.5,-0.5"/>
  </g>
  <g id="arrowLeft" transform="rotate(270) translate(-36 17)">
    <use xlink:href="#rim"/>
    <path pointer-events="none" fill="none" stroke="white" stroke-width="1.5" d="M0,-3.0v7 M-2.5,-0.5L0,-3.0L2.5,-0.5"/>
  </g>
  <g id="resetDef">
    <use xlink:href="#rim2" fill="#404040"><set attributeName="fill" to="#808080" begin="reset.mouseover" end="reset.mouseout"/></use>
  </g>
</defs>
<script type="application/ecmascript">
var viewWidth = 2136;
var viewHeight = 118;
var sectionId = 'dynsection-0';
</script>
<script type="application/ecmascript" xlink:href="svg.min.js"/>
<svg id="graph" class="graph">
<g id="viewport">
<title>/home/ffn/Workspace/ros2_humble_ws/src/III&#45;Drone&#45;Core/src</title>
<g id="clust1" class="cluster">
<title>clusterdir_68267d1309a1af8e8297ef4c3efbcdba</title>
<g id="a_clust1"><a xlink:href="dir_68267d1309a1af8e8297ef4c3efbcdba.html" target="_top">
<polygon fill="#edf0f7" stroke="#404040" stroke-width="2" points="8,-40.17 8,-102.17 2120,-102.17 2120,-40.17 8,-40.17"/>
</a>
</g>
</g>
<g id="clust2" class="cluster">
<title>clusterdir_085924db4bed469054a9264cf96b0d5e</title>
<g id="a_clust2"><a xlink:href="dir_085924db4bed469054a9264cf96b0d5e.html" target="_top">
<polygon fill="#c8d2e7" stroke="#404040" points="1983,-53.67 1983,-88.67 2112,-88.67 2112,-53.67 1983,-53.67"/>
</a>
</g>
</g>
<g id="clust3" class="cluster">
<title>clusterdir_b81b067251166617f9d0a8c0cfc3a4a9</title>
<g id="a_clust3"><a xlink:href="dir_b81b067251166617f9d0a8c0cfc3a4a9.html" target="_top">
<polygon fill="#c8d2e7" stroke="#404040" points="1349,-53.67 1349,-88.67 1975,-88.67 1975,-53.67 1349,-53.67"/>
</a>
</g>
</g>
<g id="clust4" class="cluster">
<title>clusterdir_026b903d89613d2d50919c0215a7de0b</title>
<g id="a_clust4"><a xlink:href="dir_026b903d89613d2d50919c0215a7de0b.html" target="_top">
<polygon fill="#c8d2e7" stroke="#404040" points="1127,-53.67 1127,-88.67 1341,-88.67 1341,-53.67 1127,-53.67"/>
</a>
</g>
</g>
<g id="clust5" class="cluster">
<title>clusterdir_955b1c61ed471e4c2fb69d50f9d2a912</title>
<g id="a_clust5"><a xlink:href="dir_955b1c61ed471e4c2fb69d50f9d2a912.html" target="_top">
<polygon fill="#c8d2e7" stroke="#404040" points="916,-48.17 916,-94.17 1119,-94.17 1119,-48.17 916,-48.17"/>
</a>
</g>
</g>
<g id="clust6" class="cluster">
<title>clusterdir_346c2aea098094a6f11a0f66feef12e0</title>
<g id="a_clust6"><a xlink:href="dir_346c2aea098094a6f11a0f66feef12e0.html" target="_top">
<polygon fill="#c8d2e7" stroke="#404040" points="407,-53.67 407,-88.67 908,-88.67 908,-53.67 407,-53.67"/>
</a>
</g>
</g>
<g id="clust7" class="cluster">
<title>clusterdir_313caf1132e152dd9b58bea13a4052ca</title>
<g id="a_clust7"><a xlink:href="dir_313caf1132e152dd9b58bea13a4052ca.html" target="_top">
<polygon fill="#c8d2e7" stroke="#404040" points="155,-53.67 155,-88.67 399,-88.67 399,-53.67 155,-53.67"/>
</a>
</g>
</g>
<!-- dir_68267d1309a1af8e8297ef4c3efbcdba -->
<g id="node1" class="node">
<title>dir_68267d1309a1af8e8297ef4c3efbcdba</title>
<text text-anchor="middle" x="130" y="-68.67" font-family="Helvetica,sans-Serif" font-size="10.00">src</text>
</g>
<!-- dir_085924db4bed469054a9264cf96b0d5e -->
<g id="node2" class="node">
<title>dir_085924db4bed469054a9264cf96b0d5e</title>
<text text-anchor="middle" x="2074" y="-68.67" font-family="Helvetica,sans-Serif" font-size="10.00">adapters</text>
</g>
<!-- dir_d44c64559bbebec7f509842c48db8b23 -->
<g id="node20" class="node">
<title>dir_d44c64559bbebec7f509842c48db8b23</title>
<g id="a_node20"><a xlink:href="dir_d44c64559bbebec7f509842c48db8b23.html" target="_top" xlink:title="include">
<polygon fill="#edf0f7" stroke="red" points="949,-20.17 897,-20.17 897,-1.17 949,-1.17 949,-20.17"/>
<text text-anchor="middle" x="923" y="-8.17" font-family="Helvetica,sans-Serif" font-size="10.00">include</text>
</a>
</g>
</g>
<!-- dir_085924db4bed469054a9264cf96b0d5e&#45;&gt;dir_d44c64559bbebec7f509842c48db8b23 -->
<g id="edge1" class="edge">
<title>dir_085924db4bed469054a9264cf96b0d5e&#45;&gt;dir_d44c64559bbebec7f509842c48db8b23</title>
<g id="a_edge1"><a xlink:href="dir_000003_000016.html" target="_top">
<path fill="none" stroke="#63b8ff" d="M2066.23,-61.49C2059.16,-54.28 2048.01,-44.52 2036,-40.17 1984.29,-21.48 1144.91,-13.5 959.19,-11.96"/>
<polygon fill="#63b8ff" stroke="#63b8ff" points="959.15,-8.46 949.12,-11.88 959.09,-15.46 959.15,-8.46"/>
</a>
</g>
<g id="a_edge1&#45;headlabel"><a xlink:href="dir_000003_000016.html" target="_top" xlink:title="14">
<text text-anchor="middle" x="962.77" y="-3.15" font-family="Helvetica,sans-Serif" font-size="10.00" fill="#63b8ff">14</text>
</a>
</g>
</g>
<!-- dir_170fcf9cf4327e30c02e26248c047532 -->
<g id="node3" class="node">
<title>dir_170fcf9cf4327e30c02e26248c047532</title>
<g id="a_node3"><a xlink:href="dir_170fcf9cf4327e30c02e26248c047532.html" target="_top" xlink:title="px4">
<polygon fill="#a2b4d6" stroke="#404040" points="2026.5,-80.67 1991.5,-80.67 1991.5,-61.67 2026.5,-61.67 2026.5,-80.67"/>
<text text-anchor="middle" x="2009" y="-68.67" font-family="Helvetica,sans-Serif" font-size="10.00">px4</text>
</a>
</g>
</g>
<!-- dir_170fcf9cf4327e30c02e26248c047532&#45;&gt;dir_d44c64559bbebec7f509842c48db8b23 -->
<g id="edge2" class="edge">
<title>dir_170fcf9cf4327e30c02e26248c047532&#45;&gt;dir_d44c64559bbebec7f509842c48db8b23</title>
<g id="a_edge2"><a xlink:href="dir_000032_000016.html" target="_top">
<path fill="none" stroke="#63b8ff" d="M2003.26,-61.53C1997.93,-54.34 1989.28,-44.6 1979,-40.17 1931.22,-19.63 1138.87,-13.11 959.08,-11.9"/>
<polygon fill="#63b8ff" stroke="#63b8ff" points="959.1,-8.4 949.08,-11.83 959.06,-15.4 959.1,-8.4"/>
</a>
</g>
<g id="a_edge2&#45;headlabel"><a xlink:href="dir_000032_000016.html" target="_top" xlink:title="4">
<text text-anchor="middle" x="962.72" y="-3.08" font-family="Helvetica,sans-Serif" font-size="10.00" fill="#63b8ff">4</text>
</a>
</g>
</g>
<!-- dir_4939e1535a9c78a4a46737b61ec76827 -->
<g id="node4" class="node">
<title>dir_4939e1535a9c78a4a46737b61ec76827</title>
<g id="a_node4"><a xlink:href="dir_4939e1535a9c78a4a46737b61ec76827.html" target="_top" xlink:title="configuration">
<polygon fill="#c8d2e7" stroke="#404040" points="96,-80.67 16,-80.67 16,-61.67 96,-61.67 96,-80.67"/>
<text text-anchor="middle" x="56" y="-68.67" font-family="Helvetica,sans-Serif" font-size="10.00">configuration</text>
</a>
</g>
</g>
<!-- dir_4939e1535a9c78a4a46737b61ec76827&#45;&gt;dir_d44c64559bbebec7f509842c48db8b23 -->
<g id="edge3" class="edge">
<title>dir_4939e1535a9c78a4a46737b61ec76827&#45;&gt;dir_d44c64559bbebec7f509842c48db8b23</title>
<g id="a_edge3"><a xlink:href="dir_000005_000016.html" target="_top">
<path fill="none" stroke="#63b8ff" d="M66.75,-61.5C76.38,-54.3 91.24,-44.54 106,-40.17 181.35,-17.88 737.73,-12.83 886.51,-11.87"/>
<polygon fill="#63b8ff" stroke="#63b8ff" points="886.92,-15.37 896.9,-11.81 886.87,-8.37 886.92,-15.37"/>
</a>
</g>
<g id="a_edge3&#45;headlabel"><a xlink:href="dir_000005_000016.html" target="_top" xlink:title="1">
<text text-anchor="middle" x="883.34" y="-15.73" font-family="Helvetica,sans-Serif" font-size="10.00" fill="#63b8ff">1</text>
</a>
</g>
</g>
<!-- dir_b81b067251166617f9d0a8c0cfc3a4a9 -->
<g id="node5" class="node">
<title>dir_b81b067251166617f9d0a8c0cfc3a4a9</title>
<text text-anchor="middle" x="1942" y="-68.67" font-family="Helvetica,sans-Serif" font-size="10.00">control</text>
</g>
<!-- dir_b81b067251166617f9d0a8c0cfc3a4a9&#45;&gt;dir_d44c64559bbebec7f509842c48db8b23 -->
<g id="edge4" class="edge">
<title>dir_b81b067251166617f9d0a8c0cfc3a4a9&#45;&gt;dir_d44c64559bbebec7f509842c48db8b23</title>
<g id="a_edge4"><a xlink:href="dir_000009_000016.html" target="_top">
<path fill="none" stroke="#63b8ff" d="M1935.24,-61.52C1929.03,-54.32 1919.13,-44.57 1908,-40.17 1863.09,-22.45 1131.27,-13.82 959.08,-12.03"/>
<polygon fill="#63b8ff" stroke="#63b8ff" points="959.04,-8.53 949.01,-11.93 958.97,-15.53 959.04,-8.53"/>
</a>
</g>
<g id="a_edge4&#45;headlabel"><a xlink:href="dir_000009_000016.html" target="_top" xlink:title="25">
<text text-anchor="middle" x="962.67" y="-3.23" font-family="Helvetica,sans-Serif" font-size="10.00" fill="#63b8ff">25</text>
</a>
</g>
</g>
<!-- dir_acd522d9863177cd6c2f91bed459baab -->
<g id="node6" class="node">
<title>dir_acd522d9863177cd6c2f91bed459baab</title>
<g id="a_node6"><a xlink:href="dir_acd522d9863177cd6c2f91bed459baab.html" target="_top" xlink:title="_flight_controller_node">
<polygon fill="#a2b4d6" stroke="#404040" points="1899,-80.67 1771,-80.67 1771,-61.67 1899,-61.67 1899,-80.67"/>
<text text-anchor="middle" x="1835" y="-68.67" font-family="Helvetica,sans-Serif" font-size="10.00">_flight_controller_node</text>
</a>
</g>
</g>
<!-- dir_4a1b1f8c635c88b0601e9ec2bf710340 -->
<g id="node7" class="node">
<title>dir_4a1b1f8c635c88b0601e9ec2bf710340</title>
<g id="a_node7"><a xlink:href="dir_4a1b1f8c635c88b0601e9ec2bf710340.html" target="_top" xlink:title="maneuver">
<polygon fill="#a2b4d6" stroke="#404040" points="1753,-80.67 1687,-80.67 1687,-61.67 1753,-61.67 1753,-80.67"/>
<text text-anchor="middle" x="1720" y="-68.67" font-family="Helvetica,sans-Serif" font-size="10.00">maneuver</text>
</a>
</g>
</g>
<!-- dir_4a1b1f8c635c88b0601e9ec2bf710340&#45;&gt;dir_d44c64559bbebec7f509842c48db8b23 -->
<g id="edge5" class="edge">
<title>dir_4a1b1f8c635c88b0601e9ec2bf710340&#45;&gt;dir_d44c64559bbebec7f509842c48db8b23</title>
<g id="a_edge5"><a xlink:href="dir_000019_000016.html" target="_top">
<path fill="none" stroke="#63b8ff" d="M1711.22,-61.52C1703.28,-54.33 1690.89,-44.57 1678,-40.17 1609.72,-16.86 1101.13,-12.57 959.51,-11.82"/>
<polygon fill="#63b8ff" stroke="#63b8ff" points="959.22,-8.32 949.2,-11.77 959.18,-15.32 959.22,-8.32"/>
</a>
</g>
<g id="a_edge5&#45;headlabel"><a xlink:href="dir_000019_000016.html" target="_top" xlink:title="13">
<text text-anchor="middle" x="962.83" y="-3" font-family="Helvetica,sans-Serif" font-size="10.00" fill="#63b8ff">13</text>
</a>
</g>
</g>
<!-- dir_3cc614badda0b79b0c429edf9c3a32f0 -->
<g id="node8" class="node">
<title>dir_3cc614badda0b79b0c429edf9c3a32f0</title>
<g id="a_node8"><a xlink:href="dir_3cc614badda0b79b0c429edf9c3a32f0.html" target="_top" xlink:title="maneuver_controller_node">
<polygon fill="#a2b4d6" stroke="#404040" points="1668.5,-80.67 1521.5,-80.67 1521.5,-61.67 1668.5,-61.67 1668.5,-80.67"/>
<text text-anchor="middle" x="1595" y="-68.67" font-family="Helvetica,sans-Serif" font-size="10.00">maneuver_controller_node</text>
</a>
</g>
</g>
<!-- dir_3cc614badda0b79b0c429edf9c3a32f0&#45;&gt;dir_d44c64559bbebec7f509842c48db8b23 -->
<g id="edge6" class="edge">
<title>dir_3cc614badda0b79b0c429edf9c3a32f0&#45;&gt;dir_d44c64559bbebec7f509842c48db8b23</title>
<g id="a_edge6"><a xlink:href="dir_000021_000016.html" target="_top">
<path fill="none" stroke="#63b8ff" d="M1576.34,-61.61C1559.82,-54.46 1534.84,-44.75 1512,-40.17 1405.39,-18.83 1070.23,-13.28 959.16,-12.01"/>
<polygon fill="#63b8ff" stroke="#63b8ff" points="959.16,-8.51 949.13,-11.9 959.09,-15.51 959.16,-8.51"/>
</a>
</g>
<g id="a_edge6&#45;headlabel"><a xlink:href="dir_000021_000016.html" target="_top" xlink:title="2">
<text text-anchor="middle" x="962.79" y="-3.21" font-family="Helvetica,sans-Serif" font-size="10.00" fill="#63b8ff">2</text>
</a>
</g>
</g>
<!-- dir_8bba633fa13273fb420b9591b40555c6 -->
<g id="node9" class="node">
<title>dir_8bba633fa13273fb420b9591b40555c6</title>
<g id="a_node9"><a xlink:href="dir_8bba633fa13273fb420b9591b40555c6.html" target="_top" xlink:title="trajectory_generator_node">
<polygon fill="#a2b4d6" stroke="#404040" points="1503,-80.67 1357,-80.67 1357,-61.67 1503,-61.67 1503,-80.67"/>
<text text-anchor="middle" x="1430" y="-68.67" font-family="Helvetica,sans-Serif" font-size="10.00">trajectory_generator_node</text>
</a>
</g>
</g>
<!-- dir_8bba633fa13273fb420b9591b40555c6&#45;&gt;dir_d44c64559bbebec7f509842c48db8b23 -->
<g id="edge7" class="edge">
<title>dir_8bba633fa13273fb420b9591b40555c6&#45;&gt;dir_d44c64559bbebec7f509842c48db8b23</title>
<g id="a_edge7"><a xlink:href="dir_000035_000016.html" target="_top">
<path fill="none" stroke="#63b8ff" d="M1410.51,-61.58C1393.56,-54.53 1368.14,-44.95 1345,-40.17 1271.66,-25.05 1047.32,-15.93 959.13,-12.85"/>
<polygon fill="#63b8ff" stroke="#63b8ff" points="959.19,-9.35 949.08,-12.51 958.95,-16.35 959.19,-9.35"/>
</a>
</g>
<g id="a_edge7&#45;headlabel"><a xlink:href="dir_000035_000016.html" target="_top" xlink:title="2">
<text text-anchor="middle" x="962.88" y="-4.14" font-family="Helvetica,sans-Serif" font-size="10.00" fill="#63b8ff">2</text>
</a>
</g>
</g>
<!-- dir_026b903d89613d2d50919c0215a7de0b -->
<g id="node10" class="node">
<title>dir_026b903d89613d2d50919c0215a7de0b</title>
<text text-anchor="middle" x="1309" y="-68.67" font-family="Helvetica,sans-Serif" font-size="10.00">extern</text>
</g>
<!-- dir_ca5532670d1fb154e0b833ed24d76a56 -->
<g id="node11" class="node">
<title>dir_ca5532670d1fb154e0b833ed24d76a56</title>
<g id="a_node11"><a xlink:href="dir_ca5532670d1fb154e0b833ed24d76a56.html" target="_top" xlink:title="matlab_MPC_5Hz_hp10">
<polygon fill="#a2b4d6" stroke="#404040" points="1266.5,-80.67 1135.5,-80.67 1135.5,-61.67 1266.5,-61.67 1266.5,-80.67"/>
<text text-anchor="middle" x="1201" y="-68.67" font-family="Helvetica,sans-Serif" font-size="10.00">matlab_MPC_5Hz_hp10</text>
</a>
</g>
</g>
<!-- dir_955b1c61ed471e4c2fb69d50f9d2a912 -->
<g id="node12" class="node">
<title>dir_955b1c61ed471e4c2fb69d50f9d2a912</title>
<text text-anchor="middle" x="1083" y="-68.67" font-family="Helvetica,sans-Serif" font-size="10.00">mission</text>
</g>
<!-- dir_266c4784a8595a4dfdb5a463e6631cfa -->
<g id="node13" class="node">
<title>dir_266c4784a8595a4dfdb5a463e6631cfa</title>
<g id="a_node13"><a xlink:href="dir_266c4784a8595a4dfdb5a463e6631cfa.html" target="_top" xlink:title="continuous_mission\l_orchestrator_node">
<polygon fill="#a2b4d6" stroke="#404040" points="1037.5,-86.17 924.5,-86.17 924.5,-56.17 1037.5,-56.17 1037.5,-86.17"/>
<text text-anchor="start" x="932.5" y="-74.17" font-family="Helvetica,sans-Serif" font-size="10.00">continuous_mission</text>
<text text-anchor="middle" x="981" y="-63.17" font-family="Helvetica,sans-Serif" font-size="10.00">_orchestrator_node</text>
</a>
</g>
</g>
<!-- dir_266c4784a8595a4dfdb5a463e6631cfa&#45;&gt;dir_d44c64559bbebec7f509842c48db8b23 -->
<g id="edge8" class="edge">
<title>dir_266c4784a8595a4dfdb5a463e6631cfa&#45;&gt;dir_d44c64559bbebec7f509842c48db8b23</title>
<g id="a_edge8"><a xlink:href="dir_000007_000016.html" target="_top">
<path fill="none" stroke="#63b8ff" d="M966.96,-56.01C958.45,-47.43 947.59,-36.47 938.78,-27.59"/>
<polygon fill="#63b8ff" stroke="#63b8ff" points="941.22,-25.08 931.69,-20.44 936.25,-30.01 941.22,-25.08"/>
</a>
</g>
<g id="a_edge8&#45;headlabel"><a xlink:href="dir_000007_000016.html" target="_top" xlink:title="2">
<text text-anchor="middle" x="945.76" y="-23.13" font-family="Helvetica,sans-Serif" font-size="10.00" fill="#63b8ff">2</text>
</a>
</g>
</g>
<!-- dir_346c2aea098094a6f11a0f66feef12e0 -->
<g id="node14" class="node">
<title>dir_346c2aea098094a6f11a0f66feef12e0</title>
<text text-anchor="middle" x="866" y="-68.67" font-family="Helvetica,sans-Serif" font-size="10.00">perception</text>
</g>
<!-- dir_346c2aea098094a6f11a0f66feef12e0&#45;&gt;dir_d44c64559bbebec7f509842c48db8b23 -->
<g id="edge9" class="edge">
<title>dir_346c2aea098094a6f11a0f66feef12e0&#45;&gt;dir_d44c64559bbebec7f509842c48db8b23</title>
<g id="a_edge9"><a xlink:href="dir_000026_000016.html" target="_top">
<path fill="none" stroke="#63b8ff" d="M874.41,-61.54C883.08,-52.64 896.8,-38.56 907.46,-27.63"/>
<polygon fill="#63b8ff" stroke="#63b8ff" points="910.08,-29.95 914.55,-20.34 905.07,-25.06 910.08,-29.95"/>
</a>
</g>
<g id="a_edge9&#45;headlabel"><a xlink:href="dir_000026_000016.html" target="_top" xlink:title="13">
<text text-anchor="middle" x="909.61" y="-32" font-family="Helvetica,sans-Serif" font-size="10.00" fill="#63b8ff">13</text>
</a>
</g>
</g>
<!-- dir_ef94d2a67e6a1f60efeccc5889e4945c -->
<g id="node15" class="node">
<title>dir_ef94d2a67e6a1f60efeccc5889e4945c</title>
<g id="a_node15"><a xlink:href="dir_ef94d2a67e6a1f60efeccc5889e4945c.html" target="_top" xlink:title="hough_transformer_node">
<polygon fill="#a2b4d6" stroke="#404040" points="813.5,-80.67 674.5,-80.67 674.5,-61.67 813.5,-61.67 813.5,-80.67"/>
<text text-anchor="middle" x="744" y="-68.67" font-family="Helvetica,sans-Serif" font-size="10.00">hough_transformer_node</text>
</a>
</g>
</g>
<!-- dir_ef94d2a67e6a1f60efeccc5889e4945c&#45;&gt;dir_d44c64559bbebec7f509842c48db8b23 -->
<g id="edge10" class="edge">
<title>dir_ef94d2a67e6a1f60efeccc5889e4945c&#45;&gt;dir_d44c64559bbebec7f509842c48db8b23</title>
<g id="a_edge10"><a xlink:href="dir_000014_000016.html" target="_top">
<path fill="none" stroke="#63b8ff" d="M764.95,-61.66C780.77,-55.37 803.09,-46.78 823,-40.17 844.06,-33.19 867.95,-26.34 887.1,-21.11"/>
<polygon fill="#63b8ff" stroke="#63b8ff" points="888.18,-24.44 896.92,-18.45 886.35,-17.69 888.18,-24.44"/>
</a>
</g>
<g id="a_edge10&#45;headlabel"><a xlink:href="dir_000014_000016.html" target="_top" xlink:title="2">
<text text-anchor="middle" x="885.45" y="-25.62" font-family="Helvetica,sans-Serif" font-size="10.00" fill="#63b8ff">2</text>
</a>
</g>
</g>
<!-- dir_83f88f65e3f6dac83ec63dd842ef740c -->
<g id="node16" class="node">
<title>dir_83f88f65e3f6dac83ec63dd842ef740c</title>
<g id="a_node16"><a xlink:href="dir_83f88f65e3f6dac83ec63dd842ef740c.html" target="_top" xlink:title="pl_dir_computer_node">
<polygon fill="#a2b4d6" stroke="#404040" points="656.5,-80.67 531.5,-80.67 531.5,-61.67 656.5,-61.67 656.5,-80.67"/>
<text text-anchor="middle" x="594" y="-68.67" font-family="Helvetica,sans-Serif" font-size="10.00">pl_dir_computer_node</text>
</a>
</g>
</g>
<!-- dir_83f88f65e3f6dac83ec63dd842ef740c&#45;&gt;dir_d44c64559bbebec7f509842c48db8b23 -->
<g id="edge11" class="edge">
<title>dir_83f88f65e3f6dac83ec63dd842ef740c&#45;&gt;dir_d44c64559bbebec7f509842c48db8b23</title>
<g id="a_edge11"><a xlink:href="dir_000028_000016.html" target="_top">
<path fill="none" stroke="#63b8ff" d="M610.69,-61.61C624.99,-54.68 646.33,-45.25 666,-40.17 742.9,-20.32 836.25,-14.3 886.59,-12.47"/>
<polygon fill="#63b8ff" stroke="#63b8ff" points="886.78,-15.97 896.66,-12.14 886.55,-8.97 886.78,-15.97"/>
</a>
</g>
<g id="a_edge11&#45;headlabel"><a xlink:href="dir_000028_000016.html" target="_top" xlink:title="2">
<text text-anchor="middle" x="883.28" y="-16.42" font-family="Helvetica,sans-Serif" font-size="10.00" fill="#63b8ff">2</text>
</a>
</g>
</g>
<!-- dir_b8e8a80f9bb554639e579cb5b42d37a5 -->
<g id="node17" class="node">
<title>dir_b8e8a80f9bb554639e579cb5b42d37a5</title>
<g id="a_node17"><a xlink:href="dir_b8e8a80f9bb554639e579cb5b42d37a5.html" target="_top" xlink:title="pl_mapper_node">
<polygon fill="#a2b4d6" stroke="#404040" points="513,-80.67 415,-80.67 415,-61.67 513,-61.67 513,-80.67"/>
<text text-anchor="middle" x="464" y="-68.67" font-family="Helvetica,sans-Serif" font-size="10.00">pl_mapper_node</text>
</a>
</g>
</g>
<!-- dir_b8e8a80f9bb554639e579cb5b42d37a5&#45;&gt;dir_d44c64559bbebec7f509842c48db8b23 -->
<g id="edge12" class="edge">
<title>dir_b8e8a80f9bb554639e579cb5b42d37a5&#45;&gt;dir_d44c64559bbebec7f509842c48db8b23</title>
<g id="a_edge12"><a xlink:href="dir_000030_000016.html" target="_top">
<path fill="none" stroke="#63b8ff" d="M476.97,-61.66C488.53,-54.55 506.17,-44.85 523,-40.17 590.87,-21.33 801.35,-14.47 886.6,-12.42"/>
<polygon fill="#63b8ff" stroke="#63b8ff" points="886.91,-15.92 896.83,-12.18 886.75,-8.92 886.91,-15.92"/>
</a>
</g>
<g id="a_edge12&#45;headlabel"><a xlink:href="dir_000030_000016.html" target="_top" xlink:title="2">
<text text-anchor="middle" x="883.38" y="-16.34" font-family="Helvetica,sans-Serif" font-size="10.00" fill="#63b8ff">2</text>
</a>
</g>
</g>
<!-- dir_313caf1132e152dd9b58bea13a4052ca -->
<g id="node18" class="node">
<title>dir_313caf1132e152dd9b58bea13a4052ca</title>
<text text-anchor="middle" x="372" y="-68.67" font-family="Helvetica,sans-Serif" font-size="10.00">utils</text>
</g>
<!-- dir_313caf1132e152dd9b58bea13a4052ca&#45;&gt;dir_d44c64559bbebec7f509842c48db8b23 -->
<g id="edge13" class="edge">
<title>dir_313caf1132e152dd9b58bea13a4052ca&#45;&gt;dir_d44c64559bbebec7f509842c48db8b23</title>
<g id="a_edge13"><a xlink:href="dir_000037_000016.html" target="_top">
<path fill="none" stroke="#63b8ff" d="M378.03,-61.6C383.6,-54.45 392.57,-44.73 403,-40.17 446.99,-20.95 775.94,-14.01 886.71,-12.2"/>
<polygon fill="#63b8ff" stroke="#63b8ff" points="886.79,-15.7 896.74,-12.04 886.68,-8.7 886.79,-15.7"/>
</a>
</g>
<g id="a_edge13&#45;headlabel"><a xlink:href="dir_000037_000016.html" target="_top" xlink:title="6">
<text text-anchor="middle" x="883.24" y="-16.09" font-family="Helvetica,sans-Serif" font-size="10.00" fill="#63b8ff">6</text>
</a>
</g>
</g>
<!-- dir_529981eacafdc634586e39e5131f6102 -->
<g id="node19" class="node">
<title>dir_529981eacafdc634586e39e5131f6102</title>
<g id="a_node19"><a xlink:href="dir_529981eacafdc634586e39e5131f6102.html" target="_top" xlink:title="drone_frame_broadcaster_node">
<polygon fill="#a2b4d6" stroke="#404040" points="334.5,-80.67 163.5,-80.67 163.5,-61.67 334.5,-61.67 334.5,-80.67"/>
<text text-anchor="middle" x="249" y="-68.67" font-family="Helvetica,sans-Serif" font-size="10.00">drone_frame_broadcaster_node</text>
</a>
</g>
</g>
<!-- dir_529981eacafdc634586e39e5131f6102&#45;&gt;dir_d44c64559bbebec7f509842c48db8b23 -->
<g id="edge14" class="edge">
<title>dir_529981eacafdc634586e39e5131f6102&#45;&gt;dir_d44c64559bbebec7f509842c48db8b23</title>
<g id="a_edge14"><a xlink:href="dir_000011_000016.html" target="_top">
<path fill="none" stroke="#63b8ff" d="M270.49,-61.64C289.48,-54.52 318.12,-44.82 344,-40.17 448.86,-21.36 776.24,-14.17 886.41,-12.25"/>
<polygon fill="#63b8ff" stroke="#63b8ff" points="886.73,-15.74 896.67,-12.07 886.61,-8.74 886.73,-15.74"/>
</a>
</g>
<g id="a_edge14&#45;headlabel"><a xlink:href="dir_000011_000016.html" target="_top" xlink:title="2">
<text text-anchor="middle" x="883.19" y="-16.14" font-family="Helvetica,sans-Serif" font-size="10.00" fill="#63b8ff">2</text>
</a>
</g>
</g>
</g>
</svg>

<g id="navigator" transform="translate(0 0)" fill="#404254">
  <rect fill="#f2f5e9" fill-opacity="0.5" stroke="#606060" stroke-width=".5" x="0" y="0" width="60" height="60"/>
  <use id="zoomplus" xlink:href="#zoomPlus" x="17" y="9" onmousedown="handleZoom(evt,'in')"/>
  <use id="zoomminus" xlink:href="#zoomMin" x="42" y="9" onmousedown="handleZoom(evt,'out')"/>
  <use id="reset" xlink:href="#resetDef" x="30" y="36" onmousedown="handleReset()"/>
   <use id="arrowup" xlink:href="#arrowUp" x="0" y="0" onmousedown="handlePan(0,-1)"/>
  <use id="arrowright" xlink:href="#arrowRight" x="0" y="0" onmousedown="handlePan(1,0)"/>
  <use id="arrowdown" xlink:href="#arrowDown" x="0" y="0" onmousedown="handlePan(0,1)"/>
  <use id="arrowleft" xlink:href="#arrowLeft" x="0" y="0" onmousedown="handlePan(-1,0)"/>
</g>
<svg viewBox="0 0 15 15" width="100%" height="30px" preserveAspectRatio="xMaxYMin meet">
 <g id="arrow_out" transform="scale(0.3 0.3)">
  <a xlink:href="dir_68267d1309a1af8e8297ef4c3efbcdba_dep_org.svg" target="_base">
   <rect id="button" ry="5" rx="5" y="6" x="6" height="38" width="38"
        fill="#f2f5e9" fill-opacity="0.5" stroke="#606060" stroke-width="1.0"/>
   <path id="arrow"
     d="M 11.500037,31.436501 C 11.940474,20.09759 22.043105,11.32322 32.158766,21.979434 L 37.068811,17.246167 C 37.068811,17.246167 37.088388,32 37.088388,32 L 22.160133,31.978069 C 22.160133,31.978069 26.997745,27.140456 26.997745,27.140456 C 18.528582,18.264221 13.291696,25.230495 11.500037,31.436501 z"
     style="fill:#404040;"/>
  </a>
 </g>
</svg>

<style type='text/css'>
<![CDATA[
[data-mouse-over-selected='false'] { opacity: 0.7; }
[data-mouse-over-selected='true']  { opacity: 1.0; }
]]>
</style>
<script type="application/ecmascript"><![CDATA[
document.addEventListener('DOMContentLoaded', (event) => {
  highlightEdges();
  highlightAdjacentNodes();
});
]]></script>
</svg>
