<?xml version="1.0" encoding="UTF-8" standalone="no"?>
<!DOCTYPE svg PUBLIC "-//W3C//DTD SVG 1.1//EN"
 "http://www.w3.org/Graphics/SVG/1.1/DTD/svg11.dtd">
<!-- Generated by graphviz version 2.43.0 (0)
 -->
<!-- Title: /home/ffn/Workspace/ros2_humble_ws/src/III&#45;Drone&#45;Core/include/iii_drone_core/control Pages: 1 -->
<svg width="722pt" height="196pt"
 viewBox="0.00 0.00 721.50 196.00" xmlns="http://www.w3.org/2000/svg" xmlns:xlink="http://www.w3.org/1999/xlink">
<g id="graph0" class="graph" transform="scale(1 1) rotate(0) translate(4 192)">
<title>/home/ffn/Workspace/ros2_humble_ws/src/III&#45;Drone&#45;Core/include/iii_drone_core/control</title>
<g id="clust1" class="cluster">
<title>clusterdir_675c2ae8dc1cdd323b7308c72e2b5eff</title>
<g id="a_clust1"><a xlink:href="dir_675c2ae8dc1cdd323b7308c72e2b5eff.html" target="_top" xlink:title="iii_drone_core">
<polygon fill="#edf0f7" stroke="#7f7f7f" stroke-dasharray="5,2" points="8,-8 8,-180 674,-180 674,-8 8,-8"/>
<text text-anchor="middle" x="341" y="-168" font-family="Helvetica,sans-Serif" font-size="10.00">iii_drone_core</text>
</a>
</g>
</g>
<g id="clust2" class="cluster">
<title>clusterdir_64d5253432a7d5ea5d4718f2a0207b0e</title>
<g id="a_clust2"><a xlink:href="dir_64d5253432a7d5ea5d4718f2a0207b0e.html" target="_top">
<polygon fill="#edf0f7" stroke="#404040" stroke-width="2" points="124,-63 124,-153 666,-153 666,-63 124,-63"/>
</a>
</g>
</g>
<!-- dir_0266f6c656cc8031115a442d81d571fa -->
<g id="node1" class="node">
<title>dir_0266f6c656cc8031115a442d81d571fa</title>
<g id="a_node1"><a xlink:href="dir_0266f6c656cc8031115a442d81d571fa.html" target="_top" xlink:title="configuration">
<polygon fill="#c8d2e7" stroke="#404040" points="116,-90 36,-90 36,-71 116,-71 116,-90"/>
<text text-anchor="middle" x="76" y="-78" font-family="Helvetica,sans-Serif" font-size="10.00">configuration</text>
</a>
</g>
</g>
<!-- dir_8d2df975878b3889d1f4f27f142f8b6b -->
<g id="node2" class="node">
<title>dir_8d2df975878b3889d1f4f27f142f8b6b</title>
<g id="a_node2"><a xlink:href="dir_8d2df975878b3889d1f4f27f142f8b6b.html" target="_top" xlink:title="adapters">
<polygon fill="#c8d2e7" stroke="red" points="493.5,-35 434.5,-35 434.5,-16 493.5,-16 493.5,-35"/>
<text text-anchor="middle" x="464" y="-23" font-family="Helvetica,sans-Serif" font-size="10.00">adapters</text>
</a>
</g>
</g>
<!-- dir_8d5fce3f9f0b3f85e2b55e571fc75ab3 -->
<g id="node3" class="node">
<title>dir_8d5fce3f9f0b3f85e2b55e571fc75ab3</title>
<g id="a_node3"><a xlink:href="dir_8d5fce3f9f0b3f85e2b55e571fc75ab3.html" target="_top" xlink:title="utils">
<polygon fill="#c8d2e7" stroke="red" points="607,-35 569,-35 569,-16 607,-16 607,-35"/>
<text text-anchor="middle" x="588" y="-23" font-family="Helvetica,sans-Serif" font-size="10.00">utils</text>
</a>
</g>
</g>
<!-- dir_64d5253432a7d5ea5d4718f2a0207b0e -->
<g id="node4" class="node">
<title>dir_64d5253432a7d5ea5d4718f2a0207b0e</title>
<text text-anchor="middle" x="633" y="-133" font-family="Helvetica,sans-Serif" font-size="10.00">control</text>
</g>
<!-- dir_64d5253432a7d5ea5d4718f2a0207b0e&#45;&gt;dir_8d2df975878b3889d1f4f27f142f8b6b -->
<g id="edge3" class="edge">
<title>dir_64d5253432a7d5ea5d4718f2a0207b0e&#45;&gt;dir_8d2df975878b3889d1f4f27f142f8b6b</title>
<g id="a_edge3"><a xlink:href="dir_000008_000002.html" target="_top">
<path fill="none" stroke="#63b8ff" d="M607.67,-127.6C566.34,-116.25 488.51,-94.44 484,-90 472.05,-78.22 467.22,-59.38 465.28,-45.27"/>
<polygon fill="#63b8ff" stroke="#63b8ff" points="468.75,-44.8 464.26,-35.2 461.78,-45.5 468.75,-44.8"/>
</a>
</g>
<g id="a_edge3&#45;headlabel"><a xlink:href="dir_000008_000002.html" target="_top" xlink:title="30">
<text text-anchor="middle" x="471.93" y="-45.59" font-family="Helvetica,sans-Serif" font-size="10.00" fill="#63b8ff">30</text>
</a>
</g>
</g>
<!-- dir_64d5253432a7d5ea5d4718f2a0207b0e&#45;&gt;dir_8d5fce3f9f0b3f85e2b55e571fc75ab3 -->
<g id="edge4" class="edge">
<title>dir_64d5253432a7d5ea5d4718f2a0207b0e&#45;&gt;dir_8d5fce3f9f0b3f85e2b55e571fc75ab3</title>
<g id="a_edge4"><a xlink:href="dir_000008_000036.html" target="_top">
<path fill="none" stroke="#63b8ff" d="M629.32,-125.66C621.96,-108.01 605.33,-68.09 595.56,-44.64"/>
<polygon fill="#63b8ff" stroke="#63b8ff" points="598.68,-43.04 591.61,-35.16 592.22,-45.74 598.68,-43.04"/>
</a>
</g>
<g id="a_edge4&#45;headlabel"><a xlink:href="dir_000008_000036.html" target="_top" xlink:title="42">
<text text-anchor="middle" x="602.69" y="-42.77" font-family="Helvetica,sans-Serif" font-size="10.00" fill="#63b8ff">42</text>
</a>
</g>
</g>
<!-- dir_3a044be72a68e24df20d825c47c12d47 -->
<g id="node6" class="node">
<title>dir_3a044be72a68e24df20d825c47c12d47</title>
<g id="a_node6"><a xlink:href="dir_3a044be72a68e24df20d825c47c12d47.html" target="_top" xlink:title="maneuver">
<polygon fill="#c8d2e7" stroke="#404040" points="559,-90 493,-90 493,-71 559,-71 559,-90"/>
<text text-anchor="middle" x="526" y="-78" font-family="Helvetica,sans-Serif" font-size="10.00">maneuver</text>
</a>
</g>
</g>
<!-- dir_64d5253432a7d5ea5d4718f2a0207b0e&#45;&gt;dir_3a044be72a68e24df20d825c47c12d47 -->
<g id="edge1" class="edge">
<title>dir_64d5253432a7d5ea5d4718f2a0207b0e&#45;&gt;dir_3a044be72a68e24df20d825c47c12d47</title>
<g id="a_edge1"><a xlink:href="dir_000008_000018.html" target="_top">
<path fill="none" stroke="#63b8ff" d="M615.81,-125.98C598.75,-117.54 572.37,-104.47 552.6,-94.68"/>
<polygon fill="#63b8ff" stroke="#63b8ff" points="554.02,-91.47 543.5,-90.17 550.91,-97.75 554.02,-91.47"/>
</a>
</g>
<g id="a_edge1&#45;headlabel"><a xlink:href="dir_000008_000018.html" target="_top" xlink:title="13">
<text text-anchor="middle" x="558.5" y="-88.02" font-family="Helvetica,sans-Serif" font-size="10.00" fill="#63b8ff">13</text>
</a>
</g>
</g>
<!-- dir_68267d1309a1af8e8297ef4c3efbcdba -->
<g id="node9" class="node">
<title>dir_68267d1309a1af8e8297ef4c3efbcdba</title>
<g id="a_node9"><a xlink:href="dir_68267d1309a1af8e8297ef4c3efbcdba.html" target="_top" xlink:title="src">
<polygon fill="#edf0f7" stroke="red" points="713.5,-90 682.5,-90 682.5,-71 713.5,-71 713.5,-90"/>
<text text-anchor="middle" x="698" y="-78" font-family="Helvetica,sans-Serif" font-size="10.00">src</text>
</a>
</g>
</g>
<!-- dir_64d5253432a7d5ea5d4718f2a0207b0e&#45;&gt;dir_68267d1309a1af8e8297ef4c3efbcdba -->
<g id="edge2" class="edge">
<title>dir_64d5253432a7d5ea5d4718f2a0207b0e&#45;&gt;dir_68267d1309a1af8e8297ef4c3efbcdba</title>
<g id="a_edge2"><a xlink:href="dir_000008_000033.html" target="_top">
<path fill="none" stroke="#63b8ff" d="M643.44,-125.98C653.15,-118.07 667.82,-106.11 679.5,-96.58"/>
<polygon fill="#63b8ff" stroke="#63b8ff" points="681.83,-99.2 687.37,-90.17 677.4,-93.78 681.83,-99.2"/>
</a>
</g>
<g id="a_edge2&#45;headlabel"><a xlink:href="dir_000008_000033.html" target="_top" xlink:title="4">
<text text-anchor="middle" x="680.84" y="-101.17" font-family="Helvetica,sans-Serif" font-size="10.00" fill="#63b8ff">4</text>
</a>
</g>
</g>
<!-- dir_8e90378abe2da9dc45216ab06e50caed -->
<g id="node5" class="node">
<title>dir_8e90378abe2da9dc45216ab06e50caed</title>
<g id="a_node5"><a xlink:href="dir_8e90378abe2da9dc45216ab06e50caed.html" target="_top" xlink:title="_flight_controller_node">
<polygon fill="#c8d2e7" stroke="#404040" points="590,-145 462,-145 462,-126 590,-126 590,-145"/>
<text text-anchor="middle" x="526" y="-133" font-family="Helvetica,sans-Serif" font-size="10.00">_flight_controller_node</text>
</a>
</g>
</g>
<!-- dir_8e90378abe2da9dc45216ab06e50caed&#45;&gt;dir_0266f6c656cc8031115a442d81d571fa -->
<g id="edge5" class="edge">
<title>dir_8e90378abe2da9dc45216ab06e50caed&#45;&gt;dir_0266f6c656cc8031115a442d81d571fa</title>
<g id="a_edge5"><a xlink:href="dir_000000_000004.html" target="_top">
<path fill="none" stroke="#63b8ff" d="M461.91,-127.01C458.9,-126.66 455.92,-126.33 453,-126 308.39,-109.76 268.96,-112.02 126.26,-90.91"/>
<polygon fill="#63b8ff" stroke="#63b8ff" points="126.67,-87.43 116.26,-89.42 125.63,-94.35 126.67,-87.43"/>
</a>
</g>
<g id="a_edge5&#45;headlabel"><a xlink:href="dir_000000_000004.html" target="_top" xlink:title="1">
<text text-anchor="middle" x="130.64" y="-82.65" font-family="Helvetica,sans-Serif" font-size="10.00" fill="#63b8ff">1</text>
</a>
</g>
</g>
<!-- dir_8e90378abe2da9dc45216ab06e50caed&#45;&gt;dir_8d2df975878b3889d1f4f27f142f8b6b -->
<g id="edge7" class="edge">
<title>dir_8e90378abe2da9dc45216ab06e50caed&#45;&gt;dir_8d2df975878b3889d1f4f27f142f8b6b</title>
<g id="a_edge7"><a xlink:href="dir_000000_000002.html" target="_top">
<path fill="none" stroke="#63b8ff" d="M508.28,-125.85C495,-118.35 477.68,-106.14 469,-90 461.71,-76.44 460.87,-58.85 461.62,-45.62"/>
<polygon fill="#63b8ff" stroke="#63b8ff" points="465.14,-45.61 462.57,-35.33 458.17,-44.97 465.14,-45.61"/>
</a>
</g>
<g id="a_edge7&#45;headlabel"><a xlink:href="dir_000000_000002.html" target="_top" xlink:title="5">
<text text-anchor="middle" x="467.63" y="-46.95" font-family="Helvetica,sans-Serif" font-size="10.00" fill="#63b8ff">5</text>
</a>
</g>
</g>
<!-- dir_8e90378abe2da9dc45216ab06e50caed&#45;&gt;dir_8d5fce3f9f0b3f85e2b55e571fc75ab3 -->
<g id="edge8" class="edge">
<title>dir_8e90378abe2da9dc45216ab06e50caed&#45;&gt;dir_8d5fce3f9f0b3f85e2b55e571fc75ab3</title>
<g id="a_edge8"><a xlink:href="dir_000000_000036.html" target="_top">
<path fill="none" stroke="#63b8ff" d="M543.72,-125.85C557,-118.35 574.32,-106.14 583,-90 590.29,-76.44 591.13,-58.85 590.38,-45.62"/>
<polygon fill="#63b8ff" stroke="#63b8ff" points="593.83,-44.97 589.43,-35.33 586.86,-45.61 593.83,-44.97"/>
</a>
</g>
<g id="a_edge8&#45;headlabel"><a xlink:href="dir_000000_000036.html" target="_top" xlink:title="5">
<text text-anchor="middle" x="596.99" y="-45.79" font-family="Helvetica,sans-Serif" font-size="10.00" fill="#63b8ff">5</text>
</a>
</g>
</g>
<!-- dir_8e90378abe2da9dc45216ab06e50caed&#45;&gt;dir_3a044be72a68e24df20d825c47c12d47 -->
<g id="edge6" class="edge">
<title>dir_8e90378abe2da9dc45216ab06e50caed&#45;&gt;dir_3a044be72a68e24df20d825c47c12d47</title>
<g id="a_edge6"><a xlink:href="dir_000000_000018.html" target="_top">
<path fill="none" stroke="#63b8ff" d="M526,-125.75C526,-118.8 526,-108.85 526,-100.13"/>
<polygon fill="#63b8ff" stroke="#63b8ff" points="529.5,-100.09 526,-90.09 522.5,-100.09 529.5,-100.09"/>
</a>
</g>
<g id="a_edge6&#45;headlabel"><a xlink:href="dir_000000_000018.html" target="_top" xlink:title="1">
<text text-anchor="middle" x="532.34" y="-101.18" font-family="Helvetica,sans-Serif" font-size="10.00" fill="#63b8ff">1</text>
</a>
</g>
</g>
<!-- dir_3a044be72a68e24df20d825c47c12d47&#45;&gt;dir_8d2df975878b3889d1f4f27f142f8b6b -->
<g id="edge9" class="edge">
<title>dir_3a044be72a68e24df20d825c47c12d47&#45;&gt;dir_8d2df975878b3889d1f4f27f142f8b6b</title>
<g id="a_edge9"><a xlink:href="dir_000018_000002.html" target="_top">
<path fill="none" stroke="#63b8ff" d="M516.04,-70.98C506.87,-63.15 493.06,-51.34 481.97,-41.86"/>
<polygon fill="#63b8ff" stroke="#63b8ff" points="484.02,-39.01 474.14,-35.17 479.47,-44.33 484.02,-39.01"/>
</a>
</g>
<g id="a_edge9&#45;headlabel"><a xlink:href="dir_000018_000002.html" target="_top" xlink:title="13">
<text text-anchor="middle" x="488.6" y="-36.69" font-family="Helvetica,sans-Serif" font-size="10.00" fill="#63b8ff">13</text>
</a>
</g>
</g>
<!-- dir_3a044be72a68e24df20d825c47c12d47&#45;&gt;dir_8d5fce3f9f0b3f85e2b55e571fc75ab3 -->
<g id="edge10" class="edge">
<title>dir_3a044be72a68e24df20d825c47c12d47&#45;&gt;dir_8d5fce3f9f0b3f85e2b55e571fc75ab3</title>
<g id="a_edge10"><a xlink:href="dir_000018_000036.html" target="_top">
<path fill="none" stroke="#63b8ff" d="M535.96,-70.98C545.13,-63.15 558.94,-51.34 570.03,-41.86"/>
<polygon fill="#63b8ff" stroke="#63b8ff" points="572.53,-44.33 577.86,-35.17 567.98,-39.01 572.53,-44.33"/>
</a>
</g>
<g id="a_edge10&#45;headlabel"><a xlink:href="dir_000018_000036.html" target="_top" xlink:title="19">
<text text-anchor="middle" x="571.64" y="-46.32" font-family="Helvetica,sans-Serif" font-size="10.00" fill="#63b8ff">19</text>
</a>
</g>
</g>
<!-- dir_257a901af3c858da32d6e3ebedbe4c80 -->
<g id="node7" class="node">
<title>dir_257a901af3c858da32d6e3ebedbe4c80</title>
<g id="a_node7"><a xlink:href="dir_257a901af3c858da32d6e3ebedbe4c80.html" target="_top" xlink:title="maneuver_controller_node">
<polygon fill="#c8d2e7" stroke="#404040" points="443.5,-145 296.5,-145 296.5,-126 443.5,-126 443.5,-145"/>
<text text-anchor="middle" x="370" y="-133" font-family="Helvetica,sans-Serif" font-size="10.00">maneuver_controller_node</text>
</a>
</g>
</g>
<!-- dir_257a901af3c858da32d6e3ebedbe4c80&#45;&gt;dir_0266f6c656cc8031115a442d81d571fa -->
<g id="edge11" class="edge">
<title>dir_257a901af3c858da32d6e3ebedbe4c80&#45;&gt;dir_0266f6c656cc8031115a442d81d571fa</title>
<g id="a_edge11"><a xlink:href="dir_000020_000004.html" target="_top">
<path fill="none" stroke="#63b8ff" d="M320.63,-125.93C272.44,-117.52 196.75,-104.18 126.2,-91.14"/>
<polygon fill="#63b8ff" stroke="#63b8ff" points="126.75,-87.69 116.28,-89.31 125.47,-94.57 126.75,-87.69"/>
</a>
</g>
<g id="a_edge11&#45;headlabel"><a xlink:href="dir_000020_000004.html" target="_top" xlink:title="1">
<text text-anchor="middle" x="130.8" y="-83.05" font-family="Helvetica,sans-Serif" font-size="10.00" fill="#63b8ff">1</text>
</a>
</g>
</g>
<!-- dir_257a901af3c858da32d6e3ebedbe4c80&#45;&gt;dir_3a044be72a68e24df20d825c47c12d47 -->
<g id="edge12" class="edge">
<title>dir_257a901af3c858da32d6e3ebedbe4c80&#45;&gt;dir_3a044be72a68e24df20d825c47c12d47</title>
<g id="a_edge12"><a xlink:href="dir_000020_000018.html" target="_top">
<path fill="none" stroke="#63b8ff" d="M395.06,-125.98C421.03,-117.16 461.81,-103.31 490.96,-93.41"/>
<polygon fill="#63b8ff" stroke="#63b8ff" points="492.4,-96.61 500.74,-90.08 490.15,-89.99 492.4,-96.61"/>
</a>
</g>
<g id="a_edge12&#45;headlabel"><a xlink:href="dir_000020_000018.html" target="_top" xlink:title="11">
<text text-anchor="middle" x="489.91" y="-97.96" font-family="Helvetica,sans-Serif" font-size="10.00" fill="#63b8ff">11</text>
</a>
</g>
</g>
<!-- dir_c418adda1dd58314829944608791e974 -->
<g id="node8" class="node">
<title>dir_c418adda1dd58314829944608791e974</title>
<g id="a_node8"><a xlink:href="dir_c418adda1dd58314829944608791e974.html" target="_top" xlink:title="trajectory_generator_node">
<polygon fill="#c8d2e7" stroke="#404040" points="278,-145 132,-145 132,-126 278,-126 278,-145"/>
<text text-anchor="middle" x="205" y="-133" font-family="Helvetica,sans-Serif" font-size="10.00">trajectory_generator_node</text>
</a>
</g>
</g>
<!-- dir_c418adda1dd58314829944608791e974&#45;&gt;dir_0266f6c656cc8031115a442d81d571fa -->
<g id="edge13" class="edge">
<title>dir_c418adda1dd58314829944608791e974&#45;&gt;dir_0266f6c656cc8031115a442d81d571fa</title>
<g id="a_edge13"><a xlink:href="dir_000034_000004.html" target="_top">
<path fill="none" stroke="#63b8ff" d="M184.27,-125.98C163.24,-117.34 130.45,-103.87 106.46,-94.02"/>
<polygon fill="#63b8ff" stroke="#63b8ff" points="107.68,-90.73 97.1,-90.17 105.02,-97.21 107.68,-90.73"/>
</a>
</g>
<g id="a_edge13&#45;headlabel"><a xlink:href="dir_000034_000004.html" target="_top" xlink:title="1">
<text text-anchor="middle" x="112.09" y="-86.97" font-family="Helvetica,sans-Serif" font-size="10.00" fill="#63b8ff">1</text>
</a>
</g>
</g>
<!-- dir_c418adda1dd58314829944608791e974&#45;&gt;dir_8d2df975878b3889d1f4f27f142f8b6b -->
<g id="edge14" class="edge">
<title>dir_c418adda1dd58314829944608791e974&#45;&gt;dir_8d2df975878b3889d1f4f27f142f8b6b</title>
<g id="a_edge14"><a xlink:href="dir_000034_000002.html" target="_top">
<path fill="none" stroke="#63b8ff" d="M131.96,-128.23C68.25,-120.06 -8.79,-101.91 27,-63 53.6,-34.08 321.49,-28.07 424.2,-26.82"/>
<polygon fill="#63b8ff" stroke="#63b8ff" points="424.51,-30.32 434.47,-26.71 424.43,-23.32 424.51,-30.32"/>
</a>
</g>
<g id="a_edge14&#45;headlabel"><a xlink:href="dir_000034_000002.html" target="_top" xlink:title="3">
<text text-anchor="middle" x="420.95" y="-30.7" font-family="Helvetica,sans-Serif" font-size="10.00" fill="#63b8ff">3</text>
</a>
</g>
</g>
<!-- dir_c418adda1dd58314829944608791e974&#45;&gt;dir_8d5fce3f9f0b3f85e2b55e571fc75ab3 -->
<g id="edge15" class="edge">
<title>dir_c418adda1dd58314829944608791e974&#45;&gt;dir_8d5fce3f9f0b3f85e2b55e571fc75ab3</title>
<g id="a_edge15"><a xlink:href="dir_000034_000036.html" target="_top">
<path fill="none" stroke="#63b8ff" d="M278.36,-126.51C382.81,-114.99 562.47,-94.6 568,-90 574.93,-84.23 580.84,-61.92 584.4,-45.36"/>
<polygon fill="#63b8ff" stroke="#63b8ff" points="587.93,-45.59 586.47,-35.09 581.06,-44.2 587.93,-45.59"/>
</a>
</g>
<g id="a_edge15&#45;headlabel"><a xlink:href="dir_000034_000036.html" target="_top" xlink:title="2">
<text text-anchor="middle" x="590" y="-47.17" font-family="Helvetica,sans-Serif" font-size="10.00" fill="#63b8ff">2</text>
</a>
</g>
</g>
</g>
</svg>
