<?xml version="1.0" encoding="UTF-8" standalone="no"?>
<!DOCTYPE svg PUBLIC "-//W3C//DTD SVG 1.1//EN"
 "http://www.w3.org/Graphics/SVG/1.1/DTD/svg11.dtd">
<!-- Generated by graphviz version 2.43.0 (0)
 -->
<!-- Title: /home/ffn/Workspace/ros2_humble_ws/src/III&#45;Drone&#45;Core/src/utils/drone_frame_broadcaster_node/drone_frame_broadcaster_node.cpp Pages: 1 -->
<svg width="1906pt" height="511pt"
 viewBox="0.00 0.00 1905.50 511.00" xmlns="http://www.w3.org/2000/svg" xmlns:xlink="http://www.w3.org/1999/xlink">
<g id="graph0" class="graph" transform="scale(1 1) rotate(0) translate(4 507)">
<title>/home/ffn/Workspace/ros2_humble_ws/src/III&#45;Drone&#45;Core/src/utils/drone_frame_broadcaster_node/drone_frame_broadcaster_node.cpp</title>
<!-- Node1 -->
<g id="Node000001" class="node">
<title>Node1</title>
<g id="a_Node000001"><a xlink:title=" ">
<polygon fill="#999999" stroke="#666666" points="1204,-503 1030,-503 1030,-429 1204,-429 1204,-503"/>
<text text-anchor="start" x="1038" y="-491" font-family="Helvetica,sans-Serif" font-size="10.00">/home/ffn/Workspace</text>
<text text-anchor="start" x="1038" y="-480" font-family="Helvetica,sans-Serif" font-size="10.00">/ros2_humble_ws/src</text>
<text text-anchor="start" x="1038" y="-469" font-family="Helvetica,sans-Serif" font-size="10.00">/III&#45;Drone&#45;Core/src/utils</text>
<text text-anchor="start" x="1038" y="-458" font-family="Helvetica,sans-Serif" font-size="10.00">/drone_frame_broadcaster</text>
<text text-anchor="start" x="1038" y="-447" font-family="Helvetica,sans-Serif" font-size="10.00">_node/drone_frame_broadcaster</text>
<text text-anchor="middle" x="1117" y="-436" font-family="Helvetica,sans-Serif" font-size="10.00">_node.cpp</text>
</a>
</g>
</g>
<!-- Node2 -->
<g id="Node000002" class="node">
<title>Node2</title>
<g id="a_Node000002"><a xlink:href="drone__frame__broadcaster__node_8hpp.html" target="_top" xlink:title=" ">
<polygon fill="white" stroke="#666666" points="1204,-393 1030,-393 1030,-341 1204,-341 1204,-393"/>
<text text-anchor="start" x="1038" y="-381" font-family="Helvetica,sans-Serif" font-size="10.00">iii_drone_core/utils</text>
<text text-anchor="start" x="1038" y="-370" font-family="Helvetica,sans-Serif" font-size="10.00">/drone_frame_broadcaster</text>
<text text-anchor="start" x="1038" y="-359" font-family="Helvetica,sans-Serif" font-size="10.00">_node/drone_frame_broadcaster</text>
<text text-anchor="middle" x="1117" y="-348" font-family="Helvetica,sans-Serif" font-size="10.00">_node.hpp</text>
</a>
</g>
</g>
<!-- Node1&#45;&gt;Node2 -->
<g id="edge1_Node000001_Node000002" class="edge">
<title>Node1&#45;&gt;Node2</title>
<g id="a_edge1_Node000001_Node000002"><a xlink:title=" ">
<path fill="none" stroke="#63b8ff" d="M1117,-428.88C1117,-420.55 1117,-411.69 1117,-403.39"/>
<polygon fill="#63b8ff" stroke="#63b8ff" points="1120.5,-403.26 1117,-393.26 1113.5,-403.26 1120.5,-403.26"/>
</a>
</g>
</g>
<!-- Node3 -->
<g id="Node000003" class="node">
<title>Node3</title>
<g id="a_Node000003"><a xlink:title=" ">
<polygon fill="#e0e0e0" stroke="#999999" points="962,-217 792,-217 792,-187 962,-187 962,-217"/>
<text text-anchor="start" x="800" y="-205" font-family="Helvetica,sans-Serif" font-size="10.00">geometry_msgs/msg/transform</text>
<text text-anchor="middle" x="877" y="-194" font-family="Helvetica,sans-Serif" font-size="10.00">_stamped.hpp</text>
</a>
</g>
</g>
<!-- Node2&#45;&gt;Node3 -->
<g id="edge2_Node000002_Node000003" class="edge">
<title>Node2&#45;&gt;Node3</title>
<g id="a_edge2_Node000002_Node000003"><a xlink:title=" ">
<path fill="none" stroke="#63b8ff" d="M1080.03,-340.89C1032.17,-308.39 949.77,-252.42 906.11,-222.77"/>
<polygon fill="#63b8ff" stroke="#63b8ff" points="907.9,-219.76 897.67,-217.04 903.97,-225.55 907.9,-219.76"/>
</a>
</g>
</g>
<!-- Node4 -->
<g id="Node000004" class="node">
<title>Node4</title>
<g id="a_Node000004"><a xlink:title=" ">
<polygon fill="#e0e0e0" stroke="#999999" points="1019.5,-145.5 920.5,-145.5 920.5,-126.5 1019.5,-126.5 1019.5,-145.5"/>
<text text-anchor="middle" x="970" y="-133.5" font-family="Helvetica,sans-Serif" font-size="10.00">rclcpp/rclcpp.hpp</text>
</a>
</g>
</g>
<!-- Node2&#45;&gt;Node4 -->
<g id="edge3_Node000002_Node000004" class="edge">
<title>Node2&#45;&gt;Node4</title>
<g id="a_edge3_Node000002_Node000004"><a xlink:title=" ">
<path fill="none" stroke="#63b8ff" d="M1029.7,-354.8C949.26,-339.24 834.77,-302.56 783,-217 776.1,-205.59 774.88,-197.58 783,-187 785.23,-184.09 871.44,-161.88 926.01,-148.06"/>
<polygon fill="#63b8ff" stroke="#63b8ff" points="926.97,-151.43 935.8,-145.58 925.25,-144.64 926.97,-151.43"/>
</a>
</g>
</g>
<!-- Node5 -->
<g id="Node000005" class="node">
<title>Node5</title>
<g id="a_Node000005"><a xlink:title=" ">
<polygon fill="#e0e0e0" stroke="#999999" points="1706,-288.5 1552,-288.5 1552,-269.5 1706,-269.5 1706,-288.5"/>
<text text-anchor="middle" x="1629" y="-276.5" font-family="Helvetica,sans-Serif" font-size="10.00">tf2/LinearMath/Quaternion.h</text>
</a>
</g>
</g>
<!-- Node2&#45;&gt;Node5 -->
<g id="edge4_Node000002_Node000005" class="edge">
<title>Node2&#45;&gt;Node5</title>
<g id="a_edge4_Node000002_Node000005"><a xlink:title=" ">
<path fill="none" stroke="#63b8ff" d="M1204.23,-356.57C1289.76,-346.57 1423.6,-328.91 1538,-305 1555.8,-301.28 1575.26,-296.09 1591.61,-291.4"/>
<polygon fill="#63b8ff" stroke="#63b8ff" points="1592.72,-294.72 1601.34,-288.56 1590.76,-288 1592.72,-294.72"/>
</a>
</g>
</g>
<!-- Node6 -->
<g id="Node000006" class="node">
<title>Node6</title>
<g id="a_Node000006"><a xlink:title=" ">
<polygon fill="#e0e0e0" stroke="#999999" points="1897.5,-288.5 1724.5,-288.5 1724.5,-269.5 1897.5,-269.5 1897.5,-288.5"/>
<text text-anchor="middle" x="1811" y="-276.5" font-family="Helvetica,sans-Serif" font-size="10.00">tf2_ros/transform_broadcaster.h</text>
</a>
</g>
</g>
<!-- Node2&#45;&gt;Node6 -->
<g id="edge5_Node000002_Node000006" class="edge">
<title>Node2&#45;&gt;Node6</title>
<g id="a_edge5_Node000002_Node000006"><a xlink:title=" ">
<path fill="none" stroke="#63b8ff" d="M1204.24,-361.3C1321.21,-354.04 1535.01,-337.42 1715,-305 1734.27,-301.53 1755.36,-296.21 1772.85,-291.37"/>
<polygon fill="#63b8ff" stroke="#63b8ff" points="1774.02,-294.68 1782.69,-288.59 1772.11,-287.94 1774.02,-294.68"/>
</a>
</g>
</g>
<!-- Node7 -->
<g id="Node000007" class="node">
<title>Node7</title>
<g id="a_Node000007"><a xlink:title=" ">
<polygon fill="#e0e0e0" stroke="#999999" points="1458,-217 1330,-217 1330,-187 1458,-187 1458,-217"/>
<text text-anchor="start" x="1338" y="-205" font-family="Helvetica,sans-Serif" font-size="10.00">px4_msgs/msg/vehicle</text>
<text text-anchor="middle" x="1394" y="-194" font-family="Helvetica,sans-Serif" font-size="10.00">_odometry.hpp</text>
</a>
</g>
</g>
<!-- Node2&#45;&gt;Node7 -->
<g id="edge6_Node000002_Node000007" class="edge">
<title>Node2&#45;&gt;Node7</title>
<g id="a_edge6_Node000002_Node000007"><a xlink:title=" ">
<path fill="none" stroke="#63b8ff" d="M1159.67,-340.89C1215.25,-308.19 1311.2,-251.72 1361.34,-222.22"/>
<polygon fill="#63b8ff" stroke="#63b8ff" points="1363.3,-225.12 1370.15,-217.04 1359.75,-219.09 1363.3,-225.12"/>
</a>
</g>
</g>
<!-- Node8 -->
<g id="Node000008" class="node">
<title>Node8</title>
<g id="a_Node000008"><a xlink:title=" ">
<polygon fill="#e0e0e0" stroke="#999999" points="58,-145.5 0,-145.5 0,-126.5 58,-126.5 58,-145.5"/>
<text text-anchor="middle" x="29" y="-133.5" font-family="Helvetica,sans-Serif" font-size="10.00">memory</text>
</a>
</g>
</g>
<!-- Node2&#45;&gt;Node8 -->
<g id="edge7_Node000002_Node000008" class="edge">
<title>Node2&#45;&gt;Node8</title>
<g id="a_edge7_Node000002_Node000008"><a xlink:title=" ">
<path fill="none" stroke="#63b8ff" d="M1029.89,-362.84C861.45,-356.07 497.02,-338.04 376,-305 245.04,-269.25 103.78,-184.69 50.75,-151.11"/>
<polygon fill="#63b8ff" stroke="#63b8ff" points="52.48,-148.06 42.17,-145.63 48.71,-153.96 52.48,-148.06"/>
</a>
</g>
</g>
<!-- Node9 -->
<g id="Node000009" class="node">
<title>Node9</title>
<g id="a_Node000009"><a xlink:title=" ">
<polygon fill="#e0e0e0" stroke="#999999" points="120,-145.5 76,-145.5 76,-126.5 120,-126.5 120,-145.5"/>
<text text-anchor="middle" x="98" y="-133.5" font-family="Helvetica,sans-Serif" font-size="10.00">string</text>
</a>
</g>
</g>
<!-- Node2&#45;&gt;Node9 -->
<g id="edge8_Node000002_Node000009" class="edge">
<title>Node2&#45;&gt;Node9</title>
<g id="a_edge8_Node000002_Node000009"><a xlink:title=" ">
<path fill="none" stroke="#63b8ff" d="M1029.92,-363.07C918.19,-357.84 718.97,-343.52 553,-305 385.3,-266.08 195.26,-182.18 125.52,-149.96"/>
<polygon fill="#63b8ff" stroke="#63b8ff" points="126.67,-146.63 116.12,-145.59 123.72,-152.98 126.67,-146.63"/>
</a>
</g>
</g>
<!-- Node10 -->
<g id="Node000010" class="node">
<title>Node10</title>
<g id="a_Node000010"><a xlink:href="types_8hpp.html" target="_top" xlink:title=" ">
<polygon fill="white" stroke="#666666" points="1171.5,-85 1062.5,-85 1062.5,-55 1171.5,-55 1171.5,-85"/>
<text text-anchor="start" x="1070.5" y="-73" font-family="Helvetica,sans-Serif" font-size="10.00">iii_drone_core/utils</text>
<text text-anchor="middle" x="1117" y="-62" font-family="Helvetica,sans-Serif" font-size="10.00">/types.hpp</text>
</a>
</g>
</g>
<!-- Node2&#45;&gt;Node10 -->
<g id="edge9_Node000002_Node000010" class="edge">
<title>Node2&#45;&gt;Node10</title>
<g id="a_edge9_Node000002_Node000010"><a xlink:title=" ">
<path fill="none" stroke="#63b8ff" d="M1204.2,-358.09C1332.41,-342.58 1549.85,-299.29 1484,-187 1453.6,-135.17 1422.36,-141.83 1366,-121 1305.52,-98.64 1232.87,-85.51 1181.7,-78.36"/>
<polygon fill="#63b8ff" stroke="#63b8ff" points="1182.15,-74.89 1171.77,-77.01 1181.2,-81.83 1182.15,-74.89"/>
</a>
</g>
</g>
<!-- Node17 -->
<g id="Node000017" class="node">
<title>Node17</title>
<g id="a_Node000017"><a xlink:href="math_8hpp.html" target="_top" xlink:title=" ">
<polygon fill="white" stroke="#666666" points="1356.5,-151 1247.5,-151 1247.5,-121 1356.5,-121 1356.5,-151"/>
<text text-anchor="start" x="1255.5" y="-139" font-family="Helvetica,sans-Serif" font-size="10.00">iii_drone_core/utils</text>
<text text-anchor="middle" x="1302" y="-128" font-family="Helvetica,sans-Serif" font-size="10.00">/math.hpp</text>
</a>
</g>
</g>
<!-- Node2&#45;&gt;Node17 -->
<g id="edge16_Node000002_Node000017" class="edge">
<title>Node2&#45;&gt;Node17</title>
<g id="a_edge16_Node000002_Node000017"><a xlink:title=" ">
<path fill="none" stroke="#63b8ff" d="M1204.17,-356.38C1288.06,-341.92 1410.29,-305.96 1467,-217 1494.2,-174.33 1424.01,-153.8 1366.88,-144.38"/>
<polygon fill="#63b8ff" stroke="#63b8ff" points="1367.18,-140.88 1356.76,-142.8 1366.1,-147.8 1367.18,-140.88"/>
</a>
</g>
</g>
<!-- Node18 -->
<g id="Node000018" class="node">
<title>Node18</title>
<g id="a_Node000018"><a xlink:href="drone__frame__broadcaster__node__configurator_8hpp.html" target="_top" xlink:title=" ">
<polygon fill="white" stroke="#666666" points="736,-305 562,-305 562,-253 736,-253 736,-305"/>
<text text-anchor="start" x="570" y="-293" font-family="Helvetica,sans-Serif" font-size="10.00">iii_drone_core/utils</text>
<text text-anchor="start" x="570" y="-282" font-family="Helvetica,sans-Serif" font-size="10.00">/drone_frame_broadcaster</text>
<text text-anchor="start" x="570" y="-271" font-family="Helvetica,sans-Serif" font-size="10.00">_node/drone_frame_broadcaster</text>
<text text-anchor="middle" x="649" y="-260" font-family="Helvetica,sans-Serif" font-size="10.00">_node_configurator.hpp</text>
</a>
</g>
</g>
<!-- Node2&#45;&gt;Node18 -->
<g id="edge19_Node000002_Node000018" class="edge">
<title>Node2&#45;&gt;Node18</title>
<g id="a_edge19_Node000002_Node000018"><a xlink:title=" ">
<path fill="none" stroke="#63b8ff" d="M1029.89,-353.48C955.3,-342.29 845.2,-324.66 750,-305 748.73,-304.74 747.45,-304.47 746.17,-304.2"/>
<polygon fill="#63b8ff" stroke="#63b8ff" points="746.74,-300.74 736.22,-302.04 745.25,-307.58 746.74,-300.74"/>
</a>
</g>
</g>
<!-- Node27 -->
<g id="Node000027" class="node">
<title>Node27</title>
<g id="a_Node000027"><a xlink:href="vehicle__odometry__adapter_8hpp.html" target="_top" xlink:title=" ">
<polygon fill="white" stroke="#666666" points="1182.5,-299.5 1051.5,-299.5 1051.5,-258.5 1182.5,-258.5 1182.5,-299.5"/>
<text text-anchor="start" x="1059.5" y="-287.5" font-family="Helvetica,sans-Serif" font-size="10.00">iii_drone_core/adapters</text>
<text text-anchor="start" x="1059.5" y="-276.5" font-family="Helvetica,sans-Serif" font-size="10.00">/px4/vehicle_odometry</text>
<text text-anchor="middle" x="1117" y="-265.5" font-family="Helvetica,sans-Serif" font-size="10.00">_adapter.hpp</text>
</a>
</g>
</g>
<!-- Node2&#45;&gt;Node27 -->
<g id="edge32_Node000002_Node000027" class="edge">
<title>Node2&#45;&gt;Node27</title>
<g id="a_edge32_Node000002_Node000027"><a xlink:title=" ">
<path fill="none" stroke="#63b8ff" d="M1117,-340.66C1117,-330.95 1117,-319.79 1117,-309.71"/>
<polygon fill="#63b8ff" stroke="#63b8ff" points="1120.5,-309.7 1117,-299.7 1113.5,-309.7 1120.5,-309.7"/>
</a>
</g>
</g>
<!-- Node11 -->
<g id="Node000011" class="node">
<title>Node11</title>
<g id="a_Node000011"><a xlink:title=" ">
<polygon fill="#e0e0e0" stroke="#999999" points="1516.5,-19 1411.5,-19 1411.5,0 1516.5,0 1516.5,-19"/>
<text text-anchor="middle" x="1464" y="-7" font-family="Helvetica,sans-Serif" font-size="10.00">eigen3/Eigen/Core</text>
</a>
</g>
</g>
<!-- Node10&#45;&gt;Node11 -->
<g id="edge10_Node000010_Node000011" class="edge">
<title>Node10&#45;&gt;Node11</title>
<g id="a_edge10_Node000010_Node000011"><a xlink:title=" ">
<path fill="none" stroke="#63b8ff" d="M1171.6,-59.8C1234.56,-49.18 1337.75,-31.78 1403.21,-20.75"/>
<polygon fill="#63b8ff" stroke="#63b8ff" points="1404.11,-24.15 1413.38,-19.03 1402.94,-17.24 1404.11,-24.15"/>
</a>
</g>
</g>
<!-- Node12 -->
<g id="Node000012" class="node">
<title>Node12</title>
<g id="a_Node000012"><a xlink:title=" ">
<polygon fill="#e0e0e0" stroke="#999999" points="1393,-19 1225,-19 1225,0 1393,0 1393,-19"/>
<text text-anchor="middle" x="1309" y="-7" font-family="Helvetica,sans-Serif" font-size="10.00">geometry_msgs/msg/point.hpp</text>
</a>
</g>
</g>
<!-- Node10&#45;&gt;Node12 -->
<g id="edge11_Node000010_Node000012" class="edge">
<title>Node10&#45;&gt;Node12</title>
<g id="a_edge11_Node000010_Node000012"><a xlink:title=" ">
<path fill="none" stroke="#63b8ff" d="M1162.99,-54.99C1196.12,-44.89 1240.29,-31.44 1271.34,-21.98"/>
<polygon fill="#63b8ff" stroke="#63b8ff" points="1272.38,-25.32 1280.93,-19.05 1270.34,-18.62 1272.38,-25.32"/>
</a>
</g>
</g>
<!-- Node13 -->
<g id="Node000013" class="node">
<title>Node13</title>
<g id="a_Node000013"><a xlink:title=" ">
<polygon fill="#e0e0e0" stroke="#999999" points="615,-19 419,-19 419,0 615,0 615,-19"/>
<text text-anchor="middle" x="517" y="-7" font-family="Helvetica,sans-Serif" font-size="10.00">geometry_msgs/msg/quaternion.hpp</text>
</a>
</g>
</g>
<!-- Node10&#45;&gt;Node13 -->
<g id="edge12_Node000010_Node000013" class="edge">
<title>Node10&#45;&gt;Node13</title>
<g id="a_edge12_Node000010_Node000013"><a xlink:title=" ">
<path fill="none" stroke="#63b8ff" d="M1062.43,-63.68C960.96,-53.79 742.03,-32.44 614.54,-20.01"/>
<polygon fill="#63b8ff" stroke="#63b8ff" points="614.68,-16.51 604.39,-19.02 614,-23.47 614.68,-16.51"/>
</a>
</g>
</g>
<!-- Node14 -->
<g id="Node000014" class="node">
<title>Node14</title>
<g id="a_Node000014"><a xlink:title=" ">
<polygon fill="#e0e0e0" stroke="#999999" points="799.5,-19 632.5,-19 632.5,0 799.5,0 799.5,-19"/>
<text text-anchor="middle" x="716" y="-7" font-family="Helvetica,sans-Serif" font-size="10.00">geometry_msgs/msg/pose.hpp</text>
</a>
</g>
</g>
<!-- Node10&#45;&gt;Node14 -->
<g id="edge13_Node000010_Node000014" class="edge">
<title>Node10&#45;&gt;Node14</title>
<g id="a_edge13_Node000010_Node000014"><a xlink:title=" ">
<path fill="none" stroke="#63b8ff" d="M1062.08,-60.99C989.93,-50.46 863.19,-31.97 784.74,-20.53"/>
<polygon fill="#63b8ff" stroke="#63b8ff" points="784.88,-17.01 774.48,-19.03 783.87,-23.94 784.88,-17.01"/>
</a>
</g>
</g>
<!-- Node15 -->
<g id="Node000015" class="node">
<title>Node15</title>
<g id="a_Node000015"><a xlink:title=" ">
<polygon fill="#e0e0e0" stroke="#999999" points="1008.5,-19 817.5,-19 817.5,0 1008.5,0 1008.5,-19"/>
<text text-anchor="middle" x="913" y="-7" font-family="Helvetica,sans-Serif" font-size="10.00">geometry_msgs/msg/transform.hpp</text>
</a>
</g>
</g>
<!-- Node10&#45;&gt;Node15 -->
<g id="edge14_Node000010_Node000015" class="edge">
<title>Node10&#45;&gt;Node15</title>
<g id="a_edge14_Node000010_Node000015"><a xlink:title=" ">
<path fill="none" stroke="#63b8ff" d="M1068.14,-54.99C1032.78,-44.85 985.6,-31.32 952.59,-21.85"/>
<polygon fill="#63b8ff" stroke="#63b8ff" points="953.41,-18.45 942.83,-19.05 951.48,-25.17 953.41,-18.45"/>
</a>
</g>
</g>
<!-- Node16 -->
<g id="Node000016" class="node">
<title>Node16</title>
<g id="a_Node000016"><a xlink:title=" ">
<polygon fill="#e0e0e0" stroke="#999999" points="1207,-19 1027,-19 1027,0 1207,0 1207,-19"/>
<text text-anchor="middle" x="1117" y="-7" font-family="Helvetica,sans-Serif" font-size="10.00">geometry_msgs/msg/vector3.hpp</text>
</a>
</g>
</g>
<!-- Node10&#45;&gt;Node16 -->
<g id="edge15_Node000010_Node000016" class="edge">
<title>Node10&#45;&gt;Node16</title>
<g id="a_edge15_Node000010_Node000016"><a xlink:title=" ">
<path fill="none" stroke="#63b8ff" d="M1117,-54.84C1117,-47.21 1117,-37.7 1117,-29.45"/>
<polygon fill="#63b8ff" stroke="#63b8ff" points="1120.5,-29.27 1117,-19.27 1113.5,-29.27 1120.5,-29.27"/>
</a>
</g>
</g>
<!-- Node17&#45;&gt;Node10 -->
<g id="edge18_Node000017_Node000010" class="edge">
<title>Node17&#45;&gt;Node10</title>
<g id="a_edge18_Node000017_Node000010"><a xlink:title=" ">
<path fill="none" stroke="#63b8ff" d="M1261.4,-120.95C1233.69,-111.37 1196.79,-98.6 1167.22,-88.37"/>
<polygon fill="#63b8ff" stroke="#63b8ff" points="1168.1,-84.97 1157.5,-85.01 1165.81,-91.59 1168.1,-84.97"/>
</a>
</g>
</g>
<!-- Node17&#45;&gt;Node11 -->
<g id="edge17_Node000017_Node000011" class="edge">
<title>Node17&#45;&gt;Node11</title>
<g id="a_edge17_Node000017_Node000011"><a xlink:title=" ">
<path fill="none" stroke="#63b8ff" d="M1320.27,-120.96C1351.13,-97.24 1413.29,-49.47 1444.78,-25.27"/>
<polygon fill="#63b8ff" stroke="#63b8ff" points="1447,-27.98 1452.8,-19.11 1442.74,-22.43 1447,-27.98"/>
</a>
</g>
</g>
<!-- Node18&#45;&gt;Node4 -->
<g id="edge31_Node000018_Node000004" class="edge">
<title>Node18&#45;&gt;Node4</title>
<g id="a_edge31_Node000018_Node000004"><a xlink:title=" ">
<path fill="none" stroke="#63b8ff" d="M670.05,-252.88C688.88,-232.07 718.33,-203.35 750,-187 815.15,-153.36 839.55,-167.46 911,-151 915.39,-149.99 919.96,-148.92 924.53,-147.85"/>
<polygon fill="#63b8ff" stroke="#63b8ff" points="925.52,-151.21 934.45,-145.51 923.91,-144.4 925.52,-151.21"/>
</a>
</g>
</g>
<!-- Node19 -->
<g id="Node000019" class="node">
<title>Node19</title>
<g id="a_Node000019"><a xlink:href="configurator_8hpp.html" target="_top" xlink:title=" ">
<polygon fill="white" stroke="#666666" points="616,-217 464,-217 464,-187 616,-187 616,-217"/>
<text text-anchor="start" x="472" y="-205" font-family="Helvetica,sans-Serif" font-size="10.00">iii_drone_core/configuration</text>
<text text-anchor="middle" x="540" y="-194" font-family="Helvetica,sans-Serif" font-size="10.00">/configurator.hpp</text>
</a>
</g>
</g>
<!-- Node18&#45;&gt;Node19 -->
<g id="edge20_Node000018_Node000019" class="edge">
<title>Node18&#45;&gt;Node19</title>
<g id="a_edge20_Node000018_Node000019"><a xlink:title=" ">
<path fill="none" stroke="#63b8ff" d="M612.4,-252.82C598.2,-243.04 582.17,-232.01 568.81,-222.82"/>
<polygon fill="#63b8ff" stroke="#63b8ff" points="570.68,-219.86 560.46,-217.08 566.71,-225.63 570.68,-219.86"/>
</a>
</g>
</g>
<!-- Node19&#45;&gt;Node4 -->
<g id="edge22_Node000019_Node000004" class="edge">
<title>Node19&#45;&gt;Node4</title>
<g id="a_edge22_Node000019_Node000004"><a xlink:title=" ">
<path fill="none" stroke="#63b8ff" d="M616.02,-192.98C691.26,-184.53 809.56,-169.82 911,-151 916.11,-150.05 921.44,-148.95 926.72,-147.79"/>
<polygon fill="#63b8ff" stroke="#63b8ff" points="927.77,-151.14 936.74,-145.5 926.21,-144.31 927.77,-151.14"/>
</a>
</g>
</g>
<!-- Node19&#45;&gt;Node8 -->
<g id="edge29_Node000019_Node000008" class="edge">
<title>Node19&#45;&gt;Node8</title>
<g id="a_edge29_Node000019_Node000008"><a xlink:title=" ">
<path fill="none" stroke="#63b8ff" d="M463.67,-198.73C369.36,-194.61 204.51,-183.08 67,-151 64.33,-150.38 61.6,-149.62 58.87,-148.78"/>
<polygon fill="#63b8ff" stroke="#63b8ff" points="59.82,-145.41 49.23,-145.5 57.57,-152.04 59.82,-145.41"/>
</a>
</g>
</g>
<!-- Node19&#45;&gt;Node9 -->
<g id="edge25_Node000019_Node000009" class="edge">
<title>Node19&#45;&gt;Node9</title>
<g id="a_edge25_Node000019_Node000009"><a xlink:title=" ">
<path fill="none" stroke="#63b8ff" d="M463.81,-194.51C362.8,-185.42 190.18,-168.1 129,-151 127.32,-150.53 125.61,-149.98 123.91,-149.38"/>
<polygon fill="#63b8ff" stroke="#63b8ff" points="124.97,-146.03 114.38,-145.51 122.33,-152.52 124.97,-146.03"/>
</a>
</g>
</g>
<!-- Node20 -->
<g id="Node000020" class="node">
<title>Node20</title>
<g id="a_Node000020"><a xlink:title=" ">
<polygon fill="#e0e0e0" stroke="#999999" points="460,-151 310,-151 310,-121 460,-121 460,-151"/>
<text text-anchor="start" x="318" y="-139" font-family="Helvetica,sans-Serif" font-size="10.00">iii_drone_interfaces</text>
<text text-anchor="middle" x="385" y="-128" font-family="Helvetica,sans-Serif" font-size="10.00">/srv/declare_parameter.hpp</text>
</a>
</g>
</g>
<!-- Node19&#45;&gt;Node20 -->
<g id="edge21_Node000019_Node000020" class="edge">
<title>Node19&#45;&gt;Node20</title>
<g id="a_edge21_Node000019_Node000020"><a xlink:title=" ">
<path fill="none" stroke="#63b8ff" d="M505.98,-186.95C483.17,-177.53 452.92,-165.04 428.38,-154.91"/>
<polygon fill="#63b8ff" stroke="#63b8ff" points="429.51,-151.59 418.94,-151.01 426.84,-158.06 429.51,-151.59"/>
</a>
</g>
</g>
<!-- Node21 -->
<g id="Node000021" class="node">
<title>Node21</title>
<g id="a_Node000021"><a xlink:title=" ">
<polygon fill="#e0e0e0" stroke="#999999" points="602.5,-151 477.5,-151 477.5,-121 602.5,-121 602.5,-151"/>
<text text-anchor="start" x="485.5" y="-139" font-family="Helvetica,sans-Serif" font-size="10.00">rcl_interfaces/msg</text>
<text text-anchor="middle" x="540" y="-128" font-family="Helvetica,sans-Serif" font-size="10.00">/parameter_event.hpp</text>
</a>
</g>
</g>
<!-- Node19&#45;&gt;Node21 -->
<g id="edge23_Node000019_Node000021" class="edge">
<title>Node19&#45;&gt;Node21</title>
<g id="a_edge23_Node000019_Node000021"><a xlink:title=" ">
<path fill="none" stroke="#63b8ff" d="M540,-186.8C540,-179.34 540,-169.99 540,-161.41"/>
<polygon fill="#63b8ff" stroke="#63b8ff" points="543.5,-161.16 540,-151.16 536.5,-161.16 543.5,-161.16"/>
</a>
</g>
</g>
<!-- Node22 -->
<g id="Node000022" class="node">
<title>Node22</title>
<g id="a_Node000022"><a xlink:title=" ">
<polygon fill="#e0e0e0" stroke="#999999" points="771,-151 621,-151 621,-121 771,-121 771,-151"/>
<text text-anchor="start" x="629" y="-139" font-family="Helvetica,sans-Serif" font-size="10.00">rcl_interfaces/msg</text>
<text text-anchor="middle" x="696" y="-128" font-family="Helvetica,sans-Serif" font-size="10.00">/set_parameters_result.hpp</text>
</a>
</g>
</g>
<!-- Node19&#45;&gt;Node22 -->
<g id="edge24_Node000019_Node000022" class="edge">
<title>Node19&#45;&gt;Node22</title>
<g id="a_edge24_Node000019_Node000022"><a xlink:title=" ">
<path fill="none" stroke="#63b8ff" d="M574.23,-186.95C597.2,-177.53 627.64,-165.04 652.34,-154.91"/>
<polygon fill="#63b8ff" stroke="#63b8ff" points="653.92,-158.05 661.84,-151.01 651.26,-151.57 653.92,-158.05"/>
</a>
</g>
</g>
<!-- Node23 -->
<g id="Node000023" class="node">
<title>Node23</title>
<g id="a_Node000023"><a xlink:title=" ">
<polygon fill="#e0e0e0" stroke="#999999" points="835.5,-145.5 788.5,-145.5 788.5,-126.5 835.5,-126.5 835.5,-145.5"/>
<text text-anchor="middle" x="812" y="-133.5" font-family="Helvetica,sans-Serif" font-size="10.00">vector</text>
</a>
</g>
</g>
<!-- Node19&#45;&gt;Node23 -->
<g id="edge26_Node000019_Node000023" class="edge">
<title>Node19&#45;&gt;Node23</title>
<g id="a_edge26_Node000019_Node000023"><a xlink:title=" ">
<path fill="none" stroke="#63b8ff" d="M616.16,-189.29C663.87,-180.94 726.28,-168.14 780,-151 781.63,-150.48 783.29,-149.91 784.95,-149.29"/>
<polygon fill="#63b8ff" stroke="#63b8ff" points="786.35,-152.5 794.31,-145.52 783.73,-146.01 786.35,-152.5"/>
</a>
</g>
</g>
<!-- Node24 -->
<g id="Node000024" class="node">
<title>Node24</title>
<g id="a_Node000024"><a xlink:title=" ">
<polygon fill="#e0e0e0" stroke="#999999" points="902,-145.5 854,-145.5 854,-126.5 902,-126.5 902,-145.5"/>
<text text-anchor="middle" x="878" y="-133.5" font-family="Helvetica,sans-Serif" font-size="10.00">mutex</text>
</a>
</g>
</g>
<!-- Node19&#45;&gt;Node24 -->
<g id="edge27_Node000019_Node000024" class="edge">
<title>Node19&#45;&gt;Node24</title>
<g id="a_edge27_Node000019_Node000024"><a xlink:title=" ">
<path fill="none" stroke="#63b8ff" d="M616.01,-193.36C678.15,-185.96 767.85,-172.63 844,-151 845.89,-150.46 847.81,-149.85 849.74,-149.2"/>
<polygon fill="#63b8ff" stroke="#63b8ff" points="851.09,-152.43 859.21,-145.63 848.62,-145.88 851.09,-152.43"/>
</a>
</g>
</g>
<!-- Node25 -->
<g id="Node000025" class="node">
<title>Node25</title>
<g id="a_Node000025"><a xlink:title=" ">
<polygon fill="#e0e0e0" stroke="#999999" points="224,-145.5 138,-145.5 138,-126.5 224,-126.5 224,-145.5"/>
<text text-anchor="middle" x="181" y="-133.5" font-family="Helvetica,sans-Serif" font-size="10.00">shared_mutex</text>
</a>
</g>
</g>
<!-- Node19&#45;&gt;Node25 -->
<g id="edge28_Node000019_Node000025" class="edge">
<title>Node19&#45;&gt;Node25</title>
<g id="a_edge28_Node000019_Node000025"><a xlink:title=" ">
<path fill="none" stroke="#63b8ff" d="M463.9,-190.8C401.53,-181.92 311.13,-167.83 233,-151 228.89,-150.11 224.61,-149.11 220.36,-148.05"/>
<polygon fill="#63b8ff" stroke="#63b8ff" points="221.13,-144.63 210.57,-145.52 219.38,-151.41 221.13,-144.63"/>
</a>
</g>
</g>
<!-- Node26 -->
<g id="Node000026" class="node">
<title>Node26</title>
<g id="a_Node000026"><a xlink:title=" ">
<polygon fill="#e0e0e0" stroke="#999999" points="292,-145.5 242,-145.5 242,-126.5 292,-126.5 292,-145.5"/>
<text text-anchor="middle" x="267" y="-133.5" font-family="Helvetica,sans-Serif" font-size="10.00">atomic</text>
</a>
</g>
</g>
<!-- Node19&#45;&gt;Node26 -->
<g id="edge30_Node000019_Node000026" class="edge">
<title>Node19&#45;&gt;Node26</title>
<g id="a_edge30_Node000019_Node000026"><a xlink:title=" ">
<path fill="none" stroke="#63b8ff" d="M463.74,-188.75C416.35,-180.23 354.48,-167.45 301,-151 299.32,-150.48 297.61,-149.92 295.9,-149.32"/>
<polygon fill="#63b8ff" stroke="#63b8ff" points="296.78,-145.91 286.19,-145.62 294.29,-152.45 296.78,-145.91"/>
</a>
</g>
</g>
<!-- Node27&#45;&gt;Node3 -->
<g id="edge35_Node000027_Node000003" class="edge">
<title>Node27&#45;&gt;Node3</title>
<g id="a_edge35_Node000027_Node000003"><a xlink:title=" ">
<path fill="none" stroke="#63b8ff" d="M1054.57,-258.49C1016.61,-246.63 968.58,-231.62 932.05,-220.2"/>
<polygon fill="#63b8ff" stroke="#63b8ff" points="932.65,-216.72 922.06,-217.08 930.56,-223.41 932.65,-216.72"/>
</a>
</g>
</g>
<!-- Node27&#45;&gt;Node4 -->
<g id="edge34_Node000027_Node000004" class="edge">
<title>Node27&#45;&gt;Node4</title>
<g id="a_edge34_Node000027_Node000004"><a xlink:title=" ">
<path fill="none" stroke="#63b8ff" d="M1072.81,-258.49C1053.1,-248.22 1030.63,-234.17 1014,-217 996.56,-198.99 983.87,-172.7 976.72,-155.23"/>
<polygon fill="#63b8ff" stroke="#63b8ff" points="979.88,-153.7 973,-145.65 973.36,-156.24 979.88,-153.7"/>
</a>
</g>
</g>
<!-- Node27&#45;&gt;Node7 -->
<g id="edge36_Node000027_Node000007" class="edge">
<title>Node27&#45;&gt;Node7</title>
<g id="a_edge36_Node000027_Node000007"><a xlink:title=" ">
<path fill="none" stroke="#63b8ff" d="M1182.65,-260.23C1228.01,-247.94 1287.95,-231.71 1332.41,-219.68"/>
<polygon fill="#63b8ff" stroke="#63b8ff" points="1333.48,-223.01 1342.22,-217.02 1331.65,-216.25 1333.48,-223.01"/>
</a>
</g>
</g>
<!-- Node27&#45;&gt;Node10 -->
<g id="edge41_Node000027_Node000010" class="edge">
<title>Node27&#45;&gt;Node10</title>
<g id="a_edge41_Node000027_Node000010"><a xlink:title=" ">
<path fill="none" stroke="#63b8ff" d="M1084.04,-258.49C1069.84,-248.14 1054.74,-234.02 1047,-217 1041.48,-204.86 1043.42,-199.85 1047,-187 1056.97,-151.19 1081.3,-115.39 1098.47,-93.23"/>
<polygon fill="#63b8ff" stroke="#63b8ff" points="1101.4,-95.17 1104.88,-85.16 1095.92,-90.82 1101.4,-95.17"/>
</a>
</g>
</g>
<!-- Node27&#45;&gt;Node17 -->
<g id="edge42_Node000027_Node000017" class="edge">
<title>Node27&#45;&gt;Node17</title>
<g id="a_edge42_Node000027_Node000017"><a xlink:title=" ">
<path fill="none" stroke="#63b8ff" d="M1182.79,-268.66C1216.9,-260.51 1256.62,-245.31 1282,-217 1295.61,-201.82 1300.27,-178.76 1301.72,-161.3"/>
<polygon fill="#63b8ff" stroke="#63b8ff" points="1305.22,-161.44 1302.26,-151.27 1298.23,-161.06 1305.22,-161.44"/>
</a>
</g>
</g>
<!-- Node28 -->
<g id="Node000028" class="node">
<title>Node28</title>
<g id="a_Node000028"><a xlink:title=" ">
<polygon fill="#e0e0e0" stroke="#999999" points="1273.5,-211.5 1196.5,-211.5 1196.5,-192.5 1273.5,-192.5 1273.5,-211.5"/>
<text text-anchor="middle" x="1235" y="-199.5" font-family="Helvetica,sans-Serif" font-size="10.00">Eigen/Dense</text>
</a>
</g>
</g>
<!-- Node27&#45;&gt;Node28 -->
<g id="edge33_Node000027_Node000028" class="edge">
<title>Node27&#45;&gt;Node28</title>
<g id="a_edge33_Node000027_Node000028"><a xlink:title=" ">
<path fill="none" stroke="#63b8ff" d="M1147.7,-258.49C1168.14,-245.5 1194.53,-228.72 1212.92,-217.03"/>
<polygon fill="#63b8ff" stroke="#63b8ff" points="1214.93,-219.91 1221.49,-211.59 1211.17,-214 1214.93,-219.91"/>
</a>
</g>
</g>
<!-- Node29 -->
<g id="Node000029" class="node">
<title>Node29</title>
<g id="a_Node000029"><a xlink:href="state_8hpp.html" target="_top" xlink:title=" ">
<polygon fill="white" stroke="#666666" points="1178,-217 1056,-217 1056,-187 1178,-187 1178,-217"/>
<text text-anchor="start" x="1064" y="-205" font-family="Helvetica,sans-Serif" font-size="10.00">iii_drone_core/control</text>
<text text-anchor="middle" x="1117" y="-194" font-family="Helvetica,sans-Serif" font-size="10.00">/state.hpp</text>
</a>
</g>
</g>
<!-- Node27&#45;&gt;Node29 -->
<g id="edge37_Node000027_Node000029" class="edge">
<title>Node27&#45;&gt;Node29</title>
<g id="a_edge37_Node000027_Node000029"><a xlink:title=" ">
<path fill="none" stroke="#63b8ff" d="M1117,-258.29C1117,-248.86 1117,-237.47 1117,-227.49"/>
<polygon fill="#63b8ff" stroke="#63b8ff" points="1120.5,-227.36 1117,-217.36 1113.5,-227.36 1120.5,-227.36"/>
</a>
</g>
</g>
<!-- Node29&#45;&gt;Node4 -->
<g id="edge38_Node000029_Node000004" class="edge">
<title>Node29&#45;&gt;Node4</title>
<g id="a_edge38_Node000029_Node000004"><a xlink:title=" ">
<path fill="none" stroke="#63b8ff" d="M1084.74,-186.95C1059.07,-175.78 1023.49,-160.29 998.78,-149.53"/>
<polygon fill="#63b8ff" stroke="#63b8ff" points="1000.13,-146.3 989.56,-145.52 997.33,-152.72 1000.13,-146.3"/>
</a>
</g>
</g>
<!-- Node29&#45;&gt;Node10 -->
<g id="edge39_Node000029_Node000010" class="edge">
<title>Node29&#45;&gt;Node10</title>
<g id="a_edge39_Node000029_Node000010"><a xlink:title=" ">
<path fill="none" stroke="#63b8ff" d="M1117,-186.84C1117,-164.86 1117,-122.27 1117,-95.3"/>
<polygon fill="#63b8ff" stroke="#63b8ff" points="1120.5,-95.14 1117,-85.14 1113.5,-95.14 1120.5,-95.14"/>
</a>
</g>
</g>
<!-- Node29&#45;&gt;Node17 -->
<g id="edge40_Node000029_Node000017" class="edge">
<title>Node29&#45;&gt;Node17</title>
<g id="a_edge40_Node000029_Node000017"><a xlink:title=" ">
<path fill="none" stroke="#63b8ff" d="M1157.6,-186.95C1185.31,-177.37 1222.21,-164.6 1251.78,-154.37"/>
<polygon fill="#63b8ff" stroke="#63b8ff" points="1253.19,-157.59 1261.5,-151.01 1250.9,-150.97 1253.19,-157.59"/>
</a>
</g>
</g>
</g>
</svg>
