<?xml version="1.0" encoding="UTF-8" standalone="no"?>
<!DOCTYPE svg PUBLIC "-//W3C//DTD SVG 1.1//EN"
 "http://www.w3.org/Graphics/SVG/1.1/DTD/svg11.dtd">
<!-- Generated by graphviz version 2.43.0 (0)
 -->
<!-- Title: /home/ffn/Workspace/ros2_humble_ws/src/III&#45;Drone&#45;Core/include/iii_drone_core/perception/hough_transformer_node/hough_transformer_node.hpp Pages: 1 -->
<svg width="2802pt" height="302pt"
 viewBox="0.00 0.00 2802.00 302.00" xmlns="http://www.w3.org/2000/svg" xmlns:xlink="http://www.w3.org/1999/xlink">
<g id="graph0" class="graph" transform="scale(1 1) rotate(0) translate(4 298)">
<title>/home/ffn/Workspace/ros2_humble_ws/src/III&#45;Drone&#45;Core/include/iii_drone_core/perception/hough_transformer_node/hough_transformer_node.hpp</title>
<!-- Node1 -->
<g id="Node000001" class="node">
<title>Node1</title>
<g id="a_Node000001"><a xlink:title=" ">
<polygon fill="#999999" stroke="#666666" points="1635,-294 1460,-294 1460,-220 1635,-220 1635,-294"/>
<text text-anchor="start" x="1468" y="-282" font-family="Helvetica,sans-Serif" font-size="10.00">/home/ffn/Workspace</text>
<text text-anchor="start" x="1468" y="-271" font-family="Helvetica,sans-Serif" font-size="10.00">/ros2_humble_ws/src</text>
<text text-anchor="start" x="1468" y="-260" font-family="Helvetica,sans-Serif" font-size="10.00">/III&#45;Drone&#45;Core/include</text>
<text text-anchor="start" x="1468" y="-249" font-family="Helvetica,sans-Serif" font-size="10.00">/iii_drone_core/perception</text>
<text text-anchor="start" x="1468" y="-238" font-family="Helvetica,sans-Serif" font-size="10.00">/hough_transformer_node/hough</text>
<text text-anchor="middle" x="1547.5" y="-227" font-family="Helvetica,sans-Serif" font-size="10.00">_transformer_node.hpp</text>
</a>
</g>
</g>
<!-- Node2 -->
<g id="Node000002" class="node">
<title>Node2</title>
<g id="a_Node000002"><a xlink:title=" ">
<polygon fill="#e0e0e0" stroke="#999999" points="99,-24.5 0,-24.5 0,-5.5 99,-5.5 99,-24.5"/>
<text text-anchor="middle" x="49.5" y="-12.5" font-family="Helvetica,sans-Serif" font-size="10.00">rclcpp/rclcpp.hpp</text>
</a>
</g>
</g>
<!-- Node1&#45;&gt;Node2 -->
<g id="edge1_Node000001_Node000002" class="edge">
<title>Node1&#45;&gt;Node2</title>
<g id="a_edge1_Node000001_Node000002"><a xlink:title=" ">
<path fill="none" stroke="#63b8ff" d="M1459.99,-256.72C1214.24,-257.84 521.83,-254.46 307.5,-184 206,-150.64 105.72,-66.95 66.63,-31.87"/>
<polygon fill="#63b8ff" stroke="#63b8ff" points="68.59,-28.92 58.83,-24.79 63.88,-34.1 68.59,-28.92"/>
</a>
</g>
</g>
<!-- Node3 -->
<g id="Node000003" class="node">
<title>Node3</title>
<g id="a_Node000003"><a xlink:title=" ">
<polygon fill="#e0e0e0" stroke="#999999" points="1663,-167.5 1576,-167.5 1576,-148.5 1663,-148.5 1663,-167.5"/>
<text text-anchor="middle" x="1619.5" y="-155.5" font-family="Helvetica,sans-Serif" font-size="10.00">rclcpp/qos.hpp</text>
</a>
</g>
</g>
<!-- Node1&#45;&gt;Node3 -->
<g id="edge2_Node000001_Node000003" class="edge">
<title>Node1&#45;&gt;Node3</title>
<g id="a_edge2_Node000001_Node000003"><a xlink:title=" ">
<path fill="none" stroke="#63b8ff" d="M1574.31,-219.88C1585.53,-204.77 1598.02,-187.95 1607.02,-175.82"/>
<polygon fill="#63b8ff" stroke="#63b8ff" points="1609.99,-177.68 1613.14,-167.57 1604.37,-173.51 1609.99,-177.68"/>
</a>
</g>
</g>
<!-- Node4 -->
<g id="Node000004" class="node">
<title>Node4</title>
<g id="a_Node000004"><a xlink:title=" ">
<polygon fill="#e0e0e0" stroke="#999999" points="1840,-167.5 1681,-167.5 1681,-148.5 1840,-148.5 1840,-167.5"/>
<text text-anchor="middle" x="1760.5" y="-155.5" font-family="Helvetica,sans-Serif" font-size="10.00">sensor_msgs/msg/image.hpp</text>
</a>
</g>
</g>
<!-- Node1&#45;&gt;Node4 -->
<g id="edge3_Node000001_Node000004" class="edge">
<title>Node1&#45;&gt;Node4</title>
<g id="a_edge3_Node000001_Node000004"><a xlink:title=" ">
<path fill="none" stroke="#63b8ff" d="M1626.81,-219.88C1663.89,-202.99 1705.69,-183.96 1732.52,-171.74"/>
<polygon fill="#63b8ff" stroke="#63b8ff" points="1734.04,-174.9 1741.69,-167.57 1731.14,-168.52 1734.04,-174.9"/>
</a>
</g>
</g>
<!-- Node5 -->
<g id="Node000005" class="node">
<title>Node5</title>
<g id="a_Node000005"><a xlink:title=" ">
<polygon fill="#e0e0e0" stroke="#999999" points="2003,-167.5 1858,-167.5 1858,-148.5 2003,-148.5 2003,-167.5"/>
<text text-anchor="middle" x="1930.5" y="-155.5" font-family="Helvetica,sans-Serif" font-size="10.00">std_msgs/msg/float32.hpp</text>
</a>
</g>
</g>
<!-- Node1&#45;&gt;Node5 -->
<g id="edge4_Node000001_Node000005" class="edge">
<title>Node1&#45;&gt;Node5</title>
<g id="a_edge4_Node000001_Node000005"><a xlink:title=" ">
<path fill="none" stroke="#63b8ff" d="M1635.11,-236.71C1695.6,-222.99 1777.75,-203.6 1849.5,-184 1864.35,-179.94 1880.59,-175.03 1894.6,-170.63"/>
<polygon fill="#63b8ff" stroke="#63b8ff" points="1895.88,-173.9 1904.36,-167.54 1893.77,-167.22 1895.88,-173.9"/>
</a>
</g>
</g>
<!-- Node6 -->
<g id="Node000006" class="node">
<title>Node6</title>
<g id="a_Node000006"><a xlink:title=" ">
<polygon fill="#e0e0e0" stroke="#999999" points="2152,-173 2021,-173 2021,-143 2152,-143 2152,-173"/>
<text text-anchor="start" x="2029" y="-161" font-family="Helvetica,sans-Serif" font-size="10.00">image_transport/image</text>
<text text-anchor="middle" x="2086.5" y="-150" font-family="Helvetica,sans-Serif" font-size="10.00">_transport.hpp</text>
</a>
</g>
</g>
<!-- Node1&#45;&gt;Node6 -->
<g id="edge5_Node000001_Node000006" class="edge">
<title>Node1&#45;&gt;Node6</title>
<g id="a_edge5_Node000001_Node000006"><a xlink:title=" ">
<path fill="none" stroke="#63b8ff" d="M1635.37,-246.96C1729.53,-236.22 1882.95,-215.66 2012.5,-184 2021.21,-181.87 2030.36,-179.17 2039.13,-176.35"/>
<polygon fill="#63b8ff" stroke="#63b8ff" points="2040.46,-179.59 2048.84,-173.12 2038.25,-172.95 2040.46,-179.59"/>
</a>
</g>
</g>
<!-- Node7 -->
<g id="Node000007" class="node">
<title>Node7</title>
<g id="a_Node000007"><a xlink:title=" ">
<polygon fill="#e0e0e0" stroke="#999999" points="2293,-167.5 2170,-167.5 2170,-148.5 2293,-148.5 2293,-167.5"/>
<text text-anchor="middle" x="2231.5" y="-155.5" font-family="Helvetica,sans-Serif" font-size="10.00">cv_bridge/cv_bridge.h</text>
</a>
</g>
</g>
<!-- Node1&#45;&gt;Node7 -->
<g id="edge6_Node000001_Node000007" class="edge">
<title>Node1&#45;&gt;Node7</title>
<g id="a_edge6_Node000001_Node000007"><a xlink:title=" ">
<path fill="none" stroke="#63b8ff" d="M1635.25,-251.96C1755.39,-245.01 1977.18,-227.13 2161.5,-184 2175.08,-180.82 2189.68,-175.87 2202.01,-171.21"/>
<polygon fill="#63b8ff" stroke="#63b8ff" points="2203.3,-174.46 2211.34,-167.57 2200.76,-167.94 2203.3,-174.46"/>
</a>
</g>
</g>
<!-- Node8 -->
<g id="Node000008" class="node">
<title>Node8</title>
<g id="a_Node000008"><a xlink:title=" ">
<polygon fill="#e0e0e0" stroke="#999999" points="877.5,-90.5 743.5,-90.5 743.5,-71.5 877.5,-71.5 877.5,-90.5"/>
<text text-anchor="middle" x="810.5" y="-78.5" font-family="Helvetica,sans-Serif" font-size="10.00">opencv2/imgcodecs.hpp</text>
</a>
</g>
</g>
<!-- Node1&#45;&gt;Node8 -->
<g id="edge7_Node000001_Node000008" class="edge">
<title>Node1&#45;&gt;Node8</title>
<g id="a_edge7_Node000001_Node000008"><a xlink:title=" ">
<path fill="none" stroke="#63b8ff" d="M1459.72,-256.62C1344.74,-254.84 1138.37,-242.69 973.5,-184 915.93,-163.51 857.34,-120.16 828.63,-97.13"/>
<polygon fill="#63b8ff" stroke="#63b8ff" points="830.68,-94.28 820.72,-90.68 826.26,-99.71 830.68,-94.28"/>
</a>
</g>
</g>
<!-- Node9 -->
<g id="Node000009" class="node">
<title>Node9</title>
<g id="a_Node000009"><a xlink:title=" ">
<polygon fill="#e0e0e0" stroke="#999999" points="1013.5,-90.5 895.5,-90.5 895.5,-71.5 1013.5,-71.5 1013.5,-90.5"/>
<text text-anchor="middle" x="954.5" y="-78.5" font-family="Helvetica,sans-Serif" font-size="10.00">opencv2/highgui.hpp</text>
</a>
</g>
</g>
<!-- Node1&#45;&gt;Node9 -->
<g id="edge8_Node000001_Node000009" class="edge">
<title>Node1&#45;&gt;Node9</title>
<g id="a_edge8_Node000001_Node000009"><a xlink:title=" ">
<path fill="none" stroke="#63b8ff" d="M1459.85,-252.61C1329.84,-246.15 1093.6,-228.53 1022.5,-184 990.9,-164.21 970.71,-123.75 961.11,-100.17"/>
<polygon fill="#63b8ff" stroke="#63b8ff" points="964.3,-98.72 957.44,-90.65 957.77,-101.24 964.3,-98.72"/>
</a>
</g>
</g>
<!-- Node10 -->
<g id="Node000010" class="node">
<title>Node10</title>
<g id="a_Node000010"><a xlink:title=" ">
<polygon fill="#e0e0e0" stroke="#999999" points="1229.5,-90.5 1107.5,-90.5 1107.5,-71.5 1229.5,-71.5 1229.5,-90.5"/>
<text text-anchor="middle" x="1168.5" y="-78.5" font-family="Helvetica,sans-Serif" font-size="10.00">opencv2/imgproc.hpp</text>
</a>
</g>
</g>
<!-- Node1&#45;&gt;Node10 -->
<g id="edge9_Node000001_Node000010" class="edge">
<title>Node1&#45;&gt;Node10</title>
<g id="a_edge9_Node000001_Node000010"><a xlink:title=" ">
<path fill="none" stroke="#63b8ff" d="M1459.73,-221.36C1431.67,-209.89 1400.61,-196.79 1372.5,-184 1307.04,-154.22 1231.79,-115.36 1193.59,-95.29"/>
<polygon fill="#63b8ff" stroke="#63b8ff" points="1195.18,-92.17 1184.7,-90.61 1191.92,-98.37 1195.18,-92.17"/>
</a>
</g>
</g>
<!-- Node11 -->
<g id="Node000011" class="node">
<title>Node11</title>
<g id="a_Node000011"><a xlink:title=" ">
<polygon fill="#e0e0e0" stroke="#999999" points="1363.5,-90.5 1247.5,-90.5 1247.5,-71.5 1363.5,-71.5 1363.5,-90.5"/>
<text text-anchor="middle" x="1305.5" y="-78.5" font-family="Helvetica,sans-Serif" font-size="10.00">opencv2/opencv.hpp</text>
</a>
</g>
</g>
<!-- Node1&#45;&gt;Node11 -->
<g id="edge10_Node000001_Node000011" class="edge">
<title>Node1&#45;&gt;Node11</title>
<g id="a_edge10_Node000001_Node000011"><a xlink:title=" ">
<path fill="none" stroke="#63b8ff" d="M1497.36,-219.95C1444.3,-181.8 1363.16,-123.46 1325.72,-96.54"/>
<polygon fill="#63b8ff" stroke="#63b8ff" points="1327.76,-93.69 1317.6,-90.7 1323.67,-99.38 1327.76,-93.69"/>
</a>
</g>
</g>
<!-- Node12 -->
<g id="Node000012" class="node">
<title>Node12</title>
<g id="a_Node000012"><a xlink:title=" ">
<polygon fill="#e0e0e0" stroke="#999999" points="1485,-90.5 1382,-90.5 1382,-71.5 1485,-71.5 1485,-90.5"/>
<text text-anchor="middle" x="1433.5" y="-78.5" font-family="Helvetica,sans-Serif" font-size="10.00">opencv2/core.hpp</text>
</a>
</g>
</g>
<!-- Node1&#45;&gt;Node12 -->
<g id="edge11_Node000001_Node000012" class="edge">
<title>Node1&#45;&gt;Node12</title>
<g id="a_edge11_Node000001_Node000012"><a xlink:title=" ">
<path fill="none" stroke="#63b8ff" d="M1512.57,-219.72C1502.86,-208.71 1492.74,-196.27 1484.5,-184 1465.9,-156.3 1449.69,-120.87 1440.78,-99.89"/>
<polygon fill="#63b8ff" stroke="#63b8ff" points="1443.99,-98.48 1436.91,-90.6 1437.53,-101.17 1443.99,-98.48"/>
</a>
</g>
</g>
<!-- Node13 -->
<g id="Node000013" class="node">
<title>Node13</title>
<g id="a_Node000013"><a xlink:title=" ">
<polygon fill="#e0e0e0" stroke="#999999" points="1667.5,-90.5 1503.5,-90.5 1503.5,-71.5 1667.5,-71.5 1667.5,-90.5"/>
<text text-anchor="middle" x="1585.5" y="-78.5" font-family="Helvetica,sans-Serif" font-size="10.00">opencv2/imgproc/imgproc.hpp</text>
</a>
</g>
</g>
<!-- Node1&#45;&gt;Node13 -->
<g id="edge12_Node000001_Node000013" class="edge">
<title>Node1&#45;&gt;Node13</title>
<g id="a_edge12_Node000001_Node000013"><a xlink:title=" ">
<path fill="none" stroke="#63b8ff" d="M1514.73,-219.77C1495.91,-194.37 1478.99,-160.07 1495.5,-132 1506.15,-113.9 1525.99,-101.88 1544.34,-94.17"/>
<polygon fill="#63b8ff" stroke="#63b8ff" points="1545.68,-97.4 1553.74,-90.53 1543.15,-90.88 1545.68,-97.4"/>
</a>
</g>
</g>
<!-- Node14 -->
<g id="Node000014" class="node">
<title>Node14</title>
<g id="a_Node000014"><a xlink:href="hough__transformer__node__configurator_8hpp.html" target="_top" xlink:title=" ">
<polygon fill="white" stroke="#666666" points="573.5,-184 431.5,-184 431.5,-132 573.5,-132 573.5,-184"/>
<text text-anchor="start" x="439.5" y="-172" font-family="Helvetica,sans-Serif" font-size="10.00">iii_drone_core/perception</text>
<text text-anchor="start" x="439.5" y="-161" font-family="Helvetica,sans-Serif" font-size="10.00">/hough_transformer_node</text>
<text text-anchor="start" x="439.5" y="-150" font-family="Helvetica,sans-Serif" font-size="10.00">/hough_transformer_node</text>
<text text-anchor="middle" x="502.5" y="-139" font-family="Helvetica,sans-Serif" font-size="10.00">_configurator.hpp</text>
</a>
</g>
</g>
<!-- Node1&#45;&gt;Node14 -->
<g id="edge13_Node000001_Node000014" class="edge">
<title>Node1&#45;&gt;Node14</title>
<g id="a_edge13_Node000001_Node000014"><a xlink:title=" ">
<path fill="none" stroke="#63b8ff" d="M1459.87,-250.21C1303.9,-239.55 968,-215.07 685.5,-184 652.14,-180.33 615.46,-175.48 583.76,-171.03"/>
<polygon fill="#63b8ff" stroke="#63b8ff" points="584.05,-167.54 573.66,-169.6 583.07,-174.47 584.05,-167.54"/>
</a>
</g>
</g>
<!-- Node19 -->
<g id="Node000019" class="node">
<title>Node19</title>
<g id="a_Node000019"><a xlink:title=" ">
<polygon fill="#e0e0e0" stroke="#999999" points="161.5,-24.5 117.5,-24.5 117.5,-5.5 161.5,-5.5 161.5,-24.5"/>
<text text-anchor="middle" x="139.5" y="-12.5" font-family="Helvetica,sans-Serif" font-size="10.00">string</text>
</a>
</g>
</g>
<!-- Node1&#45;&gt;Node19 -->
<g id="edge47_Node000001_Node000019" class="edge">
<title>Node1&#45;&gt;Node19</title>
<g id="a_edge47_Node000001_Node000019"><a xlink:title=" ">
<path fill="none" stroke="#63b8ff" d="M1459.65,-255.66C1229.9,-253.94 615.67,-243.72 422.5,-184 312.7,-150.06 200.73,-65.74 157.79,-31.16"/>
<polygon fill="#63b8ff" stroke="#63b8ff" points="159.89,-28.35 149.92,-24.76 155.47,-33.78 159.89,-28.35"/>
</a>
</g>
</g>
<!-- Node20 -->
<g id="Node000020" class="node">
<title>Node20</title>
<g id="a_Node000020"><a xlink:title=" ">
<polygon fill="#e0e0e0" stroke="#999999" points="1103,-24.5 1056,-24.5 1056,-5.5 1103,-5.5 1103,-24.5"/>
<text text-anchor="middle" x="1079.5" y="-12.5" font-family="Helvetica,sans-Serif" font-size="10.00">vector</text>
</a>
</g>
</g>
<!-- Node1&#45;&gt;Node20 -->
<g id="edge46_Node000001_Node000020" class="edge">
<title>Node1&#45;&gt;Node20</title>
<g id="a_edge46_Node000001_Node000020"><a xlink:title=" ">
<path fill="none" stroke="#63b8ff" d="M1543.5,-220C1542.52,-192.51 1546,-155.48 1567.5,-132 1611.46,-83.97 1669.52,-147.38 1709.5,-96 1717.69,-85.48 1718.55,-75.79 1709.5,-66 1668.81,-21.95 1238.13,-16.67 1113.26,-16.07"/>
<polygon fill="#63b8ff" stroke="#63b8ff" points="1113.15,-12.57 1103.13,-16.03 1113.12,-19.57 1113.15,-12.57"/>
</a>
</g>
</g>
<!-- Node21 -->
<g id="Node000021" class="node">
<title>Node21</title>
<g id="a_Node000021"><a xlink:title=" ">
<polygon fill="#e0e0e0" stroke="#999999" points="955.5,-24.5 907.5,-24.5 907.5,-5.5 955.5,-5.5 955.5,-24.5"/>
<text text-anchor="middle" x="931.5" y="-12.5" font-family="Helvetica,sans-Serif" font-size="10.00">mutex</text>
</a>
</g>
</g>
<!-- Node1&#45;&gt;Node21 -->
<g id="edge49_Node000001_Node000021" class="edge">
<title>Node1&#45;&gt;Node21</title>
<g id="a_edge49_Node000001_Node000021"><a xlink:title=" ">
<path fill="none" stroke="#63b8ff" d="M1534.28,-219.98C1526.88,-193.02 1522.53,-156.7 1541.5,-132 1579.33,-82.76 1638.67,-145.24 1676.5,-96 1684.62,-85.43 1685.66,-75.69 1676.5,-66 1628.36,-15.03 1116.34,-36.24 1046.5,-30 1019.35,-27.57 988.71,-23.79 965.89,-20.77"/>
<polygon fill="#63b8ff" stroke="#63b8ff" points="966.06,-17.26 955.68,-19.4 965.13,-24.2 966.06,-17.26"/>
</a>
</g>
</g>
<!-- Node25 -->
<g id="Node000025" class="node">
<title>Node25</title>
<g id="a_Node000025"><a xlink:href="hough__transformer__parameters_8hpp.html" target="_top" xlink:title=" ">
<polygon fill="white" stroke="#666666" points="725,-96 530,-96 530,-66 725,-66 725,-96"/>
<text text-anchor="start" x="538" y="-84" font-family="Helvetica,sans-Serif" font-size="10.00">iii_drone_core/perception</text>
<text text-anchor="middle" x="627.5" y="-73" font-family="Helvetica,sans-Serif" font-size="10.00">/hough_transformer_parameters.hpp</text>
</a>
</g>
</g>
<!-- Node1&#45;&gt;Node25 -->
<g id="edge30_Node000001_Node000025" class="edge">
<title>Node1&#45;&gt;Node25</title>
<g id="a_edge30_Node000001_Node000025"><a xlink:title=" ">
<path fill="none" stroke="#63b8ff" d="M1459.91,-254.61C1329.97,-250.76 1079.32,-236.5 873.5,-184 795.75,-164.17 710.37,-124.35 663.43,-100.76"/>
<polygon fill="#63b8ff" stroke="#63b8ff" points="664.79,-97.52 654.29,-96.12 661.62,-103.77 664.79,-97.52"/>
</a>
</g>
</g>
<!-- Node26 -->
<g id="Node000026" class="node">
<title>Node26</title>
<g id="a_Node000026"><a xlink:href="hough__transformer_8hpp.html" target="_top" xlink:title=" ">
<polygon fill="white" stroke="#666666" points="1171.5,-173 1031.5,-173 1031.5,-143 1171.5,-143 1171.5,-173"/>
<text text-anchor="start" x="1039.5" y="-161" font-family="Helvetica,sans-Serif" font-size="10.00">iii_drone_core/perception</text>
<text text-anchor="middle" x="1101.5" y="-150" font-family="Helvetica,sans-Serif" font-size="10.00">/hough_transformer.hpp</text>
</a>
</g>
</g>
<!-- Node1&#45;&gt;Node26 -->
<g id="edge31_Node000001_Node000026" class="edge">
<title>Node1&#45;&gt;Node26</title>
<g id="a_edge31_Node000001_Node000026"><a xlink:title=" ">
<path fill="none" stroke="#63b8ff" d="M1459.92,-236.95C1377.08,-218.94 1254.12,-192.19 1175.91,-175.18"/>
<polygon fill="#63b8ff" stroke="#63b8ff" points="1176.64,-171.76 1166.13,-173.06 1175.15,-178.6 1176.64,-171.76"/>
</a>
</g>
</g>
<!-- Node27 -->
<g id="Node000027" class="node">
<title>Node27</title>
<g id="a_Node000027"><a xlink:title=" ">
<polygon fill="#e0e0e0" stroke="#999999" points="2375.5,-167.5 2311.5,-167.5 2311.5,-148.5 2375.5,-148.5 2375.5,-167.5"/>
<text text-anchor="middle" x="2343.5" y="-155.5" font-family="Helvetica,sans-Serif" font-size="10.00">algorithm</text>
</a>
</g>
</g>
<!-- Node1&#45;&gt;Node27 -->
<g id="edge41_Node000001_Node000027" class="edge">
<title>Node1&#45;&gt;Node27</title>
<g id="a_edge41_Node000001_Node000027"><a xlink:title=" ">
<path fill="none" stroke="#63b8ff" d="M1635.25,-252.58C1806.87,-245.07 2180.77,-224.52 2302.5,-184 2309.83,-181.56 2317.23,-177.61 2323.69,-173.56"/>
<polygon fill="#63b8ff" stroke="#63b8ff" points="2326.02,-176.21 2332.36,-167.72 2322.11,-170.41 2326.02,-176.21"/>
</a>
</g>
</g>
<!-- Node28 -->
<g id="Node000028" class="node">
<title>Node28</title>
<g id="a_Node000028"><a xlink:title=" ">
<polygon fill="#e0e0e0" stroke="#999999" points="2443,-167.5 2394,-167.5 2394,-148.5 2443,-148.5 2443,-167.5"/>
<text text-anchor="middle" x="2418.5" y="-155.5" font-family="Helvetica,sans-Serif" font-size="10.00">cstdlib</text>
</a>
</g>
</g>
<!-- Node1&#45;&gt;Node28 -->
<g id="edge42_Node000001_Node000028" class="edge">
<title>Node1&#45;&gt;Node28</title>
<g id="a_edge42_Node000001_Node000028"><a xlink:title=" ">
<path fill="none" stroke="#63b8ff" d="M1635.06,-254.44C1820.95,-250.17 2249.11,-234.95 2384.5,-184 2390.65,-181.69 2396.66,-177.92 2401.88,-174.01"/>
<polygon fill="#63b8ff" stroke="#63b8ff" points="2404.29,-176.57 2409.8,-167.52 2399.85,-171.16 2404.29,-176.57"/>
</a>
</g>
</g>
<!-- Node29 -->
<g id="Node000029" class="node">
<title>Node29</title>
<g id="a_Node000029"><a xlink:title=" ">
<polygon fill="#e0e0e0" stroke="#999999" points="2514,-167.5 2461,-167.5 2461,-148.5 2514,-148.5 2514,-167.5"/>
<text text-anchor="middle" x="2487.5" y="-155.5" font-family="Helvetica,sans-Serif" font-size="10.00">stdlib.h</text>
</a>
</g>
</g>
<!-- Node1&#45;&gt;Node29 -->
<g id="edge43_Node000001_Node000029" class="edge">
<title>Node1&#45;&gt;Node29</title>
<g id="a_edge43_Node000001_Node000029"><a xlink:title=" ">
<path fill="none" stroke="#63b8ff" d="M1635.37,-254.96C1832.42,-251.66 2303.97,-238.19 2452.5,-184 2458.79,-181.7 2464.97,-177.95 2470.34,-174.04"/>
<polygon fill="#63b8ff" stroke="#63b8ff" points="2472.86,-176.51 2478.5,-167.54 2468.5,-171.03 2472.86,-176.51"/>
</a>
</g>
</g>
<!-- Node30 -->
<g id="Node000030" class="node">
<title>Node30</title>
<g id="a_Node000030"><a xlink:title=" ">
<polygon fill="#e0e0e0" stroke="#999999" points="2592.5,-167.5 2532.5,-167.5 2532.5,-148.5 2592.5,-148.5 2592.5,-167.5"/>
<text text-anchor="middle" x="2562.5" y="-155.5" font-family="Helvetica,sans-Serif" font-size="10.00">iostream</text>
</a>
</g>
</g>
<!-- Node1&#45;&gt;Node30 -->
<g id="edge44_Node000001_Node000030" class="edge">
<title>Node1&#45;&gt;Node30</title>
<g id="a_edge44_Node000001_Node000030"><a xlink:title=" ">
<path fill="none" stroke="#63b8ff" d="M1635.03,-255.03C1842.69,-251.84 2360,-238.52 2523.5,-184 2530.68,-181.61 2537.84,-177.6 2544.04,-173.48"/>
<polygon fill="#63b8ff" stroke="#63b8ff" points="2546.22,-176.22 2552.31,-167.55 2542.15,-170.53 2546.22,-176.22"/>
</a>
</g>
</g>
<!-- Node31 -->
<g id="Node000031" class="node">
<title>Node31</title>
<g id="a_Node000031"><a xlink:title=" ">
<polygon fill="#e0e0e0" stroke="#999999" points="2662,-167.5 2611,-167.5 2611,-148.5 2662,-148.5 2662,-167.5"/>
<text text-anchor="middle" x="2636.5" y="-155.5" font-family="Helvetica,sans-Serif" font-size="10.00">math.h</text>
</a>
</g>
</g>
<!-- Node1&#45;&gt;Node31 -->
<g id="edge45_Node000001_Node000031" class="edge">
<title>Node1&#45;&gt;Node31</title>
<g id="a_edge45_Node000001_Node000031"><a xlink:title=" ">
<path fill="none" stroke="#63b8ff" d="M1635.26,-256.12C1855.11,-255.45 2424.53,-247.44 2601.5,-184 2607.8,-181.74 2613.99,-177.99 2619.36,-174.08"/>
<polygon fill="#63b8ff" stroke="#63b8ff" points="2621.88,-176.55 2627.52,-167.57 2617.52,-171.08 2621.88,-176.55"/>
</a>
</g>
</g>
<!-- Node32 -->
<g id="Node000032" class="node">
<title>Node32</title>
<g id="a_Node000032"><a xlink:title=" ">
<polygon fill="#e0e0e0" stroke="#999999" points="2728.5,-167.5 2680.5,-167.5 2680.5,-148.5 2728.5,-148.5 2728.5,-167.5"/>
<text text-anchor="middle" x="2704.5" y="-155.5" font-family="Helvetica,sans-Serif" font-size="10.00">thread</text>
</a>
</g>
</g>
<!-- Node1&#45;&gt;Node32 -->
<g id="edge48_Node000001_Node000032" class="edge">
<title>Node1&#45;&gt;Node32</title>
<g id="a_edge48_Node000001_Node000032"><a xlink:title=" ">
<path fill="none" stroke="#63b8ff" d="M1635.34,-253.29C1883.05,-245.22 2575.46,-219.73 2671.5,-184 2677.54,-181.75 2683.4,-178.01 2688.46,-174.1"/>
<polygon fill="#63b8ff" stroke="#63b8ff" points="2690.77,-176.73 2696.12,-167.59 2686.24,-171.4 2690.77,-176.73"/>
</a>
</g>
</g>
<!-- Node33 -->
<g id="Node000033" class="node">
<title>Node33</title>
<g id="a_Node000033"><a xlink:title=" ">
<polygon fill="#e0e0e0" stroke="#999999" points="2794,-167.5 2747,-167.5 2747,-148.5 2794,-148.5 2794,-167.5"/>
<text text-anchor="middle" x="2770.5" y="-155.5" font-family="Helvetica,sans-Serif" font-size="10.00">cmath</text>
</a>
</g>
</g>
<!-- Node1&#45;&gt;Node33 -->
<g id="edge50_Node000001_Node000033" class="edge">
<title>Node1&#45;&gt;Node33</title>
<g id="a_edge50_Node000001_Node000033"><a xlink:title=" ">
<path fill="none" stroke="#63b8ff" d="M1635.39,-253.62C1893.09,-246.23 2635.1,-221.89 2737.5,-184 2743.55,-181.76 2749.41,-178.03 2754.47,-174.11"/>
<polygon fill="#63b8ff" stroke="#63b8ff" points="2756.78,-176.74 2762.13,-167.6 2752.24,-171.41 2756.78,-176.74"/>
</a>
</g>
</g>
<!-- Node14&#45;&gt;Node2 -->
<g id="edge28_Node000014_Node000002" class="edge">
<title>Node14&#45;&gt;Node2</title>
<g id="a_edge28_Node000014_Node000002"><a xlink:title=" ">
<path fill="none" stroke="#63b8ff" d="M431.22,-134.81C333.77,-104.48 162.46,-51.16 87,-27.67"/>
<polygon fill="#63b8ff" stroke="#63b8ff" points="87.59,-24.19 77,-24.56 85.51,-30.87 87.59,-24.19"/>
</a>
</g>
</g>
<!-- Node15 -->
<g id="Node000015" class="node">
<title>Node15</title>
<g id="a_Node000015"><a xlink:href="configurator_8hpp.html" target="_top" xlink:title=" ">
<polygon fill="white" stroke="#666666" points="474.5,-96 322.5,-96 322.5,-66 474.5,-66 474.5,-96"/>
<text text-anchor="start" x="330.5" y="-84" font-family="Helvetica,sans-Serif" font-size="10.00">iii_drone_core/configuration</text>
<text text-anchor="middle" x="398.5" y="-73" font-family="Helvetica,sans-Serif" font-size="10.00">/configurator.hpp</text>
</a>
</g>
</g>
<!-- Node14&#45;&gt;Node15 -->
<g id="edge14_Node000014_Node000015" class="edge">
<title>Node14&#45;&gt;Node15</title>
<g id="a_edge14_Node000014_Node000015"><a xlink:title=" ">
<path fill="none" stroke="#63b8ff" d="M467.58,-131.82C454.16,-122.14 439.02,-111.22 426.35,-102.08"/>
<polygon fill="#63b8ff" stroke="#63b8ff" points="428.18,-99.09 418.02,-96.08 424.08,-104.76 428.18,-99.09"/>
</a>
</g>
</g>
<!-- Node23 -->
<g id="Node000023" class="node">
<title>Node23</title>
<g id="a_Node000023"><a xlink:title=" ">
<polygon fill="#e0e0e0" stroke="#999999" points="889.5,-24.5 831.5,-24.5 831.5,-5.5 889.5,-5.5 889.5,-24.5"/>
<text text-anchor="middle" x="860.5" y="-12.5" font-family="Helvetica,sans-Serif" font-size="10.00">memory</text>
</a>
</g>
</g>
<!-- Node14&#45;&gt;Node23 -->
<g id="edge29_Node000014_Node000023" class="edge">
<title>Node14&#45;&gt;Node23</title>
<g id="a_edge29_Node000014_Node000023"><a xlink:title=" ">
<path fill="none" stroke="#63b8ff" d="M500.1,-131.97C499.6,-111.22 502.66,-82.52 520.5,-66 570.09,-20.08 756.78,-45.79 822.5,-30 825.01,-29.4 827.59,-28.68 830.15,-27.89"/>
<polygon fill="#63b8ff" stroke="#63b8ff" points="831.52,-31.12 839.87,-24.6 829.27,-24.49 831.52,-31.12"/>
</a>
</g>
</g>
<!-- Node14&#45;&gt;Node25 -->
<g id="edge25_Node000014_Node000025" class="edge">
<title>Node14&#45;&gt;Node25</title>
<g id="a_edge25_Node000014_Node000025"><a xlink:title=" ">
<path fill="none" stroke="#63b8ff" d="M544.47,-131.82C561.07,-121.86 579.85,-110.59 595.34,-101.3"/>
<polygon fill="#63b8ff" stroke="#63b8ff" points="597.26,-104.22 604.04,-96.08 593.66,-98.22 597.26,-104.22"/>
</a>
</g>
</g>
<!-- Node15&#45;&gt;Node2 -->
<g id="edge16_Node000015_Node000002" class="edge">
<title>Node15&#45;&gt;Node2</title>
<g id="a_edge16_Node000015_Node000002"><a xlink:title=" ">
<path fill="none" stroke="#63b8ff" d="M322.24,-68.18C263.61,-58.78 180.7,-44.78 108.5,-30 103.72,-29.02 98.74,-27.94 93.79,-26.82"/>
<polygon fill="#63b8ff" stroke="#63b8ff" points="94.27,-23.34 83.74,-24.51 92.7,-30.16 94.27,-23.34"/>
</a>
</g>
</g>
<!-- Node16 -->
<g id="Node000016" class="node">
<title>Node16</title>
<g id="a_Node000016"><a xlink:title=" ">
<polygon fill="#e0e0e0" stroke="#999999" points="709.5,-30 559.5,-30 559.5,0 709.5,0 709.5,-30"/>
<text text-anchor="start" x="567.5" y="-18" font-family="Helvetica,sans-Serif" font-size="10.00">iii_drone_interfaces</text>
<text text-anchor="middle" x="634.5" y="-7" font-family="Helvetica,sans-Serif" font-size="10.00">/srv/declare_parameter.hpp</text>
</a>
</g>
</g>
<!-- Node15&#45;&gt;Node16 -->
<g id="edge15_Node000015_Node000016" class="edge">
<title>Node15&#45;&gt;Node16</title>
<g id="a_edge15_Node000015_Node000016"><a xlink:title=" ">
<path fill="none" stroke="#63b8ff" d="M450.29,-65.95C486.41,-56.16 534.77,-43.05 572.88,-32.71"/>
<polygon fill="#63b8ff" stroke="#63b8ff" points="574.09,-36.01 582.83,-30.01 572.26,-29.25 574.09,-36.01"/>
</a>
</g>
</g>
<!-- Node17 -->
<g id="Node000017" class="node">
<title>Node17</title>
<g id="a_Node000017"><a xlink:title=" ">
<polygon fill="#e0e0e0" stroke="#999999" points="305,-30 180,-30 180,0 305,0 305,-30"/>
<text text-anchor="start" x="188" y="-18" font-family="Helvetica,sans-Serif" font-size="10.00">rcl_interfaces/msg</text>
<text text-anchor="middle" x="242.5" y="-7" font-family="Helvetica,sans-Serif" font-size="10.00">/parameter_event.hpp</text>
</a>
</g>
</g>
<!-- Node15&#45;&gt;Node17 -->
<g id="edge17_Node000015_Node000017" class="edge">
<title>Node15&#45;&gt;Node17</title>
<g id="a_edge17_Node000015_Node000017"><a xlink:title=" ">
<path fill="none" stroke="#63b8ff" d="M364.27,-65.95C341.3,-56.53 310.86,-44.04 286.16,-33.91"/>
<polygon fill="#63b8ff" stroke="#63b8ff" points="287.24,-30.57 276.66,-30.01 284.58,-37.05 287.24,-30.57"/>
</a>
</g>
</g>
<!-- Node18 -->
<g id="Node000018" class="node">
<title>Node18</title>
<g id="a_Node000018"><a xlink:title=" ">
<polygon fill="#e0e0e0" stroke="#999999" points="473.5,-30 323.5,-30 323.5,0 473.5,0 473.5,-30"/>
<text text-anchor="start" x="331.5" y="-18" font-family="Helvetica,sans-Serif" font-size="10.00">rcl_interfaces/msg</text>
<text text-anchor="middle" x="398.5" y="-7" font-family="Helvetica,sans-Serif" font-size="10.00">/set_parameters_result.hpp</text>
</a>
</g>
</g>
<!-- Node15&#45;&gt;Node18 -->
<g id="edge18_Node000015_Node000018" class="edge">
<title>Node15&#45;&gt;Node18</title>
<g id="a_edge18_Node000015_Node000018"><a xlink:title=" ">
<path fill="none" stroke="#63b8ff" d="M398.5,-65.8C398.5,-58.34 398.5,-48.99 398.5,-40.41"/>
<polygon fill="#63b8ff" stroke="#63b8ff" points="402,-40.16 398.5,-30.16 395,-40.16 402,-40.16"/>
</a>
</g>
</g>
<!-- Node15&#45;&gt;Node19 -->
<g id="edge19_Node000015_Node000019" class="edge">
<title>Node15&#45;&gt;Node19</title>
<g id="a_edge19_Node000015_Node000019"><a xlink:title=" ">
<path fill="none" stroke="#63b8ff" d="M322.47,-67.44C277.63,-59.01 220.12,-46.45 170.5,-30 169.1,-29.54 167.68,-29.03 166.25,-28.49"/>
<polygon fill="#63b8ff" stroke="#63b8ff" points="167.53,-25.23 156.95,-24.65 164.85,-31.7 167.53,-25.23"/>
</a>
</g>
</g>
<!-- Node15&#45;&gt;Node20 -->
<g id="edge20_Node000015_Node000020" class="edge">
<title>Node15&#45;&gt;Node20</title>
<g id="a_edge20_Node000015_Node000020"><a xlink:title=" ">
<path fill="none" stroke="#63b8ff" d="M474.6,-70.87C489.8,-69.16 505.65,-67.45 520.5,-66 717.54,-46.71 767.53,-49.97 964.5,-30 991.79,-27.23 1022.65,-23.44 1045.52,-20.5"/>
<polygon fill="#63b8ff" stroke="#63b8ff" points="1046.28,-23.93 1055.74,-19.18 1045.38,-16.99 1046.28,-23.93"/>
</a>
</g>
</g>
<!-- Node15&#45;&gt;Node21 -->
<g id="edge21_Node000015_Node000021" class="edge">
<title>Node15&#45;&gt;Node21</title>
<g id="a_edge21_Node000015_Node000021"><a xlink:title=" ">
<path fill="none" stroke="#63b8ff" d="M474.62,-71.04C489.81,-69.31 505.66,-67.56 520.5,-66 688.34,-48.38 734.91,-71.44 898.5,-30 900.45,-29.51 902.42,-28.92 904.4,-28.26"/>
<polygon fill="#63b8ff" stroke="#63b8ff" points="905.94,-31.42 914.03,-24.58 903.44,-24.88 905.94,-31.42"/>
</a>
</g>
</g>
<!-- Node22 -->
<g id="Node000022" class="node">
<title>Node22</title>
<g id="a_Node000022"><a xlink:title=" ">
<polygon fill="#e0e0e0" stroke="#999999" points="813.5,-24.5 727.5,-24.5 727.5,-5.5 813.5,-5.5 813.5,-24.5"/>
<text text-anchor="middle" x="770.5" y="-12.5" font-family="Helvetica,sans-Serif" font-size="10.00">shared_mutex</text>
</a>
</g>
</g>
<!-- Node15&#45;&gt;Node22 -->
<g id="edge22_Node000015_Node000022" class="edge">
<title>Node15&#45;&gt;Node22</title>
<g id="a_edge22_Node000015_Node000022"><a xlink:title=" ">
<path fill="none" stroke="#63b8ff" d="M474.64,-68.15C568.33,-53.57 715.5,-30.64 718.5,-30 722.62,-29.13 726.89,-28.13 731.14,-27.08"/>
<polygon fill="#63b8ff" stroke="#63b8ff" points="732.12,-30.44 740.94,-24.55 730.38,-23.66 732.12,-30.44"/>
</a>
</g>
</g>
<!-- Node15&#45;&gt;Node23 -->
<g id="edge23_Node000015_Node000023" class="edge">
<title>Node15&#45;&gt;Node23</title>
<g id="a_edge23_Node000015_Node000023"><a xlink:title=" ">
<path fill="none" stroke="#63b8ff" d="M474.57,-67.91C479.28,-67.24 483.95,-66.6 488.5,-66 636.53,-46.52 677.13,-64.06 822.5,-30 825.02,-29.41 827.59,-28.7 830.16,-27.92"/>
<polygon fill="#63b8ff" stroke="#63b8ff" points="831.52,-31.16 839.88,-24.64 829.28,-24.52 831.52,-31.16"/>
</a>
</g>
</g>
<!-- Node24 -->
<g id="Node000024" class="node">
<title>Node24</title>
<g id="a_Node000024"><a xlink:title=" ">
<polygon fill="#e0e0e0" stroke="#999999" points="541.5,-24.5 491.5,-24.5 491.5,-5.5 541.5,-5.5 541.5,-24.5"/>
<text text-anchor="middle" x="516.5" y="-12.5" font-family="Helvetica,sans-Serif" font-size="10.00">atomic</text>
</a>
</g>
</g>
<!-- Node15&#45;&gt;Node24 -->
<g id="edge24_Node000015_Node000024" class="edge">
<title>Node15&#45;&gt;Node24</title>
<g id="a_edge24_Node000015_Node000024"><a xlink:title=" ">
<path fill="none" stroke="#63b8ff" d="M424.4,-65.95C444.45,-55.08 472.05,-40.11 491.8,-29.4"/>
<polygon fill="#63b8ff" stroke="#63b8ff" points="493.67,-32.36 500.8,-24.52 490.34,-26.21 493.67,-32.36"/>
</a>
</g>
</g>
<!-- Node25&#45;&gt;Node21 -->
<g id="edge27_Node000025_Node000021" class="edge">
<title>Node25&#45;&gt;Node21</title>
<g id="a_edge27_Node000025_Node000021"><a xlink:title=" ">
<path fill="none" stroke="#63b8ff" d="M725.3,-67.25C777.38,-59.13 842.14,-46.93 898.5,-30 900.18,-29.5 901.89,-28.93 903.6,-28.33"/>
<polygon fill="#63b8ff" stroke="#63b8ff" points="905.21,-31.46 913.26,-24.58 902.67,-24.94 905.21,-31.46"/>
</a>
</g>
</g>
<!-- Node25&#45;&gt;Node22 -->
<g id="edge26_Node000025_Node000022" class="edge">
<title>Node25&#45;&gt;Node22</title>
<g id="a_edge26_Node000025_Node000022"><a xlink:title=" ">
<path fill="none" stroke="#63b8ff" d="M658.88,-65.95C683.74,-54.83 718.16,-39.42 742.18,-28.67"/>
<polygon fill="#63b8ff" stroke="#63b8ff" points="743.77,-31.8 751.47,-24.52 740.91,-25.41 743.77,-31.8"/>
</a>
</g>
</g>
<!-- Node26&#45;&gt;Node8 -->
<g id="edge32_Node000026_Node000008" class="edge">
<title>Node26&#45;&gt;Node8</title>
<g id="a_edge32_Node000026_Node000008"><a xlink:title=" ">
<path fill="none" stroke="#63b8ff" d="M1047.11,-142.98C991.12,-128.55 905.03,-106.36 853.59,-93.11"/>
<polygon fill="#63b8ff" stroke="#63b8ff" points="854.34,-89.68 843.78,-90.58 852.59,-96.46 854.34,-89.68"/>
</a>
</g>
</g>
<!-- Node26&#45;&gt;Node9 -->
<g id="edge33_Node000026_Node000009" class="edge">
<title>Node26&#45;&gt;Node9</title>
<g id="a_edge33_Node000026_Node000009"><a xlink:title=" ">
<path fill="none" stroke="#63b8ff" d="M1073.85,-142.89C1047.04,-129.21 1006.67,-108.62 980.45,-95.24"/>
<polygon fill="#63b8ff" stroke="#63b8ff" points="981.98,-92.09 971.48,-90.66 978.79,-98.32 981.98,-92.09"/>
</a>
</g>
</g>
<!-- Node26&#45;&gt;Node10 -->
<g id="edge34_Node000026_Node000010" class="edge">
<title>Node26&#45;&gt;Node10</title>
<g id="a_edge34_Node000026_Node000010"><a xlink:title=" ">
<path fill="none" stroke="#63b8ff" d="M1114.1,-142.89C1125.4,-130.24 1141.99,-111.68 1153.87,-98.38"/>
<polygon fill="#63b8ff" stroke="#63b8ff" points="1156.52,-100.66 1160.57,-90.87 1151.3,-96 1156.52,-100.66"/>
</a>
</g>
</g>
<!-- Node26&#45;&gt;Node11 -->
<g id="edge35_Node000026_Node000011" class="edge">
<title>Node26&#45;&gt;Node11</title>
<g id="a_edge35_Node000026_Node000011"><a xlink:title=" ">
<path fill="none" stroke="#63b8ff" d="M1139.87,-142.89C1178.17,-128.81 1236.39,-107.41 1272.62,-94.09"/>
<polygon fill="#63b8ff" stroke="#63b8ff" points="1274.05,-97.29 1282.23,-90.56 1271.63,-90.72 1274.05,-97.29"/>
</a>
</g>
</g>
<!-- Node26&#45;&gt;Node12 -->
<g id="edge36_Node000026_Node000012" class="edge">
<title>Node26&#45;&gt;Node12</title>
<g id="a_edge36_Node000026_Node000012"><a xlink:title=" ">
<path fill="none" stroke="#63b8ff" d="M1164.22,-142.96C1219.15,-130.65 1301.14,-112.22 1372.5,-96 1377.09,-94.96 1381.88,-93.86 1386.66,-92.77"/>
<polygon fill="#63b8ff" stroke="#63b8ff" points="1387.44,-96.18 1396.41,-90.54 1385.88,-89.36 1387.44,-96.18"/>
</a>
</g>
</g>
<!-- Node26&#45;&gt;Node13 -->
<g id="edge37_Node000026_Node000013" class="edge">
<title>Node26&#45;&gt;Node13</title>
<g id="a_edge37_Node000026_Node000013"><a xlink:title=" ">
<path fill="none" stroke="#63b8ff" d="M1171.62,-146.13C1265.18,-131.64 1429.57,-106.16 1520.47,-92.08"/>
<polygon fill="#63b8ff" stroke="#63b8ff" points="1521.03,-95.53 1530.38,-90.54 1519.96,-88.61 1521.03,-95.53"/>
</a>
</g>
</g>
<!-- Node26&#45;&gt;Node20 -->
<g id="edge38_Node000026_Node000020" class="edge">
<title>Node26&#45;&gt;Node20</title>
<g id="a_edge38_Node000026_Node000020"><a xlink:title=" ">
<path fill="none" stroke="#63b8ff" d="M1099.31,-142.96C1095.32,-117.38 1086.86,-63.18 1082.4,-34.57"/>
<polygon fill="#63b8ff" stroke="#63b8ff" points="1085.85,-34 1080.85,-24.66 1078.93,-35.08 1085.85,-34"/>
</a>
</g>
</g>
<!-- Node26&#45;&gt;Node23 -->
<g id="edge39_Node000026_Node000023" class="edge">
<title>Node26&#45;&gt;Node23</title>
<g id="a_edge39_Node000026_Node000023"><a xlink:title=" ">
<path fill="none" stroke="#63b8ff" d="M1092.92,-142.73C1080.1,-122.63 1054.04,-86.18 1022.5,-66 974.16,-35.07 953.01,-47.93 898.5,-30 896.6,-29.37 894.65,-28.71 892.68,-28.03"/>
<polygon fill="#63b8ff" stroke="#63b8ff" points="893.51,-24.61 882.91,-24.55 891.16,-31.21 893.51,-24.61"/>
</a>
</g>
</g>
<!-- Node26&#45;&gt;Node25 -->
<g id="edge40_Node000026_Node000025" class="edge">
<title>Node26&#45;&gt;Node25</title>
<g id="a_edge40_Node000026_Node000025"><a xlink:title=" ">
<path fill="none" stroke="#63b8ff" d="M1031.3,-145.89C950.58,-133.12 817.47,-112.06 726.3,-97.63"/>
<polygon fill="#63b8ff" stroke="#63b8ff" points="726.66,-94.15 716.23,-96.04 725.56,-101.06 726.66,-94.15"/>
</a>
</g>
</g>
</g>
</svg>
