<?xml version="1.0" encoding="UTF-8" standalone="no"?>
<!DOCTYPE svg PUBLIC "-//W3C//DTD SVG 1.1//EN"
 "http://www.w3.org/Graphics/SVG/1.1/DTD/svg11.dtd">
<!-- Generated by graphviz version 2.43.0 (0)
 -->
<!-- Title: /home/ffn/Workspace/ros2_humble_ws/src/III&#45;Drone&#45;Core/src/perception/hough_transformer_node/hough_transformer_node_configurator.cpp Pages: 1 -->
<!--zoomable 291 -->

<svg id="main" version="1.1" xmlns="http://www.w3.org/2000/svg" xmlns:xlink="http://www.w3.org/1999/xlink" xml:space="preserve" onload="init(evt)">
<style type="text/css"><![CDATA[
.node, .edge {opacity: 0.7;}
.node.selected, .edge.selected {opacity: 1;}
.edge:hover path { stroke: red; }
.edge:hover polygon { stroke: red; fill: red; }
]]></style>

<defs>
  <circle id="rim" cx="0" cy="0" r="7"/>
  <circle id="rim2" cx="0" cy="0" r="3.5"/>
  <g id="zoomPlus">
    <use xlink:href="#rim" fill="#404040"><set attributeName="fill" to="#808080" begin="zoomplus.mouseover" end="zoomplus.mouseout"/></use>
    <path d="M-4,0h8M0,-4v8" fill="none" stroke="white" stroke-width="1.5" pointer-events="none"/>
  </g>
  <g id="zoomMin">
    <use xlink:href="#rim" fill="#404040"><set attributeName="fill" to="#808080" begin="zoomminus.mouseover" end="zoomminus.mouseout"/></use>
    <path d="M-4,0h8" fill="none" stroke="white" stroke-width="1.5" pointer-events="none"/>
  </g>
  <g id="arrowUp" transform="translate(30 24)">
    <use xlink:href="#rim"/>
    <path pointer-events="none" fill="none" stroke="white" stroke-width="1.5" d="M0,-3.0v7 M-2.5,-0.5L0,-3.0L2.5,-0.5"/>
  </g>
  <g id="arrowRight" transform="rotate(90) translate(36 -43)">
    <use xlink:href="#rim"/>
    <path pointer-events="none" fill="none" stroke="white" stroke-width="1.5" d="M0,-3.0v7 M-2.5,-0.5L0,-3.0L2.5,-0.5"/>
  </g>
  <g id="arrowDown" transform="rotate(180) translate(-30 -48)">
    <use xlink:href="#rim"/>
    <path pointer-events="none" fill="none" stroke="white" stroke-width="1.5" d="M0,-3.0v7 M-2.5,-0.5L0,-3.0L2.5,-0.5"/>
  </g>
  <g id="arrowLeft" transform="rotate(270) translate(-36 17)">
    <use xlink:href="#rim"/>
    <path pointer-events="none" fill="none" stroke="white" stroke-width="1.5" d="M0,-3.0v7 M-2.5,-0.5L0,-3.0L2.5,-0.5"/>
  </g>
  <g id="resetDef">
    <use xlink:href="#rim2" fill="#404040"><set attributeName="fill" to="#808080" begin="reset.mouseover" end="reset.mouseout"/></use>
  </g>
</defs>
<script type="application/ecmascript">
var viewWidth = 1029;
var viewHeight = 291;
var sectionId = 'dynsection-0';
</script>
<script type="application/ecmascript" xlink:href="svg.min.js"/>
<svg id="graph" class="graph">
<g id="viewport">
<title>/home/ffn/Workspace/ros2_humble_ws/src/III&#45;Drone&#45;Core/src/perception/hough_transformer_node/hough_transformer_node_configurator.cpp</title>
<!-- Node1 -->
<g id="Node000001" class="node">
<title>Node1</title>
<g id="a_Node000001"><a xlink:title=" ">
<polygon fill="#999999" stroke="#666666" points="887.5,-283 695.5,-283 695.5,-220 887.5,-220 887.5,-283"/>
<text text-anchor="start" x="703.5" y="-271" font-family="Helvetica,sans-Serif" font-size="10.00">/home/ffn/Workspace</text>
<text text-anchor="start" x="703.5" y="-260" font-family="Helvetica,sans-Serif" font-size="10.00">/ros2_humble_ws/src</text>
<text text-anchor="start" x="703.5" y="-249" font-family="Helvetica,sans-Serif" font-size="10.00">/III&#45;Drone&#45;Core/src/perception</text>
<text text-anchor="start" x="703.5" y="-238" font-family="Helvetica,sans-Serif" font-size="10.00">/hough_transformer_node/hough</text>
<text text-anchor="middle" x="791.5" y="-227" font-family="Helvetica,sans-Serif" font-size="10.00">_transformer_node_configurator.cpp</text>
</a>
</g>
</g>
<!-- Node2 -->
<g id="Node000002" class="node">
<title>Node2</title>
<g id="a_Node000002"><a xlink:href="hough__transformer__node__configurator_8hpp.html" target="_top" xlink:title=" ">
<polygon fill="white" stroke="#666666" points="803.5,-184 661.5,-184 661.5,-132 803.5,-132 803.5,-184"/>
<text text-anchor="start" x="669.5" y="-172" font-family="Helvetica,sans-Serif" font-size="10.00">iii_drone_core/perception</text>
<text text-anchor="start" x="669.5" y="-161" font-family="Helvetica,sans-Serif" font-size="10.00">/hough_transformer_node</text>
<text text-anchor="start" x="669.5" y="-150" font-family="Helvetica,sans-Serif" font-size="10.00">/hough_transformer_node</text>
<text text-anchor="middle" x="732.5" y="-139" font-family="Helvetica,sans-Serif" font-size="10.00">_configurator.hpp</text>
</a>
</g>
</g>
<!-- Node1&#45;&gt;Node2 -->
<g id="edge1_Node000001_Node000002" class="edge">
<title>Node1&#45;&gt;Node2</title>
<g id="a_edge1_Node000001_Node000002"><a xlink:title=" ">
<path fill="none" stroke="#63b8ff" d="M771.69,-219.78C766.07,-211.06 759.91,-201.51 754.18,-192.63"/>
<polygon fill="#63b8ff" stroke="#63b8ff" points="756.99,-190.53 748.63,-184.02 751.11,-194.32 756.99,-190.53"/>
</a>
</g>
</g>
<!-- Node15 -->
<g id="Node000015" class="node">
<title>Node15</title>
<g id="a_Node000015"><a xlink:title=" ">
<polygon fill="#e0e0e0" stroke="#999999" points="881.5,-167.5 821.5,-167.5 821.5,-148.5 881.5,-148.5 881.5,-167.5"/>
<text text-anchor="middle" x="851.5" y="-155.5" font-family="Helvetica,sans-Serif" font-size="10.00">iostream</text>
</a>
</g>
</g>
<!-- Node1&#45;&gt;Node15 -->
<g id="edge18_Node000001_Node000015" class="edge">
<title>Node1&#45;&gt;Node15</title>
<g id="a_edge18_Node000001_Node000015"><a xlink:title=" ">
<path fill="none" stroke="#63b8ff" d="M811.65,-219.78C821.2,-205.21 832.24,-188.37 840.28,-176.11"/>
<polygon fill="#63b8ff" stroke="#63b8ff" points="843.21,-178.02 845.77,-167.74 837.36,-174.19 843.21,-178.02"/>
</a>
</g>
</g>
<!-- Node3 -->
<g id="Node000003" class="node">
<title>Node3</title>
<g id="a_Node000003"><a xlink:href="configurator_8hpp.html" target="_top" xlink:title=" ">
<polygon fill="white" stroke="#666666" points="712.5,-96 560.5,-96 560.5,-66 712.5,-66 712.5,-96"/>
<text text-anchor="start" x="568.5" y="-84" font-family="Helvetica,sans-Serif" font-size="10.00">iii_drone_core/configuration</text>
<text text-anchor="middle" x="636.5" y="-73" font-family="Helvetica,sans-Serif" font-size="10.00">/configurator.hpp</text>
</a>
</g>
</g>
<!-- Node2&#45;&gt;Node3 -->
<g id="edge2_Node000002_Node000003" class="edge">
<title>Node2&#45;&gt;Node3</title>
<g id="a_edge2_Node000002_Node000003"><a xlink:title=" ">
<path fill="none" stroke="#63b8ff" d="M700.27,-131.82C687.99,-122.23 674.17,-111.43 662.54,-102.35"/>
<polygon fill="#63b8ff" stroke="#63b8ff" points="664.55,-99.48 654.52,-96.08 660.24,-104.99 664.55,-99.48"/>
</a>
</g>
</g>
<!-- Node5 -->
<g id="Node000005" class="node">
<title>Node5</title>
<g id="a_Node000005"><a xlink:title=" ">
<polygon fill="#e0e0e0" stroke="#999999" points="99,-24.5 0,-24.5 0,-5.5 99,-5.5 99,-24.5"/>
<text text-anchor="middle" x="49.5" y="-12.5" font-family="Helvetica,sans-Serif" font-size="10.00">rclcpp/rclcpp.hpp</text>
</a>
</g>
</g>
<!-- Node2&#45;&gt;Node5 -->
<g id="edge16_Node000002_Node000005" class="edge">
<title>Node2&#45;&gt;Node5</title>
<g id="a_edge16_Node000002_Node000005"><a xlink:title=" ">
<path fill="none" stroke="#63b8ff" d="M661.22,-143.27C545.16,-120.74 308.23,-74.01 108.5,-30 104.04,-29.02 99.4,-27.97 94.77,-26.9"/>
<polygon fill="#63b8ff" stroke="#63b8ff" points="95.25,-23.42 84.71,-24.55 93.65,-30.23 95.25,-23.42"/>
</a>
</g>
</g>
<!-- Node12 -->
<g id="Node000012" class="node">
<title>Node12</title>
<g id="a_Node000012"><a xlink:title=" ">
<polygon fill="#e0e0e0" stroke="#999999" points="1020.5,-24.5 962.5,-24.5 962.5,-5.5 1020.5,-5.5 1020.5,-24.5"/>
<text text-anchor="middle" x="991.5" y="-12.5" font-family="Helvetica,sans-Serif" font-size="10.00">memory</text>
</a>
</g>
</g>
<!-- Node2&#45;&gt;Node12 -->
<g id="edge17_Node000002_Node000012" class="edge">
<title>Node2&#45;&gt;Node12</title>
<g id="a_edge17_Node000002_Node000012"><a xlink:title=" ">
<path fill="none" stroke="#63b8ff" d="M803.58,-134.72C806.59,-133.8 809.58,-132.89 812.5,-132 866.59,-115.57 888.47,-128.82 934.5,-96 957,-79.96 973.85,-52.19 983.19,-33.95"/>
<polygon fill="#63b8ff" stroke="#63b8ff" points="986.35,-35.46 987.59,-24.94 980.06,-32.38 986.35,-35.46"/>
</a>
</g>
</g>
<!-- Node14 -->
<g id="Node000014" class="node">
<title>Node14</title>
<g id="a_Node000014"><a xlink:href="hough__transformer__parameters_8hpp.html" target="_top" xlink:title=" ">
<polygon fill="white" stroke="#666666" points="926,-96 731,-96 731,-66 926,-66 926,-96"/>
<text text-anchor="start" x="739" y="-84" font-family="Helvetica,sans-Serif" font-size="10.00">iii_drone_core/perception</text>
<text text-anchor="middle" x="828.5" y="-73" font-family="Helvetica,sans-Serif" font-size="10.00">/hough_transformer_parameters.hpp</text>
</a>
</g>
</g>
<!-- Node2&#45;&gt;Node14 -->
<g id="edge13_Node000002_Node000014" class="edge">
<title>Node2&#45;&gt;Node14</title>
<g id="a_edge13_Node000002_Node000014"><a xlink:title=" ">
<path fill="none" stroke="#63b8ff" d="M764.73,-131.82C777.01,-122.23 790.83,-111.43 802.46,-102.35"/>
<polygon fill="#63b8ff" stroke="#63b8ff" points="804.76,-104.99 810.48,-96.08 800.45,-99.48 804.76,-104.99"/>
</a>
</g>
</g>
<!-- Node4 -->
<g id="Node000004" class="node">
<title>Node4</title>
<g id="a_Node000004"><a xlink:title=" ">
<polygon fill="#e0e0e0" stroke="#999999" points="267.5,-30 117.5,-30 117.5,0 267.5,0 267.5,-30"/>
<text text-anchor="start" x="125.5" y="-18" font-family="Helvetica,sans-Serif" font-size="10.00">iii_drone_interfaces</text>
<text text-anchor="middle" x="192.5" y="-7" font-family="Helvetica,sans-Serif" font-size="10.00">/srv/declare_parameter.hpp</text>
</a>
</g>
</g>
<!-- Node3&#45;&gt;Node4 -->
<g id="edge3_Node000003_Node000004" class="edge">
<title>Node3&#45;&gt;Node4</title>
<g id="a_edge3_Node000003_Node000004"><a xlink:title=" ">
<path fill="none" stroke="#63b8ff" d="M560.34,-70.12C489.5,-60.77 380.74,-46.03 277.55,-30.29"/>
<polygon fill="#63b8ff" stroke="#63b8ff" points="278,-26.82 267.59,-28.77 276.94,-33.74 278,-26.82"/>
</a>
</g>
</g>
<!-- Node3&#45;&gt;Node5 -->
<g id="edge4_Node000003_Node000005" class="edge">
<title>Node3&#45;&gt;Node5</title>
<g id="a_edge4_Node000003_Node000005"><a xlink:title=" ">
<path fill="none" stroke="#63b8ff" d="M560.44,-76.11C457.45,-70.1 268.16,-56.37 108.5,-30 103.05,-29.1 97.35,-27.98 91.74,-26.77"/>
<polygon fill="#63b8ff" stroke="#63b8ff" points="92.32,-23.31 81.8,-24.52 90.78,-30.14 92.32,-23.31"/>
</a>
</g>
</g>
<!-- Node6 -->
<g id="Node000006" class="node">
<title>Node6</title>
<g id="a_Node000006"><a xlink:title=" ">
<polygon fill="#e0e0e0" stroke="#999999" points="410,-30 285,-30 285,0 410,0 410,-30"/>
<text text-anchor="start" x="293" y="-18" font-family="Helvetica,sans-Serif" font-size="10.00">rcl_interfaces/msg</text>
<text text-anchor="middle" x="347.5" y="-7" font-family="Helvetica,sans-Serif" font-size="10.00">/parameter_event.hpp</text>
</a>
</g>
</g>
<!-- Node3&#45;&gt;Node6 -->
<g id="edge5_Node000003_Node000006" class="edge">
<title>Node3&#45;&gt;Node6</title>
<g id="a_edge5_Node000003_Node000006"><a xlink:title=" ">
<path fill="none" stroke="#63b8ff" d="M573.08,-65.95C527.94,-55.96 467.19,-42.51 420.11,-32.08"/>
<polygon fill="#63b8ff" stroke="#63b8ff" points="420.8,-28.65 410.28,-29.9 419.28,-35.48 420.8,-28.65"/>
</a>
</g>
</g>
<!-- Node7 -->
<g id="Node000007" class="node">
<title>Node7</title>
<g id="a_Node000007"><a xlink:title=" ">
<polygon fill="#e0e0e0" stroke="#999999" points="578.5,-30 428.5,-30 428.5,0 578.5,0 578.5,-30"/>
<text text-anchor="start" x="436.5" y="-18" font-family="Helvetica,sans-Serif" font-size="10.00">rcl_interfaces/msg</text>
<text text-anchor="middle" x="503.5" y="-7" font-family="Helvetica,sans-Serif" font-size="10.00">/set_parameters_result.hpp</text>
</a>
</g>
</g>
<!-- Node3&#45;&gt;Node7 -->
<g id="edge6_Node000003_Node000007" class="edge">
<title>Node3&#45;&gt;Node7</title>
<g id="a_edge6_Node000003_Node000007"><a xlink:title=" ">
<path fill="none" stroke="#63b8ff" d="M607.31,-65.95C588.08,-56.7 562.7,-44.49 541.84,-34.45"/>
<polygon fill="#63b8ff" stroke="#63b8ff" points="543.15,-31.19 532.62,-30.01 540.11,-37.5 543.15,-31.19"/>
</a>
</g>
</g>
<!-- Node8 -->
<g id="Node000008" class="node">
<title>Node8</title>
<g id="a_Node000008"><a xlink:title=" ">
<polygon fill="#e0e0e0" stroke="#999999" points="640.5,-24.5 596.5,-24.5 596.5,-5.5 640.5,-5.5 640.5,-24.5"/>
<text text-anchor="middle" x="618.5" y="-12.5" font-family="Helvetica,sans-Serif" font-size="10.00">string</text>
</a>
</g>
</g>
<!-- Node3&#45;&gt;Node8 -->
<g id="edge7_Node000003_Node000008" class="edge">
<title>Node3&#45;&gt;Node8</title>
<g id="a_edge7_Node000003_Node000008"><a xlink:title=" ">
<path fill="none" stroke="#63b8ff" d="M632.51,-65.8C629.92,-56.6 626.52,-44.53 623.73,-34.58"/>
<polygon fill="#63b8ff" stroke="#63b8ff" points="627.06,-33.52 620.99,-24.84 620.33,-35.42 627.06,-33.52"/>
</a>
</g>
</g>
<!-- Node9 -->
<g id="Node000009" class="node">
<title>Node9</title>
<g id="a_Node000009"><a xlink:title=" ">
<polygon fill="#e0e0e0" stroke="#999999" points="706,-24.5 659,-24.5 659,-5.5 706,-5.5 706,-24.5"/>
<text text-anchor="middle" x="682.5" y="-12.5" font-family="Helvetica,sans-Serif" font-size="10.00">vector</text>
</a>
</g>
</g>
<!-- Node3&#45;&gt;Node9 -->
<g id="edge8_Node000003_Node000009" class="edge">
<title>Node3&#45;&gt;Node9</title>
<g id="a_edge8_Node000003_Node000009"><a xlink:title=" ">
<path fill="none" stroke="#63b8ff" d="M646.71,-65.8C653.67,-56.11 662.92,-43.24 670.27,-33.01"/>
<polygon fill="#63b8ff" stroke="#63b8ff" points="673.15,-35.01 676.14,-24.84 667.46,-30.92 673.15,-35.01"/>
</a>
</g>
</g>
<!-- Node10 -->
<g id="Node000010" class="node">
<title>Node10</title>
<g id="a_Node000010"><a xlink:title=" ">
<polygon fill="#e0e0e0" stroke="#999999" points="840.5,-24.5 792.5,-24.5 792.5,-5.5 840.5,-5.5 840.5,-24.5"/>
<text text-anchor="middle" x="816.5" y="-12.5" font-family="Helvetica,sans-Serif" font-size="10.00">mutex</text>
</a>
</g>
</g>
<!-- Node3&#45;&gt;Node10 -->
<g id="edge9_Node000003_Node000010" class="edge">
<title>Node3&#45;&gt;Node10</title>
<g id="a_edge9_Node000003_Node000010"><a xlink:title=" ">
<path fill="none" stroke="#63b8ff" d="M680.54,-65.96C709.9,-56.36 749.25,-43.07 783.5,-30 784.88,-29.47 786.29,-28.92 787.71,-28.36"/>
<polygon fill="#63b8ff" stroke="#63b8ff" points="789.13,-31.56 797.05,-24.53 786.47,-25.08 789.13,-31.56"/>
</a>
</g>
</g>
<!-- Node11 -->
<g id="Node000011" class="node">
<title>Node11</title>
<g id="a_Node000011"><a xlink:title=" ">
<polygon fill="#e0e0e0" stroke="#999999" points="944.5,-24.5 858.5,-24.5 858.5,-5.5 944.5,-5.5 944.5,-24.5"/>
<text text-anchor="middle" x="901.5" y="-12.5" font-family="Helvetica,sans-Serif" font-size="10.00">shared_mutex</text>
</a>
</g>
</g>
<!-- Node3&#45;&gt;Node11 -->
<g id="edge10_Node000003_Node000011" class="edge">
<title>Node3&#45;&gt;Node11</title>
<g id="a_edge10_Node000003_Node000011"><a xlink:title=" ">
<path fill="none" stroke="#63b8ff" d="M698.61,-65.98C741.17,-56.24 798.85,-42.76 849.5,-30 853.11,-29.09 856.86,-28.12 860.61,-27.14"/>
<polygon fill="#63b8ff" stroke="#63b8ff" points="861.7,-30.47 870.47,-24.53 859.91,-23.71 861.7,-30.47"/>
</a>
</g>
</g>
<!-- Node3&#45;&gt;Node12 -->
<g id="edge11_Node000003_Node000012" class="edge">
<title>Node3&#45;&gt;Node12</title>
<g id="a_edge11_Node000003_Node000012"><a xlink:title=" ">
<path fill="none" stroke="#63b8ff" d="M712.95,-67.37C715.84,-66.91 718.69,-66.45 721.5,-66 824.54,-49.52 852.49,-56.17 953.5,-30 955.94,-29.37 958.45,-28.64 960.95,-27.85"/>
<polygon fill="#63b8ff" stroke="#63b8ff" points="962.1,-31.15 970.43,-24.61 959.84,-24.53 962.1,-31.15"/>
</a>
</g>
</g>
<!-- Node13 -->
<g id="Node000013" class="node">
<title>Node13</title>
<g id="a_Node000013"><a xlink:title=" ">
<polygon fill="#e0e0e0" stroke="#999999" points="774.5,-24.5 724.5,-24.5 724.5,-5.5 774.5,-5.5 774.5,-24.5"/>
<text text-anchor="middle" x="749.5" y="-12.5" font-family="Helvetica,sans-Serif" font-size="10.00">atomic</text>
</a>
</g>
</g>
<!-- Node3&#45;&gt;Node13 -->
<g id="edge12_Node000003_Node000013" class="edge">
<title>Node3&#45;&gt;Node13</title>
<g id="a_edge12_Node000003_Node000013"><a xlink:title=" ">
<path fill="none" stroke="#63b8ff" d="M661.3,-65.95C680.42,-55.13 706.7,-40.24 725.59,-29.54"/>
<polygon fill="#63b8ff" stroke="#63b8ff" points="727.49,-32.49 734.46,-24.52 724.04,-26.4 727.49,-32.49"/>
</a>
</g>
</g>
<!-- Node14&#45;&gt;Node10 -->
<g id="edge15_Node000014_Node000010" class="edge">
<title>Node14&#45;&gt;Node10</title>
<g id="a_edge15_Node000014_Node000010"><a xlink:title=" ">
<path fill="none" stroke="#63b8ff" d="M825.84,-65.8C824.13,-56.7 821.9,-44.79 820.04,-34.9"/>
<polygon fill="#63b8ff" stroke="#63b8ff" points="823.44,-34.03 818.16,-24.84 816.56,-35.32 823.44,-34.03"/>
</a>
</g>
</g>
<!-- Node14&#45;&gt;Node11 -->
<g id="edge14_Node000014_Node000011" class="edge">
<title>Node14&#45;&gt;Node11</title>
<g id="a_edge14_Node000014_Node000011"><a xlink:title=" ">
<path fill="none" stroke="#63b8ff" d="M844.7,-65.8C856.3,-55.62 871.92,-41.93 883.84,-31.48"/>
<polygon fill="#63b8ff" stroke="#63b8ff" points="886.2,-34.07 891.41,-24.84 881.59,-28.8 886.2,-34.07"/>
</a>
</g>
</g>
</g>
</svg>

<g id="navigator" transform="translate(0 0)" fill="#404254">
  <rect fill="#f2f5e9" fill-opacity="0.5" stroke="#606060" stroke-width=".5" x="0" y="0" width="60" height="60"/>
  <use id="zoomplus" xlink:href="#zoomPlus" x="17" y="9" onmousedown="handleZoom(evt,'in')"/>
  <use id="zoomminus" xlink:href="#zoomMin" x="42" y="9" onmousedown="handleZoom(evt,'out')"/>
  <use id="reset" xlink:href="#resetDef" x="30" y="36" onmousedown="handleReset()"/>
   <use id="arrowup" xlink:href="#arrowUp" x="0" y="0" onmousedown="handlePan(0,-1)"/>
  <use id="arrowright" xlink:href="#arrowRight" x="0" y="0" onmousedown="handlePan(1,0)"/>
  <use id="arrowdown" xlink:href="#arrowDown" x="0" y="0" onmousedown="handlePan(0,1)"/>
  <use id="arrowleft" xlink:href="#arrowLeft" x="0" y="0" onmousedown="handlePan(-1,0)"/>
</g>
<svg viewBox="0 0 15 15" width="100%" height="30px" preserveAspectRatio="xMaxYMin meet">
 <g id="arrow_out" transform="scale(0.3 0.3)">
  <a xlink:href="hough__transformer__node__configurator_8cpp__incl_org.svg" target="_base">
   <rect id="button" ry="5" rx="5" y="6" x="6" height="38" width="38"
        fill="#f2f5e9" fill-opacity="0.5" stroke="#606060" stroke-width="1.0"/>
   <path id="arrow"
     d="M 11.500037,31.436501 C 11.940474,20.09759 22.043105,11.32322 32.158766,21.979434 L 37.068811,17.246167 C 37.068811,17.246167 37.088388,32 37.088388,32 L 22.160133,31.978069 C 22.160133,31.978069 26.997745,27.140456 26.997745,27.140456 C 18.528582,18.264221 13.291696,25.230495 11.500037,31.436501 z"
     style="fill:#404040;"/>
  </a>
 </g>
</svg>

<style type='text/css'>
<![CDATA[
[data-mouse-over-selected='false'] { opacity: 0.7; }
[data-mouse-over-selected='true']  { opacity: 1.0; }
]]>
</style>
<script type="application/ecmascript"><![CDATA[
document.addEventListener('DOMContentLoaded', (event) => {
  highlightEdges();
  highlightAdjacentNodes();
});
]]></script>
</svg>
