<?xml version="1.0" encoding="UTF-8" standalone="no"?>
<!DOCTYPE svg PUBLIC "-//W3C//DTD SVG 1.1//EN"
 "http://www.w3.org/Graphics/SVG/1.1/DTD/svg11.dtd">
<!-- Generated by graphviz version 2.43.0 (0)
 -->
<!-- Title: /home/ffn/Workspace/ros2_humble_ws/src/III&#45;Drone&#45;Core/include/iii_drone_core/perception/hough_transformer_node/hough_transformer_node_configurator.hpp Pages: 1 -->
<svg width="1029pt" height="214pt"
 viewBox="0.00 0.00 1028.50 214.00" xmlns="http://www.w3.org/2000/svg" xmlns:xlink="http://www.w3.org/1999/xlink">
<g id="graph0" class="graph" transform="scale(1 1) rotate(0) translate(4 210)">
<title>/home/ffn/Workspace/ros2_humble_ws/src/III&#45;Drone&#45;Core/include/iii_drone_core/perception/hough_transformer_node/hough_transformer_node_configurator.hpp</title>
<!-- Node1 -->
<g id="Node000001" class="node">
<title>Node1</title>
<g id="a_Node000001"><a xlink:title=" ">
<polygon fill="#999999" stroke="#666666" points="829,-206 636,-206 636,-132 829,-132 829,-206"/>
<text text-anchor="start" x="644" y="-194" font-family="Helvetica,sans-Serif" font-size="10.00">/home/ffn/Workspace</text>
<text text-anchor="start" x="644" y="-183" font-family="Helvetica,sans-Serif" font-size="10.00">/ros2_humble_ws/src</text>
<text text-anchor="start" x="644" y="-172" font-family="Helvetica,sans-Serif" font-size="10.00">/III&#45;Drone&#45;Core/include</text>
<text text-anchor="start" x="644" y="-161" font-family="Helvetica,sans-Serif" font-size="10.00">/iii_drone_core/perception</text>
<text text-anchor="start" x="644" y="-150" font-family="Helvetica,sans-Serif" font-size="10.00">/hough_transformer_node/hough</text>
<text text-anchor="middle" x="732.5" y="-139" font-family="Helvetica,sans-Serif" font-size="10.00">_transformer_node_configurator.hpp</text>
</a>
</g>
</g>
<!-- Node2 -->
<g id="Node000002" class="node">
<title>Node2</title>
<g id="a_Node000002"><a xlink:href="configurator_8hpp.html" target="_top" xlink:title=" ">
<polygon fill="white" stroke="#666666" points="712.5,-96 560.5,-96 560.5,-66 712.5,-66 712.5,-96"/>
<text text-anchor="start" x="568.5" y="-84" font-family="Helvetica,sans-Serif" font-size="10.00">iii_drone_core/configuration</text>
<text text-anchor="middle" x="636.5" y="-73" font-family="Helvetica,sans-Serif" font-size="10.00">/configurator.hpp</text>
</a>
</g>
</g>
<!-- Node1&#45;&gt;Node2 -->
<g id="edge1_Node000001_Node000002" class="edge">
<title>Node1&#45;&gt;Node2</title>
<g id="a_edge1_Node000001_Node000002"><a xlink:title=" ">
<path fill="none" stroke="#63b8ff" d="M692.07,-131.78C681.18,-122.02 669.75,-111.79 660.12,-103.16"/>
<polygon fill="#63b8ff" stroke="#63b8ff" points="662.28,-100.39 652.49,-96.33 657.61,-105.61 662.28,-100.39"/>
</a>
</g>
</g>
<!-- Node4 -->
<g id="Node000004" class="node">
<title>Node4</title>
<g id="a_Node000004"><a xlink:title=" ">
<polygon fill="#e0e0e0" stroke="#999999" points="99,-24.5 0,-24.5 0,-5.5 99,-5.5 99,-24.5"/>
<text text-anchor="middle" x="49.5" y="-12.5" font-family="Helvetica,sans-Serif" font-size="10.00">rclcpp/rclcpp.hpp</text>
</a>
</g>
</g>
<!-- Node1&#45;&gt;Node4 -->
<g id="edge15_Node000001_Node000004" class="edge">
<title>Node1&#45;&gt;Node4</title>
<g id="a_edge15_Node000001_Node000004"><a xlink:title=" ">
<path fill="none" stroke="#63b8ff" d="M635.92,-147.12C513.2,-120.48 294.92,-72.73 108.5,-30 104.11,-28.99 99.54,-27.93 94.97,-26.86"/>
<polygon fill="#63b8ff" stroke="#63b8ff" points="95.58,-23.41 85.05,-24.53 93.98,-30.23 95.58,-23.41"/>
</a>
</g>
</g>
<!-- Node11 -->
<g id="Node000011" class="node">
<title>Node11</title>
<g id="a_Node000011"><a xlink:title=" ">
<polygon fill="#e0e0e0" stroke="#999999" points="1020.5,-24.5 962.5,-24.5 962.5,-5.5 1020.5,-5.5 1020.5,-24.5"/>
<text text-anchor="middle" x="991.5" y="-12.5" font-family="Helvetica,sans-Serif" font-size="10.00">memory</text>
</a>
</g>
</g>
<!-- Node1&#45;&gt;Node11 -->
<g id="edge16_Node000001_Node000011" class="edge">
<title>Node1&#45;&gt;Node11</title>
<g id="a_edge16_Node000001_Node000011"><a xlink:title=" ">
<path fill="none" stroke="#63b8ff" d="M829.16,-146.6C864.66,-135.52 903.68,-119.29 934.5,-96 956.44,-79.42 973.36,-51.99 982.87,-33.95"/>
<polygon fill="#63b8ff" stroke="#63b8ff" points="986.11,-35.3 987.49,-24.8 979.86,-32.15 986.11,-35.3"/>
</a>
</g>
</g>
<!-- Node13 -->
<g id="Node000013" class="node">
<title>Node13</title>
<g id="a_Node000013"><a xlink:href="hough__transformer__parameters_8hpp.html" target="_top" xlink:title=" ">
<polygon fill="white" stroke="#666666" points="926,-96 731,-96 731,-66 926,-66 926,-96"/>
<text text-anchor="start" x="739" y="-84" font-family="Helvetica,sans-Serif" font-size="10.00">iii_drone_core/perception</text>
<text text-anchor="middle" x="828.5" y="-73" font-family="Helvetica,sans-Serif" font-size="10.00">/hough_transformer_parameters.hpp</text>
</a>
</g>
</g>
<!-- Node1&#45;&gt;Node13 -->
<g id="edge12_Node000001_Node000013" class="edge">
<title>Node1&#45;&gt;Node13</title>
<g id="a_edge12_Node000001_Node000013"><a xlink:title=" ">
<path fill="none" stroke="#63b8ff" d="M772.93,-131.78C783.82,-122.02 795.25,-111.79 804.88,-103.16"/>
<polygon fill="#63b8ff" stroke="#63b8ff" points="807.39,-105.61 812.51,-96.33 802.72,-100.39 807.39,-105.61"/>
</a>
</g>
</g>
<!-- Node3 -->
<g id="Node000003" class="node">
<title>Node3</title>
<g id="a_Node000003"><a xlink:title=" ">
<polygon fill="#e0e0e0" stroke="#999999" points="267.5,-30 117.5,-30 117.5,0 267.5,0 267.5,-30"/>
<text text-anchor="start" x="125.5" y="-18" font-family="Helvetica,sans-Serif" font-size="10.00">iii_drone_interfaces</text>
<text text-anchor="middle" x="192.5" y="-7" font-family="Helvetica,sans-Serif" font-size="10.00">/srv/declare_parameter.hpp</text>
</a>
</g>
</g>
<!-- Node2&#45;&gt;Node3 -->
<g id="edge2_Node000002_Node000003" class="edge">
<title>Node2&#45;&gt;Node3</title>
<g id="a_edge2_Node000002_Node000003"><a xlink:title=" ">
<path fill="none" stroke="#63b8ff" d="M560.34,-70.12C489.5,-60.77 380.74,-46.03 277.55,-30.29"/>
<polygon fill="#63b8ff" stroke="#63b8ff" points="278,-26.82 267.59,-28.77 276.94,-33.74 278,-26.82"/>
</a>
</g>
</g>
<!-- Node2&#45;&gt;Node4 -->
<g id="edge3_Node000002_Node000004" class="edge">
<title>Node2&#45;&gt;Node4</title>
<g id="a_edge3_Node000002_Node000004"><a xlink:title=" ">
<path fill="none" stroke="#63b8ff" d="M560.44,-76.11C457.45,-70.1 268.16,-56.37 108.5,-30 103.05,-29.1 97.35,-27.98 91.74,-26.77"/>
<polygon fill="#63b8ff" stroke="#63b8ff" points="92.32,-23.31 81.8,-24.52 90.78,-30.14 92.32,-23.31"/>
</a>
</g>
</g>
<!-- Node5 -->
<g id="Node000005" class="node">
<title>Node5</title>
<g id="a_Node000005"><a xlink:title=" ">
<polygon fill="#e0e0e0" stroke="#999999" points="410,-30 285,-30 285,0 410,0 410,-30"/>
<text text-anchor="start" x="293" y="-18" font-family="Helvetica,sans-Serif" font-size="10.00">rcl_interfaces/msg</text>
<text text-anchor="middle" x="347.5" y="-7" font-family="Helvetica,sans-Serif" font-size="10.00">/parameter_event.hpp</text>
</a>
</g>
</g>
<!-- Node2&#45;&gt;Node5 -->
<g id="edge4_Node000002_Node000005" class="edge">
<title>Node2&#45;&gt;Node5</title>
<g id="a_edge4_Node000002_Node000005"><a xlink:title=" ">
<path fill="none" stroke="#63b8ff" d="M573.08,-65.95C527.94,-55.96 467.19,-42.51 420.11,-32.08"/>
<polygon fill="#63b8ff" stroke="#63b8ff" points="420.8,-28.65 410.28,-29.9 419.28,-35.48 420.8,-28.65"/>
</a>
</g>
</g>
<!-- Node6 -->
<g id="Node000006" class="node">
<title>Node6</title>
<g id="a_Node000006"><a xlink:title=" ">
<polygon fill="#e0e0e0" stroke="#999999" points="578.5,-30 428.5,-30 428.5,0 578.5,0 578.5,-30"/>
<text text-anchor="start" x="436.5" y="-18" font-family="Helvetica,sans-Serif" font-size="10.00">rcl_interfaces/msg</text>
<text text-anchor="middle" x="503.5" y="-7" font-family="Helvetica,sans-Serif" font-size="10.00">/set_parameters_result.hpp</text>
</a>
</g>
</g>
<!-- Node2&#45;&gt;Node6 -->
<g id="edge5_Node000002_Node000006" class="edge">
<title>Node2&#45;&gt;Node6</title>
<g id="a_edge5_Node000002_Node000006"><a xlink:title=" ">
<path fill="none" stroke="#63b8ff" d="M607.31,-65.95C588.08,-56.7 562.7,-44.49 541.84,-34.45"/>
<polygon fill="#63b8ff" stroke="#63b8ff" points="543.15,-31.19 532.62,-30.01 540.11,-37.5 543.15,-31.19"/>
</a>
</g>
</g>
<!-- Node7 -->
<g id="Node000007" class="node">
<title>Node7</title>
<g id="a_Node000007"><a xlink:title=" ">
<polygon fill="#e0e0e0" stroke="#999999" points="640.5,-24.5 596.5,-24.5 596.5,-5.5 640.5,-5.5 640.5,-24.5"/>
<text text-anchor="middle" x="618.5" y="-12.5" font-family="Helvetica,sans-Serif" font-size="10.00">string</text>
</a>
</g>
</g>
<!-- Node2&#45;&gt;Node7 -->
<g id="edge6_Node000002_Node000007" class="edge">
<title>Node2&#45;&gt;Node7</title>
<g id="a_edge6_Node000002_Node000007"><a xlink:title=" ">
<path fill="none" stroke="#63b8ff" d="M632.51,-65.8C629.92,-56.6 626.52,-44.53 623.73,-34.58"/>
<polygon fill="#63b8ff" stroke="#63b8ff" points="627.06,-33.52 620.99,-24.84 620.33,-35.42 627.06,-33.52"/>
</a>
</g>
</g>
<!-- Node8 -->
<g id="Node000008" class="node">
<title>Node8</title>
<g id="a_Node000008"><a xlink:title=" ">
<polygon fill="#e0e0e0" stroke="#999999" points="706,-24.5 659,-24.5 659,-5.5 706,-5.5 706,-24.5"/>
<text text-anchor="middle" x="682.5" y="-12.5" font-family="Helvetica,sans-Serif" font-size="10.00">vector</text>
</a>
</g>
</g>
<!-- Node2&#45;&gt;Node8 -->
<g id="edge7_Node000002_Node000008" class="edge">
<title>Node2&#45;&gt;Node8</title>
<g id="a_edge7_Node000002_Node000008"><a xlink:title=" ">
<path fill="none" stroke="#63b8ff" d="M646.71,-65.8C653.67,-56.11 662.92,-43.24 670.27,-33.01"/>
<polygon fill="#63b8ff" stroke="#63b8ff" points="673.15,-35.01 676.14,-24.84 667.46,-30.92 673.15,-35.01"/>
</a>
</g>
</g>
<!-- Node9 -->
<g id="Node000009" class="node">
<title>Node9</title>
<g id="a_Node000009"><a xlink:title=" ">
<polygon fill="#e0e0e0" stroke="#999999" points="840.5,-24.5 792.5,-24.5 792.5,-5.5 840.5,-5.5 840.5,-24.5"/>
<text text-anchor="middle" x="816.5" y="-12.5" font-family="Helvetica,sans-Serif" font-size="10.00">mutex</text>
</a>
</g>
</g>
<!-- Node2&#45;&gt;Node9 -->
<g id="edge8_Node000002_Node000009" class="edge">
<title>Node2&#45;&gt;Node9</title>
<g id="a_edge8_Node000002_Node000009"><a xlink:title=" ">
<path fill="none" stroke="#63b8ff" d="M680.54,-65.96C709.9,-56.36 749.25,-43.07 783.5,-30 784.88,-29.47 786.29,-28.92 787.71,-28.36"/>
<polygon fill="#63b8ff" stroke="#63b8ff" points="789.13,-31.56 797.05,-24.53 786.47,-25.08 789.13,-31.56"/>
</a>
</g>
</g>
<!-- Node10 -->
<g id="Node000010" class="node">
<title>Node10</title>
<g id="a_Node000010"><a xlink:title=" ">
<polygon fill="#e0e0e0" stroke="#999999" points="944.5,-24.5 858.5,-24.5 858.5,-5.5 944.5,-5.5 944.5,-24.5"/>
<text text-anchor="middle" x="901.5" y="-12.5" font-family="Helvetica,sans-Serif" font-size="10.00">shared_mutex</text>
</a>
</g>
</g>
<!-- Node2&#45;&gt;Node10 -->
<g id="edge9_Node000002_Node000010" class="edge">
<title>Node2&#45;&gt;Node10</title>
<g id="a_edge9_Node000002_Node000010"><a xlink:title=" ">
<path fill="none" stroke="#63b8ff" d="M698.61,-65.98C741.17,-56.24 798.85,-42.76 849.5,-30 853.11,-29.09 856.86,-28.12 860.61,-27.14"/>
<polygon fill="#63b8ff" stroke="#63b8ff" points="861.7,-30.47 870.47,-24.53 859.91,-23.71 861.7,-30.47"/>
</a>
</g>
</g>
<!-- Node2&#45;&gt;Node11 -->
<g id="edge10_Node000002_Node000011" class="edge">
<title>Node2&#45;&gt;Node11</title>
<g id="a_edge10_Node000002_Node000011"><a xlink:title=" ">
<path fill="none" stroke="#63b8ff" d="M712.95,-67.37C715.84,-66.91 718.69,-66.45 721.5,-66 824.54,-49.52 852.49,-56.17 953.5,-30 955.94,-29.37 958.45,-28.64 960.95,-27.85"/>
<polygon fill="#63b8ff" stroke="#63b8ff" points="962.1,-31.15 970.43,-24.61 959.84,-24.53 962.1,-31.15"/>
</a>
</g>
</g>
<!-- Node12 -->
<g id="Node000012" class="node">
<title>Node12</title>
<g id="a_Node000012"><a xlink:title=" ">
<polygon fill="#e0e0e0" stroke="#999999" points="774.5,-24.5 724.5,-24.5 724.5,-5.5 774.5,-5.5 774.5,-24.5"/>
<text text-anchor="middle" x="749.5" y="-12.5" font-family="Helvetica,sans-Serif" font-size="10.00">atomic</text>
</a>
</g>
</g>
<!-- Node2&#45;&gt;Node12 -->
<g id="edge11_Node000002_Node000012" class="edge">
<title>Node2&#45;&gt;Node12</title>
<g id="a_edge11_Node000002_Node000012"><a xlink:title=" ">
<path fill="none" stroke="#63b8ff" d="M661.3,-65.95C680.42,-55.13 706.7,-40.24 725.59,-29.54"/>
<polygon fill="#63b8ff" stroke="#63b8ff" points="727.49,-32.49 734.46,-24.52 724.04,-26.4 727.49,-32.49"/>
</a>
</g>
</g>
<!-- Node13&#45;&gt;Node9 -->
<g id="edge14_Node000013_Node000009" class="edge">
<title>Node13&#45;&gt;Node9</title>
<g id="a_edge14_Node000013_Node000009"><a xlink:title=" ">
<path fill="none" stroke="#63b8ff" d="M825.84,-65.8C824.13,-56.7 821.9,-44.79 820.04,-34.9"/>
<polygon fill="#63b8ff" stroke="#63b8ff" points="823.44,-34.03 818.16,-24.84 816.56,-35.32 823.44,-34.03"/>
</a>
</g>
</g>
<!-- Node13&#45;&gt;Node10 -->
<g id="edge13_Node000013_Node000010" class="edge">
<title>Node13&#45;&gt;Node10</title>
<g id="a_edge13_Node000013_Node000010"><a xlink:title=" ">
<path fill="none" stroke="#63b8ff" d="M844.7,-65.8C856.3,-55.62 871.92,-41.93 883.84,-31.48"/>
<polygon fill="#63b8ff" stroke="#63b8ff" points="886.2,-34.07 891.41,-24.84 881.59,-28.8 886.2,-34.07"/>
</a>
</g>
</g>
</g>
</svg>
