<?xml version="1.0" encoding="UTF-8" standalone="no"?>
<!DOCTYPE svg PUBLIC "-//W3C//DTD SVG 1.1//EN"
 "http://www.w3.org/Graphics/SVG/1.1/DTD/svg11.dtd">
<!-- Generated by graphviz version 2.43.0 (0)
 -->
<!-- Title: /home/ffn/Workspace/ros2_humble_ws/src/III&#45;Drone&#45;Core/include/iii_drone_core/control/maneuver/hover_maneuver_server.hpp Pages: 1 -->
<!--zoomable 401 -->

<svg id="main" version="1.1" xmlns="http://www.w3.org/2000/svg" xmlns:xlink="http://www.w3.org/1999/xlink" xml:space="preserve" onload="init(evt)">
<style type="text/css"><![CDATA[
.node, .edge {opacity: 0.7;}
.node.selected, .edge.selected {opacity: 1;}
.edge:hover path { stroke: red; }
.edge:hover polygon { stroke: red; fill: red; }
]]></style>

<defs>
  <circle id="rim" cx="0" cy="0" r="7"/>
  <circle id="rim2" cx="0" cy="0" r="3.5"/>
  <g id="zoomPlus">
    <use xlink:href="#rim" fill="#404040"><set attributeName="fill" to="#808080" begin="zoomplus.mouseover" end="zoomplus.mouseout"/></use>
    <path d="M-4,0h8M0,-4v8" fill="none" stroke="white" stroke-width="1.5" pointer-events="none"/>
  </g>
  <g id="zoomMin">
    <use xlink:href="#rim" fill="#404040"><set attributeName="fill" to="#808080" begin="zoomminus.mouseover" end="zoomminus.mouseout"/></use>
    <path d="M-4,0h8" fill="none" stroke="white" stroke-width="1.5" pointer-events="none"/>
  </g>
  <g id="arrowUp" transform="translate(30 24)">
    <use xlink:href="#rim"/>
    <path pointer-events="none" fill="none" stroke="white" stroke-width="1.5" d="M0,-3.0v7 M-2.5,-0.5L0,-3.0L2.5,-0.5"/>
  </g>
  <g id="arrowRight" transform="rotate(90) translate(36 -43)">
    <use xlink:href="#rim"/>
    <path pointer-events="none" fill="none" stroke="white" stroke-width="1.5" d="M0,-3.0v7 M-2.5,-0.5L0,-3.0L2.5,-0.5"/>
  </g>
  <g id="arrowDown" transform="rotate(180) translate(-30 -48)">
    <use xlink:href="#rim"/>
    <path pointer-events="none" fill="none" stroke="white" stroke-width="1.5" d="M0,-3.0v7 M-2.5,-0.5L0,-3.0L2.5,-0.5"/>
  </g>
  <g id="arrowLeft" transform="rotate(270) translate(-36 17)">
    <use xlink:href="#rim"/>
    <path pointer-events="none" fill="none" stroke="white" stroke-width="1.5" d="M0,-3.0v7 M-2.5,-0.5L0,-3.0L2.5,-0.5"/>
  </g>
  <g id="resetDef">
    <use xlink:href="#rim2" fill="#404040"><set attributeName="fill" to="#808080" begin="reset.mouseover" end="reset.mouseout"/></use>
  </g>
</defs>
<script type="application/ecmascript">
var viewWidth = 717;
var viewHeight = 401;
var sectionId = 'dynsection-1';
</script>
<script type="application/ecmascript" xlink:href="svg.min.js"/>
<svg id="graph" class="graph">
<g id="viewport">
<title>/home/ffn/Workspace/ros2_humble_ws/src/III&#45;Drone&#45;Core/include/iii_drone_core/control/maneuver/hover_maneuver_server.hpp</title>
<!-- Node1 -->
<g id="Node000001" class="node">
<title>Node1</title>
<g id="a_Node000001"><a xlink:title=" ">
<polygon fill="#999999" stroke="#666666" points="412,-393 257,-393 257,-319 412,-319 412,-393"/>
<text text-anchor="start" x="265" y="-381" font-family="Helvetica,sans-Serif" font-size="10.00">/home/ffn/Workspace</text>
<text text-anchor="start" x="265" y="-370" font-family="Helvetica,sans-Serif" font-size="10.00">/ros2_humble_ws/src</text>
<text text-anchor="start" x="265" y="-359" font-family="Helvetica,sans-Serif" font-size="10.00">/III&#45;Drone&#45;Core/include</text>
<text text-anchor="start" x="265" y="-348" font-family="Helvetica,sans-Serif" font-size="10.00">/iii_drone_core/control</text>
<text text-anchor="start" x="265" y="-337" font-family="Helvetica,sans-Serif" font-size="10.00">/maneuver/hover_maneuver</text>
<text text-anchor="middle" x="334.5" y="-326" font-family="Helvetica,sans-Serif" font-size="10.00">_server.hpp</text>
</a>
</g>
</g>
<!-- Node2 -->
<g id="Node000002" class="node">
<title>Node2</title>
<g id="a_Node000002"><a xlink:href="fly__to__position__maneuver__server_8hpp.html" target="_top" xlink:title=" ">
<polygon fill="white" stroke="#666666" points="244,-283 101,-283 101,-209 244,-209 244,-283"/>
<text text-anchor="start" x="109" y="-271" font-family="Helvetica,sans-Serif" font-size="10.00">/home/ffn/Workspace</text>
<text text-anchor="start" x="109" y="-260" font-family="Helvetica,sans-Serif" font-size="10.00">/ros2_humble_ws/src</text>
<text text-anchor="start" x="109" y="-249" font-family="Helvetica,sans-Serif" font-size="10.00">/III&#45;Drone&#45;Core/include</text>
<text text-anchor="start" x="109" y="-238" font-family="Helvetica,sans-Serif" font-size="10.00">/iii_drone_core/control</text>
<text text-anchor="start" x="109" y="-227" font-family="Helvetica,sans-Serif" font-size="10.00">/maneuver/fly_to_position</text>
<text text-anchor="middle" x="172.5" y="-216" font-family="Helvetica,sans-Serif" font-size="10.00">_maneuver_server.hpp</text>
</a>
</g>
</g>
<!-- Node1&#45;&gt;Node2 -->
<g id="edge1_Node000001_Node000002" class="edge">
<title>Node1&#45;&gt;Node2</title>
<g id="a_edge1_Node000001_Node000002"><a xlink:title=" ">
<path fill="none" stroke="#63b8ff" d="M271.52,-313.01C256.74,-303.16 241.11,-292.74 226.75,-283.17"/>
<polygon fill="#63b8ff" stroke="#63b8ff" points="269.84,-316.1 280.11,-318.74 273.73,-310.28 269.84,-316.1"/>
</a>
</g>
</g>
<!-- Node3 -->
<g id="Node000003" class="node">
<title>Node3</title>
<g id="a_Node000003"><a xlink:href="maneuver__controller__node_8hpp.html" target="_top" xlink:title=" ">
<polygon fill="white" stroke="#666666" points="332,-173 161,-173 161,-99 332,-99 332,-173"/>
<text text-anchor="start" x="169" y="-161" font-family="Helvetica,sans-Serif" font-size="10.00">/home/ffn/Workspace</text>
<text text-anchor="start" x="169" y="-150" font-family="Helvetica,sans-Serif" font-size="10.00">/ros2_humble_ws/src</text>
<text text-anchor="start" x="169" y="-139" font-family="Helvetica,sans-Serif" font-size="10.00">/III&#45;Drone&#45;Core/include</text>
<text text-anchor="start" x="169" y="-128" font-family="Helvetica,sans-Serif" font-size="10.00">/iii_drone_core/control</text>
<text text-anchor="start" x="169" y="-117" font-family="Helvetica,sans-Serif" font-size="10.00">/maneuver_controller_node</text>
<text text-anchor="middle" x="246.5" y="-106" font-family="Helvetica,sans-Serif" font-size="10.00">/maneuver_controller_node.hpp</text>
</a>
</g>
</g>
<!-- Node1&#45;&gt;Node3 -->
<g id="edge9_Node000001_Node000003" class="edge">
<title>Node1&#45;&gt;Node3</title>
<g id="a_edge9_Node000001_Node000003"><a xlink:title=" ">
<path fill="none" stroke="#63b8ff" d="M305.56,-310.27C300.48,-301.43 295.54,-292.08 291.5,-283 275.43,-246.89 262.82,-203.36 255.09,-173.27"/>
<polygon fill="#63b8ff" stroke="#63b8ff" points="302.56,-312.07 310.65,-318.91 308.59,-308.52 302.56,-312.07"/>
</a>
</g>
</g>
<!-- Node6 -->
<g id="Node000006" class="node">
<title>Node6</title>
<g id="a_Node000006"><a xlink:href="maneuver__scheduler_8hpp.html" target="_top" xlink:title=" ">
<polygon fill="white" stroke="#666666" points="494.5,-277.5 300.5,-277.5 300.5,-214.5 494.5,-214.5 494.5,-277.5"/>
<text text-anchor="start" x="308.5" y="-265.5" font-family="Helvetica,sans-Serif" font-size="10.00">/home/ffn/Workspace</text>
<text text-anchor="start" x="308.5" y="-254.5" font-family="Helvetica,sans-Serif" font-size="10.00">/ros2_humble_ws/src</text>
<text text-anchor="start" x="308.5" y="-243.5" font-family="Helvetica,sans-Serif" font-size="10.00">/III&#45;Drone&#45;Core/include</text>
<text text-anchor="start" x="308.5" y="-232.5" font-family="Helvetica,sans-Serif" font-size="10.00">/iii_drone_core/control</text>
<text text-anchor="middle" x="397.5" y="-221.5" font-family="Helvetica,sans-Serif" font-size="10.00">/maneuver/maneuver_scheduler.hpp</text>
</a>
</g>
</g>
<!-- Node1&#45;&gt;Node6 -->
<g id="edge5_Node000001_Node000006" class="edge">
<title>Node1&#45;&gt;Node6</title>
<g id="a_edge5_Node000001_Node000006"><a xlink:title=" ">
<path fill="none" stroke="#63b8ff" d="M360.88,-309.78C367.21,-298.93 373.82,-287.59 379.66,-277.58"/>
<polygon fill="#63b8ff" stroke="#63b8ff" points="357.67,-308.34 355.65,-318.74 363.72,-311.86 357.67,-308.34"/>
</a>
</g>
</g>
<!-- Node9 -->
<g id="Node000009" class="node">
<title>Node9</title>
<g id="a_Node000009"><a xlink:href="hover__maneuver__server_8cpp.html" target="_top" xlink:title=" ">
<polygon fill="white" stroke="#666666" points="668,-277.5 513,-277.5 513,-214.5 668,-214.5 668,-277.5"/>
<text text-anchor="start" x="521" y="-265.5" font-family="Helvetica,sans-Serif" font-size="10.00">/home/ffn/Workspace</text>
<text text-anchor="start" x="521" y="-254.5" font-family="Helvetica,sans-Serif" font-size="10.00">/ros2_humble_ws/src</text>
<text text-anchor="start" x="521" y="-243.5" font-family="Helvetica,sans-Serif" font-size="10.00">/III&#45;Drone&#45;Core/src/control</text>
<text text-anchor="start" x="521" y="-232.5" font-family="Helvetica,sans-Serif" font-size="10.00">/maneuver/hover_maneuver</text>
<text text-anchor="middle" x="590.5" y="-221.5" font-family="Helvetica,sans-Serif" font-size="10.00">_server.cpp</text>
</a>
</g>
</g>
<!-- Node1&#45;&gt;Node9 -->
<g id="edge10_Node000001_Node000009" class="edge">
<title>Node1&#45;&gt;Node9</title>
<g id="a_edge10_Node000001_Node000009"><a xlink:title=" ">
<path fill="none" stroke="#63b8ff" d="M421.62,-318.25C453.01,-305 488.07,-290.21 518.07,-277.56"/>
<polygon fill="#63b8ff" stroke="#63b8ff" points="419.86,-315.19 412,-322.3 422.58,-321.64 419.86,-315.19"/>
</a>
</g>
</g>
<!-- Node2&#45;&gt;Node3 -->
<g id="edge2_Node000002_Node000003" class="edge">
<title>Node2&#45;&gt;Node3</title>
<g id="a_edge2_Node000002_Node000003"><a xlink:title=" ">
<path fill="none" stroke="#63b8ff" d="M203.14,-200.28C209.29,-191.31 215.67,-181.99 221.59,-173.35"/>
<polygon fill="#63b8ff" stroke="#63b8ff" points="200.11,-198.51 197.35,-208.74 205.89,-202.47 200.11,-198.51"/>
</a>
</g>
</g>
<!-- Node5 -->
<g id="Node000005" class="node">
<title>Node5</title>
<g id="a_Node000005"><a xlink:href="fly__to__position__maneuver__server_8cpp.html" target="_top" xlink:title=" ">
<polygon fill="white" stroke="#666666" points="143,-167.5 0,-167.5 0,-104.5 143,-104.5 143,-167.5"/>
<text text-anchor="start" x="8" y="-155.5" font-family="Helvetica,sans-Serif" font-size="10.00">/home/ffn/Workspace</text>
<text text-anchor="start" x="8" y="-144.5" font-family="Helvetica,sans-Serif" font-size="10.00">/ros2_humble_ws/src</text>
<text text-anchor="start" x="8" y="-133.5" font-family="Helvetica,sans-Serif" font-size="10.00">/III&#45;Drone&#45;Core/src/control</text>
<text text-anchor="start" x="8" y="-122.5" font-family="Helvetica,sans-Serif" font-size="10.00">/maneuver/fly_to_position</text>
<text text-anchor="middle" x="71.5" y="-111.5" font-family="Helvetica,sans-Serif" font-size="10.00">_maneuver_server.cpp</text>
</a>
</g>
</g>
<!-- Node2&#45;&gt;Node5 -->
<g id="edge4_Node000002_Node000005" class="edge">
<title>Node2&#45;&gt;Node5</title>
<g id="a_edge4_Node000002_Node000005"><a xlink:title=" ">
<path fill="none" stroke="#63b8ff" d="M131.73,-201.4C121.12,-190.06 109.93,-178.09 100.1,-167.58"/>
<polygon fill="#63b8ff" stroke="#63b8ff" points="129.2,-203.82 138.59,-208.74 134.31,-199.04 129.2,-203.82"/>
</a>
</g>
</g>
<!-- Node4 -->
<g id="Node000004" class="node">
<title>Node4</title>
<g id="a_Node000004"><a xlink:href="maneuver__controller__node_8cpp.html" target="_top" xlink:title=" ">
<polygon fill="white" stroke="#666666" points="331.5,-63 161.5,-63 161.5,0 331.5,0 331.5,-63"/>
<text text-anchor="start" x="169.5" y="-51" font-family="Helvetica,sans-Serif" font-size="10.00">/home/ffn/Workspace</text>
<text text-anchor="start" x="169.5" y="-40" font-family="Helvetica,sans-Serif" font-size="10.00">/ros2_humble_ws/src</text>
<text text-anchor="start" x="169.5" y="-29" font-family="Helvetica,sans-Serif" font-size="10.00">/III&#45;Drone&#45;Core/src/control</text>
<text text-anchor="start" x="169.5" y="-18" font-family="Helvetica,sans-Serif" font-size="10.00">/maneuver_controller_node</text>
<text text-anchor="middle" x="246.5" y="-7" font-family="Helvetica,sans-Serif" font-size="10.00">/maneuver_controller_node.cpp</text>
</a>
</g>
</g>
<!-- Node3&#45;&gt;Node4 -->
<g id="edge3_Node000003_Node000004" class="edge">
<title>Node3&#45;&gt;Node4</title>
<g id="a_edge3_Node000003_Node000004"><a xlink:title=" ">
<path fill="none" stroke="#63b8ff" d="M246.5,-88.83C246.5,-80.15 246.5,-71.28 246.5,-63.22"/>
<polygon fill="#63b8ff" stroke="#63b8ff" points="243,-88.86 246.5,-98.86 250,-88.86 243,-88.86"/>
</a>
</g>
</g>
<!-- Node6&#45;&gt;Node3 -->
<g id="edge7_Node000006_Node000003" class="edge">
<title>Node6&#45;&gt;Node3</title>
<g id="a_edge7_Node000006_Node000003"><a xlink:title=" ">
<path fill="none" stroke="#63b8ff" d="M346.45,-208.49C330.48,-197.07 312.88,-184.48 296.96,-173.09"/>
<polygon fill="#63b8ff" stroke="#63b8ff" points="344.46,-211.37 354.63,-214.34 348.54,-205.68 344.46,-211.37"/>
</a>
</g>
</g>
<!-- Node7 -->
<g id="Node000007" class="node">
<title>Node7</title>
<g id="a_Node000007"><a xlink:href="flight__controller__node_8hpp.html" target="_top" xlink:title=" ">
<polygon fill="white" stroke="#666666" points="496.5,-173 350.5,-173 350.5,-99 496.5,-99 496.5,-173"/>
<text text-anchor="start" x="358.5" y="-161" font-family="Helvetica,sans-Serif" font-size="10.00">/home/ffn/Workspace</text>
<text text-anchor="start" x="358.5" y="-150" font-family="Helvetica,sans-Serif" font-size="10.00">/ros2_humble_ws/src</text>
<text text-anchor="start" x="358.5" y="-139" font-family="Helvetica,sans-Serif" font-size="10.00">/III&#45;Drone&#45;Core/include</text>
<text text-anchor="start" x="358.5" y="-128" font-family="Helvetica,sans-Serif" font-size="10.00">/iii_drone_core/control</text>
<text text-anchor="start" x="358.5" y="-117" font-family="Helvetica,sans-Serif" font-size="10.00">/_flight_controller_node</text>
<text text-anchor="middle" x="423.5" y="-106" font-family="Helvetica,sans-Serif" font-size="10.00">/flight_controller_node.hpp</text>
</a>
</g>
</g>
<!-- Node6&#45;&gt;Node7 -->
<g id="edge6_Node000006_Node000007" class="edge">
<title>Node6&#45;&gt;Node7</title>
<g id="a_edge6_Node000006_Node000007"><a xlink:title=" ">
<path fill="none" stroke="#63b8ff" d="M407.28,-204.36C409.76,-194.08 412.4,-183.12 414.81,-173.09"/>
<polygon fill="#63b8ff" stroke="#63b8ff" points="403.82,-203.8 404.88,-214.34 410.62,-205.44 403.82,-203.8"/>
</a>
</g>
</g>
<!-- Node8 -->
<g id="Node000008" class="node">
<title>Node8</title>
<g id="a_Node000008"><a xlink:href="maneuver__scheduler_8cpp.html" target="_top" xlink:title=" ">
<polygon fill="white" stroke="#666666" points="708.5,-162 514.5,-162 514.5,-110 708.5,-110 708.5,-162"/>
<text text-anchor="start" x="522.5" y="-150" font-family="Helvetica,sans-Serif" font-size="10.00">/home/ffn/Workspace</text>
<text text-anchor="start" x="522.5" y="-139" font-family="Helvetica,sans-Serif" font-size="10.00">/ros2_humble_ws/src</text>
<text text-anchor="start" x="522.5" y="-128" font-family="Helvetica,sans-Serif" font-size="10.00">/III&#45;Drone&#45;Core/src/control</text>
<text text-anchor="middle" x="611.5" y="-117" font-family="Helvetica,sans-Serif" font-size="10.00">/maneuver/maneuver_scheduler.cpp</text>
</a>
</g>
</g>
<!-- Node6&#45;&gt;Node8 -->
<g id="edge8_Node000006_Node000008" class="edge">
<title>Node6&#45;&gt;Node8</title>
<g id="a_edge8_Node000006_Node000008"><a xlink:title=" ">
<path fill="none" stroke="#63b8ff" d="M466.96,-209.95C497.83,-194.37 533.48,-176.38 561.65,-162.16"/>
<polygon fill="#63b8ff" stroke="#63b8ff" points="465.32,-206.85 457.97,-214.48 468.47,-213.1 465.32,-206.85"/>
</a>
</g>
</g>
</g>
</svg>

<g id="navigator" transform="translate(0 0)" fill="#404254">
  <rect fill="#f2f5e9" fill-opacity="0.5" stroke="#606060" stroke-width=".5" x="0" y="0" width="60" height="60"/>
  <use id="zoomplus" xlink:href="#zoomPlus" x="17" y="9" onmousedown="handleZoom(evt,'in')"/>
  <use id="zoomminus" xlink:href="#zoomMin" x="42" y="9" onmousedown="handleZoom(evt,'out')"/>
  <use id="reset" xlink:href="#resetDef" x="30" y="36" onmousedown="handleReset()"/>
   <use id="arrowup" xlink:href="#arrowUp" x="0" y="0" onmousedown="handlePan(0,-1)"/>
  <use id="arrowright" xlink:href="#arrowRight" x="0" y="0" onmousedown="handlePan(1,0)"/>
  <use id="arrowdown" xlink:href="#arrowDown" x="0" y="0" onmousedown="handlePan(0,1)"/>
  <use id="arrowleft" xlink:href="#arrowLeft" x="0" y="0" onmousedown="handlePan(-1,0)"/>
</g>
<svg viewBox="0 0 15 15" width="100%" height="30px" preserveAspectRatio="xMaxYMin meet">
 <g id="arrow_out" transform="scale(0.3 0.3)">
  <a xlink:href="hover__maneuver__server_8hpp__dep__incl_org.svg" target="_base">
   <rect id="button" ry="5" rx="5" y="6" x="6" height="38" width="38"
        fill="#f2f5e9" fill-opacity="0.5" stroke="#606060" stroke-width="1.0"/>
   <path id="arrow"
     d="M 11.500037,31.436501 C 11.940474,20.09759 22.043105,11.32322 32.158766,21.979434 L 37.068811,17.246167 C 37.068811,17.246167 37.088388,32 37.088388,32 L 22.160133,31.978069 C 22.160133,31.978069 26.997745,27.140456 26.997745,27.140456 C 18.528582,18.264221 13.291696,25.230495 11.500037,31.436501 z"
     style="fill:#404040;"/>
  </a>
 </g>
</svg>

<style type='text/css'>
<![CDATA[
[data-mouse-over-selected='false'] { opacity: 0.7; }
[data-mouse-over-selected='true']  { opacity: 1.0; }
]]>
</style>
<script type="application/ecmascript"><![CDATA[
document.addEventListener('DOMContentLoaded', (event) => {
  highlightEdges();
  highlightAdjacentNodes();
});
]]></script>
</svg>
