<?xml version="1.0" encoding="UTF-8" standalone="no"?>
<!DOCTYPE svg PUBLIC "-//W3C//DTD SVG 1.1//EN"
 "http://www.w3.org/Graphics/SVG/1.1/DTD/svg11.dtd">
<!-- Generated by graphviz version 2.43.0 (0)
 -->
<!-- Title: Graphical Class Hierarchy Pages: 1 -->
<svg width="395pt" height="496pt"
 viewBox="0.00 0.00 395.00 496.00" xmlns="http://www.w3.org/2000/svg" xmlns:xlink="http://www.w3.org/1999/xlink">
<g id="graph0" class="graph" transform="scale(1 1) rotate(0) translate(4 492)">
<title>Graphical Class Hierarchy</title>
<!-- Node0 -->
<g id="Node000000" class="node">
<title>Node0</title>
<g id="a_Node000000"><a xlink:href="classiii__drone_1_1configuration_1_1Configurator.html" target="_top" xlink:title="Class for handling parameters of a node. The class works in conjunction with the ConfigurationServer ...">
<polygon fill="white" stroke="#666666" points="128,-244.5 0,-244.5 0,-214.5 128,-214.5 128,-244.5"/>
<text text-anchor="start" x="8" y="-232.5" font-family="Helvetica,sans-Serif" font-size="10.00">iii_drone::configuration</text>
<text text-anchor="middle" x="64" y="-221.5" font-family="Helvetica,sans-Serif" font-size="10.00">::Configurator</text>
</a>
</g>
</g>
<!-- Node1 -->
<g id="Node000001" class="node">
<title>Node1</title>
<g id="a_Node000001"><a xlink:href="classiii__drone_1_1control_1_1flight__controller__node_1_1FlightControllerConfigurator.html" target="_top" xlink:title="Class for handling parameters for FlightController.">
<polygon fill="white" stroke="#666666" points="369.5,-488 181.5,-488 181.5,-447 369.5,-447 369.5,-488"/>
<text text-anchor="start" x="189.5" y="-476" font-family="Helvetica,sans-Serif" font-size="10.00">iii_drone::control</text>
<text text-anchor="start" x="189.5" y="-465" font-family="Helvetica,sans-Serif" font-size="10.00">::flight_controller</text>
<text text-anchor="middle" x="275.5" y="-454" font-family="Helvetica,sans-Serif" font-size="10.00">_node::FlightControllerConfigurator</text>
</a>
</g>
</g>
<!-- Node0&#45;&gt;Node1 -->
<g id="edge1_Node000000_Node000001" class="edge">
<title>Node0&#45;&gt;Node1</title>
<g id="a_edge1_Node000000_Node000001"><a xlink:title=" ">
<path fill="none" stroke="#63b8ff" d="M69.81,-254.56C79.57,-298.4 105.87,-388.95 164,-437.5 169.26,-441.9 175.12,-445.65 181.3,-448.86"/>
<polygon fill="#63b8ff" stroke="#63b8ff" points="73.22,-253.78 67.73,-244.72 66.38,-255.23 73.22,-253.78"/>
</a>
</g>
</g>
<!-- Node2 -->
<g id="Node000002" class="node">
<title>Node2</title>
<g id="a_Node000002"><a xlink:href="classiii__drone_1_1control_1_1maneuver__controller__node_1_1ManeuverControllerNodeConfigurator.html" target="_top" xlink:title="Class for handling parameters for ManeuverController. Exposes a CombinedDroneAwarenessHandlerParamete...">
<polygon fill="white" stroke="#666666" points="362.5,-428.5 188.5,-428.5 188.5,-376.5 362.5,-376.5 362.5,-428.5"/>
<text text-anchor="start" x="196.5" y="-416.5" font-family="Helvetica,sans-Serif" font-size="10.00">iii_drone::control</text>
<text text-anchor="start" x="196.5" y="-405.5" font-family="Helvetica,sans-Serif" font-size="10.00">::maneuver_controller</text>
<text text-anchor="start" x="196.5" y="-394.5" font-family="Helvetica,sans-Serif" font-size="10.00">_node::ManeuverControllerNode</text>
<text text-anchor="middle" x="275.5" y="-383.5" font-family="Helvetica,sans-Serif" font-size="10.00">Configurator</text>
</a>
</g>
</g>
<!-- Node0&#45;&gt;Node2 -->
<g id="edge2_Node000000_Node000002" class="edge">
<title>Node0&#45;&gt;Node2</title>
<g id="a_edge2_Node000000_Node000002"><a xlink:title=" ">
<path fill="none" stroke="#63b8ff" d="M76.38,-254.03C91.93,-284.9 122.65,-337.5 164,-367.5 171.41,-372.88 179.68,-377.45 188.26,-381.33"/>
<polygon fill="#63b8ff" stroke="#63b8ff" points="79.42,-252.27 71.88,-244.83 73.13,-255.35 79.42,-252.27"/>
</a>
</g>
</g>
<!-- Node3 -->
<g id="Node000003" class="node">
<title>Node3</title>
<g id="a_Node000003"><a xlink:href="classiii__drone_1_1control_1_1trajectory__generator__node_1_1TrajectoryGeneratorNodeConfigurator.html" target="_top" xlink:title="Class for handling parameters for a positional MPC.">
<polygon fill="white" stroke="#666666" points="362.5,-358.5 188.5,-358.5 188.5,-306.5 362.5,-306.5 362.5,-358.5"/>
<text text-anchor="start" x="196.5" y="-346.5" font-family="Helvetica,sans-Serif" font-size="10.00">iii_drone::control</text>
<text text-anchor="start" x="196.5" y="-335.5" font-family="Helvetica,sans-Serif" font-size="10.00">::trajectory_generator</text>
<text text-anchor="start" x="196.5" y="-324.5" font-family="Helvetica,sans-Serif" font-size="10.00">_node::TrajectoryGeneratorNode</text>
<text text-anchor="middle" x="275.5" y="-313.5" font-family="Helvetica,sans-Serif" font-size="10.00">Configurator</text>
</a>
</g>
</g>
<!-- Node0&#45;&gt;Node3 -->
<g id="edge3_Node000000_Node000003" class="edge">
<title>Node0&#45;&gt;Node3</title>
<g id="a_edge3_Node000000_Node000003"><a xlink:title=" ">
<path fill="none" stroke="#63b8ff" d="M91.3,-250.76C110.52,-265.49 137.72,-284.67 164,-297.5 171.78,-301.3 180.06,-304.81 188.45,-308.02"/>
<polygon fill="#63b8ff" stroke="#63b8ff" points="93.36,-247.93 83.32,-244.56 89.06,-253.46 93.36,-247.93"/>
</a>
</g>
</g>
<!-- Node4 -->
<g id="Node000004" class="node">
<title>Node4</title>
<g id="a_Node000004"><a xlink:href="classiii__drone_1_1mission_1_1continuous__mission__orchestrator__node_1_1ContinuousMissionOrchestratorConfigurator.html" target="_top" xlink:title="Class for handling parameters for ContinuousMissionOrchestrator.">
<polygon fill="white" stroke="#666666" points="363,-288.5 188,-288.5 188,-236.5 363,-236.5 363,-288.5"/>
<text text-anchor="start" x="196" y="-276.5" font-family="Helvetica,sans-Serif" font-size="10.00">iii_drone::mission</text>
<text text-anchor="start" x="196" y="-265.5" font-family="Helvetica,sans-Serif" font-size="10.00">::continuous_mission</text>
<text text-anchor="start" x="196" y="-254.5" font-family="Helvetica,sans-Serif" font-size="10.00">_orchestrator_node::Continuous</text>
<text text-anchor="middle" x="275.5" y="-243.5" font-family="Helvetica,sans-Serif" font-size="10.00">MissionOrchestratorConfigurator</text>
</a>
</g>
</g>
<!-- Node0&#45;&gt;Node4 -->
<g id="edge4_Node000000_Node000004" class="edge">
<title>Node0&#45;&gt;Node4</title>
<g id="a_edge4_Node000000_Node000004"><a xlink:title=" ">
<path fill="none" stroke="#63b8ff" d="M138.46,-241.07C154.43,-243.59 171.46,-246.27 187.88,-248.86"/>
<polygon fill="#63b8ff" stroke="#63b8ff" points="138.56,-237.54 128.14,-239.45 137.47,-244.46 138.56,-237.54"/>
</a>
</g>
</g>
<!-- Node5 -->
<g id="Node000005" class="node">
<title>Node5</title>
<g id="a_Node000005"><a xlink:href="classiii__drone_1_1perception_1_1hough__transformer__node_1_1HoughTransformerConfigurator.html" target="_top" xlink:title="Class for handling parameters for HoughTransformer.">
<polygon fill="white" stroke="#666666" points="362,-218 189,-218 189,-177 362,-177 362,-218"/>
<text text-anchor="start" x="197" y="-206" font-family="Helvetica,sans-Serif" font-size="10.00">iii_drone::perception</text>
<text text-anchor="start" x="197" y="-195" font-family="Helvetica,sans-Serif" font-size="10.00">::hough_transformer_node</text>
<text text-anchor="middle" x="275.5" y="-184" font-family="Helvetica,sans-Serif" font-size="10.00">::HoughTransformerConfigurator</text>
</a>
</g>
</g>
<!-- Node0&#45;&gt;Node5 -->
<g id="edge5_Node000000_Node000005" class="edge">
<title>Node0&#45;&gt;Node5</title>
<g id="a_edge5_Node000000_Node000005"><a xlink:title=" ">
<path fill="none" stroke="#63b8ff" d="M138.13,-218.33C154.44,-215.84 171.88,-213.17 188.65,-210.61"/>
<polygon fill="#63b8ff" stroke="#63b8ff" points="137.5,-214.89 128.14,-219.86 138.55,-221.81 137.5,-214.89"/>
</a>
</g>
</g>
<!-- Node6 -->
<g id="Node000006" class="node">
<title>Node6</title>
<g id="a_Node000006"><a xlink:href="classiii__drone_1_1perception_1_1pl__dir__computer__node_1_1PowerlineDirectionComputerConfigurator.html" target="_top" xlink:title="Class for handling parameters for PowerlineDirectionComputer.">
<polygon fill="white" stroke="#666666" points="387,-159 164,-159 164,-118 387,-118 387,-159"/>
<text text-anchor="start" x="172" y="-147" font-family="Helvetica,sans-Serif" font-size="10.00">iii_drone::perception</text>
<text text-anchor="start" x="172" y="-136" font-family="Helvetica,sans-Serif" font-size="10.00">::pl_dir_computer_node</text>
<text text-anchor="middle" x="275.5" y="-125" font-family="Helvetica,sans-Serif" font-size="10.00">::PowerlineDirectionComputerConfigurator</text>
</a>
</g>
</g>
<!-- Node0&#45;&gt;Node6 -->
<g id="edge6_Node000000_Node000006" class="edge">
<title>Node0&#45;&gt;Node6</title>
<g id="a_edge6_Node000000_Node000006"><a xlink:title=" ">
<path fill="none" stroke="#63b8ff" d="M93.93,-208.59C113.05,-195.56 139.1,-179.28 164,-168.5 171.94,-165.06 180.36,-161.93 188.89,-159.09"/>
<polygon fill="#63b8ff" stroke="#63b8ff" points="91.89,-205.74 85.66,-214.31 95.88,-211.5 91.89,-205.74"/>
</a>
</g>
</g>
<!-- Node7 -->
<g id="Node000007" class="node">
<title>Node7</title>
<g id="a_Node000007"><a xlink:href="classiii__drone_1_1perception_1_1pl__mapper__node_1_1PowerlineMapperConfigurator.html" target="_top" xlink:title="Class for handling parameters for PowerlineMapper.">
<polygon fill="white" stroke="#666666" points="354.5,-100 196.5,-100 196.5,-59 354.5,-59 354.5,-100"/>
<text text-anchor="start" x="204.5" y="-88" font-family="Helvetica,sans-Serif" font-size="10.00">iii_drone::perception</text>
<text text-anchor="start" x="204.5" y="-77" font-family="Helvetica,sans-Serif" font-size="10.00">::pl_mapper_node::Powerline</text>
<text text-anchor="middle" x="275.5" y="-66" font-family="Helvetica,sans-Serif" font-size="10.00">MapperConfigurator</text>
</a>
</g>
</g>
<!-- Node0&#45;&gt;Node7 -->
<g id="edge7_Node000000_Node000007" class="edge">
<title>Node0&#45;&gt;Node7</title>
<g id="a_edge7_Node000000_Node000007"><a xlink:title=" ">
<path fill="none" stroke="#63b8ff" d="M78.49,-205.51C95.09,-178.18 125.84,-134.13 164,-109.5 173.85,-103.14 185.04,-98.12 196.41,-94.16"/>
<polygon fill="#63b8ff" stroke="#63b8ff" points="75.29,-204.04 73.21,-214.42 81.32,-207.6 75.29,-204.04"/>
</a>
</g>
</g>
<!-- Node8 -->
<g id="Node000008" class="node">
<title>Node8</title>
<g id="a_Node000008"><a xlink:href="classiii__drone_1_1utils_1_1drone__frame__broadcaster__node_1_1DroneFrameBroadcasterConfigurator.html" target="_top" xlink:title="Class for handling parameters for HoughTransformer.">
<polygon fill="white" stroke="#666666" points="376,-41 175,-41 175,0 376,0 376,-41"/>
<text text-anchor="start" x="183" y="-29" font-family="Helvetica,sans-Serif" font-size="10.00">iii_drone::utils::drone</text>
<text text-anchor="start" x="183" y="-18" font-family="Helvetica,sans-Serif" font-size="10.00">_frame_broadcaster_node</text>
<text text-anchor="middle" x="275.5" y="-7" font-family="Helvetica,sans-Serif" font-size="10.00">::DroneFrameBroadcasterConfigurator</text>
</a>
</g>
</g>
<!-- Node0&#45;&gt;Node8 -->
<g id="edge8_Node000000_Node000008" class="edge">
<title>Node0&#45;&gt;Node8</title>
<g id="a_edge8_Node000000_Node000008"><a xlink:title=" ">
<path fill="none" stroke="#63b8ff" d="M71.94,-204.39C84.03,-165.44 112.67,-90.78 164,-50.5 168.54,-46.94 173.46,-43.8 178.63,-41.04"/>
<polygon fill="#63b8ff" stroke="#63b8ff" points="68.47,-203.78 68.97,-214.37 75.18,-205.78 68.47,-203.78"/>
</a>
</g>
</g>
</g>
</svg>
