<?xml version="1.0" encoding="UTF-8" standalone="no"?>
<!DOCTYPE svg PUBLIC "-//W3C//DTD SVG 1.1//EN"
 "http://www.w3.org/Graphics/SVG/1.1/DTD/svg11.dtd">
<!-- Generated by graphviz version 2.43.0 (0)
 -->
<!-- Title: Graphical Class Hierarchy Pages: 1 -->
<svg width="309pt" height="474pt"
 viewBox="0.00 0.00 309.00 474.00" xmlns="http://www.w3.org/2000/svg" xmlns:xlink="http://www.w3.org/1999/xlink">
<g id="graph0" class="graph" transform="scale(1 1) rotate(0) translate(4 470)">
<title>Graphical Class Hierarchy</title>
<!-- Node0 -->
<g id="Node000000" class="node">
<title>Node0</title>
<g id="a_Node000000"><a xlink:title=" ">
<polygon fill="#e0e0e0" stroke="#999999" points="77,-239 0,-239 0,-220 77,-220 77,-239"/>
<text text-anchor="middle" x="38.5" y="-227" font-family="Helvetica,sans-Serif" font-size="10.00">rclcpp::Node</text>
</a>
</g>
</g>
<!-- Node1 -->
<g id="Node000001" class="node">
<title>Node1</title>
<g id="a_Node000001"><a xlink:href="classiii__drone_1_1control_1_1flight__controller__node_1_1FlightController.html" target="_top" xlink:title="The trajectory controller node.">
<polygon fill="white" stroke="#666666" points="271,-466 143,-466 143,-425 271,-425 271,-466"/>
<text text-anchor="start" x="151" y="-454" font-family="Helvetica,sans-Serif" font-size="10.00">iii_drone::control</text>
<text text-anchor="start" x="151" y="-443" font-family="Helvetica,sans-Serif" font-size="10.00">::flight_controller</text>
<text text-anchor="middle" x="207" y="-432" font-family="Helvetica,sans-Serif" font-size="10.00">_node::FlightController</text>
</a>
</g>
</g>
<!-- Node0&#45;&gt;Node1 -->
<g id="edge14_Node000000_Node000001" class="edge">
<title>Node0&#45;&gt;Node1</title>
<g id="a_edge14_Node000000_Node000001"><a xlink:title=" ">
<path fill="none" stroke="#63b8ff" d="M41.7,-249.55C46.96,-287.62 63.7,-370.64 113,-416.5 121.42,-424.33 131.93,-430.05 142.82,-434.22"/>
<polygon fill="#63b8ff" stroke="#63b8ff" points="45.13,-248.76 40.42,-239.27 38.19,-249.63 45.13,-248.76"/>
</a>
</g>
</g>
<!-- Node2 -->
<g id="Node000002" class="node">
<title>Node2</title>
<g id="a_Node000002"><a xlink:href="classiii__drone_1_1control_1_1maneuver__controller__node_1_1ManeuverControllerNode.html" target="_top" xlink:title="The ManeuverControllerNode class. Responsible for execution of maneuvers. Uses the CombinedDroneAware...">
<polygon fill="white" stroke="#666666" points="294,-407 120,-407 120,-366 294,-366 294,-407"/>
<text text-anchor="start" x="128" y="-395" font-family="Helvetica,sans-Serif" font-size="10.00">iii_drone::control</text>
<text text-anchor="start" x="128" y="-384" font-family="Helvetica,sans-Serif" font-size="10.00">::maneuver_controller</text>
<text text-anchor="middle" x="207" y="-373" font-family="Helvetica,sans-Serif" font-size="10.00">_node::ManeuverControllerNode</text>
</a>
</g>
</g>
<!-- Node0&#45;&gt;Node2 -->
<g id="edge15_Node000000_Node000002" class="edge">
<title>Node0&#45;&gt;Node2</title>
<g id="a_edge15_Node000000_Node000002"><a xlink:title=" ">
<path fill="none" stroke="#63b8ff" d="M45.56,-248.97C55.27,-277.03 77,-328.63 113,-357.5 116.83,-360.57 120.98,-363.31 125.34,-365.77"/>
<polygon fill="#63b8ff" stroke="#63b8ff" points="48.77,-247.55 42.32,-239.15 42.13,-249.74 48.77,-247.55"/>
</a>
</g>
</g>
<!-- Node3 -->
<g id="Node000003" class="node">
<title>Node3</title>
<g id="a_Node000003"><a xlink:href="classiii__drone_1_1control_1_1trajectory__generator__node_1_1TrajectoryGeneratorNode.html" target="_top" xlink:title=" ">
<polygon fill="white" stroke="#666666" points="294,-348 120,-348 120,-307 294,-307 294,-348"/>
<text text-anchor="start" x="128" y="-336" font-family="Helvetica,sans-Serif" font-size="10.00">iii_drone::control</text>
<text text-anchor="start" x="128" y="-325" font-family="Helvetica,sans-Serif" font-size="10.00">::trajectory_generator</text>
<text text-anchor="middle" x="207" y="-314" font-family="Helvetica,sans-Serif" font-size="10.00">_node::TrajectoryGeneratorNode</text>
</a>
</g>
</g>
<!-- Node0&#45;&gt;Node3 -->
<g id="edge16_Node000000_Node000003" class="edge">
<title>Node0&#45;&gt;Node3</title>
<g id="a_edge16_Node000000_Node000003"><a xlink:title=" ">
<path fill="none" stroke="#63b8ff" d="M54.32,-246.98C68.11,-262.24 89.96,-284.02 113,-297.5 119,-301.01 125.47,-304.17 132.1,-306.99"/>
<polygon fill="#63b8ff" stroke="#63b8ff" points="56.76,-244.45 47.53,-239.26 51.51,-249.08 56.76,-244.45"/>
</a>
</g>
</g>
<!-- Node4 -->
<g id="Node000004" class="node">
<title>Node4</title>
<g id="a_Node000004"><a xlink:href="classiii__drone_1_1mission_1_1continuous__mission__orchestrator__node_1_1ContinuousMissionOrchestrator.html" target="_top" xlink:title=" ">
<polygon fill="white" stroke="#666666" points="292.5,-288.5 121.5,-288.5 121.5,-236.5 292.5,-236.5 292.5,-288.5"/>
<text text-anchor="start" x="129.5" y="-276.5" font-family="Helvetica,sans-Serif" font-size="10.00">iii_drone::mission</text>
<text text-anchor="start" x="129.5" y="-265.5" font-family="Helvetica,sans-Serif" font-size="10.00">::continuous_mission</text>
<text text-anchor="start" x="129.5" y="-254.5" font-family="Helvetica,sans-Serif" font-size="10.00">_orchestrator_node::Continuous</text>
<text text-anchor="middle" x="207" y="-243.5" font-family="Helvetica,sans-Serif" font-size="10.00">MissionOrchestrator</text>
</a>
</g>
</g>
<!-- Node0&#45;&gt;Node4 -->
<g id="edge17_Node000000_Node000004" class="edge">
<title>Node0&#45;&gt;Node4</title>
<g id="a_edge17_Node000000_Node000004"><a xlink:title=" ">
<path fill="none" stroke="#63b8ff" d="M87.26,-238.97C98.01,-241.1 109.73,-243.42 121.49,-245.75"/>
<polygon fill="#63b8ff" stroke="#63b8ff" points="87.77,-235.5 77.28,-236.99 86.41,-242.37 87.77,-235.5"/>
</a>
</g>
</g>
<!-- Node5 -->
<g id="Node000005" class="node">
<title>Node5</title>
<g id="a_Node000005"><a xlink:href="classiii__drone_1_1perception_1_1hough__transformer__node_1_1HoughTransformerNode.html" target="_top" xlink:title="Node for computing hough transform on images to detect powerline direction.">
<polygon fill="white" stroke="#666666" points="279.5,-218 134.5,-218 134.5,-177 279.5,-177 279.5,-218"/>
<text text-anchor="start" x="142.5" y="-206" font-family="Helvetica,sans-Serif" font-size="10.00">iii_drone::perception</text>
<text text-anchor="start" x="142.5" y="-195" font-family="Helvetica,sans-Serif" font-size="10.00">::hough_transformer_node</text>
<text text-anchor="middle" x="207" y="-184" font-family="Helvetica,sans-Serif" font-size="10.00">::HoughTransformerNode</text>
</a>
</g>
</g>
<!-- Node0&#45;&gt;Node5 -->
<g id="edge18_Node000000_Node000005" class="edge">
<title>Node0&#45;&gt;Node5</title>
<g id="a_edge18_Node000000_Node000005"><a xlink:title=" ">
<path fill="none" stroke="#63b8ff" d="M87.13,-220.35C101.82,-217.52 118.33,-214.35 134.27,-211.29"/>
<polygon fill="#63b8ff" stroke="#63b8ff" points="86.44,-216.91 77.28,-222.24 87.76,-223.79 86.44,-216.91"/>
</a>
</g>
</g>
<!-- Node6 -->
<g id="Node000006" class="node">
<title>Node6</title>
<g id="a_Node000006"><a xlink:href="classiii__drone_1_1perception_1_1pl__dir__computer__node_1_1PowerlineDirectionComputerNode.html" target="_top" xlink:title="Node for kalman filtering the powerline direction based on hough transform output.">
<polygon fill="white" stroke="#666666" points="301,-159 113,-159 113,-118 301,-118 301,-159"/>
<text text-anchor="start" x="121" y="-147" font-family="Helvetica,sans-Serif" font-size="10.00">iii_drone::perception</text>
<text text-anchor="start" x="121" y="-136" font-family="Helvetica,sans-Serif" font-size="10.00">::pl_dir_computer_node</text>
<text text-anchor="middle" x="207" y="-125" font-family="Helvetica,sans-Serif" font-size="10.00">::PowerlineDirectionComputerNode</text>
</a>
</g>
</g>
<!-- Node0&#45;&gt;Node6 -->
<g id="edge19_Node000000_Node000006" class="edge">
<title>Node0&#45;&gt;Node6</title>
<g id="a_edge19_Node000000_Node000006"><a xlink:title=" ">
<path fill="none" stroke="#63b8ff" d="M56,-212.62C70.06,-199.06 91.37,-180.38 113,-168.5 119.24,-165.07 125.94,-161.96 132.78,-159.15"/>
<polygon fill="#63b8ff" stroke="#63b8ff" points="53.26,-210.4 48.61,-219.92 58.18,-215.38 53.26,-210.4"/>
</a>
</g>
</g>
<!-- Node7 -->
<g id="Node000007" class="node">
<title>Node7</title>
<g id="a_Node000007"><a xlink:href="classiii__drone_1_1perception_1_1pl__mapper__node_1_1PowerlineMapperNode.html" target="_top" xlink:title="Class for computing position of powerlines from mmWave data fused with powerline direction and odomet...">
<polygon fill="white" stroke="#666666" points="286,-100 128,-100 128,-59 286,-59 286,-100"/>
<text text-anchor="start" x="136" y="-88" font-family="Helvetica,sans-Serif" font-size="10.00">iii_drone::perception</text>
<text text-anchor="start" x="136" y="-77" font-family="Helvetica,sans-Serif" font-size="10.00">::pl_mapper_node::Powerline</text>
<text text-anchor="middle" x="207" y="-66" font-family="Helvetica,sans-Serif" font-size="10.00">MapperNode</text>
</a>
</g>
</g>
<!-- Node0&#45;&gt;Node7 -->
<g id="edge20_Node000000_Node000007" class="edge">
<title>Node0&#45;&gt;Node7</title>
<g id="a_edge20_Node000000_Node000007"><a xlink:title=" ">
<path fill="none" stroke="#63b8ff" d="M46.37,-210.15C56.75,-183.66 78.91,-136.32 113,-109.5 117.53,-105.93 122.5,-102.78 127.71,-100.01"/>
<polygon fill="#63b8ff" stroke="#63b8ff" points="42.99,-209.22 42.75,-219.81 49.54,-211.67 42.99,-209.22"/>
</a>
</g>
</g>
<!-- Node8 -->
<g id="Node000008" class="node">
<title>Node8</title>
<g id="a_Node000008"><a xlink:href="classiii__drone_1_1utils_1_1drone__frame__broadcaster__node_1_1DroneFrameBroadcasterNode.html" target="_top" xlink:title=" ">
<polygon fill="white" stroke="#666666" points="290.5,-41 123.5,-41 123.5,0 290.5,0 290.5,-41"/>
<text text-anchor="start" x="131.5" y="-29" font-family="Helvetica,sans-Serif" font-size="10.00">iii_drone::utils::drone</text>
<text text-anchor="start" x="131.5" y="-18" font-family="Helvetica,sans-Serif" font-size="10.00">_frame_broadcaster_node</text>
<text text-anchor="middle" x="207" y="-7" font-family="Helvetica,sans-Serif" font-size="10.00">::DroneFrameBroadcasterNode</text>
</a>
</g>
</g>
<!-- Node0&#45;&gt;Node8 -->
<g id="edge21_Node000000_Node000008" class="edge">
<title>Node0&#45;&gt;Node8</title>
<g id="a_edge21_Node000000_Node000008"><a xlink:title=" ">
<path fill="none" stroke="#63b8ff" d="M42.1,-209.82C47.96,-173.19 65.63,-94.33 113,-50.5 116.86,-46.93 121.15,-43.78 125.71,-41.01"/>
<polygon fill="#63b8ff" stroke="#63b8ff" points="38.63,-209.34 40.63,-219.74 45.55,-210.36 38.63,-209.34"/>
</a>
</g>
</g>
</g>
</svg>
