<?xml version="1.0" encoding="UTF-8" standalone="no"?>
<!DOCTYPE svg PUBLIC "-//W3C//DTD SVG 1.1//EN"
 "http://www.w3.org/Graphics/SVG/1.1/DTD/svg11.dtd">
<!-- Generated by graphviz version 2.43.0 (0)
 -->
<!-- Title: /home/ffn/Workspace/ros2_humble_ws/src/III&#45;Drone&#45;Core/src/control/maneuver/maneuver.cpp Pages: 1 -->
<!--zoomable 379 -->

<svg id="main" version="1.1" xmlns="http://www.w3.org/2000/svg" xmlns:xlink="http://www.w3.org/1999/xlink" xml:space="preserve" onload="init(evt)">
<style type="text/css"><![CDATA[
.node, .edge {opacity: 0.7;}
.node.selected, .edge.selected {opacity: 1;}
.edge:hover path { stroke: red; }
.edge:hover polygon { stroke: red; fill: red; }
]]></style>

<defs>
  <circle id="rim" cx="0" cy="0" r="7"/>
  <circle id="rim2" cx="0" cy="0" r="3.5"/>
  <g id="zoomPlus">
    <use xlink:href="#rim" fill="#404040"><set attributeName="fill" to="#808080" begin="zoomplus.mouseover" end="zoomplus.mouseout"/></use>
    <path d="M-4,0h8M0,-4v8" fill="none" stroke="white" stroke-width="1.5" pointer-events="none"/>
  </g>
  <g id="zoomMin">
    <use xlink:href="#rim" fill="#404040"><set attributeName="fill" to="#808080" begin="zoomminus.mouseover" end="zoomminus.mouseout"/></use>
    <path d="M-4,0h8" fill="none" stroke="white" stroke-width="1.5" pointer-events="none"/>
  </g>
  <g id="arrowUp" transform="translate(30 24)">
    <use xlink:href="#rim"/>
    <path pointer-events="none" fill="none" stroke="white" stroke-width="1.5" d="M0,-3.0v7 M-2.5,-0.5L0,-3.0L2.5,-0.5"/>
  </g>
  <g id="arrowRight" transform="rotate(90) translate(36 -43)">
    <use xlink:href="#rim"/>
    <path pointer-events="none" fill="none" stroke="white" stroke-width="1.5" d="M0,-3.0v7 M-2.5,-0.5L0,-3.0L2.5,-0.5"/>
  </g>
  <g id="arrowDown" transform="rotate(180) translate(-30 -48)">
    <use xlink:href="#rim"/>
    <path pointer-events="none" fill="none" stroke="white" stroke-width="1.5" d="M0,-3.0v7 M-2.5,-0.5L0,-3.0L2.5,-0.5"/>
  </g>
  <g id="arrowLeft" transform="rotate(270) translate(-36 17)">
    <use xlink:href="#rim"/>
    <path pointer-events="none" fill="none" stroke="white" stroke-width="1.5" d="M0,-3.0v7 M-2.5,-0.5L0,-3.0L2.5,-0.5"/>
  </g>
  <g id="resetDef">
    <use xlink:href="#rim2" fill="#404040"><set attributeName="fill" to="#808080" begin="reset.mouseover" end="reset.mouseout"/></use>
  </g>
</defs>
<script type="application/ecmascript">
var viewWidth = 2292;
var viewHeight = 379;
var sectionId = 'dynsection-0';
</script>
<script type="application/ecmascript" xlink:href="svg.min.js"/>
<svg id="graph" class="graph">
<g id="viewport">
<title>/home/ffn/Workspace/ros2_humble_ws/src/III&#45;Drone&#45;Core/src/control/maneuver/maneuver.cpp</title>
<!-- Node1 -->
<g id="Node000001" class="node">
<title>Node1</title>
<g id="a_Node000001"><a xlink:title=" ">
<polygon fill="#999999" stroke="#666666" points="1326,-371 1184,-371 1184,-319 1326,-319 1326,-371"/>
<text text-anchor="start" x="1192" y="-359" font-family="Helvetica,sans-Serif" font-size="10.00">/home/ffn/Workspace</text>
<text text-anchor="start" x="1192" y="-348" font-family="Helvetica,sans-Serif" font-size="10.00">/ros2_humble_ws/src</text>
<text text-anchor="start" x="1192" y="-337" font-family="Helvetica,sans-Serif" font-size="10.00">/III&#45;Drone&#45;Core/src/control</text>
<text text-anchor="middle" x="1255" y="-326" font-family="Helvetica,sans-Serif" font-size="10.00">/maneuver/maneuver.cpp</text>
</a>
</g>
</g>
<!-- Node2 -->
<g id="Node000002" class="node">
<title>Node2</title>
<g id="a_Node000002"><a xlink:href="maneuver_8hpp.html" target="_top" xlink:title=" ">
<polygon fill="white" stroke="#666666" points="1326,-283 1184,-283 1184,-253 1326,-253 1326,-283"/>
<text text-anchor="start" x="1192" y="-271" font-family="Helvetica,sans-Serif" font-size="10.00">iii_drone_core/control</text>
<text text-anchor="middle" x="1255" y="-260" font-family="Helvetica,sans-Serif" font-size="10.00">/maneuver/maneuver.hpp</text>
</a>
</g>
</g>
<!-- Node1&#45;&gt;Node2 -->
<g id="edge1_Node000001_Node000002" class="edge">
<title>Node1&#45;&gt;Node2</title>
<g id="a_edge1_Node000001_Node000002"><a xlink:title=" ">
<path fill="none" stroke="#63b8ff" d="M1255,-318.61C1255,-310.54 1255,-301.64 1255,-293.63"/>
<polygon fill="#63b8ff" stroke="#63b8ff" points="1258.5,-293.43 1255,-283.43 1251.5,-293.43 1258.5,-293.43"/>
</a>
</g>
</g>
<!-- Node3 -->
<g id="Node000003" class="node">
<title>Node3</title>
<g id="a_Node000003"><a xlink:title=" ">
<polygon fill="#e0e0e0" stroke="#999999" points="58,-211.5 0,-211.5 0,-192.5 58,-192.5 58,-211.5"/>
<text text-anchor="middle" x="29" y="-199.5" font-family="Helvetica,sans-Serif" font-size="10.00">memory</text>
</a>
</g>
</g>
<!-- Node2&#45;&gt;Node3 -->
<g id="edge2_Node000002_Node000003" class="edge">
<title>Node2&#45;&gt;Node3</title>
<g id="a_edge2_Node000002_Node000003"><a xlink:title=" ">
<path fill="none" stroke="#63b8ff" d="M1183.93,-266.53C962.55,-264.66 287.32,-255.85 72,-217 68.49,-216.37 64.88,-215.52 61.31,-214.55"/>
<polygon fill="#63b8ff" stroke="#63b8ff" points="62.05,-211.12 51.47,-211.59 60.03,-217.82 62.05,-211.12"/>
</a>
</g>
</g>
<!-- Node4 -->
<g id="Node000004" class="node">
<title>Node4</title>
<g id="a_Node000004"><a xlink:href="types_8hpp.html" target="_top" xlink:title=" ">
<polygon fill="white" stroke="#666666" points="769.5,-85 660.5,-85 660.5,-55 769.5,-55 769.5,-85"/>
<text text-anchor="start" x="668.5" y="-73" font-family="Helvetica,sans-Serif" font-size="10.00">iii_drone_core/utils</text>
<text text-anchor="middle" x="715" y="-62" font-family="Helvetica,sans-Serif" font-size="10.00">/types.hpp</text>
</a>
</g>
</g>
<!-- Node2&#45;&gt;Node4 -->
<g id="edge3_Node000002_Node000004" class="edge">
<title>Node2&#45;&gt;Node4</title>
<g id="a_edge3_Node000002_Node000004"><a xlink:title=" ">
<path fill="none" stroke="#63b8ff" d="M1183.81,-265.46C943.65,-259.49 174.45,-234.01 105,-151 96.44,-140.77 95.97,-130.81 105,-121 141.37,-81.53 500.23,-73.22 649.94,-71.47"/>
<polygon fill="#63b8ff" stroke="#63b8ff" points="650.39,-74.96 660.35,-71.35 650.31,-67.96 650.39,-74.96"/>
</a>
</g>
</g>
<!-- Node11 -->
<g id="Node000011" class="node">
<title>Node11</title>
<g id="a_Node000011"><a xlink:href="maneuver__types_8hpp.html" target="_top" xlink:title=" ">
<polygon fill="white" stroke="#666666" points="1207.5,-217 1032.5,-217 1032.5,-187 1207.5,-187 1207.5,-217"/>
<text text-anchor="start" x="1040.5" y="-205" font-family="Helvetica,sans-Serif" font-size="10.00">iii_drone_core/control</text>
<text text-anchor="middle" x="1120" y="-194" font-family="Helvetica,sans-Serif" font-size="10.00">/maneuver/maneuver_types.hpp</text>
</a>
</g>
</g>
<!-- Node2&#45;&gt;Node11 -->
<g id="edge10_Node000002_Node000011" class="edge">
<title>Node2&#45;&gt;Node11</title>
<g id="a_edge10_Node000002_Node000011"><a xlink:title=" ">
<path fill="none" stroke="#63b8ff" d="M1225.37,-252.95C1205.77,-243.66 1179.86,-231.38 1158.63,-221.32"/>
<polygon fill="#63b8ff" stroke="#63b8ff" points="1160.09,-218.13 1149.56,-217.01 1157.09,-224.46 1160.09,-218.13"/>
</a>
</g>
</g>
<!-- Node17 -->
<g id="Node000017" class="node">
<title>Node17</title>
<g id="a_Node000017"><a xlink:title=" ">
<polygon fill="#e0e0e0" stroke="#999999" points="259.5,-151 114.5,-151 114.5,-121 259.5,-121 259.5,-151"/>
<text text-anchor="start" x="122.5" y="-139" font-family="Helvetica,sans-Serif" font-size="10.00">iii_drone_interfaces</text>
<text text-anchor="middle" x="187" y="-128" font-family="Helvetica,sans-Serif" font-size="10.00">/action/fly_to_position.hpp</text>
</a>
</g>
</g>
<!-- Node2&#45;&gt;Node17 -->
<g id="edge31_Node000002_Node000017" class="edge">
<title>Node2&#45;&gt;Node17</title>
<g id="a_edge31_Node000002_Node000017"><a xlink:title=" ">
<path fill="none" stroke="#63b8ff" d="M1183.8,-262.69C1073.62,-255.61 855.28,-239.98 671,-217 494.58,-195 449.2,-181.4 269.91,-151.15"/>
<polygon fill="#63b8ff" stroke="#63b8ff" points="270.32,-147.67 259.87,-149.47 269.15,-154.58 270.32,-147.67"/>
</a>
</g>
</g>
<!-- Node18 -->
<g id="Node000018" class="node">
<title>Node18</title>
<g id="a_Node000018"><a xlink:title=" ">
<polygon fill="#e0e0e0" stroke="#999999" points="414,-151 278,-151 278,-121 414,-121 414,-151"/>
<text text-anchor="start" x="286" y="-139" font-family="Helvetica,sans-Serif" font-size="10.00">iii_drone_interfaces</text>
<text text-anchor="middle" x="346" y="-128" font-family="Helvetica,sans-Serif" font-size="10.00">/action/fly_to_object.hpp</text>
</a>
</g>
</g>
<!-- Node2&#45;&gt;Node18 -->
<g id="edge32_Node000002_Node000018" class="edge">
<title>Node2&#45;&gt;Node18</title>
<g id="a_edge32_Node000002_Node000018"><a xlink:title=" ">
<path fill="none" stroke="#63b8ff" d="M1183.9,-258.09C1041.67,-240.06 711.82,-197.13 424.61,-151.22"/>
<polygon fill="#63b8ff" stroke="#63b8ff" points="424.84,-147.72 414.41,-149.59 423.73,-154.63 424.84,-147.72"/>
</a>
</g>
</g>
<!-- Node19 -->
<g id="Node000019" class="node">
<title>Node19</title>
<g id="a_Node000019"><a xlink:title=" ">
<polygon fill="#e0e0e0" stroke="#999999" points="1878.5,-151 1737.5,-151 1737.5,-121 1878.5,-121 1878.5,-151"/>
<text text-anchor="start" x="1745.5" y="-139" font-family="Helvetica,sans-Serif" font-size="10.00">iii_drone_interfaces</text>
<text text-anchor="middle" x="1808" y="-128" font-family="Helvetica,sans-Serif" font-size="10.00">/action/cable_landing.hpp</text>
</a>
</g>
</g>
<!-- Node2&#45;&gt;Node19 -->
<g id="edge33_Node000002_Node000019" class="edge">
<title>Node2&#45;&gt;Node19</title>
<g id="a_edge33_Node000002_Node000019"><a xlink:title=" ">
<path fill="none" stroke="#63b8ff" d="M1250.98,-252.94C1246.81,-235.01 1243.01,-204.25 1260,-187 1296.21,-150.24 1671.77,-157.2 1723,-151 1724.29,-150.84 1725.6,-150.68 1726.91,-150.51"/>
<polygon fill="#63b8ff" stroke="#63b8ff" points="1727.66,-153.95 1737.1,-149.14 1726.73,-147.01 1727.66,-153.95"/>
</a>
</g>
</g>
<!-- Node20 -->
<g id="Node000020" class="node">
<title>Node20</title>
<g id="a_Node000020"><a xlink:title=" ">
<polygon fill="#e0e0e0" stroke="#999999" points="2035.5,-151 1896.5,-151 1896.5,-121 2035.5,-121 2035.5,-151"/>
<text text-anchor="start" x="1904.5" y="-139" font-family="Helvetica,sans-Serif" font-size="10.00">iii_drone_interfaces</text>
<text text-anchor="middle" x="1966" y="-128" font-family="Helvetica,sans-Serif" font-size="10.00">/action/cable_takeoff.hpp</text>
</a>
</g>
</g>
<!-- Node2&#45;&gt;Node20 -->
<g id="edge34_Node000002_Node000020" class="edge">
<title>Node2&#45;&gt;Node20</title>
<g id="a_edge34_Node000002_Node000020"><a xlink:title=" ">
<path fill="none" stroke="#63b8ff" d="M1258.12,-252.83C1263.07,-234.16 1274.62,-201.96 1298,-187 1351.21,-152.95 1787.63,-158.33 1886.24,-150.87"/>
<polygon fill="#63b8ff" stroke="#63b8ff" points="1886.69,-154.34 1896.32,-149.92 1886.04,-147.38 1886.69,-154.34"/>
</a>
</g>
</g>
<!-- Node23 -->
<g id="Node000023" class="node">
<title>Node23</title>
<g id="a_Node000023"><a xlink:title=" ">
<polygon fill="#e0e0e0" stroke="#999999" points="2152.5,-145.5 2053.5,-145.5 2053.5,-126.5 2152.5,-126.5 2152.5,-145.5"/>
<text text-anchor="middle" x="2103" y="-133.5" font-family="Helvetica,sans-Serif" font-size="10.00">rclcpp/rclcpp.hpp</text>
</a>
</g>
</g>
<!-- Node2&#45;&gt;Node23 -->
<g id="edge38_Node000002_Node000023" class="edge">
<title>Node2&#45;&gt;Node23</title>
<g id="a_edge38_Node000002_Node000023"><a xlink:title=" ">
<path fill="none" stroke="#63b8ff" d="M1266.97,-252.97C1285.17,-232.04 1319.45,-194.29 1336,-187 1480.37,-123.4 1888.87,-173.61 2045,-151 2050.57,-150.19 2056.4,-149.1 2062.11,-147.87"/>
<polygon fill="#63b8ff" stroke="#63b8ff" points="2063.24,-151.2 2072.2,-145.56 2061.67,-144.38 2063.24,-151.2"/>
</a>
</g>
</g>
<!-- Node24 -->
<g id="Node000024" class="node">
<title>Node24</title>
<g id="a_Node000024"><a xlink:title=" ">
<polygon fill="#e0e0e0" stroke="#999999" points="2283.5,-151 2170.5,-151 2170.5,-121 2283.5,-121 2283.5,-151"/>
<text text-anchor="start" x="2178.5" y="-139" font-family="Helvetica,sans-Serif" font-size="10.00">rclcpp_action/rclcpp</text>
<text text-anchor="middle" x="2227" y="-128" font-family="Helvetica,sans-Serif" font-size="10.00">_action.hpp</text>
</a>
</g>
</g>
<!-- Node2&#45;&gt;Node24 -->
<g id="edge39_Node000002_Node000024" class="edge">
<title>Node2&#45;&gt;Node24</title>
<g id="a_edge39_Node000002_Node000024"><a xlink:title=" ">
<path fill="none" stroke="#63b8ff" d="M1277.94,-252.88C1293.45,-243.15 1314.25,-229.73 1332,-217 1349.49,-204.46 1349.84,-194.52 1370,-187 1532.1,-126.57 1971.03,-171.92 2160.19,-151"/>
<polygon fill="#63b8ff" stroke="#63b8ff" points="2160.86,-154.44 2170.38,-149.78 2160.03,-147.49 2160.86,-154.44"/>
</a>
</g>
</g>
<!-- Node28 -->
<g id="Node000028" class="node">
<title>Node28</title>
<g id="a_Node000028"><a xlink:title=" ">
<polygon fill="#e0e0e0" stroke="#999999" points="1491.5,-217 1378.5,-217 1378.5,-187 1491.5,-187 1491.5,-217"/>
<text text-anchor="start" x="1386.5" y="-205" font-family="Helvetica,sans-Serif" font-size="10.00">iii_drone_interfaces</text>
<text text-anchor="middle" x="1435" y="-194" font-family="Helvetica,sans-Serif" font-size="10.00">/action/hover.hpp</text>
</a>
</g>
</g>
<!-- Node2&#45;&gt;Node28 -->
<g id="edge35_Node000002_Node000028" class="edge">
<title>Node2&#45;&gt;Node28</title>
<g id="a_edge35_Node000002_Node000028"><a xlink:title=" ">
<path fill="none" stroke="#63b8ff" d="M1294.5,-252.95C1321.47,-243.37 1357.37,-230.6 1386.13,-220.37"/>
<polygon fill="#63b8ff" stroke="#63b8ff" points="1387.34,-223.66 1395.59,-217.01 1385,-217.06 1387.34,-223.66"/>
</a>
</g>
</g>
<!-- Node29 -->
<g id="Node000029" class="node">
<title>Node29</title>
<g id="a_Node000029"><a xlink:title=" ">
<polygon fill="#e0e0e0" stroke="#999999" points="1664,-217 1510,-217 1510,-187 1664,-187 1664,-217"/>
<text text-anchor="start" x="1518" y="-205" font-family="Helvetica,sans-Serif" font-size="10.00">iii_drone_interfaces</text>
<text text-anchor="middle" x="1587" y="-194" font-family="Helvetica,sans-Serif" font-size="10.00">/action/hover_by_object.hpp</text>
</a>
</g>
</g>
<!-- Node2&#45;&gt;Node29 -->
<g id="edge36_Node000002_Node000029" class="edge">
<title>Node2&#45;&gt;Node29</title>
<g id="a_edge36_Node000002_Node000029"><a xlink:title=" ">
<path fill="none" stroke="#63b8ff" d="M1326.22,-253.27C1378.42,-243.21 1449.42,-229.52 1504.15,-218.97"/>
<polygon fill="#63b8ff" stroke="#63b8ff" points="1505.02,-222.37 1514.17,-217.04 1503.69,-215.49 1505.02,-222.37"/>
</a>
</g>
</g>
<!-- Node30 -->
<g id="Node000030" class="node">
<title>Node30</title>
<g id="a_Node000030"><a xlink:title=" ">
<polygon fill="#e0e0e0" stroke="#999999" points="1832,-217 1682,-217 1682,-187 1832,-187 1832,-217"/>
<text text-anchor="start" x="1690" y="-205" font-family="Helvetica,sans-Serif" font-size="10.00">iii_drone_interfaces</text>
<text text-anchor="middle" x="1757" y="-194" font-family="Helvetica,sans-Serif" font-size="10.00">/action/hover_on_cable.hpp</text>
</a>
</g>
</g>
<!-- Node2&#45;&gt;Node30 -->
<g id="edge37_Node000002_Node000030" class="edge">
<title>Node2&#45;&gt;Node30</title>
<g id="a_edge37_Node000002_Node000030"><a xlink:title=" ">
<path fill="none" stroke="#63b8ff" d="M1326.13,-259.5C1407.3,-250.72 1544.28,-235.2 1671.96,-217.11"/>
<polygon fill="#63b8ff" stroke="#63b8ff" points="1672.51,-220.57 1681.92,-215.69 1671.53,-213.64 1672.51,-220.57"/>
</a>
</g>
</g>
<!-- Node5 -->
<g id="Node000005" class="node">
<title>Node5</title>
<g id="a_Node000005"><a xlink:title=" ">
<polygon fill="#e0e0e0" stroke="#999999" points="928.5,-19 823.5,-19 823.5,0 928.5,0 928.5,-19"/>
<text text-anchor="middle" x="876" y="-7" font-family="Helvetica,sans-Serif" font-size="10.00">eigen3/Eigen/Core</text>
</a>
</g>
</g>
<!-- Node4&#45;&gt;Node5 -->
<g id="edge4_Node000004_Node000005" class="edge">
<title>Node4&#45;&gt;Node5</title>
<g id="a_edge4_Node000004_Node000005"><a xlink:title=" ">
<path fill="none" stroke="#63b8ff" d="M753.56,-54.99C780.79,-45.1 816.88,-31.98 842.82,-22.56"/>
<polygon fill="#63b8ff" stroke="#63b8ff" points="844.02,-25.84 852.22,-19.14 841.63,-19.26 844.02,-25.84"/>
</a>
</g>
</g>
<!-- Node6 -->
<g id="Node000006" class="node">
<title>Node6</title>
<g id="a_Node000006"><a xlink:title=" ">
<polygon fill="#e0e0e0" stroke="#999999" points="1561,-19 1393,-19 1393,0 1561,0 1561,-19"/>
<text text-anchor="middle" x="1477" y="-7" font-family="Helvetica,sans-Serif" font-size="10.00">geometry_msgs/msg/point.hpp</text>
</a>
</g>
</g>
<!-- Node4&#45;&gt;Node6 -->
<g id="edge5_Node000004_Node000006" class="edge">
<title>Node4&#45;&gt;Node6</title>
<g id="a_edge5_Node000004_Node000006"><a xlink:title=" ">
<path fill="none" stroke="#63b8ff" d="M769.71,-56.46C772.85,-55.92 775.96,-55.43 779,-55 993.46,-24.88 1247.89,-15.13 1382.5,-11.99"/>
<polygon fill="#63b8ff" stroke="#63b8ff" points="1382.86,-15.48 1392.78,-11.75 1382.7,-8.48 1382.86,-15.48"/>
</a>
</g>
</g>
<!-- Node7 -->
<g id="Node000007" class="node">
<title>Node7</title>
<g id="a_Node000007"><a xlink:title=" ">
<polygon fill="#e0e0e0" stroke="#999999" points="1143,-19 947,-19 947,0 1143,0 1143,-19"/>
<text text-anchor="middle" x="1045" y="-7" font-family="Helvetica,sans-Serif" font-size="10.00">geometry_msgs/msg/quaternion.hpp</text>
</a>
</g>
</g>
<!-- Node4&#45;&gt;Node7 -->
<g id="edge6_Node000004_Node000007" class="edge">
<title>Node4&#45;&gt;Node7</title>
<g id="a_edge6_Node000004_Node000007"><a xlink:title=" ">
<path fill="none" stroke="#63b8ff" d="M769.78,-56.83C772.89,-56.2 775.98,-55.58 779,-55 846.92,-41.9 925.03,-29.1 978.95,-20.62"/>
<polygon fill="#63b8ff" stroke="#63b8ff" points="979.73,-24.04 989.07,-19.03 978.65,-17.12 979.73,-24.04"/>
</a>
</g>
</g>
<!-- Node8 -->
<g id="Node000008" class="node">
<title>Node8</title>
<g id="a_Node000008"><a xlink:title=" ">
<polygon fill="#e0e0e0" stroke="#999999" points="397.5,-19 230.5,-19 230.5,0 397.5,0 397.5,-19"/>
<text text-anchor="middle" x="314" y="-7" font-family="Helvetica,sans-Serif" font-size="10.00">geometry_msgs/msg/pose.hpp</text>
</a>
</g>
</g>
<!-- Node4&#45;&gt;Node8 -->
<g id="edge7_Node000004_Node000008" class="edge">
<title>Node4&#45;&gt;Node8</title>
<g id="a_edge7_Node000004_Node000008"><a xlink:title=" ">
<path fill="none" stroke="#63b8ff" d="M660.08,-60.99C587.93,-50.46 461.19,-31.97 382.74,-20.53"/>
<polygon fill="#63b8ff" stroke="#63b8ff" points="382.88,-17.01 372.48,-19.03 381.87,-23.94 382.88,-17.01"/>
</a>
</g>
</g>
<!-- Node9 -->
<g id="Node000009" class="node">
<title>Node9</title>
<g id="a_Node000009"><a xlink:title=" ">
<polygon fill="#e0e0e0" stroke="#999999" points="606.5,-19 415.5,-19 415.5,0 606.5,0 606.5,-19"/>
<text text-anchor="middle" x="511" y="-7" font-family="Helvetica,sans-Serif" font-size="10.00">geometry_msgs/msg/transform.hpp</text>
</a>
</g>
</g>
<!-- Node4&#45;&gt;Node9 -->
<g id="edge8_Node000004_Node000009" class="edge">
<title>Node4&#45;&gt;Node9</title>
<g id="a_edge8_Node000004_Node000009"><a xlink:title=" ">
<path fill="none" stroke="#63b8ff" d="M666.14,-54.99C630.78,-44.85 583.6,-31.32 550.59,-21.85"/>
<polygon fill="#63b8ff" stroke="#63b8ff" points="551.41,-18.45 540.83,-19.05 549.48,-25.17 551.41,-18.45"/>
</a>
</g>
</g>
<!-- Node10 -->
<g id="Node000010" class="node">
<title>Node10</title>
<g id="a_Node000010"><a xlink:title=" ">
<polygon fill="#e0e0e0" stroke="#999999" points="805,-19 625,-19 625,0 805,0 805,-19"/>
<text text-anchor="middle" x="715" y="-7" font-family="Helvetica,sans-Serif" font-size="10.00">geometry_msgs/msg/vector3.hpp</text>
</a>
</g>
</g>
<!-- Node4&#45;&gt;Node10 -->
<g id="edge9_Node000004_Node000010" class="edge">
<title>Node4&#45;&gt;Node10</title>
<g id="a_edge9_Node000004_Node000010"><a xlink:title=" ">
<path fill="none" stroke="#63b8ff" d="M715,-54.84C715,-47.21 715,-37.7 715,-29.45"/>
<polygon fill="#63b8ff" stroke="#63b8ff" points="718.5,-29.27 715,-19.27 711.5,-29.27 718.5,-29.27"/>
</a>
</g>
</g>
<!-- Node11&#45;&gt;Node4 -->
<g id="edge11_Node000011_Node000004" class="edge">
<title>Node11&#45;&gt;Node4</title>
<g id="a_edge11_Node000011_Node000004"><a xlink:title=" ">
<path fill="none" stroke="#63b8ff" d="M1032.45,-200.74C932.61,-198.59 777.66,-188.99 735,-151 719.52,-137.22 715.15,-113.44 714.28,-95.38"/>
<polygon fill="#63b8ff" stroke="#63b8ff" points="717.78,-95.21 714.12,-85.27 710.78,-95.32 717.78,-95.21"/>
</a>
</g>
</g>
<!-- Node11&#45;&gt;Node6 -->
<g id="edge29_Node000011_Node000006" class="edge">
<title>Node11&#45;&gt;Node6</title>
<g id="a_edge29_Node000011_Node000006"><a xlink:title=" ">
<path fill="none" stroke="#63b8ff" d="M1207.69,-190.75C1219.88,-189.43 1232.25,-188.14 1244,-187 1293.49,-182.21 1656.29,-187.54 1690,-151 1746.96,-89.25 1602.65,-41.89 1524,-21.48"/>
<polygon fill="#63b8ff" stroke="#63b8ff" points="1524.85,-18.08 1514.29,-19.01 1523.12,-24.87 1524.85,-18.08"/>
</a>
</g>
</g>
<!-- Node12 -->
<g id="Node000012" class="node">
<title>Node12</title>
<g id="a_Node000012"><a xlink:href="target__adapter_8hpp.html" target="_top" xlink:title=" ">
<polygon fill="white" stroke="#666666" points="875.5,-151 744.5,-151 744.5,-121 875.5,-121 875.5,-151"/>
<text text-anchor="start" x="752.5" y="-139" font-family="Helvetica,sans-Serif" font-size="10.00">iii_drone_core/adapters</text>
<text text-anchor="middle" x="810" y="-128" font-family="Helvetica,sans-Serif" font-size="10.00">/target_adapter.hpp</text>
</a>
</g>
</g>
<!-- Node11&#45;&gt;Node12 -->
<g id="edge12_Node000011_Node000012" class="edge">
<title>Node11&#45;&gt;Node12</title>
<g id="a_edge12_Node000011_Node000012"><a xlink:title=" ">
<path fill="none" stroke="#63b8ff" d="M1051.97,-186.95C1002.84,-176.81 936.49,-163.11 885.69,-152.63"/>
<polygon fill="#63b8ff" stroke="#63b8ff" points="886.25,-149.17 875.75,-150.57 884.83,-156.02 886.25,-149.17"/>
</a>
</g>
</g>
<!-- Node13 -->
<g id="Node000013" class="node">
<title>Node13</title>
<g id="a_Node000013"><a xlink:title=" ">
<polygon fill="#e0e0e0" stroke="#999999" points="963.5,-85 850.5,-85 850.5,-55 963.5,-55 963.5,-85"/>
<text text-anchor="start" x="858.5" y="-73" font-family="Helvetica,sans-Serif" font-size="10.00">iii_drone_interfaces</text>
<text text-anchor="middle" x="907" y="-62" font-family="Helvetica,sans-Serif" font-size="10.00">/msg/target.hpp</text>
</a>
</g>
</g>
<!-- Node11&#45;&gt;Node13 -->
<g id="edge24_Node000011_Node000013" class="edge">
<title>Node11&#45;&gt;Node13</title>
<g id="a_edge24_Node000011_Node000013"><a xlink:title=" ">
<path fill="none" stroke="#63b8ff" d="M1032.37,-188.13C987.23,-179.73 938.46,-167.28 923,-151 909.02,-136.29 905.68,-112.99 905.44,-95.32"/>
<polygon fill="#63b8ff" stroke="#63b8ff" points="908.95,-95.24 905.63,-85.17 901.95,-95.11 908.95,-95.24"/>
</a>
</g>
</g>
<!-- Node15 -->
<g id="Node000015" class="node">
<title>Node15</title>
<g id="a_Node000015"><a xlink:title=" ">
<polygon fill="#e0e0e0" stroke="#999999" points="1045.5,-151 932.5,-151 932.5,-121 1045.5,-121 1045.5,-151"/>
<text text-anchor="start" x="940.5" y="-139" font-family="Helvetica,sans-Serif" font-size="10.00">iii_drone_interfaces</text>
<text text-anchor="middle" x="989" y="-128" font-family="Helvetica,sans-Serif" font-size="10.00">/action/takeoff.hpp</text>
</a>
</g>
</g>
<!-- Node11&#45;&gt;Node15 -->
<g id="edge16_Node000011_Node000015" class="edge">
<title>Node11&#45;&gt;Node15</title>
<g id="a_edge16_Node000011_Node000015"><a xlink:title=" ">
<path fill="none" stroke="#63b8ff" d="M1091.25,-186.95C1072.31,-177.7 1047.31,-165.49 1026.77,-155.45"/>
<polygon fill="#63b8ff" stroke="#63b8ff" points="1028.2,-152.26 1017.68,-151.01 1025.13,-158.55 1028.2,-152.26"/>
</a>
</g>
</g>
<!-- Node16 -->
<g id="Node000016" class="node">
<title>Node16</title>
<g id="a_Node000016"><a xlink:title=" ">
<polygon fill="#e0e0e0" stroke="#999999" points="1176.5,-151 1063.5,-151 1063.5,-121 1176.5,-121 1176.5,-151"/>
<text text-anchor="start" x="1071.5" y="-139" font-family="Helvetica,sans-Serif" font-size="10.00">iii_drone_interfaces</text>
<text text-anchor="middle" x="1120" y="-128" font-family="Helvetica,sans-Serif" font-size="10.00">/action/landing.hpp</text>
</a>
</g>
</g>
<!-- Node11&#45;&gt;Node16 -->
<g id="edge17_Node000011_Node000016" class="edge">
<title>Node11&#45;&gt;Node16</title>
<g id="a_edge17_Node000011_Node000016"><a xlink:title=" ">
<path fill="none" stroke="#63b8ff" d="M1120,-186.8C1120,-179.34 1120,-169.99 1120,-161.41"/>
<polygon fill="#63b8ff" stroke="#63b8ff" points="1123.5,-161.16 1120,-151.16 1116.5,-161.16 1123.5,-161.16"/>
</a>
</g>
</g>
<!-- Node11&#45;&gt;Node17 -->
<g id="edge18_Node000011_Node000017" class="edge">
<title>Node11&#45;&gt;Node17</title>
<g id="a_edge18_Node000011_Node000017"><a xlink:title=" ">
<path fill="none" stroke="#63b8ff" d="M1032.44,-199.04C879.68,-194.93 554.46,-183.05 269.92,-151.01"/>
<polygon fill="#63b8ff" stroke="#63b8ff" points="270.15,-147.51 259.82,-149.86 269.36,-154.47 270.15,-147.51"/>
</a>
</g>
</g>
<!-- Node11&#45;&gt;Node18 -->
<g id="edge19_Node000011_Node000018" class="edge">
<title>Node11&#45;&gt;Node18</title>
<g id="a_edge19_Node000011_Node000018"><a xlink:title=" ">
<path fill="none" stroke="#63b8ff" d="M1032.5,-197.77C902.08,-192.27 648.86,-178.99 424.37,-151.08"/>
<polygon fill="#63b8ff" stroke="#63b8ff" points="424.73,-147.6 414.37,-149.83 423.86,-154.55 424.73,-147.6"/>
</a>
</g>
</g>
<!-- Node11&#45;&gt;Node19 -->
<g id="edge20_Node000011_Node000019" class="edge">
<title>Node11&#45;&gt;Node19</title>
<g id="a_edge20_Node000011_Node000019"><a xlink:title=" ">
<path fill="none" stroke="#63b8ff" d="M1207.59,-188.61C1212.46,-188.03 1217.29,-187.49 1222,-187 1444.03,-163.81 1501.3,-177.17 1723,-151 1724.29,-150.85 1725.6,-150.69 1726.91,-150.52"/>
<polygon fill="#63b8ff" stroke="#63b8ff" points="1727.65,-153.96 1737.11,-149.17 1726.73,-147.02 1727.65,-153.96"/>
</a>
</g>
</g>
<!-- Node11&#45;&gt;Node20 -->
<g id="edge21_Node000011_Node000020" class="edge">
<title>Node11&#45;&gt;Node20</title>
<g id="a_edge21_Node000011_Node000020"><a xlink:title=" ">
<path fill="none" stroke="#63b8ff" d="M1207.7,-191.65C1225.02,-189.97 1243.08,-188.33 1260,-187 1535.44,-165.34 1608.65,-183.32 1886.36,-151.1"/>
<polygon fill="#63b8ff" stroke="#63b8ff" points="1886.8,-154.57 1896.32,-149.94 1885.98,-147.62 1886.8,-154.57"/>
</a>
</g>
</g>
<!-- Node21 -->
<g id="Node000021" class="node">
<title>Node21</title>
<g id="a_Node000021"><a xlink:title=" ">
<polygon fill="#e0e0e0" stroke="#999999" points="1351,-151 1195,-151 1195,-121 1351,-121 1351,-151"/>
<text text-anchor="start" x="1203" y="-139" font-family="Helvetica,sans-Serif" font-size="10.00">iii_drone_interfaces</text>
<text text-anchor="middle" x="1273" y="-128" font-family="Helvetica,sans-Serif" font-size="10.00">/action/disarm_on_cable.hpp</text>
</a>
</g>
</g>
<!-- Node11&#45;&gt;Node21 -->
<g id="edge22_Node000011_Node000021" class="edge">
<title>Node11&#45;&gt;Node21</title>
<g id="a_edge22_Node000011_Node000021"><a xlink:title=" ">
<path fill="none" stroke="#63b8ff" d="M1153.58,-186.95C1176.1,-177.53 1205.96,-165.04 1230.18,-154.91"/>
<polygon fill="#63b8ff" stroke="#63b8ff" points="1231.63,-158.1 1239.5,-151.01 1228.93,-151.64 1231.63,-158.1"/>
</a>
</g>
</g>
<!-- Node22 -->
<g id="Node000022" class="node">
<title>Node22</title>
<g id="a_Node000022"><a xlink:title=" ">
<polygon fill="#e0e0e0" stroke="#999999" points="1511,-151 1369,-151 1369,-121 1511,-121 1511,-151"/>
<text text-anchor="start" x="1377" y="-139" font-family="Helvetica,sans-Serif" font-size="10.00">iii_drone_interfaces</text>
<text text-anchor="middle" x="1440" y="-128" font-family="Helvetica,sans-Serif" font-size="10.00">/action/arm_on_cable.hpp</text>
</a>
</g>
</g>
<!-- Node11&#45;&gt;Node22 -->
<g id="edge23_Node000011_Node000022" class="edge">
<title>Node11&#45;&gt;Node22</title>
<g id="a_edge23_Node000011_Node000022"><a xlink:title=" ">
<path fill="none" stroke="#63b8ff" d="M1190.23,-186.95C1240.35,-176.93 1307.85,-163.43 1360.05,-152.99"/>
<polygon fill="#63b8ff" stroke="#63b8ff" points="1360.82,-156.41 1369.94,-151.01 1359.45,-149.54 1360.82,-156.41"/>
</a>
</g>
</g>
<!-- Node11&#45;&gt;Node23 -->
<g id="edge25_Node000011_Node000023" class="edge">
<title>Node11&#45;&gt;Node23</title>
<g id="a_edge25_Node000011_Node000023"><a xlink:title=" ">
<path fill="none" stroke="#63b8ff" d="M1207.78,-193.56C1236.52,-191.27 1268.61,-188.86 1298,-187 1629.72,-165.97 1715.98,-198.21 2045,-151 2050.78,-150.17 2056.83,-149.03 2062.74,-147.75"/>
<polygon fill="#63b8ff" stroke="#63b8ff" points="2063.55,-151.16 2072.51,-145.5 2061.98,-144.33 2063.55,-151.16"/>
</a>
</g>
</g>
<!-- Node11&#45;&gt;Node24 -->
<g id="edge26_Node000011_Node000024" class="edge">
<title>Node11&#45;&gt;Node24</title>
<g id="a_edge26_Node000011_Node000024"><a xlink:title=" ">
<path fill="none" stroke="#63b8ff" d="M1207.73,-194.89C1246.96,-192.27 1293.79,-189.29 1336,-187 1699.61,-167.3 1795.81,-197.3 2160.34,-151.07"/>
<polygon fill="#63b8ff" stroke="#63b8ff" points="2160.9,-154.52 2170.38,-149.78 2160.01,-147.58 2160.9,-154.52"/>
</a>
</g>
</g>
<!-- Node25 -->
<g id="Node000025" class="node">
<title>Node25</title>
<g id="a_Node000025"><a xlink:title=" ">
<polygon fill="#e0e0e0" stroke="#999999" points="1681,-151 1529,-151 1529,-121 1681,-121 1681,-151"/>
<text text-anchor="start" x="1537" y="-139" font-family="Helvetica,sans-Serif" font-size="10.00">rclcpp_components/register</text>
<text text-anchor="middle" x="1605" y="-128" font-family="Helvetica,sans-Serif" font-size="10.00">_node_macro.hpp</text>
</a>
</g>
</g>
<!-- Node11&#45;&gt;Node25 -->
<g id="edge27_Node000011_Node000025" class="edge">
<title>Node11&#45;&gt;Node25</title>
<g id="a_edge27_Node000011_Node000025"><a xlink:title=" ">
<path fill="none" stroke="#63b8ff" d="M1207.62,-188.88C1212.48,-188.24 1217.3,-187.61 1222,-187 1351.08,-170.35 1386.23,-169.86 1518.46,-151.18"/>
<polygon fill="#63b8ff" stroke="#63b8ff" points="1519.16,-154.62 1528.57,-149.75 1518.18,-147.69 1519.16,-154.62"/>
</a>
</g>
</g>
<!-- Node26 -->
<g id="Node000026" class="node">
<title>Node26</title>
<g id="a_Node000026"><a xlink:title=" ">
<polygon fill="#e0e0e0" stroke="#999999" points="522,-145.5 432,-145.5 432,-126.5 522,-126.5 522,-145.5"/>
<text text-anchor="middle" x="477" y="-133.5" font-family="Helvetica,sans-Serif" font-size="10.00">tf2_ros/buffer.h</text>
</a>
</g>
</g>
<!-- Node11&#45;&gt;Node26 -->
<g id="edge28_Node000011_Node000026" class="edge">
<title>Node11&#45;&gt;Node26</title>
<g id="a_edge28_Node000011_Node000026"><a xlink:title=" ">
<path fill="none" stroke="#63b8ff" d="M1032.1,-198.17C916.46,-193.4 707.27,-181.11 531,-151 526.18,-150.18 521.16,-149.13 516.21,-147.99"/>
<polygon fill="#63b8ff" stroke="#63b8ff" points="516.78,-144.53 506.23,-145.54 515.11,-151.32 516.78,-144.53"/>
</a>
</g>
</g>
<!-- Node27 -->
<g id="Node000027" class="node">
<title>Node27</title>
<g id="a_Node000027"><a xlink:title=" ">
<polygon fill="#e0e0e0" stroke="#999999" points="687.5,-151 540.5,-151 540.5,-121 687.5,-121 687.5,-151"/>
<text text-anchor="start" x="548.5" y="-139" font-family="Helvetica,sans-Serif" font-size="10.00">geometry_msgs/msg/point</text>
<text text-anchor="middle" x="614" y="-128" font-family="Helvetica,sans-Serif" font-size="10.00">_stamped.hpp</text>
</a>
</g>
</g>
<!-- Node11&#45;&gt;Node27 -->
<g id="edge30_Node000011_Node000027" class="edge">
<title>Node11&#45;&gt;Node27</title>
<g id="a_edge30_Node000011_Node000027"><a xlink:title=" ">
<path fill="none" stroke="#63b8ff" d="M1032.21,-191.5C947.53,-182.1 815.83,-166.86 702,-151 700.71,-150.82 699.4,-150.64 698.09,-150.45"/>
<polygon fill="#63b8ff" stroke="#63b8ff" points="698.31,-146.95 687.91,-148.97 697.3,-153.87 698.31,-146.95"/>
</a>
</g>
</g>
<!-- Node12&#45;&gt;Node4 -->
<g id="edge13_Node000012_Node000004" class="edge">
<title>Node12&#45;&gt;Node4</title>
<g id="a_edge13_Node000012_Node000004"><a xlink:title=" ">
<path fill="none" stroke="#63b8ff" d="M788.92,-120.8C775.88,-112.01 758.95,-100.61 744.58,-90.93"/>
<polygon fill="#63b8ff" stroke="#63b8ff" points="746.27,-87.85 736.02,-85.16 742.36,-93.65 746.27,-87.85"/>
</a>
</g>
</g>
<!-- Node12&#45;&gt;Node13 -->
<g id="edge14_Node000012_Node000013" class="edge">
<title>Node12&#45;&gt;Node13</title>
<g id="a_edge14_Node000012_Node000013"><a xlink:title=" ">
<path fill="none" stroke="#63b8ff" d="M831.53,-120.8C844.84,-112.01 862.13,-100.61 876.8,-90.93"/>
<polygon fill="#63b8ff" stroke="#63b8ff" points="879.11,-93.59 885.53,-85.16 875.26,-87.75 879.11,-93.59"/>
</a>
</g>
</g>
<!-- Node14 -->
<g id="Node000014" class="node">
<title>Node14</title>
<g id="a_Node000014"><a xlink:title=" ">
<polygon fill="#e0e0e0" stroke="#999999" points="832,-79.5 788,-79.5 788,-60.5 832,-60.5 832,-79.5"/>
<text text-anchor="middle" x="810" y="-67.5" font-family="Helvetica,sans-Serif" font-size="10.00">string</text>
</a>
</g>
</g>
<!-- Node12&#45;&gt;Node14 -->
<g id="edge15_Node000012_Node000014" class="edge">
<title>Node12&#45;&gt;Node14</title>
<g id="a_edge15_Node000012_Node000014"><a xlink:title=" ">
<path fill="none" stroke="#63b8ff" d="M810,-120.8C810,-111.7 810,-99.79 810,-89.9"/>
<polygon fill="#63b8ff" stroke="#63b8ff" points="813.5,-89.84 810,-79.84 806.5,-89.84 813.5,-89.84"/>
</a>
</g>
</g>
</g>
</svg>

<g id="navigator" transform="translate(0 0)" fill="#404254">
  <rect fill="#f2f5e9" fill-opacity="0.5" stroke="#606060" stroke-width=".5" x="0" y="0" width="60" height="60"/>
  <use id="zoomplus" xlink:href="#zoomPlus" x="17" y="9" onmousedown="handleZoom(evt,'in')"/>
  <use id="zoomminus" xlink:href="#zoomMin" x="42" y="9" onmousedown="handleZoom(evt,'out')"/>
  <use id="reset" xlink:href="#resetDef" x="30" y="36" onmousedown="handleReset()"/>
   <use id="arrowup" xlink:href="#arrowUp" x="0" y="0" onmousedown="handlePan(0,-1)"/>
  <use id="arrowright" xlink:href="#arrowRight" x="0" y="0" onmousedown="handlePan(1,0)"/>
  <use id="arrowdown" xlink:href="#arrowDown" x="0" y="0" onmousedown="handlePan(0,1)"/>
  <use id="arrowleft" xlink:href="#arrowLeft" x="0" y="0" onmousedown="handlePan(-1,0)"/>
</g>
<svg viewBox="0 0 15 15" width="100%" height="30px" preserveAspectRatio="xMaxYMin meet">
 <g id="arrow_out" transform="scale(0.3 0.3)">
  <a xlink:href="maneuver_8cpp__incl_org.svg" target="_base">
   <rect id="button" ry="5" rx="5" y="6" x="6" height="38" width="38"
        fill="#f2f5e9" fill-opacity="0.5" stroke="#606060" stroke-width="1.0"/>
   <path id="arrow"
     d="M 11.500037,31.436501 C 11.940474,20.09759 22.043105,11.32322 32.158766,21.979434 L 37.068811,17.246167 C 37.068811,17.246167 37.088388,32 37.088388,32 L 22.160133,31.978069 C 22.160133,31.978069 26.997745,27.140456 26.997745,27.140456 C 18.528582,18.264221 13.291696,25.230495 11.500037,31.436501 z"
     style="fill:#404040;"/>
  </a>
 </g>
</svg>

<style type='text/css'>
<![CDATA[
[data-mouse-over-selected='false'] { opacity: 0.7; }
[data-mouse-over-selected='true']  { opacity: 1.0; }
]]>
</style>
<script type="application/ecmascript"><![CDATA[
document.addEventListener('DOMContentLoaded', (event) => {
  highlightEdges();
  highlightAdjacentNodes();
});
]]></script>
</svg>
