<?xml version="1.0" encoding="UTF-8" standalone="no"?>
<!DOCTYPE svg PUBLIC "-//W3C//DTD SVG 1.1//EN"
 "http://www.w3.org/Graphics/SVG/1.1/DTD/svg11.dtd">
<!-- Generated by graphviz version 2.43.0 (0)
 -->
<!-- Title: /home/ffn/Workspace/ros2_humble_ws/src/III&#45;Drone&#45;Core/src/control/maneuver_controller_node/maneuver_controller_node_configurator.cpp Pages: 1 -->
<!--zoomable 368 -->

<svg id="main" version="1.1" xmlns="http://www.w3.org/2000/svg" xmlns:xlink="http://www.w3.org/1999/xlink" xml:space="preserve" onload="init(evt)">
<style type="text/css"><![CDATA[
.node, .edge {opacity: 0.7;}
.node.selected, .edge.selected {opacity: 1;}
.edge:hover path { stroke: red; }
.edge:hover polygon { stroke: red; fill: red; }
]]></style>

<defs>
  <circle id="rim" cx="0" cy="0" r="7"/>
  <circle id="rim2" cx="0" cy="0" r="3.5"/>
  <g id="zoomPlus">
    <use xlink:href="#rim" fill="#404040"><set attributeName="fill" to="#808080" begin="zoomplus.mouseover" end="zoomplus.mouseout"/></use>
    <path d="M-4,0h8M0,-4v8" fill="none" stroke="white" stroke-width="1.5" pointer-events="none"/>
  </g>
  <g id="zoomMin">
    <use xlink:href="#rim" fill="#404040"><set attributeName="fill" to="#808080" begin="zoomminus.mouseover" end="zoomminus.mouseout"/></use>
    <path d="M-4,0h8" fill="none" stroke="white" stroke-width="1.5" pointer-events="none"/>
  </g>
  <g id="arrowUp" transform="translate(30 24)">
    <use xlink:href="#rim"/>
    <path pointer-events="none" fill="none" stroke="white" stroke-width="1.5" d="M0,-3.0v7 M-2.5,-0.5L0,-3.0L2.5,-0.5"/>
  </g>
  <g id="arrowRight" transform="rotate(90) translate(36 -43)">
    <use xlink:href="#rim"/>
    <path pointer-events="none" fill="none" stroke="white" stroke-width="1.5" d="M0,-3.0v7 M-2.5,-0.5L0,-3.0L2.5,-0.5"/>
  </g>
  <g id="arrowDown" transform="rotate(180) translate(-30 -48)">
    <use xlink:href="#rim"/>
    <path pointer-events="none" fill="none" stroke="white" stroke-width="1.5" d="M0,-3.0v7 M-2.5,-0.5L0,-3.0L2.5,-0.5"/>
  </g>
  <g id="arrowLeft" transform="rotate(270) translate(-36 17)">
    <use xlink:href="#rim"/>
    <path pointer-events="none" fill="none" stroke="white" stroke-width="1.5" d="M0,-3.0v7 M-2.5,-0.5L0,-3.0L2.5,-0.5"/>
  </g>
  <g id="resetDef">
    <use xlink:href="#rim2" fill="#404040"><set attributeName="fill" to="#808080" begin="reset.mouseover" end="reset.mouseout"/></use>
  </g>
</defs>
<script type="application/ecmascript">
var viewWidth = 1691;
var viewHeight = 368;
var sectionId = 'dynsection-0';
</script>
<script type="application/ecmascript" xlink:href="svg.min.js"/>
<svg id="graph" class="graph">
<g id="viewport">
<title>/home/ffn/Workspace/ros2_humble_ws/src/III&#45;Drone&#45;Core/src/control/maneuver_controller_node/maneuver_controller_node_configurator.cpp</title>
<!-- Node1 -->
<g id="Node000001" class="node">
<title>Node1</title>
<g id="a_Node000001"><a xlink:title=" ">
<polygon fill="#999999" stroke="#666666" points="742.5,-360 592.5,-360 592.5,-286 742.5,-286 742.5,-360"/>
<text text-anchor="start" x="600.5" y="-348" font-family="Helvetica,sans-Serif" font-size="10.00">/home/ffn/Workspace</text>
<text text-anchor="start" x="600.5" y="-337" font-family="Helvetica,sans-Serif" font-size="10.00">/ros2_humble_ws/src</text>
<text text-anchor="start" x="600.5" y="-326" font-family="Helvetica,sans-Serif" font-size="10.00">/III&#45;Drone&#45;Core/src/control</text>
<text text-anchor="start" x="600.5" y="-315" font-family="Helvetica,sans-Serif" font-size="10.00">/maneuver_controller_node</text>
<text text-anchor="start" x="600.5" y="-304" font-family="Helvetica,sans-Serif" font-size="10.00">/maneuver_controller_node</text>
<text text-anchor="middle" x="667.5" y="-293" font-family="Helvetica,sans-Serif" font-size="10.00">_configurator.cpp</text>
</a>
</g>
</g>
<!-- Node2 -->
<g id="Node000002" class="node">
<title>Node2</title>
<g id="a_Node000002"><a xlink:href="maneuver__controller__node__configurator_8hpp.html" target="_top" xlink:title=" ">
<polygon fill="white" stroke="#666666" points="742.5,-250 592.5,-250 592.5,-198 742.5,-198 742.5,-250"/>
<text text-anchor="start" x="600.5" y="-238" font-family="Helvetica,sans-Serif" font-size="10.00">iii_drone_core/control</text>
<text text-anchor="start" x="600.5" y="-227" font-family="Helvetica,sans-Serif" font-size="10.00">/maneuver_controller_node</text>
<text text-anchor="start" x="600.5" y="-216" font-family="Helvetica,sans-Serif" font-size="10.00">/maneuver_controller_node</text>
<text text-anchor="middle" x="667.5" y="-205" font-family="Helvetica,sans-Serif" font-size="10.00">_configurator.hpp</text>
</a>
</g>
</g>
<!-- Node1&#45;&gt;Node2 -->
<g id="edge1_Node000001_Node000002" class="edge">
<title>Node1&#45;&gt;Node2</title>
<g id="a_edge1_Node000001_Node000002"><a xlink:title=" ">
<path fill="none" stroke="#63b8ff" d="M667.5,-285.88C667.5,-277.55 667.5,-268.69 667.5,-260.39"/>
<polygon fill="#63b8ff" stroke="#63b8ff" points="671,-260.26 667.5,-250.26 664,-260.26 671,-260.26"/>
</a>
</g>
</g>
<!-- Node3 -->
<g id="Node000003" class="node">
<title>Node3</title>
<g id="a_Node000003"><a xlink:title=" ">
<polygon fill="#e0e0e0" stroke="#999999" points="787.5,-79.5 729.5,-79.5 729.5,-60.5 787.5,-60.5 787.5,-79.5"/>
<text text-anchor="middle" x="758.5" y="-67.5" font-family="Helvetica,sans-Serif" font-size="10.00">memory</text>
</a>
</g>
</g>
<!-- Node2&#45;&gt;Node3 -->
<g id="edge2_Node000002_Node000003" class="edge">
<title>Node2&#45;&gt;Node3</title>
<g id="a_edge2_Node000002_Node000003"><a xlink:title=" ">
<path fill="none" stroke="#63b8ff" d="M601.31,-197.89C586.27,-188.93 572.19,-177.17 563.5,-162 554.44,-146.19 552.15,-135.25 563.5,-121 608.11,-65.01 651.88,-105.42 720.5,-85 722.64,-84.36 724.82,-83.67 727.02,-82.95"/>
<polygon fill="#63b8ff" stroke="#63b8ff" points="728.26,-86.22 736.56,-79.62 725.96,-79.61 728.26,-86.22"/>
</a>
</g>
</g>
<!-- Node4 -->
<g id="Node000004" class="node">
<title>Node4</title>
<g id="a_Node000004"><a xlink:href="configurator_8hpp.html" target="_top" xlink:title=" ">
<polygon fill="white" stroke="#666666" points="516.5,-156.5 364.5,-156.5 364.5,-126.5 516.5,-126.5 516.5,-156.5"/>
<text text-anchor="start" x="372.5" y="-144.5" font-family="Helvetica,sans-Serif" font-size="10.00">iii_drone_core/configuration</text>
<text text-anchor="middle" x="440.5" y="-133.5" font-family="Helvetica,sans-Serif" font-size="10.00">/configurator.hpp</text>
</a>
</g>
</g>
<!-- Node2&#45;&gt;Node4 -->
<g id="edge3_Node000002_Node000004" class="edge">
<title>Node2&#45;&gt;Node4</title>
<g id="a_edge3_Node000002_Node000004"><a xlink:title=" ">
<path fill="none" stroke="#63b8ff" d="M596.92,-197.97C562.28,-185.68 521.37,-171.18 490.09,-160.08"/>
<polygon fill="#63b8ff" stroke="#63b8ff" points="490.88,-156.65 480.29,-156.61 488.54,-163.25 490.88,-156.65"/>
</a>
</g>
</g>
<!-- Node6 -->
<g id="Node000006" class="node">
<title>Node6</title>
<g id="a_Node000006"><a xlink:title=" ">
<polygon fill="#e0e0e0" stroke="#999999" points="99,-79.5 0,-79.5 0,-60.5 99,-60.5 99,-79.5"/>
<text text-anchor="middle" x="49.5" y="-67.5" font-family="Helvetica,sans-Serif" font-size="10.00">rclcpp/rclcpp.hpp</text>
</a>
</g>
</g>
<!-- Node2&#45;&gt;Node6 -->
<g id="edge44_Node000002_Node000006" class="edge">
<title>Node2&#45;&gt;Node6</title>
<g id="a_edge44_Node000002_Node000006"><a xlink:title=" ">
<path fill="none" stroke="#63b8ff" d="M592.36,-210.4C528.88,-199.25 435.76,-181.73 355.5,-162 256.24,-137.6 141.18,-101.13 84.61,-82.64"/>
<polygon fill="#63b8ff" stroke="#63b8ff" points="85.66,-79.3 75.06,-79.51 83.47,-85.95 85.66,-79.3"/>
</a>
</g>
</g>
<!-- Node14 -->
<g id="Node000014" class="node">
<title>Node14</title>
<g id="a_Node000014"><a xlink:href="combined__drone__awareness__handler__parameters_8hpp.html" target="_top" xlink:title=" ">
<polygon fill="white" stroke="#666666" points="938.5,-162 780.5,-162 780.5,-121 938.5,-121 938.5,-162"/>
<text text-anchor="start" x="788.5" y="-150" font-family="Helvetica,sans-Serif" font-size="10.00">iii_drone_core/control</text>
<text text-anchor="start" x="788.5" y="-139" font-family="Helvetica,sans-Serif" font-size="10.00">/combined_drone_awareness</text>
<text text-anchor="middle" x="859.5" y="-128" font-family="Helvetica,sans-Serif" font-size="10.00">_handler_parameters.hpp</text>
</a>
</g>
</g>
<!-- Node2&#45;&gt;Node14 -->
<g id="edge14_Node000002_Node000014" class="edge">
<title>Node2&#45;&gt;Node14</title>
<g id="a_edge14_Node000002_Node000014"><a xlink:title=" ">
<path fill="none" stroke="#63b8ff" d="M727.2,-197.97C751.59,-187.74 779.65,-175.98 803.63,-165.92"/>
<polygon fill="#63b8ff" stroke="#63b8ff" points="805.08,-169.11 812.95,-162.02 802.38,-162.66 805.08,-169.11"/>
</a>
</g>
</g>
<!-- Node22 -->
<g id="Node000022" class="node">
<title>Node22</title>
<g id="a_Node000022"><a xlink:href="maneuver__scheduler__parameters_8hpp.html" target="_top" xlink:title=" ">
<polygon fill="white" stroke="#666666" points="1130.5,-162 956.5,-162 956.5,-121 1130.5,-121 1130.5,-162"/>
<text text-anchor="start" x="964.5" y="-150" font-family="Helvetica,sans-Serif" font-size="10.00">iii_drone_core/control</text>
<text text-anchor="start" x="964.5" y="-139" font-family="Helvetica,sans-Serif" font-size="10.00">/maneuver/maneuver_scheduler</text>
<text text-anchor="middle" x="1043.5" y="-128" font-family="Helvetica,sans-Serif" font-size="10.00">_parameters.hpp</text>
</a>
</g>
</g>
<!-- Node2&#45;&gt;Node22 -->
<g id="edge26_Node000002_Node000022" class="edge">
<title>Node2&#45;&gt;Node22</title>
<g id="a_edge26_Node000002_Node000022"><a xlink:title=" ">
<path fill="none" stroke="#63b8ff" d="M742.69,-206.9C801.17,-194.38 882.77,-176.91 946.23,-163.33"/>
<polygon fill="#63b8ff" stroke="#63b8ff" points="947.21,-166.7 956.25,-161.18 945.74,-159.85 947.21,-166.7"/>
</a>
</g>
</g>
<!-- Node23 -->
<g id="Node000023" class="node">
<title>Node23</title>
<g id="a_Node000023"><a xlink:href="fly__to__position__maneuver__server__parameters_8hpp.html" target="_top" xlink:title=" ">
<polygon fill="white" stroke="#666666" points="1338.5,-162 1148.5,-162 1148.5,-121 1338.5,-121 1338.5,-162"/>
<text text-anchor="start" x="1156.5" y="-150" font-family="Helvetica,sans-Serif" font-size="10.00">iii_drone_core/control</text>
<text text-anchor="start" x="1156.5" y="-139" font-family="Helvetica,sans-Serif" font-size="10.00">/maneuver/fly_to_position</text>
<text text-anchor="middle" x="1243.5" y="-128" font-family="Helvetica,sans-Serif" font-size="10.00">_maneuver_server_parameters.hpp</text>
</a>
</g>
</g>
<!-- Node2&#45;&gt;Node23 -->
<g id="edge32_Node000002_Node000023" class="edge">
<title>Node2&#45;&gt;Node23</title>
<g id="a_edge32_Node000002_Node000023"><a xlink:title=" ">
<path fill="none" stroke="#63b8ff" d="M742.9,-214.59C834.13,-204.12 992.63,-184.97 1138.3,-162.15"/>
<polygon fill="#63b8ff" stroke="#63b8ff" points="1138.99,-165.58 1148.32,-160.57 1137.9,-158.67 1138.99,-165.58"/>
</a>
</g>
</g>
<!-- Node24 -->
<g id="Node000024" class="node">
<title>Node24</title>
<g id="a_Node000024"><a xlink:href="fly__to__object__maneuver__server__parameters_8hpp.html" target="_top" xlink:title=" ">
<polygon fill="white" stroke="#666666" points="762.5,-162 572.5,-162 572.5,-121 762.5,-121 762.5,-162"/>
<text text-anchor="start" x="580.5" y="-150" font-family="Helvetica,sans-Serif" font-size="10.00">iii_drone_core/control</text>
<text text-anchor="start" x="580.5" y="-139" font-family="Helvetica,sans-Serif" font-size="10.00">/maneuver/fly_to_object</text>
<text text-anchor="middle" x="667.5" y="-128" font-family="Helvetica,sans-Serif" font-size="10.00">_maneuver_server_parameters.hpp</text>
</a>
</g>
</g>
<!-- Node2&#45;&gt;Node24 -->
<g id="edge38_Node000002_Node000024" class="edge">
<title>Node2&#45;&gt;Node24</title>
<g id="a_edge38_Node000002_Node000024"><a xlink:title=" ">
<path fill="none" stroke="#63b8ff" d="M667.5,-197.97C667.5,-189.86 667.5,-180.78 667.5,-172.35"/>
<polygon fill="#63b8ff" stroke="#63b8ff" points="671,-172.15 667.5,-162.15 664,-172.15 671,-172.15"/>
</a>
</g>
</g>
<!-- Node4&#45;&gt;Node3 -->
<g id="edge12_Node000004_Node000003" class="edge">
<title>Node4&#45;&gt;Node3</title>
<g id="a_edge12_Node000004_Node000003"><a xlink:title=" ">
<path fill="none" stroke="#63b8ff" d="M504.37,-126.45C513.14,-124.58 522.04,-122.72 530.5,-121 614.73,-103.9 637.67,-107.93 720.5,-85 722.79,-84.37 725.13,-83.66 727.48,-82.9"/>
<polygon fill="#63b8ff" stroke="#63b8ff" points="728.68,-86.19 737,-79.62 726.41,-79.57 728.68,-86.19"/>
</a>
</g>
</g>
<!-- Node5 -->
<g id="Node000005" class="node">
<title>Node5</title>
<g id="a_Node000005"><a xlink:title=" ">
<polygon fill="#e0e0e0" stroke="#999999" points="400.5,-85 250.5,-85 250.5,-55 400.5,-55 400.5,-85"/>
<text text-anchor="start" x="258.5" y="-73" font-family="Helvetica,sans-Serif" font-size="10.00">iii_drone_interfaces</text>
<text text-anchor="middle" x="325.5" y="-62" font-family="Helvetica,sans-Serif" font-size="10.00">/srv/declare_parameter.hpp</text>
</a>
</g>
</g>
<!-- Node4&#45;&gt;Node5 -->
<g id="edge4_Node000004_Node000005" class="edge">
<title>Node4&#45;&gt;Node5</title>
<g id="a_edge4_Node000004_Node000005"><a xlink:title=" ">
<path fill="none" stroke="#63b8ff" d="M417.23,-126.44C400,-116.03 376.34,-101.72 357.36,-90.25"/>
<polygon fill="#63b8ff" stroke="#63b8ff" points="359.11,-87.22 348.74,-85.04 355.49,-93.21 359.11,-87.22"/>
</a>
</g>
</g>
<!-- Node4&#45;&gt;Node6 -->
<g id="edge5_Node000004_Node000006" class="edge">
<title>Node4&#45;&gt;Node6</title>
<g id="a_edge5_Node000004_Node000006"><a xlink:title=" ">
<path fill="none" stroke="#63b8ff" d="M364.5,-129.42C296.82,-119.18 195.22,-102.87 107.5,-85 102.8,-84.04 97.9,-82.97 93.03,-81.86"/>
<polygon fill="#63b8ff" stroke="#63b8ff" points="93.68,-78.42 83.15,-79.55 92.09,-85.24 93.68,-78.42"/>
</a>
</g>
</g>
<!-- Node7 -->
<g id="Node000007" class="node">
<title>Node7</title>
<g id="a_Node000007"><a xlink:title=" ">
<polygon fill="#e0e0e0" stroke="#999999" points="543,-85 418,-85 418,-55 543,-55 543,-85"/>
<text text-anchor="start" x="426" y="-73" font-family="Helvetica,sans-Serif" font-size="10.00">rcl_interfaces/msg</text>
<text text-anchor="middle" x="480.5" y="-62" font-family="Helvetica,sans-Serif" font-size="10.00">/parameter_event.hpp</text>
</a>
</g>
</g>
<!-- Node4&#45;&gt;Node7 -->
<g id="edge6_Node000004_Node000007" class="edge">
<title>Node4&#45;&gt;Node7</title>
<g id="a_edge6_Node000004_Node000007"><a xlink:title=" ">
<path fill="none" stroke="#63b8ff" d="M448.59,-126.44C453.96,-117.11 461.13,-104.66 467.31,-93.92"/>
<polygon fill="#63b8ff" stroke="#63b8ff" points="470.46,-95.46 472.42,-85.04 464.4,-91.96 470.46,-95.46"/>
</a>
</g>
</g>
<!-- Node8 -->
<g id="Node000008" class="node">
<title>Node8</title>
<g id="a_Node000008"><a xlink:title=" ">
<polygon fill="#e0e0e0" stroke="#999999" points="711.5,-85 561.5,-85 561.5,-55 711.5,-55 711.5,-85"/>
<text text-anchor="start" x="569.5" y="-73" font-family="Helvetica,sans-Serif" font-size="10.00">rcl_interfaces/msg</text>
<text text-anchor="middle" x="636.5" y="-62" font-family="Helvetica,sans-Serif" font-size="10.00">/set_parameters_result.hpp</text>
</a>
</g>
</g>
<!-- Node4&#45;&gt;Node8 -->
<g id="edge7_Node000004_Node000008" class="edge">
<title>Node4&#45;&gt;Node8</title>
<g id="a_edge7_Node000004_Node000008"><a xlink:title=" ">
<path fill="none" stroke="#63b8ff" d="M480.16,-126.44C511.11,-115.46 554.27,-100.16 587.4,-88.41"/>
<polygon fill="#63b8ff" stroke="#63b8ff" points="588.64,-91.68 596.9,-85.04 586.3,-85.09 588.64,-91.68"/>
</a>
</g>
</g>
<!-- Node9 -->
<g id="Node000009" class="node">
<title>Node9</title>
<g id="a_Node000009"><a xlink:title=" ">
<polygon fill="#e0e0e0" stroke="#999999" points="849.5,-79.5 805.5,-79.5 805.5,-60.5 849.5,-60.5 849.5,-79.5"/>
<text text-anchor="middle" x="827.5" y="-67.5" font-family="Helvetica,sans-Serif" font-size="10.00">string</text>
</a>
</g>
</g>
<!-- Node4&#45;&gt;Node9 -->
<g id="edge8_Node000004_Node000009" class="edge">
<title>Node4&#45;&gt;Node9</title>
<g id="a_edge8_Node000004_Node000009"><a xlink:title=" ">
<path fill="none" stroke="#63b8ff" d="M516.6,-128.39C532.12,-125.93 548.33,-123.37 563.5,-121 667.02,-104.8 696.05,-114.84 796.5,-85 798.13,-84.51 799.79,-83.96 801.45,-83.36"/>
<polygon fill="#63b8ff" stroke="#63b8ff" points="802.83,-86.58 810.76,-79.55 800.18,-80.1 802.83,-86.58"/>
</a>
</g>
</g>
<!-- Node10 -->
<g id="Node000010" class="node">
<title>Node10</title>
<g id="a_Node000010"><a xlink:title=" ">
<polygon fill="#e0e0e0" stroke="#999999" points="164,-79.5 117,-79.5 117,-60.5 164,-60.5 164,-79.5"/>
<text text-anchor="middle" x="140.5" y="-67.5" font-family="Helvetica,sans-Serif" font-size="10.00">vector</text>
</a>
</g>
</g>
<!-- Node4&#45;&gt;Node10 -->
<g id="edge9_Node000004_Node000010" class="edge">
<title>Node4&#45;&gt;Node10</title>
<g id="a_edge9_Node000004_Node000010"><a xlink:title=" ">
<path fill="none" stroke="#63b8ff" d="M364.4,-128.78C310.42,-119.47 236.65,-104.75 173.5,-85 171.83,-84.48 170.12,-83.9 168.41,-83.28"/>
<polygon fill="#63b8ff" stroke="#63b8ff" points="169.35,-79.89 158.76,-79.5 166.79,-86.41 169.35,-79.89"/>
</a>
</g>
</g>
<!-- Node11 -->
<g id="Node000011" class="node">
<title>Node11</title>
<g id="a_Node000011"><a xlink:title=" ">
<polygon fill="#e0e0e0" stroke="#999999" points="915.5,-79.5 867.5,-79.5 867.5,-60.5 915.5,-60.5 915.5,-79.5"/>
<text text-anchor="middle" x="891.5" y="-67.5" font-family="Helvetica,sans-Serif" font-size="10.00">mutex</text>
</a>
</g>
</g>
<!-- Node4&#45;&gt;Node11 -->
<g id="edge10_Node000004_Node000011" class="edge">
<title>Node4&#45;&gt;Node11</title>
<g id="a_edge10_Node000004_Node000011"><a xlink:title=" ">
<path fill="none" stroke="#63b8ff" d="M516.55,-128.01C532.07,-125.58 548.3,-123.13 563.5,-121 694.3,-102.66 730.9,-119.13 858.5,-85 860.39,-84.49 862.32,-83.9 864.25,-83.25"/>
<polygon fill="#63b8ff" stroke="#63b8ff" points="865.58,-86.48 873.67,-79.64 863.08,-79.95 865.58,-86.48"/>
</a>
</g>
</g>
<!-- Node12 -->
<g id="Node000012" class="node">
<title>Node12</title>
<g id="a_Node000012"><a xlink:title=" ">
<polygon fill="#e0e0e0" stroke="#999999" points="1019.5,-79.5 933.5,-79.5 933.5,-60.5 1019.5,-60.5 1019.5,-79.5"/>
<text text-anchor="middle" x="976.5" y="-67.5" font-family="Helvetica,sans-Serif" font-size="10.00">shared_mutex</text>
</a>
</g>
</g>
<!-- Node4&#45;&gt;Node12 -->
<g id="edge11_Node000004_Node000012" class="edge">
<title>Node4&#45;&gt;Node12</title>
<g id="a_edge11_Node000004_Node000012"><a xlink:title=" ">
<path fill="none" stroke="#63b8ff" d="M516.51,-127.75C532.03,-125.34 548.28,-122.96 563.5,-121 723.41,-100.37 765.9,-114.06 924.5,-85 928.97,-84.18 933.61,-83.17 938.2,-82.07"/>
<polygon fill="#63b8ff" stroke="#63b8ff" points="939.26,-85.41 948.08,-79.55 937.53,-78.63 939.26,-85.41"/>
</a>
</g>
</g>
<!-- Node13 -->
<g id="Node000013" class="node">
<title>Node13</title>
<g id="a_Node000013"><a xlink:title=" ">
<polygon fill="#e0e0e0" stroke="#999999" points="232.5,-79.5 182.5,-79.5 182.5,-60.5 232.5,-60.5 232.5,-79.5"/>
<text text-anchor="middle" x="207.5" y="-67.5" font-family="Helvetica,sans-Serif" font-size="10.00">atomic</text>
</a>
</g>
</g>
<!-- Node4&#45;&gt;Node13 -->
<g id="edge13_Node000004_Node000013" class="edge">
<title>Node4&#45;&gt;Node13</title>
<g id="a_edge13_Node000004_Node000013"><a xlink:title=" ">
<path fill="none" stroke="#63b8ff" d="M383.34,-126.48C343.26,-116.18 288.64,-101.22 241.5,-85 239.88,-84.44 238.23,-83.85 236.57,-83.23"/>
<polygon fill="#63b8ff" stroke="#63b8ff" points="237.71,-79.92 227.13,-79.54 235.17,-86.44 237.71,-79.92"/>
</a>
</g>
</g>
<!-- Node14&#45;&gt;Node3 -->
<g id="edge24_Node000014_Node000003" class="edge">
<title>Node14&#45;&gt;Node3</title>
<g id="a_edge24_Node000014_Node000003"><a xlink:title=" ">
<path fill="none" stroke="#63b8ff" d="M831.1,-120.96C814.67,-109.65 794.35,-95.67 779.4,-85.38"/>
<polygon fill="#63b8ff" stroke="#63b8ff" points="781.08,-82.29 770.86,-79.5 777.11,-88.06 781.08,-82.29"/>
</a>
</g>
</g>
<!-- Node14&#45;&gt;Node9 -->
<g id="edge25_Node000014_Node000009" class="edge">
<title>Node14&#45;&gt;Node9</title>
<g id="a_edge25_Node000014_Node000009"><a xlink:title=" ">
<path fill="none" stroke="#63b8ff" d="M850.42,-120.77C845.81,-110.76 840.25,-98.7 835.77,-88.95"/>
<polygon fill="#63b8ff" stroke="#63b8ff" points="838.92,-87.44 831.56,-79.82 832.56,-90.37 838.92,-87.44"/>
</a>
</g>
</g>
<!-- Node14&#45;&gt;Node11 -->
<g id="edge22_Node000014_Node000011" class="edge">
<title>Node14&#45;&gt;Node11</title>
<g id="a_edge22_Node000014_Node000011"><a xlink:title=" ">
<path fill="none" stroke="#63b8ff" d="M868.58,-120.77C873.19,-110.76 878.75,-98.7 883.23,-88.95"/>
<polygon fill="#63b8ff" stroke="#63b8ff" points="886.44,-90.37 887.44,-79.82 880.08,-87.44 886.44,-90.37"/>
</a>
</g>
</g>
<!-- Node14&#45;&gt;Node12 -->
<g id="edge23_Node000014_Node000012" class="edge">
<title>Node14&#45;&gt;Node12</title>
<g id="a_edge23_Node000014_Node000012"><a xlink:title=" ">
<path fill="none" stroke="#63b8ff" d="M892.4,-120.96C911.79,-109.44 935.86,-95.14 953.27,-84.8"/>
<polygon fill="#63b8ff" stroke="#63b8ff" points="955.37,-87.62 962.18,-79.5 951.8,-81.6 955.37,-87.62"/>
</a>
</g>
</g>
<!-- Node15 -->
<g id="Node000015" class="node">
<title>Node15</title>
<g id="a_Node000015"><a xlink:href="types_8hpp.html" target="_top" xlink:title=" ">
<polygon fill="white" stroke="#666666" points="1147,-85 1038,-85 1038,-55 1147,-55 1147,-85"/>
<text text-anchor="start" x="1046" y="-73" font-family="Helvetica,sans-Serif" font-size="10.00">iii_drone_core/utils</text>
<text text-anchor="middle" x="1092.5" y="-62" font-family="Helvetica,sans-Serif" font-size="10.00">/types.hpp</text>
</a>
</g>
</g>
<!-- Node14&#45;&gt;Node15 -->
<g id="edge15_Node000014_Node000015" class="edge">
<title>Node14&#45;&gt;Node15</title>
<g id="a_edge15_Node000014_Node000015"><a xlink:title=" ">
<path fill="none" stroke="#63b8ff" d="M925.02,-120.96C959.94,-110.54 1002.46,-97.86 1035.92,-87.88"/>
<polygon fill="#63b8ff" stroke="#63b8ff" points="1036.97,-91.22 1045.55,-85 1034.97,-84.51 1036.97,-91.22"/>
</a>
</g>
</g>
<!-- Node16 -->
<g id="Node000016" class="node">
<title>Node16</title>
<g id="a_Node000016"><a xlink:title=" ">
<polygon fill="#e0e0e0" stroke="#999999" points="690,-19 585,-19 585,0 690,0 690,-19"/>
<text text-anchor="middle" x="637.5" y="-7" font-family="Helvetica,sans-Serif" font-size="10.00">eigen3/Eigen/Core</text>
</a>
</g>
</g>
<!-- Node15&#45;&gt;Node16 -->
<g id="edge16_Node000015_Node000016" class="edge">
<title>Node15&#45;&gt;Node16</title>
<g id="a_edge16_Node000015_Node000016"><a xlink:title=" ">
<path fill="none" stroke="#63b8ff" d="M1037.76,-56.62C1034.63,-56.04 1031.53,-55.5 1028.5,-55 886.6,-31.78 847.24,-36.75 700.54,-19.09"/>
<polygon fill="#63b8ff" stroke="#63b8ff" points="700.6,-15.57 690.25,-17.83 699.76,-22.52 700.6,-15.57"/>
</a>
</g>
</g>
<!-- Node17 -->
<g id="Node000017" class="node">
<title>Node17</title>
<g id="a_Node000017"><a xlink:title=" ">
<polygon fill="#e0e0e0" stroke="#999999" points="876.5,-19 708.5,-19 708.5,0 876.5,0 876.5,-19"/>
<text text-anchor="middle" x="792.5" y="-7" font-family="Helvetica,sans-Serif" font-size="10.00">geometry_msgs/msg/point.hpp</text>
</a>
</g>
</g>
<!-- Node15&#45;&gt;Node17 -->
<g id="edge17_Node000015_Node000017" class="edge">
<title>Node15&#45;&gt;Node17</title>
<g id="a_edge17_Node000015_Node000017"><a xlink:title=" ">
<path fill="none" stroke="#63b8ff" d="M1037.71,-56.91C1034.6,-56.25 1031.51,-55.61 1028.5,-55 967.66,-42.61 897.75,-29.58 849.91,-20.84"/>
<polygon fill="#63b8ff" stroke="#63b8ff" points="850.51,-17.4 840.04,-19.05 849.25,-24.28 850.51,-17.4"/>
</a>
</g>
</g>
<!-- Node18 -->
<g id="Node000018" class="node">
<title>Node18</title>
<g id="a_Node000018"><a xlink:title=" ">
<polygon fill="#e0e0e0" stroke="#999999" points="1090.5,-19 894.5,-19 894.5,0 1090.5,0 1090.5,-19"/>
<text text-anchor="middle" x="992.5" y="-7" font-family="Helvetica,sans-Serif" font-size="10.00">geometry_msgs/msg/quaternion.hpp</text>
</a>
</g>
</g>
<!-- Node15&#45;&gt;Node18 -->
<g id="edge18_Node000015_Node000018" class="edge">
<title>Node15&#45;&gt;Node18</title>
<g id="a_edge18_Node000015_Node000018"><a xlink:title=" ">
<path fill="none" stroke="#63b8ff" d="M1068.55,-54.99C1052.61,-45.66 1031.77,-33.47 1015.94,-24.21"/>
<polygon fill="#63b8ff" stroke="#63b8ff" points="1017.67,-21.17 1007.27,-19.14 1014.13,-27.21 1017.67,-21.17"/>
</a>
</g>
</g>
<!-- Node19 -->
<g id="Node000019" class="node">
<title>Node19</title>
<g id="a_Node000019"><a xlink:title=" ">
<polygon fill="#e0e0e0" stroke="#999999" points="1275,-19 1108,-19 1108,0 1275,0 1275,-19"/>
<text text-anchor="middle" x="1191.5" y="-7" font-family="Helvetica,sans-Serif" font-size="10.00">geometry_msgs/msg/pose.hpp</text>
</a>
</g>
</g>
<!-- Node15&#45;&gt;Node19 -->
<g id="edge19_Node000015_Node000019" class="edge">
<title>Node15&#45;&gt;Node19</title>
<g id="a_edge19_Node000015_Node000019"><a xlink:title=" ">
<path fill="none" stroke="#63b8ff" d="M1116.21,-54.99C1131.85,-45.75 1152.24,-33.7 1167.86,-24.47"/>
<polygon fill="#63b8ff" stroke="#63b8ff" points="1170.05,-27.24 1176.88,-19.14 1166.49,-21.21 1170.05,-27.24"/>
</a>
</g>
</g>
<!-- Node20 -->
<g id="Node000020" class="node">
<title>Node20</title>
<g id="a_Node000020"><a xlink:title=" ">
<polygon fill="#e0e0e0" stroke="#999999" points="1484,-19 1293,-19 1293,0 1484,0 1484,-19"/>
<text text-anchor="middle" x="1388.5" y="-7" font-family="Helvetica,sans-Serif" font-size="10.00">geometry_msgs/msg/transform.hpp</text>
</a>
</g>
</g>
<!-- Node15&#45;&gt;Node20 -->
<g id="edge20_Node000015_Node000020" class="edge">
<title>Node15&#45;&gt;Node20</title>
<g id="a_edge20_Node000015_Node000020"><a xlink:title=" ">
<path fill="none" stroke="#63b8ff" d="M1147.14,-58.2C1200.81,-47.59 1282.16,-31.52 1335.33,-21.01"/>
<polygon fill="#63b8ff" stroke="#63b8ff" points="1336.11,-24.42 1345.24,-19.05 1334.75,-17.56 1336.11,-24.42"/>
</a>
</g>
</g>
<!-- Node21 -->
<g id="Node000021" class="node">
<title>Node21</title>
<g id="a_Node000021"><a xlink:title=" ">
<polygon fill="#e0e0e0" stroke="#999999" points="1682.5,-19 1502.5,-19 1502.5,0 1682.5,0 1682.5,-19"/>
<text text-anchor="middle" x="1592.5" y="-7" font-family="Helvetica,sans-Serif" font-size="10.00">geometry_msgs/msg/vector3.hpp</text>
</a>
</g>
</g>
<!-- Node15&#45;&gt;Node21 -->
<g id="edge21_Node000015_Node000021" class="edge">
<title>Node15&#45;&gt;Node21</title>
<g id="a_edge21_Node000015_Node000021"><a xlink:title=" ">
<path fill="none" stroke="#63b8ff" d="M1147.44,-62.57C1235.09,-52.32 1407.1,-32.19 1509.72,-20.19"/>
<polygon fill="#63b8ff" stroke="#63b8ff" points="1510.2,-23.65 1519.73,-19.01 1509.39,-16.7 1510.2,-23.65"/>
</a>
</g>
</g>
<!-- Node22&#45;&gt;Node3 -->
<g id="edge30_Node000022_Node000003" class="edge">
<title>Node22&#45;&gt;Node3</title>
<g id="a_edge30_Node000022_Node000003"><a xlink:title=" ">
<path fill="none" stroke="#63b8ff" d="M956.43,-122.21C897.87,-109.66 826.17,-93.76 796.5,-85 794.36,-84.37 792.17,-83.68 789.98,-82.96"/>
<polygon fill="#63b8ff" stroke="#63b8ff" points="791.03,-79.62 780.44,-79.64 788.73,-86.23 791.03,-79.62"/>
</a>
</g>
</g>
<!-- Node22&#45;&gt;Node9 -->
<g id="edge31_Node000022_Node000009" class="edge">
<title>Node22&#45;&gt;Node9</title>
<g id="a_edge31_Node000022_Node000009"><a xlink:title=" ">
<path fill="none" stroke="#63b8ff" d="M970.27,-120.96C935.98,-111.19 894.78,-98.56 858.5,-85 857.29,-84.55 856.05,-84.07 854.81,-83.57"/>
<polygon fill="#63b8ff" stroke="#63b8ff" points="855.93,-80.25 845.36,-79.55 853.2,-86.69 855.93,-80.25"/>
</a>
</g>
</g>
<!-- Node22&#45;&gt;Node11 -->
<g id="edge28_Node000022_Node000011" class="edge">
<title>Node22&#45;&gt;Node11</title>
<g id="a_edge28_Node000022_Node000011"><a xlink:title=" ">
<path fill="none" stroke="#63b8ff" d="M1000.76,-120.96C974.63,-109.01 941.98,-94.08 919.21,-83.67"/>
<polygon fill="#63b8ff" stroke="#63b8ff" points="920.65,-80.48 910.1,-79.5 917.74,-86.84 920.65,-80.48"/>
</a>
</g>
</g>
<!-- Node22&#45;&gt;Node12 -->
<g id="edge29_Node000022_Node000012" class="edge">
<title>Node22&#45;&gt;Node12</title>
<g id="a_edge29_Node000022_Node000012"><a xlink:title=" ">
<path fill="none" stroke="#63b8ff" d="M1024.48,-120.77C1014.22,-110.13 1001.72,-97.16 992.05,-87.13"/>
<polygon fill="#63b8ff" stroke="#63b8ff" points="994.46,-84.59 985,-79.82 989.42,-89.45 994.46,-84.59"/>
</a>
</g>
</g>
<!-- Node22&#45;&gt;Node15 -->
<g id="edge27_Node000022_Node000015" class="edge">
<title>Node22&#45;&gt;Node15</title>
<g id="a_edge27_Node000022_Node000015"><a xlink:title=" ">
<path fill="none" stroke="#63b8ff" d="M1057.41,-120.77C1063.44,-112.22 1070.52,-102.17 1076.74,-93.35"/>
<polygon fill="#63b8ff" stroke="#63b8ff" points="1079.7,-95.23 1082.6,-85.04 1073.98,-91.19 1079.7,-95.23"/>
</a>
</g>
</g>
<!-- Node23&#45;&gt;Node3 -->
<g id="edge36_Node000023_Node000003" class="edge">
<title>Node23&#45;&gt;Node3</title>
<g id="a_edge36_Node000023_Node000003"><a xlink:title=" ">
<path fill="none" stroke="#63b8ff" d="M1148.34,-122.34C1145.36,-121.87 1142.41,-121.42 1139.5,-121 987.83,-98.86 945.79,-119.76 796.5,-85 793.83,-84.38 791.1,-83.62 788.37,-82.79"/>
<polygon fill="#63b8ff" stroke="#63b8ff" points="789.32,-79.41 778.73,-79.51 787.07,-86.04 789.32,-79.41"/>
</a>
</g>
</g>
<!-- Node23&#45;&gt;Node9 -->
<g id="edge37_Node000023_Node000009" class="edge">
<title>Node23&#45;&gt;Node9</title>
<g id="a_edge37_Node000023_Node000009"><a xlink:title=" ">
<path fill="none" stroke="#63b8ff" d="M1148.32,-122.43C1145.35,-121.93 1142.4,-121.46 1139.5,-121 1015.13,-101.39 979.65,-119.29 858.5,-85 856.86,-84.54 855.19,-84 853.53,-83.41"/>
<polygon fill="#63b8ff" stroke="#63b8ff" points="854.8,-80.15 844.21,-79.64 852.17,-86.63 854.8,-80.15"/>
</a>
</g>
</g>
<!-- Node23&#45;&gt;Node11 -->
<g id="edge34_Node000023_Node000011" class="edge">
<title>Node23&#45;&gt;Node11</title>
<g id="a_edge34_Node000023_Node000011"><a xlink:title=" ">
<path fill="none" stroke="#63b8ff" d="M1148.3,-122.57C1145.33,-122.04 1142.39,-121.51 1139.5,-121 1044.1,-104.07 1017.52,-112.11 924.5,-85 922.82,-84.51 921.1,-83.96 919.39,-83.36"/>
<polygon fill="#63b8ff" stroke="#63b8ff" points="920.31,-79.97 909.72,-79.63 917.79,-86.5 920.31,-79.97"/>
</a>
</g>
</g>
<!-- Node23&#45;&gt;Node12 -->
<g id="edge35_Node000023_Node000012" class="edge">
<title>Node23&#45;&gt;Node12</title>
<g id="a_edge35_Node000023_Node000012"><a xlink:title=" ">
<path fill="none" stroke="#63b8ff" d="M1167.71,-120.93C1126.77,-110.34 1075.36,-97 1029.5,-85 1025.93,-84.07 1022.22,-83.09 1018.51,-82.11"/>
<polygon fill="#63b8ff" stroke="#63b8ff" points="1019.29,-78.7 1008.73,-79.54 1017.5,-85.47 1019.29,-78.7"/>
</a>
</g>
</g>
<!-- Node23&#45;&gt;Node15 -->
<g id="edge33_Node000023_Node000015" class="edge">
<title>Node23&#45;&gt;Node15</title>
<g id="a_edge33_Node000023_Node000015"><a xlink:title=" ">
<path fill="none" stroke="#63b8ff" d="M1201.04,-120.96C1179.55,-111.07 1153.62,-99.13 1132.5,-89.41"/>
<polygon fill="#63b8ff" stroke="#63b8ff" points="1133.71,-86.11 1123.16,-85.11 1130.78,-92.47 1133.71,-86.11"/>
</a>
</g>
</g>
<!-- Node24&#45;&gt;Node3 -->
<g id="edge42_Node000024_Node000003" class="edge">
<title>Node24&#45;&gt;Node3</title>
<g id="a_edge42_Node000024_Node000003"><a xlink:title=" ">
<path fill="none" stroke="#63b8ff" d="M693.33,-120.77C707.82,-109.71 725.59,-96.13 738.92,-85.96"/>
<polygon fill="#63b8ff" stroke="#63b8ff" points="741.13,-88.67 746.95,-79.82 736.88,-83.11 741.13,-88.67"/>
</a>
</g>
</g>
<!-- Node24&#45;&gt;Node9 -->
<g id="edge43_Node000024_Node000009" class="edge">
<title>Node24&#45;&gt;Node9</title>
<g id="a_edge43_Node000024_Node000009"><a xlink:title=" ">
<path fill="none" stroke="#63b8ff" d="M713.56,-120.92C738.21,-110.38 769.06,-97.1 796.5,-85 797.35,-84.62 798.21,-84.24 799.09,-83.86"/>
<polygon fill="#63b8ff" stroke="#63b8ff" points="800.81,-86.92 808.51,-79.64 797.95,-80.53 800.81,-86.92"/>
</a>
</g>
</g>
<!-- Node24&#45;&gt;Node11 -->
<g id="edge40_Node000024_Node000011" class="edge">
<title>Node24&#45;&gt;Node11</title>
<g id="a_edge40_Node000024_Node000011"><a xlink:title=" ">
<path fill="none" stroke="#63b8ff" d="M742.53,-120.91C778.01,-111.09 820.76,-98.43 858.5,-85 859.93,-84.49 861.39,-83.95 862.85,-83.39"/>
<polygon fill="#63b8ff" stroke="#63b8ff" points="864.48,-86.51 872.46,-79.53 861.87,-80.01 864.48,-86.51"/>
</a>
</g>
</g>
<!-- Node24&#45;&gt;Node12 -->
<g id="edge41_Node000024_Node000012" class="edge">
<title>Node24&#45;&gt;Node12</title>
<g id="a_edge41_Node000024_Node000012"><a xlink:title=" ">
<path fill="none" stroke="#63b8ff" d="M762.66,-121.14C811.22,-110.96 871.16,-97.93 924.5,-85 928.17,-84.11 931.97,-83.15 935.78,-82.17"/>
<polygon fill="#63b8ff" stroke="#63b8ff" points="936.99,-85.47 945.77,-79.55 935.21,-78.7 936.99,-85.47"/>
</a>
</g>
</g>
<!-- Node24&#45;&gt;Node15 -->
<g id="edge39_Node000024_Node000015" class="edge">
<title>Node24&#45;&gt;Node15</title>
<g id="a_edge39_Node000024_Node000015"><a xlink:title=" ">
<path fill="none" stroke="#63b8ff" d="M762.68,-122.47C765.66,-121.97 768.6,-121.47 771.5,-121 882.21,-102.88 913.29,-105.19 1027.88,-85.02"/>
<polygon fill="#63b8ff" stroke="#63b8ff" points="1028.51,-88.46 1037.74,-83.27 1027.28,-81.57 1028.51,-88.46"/>
</a>
</g>
</g>
</g>
</svg>

<g id="navigator" transform="translate(0 0)" fill="#404254">
  <rect fill="#f2f5e9" fill-opacity="0.5" stroke="#606060" stroke-width=".5" x="0" y="0" width="60" height="60"/>
  <use id="zoomplus" xlink:href="#zoomPlus" x="17" y="9" onmousedown="handleZoom(evt,'in')"/>
  <use id="zoomminus" xlink:href="#zoomMin" x="42" y="9" onmousedown="handleZoom(evt,'out')"/>
  <use id="reset" xlink:href="#resetDef" x="30" y="36" onmousedown="handleReset()"/>
   <use id="arrowup" xlink:href="#arrowUp" x="0" y="0" onmousedown="handlePan(0,-1)"/>
  <use id="arrowright" xlink:href="#arrowRight" x="0" y="0" onmousedown="handlePan(1,0)"/>
  <use id="arrowdown" xlink:href="#arrowDown" x="0" y="0" onmousedown="handlePan(0,1)"/>
  <use id="arrowleft" xlink:href="#arrowLeft" x="0" y="0" onmousedown="handlePan(-1,0)"/>
</g>
<svg viewBox="0 0 15 15" width="100%" height="30px" preserveAspectRatio="xMaxYMin meet">
 <g id="arrow_out" transform="scale(0.3 0.3)">
  <a xlink:href="maneuver__controller__node__configurator_8cpp__incl_org.svg" target="_base">
   <rect id="button" ry="5" rx="5" y="6" x="6" height="38" width="38"
        fill="#f2f5e9" fill-opacity="0.5" stroke="#606060" stroke-width="1.0"/>
   <path id="arrow"
     d="M 11.500037,31.436501 C 11.940474,20.09759 22.043105,11.32322 32.158766,21.979434 L 37.068811,17.246167 C 37.068811,17.246167 37.088388,32 37.088388,32 L 22.160133,31.978069 C 22.160133,31.978069 26.997745,27.140456 26.997745,27.140456 C 18.528582,18.264221 13.291696,25.230495 11.500037,31.436501 z"
     style="fill:#404040;"/>
  </a>
 </g>
</svg>

<style type='text/css'>
<![CDATA[
[data-mouse-over-selected='false'] { opacity: 0.7; }
[data-mouse-over-selected='true']  { opacity: 1.0; }
]]>
</style>
<script type="application/ecmascript"><![CDATA[
document.addEventListener('DOMContentLoaded', (event) => {
  highlightEdges();
  highlightAdjacentNodes();
});
]]></script>
</svg>
