<?xml version="1.0" encoding="UTF-8" standalone="no"?>
<!DOCTYPE svg PUBLIC "-//W3C//DTD SVG 1.1//EN"
 "http://www.w3.org/Graphics/SVG/1.1/DTD/svg11.dtd">
<!-- Generated by graphviz version 2.43.0 (0)
 -->
<!-- Title: /home/ffn/Workspace/ros2_humble_ws/src/III&#45;Drone&#45;Core/src/control/maneuver/maneuver_types.cpp Pages: 1 -->
<svg width="2538pt" height="313pt"
 viewBox="0.00 0.00 2537.50 313.00" xmlns="http://www.w3.org/2000/svg" xmlns:xlink="http://www.w3.org/1999/xlink">
<g id="graph0" class="graph" transform="scale(1 1) rotate(0) translate(4 309)">
<title>/home/ffn/Workspace/ros2_humble_ws/src/III&#45;Drone&#45;Core/src/control/maneuver/maneuver_types.cpp</title>
<!-- Node1 -->
<g id="Node000001" class="node">
<title>Node1</title>
<g id="a_Node000001"><a xlink:title=" ">
<polygon fill="#999999" stroke="#666666" points="1362,-305 1188,-305 1188,-253 1362,-253 1362,-305"/>
<text text-anchor="start" x="1196" y="-293" font-family="Helvetica,sans-Serif" font-size="10.00">/home/ffn/Workspace</text>
<text text-anchor="start" x="1196" y="-282" font-family="Helvetica,sans-Serif" font-size="10.00">/ros2_humble_ws/src</text>
<text text-anchor="start" x="1196" y="-271" font-family="Helvetica,sans-Serif" font-size="10.00">/III&#45;Drone&#45;Core/src/control</text>
<text text-anchor="middle" x="1275" y="-260" font-family="Helvetica,sans-Serif" font-size="10.00">/maneuver/maneuver_types.cpp</text>
</a>
</g>
</g>
<!-- Node2 -->
<g id="Node000002" class="node">
<title>Node2</title>
<g id="a_Node000002"><a xlink:href="maneuver__types_8hpp.html" target="_top" xlink:title=" ">
<polygon fill="white" stroke="#666666" points="1362.5,-217 1187.5,-217 1187.5,-187 1362.5,-187 1362.5,-217"/>
<text text-anchor="start" x="1195.5" y="-205" font-family="Helvetica,sans-Serif" font-size="10.00">iii_drone_core/control</text>
<text text-anchor="middle" x="1275" y="-194" font-family="Helvetica,sans-Serif" font-size="10.00">/maneuver/maneuver_types.hpp</text>
</a>
</g>
</g>
<!-- Node1&#45;&gt;Node2 -->
<g id="edge1_Node000001_Node000002" class="edge">
<title>Node1&#45;&gt;Node2</title>
<g id="a_edge1_Node000001_Node000002"><a xlink:title=" ">
<path fill="none" stroke="#63b8ff" d="M1275,-252.61C1275,-244.54 1275,-235.64 1275,-227.63"/>
<polygon fill="#63b8ff" stroke="#63b8ff" points="1278.5,-227.43 1275,-217.43 1271.5,-227.43 1278.5,-227.43"/>
</a>
</g>
</g>
<!-- Node3 -->
<g id="Node000003" class="node">
<title>Node3</title>
<g id="a_Node000003"><a xlink:href="types_8hpp.html" target="_top" xlink:title=" ">
<polygon fill="white" stroke="#666666" points="462.5,-85 353.5,-85 353.5,-55 462.5,-55 462.5,-85"/>
<text text-anchor="start" x="361.5" y="-73" font-family="Helvetica,sans-Serif" font-size="10.00">iii_drone_core/utils</text>
<text text-anchor="middle" x="408" y="-62" font-family="Helvetica,sans-Serif" font-size="10.00">/types.hpp</text>
</a>
</g>
</g>
<!-- Node2&#45;&gt;Node3 -->
<g id="edge2_Node000002_Node000003" class="edge">
<title>Node2&#45;&gt;Node3</title>
<g id="a_edge2_Node000002_Node000003"><a xlink:title=" ">
<path fill="none" stroke="#63b8ff" d="M1187.24,-201.65C982.12,-202.35 484.22,-199.03 427,-151 411.08,-137.64 407.12,-113.6 406.67,-95.34"/>
<polygon fill="#63b8ff" stroke="#63b8ff" points="410.17,-95.16 406.76,-85.14 403.17,-95.11 410.17,-95.16"/>
</a>
</g>
</g>
<!-- Node5 -->
<g id="Node000005" class="node">
<title>Node5</title>
<g id="a_Node000005"><a xlink:title=" ">
<polygon fill="#e0e0e0" stroke="#999999" points="168,-19 0,-19 0,0 168,0 168,-19"/>
<text text-anchor="middle" x="84" y="-7" font-family="Helvetica,sans-Serif" font-size="10.00">geometry_msgs/msg/point.hpp</text>
</a>
</g>
</g>
<!-- Node2&#45;&gt;Node5 -->
<g id="edge26_Node000002_Node000005" class="edge">
<title>Node2&#45;&gt;Node5</title>
<g id="a_edge26_Node000002_Node000005"><a xlink:title=" ">
<path fill="none" stroke="#63b8ff" d="M1187.41,-199.87C997.35,-196.8 552.43,-185.97 406,-151 287.88,-122.79 158.72,-53.47 107.14,-24.05"/>
<polygon fill="#63b8ff" stroke="#63b8ff" points="108.85,-21 98.43,-19.04 105.36,-27.06 108.85,-21"/>
</a>
</g>
</g>
<!-- Node10 -->
<g id="Node000010" class="node">
<title>Node10</title>
<g id="a_Node000010"><a xlink:href="target__adapter_8hpp.html" target="_top" xlink:title=" ">
<polygon fill="white" stroke="#666666" points="567.5,-151 436.5,-151 436.5,-121 567.5,-121 567.5,-151"/>
<text text-anchor="start" x="444.5" y="-139" font-family="Helvetica,sans-Serif" font-size="10.00">iii_drone_core/adapters</text>
<text text-anchor="middle" x="502" y="-128" font-family="Helvetica,sans-Serif" font-size="10.00">/target_adapter.hpp</text>
</a>
</g>
</g>
<!-- Node2&#45;&gt;Node10 -->
<g id="edge9_Node000002_Node000010" class="edge">
<title>Node2&#45;&gt;Node10</title>
<g id="a_edge9_Node000002_Node000010"><a xlink:title=" ">
<path fill="none" stroke="#63b8ff" d="M1187.48,-197.53C1055.75,-191.66 798.84,-177.73 582,-151 580.7,-150.84 579.39,-150.67 578.07,-150.5"/>
<polygon fill="#63b8ff" stroke="#63b8ff" points="578.23,-146.99 567.84,-149.07 577.26,-153.92 578.23,-146.99"/>
</a>
</g>
</g>
<!-- Node11 -->
<g id="Node000011" class="node">
<title>Node11</title>
<g id="a_Node000011"><a xlink:title=" ">
<polygon fill="#e0e0e0" stroke="#999999" points="656.5,-85 543.5,-85 543.5,-55 656.5,-55 656.5,-85"/>
<text text-anchor="start" x="551.5" y="-73" font-family="Helvetica,sans-Serif" font-size="10.00">iii_drone_interfaces</text>
<text text-anchor="middle" x="600" y="-62" font-family="Helvetica,sans-Serif" font-size="10.00">/msg/target.hpp</text>
</a>
</g>
</g>
<!-- Node2&#45;&gt;Node11 -->
<g id="edge21_Node000002_Node000011" class="edge">
<title>Node2&#45;&gt;Node11</title>
<g id="a_edge21_Node000002_Node000011"><a xlink:title=" ">
<path fill="none" stroke="#63b8ff" d="M1187.39,-200.15C1017.86,-197.67 657.86,-188.05 616,-151 600.56,-137.33 597.51,-113.33 597.74,-95.17"/>
<polygon fill="#63b8ff" stroke="#63b8ff" points="601.25,-95.18 598.22,-85.02 594.26,-94.85 601.25,-95.18"/>
</a>
</g>
</g>
<!-- Node13 -->
<g id="Node000013" class="node">
<title>Node13</title>
<g id="a_Node000013"><a xlink:title=" ">
<polygon fill="#e0e0e0" stroke="#999999" points="737.5,-151 624.5,-151 624.5,-121 737.5,-121 737.5,-151"/>
<text text-anchor="start" x="632.5" y="-139" font-family="Helvetica,sans-Serif" font-size="10.00">iii_drone_interfaces</text>
<text text-anchor="middle" x="681" y="-128" font-family="Helvetica,sans-Serif" font-size="10.00">/action/takeoff.hpp</text>
</a>
</g>
</g>
<!-- Node2&#45;&gt;Node13 -->
<g id="edge13_Node000002_Node000013" class="edge">
<title>Node2&#45;&gt;Node13</title>
<g id="a_edge13_Node000002_Node000013"><a xlink:title=" ">
<path fill="none" stroke="#63b8ff" d="M1187.27,-195.78C1084.35,-188.96 908.45,-175.14 747.87,-151.01"/>
<polygon fill="#63b8ff" stroke="#63b8ff" points="748.22,-147.52 737.81,-149.48 747.17,-154.44 748.22,-147.52"/>
</a>
</g>
</g>
<!-- Node14 -->
<g id="Node000014" class="node">
<title>Node14</title>
<g id="a_Node000014"><a xlink:title=" ">
<polygon fill="#e0e0e0" stroke="#999999" points="868.5,-151 755.5,-151 755.5,-121 868.5,-121 868.5,-151"/>
<text text-anchor="start" x="763.5" y="-139" font-family="Helvetica,sans-Serif" font-size="10.00">iii_drone_interfaces</text>
<text text-anchor="middle" x="812" y="-128" font-family="Helvetica,sans-Serif" font-size="10.00">/action/landing.hpp</text>
</a>
</g>
</g>
<!-- Node2&#45;&gt;Node14 -->
<g id="edge14_Node000002_Node000014" class="edge">
<title>Node2&#45;&gt;Node14</title>
<g id="a_edge14_Node000002_Node000014"><a xlink:title=" ">
<path fill="none" stroke="#63b8ff" d="M1187.17,-192.07C1108.88,-183.63 990.99,-169.7 878.95,-151.07"/>
<polygon fill="#63b8ff" stroke="#63b8ff" points="879.27,-147.57 868.82,-149.37 878.11,-154.48 879.27,-147.57"/>
</a>
</g>
</g>
<!-- Node15 -->
<g id="Node000015" class="node">
<title>Node15</title>
<g id="a_Node000015"><a xlink:title=" ">
<polygon fill="#e0e0e0" stroke="#999999" points="1031.5,-151 886.5,-151 886.5,-121 1031.5,-121 1031.5,-151"/>
<text text-anchor="start" x="894.5" y="-139" font-family="Helvetica,sans-Serif" font-size="10.00">iii_drone_interfaces</text>
<text text-anchor="middle" x="959" y="-128" font-family="Helvetica,sans-Serif" font-size="10.00">/action/fly_to_position.hpp</text>
</a>
</g>
</g>
<!-- Node2&#45;&gt;Node15 -->
<g id="edge15_Node000002_Node000015" class="edge">
<title>Node2&#45;&gt;Node15</title>
<g id="a_edge15_Node000002_Node000015"><a xlink:title=" ">
<path fill="none" stroke="#63b8ff" d="M1205.65,-186.95C1156.26,-176.95 1089.77,-163.49 1038.28,-153.06"/>
<polygon fill="#63b8ff" stroke="#63b8ff" points="1038.68,-149.57 1028.19,-151.01 1037.29,-156.43 1038.68,-149.57"/>
</a>
</g>
</g>
<!-- Node16 -->
<g id="Node000016" class="node">
<title>Node16</title>
<g id="a_Node000016"><a xlink:title=" ">
<polygon fill="#e0e0e0" stroke="#999999" points="1186,-151 1050,-151 1050,-121 1186,-121 1186,-151"/>
<text text-anchor="start" x="1058" y="-139" font-family="Helvetica,sans-Serif" font-size="10.00">iii_drone_interfaces</text>
<text text-anchor="middle" x="1118" y="-128" font-family="Helvetica,sans-Serif" font-size="10.00">/action/fly_to_object.hpp</text>
</a>
</g>
</g>
<!-- Node2&#45;&gt;Node16 -->
<g id="edge16_Node000002_Node000016" class="edge">
<title>Node2&#45;&gt;Node16</title>
<g id="a_edge16_Node000002_Node000016"><a xlink:title=" ">
<path fill="none" stroke="#63b8ff" d="M1240.55,-186.95C1217.44,-177.53 1186.8,-165.04 1161.94,-154.91"/>
<polygon fill="#63b8ff" stroke="#63b8ff" points="1162.96,-151.55 1152.37,-151.01 1160.31,-158.03 1162.96,-151.55"/>
</a>
</g>
</g>
<!-- Node17 -->
<g id="Node000017" class="node">
<title>Node17</title>
<g id="a_Node000017"><a xlink:title=" ">
<polygon fill="#e0e0e0" stroke="#999999" points="1345.5,-151 1204.5,-151 1204.5,-121 1345.5,-121 1345.5,-151"/>
<text text-anchor="start" x="1212.5" y="-139" font-family="Helvetica,sans-Serif" font-size="10.00">iii_drone_interfaces</text>
<text text-anchor="middle" x="1275" y="-128" font-family="Helvetica,sans-Serif" font-size="10.00">/action/cable_landing.hpp</text>
</a>
</g>
</g>
<!-- Node2&#45;&gt;Node17 -->
<g id="edge17_Node000002_Node000017" class="edge">
<title>Node2&#45;&gt;Node17</title>
<g id="a_edge17_Node000002_Node000017"><a xlink:title=" ">
<path fill="none" stroke="#63b8ff" d="M1275,-186.8C1275,-179.34 1275,-169.99 1275,-161.41"/>
<polygon fill="#63b8ff" stroke="#63b8ff" points="1278.5,-161.16 1275,-151.16 1271.5,-161.16 1278.5,-161.16"/>
</a>
</g>
</g>
<!-- Node18 -->
<g id="Node000018" class="node">
<title>Node18</title>
<g id="a_Node000018"><a xlink:title=" ">
<polygon fill="#e0e0e0" stroke="#999999" points="1502.5,-151 1363.5,-151 1363.5,-121 1502.5,-121 1502.5,-151"/>
<text text-anchor="start" x="1371.5" y="-139" font-family="Helvetica,sans-Serif" font-size="10.00">iii_drone_interfaces</text>
<text text-anchor="middle" x="1433" y="-128" font-family="Helvetica,sans-Serif" font-size="10.00">/action/cable_takeoff.hpp</text>
</a>
</g>
</g>
<!-- Node2&#45;&gt;Node18 -->
<g id="edge18_Node000002_Node000018" class="edge">
<title>Node2&#45;&gt;Node18</title>
<g id="a_edge18_Node000002_Node000018"><a xlink:title=" ">
<path fill="none" stroke="#63b8ff" d="M1309.67,-186.95C1333.03,-177.49 1364.04,-164.93 1389.11,-154.78"/>
<polygon fill="#63b8ff" stroke="#63b8ff" points="1390.45,-158.01 1398.41,-151.01 1387.82,-151.52 1390.45,-158.01"/>
</a>
</g>
</g>
<!-- Node19 -->
<g id="Node000019" class="node">
<title>Node19</title>
<g id="a_Node000019"><a xlink:title=" ">
<polygon fill="#e0e0e0" stroke="#999999" points="1677,-151 1521,-151 1521,-121 1677,-121 1677,-151"/>
<text text-anchor="start" x="1529" y="-139" font-family="Helvetica,sans-Serif" font-size="10.00">iii_drone_interfaces</text>
<text text-anchor="middle" x="1599" y="-128" font-family="Helvetica,sans-Serif" font-size="10.00">/action/disarm_on_cable.hpp</text>
</a>
</g>
</g>
<!-- Node2&#45;&gt;Node19 -->
<g id="edge19_Node000002_Node000019" class="edge">
<title>Node2&#45;&gt;Node19</title>
<g id="a_edge19_Node000002_Node000019"><a xlink:title=" ">
<path fill="none" stroke="#63b8ff" d="M1346.1,-186.95C1396.85,-176.93 1465.2,-163.43 1518.05,-152.99"/>
<polygon fill="#63b8ff" stroke="#63b8ff" points="1518.93,-156.38 1528.06,-151.01 1517.57,-149.52 1518.93,-156.38"/>
</a>
</g>
</g>
<!-- Node20 -->
<g id="Node000020" class="node">
<title>Node20</title>
<g id="a_Node000020"><a xlink:title=" ">
<polygon fill="#e0e0e0" stroke="#999999" points="1837,-151 1695,-151 1695,-121 1837,-121 1837,-151"/>
<text text-anchor="start" x="1703" y="-139" font-family="Helvetica,sans-Serif" font-size="10.00">iii_drone_interfaces</text>
<text text-anchor="middle" x="1766" y="-128" font-family="Helvetica,sans-Serif" font-size="10.00">/action/arm_on_cable.hpp</text>
</a>
</g>
</g>
<!-- Node2&#45;&gt;Node20 -->
<g id="edge20_Node000002_Node000020" class="edge">
<title>Node2&#45;&gt;Node20</title>
<g id="a_edge20_Node000002_Node000020"><a xlink:title=" ">
<path fill="none" stroke="#63b8ff" d="M1362.57,-191.69C1443.54,-182.77 1567.46,-168.34 1684.7,-151.15"/>
<polygon fill="#63b8ff" stroke="#63b8ff" points="1685.55,-154.56 1694.93,-149.64 1684.53,-147.63 1685.55,-154.56"/>
</a>
</g>
</g>
<!-- Node21 -->
<g id="Node000021" class="node">
<title>Node21</title>
<g id="a_Node000021"><a xlink:title=" ">
<polygon fill="#e0e0e0" stroke="#999999" points="1954.5,-145.5 1855.5,-145.5 1855.5,-126.5 1954.5,-126.5 1954.5,-145.5"/>
<text text-anchor="middle" x="1905" y="-133.5" font-family="Helvetica,sans-Serif" font-size="10.00">rclcpp/rclcpp.hpp</text>
</a>
</g>
</g>
<!-- Node2&#45;&gt;Node21 -->
<g id="edge22_Node000002_Node000021" class="edge">
<title>Node2&#45;&gt;Node21</title>
<g id="a_edge22_Node000002_Node000021"><a xlink:title=" ">
<path fill="none" stroke="#63b8ff" d="M1362.55,-197.3C1475.03,-191.64 1676.05,-178.45 1846,-151 1851.46,-150.12 1857.16,-149.01 1862.77,-147.8"/>
<polygon fill="#63b8ff" stroke="#63b8ff" points="1863.73,-151.18 1872.71,-145.56 1862.19,-144.35 1863.73,-151.18"/>
</a>
</g>
</g>
<!-- Node22 -->
<g id="Node000022" class="node">
<title>Node22</title>
<g id="a_Node000022"><a xlink:title=" ">
<polygon fill="#e0e0e0" stroke="#999999" points="2085.5,-151 1972.5,-151 1972.5,-121 2085.5,-121 2085.5,-151"/>
<text text-anchor="start" x="1980.5" y="-139" font-family="Helvetica,sans-Serif" font-size="10.00">rclcpp_action/rclcpp</text>
<text text-anchor="middle" x="2029" y="-128" font-family="Helvetica,sans-Serif" font-size="10.00">_action.hpp</text>
</a>
</g>
</g>
<!-- Node2&#45;&gt;Node22 -->
<g id="edge23_Node000002_Node000022" class="edge">
<title>Node2&#45;&gt;Node22</title>
<g id="a_edge23_Node000002_Node000022"><a xlink:title=" ">
<path fill="none" stroke="#63b8ff" d="M1362.7,-198.56C1492.03,-194.08 1741.57,-182.13 1962.21,-151.13"/>
<polygon fill="#63b8ff" stroke="#63b8ff" points="1962.96,-154.56 1972.36,-149.69 1961.97,-147.63 1962.96,-154.56"/>
</a>
</g>
</g>
<!-- Node23 -->
<g id="Node000023" class="node">
<title>Node23</title>
<g id="a_Node000023"><a xlink:title=" ">
<polygon fill="#e0e0e0" stroke="#999999" points="2256,-151 2104,-151 2104,-121 2256,-121 2256,-151"/>
<text text-anchor="start" x="2112" y="-139" font-family="Helvetica,sans-Serif" font-size="10.00">rclcpp_components/register</text>
<text text-anchor="middle" x="2180" y="-128" font-family="Helvetica,sans-Serif" font-size="10.00">_node_macro.hpp</text>
</a>
</g>
</g>
<!-- Node2&#45;&gt;Node23 -->
<g id="edge24_Node000002_Node000023" class="edge">
<title>Node2&#45;&gt;Node23</title>
<g id="a_edge24_Node000002_Node000023"><a xlink:title=" ">
<path fill="none" stroke="#63b8ff" d="M1362.63,-198.6C1511.07,-193.89 1821.56,-181.22 2093.53,-151.09"/>
<polygon fill="#63b8ff" stroke="#63b8ff" points="2094.05,-154.55 2103.6,-149.96 2093.27,-147.6 2094.05,-154.55"/>
</a>
</g>
</g>
<!-- Node24 -->
<g id="Node000024" class="node">
<title>Node24</title>
<g id="a_Node000024"><a xlink:title=" ">
<polygon fill="#e0e0e0" stroke="#999999" points="2364,-145.5 2274,-145.5 2274,-126.5 2364,-126.5 2364,-145.5"/>
<text text-anchor="middle" x="2319" y="-133.5" font-family="Helvetica,sans-Serif" font-size="10.00">tf2_ros/buffer.h</text>
</a>
</g>
</g>
<!-- Node2&#45;&gt;Node24 -->
<g id="edge25_Node000002_Node000024" class="edge">
<title>Node2&#45;&gt;Node24</title>
<g id="a_edge25_Node000002_Node000024"><a xlink:title=" ">
<path fill="none" stroke="#63b8ff" d="M1362.53,-198.86C1571,-193.4 2092.34,-177.46 2265,-151 2270.13,-150.21 2275.49,-149.14 2280.74,-147.94"/>
<polygon fill="#63b8ff" stroke="#63b8ff" points="2281.76,-151.29 2290.64,-145.51 2280.09,-144.49 2281.76,-151.29"/>
</a>
</g>
</g>
<!-- Node25 -->
<g id="Node000025" class="node">
<title>Node25</title>
<g id="a_Node000025"><a xlink:title=" ">
<polygon fill="#e0e0e0" stroke="#999999" points="2529.5,-151 2382.5,-151 2382.5,-121 2529.5,-121 2529.5,-151"/>
<text text-anchor="start" x="2390.5" y="-139" font-family="Helvetica,sans-Serif" font-size="10.00">geometry_msgs/msg/point</text>
<text text-anchor="middle" x="2456" y="-128" font-family="Helvetica,sans-Serif" font-size="10.00">_stamped.hpp</text>
</a>
</g>
</g>
<!-- Node2&#45;&gt;Node25 -->
<g id="edge27_Node000002_Node000025" class="edge">
<title>Node2&#45;&gt;Node25</title>
<g id="a_edge27_Node000002_Node000025"><a xlink:title=" ">
<path fill="none" stroke="#63b8ff" d="M1362.81,-200.62C1547.71,-199.03 1990.85,-191.08 2372.17,-150.98"/>
<polygon fill="#63b8ff" stroke="#63b8ff" points="2372.72,-154.44 2382.3,-149.91 2371.98,-147.48 2372.72,-154.44"/>
</a>
</g>
</g>
<!-- Node4 -->
<g id="Node000004" class="node">
<title>Node4</title>
<g id="a_Node000004"><a xlink:title=" ">
<polygon fill="#e0e0e0" stroke="#999999" points="291.5,-19 186.5,-19 186.5,0 291.5,0 291.5,-19"/>
<text text-anchor="middle" x="239" y="-7" font-family="Helvetica,sans-Serif" font-size="10.00">eigen3/Eigen/Core</text>
</a>
</g>
</g>
<!-- Node3&#45;&gt;Node4 -->
<g id="edge3_Node000003_Node000004" class="edge">
<title>Node3&#45;&gt;Node4</title>
<g id="a_edge3_Node000003_Node000004"><a xlink:title=" ">
<path fill="none" stroke="#63b8ff" d="M367.52,-54.99C338.82,-45.05 300.72,-31.86 273.47,-22.43"/>
<polygon fill="#63b8ff" stroke="#63b8ff" points="274.55,-19.1 263.96,-19.14 272.26,-25.72 274.55,-19.1"/>
</a>
</g>
</g>
<!-- Node3&#45;&gt;Node5 -->
<g id="edge4_Node000003_Node000005" class="edge">
<title>Node3&#45;&gt;Node5</title>
<g id="a_edge4_Node000003_Node000005"><a xlink:title=" ">
<path fill="none" stroke="#63b8ff" d="M353.4,-59.14C294.5,-48.51 201.12,-31.65 141.22,-20.83"/>
<polygon fill="#63b8ff" stroke="#63b8ff" points="141.64,-17.35 131.17,-19.02 140.39,-24.24 141.64,-17.35"/>
</a>
</g>
</g>
<!-- Node6 -->
<g id="Node000006" class="node">
<title>Node6</title>
<g id="a_Node000006"><a xlink:title=" ">
<polygon fill="#e0e0e0" stroke="#999999" points="506,-19 310,-19 310,0 506,0 506,-19"/>
<text text-anchor="middle" x="408" y="-7" font-family="Helvetica,sans-Serif" font-size="10.00">geometry_msgs/msg/quaternion.hpp</text>
</a>
</g>
</g>
<!-- Node3&#45;&gt;Node6 -->
<g id="edge5_Node000003_Node000006" class="edge">
<title>Node3&#45;&gt;Node6</title>
<g id="a_edge5_Node000003_Node000006"><a xlink:title=" ">
<path fill="none" stroke="#63b8ff" d="M408,-54.84C408,-47.21 408,-37.7 408,-29.45"/>
<polygon fill="#63b8ff" stroke="#63b8ff" points="411.5,-29.27 408,-19.27 404.5,-29.27 411.5,-29.27"/>
</a>
</g>
</g>
<!-- Node7 -->
<g id="Node000007" class="node">
<title>Node7</title>
<g id="a_Node000007"><a xlink:title=" ">
<polygon fill="#e0e0e0" stroke="#999999" points="690.5,-19 523.5,-19 523.5,0 690.5,0 690.5,-19"/>
<text text-anchor="middle" x="607" y="-7" font-family="Helvetica,sans-Serif" font-size="10.00">geometry_msgs/msg/pose.hpp</text>
</a>
</g>
</g>
<!-- Node3&#45;&gt;Node7 -->
<g id="edge6_Node000003_Node000007" class="edge">
<title>Node3&#45;&gt;Node7</title>
<g id="a_edge6_Node000003_Node000007"><a xlink:title=" ">
<path fill="none" stroke="#63b8ff" d="M455.67,-54.99C490.01,-44.89 535.78,-31.44 567.96,-21.98"/>
<polygon fill="#63b8ff" stroke="#63b8ff" points="569.3,-25.23 577.9,-19.05 567.32,-18.52 569.3,-25.23"/>
</a>
</g>
</g>
<!-- Node8 -->
<g id="Node000008" class="node">
<title>Node8</title>
<g id="a_Node000008"><a xlink:title=" ">
<polygon fill="#e0e0e0" stroke="#999999" points="899.5,-19 708.5,-19 708.5,0 899.5,0 899.5,-19"/>
<text text-anchor="middle" x="804" y="-7" font-family="Helvetica,sans-Serif" font-size="10.00">geometry_msgs/msg/transform.hpp</text>
</a>
</g>
</g>
<!-- Node3&#45;&gt;Node8 -->
<g id="edge7_Node000003_Node000008" class="edge">
<title>Node3&#45;&gt;Node8</title>
<g id="a_edge7_Node000003_Node000008"><a xlink:title=" ">
<path fill="none" stroke="#63b8ff" d="M462.75,-56.71C465.88,-56.11 468.98,-55.53 472,-55 554.67,-40.44 649.66,-28.15 716.8,-20.2"/>
<polygon fill="#63b8ff" stroke="#63b8ff" points="717.39,-23.66 726.91,-19.01 716.57,-16.71 717.39,-23.66"/>
</a>
</g>
</g>
<!-- Node9 -->
<g id="Node000009" class="node">
<title>Node9</title>
<g id="a_Node000009"><a xlink:title=" ">
<polygon fill="#e0e0e0" stroke="#999999" points="1098,-19 918,-19 918,0 1098,0 1098,-19"/>
<text text-anchor="middle" x="1008" y="-7" font-family="Helvetica,sans-Serif" font-size="10.00">geometry_msgs/msg/vector3.hpp</text>
</a>
</g>
</g>
<!-- Node3&#45;&gt;Node9 -->
<g id="edge8_Node000003_Node000009" class="edge">
<title>Node3&#45;&gt;Node9</title>
<g id="a_edge8_Node000003_Node000009"><a xlink:title=" ">
<path fill="none" stroke="#63b8ff" d="M462.72,-56.53C465.85,-55.97 468.96,-55.46 472,-55 661.53,-26.59 713.1,-35.04 907.9,-19.08"/>
<polygon fill="#63b8ff" stroke="#63b8ff" points="908.22,-22.57 917.89,-18.25 907.64,-15.59 908.22,-22.57"/>
</a>
</g>
</g>
<!-- Node10&#45;&gt;Node3 -->
<g id="edge10_Node000010_Node000003" class="edge">
<title>Node10&#45;&gt;Node3</title>
<g id="a_edge10_Node000010_Node000003"><a xlink:title=" ">
<path fill="none" stroke="#63b8ff" d="M481.14,-120.8C468.24,-112.01 451.49,-100.61 437.27,-90.93"/>
<polygon fill="#63b8ff" stroke="#63b8ff" points="439.04,-87.9 428.8,-85.16 435.1,-93.69 439.04,-87.9"/>
</a>
</g>
</g>
<!-- Node10&#45;&gt;Node11 -->
<g id="edge11_Node000010_Node000011" class="edge">
<title>Node10&#45;&gt;Node11</title>
<g id="a_edge11_Node000010_Node000011"><a xlink:title=" ">
<path fill="none" stroke="#63b8ff" d="M523.75,-120.8C537.33,-111.93 554.99,-100.39 569.9,-90.66"/>
<polygon fill="#63b8ff" stroke="#63b8ff" points="571.85,-93.56 578.31,-85.16 568.02,-87.7 571.85,-93.56"/>
</a>
</g>
</g>
<!-- Node12 -->
<g id="Node000012" class="node">
<title>Node12</title>
<g id="a_Node000012"><a xlink:title=" ">
<polygon fill="#e0e0e0" stroke="#999999" points="525,-79.5 481,-79.5 481,-60.5 525,-60.5 525,-79.5"/>
<text text-anchor="middle" x="503" y="-67.5" font-family="Helvetica,sans-Serif" font-size="10.00">string</text>
</a>
</g>
</g>
<!-- Node10&#45;&gt;Node12 -->
<g id="edge12_Node000010_Node000012" class="edge">
<title>Node10&#45;&gt;Node12</title>
<g id="a_edge12_Node000010_Node000012"><a xlink:title=" ">
<path fill="none" stroke="#63b8ff" d="M502.22,-120.8C502.36,-111.7 502.55,-99.79 502.7,-89.9"/>
<polygon fill="#63b8ff" stroke="#63b8ff" points="506.21,-89.9 502.86,-79.84 499.21,-89.79 506.21,-89.9"/>
</a>
</g>
</g>
</g>
</svg>
