<?xml version="1.0" encoding="UTF-8" standalone="no"?>
<!DOCTYPE svg PUBLIC "-//W3C//DTD SVG 1.1//EN"
 "http://www.w3.org/Graphics/SVG/1.1/DTD/svg11.dtd">
<!-- Generated by graphviz version 2.43.0 (0)
 -->
<!-- Title: /home/ffn/Workspace/ros2_humble_ws/src/III&#45;Drone&#45;Core/src/extern/matlab_MPC_5Hz_hp10/mpcblock_optimizer.h Pages: 1 -->
<svg width="243pt" height="236pt"
 viewBox="0.00 0.00 243.00 236.00" xmlns="http://www.w3.org/2000/svg" xmlns:xlink="http://www.w3.org/1999/xlink">
<g id="graph0" class="graph" transform="scale(1 1) rotate(0) translate(4 232)">
<title>/home/ffn/Workspace/ros2_humble_ws/src/III&#45;Drone&#45;Core/src/extern/matlab_MPC_5Hz_hp10/mpcblock_optimizer.h</title>
<!-- Node1 -->
<g id="Node000001" class="node">
<title>Node1</title>
<g id="a_Node000001"><a xlink:title=" ">
<polygon fill="#999999" stroke="#666666" points="234,-228 49,-228 49,-165 234,-165 234,-228"/>
<text text-anchor="start" x="57" y="-216" font-family="Helvetica,sans-Serif" font-size="10.00">/home/ffn/Workspace</text>
<text text-anchor="start" x="57" y="-205" font-family="Helvetica,sans-Serif" font-size="10.00">/ros2_humble_ws/src</text>
<text text-anchor="start" x="57" y="-194" font-family="Helvetica,sans-Serif" font-size="10.00">/III&#45;Drone&#45;Core/src/extern</text>
<text text-anchor="start" x="57" y="-183" font-family="Helvetica,sans-Serif" font-size="10.00">/matlab_MPC_5Hz_hp10/mpcblock</text>
<text text-anchor="middle" x="141.5" y="-172" font-family="Helvetica,sans-Serif" font-size="10.00">_optimizer.h</text>
</a>
</g>
</g>
<!-- Node2 -->
<g id="Node000002" class="node">
<title>Node2</title>
<g id="a_Node000002"><a xlink:href="rtwtypes_8h.html" target="_top" xlink:title=" ">
<polygon fill="white" stroke="#666666" points="96.5,-129 28.5,-129 28.5,-110 96.5,-110 96.5,-129"/>
<text text-anchor="middle" x="62.5" y="-117" font-family="Helvetica,sans-Serif" font-size="10.00">rtwtypes.h</text>
</a>
</g>
</g>
<!-- Node1&#45;&gt;Node2 -->
<g id="edge1_Node000001_Node000002" class="edge">
<title>Node1&#45;&gt;Node2</title>
<g id="a_edge1_Node000001_Node000002"><a xlink:title=" ">
<path fill="none" stroke="#63b8ff" d="M109.37,-164.99C98.9,-155.06 87.72,-144.44 78.9,-136.07"/>
<polygon fill="#63b8ff" stroke="#63b8ff" points="81.22,-133.45 71.56,-129.1 76.4,-138.53 81.22,-133.45"/>
</a>
</g>
</g>
<!-- Node6 -->
<g id="Node000006" class="node">
<title>Node6</title>
<g id="a_Node000006"><a xlink:title=" ">
<polygon fill="#e0e0e0" stroke="#999999" points="168,-129 115,-129 115,-110 168,-110 168,-129"/>
<text text-anchor="middle" x="141.5" y="-117" font-family="Helvetica,sans-Serif" font-size="10.00">cstddef</text>
</a>
</g>
</g>
<!-- Node1&#45;&gt;Node6 -->
<g id="edge5_Node000001_Node000006" class="edge">
<title>Node1&#45;&gt;Node6</title>
<g id="a_edge5_Node000001_Node000006"><a xlink:title=" ">
<path fill="none" stroke="#63b8ff" d="M141.5,-164.99C141.5,-156.28 141.5,-147.03 141.5,-139.24"/>
<polygon fill="#63b8ff" stroke="#63b8ff" points="145,-139.1 141.5,-129.1 138,-139.1 145,-139.1"/>
</a>
</g>
</g>
<!-- Node7 -->
<g id="Node000007" class="node">
<title>Node7</title>
<g id="a_Node000007"><a xlink:title=" ">
<polygon fill="#e0e0e0" stroke="#999999" points="235,-129 186,-129 186,-110 235,-110 235,-129"/>
<text text-anchor="middle" x="210.5" y="-117" font-family="Helvetica,sans-Serif" font-size="10.00">cstdlib</text>
</a>
</g>
</g>
<!-- Node1&#45;&gt;Node7 -->
<g id="edge6_Node000001_Node000007" class="edge">
<title>Node1&#45;&gt;Node7</title>
<g id="a_edge6_Node000001_Node000007"><a xlink:title=" ">
<path fill="none" stroke="#63b8ff" d="M169.56,-164.99C178.52,-155.26 188.07,-144.88 195.7,-136.59"/>
<polygon fill="#63b8ff" stroke="#63b8ff" points="198.39,-138.83 202.58,-129.1 193.24,-134.09 198.39,-138.83"/>
</a>
</g>
</g>
<!-- Node3 -->
<g id="Node000003" class="node">
<title>Node3</title>
<g id="a_Node000003"><a xlink:href="tmwtypes_8h.html" target="_top" xlink:title=" ">
<polygon fill="white" stroke="#666666" points="99.5,-74 25.5,-74 25.5,-55 99.5,-55 99.5,-74"/>
<text text-anchor="middle" x="62.5" y="-62" font-family="Helvetica,sans-Serif" font-size="10.00">tmwtypes.h</text>
</a>
</g>
</g>
<!-- Node2&#45;&gt;Node3 -->
<g id="edge2_Node000002_Node000003" class="edge">
<title>Node2&#45;&gt;Node3</title>
<g id="a_edge2_Node000002_Node000003"><a xlink:title=" ">
<path fill="none" stroke="#63b8ff" d="M62.5,-109.75C62.5,-102.8 62.5,-92.85 62.5,-84.13"/>
<polygon fill="#63b8ff" stroke="#63b8ff" points="66,-84.09 62.5,-74.09 59,-84.09 66,-84.09"/>
</a>
</g>
</g>
<!-- Node4 -->
<g id="Node000004" class="node">
<title>Node4</title>
<g id="a_Node000004"><a xlink:title=" ">
<polygon fill="#e0e0e0" stroke="#999999" points="53,-19 0,-19 0,0 53,0 53,-19"/>
<text text-anchor="middle" x="26.5" y="-7" font-family="Helvetica,sans-Serif" font-size="10.00">limits.h</text>
</a>
</g>
</g>
<!-- Node3&#45;&gt;Node4 -->
<g id="edge3_Node000003_Node000004" class="edge">
<title>Node3&#45;&gt;Node4</title>
<g id="a_edge3_Node000003_Node000004"><a xlink:title=" ">
<path fill="none" stroke="#63b8ff" d="M56.56,-54.75C51.52,-47.34 44.16,-36.5 37.99,-27.41"/>
<polygon fill="#63b8ff" stroke="#63b8ff" points="40.85,-25.39 32.33,-19.09 35.06,-29.33 40.85,-25.39"/>
</a>
</g>
</g>
<!-- Node5 -->
<g id="Node000005" class="node">
<title>Node5</title>
<g id="a_Node000005"><a xlink:title=" ">
<polygon fill="#e0e0e0" stroke="#999999" points="127.5,-19 71.5,-19 71.5,0 127.5,0 127.5,-19"/>
<text text-anchor="middle" x="99.5" y="-7" font-family="Helvetica,sans-Serif" font-size="10.00">stddef.h</text>
</a>
</g>
</g>
<!-- Node3&#45;&gt;Node5 -->
<g id="edge4_Node000003_Node000005" class="edge">
<title>Node3&#45;&gt;Node5</title>
<g id="a_edge4_Node000003_Node000005"><a xlink:title=" ">
<path fill="none" stroke="#63b8ff" d="M68.61,-54.75C73.78,-47.34 81.35,-36.5 87.69,-27.41"/>
<polygon fill="#63b8ff" stroke="#63b8ff" points="90.65,-29.29 93.5,-19.09 84.91,-25.29 90.65,-29.29"/>
</a>
</g>
</g>
</g>
</svg>
