<?xml version="1.0" encoding="UTF-8" standalone="no"?>
<!DOCTYPE svg PUBLIC "-//W3C//DTD SVG 1.1//EN"
 "http://www.w3.org/Graphics/SVG/1.1/DTD/svg11.dtd">
<!-- Generated by graphviz version 2.43.0 (0)
 -->
<!-- Title: /home/ffn/Workspace/ros2_humble_ws/src/III&#45;Drone&#45;Core/src/extern/matlab_MPC_5Hz_hp10/mpcmoveCodeGeneration.h Pages: 1 -->
<svg width="329pt" height="302pt"
 viewBox="0.00 0.00 328.50 302.00" xmlns="http://www.w3.org/2000/svg" xmlns:xlink="http://www.w3.org/1999/xlink">

<svg id="main" version="1.1" xmlns="http://www.w3.org/2000/svg" xmlns:xlink="http://www.w3.org/1999/xlink" xml:space="preserve" onload="init(evt)">
<style type="text/css"><![CDATA[
.node, .edge {opacity: 0.7;}
.node.selected, .edge.selected {opacity: 1;}
.edge:hover path { stroke: red; }
.edge:hover polygon { stroke: red; fill: red; }
]]></style>
<script type="application/ecmascript" xlink:href="svg.min.js"/>
<svg id="graph" class="graph">
<g id="graph0" class="graph" transform="scale(1 1) rotate(0) translate(4 298)">
<title>/home/ffn/Workspace/ros2_humble_ws/src/III&#45;Drone&#45;Core/src/extern/matlab_MPC_5Hz_hp10/mpcmoveCodeGeneration.h</title>
<!-- Node1 -->
<g id="Node000001" class="node">
<title>Node1</title>
<g id="a_Node000001"><a xlink:title=" ">
<polygon fill="#999999" stroke="#666666" points="304.5,-294 93.5,-294 93.5,-231 304.5,-231 304.5,-294"/>
<text text-anchor="start" x="101.5" y="-282" font-family="Helvetica,sans-Serif" font-size="10.00">/home/ffn/Workspace</text>
<text text-anchor="start" x="101.5" y="-271" font-family="Helvetica,sans-Serif" font-size="10.00">/ros2_humble_ws/src</text>
<text text-anchor="start" x="101.5" y="-260" font-family="Helvetica,sans-Serif" font-size="10.00">/III&#45;Drone&#45;Core/src/extern</text>
<text text-anchor="start" x="101.5" y="-249" font-family="Helvetica,sans-Serif" font-size="10.00">/matlab_MPC_5Hz_hp10/mpcmoveCode</text>
<text text-anchor="middle" x="199" y="-238" font-family="Helvetica,sans-Serif" font-size="10.00">Generation.h</text>
</a>
</g>
</g>
<!-- Node2 -->
<g id="Node000002" class="node">
<title>Node2</title>
<g id="a_Node000002"><a xlink:href="mpcmoveCodeGeneration__types_8h.html" target="_top" xlink:title=" ">
<polygon fill="white" stroke="#666666" points="144,-195 0,-195 0,-165 144,-165 144,-195"/>
<text text-anchor="start" x="8" y="-183" font-family="Helvetica,sans-Serif" font-size="10.00">mpcmoveCodeGeneration</text>
<text text-anchor="middle" x="72" y="-172" font-family="Helvetica,sans-Serif" font-size="10.00">_types.h</text>
</a>
</g>
</g>
<!-- Node1&#45;&gt;Node2 -->
<g id="edge1_Node000001_Node000002" class="edge">
<title>Node1&#45;&gt;Node2</title>
<g id="a_edge1_Node000001_Node000002"><a xlink:title=" ">
<path fill="none" stroke="#63b8ff" d="M150.62,-230.84C134.6,-220.68 117.22,-209.66 102.88,-200.57"/>
<polygon fill="#63b8ff" stroke="#63b8ff" points="104.7,-197.59 94.38,-195.19 100.96,-203.5 104.7,-197.59"/>
</a>
</g>
</g>
<!-- Node3 -->
<g id="Node000003" class="node">
<title>Node3</title>
<g id="a_Node000003"><a xlink:href="rtwtypes_8h.html" target="_top" xlink:title=" ">
<polygon fill="white" stroke="#666666" points="156,-129 88,-129 88,-110 156,-110 156,-129"/>
<text text-anchor="middle" x="122" y="-117" font-family="Helvetica,sans-Serif" font-size="10.00">rtwtypes.h</text>
</a>
</g>
</g>
<!-- Node1&#45;&gt;Node3 -->
<g id="edge6_Node000001_Node000003" class="edge">
<title>Node1&#45;&gt;Node3</title>
<g id="a_edge6_Node000001_Node000003"><a xlink:title=" ">
<path fill="none" stroke="#63b8ff" d="M185.94,-230.85C177.34,-211.55 165.41,-186.34 153,-165 147.5,-155.54 140.6,-145.49 134.71,-137.35"/>
<polygon fill="#63b8ff" stroke="#63b8ff" points="137.37,-135.05 128.61,-129.09 131.74,-139.21 137.37,-135.05"/>
</a>
</g>
</g>
<!-- Node7 -->
<g id="Node000007" class="node">
<title>Node7</title>
<g id="a_Node000007"><a xlink:title=" ">
<polygon fill="#e0e0e0" stroke="#999999" points="253.5,-189.5 200.5,-189.5 200.5,-170.5 253.5,-170.5 253.5,-189.5"/>
<text text-anchor="middle" x="227" y="-177.5" font-family="Helvetica,sans-Serif" font-size="10.00">cstddef</text>
</a>
</g>
</g>
<!-- Node1&#45;&gt;Node7 -->
<g id="edge7_Node000001_Node000007" class="edge">
<title>Node1&#45;&gt;Node7</title>
<g id="a_edge7_Node000001_Node000007"><a xlink:title=" ">
<path fill="none" stroke="#63b8ff" d="M209.75,-230.61C213.43,-220.03 217.42,-208.53 220.64,-199.28"/>
<polygon fill="#63b8ff" stroke="#63b8ff" points="224.02,-200.22 224,-189.62 217.41,-197.92 224.02,-200.22"/>
</a>
</g>
</g>
<!-- Node8 -->
<g id="Node000008" class="node">
<title>Node8</title>
<g id="a_Node000008"><a xlink:title=" ">
<polygon fill="#e0e0e0" stroke="#999999" points="320.5,-189.5 271.5,-189.5 271.5,-170.5 320.5,-170.5 320.5,-189.5"/>
<text text-anchor="middle" x="296" y="-177.5" font-family="Helvetica,sans-Serif" font-size="10.00">cstdlib</text>
</a>
</g>
</g>
<!-- Node1&#45;&gt;Node8 -->
<g id="edge8_Node000001_Node000008" class="edge">
<title>Node1&#45;&gt;Node8</title>
<g id="a_edge8_Node000001_Node000008"><a xlink:title=" ">
<path fill="none" stroke="#63b8ff" d="M235.95,-230.84C250.25,-218.97 265.98,-205.91 277.75,-196.15"/>
<polygon fill="#63b8ff" stroke="#63b8ff" points="280.08,-198.76 285.54,-189.68 275.61,-193.37 280.08,-198.76"/>
</a>
</g>
</g>
<!-- Node2&#45;&gt;Node3 -->
<g id="edge2_Node000002_Node000003" class="edge">
<title>Node2&#45;&gt;Node3</title>
<g id="a_edge2_Node000002_Node000003"><a xlink:title=" ">
<path fill="none" stroke="#63b8ff" d="M84.1,-164.84C91.29,-156.43 100.43,-145.74 107.93,-136.96"/>
<polygon fill="#63b8ff" stroke="#63b8ff" points="110.67,-139.14 114.51,-129.27 105.35,-134.59 110.67,-139.14"/>
</a>
</g>
</g>
<!-- Node4 -->
<g id="Node000004" class="node">
<title>Node4</title>
<g id="a_Node000004"><a xlink:href="tmwtypes_8h.html" target="_top" xlink:title=" ">
<polygon fill="white" stroke="#666666" points="159,-74 85,-74 85,-55 159,-55 159,-74"/>
<text text-anchor="middle" x="122" y="-62" font-family="Helvetica,sans-Serif" font-size="10.00">tmwtypes.h</text>
</a>
</g>
</g>
<!-- Node3&#45;&gt;Node4 -->
<g id="edge3_Node000003_Node000004" class="edge">
<title>Node3&#45;&gt;Node4</title>
<g id="a_edge3_Node000003_Node000004"><a xlink:title=" ">
<path fill="none" stroke="#63b8ff" d="M122,-109.75C122,-102.8 122,-92.85 122,-84.13"/>
<polygon fill="#63b8ff" stroke="#63b8ff" points="125.5,-84.09 122,-74.09 118.5,-84.09 125.5,-84.09"/>
</a>
</g>
</g>
<!-- Node5 -->
<g id="Node000005" class="node">
<title>Node5</title>
<g id="a_Node000005"><a xlink:title=" ">
<polygon fill="#e0e0e0" stroke="#999999" points="112.5,-19 59.5,-19 59.5,0 112.5,0 112.5,-19"/>
<text text-anchor="middle" x="86" y="-7" font-family="Helvetica,sans-Serif" font-size="10.00">limits.h</text>
</a>
</g>
</g>
<!-- Node4&#45;&gt;Node5 -->
<g id="edge4_Node000004_Node000005" class="edge">
<title>Node4&#45;&gt;Node5</title>
<g id="a_edge4_Node000004_Node000005"><a xlink:title=" ">
<path fill="none" stroke="#63b8ff" d="M116.06,-54.75C111.02,-47.34 103.66,-36.5 97.49,-27.41"/>
<polygon fill="#63b8ff" stroke="#63b8ff" points="100.35,-25.39 91.83,-19.09 94.56,-29.33 100.35,-25.39"/>
</a>
</g>
</g>
<!-- Node6 -->
<g id="Node000006" class="node">
<title>Node6</title>
<g id="a_Node000006"><a xlink:title=" ">
<polygon fill="#e0e0e0" stroke="#999999" points="187,-19 131,-19 131,0 187,0 187,-19"/>
<text text-anchor="middle" x="159" y="-7" font-family="Helvetica,sans-Serif" font-size="10.00">stddef.h</text>
</a>
</g>
</g>
<!-- Node4&#45;&gt;Node6 -->
<g id="edge5_Node000004_Node000006" class="edge">
<title>Node4&#45;&gt;Node6</title>
<g id="a_edge5_Node000004_Node000006"><a xlink:title=" ">
<path fill="none" stroke="#63b8ff" d="M128.11,-54.75C133.28,-47.34 140.85,-36.5 147.19,-27.41"/>
<polygon fill="#63b8ff" stroke="#63b8ff" points="150.15,-29.29 153,-19.09 144.41,-25.29 150.15,-29.29"/>
</a>
</g>
</g>
</g>
</svg>
</svg>

<style type='text/css'>
<![CDATA[
[data-mouse-over-selected='false'] { opacity: 0.7; }
[data-mouse-over-selected='true']  { opacity: 1.0; }
]]>
</style>
<script type="application/ecmascript"><![CDATA[
document.addEventListener('DOMContentLoaded', (event) => {
  highlightEdges();
  highlightAdjacentNodes();
});
]]></script>
</svg>
