<?xml version="1.0" encoding="UTF-8" standalone="no"?>
<!DOCTYPE svg PUBLIC "-//W3C//DTD SVG 1.1//EN"
 "http://www.w3.org/Graphics/SVG/1.1/DTD/svg11.dtd">
<!-- Generated by graphviz version 2.43.0 (0)
 -->
<!-- Title: /home/ffn/Workspace/ros2_humble_ws/src/III&#45;Drone&#45;Core/src/extern/matlab_MPC_5Hz_hp10/mpcmoveCodeGeneration_data.cpp Pages: 1 -->
<svg width="260pt" height="302pt"
 viewBox="0.00 0.00 260.00 302.00" xmlns="http://www.w3.org/2000/svg" xmlns:xlink="http://www.w3.org/1999/xlink">
<g id="graph0" class="graph" transform="scale(1 1) rotate(0) translate(4 298)">
<title>/home/ffn/Workspace/ros2_humble_ws/src/III&#45;Drone&#45;Core/src/extern/matlab_MPC_5Hz_hp10/mpcmoveCodeGeneration_data.cpp</title>
<!-- Node1 -->
<g id="Node000001" class="node">
<title>Node1</title>
<g id="a_Node000001"><a xlink:title=" ">
<polygon fill="#999999" stroke="#666666" points="211,-294 0,-294 0,-231 211,-231 211,-294"/>
<text text-anchor="start" x="8" y="-282" font-family="Helvetica,sans-Serif" font-size="10.00">/home/ffn/Workspace</text>
<text text-anchor="start" x="8" y="-271" font-family="Helvetica,sans-Serif" font-size="10.00">/ros2_humble_ws/src</text>
<text text-anchor="start" x="8" y="-260" font-family="Helvetica,sans-Serif" font-size="10.00">/III&#45;Drone&#45;Core/src/extern</text>
<text text-anchor="start" x="8" y="-249" font-family="Helvetica,sans-Serif" font-size="10.00">/matlab_MPC_5Hz_hp10/mpcmoveCode</text>
<text text-anchor="middle" x="105.5" y="-238" font-family="Helvetica,sans-Serif" font-size="10.00">Generation_data.cpp</text>
</a>
</g>
</g>
<!-- Node2 -->
<g id="Node000002" class="node">
<title>Node2</title>
<g id="a_Node000002"><a xlink:href="mpcmoveCodeGeneration__data_8h.html" target="_top" xlink:title=" ">
<polygon fill="white" stroke="#666666" points="243.5,-195 99.5,-195 99.5,-165 243.5,-165 243.5,-195"/>
<text text-anchor="start" x="107.5" y="-183" font-family="Helvetica,sans-Serif" font-size="10.00">mpcmoveCodeGeneration</text>
<text text-anchor="middle" x="171.5" y="-172" font-family="Helvetica,sans-Serif" font-size="10.00">_data.h</text>
</a>
</g>
</g>
<!-- Node1&#45;&gt;Node2 -->
<g id="edge1_Node000001_Node000002" class="edge">
<title>Node1&#45;&gt;Node2</title>
<g id="a_edge1_Node000001_Node000002"><a xlink:title=" ">
<path fill="none" stroke="#63b8ff" d="M130.83,-230.61C138.35,-221.43 146.44,-211.56 153.41,-203.07"/>
<polygon fill="#63b8ff" stroke="#63b8ff" points="156.3,-205.05 159.94,-195.1 150.89,-200.62 156.3,-205.05"/>
</a>
</g>
</g>
<!-- Node9 -->
<g id="Node000009" class="node">
<title>Node9</title>
<g id="a_Node000009"><a xlink:href="rt__nonfinite_8h.html" target="_top" xlink:title=" ">
<polygon fill="white" stroke="#666666" points="81,-189.5 0,-189.5 0,-170.5 81,-170.5 81,-189.5"/>
<text text-anchor="middle" x="40.5" y="-177.5" font-family="Helvetica,sans-Serif" font-size="10.00">rt_nonfinite.h</text>
</a>
</g>
</g>
<!-- Node1&#45;&gt;Node9 -->
<g id="edge8_Node000001_Node000009" class="edge">
<title>Node1&#45;&gt;Node9</title>
<g id="a_edge8_Node000001_Node000009"><a xlink:title=" ">
<path fill="none" stroke="#63b8ff" d="M80.56,-230.61C71.45,-219.34 61.52,-207.03 53.82,-197.49"/>
<polygon fill="#63b8ff" stroke="#63b8ff" points="56.47,-195.21 47.46,-189.62 51.02,-199.6 56.47,-195.21"/>
</a>
</g>
</g>
<!-- Node3 -->
<g id="Node000003" class="node">
<title>Node3</title>
<g id="a_Node000003"><a xlink:href="rtwtypes_8h.html" target="_top" xlink:title=" ">
<polygon fill="white" stroke="#666666" points="100.5,-129 32.5,-129 32.5,-110 100.5,-110 100.5,-129"/>
<text text-anchor="middle" x="66.5" y="-117" font-family="Helvetica,sans-Serif" font-size="10.00">rtwtypes.h</text>
</a>
</g>
</g>
<!-- Node2&#45;&gt;Node3 -->
<g id="edge2_Node000002_Node000003" class="edge">
<title>Node2&#45;&gt;Node3</title>
<g id="a_edge2_Node000002_Node000003"><a xlink:title=" ">
<path fill="none" stroke="#63b8ff" d="M146.35,-164.99C129.61,-155.66 107.73,-143.47 91.11,-134.21"/>
<polygon fill="#63b8ff" stroke="#63b8ff" points="92.45,-130.95 82.01,-129.14 89.04,-137.06 92.45,-130.95"/>
</a>
</g>
</g>
<!-- Node7 -->
<g id="Node000007" class="node">
<title>Node7</title>
<g id="a_Node000007"><a xlink:title=" ">
<polygon fill="#e0e0e0" stroke="#999999" points="185,-129 132,-129 132,-110 185,-110 185,-129"/>
<text text-anchor="middle" x="158.5" y="-117" font-family="Helvetica,sans-Serif" font-size="10.00">cstddef</text>
</a>
</g>
</g>
<!-- Node2&#45;&gt;Node7 -->
<g id="edge6_Node000002_Node000007" class="edge">
<title>Node2&#45;&gt;Node7</title>
<g id="a_edge6_Node000002_Node000007"><a xlink:title=" ">
<path fill="none" stroke="#63b8ff" d="M168.35,-164.84C166.64,-157.13 164.5,-147.49 162.65,-139.17"/>
<polygon fill="#63b8ff" stroke="#63b8ff" points="166.03,-138.27 160.45,-129.27 159.2,-139.79 166.03,-138.27"/>
</a>
</g>
</g>
<!-- Node8 -->
<g id="Node000008" class="node">
<title>Node8</title>
<g id="a_Node000008"><a xlink:title=" ">
<polygon fill="#e0e0e0" stroke="#999999" points="252,-129 203,-129 203,-110 252,-110 252,-129"/>
<text text-anchor="middle" x="227.5" y="-117" font-family="Helvetica,sans-Serif" font-size="10.00">cstdlib</text>
</a>
</g>
</g>
<!-- Node2&#45;&gt;Node8 -->
<g id="edge7_Node000002_Node000008" class="edge">
<title>Node2&#45;&gt;Node8</title>
<g id="a_edge7_Node000002_Node000008"><a xlink:title=" ">
<path fill="none" stroke="#63b8ff" d="M185.06,-164.84C193.18,-156.35 203.55,-145.52 212,-136.69"/>
<polygon fill="#63b8ff" stroke="#63b8ff" points="214.72,-138.91 219.11,-129.27 209.67,-134.07 214.72,-138.91"/>
</a>
</g>
</g>
<!-- Node4 -->
<g id="Node000004" class="node">
<title>Node4</title>
<g id="a_Node000004"><a xlink:href="tmwtypes_8h.html" target="_top" xlink:title=" ">
<polygon fill="white" stroke="#666666" points="103.5,-74 29.5,-74 29.5,-55 103.5,-55 103.5,-74"/>
<text text-anchor="middle" x="66.5" y="-62" font-family="Helvetica,sans-Serif" font-size="10.00">tmwtypes.h</text>
</a>
</g>
</g>
<!-- Node3&#45;&gt;Node4 -->
<g id="edge3_Node000003_Node000004" class="edge">
<title>Node3&#45;&gt;Node4</title>
<g id="a_edge3_Node000003_Node000004"><a xlink:title=" ">
<path fill="none" stroke="#63b8ff" d="M66.5,-109.75C66.5,-102.8 66.5,-92.85 66.5,-84.13"/>
<polygon fill="#63b8ff" stroke="#63b8ff" points="70,-84.09 66.5,-74.09 63,-84.09 70,-84.09"/>
</a>
</g>
</g>
<!-- Node5 -->
<g id="Node000005" class="node">
<title>Node5</title>
<g id="a_Node000005"><a xlink:title=" ">
<polygon fill="#e0e0e0" stroke="#999999" points="57,-19 4,-19 4,0 57,0 57,-19"/>
<text text-anchor="middle" x="30.5" y="-7" font-family="Helvetica,sans-Serif" font-size="10.00">limits.h</text>
</a>
</g>
</g>
<!-- Node4&#45;&gt;Node5 -->
<g id="edge4_Node000004_Node000005" class="edge">
<title>Node4&#45;&gt;Node5</title>
<g id="a_edge4_Node000004_Node000005"><a xlink:title=" ">
<path fill="none" stroke="#63b8ff" d="M60.56,-54.75C55.52,-47.34 48.16,-36.5 41.99,-27.41"/>
<polygon fill="#63b8ff" stroke="#63b8ff" points="44.85,-25.39 36.33,-19.09 39.06,-29.33 44.85,-25.39"/>
</a>
</g>
</g>
<!-- Node6 -->
<g id="Node000006" class="node">
<title>Node6</title>
<g id="a_Node000006"><a xlink:title=" ">
<polygon fill="#e0e0e0" stroke="#999999" points="131.5,-19 75.5,-19 75.5,0 131.5,0 131.5,-19"/>
<text text-anchor="middle" x="103.5" y="-7" font-family="Helvetica,sans-Serif" font-size="10.00">stddef.h</text>
</a>
</g>
</g>
<!-- Node4&#45;&gt;Node6 -->
<g id="edge5_Node000004_Node000006" class="edge">
<title>Node4&#45;&gt;Node6</title>
<g id="a_edge5_Node000004_Node000006"><a xlink:title=" ">
<path fill="none" stroke="#63b8ff" d="M72.61,-54.75C77.78,-47.34 85.35,-36.5 91.69,-27.41"/>
<polygon fill="#63b8ff" stroke="#63b8ff" points="94.65,-29.29 97.5,-19.09 88.91,-25.29 94.65,-29.29"/>
</a>
</g>
</g>
<!-- Node9&#45;&gt;Node3 -->
<g id="edge9_Node000009_Node000003" class="edge">
<title>Node9&#45;&gt;Node3</title>
<g id="a_edge9_Node000009_Node000003"><a xlink:title=" ">
<path fill="none" stroke="#63b8ff" d="M44.34,-170.37C48.06,-161.99 53.83,-149.01 58.55,-138.39"/>
<polygon fill="#63b8ff" stroke="#63b8ff" points="61.78,-139.73 62.65,-129.17 55.39,-136.88 61.78,-139.73"/>
</a>
</g>
</g>
</g>
</svg>
