<?xml version="1.0" encoding="UTF-8" standalone="no"?>
<!DOCTYPE svg PUBLIC "-//W3C//DTD SVG 1.1//EN"
 "http://www.w3.org/Graphics/SVG/1.1/DTD/svg11.dtd">
<!-- Generated by graphviz version 2.43.0 (0)
 -->
<!-- Title: _local_setup_util_ps1.reduce_cycle_set Pages: 1 -->
<svg width="535pt" height="38pt"
 viewBox="0.00 0.00 535.00 38.00" xmlns="http://www.w3.org/2000/svg" xmlns:xlink="http://www.w3.org/1999/xlink">
<g id="graph0" class="graph" transform="scale(1 1) rotate(0) translate(4 34)">
<title>_local_setup_util_ps1.reduce_cycle_set</title>
<!-- Node1 -->
<g id="Node000001" class="node">
<title>Node1</title>
<g id="a_Node000001"><a xlink:title=" ">
<polygon fill="#999999" stroke="#666666" points="527,-30 370,-30 370,0 527,0 527,-30"/>
<text text-anchor="start" x="378" y="-18" font-family="Helvetica,sans-Serif" font-size="10.00">_local_setup_util_ps1.reduce</text>
<text text-anchor="middle" x="448.5" y="-7" font-family="Helvetica,sans-Serif" font-size="10.00">_cycle_set</text>
</a>
</g>
</g>
<!-- Node2 -->
<g id="Node000002" class="node">
<title>Node2</title>
<g id="a_Node000002"><a xlink:href="namespace__local__setup__util__ps1.html#a26191bb84775784d32faf60010454dda" target="_top" xlink:title=" ">
<polygon fill="white" stroke="#666666" points="334,-30 185,-30 185,0 334,0 334,-30"/>
<text text-anchor="start" x="193" y="-18" font-family="Helvetica,sans-Serif" font-size="10.00">_local_setup_util_ps1.order</text>
<text text-anchor="middle" x="259.5" y="-7" font-family="Helvetica,sans-Serif" font-size="10.00">_packages</text>
</a>
</g>
</g>
<!-- Node1&#45;&gt;Node2 -->
<g id="edge1_Node000001_Node000002" class="edge">
<title>Node1&#45;&gt;Node2</title>
<g id="a_edge1_Node000001_Node000002"><a xlink:title=" ">
<path fill="none" stroke="#63b8ff" d="M359.76,-15C351.16,-15 342.48,-15 334.04,-15"/>
<polygon fill="#63b8ff" stroke="#63b8ff" points="359.82,-18.5 369.82,-15 359.82,-11.5 359.82,-18.5"/>
</a>
</g>
</g>
<!-- Node3 -->
<g id="Node000003" class="node">
<title>Node3</title>
<g id="a_Node000003"><a xlink:href="namespace__local__setup__util__ps1.html#a8bf70df8be3bb3ab4f099d874dbf4958" target="_top" xlink:title=" ">
<polygon fill="white" stroke="#666666" points="149,-24.5 0,-24.5 0,-5.5 149,-5.5 149,-24.5"/>
<text text-anchor="middle" x="74.5" y="-12.5" font-family="Helvetica,sans-Serif" font-size="10.00">_local_setup_util_ps1.main</text>
</a>
</g>
</g>
<!-- Node2&#45;&gt;Node3 -->
<g id="edge2_Node000002_Node000003" class="edge">
<title>Node2&#45;&gt;Node3</title>
<g id="a_edge2_Node000002_Node000003"><a xlink:title=" ">
<path fill="none" stroke="#63b8ff" d="M174.61,-15C166.16,-15 157.62,-15 149.29,-15"/>
<polygon fill="#63b8ff" stroke="#63b8ff" points="174.86,-18.5 184.86,-15 174.86,-11.5 174.86,-18.5"/>
</a>
</g>
</g>
</g>
</svg>
