<?xml version="1.0" encoding="UTF-8" standalone="no"?>
<!DOCTYPE svg PUBLIC "-//W3C//DTD SVG 1.1//EN"
 "http://www.w3.org/Graphics/SVG/1.1/DTD/svg11.dtd">
<!-- Generated by graphviz version 2.43.0 (0)
 -->
<!-- Title: _local_setup_util_ps1._prepend_unique_value Pages: 1 -->
<svg width="891pt" height="56pt"
 viewBox="0.00 0.00 891.00 56.00" xmlns="http://www.w3.org/2000/svg" xmlns:xlink="http://www.w3.org/1999/xlink">
<g id="graph0" class="graph" transform="scale(1 1) rotate(0) translate(4 52)">
<title>_local_setup_util_ps1._prepend_unique_value</title>
<!-- Node1 -->
<g id="Node000001" class="node">
<title>Node1</title>
<g id="a_Node000001"><a xlink:title=" ">
<polygon fill="#999999" stroke="#666666" points="883,-30 751,-30 751,0 883,0 883,-30"/>
<text text-anchor="start" x="759" y="-18" font-family="Helvetica,sans-Serif" font-size="10.00">_local_setup_util_ps1.</text>
<text text-anchor="middle" x="817" y="-7" font-family="Helvetica,sans-Serif" font-size="10.00">_prepend_unique_value</text>
</a>
</g>
</g>
<!-- Node2 -->
<g id="Node000002" class="node">
<title>Node2</title>
<g id="a_Node000002"><a xlink:href="namespace__local__setup__util__ps1.html#a5d732013bde9374e3d925a40f7357e52" target="_top" xlink:title=" ">
<polygon fill="white" stroke="#666666" points="715,-30 558,-30 558,0 715,0 715,-30"/>
<text text-anchor="start" x="566" y="-18" font-family="Helvetica,sans-Serif" font-size="10.00">_local_setup_util_ps1.handle</text>
<text text-anchor="middle" x="636.5" y="-7" font-family="Helvetica,sans-Serif" font-size="10.00">_dsv_types_except_source</text>
</a>
</g>
</g>
<!-- Node1&#45;&gt;Node2 -->
<g id="edge1_Node000001_Node000002" class="edge">
<title>Node1&#45;&gt;Node2</title>
<g id="a_edge1_Node000001_Node000002"><a xlink:title=" ">
<path fill="none" stroke="#63b8ff" d="M740.66,-15C732.26,-15 723.69,-15 715.26,-15"/>
<polygon fill="#63b8ff" stroke="#63b8ff" points="740.8,-18.5 750.8,-15 740.8,-11.5 740.8,-18.5"/>
</a>
</g>
</g>
<!-- Node3 -->
<g id="Node000003" class="node">
<title>Node3</title>
<g id="a_Node000003"><a xlink:href="namespace__local__setup__util__ps1.html#a8cfac08d60472704d804e681d045a35f" target="_top" xlink:title=" ">
<polygon fill="white" stroke="#666666" points="522,-30 361,-30 361,0 522,0 522,-30"/>
<text text-anchor="start" x="369" y="-18" font-family="Helvetica,sans-Serif" font-size="10.00">_local_setup_util_ps1.process</text>
<text text-anchor="middle" x="441.5" y="-7" font-family="Helvetica,sans-Serif" font-size="10.00">_dsv_file</text>
</a>
</g>
</g>
<!-- Node2&#45;&gt;Node3 -->
<g id="edge2_Node000002_Node000003" class="edge">
<title>Node2&#45;&gt;Node3</title>
<g id="a_edge2_Node000002_Node000003"><a xlink:title=" ">
<path fill="none" stroke="#63b8ff" d="M547.58,-15C539.13,-15 530.58,-15 522.21,-15"/>
<polygon fill="#63b8ff" stroke="#63b8ff" points="547.83,-18.5 557.83,-15 547.83,-11.5 547.83,-18.5"/>
</a>
</g>
</g>
<!-- Node3&#45;&gt;Node3 -->
<g id="edge5_Node000003_Node000003" class="edge">
<title>Node3&#45;&gt;Node3</title>
<g id="a_edge5_Node000003_Node000003"><a xlink:title=" ">
<path fill="none" stroke="#63b8ff" d="M474.06,-40.6C469.61,-44.97 458.76,-48 441.5,-48 412.44,-48 401.54,-39.41 408.8,-30.28"/>
<polygon fill="#63b8ff" stroke="#63b8ff" points="477.56,-40.32 474.2,-30.28 470.56,-40.23 477.56,-40.32"/>
</a>
</g>
</g>
<!-- Node4 -->
<g id="Node000004" class="node">
<title>Node4</title>
<g id="a_Node000004"><a xlink:href="namespace__local__setup__util__ps1.html#a11218be58a598ea8472a878f88e15609" target="_top" xlink:title=" ">
<polygon fill="white" stroke="#666666" points="325,-30 185,-30 185,0 325,0 325,-30"/>
<text text-anchor="start" x="193" y="-18" font-family="Helvetica,sans-Serif" font-size="10.00">_local_setup_util_ps1.get</text>
<text text-anchor="middle" x="255" y="-7" font-family="Helvetica,sans-Serif" font-size="10.00">_commands</text>
</a>
</g>
</g>
<!-- Node3&#45;&gt;Node4 -->
<g id="edge3_Node000003_Node000004" class="edge">
<title>Node3&#45;&gt;Node4</title>
<g id="a_edge3_Node000003_Node000004"><a xlink:title=" ">
<path fill="none" stroke="#63b8ff" d="M350.83,-15C342.21,-15 333.55,-15 325.17,-15"/>
<polygon fill="#63b8ff" stroke="#63b8ff" points="350.92,-18.5 360.92,-15 350.92,-11.5 350.92,-18.5"/>
</a>
</g>
</g>
<!-- Node5 -->
<g id="Node000005" class="node">
<title>Node5</title>
<g id="a_Node000005"><a xlink:href="namespace__local__setup__util__ps1.html#a8bf70df8be3bb3ab4f099d874dbf4958" target="_top" xlink:title=" ">
<polygon fill="white" stroke="#666666" points="149,-24.5 0,-24.5 0,-5.5 149,-5.5 149,-24.5"/>
<text text-anchor="middle" x="74.5" y="-12.5" font-family="Helvetica,sans-Serif" font-size="10.00">_local_setup_util_ps1.main</text>
</a>
</g>
</g>
<!-- Node4&#45;&gt;Node5 -->
<g id="edge4_Node000004_Node000005" class="edge">
<title>Node4&#45;&gt;Node5</title>
<g id="a_edge4_Node000004_Node000005"><a xlink:title=" ">
<path fill="none" stroke="#63b8ff" d="M174.96,-15C166.34,-15 157.6,-15 149.06,-15"/>
<polygon fill="#63b8ff" stroke="#63b8ff" points="174.99,-18.5 184.99,-15 174.99,-11.5 174.99,-18.5"/>
</a>
</g>
</g>
</g>
</svg>
