<?xml version="1.0" encoding="UTF-8" standalone="no"?>
<!DOCTYPE svg PUBLIC "-//W3C//DTD SVG 1.1//EN"
 "http://www.w3.org/Graphics/SVG/1.1/DTD/svg11.dtd">
<!-- Generated by graphviz version 2.43.0 (0)
 -->
<!-- Title: pos_MPC::coder::qpkwik Pages: 1 -->
<!--zoomable 176 -->

<svg id="main" version="1.1" xmlns="http://www.w3.org/2000/svg" xmlns:xlink="http://www.w3.org/1999/xlink" xml:space="preserve" onload="init(evt)">
<style type="text/css"><![CDATA[
.node, .edge {opacity: 0.7;}
.node.selected, .edge.selected {opacity: 1;}
.edge:hover path { stroke: red; }
.edge:hover polygon { stroke: red; fill: red; }
]]></style>

<defs>
  <circle id="rim" cx="0" cy="0" r="7"/>
  <circle id="rim2" cx="0" cy="0" r="3.5"/>
  <g id="zoomPlus">
    <use xlink:href="#rim" fill="#404040"><set attributeName="fill" to="#808080" begin="zoomplus.mouseover" end="zoomplus.mouseout"/></use>
    <path d="M-4,0h8M0,-4v8" fill="none" stroke="white" stroke-width="1.5" pointer-events="none"/>
  </g>
  <g id="zoomMin">
    <use xlink:href="#rim" fill="#404040"><set attributeName="fill" to="#808080" begin="zoomminus.mouseover" end="zoomminus.mouseout"/></use>
    <path d="M-4,0h8" fill="none" stroke="white" stroke-width="1.5" pointer-events="none"/>
  </g>
  <g id="arrowUp" transform="translate(30 24)">
    <use xlink:href="#rim"/>
    <path pointer-events="none" fill="none" stroke="white" stroke-width="1.5" d="M0,-3.0v7 M-2.5,-0.5L0,-3.0L2.5,-0.5"/>
  </g>
  <g id="arrowRight" transform="rotate(90) translate(36 -43)">
    <use xlink:href="#rim"/>
    <path pointer-events="none" fill="none" stroke="white" stroke-width="1.5" d="M0,-3.0v7 M-2.5,-0.5L0,-3.0L2.5,-0.5"/>
  </g>
  <g id="arrowDown" transform="rotate(180) translate(-30 -48)">
    <use xlink:href="#rim"/>
    <path pointer-events="none" fill="none" stroke="white" stroke-width="1.5" d="M0,-3.0v7 M-2.5,-0.5L0,-3.0L2.5,-0.5"/>
  </g>
  <g id="arrowLeft" transform="rotate(270) translate(-36 17)">
    <use xlink:href="#rim"/>
    <path pointer-events="none" fill="none" stroke="white" stroke-width="1.5" d="M0,-3.0v7 M-2.5,-0.5L0,-3.0L2.5,-0.5"/>
  </g>
  <g id="resetDef">
    <use xlink:href="#rim2" fill="#404040"><set attributeName="fill" to="#808080" begin="reset.mouseover" end="reset.mouseout"/></use>
  </g>
</defs>
<script type="application/ecmascript">
var viewWidth = 525;
var viewHeight = 176;
var sectionId = 'dynsection-8';
</script>
<script type="application/ecmascript" xlink:href="svg.min.js"/>
<svg id="graph" class="graph">
<g id="viewport">
<title>pos_MPC::coder::qpkwik</title>
<!-- Node1 -->
<g id="Node000001" class="node">
<title>Node1</title>
<g id="a_Node000001"><a xlink:title=" ">
<polygon fill="#999999" stroke="#666666" points="135,-111.5 0,-111.5 0,-92.5 135,-92.5 135,-111.5"/>
<text text-anchor="middle" x="67.5" y="-99.5" font-family="Helvetica,sans-Serif" font-size="10.00">pos_MPC::coder::qpkwik</text>
</a>
</g>
</g>
<!-- Node2 -->
<g id="Node000002" class="node">
<title>Node2</title>
<g id="a_Node000002"><a xlink:href="namespacepos__MPC_1_1coder.html#ae2a2d8c1528681afb62fcdff789e1f95" target="_top" xlink:title=" ">
<polygon fill="white" stroke="#666666" points="326,-167.5 189,-167.5 189,-148.5 326,-148.5 326,-167.5"/>
<text text-anchor="middle" x="257.5" y="-155.5" font-family="Helvetica,sans-Serif" font-size="10.00">pos_MPC::coder::b_norm</text>
</a>
</g>
</g>
<!-- Node1&#45;&gt;Node2 -->
<g id="edge1_Node000001_Node000002" class="edge">
<title>Node1&#45;&gt;Node2</title>
<g id="a_edge1_Node000001_Node000002"><a xlink:title=" ">
<path fill="none" stroke="#63b8ff" d="M91.38,-111.59C111.94,-119.94 143.1,-131.94 171,-140 178.77,-142.25 187.01,-144.34 195.19,-146.24"/>
<polygon fill="#63b8ff" stroke="#63b8ff" points="194.58,-149.69 205.11,-148.47 196.12,-142.86 194.58,-149.69"/>
</a>
</g>
</g>
<!-- Node3 -->
<g id="Node000003" class="node">
<title>Node3</title>
<g id="a_Node000003"><a xlink:href="namespacepos__MPC_1_1coder.html#afecf8bf12a066d8d3cf76f2b91cb8f59" target="_top" xlink:title=" ">
<polygon fill="white" stroke="#666666" points="344,-130.5 171,-130.5 171,-111.5 344,-111.5 344,-130.5"/>
<text text-anchor="middle" x="257.5" y="-118.5" font-family="Helvetica,sans-Serif" font-size="10.00">pos_MPC::coder::DropConstraint</text>
</a>
</g>
</g>
<!-- Node1&#45;&gt;Node3 -->
<g id="edge2_Node000001_Node000003" class="edge">
<title>Node1&#45;&gt;Node3</title>
<g id="a_edge2_Node000001_Node000003"><a xlink:title=" ">
<path fill="none" stroke="#63b8ff" d="M135.05,-108.73C143.4,-109.57 152.07,-110.45 160.75,-111.32"/>
<polygon fill="#63b8ff" stroke="#63b8ff" points="160.64,-114.83 170.94,-112.35 161.35,-107.87 160.64,-114.83"/>
</a>
</g>
</g>
<!-- Node4 -->
<g id="Node000004" class="node">
<title>Node4</title>
<g id="a_Node000004"><a xlink:href="namespacepos__MPC_1_1coder.html#aad628de9ea3a1e8c8c5b3adfa8d87a55" target="_top" xlink:title=" ">
<polygon fill="white" stroke="#666666" points="334.5,-93.5 180.5,-93.5 180.5,-74.5 334.5,-74.5 334.5,-93.5"/>
<text text-anchor="middle" x="257.5" y="-81.5" font-family="Helvetica,sans-Serif" font-size="10.00">pos_MPC::coder::KWIKfactor</text>
</a>
</g>
</g>
<!-- Node1&#45;&gt;Node4 -->
<g id="edge3_Node000001_Node000004" class="edge">
<title>Node1&#45;&gt;Node4</title>
<g id="a_edge3_Node000001_Node000004"><a xlink:title=" ">
<path fill="none" stroke="#63b8ff" d="M135.05,-95.63C146.4,-94.54 158.34,-93.4 170.13,-92.27"/>
<polygon fill="#63b8ff" stroke="#63b8ff" points="170.8,-95.72 180.42,-91.28 170.13,-88.75 170.8,-95.72"/>
</a>
</g>
</g>
<!-- Node9 -->
<g id="Node000009" class="node">
<title>Node9</title>
<g id="a_Node000009"><a xlink:href="namespacepos__MPC_1_1coder_1_1internal.html#aee16aca65e5c056291ee323099733942" target="_top" xlink:title=" ">
<polygon fill="white" stroke="#666666" points="326,-56 189,-56 189,-26 326,-26 326,-56"/>
<text text-anchor="start" x="197" y="-44" font-family="Helvetica,sans-Serif" font-size="10.00">pos_MPC::coder::internal</text>
<text text-anchor="middle" x="257.5" y="-33" font-family="Helvetica,sans-Serif" font-size="10.00">::maximum</text>
</a>
</g>
</g>
<!-- Node1&#45;&gt;Node9 -->
<g id="edge8_Node000001_Node000009" class="edge">
<title>Node1&#45;&gt;Node9</title>
<g id="a_edge8_Node000001_Node000009"><a xlink:title=" ">
<path fill="none" stroke="#63b8ff" d="M94.49,-92.44C115.13,-84.95 144.79,-74.43 171,-66 178.35,-63.64 186.08,-61.24 193.77,-58.92"/>
<polygon fill="#63b8ff" stroke="#63b8ff" points="194.88,-62.25 203.46,-56.03 192.88,-55.54 194.88,-62.25"/>
</a>
</g>
</g>
<!-- Node5 -->
<g id="Node000005" class="node">
<title>Node5</title>
<g id="a_Node000005"><a xlink:href="namespacepos__MPC.html#a1b161cbb191ab2d22a30569c19e00085" target="_top" xlink:title=" ">
<polygon fill="white" stroke="#666666" points="512.5,-164 384.5,-164 384.5,-134 512.5,-134 512.5,-164"/>
<text text-anchor="start" x="392.5" y="-152" font-family="Helvetica,sans-Serif" font-size="10.00">pos_MPC::div_nde_s32</text>
<text text-anchor="middle" x="448.5" y="-141" font-family="Helvetica,sans-Serif" font-size="10.00">_floor</text>
</a>
</g>
</g>
<!-- Node4&#45;&gt;Node5 -->
<g id="edge4_Node000004_Node000005" class="edge">
<title>Node4&#45;&gt;Node5</title>
<g id="a_edge4_Node000004_Node000005"><a xlink:title=" ">
<path fill="none" stroke="#63b8ff" d="M314.05,-93.54C324.19,-96.07 334.55,-99.19 344,-103 361.39,-110.02 363.08,-116.93 380,-125 383.79,-126.81 387.75,-128.56 391.78,-130.23"/>
<polygon fill="#63b8ff" stroke="#63b8ff" points="390.64,-133.54 401.23,-133.99 393.23,-127.04 390.64,-133.54"/>
</a>
</g>
</g>
<!-- Node6 -->
<g id="Node000006" class="node">
<title>Node6</title>
<g id="a_Node000006"><a xlink:href="namespacepos__MPC.html#a7d8176f1e03b79f5f3818ac29a97c128" target="_top" xlink:title=" ">
<polygon fill="white" stroke="#666666" points="515.5,-115.5 381.5,-115.5 381.5,-96.5 515.5,-96.5 515.5,-115.5"/>
<text text-anchor="middle" x="448.5" y="-103.5" font-family="Helvetica,sans-Serif" font-size="10.00">pos_MPC::rt_hypotd_snf</text>
</a>
</g>
</g>
<!-- Node4&#45;&gt;Node6 -->
<g id="edge5_Node000004_Node000006" class="edge">
<title>Node4&#45;&gt;Node6</title>
<g id="a_edge5_Node000004_Node000006"><a xlink:title=" ">
<path fill="none" stroke="#63b8ff" d="M334.56,-92.85C346.66,-94.26 359.18,-95.72 371.28,-97.13"/>
<polygon fill="#63b8ff" stroke="#63b8ff" points="371,-100.62 381.33,-98.3 371.8,-93.67 371,-100.62"/>
</a>
</g>
</g>
<!-- Node7 -->
<g id="Node000007" class="node">
<title>Node7</title>
<g id="a_Node000007"><a xlink:href="namespacepos__MPC_1_1coder_1_1internal_1_1blas.html#ab5adb25bbe5c80c19b41d76110a4668d" target="_top" xlink:title=" ">
<polygon fill="white" stroke="#666666" points="517,-78 380,-78 380,-48 517,-48 517,-78"/>
<text text-anchor="start" x="388" y="-66" font-family="Helvetica,sans-Serif" font-size="10.00">pos_MPC::coder::internal</text>
<text text-anchor="middle" x="448.5" y="-55" font-family="Helvetica,sans-Serif" font-size="10.00">::blas::xgerc</text>
</a>
</g>
</g>
<!-- Node4&#45;&gt;Node7 -->
<g id="edge6_Node000004_Node000007" class="edge">
<title>Node4&#45;&gt;Node7</title>
<g id="a_edge6_Node000004_Node000007"><a xlink:title=" ">
<path fill="none" stroke="#63b8ff" d="M334.56,-75.55C346.14,-74.26 358.11,-72.93 369.73,-71.64"/>
<polygon fill="#63b8ff" stroke="#63b8ff" points="370.28,-75.1 379.83,-70.52 369.5,-68.14 370.28,-75.1"/>
</a>
</g>
</g>
<!-- Node8 -->
<g id="Node000008" class="node">
<title>Node8</title>
<g id="a_Node000008"><a xlink:href="namespacepos__MPC_1_1coder_1_1internal_1_1blas.html#a4bf7588767dcefa2cb9f1c102066202f" target="_top" xlink:title=" ">
<polygon fill="white" stroke="#666666" points="517,-30 380,-30 380,0 517,0 517,-30"/>
<text text-anchor="start" x="388" y="-18" font-family="Helvetica,sans-Serif" font-size="10.00">pos_MPC::coder::internal</text>
<text text-anchor="middle" x="448.5" y="-7" font-family="Helvetica,sans-Serif" font-size="10.00">::blas::xnrm2</text>
</a>
</g>
</g>
<!-- Node4&#45;&gt;Node8 -->
<g id="edge7_Node000004_Node000008" class="edge">
<title>Node4&#45;&gt;Node8</title>
<g id="a_edge7_Node000004_Node000008"><a xlink:title=" ">
<path fill="none" stroke="#63b8ff" d="M316.57,-74.46C325.95,-71.97 335.4,-68.86 344,-65 362,-56.91 362.53,-48.18 380,-39 383.28,-37.28 386.7,-35.64 390.2,-34.07"/>
<polygon fill="#63b8ff" stroke="#63b8ff" points="391.71,-37.23 399.57,-30.13 388.99,-30.78 391.71,-37.23"/>
</a>
</g>
</g>
</g>
</svg>

<g id="navigator" transform="translate(0 0)" fill="#404254">
  <rect fill="#f2f5e9" fill-opacity="0.5" stroke="#606060" stroke-width=".5" x="0" y="0" width="60" height="60"/>
  <use id="zoomplus" xlink:href="#zoomPlus" x="17" y="9" onmousedown="handleZoom(evt,'in')"/>
  <use id="zoomminus" xlink:href="#zoomMin" x="42" y="9" onmousedown="handleZoom(evt,'out')"/>
  <use id="reset" xlink:href="#resetDef" x="30" y="36" onmousedown="handleReset()"/>
   <use id="arrowup" xlink:href="#arrowUp" x="0" y="0" onmousedown="handlePan(0,-1)"/>
  <use id="arrowright" xlink:href="#arrowRight" x="0" y="0" onmousedown="handlePan(1,0)"/>
  <use id="arrowdown" xlink:href="#arrowDown" x="0" y="0" onmousedown="handlePan(0,1)"/>
  <use id="arrowleft" xlink:href="#arrowLeft" x="0" y="0" onmousedown="handlePan(-1,0)"/>
</g>
<svg viewBox="0 0 15 15" width="100%" height="30px" preserveAspectRatio="xMaxYMin meet">
 <g id="arrow_out" transform="scale(0.3 0.3)">
  <a xlink:href="namespacepos__MPC_1_1coder_aaae2248b840070902e3c18dc1a472eab_cgraph_org.svg" target="_base">
   <rect id="button" ry="5" rx="5" y="6" x="6" height="38" width="38"
        fill="#f2f5e9" fill-opacity="0.5" stroke="#606060" stroke-width="1.0"/>
   <path id="arrow"
     d="M 11.500037,31.436501 C 11.940474,20.09759 22.043105,11.32322 32.158766,21.979434 L 37.068811,17.246167 C 37.068811,17.246167 37.088388,32 37.088388,32 L 22.160133,31.978069 C 22.160133,31.978069 26.997745,27.140456 26.997745,27.140456 C 18.528582,18.264221 13.291696,25.230495 11.500037,31.436501 z"
     style="fill:#404040;"/>
  </a>
 </g>
</svg>

<style type='text/css'>
<![CDATA[
[data-mouse-over-selected='false'] { opacity: 0.7; }
[data-mouse-over-selected='true']  { opacity: 1.0; }
]]>
</style>
<script type="application/ecmascript"><![CDATA[
document.addEventListener('DOMContentLoaded', (event) => {
  highlightEdges();
  highlightAdjacentNodes();
});
]]></script>
</svg>
