<?xml version="1.0" encoding="UTF-8" standalone="no"?>
<!DOCTYPE svg PUBLIC "-//W3C//DTD SVG 1.1//EN"
 "http://www.w3.org/Graphics/SVG/1.1/DTD/svg11.dtd">
<!-- Generated by graphviz version 2.43.0 (0)
 -->
<!-- Title: iii_drone::types::createPlane Pages: 1 -->
<svg width="970pt" height="157pt"
 viewBox="0.00 0.00 970.00 157.00" xmlns="http://www.w3.org/2000/svg" xmlns:xlink="http://www.w3.org/1999/xlink">
<g id="graph0" class="graph" transform="scale(1 1) rotate(0) translate(4 153)">
<title>iii_drone::types::createPlane</title>
<!-- Node1 -->
<g id="Node000001" class="node">
<title>Node1</title>
<g id="a_Node000001"><a xlink:title=" ">
<polygon fill="#999999" stroke="#666666" points="962,-89.5 834,-89.5 834,-59.5 962,-59.5 962,-89.5"/>
<text text-anchor="start" x="842" y="-77.5" font-family="Helvetica,sans-Serif" font-size="10.00">iii_drone::types::create</text>
<text text-anchor="middle" x="898" y="-66.5" font-family="Helvetica,sans-Serif" font-size="10.00">Plane</text>
</a>
</g>
</g>
<!-- Node2 -->
<g id="Node000002" class="node">
<title>Node2</title>
<g id="a_Node000002"><a xlink:href="classiii__drone_1_1adapters_1_1PowerlineAdapter.html#a3fabec056cea35a9facca5235b7d3490" target="_top" xlink:title="Constructor.">
<polygon fill="white" stroke="#666666" points="776,-149 661,-149 661,-108 776,-108 776,-149"/>
<text text-anchor="start" x="669" y="-137" font-family="Helvetica,sans-Serif" font-size="10.00">iii_drone::adapters</text>
<text text-anchor="start" x="669" y="-126" font-family="Helvetica,sans-Serif" font-size="10.00">::PowerlineAdapter::</text>
<text text-anchor="middle" x="718.5" y="-115" font-family="Helvetica,sans-Serif" font-size="10.00">PowerlineAdapter</text>
</a>
</g>
</g>
<!-- Node1&#45;&gt;Node2 -->
<g id="edge1_Node000001_Node000002" class="edge">
<title>Node1&#45;&gt;Node2</title>
<g id="a_edge1_Node000001_Node000002"><a xlink:title=" ">
<path fill="none" stroke="#63b8ff" d="M837.99,-92.45C818.08,-98.51 795.92,-105.25 776.2,-111.25"/>
<polygon fill="#63b8ff" stroke="#63b8ff" points="839.01,-95.8 847.56,-89.54 836.97,-89.1 839.01,-95.8"/>
</a>
</g>
</g>
<!-- Node3 -->
<g id="Node000003" class="node">
<title>Node3</title>
<g id="a_Node000003"><a xlink:href="classiii__drone_1_1perception_1_1Powerline.html#aca2026f294b1aa4c3447240d56422c2c" target="_top" xlink:title="Resets the powerline object.">
<polygon fill="white" stroke="#666666" points="776.5,-89.5 660.5,-89.5 660.5,-59.5 776.5,-59.5 776.5,-89.5"/>
<text text-anchor="start" x="668.5" y="-77.5" font-family="Helvetica,sans-Serif" font-size="10.00">iii_drone::perception</text>
<text text-anchor="middle" x="718.5" y="-66.5" font-family="Helvetica,sans-Serif" font-size="10.00">::Powerline::Reset</text>
</a>
</g>
</g>
<!-- Node1&#45;&gt;Node3 -->
<g id="edge2_Node000001_Node000003" class="edge">
<title>Node1&#45;&gt;Node3</title>
<g id="a_edge2_Node000001_Node000003"><a xlink:title=" ">
<path fill="none" stroke="#63b8ff" d="M823.74,-74.5C808.06,-74.5 791.72,-74.5 776.76,-74.5"/>
<polygon fill="#63b8ff" stroke="#63b8ff" points="823.92,-78 833.92,-74.5 823.92,-71 823.92,-78"/>
</a>
</g>
</g>
<!-- Node5 -->
<g id="Node000005" class="node">
<title>Node5</title>
<g id="a_Node000005"><a xlink:href="classiii__drone_1_1perception_1_1Powerline.html#a9ee99783c43e6e60f3c8974b40342fcb" target="_top" xlink:title="Updates the projection plane.">
<polygon fill="white" stroke="#666666" points="798,-41 639,-41 639,0 798,0 798,-41"/>
<text text-anchor="start" x="647" y="-29" font-family="Helvetica,sans-Serif" font-size="10.00">iii_drone::perception</text>
<text text-anchor="start" x="647" y="-18" font-family="Helvetica,sans-Serif" font-size="10.00">::Powerline::updateProjection</text>
<text text-anchor="middle" x="718.5" y="-7" font-family="Helvetica,sans-Serif" font-size="10.00">Plane</text>
</a>
</g>
</g>
<!-- Node1&#45;&gt;Node5 -->
<g id="edge4_Node000001_Node000005" class="edge">
<title>Node1&#45;&gt;Node5</title>
<g id="a_edge4_Node000001_Node000005"><a xlink:title=" ">
<path fill="none" stroke="#63b8ff" d="M837.64,-56.44C821.37,-51.49 803.61,-46.09 786.92,-41.01"/>
<polygon fill="#63b8ff" stroke="#63b8ff" points="836.97,-59.9 847.56,-59.46 839.01,-53.2 836.97,-59.9"/>
</a>
</g>
</g>
<!-- Node4 -->
<g id="Node000004" class="node">
<title>Node4</title>
<g id="a_Node000004"><a xlink:href="classiii__drone_1_1perception_1_1Powerline.html#a500b7393d0366ea7ff3d165cc0c91d7f" target="_top" xlink:title="Constructor.">
<polygon fill="white" stroke="#666666" points="587.5,-89.5 462.5,-89.5 462.5,-59.5 587.5,-59.5 587.5,-89.5"/>
<text text-anchor="start" x="470.5" y="-77.5" font-family="Helvetica,sans-Serif" font-size="10.00">iii_drone::perception</text>
<text text-anchor="middle" x="525" y="-66.5" font-family="Helvetica,sans-Serif" font-size="10.00">::Powerline::Powerline</text>
</a>
</g>
</g>
<!-- Node3&#45;&gt;Node4 -->
<g id="edge3_Node000003_Node000004" class="edge">
<title>Node3&#45;&gt;Node4</title>
<g id="a_edge3_Node000003_Node000004"><a xlink:title=" ">
<path fill="none" stroke="#63b8ff" d="M650.16,-74.5C629.79,-74.5 607.54,-74.5 587.57,-74.5"/>
<polygon fill="#63b8ff" stroke="#63b8ff" points="650.3,-78 660.3,-74.5 650.3,-71 650.3,-78"/>
</a>
</g>
</g>
<!-- Node6 -->
<g id="Node000006" class="node">
<title>Node6</title>
<g id="a_Node000006"><a xlink:href="classiii__drone_1_1perception_1_1Powerline.html#ac0f0ef699ab1cca6ab024e2f9549ce8e" target="_top" xlink:title="Updates the powerline direction and updates the projection plane.">
<polygon fill="white" stroke="#666666" points="603,-35.5 447,-35.5 447,-5.5 603,-5.5 603,-35.5"/>
<text text-anchor="start" x="455" y="-23.5" font-family="Helvetica,sans-Serif" font-size="10.00">iii_drone::perception</text>
<text text-anchor="middle" x="525" y="-12.5" font-family="Helvetica,sans-Serif" font-size="10.00">::Powerline::UpdateDirection</text>
</a>
</g>
</g>
<!-- Node5&#45;&gt;Node6 -->
<g id="edge5_Node000005_Node000006" class="edge">
<title>Node5&#45;&gt;Node6</title>
<g id="a_edge5_Node000005_Node000006"><a xlink:title=" ">
<path fill="none" stroke="#63b8ff" d="M628.51,-20.5C620.05,-20.5 611.52,-20.5 603.18,-20.5"/>
<polygon fill="#63b8ff" stroke="#63b8ff" points="628.78,-24 638.78,-20.5 628.78,-17 628.78,-24"/>
</a>
</g>
</g>
<!-- Node7 -->
<g id="Node000007" class="node">
<title>Node7</title>
<g id="a_Node000007"><a xlink:href="classiii__drone_1_1perception_1_1pl__mapper__node_1_1PowerlineMapperNode.html#a18e832f380107069f279ecf1203f3f16" target="_top" xlink:title="Callback for powerline direction topic.">
<polygon fill="white" stroke="#666666" points="411,-41 231,-41 231,0 411,0 411,-41"/>
<text text-anchor="start" x="239" y="-29" font-family="Helvetica,sans-Serif" font-size="10.00">iii_drone::perception</text>
<text text-anchor="start" x="239" y="-18" font-family="Helvetica,sans-Serif" font-size="10.00">::pl_mapper_node::Powerline</text>
<text text-anchor="middle" x="321" y="-7" font-family="Helvetica,sans-Serif" font-size="10.00">MapperNode::plDirectionCallback</text>
</a>
</g>
</g>
<!-- Node6&#45;&gt;Node7 -->
<g id="edge6_Node000006_Node000007" class="edge">
<title>Node6&#45;&gt;Node7</title>
<g id="a_edge6_Node000006_Node000007"><a xlink:title=" ">
<path fill="none" stroke="#63b8ff" d="M436.53,-20.5C428.07,-20.5 419.48,-20.5 411.01,-20.5"/>
<polygon fill="#63b8ff" stroke="#63b8ff" points="436.77,-24 446.77,-20.5 436.77,-17 436.77,-24"/>
</a>
</g>
</g>
<!-- Node8 -->
<g id="Node000008" class="node">
<title>Node8</title>
<g id="a_Node000008"><a xlink:href="classiii__drone_1_1perception_1_1pl__mapper__node_1_1PowerlineMapperNode.html#a703ae72ba683ae11154ce597b8bbad9d" target="_top" xlink:title="Constructor.">
<polygon fill="white" stroke="#666666" points="195,-41 0,-41 0,0 195,0 195,-41"/>
<text text-anchor="start" x="8" y="-29" font-family="Helvetica,sans-Serif" font-size="10.00">iii_drone::perception</text>
<text text-anchor="start" x="8" y="-18" font-family="Helvetica,sans-Serif" font-size="10.00">::pl_mapper_node::Powerline</text>
<text text-anchor="middle" x="97.5" y="-7" font-family="Helvetica,sans-Serif" font-size="10.00">MapperNode::PowerlineMapperNode</text>
</a>
</g>
</g>
<!-- Node7&#45;&gt;Node8 -->
<g id="edge7_Node000007_Node000008" class="edge">
<title>Node7&#45;&gt;Node8</title>
<g id="a_edge7_Node000007_Node000008"><a xlink:title=" ">
<path fill="none" stroke="#63b8ff" d="M220.86,-20.5C212.28,-20.5 203.62,-20.5 195.07,-20.5"/>
<polygon fill="#63b8ff" stroke="#63b8ff" points="220.86,-24 230.86,-20.5 220.86,-17 220.86,-24"/>
</a>
</g>
</g>
</g>
</svg>
