<?xml version="1.0" encoding="UTF-8" standalone="no"?>
<!DOCTYPE svg PUBLIC "-//W3C//DTD SVG 1.1//EN"
 "http://www.w3.org/Graphics/SVG/1.1/DTD/svg11.dtd">
<!-- Generated by graphviz version 2.43.0 (0)
 -->
<!-- Title: iii_drone::types::quaternionFromTransformMatrix Pages: 1 -->
<svg width="1093pt" height="412pt"
 viewBox="0.00 0.00 1093.00 412.00" xmlns="http://www.w3.org/2000/svg" xmlns:xlink="http://www.w3.org/1999/xlink">
<g id="graph0" class="graph" transform="scale(1 1) rotate(0) translate(4 408)">
<title>iii_drone::types::quaternionFromTransformMatrix</title>
<!-- Node1 -->
<g id="Node000001" class="node">
<title>Node1</title>
<g id="a_Node000001"><a xlink:title=" ">
<polygon fill="#999999" stroke="#666666" points="1085,-206.5 935,-206.5 935,-176.5 1085,-176.5 1085,-206.5"/>
<text text-anchor="start" x="943" y="-194.5" font-family="Helvetica,sans-Serif" font-size="10.00">iii_drone::types::quaternion</text>
<text text-anchor="middle" x="1010" y="-183.5" font-family="Helvetica,sans-Serif" font-size="10.00">FromTransformMatrix</text>
</a>
</g>
</g>
<!-- Node2 -->
<g id="Node000002" class="node">
<title>Node2</title>
<g id="a_Node000002"><a xlink:href="classiii__drone_1_1control_1_1maneuver_1_1FlyToObjectManeuverServer.html#a9d1db79ad2aa3ef72b546c968f20bfed" target="_top" xlink:title="Get updated target reference. Sets the has_failed flag if the target is not visible.">
<polygon fill="white" stroke="#666666" points="899,-315 708,-315 708,-274 899,-274 899,-315"/>
<text text-anchor="start" x="716" y="-303" font-family="Helvetica,sans-Serif" font-size="10.00">iii_drone::control</text>
<text text-anchor="start" x="716" y="-292" font-family="Helvetica,sans-Serif" font-size="10.00">::maneuver::FlyToObjectManeuver</text>
<text text-anchor="middle" x="803.5" y="-281" font-family="Helvetica,sans-Serif" font-size="10.00">Server::getUpdatedTargetReference</text>
</a>
</g>
</g>
<!-- Node1&#45;&gt;Node2 -->
<g id="edge1_Node000001_Node000002" class="edge">
<title>Node1&#45;&gt;Node2</title>
<g id="a_edge1_Node000001_Node000002"><a xlink:title=" ">
<path fill="none" stroke="#63b8ff" d="M969.68,-211.3C934,-229.28 881.57,-255.68 845.4,-273.9"/>
<polygon fill="#63b8ff" stroke="#63b8ff" points="971.47,-214.32 978.83,-206.7 968.32,-208.07 971.47,-214.32"/>
</a>
</g>
</g>
<!-- Node6 -->
<g id="Node000006" class="node">
<title>Node6</title>
<g id="a_Node000006"><a xlink:href="namespaceiii__drone_1_1types.html#a1bfb762d3daf82decf272d74978c0aff" target="_top" xlink:title=" ">
<polygon fill="white" stroke="#666666" points="876.5,-206.5 730.5,-206.5 730.5,-176.5 876.5,-176.5 876.5,-206.5"/>
<text text-anchor="start" x="738.5" y="-194.5" font-family="Helvetica,sans-Serif" font-size="10.00">iii_drone::types::poseFrom</text>
<text text-anchor="middle" x="803.5" y="-183.5" font-family="Helvetica,sans-Serif" font-size="10.00">TransformMatrix</text>
</a>
</g>
</g>
<!-- Node1&#45;&gt;Node6 -->
<g id="edge5_Node000001_Node000006" class="edge">
<title>Node1&#45;&gt;Node6</title>
<g id="a_edge5_Node000001_Node000006"><a xlink:title=" ">
<path fill="none" stroke="#63b8ff" d="M924.53,-191.5C908.63,-191.5 892.14,-191.5 876.66,-191.5"/>
<polygon fill="#63b8ff" stroke="#63b8ff" points="924.88,-195 934.88,-191.5 924.88,-188 924.88,-195"/>
</a>
</g>
</g>
<!-- Node16 -->
<g id="Node000016" class="node">
<title>Node16</title>
<g id="a_Node000016"><a xlink:href="namespaceiii__drone_1_1types.html#a0396acee98ad42f5c2ac88b92619c1d8" target="_top" xlink:title=" ">
<polygon fill="white" stroke="#666666" points="876.5,-155.5 730.5,-155.5 730.5,-125.5 876.5,-125.5 876.5,-155.5"/>
<text text-anchor="start" x="738.5" y="-143.5" font-family="Helvetica,sans-Serif" font-size="10.00">iii_drone::types::transform</text>
<text text-anchor="middle" x="803.5" y="-132.5" font-family="Helvetica,sans-Serif" font-size="10.00">MsgFromTransformMatrix</text>
</a>
</g>
</g>
<!-- Node1&#45;&gt;Node16 -->
<g id="edge16_Node000001_Node000016" class="edge">
<title>Node1&#45;&gt;Node16</title>
<g id="a_edge16_Node000001_Node000016"><a xlink:title=" ">
<path fill="none" stroke="#63b8ff" d="M938.93,-174.03C914.78,-168 887.96,-161.32 864.67,-155.51"/>
<polygon fill="#63b8ff" stroke="#63b8ff" points="938.2,-177.45 948.75,-176.47 939.89,-170.66 938.2,-177.45"/>
</a>
</g>
</g>
<!-- Node3 -->
<g id="Node000003" class="node">
<title>Node3</title>
<g id="a_Node000003"><a xlink:href="classiii__drone_1_1control_1_1maneuver_1_1FlyToObjectManeuverServer.html#a2ace3412e0d42d07a39c553c89ab0c6a" target="_top" xlink:title="Compute the reference.">
<polygon fill="white" stroke="#666666" points="664,-404 480,-404 480,-363 664,-363 664,-404"/>
<text text-anchor="start" x="488" y="-392" font-family="Helvetica,sans-Serif" font-size="10.00">iii_drone::control</text>
<text text-anchor="start" x="488" y="-381" font-family="Helvetica,sans-Serif" font-size="10.00">::maneuver::FlyToObjectManeuver</text>
<text text-anchor="middle" x="572" y="-370" font-family="Helvetica,sans-Serif" font-size="10.00">Server::computeReference</text>
</a>
</g>
</g>
<!-- Node2&#45;&gt;Node3 -->
<g id="edge2_Node000002_Node000003" class="edge">
<title>Node2&#45;&gt;Node3</title>
<g id="a_edge2_Node000002_Node000003"><a xlink:title=" ">
<path fill="none" stroke="#63b8ff" d="M752.46,-319.59C728.47,-331.08 699.11,-344.36 672,-354.5 664.12,-357.45 655.79,-360.29 647.45,-362.97"/>
<polygon fill="#63b8ff" stroke="#63b8ff" points="754.23,-322.62 761.72,-315.12 751.19,-316.32 754.23,-322.62"/>
</a>
</g>
</g>
<!-- Node4 -->
<g id="Node000004" class="node">
<title>Node4</title>
<g id="a_Node000004"><a xlink:href="classiii__drone_1_1control_1_1maneuver_1_1FlyToObjectManeuverServer.html#aae038a1f6dfe0351d898c874557fb397" target="_top" xlink:title="Whether the maneuver has succeeded, returns true if the drone is within the position tolerance.">
<polygon fill="white" stroke="#666666" points="664,-345 480,-345 480,-304 664,-304 664,-345"/>
<text text-anchor="start" x="488" y="-333" font-family="Helvetica,sans-Serif" font-size="10.00">iii_drone::control</text>
<text text-anchor="start" x="488" y="-322" font-family="Helvetica,sans-Serif" font-size="10.00">::maneuver::FlyToObjectManeuver</text>
<text text-anchor="middle" x="572" y="-311" font-family="Helvetica,sans-Serif" font-size="10.00">Server::hasSucceeded</text>
</a>
</g>
</g>
<!-- Node2&#45;&gt;Node4 -->
<g id="edge3_Node000002_Node000004" class="edge">
<title>Node2&#45;&gt;Node4</title>
<g id="a_edge3_Node000002_Node000004"><a xlink:title=" ">
<path fill="none" stroke="#63b8ff" d="M697.61,-308.21C686.43,-309.67 675.13,-311.15 664.13,-312.59"/>
<polygon fill="#63b8ff" stroke="#63b8ff" points="698.37,-311.64 707.83,-306.88 697.46,-304.7 698.37,-311.64"/>
</a>
</g>
</g>
<!-- Node5 -->
<g id="Node000005" class="node">
<title>Node5</title>
<g id="a_Node000005"><a xlink:href="classiii__drone_1_1control_1_1maneuver_1_1FlyToObjectManeuverServer.html#a207c2c72ecfb7376ef44bd986e00ccce" target="_top" xlink:title="Publishes the feedback.">
<polygon fill="white" stroke="#666666" points="664,-286 480,-286 480,-245 664,-245 664,-286"/>
<text text-anchor="start" x="488" y="-274" font-family="Helvetica,sans-Serif" font-size="10.00">iii_drone::control</text>
<text text-anchor="start" x="488" y="-263" font-family="Helvetica,sans-Serif" font-size="10.00">::maneuver::FlyToObjectManeuver</text>
<text text-anchor="middle" x="572" y="-252" font-family="Helvetica,sans-Serif" font-size="10.00">Server::publishFeedback</text>
</a>
</g>
</g>
<!-- Node2&#45;&gt;Node5 -->
<g id="edge4_Node000002_Node000005" class="edge">
<title>Node2&#45;&gt;Node5</title>
<g id="a_edge4_Node000002_Node000005"><a xlink:title=" ">
<path fill="none" stroke="#63b8ff" d="M697.61,-281.25C686.43,-279.83 675.13,-278.41 664.13,-277.02"/>
<polygon fill="#63b8ff" stroke="#63b8ff" points="697.47,-284.76 707.83,-282.54 698.35,-277.81 697.47,-284.76"/>
</a>
</g>
</g>
<!-- Node7 -->
<g id="Node000007" class="node">
<title>Node7</title>
<g id="a_Node000007"><a xlink:href="classiii__drone_1_1control_1_1maneuver_1_1HoverByObjectManeuverServer.html#a4eb2e2eafbed623aeb6b16536465f896" target="_top" xlink:title="Gets the hover reference. The current state is not used. Will call the on fail callback if the target...">
<polygon fill="white" stroke="#666666" points="436,-277 236,-277 236,-236 436,-236 436,-277"/>
<text text-anchor="start" x="244" y="-265" font-family="Helvetica,sans-Serif" font-size="10.00">iii_drone::control</text>
<text text-anchor="start" x="244" y="-254" font-family="Helvetica,sans-Serif" font-size="10.00">::maneuver::HoverByObjectManeuver</text>
<text text-anchor="middle" x="336" y="-243" font-family="Helvetica,sans-Serif" font-size="10.00">Server::GetReference</text>
</a>
</g>
</g>
<!-- Node6&#45;&gt;Node7 -->
<g id="edge6_Node000006_Node000007" class="edge">
<title>Node6&#45;&gt;Node7</title>
<g id="a_edge6_Node000006_Node000007"><a xlink:title=" ">
<path fill="none" stroke="#63b8ff" d="M720.2,-202.43C653.31,-211.38 556.52,-224.48 472,-236.5 460.39,-238.15 448.22,-239.91 436.14,-241.68"/>
<polygon fill="#63b8ff" stroke="#63b8ff" points="720.81,-205.88 730.26,-201.09 719.88,-198.94 720.81,-205.88"/>
</a>
</g>
</g>
<!-- Node11 -->
<g id="Node000011" class="node">
<title>Node11</title>
<g id="a_Node000011"><a xlink:href="classiii__drone_1_1control_1_1maneuver_1_1HoverByObjectManeuverServer.html#a0fbdbb7505bd07854fe3db49bfe8b8b8" target="_top" xlink:title="Validates that the target transform and the drone state are within the maximum euclidean distance.">
<polygon fill="white" stroke="#666666" points="672,-188 472,-188 472,-147 672,-147 672,-188"/>
<text text-anchor="start" x="480" y="-176" font-family="Helvetica,sans-Serif" font-size="10.00">iii_drone::control</text>
<text text-anchor="start" x="480" y="-165" font-family="Helvetica,sans-Serif" font-size="10.00">::maneuver::HoverByObjectManeuver</text>
<text text-anchor="middle" x="572" y="-154" font-family="Helvetica,sans-Serif" font-size="10.00">Server::validateTargetTransform</text>
</a>
</g>
</g>
<!-- Node6&#45;&gt;Node11 -->
<g id="edge10_Node000006_Node000011" class="edge">
<title>Node6&#45;&gt;Node11</title>
<g id="a_edge10_Node000006_Node000011"><a xlink:title=" ">
<path fill="none" stroke="#63b8ff" d="M720.13,-182.89C704.61,-181.26 688.22,-179.55 672.24,-177.88"/>
<polygon fill="#63b8ff" stroke="#63b8ff" points="719.89,-186.38 730.2,-183.94 720.62,-179.42 719.89,-186.38"/>
</a>
</g>
</g>
<!-- Node8 -->
<g id="Node000008" class="node">
<title>Node8</title>
<g id="a_Node000008"><a xlink:href="classiii__drone_1_1control_1_1maneuver_1_1HoverByObjectManeuverServer.html#a8651f18cdc5c9b85ff145c7decac4ddc" target="_top" xlink:title="Computes the hover by object reference for the maneuver server.">
<polygon fill="white" stroke="#666666" points="200,-350 0,-350 0,-309 200,-309 200,-350"/>
<text text-anchor="start" x="8" y="-338" font-family="Helvetica,sans-Serif" font-size="10.00">iii_drone::control</text>
<text text-anchor="start" x="8" y="-327" font-family="Helvetica,sans-Serif" font-size="10.00">::maneuver::HoverByObjectManeuver</text>
<text text-anchor="middle" x="100" y="-316" font-family="Helvetica,sans-Serif" font-size="10.00">Server::computeReference</text>
</a>
</g>
</g>
<!-- Node7&#45;&gt;Node8 -->
<g id="edge7_Node000007_Node000008" class="edge">
<title>Node7&#45;&gt;Node8</title>
<g id="a_edge7_Node000007_Node000008"><a xlink:title=" ">
<path fill="none" stroke="#63b8ff" d="M261.55,-280.1C241.6,-286.46 219.98,-293.29 200,-299.5 190.05,-302.59 179.53,-305.82 169.21,-308.97"/>
<polygon fill="#63b8ff" stroke="#63b8ff" points="262.73,-283.4 271.19,-277.03 260.6,-276.73 262.73,-283.4"/>
</a>
</g>
</g>
<!-- Node9 -->
<g id="Node000009" class="node">
<title>Node9</title>
<g id="a_Node000009"><a xlink:href="classiii__drone_1_1control_1_1maneuver_1_1FlyToObjectManeuverServer.html#a8cd7c6981d54cd5aa868f25d843ad0d0" target="_top" xlink:title="Registers the hover by object reference callback on success.">
<polygon fill="white" stroke="#666666" points="198.5,-290.5 1.5,-290.5 1.5,-238.5 198.5,-238.5 198.5,-290.5"/>
<text text-anchor="start" x="9.5" y="-278.5" font-family="Helvetica,sans-Serif" font-size="10.00">iii_drone::control</text>
<text text-anchor="start" x="9.5" y="-267.5" font-family="Helvetica,sans-Serif" font-size="10.00">::maneuver::FlyToObjectManeuver</text>
<text text-anchor="start" x="9.5" y="-256.5" font-family="Helvetica,sans-Serif" font-size="10.00">Server::registerReferenceCallbackOn</text>
<text text-anchor="middle" x="100" y="-245.5" font-family="Helvetica,sans-Serif" font-size="10.00">Success</text>
</a>
</g>
</g>
<!-- Node7&#45;&gt;Node9 -->
<g id="edge8_Node000007_Node000009" class="edge">
<title>Node7&#45;&gt;Node9</title>
<g id="a_edge8_Node000007_Node000009"><a xlink:title=" ">
<path fill="none" stroke="#63b8ff" d="M225.6,-260.24C216.56,-260.55 207.46,-260.86 198.52,-261.17"/>
<polygon fill="#63b8ff" stroke="#63b8ff" points="225.89,-263.73 235.76,-259.89 225.65,-256.74 225.89,-263.73"/>
</a>
</g>
</g>
<!-- Node10 -->
<g id="Node000010" class="node">
<title>Node10</title>
<g id="a_Node000010"><a xlink:href="classiii__drone_1_1control_1_1maneuver_1_1HoverByObjectManeuverServer.html#a42d65b247ee89440e63ed7c992c4772e" target="_top" xlink:title="Registers the hover by object reference callback on success.">
<polygon fill="white" stroke="#666666" points="200,-220.5 0,-220.5 0,-168.5 200,-168.5 200,-220.5"/>
<text text-anchor="start" x="8" y="-208.5" font-family="Helvetica,sans-Serif" font-size="10.00">iii_drone::control</text>
<text text-anchor="start" x="8" y="-197.5" font-family="Helvetica,sans-Serif" font-size="10.00">::maneuver::HoverByObjectManeuver</text>
<text text-anchor="start" x="8" y="-186.5" font-family="Helvetica,sans-Serif" font-size="10.00">Server::registerReferenceCallbackOn</text>
<text text-anchor="middle" x="100" y="-175.5" font-family="Helvetica,sans-Serif" font-size="10.00">Success</text>
</a>
</g>
</g>
<!-- Node7&#45;&gt;Node10 -->
<g id="edge9_Node000007_Node000010" class="edge">
<title>Node7&#45;&gt;Node10</title>
<g id="a_edge9_Node000007_Node000010"><a xlink:title=" ">
<path fill="none" stroke="#63b8ff" d="M247.68,-233.36C231.88,-229.18 215.31,-224.79 199.22,-220.52"/>
<polygon fill="#63b8ff" stroke="#63b8ff" points="246.84,-236.76 257.41,-235.94 248.64,-230 246.84,-236.76"/>
</a>
</g>
</g>
<!-- Node11&#45;&gt;Node7 -->
<g id="edge12_Node000011_Node000007" class="edge">
<title>Node11&#45;&gt;Node7</title>
<g id="a_edge12_Node000011_Node000007"><a xlink:title=" ">
<path fill="none" stroke="#63b8ff" d="M495.51,-191.8C487.44,-195.1 479.46,-198.68 472,-202.5 454.66,-211.38 453.57,-219.1 436,-227.5 429.62,-230.55 422.85,-233.35 415.96,-235.91"/>
<polygon fill="#63b8ff" stroke="#63b8ff" points="496.97,-194.98 504.99,-188.05 494.41,-188.47 496.97,-194.98"/>
</a>
</g>
</g>
<!-- Node12 -->
<g id="Node000012" class="node">
<title>Node12</title>
<g id="a_Node000012"><a xlink:href="classiii__drone_1_1control_1_1maneuver_1_1HoverByObjectManeuverServer.html#a43a1bd4911d8cb93397ab2eeabd61ee4" target="_top" xlink:title="Whether the maneuver can be executed, will return false if the target is not visible or the drone has...">
<polygon fill="white" stroke="#666666" points="436,-218 236,-218 236,-177 436,-177 436,-218"/>
<text text-anchor="start" x="244" y="-206" font-family="Helvetica,sans-Serif" font-size="10.00">iii_drone::control</text>
<text text-anchor="start" x="244" y="-195" font-family="Helvetica,sans-Serif" font-size="10.00">::maneuver::HoverByObjectManeuver</text>
<text text-anchor="middle" x="336" y="-184" font-family="Helvetica,sans-Serif" font-size="10.00">Server::CanExecuteManeuver</text>
</a>
</g>
</g>
<!-- Node11&#45;&gt;Node12 -->
<g id="edge11_Node000011_Node000012" class="edge">
<title>Node11&#45;&gt;Node12</title>
<g id="a_edge11_Node000011_Node000012"><a xlink:title=" ">
<path fill="none" stroke="#63b8ff" d="M461.73,-181.51C453.15,-182.61 444.52,-183.72 436.02,-184.81"/>
<polygon fill="#63b8ff" stroke="#63b8ff" points="462.29,-184.97 471.76,-180.22 461.4,-178.02 462.29,-184.97"/>
</a>
</g>
</g>
<!-- Node13 -->
<g id="Node000013" class="node">
<title>Node13</title>
<g id="a_Node000013"><a xlink:href="classiii__drone_1_1control_1_1maneuver_1_1HoverByObjectManeuverServer.html#a7e09c4b73237e76701d9e83785e05077" target="_top" xlink:title="Returns true if the maneuver has succeeded. Has succeeded if the target is visible and the drone is w...">
<polygon fill="white" stroke="#666666" points="436,-159 236,-159 236,-118 436,-118 436,-159"/>
<text text-anchor="start" x="244" y="-147" font-family="Helvetica,sans-Serif" font-size="10.00">iii_drone::control</text>
<text text-anchor="start" x="244" y="-136" font-family="Helvetica,sans-Serif" font-size="10.00">::maneuver::HoverByObjectManeuver</text>
<text text-anchor="middle" x="336" y="-125" font-family="Helvetica,sans-Serif" font-size="10.00">Server::hasSucceeded</text>
</a>
</g>
</g>
<!-- Node11&#45;&gt;Node13 -->
<g id="edge13_Node000011_Node000013" class="edge">
<title>Node11&#45;&gt;Node13</title>
<g id="a_edge13_Node000011_Node000013"><a xlink:title=" ">
<path fill="none" stroke="#63b8ff" d="M461.73,-153.96C453.15,-152.9 444.52,-151.83 436.02,-150.77"/>
<polygon fill="#63b8ff" stroke="#63b8ff" points="461.41,-157.44 471.76,-155.2 462.27,-150.5 461.41,-157.44"/>
</a>
</g>
</g>
<!-- Node15 -->
<g id="Node000015" class="node">
<title>Node15</title>
<g id="a_Node000015"><a xlink:href="classiii__drone_1_1control_1_1maneuver_1_1HoverByObjectManeuverServer.html#ac08b547da2cbfe0165a2ccca6b639c02" target="_top" xlink:title="Updates the hover reference.">
<polygon fill="white" stroke="#666666" points="436,-100 236,-100 236,-59 436,-59 436,-100"/>
<text text-anchor="start" x="244" y="-88" font-family="Helvetica,sans-Serif" font-size="10.00">iii_drone::control</text>
<text text-anchor="start" x="244" y="-77" font-family="Helvetica,sans-Serif" font-size="10.00">::maneuver::HoverByObjectManeuver</text>
<text text-anchor="middle" x="336" y="-66" font-family="Helvetica,sans-Serif" font-size="10.00">Server::Update</text>
</a>
</g>
</g>
<!-- Node11&#45;&gt;Node15 -->
<g id="edge15_Node000011_Node000015" class="edge">
<title>Node11&#45;&gt;Node15</title>
<g id="a_edge15_Node000011_Node000015"><a xlink:title=" ">
<path fill="none" stroke="#63b8ff" d="M517.36,-142.82C492.81,-131.95 463.2,-119.43 436,-109.5 427.06,-106.24 417.58,-103.04 408.16,-100.02"/>
<polygon fill="#63b8ff" stroke="#63b8ff" points="515.95,-146.02 526.5,-146.9 518.79,-139.63 515.95,-146.02"/>
</a>
</g>
</g>
<!-- Node14 -->
<g id="Node000014" class="node">
<title>Node14</title>
<g id="a_Node000014"><a xlink:href="classiii__drone_1_1control_1_1maneuver_1_1HoverByObjectManeuverServer.html#af8528504b83c4c9b405f496ccc269e10" target="_top" xlink:title="Returns true if the maneuver has failed. Has failed if the target is not visible or the drone has dri...">
<polygon fill="white" stroke="#666666" points="200,-150 0,-150 0,-109 200,-109 200,-150"/>
<text text-anchor="start" x="8" y="-138" font-family="Helvetica,sans-Serif" font-size="10.00">iii_drone::control</text>
<text text-anchor="start" x="8" y="-127" font-family="Helvetica,sans-Serif" font-size="10.00">::maneuver::HoverByObjectManeuver</text>
<text text-anchor="middle" x="100" y="-116" font-family="Helvetica,sans-Serif" font-size="10.00">Server::hasFailed</text>
</a>
</g>
</g>
<!-- Node13&#45;&gt;Node14 -->
<g id="edge14_Node000013_Node000014" class="edge">
<title>Node13&#45;&gt;Node14</title>
<g id="a_edge14_Node000013_Node000014"><a xlink:title=" ">
<path fill="none" stroke="#63b8ff" d="M225.73,-134.3C217.15,-133.97 208.52,-133.64 200.02,-133.31"/>
<polygon fill="#63b8ff" stroke="#63b8ff" points="225.64,-137.8 235.76,-134.68 225.9,-130.8 225.64,-137.8"/>
</a>
</g>
</g>
<!-- Node17 -->
<g id="Node000017" class="node">
<title>Node17</title>
<g id="a_Node000017"><a xlink:href="classiii__drone_1_1adapters_1_1TargetAdapter.html#a7f5e4134e43162cc5d8652ae3f3676f9" target="_top" xlink:title="Converts to a target message.">
<polygon fill="white" stroke="#666666" points="636,-96.5 508,-96.5 508,-66.5 636,-66.5 636,-96.5"/>
<text text-anchor="start" x="516" y="-84.5" font-family="Helvetica,sans-Serif" font-size="10.00">iii_drone::adapters</text>
<text text-anchor="middle" x="572" y="-73.5" font-family="Helvetica,sans-Serif" font-size="10.00">::TargetAdapter::ToMsg</text>
</a>
</g>
</g>
<!-- Node16&#45;&gt;Node17 -->
<g id="edge17_Node000016_Node000017" class="edge">
<title>Node16&#45;&gt;Node17</title>
<g id="a_edge17_Node000016_Node000017"><a xlink:title=" ">
<path fill="none" stroke="#63b8ff" d="M734.06,-122.91C701.38,-114.5 662.67,-104.55 631.4,-96.51"/>
<polygon fill="#63b8ff" stroke="#63b8ff" points="733.44,-126.36 743.99,-125.46 735.18,-119.58 733.44,-126.36"/>
</a>
</g>
</g>
<!-- Node18 -->
<g id="Node000018" class="node">
<title>Node18</title>
<g id="a_Node000018"><a xlink:href="classiii__drone_1_1control_1_1CombinedDroneAwarenessHandler.html#ab2ef26b588a1fc6558514c10ec25feb9" target="_top" xlink:title="Publishes the members.">
<polygon fill="white" stroke="#666666" points="432.5,-41 239.5,-41 239.5,0 432.5,0 432.5,-41"/>
<text text-anchor="start" x="247.5" y="-29" font-family="Helvetica,sans-Serif" font-size="10.00">iii_drone::control</text>
<text text-anchor="start" x="247.5" y="-18" font-family="Helvetica,sans-Serif" font-size="10.00">::CombinedDroneAwarenessHandler</text>
<text text-anchor="middle" x="336" y="-7" font-family="Helvetica,sans-Serif" font-size="10.00">::publishMembers</text>
</a>
</g>
</g>
<!-- Node17&#45;&gt;Node18 -->
<g id="edge18_Node000017_Node000018" class="edge">
<title>Node17&#45;&gt;Node18</title>
<g id="a_edge18_Node000017_Node000018"><a xlink:title=" ">
<path fill="none" stroke="#63b8ff" d="M503.59,-63.93C476.23,-56.8 444.43,-48.51 415.99,-41.09"/>
<polygon fill="#63b8ff" stroke="#63b8ff" points="502.9,-67.36 513.46,-66.5 504.66,-60.59 502.9,-67.36"/>
</a>
</g>
</g>
<!-- Node19 -->
<g id="Node000019" class="node">
<title>Node19</title>
<g id="a_Node000019"><a xlink:href="classiii__drone_1_1control_1_1CombinedDroneAwarenessHandler.html#a45046cb4335f9a4fe757b195ae4851ca" target="_top" xlink:title="Construct a new CombinedDroneAwarenessHandler object, initializing all the subscriptions.">
<polygon fill="white" stroke="#666666" points="196.5,-41 3.5,-41 3.5,0 196.5,0 196.5,-41"/>
<text text-anchor="start" x="11.5" y="-29" font-family="Helvetica,sans-Serif" font-size="10.00">iii_drone::control</text>
<text text-anchor="start" x="11.5" y="-18" font-family="Helvetica,sans-Serif" font-size="10.00">::CombinedDroneAwarenessHandler</text>
<text text-anchor="middle" x="100" y="-7" font-family="Helvetica,sans-Serif" font-size="10.00">::CombinedDroneAwarenessHandler</text>
</a>
</g>
</g>
<!-- Node18&#45;&gt;Node19 -->
<g id="edge19_Node000018_Node000019" class="edge">
<title>Node18&#45;&gt;Node19</title>
<g id="a_edge19_Node000018_Node000019"><a xlink:title=" ">
<path fill="none" stroke="#63b8ff" d="M229.47,-20.5C218.52,-20.5 207.43,-20.5 196.59,-20.5"/>
<polygon fill="#63b8ff" stroke="#63b8ff" points="229.49,-24 239.49,-20.5 229.49,-17 229.49,-24"/>
</a>
</g>
</g>
</g>
</svg>
