<?xml version="1.0" encoding="UTF-8" standalone="no"?>
<!DOCTYPE svg PUBLIC "-//W3C//DTD SVG 1.1//EN"
 "http://www.w3.org/Graphics/SVG/1.1/DTD/svg11.dtd">
<!-- Generated by graphviz version 2.43.0 (0)
 -->
<!-- Title: _local_setup_util_sh._include_comments Pages: 1 -->
<svg width="1021pt" height="190pt"
 viewBox="0.00 0.00 1021.00 190.00" xmlns="http://www.w3.org/2000/svg" xmlns:xlink="http://www.w3.org/1999/xlink">
<g id="graph0" class="graph" transform="scale(1 1) rotate(0) translate(4 186)">
<title>_local_setup_util_sh._include_comments</title>
<!-- Node1 -->
<g id="Node000001" class="node">
<title>Node1</title>
<g id="a_Node000001"><a xlink:title=" ">
<polygon fill="#999999" stroke="#666666" points="1013,-96 895,-96 895,-66 1013,-66 1013,-96"/>
<text text-anchor="start" x="903" y="-84" font-family="Helvetica,sans-Serif" font-size="10.00">_local_setup_util_sh.</text>
<text text-anchor="middle" x="954" y="-73" font-family="Helvetica,sans-Serif" font-size="10.00">_include_comments</text>
</a>
</g>
</g>
<!-- Node2 -->
<g id="Node000002" class="node">
<title>Node2</title>
<g id="a_Node000002"><a xlink:href="namespace__local__setup__util__sh.html#af16d687ab96bda939ffb5d5a4d7da028" target="_top" xlink:title=" ">
<polygon fill="white" stroke="#666666" points="857,-182 729,-182 729,-152 857,-152 857,-182"/>
<text text-anchor="start" x="737" y="-170" font-family="Helvetica,sans-Serif" font-size="10.00">_local_setup_util_sh.</text>
<text text-anchor="middle" x="793" y="-159" font-family="Helvetica,sans-Serif" font-size="10.00">_append_unique_value</text>
</a>
</g>
</g>
<!-- Node1&#45;&gt;Node2 -->
<g id="edge1_Node000001_Node000002" class="edge">
<title>Node1&#45;&gt;Node2</title>
<g id="a_edge1_Node000001_Node000002"><a xlink:title=" ">
<path fill="none" stroke="#63b8ff" d="M921.03,-101.76C903.11,-113.04 880.16,-126.92 859,-138 849.7,-142.87 839.4,-147.71 829.81,-151.99"/>
<polygon fill="#63b8ff" stroke="#63b8ff" points="923.34,-104.44 929.91,-96.12 919.59,-98.53 923.34,-104.44"/>
</a>
</g>
</g>
<!-- Node3 -->
<g id="Node000003" class="node">
<title>Node3</title>
<g id="a_Node000003"><a xlink:href="namespace__local__setup__util__sh.html#a31e6502dd9cb1db67c455e7f4d195af7" target="_top" xlink:title=" ">
<polygon fill="white" stroke="#666666" points="691,-117 540,-117 540,-87 691,-87 691,-117"/>
<text text-anchor="start" x="548" y="-105" font-family="Helvetica,sans-Serif" font-size="10.00">_local_setup_util_sh.handle</text>
<text text-anchor="middle" x="615.5" y="-94" font-family="Helvetica,sans-Serif" font-size="10.00">_dsv_types_except_source</text>
</a>
</g>
</g>
<!-- Node1&#45;&gt;Node3 -->
<g id="edge9_Node000001_Node000003" class="edge">
<title>Node1&#45;&gt;Node3</title>
<g id="a_edge9_Node000001_Node000003"><a xlink:title=" ">
<path fill="none" stroke="#63b8ff" d="M893.79,-98.5C882.34,-101.21 870.37,-103.57 859,-105 803.02,-112.03 739.2,-110.88 691.09,-108.19"/>
<polygon fill="#63b8ff" stroke="#63b8ff" points="894.82,-101.85 903.69,-96.05 893.14,-95.06 894.82,-101.85"/>
</a>
</g>
</g>
<!-- Node4 -->
<g id="Node000004" class="node">
<title>Node4</title>
<g id="a_Node000004"><a xlink:href="namespace__local__setup__util__sh.html#a9467ed35a43be5e0208f40000dc0d259" target="_top" xlink:title=" ">
<polygon fill="white" stroke="#666666" points="504,-58 349,-58 349,-28 504,-28 504,-58"/>
<text text-anchor="start" x="357" y="-46" font-family="Helvetica,sans-Serif" font-size="10.00">_local_setup_util_sh.process</text>
<text text-anchor="middle" x="426.5" y="-35" font-family="Helvetica,sans-Serif" font-size="10.00">_dsv_file</text>
</a>
</g>
</g>
<!-- Node1&#45;&gt;Node4 -->
<g id="edge11_Node000001_Node000004" class="edge">
<title>Node1&#45;&gt;Node4</title>
<g id="a_edge11_Node000001_Node000004"><a xlink:title=" ">
<path fill="none" stroke="#63b8ff" d="M892.24,-63.44C881.26,-60.85 869.85,-58.54 859,-57 735.82,-39.49 590.95,-38.8 504.32,-40.48"/>
<polygon fill="#63b8ff" stroke="#63b8ff" points="891.63,-66.89 902.18,-65.88 893.3,-60.09 891.63,-66.89"/>
</a>
</g>
</g>
<!-- Node6 -->
<g id="Node000006" class="node">
<title>Node6</title>
<g id="a_Node000006"><a xlink:href="namespace__local__setup__util__sh.html#ad42e77bf04f4cef20435489a3e8ff279" target="_top" xlink:title=" ">
<polygon fill="white" stroke="#666666" points="143,-30.5 0,-30.5 0,-11.5 143,-11.5 143,-30.5"/>
<text text-anchor="middle" x="71.5" y="-18.5" font-family="Helvetica,sans-Serif" font-size="10.00">_local_setup_util_sh.main</text>
</a>
</g>
</g>
<!-- Node1&#45;&gt;Node6 -->
<g id="edge10_Node000001_Node000006" class="edge">
<title>Node1&#45;&gt;Node6</title>
<g id="a_edge10_Node000001_Node000006"><a xlink:title=" ">
<path fill="none" stroke="#63b8ff" d="M914.25,-61.52C897.6,-53.83 877.7,-45.53 859,-40 754.25,-9.04 725.73,0 616.5,0 616.5,0 616.5,0 425.5,0 327.42,0 214.29,-8.18 143.09,-14.33"/>
<polygon fill="#63b8ff" stroke="#63b8ff" points="913.11,-64.85 923.65,-65.95 916.1,-58.52 913.11,-64.85"/>
</a>
</g>
</g>
<!-- Node7 -->
<g id="Node000007" class="node">
<title>Node7</title>
<g id="a_Node000007"><a xlink:href="namespace__local__setup__util__sh.html#a073a494d0d8c6e0133268f5233e7dd33" target="_top" xlink:title=" ">
<polygon fill="white" stroke="#666666" points="859,-96 727,-96 727,-66 859,-66 859,-96"/>
<text text-anchor="start" x="735" y="-84" font-family="Helvetica,sans-Serif" font-size="10.00">_local_setup_util_sh.</text>
<text text-anchor="middle" x="793" y="-73" font-family="Helvetica,sans-Serif" font-size="10.00">_prepend_unique_value</text>
</a>
</g>
</g>
<!-- Node1&#45;&gt;Node7 -->
<g id="edge7_Node000001_Node000007" class="edge">
<title>Node1&#45;&gt;Node7</title>
<g id="a_edge7_Node000001_Node000007"><a xlink:title=" ">
<path fill="none" stroke="#63b8ff" d="M884.49,-81C876.04,-81 867.41,-81 859.01,-81"/>
<polygon fill="#63b8ff" stroke="#63b8ff" points="884.7,-84.5 894.7,-81 884.7,-77.5 884.7,-84.5"/>
</a>
</g>
</g>
<!-- Node2&#45;&gt;Node3 -->
<g id="edge2_Node000002_Node000003" class="edge">
<title>Node2&#45;&gt;Node3</title>
<g id="a_edge2_Node000002_Node000003"><a xlink:title=" ">
<path fill="none" stroke="#63b8ff" d="M741.72,-148.38C714.95,-138.46 682.46,-126.43 657.29,-117.11"/>
<polygon fill="#63b8ff" stroke="#63b8ff" points="740.7,-151.73 751.3,-151.92 743.13,-145.17 740.7,-151.73"/>
</a>
</g>
</g>
<!-- Node3&#45;&gt;Node4 -->
<g id="edge3_Node000003_Node000004" class="edge">
<title>Node3&#45;&gt;Node4</title>
<g id="a_edge3_Node000003_Node000004"><a xlink:title=" ">
<path fill="none" stroke="#63b8ff" d="M557.01,-83.86C530.75,-75.58 500.02,-65.88 475.08,-58.01"/>
<polygon fill="#63b8ff" stroke="#63b8ff" points="556.24,-87.29 566.83,-86.96 558.34,-80.61 556.24,-87.29"/>
</a>
</g>
</g>
<!-- Node4&#45;&gt;Node4 -->
<g id="edge6_Node000004_Node000004" class="edge">
<title>Node4&#45;&gt;Node4</title>
<g id="a_edge6_Node000004_Node000004"><a xlink:title=" ">
<path fill="none" stroke="#63b8ff" d="M458.01,-68.6C453.7,-72.97 443.2,-76 426.5,-76 398.38,-76 387.83,-67.41 394.86,-58.28"/>
<polygon fill="#63b8ff" stroke="#63b8ff" points="461.51,-68.32 458.14,-58.28 454.51,-68.23 461.51,-68.32"/>
</a>
</g>
</g>
<!-- Node5 -->
<g id="Node000005" class="node">
<title>Node5</title>
<g id="a_Node000005"><a xlink:href="namespace__local__setup__util__sh.html#a9f37384c4fe1e06c84ee55b4267ff74e" target="_top" xlink:title=" ">
<polygon fill="white" stroke="#666666" points="313,-58 179,-58 179,-28 313,-28 313,-58"/>
<text text-anchor="start" x="187" y="-46" font-family="Helvetica,sans-Serif" font-size="10.00">_local_setup_util_sh.get</text>
<text text-anchor="middle" x="246" y="-35" font-family="Helvetica,sans-Serif" font-size="10.00">_commands</text>
</a>
</g>
</g>
<!-- Node4&#45;&gt;Node5 -->
<g id="edge4_Node000004_Node000005" class="edge">
<title>Node4&#45;&gt;Node5</title>
<g id="a_edge4_Node000004_Node000005"><a xlink:title=" ">
<path fill="none" stroke="#63b8ff" d="M338.67,-43C330.04,-43 321.37,-43 313.01,-43"/>
<polygon fill="#63b8ff" stroke="#63b8ff" points="338.76,-46.5 348.76,-43 338.76,-39.5 338.76,-46.5"/>
</a>
</g>
</g>
<!-- Node5&#45;&gt;Node6 -->
<g id="edge5_Node000005_Node000006" class="edge">
<title>Node5&#45;&gt;Node6</title>
<g id="a_edge5_Node000005_Node000006"><a xlink:title=" ">
<path fill="none" stroke="#63b8ff" d="M168.84,-33.29C160.28,-32.2 151.59,-31.09 143.11,-30"/>
<polygon fill="#63b8ff" stroke="#63b8ff" points="168.44,-36.76 178.8,-34.56 169.32,-29.82 168.44,-36.76"/>
</a>
</g>
</g>
<!-- Node7&#45;&gt;Node3 -->
<g id="edge8_Node000007_Node000003" class="edge">
<title>Node7&#45;&gt;Node3</title>
<g id="a_edge8_Node000007_Node000003"><a xlink:title=" ">
<path fill="none" stroke="#63b8ff" d="M716.47,-90.04C708.05,-91.05 699.48,-92.07 691.07,-93.08"/>
<polygon fill="#63b8ff" stroke="#63b8ff" points="717.14,-93.48 726.65,-88.82 716.31,-86.53 717.14,-93.48"/>
</a>
</g>
</g>
</g>
</svg>
