<?xml version="1.0" encoding="UTF-8" standalone="no"?>
<!DOCTYPE svg PUBLIC "-//W3C//DTD SVG 1.1//EN"
 "http://www.w3.org/Graphics/SVG/1.1/DTD/svg11.dtd">
<!-- Generated by graphviz version 2.43.0 (0)
 -->
<!-- Title: _local_setup_util_sh._set Pages: 1 -->
<svg width="873pt" height="56pt"
 viewBox="0.00 0.00 873.00 56.00" xmlns="http://www.w3.org/2000/svg" xmlns:xlink="http://www.w3.org/1999/xlink">
<g id="graph0" class="graph" transform="scale(1 1) rotate(0) translate(4 52)">
<title>_local_setup_util_sh._set</title>
<!-- Node1 -->
<g id="Node000001" class="node">
<title>Node1</title>
<g id="a_Node000001"><a xlink:title=" ">
<polygon fill="#999999" stroke="#666666" points="865,-24.5 727,-24.5 727,-5.5 865,-5.5 865,-24.5"/>
<text text-anchor="middle" x="796" y="-12.5" font-family="Helvetica,sans-Serif" font-size="10.00">_local_setup_util_sh._set</text>
</a>
</g>
</g>
<!-- Node2 -->
<g id="Node000002" class="node">
<title>Node2</title>
<g id="a_Node000002"><a xlink:href="namespace__local__setup__util__sh.html#a31e6502dd9cb1db67c455e7f4d195af7" target="_top" xlink:title=" ">
<polygon fill="white" stroke="#666666" points="691,-30 540,-30 540,0 691,0 691,-30"/>
<text text-anchor="start" x="548" y="-18" font-family="Helvetica,sans-Serif" font-size="10.00">_local_setup_util_sh.handle</text>
<text text-anchor="middle" x="615.5" y="-7" font-family="Helvetica,sans-Serif" font-size="10.00">_dsv_types_except_source</text>
</a>
</g>
</g>
<!-- Node1&#45;&gt;Node2 -->
<g id="edge1_Node000001_Node000002" class="edge">
<title>Node1&#45;&gt;Node2</title>
<g id="a_edge1_Node000001_Node000002"><a xlink:title=" ">
<path fill="none" stroke="#63b8ff" d="M716.58,-15C708.16,-15 699.62,-15 691.25,-15"/>
<polygon fill="#63b8ff" stroke="#63b8ff" points="716.75,-18.5 726.75,-15 716.75,-11.5 716.75,-18.5"/>
</a>
</g>
</g>
<!-- Node3 -->
<g id="Node000003" class="node">
<title>Node3</title>
<g id="a_Node000003"><a xlink:href="namespace__local__setup__util__sh.html#a9467ed35a43be5e0208f40000dc0d259" target="_top" xlink:title=" ">
<polygon fill="white" stroke="#666666" points="504,-30 349,-30 349,0 504,0 504,-30"/>
<text text-anchor="start" x="357" y="-18" font-family="Helvetica,sans-Serif" font-size="10.00">_local_setup_util_sh.process</text>
<text text-anchor="middle" x="426.5" y="-7" font-family="Helvetica,sans-Serif" font-size="10.00">_dsv_file</text>
</a>
</g>
</g>
<!-- Node2&#45;&gt;Node3 -->
<g id="edge2_Node000002_Node000003" class="edge">
<title>Node2&#45;&gt;Node3</title>
<g id="a_edge2_Node000002_Node000003"><a xlink:title=" ">
<path fill="none" stroke="#63b8ff" d="M529.56,-15C521.12,-15 512.58,-15 504.24,-15"/>
<polygon fill="#63b8ff" stroke="#63b8ff" points="529.79,-18.5 539.79,-15 529.79,-11.5 529.79,-18.5"/>
</a>
</g>
</g>
<!-- Node3&#45;&gt;Node3 -->
<g id="edge5_Node000003_Node000003" class="edge">
<title>Node3&#45;&gt;Node3</title>
<g id="a_edge5_Node000003_Node000003"><a xlink:title=" ">
<path fill="none" stroke="#63b8ff" d="M458.01,-40.6C453.7,-44.97 443.2,-48 426.5,-48 398.38,-48 387.83,-39.41 394.86,-30.28"/>
<polygon fill="#63b8ff" stroke="#63b8ff" points="461.51,-40.32 458.14,-30.28 454.51,-40.23 461.51,-40.32"/>
</a>
</g>
</g>
<!-- Node4 -->
<g id="Node000004" class="node">
<title>Node4</title>
<g id="a_Node000004"><a xlink:href="namespace__local__setup__util__sh.html#a9f37384c4fe1e06c84ee55b4267ff74e" target="_top" xlink:title=" ">
<polygon fill="white" stroke="#666666" points="313,-30 179,-30 179,0 313,0 313,-30"/>
<text text-anchor="start" x="187" y="-18" font-family="Helvetica,sans-Serif" font-size="10.00">_local_setup_util_sh.get</text>
<text text-anchor="middle" x="246" y="-7" font-family="Helvetica,sans-Serif" font-size="10.00">_commands</text>
</a>
</g>
</g>
<!-- Node3&#45;&gt;Node4 -->
<g id="edge3_Node000003_Node000004" class="edge">
<title>Node3&#45;&gt;Node4</title>
<g id="a_edge3_Node000003_Node000004"><a xlink:title=" ">
<path fill="none" stroke="#63b8ff" d="M338.67,-15C330.04,-15 321.37,-15 313.01,-15"/>
<polygon fill="#63b8ff" stroke="#63b8ff" points="338.76,-18.5 348.76,-15 338.76,-11.5 338.76,-18.5"/>
</a>
</g>
</g>
<!-- Node5 -->
<g id="Node000005" class="node">
<title>Node5</title>
<g id="a_Node000005"><a xlink:href="namespace__local__setup__util__sh.html#ad42e77bf04f4cef20435489a3e8ff279" target="_top" xlink:title=" ">
<polygon fill="white" stroke="#666666" points="143,-24.5 0,-24.5 0,-5.5 143,-5.5 143,-24.5"/>
<text text-anchor="middle" x="71.5" y="-12.5" font-family="Helvetica,sans-Serif" font-size="10.00">_local_setup_util_sh.main</text>
</a>
</g>
</g>
<!-- Node4&#45;&gt;Node5 -->
<g id="edge4_Node000004_Node000005" class="edge">
<title>Node4&#45;&gt;Node5</title>
<g id="a_edge4_Node000004_Node000005"><a xlink:title=" ">
<path fill="none" stroke="#63b8ff" d="M168.56,-15C160.09,-15 151.5,-15 143.11,-15"/>
<polygon fill="#63b8ff" stroke="#63b8ff" points="168.8,-18.5 178.8,-15 168.8,-11.5 168.8,-18.5"/>
</a>
</g>
</g>
</g>
</svg>
