<?xml version="1.0" encoding="UTF-8" standalone="no"?>
<!DOCTYPE svg PUBLIC "-//W3C//DTD SVG 1.1//EN"
 "http://www.w3.org/Graphics/SVG/1.1/DTD/svg11.dtd">
<!-- Generated by graphviz version 2.43.0 (0)
 -->
<!-- Title: iii_drone::types::transformMsgFromTransformMatrix Pages: 1 -->
<svg width="776pt" height="49pt"
 viewBox="0.00 0.00 776.00 49.00" xmlns="http://www.w3.org/2000/svg" xmlns:xlink="http://www.w3.org/1999/xlink">
<g id="graph0" class="graph" transform="scale(1 1) rotate(0) translate(4 45)">
<title>iii_drone::types::transformMsgFromTransformMatrix</title>
<!-- Node1 -->
<g id="Node000001" class="node">
<title>Node1</title>
<g id="a_Node000001"><a xlink:title=" ">
<polygon fill="#999999" stroke="#666666" points="768,-35.5 622,-35.5 622,-5.5 768,-5.5 768,-35.5"/>
<text text-anchor="start" x="630" y="-23.5" font-family="Helvetica,sans-Serif" font-size="10.00">iii_drone::types::transform</text>
<text text-anchor="middle" x="695" y="-12.5" font-family="Helvetica,sans-Serif" font-size="10.00">MsgFromTransformMatrix</text>
</a>
</g>
</g>
<!-- Node2 -->
<g id="Node000002" class="node">
<title>Node2</title>
<g id="a_Node000002"><a xlink:href="classiii__drone_1_1adapters_1_1TargetAdapter.html#a7f5e4134e43162cc5d8652ae3f3676f9" target="_top" xlink:title="Converts to a target message.">
<polygon fill="white" stroke="#666666" points="586,-35.5 458,-35.5 458,-5.5 586,-5.5 586,-35.5"/>
<text text-anchor="start" x="466" y="-23.5" font-family="Helvetica,sans-Serif" font-size="10.00">iii_drone::adapters</text>
<text text-anchor="middle" x="522" y="-12.5" font-family="Helvetica,sans-Serif" font-size="10.00">::TargetAdapter::ToMsg</text>
</a>
</g>
</g>
<!-- Node1&#45;&gt;Node2 -->
<g id="edge1_Node000001_Node000002" class="edge">
<title>Node1&#45;&gt;Node2</title>
<g id="a_edge1_Node000001_Node000002"><a xlink:title=" ">
<path fill="none" stroke="#63b8ff" d="M611.9,-20.5C603.28,-20.5 594.62,-20.5 586.26,-20.5"/>
<polygon fill="#63b8ff" stroke="#63b8ff" points="611.98,-24 621.98,-20.5 611.98,-17 611.98,-24"/>
</a>
</g>
</g>
<!-- Node3 -->
<g id="Node000003" class="node">
<title>Node3</title>
<g id="a_Node000003"><a xlink:href="classiii__drone_1_1control_1_1CombinedDroneAwarenessHandler.html#ab2ef26b588a1fc6558514c10ec25feb9" target="_top" xlink:title="Publishes the members.">
<polygon fill="white" stroke="#666666" points="422,-41 229,-41 229,0 422,0 422,-41"/>
<text text-anchor="start" x="237" y="-29" font-family="Helvetica,sans-Serif" font-size="10.00">iii_drone::control</text>
<text text-anchor="start" x="237" y="-18" font-family="Helvetica,sans-Serif" font-size="10.00">::CombinedDroneAwarenessHandler</text>
<text text-anchor="middle" x="325.5" y="-7" font-family="Helvetica,sans-Serif" font-size="10.00">::publishMembers</text>
</a>
</g>
</g>
<!-- Node2&#45;&gt;Node3 -->
<g id="edge2_Node000002_Node000003" class="edge">
<title>Node2&#45;&gt;Node3</title>
<g id="a_edge2_Node000002_Node000003"><a xlink:title=" ">
<path fill="none" stroke="#63b8ff" d="M447.78,-20.5C439.41,-20.5 430.78,-20.5 422.17,-20.5"/>
<polygon fill="#63b8ff" stroke="#63b8ff" points="447.85,-24 457.85,-20.5 447.85,-17 447.85,-24"/>
</a>
</g>
</g>
<!-- Node4 -->
<g id="Node000004" class="node">
<title>Node4</title>
<g id="a_Node000004"><a xlink:href="classiii__drone_1_1control_1_1CombinedDroneAwarenessHandler.html#a45046cb4335f9a4fe757b195ae4851ca" target="_top" xlink:title="Construct a new CombinedDroneAwarenessHandler object, initializing all the subscriptions.">
<polygon fill="white" stroke="#666666" points="193,-41 0,-41 0,0 193,0 193,-41"/>
<text text-anchor="start" x="8" y="-29" font-family="Helvetica,sans-Serif" font-size="10.00">iii_drone::control</text>
<text text-anchor="start" x="8" y="-18" font-family="Helvetica,sans-Serif" font-size="10.00">::CombinedDroneAwarenessHandler</text>
<text text-anchor="middle" x="96.5" y="-7" font-family="Helvetica,sans-Serif" font-size="10.00">::CombinedDroneAwarenessHandler</text>
</a>
</g>
</g>
<!-- Node3&#45;&gt;Node4 -->
<g id="edge3_Node000003_Node000004" class="edge">
<title>Node3&#45;&gt;Node4</title>
<g id="a_edge3_Node000003_Node000004"><a xlink:title=" ">
<path fill="none" stroke="#63b8ff" d="M218.82,-20.5C210.21,-20.5 201.53,-20.5 193,-20.5"/>
<polygon fill="#63b8ff" stroke="#63b8ff" points="218.89,-24 228.89,-20.5 218.89,-17 218.89,-24"/>
</a>
</g>
</g>
</g>
</svg>
