<?xml version="1.0" encoding="UTF-8" standalone="no"?>
<!DOCTYPE svg PUBLIC "-//W3C//DTD SVG 1.1//EN"
 "http://www.w3.org/Graphics/SVG/1.1/DTD/svg11.dtd">
<!-- Generated by graphviz version 2.43.0 (0)
 -->
<!-- Title: _local_setup_util_sh.process_dsv_file Pages: 1 -->
<svg width="678pt" height="206pt"
 viewBox="0.00 0.00 678.00 206.00" xmlns="http://www.w3.org/2000/svg" xmlns:xlink="http://www.w3.org/1999/xlink">
<g id="graph0" class="graph" transform="scale(1 1) rotate(0) translate(4 202)">
<title>_local_setup_util_sh.process_dsv_file</title>
<!-- Node1 -->
<g id="Node000001" class="node">
<title>Node1</title>
<g id="a_Node000001"><a xlink:title=" ">
<polygon fill="#999999" stroke="#666666" points="155,-180 0,-180 0,-150 155,-150 155,-180"/>
<text text-anchor="start" x="8" y="-168" font-family="Helvetica,sans-Serif" font-size="10.00">_local_setup_util_sh.process</text>
<text text-anchor="middle" x="77.5" y="-157" font-family="Helvetica,sans-Serif" font-size="10.00">_dsv_file</text>
</a>
</g>
</g>
<!-- Node1&#45;&gt;Node1 -->
<g id="edge10_Node000001_Node000001" class="edge">
<title>Node1&#45;&gt;Node1</title>
<g id="a_edge10_Node000001_Node000001"><a xlink:title=" ">
<path fill="none" stroke="#63b8ff" d="M44.45,-180.28C37.11,-189.41 48.12,-198 77.5,-198 94.94,-198 105.91,-194.97 110.41,-190.6"/>
<polygon fill="#63b8ff" stroke="#63b8ff" points="113.91,-190.32 110.55,-180.28 106.91,-190.23 113.91,-190.32"/>
</a>
</g>
</g>
<!-- Node2 -->
<g id="Node000002" class="node">
<title>Node2</title>
<g id="a_Node000002"><a xlink:href="namespace__local__setup__util__sh.html#ae21c7bef14f20eb6bc1750e4bf65dd74" target="_top" xlink:title=" ">
<polygon fill="white" stroke="#666666" points="670,-185 552,-185 552,-155 670,-155 670,-185"/>
<text text-anchor="start" x="560" y="-173" font-family="Helvetica,sans-Serif" font-size="10.00">_local_setup_util_sh.</text>
<text text-anchor="middle" x="611" y="-162" font-family="Helvetica,sans-Serif" font-size="10.00">_include_comments</text>
</a>
</g>
</g>
<!-- Node1&#45;&gt;Node2 -->
<g id="edge1_Node000001_Node000002" class="edge">
<title>Node1&#45;&gt;Node2</title>
<g id="a_edge1_Node000001_Node000002"><a xlink:title=" ">
<path fill="none" stroke="#63b8ff" d="M155.36,-177.41C242.89,-189.72 390.08,-204.89 516,-191 524.57,-190.05 533.51,-188.64 542.31,-186.98"/>
<polygon fill="#63b8ff" stroke="#63b8ff" points="543.05,-190.4 552.17,-185.01 541.68,-183.53 543.05,-190.4"/>
</a>
</g>
</g>
<!-- Node3 -->
<g id="Node000003" class="node">
<title>Node3</title>
<g id="a_Node000003"><a xlink:href="namespace__local__setup__util__sh.html#a31e6502dd9cb1db67c455e7f4d195af7" target="_top" xlink:title=" ">
<polygon fill="white" stroke="#666666" points="342,-140 191,-140 191,-110 342,-110 342,-140"/>
<text text-anchor="start" x="199" y="-128" font-family="Helvetica,sans-Serif" font-size="10.00">_local_setup_util_sh.handle</text>
<text text-anchor="middle" x="266.5" y="-117" font-family="Helvetica,sans-Serif" font-size="10.00">_dsv_types_except_source</text>
</a>
</g>
</g>
<!-- Node1&#45;&gt;Node3 -->
<g id="edge2_Node000001_Node000003" class="edge">
<title>Node1&#45;&gt;Node3</title>
<g id="a_edge2_Node000001_Node000003"><a xlink:title=" ">
<path fill="none" stroke="#63b8ff" d="M148.66,-149.99C160.57,-147.45 173.01,-144.78 185.15,-142.19"/>
<polygon fill="#63b8ff" stroke="#63b8ff" points="186.21,-145.54 195.25,-140.03 184.74,-138.7 186.21,-145.54"/>
</a>
</g>
</g>
<!-- Node3&#45;&gt;Node2 -->
<g id="edge5_Node000003_Node000002" class="edge">
<title>Node3&#45;&gt;Node2</title>
<g id="a_edge5_Node000003_Node000002"><a xlink:title=" ">
<path fill="none" stroke="#63b8ff" d="M293.72,-140.06C315.5,-151.64 347.69,-166.7 378,-173 432.2,-184.26 495.06,-182.57 541.66,-178.58"/>
<polygon fill="#63b8ff" stroke="#63b8ff" points="542.01,-182.07 551.65,-177.67 541.37,-175.1 542.01,-182.07"/>
</a>
</g>
</g>
<!-- Node4 -->
<g id="Node000004" class="node">
<title>Node4</title>
<g id="a_Node000004"><a xlink:href="namespace__local__setup__util__sh.html#af16d687ab96bda939ffb5d5a4d7da028" target="_top" xlink:title=" ">
<polygon fill="white" stroke="#666666" points="511,-164 383,-164 383,-134 511,-134 511,-164"/>
<text text-anchor="start" x="391" y="-152" font-family="Helvetica,sans-Serif" font-size="10.00">_local_setup_util_sh.</text>
<text text-anchor="middle" x="447" y="-141" font-family="Helvetica,sans-Serif" font-size="10.00">_append_unique_value</text>
</a>
</g>
</g>
<!-- Node3&#45;&gt;Node4 -->
<g id="edge3_Node000003_Node000004" class="edge">
<title>Node3&#45;&gt;Node4</title>
<g id="a_edge3_Node000003_Node000004"><a xlink:title=" ">
<path fill="none" stroke="#63b8ff" d="M342.17,-135.04C352.34,-136.41 362.77,-137.81 372.92,-139.17"/>
<polygon fill="#63b8ff" stroke="#63b8ff" points="372.57,-142.66 382.95,-140.52 373.51,-135.72 372.57,-142.66"/>
</a>
</g>
</g>
<!-- Node5 -->
<g id="Node000005" class="node">
<title>Node5</title>
<g id="a_Node000005"><a xlink:href="namespace__local__setup__util__sh.html#a073a494d0d8c6e0133268f5233e7dd33" target="_top" xlink:title=" ">
<polygon fill="white" stroke="#666666" points="513,-116 381,-116 381,-86 513,-86 513,-116"/>
<text text-anchor="start" x="389" y="-104" font-family="Helvetica,sans-Serif" font-size="10.00">_local_setup_util_sh.</text>
<text text-anchor="middle" x="447" y="-93" font-family="Helvetica,sans-Serif" font-size="10.00">_prepend_unique_value</text>
</a>
</g>
</g>
<!-- Node3&#45;&gt;Node5 -->
<g id="edge6_Node000003_Node000005" class="edge">
<title>Node3&#45;&gt;Node5</title>
<g id="a_edge6_Node000003_Node000005"><a xlink:title=" ">
<path fill="none" stroke="#63b8ff" d="M342.17,-114.96C351.64,-113.69 361.33,-112.38 370.81,-111.11"/>
<polygon fill="#63b8ff" stroke="#63b8ff" points="371.55,-114.54 380.99,-109.74 370.62,-107.6 371.55,-114.54"/>
</a>
</g>
</g>
<!-- Node6 -->
<g id="Node000006" class="node">
<title>Node6</title>
<g id="a_Node000006"><a xlink:href="namespace__local__setup__util__sh.html#a85b7b1b62b5a2e0c6a2f1193378de9b7" target="_top" xlink:title=" ">
<polygon fill="white" stroke="#666666" points="516,-67.5 378,-67.5 378,-48.5 516,-48.5 516,-67.5"/>
<text text-anchor="middle" x="447" y="-55.5" font-family="Helvetica,sans-Serif" font-size="10.00">_local_setup_util_sh._set</text>
</a>
</g>
</g>
<!-- Node3&#45;&gt;Node6 -->
<g id="edge8_Node000003_Node000006" class="edge">
<title>Node3&#45;&gt;Node6</title>
<g id="a_edge8_Node000003_Node000006"><a xlink:title=" ">
<path fill="none" stroke="#63b8ff" d="M298.95,-109.96C320.81,-99.85 350.8,-86.66 378,-77 384.52,-74.69 391.47,-72.47 398.34,-70.42"/>
<polygon fill="#63b8ff" stroke="#63b8ff" points="399.66,-73.68 408.3,-67.54 397.72,-66.95 399.66,-73.68"/>
</a>
</g>
</g>
<!-- Node7 -->
<g id="Node000007" class="node">
<title>Node7</title>
<g id="a_Node000007"><a xlink:href="namespace__local__setup__util__sh.html#afd7ff6b12a8a3af2a8a0eece6b455e07" target="_top" xlink:title=" ">
<polygon fill="white" stroke="#666666" points="506,-30 388,-30 388,0 506,0 506,-30"/>
<text text-anchor="start" x="396" y="-18" font-family="Helvetica,sans-Serif" font-size="10.00">_local_setup_util_sh.</text>
<text text-anchor="middle" x="447" y="-7" font-family="Helvetica,sans-Serif" font-size="10.00">_set_if_unset</text>
</a>
</g>
</g>
<!-- Node3&#45;&gt;Node7 -->
<g id="edge9_Node000003_Node000007" class="edge">
<title>Node3&#45;&gt;Node7</title>
<g id="a_edge9_Node000003_Node000007"><a xlink:title=" ">
<path fill="none" stroke="#63b8ff" d="M283.97,-109.72C304.63,-91.2 341.76,-59.99 378,-40 381.72,-37.95 385.64,-36.01 389.64,-34.18"/>
<polygon fill="#63b8ff" stroke="#63b8ff" points="391.27,-37.28 399.08,-30.11 388.51,-30.85 391.27,-37.28"/>
</a>
</g>
</g>
<!-- Node4&#45;&gt;Node2 -->
<g id="edge4_Node000004_Node000002" class="edge">
<title>Node4&#45;&gt;Node2</title>
<g id="a_edge4_Node000004_Node000002"><a xlink:title=" ">
<path fill="none" stroke="#63b8ff" d="M511.1,-157.18C521.16,-158.48 531.61,-159.84 541.78,-161.16"/>
<polygon fill="#63b8ff" stroke="#63b8ff" points="541.47,-164.65 551.84,-162.46 542.37,-157.7 541.47,-164.65"/>
</a>
</g>
</g>
<!-- Node5&#45;&gt;Node2 -->
<g id="edge7_Node000005_Node000002" class="edge">
<title>Node5&#45;&gt;Node2</title>
<g id="a_edge7_Node000005_Node000002"><a xlink:title=" ">
<path fill="none" stroke="#63b8ff" d="M492.88,-116.07C500.65,-118.9 508.6,-121.93 516,-125 534.62,-132.72 554.83,-142.23 571.72,-150.53"/>
<polygon fill="#63b8ff" stroke="#63b8ff" points="570.22,-153.69 580.73,-154.99 573.32,-147.42 570.22,-153.69"/>
</a>
</g>
</g>
</g>
</svg>
