<?xml version="1.0" encoding="UTF-8" standalone="no"?>
<!DOCTYPE svg PUBLIC "-//W3C//DTD SVG 1.1//EN"
 "http://www.w3.org/Graphics/SVG/1.1/DTD/svg11.dtd">
<!-- Generated by graphviz version 2.43.0 (0)
 -->
<!-- Title: _local_setup_util_ps1.process_dsv_file Pages: 1 -->
<svg width="702pt" height="206pt"
 viewBox="0.00 0.00 702.00 206.00" xmlns="http://www.w3.org/2000/svg" xmlns:xlink="http://www.w3.org/1999/xlink">
<g id="graph0" class="graph" transform="scale(1 1) rotate(0) translate(4 202)">
<title>_local_setup_util_ps1.process_dsv_file</title>
<!-- Node1 -->
<g id="Node000001" class="node">
<title>Node1</title>
<g id="a_Node000001"><a xlink:title=" ">
<polygon fill="#999999" stroke="#666666" points="161,-180 0,-180 0,-150 161,-150 161,-180"/>
<text text-anchor="start" x="8" y="-168" font-family="Helvetica,sans-Serif" font-size="10.00">_local_setup_util_ps1.process</text>
<text text-anchor="middle" x="80.5" y="-157" font-family="Helvetica,sans-Serif" font-size="10.00">_dsv_file</text>
</a>
</g>
</g>
<!-- Node1&#45;&gt;Node1 -->
<g id="edge10_Node000001_Node000001" class="edge">
<title>Node1&#45;&gt;Node1</title>
<g id="a_edge10_Node000001_Node000001"><a xlink:title=" ">
<path fill="none" stroke="#63b8ff" d="M46.4,-180.28C38.82,-189.41 50.19,-198 80.5,-198 98.5,-198 109.82,-194.97 114.46,-190.6"/>
<polygon fill="#63b8ff" stroke="#63b8ff" points="117.96,-190.32 114.6,-180.28 110.96,-190.23 117.96,-190.32"/>
</a>
</g>
</g>
<!-- Node2 -->
<g id="Node000002" class="node">
<title>Node2</title>
<g id="a_Node000002"><a xlink:href="namespace__local__setup__util__ps1.html#a931442d27ac8d688ce2b7de389605445" target="_top" xlink:title=" ">
<polygon fill="white" stroke="#666666" points="694,-185 570,-185 570,-155 694,-155 694,-185"/>
<text text-anchor="start" x="578" y="-173" font-family="Helvetica,sans-Serif" font-size="10.00">_local_setup_util_ps1.</text>
<text text-anchor="middle" x="632" y="-162" font-family="Helvetica,sans-Serif" font-size="10.00">_include_comments</text>
</a>
</g>
</g>
<!-- Node1&#45;&gt;Node2 -->
<g id="edge1_Node000001_Node000002" class="edge">
<title>Node1&#45;&gt;Node2</title>
<g id="a_edge1_Node000001_Node000002"><a xlink:title=" ">
<path fill="none" stroke="#63b8ff" d="M161.39,-177.48C251.96,-189.79 403.92,-204.92 534,-191 542.93,-190.04 552.25,-188.61 561.43,-186.92"/>
<polygon fill="#63b8ff" stroke="#63b8ff" points="562.15,-190.35 571.3,-185.01 560.82,-183.48 562.15,-190.35"/>
</a>
</g>
</g>
<!-- Node3 -->
<g id="Node000003" class="node">
<title>Node3</title>
<g id="a_Node000003"><a xlink:href="namespace__local__setup__util__ps1.html#a5d732013bde9374e3d925a40f7357e52" target="_top" xlink:title=" ">
<polygon fill="white" stroke="#666666" points="354,-140 197,-140 197,-110 354,-110 354,-140"/>
<text text-anchor="start" x="205" y="-128" font-family="Helvetica,sans-Serif" font-size="10.00">_local_setup_util_ps1.handle</text>
<text text-anchor="middle" x="275.5" y="-117" font-family="Helvetica,sans-Serif" font-size="10.00">_dsv_types_except_source</text>
</a>
</g>
</g>
<!-- Node1&#45;&gt;Node3 -->
<g id="edge2_Node000001_Node000003" class="edge">
<title>Node1&#45;&gt;Node3</title>
<g id="a_edge2_Node000001_Node000003"><a xlink:title=" ">
<path fill="none" stroke="#63b8ff" d="M153.92,-149.99C166.32,-147.42 179.3,-144.73 191.94,-142.11"/>
<polygon fill="#63b8ff" stroke="#63b8ff" points="192.92,-145.48 202,-140.03 191.5,-138.63 192.92,-145.48"/>
</a>
</g>
</g>
<!-- Node3&#45;&gt;Node2 -->
<g id="edge5_Node000003_Node000002" class="edge">
<title>Node3&#45;&gt;Node2</title>
<g id="a_edge5_Node000003_Node000002"><a xlink:title=" ">
<path fill="none" stroke="#63b8ff" d="M303.49,-140.06C325.88,-151.65 358.97,-166.71 390,-173 446.28,-184.41 511.48,-182.73 559.86,-178.71"/>
<polygon fill="#63b8ff" stroke="#63b8ff" points="560.27,-182.18 569.92,-177.82 559.65,-175.21 560.27,-182.18"/>
</a>
</g>
</g>
<!-- Node4 -->
<g id="Node000004" class="node">
<title>Node4</title>
<g id="a_Node000004"><a xlink:href="namespace__local__setup__util__ps1.html#a2ee6e72b520395f48af99942816c8be3" target="_top" xlink:title=" ">
<polygon fill="white" stroke="#666666" points="526,-164 398,-164 398,-134 526,-134 526,-164"/>
<text text-anchor="start" x="406" y="-152" font-family="Helvetica,sans-Serif" font-size="10.00">_local_setup_util_ps1.</text>
<text text-anchor="middle" x="462" y="-141" font-family="Helvetica,sans-Serif" font-size="10.00">_append_unique_value</text>
</a>
</g>
</g>
<!-- Node3&#45;&gt;Node4 -->
<g id="edge3_Node000003_Node000004" class="edge">
<title>Node3&#45;&gt;Node4</title>
<g id="a_edge3_Node000003_Node000004"><a xlink:title=" ">
<path fill="none" stroke="#63b8ff" d="M354.21,-135.11C365.37,-136.56 376.82,-138.05 387.89,-139.49"/>
<polygon fill="#63b8ff" stroke="#63b8ff" points="387.55,-142.98 397.92,-140.79 388.46,-136.03 387.55,-142.98"/>
</a>
</g>
</g>
<!-- Node5 -->
<g id="Node000005" class="node">
<title>Node5</title>
<g id="a_Node000005"><a xlink:href="namespace__local__setup__util__ps1.html#ad001aca4b88e81f10abe679d0b9fe8a7" target="_top" xlink:title=" ">
<polygon fill="white" stroke="#666666" points="528,-116 396,-116 396,-86 528,-86 528,-116"/>
<text text-anchor="start" x="404" y="-104" font-family="Helvetica,sans-Serif" font-size="10.00">_local_setup_util_ps1.</text>
<text text-anchor="middle" x="462" y="-93" font-family="Helvetica,sans-Serif" font-size="10.00">_prepend_unique_value</text>
</a>
</g>
</g>
<!-- Node3&#45;&gt;Node5 -->
<g id="edge6_Node000003_Node000005" class="edge">
<title>Node3&#45;&gt;Node5</title>
<g id="a_edge6_Node000003_Node000005"><a xlink:title=" ">
<path fill="none" stroke="#63b8ff" d="M354.21,-114.89C364.73,-113.52 375.51,-112.12 385.99,-110.76"/>
<polygon fill="#63b8ff" stroke="#63b8ff" points="386.45,-114.23 395.92,-109.47 385.55,-107.29 386.45,-114.23"/>
</a>
</g>
</g>
<!-- Node6 -->
<g id="Node000006" class="node">
<title>Node6</title>
<g id="a_Node000006"><a xlink:href="namespace__local__setup__util__ps1.html#a552fefcfac3bb17e032adc2c5c9900c8" target="_top" xlink:title=" ">
<polygon fill="white" stroke="#666666" points="534,-67.5 390,-67.5 390,-48.5 534,-48.5 534,-67.5"/>
<text text-anchor="middle" x="462" y="-55.5" font-family="Helvetica,sans-Serif" font-size="10.00">_local_setup_util_ps1._set</text>
</a>
</g>
</g>
<!-- Node3&#45;&gt;Node6 -->
<g id="edge8_Node000003_Node000006" class="edge">
<title>Node3&#45;&gt;Node6</title>
<g id="a_edge8_Node000003_Node000006"><a xlink:title=" ">
<path fill="none" stroke="#63b8ff" d="M308.81,-109.92C331.28,-99.79 362.08,-86.59 390,-77 396.89,-74.64 404.23,-72.38 411.49,-70.3"/>
<polygon fill="#63b8ff" stroke="#63b8ff" points="412.57,-73.64 421.27,-67.59 410.7,-66.89 412.57,-73.64"/>
</a>
</g>
</g>
<!-- Node7 -->
<g id="Node000007" class="node">
<title>Node7</title>
<g id="a_Node000007"><a xlink:href="namespace__local__setup__util__ps1.html#ac946c1c910cad7edf9a8525aa8c596b4" target="_top" xlink:title=" ">
<polygon fill="white" stroke="#666666" points="524,-30 400,-30 400,0 524,0 524,-30"/>
<text text-anchor="start" x="408" y="-18" font-family="Helvetica,sans-Serif" font-size="10.00">_local_setup_util_ps1.</text>
<text text-anchor="middle" x="462" y="-7" font-family="Helvetica,sans-Serif" font-size="10.00">_set_if_unset</text>
</a>
</g>
</g>
<!-- Node3&#45;&gt;Node7 -->
<g id="edge9_Node000003_Node000007" class="edge">
<title>Node3&#45;&gt;Node7</title>
<g id="a_edge9_Node000003_Node000007"><a xlink:title=" ">
<path fill="none" stroke="#63b8ff" d="M293.08,-110C314.26,-91.46 352.65,-59.95 390,-40 394,-37.86 398.22,-35.85 402.52,-33.96"/>
<polygon fill="#63b8ff" stroke="#63b8ff" points="404.13,-37.08 412.03,-30.03 401.46,-30.61 404.13,-37.08"/>
</a>
</g>
</g>
<!-- Node4&#45;&gt;Node2 -->
<g id="edge4_Node000004_Node000002" class="edge">
<title>Node4&#45;&gt;Node2</title>
<g id="a_edge4_Node000004_Node000002"><a xlink:title=" ">
<path fill="none" stroke="#63b8ff" d="M526.03,-156.88C537.01,-158.25 548.5,-159.69 559.68,-161.09"/>
<polygon fill="#63b8ff" stroke="#63b8ff" points="559.48,-164.59 569.84,-162.36 560.35,-157.64 559.48,-164.59"/>
</a>
</g>
</g>
<!-- Node5&#45;&gt;Node2 -->
<g id="edge7_Node000005_Node000002" class="edge">
<title>Node5&#45;&gt;Node2</title>
<g id="a_edge7_Node000005_Node000002"><a xlink:title=" ">
<path fill="none" stroke="#63b8ff" d="M509.86,-116.04C517.96,-118.86 526.27,-121.91 534,-125 553.2,-132.67 574.05,-142.19 591.49,-150.49"/>
<polygon fill="#63b8ff" stroke="#63b8ff" points="590.26,-153.78 600.79,-154.95 593.29,-147.47 590.26,-153.78"/>
</a>
</g>
</g>
</g>
</svg>
