<?xml version="1.0" encoding="UTF-8" standalone="no"?>
<!DOCTYPE svg PUBLIC "-//W3C//DTD SVG 1.1//EN"
 "http://www.w3.org/Graphics/SVG/1.1/DTD/svg11.dtd">
<!-- Generated by graphviz version 2.43.0 (0)
 -->
<!-- Title: _local_setup_util_ps1._include_comments Pages: 1 -->
<svg width="1051pt" height="190pt"
 viewBox="0.00 0.00 1051.00 190.00" xmlns="http://www.w3.org/2000/svg" xmlns:xlink="http://www.w3.org/1999/xlink">
<g id="graph0" class="graph" transform="scale(1 1) rotate(0) translate(4 186)">
<title>_local_setup_util_ps1._include_comments</title>
<!-- Node1 -->
<g id="Node000001" class="node">
<title>Node1</title>
<g id="a_Node000001"><a xlink:title=" ">
<polygon fill="#999999" stroke="#666666" points="1043,-96 919,-96 919,-66 1043,-66 1043,-96"/>
<text text-anchor="start" x="927" y="-84" font-family="Helvetica,sans-Serif" font-size="10.00">_local_setup_util_ps1.</text>
<text text-anchor="middle" x="981" y="-73" font-family="Helvetica,sans-Serif" font-size="10.00">_include_comments</text>
</a>
</g>
</g>
<!-- Node2 -->
<g id="Node000002" class="node">
<title>Node2</title>
<g id="a_Node000002"><a xlink:href="namespace__local__setup__util__ps1.html#a2ee6e72b520395f48af99942816c8be3" target="_top" xlink:title=" ">
<polygon fill="white" stroke="#666666" points="881,-182 753,-182 753,-152 881,-152 881,-182"/>
<text text-anchor="start" x="761" y="-170" font-family="Helvetica,sans-Serif" font-size="10.00">_local_setup_util_ps1.</text>
<text text-anchor="middle" x="817" y="-159" font-family="Helvetica,sans-Serif" font-size="10.00">_append_unique_value</text>
</a>
</g>
</g>
<!-- Node1&#45;&gt;Node2 -->
<g id="edge1_Node000001_Node000002" class="edge">
<title>Node1&#45;&gt;Node2</title>
<g id="a_edge1_Node000001_Node000002"><a xlink:title=" ">
<path fill="none" stroke="#63b8ff" d="M947.44,-101.36C928.85,-112.68 904.94,-126.7 883,-138 873.66,-142.81 863.36,-147.62 853.76,-151.9"/>
<polygon fill="#63b8ff" stroke="#63b8ff" points="949.41,-104.26 956.1,-96.05 945.75,-98.29 949.41,-104.26"/>
</a>
</g>
</g>
<!-- Node3 -->
<g id="Node000003" class="node">
<title>Node3</title>
<g id="a_Node000003"><a xlink:href="namespace__local__setup__util__ps1.html#a5d732013bde9374e3d925a40f7357e52" target="_top" xlink:title=" ">
<polygon fill="white" stroke="#666666" points="715,-117 558,-117 558,-87 715,-87 715,-117"/>
<text text-anchor="start" x="566" y="-105" font-family="Helvetica,sans-Serif" font-size="10.00">_local_setup_util_ps1.handle</text>
<text text-anchor="middle" x="636.5" y="-94" font-family="Helvetica,sans-Serif" font-size="10.00">_dsv_types_except_source</text>
</a>
</g>
</g>
<!-- Node1&#45;&gt;Node3 -->
<g id="edge9_Node000001_Node000003" class="edge">
<title>Node1&#45;&gt;Node3</title>
<g id="a_edge9_Node000001_Node000003"><a xlink:title=" ">
<path fill="none" stroke="#63b8ff" d="M919.23,-98.42C907.32,-101.16 894.84,-103.56 883,-105 827.15,-111.81 763.62,-110.8 715.19,-108.22"/>
<polygon fill="#63b8ff" stroke="#63b8ff" points="920.18,-101.79 929.08,-96.06 918.54,-94.99 920.18,-101.79"/>
</a>
</g>
</g>
<!-- Node4 -->
<g id="Node000004" class="node">
<title>Node4</title>
<g id="a_Node000004"><a xlink:href="namespace__local__setup__util__ps1.html#a8cfac08d60472704d804e681d045a35f" target="_top" xlink:title=" ">
<polygon fill="white" stroke="#666666" points="522,-58 361,-58 361,-28 522,-28 522,-58"/>
<text text-anchor="start" x="369" y="-46" font-family="Helvetica,sans-Serif" font-size="10.00">_local_setup_util_ps1.process</text>
<text text-anchor="middle" x="441.5" y="-35" font-family="Helvetica,sans-Serif" font-size="10.00">_dsv_file</text>
</a>
</g>
</g>
<!-- Node1&#45;&gt;Node4 -->
<g id="edge11_Node000001_Node000004" class="edge">
<title>Node1&#45;&gt;Node4</title>
<g id="a_edge11_Node000001_Node000004"><a xlink:title=" ">
<path fill="none" stroke="#63b8ff" d="M917.83,-63.57C906.33,-60.93 894.36,-58.57 883,-57 757.75,-39.71 610.65,-38.91 522.1,-40.51"/>
<polygon fill="#63b8ff" stroke="#63b8ff" points="917.25,-67.02 927.79,-65.94 918.87,-60.22 917.25,-67.02"/>
</a>
</g>
</g>
<!-- Node6 -->
<g id="Node000006" class="node">
<title>Node6</title>
<g id="a_Node000006"><a xlink:href="namespace__local__setup__util__ps1.html#a8bf70df8be3bb3ab4f099d874dbf4958" target="_top" xlink:title=" ">
<polygon fill="white" stroke="#666666" points="149,-30.5 0,-30.5 0,-11.5 149,-11.5 149,-30.5"/>
<text text-anchor="middle" x="74.5" y="-18.5" font-family="Helvetica,sans-Serif" font-size="10.00">_local_setup_util_ps1.main</text>
</a>
</g>
</g>
<!-- Node1&#45;&gt;Node6 -->
<g id="edge10_Node000001_Node000006" class="edge">
<title>Node1&#45;&gt;Node6</title>
<g id="a_edge10_Node000001_Node000006"><a xlink:title=" ">
<path fill="none" stroke="#63b8ff" d="M940.44,-61.75C923.15,-54.01 902.42,-45.6 883,-40 776.78,-9.37 748.05,0 637.5,0 637.5,0 637.5,0 440.5,0 339.42,0 222.85,-8.13 149.18,-14.27"/>
<polygon fill="#63b8ff" stroke="#63b8ff" points="939.11,-64.99 949.66,-65.97 942.02,-58.63 939.11,-64.99"/>
</a>
</g>
</g>
<!-- Node7 -->
<g id="Node000007" class="node">
<title>Node7</title>
<g id="a_Node000007"><a xlink:href="namespace__local__setup__util__ps1.html#ad001aca4b88e81f10abe679d0b9fe8a7" target="_top" xlink:title=" ">
<polygon fill="white" stroke="#666666" points="883,-96 751,-96 751,-66 883,-66 883,-96"/>
<text text-anchor="start" x="759" y="-84" font-family="Helvetica,sans-Serif" font-size="10.00">_local_setup_util_ps1.</text>
<text text-anchor="middle" x="817" y="-73" font-family="Helvetica,sans-Serif" font-size="10.00">_prepend_unique_value</text>
</a>
</g>
</g>
<!-- Node1&#45;&gt;Node7 -->
<g id="edge7_Node000001_Node000007" class="edge">
<title>Node1&#45;&gt;Node7</title>
<g id="a_edge7_Node000001_Node000007"><a xlink:title=" ">
<path fill="none" stroke="#63b8ff" d="M908.53,-81C900.08,-81 891.48,-81 883.11,-81"/>
<polygon fill="#63b8ff" stroke="#63b8ff" points="908.75,-84.5 918.75,-81 908.75,-77.5 908.75,-84.5"/>
</a>
</g>
</g>
<!-- Node2&#45;&gt;Node3 -->
<g id="edge2_Node000002_Node000003" class="edge">
<title>Node2&#45;&gt;Node3</title>
<g id="a_edge2_Node000002_Node000003"><a xlink:title=" ">
<path fill="none" stroke="#63b8ff" d="M764.86,-148.38C737.64,-138.46 704.59,-126.43 678.98,-117.11"/>
<polygon fill="#63b8ff" stroke="#63b8ff" points="764.01,-151.79 774.6,-151.92 766.4,-145.21 764.01,-151.79"/>
</a>
</g>
</g>
<!-- Node3&#45;&gt;Node4 -->
<g id="edge3_Node000003_Node000004" class="edge">
<title>Node3&#45;&gt;Node4</title>
<g id="a_edge3_Node000003_Node000004"><a xlink:title=" ">
<path fill="none" stroke="#63b8ff" d="M576.52,-83.97C549.34,-75.66 517.46,-65.91 491.61,-58.01"/>
<polygon fill="#63b8ff" stroke="#63b8ff" points="575.71,-87.38 586.3,-86.96 577.76,-80.69 575.71,-87.38"/>
</a>
</g>
</g>
<!-- Node4&#45;&gt;Node4 -->
<g id="edge6_Node000004_Node000004" class="edge">
<title>Node4&#45;&gt;Node4</title>
<g id="a_edge6_Node000004_Node000004"><a xlink:title=" ">
<path fill="none" stroke="#63b8ff" d="M474.06,-68.6C469.61,-72.97 458.76,-76 441.5,-76 412.44,-76 401.54,-67.41 408.8,-58.28"/>
<polygon fill="#63b8ff" stroke="#63b8ff" points="477.56,-68.32 474.2,-58.28 470.56,-68.23 477.56,-68.32"/>
</a>
</g>
</g>
<!-- Node5 -->
<g id="Node000005" class="node">
<title>Node5</title>
<g id="a_Node000005"><a xlink:href="namespace__local__setup__util__ps1.html#a11218be58a598ea8472a878f88e15609" target="_top" xlink:title=" ">
<polygon fill="white" stroke="#666666" points="325,-58 185,-58 185,-28 325,-28 325,-58"/>
<text text-anchor="start" x="193" y="-46" font-family="Helvetica,sans-Serif" font-size="10.00">_local_setup_util_ps1.get</text>
<text text-anchor="middle" x="255" y="-35" font-family="Helvetica,sans-Serif" font-size="10.00">_commands</text>
</a>
</g>
</g>
<!-- Node4&#45;&gt;Node5 -->
<g id="edge4_Node000004_Node000005" class="edge">
<title>Node4&#45;&gt;Node5</title>
<g id="a_edge4_Node000004_Node000005"><a xlink:title=" ">
<path fill="none" stroke="#63b8ff" d="M350.83,-43C342.21,-43 333.55,-43 325.17,-43"/>
<polygon fill="#63b8ff" stroke="#63b8ff" points="350.92,-46.5 360.92,-43 350.92,-39.5 350.92,-46.5"/>
</a>
</g>
</g>
<!-- Node5&#45;&gt;Node6 -->
<g id="edge5_Node000005_Node000006" class="edge">
<title>Node5&#45;&gt;Node6</title>
<g id="a_edge5_Node000005_Node000006"><a xlink:title=" ">
<path fill="none" stroke="#63b8ff" d="M174.96,-33.26C166.34,-32.2 157.6,-31.12 149.06,-30.07"/>
<polygon fill="#63b8ff" stroke="#63b8ff" points="174.63,-36.74 184.99,-34.49 175.49,-29.8 174.63,-36.74"/>
</a>
</g>
</g>
<!-- Node7&#45;&gt;Node3 -->
<g id="edge8_Node000007_Node000003" class="edge">
<title>Node7&#45;&gt;Node3</title>
<g id="a_edge8_Node000007_Node000003"><a xlink:title=" ">
<path fill="none" stroke="#63b8ff" d="M740.66,-89.86C732.26,-90.85 723.69,-91.86 715.26,-92.85"/>
<polygon fill="#63b8ff" stroke="#63b8ff" points="741.28,-93.32 750.8,-88.67 740.46,-86.36 741.28,-93.32"/>
</a>
</g>
</g>
</g>
</svg>
