<?xml version="1.0" encoding="UTF-8" standalone="no"?>
<!DOCTYPE svg PUBLIC "-//W3C//DTD SVG 1.1//EN"
 "http://www.w3.org/Graphics/SVG/1.1/DTD/svg11.dtd">
<!-- Generated by graphviz version 2.43.0 (0)
 -->
<!-- Title: _local_setup_util_ps1.main Pages: 1 -->
<!--zoomable 282 -->

<svg id="main" version="1.1" xmlns="http://www.w3.org/2000/svg" xmlns:xlink="http://www.w3.org/1999/xlink" xml:space="preserve" onload="init(evt)">
<style type="text/css"><![CDATA[
.node, .edge {opacity: 0.7;}
.node.selected, .edge.selected {opacity: 1;}
.edge:hover path { stroke: red; }
.edge:hover polygon { stroke: red; fill: red; }
]]></style>

<defs>
  <circle id="rim" cx="0" cy="0" r="7"/>
  <circle id="rim2" cx="0" cy="0" r="3.5"/>
  <g id="zoomPlus">
    <use xlink:href="#rim" fill="#404040"><set attributeName="fill" to="#808080" begin="zoomplus.mouseover" end="zoomplus.mouseout"/></use>
    <path d="M-4,0h8M0,-4v8" fill="none" stroke="white" stroke-width="1.5" pointer-events="none"/>
  </g>
  <g id="zoomMin">
    <use xlink:href="#rim" fill="#404040"><set attributeName="fill" to="#808080" begin="zoomminus.mouseover" end="zoomminus.mouseout"/></use>
    <path d="M-4,0h8" fill="none" stroke="white" stroke-width="1.5" pointer-events="none"/>
  </g>
  <g id="arrowUp" transform="translate(30 24)">
    <use xlink:href="#rim"/>
    <path pointer-events="none" fill="none" stroke="white" stroke-width="1.5" d="M0,-3.0v7 M-2.5,-0.5L0,-3.0L2.5,-0.5"/>
  </g>
  <g id="arrowRight" transform="rotate(90) translate(36 -43)">
    <use xlink:href="#rim"/>
    <path pointer-events="none" fill="none" stroke="white" stroke-width="1.5" d="M0,-3.0v7 M-2.5,-0.5L0,-3.0L2.5,-0.5"/>
  </g>
  <g id="arrowDown" transform="rotate(180) translate(-30 -48)">
    <use xlink:href="#rim"/>
    <path pointer-events="none" fill="none" stroke="white" stroke-width="1.5" d="M0,-3.0v7 M-2.5,-0.5L0,-3.0L2.5,-0.5"/>
  </g>
  <g id="arrowLeft" transform="rotate(270) translate(-36 17)">
    <use xlink:href="#rim"/>
    <path pointer-events="none" fill="none" stroke="white" stroke-width="1.5" d="M0,-3.0v7 M-2.5,-0.5L0,-3.0L2.5,-0.5"/>
  </g>
  <g id="resetDef">
    <use xlink:href="#rim2" fill="#404040"><set attributeName="fill" to="#808080" begin="reset.mouseover" end="reset.mouseout"/></use>
  </g>
</defs>
<script type="application/ecmascript">
var viewWidth = 1096;
var viewHeight = 282;
var sectionId = 'dynsection-15';
</script>
<script type="application/ecmascript" xlink:href="svg.min.js"/>
<svg id="graph" class="graph">
<g id="viewport">
<title>_local_setup_util_ps1.main</title>
<!-- Node1 -->
<g id="Node000001" class="node">
<title>Node1</title>
<g id="a_Node000001"><a xlink:title=" ">
<polygon fill="#999999" stroke="#666666" points="149,-186.5 0,-186.5 0,-167.5 149,-167.5 149,-186.5"/>
<text text-anchor="middle" x="74.5" y="-174.5" font-family="Helvetica,sans-Serif" font-size="10.00">_local_setup_util_ps1.main</text>
</a>
</g>
</g>
<!-- Node2 -->
<g id="Node000002" class="node">
<title>Node2</title>
<g id="a_Node000002"><a xlink:href="namespace__local__setup__util__ps1.html#a931442d27ac8d688ce2b7de389605445" target="_top" xlink:title=" ">
<polygon fill="white" stroke="#666666" points="1088,-207 964,-207 964,-177 1088,-177 1088,-207"/>
<text text-anchor="start" x="972" y="-195" font-family="Helvetica,sans-Serif" font-size="10.00">_local_setup_util_ps1.</text>
<text text-anchor="middle" x="1026" y="-184" font-family="Helvetica,sans-Serif" font-size="10.00">_include_comments</text>
</a>
</g>
</g>
<!-- Node1&#45;&gt;Node2 -->
<g id="edge1_Node000001_Node000002" class="edge">
<title>Node1&#45;&gt;Node2</title>
<g id="a_edge1_Node000001_Node000002"><a xlink:title=" ">
<path fill="none" stroke="#63b8ff" d="M85.99,-186.65C104.41,-202.92 144.46,-235.35 185,-249 303,-288.73 339.99,-268 464.5,-268 464.5,-268 464.5,-268 670.5,-268 780.29,-268 905.04,-232.72 973.39,-210.23"/>
<polygon fill="#63b8ff" stroke="#63b8ff" points="974.68,-213.5 983.06,-207.02 972.47,-206.85 974.68,-213.5"/>
</a>
</g>
</g>
<!-- Node3 -->
<g id="Node000003" class="node">
<title>Node3</title>
<g id="a_Node000003"><a xlink:href="namespace__local__setup__util__ps1.html#ae2234c850a28939348768d5714e4406e" target="_top" xlink:title=" ">
<polygon fill="white" stroke="#666666" points="340,-240 185,-240 185,-210 340,-210 340,-240"/>
<text text-anchor="start" x="193" y="-228" font-family="Helvetica,sans-Serif" font-size="10.00">_local_setup_util_ps1.</text>
<text text-anchor="middle" x="262.5" y="-217" font-family="Helvetica,sans-Serif" font-size="10.00">_remove_ending_separators</text>
</a>
</g>
</g>
<!-- Node1&#45;&gt;Node3 -->
<g id="edge2_Node000001_Node000003" class="edge">
<title>Node1&#45;&gt;Node3</title>
<g id="a_edge2_Node000001_Node000003"><a xlink:title=" ">
<path fill="none" stroke="#63b8ff" d="M112.69,-186.6C135.73,-192.54 166.02,-200.36 193.25,-207.39"/>
<polygon fill="#63b8ff" stroke="#63b8ff" points="192.57,-210.83 203.13,-209.94 194.32,-204.05 192.57,-210.83"/>
</a>
</g>
</g>
<!-- Node4 -->
<g id="Node000004" class="node">
<title>Node4</title>
<g id="a_Node000004"><a xlink:href="namespace__local__setup__util__ps1.html#a11218be58a598ea8472a878f88e15609" target="_top" xlink:title=" ">
<polygon fill="white" stroke="#666666" points="332.5,-192 192.5,-192 192.5,-162 332.5,-162 332.5,-192"/>
<text text-anchor="start" x="200.5" y="-180" font-family="Helvetica,sans-Serif" font-size="10.00">_local_setup_util_ps1.get</text>
<text text-anchor="middle" x="262.5" y="-169" font-family="Helvetica,sans-Serif" font-size="10.00">_commands</text>
</a>
</g>
</g>
<!-- Node1&#45;&gt;Node4 -->
<g id="edge3_Node000001_Node000004" class="edge">
<title>Node1&#45;&gt;Node4</title>
<g id="a_edge3_Node000001_Node000004"><a xlink:title=" ">
<path fill="none" stroke="#63b8ff" d="M149.01,-177C159.97,-177 171.31,-177 182.39,-177"/>
<polygon fill="#63b8ff" stroke="#63b8ff" points="182.46,-180.5 192.46,-177 182.46,-173.5 182.46,-180.5"/>
</a>
</g>
</g>
<!-- Node11 -->
<g id="Node000011" class="node">
<title>Node11</title>
<g id="a_Node000011"><a xlink:href="namespace__local__setup__util__ps1.html#af4566f9d8a9625549cdd313766c26a2c" target="_top" xlink:title=" ">
<polygon fill="white" stroke="#666666" points="332.5,-144 192.5,-144 192.5,-114 332.5,-114 332.5,-144"/>
<text text-anchor="start" x="200.5" y="-132" font-family="Helvetica,sans-Serif" font-size="10.00">_local_setup_util_ps1.get</text>
<text text-anchor="middle" x="262.5" y="-121" font-family="Helvetica,sans-Serif" font-size="10.00">_packages</text>
</a>
</g>
</g>
<!-- Node1&#45;&gt;Node11 -->
<g id="edge15_Node000001_Node000011" class="edge">
<title>Node1&#45;&gt;Node11</title>
<g id="a_edge15_Node000001_Node000011"><a xlink:title=" ">
<path fill="none" stroke="#63b8ff" d="M112.69,-167.4C135.73,-161.46 166.02,-153.64 193.25,-146.61"/>
<polygon fill="#63b8ff" stroke="#63b8ff" points="194.32,-149.95 203.13,-144.06 192.57,-143.17 194.32,-149.95"/>
</a>
</g>
</g>
<!-- Node13 -->
<g id="Node000013" class="node">
<title>Node13</title>
<g id="a_Node000013"><a xlink:href="namespace__local__setup__util__ps1.html#a26191bb84775784d32faf60010454dda" target="_top" xlink:title=" ">
<polygon fill="white" stroke="#666666" points="337,-96 188,-96 188,-66 337,-66 337,-96"/>
<text text-anchor="start" x="196" y="-84" font-family="Helvetica,sans-Serif" font-size="10.00">_local_setup_util_ps1.order</text>
<text text-anchor="middle" x="262.5" y="-73" font-family="Helvetica,sans-Serif" font-size="10.00">_packages</text>
</a>
</g>
</g>
<!-- Node1&#45;&gt;Node13 -->
<g id="edge17_Node000001_Node000013" class="edge">
<title>Node1&#45;&gt;Node13</title>
<g id="a_edge17_Node000001_Node000013"><a xlink:title=" ">
<path fill="none" stroke="#63b8ff" d="M87.64,-167.37C107.16,-152.29 147.17,-122.94 185,-105 189,-103.1 193.18,-101.31 197.45,-99.62"/>
<polygon fill="#63b8ff" stroke="#63b8ff" points="198.73,-102.87 206.87,-96.09 196.28,-96.32 198.73,-102.87"/>
</a>
</g>
</g>
<!-- Node5 -->
<g id="Node000005" class="node">
<title>Node5</title>
<g id="a_Node000005"><a xlink:href="namespace__local__setup__util__ps1.html#a8cfac08d60472704d804e681d045a35f" target="_top" xlink:title=" ">
<polygon fill="white" stroke="#666666" points="546,-192 385,-192 385,-162 546,-162 546,-192"/>
<text text-anchor="start" x="393" y="-180" font-family="Helvetica,sans-Serif" font-size="10.00">_local_setup_util_ps1.process</text>
<text text-anchor="middle" x="465.5" y="-169" font-family="Helvetica,sans-Serif" font-size="10.00">_dsv_file</text>
</a>
</g>
</g>
<!-- Node4&#45;&gt;Node5 -->
<g id="edge4_Node000004_Node000005" class="edge">
<title>Node4&#45;&gt;Node5</title>
<g id="a_edge4_Node000004_Node000005"><a xlink:title=" ">
<path fill="none" stroke="#63b8ff" d="M332.67,-177C346.2,-177 360.56,-177 374.65,-177"/>
<polygon fill="#63b8ff" stroke="#63b8ff" points="374.83,-180.5 384.83,-177 374.83,-173.5 374.83,-180.5"/>
</a>
</g>
</g>
<!-- Node5&#45;&gt;Node2 -->
<g id="edge5_Node000005_Node000002" class="edge">
<title>Node5&#45;&gt;Node2</title>
<g id="a_edge5_Node000005_Node000002"><a xlink:title=" ">
<path fill="none" stroke="#63b8ff" d="M546.03,-183.08C610.22,-187.67 702.86,-193.57 784,-196 847.97,-197.91 864.01,-197.32 928,-196 936.36,-195.83 945.12,-195.57 953.81,-195.27"/>
<polygon fill="#63b8ff" stroke="#63b8ff" points="954.09,-198.76 963.95,-194.9 953.83,-191.77 954.09,-198.76"/>
</a>
</g>
</g>
<!-- Node5&#45;&gt;Node5 -->
<g id="edge14_Node000005_Node000005" class="edge">
<title>Node5&#45;&gt;Node5</title>
<g id="a_edge14_Node000005_Node000005"><a xlink:title=" ">
<path fill="none" stroke="#63b8ff" d="M429.99,-192.28C422.1,-201.41 433.94,-210 465.5,-210 484.24,-210 496.03,-206.97 500.86,-202.6"/>
<polygon fill="#63b8ff" stroke="#63b8ff" points="504.36,-202.33 501.01,-192.28 497.36,-202.22 504.36,-202.33"/>
</a>
</g>
</g>
<!-- Node6 -->
<g id="Node000006" class="node">
<title>Node6</title>
<g id="a_Node000006"><a xlink:href="namespace__local__setup__util__ps1.html#a5d732013bde9374e3d925a40f7357e52" target="_top" xlink:title=" ">
<polygon fill="white" stroke="#666666" points="748,-140 591,-140 591,-110 748,-110 748,-140"/>
<text text-anchor="start" x="599" y="-128" font-family="Helvetica,sans-Serif" font-size="10.00">_local_setup_util_ps1.handle</text>
<text text-anchor="middle" x="669.5" y="-117" font-family="Helvetica,sans-Serif" font-size="10.00">_dsv_types_except_source</text>
</a>
</g>
</g>
<!-- Node5&#45;&gt;Node6 -->
<g id="edge6_Node000005_Node000006" class="edge">
<title>Node5&#45;&gt;Node6</title>
<g id="a_edge6_Node000005_Node000006"><a xlink:title=" ">
<path fill="none" stroke="#63b8ff" d="M524.93,-161.96C548.48,-155.9 575.82,-148.86 600.28,-142.56"/>
<polygon fill="#63b8ff" stroke="#63b8ff" points="601.39,-145.89 610.2,-140.01 599.65,-139.11 601.39,-145.89"/>
</a>
</g>
</g>
<!-- Node6&#45;&gt;Node2 -->
<g id="edge9_Node000006_Node000002" class="edge">
<title>Node6&#45;&gt;Node2</title>
<g id="a_edge9_Node000006_Node000002"><a xlink:title=" ">
<path fill="none" stroke="#63b8ff" d="M699.01,-140.1C721.45,-151.22 753.86,-165.64 784,-173 840.05,-186.68 905.4,-191.15 953.9,-192.35"/>
<polygon fill="#63b8ff" stroke="#63b8ff" points="953.91,-195.85 963.98,-192.56 954.06,-188.85 953.91,-195.85"/>
</a>
</g>
</g>
<!-- Node7 -->
<g id="Node000007" class="node">
<title>Node7</title>
<g id="a_Node000007"><a xlink:href="namespace__local__setup__util__ps1.html#a2ee6e72b520395f48af99942816c8be3" target="_top" xlink:title=" ">
<polygon fill="white" stroke="#666666" points="920,-164 792,-164 792,-134 920,-134 920,-164"/>
<text text-anchor="start" x="800" y="-152" font-family="Helvetica,sans-Serif" font-size="10.00">_local_setup_util_ps1.</text>
<text text-anchor="middle" x="856" y="-141" font-family="Helvetica,sans-Serif" font-size="10.00">_append_unique_value</text>
</a>
</g>
</g>
<!-- Node6&#45;&gt;Node7 -->
<g id="edge7_Node000006_Node000007" class="edge">
<title>Node6&#45;&gt;Node7</title>
<g id="a_edge7_Node000006_Node000007"><a xlink:title=" ">
<path fill="none" stroke="#63b8ff" d="M748.21,-135.11C759.37,-136.56 770.82,-138.05 781.89,-139.49"/>
<polygon fill="#63b8ff" stroke="#63b8ff" points="781.55,-142.98 791.92,-140.79 782.46,-136.03 781.55,-142.98"/>
</a>
</g>
</g>
<!-- Node8 -->
<g id="Node000008" class="node">
<title>Node8</title>
<g id="a_Node000008"><a xlink:href="namespace__local__setup__util__ps1.html#ad001aca4b88e81f10abe679d0b9fe8a7" target="_top" xlink:title=" ">
<polygon fill="white" stroke="#666666" points="922,-116 790,-116 790,-86 922,-86 922,-116"/>
<text text-anchor="start" x="798" y="-104" font-family="Helvetica,sans-Serif" font-size="10.00">_local_setup_util_ps1.</text>
<text text-anchor="middle" x="856" y="-93" font-family="Helvetica,sans-Serif" font-size="10.00">_prepend_unique_value</text>
</a>
</g>
</g>
<!-- Node6&#45;&gt;Node8 -->
<g id="edge10_Node000006_Node000008" class="edge">
<title>Node6&#45;&gt;Node8</title>
<g id="a_edge10_Node000006_Node000008"><a xlink:title=" ">
<path fill="none" stroke="#63b8ff" d="M748.21,-114.89C758.73,-113.52 769.51,-112.12 779.99,-110.76"/>
<polygon fill="#63b8ff" stroke="#63b8ff" points="780.45,-114.23 789.92,-109.47 779.55,-107.29 780.45,-114.23"/>
</a>
</g>
</g>
<!-- Node9 -->
<g id="Node000009" class="node">
<title>Node9</title>
<g id="a_Node000009"><a xlink:href="namespace__local__setup__util__ps1.html#a552fefcfac3bb17e032adc2c5c9900c8" target="_top" xlink:title=" ">
<polygon fill="white" stroke="#666666" points="928,-67.5 784,-67.5 784,-48.5 928,-48.5 928,-67.5"/>
<text text-anchor="middle" x="856" y="-55.5" font-family="Helvetica,sans-Serif" font-size="10.00">_local_setup_util_ps1._set</text>
</a>
</g>
</g>
<!-- Node6&#45;&gt;Node9 -->
<g id="edge12_Node000006_Node000009" class="edge">
<title>Node6&#45;&gt;Node9</title>
<g id="a_edge12_Node000006_Node000009"><a xlink:title=" ">
<path fill="none" stroke="#63b8ff" d="M702.81,-109.92C725.28,-99.79 756.08,-86.59 784,-77 790.89,-74.64 798.23,-72.38 805.49,-70.3"/>
<polygon fill="#63b8ff" stroke="#63b8ff" points="806.57,-73.64 815.27,-67.59 804.7,-66.89 806.57,-73.64"/>
</a>
</g>
</g>
<!-- Node10 -->
<g id="Node000010" class="node">
<title>Node10</title>
<g id="a_Node000010"><a xlink:href="namespace__local__setup__util__ps1.html#ac946c1c910cad7edf9a8525aa8c596b4" target="_top" xlink:title=" ">
<polygon fill="white" stroke="#666666" points="918,-30 794,-30 794,0 918,0 918,-30"/>
<text text-anchor="start" x="802" y="-18" font-family="Helvetica,sans-Serif" font-size="10.00">_local_setup_util_ps1.</text>
<text text-anchor="middle" x="856" y="-7" font-family="Helvetica,sans-Serif" font-size="10.00">_set_if_unset</text>
</a>
</g>
</g>
<!-- Node6&#45;&gt;Node10 -->
<g id="edge13_Node000006_Node000010" class="edge">
<title>Node6&#45;&gt;Node10</title>
<g id="a_edge13_Node000006_Node000010"><a xlink:title=" ">
<path fill="none" stroke="#63b8ff" d="M687,-109.73C708.11,-90.89 746.42,-58.91 784,-39 787.3,-37.25 790.75,-35.6 794.28,-34.03"/>
<polygon fill="#63b8ff" stroke="#63b8ff" points="795.85,-37.17 803.74,-30.1 793.16,-30.7 795.85,-37.17"/>
</a>
</g>
</g>
<!-- Node7&#45;&gt;Node2 -->
<g id="edge8_Node000007_Node000002" class="edge">
<title>Node7&#45;&gt;Node2</title>
<g id="a_edge8_Node000007_Node000002"><a xlink:title=" ">
<path fill="none" stroke="#63b8ff" d="M915.76,-164.04C928.93,-167.41 943.02,-171.02 956.54,-174.48"/>
<polygon fill="#63b8ff" stroke="#63b8ff" points="955.72,-177.88 966.27,-176.97 957.46,-171.1 955.72,-177.88"/>
</a>
</g>
</g>
<!-- Node8&#45;&gt;Node2 -->
<g id="edge11_Node000008_Node000002" class="edge">
<title>Node8&#45;&gt;Node2</title>
<g id="a_edge11_Node000008_Node000002"><a xlink:title=" ">
<path fill="none" stroke="#63b8ff" d="M907.37,-116.07C914.43,-118.74 921.49,-121.73 928,-125 953.38,-137.74 979.74,-156.35 998.57,-170.73"/>
<polygon fill="#63b8ff" stroke="#63b8ff" points="996.61,-173.64 1006.66,-177 1000.9,-168.11 996.61,-173.64"/>
</a>
</g>
</g>
<!-- Node12 -->
<g id="Node000012" class="node">
<title>Node12</title>
<g id="a_Node000012"><a xlink:href="namespace__local__setup__util__ps1.html#a0140ccf5d4f6a5dc962c92b3fd752afe" target="_top" xlink:title=" ">
<polygon fill="white" stroke="#666666" points="555,-144 376,-144 376,-114 555,-114 555,-144"/>
<text text-anchor="start" x="384" y="-132" font-family="Helvetica,sans-Serif" font-size="10.00">_local_setup_util_ps1.add</text>
<text text-anchor="middle" x="465.5" y="-121" font-family="Helvetica,sans-Serif" font-size="10.00">_package_runtime_dependencies</text>
</a>
</g>
</g>
<!-- Node11&#45;&gt;Node12 -->
<g id="edge16_Node000011_Node000012" class="edge">
<title>Node11&#45;&gt;Node12</title>
<g id="a_edge16_Node000011_Node000012"><a xlink:title=" ">
<path fill="none" stroke="#63b8ff" d="M332.67,-129C343.28,-129 354.4,-129 365.5,-129"/>
<polygon fill="#63b8ff" stroke="#63b8ff" points="365.68,-132.5 375.68,-129 365.68,-125.5 365.68,-132.5"/>
</a>
</g>
</g>
<!-- Node14 -->
<g id="Node000014" class="node">
<title>Node14</title>
<g id="a_Node000014"><a xlink:href="namespace__local__setup__util__ps1.html#a6c5ad6f0354555b29c84359fea5ce7dc" target="_top" xlink:title=" ">
<polygon fill="white" stroke="#666666" points="544,-96 387,-96 387,-66 544,-66 544,-96"/>
<text text-anchor="start" x="395" y="-84" font-family="Helvetica,sans-Serif" font-size="10.00">_local_setup_util_ps1.reduce</text>
<text text-anchor="middle" x="465.5" y="-73" font-family="Helvetica,sans-Serif" font-size="10.00">_cycle_set</text>
</a>
</g>
</g>
<!-- Node13&#45;&gt;Node14 -->
<g id="edge18_Node000013_Node000014" class="edge">
<title>Node13&#45;&gt;Node14</title>
<g id="a_edge18_Node000013_Node000014"><a xlink:title=" ">
<path fill="none" stroke="#63b8ff" d="M337.2,-81C350.06,-81 363.55,-81 376.74,-81"/>
<polygon fill="#63b8ff" stroke="#63b8ff" points="376.75,-84.5 386.75,-81 376.75,-77.5 376.75,-84.5"/>
</a>
</g>
</g>
</g>
</svg>

<g id="navigator" transform="translate(0 0)" fill="#404254">
  <rect fill="#f2f5e9" fill-opacity="0.5" stroke="#606060" stroke-width=".5" x="0" y="0" width="60" height="60"/>
  <use id="zoomplus" xlink:href="#zoomPlus" x="17" y="9" onmousedown="handleZoom(evt,'in')"/>
  <use id="zoomminus" xlink:href="#zoomMin" x="42" y="9" onmousedown="handleZoom(evt,'out')"/>
  <use id="reset" xlink:href="#resetDef" x="30" y="36" onmousedown="handleReset()"/>
   <use id="arrowup" xlink:href="#arrowUp" x="0" y="0" onmousedown="handlePan(0,-1)"/>
  <use id="arrowright" xlink:href="#arrowRight" x="0" y="0" onmousedown="handlePan(1,0)"/>
  <use id="arrowdown" xlink:href="#arrowDown" x="0" y="0" onmousedown="handlePan(0,1)"/>
  <use id="arrowleft" xlink:href="#arrowLeft" x="0" y="0" onmousedown="handlePan(-1,0)"/>
</g>
<svg viewBox="0 0 15 15" width="100%" height="30px" preserveAspectRatio="xMaxYMin meet">
 <g id="arrow_out" transform="scale(0.3 0.3)">
  <a xlink:href="namespace__local__setup__util__ps1_a8bf70df8be3bb3ab4f099d874dbf4958_cgraph_org.svg" target="_base">
   <rect id="button" ry="5" rx="5" y="6" x="6" height="38" width="38"
        fill="#f2f5e9" fill-opacity="0.5" stroke="#606060" stroke-width="1.0"/>
   <path id="arrow"
     d="M 11.500037,31.436501 C 11.940474,20.09759 22.043105,11.32322 32.158766,21.979434 L 37.068811,17.246167 C 37.068811,17.246167 37.088388,32 37.088388,32 L 22.160133,31.978069 C 22.160133,31.978069 26.997745,27.140456 26.997745,27.140456 C 18.528582,18.264221 13.291696,25.230495 11.500037,31.436501 z"
     style="fill:#404040;"/>
  </a>
 </g>
</svg>

<style type='text/css'>
<![CDATA[
[data-mouse-over-selected='false'] { opacity: 0.7; }
[data-mouse-over-selected='true']  { opacity: 1.0; }
]]>
</style>
<script type="application/ecmascript"><![CDATA[
document.addEventListener('DOMContentLoaded', (event) => {
  highlightEdges();
  highlightAdjacentNodes();
});
]]></script>
</svg>
