<?xml version="1.0" encoding="UTF-8" standalone="no"?>
<!DOCTYPE svg PUBLIC "-//W3C//DTD SVG 1.1//EN"
 "http://www.w3.org/Graphics/SVG/1.1/DTD/svg11.dtd">
<!-- Generated by graphviz version 2.43.0 (0)
 -->
<!-- Title: pos_MPC::coder::mpcblock_optimizer Pages: 1 -->
<svg width="710pt" height="204pt"
 viewBox="0.00 0.00 710.00 204.00" xmlns="http://www.w3.org/2000/svg" xmlns:xlink="http://www.w3.org/1999/xlink">
<g id="graph0" class="graph" transform="scale(1 1) rotate(0) translate(4 200)">
<title>pos_MPC::coder::mpcblock_optimizer</title>
<!-- Node1 -->
<g id="Node000001" class="node">
<title>Node1</title>
<g id="a_Node000001"><a xlink:title=" ">
<polygon fill="#999999" stroke="#666666" points="147,-116 0,-116 0,-86 147,-86 147,-116"/>
<text text-anchor="start" x="8" y="-104" font-family="Helvetica,sans-Serif" font-size="10.00">pos_MPC::coder::mpcblock</text>
<text text-anchor="middle" x="73.5" y="-93" font-family="Helvetica,sans-Serif" font-size="10.00">_optimizer</text>
</a>
</g>
</g>
<!-- Node2 -->
<g id="Node000002" class="node">
<title>Node2</title>
<g id="a_Node000002"><a xlink:href="namespacepos__MPC_1_1coder_1_1internal.html#a47a5ebaa446e2a54cc916673de4d8d55" target="_top" xlink:title=" ">
<polygon fill="white" stroke="#666666" points="320,-196 183,-196 183,-166 320,-166 320,-196"/>
<text text-anchor="start" x="191" y="-184" font-family="Helvetica,sans-Serif" font-size="10.00">pos_MPC::coder::internal</text>
<text text-anchor="middle" x="251.5" y="-173" font-family="Helvetica,sans-Serif" font-size="10.00">::minimum</text>
</a>
</g>
</g>
<!-- Node1&#45;&gt;Node2 -->
<g id="edge1_Node000001_Node000002" class="edge">
<title>Node1&#45;&gt;Node2</title>
<g id="a_edge1_Node000001_Node000002"><a xlink:title=" ">
<path fill="none" stroke="#63b8ff" d="M101.21,-116.07C122.88,-127.98 154.41,-144.61 183,-157 187.16,-158.8 191.5,-160.58 195.88,-162.3"/>
<polygon fill="#63b8ff" stroke="#63b8ff" points="194.92,-165.67 205.51,-165.96 197.41,-159.13 194.92,-165.67"/>
</a>
</g>
</g>
<!-- Node3 -->
<g id="Node000003" class="node">
<title>Node3</title>
<g id="a_Node000003"><a xlink:href="namespacepos__MPC_1_1coder.html#aaae2248b840070902e3c18dc1a472eab" target="_top" xlink:title=" ">
<polygon fill="white" stroke="#666666" points="319,-147.5 184,-147.5 184,-128.5 319,-128.5 319,-147.5"/>
<text text-anchor="middle" x="251.5" y="-135.5" font-family="Helvetica,sans-Serif" font-size="10.00">pos_MPC::coder::qpkwik</text>
</a>
</g>
</g>
<!-- Node1&#45;&gt;Node3 -->
<g id="edge2_Node000001_Node000003" class="edge">
<title>Node1&#45;&gt;Node3</title>
<g id="a_edge2_Node000001_Node000003"><a xlink:title=" ">
<path fill="none" stroke="#63b8ff" d="M146.09,-116.05C162.48,-119.5 179.66,-123.11 195.25,-126.38"/>
<polygon fill="#63b8ff" stroke="#63b8ff" points="194.73,-129.85 205.23,-128.48 196.17,-123 194.73,-129.85"/>
</a>
</g>
</g>
<!-- Node12 -->
<g id="Node000012" class="node">
<title>Node12</title>
<g id="a_Node000012"><a xlink:href="namespacepos__MPC.html#a6a939f91a173ad685bad55e6f70f3046" target="_top" xlink:title=" ">
<polygon fill="white" stroke="#666666" points="314.5,-110.5 188.5,-110.5 188.5,-91.5 314.5,-91.5 314.5,-110.5"/>
<text text-anchor="middle" x="251.5" y="-98.5" font-family="Helvetica,sans-Serif" font-size="10.00">pos_MPC::rt_powd_snf</text>
</a>
</g>
</g>
<!-- Node1&#45;&gt;Node12 -->
<g id="edge11_Node000001_Node000012" class="edge">
<title>Node1&#45;&gt;Node12</title>
<g id="a_edge11_Node000001_Node000012"><a xlink:title=" ">
<path fill="none" stroke="#63b8ff" d="M147.1,-101C157.4,-101 167.99,-101 178.28,-101"/>
<polygon fill="#63b8ff" stroke="#63b8ff" points="178.45,-104.5 188.45,-101 178.45,-97.5 178.45,-104.5"/>
</a>
</g>
</g>
<!-- Node13 -->
<g id="Node000013" class="node">
<title>Node13</title>
<g id="a_Node000013"><a xlink:href="namespacepos__MPC_1_1coder_1_1internal.html#a468a43db34a801eab0c02e719a7a4a99" target="_top" xlink:title=" ">
<polygon fill="white" stroke="#666666" points="320,-73 183,-73 183,-43 320,-43 320,-73"/>
<text text-anchor="start" x="191" y="-61" font-family="Helvetica,sans-Serif" font-size="10.00">pos_MPC::coder::internal</text>
<text text-anchor="middle" x="251.5" y="-50" font-family="Helvetica,sans-Serif" font-size="10.00">::trisolve</text>
</a>
</g>
</g>
<!-- Node1&#45;&gt;Node13 -->
<g id="edge12_Node000001_Node000013" class="edge">
<title>Node1&#45;&gt;Node13</title>
<g id="a_edge12_Node000001_Node000013"><a xlink:title=" ">
<path fill="none" stroke="#63b8ff" d="M136.06,-85.96C149.99,-82.56 164.9,-78.91 179.2,-75.42"/>
<polygon fill="#63b8ff" stroke="#63b8ff" points="180.09,-78.8 188.98,-73.03 178.43,-72 180.09,-78.8"/>
</a>
</g>
</g>
<!-- Node14 -->
<g id="Node000014" class="node">
<title>Node14</title>
<g id="a_Node000014"><a xlink:href="namespacepos__MPC_1_1coder_1_1internal_1_1lapack.html#a3379db57facf655c9276e0efeccc2870" target="_top" xlink:title=" ">
<polygon fill="white" stroke="#666666" points="511,-30 374,-30 374,0 511,0 511,-30"/>
<text text-anchor="start" x="382" y="-18" font-family="Helvetica,sans-Serif" font-size="10.00">pos_MPC::coder::internal</text>
<text text-anchor="middle" x="442.5" y="-7" font-family="Helvetica,sans-Serif" font-size="10.00">::lapack::xpotrf</text>
</a>
</g>
</g>
<!-- Node1&#45;&gt;Node14 -->
<g id="edge13_Node000001_Node000014" class="edge">
<title>Node1&#45;&gt;Node14</title>
<g id="a_edge13_Node000001_Node000014"><a xlink:title=" ">
<path fill="none" stroke="#63b8ff" d="M92.71,-85.89C113.22,-69.84 148.25,-45.26 183,-34 241.6,-15.02 311.43,-10.9 363.73,-11.18"/>
<polygon fill="#63b8ff" stroke="#63b8ff" points="363.92,-14.68 373.95,-11.29 363.99,-7.69 363.92,-14.68"/>
</a>
</g>
</g>
<!-- Node4 -->
<g id="Node000004" class="node">
<title>Node4</title>
<g id="a_Node000004"><a xlink:href="namespacepos__MPC_1_1coder.html#ae2a2d8c1528681afb62fcdff789e1f95" target="_top" xlink:title=" ">
<polygon fill="white" stroke="#666666" points="511,-191.5 374,-191.5 374,-172.5 511,-172.5 511,-191.5"/>
<text text-anchor="middle" x="442.5" y="-179.5" font-family="Helvetica,sans-Serif" font-size="10.00">pos_MPC::coder::b_norm</text>
</a>
</g>
</g>
<!-- Node3&#45;&gt;Node4 -->
<g id="edge3_Node000003_Node000004" class="edge">
<title>Node3&#45;&gt;Node4</title>
<g id="a_edge3_Node000003_Node000004"><a xlink:title=" ">
<path fill="none" stroke="#63b8ff" d="M289.3,-147.61C309.03,-152.67 333.8,-158.88 356,-164 365.21,-166.13 375.01,-168.28 384.56,-170.33"/>
<polygon fill="#63b8ff" stroke="#63b8ff" points="383.88,-173.77 394.39,-172.42 385.34,-166.92 383.88,-173.77"/>
</a>
</g>
</g>
<!-- Node5 -->
<g id="Node000005" class="node">
<title>Node5</title>
<g id="a_Node000005"><a xlink:href="namespacepos__MPC_1_1coder.html#afecf8bf12a066d8d3cf76f2b91cb8f59" target="_top" xlink:title=" ">
<polygon fill="white" stroke="#666666" points="529,-154.5 356,-154.5 356,-135.5 529,-135.5 529,-154.5"/>
<text text-anchor="middle" x="442.5" y="-142.5" font-family="Helvetica,sans-Serif" font-size="10.00">pos_MPC::coder::DropConstraint</text>
</a>
</g>
</g>
<!-- Node3&#45;&gt;Node5 -->
<g id="edge4_Node000003_Node000005" class="edge">
<title>Node3&#45;&gt;Node5</title>
<g id="a_edge4_Node000003_Node000005"><a xlink:title=" ">
<path fill="none" stroke="#63b8ff" d="M319.13,-140.47C327.78,-140.79 336.77,-141.12 345.78,-141.45"/>
<polygon fill="#63b8ff" stroke="#63b8ff" points="345.81,-144.96 355.93,-141.83 346.07,-137.96 345.81,-144.96"/>
</a>
</g>
</g>
<!-- Node6 -->
<g id="Node000006" class="node">
<title>Node6</title>
<g id="a_Node000006"><a xlink:href="namespacepos__MPC_1_1coder.html#aad628de9ea3a1e8c8c5b3adfa8d87a55" target="_top" xlink:title=" ">
<polygon fill="white" stroke="#666666" points="519.5,-117.5 365.5,-117.5 365.5,-98.5 519.5,-98.5 519.5,-117.5"/>
<text text-anchor="middle" x="442.5" y="-105.5" font-family="Helvetica,sans-Serif" font-size="10.00">pos_MPC::coder::KWIKfactor</text>
</a>
</g>
</g>
<!-- Node3&#45;&gt;Node6 -->
<g id="edge5_Node000003_Node000006" class="edge">
<title>Node3&#45;&gt;Node6</title>
<g id="a_edge5_Node000003_Node000006"><a xlink:title=" ">
<path fill="none" stroke="#63b8ff" d="M312.56,-128.47C331.34,-125.49 352.22,-122.17 371.61,-119.09"/>
<polygon fill="#63b8ff" stroke="#63b8ff" points="372.27,-122.53 381.6,-117.51 371.17,-115.62 372.27,-122.53"/>
</a>
</g>
</g>
<!-- Node11 -->
<g id="Node000011" class="node">
<title>Node11</title>
<g id="a_Node000011"><a xlink:href="namespacepos__MPC_1_1coder_1_1internal.html#aee16aca65e5c056291ee323099733942" target="_top" xlink:title=" ">
<polygon fill="white" stroke="#666666" points="511,-80 374,-80 374,-50 511,-50 511,-80"/>
<text text-anchor="start" x="382" y="-68" font-family="Helvetica,sans-Serif" font-size="10.00">pos_MPC::coder::internal</text>
<text text-anchor="middle" x="442.5" y="-57" font-family="Helvetica,sans-Serif" font-size="10.00">::maximum</text>
</a>
</g>
</g>
<!-- Node3&#45;&gt;Node11 -->
<g id="edge10_Node000003_Node000011" class="edge">
<title>Node3&#45;&gt;Node11</title>
<g id="a_edge10_Node000003_Node000011"><a xlink:title=" ">
<path fill="none" stroke="#63b8ff" d="M298.89,-128.5C306.16,-126.2 313.43,-123.4 320,-120 338.5,-110.43 337.62,-99.79 356,-90 360.21,-87.75 364.66,-85.69 369.21,-83.79"/>
<polygon fill="#63b8ff" stroke="#63b8ff" points="370.61,-87 378.67,-80.12 368.08,-80.47 370.61,-87"/>
</a>
</g>
</g>
<!-- Node7 -->
<g id="Node000007" class="node">
<title>Node7</title>
<g id="a_Node000007"><a xlink:href="namespacepos__MPC.html#a1b161cbb191ab2d22a30569c19e00085" target="_top" xlink:title=" ">
<polygon fill="white" stroke="#666666" points="697.5,-30 569.5,-30 569.5,0 697.5,0 697.5,-30"/>
<text text-anchor="start" x="577.5" y="-18" font-family="Helvetica,sans-Serif" font-size="10.00">pos_MPC::div_nde_s32</text>
<text text-anchor="middle" x="633.5" y="-7" font-family="Helvetica,sans-Serif" font-size="10.00">_floor</text>
</a>
</g>
</g>
<!-- Node6&#45;&gt;Node7 -->
<g id="edge6_Node000006_Node000007" class="edge">
<title>Node6&#45;&gt;Node7</title>
<g id="a_edge6_Node000006_Node000007"><a xlink:title=" ">
<path fill="none" stroke="#63b8ff" d="M509.92,-98.39C516.66,-95.93 523.16,-92.85 529,-89 551.86,-73.93 543.11,-55.44 565,-39 566.86,-37.6 568.81,-36.28 570.82,-35.04"/>
<polygon fill="#63b8ff" stroke="#63b8ff" points="572.9,-37.89 579.99,-30.02 569.54,-31.75 572.9,-37.89"/>
</a>
</g>
</g>
<!-- Node8 -->
<g id="Node000008" class="node">
<title>Node8</title>
<g id="a_Node000008"><a xlink:href="namespacepos__MPC.html#a7d8176f1e03b79f5f3818ac29a97c128" target="_top" xlink:title=" ">
<polygon fill="white" stroke="#666666" points="700.5,-163.5 566.5,-163.5 566.5,-144.5 700.5,-144.5 700.5,-163.5"/>
<text text-anchor="middle" x="633.5" y="-151.5" font-family="Helvetica,sans-Serif" font-size="10.00">pos_MPC::rt_hypotd_snf</text>
</a>
</g>
</g>
<!-- Node6&#45;&gt;Node8 -->
<g id="edge7_Node000006_Node000008" class="edge">
<title>Node6&#45;&gt;Node8</title>
<g id="a_edge7_Node000006_Node000008"><a xlink:title=" ">
<path fill="none" stroke="#63b8ff" d="M487.95,-117.55C501.18,-120.49 515.7,-123.79 529,-127 548.19,-131.63 569.29,-137.08 587.41,-141.85"/>
<polygon fill="#63b8ff" stroke="#63b8ff" points="586.57,-145.25 597.13,-144.43 588.36,-138.49 586.57,-145.25"/>
</a>
</g>
</g>
<!-- Node9 -->
<g id="Node000009" class="node">
<title>Node9</title>
<g id="a_Node000009"><a xlink:href="namespacepos__MPC_1_1coder_1_1internal_1_1blas.html#ab5adb25bbe5c80c19b41d76110a4668d" target="_top" xlink:title=" ">
<polygon fill="white" stroke="#666666" points="702,-126 565,-126 565,-96 702,-96 702,-126"/>
<text text-anchor="start" x="573" y="-114" font-family="Helvetica,sans-Serif" font-size="10.00">pos_MPC::coder::internal</text>
<text text-anchor="middle" x="633.5" y="-103" font-family="Helvetica,sans-Serif" font-size="10.00">::blas::xgerc</text>
</a>
</g>
</g>
<!-- Node6&#45;&gt;Node9 -->
<g id="edge8_Node000006_Node000009" class="edge">
<title>Node6&#45;&gt;Node9</title>
<g id="a_edge8_Node000006_Node000009"><a xlink:title=" ">
<path fill="none" stroke="#63b8ff" d="M519.56,-109.21C531.14,-109.39 543.11,-109.58 554.73,-109.77"/>
<polygon fill="#63b8ff" stroke="#63b8ff" points="554.77,-113.27 564.83,-109.93 554.89,-106.27 554.77,-113.27"/>
</a>
</g>
</g>
<!-- Node10 -->
<g id="Node000010" class="node">
<title>Node10</title>
<g id="a_Node000010"><a xlink:href="namespacepos__MPC_1_1coder_1_1internal_1_1blas.html#a4bf7588767dcefa2cb9f1c102066202f" target="_top" xlink:title=" ">
<polygon fill="white" stroke="#666666" points="702,-78 565,-78 565,-48 702,-48 702,-78"/>
<text text-anchor="start" x="573" y="-66" font-family="Helvetica,sans-Serif" font-size="10.00">pos_MPC::coder::internal</text>
<text text-anchor="middle" x="633.5" y="-55" font-family="Helvetica,sans-Serif" font-size="10.00">::blas::xnrm2</text>
</a>
</g>
</g>
<!-- Node6&#45;&gt;Node10 -->
<g id="edge9_Node000006_Node000010" class="edge">
<title>Node6&#45;&gt;Node10</title>
<g id="a_edge9_Node000006_Node000010"><a xlink:title=" ">
<path fill="none" stroke="#63b8ff" d="M487.49,-98.47C500.84,-95.51 515.53,-92.19 529,-89 540.34,-86.32 552.35,-83.38 564.03,-80.48"/>
<polygon fill="#63b8ff" stroke="#63b8ff" points="564.87,-83.88 573.73,-78.06 563.18,-77.09 564.87,-83.88"/>
</a>
</g>
</g>
<!-- Node14&#45;&gt;Node7 -->
<g id="edge14_Node000014_Node000007" class="edge">
<title>Node14&#45;&gt;Node7</title>
<g id="a_edge14_Node000014_Node000007"><a xlink:title=" ">
<path fill="none" stroke="#63b8ff" d="M511.2,-15C526.75,-15 543.36,-15 559.14,-15"/>
<polygon fill="#63b8ff" stroke="#63b8ff" points="559.37,-18.5 569.37,-15 559.37,-11.5 559.37,-18.5"/>
</a>
</g>
</g>
</g>
</svg>
