<?xml version="1.0" encoding="UTF-8" standalone="no"?>
<!DOCTYPE svg PUBLIC "-//W3C//DTD SVG 1.1//EN"
 "http://www.w3.org/Graphics/SVG/1.1/DTD/svg11.dtd">
<!-- Generated by graphviz version 2.43.0 (0)
 -->
<!-- Title: iii_drone::types::poseMsgFromPose Pages: 1 -->
<svg width="1030pt" height="316pt"
 viewBox="0.00 0.00 1030.00 315.50" xmlns="http://www.w3.org/2000/svg" xmlns:xlink="http://www.w3.org/1999/xlink">
<g id="graph0" class="graph" transform="scale(1 1) rotate(0) translate(4 311.5)">
<title>iii_drone::types::poseMsgFromPose</title>
<!-- Node1 -->
<g id="Node000001" class="node">
<title>Node1</title>
<g id="a_Node000001"><a xlink:title=" ">
<polygon fill="#999999" stroke="#666666" points="1022,-159 881,-159 881,-129 1022,-129 1022,-159"/>
<text text-anchor="start" x="889" y="-147" font-family="Helvetica,sans-Serif" font-size="10.00">iii_drone::types::poseMsg</text>
<text text-anchor="middle" x="951.5" y="-136" font-family="Helvetica,sans-Serif" font-size="10.00">FromPose</text>
</a>
</g>
</g>
<!-- Node2 -->
<g id="Node000002" class="node">
<title>Node2</title>
<g id="a_Node000002"><a xlink:href="classiii__drone_1_1adapters_1_1SingleLineAdapter.html#a4706fbf203ef8a62bde3fd67246e4871" target="_top" xlink:title="Converts to SingleLine msg.">
<polygon fill="white" stroke="#666666" points="827.5,-242.5 716.5,-242.5 716.5,-201.5 827.5,-201.5 827.5,-242.5"/>
<text text-anchor="start" x="724.5" y="-230.5" font-family="Helvetica,sans-Serif" font-size="10.00">iii_drone::adapters</text>
<text text-anchor="start" x="724.5" y="-219.5" font-family="Helvetica,sans-Serif" font-size="10.00">::SingleLineAdapter</text>
<text text-anchor="middle" x="772" y="-208.5" font-family="Helvetica,sans-Serif" font-size="10.00">::ToMsg</text>
</a>
</g>
</g>
<!-- Node1&#45;&gt;Node2 -->
<g id="edge1_Node000001_Node000002" class="edge">
<title>Node1&#45;&gt;Node2</title>
<g id="a_edge1_Node000001_Node000002"><a xlink:title=" ">
<path fill="none" stroke="#63b8ff" d="M908.69,-163.4C889.37,-172.26 866.09,-182.81 845,-192 837.92,-195.08 830.43,-198.28 823.05,-201.39"/>
<polygon fill="#63b8ff" stroke="#63b8ff" points="910.21,-166.55 917.83,-159.19 907.28,-160.19 910.21,-166.55"/>
</a>
</g>
</g>
<!-- Node3 -->
<g id="Node000003" class="node">
<title>Node3</title>
<g id="a_Node000003"><a xlink:href="classiii__drone_1_1adapters_1_1StateAdapter.html#aa660f72a3e258818e71a888cfa6cd766" target="_top" xlink:title="Converts to msg.">
<polygon fill="white" stroke="#666666" points="833.5,-183 710.5,-183 710.5,-153 833.5,-153 833.5,-183"/>
<text text-anchor="start" x="718.5" y="-171" font-family="Helvetica,sans-Serif" font-size="10.00">iii_drone::adapters</text>
<text text-anchor="middle" x="772" y="-160" font-family="Helvetica,sans-Serif" font-size="10.00">::StateAdapter::ToMsg</text>
</a>
</g>
</g>
<!-- Node1&#45;&gt;Node3 -->
<g id="edge2_Node000001_Node000003" class="edge">
<title>Node1&#45;&gt;Node3</title>
<g id="a_edge2_Node000001_Node000003"><a xlink:title=" ">
<path fill="none" stroke="#63b8ff" d="M870.87,-154.77C858.33,-156.46 845.54,-158.19 833.52,-159.82"/>
<polygon fill="#63b8ff" stroke="#63b8ff" points="871.42,-158.22 880.86,-153.42 870.48,-151.29 871.42,-158.22"/>
</a>
</g>
</g>
<!-- Node8 -->
<g id="Node000008" class="node">
<title>Node8</title>
<g id="a_Node000008"><a xlink:href="classiii__drone_1_1adapters_1_1StateAdapter.html#af26b6d4bae9e9d9fc7fecc6a355d2aab" target="_top" xlink:title="Converts to Pose msg.">
<polygon fill="white" stroke="#666666" points="845,-135 699,-135 699,-105 845,-105 845,-135"/>
<text text-anchor="start" x="707" y="-123" font-family="Helvetica,sans-Serif" font-size="10.00">iii_drone::adapters</text>
<text text-anchor="middle" x="772" y="-112" font-family="Helvetica,sans-Serif" font-size="10.00">::StateAdapter::ToPoseMsg</text>
</a>
</g>
</g>
<!-- Node1&#45;&gt;Node8 -->
<g id="edge9_Node000001_Node000008" class="edge">
<title>Node1&#45;&gt;Node8</title>
<g id="a_edge9_Node000001_Node000008"><a xlink:title=" ">
<path fill="none" stroke="#63b8ff" d="M870.85,-133.23C862.26,-132.07 853.56,-130.89 845.07,-129.74"/>
<polygon fill="#63b8ff" stroke="#63b8ff" points="870.48,-136.71 880.86,-134.58 871.42,-129.78 870.48,-136.71"/>
</a>
</g>
</g>
<!-- Node12 -->
<g id="Node000012" class="node">
<title>Node12</title>
<g id="a_Node000012"><a xlink:href="classiii__drone_1_1perception_1_1PowerlineDirection.html#a2c93fe708f8c700a005e6dd6d8c08e53" target="_top" xlink:title="Converts to pose stamped message.">
<polygon fill="white" stroke="#666666" points="832,-84.5 712,-84.5 712,-43.5 832,-43.5 832,-84.5"/>
<text text-anchor="start" x="720" y="-72.5" font-family="Helvetica,sans-Serif" font-size="10.00">iii_drone::perception</text>
<text text-anchor="start" x="720" y="-61.5" font-family="Helvetica,sans-Serif" font-size="10.00">::PowerlineDirection</text>
<text text-anchor="middle" x="772" y="-50.5" font-family="Helvetica,sans-Serif" font-size="10.00">::ToPoseStampedMsg</text>
</a>
</g>
</g>
<!-- Node1&#45;&gt;Node12 -->
<g id="edge13_Node000001_Node000012" class="edge">
<title>Node1&#45;&gt;Node12</title>
<g id="a_edge13_Node000001_Node000012"><a xlink:title=" ">
<path fill="none" stroke="#63b8ff" d="M908.16,-124.63C888.9,-115.85 865.82,-105.36 845,-96 836.77,-92.3 827.99,-88.38 819.5,-84.6"/>
<polygon fill="#63b8ff" stroke="#63b8ff" points="906.72,-127.83 917.27,-128.79 909.63,-121.46 906.72,-127.83"/>
</a>
</g>
</g>
<!-- Node4 -->
<g id="Node000004" class="node">
<title>Node4</title>
<g id="a_Node000004"><a xlink:href="classiii__drone_1_1control_1_1TrajectoryGeneratorClient.html#a2b3ee03aed559d8c1ea8d052336d25ff" target="_top" xlink:title="Starts generating a trajectory.">
<polygon fill="white" stroke="#666666" points="663,-243.5 469,-243.5 469,-202.5 663,-202.5 663,-243.5"/>
<text text-anchor="start" x="477" y="-231.5" font-family="Helvetica,sans-Serif" font-size="10.00">iii_drone::control</text>
<text text-anchor="start" x="477" y="-220.5" font-family="Helvetica,sans-Serif" font-size="10.00">::TrajectoryGeneratorClient</text>
<text text-anchor="middle" x="566" y="-209.5" font-family="Helvetica,sans-Serif" font-size="10.00">::ComputeReferenceTrajectoryAsync</text>
</a>
</g>
</g>
<!-- Node3&#45;&gt;Node4 -->
<g id="edge3_Node000003_Node000004" class="edge">
<title>Node3&#45;&gt;Node4</title>
<g id="a_edge3_Node000003_Node000004"><a xlink:title=" ">
<path fill="none" stroke="#63b8ff" d="M705.42,-185.68C685.64,-191.01 663.75,-196.92 643.32,-202.42"/>
<polygon fill="#63b8ff" stroke="#63b8ff" points="706.51,-189.01 715.26,-183.03 704.69,-182.25 706.51,-189.01"/>
</a>
</g>
</g>
<!-- Node5 -->
<g id="Node000005" class="node">
<title>Node5</title>
<g id="a_Node000005"><a xlink:href="classiii__drone_1_1control_1_1maneuver_1_1FlyToObjectManeuverServer.html#a2ace3412e0d42d07a39c553c89ab0c6a" target="_top" xlink:title="Compute the reference.">
<polygon fill="white" stroke="#666666" points="187.5,-307.5 3.5,-307.5 3.5,-266.5 187.5,-266.5 187.5,-307.5"/>
<text text-anchor="start" x="11.5" y="-295.5" font-family="Helvetica,sans-Serif" font-size="10.00">iii_drone::control</text>
<text text-anchor="start" x="11.5" y="-284.5" font-family="Helvetica,sans-Serif" font-size="10.00">::maneuver::FlyToObjectManeuver</text>
<text text-anchor="middle" x="95.5" y="-273.5" font-family="Helvetica,sans-Serif" font-size="10.00">Server::computeReference</text>
</a>
</g>
</g>
<!-- Node4&#45;&gt;Node5 -->
<g id="edge4_Node000004_Node000005" class="edge">
<title>Node4&#45;&gt;Node5</title>
<g id="a_edge4_Node000004_Node000005"><a xlink:title=" ">
<path fill="none" stroke="#63b8ff" d="M517.31,-247.88C492.81,-259.35 462.06,-271.78 433,-278 351.28,-295.48 255.86,-296.24 187.54,-293.51"/>
<polygon fill="#63b8ff" stroke="#63b8ff" points="518.86,-251.02 526.37,-243.55 515.84,-244.7 518.86,-251.02"/>
</a>
</g>
</g>
<!-- Node6 -->
<g id="Node000006" class="node">
<title>Node6</title>
<g id="a_Node000006"><a xlink:href="classiii__drone_1_1control_1_1maneuver_1_1FlyToPositionManeuverServer.html#ac13004e478653d73361c3569e11870dc" target="_top" xlink:title="Compute the reference.">
<polygon fill="white" stroke="#666666" points="191,-229.5 0,-229.5 0,-188.5 191,-188.5 191,-229.5"/>
<text text-anchor="start" x="8" y="-217.5" font-family="Helvetica,sans-Serif" font-size="10.00">iii_drone::control</text>
<text text-anchor="start" x="8" y="-206.5" font-family="Helvetica,sans-Serif" font-size="10.00">::maneuver::FlyToPositionManeuver</text>
<text text-anchor="middle" x="95.5" y="-195.5" font-family="Helvetica,sans-Serif" font-size="10.00">Server::computeReference</text>
</a>
</g>
</g>
<!-- Node4&#45;&gt;Node6 -->
<g id="edge5_Node000004_Node000006" class="edge">
<title>Node4&#45;&gt;Node6</title>
<g id="a_edge5_Node000004_Node000006"><a xlink:title=" ">
<path fill="none" stroke="#63b8ff" d="M458.59,-219.77C449.93,-219.51 441.32,-219.25 433,-219 351.36,-216.55 258.57,-213.79 191.14,-211.8"/>
<polygon fill="#63b8ff" stroke="#63b8ff" points="458.65,-223.27 468.76,-220.08 458.87,-216.28 458.65,-223.27"/>
</a>
</g>
</g>
<!-- Node7 -->
<g id="Node000007" class="node">
<title>Node7</title>
<g id="a_Node000007"><a xlink:href="classiii__drone_1_1control_1_1TrajectoryGeneratorClient.html#a0e32180d729e74d24edeef891d1ac843" target="_top" xlink:title="Generates a trajectory and blocks until it is done.">
<polygon fill="white" stroke="#666666" points="433,-268.5 227,-268.5 227,-227.5 433,-227.5 433,-268.5"/>
<text text-anchor="start" x="235" y="-256.5" font-family="Helvetica,sans-Serif" font-size="10.00">iii_drone::control</text>
<text text-anchor="start" x="235" y="-245.5" font-family="Helvetica,sans-Serif" font-size="10.00">::TrajectoryGeneratorClient</text>
<text text-anchor="middle" x="330" y="-234.5" font-family="Helvetica,sans-Serif" font-size="10.00">::ComputeReferenceTrajectoryBlocking</text>
</a>
</g>
</g>
<!-- Node4&#45;&gt;Node7 -->
<g id="edge6_Node000004_Node000007" class="edge">
<title>Node4&#45;&gt;Node7</title>
<g id="a_edge6_Node000004_Node000007"><a xlink:title=" ">
<path fill="none" stroke="#63b8ff" d="M458.86,-234.34C450.35,-235.25 441.75,-236.17 433.27,-237.07"/>
<polygon fill="#63b8ff" stroke="#63b8ff" points="459.24,-237.82 468.81,-233.28 458.49,-230.86 459.24,-237.82"/>
</a>
</g>
</g>
<!-- Node7&#45;&gt;Node5 -->
<g id="edge7_Node000007_Node000005" class="edge">
<title>Node7&#45;&gt;Node5</title>
<g id="a_edge7_Node000007_Node000005"><a xlink:title=" ">
<path fill="none" stroke="#63b8ff" d="M216.57,-266.86C206.83,-268.49 197.06,-270.13 187.53,-271.73"/>
<polygon fill="#63b8ff" stroke="#63b8ff" points="217.4,-270.27 226.68,-265.16 216.24,-263.37 217.4,-270.27"/>
</a>
</g>
</g>
<!-- Node7&#45;&gt;Node6 -->
<g id="edge8_Node000007_Node000006" class="edge">
<title>Node7&#45;&gt;Node6</title>
<g id="a_edge8_Node000007_Node000006"><a xlink:title=" ">
<path fill="none" stroke="#63b8ff" d="M216.68,-229.16C208.13,-227.73 199.56,-226.29 191.14,-224.88"/>
<polygon fill="#63b8ff" stroke="#63b8ff" points="216.24,-232.63 226.68,-230.84 217.4,-225.73 216.24,-232.63"/>
</a>
</g>
</g>
<!-- Node9 -->
<g id="Node000009" class="node">
<title>Node9</title>
<g id="a_Node000009"><a xlink:href="classiii__drone_1_1adapters_1_1StateAdapter.html#a225c1ddecdaadf9d37241a52098b3e6b" target="_top" xlink:title="Converts to PoseStamped msg.">
<polygon fill="white" stroke="#666666" points="661,-135 471,-135 471,-105 661,-105 661,-135"/>
<text text-anchor="start" x="479" y="-123" font-family="Helvetica,sans-Serif" font-size="10.00">iii_drone::adapters</text>
<text text-anchor="middle" x="566" y="-112" font-family="Helvetica,sans-Serif" font-size="10.00">::StateAdapter::ToPoseStampedMsg</text>
</a>
</g>
</g>
<!-- Node8&#45;&gt;Node9 -->
<g id="edge10_Node000008_Node000009" class="edge">
<title>Node8&#45;&gt;Node9</title>
<g id="a_edge10_Node000008_Node000009"><a xlink:title=" ">
<path fill="none" stroke="#63b8ff" d="M688.7,-120C679.67,-120 670.43,-120 661.26,-120"/>
<polygon fill="#63b8ff" stroke="#63b8ff" points="688.79,-123.5 698.79,-120 688.79,-116.5 688.79,-123.5"/>
</a>
</g>
</g>
<!-- Node10 -->
<g id="Node000010" class="node">
<title>Node10</title>
<g id="a_Node000010"><a xlink:href="classiii__drone_1_1control_1_1maneuver_1_1FlyToObjectManeuverServer.html#a207c2c72ecfb7376ef44bd986e00ccce" target="_top" xlink:title="Publishes the feedback.">
<polygon fill="white" stroke="#666666" points="422,-170.5 238,-170.5 238,-129.5 422,-129.5 422,-170.5"/>
<text text-anchor="start" x="246" y="-158.5" font-family="Helvetica,sans-Serif" font-size="10.00">iii_drone::control</text>
<text text-anchor="start" x="246" y="-147.5" font-family="Helvetica,sans-Serif" font-size="10.00">::maneuver::FlyToObjectManeuver</text>
<text text-anchor="middle" x="330" y="-136.5" font-family="Helvetica,sans-Serif" font-size="10.00">Server::publishFeedback</text>
</a>
</g>
</g>
<!-- Node9&#45;&gt;Node10 -->
<g id="edge11_Node000009_Node000010" class="edge">
<title>Node9&#45;&gt;Node10</title>
<g id="a_edge11_Node000009_Node000010"><a xlink:title=" ">
<path fill="none" stroke="#63b8ff" d="M460.64,-133.38C447.86,-135.02 434.88,-136.68 422.31,-138.29"/>
<polygon fill="#63b8ff" stroke="#63b8ff" points="461.36,-136.82 470.83,-132.07 460.47,-129.87 461.36,-136.82"/>
</a>
</g>
</g>
<!-- Node11 -->
<g id="Node000011" class="node">
<title>Node11</title>
<g id="a_Node000011"><a xlink:href="classiii__drone_1_1control_1_1maneuver_1_1FlyToPositionManeuverServer.html#a5918df6e93a4e3b9c9a500bab1c17c6b" target="_top" xlink:title="Publishes the feedback.">
<polygon fill="white" stroke="#666666" points="425.5,-111.5 234.5,-111.5 234.5,-70.5 425.5,-70.5 425.5,-111.5"/>
<text text-anchor="start" x="242.5" y="-99.5" font-family="Helvetica,sans-Serif" font-size="10.00">iii_drone::control</text>
<text text-anchor="start" x="242.5" y="-88.5" font-family="Helvetica,sans-Serif" font-size="10.00">::maneuver::FlyToPositionManeuver</text>
<text text-anchor="middle" x="330" y="-77.5" font-family="Helvetica,sans-Serif" font-size="10.00">Server::publishFeedback</text>
</a>
</g>
</g>
<!-- Node9&#45;&gt;Node11 -->
<g id="edge12_Node000009_Node000011" class="edge">
<title>Node9&#45;&gt;Node11</title>
<g id="a_edge12_Node000009_Node000011"><a xlink:title=" ">
<path fill="none" stroke="#63b8ff" d="M460.67,-107.07C449.04,-105.63 437.24,-104.17 425.73,-102.74"/>
<polygon fill="#63b8ff" stroke="#63b8ff" points="460.48,-110.57 470.83,-108.33 461.34,-103.63 460.48,-110.57"/>
</a>
</g>
</g>
<!-- Node13 -->
<g id="Node000013" class="node">
<title>Node13</title>
<g id="a_Node000013"><a xlink:href="classiii__drone_1_1perception_1_1pl__dir__computer__node_1_1PowerlineDirectionComputerNode.html#a3945fa1d3c10fcb92f12e3a019a2fc63" target="_top" xlink:title="Publishes the estimated powerline direction.">
<polygon fill="white" stroke="#666666" points="660,-84 472,-84 472,-32 660,-32 660,-84"/>
<text text-anchor="start" x="480" y="-72" font-family="Helvetica,sans-Serif" font-size="10.00">iii_drone::perception</text>
<text text-anchor="start" x="480" y="-61" font-family="Helvetica,sans-Serif" font-size="10.00">::pl_dir_computer_node</text>
<text text-anchor="start" x="480" y="-50" font-family="Helvetica,sans-Serif" font-size="10.00">::PowerlineDirectionComputerNode</text>
<text text-anchor="middle" x="566" y="-39" font-family="Helvetica,sans-Serif" font-size="10.00">::publishPowerlineDirection</text>
</a>
</g>
</g>
<!-- Node12&#45;&gt;Node13 -->
<g id="edge14_Node000012_Node000013" class="edge">
<title>Node12&#45;&gt;Node13</title>
<g id="a_edge14_Node000012_Node000013"><a xlink:title=" ">
<path fill="none" stroke="#63b8ff" d="M701.9,-61.97C688.45,-61.57 674.15,-61.15 660.08,-60.74"/>
<polygon fill="#63b8ff" stroke="#63b8ff" points="701.9,-65.47 711.99,-62.26 702.1,-58.47 701.9,-65.47"/>
</a>
</g>
</g>
<!-- Node14 -->
<g id="Node000014" class="node">
<title>Node14</title>
<g id="a_Node000014"><a xlink:href="classiii__drone_1_1perception_1_1pl__dir__computer__node_1_1PowerlineDirectionComputerNode.html#ab34c86cec88426267f792caac6bbedee" target="_top" xlink:title="Callback function for the odometry timer.">
<polygon fill="white" stroke="#666666" points="424,-52 236,-52 236,0 424,0 424,-52"/>
<text text-anchor="start" x="244" y="-40" font-family="Helvetica,sans-Serif" font-size="10.00">iii_drone::perception</text>
<text text-anchor="start" x="244" y="-29" font-family="Helvetica,sans-Serif" font-size="10.00">::pl_dir_computer_node</text>
<text text-anchor="start" x="244" y="-18" font-family="Helvetica,sans-Serif" font-size="10.00">::PowerlineDirectionComputerNode</text>
<text text-anchor="middle" x="330" y="-7" font-family="Helvetica,sans-Serif" font-size="10.00">::odometryCallback</text>
</a>
</g>
</g>
<!-- Node13&#45;&gt;Node14 -->
<g id="edge15_Node000013_Node000014" class="edge">
<title>Node13&#45;&gt;Node14</title>
<g id="a_edge15_Node000013_Node000014"><a xlink:title=" ">
<path fill="none" stroke="#63b8ff" d="M461.86,-43.89C449.33,-42.18 436.59,-40.44 424.22,-38.75"/>
<polygon fill="#63b8ff" stroke="#63b8ff" points="461.46,-47.37 471.84,-45.26 462.41,-40.44 461.46,-47.37"/>
</a>
</g>
</g>
<!-- Node15 -->
<g id="Node000015" class="node">
<title>Node15</title>
<g id="a_Node000015"><a xlink:href="classiii__drone_1_1perception_1_1pl__dir__computer__node_1_1PowerlineDirectionComputerNode.html#a7d69d952785cf09e8cd381bd624480f2" target="_top" xlink:title="Construct a new Powerline Direction Computer Node object.">
<polygon fill="white" stroke="#666666" points="189.5,-52 1.5,-52 1.5,0 189.5,0 189.5,-52"/>
<text text-anchor="start" x="9.5" y="-40" font-family="Helvetica,sans-Serif" font-size="10.00">iii_drone::perception</text>
<text text-anchor="start" x="9.5" y="-29" font-family="Helvetica,sans-Serif" font-size="10.00">::pl_dir_computer_node</text>
<text text-anchor="start" x="9.5" y="-18" font-family="Helvetica,sans-Serif" font-size="10.00">::PowerlineDirectionComputerNode</text>
<text text-anchor="middle" x="95.5" y="-7" font-family="Helvetica,sans-Serif" font-size="10.00">::PowerlineDirectionComputerNode</text>
</a>
</g>
</g>
<!-- Node14&#45;&gt;Node15 -->
<g id="edge16_Node000014_Node000015" class="edge">
<title>Node14&#45;&gt;Node15</title>
<g id="a_edge16_Node000014_Node000015"><a xlink:title=" ">
<path fill="none" stroke="#63b8ff" d="M225.76,-26C213.77,-26 201.59,-26 189.75,-26"/>
<polygon fill="#63b8ff" stroke="#63b8ff" points="225.77,-29.5 235.77,-26 225.77,-22.5 225.77,-29.5"/>
</a>
</g>
</g>
</g>
</svg>
