<?xml version="1.0" encoding="UTF-8" standalone="no"?>
<!DOCTYPE svg PUBLIC "-//W3C//DTD SVG 1.1//EN"
 "http://www.w3.org/Graphics/SVG/1.1/DTD/svg11.dtd">
<!-- Generated by graphviz version 2.43.0 (0)
 -->
<!-- Title: _local_setup_util_ps1.get_commands Pages: 1 -->
<svg width="878pt" height="206pt"
 viewBox="0.00 0.00 878.00 206.00" xmlns="http://www.w3.org/2000/svg" xmlns:xlink="http://www.w3.org/1999/xlink">
<g id="graph0" class="graph" transform="scale(1 1) rotate(0) translate(4 202)">
<title>_local_setup_util_ps1.get_commands</title>
<!-- Node1 -->
<g id="Node000001" class="node">
<title>Node1</title>
<g id="a_Node000001"><a xlink:title=" ">
<polygon fill="#999999" stroke="#666666" points="140,-180 0,-180 0,-150 140,-150 140,-180"/>
<text text-anchor="start" x="8" y="-168" font-family="Helvetica,sans-Serif" font-size="10.00">_local_setup_util_ps1.get</text>
<text text-anchor="middle" x="70" y="-157" font-family="Helvetica,sans-Serif" font-size="10.00">_commands</text>
</a>
</g>
</g>
<!-- Node2 -->
<g id="Node000002" class="node">
<title>Node2</title>
<g id="a_Node000002"><a xlink:href="namespace__local__setup__util__ps1.html#a8cfac08d60472704d804e681d045a35f" target="_top" xlink:title=" ">
<polygon fill="white" stroke="#666666" points="337,-180 176,-180 176,-150 337,-150 337,-180"/>
<text text-anchor="start" x="184" y="-168" font-family="Helvetica,sans-Serif" font-size="10.00">_local_setup_util_ps1.process</text>
<text text-anchor="middle" x="256.5" y="-157" font-family="Helvetica,sans-Serif" font-size="10.00">_dsv_file</text>
</a>
</g>
</g>
<!-- Node1&#45;&gt;Node2 -->
<g id="edge1_Node000001_Node000002" class="edge">
<title>Node1&#45;&gt;Node2</title>
<g id="a_edge1_Node000001_Node000002"><a xlink:title=" ">
<path fill="none" stroke="#63b8ff" d="M140.23,-165C148.6,-165 157.25,-165 165.87,-165"/>
<polygon fill="#63b8ff" stroke="#63b8ff" points="165.96,-168.5 175.96,-165 165.96,-161.5 165.96,-168.5"/>
</a>
</g>
</g>
<!-- Node2&#45;&gt;Node2 -->
<g id="edge11_Node000002_Node000002" class="edge">
<title>Node2&#45;&gt;Node2</title>
<g id="a_edge11_Node000002_Node000002"><a xlink:title=" ">
<path fill="none" stroke="#63b8ff" d="M223.8,-180.28C216.54,-189.41 227.44,-198 256.5,-198 273.76,-198 284.61,-194.97 289.06,-190.6"/>
<polygon fill="#63b8ff" stroke="#63b8ff" points="292.56,-190.32 289.2,-180.28 285.56,-190.23 292.56,-190.32"/>
</a>
</g>
</g>
<!-- Node3 -->
<g id="Node000003" class="node">
<title>Node3</title>
<g id="a_Node000003"><a xlink:href="namespace__local__setup__util__ps1.html#a931442d27ac8d688ce2b7de389605445" target="_top" xlink:title=" ">
<polygon fill="white" stroke="#666666" points="870,-185 746,-185 746,-155 870,-155 870,-185"/>
<text text-anchor="start" x="754" y="-173" font-family="Helvetica,sans-Serif" font-size="10.00">_local_setup_util_ps1.</text>
<text text-anchor="middle" x="808" y="-162" font-family="Helvetica,sans-Serif" font-size="10.00">_include_comments</text>
</a>
</g>
</g>
<!-- Node2&#45;&gt;Node3 -->
<g id="edge2_Node000002_Node000003" class="edge">
<title>Node2&#45;&gt;Node3</title>
<g id="a_edge2_Node000002_Node000003"><a xlink:title=" ">
<path fill="none" stroke="#63b8ff" d="M337.39,-177.48C427.96,-189.79 579.92,-204.92 710,-191 718.93,-190.04 728.25,-188.61 737.43,-186.92"/>
<polygon fill="#63b8ff" stroke="#63b8ff" points="738.15,-190.35 747.3,-185.01 736.82,-183.48 738.15,-190.35"/>
</a>
</g>
</g>
<!-- Node4 -->
<g id="Node000004" class="node">
<title>Node4</title>
<g id="a_Node000004"><a xlink:href="namespace__local__setup__util__ps1.html#a5d732013bde9374e3d925a40f7357e52" target="_top" xlink:title=" ">
<polygon fill="white" stroke="#666666" points="530,-140 373,-140 373,-110 530,-110 530,-140"/>
<text text-anchor="start" x="381" y="-128" font-family="Helvetica,sans-Serif" font-size="10.00">_local_setup_util_ps1.handle</text>
<text text-anchor="middle" x="451.5" y="-117" font-family="Helvetica,sans-Serif" font-size="10.00">_dsv_types_except_source</text>
</a>
</g>
</g>
<!-- Node2&#45;&gt;Node4 -->
<g id="edge3_Node000002_Node000004" class="edge">
<title>Node2&#45;&gt;Node4</title>
<g id="a_edge3_Node000002_Node000004"><a xlink:title=" ">
<path fill="none" stroke="#63b8ff" d="M329.92,-149.99C342.32,-147.42 355.3,-144.73 367.94,-142.11"/>
<polygon fill="#63b8ff" stroke="#63b8ff" points="368.92,-145.48 378,-140.03 367.5,-138.63 368.92,-145.48"/>
</a>
</g>
</g>
<!-- Node4&#45;&gt;Node3 -->
<g id="edge6_Node000004_Node000003" class="edge">
<title>Node4&#45;&gt;Node3</title>
<g id="a_edge6_Node000004_Node000003"><a xlink:title=" ">
<path fill="none" stroke="#63b8ff" d="M479.49,-140.06C501.88,-151.65 534.97,-166.71 566,-173 622.28,-184.41 687.48,-182.73 735.86,-178.71"/>
<polygon fill="#63b8ff" stroke="#63b8ff" points="736.27,-182.18 745.92,-177.82 735.65,-175.21 736.27,-182.18"/>
</a>
</g>
</g>
<!-- Node5 -->
<g id="Node000005" class="node">
<title>Node5</title>
<g id="a_Node000005"><a xlink:href="namespace__local__setup__util__ps1.html#a2ee6e72b520395f48af99942816c8be3" target="_top" xlink:title=" ">
<polygon fill="white" stroke="#666666" points="702,-164 574,-164 574,-134 702,-134 702,-164"/>
<text text-anchor="start" x="582" y="-152" font-family="Helvetica,sans-Serif" font-size="10.00">_local_setup_util_ps1.</text>
<text text-anchor="middle" x="638" y="-141" font-family="Helvetica,sans-Serif" font-size="10.00">_append_unique_value</text>
</a>
</g>
</g>
<!-- Node4&#45;&gt;Node5 -->
<g id="edge4_Node000004_Node000005" class="edge">
<title>Node4&#45;&gt;Node5</title>
<g id="a_edge4_Node000004_Node000005"><a xlink:title=" ">
<path fill="none" stroke="#63b8ff" d="M530.21,-135.11C541.37,-136.56 552.82,-138.05 563.89,-139.49"/>
<polygon fill="#63b8ff" stroke="#63b8ff" points="563.55,-142.98 573.92,-140.79 564.46,-136.03 563.55,-142.98"/>
</a>
</g>
</g>
<!-- Node6 -->
<g id="Node000006" class="node">
<title>Node6</title>
<g id="a_Node000006"><a xlink:href="namespace__local__setup__util__ps1.html#ad001aca4b88e81f10abe679d0b9fe8a7" target="_top" xlink:title=" ">
<polygon fill="white" stroke="#666666" points="704,-116 572,-116 572,-86 704,-86 704,-116"/>
<text text-anchor="start" x="580" y="-104" font-family="Helvetica,sans-Serif" font-size="10.00">_local_setup_util_ps1.</text>
<text text-anchor="middle" x="638" y="-93" font-family="Helvetica,sans-Serif" font-size="10.00">_prepend_unique_value</text>
</a>
</g>
</g>
<!-- Node4&#45;&gt;Node6 -->
<g id="edge7_Node000004_Node000006" class="edge">
<title>Node4&#45;&gt;Node6</title>
<g id="a_edge7_Node000004_Node000006"><a xlink:title=" ">
<path fill="none" stroke="#63b8ff" d="M530.21,-114.89C540.73,-113.52 551.51,-112.12 561.99,-110.76"/>
<polygon fill="#63b8ff" stroke="#63b8ff" points="562.45,-114.23 571.92,-109.47 561.55,-107.29 562.45,-114.23"/>
</a>
</g>
</g>
<!-- Node7 -->
<g id="Node000007" class="node">
<title>Node7</title>
<g id="a_Node000007"><a xlink:href="namespace__local__setup__util__ps1.html#a552fefcfac3bb17e032adc2c5c9900c8" target="_top" xlink:title=" ">
<polygon fill="white" stroke="#666666" points="710,-67.5 566,-67.5 566,-48.5 710,-48.5 710,-67.5"/>
<text text-anchor="middle" x="638" y="-55.5" font-family="Helvetica,sans-Serif" font-size="10.00">_local_setup_util_ps1._set</text>
</a>
</g>
</g>
<!-- Node4&#45;&gt;Node7 -->
<g id="edge9_Node000004_Node000007" class="edge">
<title>Node4&#45;&gt;Node7</title>
<g id="a_edge9_Node000004_Node000007"><a xlink:title=" ">
<path fill="none" stroke="#63b8ff" d="M484.81,-109.92C507.28,-99.79 538.08,-86.59 566,-77 572.89,-74.64 580.23,-72.38 587.49,-70.3"/>
<polygon fill="#63b8ff" stroke="#63b8ff" points="588.57,-73.64 597.27,-67.59 586.7,-66.89 588.57,-73.64"/>
</a>
</g>
</g>
<!-- Node8 -->
<g id="Node000008" class="node">
<title>Node8</title>
<g id="a_Node000008"><a xlink:href="namespace__local__setup__util__ps1.html#ac946c1c910cad7edf9a8525aa8c596b4" target="_top" xlink:title=" ">
<polygon fill="white" stroke="#666666" points="700,-30 576,-30 576,0 700,0 700,-30"/>
<text text-anchor="start" x="584" y="-18" font-family="Helvetica,sans-Serif" font-size="10.00">_local_setup_util_ps1.</text>
<text text-anchor="middle" x="638" y="-7" font-family="Helvetica,sans-Serif" font-size="10.00">_set_if_unset</text>
</a>
</g>
</g>
<!-- Node4&#45;&gt;Node8 -->
<g id="edge10_Node000004_Node000008" class="edge">
<title>Node4&#45;&gt;Node8</title>
<g id="a_edge10_Node000004_Node000008"><a xlink:title=" ">
<path fill="none" stroke="#63b8ff" d="M469.08,-110C490.26,-91.46 528.65,-59.95 566,-40 570,-37.86 574.22,-35.85 578.52,-33.96"/>
<polygon fill="#63b8ff" stroke="#63b8ff" points="580.13,-37.08 588.03,-30.03 577.46,-30.61 580.13,-37.08"/>
</a>
</g>
</g>
<!-- Node5&#45;&gt;Node3 -->
<g id="edge5_Node000005_Node000003" class="edge">
<title>Node5&#45;&gt;Node3</title>
<g id="a_edge5_Node000005_Node000003"><a xlink:title=" ">
<path fill="none" stroke="#63b8ff" d="M702.03,-156.88C713.01,-158.25 724.5,-159.69 735.68,-161.09"/>
<polygon fill="#63b8ff" stroke="#63b8ff" points="735.48,-164.59 745.84,-162.36 736.35,-157.64 735.48,-164.59"/>
</a>
</g>
</g>
<!-- Node6&#45;&gt;Node3 -->
<g id="edge8_Node000006_Node000003" class="edge">
<title>Node6&#45;&gt;Node3</title>
<g id="a_edge8_Node000006_Node000003"><a xlink:title=" ">
<path fill="none" stroke="#63b8ff" d="M685.86,-116.04C693.96,-118.86 702.27,-121.91 710,-125 729.2,-132.67 750.05,-142.19 767.49,-150.49"/>
<polygon fill="#63b8ff" stroke="#63b8ff" points="766.26,-153.78 776.79,-154.95 769.29,-147.47 766.26,-153.78"/>
</a>
</g>
</g>
</g>
</svg>
