<?xml version="1.0" encoding="UTF-8" standalone="no"?>
<!DOCTYPE svg PUBLIC "-//W3C//DTD SVG 1.1//EN"
 "http://www.w3.org/Graphics/SVG/1.1/DTD/svg11.dtd">
<!-- Generated by graphviz version 2.43.0 (0)
 -->
<!-- Title: iii_drone::math::createTransformMatrix Pages: 1 -->
<svg width="546pt" height="64pt"
 viewBox="0.00 0.00 546.00 64.00" xmlns="http://www.w3.org/2000/svg" xmlns:xlink="http://www.w3.org/1999/xlink">
<g id="graph0" class="graph" transform="scale(1 1) rotate(0) translate(4 60)">
<title>iii_drone::math::createTransformMatrix</title>
<!-- Node1 -->
<g id="Node000001" class="node">
<title>Node1</title>
<g id="a_Node000001"><a xlink:title=" ">
<polygon fill="#999999" stroke="#666666" points="176,-42.5 0,-42.5 0,-12.5 176,-12.5 176,-42.5"/>
<text text-anchor="start" x="8" y="-30.5" font-family="Helvetica,sans-Serif" font-size="10.00">iii_drone::math::createTransform</text>
<text text-anchor="middle" x="88" y="-19.5" font-family="Helvetica,sans-Serif" font-size="10.00">Matrix</text>
</a>
</g>
</g>
<!-- Node2 -->
<g id="Node000002" class="node">
<title>Node2</title>
<g id="a_Node000002"><a xlink:href="namespaceiii__drone_1_1math.html#af8c96a0fa3940e1034c8db8425586ba8" target="_top" xlink:title=" ">
<polygon fill="white" stroke="#666666" points="359,-37 212,-37 212,-18 359,-18 359,-37"/>
<text text-anchor="middle" x="285.5" y="-25" font-family="Helvetica,sans-Serif" font-size="10.00">iii_drone::math::quatToMat</text>
</a>
</g>
</g>
<!-- Node1&#45;&gt;Node2 -->
<g id="edge1_Node000001_Node000002" class="edge">
<title>Node1&#45;&gt;Node2</title>
<g id="a_edge1_Node000001_Node000002"><a xlink:title=" ">
<path fill="none" stroke="#63b8ff" d="M176.17,-27.5C184.64,-27.5 193.22,-27.5 201.64,-27.5"/>
<polygon fill="#63b8ff" stroke="#63b8ff" points="201.83,-31 211.83,-27.5 201.83,-24 201.83,-31"/>
</a>
</g>
</g>
<!-- Node3 -->
<g id="Node000003" class="node">
<title>Node3</title>
<g id="a_Node000003"><a xlink:href="namespaceiii__drone_1_1math.html#a7f61d7905e9118b077f713da7e65e8df" target="_top" xlink:title=" ">
<polygon fill="white" stroke="#666666" points="536.5,-56 396.5,-56 396.5,-37 536.5,-37 536.5,-56"/>
<text text-anchor="middle" x="466.5" y="-44" font-family="Helvetica,sans-Serif" font-size="10.00">iii_drone::math::eulToMat</text>
</a>
</g>
</g>
<!-- Node2&#45;&gt;Node3 -->
<g id="edge2_Node000002_Node000003" class="edge">
<title>Node2&#45;&gt;Node3</title>
<g id="a_edge2_Node000002_Node000003"><a xlink:title=" ">
<path fill="none" stroke="#63b8ff" d="M359.05,-35.2C367.99,-36.15 377.17,-37.12 386.2,-38.08"/>
<polygon fill="#63b8ff" stroke="#63b8ff" points="386.01,-41.58 396.33,-39.16 386.75,-34.62 386.01,-41.58"/>
</a>
</g>
</g>
<!-- Node4 -->
<g id="Node000004" class="node">
<title>Node4</title>
<g id="a_Node000004"><a xlink:href="namespaceiii__drone_1_1math.html#a8e7d7e25d07b368363d6da9939a9abed" target="_top" xlink:title=" ">
<polygon fill="white" stroke="#666666" points="538,-19 395,-19 395,0 538,0 538,-19"/>
<text text-anchor="middle" x="466.5" y="-7" font-family="Helvetica,sans-Serif" font-size="10.00">iii_drone::math::quatToEul</text>
</a>
</g>
</g>
<!-- Node2&#45;&gt;Node4 -->
<g id="edge3_Node000002_Node000004" class="edge">
<title>Node2&#45;&gt;Node4</title>
<g id="a_edge3_Node000002_Node000004"><a xlink:title=" ">
<path fill="none" stroke="#63b8ff" d="M359.05,-20.2C367.55,-19.35 376.26,-18.47 384.85,-17.61"/>
<polygon fill="#63b8ff" stroke="#63b8ff" points="385.28,-21.08 394.88,-16.6 384.58,-14.12 385.28,-21.08"/>
</a>
</g>
</g>
</g>
</svg>
