<?xml version="1.0" encoding="UTF-8" standalone="no"?>
<!DOCTYPE svg PUBLIC "-//W3C//DTD SVG 1.1//EN"
 "http://www.w3.org/Graphics/SVG/1.1/DTD/svg11.dtd">
<!-- Generated by graphviz version 2.43.0 (0)
 -->
<!-- Title: pos_MPC::rt_hypotd_snf Pages: 1 -->
<!--zoomable 60 -->

<svg id="main" version="1.1" xmlns="http://www.w3.org/2000/svg" xmlns:xlink="http://www.w3.org/1999/xlink" xml:space="preserve" onload="init(evt)">
<style type="text/css"><![CDATA[
.node, .edge {opacity: 0.7;}
.node.selected, .edge.selected {opacity: 1;}
.edge:hover path { stroke: red; }
.edge:hover polygon { stroke: red; fill: red; }
]]></style>

<defs>
  <circle id="rim" cx="0" cy="0" r="7"/>
  <circle id="rim2" cx="0" cy="0" r="3.5"/>
  <g id="zoomPlus">
    <use xlink:href="#rim" fill="#404040"><set attributeName="fill" to="#808080" begin="zoomplus.mouseover" end="zoomplus.mouseout"/></use>
    <path d="M-4,0h8M0,-4v8" fill="none" stroke="white" stroke-width="1.5" pointer-events="none"/>
  </g>
  <g id="zoomMin">
    <use xlink:href="#rim" fill="#404040"><set attributeName="fill" to="#808080" begin="zoomminus.mouseover" end="zoomminus.mouseout"/></use>
    <path d="M-4,0h8" fill="none" stroke="white" stroke-width="1.5" pointer-events="none"/>
  </g>
  <g id="arrowUp" transform="translate(30 24)">
    <use xlink:href="#rim"/>
    <path pointer-events="none" fill="none" stroke="white" stroke-width="1.5" d="M0,-3.0v7 M-2.5,-0.5L0,-3.0L2.5,-0.5"/>
  </g>
  <g id="arrowRight" transform="rotate(90) translate(36 -43)">
    <use xlink:href="#rim"/>
    <path pointer-events="none" fill="none" stroke="white" stroke-width="1.5" d="M0,-3.0v7 M-2.5,-0.5L0,-3.0L2.5,-0.5"/>
  </g>
  <g id="arrowDown" transform="rotate(180) translate(-30 -48)">
    <use xlink:href="#rim"/>
    <path pointer-events="none" fill="none" stroke="white" stroke-width="1.5" d="M0,-3.0v7 M-2.5,-0.5L0,-3.0L2.5,-0.5"/>
  </g>
  <g id="arrowLeft" transform="rotate(270) translate(-36 17)">
    <use xlink:href="#rim"/>
    <path pointer-events="none" fill="none" stroke="white" stroke-width="1.5" d="M0,-3.0v7 M-2.5,-0.5L0,-3.0L2.5,-0.5"/>
  </g>
  <g id="resetDef">
    <use xlink:href="#rim2" fill="#404040"><set attributeName="fill" to="#808080" begin="reset.mouseover" end="reset.mouseout"/></use>
  </g>
</defs>
<script type="application/ecmascript">
var viewWidth = 1701;
var viewHeight = 60;
var sectionId = 'dynsection-1';
</script>
<script type="application/ecmascript" xlink:href="svg.min.js"/>
<svg id="graph" class="graph">
<g id="viewport">
<title>pos_MPC::rt_hypotd_snf</title>
<!-- Node1 -->
<g id="Node000001" class="node">
<title>Node1</title>
<g id="a_Node000001"><a xlink:title=" ">
<polygon fill="#999999" stroke="#666666" points="1693,-35.5 1559,-35.5 1559,-16.5 1693,-16.5 1693,-35.5"/>
<text text-anchor="middle" x="1626" y="-23.5" font-family="Helvetica,sans-Serif" font-size="10.00">pos_MPC::rt_hypotd_snf</text>
</a>
</g>
</g>
<!-- Node2 -->
<g id="Node000002" class="node">
<title>Node2</title>
<g id="a_Node000002"><a xlink:href="namespacepos__MPC_1_1coder.html#aad628de9ea3a1e8c8c5b3adfa8d87a55" target="_top" xlink:title=" ">
<polygon fill="white" stroke="#666666" points="1523,-35.5 1369,-35.5 1369,-16.5 1523,-16.5 1523,-35.5"/>
<text text-anchor="middle" x="1446" y="-23.5" font-family="Helvetica,sans-Serif" font-size="10.00">pos_MPC::coder::KWIKfactor</text>
</a>
</g>
</g>
<!-- Node1&#45;&gt;Node2 -->
<g id="edge1_Node000001_Node000002" class="edge">
<title>Node1&#45;&gt;Node2</title>
<g id="a_edge1_Node000001_Node000002"><a xlink:title=" ">
<path fill="none" stroke="#63b8ff" d="M1548.73,-26C1540.25,-26 1531.61,-26 1523.13,-26"/>
<polygon fill="#63b8ff" stroke="#63b8ff" points="1548.97,-29.5 1558.97,-26 1548.97,-22.5 1548.97,-29.5"/>
</a>
</g>
</g>
<!-- Node3 -->
<g id="Node000003" class="node">
<title>Node3</title>
<g id="a_Node000003"><a xlink:href="namespacepos__MPC_1_1coder.html#aaae2248b840070902e3c18dc1a472eab" target="_top" xlink:title=" ">
<polygon fill="white" stroke="#666666" points="1333,-35.5 1198,-35.5 1198,-16.5 1333,-16.5 1333,-35.5"/>
<text text-anchor="middle" x="1265.5" y="-23.5" font-family="Helvetica,sans-Serif" font-size="10.00">pos_MPC::coder::qpkwik</text>
</a>
</g>
</g>
<!-- Node2&#45;&gt;Node3 -->
<g id="edge2_Node000002_Node000003" class="edge">
<title>Node2&#45;&gt;Node3</title>
<g id="a_edge2_Node000002_Node000003"><a xlink:title=" ">
<path fill="none" stroke="#63b8ff" d="M1358.73,-26C1350.14,-26 1341.51,-26 1333.17,-26"/>
<polygon fill="#63b8ff" stroke="#63b8ff" points="1358.78,-29.5 1368.78,-26 1358.78,-22.5 1358.78,-29.5"/>
</a>
</g>
</g>
<!-- Node4 -->
<g id="Node000004" class="node">
<title>Node4</title>
<g id="a_Node000004"><a xlink:href="namespacepos__MPC_1_1coder.html#a14d17fba9d633d51a17df5bf681af25d" target="_top" xlink:title=" ">
<polygon fill="white" stroke="#666666" points="1162,-41 1015,-41 1015,-11 1162,-11 1162,-41"/>
<text text-anchor="start" x="1023" y="-29" font-family="Helvetica,sans-Serif" font-size="10.00">pos_MPC::coder::mpcblock</text>
<text text-anchor="middle" x="1088.5" y="-18" font-family="Helvetica,sans-Serif" font-size="10.00">_optimizer</text>
</a>
</g>
</g>
<!-- Node3&#45;&gt;Node4 -->
<g id="edge3_Node000003_Node000004" class="edge">
<title>Node3&#45;&gt;Node4</title>
<g id="a_edge3_Node000003_Node000004"><a xlink:title=" ">
<path fill="none" stroke="#63b8ff" d="M1187.6,-26C1179.12,-26 1170.52,-26 1162.1,-26"/>
<polygon fill="#63b8ff" stroke="#63b8ff" points="1187.84,-29.5 1197.84,-26 1187.84,-22.5 1187.84,-29.5"/>
</a>
</g>
</g>
<!-- Node5 -->
<g id="Node000005" class="node">
<title>Node5</title>
<g id="a_Node000005"><a xlink:href="namespacepos__MPC_1_1coder.html#a059aff34e8d0e64dfc4f6e40bdb298af" target="_top" xlink:title=" ">
<polygon fill="white" stroke="#666666" points="979,-41 806,-41 806,-11 979,-11 979,-41"/>
<text text-anchor="start" x="814" y="-29" font-family="Helvetica,sans-Serif" font-size="10.00">pos_MPC::coder::mpcmoveCode</text>
<text text-anchor="middle" x="892.5" y="-18" font-family="Helvetica,sans-Serif" font-size="10.00">Generation</text>
</a>
</g>
</g>
<!-- Node4&#45;&gt;Node5 -->
<g id="edge4_Node000004_Node000005" class="edge">
<title>Node4&#45;&gt;Node5</title>
<g id="a_edge4_Node000004_Node000005"><a xlink:title=" ">
<path fill="none" stroke="#63b8ff" d="M1004.98,-26C996.39,-26 987.64,-26 979.01,-26"/>
<polygon fill="#63b8ff" stroke="#63b8ff" points="1004.99,-29.5 1014.99,-26 1004.99,-22.5 1004.99,-29.5"/>
</a>
</g>
</g>
<!-- Node6 -->
<g id="Node000006" class="node">
<title>Node6</title>
<g id="a_Node000006"><a xlink:href="classiii__drone_1_1control_1_1TrajectoryGenerator.html#a921e7f325aa43cacaa43341da8e34926" target="_top" xlink:title="Runs the actual MPC one step.">
<polygon fill="white" stroke="#666666" points="770,-46.5 651,-46.5 651,-5.5 770,-5.5 770,-46.5"/>
<text text-anchor="start" x="659" y="-34.5" font-family="Helvetica,sans-Serif" font-size="10.00">iii_drone::control</text>
<text text-anchor="start" x="659" y="-23.5" font-family="Helvetica,sans-Serif" font-size="10.00">::TrajectoryGenerator</text>
<text text-anchor="middle" x="710.5" y="-12.5" font-family="Helvetica,sans-Serif" font-size="10.00">::stepMPC</text>
</a>
</g>
</g>
<!-- Node5&#45;&gt;Node6 -->
<g id="edge5_Node000005_Node000006" class="edge">
<title>Node5&#45;&gt;Node6</title>
<g id="a_edge5_Node000005_Node000006"><a xlink:title=" ">
<path fill="none" stroke="#63b8ff" d="M795.72,-26C786.99,-26 778.33,-26 770.08,-26"/>
<polygon fill="#63b8ff" stroke="#63b8ff" points="795.98,-29.5 805.98,-26 795.98,-22.5 795.98,-29.5"/>
</a>
</g>
</g>
<!-- Node7 -->
<g id="Node000007" class="node">
<title>Node7</title>
<g id="a_Node000007"><a xlink:href="classiii__drone_1_1control_1_1TrajectoryGenerator.html#a78eab9ed7ef8b604e5753192fbf8561b" target="_top" xlink:title="Computes the reference trajectory for the MPC.">
<polygon fill="white" stroke="#666666" points="615,-46.5 451,-46.5 451,-5.5 615,-5.5 615,-46.5"/>
<text text-anchor="start" x="459" y="-34.5" font-family="Helvetica,sans-Serif" font-size="10.00">iii_drone::control</text>
<text text-anchor="start" x="459" y="-23.5" font-family="Helvetica,sans-Serif" font-size="10.00">::TrajectoryGenerator</text>
<text text-anchor="middle" x="533" y="-12.5" font-family="Helvetica,sans-Serif" font-size="10.00">::ComputeReferenceTrajectory</text>
</a>
</g>
</g>
<!-- Node6&#45;&gt;Node7 -->
<g id="edge6_Node000006_Node000007" class="edge">
<title>Node6&#45;&gt;Node7</title>
<g id="a_edge6_Node000006_Node000007"><a xlink:title=" ">
<path fill="none" stroke="#63b8ff" d="M640.57,-26C632.25,-26 623.7,-26 615.23,-26"/>
<polygon fill="#63b8ff" stroke="#63b8ff" points="640.57,-29.5 650.57,-26 640.57,-22.5 640.57,-29.5"/>
</a>
</g>
</g>
<!-- Node8 -->
<g id="Node000008" class="node">
<title>Node8</title>
<g id="a_Node000008"><a xlink:href="classiii__drone_1_1control_1_1trajectory__generator__node_1_1TrajectoryGeneratorNode.html#aefc447399b185fef5b912770b5059936" target="_top" xlink:title="The compute reference trajectory service callback.">
<polygon fill="white" stroke="#666666" points="415,-52 210,-52 210,0 415,0 415,-52"/>
<text text-anchor="start" x="218" y="-40" font-family="Helvetica,sans-Serif" font-size="10.00">iii_drone::control</text>
<text text-anchor="start" x="218" y="-29" font-family="Helvetica,sans-Serif" font-size="10.00">::trajectory_generator</text>
<text text-anchor="start" x="218" y="-18" font-family="Helvetica,sans-Serif" font-size="10.00">_node::TrajectoryGeneratorNode</text>
<text text-anchor="middle" x="312.5" y="-7" font-family="Helvetica,sans-Serif" font-size="10.00">::computeReferenceTrajectoryCallback</text>
</a>
</g>
</g>
<!-- Node7&#45;&gt;Node8 -->
<g id="edge7_Node000007_Node000008" class="edge">
<title>Node7&#45;&gt;Node8</title>
<g id="a_edge7_Node000007_Node000008"><a xlink:title=" ">
<path fill="none" stroke="#63b8ff" d="M440.74,-26C432.29,-26 423.7,-26 415.17,-26"/>
<polygon fill="#63b8ff" stroke="#63b8ff" points="440.95,-29.5 450.95,-26 440.95,-22.5 440.95,-29.5"/>
</a>
</g>
</g>
<!-- Node9 -->
<g id="Node000009" class="node">
<title>Node9</title>
<g id="a_Node000009"><a xlink:href="classiii__drone_1_1control_1_1trajectory__generator__node_1_1TrajectoryGeneratorNode.html#ac58d9ceab1e2ecc71cb971a5f360bc00" target="_top" xlink:title=" ">
<polygon fill="white" stroke="#666666" points="174,-52 0,-52 0,0 174,0 174,-52"/>
<text text-anchor="start" x="8" y="-40" font-family="Helvetica,sans-Serif" font-size="10.00">iii_drone::control</text>
<text text-anchor="start" x="8" y="-29" font-family="Helvetica,sans-Serif" font-size="10.00">::trajectory_generator</text>
<text text-anchor="start" x="8" y="-18" font-family="Helvetica,sans-Serif" font-size="10.00">_node::TrajectoryGeneratorNode</text>
<text text-anchor="middle" x="87" y="-7" font-family="Helvetica,sans-Serif" font-size="10.00">::TrajectoryGeneratorNode</text>
</a>
</g>
</g>
<!-- Node8&#45;&gt;Node9 -->
<g id="edge8_Node000008_Node000009" class="edge">
<title>Node8&#45;&gt;Node9</title>
<g id="a_edge8_Node000008_Node000009"><a xlink:title=" ">
<path fill="none" stroke="#63b8ff" d="M199.84,-26C191.27,-26 182.7,-26 174.34,-26"/>
<polygon fill="#63b8ff" stroke="#63b8ff" points="199.89,-29.5 209.89,-26 199.89,-22.5 199.89,-29.5"/>
</a>
</g>
</g>
</g>
</svg>

<g id="navigator" transform="translate(0 0)" fill="#404254">
  <rect fill="#f2f5e9" fill-opacity="0.5" stroke="#606060" stroke-width=".5" x="0" y="0" width="60" height="60"/>
  <use id="zoomplus" xlink:href="#zoomPlus" x="17" y="9" onmousedown="handleZoom(evt,'in')"/>
  <use id="zoomminus" xlink:href="#zoomMin" x="42" y="9" onmousedown="handleZoom(evt,'out')"/>
  <use id="reset" xlink:href="#resetDef" x="30" y="36" onmousedown="handleReset()"/>
   <use id="arrowup" xlink:href="#arrowUp" x="0" y="0" onmousedown="handlePan(0,-1)"/>
  <use id="arrowright" xlink:href="#arrowRight" x="0" y="0" onmousedown="handlePan(1,0)"/>
  <use id="arrowdown" xlink:href="#arrowDown" x="0" y="0" onmousedown="handlePan(0,1)"/>
  <use id="arrowleft" xlink:href="#arrowLeft" x="0" y="0" onmousedown="handlePan(-1,0)"/>
</g>
<svg viewBox="0 0 15 15" width="100%" height="30px" preserveAspectRatio="xMaxYMin meet">
 <g id="arrow_out" transform="scale(0.3 0.3)">
  <a xlink:href="namespacepos__MPC_a7d8176f1e03b79f5f3818ac29a97c128_icgraph_org.svg" target="_base">
   <rect id="button" ry="5" rx="5" y="6" x="6" height="38" width="38"
        fill="#f2f5e9" fill-opacity="0.5" stroke="#606060" stroke-width="1.0"/>
   <path id="arrow"
     d="M 11.500037,31.436501 C 11.940474,20.09759 22.043105,11.32322 32.158766,21.979434 L 37.068811,17.246167 C 37.068811,17.246167 37.088388,32 37.088388,32 L 22.160133,31.978069 C 22.160133,31.978069 26.997745,27.140456 26.997745,27.140456 C 18.528582,18.264221 13.291696,25.230495 11.500037,31.436501 z"
     style="fill:#404040;"/>
  </a>
 </g>
</svg>

<style type='text/css'>
<![CDATA[
[data-mouse-over-selected='false'] { opacity: 0.7; }
[data-mouse-over-selected='true']  { opacity: 1.0; }
]]>
</style>
<script type="application/ecmascript"><![CDATA[
document.addEventListener('DOMContentLoaded', (event) => {
  highlightEdges();
  highlightAdjacentNodes();
});
]]></script>
</svg>
