<?xml version="1.0" encoding="UTF-8" standalone="no"?>
<!DOCTYPE svg PUBLIC "-//W3C//DTD SVG 1.1//EN"
 "http://www.w3.org/Graphics/SVG/1.1/DTD/svg11.dtd">
<!-- Generated by graphviz version 2.43.0 (0)
 -->
<!-- Title: iii_drone::types::pointFromPointMsg Pages: 1 -->
<!--zoomable 648 -->

<svg id="main" version="1.1" xmlns="http://www.w3.org/2000/svg" xmlns:xlink="http://www.w3.org/1999/xlink" xml:space="preserve" onload="init(evt)">
<style type="text/css"><![CDATA[
.node, .edge {opacity: 0.7;}
.node.selected, .edge.selected {opacity: 1;}
.edge:hover path { stroke: red; }
.edge:hover polygon { stroke: red; fill: red; }
]]></style>

<defs>
  <circle id="rim" cx="0" cy="0" r="7"/>
  <circle id="rim2" cx="0" cy="0" r="3.5"/>
  <g id="zoomPlus">
    <use xlink:href="#rim" fill="#404040"><set attributeName="fill" to="#808080" begin="zoomplus.mouseover" end="zoomplus.mouseout"/></use>
    <path d="M-4,0h8M0,-4v8" fill="none" stroke="white" stroke-width="1.5" pointer-events="none"/>
  </g>
  <g id="zoomMin">
    <use xlink:href="#rim" fill="#404040"><set attributeName="fill" to="#808080" begin="zoomminus.mouseover" end="zoomminus.mouseout"/></use>
    <path d="M-4,0h8" fill="none" stroke="white" stroke-width="1.5" pointer-events="none"/>
  </g>
  <g id="arrowUp" transform="translate(30 24)">
    <use xlink:href="#rim"/>
    <path pointer-events="none" fill="none" stroke="white" stroke-width="1.5" d="M0,-3.0v7 M-2.5,-0.5L0,-3.0L2.5,-0.5"/>
  </g>
  <g id="arrowRight" transform="rotate(90) translate(36 -43)">
    <use xlink:href="#rim"/>
    <path pointer-events="none" fill="none" stroke="white" stroke-width="1.5" d="M0,-3.0v7 M-2.5,-0.5L0,-3.0L2.5,-0.5"/>
  </g>
  <g id="arrowDown" transform="rotate(180) translate(-30 -48)">
    <use xlink:href="#rim"/>
    <path pointer-events="none" fill="none" stroke="white" stroke-width="1.5" d="M0,-3.0v7 M-2.5,-0.5L0,-3.0L2.5,-0.5"/>
  </g>
  <g id="arrowLeft" transform="rotate(270) translate(-36 17)">
    <use xlink:href="#rim"/>
    <path pointer-events="none" fill="none" stroke="white" stroke-width="1.5" d="M0,-3.0v7 M-2.5,-0.5L0,-3.0L2.5,-0.5"/>
  </g>
  <g id="resetDef">
    <use xlink:href="#rim2" fill="#404040"><set attributeName="fill" to="#808080" begin="reset.mouseover" end="reset.mouseout"/></use>
  </g>
</defs>
<script type="application/ecmascript">
var viewWidth = 1070;
var viewHeight = 648;
var sectionId = 'dynsection-1';
</script>
<script type="application/ecmascript" xlink:href="svg.min.js"/>
<svg id="graph" class="graph">
<g id="viewport">
<title>iii_drone::types::pointFromPointMsg</title>
<!-- Node1 -->
<g id="Node000001" class="node">
<title>Node1</title>
<g id="a_Node000001"><a xlink:title=" ">
<polygon fill="#999999" stroke="#666666" points="1062,-296 915,-296 915,-266 1062,-266 1062,-296"/>
<text text-anchor="start" x="923" y="-284" font-family="Helvetica,sans-Serif" font-size="10.00">iii_drone::types::pointFrom</text>
<text text-anchor="middle" x="988.5" y="-273" font-family="Helvetica,sans-Serif" font-size="10.00">PointMsg</text>
</a>
</g>
</g>
<!-- Node2 -->
<g id="Node000002" class="node">
<title>Node2</title>
<g id="a_Node000002"><a xlink:href="classiii__drone_1_1perception_1_1SingleLine.html#aa63a08c0e3ed8294ea894bba24314324" target="_top" xlink:title="Returns whether the line is in FOV, non strict.">
<polygon fill="white" stroke="#666666" points="849,-568 733,-568 733,-538 849,-538 849,-568"/>
<text text-anchor="start" x="741" y="-556" font-family="Helvetica,sans-Serif" font-size="10.00">iii_drone::perception</text>
<text text-anchor="middle" x="791" y="-545" font-family="Helvetica,sans-Serif" font-size="10.00">::SingleLine::IsInFOV</text>
</a>
</g>
</g>
<!-- Node1&#45;&gt;Node2 -->
<g id="edge1_Node000001_Node000002" class="edge">
<title>Node1&#45;&gt;Node2</title>
<g id="a_edge1_Node000001_Node000002"><a xlink:title=" ">
<path fill="none" stroke="#63b8ff" d="M982.5,-306.06C971.76,-353.65 942.18,-457.72 879,-518 870.17,-526.43 859.04,-532.92 847.73,-537.89"/>
<polygon fill="#63b8ff" stroke="#63b8ff" points="985.98,-306.53 984.67,-296.02 979.13,-305.05 985.98,-306.53"/>
</a>
</g>
</g>
<!-- Node4 -->
<g id="Node000004" class="node">
<title>Node4</title>
<g id="a_Node000004"><a xlink:href="classiii__drone_1_1perception_1_1SingleLine.html#ad54f59f23516a68b495cbd198c985833" target="_top" xlink:title="Returns whether the line is in FOV, using the strict parameters.">
<polygon fill="white" stroke="#666666" points="640.5,-544 498.5,-544 498.5,-514 640.5,-514 640.5,-544"/>
<text text-anchor="start" x="506.5" y="-532" font-family="Helvetica,sans-Serif" font-size="10.00">iii_drone::perception</text>
<text text-anchor="middle" x="569.5" y="-521" font-family="Helvetica,sans-Serif" font-size="10.00">::SingleLine::IsInFOVStrict</text>
</a>
</g>
</g>
<!-- Node1&#45;&gt;Node4 -->
<g id="edge6_Node000001_Node000004" class="edge">
<title>Node1&#45;&gt;Node4</title>
<g id="a_edge6_Node000001_Node000004"><a xlink:title=" ">
<path fill="none" stroke="#63b8ff" d="M980.94,-305.88C968.55,-347.65 937.54,-431.38 879,-473 841.57,-499.61 719.43,-515.47 640.53,-523.19"/>
<polygon fill="#63b8ff" stroke="#63b8ff" points="984.32,-306.79 983.69,-296.22 977.59,-304.87 984.32,-306.79"/>
</a>
</g>
</g>
<!-- Node6 -->
<g id="Node000006" class="node">
<title>Node6</title>
<g id="a_Node000006"><a xlink:href="classiii__drone_1_1perception_1_1pl__mapper__node_1_1PowerlineMapperNode.html#a155acd1e412911b7e8cf989e949a2e2f" target="_top" xlink:title="Callback for mmwave data topic.">
<polygon fill="white" stroke="#666666" points="877.5,-463.5 704.5,-463.5 704.5,-422.5 877.5,-422.5 877.5,-463.5"/>
<text text-anchor="start" x="712.5" y="-451.5" font-family="Helvetica,sans-Serif" font-size="10.00">iii_drone::perception</text>
<text text-anchor="start" x="712.5" y="-440.5" font-family="Helvetica,sans-Serif" font-size="10.00">::pl_mapper_node::Powerline</text>
<text text-anchor="middle" x="791" y="-429.5" font-family="Helvetica,sans-Serif" font-size="10.00">MapperNode::mmWaveCallback</text>
</a>
</g>
</g>
<!-- Node1&#45;&gt;Node6 -->
<g id="edge7_Node000001_Node000006" class="edge">
<title>Node1&#45;&gt;Node6</title>
<g id="a_edge7_Node000001_Node000006"><a xlink:title=" ">
<path fill="none" stroke="#63b8ff" d="M966.24,-303.57C945.09,-325.49 911.22,-359.15 879,-385 862.29,-398.4 842.5,-411.77 826.02,-422.29"/>
<polygon fill="#63b8ff" stroke="#63b8ff" points="968.78,-305.98 973.17,-296.34 963.73,-301.14 968.78,-305.98"/>
</a>
</g>
</g>
<!-- Node8 -->
<g id="Node000008" class="node">
<title>Node8</title>
<g id="a_Node000008"><a xlink:href="namespaceiii__drone_1_1types.html#a68ca357a87fb655434d05d6c6bdac45f" target="_top" xlink:title=" ">
<polygon fill="white" stroke="#666666" points="864.5,-328 717.5,-328 717.5,-298 864.5,-298 864.5,-328"/>
<text text-anchor="start" x="725.5" y="-316" font-family="Helvetica,sans-Serif" font-size="10.00">iii_drone::types::pointFrom</text>
<text text-anchor="middle" x="791" y="-305" font-family="Helvetica,sans-Serif" font-size="10.00">PoseMsg</text>
</a>
</g>
</g>
<!-- Node1&#45;&gt;Node8 -->
<g id="edge9_Node000001_Node000008" class="edge">
<title>Node1&#45;&gt;Node8</title>
<g id="a_edge9_Node000001_Node000008"><a xlink:title=" ">
<path fill="none" stroke="#63b8ff" d="M904.87,-294.52C891.53,-296.71 877.81,-298.95 864.73,-301.1"/>
<polygon fill="#63b8ff" stroke="#63b8ff" points="905.68,-297.94 914.98,-292.87 904.55,-291.03 905.68,-297.94"/>
</a>
</g>
</g>
<!-- Node9 -->
<g id="Node000009" class="node">
<title>Node9</title>
<g id="a_Node000009"><a xlink:href="classiii__drone_1_1adapters_1_1SingleLineAdapter.html#a691df92d58f0f358ddad6a9b6b2f1e1f" target="_top" xlink:title="Constructor from msg.">
<polygon fill="white" stroke="#666666" points="625,-436.5 514,-436.5 514,-395.5 625,-395.5 625,-436.5"/>
<text text-anchor="start" x="522" y="-424.5" font-family="Helvetica,sans-Serif" font-size="10.00">iii_drone::adapters</text>
<text text-anchor="start" x="522" y="-413.5" font-family="Helvetica,sans-Serif" font-size="10.00">::SingleLineAdapter</text>
<text text-anchor="middle" x="569.5" y="-402.5" font-family="Helvetica,sans-Serif" font-size="10.00">::SingleLineAdapter</text>
</a>
</g>
</g>
<!-- Node1&#45;&gt;Node9 -->
<g id="edge31_Node000001_Node000009" class="edge">
<title>Node1&#45;&gt;Node9</title>
<g id="a_edge31_Node000001_Node000009"><a xlink:title=" ">
<path fill="none" stroke="#63b8ff" d="M953.56,-301.04C932.61,-312.77 904.89,-327.15 879,-337 792.71,-369.83 687.72,-393.45 625.14,-405.9"/>
<polygon fill="#63b8ff" stroke="#63b8ff" points="955.41,-304.02 962.38,-296.04 951.96,-297.93 955.41,-304.02"/>
</a>
</g>
</g>
<!-- Node12 -->
<g id="Node000012" class="node">
<title>Node12</title>
<g id="a_Node000012"><a xlink:href="namespaceiii__drone_1_1types.html#a0f2e38f39e75d541ec3429c76b866229" target="_top" xlink:title=" ">
<polygon fill="white" stroke="#666666" points="864,-267 718,-267 718,-237 864,-237 864,-267"/>
<text text-anchor="start" x="726" y="-255" font-family="Helvetica,sans-Serif" font-size="10.00">iii_drone::types::poseFrom</text>
<text text-anchor="middle" x="791" y="-244" font-family="Helvetica,sans-Serif" font-size="10.00">PoseMsg</text>
</a>
</g>
</g>
<!-- Node1&#45;&gt;Node12 -->
<g id="edge13_Node000001_Node000012" class="edge">
<title>Node1&#45;&gt;Node12</title>
<g id="a_edge13_Node000001_Node000012"><a xlink:title=" ">
<path fill="none" stroke="#63b8ff" d="M904.74,-268.72C891.22,-266.72 877.31,-264.65 864.08,-262.69"/>
<polygon fill="#63b8ff" stroke="#63b8ff" points="904.58,-272.24 914.98,-270.24 905.6,-265.31 904.58,-272.24"/>
</a>
</g>
</g>
<!-- Node25 -->
<g id="Node000025" class="node">
<title>Node25</title>
<g id="a_Node000025"><a xlink:href="classiii__drone_1_1adapters_1_1ReferenceAdapter.html#a300df0ce9590ce2629579f439a13be6c" target="_top" xlink:title="Constructor from III&#45;Drone&#45;Interfaces::Reference msg.">
<polygon fill="white" stroke="#666666" points="849,-218.5 733,-218.5 733,-177.5 849,-177.5 849,-218.5"/>
<text text-anchor="start" x="741" y="-206.5" font-family="Helvetica,sans-Serif" font-size="10.00">iii_drone::adapters</text>
<text text-anchor="start" x="741" y="-195.5" font-family="Helvetica,sans-Serif" font-size="10.00">::ReferenceAdapter::</text>
<text text-anchor="middle" x="791" y="-184.5" font-family="Helvetica,sans-Serif" font-size="10.00">ReferenceAdapter</text>
</a>
</g>
</g>
<!-- Node1&#45;&gt;Node25 -->
<g id="edge26_Node000001_Node000025" class="edge">
<title>Node1&#45;&gt;Node25</title>
<g id="a_edge26_Node000001_Node000025"><a xlink:title=" ">
<path fill="none" stroke="#63b8ff" d="M949.86,-261.2C929.22,-250.71 903.01,-237.96 879,-228 869.41,-224.02 859.08,-220.13 849,-216.53"/>
<polygon fill="#63b8ff" stroke="#63b8ff" points="948.43,-264.4 958.93,-265.85 951.63,-258.18 948.43,-264.4"/>
</a>
</g>
</g>
<!-- Node26 -->
<g id="Node000026" class="node">
<title>Node26</title>
<g id="a_Node000026"><a xlink:href="classiii__drone_1_1control_1_1maneuver_1_1Maneuver.html#a610166e98a9e5aec0277cf948db9a790" target="_top" xlink:title="Sets type and parameters from goal.">
<polygon fill="white" stroke="#666666" points="854.5,-159.5 727.5,-159.5 727.5,-118.5 854.5,-118.5 854.5,-159.5"/>
<text text-anchor="start" x="735.5" y="-147.5" font-family="Helvetica,sans-Serif" font-size="10.00">iii_drone::control</text>
<text text-anchor="start" x="735.5" y="-136.5" font-family="Helvetica,sans-Serif" font-size="10.00">::maneuver::Maneuver</text>
<text text-anchor="middle" x="791" y="-125.5" font-family="Helvetica,sans-Serif" font-size="10.00">::SetFromGoal</text>
</a>
</g>
</g>
<!-- Node1&#45;&gt;Node26 -->
<g id="edge27_Node000001_Node000026" class="edge">
<title>Node1&#45;&gt;Node26</title>
<g id="a_edge27_Node000001_Node000026"><a xlink:title=" ">
<path fill="none" stroke="#63b8ff" d="M970.26,-257.51C950.7,-232.38 916.59,-192.92 879,-169 871.45,-164.2 863.04,-160.06 854.51,-156.53"/>
<polygon fill="#63b8ff" stroke="#63b8ff" points="967.7,-259.93 976.55,-265.75 973.27,-255.68 967.7,-259.93"/>
</a>
</g>
</g>
<!-- Node29 -->
<g id="Node000029" class="node">
<title>Node29</title>
<g id="a_Node000029"><a xlink:href="classiii__drone_1_1perception_1_1SingleLine.html#a0394950ec7fe3fd5a4210267495c9929" target="_top" xlink:title="Constructor from Pose msg.">
<polygon fill="white" stroke="#666666" points="855.5,-100 726.5,-100 726.5,-70 855.5,-70 855.5,-100"/>
<text text-anchor="start" x="734.5" y="-88" font-family="Helvetica,sans-Serif" font-size="10.00">iii_drone::perception</text>
<text text-anchor="middle" x="791" y="-77" font-family="Helvetica,sans-Serif" font-size="10.00">::SingleLine::SingleLine</text>
</a>
</g>
</g>
<!-- Node1&#45;&gt;Node29 -->
<g id="edge30_Node000001_Node000029" class="edge">
<title>Node1&#45;&gt;Node29</title>
<g id="a_edge30_Node000001_Node000029"><a xlink:title=" ">
<path fill="none" stroke="#63b8ff" d="M978.47,-256.23C963.58,-218.87 930.33,-148.42 879,-110 872.08,-104.82 864.12,-100.71 855.88,-97.45"/>
<polygon fill="#63b8ff" stroke="#63b8ff" points="975.31,-257.77 982.18,-265.83 981.84,-255.24 975.31,-257.77"/>
</a>
</g>
</g>
<!-- Node30 -->
<g id="Node000030" class="node">
<title>Node30</title>
<g id="a_Node000030"><a xlink:href="structiii__drone_1_1control_1_1maneuver_1_1fly__to__position__maneuver__params__t.html#af186f455a9c83cd42e413d152f4d34ff" target="_top" xlink:title=" ">
<polygon fill="white" stroke="#666666" points="879,-52 703,-52 703,0 879,0 879,-52"/>
<text text-anchor="start" x="711" y="-40" font-family="Helvetica,sans-Serif" font-size="10.00">iii_drone::control</text>
<text text-anchor="start" x="711" y="-29" font-family="Helvetica,sans-Serif" font-size="10.00">::maneuver::fly_to_position</text>
<text text-anchor="start" x="711" y="-18" font-family="Helvetica,sans-Serif" font-size="10.00">_maneuver_params_t::transform</text>
<text text-anchor="middle" x="791" y="-7" font-family="Helvetica,sans-Serif" font-size="10.00">_target_position</text>
</a>
</g>
</g>
<!-- Node1&#45;&gt;Node30 -->
<g id="edge32_Node000001_Node000030" class="edge">
<title>Node1&#45;&gt;Node30</title>
<g id="a_edge32_Node000001_Node000030"><a xlink:title=" ">
<path fill="none" stroke="#63b8ff" d="M981.55,-256.14C969.6,-211.26 938.56,-116.22 879,-61 875.54,-57.79 871.74,-54.86 867.74,-52.18"/>
<polygon fill="#63b8ff" stroke="#63b8ff" points="978.19,-257.11 984.06,-265.93 984.97,-255.37 978.19,-257.11"/>
</a>
</g>
</g>
<!-- Node2&#45;&gt;Node2 -->
<g id="edge3_Node000002_Node000002" class="edge">
<title>Node2&#45;&gt;Node2</title>
<g id="a_edge3_Node000002_Node000002"><a xlink:title=" ">
<path fill="none" stroke="#63b8ff" d="M825.31,-578.6C820.62,-582.97 809.18,-586 791,-586 760.38,-586 748.89,-577.41 756.55,-568.28"/>
<polygon fill="#63b8ff" stroke="#63b8ff" points="828.81,-578.32 825.45,-568.28 821.81,-578.22 828.81,-578.32"/>
</a>
</g>
</g>
<!-- Node3 -->
<g id="Node000003" class="node">
<title>Node3</title>
<g id="a_Node000003"><a xlink:href="classiii__drone_1_1perception_1_1SingleLine.html#ae9804a282e066e92081c54528f9c4a7e" target="_top" xlink:title="Returns whether the line is alive, i.e. whether it is not in the FOV or alive_cnt_ is above alive_cnt...">
<polygon fill="white" stroke="#666666" points="627.5,-640 511.5,-640 511.5,-610 627.5,-610 627.5,-640"/>
<text text-anchor="start" x="519.5" y="-628" font-family="Helvetica,sans-Serif" font-size="10.00">iii_drone::perception</text>
<text text-anchor="middle" x="569.5" y="-617" font-family="Helvetica,sans-Serif" font-size="10.00">::SingleLine::IsAlive</text>
</a>
</g>
</g>
<!-- Node2&#45;&gt;Node3 -->
<g id="edge2_Node000002_Node000003" class="edge">
<title>Node2&#45;&gt;Node3</title>
<g id="a_edge2_Node000002_Node000003"><a xlink:title=" ">
<path fill="none" stroke="#63b8ff" d="M745.37,-572.01C722.24,-581.46 693.38,-592.61 667,-601 654.41,-605 640.73,-608.76 627.74,-612.05"/>
<polygon fill="#63b8ff" stroke="#63b8ff" points="746.99,-575.13 754.91,-568.08 744.33,-568.66 746.99,-575.13"/>
</a>
</g>
</g>
<!-- Node2&#45;&gt;Node4 -->
<g id="edge4_Node000002_Node000004" class="edge">
<title>Node2&#45;&gt;Node4</title>
<g id="a_edge4_Node000002_Node000004"><a xlink:title=" ">
<path fill="none" stroke="#63b8ff" d="M722.75,-545.65C696.73,-542.8 666.93,-539.54 640.64,-536.67"/>
<polygon fill="#63b8ff" stroke="#63b8ff" points="722.58,-549.15 732.9,-546.76 723.34,-542.19 722.58,-549.15"/>
</a>
</g>
</g>
<!-- Node5 -->
<g id="Node000005" class="node">
<title>Node5</title>
<g id="a_Node000005"><a xlink:href="classiii__drone_1_1perception_1_1SingleLine.html#a572bd83d5f2d58b19895bedce97abf57" target="_top" xlink:title="Converts to SingleLineAdapter.">
<polygon fill="white" stroke="#666666" points="633.5,-592 505.5,-592 505.5,-562 633.5,-562 633.5,-592"/>
<text text-anchor="start" x="513.5" y="-580" font-family="Helvetica,sans-Serif" font-size="10.00">iii_drone::perception</text>
<text text-anchor="middle" x="569.5" y="-569" font-family="Helvetica,sans-Serif" font-size="10.00">::SingleLine::ToAdapter</text>
</a>
</g>
</g>
<!-- Node2&#45;&gt;Node5 -->
<g id="edge5_Node000002_Node000005" class="edge">
<title>Node2&#45;&gt;Node5</title>
<g id="a_edge5_Node000002_Node000005"><a xlink:title=" ">
<path fill="none" stroke="#63b8ff" d="M722.7,-560.36C694.43,-563.45 661.72,-567.03 633.88,-570.07"/>
<polygon fill="#63b8ff" stroke="#63b8ff" points="723.34,-563.81 732.9,-559.24 722.58,-556.85 723.34,-563.81"/>
</a>
</g>
</g>
<!-- Node7 -->
<g id="Node000007" class="node">
<title>Node7</title>
<g id="a_Node000007"><a xlink:href="classiii__drone_1_1perception_1_1pl__mapper__node_1_1PowerlineMapperNode.html#a703ae72ba683ae11154ce597b8bbad9d" target="_top" xlink:title="Constructor.">
<polygon fill="white" stroke="#666666" points="667,-495.5 472,-495.5 472,-454.5 667,-454.5 667,-495.5"/>
<text text-anchor="start" x="480" y="-483.5" font-family="Helvetica,sans-Serif" font-size="10.00">iii_drone::perception</text>
<text text-anchor="start" x="480" y="-472.5" font-family="Helvetica,sans-Serif" font-size="10.00">::pl_mapper_node::Powerline</text>
<text text-anchor="middle" x="569.5" y="-461.5" font-family="Helvetica,sans-Serif" font-size="10.00">MapperNode::PowerlineMapperNode</text>
</a>
</g>
</g>
<!-- Node6&#45;&gt;Node7 -->
<g id="edge8_Node000006_Node000007" class="edge">
<title>Node6&#45;&gt;Node7</title>
<g id="a_edge8_Node000006_Node000007"><a xlink:title=" ">
<path fill="none" stroke="#63b8ff" d="M694.15,-456.97C685.2,-458.28 676.12,-459.6 667.16,-460.91"/>
<polygon fill="#63b8ff" stroke="#63b8ff" points="694.8,-460.42 704.19,-455.51 693.79,-453.49 694.8,-460.42"/>
</a>
</g>
</g>
<!-- Node8&#45;&gt;Node9 -->
<g id="edge10_Node000008_Node000009" class="edge">
<title>Node8&#45;&gt;Node9</title>
<g id="a_edge10_Node000008_Node000009"><a xlink:title=" ">
<path fill="none" stroke="#63b8ff" d="M746.79,-332.44C732.47,-339.52 716.69,-348 703,-357 685.6,-368.44 685.34,-377.14 667,-387 654.06,-393.96 639.22,-399.47 625.12,-403.74"/>
<polygon fill="#63b8ff" stroke="#63b8ff" points="748.48,-335.51 755.96,-328.01 745.44,-329.21 748.48,-335.51"/>
</a>
</g>
</g>
<!-- Node10 -->
<g id="Node000010" class="node">
<title>Node10</title>
<g id="a_Node000010"><a xlink:href="classiii__drone_1_1adapters_1_1SingleLineAdapter.html#a524b57b8a93818b95e35323ec8533749" target="_top" xlink:title="Constructor from PoseStamped msg.">
<polygon fill="white" stroke="#666666" points="625,-377.5 514,-377.5 514,-336.5 625,-336.5 625,-377.5"/>
<text text-anchor="start" x="522" y="-365.5" font-family="Helvetica,sans-Serif" font-size="10.00">iii_drone::adapters</text>
<text text-anchor="start" x="522" y="-354.5" font-family="Helvetica,sans-Serif" font-size="10.00">::SingleLineAdapter</text>
<text text-anchor="middle" x="569.5" y="-343.5" font-family="Helvetica,sans-Serif" font-size="10.00">::SingleLineAdapter</text>
</a>
</g>
</g>
<!-- Node8&#45;&gt;Node10 -->
<g id="edge11_Node000008_Node000010" class="edge">
<title>Node8&#45;&gt;Node10</title>
<g id="a_edge11_Node000008_Node000010"><a xlink:title=" ">
<path fill="none" stroke="#63b8ff" d="M707.21,-329.6C679.72,-335.11 649.82,-341.1 625.02,-346.07"/>
<polygon fill="#63b8ff" stroke="#63b8ff" points="708.1,-332.99 717.21,-327.59 706.72,-326.12 708.1,-332.99"/>
</a>
</g>
</g>
<!-- Node11 -->
<g id="Node000011" class="node">
<title>Node11</title>
<g id="a_Node000011"><a xlink:href="classiii__drone_1_1adapters_1_1SingleLineAdapter.html#ad5ca1a5d6a90a4f67c5b9bb59f9c8066" target="_top" xlink:title="Constructor from pose msg.">
<polygon fill="white" stroke="#666666" points="625,-318.5 514,-318.5 514,-277.5 625,-277.5 625,-318.5"/>
<text text-anchor="start" x="522" y="-306.5" font-family="Helvetica,sans-Serif" font-size="10.00">iii_drone::adapters</text>
<text text-anchor="start" x="522" y="-295.5" font-family="Helvetica,sans-Serif" font-size="10.00">::SingleLineAdapter</text>
<text text-anchor="middle" x="569.5" y="-284.5" font-family="Helvetica,sans-Serif" font-size="10.00">::SingleLineAdapter</text>
</a>
</g>
</g>
<!-- Node8&#45;&gt;Node11 -->
<g id="edge12_Node000008_Node000011" class="edge">
<title>Node8&#45;&gt;Node11</title>
<g id="a_edge12_Node000008_Node000011"><a xlink:title=" ">
<path fill="none" stroke="#63b8ff" d="M707.21,-307.34C679.72,-305.46 649.82,-303.42 625.02,-301.73"/>
<polygon fill="#63b8ff" stroke="#63b8ff" points="707,-310.84 717.21,-308.03 707.48,-303.85 707,-310.84"/>
</a>
</g>
</g>
<!-- Node13 -->
<g id="Node000013" class="node">
<title>Node13</title>
<g id="a_Node000013"><a xlink:href="classiii__drone_1_1control_1_1CombinedDroneAwarenessHandler.html#ab9c3e7f08103bc40c70efd3ca93f040b" target="_top" xlink:title="Computes a target transform given a target adapter.">
<polygon fill="white" stroke="#666666" points="666,-259.5 473,-259.5 473,-218.5 666,-218.5 666,-259.5"/>
<text text-anchor="start" x="481" y="-247.5" font-family="Helvetica,sans-Serif" font-size="10.00">iii_drone::control</text>
<text text-anchor="start" x="481" y="-236.5" font-family="Helvetica,sans-Serif" font-size="10.00">::CombinedDroneAwarenessHandler</text>
<text text-anchor="middle" x="569.5" y="-225.5" font-family="Helvetica,sans-Serif" font-size="10.00">::ComputeTargetTransform</text>
</a>
</g>
</g>
<!-- Node12&#45;&gt;Node13 -->
<g id="edge14_Node000012_Node000013" class="edge">
<title>Node12&#45;&gt;Node13</title>
<g id="a_edge14_Node000012_Node000013"><a xlink:title=" ">
<path fill="none" stroke="#63b8ff" d="M707.63,-247.12C694.13,-246.32 680.03,-245.49 666.24,-244.67"/>
<polygon fill="#63b8ff" stroke="#63b8ff" points="707.63,-250.63 717.82,-247.73 708.05,-243.64 707.63,-250.63"/>
</a>
</g>
</g>
<!-- Node23 -->
<g id="Node000023" class="node">
<title>Node23</title>
<g id="a_Node000023"><a xlink:href="classiii__drone_1_1adapters_1_1StateAdapter.html#a0f4294d40860c07fa8abaa7847b39b4f" target="_top" xlink:title="Constructor from III&#45;Drone&#45;Interfaces::State msg.">
<polygon fill="white" stroke="#666666" points="647.5,-200 491.5,-200 491.5,-170 647.5,-170 647.5,-200"/>
<text text-anchor="start" x="499.5" y="-188" font-family="Helvetica,sans-Serif" font-size="10.00">iii_drone::adapters</text>
<text text-anchor="middle" x="569.5" y="-177" font-family="Helvetica,sans-Serif" font-size="10.00">::StateAdapter::StateAdapter</text>
</a>
</g>
</g>
<!-- Node12&#45;&gt;Node23 -->
<g id="edge24_Node000012_Node000023" class="edge">
<title>Node12&#45;&gt;Node23</title>
<g id="a_edge24_Node000012_Node000023"><a xlink:title=" ">
<path fill="none" stroke="#63b8ff" d="M719.88,-233.94C714.13,-232.07 708.44,-230.09 703,-228 686.3,-221.59 683.75,-216.28 667,-210 657.2,-206.33 646.64,-202.99 636.22,-200.04"/>
<polygon fill="#63b8ff" stroke="#63b8ff" points="719.01,-237.34 729.6,-236.98 721.1,-230.66 719.01,-237.34"/>
</a>
</g>
</g>
<!-- Node24 -->
<g id="Node000024" class="node">
<title>Node24</title>
<g id="a_Node000024"><a xlink:href="classiii__drone_1_1adapters_1_1StateAdapter.html#a57f6e00f7ede418214e2ad32a26609d0" target="_top" xlink:title="Constructor from III&#45;Drone&#45;Interfaces::State msg shared pointer.">
<polygon fill="white" stroke="#666666" points="647.5,-152 491.5,-152 491.5,-122 647.5,-122 647.5,-152"/>
<text text-anchor="start" x="499.5" y="-140" font-family="Helvetica,sans-Serif" font-size="10.00">iii_drone::adapters</text>
<text text-anchor="middle" x="569.5" y="-129" font-family="Helvetica,sans-Serif" font-size="10.00">::StateAdapter::StateAdapter</text>
</a>
</g>
</g>
<!-- Node12&#45;&gt;Node24 -->
<g id="edge25_Node000012_Node000024" class="edge">
<title>Node12&#45;&gt;Node24</title>
<g id="a_edge25_Node000012_Node000024"><a xlink:title=" ">
<path fill="none" stroke="#63b8ff" d="M708.76,-232.14C706.77,-230.85 704.84,-229.47 703,-228 676.58,-206.92 693.69,-181.75 667,-161 661.14,-156.44 654.52,-152.74 647.57,-149.73"/>
<polygon fill="#63b8ff" stroke="#63b8ff" points="707.45,-235.42 717.88,-237.3 710.89,-229.33 707.45,-235.42"/>
</a>
</g>
</g>
<!-- Node14 -->
<g id="Node000014" class="node">
<title>Node14</title>
<g id="a_Node000014"><a xlink:href="classiii__drone_1_1control_1_1maneuver_1_1FlyToObjectManeuverServer.html#a7a9d2b2d6d91f20491eab552a16f9955" target="_top" xlink:title="Whether the maneuver can be executed.">
<polygon fill="white" stroke="#666666" points="428,-377.5 244,-377.5 244,-336.5 428,-336.5 428,-377.5"/>
<text text-anchor="start" x="252" y="-365.5" font-family="Helvetica,sans-Serif" font-size="10.00">iii_drone::control</text>
<text text-anchor="start" x="252" y="-354.5" font-family="Helvetica,sans-Serif" font-size="10.00">::maneuver::FlyToObjectManeuver</text>
<text text-anchor="middle" x="336" y="-343.5" font-family="Helvetica,sans-Serif" font-size="10.00">Server::CanExecuteManeuver</text>
</a>
</g>
</g>
<!-- Node13&#45;&gt;Node14 -->
<g id="edge15_Node000013_Node000014" class="edge">
<title>Node13&#45;&gt;Node14</title>
<g id="a_edge15_Node000013_Node000014"><a xlink:title=" ">
<path fill="none" stroke="#63b8ff" d="M477.76,-264.87C475.78,-266.18 473.85,-267.55 472,-269 447.77,-287.89 460.38,-309.31 436,-328 431.88,-331.16 427.42,-333.98 422.75,-336.48"/>
<polygon fill="#63b8ff" stroke="#63b8ff" points="479.96,-267.63 486.79,-259.53 476.4,-261.61 479.96,-267.63"/>
</a>
</g>
</g>
<!-- Node15 -->
<g id="Node000015" class="node">
<title>Node15</title>
<g id="a_Node000015"><a xlink:href="classiii__drone_1_1control_1_1maneuver_1_1HoverByObjectManeuverServer.html#a43a1bd4911d8cb93397ab2eeabd61ee4" target="_top" xlink:title="Whether the maneuver can be executed, will return false if the target is not visible or the drone has...">
<polygon fill="white" stroke="#666666" points="436,-318.5 236,-318.5 236,-277.5 436,-277.5 436,-318.5"/>
<text text-anchor="start" x="244" y="-306.5" font-family="Helvetica,sans-Serif" font-size="10.00">iii_drone::control</text>
<text text-anchor="start" x="244" y="-295.5" font-family="Helvetica,sans-Serif" font-size="10.00">::maneuver::HoverByObjectManeuver</text>
<text text-anchor="middle" x="336" y="-284.5" font-family="Helvetica,sans-Serif" font-size="10.00">Server::CanExecuteManeuver</text>
</a>
</g>
</g>
<!-- Node13&#45;&gt;Node15 -->
<g id="edge16_Node000013_Node000015" class="edge">
<title>Node13&#45;&gt;Node15</title>
<g id="a_edge16_Node000013_Node000015"><a xlink:title=" ">
<path fill="none" stroke="#63b8ff" d="M477.9,-262.09C458.06,-267.15 437.17,-272.47 417.75,-277.42"/>
<polygon fill="#63b8ff" stroke="#63b8ff" points="479.03,-265.41 487.86,-259.55 477.3,-258.63 479.03,-265.41"/>
</a>
</g>
</g>
<!-- Node16 -->
<g id="Node000016" class="node">
<title>Node16</title>
<g id="a_Node000016"><a xlink:href="classiii__drone_1_1control_1_1maneuver_1_1HoverByObjectManeuverServer.html#a4eb2e2eafbed623aeb6b16536465f896" target="_top" xlink:title="Gets the hover reference. The current state is not used. Will call the on fail callback if the target...">
<polygon fill="white" stroke="#666666" points="436,-259.5 236,-259.5 236,-218.5 436,-218.5 436,-259.5"/>
<text text-anchor="start" x="244" y="-247.5" font-family="Helvetica,sans-Serif" font-size="10.00">iii_drone::control</text>
<text text-anchor="start" x="244" y="-236.5" font-family="Helvetica,sans-Serif" font-size="10.00">::maneuver::HoverByObjectManeuver</text>
<text text-anchor="middle" x="336" y="-225.5" font-family="Helvetica,sans-Serif" font-size="10.00">Server::GetReference</text>
</a>
</g>
</g>
<!-- Node13&#45;&gt;Node16 -->
<g id="edge17_Node000013_Node000016" class="edge">
<title>Node13&#45;&gt;Node16</title>
<g id="a_edge17_Node000013_Node000016"><a xlink:title=" ">
<path fill="none" stroke="#63b8ff" d="M462.43,-239C453.67,-239 444.83,-239 436.12,-239"/>
<polygon fill="#63b8ff" stroke="#63b8ff" points="462.67,-242.5 472.67,-239 462.67,-235.5 462.67,-242.5"/>
</a>
</g>
</g>
<!-- Node20 -->
<g id="Node000020" class="node">
<title>Node20</title>
<g id="a_Node000020"><a xlink:href="classiii__drone_1_1control_1_1maneuver_1_1HoverByObjectManeuverServer.html#a7e09c4b73237e76701d9e83785e05077" target="_top" xlink:title="Returns true if the maneuver has succeeded. Has succeeded if the target is visible and the drone is w...">
<polygon fill="white" stroke="#666666" points="436,-200.5 236,-200.5 236,-159.5 436,-159.5 436,-200.5"/>
<text text-anchor="start" x="244" y="-188.5" font-family="Helvetica,sans-Serif" font-size="10.00">iii_drone::control</text>
<text text-anchor="start" x="244" y="-177.5" font-family="Helvetica,sans-Serif" font-size="10.00">::maneuver::HoverByObjectManeuver</text>
<text text-anchor="middle" x="336" y="-166.5" font-family="Helvetica,sans-Serif" font-size="10.00">Server::hasSucceeded</text>
</a>
</g>
</g>
<!-- Node13&#45;&gt;Node20 -->
<g id="edge21_Node000013_Node000020" class="edge">
<title>Node13&#45;&gt;Node20</title>
<g id="a_edge21_Node000013_Node000020"><a xlink:title=" ">
<path fill="none" stroke="#63b8ff" d="M477.9,-215.91C458.06,-210.85 437.17,-205.53 417.75,-200.58"/>
<polygon fill="#63b8ff" stroke="#63b8ff" points="477.3,-219.37 487.86,-218.45 479.03,-212.59 477.3,-219.37"/>
</a>
</g>
</g>
<!-- Node22 -->
<g id="Node000022" class="node">
<title>Node22</title>
<g id="a_Node000022"><a xlink:href="classiii__drone_1_1control_1_1maneuver_1_1HoverByObjectManeuverServer.html#ac08b547da2cbfe0165a2ccca6b639c02" target="_top" xlink:title="Updates the hover reference.">
<polygon fill="white" stroke="#666666" points="436,-141.5 236,-141.5 236,-100.5 436,-100.5 436,-141.5"/>
<text text-anchor="start" x="244" y="-129.5" font-family="Helvetica,sans-Serif" font-size="10.00">iii_drone::control</text>
<text text-anchor="start" x="244" y="-118.5" font-family="Helvetica,sans-Serif" font-size="10.00">::maneuver::HoverByObjectManeuver</text>
<text text-anchor="middle" x="336" y="-107.5" font-family="Helvetica,sans-Serif" font-size="10.00">Server::Update</text>
</a>
</g>
</g>
<!-- Node13&#45;&gt;Node22 -->
<g id="edge23_Node000013_Node000022" class="edge">
<title>Node13&#45;&gt;Node22</title>
<g id="a_edge23_Node000013_Node000022"><a xlink:title=" ">
<path fill="none" stroke="#63b8ff" d="M477.78,-213.11C475.79,-211.81 473.86,-210.44 472,-209 448,-190.44 460.07,-169.48 436,-151 431.44,-147.5 426.48,-144.41 421.28,-141.67"/>
<polygon fill="#63b8ff" stroke="#63b8ff" points="476.43,-216.38 486.82,-218.43 479.97,-210.35 476.43,-216.38"/>
</a>
</g>
</g>
<!-- Node17 -->
<g id="Node000017" class="node">
<title>Node17</title>
<g id="a_Node000017"><a xlink:href="classiii__drone_1_1control_1_1maneuver_1_1HoverByObjectManeuverServer.html#a8651f18cdc5c9b85ff145c7decac4ddc" target="_top" xlink:title="Computes the hover by object reference for the maneuver server.">
<polygon fill="white" stroke="#666666" points="200,-359.5 0,-359.5 0,-318.5 200,-318.5 200,-359.5"/>
<text text-anchor="start" x="8" y="-347.5" font-family="Helvetica,sans-Serif" font-size="10.00">iii_drone::control</text>
<text text-anchor="start" x="8" y="-336.5" font-family="Helvetica,sans-Serif" font-size="10.00">::maneuver::HoverByObjectManeuver</text>
<text text-anchor="middle" x="100" y="-325.5" font-family="Helvetica,sans-Serif" font-size="10.00">Server::computeReference</text>
</a>
</g>
</g>
<!-- Node16&#45;&gt;Node17 -->
<g id="edge18_Node000016_Node000017" class="edge">
<title>Node16&#45;&gt;Node17</title>
<g id="a_edge18_Node000016_Node000017"><a xlink:title=" ">
<path fill="none" stroke="#63b8ff" d="M244.6,-264.02C241.64,-265.58 238.77,-267.24 236,-269 215.81,-281.83 220.19,-296.17 200,-309 194.47,-312.52 188.5,-315.64 182.33,-318.41"/>
<polygon fill="#63b8ff" stroke="#63b8ff" points="246.21,-267.12 253.67,-259.59 243.14,-260.83 246.21,-267.12"/>
</a>
</g>
</g>
<!-- Node18 -->
<g id="Node000018" class="node">
<title>Node18</title>
<g id="a_Node000018"><a xlink:href="classiii__drone_1_1control_1_1maneuver_1_1FlyToObjectManeuverServer.html#a8cd7c6981d54cd5aa868f25d843ad0d0" target="_top" xlink:title="Registers the hover by object reference callback on success.">
<polygon fill="white" stroke="#666666" points="198.5,-300 1.5,-300 1.5,-248 198.5,-248 198.5,-300"/>
<text text-anchor="start" x="9.5" y="-288" font-family="Helvetica,sans-Serif" font-size="10.00">iii_drone::control</text>
<text text-anchor="start" x="9.5" y="-277" font-family="Helvetica,sans-Serif" font-size="10.00">::maneuver::FlyToObjectManeuver</text>
<text text-anchor="start" x="9.5" y="-266" font-family="Helvetica,sans-Serif" font-size="10.00">Server::registerReferenceCallbackOn</text>
<text text-anchor="middle" x="100" y="-255" font-family="Helvetica,sans-Serif" font-size="10.00">Success</text>
</a>
</g>
</g>
<!-- Node16&#45;&gt;Node18 -->
<g id="edge19_Node000016_Node000018" class="edge">
<title>Node16&#45;&gt;Node18</title>
<g id="a_edge19_Node000016_Node000018"><a xlink:title=" ">
<path fill="none" stroke="#63b8ff" d="M225.6,-255.36C216.56,-256.72 207.46,-258.08 198.52,-259.41"/>
<polygon fill="#63b8ff" stroke="#63b8ff" points="226.39,-258.78 235.76,-253.84 225.36,-251.86 226.39,-258.78"/>
</a>
</g>
</g>
<!-- Node19 -->
<g id="Node000019" class="node">
<title>Node19</title>
<g id="a_Node000019"><a xlink:href="classiii__drone_1_1control_1_1maneuver_1_1HoverByObjectManeuverServer.html#a42d65b247ee89440e63ed7c992c4772e" target="_top" xlink:title="Registers the hover by object reference callback on success.">
<polygon fill="white" stroke="#666666" points="200,-230 0,-230 0,-178 200,-178 200,-230"/>
<text text-anchor="start" x="8" y="-218" font-family="Helvetica,sans-Serif" font-size="10.00">iii_drone::control</text>
<text text-anchor="start" x="8" y="-207" font-family="Helvetica,sans-Serif" font-size="10.00">::maneuver::HoverByObjectManeuver</text>
<text text-anchor="start" x="8" y="-196" font-family="Helvetica,sans-Serif" font-size="10.00">Server::registerReferenceCallbackOn</text>
<text text-anchor="middle" x="100" y="-185" font-family="Helvetica,sans-Serif" font-size="10.00">Success</text>
</a>
</g>
</g>
<!-- Node16&#45;&gt;Node19 -->
<g id="edge20_Node000016_Node000019" class="edge">
<title>Node16&#45;&gt;Node19</title>
<g id="a_edge20_Node000016_Node000019"><a xlink:title=" ">
<path fill="none" stroke="#63b8ff" d="M225.73,-222.66C217.15,-221.37 208.52,-220.08 200.02,-218.81"/>
<polygon fill="#63b8ff" stroke="#63b8ff" points="225.36,-226.14 235.76,-224.16 226.39,-219.22 225.36,-226.14"/>
</a>
</g>
</g>
<!-- Node21 -->
<g id="Node000021" class="node">
<title>Node21</title>
<g id="a_Node000021"><a xlink:href="classiii__drone_1_1control_1_1maneuver_1_1HoverByObjectManeuverServer.html#af8528504b83c4c9b405f496ccc269e10" target="_top" xlink:title="Returns true if the maneuver has failed. Has failed if the target is not visible or the drone has dri...">
<polygon fill="white" stroke="#666666" points="200,-159.5 0,-159.5 0,-118.5 200,-118.5 200,-159.5"/>
<text text-anchor="start" x="8" y="-147.5" font-family="Helvetica,sans-Serif" font-size="10.00">iii_drone::control</text>
<text text-anchor="start" x="8" y="-136.5" font-family="Helvetica,sans-Serif" font-size="10.00">::maneuver::HoverByObjectManeuver</text>
<text text-anchor="middle" x="100" y="-125.5" font-family="Helvetica,sans-Serif" font-size="10.00">Server::hasFailed</text>
</a>
</g>
</g>
<!-- Node20&#45;&gt;Node21 -->
<g id="edge22_Node000020_Node000021" class="edge">
<title>Node20&#45;&gt;Node21</title>
<g id="a_edge22_Node000020_Node000021"><a xlink:title=" ">
<path fill="none" stroke="#63b8ff" d="M225.73,-160.85C217.15,-159.35 208.52,-157.84 200.02,-156.35"/>
<polygon fill="#63b8ff" stroke="#63b8ff" points="225.31,-164.33 235.76,-162.61 226.52,-157.44 225.31,-164.33"/>
</a>
</g>
</g>
<!-- Node27 -->
<g id="Node000027" class="node">
<title>Node27</title>
<g id="a_Node000027"><a xlink:href="classiii__drone_1_1control_1_1maneuver_1_1Maneuver.html#a5d55359435d8940ff933bfd5e1470a2e" target="_top" xlink:title="Static constructor from goal handle.">
<polygon fill="white" stroke="#666666" points="633,-103.5 506,-103.5 506,-62.5 633,-62.5 633,-103.5"/>
<text text-anchor="start" x="514" y="-91.5" font-family="Helvetica,sans-Serif" font-size="10.00">iii_drone::control</text>
<text text-anchor="start" x="514" y="-80.5" font-family="Helvetica,sans-Serif" font-size="10.00">::maneuver::Maneuver</text>
<text text-anchor="middle" x="569.5" y="-69.5" font-family="Helvetica,sans-Serif" font-size="10.00">::FromGoalHandle</text>
</a>
</g>
</g>
<!-- Node26&#45;&gt;Node27 -->
<g id="edge28_Node000026_Node000027" class="edge">
<title>Node26&#45;&gt;Node27</title>
<g id="a_edge28_Node000026_Node000027"><a xlink:title=" ">
<path fill="none" stroke="#63b8ff" d="M717.52,-120.51C690.25,-113.55 659.49,-105.7 633.19,-98.99"/>
<polygon fill="#63b8ff" stroke="#63b8ff" points="716.84,-123.95 727.39,-123.03 718.57,-117.16 716.84,-123.95"/>
</a>
</g>
</g>
<!-- Node28 -->
<g id="Node000028" class="node">
<title>Node28</title>
<g id="a_Node000028"><a xlink:href="classiii__drone_1_1control_1_1maneuver_1_1ManeuverServer.html#ad881c43b7b62f9733771fbf1a61f545d" target="_top" xlink:title="Handle goal callback.">
<polygon fill="white" stroke="#666666" points="648.5,-44.5 490.5,-44.5 490.5,-3.5 648.5,-3.5 648.5,-44.5"/>
<text text-anchor="start" x="498.5" y="-32.5" font-family="Helvetica,sans-Serif" font-size="10.00">iii_drone::control</text>
<text text-anchor="start" x="498.5" y="-21.5" font-family="Helvetica,sans-Serif" font-size="10.00">::maneuver::ManeuverServer</text>
<text text-anchor="middle" x="569.5" y="-10.5" font-family="Helvetica,sans-Serif" font-size="10.00">::handleGoal</text>
</a>
</g>
</g>
<!-- Node26&#45;&gt;Node28 -->
<g id="edge29_Node000026_Node000028" class="edge">
<title>Node26&#45;&gt;Node28</title>
<g id="a_edge29_Node000026_Node000028"><a xlink:title=" ">
<path fill="none" stroke="#63b8ff" d="M718.2,-118.75C712.81,-115.9 707.67,-112.67 703,-109 679.73,-90.72 690.63,-70.8 667,-53 661.41,-48.79 655.21,-45.19 648.73,-42.1"/>
<polygon fill="#63b8ff" stroke="#63b8ff" points="716.92,-122.02 727.45,-123.19 719.95,-115.71 716.92,-122.02"/>
</a>
</g>
</g>
</g>
</svg>

<g id="navigator" transform="translate(0 0)" fill="#404254">
  <rect fill="#f2f5e9" fill-opacity="0.5" stroke="#606060" stroke-width=".5" x="0" y="0" width="60" height="60"/>
  <use id="zoomplus" xlink:href="#zoomPlus" x="17" y="9" onmousedown="handleZoom(evt,'in')"/>
  <use id="zoomminus" xlink:href="#zoomMin" x="42" y="9" onmousedown="handleZoom(evt,'out')"/>
  <use id="reset" xlink:href="#resetDef" x="30" y="36" onmousedown="handleReset()"/>
   <use id="arrowup" xlink:href="#arrowUp" x="0" y="0" onmousedown="handlePan(0,-1)"/>
  <use id="arrowright" xlink:href="#arrowRight" x="0" y="0" onmousedown="handlePan(1,0)"/>
  <use id="arrowdown" xlink:href="#arrowDown" x="0" y="0" onmousedown="handlePan(0,1)"/>
  <use id="arrowleft" xlink:href="#arrowLeft" x="0" y="0" onmousedown="handlePan(-1,0)"/>
</g>
<svg viewBox="0 0 15 15" width="100%" height="30px" preserveAspectRatio="xMaxYMin meet">
 <g id="arrow_out" transform="scale(0.3 0.3)">
  <a xlink:href="namespaceiii__drone_1_1types_a8215048242190c57b9ff2de3f1daba73_icgraph_org.svg" target="_base">
   <rect id="button" ry="5" rx="5" y="6" x="6" height="38" width="38"
        fill="#f2f5e9" fill-opacity="0.5" stroke="#606060" stroke-width="1.0"/>
   <path id="arrow"
     d="M 11.500037,31.436501 C 11.940474,20.09759 22.043105,11.32322 32.158766,21.979434 L 37.068811,17.246167 C 37.068811,17.246167 37.088388,32 37.088388,32 L 22.160133,31.978069 C 22.160133,31.978069 26.997745,27.140456 26.997745,27.140456 C 18.528582,18.264221 13.291696,25.230495 11.500037,31.436501 z"
     style="fill:#404040;"/>
  </a>
 </g>
</svg>

<style type='text/css'>
<![CDATA[
[data-mouse-over-selected='false'] { opacity: 0.7; }
[data-mouse-over-selected='true']  { opacity: 1.0; }
]]>
</style>
<script type="application/ecmascript"><![CDATA[
document.addEventListener('DOMContentLoaded', (event) => {
  highlightEdges();
  highlightAdjacentNodes();
});
]]></script>
</svg>
