<?xml version="1.0" encoding="UTF-8" standalone="no"?>
<!DOCTYPE svg PUBLIC "-//W3C//DTD SVG 1.1//EN"
 "http://www.w3.org/Graphics/SVG/1.1/DTD/svg11.dtd">
<!-- Generated by graphviz version 2.43.0 (0)
 -->
<!-- Title: iii_drone::math::quatToEul Pages: 1 -->
<svg width="1299pt" height="923pt"
 viewBox="0.00 0.00 1299.00 922.50" xmlns="http://www.w3.org/2000/svg" xmlns:xlink="http://www.w3.org/1999/xlink">
<g id="graph0" class="graph" transform="scale(1 1) rotate(0) translate(4 918.5)">
<title>iii_drone::math::quatToEul</title>
<!-- Node1 -->
<g id="Node000001" class="node">
<title>Node1</title>
<g id="a_Node000001"><a xlink:title=" ">
<polygon fill="#999999" stroke="#666666" points="1291,-251 1148,-251 1148,-232 1291,-232 1291,-251"/>
<text text-anchor="middle" x="1219.5" y="-239" font-family="Helvetica,sans-Serif" font-size="10.00">iii_drone::math::quatToEul</text>
</a>
</g>
</g>
<!-- Node2 -->
<g id="Node000002" class="node">
<title>Node2</title>
<g id="a_Node000002"><a xlink:href="classiii__drone_1_1control_1_1maneuver_1_1HoverByObjectManeuverServer.html#a4eb2e2eafbed623aeb6b16536465f896" target="_top" xlink:title="Gets the hover reference. The current state is not used. Will call the on fail callback if the target...">
<polygon fill="white" stroke="#666666" points="436,-839 236,-839 236,-798 436,-798 436,-839"/>
<text text-anchor="start" x="244" y="-827" font-family="Helvetica,sans-Serif" font-size="10.00">iii_drone::control</text>
<text text-anchor="start" x="244" y="-816" font-family="Helvetica,sans-Serif" font-size="10.00">::maneuver::HoverByObjectManeuver</text>
<text text-anchor="middle" x="336" y="-805" font-family="Helvetica,sans-Serif" font-size="10.00">Server::GetReference</text>
</a>
</g>
</g>
<!-- Node1&#45;&gt;Node2 -->
<g id="edge1_Node000001_Node000002" class="edge">
<title>Node1&#45;&gt;Node2</title>
<g id="a_edge1_Node000001_Node000002"><a xlink:title=" ">
<path fill="none" stroke="#63b8ff" d="M1216.46,-261.28C1210.08,-314.61 1186.24,-463.78 1112,-558.5 947.08,-768.91 605.24,-810.44 436.14,-817.7"/>
<polygon fill="#63b8ff" stroke="#63b8ff" points="1219.96,-261.47 1217.6,-251.14 1213.01,-260.69 1219.96,-261.47"/>
</a>
</g>
</g>
<!-- Node6 -->
<g id="Node000006" class="node">
<title>Node6</title>
<g id="a_Node000006"><a xlink:href="classiii__drone_1_1control_1_1maneuver_1_1FlyToObjectManeuverServer.html#a9d1db79ad2aa3ef72b546c968f20bfed" target="_top" xlink:title="Get updated target reference. Sets the has_failed flag if the target is not visible.">
<polygon fill="white" stroke="#666666" points="1112,-316 921,-316 921,-275 1112,-275 1112,-316"/>
<text text-anchor="start" x="929" y="-304" font-family="Helvetica,sans-Serif" font-size="10.00">iii_drone::control</text>
<text text-anchor="start" x="929" y="-293" font-family="Helvetica,sans-Serif" font-size="10.00">::maneuver::FlyToObjectManeuver</text>
<text text-anchor="middle" x="1016.5" y="-282" font-family="Helvetica,sans-Serif" font-size="10.00">Server::getUpdatedTargetReference</text>
</a>
</g>
</g>
<!-- Node1&#45;&gt;Node6 -->
<g id="edge5_Node000001_Node000006" class="edge">
<title>Node1&#45;&gt;Node6</title>
<g id="a_edge5_Node000001_Node000006"><a xlink:title=" ">
<path fill="none" stroke="#63b8ff" d="M1173.37,-253.63C1149.93,-259.92 1120.66,-267.78 1093.83,-274.99"/>
<polygon fill="#63b8ff" stroke="#63b8ff" points="1174.28,-257 1183.03,-251.03 1172.46,-250.24 1174.28,-257"/>
</a>
</g>
</g>
<!-- Node10 -->
<g id="Node000010" class="node">
<title>Node10</title>
<g id="a_Node000010"><a xlink:href="namespaceiii__drone_1_1math.html#af8c96a0fa3940e1034c8db8425586ba8" target="_top" xlink:title=" ">
<polygon fill="white" stroke="#666666" points="1090,-549 943,-549 943,-530 1090,-530 1090,-549"/>
<text text-anchor="middle" x="1016.5" y="-537" font-family="Helvetica,sans-Serif" font-size="10.00">iii_drone::math::quatToMat</text>
</a>
</g>
</g>
<!-- Node1&#45;&gt;Node10 -->
<g id="edge9_Node000001_Node000010" class="edge">
<title>Node1&#45;&gt;Node10</title>
<g id="a_edge9_Node000001_Node000010"><a xlink:title=" ">
<path fill="none" stroke="#63b8ff" d="M1206.43,-259.8C1186.77,-289.58 1146.54,-350.34 1112,-401.5 1079.34,-449.87 1039.71,-507.36 1024.19,-529.83"/>
<polygon fill="#63b8ff" stroke="#63b8ff" points="1209.47,-261.54 1212.06,-251.27 1203.63,-257.69 1209.47,-261.54"/>
</a>
</g>
</g>
<!-- Node27 -->
<g id="Node000027" class="node">
<title>Node27</title>
<g id="a_Node000027"><a xlink:href="classiii__drone_1_1control_1_1Reference.html#a6c02bfc4464392a48b88dbd302e1a3f6" target="_top" xlink:title=" ">
<polygon fill="white" stroke="#666666" points="1080.5,-256.5 952.5,-256.5 952.5,-226.5 1080.5,-226.5 1080.5,-256.5"/>
<text text-anchor="start" x="960.5" y="-244.5" font-family="Helvetica,sans-Serif" font-size="10.00">iii_drone::control</text>
<text text-anchor="middle" x="1016.5" y="-233.5" font-family="Helvetica,sans-Serif" font-size="10.00">::Reference::Reference</text>
</a>
</g>
</g>
<!-- Node1&#45;&gt;Node27 -->
<g id="edge29_Node000001_Node000027" class="edge">
<title>Node1&#45;&gt;Node27</title>
<g id="a_edge29_Node000001_Node000027"><a xlink:title=" ">
<path fill="none" stroke="#63b8ff" d="M1137.76,-241.5C1118.71,-241.5 1098.67,-241.5 1080.54,-241.5"/>
<polygon fill="#63b8ff" stroke="#63b8ff" points="1137.92,-245 1147.92,-241.5 1137.92,-238 1137.92,-245"/>
</a>
</g>
</g>
<!-- Node28 -->
<g id="Node000028" class="node">
<title>Node28</title>
<g id="a_Node000028"><a xlink:href="classiii__drone_1_1perception_1_1PowerlineDirection.html#a045bf2524790cddf13b531d46d548280" target="_top" xlink:title="Resets the Kalman filter estimates.">
<polygon fill="white" stroke="#666666" points="1074.5,-208 958.5,-208 958.5,-167 1074.5,-167 1074.5,-208"/>
<text text-anchor="start" x="966.5" y="-196" font-family="Helvetica,sans-Serif" font-size="10.00">iii_drone::perception</text>
<text text-anchor="start" x="966.5" y="-185" font-family="Helvetica,sans-Serif" font-size="10.00">::PowerlineDirection</text>
<text text-anchor="middle" x="1016.5" y="-174" font-family="Helvetica,sans-Serif" font-size="10.00">::resetKalmanFilter</text>
</a>
</g>
</g>
<!-- Node1&#45;&gt;Node28 -->
<g id="edge30_Node000001_Node000028" class="edge">
<title>Node1&#45;&gt;Node28</title>
<g id="a_edge30_Node000001_Node000028"><a xlink:title=" ">
<path fill="none" stroke="#63b8ff" d="M1173.12,-229.31C1143.97,-221.48 1105.86,-211.24 1074.66,-202.86"/>
<polygon fill="#63b8ff" stroke="#63b8ff" points="1172.46,-232.76 1183.03,-231.97 1174.28,-226 1172.46,-232.76"/>
</a>
</g>
</g>
<!-- Node32 -->
<g id="Node000032" class="node">
<title>Node32</title>
<g id="a_Node000032"><a xlink:href="classiii__drone_1_1control_1_1State.html#ab56f9d033f57c3815174bf4106b31ac5" target="_top" xlink:title=" ">
<polygon fill="white" stroke="#666666" points="1065.5,-148.5 967.5,-148.5 967.5,-118.5 1065.5,-118.5 1065.5,-148.5"/>
<text text-anchor="start" x="975.5" y="-136.5" font-family="Helvetica,sans-Serif" font-size="10.00">iii_drone::control</text>
<text text-anchor="middle" x="1016.5" y="-125.5" font-family="Helvetica,sans-Serif" font-size="10.00">::State::State</text>
</a>
</g>
</g>
<!-- Node1&#45;&gt;Node32 -->
<g id="edge34_Node000001_Node000032" class="edge">
<title>Node1&#45;&gt;Node32</title>
<g id="a_edge34_Node000001_Node000032"><a xlink:title=" ">
<path fill="none" stroke="#63b8ff" d="M1201.55,-224.68C1181.7,-205.91 1147.07,-175.89 1112,-158.5 1097.71,-151.41 1081.17,-146.16 1065.96,-142.35"/>
<polygon fill="#63b8ff" stroke="#63b8ff" points="1199.24,-227.32 1208.87,-231.74 1204.1,-222.28 1199.24,-227.32"/>
</a>
</g>
</g>
<!-- Node33 -->
<g id="Node000033" class="node">
<title>Node33</title>
<g id="a_Node000033"><a xlink:href="classiii__drone_1_1adapters_1_1px4_1_1TrajectorySetpointAdapter.html#a40190ec04a78561669213dc2ceba176a" target="_top" xlink:title="Constructor from iii_drone::control::State.">
<polygon fill="white" stroke="#666666" points="1103,-100 930,-100 930,-59 1103,-59 1103,-100"/>
<text text-anchor="start" x="938" y="-88" font-family="Helvetica,sans-Serif" font-size="10.00">iii_drone::adapters</text>
<text text-anchor="start" x="938" y="-77" font-family="Helvetica,sans-Serif" font-size="10.00">::px4::TrajectorySetpointAdapter</text>
<text text-anchor="middle" x="1016.5" y="-66" font-family="Helvetica,sans-Serif" font-size="10.00">::TrajectorySetpointAdapter</text>
</a>
</g>
</g>
<!-- Node1&#45;&gt;Node33 -->
<g id="edge35_Node000001_Node000033" class="edge">
<title>Node1&#45;&gt;Node33</title>
<g id="a_edge35_Node000001_Node000033"><a xlink:title=" ">
<path fill="none" stroke="#63b8ff" d="M1208.41,-223.02C1191.94,-194.52 1156.58,-139.97 1112,-109.5 1106.88,-106 1101.34,-102.9 1095.59,-100.14"/>
<polygon fill="#63b8ff" stroke="#63b8ff" points="1205.48,-224.94 1213.44,-231.93 1211.57,-221.5 1205.48,-224.94"/>
</a>
</g>
</g>
<!-- Node34 -->
<g id="Node000034" class="node">
<title>Node34</title>
<g id="a_Node000034"><a xlink:href="classiii__drone_1_1adapters_1_1px4_1_1VehicleOdometryAdapter.html#add458b12c101a10e2ab7d75e46186ea9" target="_top" xlink:title="Updates the object from a new PX4 odometry message.">
<polygon fill="white" stroke="#666666" points="1101,-41 932,-41 932,0 1101,0 1101,-41"/>
<text text-anchor="start" x="940" y="-29" font-family="Helvetica,sans-Serif" font-size="10.00">iii_drone::adapters</text>
<text text-anchor="start" x="940" y="-18" font-family="Helvetica,sans-Serif" font-size="10.00">::px4::VehicleOdometryAdapter</text>
<text text-anchor="middle" x="1016.5" y="-7" font-family="Helvetica,sans-Serif" font-size="10.00">::UpdateFromMsg</text>
</a>
</g>
</g>
<!-- Node1&#45;&gt;Node34 -->
<g id="edge36_Node000001_Node000034" class="edge">
<title>Node1&#45;&gt;Node34</title>
<g id="a_edge36_Node000001_Node000034"><a xlink:title=" ">
<path fill="none" stroke="#63b8ff" d="M1213.04,-221.83C1201.24,-183 1169.68,-96.24 1112,-49.5 1108.13,-46.37 1103.93,-43.57 1099.52,-41.08"/>
<polygon fill="#63b8ff" stroke="#63b8ff" points="1209.8,-223.22 1215.96,-231.84 1216.52,-221.26 1209.8,-223.22"/>
</a>
</g>
</g>
<!-- Node36 -->
<g id="Node000036" class="node">
<title>Node36</title>
<g id="a_Node000036"><a xlink:href="classiii__drone_1_1perception_1_1Powerline.html#a9ee99783c43e6e60f3c8974b40342fcb" target="_top" xlink:title="Updates the projection plane.">
<polygon fill="white" stroke="#666666" points="1096,-392 937,-392 937,-351 1096,-351 1096,-392"/>
<text text-anchor="start" x="945" y="-380" font-family="Helvetica,sans-Serif" font-size="10.00">iii_drone::perception</text>
<text text-anchor="start" x="945" y="-369" font-family="Helvetica,sans-Serif" font-size="10.00">::Powerline::updateProjection</text>
<text text-anchor="middle" x="1016.5" y="-358" font-family="Helvetica,sans-Serif" font-size="10.00">Plane</text>
</a>
</g>
</g>
<!-- Node1&#45;&gt;Node36 -->
<g id="edge38_Node000001_Node000036" class="edge">
<title>Node1&#45;&gt;Node36</title>
<g id="a_edge38_Node000001_Node000036"><a xlink:title=" ">
<path fill="none" stroke="#63b8ff" d="M1200.26,-257.89C1179.74,-275.84 1144.96,-304.82 1112,-325.5 1097.16,-334.81 1080.16,-343.61 1064.71,-350.97"/>
<polygon fill="#63b8ff" stroke="#63b8ff" points="1202.71,-260.4 1207.89,-251.15 1198.08,-255.15 1202.71,-260.4"/>
</a>
</g>
</g>
<!-- Node3 -->
<g id="Node000003" class="node">
<title>Node3</title>
<g id="a_Node000003"><a xlink:href="classiii__drone_1_1control_1_1maneuver_1_1HoverByObjectManeuverServer.html#a8651f18cdc5c9b85ff145c7decac4ddc" target="_top" xlink:title="Computes the hover by object reference for the maneuver server.">
<polygon fill="white" stroke="#666666" points="200,-774 0,-774 0,-733 200,-733 200,-774"/>
<text text-anchor="start" x="8" y="-762" font-family="Helvetica,sans-Serif" font-size="10.00">iii_drone::control</text>
<text text-anchor="start" x="8" y="-751" font-family="Helvetica,sans-Serif" font-size="10.00">::maneuver::HoverByObjectManeuver</text>
<text text-anchor="middle" x="100" y="-740" font-family="Helvetica,sans-Serif" font-size="10.00">Server::computeReference</text>
</a>
</g>
</g>
<!-- Node2&#45;&gt;Node3 -->
<g id="edge2_Node000002_Node000003" class="edge">
<title>Node2&#45;&gt;Node3</title>
<g id="a_edge2_Node000002_Node000003"><a xlink:title=" ">
<path fill="none" stroke="#63b8ff" d="M251.17,-795.21C226.27,-788.3 199.18,-780.77 174.96,-774.04"/>
<polygon fill="#63b8ff" stroke="#63b8ff" points="250.39,-798.63 260.96,-797.93 252.26,-791.88 250.39,-798.63"/>
</a>
</g>
</g>
<!-- Node4 -->
<g id="Node000004" class="node">
<title>Node4</title>
<g id="a_Node000004"><a xlink:href="classiii__drone_1_1control_1_1maneuver_1_1FlyToObjectManeuverServer.html#a8cd7c6981d54cd5aa868f25d843ad0d0" target="_top" xlink:title="Registers the hover by object reference callback on success.">
<polygon fill="white" stroke="#666666" points="198.5,-914.5 1.5,-914.5 1.5,-862.5 198.5,-862.5 198.5,-914.5"/>
<text text-anchor="start" x="9.5" y="-902.5" font-family="Helvetica,sans-Serif" font-size="10.00">iii_drone::control</text>
<text text-anchor="start" x="9.5" y="-891.5" font-family="Helvetica,sans-Serif" font-size="10.00">::maneuver::FlyToObjectManeuver</text>
<text text-anchor="start" x="9.5" y="-880.5" font-family="Helvetica,sans-Serif" font-size="10.00">Server::registerReferenceCallbackOn</text>
<text text-anchor="middle" x="100" y="-869.5" font-family="Helvetica,sans-Serif" font-size="10.00">Success</text>
</a>
</g>
</g>
<!-- Node2&#45;&gt;Node4 -->
<g id="edge3_Node000002_Node000004" class="edge">
<title>Node2&#45;&gt;Node4</title>
<g id="a_edge3_Node000002_Node000004"><a xlink:title=" ">
<path fill="none" stroke="#63b8ff" d="M256.72,-841.92C234.65,-848.52 210.5,-855.74 187.95,-862.49"/>
<polygon fill="#63b8ff" stroke="#63b8ff" points="257.8,-845.25 266.37,-839.03 255.79,-838.54 257.8,-845.25"/>
</a>
</g>
</g>
<!-- Node5 -->
<g id="Node000005" class="node">
<title>Node5</title>
<g id="a_Node000005"><a xlink:href="classiii__drone_1_1control_1_1maneuver_1_1HoverByObjectManeuverServer.html#a42d65b247ee89440e63ed7c992c4772e" target="_top" xlink:title="Registers the hover by object reference callback on success.">
<polygon fill="white" stroke="#666666" points="200,-844.5 0,-844.5 0,-792.5 200,-792.5 200,-844.5"/>
<text text-anchor="start" x="8" y="-832.5" font-family="Helvetica,sans-Serif" font-size="10.00">iii_drone::control</text>
<text text-anchor="start" x="8" y="-821.5" font-family="Helvetica,sans-Serif" font-size="10.00">::maneuver::HoverByObjectManeuver</text>
<text text-anchor="start" x="8" y="-810.5" font-family="Helvetica,sans-Serif" font-size="10.00">Server::registerReferenceCallbackOn</text>
<text text-anchor="middle" x="100" y="-799.5" font-family="Helvetica,sans-Serif" font-size="10.00">Success</text>
</a>
</g>
</g>
<!-- Node2&#45;&gt;Node5 -->
<g id="edge4_Node000002_Node000005" class="edge">
<title>Node2&#45;&gt;Node5</title>
<g id="a_edge4_Node000002_Node000005"><a xlink:title=" ">
<path fill="none" stroke="#63b8ff" d="M225.73,-818.5C217.15,-818.5 208.52,-818.5 200.02,-818.5"/>
<polygon fill="#63b8ff" stroke="#63b8ff" points="225.76,-822 235.76,-818.5 225.76,-815 225.76,-822"/>
</a>
</g>
</g>
<!-- Node7 -->
<g id="Node000007" class="node">
<title>Node7</title>
<g id="a_Node000007"><a xlink:href="classiii__drone_1_1control_1_1maneuver_1_1FlyToObjectManeuverServer.html#a2ace3412e0d42d07a39c553c89ab0c6a" target="_top" xlink:title="Compute the reference.">
<polygon fill="white" stroke="#666666" points="885,-237 701,-237 701,-196 885,-196 885,-237"/>
<text text-anchor="start" x="709" y="-225" font-family="Helvetica,sans-Serif" font-size="10.00">iii_drone::control</text>
<text text-anchor="start" x="709" y="-214" font-family="Helvetica,sans-Serif" font-size="10.00">::maneuver::FlyToObjectManeuver</text>
<text text-anchor="middle" x="793" y="-203" font-family="Helvetica,sans-Serif" font-size="10.00">Server::computeReference</text>
</a>
</g>
</g>
<!-- Node6&#45;&gt;Node7 -->
<g id="edge6_Node000006_Node000007" class="edge">
<title>Node6&#45;&gt;Node7</title>
<g id="a_edge6_Node000006_Node000007"><a xlink:title=" ">
<path fill="none" stroke="#63b8ff" d="M936.35,-271.54C931.12,-269.59 925.96,-267.58 921,-265.5 904.31,-258.51 901.65,-253.58 885,-246.5 877.19,-243.18 868.88,-239.99 860.58,-237.02"/>
<polygon fill="#63b8ff" stroke="#63b8ff" points="935.23,-274.85 945.83,-274.94 937.6,-268.27 935.23,-274.85"/>
</a>
</g>
</g>
<!-- Node8 -->
<g id="Node000008" class="node">
<title>Node8</title>
<g id="a_Node000008"><a xlink:href="classiii__drone_1_1control_1_1maneuver_1_1FlyToObjectManeuverServer.html#aae038a1f6dfe0351d898c874557fb397" target="_top" xlink:title="Whether the maneuver has succeeded, returns true if the drone is within the position tolerance.">
<polygon fill="white" stroke="#666666" points="885,-355 701,-355 701,-314 885,-314 885,-355"/>
<text text-anchor="start" x="709" y="-343" font-family="Helvetica,sans-Serif" font-size="10.00">iii_drone::control</text>
<text text-anchor="start" x="709" y="-332" font-family="Helvetica,sans-Serif" font-size="10.00">::maneuver::FlyToObjectManeuver</text>
<text text-anchor="middle" x="793" y="-321" font-family="Helvetica,sans-Serif" font-size="10.00">Server::hasSucceeded</text>
</a>
</g>
</g>
<!-- Node6&#45;&gt;Node8 -->
<g id="edge7_Node000006_Node000008" class="edge">
<title>Node6&#45;&gt;Node8</title>
<g id="a_edge7_Node000006_Node000008"><a xlink:title=" ">
<path fill="none" stroke="#63b8ff" d="M910.85,-313.93C902.25,-315.44 893.59,-316.96 885.1,-318.46"/>
<polygon fill="#63b8ff" stroke="#63b8ff" points="911.68,-317.33 920.92,-312.15 910.47,-310.44 911.68,-317.33"/>
</a>
</g>
</g>
<!-- Node9 -->
<g id="Node000009" class="node">
<title>Node9</title>
<g id="a_Node000009"><a xlink:href="classiii__drone_1_1control_1_1maneuver_1_1FlyToObjectManeuverServer.html#a207c2c72ecfb7376ef44bd986e00ccce" target="_top" xlink:title="Publishes the feedback.">
<polygon fill="white" stroke="#666666" points="885,-296 701,-296 701,-255 885,-255 885,-296"/>
<text text-anchor="start" x="709" y="-284" font-family="Helvetica,sans-Serif" font-size="10.00">iii_drone::control</text>
<text text-anchor="start" x="709" y="-273" font-family="Helvetica,sans-Serif" font-size="10.00">::maneuver::FlyToObjectManeuver</text>
<text text-anchor="middle" x="793" y="-262" font-family="Helvetica,sans-Serif" font-size="10.00">Server::publishFeedback</text>
</a>
</g>
</g>
<!-- Node6&#45;&gt;Node9 -->
<g id="edge8_Node000006_Node000009" class="edge">
<title>Node6&#45;&gt;Node9</title>
<g id="a_edge8_Node000006_Node000009"><a xlink:title=" ">
<path fill="none" stroke="#63b8ff" d="M910.85,-286.05C902.25,-285.27 893.59,-284.49 885.1,-283.73"/>
<polygon fill="#63b8ff" stroke="#63b8ff" points="910.65,-289.55 920.92,-286.96 911.28,-282.58 910.65,-289.55"/>
</a>
</g>
</g>
<!-- Node11 -->
<g id="Node000011" class="node">
<title>Node11</title>
<g id="a_Node000011"><a xlink:href="classiii__drone_1_1perception_1_1Powerline.html#a07f90dc6a742a7f921e041d3b3734d8b" target="_top" xlink:title="Computes the inter line positions.">
<polygon fill="white" stroke="#666666" points="875,-511 711,-511 711,-470 875,-470 875,-511"/>
<text text-anchor="start" x="719" y="-499" font-family="Helvetica,sans-Serif" font-size="10.00">iii_drone::perception</text>
<text text-anchor="start" x="719" y="-488" font-family="Helvetica,sans-Serif" font-size="10.00">::Powerline::ComputeInterLine</text>
<text text-anchor="middle" x="793" y="-477" font-family="Helvetica,sans-Serif" font-size="10.00">Positions</text>
</a>
</g>
</g>
<!-- Node10&#45;&gt;Node11 -->
<g id="edge10_Node000010_Node000011" class="edge">
<title>Node10&#45;&gt;Node11</title>
<g id="a_edge10_Node000010_Node000011"><a xlink:title=" ">
<path fill="none" stroke="#63b8ff" d="M962.49,-527.77C936.44,-522.01 904.48,-514.94 875.41,-508.51"/>
<polygon fill="#63b8ff" stroke="#63b8ff" points="962.01,-531.25 972.53,-529.99 963.52,-524.42 962.01,-531.25"/>
</a>
</g>
</g>
<!-- Node13 -->
<g id="Node000013" class="node">
<title>Node13</title>
<g id="a_Node000013"><a xlink:href="classiii__drone_1_1perception_1_1pl__mapper__node_1_1PowerlineMapperNode.html#a703ae72ba683ae11154ce597b8bbad9d" target="_top" xlink:title="Constructor.">
<polygon fill="white" stroke="#666666" points="197.5,-485 2.5,-485 2.5,-444 197.5,-444 197.5,-485"/>
<text text-anchor="start" x="10.5" y="-473" font-family="Helvetica,sans-Serif" font-size="10.00">iii_drone::perception</text>
<text text-anchor="start" x="10.5" y="-462" font-family="Helvetica,sans-Serif" font-size="10.00">::pl_mapper_node::Powerline</text>
<text text-anchor="middle" x="100" y="-451" font-family="Helvetica,sans-Serif" font-size="10.00">MapperNode::PowerlineMapperNode</text>
</a>
</g>
</g>
<!-- Node10&#45;&gt;Node13 -->
<g id="edge21_Node000010_Node000013" class="edge">
<title>Node10&#45;&gt;Node13</title>
<g id="a_edge21_Node000010_Node000013"><a xlink:title=" ">
<path fill="none" stroke="#63b8ff" d="M932.81,-538.85C826.16,-537.5 634.99,-533.34 472,-520.5 366.65,-512.2 340.33,-508.32 236,-491.5 223.61,-489.5 210.63,-487.19 197.81,-484.77"/>
<polygon fill="#63b8ff" stroke="#63b8ff" points="932.82,-542.35 942.86,-538.97 932.9,-535.35 932.82,-542.35"/>
</a>
</g>
</g>
<!-- Node14 -->
<g id="Node000014" class="node">
<title>Node14</title>
<g id="a_Node000014"><a xlink:href="namespaceiii__drone_1_1math.html#a7bf2d65f6ca43a8f7a1c5385a29808fe" target="_top" xlink:title=" ">
<polygon fill="white" stroke="#666666" points="881,-597.5 705,-597.5 705,-567.5 881,-567.5 881,-597.5"/>
<text text-anchor="start" x="713" y="-585.5" font-family="Helvetica,sans-Serif" font-size="10.00">iii_drone::math::createTransform</text>
<text text-anchor="middle" x="793" y="-574.5" font-family="Helvetica,sans-Serif" font-size="10.00">Matrix</text>
</a>
</g>
</g>
<!-- Node10&#45;&gt;Node14 -->
<g id="edge13_Node000010_Node000014" class="edge">
<title>Node10&#45;&gt;Node14</title>
<g id="a_edge13_Node000010_Node000014"><a xlink:title=" ">
<path fill="none" stroke="#63b8ff" d="M956.23,-551.01C930.15,-556.07 899.17,-562.08 871.3,-567.49"/>
<polygon fill="#63b8ff" stroke="#63b8ff" points="957.19,-554.38 966.34,-549.04 955.86,-547.51 957.19,-554.38"/>
</a>
</g>
</g>
<!-- Node21 -->
<g id="Node000021" class="node">
<title>Node21</title>
<g id="a_Node000021"><a xlink:href="classiii__drone_1_1perception_1_1SingleLine.html#a07932346f3f532051cf105e92c1a2ed4" target="_top" xlink:title="Runs the Kalman Filter predict step.">
<polygon fill="white" stroke="#666666" points="851,-693.5 735,-693.5 735,-663.5 851,-663.5 851,-693.5"/>
<text text-anchor="start" x="743" y="-681.5" font-family="Helvetica,sans-Serif" font-size="10.00">iii_drone::perception</text>
<text text-anchor="middle" x="793" y="-670.5" font-family="Helvetica,sans-Serif" font-size="10.00">::SingleLine::Predict</text>
</a>
</g>
</g>
<!-- Node10&#45;&gt;Node21 -->
<g id="edge22_Node000010_Node000021" class="edge">
<title>Node10&#45;&gt;Node21</title>
<g id="a_edge22_Node000010_Node000021"><a xlink:title=" ">
<path fill="none" stroke="#63b8ff" d="M1000.72,-556.88C978.29,-582.15 933.11,-628.83 885,-654.5 874.62,-660.04 862.88,-664.36 851.37,-667.71"/>
<polygon fill="#63b8ff" stroke="#63b8ff" points="1003.5,-559.02 1007.43,-549.19 998.22,-554.42 1003.5,-559.02"/>
</a>
</g>
</g>
<!-- Node22 -->
<g id="Node000022" class="node">
<title>Node22</title>
<g id="a_Node000022"><a xlink:href="classiii__drone_1_1perception_1_1Powerline.html#abb9d44570c4decb7fc26620eb2ceb38d" target="_top" xlink:title="Runs the Kalman Filter predict step for all lines.">
<polygon fill="white" stroke="#666666" points="861,-451.5 725,-451.5 725,-421.5 861,-421.5 861,-451.5"/>
<text text-anchor="start" x="733" y="-439.5" font-family="Helvetica,sans-Serif" font-size="10.00">iii_drone::perception</text>
<text text-anchor="middle" x="793" y="-428.5" font-family="Helvetica,sans-Serif" font-size="10.00">::Powerline::predictLines</text>
</a>
</g>
</g>
<!-- Node10&#45;&gt;Node22 -->
<g id="edge23_Node000010_Node000022" class="edge">
<title>Node10&#45;&gt;Node22</title>
<g id="a_edge23_Node000010_Node000022"><a xlink:title=" ">
<path fill="none" stroke="#63b8ff" d="M993.64,-523.91C968.49,-506.57 925.43,-478.76 885,-461.5 876.26,-457.77 866.81,-454.45 857.42,-451.54"/>
<polygon fill="#63b8ff" stroke="#63b8ff" points="991.86,-526.93 1002.06,-529.78 995.86,-521.19 991.86,-526.93"/>
</a>
</g>
</g>
<!-- Node25 -->
<g id="Node000025" class="node">
<title>Node25</title>
<g id="a_Node000025"><a xlink:href="namespaceiii__drone_1_1types.html#a482ee774598db4f38a8b02aa1b956ac3" target="_top" xlink:title=" ">
<polygon fill="white" stroke="#666666" points="866,-645.5 720,-645.5 720,-615.5 866,-615.5 866,-645.5"/>
<text text-anchor="start" x="728" y="-633.5" font-family="Helvetica,sans-Serif" font-size="10.00">iii_drone::types::transform</text>
<text text-anchor="middle" x="793" y="-622.5" font-family="Helvetica,sans-Serif" font-size="10.00">MatrixFromTransformMsg</text>
</a>
</g>
</g>
<!-- Node10&#45;&gt;Node25 -->
<g id="edge27_Node000010_Node000025" class="edge">
<title>Node10&#45;&gt;Node25</title>
<g id="a_edge27_Node000010_Node000025"><a xlink:title=" ">
<path fill="none" stroke="#63b8ff" d="M990.84,-554.21C965.14,-569.05 923.33,-591.8 885,-606.5 876.46,-609.78 867.3,-612.77 858.2,-615.44"/>
<polygon fill="#63b8ff" stroke="#63b8ff" points="992.67,-557.2 999.54,-549.13 989.14,-551.15 992.67,-557.2"/>
</a>
</g>
</g>
<!-- Node12 -->
<g id="Node000012" class="node">
<title>Node12</title>
<g id="a_Node000012"><a xlink:href="classiii__drone_1_1perception_1_1pl__mapper__node_1_1PowerlineMapperNode.html#a155acd1e412911b7e8cf989e949a2e2f" target="_top" xlink:title="Callback for mmwave data topic.">
<polygon fill="white" stroke="#666666" points="655,-511 482,-511 482,-470 655,-470 655,-511"/>
<text text-anchor="start" x="490" y="-499" font-family="Helvetica,sans-Serif" font-size="10.00">iii_drone::perception</text>
<text text-anchor="start" x="490" y="-488" font-family="Helvetica,sans-Serif" font-size="10.00">::pl_mapper_node::Powerline</text>
<text text-anchor="middle" x="568.5" y="-477" font-family="Helvetica,sans-Serif" font-size="10.00">MapperNode::mmWaveCallback</text>
</a>
</g>
</g>
<!-- Node11&#45;&gt;Node12 -->
<g id="edge11_Node000011_Node000012" class="edge">
<title>Node11&#45;&gt;Node12</title>
<g id="a_edge11_Node000011_Node000012"><a xlink:title=" ">
<path fill="none" stroke="#63b8ff" d="M700.43,-490.5C685.41,-490.5 669.9,-490.5 655.04,-490.5"/>
<polygon fill="#63b8ff" stroke="#63b8ff" points="700.73,-494 710.73,-490.5 700.73,-487 700.73,-494"/>
</a>
</g>
</g>
<!-- Node12&#45;&gt;Node13 -->
<g id="edge12_Node000012_Node000013" class="edge">
<title>Node12&#45;&gt;Node13</title>
<g id="a_edge12_Node000012_Node000013"><a xlink:title=" ">
<path fill="none" stroke="#63b8ff" d="M471.85,-485.17C391.79,-480.71 278.06,-474.37 197.7,-469.89"/>
<polygon fill="#63b8ff" stroke="#63b8ff" points="471.76,-488.67 481.94,-485.73 472.15,-481.68 471.76,-488.67"/>
</a>
</g>
</g>
<!-- Node15 -->
<g id="Node000015" class="node">
<title>Node15</title>
<g id="a_Node000015"><a xlink:href="classiii__drone_1_1control_1_1CombinedDroneAwarenessHandler.html#ab9c3e7f08103bc40c70efd3ca93f040b" target="_top" xlink:title="Computes a target transform given a target adapter.">
<polygon fill="white" stroke="#666666" points="665,-662 472,-662 472,-621 665,-621 665,-662"/>
<text text-anchor="start" x="480" y="-650" font-family="Helvetica,sans-Serif" font-size="10.00">iii_drone::control</text>
<text text-anchor="start" x="480" y="-639" font-family="Helvetica,sans-Serif" font-size="10.00">::CombinedDroneAwarenessHandler</text>
<text text-anchor="middle" x="568.5" y="-628" font-family="Helvetica,sans-Serif" font-size="10.00">::ComputeTargetTransform</text>
</a>
</g>
</g>
<!-- Node14&#45;&gt;Node15 -->
<g id="edge14_Node000014_Node000015" class="edge">
<title>Node14&#45;&gt;Node15</title>
<g id="a_edge14_Node000014_Node000015"><a xlink:title=" ">
<path fill="none" stroke="#63b8ff" d="M724.93,-600.17C716.87,-602.3 708.75,-604.45 701,-606.5 683.42,-611.16 664.51,-616.18 646.68,-620.93"/>
<polygon fill="#63b8ff" stroke="#63b8ff" points="725.94,-603.52 734.71,-597.59 724.15,-596.76 725.94,-603.52"/>
</a>
</g>
</g>
<!-- Node15&#45;&gt;Node2 -->
<g id="edge17_Node000015_Node000002" class="edge">
<title>Node15&#45;&gt;Node2</title>
<g id="a_edge17_Node000015_Node000002"><a xlink:title=" ">
<path fill="none" stroke="#63b8ff" d="M475.32,-668.38C474.18,-669.38 473.07,-670.42 472,-671.5 433.39,-710.43 474.99,-750.95 436,-789.5 432.82,-792.65 429.31,-795.46 425.58,-797.97"/>
<polygon fill="#63b8ff" stroke="#63b8ff" points="477.49,-671.12 483.33,-662.28 473.25,-665.55 477.49,-671.12"/>
</a>
</g>
</g>
<!-- Node16 -->
<g id="Node000016" class="node">
<title>Node16</title>
<g id="a_Node000016"><a xlink:href="classiii__drone_1_1control_1_1maneuver_1_1FlyToObjectManeuverServer.html#a7a9d2b2d6d91f20491eab552a16f9955" target="_top" xlink:title="Whether the maneuver can be executed.">
<polygon fill="white" stroke="#666666" points="428,-721 244,-721 244,-680 428,-680 428,-721"/>
<text text-anchor="start" x="252" y="-709" font-family="Helvetica,sans-Serif" font-size="10.00">iii_drone::control</text>
<text text-anchor="start" x="252" y="-698" font-family="Helvetica,sans-Serif" font-size="10.00">::maneuver::FlyToObjectManeuver</text>
<text text-anchor="middle" x="336" y="-687" font-family="Helvetica,sans-Serif" font-size="10.00">Server::CanExecuteManeuver</text>
</a>
</g>
</g>
<!-- Node15&#45;&gt;Node16 -->
<g id="edge15_Node000015_Node000016" class="edge">
<title>Node15&#45;&gt;Node16</title>
<g id="a_edge15_Node000015_Node000016"><a xlink:title=" ">
<path fill="none" stroke="#63b8ff" d="M477.29,-664.59C457.53,-669.65 436.74,-674.97 417.4,-679.92"/>
<polygon fill="#63b8ff" stroke="#63b8ff" points="478.39,-667.92 487.21,-662.05 476.65,-661.14 478.39,-667.92"/>
</a>
</g>
</g>
<!-- Node17 -->
<g id="Node000017" class="node">
<title>Node17</title>
<g id="a_Node000017"><a xlink:href="classiii__drone_1_1control_1_1maneuver_1_1HoverByObjectManeuverServer.html#a43a1bd4911d8cb93397ab2eeabd61ee4" target="_top" xlink:title="Whether the maneuver can be executed, will return false if the target is not visible or the drone has...">
<polygon fill="white" stroke="#666666" points="436,-662 236,-662 236,-621 436,-621 436,-662"/>
<text text-anchor="start" x="244" y="-650" font-family="Helvetica,sans-Serif" font-size="10.00">iii_drone::control</text>
<text text-anchor="start" x="244" y="-639" font-family="Helvetica,sans-Serif" font-size="10.00">::maneuver::HoverByObjectManeuver</text>
<text text-anchor="middle" x="336" y="-628" font-family="Helvetica,sans-Serif" font-size="10.00">Server::CanExecuteManeuver</text>
</a>
</g>
</g>
<!-- Node15&#45;&gt;Node17 -->
<g id="edge16_Node000015_Node000017" class="edge">
<title>Node15&#45;&gt;Node17</title>
<g id="a_edge16_Node000015_Node000017"><a xlink:title=" ">
<path fill="none" stroke="#63b8ff" d="M461.5,-641.5C453.06,-641.5 444.56,-641.5 436.17,-641.5"/>
<polygon fill="#63b8ff" stroke="#63b8ff" points="461.75,-645 471.75,-641.5 461.75,-638 461.75,-645"/>
</a>
</g>
</g>
<!-- Node18 -->
<g id="Node000018" class="node">
<title>Node18</title>
<g id="a_Node000018"><a xlink:href="classiii__drone_1_1control_1_1maneuver_1_1HoverByObjectManeuverServer.html#a7e09c4b73237e76701d9e83785e05077" target="_top" xlink:title="Returns true if the maneuver has succeeded. Has succeeded if the target is visible and the drone is w...">
<polygon fill="white" stroke="#666666" points="436,-603 236,-603 236,-562 436,-562 436,-603"/>
<text text-anchor="start" x="244" y="-591" font-family="Helvetica,sans-Serif" font-size="10.00">iii_drone::control</text>
<text text-anchor="start" x="244" y="-580" font-family="Helvetica,sans-Serif" font-size="10.00">::maneuver::HoverByObjectManeuver</text>
<text text-anchor="middle" x="336" y="-569" font-family="Helvetica,sans-Serif" font-size="10.00">Server::hasSucceeded</text>
</a>
</g>
</g>
<!-- Node15&#45;&gt;Node18 -->
<g id="edge18_Node000015_Node000018" class="edge">
<title>Node15&#45;&gt;Node18</title>
<g id="a_edge18_Node000015_Node000018"><a xlink:title=" ">
<path fill="none" stroke="#63b8ff" d="M477.29,-618.41C457.53,-613.35 436.74,-608.03 417.4,-603.08"/>
<polygon fill="#63b8ff" stroke="#63b8ff" points="476.65,-621.86 487.21,-620.95 478.39,-615.08 476.65,-621.86"/>
</a>
</g>
</g>
<!-- Node20 -->
<g id="Node000020" class="node">
<title>Node20</title>
<g id="a_Node000020"><a xlink:href="classiii__drone_1_1control_1_1maneuver_1_1HoverByObjectManeuverServer.html#ac08b547da2cbfe0165a2ccca6b639c02" target="_top" xlink:title="Updates the hover reference.">
<polygon fill="white" stroke="#666666" points="436,-780 236,-780 236,-739 436,-739 436,-780"/>
<text text-anchor="start" x="244" y="-768" font-family="Helvetica,sans-Serif" font-size="10.00">iii_drone::control</text>
<text text-anchor="start" x="244" y="-757" font-family="Helvetica,sans-Serif" font-size="10.00">::maneuver::HoverByObjectManeuver</text>
<text text-anchor="middle" x="336" y="-746" font-family="Helvetica,sans-Serif" font-size="10.00">Server::Update</text>
</a>
</g>
</g>
<!-- Node15&#45;&gt;Node20 -->
<g id="edge20_Node000015_Node000020" class="edge">
<title>Node15&#45;&gt;Node20</title>
<g id="a_edge20_Node000015_Node000020"><a xlink:title=" ">
<path fill="none" stroke="#63b8ff" d="M477.7,-667.4C475.74,-668.7 473.84,-670.06 472,-671.5 447.8,-690.42 460.38,-711.81 436,-730.5 431.88,-733.66 427.42,-736.48 422.75,-738.98"/>
<polygon fill="#63b8ff" stroke="#63b8ff" points="479.82,-670.21 486.64,-662.09 476.25,-664.19 479.82,-670.21"/>
</a>
</g>
</g>
<!-- Node19 -->
<g id="Node000019" class="node">
<title>Node19</title>
<g id="a_Node000019"><a xlink:href="classiii__drone_1_1control_1_1maneuver_1_1HoverByObjectManeuverServer.html#af8528504b83c4c9b405f496ccc269e10" target="_top" xlink:title="Returns true if the maneuver has failed. Has failed if the target is not visible or the drone has dri...">
<polygon fill="white" stroke="#666666" points="200,-603 0,-603 0,-562 200,-562 200,-603"/>
<text text-anchor="start" x="8" y="-591" font-family="Helvetica,sans-Serif" font-size="10.00">iii_drone::control</text>
<text text-anchor="start" x="8" y="-580" font-family="Helvetica,sans-Serif" font-size="10.00">::maneuver::HoverByObjectManeuver</text>
<text text-anchor="middle" x="100" y="-569" font-family="Helvetica,sans-Serif" font-size="10.00">Server::hasFailed</text>
</a>
</g>
</g>
<!-- Node18&#45;&gt;Node19 -->
<g id="edge19_Node000018_Node000019" class="edge">
<title>Node18&#45;&gt;Node19</title>
<g id="a_edge19_Node000018_Node000019"><a xlink:title=" ">
<path fill="none" stroke="#63b8ff" d="M225.73,-582.5C217.15,-582.5 208.52,-582.5 200.02,-582.5"/>
<polygon fill="#63b8ff" stroke="#63b8ff" points="225.76,-586 235.76,-582.5 225.76,-579 225.76,-586"/>
</a>
</g>
</g>
<!-- Node23 -->
<g id="Node000023" class="node">
<title>Node23</title>
<g id="a_Node000023"><a xlink:href="classiii__drone_1_1perception_1_1Powerline.html#ae0f6a983c3039c6a41bda6258ec2b70d" target="_top" xlink:title="Updates the powerline from odometry.">
<polygon fill="white" stroke="#666666" points="649,-451.5 488,-451.5 488,-421.5 649,-421.5 649,-451.5"/>
<text text-anchor="start" x="496" y="-439.5" font-family="Helvetica,sans-Serif" font-size="10.00">iii_drone::perception</text>
<text text-anchor="middle" x="568.5" y="-428.5" font-family="Helvetica,sans-Serif" font-size="10.00">::Powerline::UpdateOdometry</text>
</a>
</g>
</g>
<!-- Node22&#45;&gt;Node23 -->
<g id="edge24_Node000022_Node000023" class="edge">
<title>Node22&#45;&gt;Node23</title>
<g id="a_edge24_Node000022_Node000023"><a xlink:title=" ">
<path fill="none" stroke="#63b8ff" d="M714.72,-436.5C693.59,-436.5 670.64,-436.5 649.36,-436.5"/>
<polygon fill="#63b8ff" stroke="#63b8ff" points="714.94,-440 724.94,-436.5 714.94,-433 714.94,-440"/>
</a>
</g>
</g>
<!-- Node24 -->
<g id="Node000024" class="node">
<title>Node24</title>
<g id="a_Node000024"><a xlink:href="classiii__drone_1_1perception_1_1pl__mapper__node_1_1PowerlineMapperNode.html#ae98c3a40fb32f1305c1528467205ba33" target="_top" xlink:title="Callback for fetching drone transform.">
<polygon fill="white" stroke="#666666" points="423,-458 249,-458 249,-417 423,-417 423,-458"/>
<text text-anchor="start" x="257" y="-446" font-family="Helvetica,sans-Serif" font-size="10.00">iii_drone::perception</text>
<text text-anchor="start" x="257" y="-435" font-family="Helvetica,sans-Serif" font-size="10.00">::pl_mapper_node::Powerline</text>
<text text-anchor="middle" x="336" y="-424" font-family="Helvetica,sans-Serif" font-size="10.00">MapperNode::odometryCallback</text>
</a>
</g>
</g>
<!-- Node23&#45;&gt;Node24 -->
<g id="edge25_Node000023_Node000024" class="edge">
<title>Node23&#45;&gt;Node24</title>
<g id="a_edge25_Node000023_Node000024"><a xlink:title=" ">
<path fill="none" stroke="#63b8ff" d="M477.48,-436.89C459.67,-436.97 441.02,-437.05 423.34,-437.13"/>
<polygon fill="#63b8ff" stroke="#63b8ff" points="477.87,-440.39 487.85,-436.85 477.84,-433.39 477.87,-440.39"/>
</a>
</g>
</g>
<!-- Node24&#45;&gt;Node13 -->
<g id="edge26_Node000024_Node000013" class="edge">
<title>Node24&#45;&gt;Node13</title>
<g id="a_edge26_Node000024_Node000013"><a xlink:title=" ">
<path fill="none" stroke="#63b8ff" d="M238.6,-448.62C225.07,-450.18 211.15,-451.79 197.61,-453.35"/>
<polygon fill="#63b8ff" stroke="#63b8ff" points="239.33,-452.06 248.86,-447.44 238.53,-445.11 239.33,-452.06"/>
</a>
</g>
</g>
<!-- Node26 -->
<g id="Node000026" class="node">
<title>Node26</title>
<g id="a_Node000026"><a xlink:href="classiii__drone_1_1adapters_1_1TargetAdapter.html#a4586b89087cb668da59079766129b222" target="_top" xlink:title="Constructor from msg.">
<polygon fill="white" stroke="#666666" points="651,-710.5 486,-710.5 486,-680.5 651,-680.5 651,-710.5"/>
<text text-anchor="start" x="494" y="-698.5" font-family="Helvetica,sans-Serif" font-size="10.00">iii_drone::adapters</text>
<text text-anchor="middle" x="568.5" y="-687.5" font-family="Helvetica,sans-Serif" font-size="10.00">::TargetAdapter::TargetAdapter</text>
</a>
</g>
</g>
<!-- Node25&#45;&gt;Node26 -->
<g id="edge28_Node000025_Node000026" class="edge">
<title>Node25&#45;&gt;Node26</title>
<g id="a_edge28_Node000025_Node000026"><a xlink:title=" ">
<path fill="none" stroke="#63b8ff" d="M719.14,-648.44C712.96,-650.34 706.84,-652.37 701,-654.5 684.38,-660.56 681.66,-665.54 665,-671.5 655.83,-674.78 646,-677.79 636.27,-680.49"/>
<polygon fill="#63b8ff" stroke="#63b8ff" points="720.29,-651.75 728.88,-645.54 718.29,-645.04 720.29,-651.75"/>
</a>
</g>
</g>
<!-- Node29 -->
<g id="Node000029" class="node">
<title>Node29</title>
<g id="a_Node000029"><a xlink:href="classiii__drone_1_1perception_1_1PowerlineDirection.html#a896518120e987d3be288e56dd34410b9" target="_top" xlink:title="Default constructor.">
<polygon fill="white" stroke="#666666" points="851,-178 735,-178 735,-137 851,-137 851,-178"/>
<text text-anchor="start" x="743" y="-166" font-family="Helvetica,sans-Serif" font-size="10.00">iii_drone::perception</text>
<text text-anchor="start" x="743" y="-155" font-family="Helvetica,sans-Serif" font-size="10.00">::PowerlineDirection</text>
<text text-anchor="middle" x="793" y="-144" font-family="Helvetica,sans-Serif" font-size="10.00">::PowerlineDirection</text>
</a>
</g>
</g>
<!-- Node28&#45;&gt;Node29 -->
<g id="edge31_Node000028_Node000029" class="edge">
<title>Node28&#45;&gt;Node29</title>
<g id="a_edge31_Node000028_Node000029"><a xlink:title=" ">
<path fill="none" stroke="#63b8ff" d="M948.18,-178.38C917.21,-174.19 880.86,-169.26 851.23,-165.25"/>
<polygon fill="#63b8ff" stroke="#63b8ff" points="948.08,-181.9 958.46,-179.77 949.02,-174.96 948.08,-181.9"/>
</a>
</g>
</g>
<!-- Node30 -->
<g id="Node000030" class="node">
<title>Node30</title>
<g id="a_Node000030"><a xlink:href="classiii__drone_1_1perception_1_1PowerlineDirection.html#a15ab1216adf0aff5c7be05e851c70040" target="_top" xlink:title="Runs the Kalman Filter update step from an observed yaw angle.">
<polygon fill="white" stroke="#666666" points="851,-119 735,-119 735,-78 851,-78 851,-119"/>
<text text-anchor="start" x="743" y="-107" font-family="Helvetica,sans-Serif" font-size="10.00">iii_drone::perception</text>
<text text-anchor="start" x="743" y="-96" font-family="Helvetica,sans-Serif" font-size="10.00">::PowerlineDirection</text>
<text text-anchor="middle" x="793" y="-85" font-family="Helvetica,sans-Serif" font-size="10.00">::Update</text>
</a>
</g>
</g>
<!-- Node28&#45;&gt;Node30 -->
<g id="edge32_Node000028_Node000030" class="edge">
<title>Node28&#45;&gt;Node30</title>
<g id="a_edge32_Node000028_Node000030"><a xlink:title=" ">
<path fill="none" stroke="#63b8ff" d="M948.64,-169.71C939.12,-166.2 929.64,-162.14 921,-157.5 902.9,-147.78 903.05,-138.32 885,-128.5 874.48,-122.78 862.68,-117.9 851.15,-113.84"/>
<polygon fill="#63b8ff" stroke="#63b8ff" points="947.54,-173.04 958.14,-173.04 949.86,-166.43 947.54,-173.04"/>
</a>
</g>
</g>
<!-- Node31 -->
<g id="Node000031" class="node">
<title>Node31</title>
<g id="a_Node000031"><a xlink:href="classiii__drone_1_1perception_1_1pl__dir__computer__node_1_1PowerlineDirectionComputerNode.html#a7d69d952785cf09e8cd381bd624480f2" target="_top" xlink:title="Construct a new Powerline Direction Computer Node object.">
<polygon fill="white" stroke="#666666" points="662.5,-124.5 474.5,-124.5 474.5,-72.5 662.5,-72.5 662.5,-124.5"/>
<text text-anchor="start" x="482.5" y="-112.5" font-family="Helvetica,sans-Serif" font-size="10.00">iii_drone::perception</text>
<text text-anchor="start" x="482.5" y="-101.5" font-family="Helvetica,sans-Serif" font-size="10.00">::pl_dir_computer_node</text>
<text text-anchor="start" x="482.5" y="-90.5" font-family="Helvetica,sans-Serif" font-size="10.00">::PowerlineDirectionComputerNode</text>
<text text-anchor="middle" x="568.5" y="-79.5" font-family="Helvetica,sans-Serif" font-size="10.00">::PowerlineDirectionComputerNode</text>
</a>
</g>
</g>
<!-- Node30&#45;&gt;Node31 -->
<g id="edge33_Node000030_Node000031" class="edge">
<title>Node30&#45;&gt;Node31</title>
<g id="a_edge33_Node000030_Node000031"><a xlink:title=" ">
<path fill="none" stroke="#63b8ff" d="M724.95,-98.5C705.35,-98.5 683.56,-98.5 662.64,-98.5"/>
<polygon fill="#63b8ff" stroke="#63b8ff" points="724.99,-102 734.99,-98.5 724.99,-95 724.99,-102"/>
</a>
</g>
</g>
<!-- Node35 -->
<g id="Node000035" class="node">
<title>Node35</title>
<g id="a_Node000035"><a xlink:href="classiii__drone_1_1adapters_1_1px4_1_1VehicleOdometryAdapter.html#a85fa7bce8bfbef3bc55befb8b8c510f7" target="_top" xlink:title=" ">
<polygon fill="white" stroke="#666666" points="877.5,-41 708.5,-41 708.5,0 877.5,0 877.5,-41"/>
<text text-anchor="start" x="716.5" y="-29" font-family="Helvetica,sans-Serif" font-size="10.00">iii_drone::adapters</text>
<text text-anchor="start" x="716.5" y="-18" font-family="Helvetica,sans-Serif" font-size="10.00">::px4::VehicleOdometryAdapter</text>
<text text-anchor="middle" x="793" y="-7" font-family="Helvetica,sans-Serif" font-size="10.00">::VehicleOdometryAdapter</text>
</a>
</g>
</g>
<!-- Node34&#45;&gt;Node35 -->
<g id="edge37_Node000034_Node000035" class="edge">
<title>Node34&#45;&gt;Node35</title>
<g id="a_edge37_Node000034_Node000035"><a xlink:title=" ">
<path fill="none" stroke="#63b8ff" d="M921.75,-20.5C907.17,-20.5 892.2,-20.5 877.86,-20.5"/>
<polygon fill="#63b8ff" stroke="#63b8ff" points="921.76,-24 931.76,-20.5 921.76,-17 921.76,-24"/>
</a>
</g>
</g>
<!-- Node37 -->
<g id="Node000037" class="node">
<title>Node37</title>
<g id="a_Node000037"><a xlink:href="classiii__drone_1_1perception_1_1Powerline.html#ac0f0ef699ab1cca6ab024e2f9549ce8e" target="_top" xlink:title="Updates the powerline direction and updates the projection plane.">
<polygon fill="white" stroke="#666666" points="871,-403.5 715,-403.5 715,-373.5 871,-373.5 871,-403.5"/>
<text text-anchor="start" x="723" y="-391.5" font-family="Helvetica,sans-Serif" font-size="10.00">iii_drone::perception</text>
<text text-anchor="middle" x="793" y="-380.5" font-family="Helvetica,sans-Serif" font-size="10.00">::Powerline::UpdateDirection</text>
</a>
</g>
</g>
<!-- Node36&#45;&gt;Node37 -->
<g id="edge39_Node000036_Node000037" class="edge">
<title>Node36&#45;&gt;Node37</title>
<g id="a_edge39_Node000036_Node000037"><a xlink:title=" ">
<path fill="none" stroke="#63b8ff" d="M926.7,-378.32C908.38,-379.72 889.22,-381.19 871.35,-382.56"/>
<polygon fill="#63b8ff" stroke="#63b8ff" points="927.08,-381.8 936.78,-377.54 926.55,-374.82 927.08,-381.8"/>
</a>
</g>
</g>
<!-- Node38 -->
<g id="Node000038" class="node">
<title>Node38</title>
<g id="a_Node000038"><a xlink:href="classiii__drone_1_1perception_1_1pl__mapper__node_1_1PowerlineMapperNode.html#a18e832f380107069f279ecf1203f3f16" target="_top" xlink:title="Callback for powerline direction topic.">
<polygon fill="white" stroke="#666666" points="658.5,-403 478.5,-403 478.5,-362 658.5,-362 658.5,-403"/>
<text text-anchor="start" x="486.5" y="-391" font-family="Helvetica,sans-Serif" font-size="10.00">iii_drone::perception</text>
<text text-anchor="start" x="486.5" y="-380" font-family="Helvetica,sans-Serif" font-size="10.00">::pl_mapper_node::Powerline</text>
<text text-anchor="middle" x="568.5" y="-369" font-family="Helvetica,sans-Serif" font-size="10.00">MapperNode::plDirectionCallback</text>
</a>
</g>
</g>
<!-- Node37&#45;&gt;Node38 -->
<g id="edge40_Node000037_Node000038" class="edge">
<title>Node37&#45;&gt;Node38</title>
<g id="a_edge40_Node000037_Node000038"><a xlink:title=" ">
<path fill="none" stroke="#63b8ff" d="M704.51,-386.14C689.49,-385.74 673.85,-385.31 658.78,-384.91"/>
<polygon fill="#63b8ff" stroke="#63b8ff" points="704.71,-389.65 714.8,-386.42 704.9,-382.65 704.71,-389.65"/>
</a>
</g>
</g>
<!-- Node38&#45;&gt;Node13 -->
<g id="edge41_Node000038_Node000013" class="edge">
<title>Node38&#45;&gt;Node13</title>
<g id="a_edge41_Node000038_Node000013"><a xlink:title=" ">
<path fill="none" stroke="#63b8ff" d="M468.31,-382.18C401.77,-383.93 312.62,-390.1 236,-408.5 202.94,-416.44 167.5,-431.41 141.23,-443.88"/>
<polygon fill="#63b8ff" stroke="#63b8ff" points="468.46,-385.67 478.38,-381.94 468.3,-378.68 468.46,-385.67"/>
</a>
</g>
</g>
</g>
</svg>
