<?xml version="1.0" encoding="UTF-8" standalone="no"?>
<!DOCTYPE svg PUBLIC "-//W3C//DTD SVG 1.1//EN"
 "http://www.w3.org/Graphics/SVG/1.1/DTD/svg11.dtd">
<!-- Generated by graphviz version 2.43.0 (0)
 -->
<!-- Title: pos_MPC::coder::mpcmoveCodeGeneration Pages: 1 -->
<svg width="987pt" height="60pt"
 viewBox="0.00 0.00 987.00 60.00" xmlns="http://www.w3.org/2000/svg" xmlns:xlink="http://www.w3.org/1999/xlink">
<g id="graph0" class="graph" transform="scale(1 1) rotate(0) translate(4 56)">
<title>pos_MPC::coder::mpcmoveCodeGeneration</title>
<!-- Node1 -->
<g id="Node000001" class="node">
<title>Node1</title>
<g id="a_Node000001"><a xlink:title=" ">
<polygon fill="#999999" stroke="#666666" points="979,-41 806,-41 806,-11 979,-11 979,-41"/>
<text text-anchor="start" x="814" y="-29" font-family="Helvetica,sans-Serif" font-size="10.00">pos_MPC::coder::mpcmoveCode</text>
<text text-anchor="middle" x="892.5" y="-18" font-family="Helvetica,sans-Serif" font-size="10.00">Generation</text>
</a>
</g>
</g>
<!-- Node2 -->
<g id="Node000002" class="node">
<title>Node2</title>
<g id="a_Node000002"><a xlink:href="classiii__drone_1_1control_1_1TrajectoryGenerator.html#a921e7f325aa43cacaa43341da8e34926" target="_top" xlink:title="Runs the actual MPC one step.">
<polygon fill="white" stroke="#666666" points="770,-46.5 651,-46.5 651,-5.5 770,-5.5 770,-46.5"/>
<text text-anchor="start" x="659" y="-34.5" font-family="Helvetica,sans-Serif" font-size="10.00">iii_drone::control</text>
<text text-anchor="start" x="659" y="-23.5" font-family="Helvetica,sans-Serif" font-size="10.00">::TrajectoryGenerator</text>
<text text-anchor="middle" x="710.5" y="-12.5" font-family="Helvetica,sans-Serif" font-size="10.00">::stepMPC</text>
</a>
</g>
</g>
<!-- Node1&#45;&gt;Node2 -->
<g id="edge1_Node000001_Node000002" class="edge">
<title>Node1&#45;&gt;Node2</title>
<g id="a_edge1_Node000001_Node000002"><a xlink:title=" ">
<path fill="none" stroke="#63b8ff" d="M795.72,-26C786.99,-26 778.33,-26 770.08,-26"/>
<polygon fill="#63b8ff" stroke="#63b8ff" points="795.98,-29.5 805.98,-26 795.98,-22.5 795.98,-29.5"/>
</a>
</g>
</g>
<!-- Node3 -->
<g id="Node000003" class="node">
<title>Node3</title>
<g id="a_Node000003"><a xlink:href="classiii__drone_1_1control_1_1TrajectoryGenerator.html#a78eab9ed7ef8b604e5753192fbf8561b" target="_top" xlink:title="Computes the reference trajectory for the MPC.">
<polygon fill="white" stroke="#666666" points="615,-46.5 451,-46.5 451,-5.5 615,-5.5 615,-46.5"/>
<text text-anchor="start" x="459" y="-34.5" font-family="Helvetica,sans-Serif" font-size="10.00">iii_drone::control</text>
<text text-anchor="start" x="459" y="-23.5" font-family="Helvetica,sans-Serif" font-size="10.00">::TrajectoryGenerator</text>
<text text-anchor="middle" x="533" y="-12.5" font-family="Helvetica,sans-Serif" font-size="10.00">::ComputeReferenceTrajectory</text>
</a>
</g>
</g>
<!-- Node2&#45;&gt;Node3 -->
<g id="edge2_Node000002_Node000003" class="edge">
<title>Node2&#45;&gt;Node3</title>
<g id="a_edge2_Node000002_Node000003"><a xlink:title=" ">
<path fill="none" stroke="#63b8ff" d="M640.57,-26C632.25,-26 623.7,-26 615.23,-26"/>
<polygon fill="#63b8ff" stroke="#63b8ff" points="640.57,-29.5 650.57,-26 640.57,-22.5 640.57,-29.5"/>
</a>
</g>
</g>
<!-- Node4 -->
<g id="Node000004" class="node">
<title>Node4</title>
<g id="a_Node000004"><a xlink:href="classiii__drone_1_1control_1_1trajectory__generator__node_1_1TrajectoryGeneratorNode.html#aefc447399b185fef5b912770b5059936" target="_top" xlink:title="The compute reference trajectory service callback.">
<polygon fill="white" stroke="#666666" points="415,-52 210,-52 210,0 415,0 415,-52"/>
<text text-anchor="start" x="218" y="-40" font-family="Helvetica,sans-Serif" font-size="10.00">iii_drone::control</text>
<text text-anchor="start" x="218" y="-29" font-family="Helvetica,sans-Serif" font-size="10.00">::trajectory_generator</text>
<text text-anchor="start" x="218" y="-18" font-family="Helvetica,sans-Serif" font-size="10.00">_node::TrajectoryGeneratorNode</text>
<text text-anchor="middle" x="312.5" y="-7" font-family="Helvetica,sans-Serif" font-size="10.00">::computeReferenceTrajectoryCallback</text>
</a>
</g>
</g>
<!-- Node3&#45;&gt;Node4 -->
<g id="edge3_Node000003_Node000004" class="edge">
<title>Node3&#45;&gt;Node4</title>
<g id="a_edge3_Node000003_Node000004"><a xlink:title=" ">
<path fill="none" stroke="#63b8ff" d="M440.74,-26C432.29,-26 423.7,-26 415.17,-26"/>
<polygon fill="#63b8ff" stroke="#63b8ff" points="440.95,-29.5 450.95,-26 440.95,-22.5 440.95,-29.5"/>
</a>
</g>
</g>
<!-- Node5 -->
<g id="Node000005" class="node">
<title>Node5</title>
<g id="a_Node000005"><a xlink:href="classiii__drone_1_1control_1_1trajectory__generator__node_1_1TrajectoryGeneratorNode.html#ac58d9ceab1e2ecc71cb971a5f360bc00" target="_top" xlink:title=" ">
<polygon fill="white" stroke="#666666" points="174,-52 0,-52 0,0 174,0 174,-52"/>
<text text-anchor="start" x="8" y="-40" font-family="Helvetica,sans-Serif" font-size="10.00">iii_drone::control</text>
<text text-anchor="start" x="8" y="-29" font-family="Helvetica,sans-Serif" font-size="10.00">::trajectory_generator</text>
<text text-anchor="start" x="8" y="-18" font-family="Helvetica,sans-Serif" font-size="10.00">_node::TrajectoryGeneratorNode</text>
<text text-anchor="middle" x="87" y="-7" font-family="Helvetica,sans-Serif" font-size="10.00">::TrajectoryGeneratorNode</text>
</a>
</g>
</g>
<!-- Node4&#45;&gt;Node5 -->
<g id="edge4_Node000004_Node000005" class="edge">
<title>Node4&#45;&gt;Node5</title>
<g id="a_edge4_Node000004_Node000005"><a xlink:title=" ">
<path fill="none" stroke="#63b8ff" d="M199.84,-26C191.27,-26 182.7,-26 174.34,-26"/>
<polygon fill="#63b8ff" stroke="#63b8ff" points="199.89,-29.5 209.89,-26 199.89,-22.5 199.89,-29.5"/>
</a>
</g>
</g>
</g>
</svg>
