<?xml version="1.0" encoding="UTF-8" standalone="no"?>
<!DOCTYPE svg PUBLIC "-//W3C//DTD SVG 1.1//EN"
 "http://www.w3.org/Graphics/SVG/1.1/DTD/svg11.dtd">
<!-- Generated by graphviz version 2.43.0 (0)
 -->
<!-- Title: /home/ffn/Workspace/ros2_humble_ws/src/III&#45;Drone&#45;Core/include/iii_drone_core/perception/pl_dir_computer_node/pl_dir_computer_node_configurator.hpp Pages: 1 -->
<svg width="1029pt" height="214pt"
 viewBox="0.00 0.00 1028.50 214.00" xmlns="http://www.w3.org/2000/svg" xmlns:xlink="http://www.w3.org/1999/xlink">
<g id="graph0" class="graph" transform="scale(1 1) rotate(0) translate(4 210)">
<title>/home/ffn/Workspace/ros2_humble_ws/src/III&#45;Drone&#45;Core/include/iii_drone_core/perception/pl_dir_computer_node/pl_dir_computer_node_configurator.hpp</title>
<!-- Node1 -->
<g id="Node000001" class="node">
<title>Node1</title>
<g id="a_Node000001"><a xlink:title=" ">
<polygon fill="#999999" stroke="#666666" points="691.5,-206 509.5,-206 509.5,-132 691.5,-132 691.5,-206"/>
<text text-anchor="start" x="517.5" y="-194" font-family="Helvetica,sans-Serif" font-size="10.00">/home/ffn/Workspace</text>
<text text-anchor="start" x="517.5" y="-183" font-family="Helvetica,sans-Serif" font-size="10.00">/ros2_humble_ws/src</text>
<text text-anchor="start" x="517.5" y="-172" font-family="Helvetica,sans-Serif" font-size="10.00">/III&#45;Drone&#45;Core/include</text>
<text text-anchor="start" x="517.5" y="-161" font-family="Helvetica,sans-Serif" font-size="10.00">/iii_drone_core/perception</text>
<text text-anchor="start" x="517.5" y="-150" font-family="Helvetica,sans-Serif" font-size="10.00">/pl_dir_computer_node/pl_dir</text>
<text text-anchor="middle" x="600.5" y="-139" font-family="Helvetica,sans-Serif" font-size="10.00">_computer_node_configurator.hpp</text>
</a>
</g>
</g>
<!-- Node2 -->
<g id="Node000002" class="node">
<title>Node2</title>
<g id="a_Node000002"><a xlink:href="configurator_8hpp.html" target="_top" xlink:title=" ">
<polygon fill="white" stroke="#666666" points="580.5,-96 428.5,-96 428.5,-66 580.5,-66 580.5,-96"/>
<text text-anchor="start" x="436.5" y="-84" font-family="Helvetica,sans-Serif" font-size="10.00">iii_drone_core/configuration</text>
<text text-anchor="middle" x="504.5" y="-73" font-family="Helvetica,sans-Serif" font-size="10.00">/configurator.hpp</text>
</a>
</g>
</g>
<!-- Node1&#45;&gt;Node2 -->
<g id="edge1_Node000001_Node000002" class="edge">
<title>Node1&#45;&gt;Node2</title>
<g id="a_edge1_Node000001_Node000002"><a xlink:title=" ">
<path fill="none" stroke="#63b8ff" d="M560.07,-131.78C549.18,-122.02 537.75,-111.79 528.12,-103.16"/>
<polygon fill="#63b8ff" stroke="#63b8ff" points="530.28,-100.39 520.49,-96.33 525.61,-105.61 530.28,-100.39"/>
</a>
</g>
</g>
<!-- Node4 -->
<g id="Node000004" class="node">
<title>Node4</title>
<g id="a_Node000004"><a xlink:title=" ">
<polygon fill="#e0e0e0" stroke="#999999" points="99,-24.5 0,-24.5 0,-5.5 99,-5.5 99,-24.5"/>
<text text-anchor="middle" x="49.5" y="-12.5" font-family="Helvetica,sans-Serif" font-size="10.00">rclcpp/rclcpp.hpp</text>
</a>
</g>
</g>
<!-- Node1&#45;&gt;Node4 -->
<g id="edge14_Node000001_Node000004" class="edge">
<title>Node1&#45;&gt;Node4</title>
<g id="a_edge14_Node000001_Node000004"><a xlink:title=" ">
<path fill="none" stroke="#63b8ff" d="M509.2,-142.82C387.85,-109.34 178.49,-51.58 90.42,-27.29"/>
<polygon fill="#63b8ff" stroke="#63b8ff" points="91.11,-23.85 80.54,-24.56 89.25,-30.6 91.11,-23.85"/>
</a>
</g>
</g>
<!-- Node11 -->
<g id="Node000011" class="node">
<title>Node11</title>
<g id="a_Node000011"><a xlink:title=" ">
<polygon fill="#e0e0e0" stroke="#999999" points="1020.5,-24.5 962.5,-24.5 962.5,-5.5 1020.5,-5.5 1020.5,-24.5"/>
<text text-anchor="middle" x="991.5" y="-12.5" font-family="Helvetica,sans-Serif" font-size="10.00">memory</text>
</a>
</g>
</g>
<!-- Node1&#45;&gt;Node11 -->
<g id="edge15_Node000001_Node000011" class="edge">
<title>Node1&#45;&gt;Node11</title>
<g id="a_edge15_Node000001_Node000011"><a xlink:title=" ">
<path fill="none" stroke="#63b8ff" d="M691.74,-155.17C750.11,-144.59 826.28,-126.26 888.5,-96 922.89,-79.28 956.73,-49.8 975.78,-31.68"/>
<polygon fill="#63b8ff" stroke="#63b8ff" points="978.26,-34.15 983,-24.68 973.38,-29.13 978.26,-34.15"/>
</a>
</g>
</g>
<!-- Node13 -->
<g id="Node000013" class="node">
<title>Node13</title>
<g id="a_Node000013"><a xlink:href="powerline__direction__parameters_8hpp.html" target="_top" xlink:title=" ">
<polygon fill="white" stroke="#666666" points="879.5,-96 681.5,-96 681.5,-66 879.5,-66 879.5,-96"/>
<text text-anchor="start" x="689.5" y="-84" font-family="Helvetica,sans-Serif" font-size="10.00">iii_drone_core/perception</text>
<text text-anchor="middle" x="780.5" y="-73" font-family="Helvetica,sans-Serif" font-size="10.00">/powerline_direction_parameters.hpp</text>
</a>
</g>
</g>
<!-- Node1&#45;&gt;Node13 -->
<g id="edge12_Node000001_Node000013" class="edge">
<title>Node1&#45;&gt;Node13</title>
<g id="a_edge12_Node000001_Node000013"><a xlink:title=" ">
<path fill="none" stroke="#63b8ff" d="M676.05,-131.9C698.71,-121.08 722.62,-109.66 741.83,-100.47"/>
<polygon fill="#63b8ff" stroke="#63b8ff" points="743.35,-103.63 750.86,-96.16 740.33,-97.31 743.35,-103.63"/>
</a>
</g>
</g>
<!-- Node3 -->
<g id="Node000003" class="node">
<title>Node3</title>
<g id="a_Node000003"><a xlink:title=" ">
<polygon fill="#e0e0e0" stroke="#999999" points="697.5,-30 547.5,-30 547.5,0 697.5,0 697.5,-30"/>
<text text-anchor="start" x="555.5" y="-18" font-family="Helvetica,sans-Serif" font-size="10.00">iii_drone_interfaces</text>
<text text-anchor="middle" x="622.5" y="-7" font-family="Helvetica,sans-Serif" font-size="10.00">/srv/declare_parameter.hpp</text>
</a>
</g>
</g>
<!-- Node2&#45;&gt;Node3 -->
<g id="edge2_Node000002_Node000003" class="edge">
<title>Node2&#45;&gt;Node3</title>
<g id="a_edge2_Node000002_Node000003"><a xlink:title=" ">
<path fill="none" stroke="#63b8ff" d="M530.4,-65.95C547.23,-56.83 569.37,-44.82 587.73,-34.86"/>
<polygon fill="#63b8ff" stroke="#63b8ff" points="589.54,-37.86 596.66,-30.01 586.21,-31.7 589.54,-37.86"/>
</a>
</g>
</g>
<!-- Node2&#45;&gt;Node4 -->
<g id="edge3_Node000002_Node000004" class="edge">
<title>Node2&#45;&gt;Node4</title>
<g id="a_edge3_Node000002_Node000004"><a xlink:title=" ">
<path fill="none" stroke="#63b8ff" d="M428.21,-72.82C348.2,-64.72 218.96,-50.02 108.5,-30 103.39,-29.07 98.05,-27.98 92.77,-26.83"/>
<polygon fill="#63b8ff" stroke="#63b8ff" points="93.28,-23.35 82.76,-24.55 91.73,-30.18 93.28,-23.35"/>
</a>
</g>
</g>
<!-- Node5 -->
<g id="Node000005" class="node">
<title>Node5</title>
<g id="a_Node000005"><a xlink:title=" ">
<polygon fill="#e0e0e0" stroke="#999999" points="840,-30 715,-30 715,0 840,0 840,-30"/>
<text text-anchor="start" x="723" y="-18" font-family="Helvetica,sans-Serif" font-size="10.00">rcl_interfaces/msg</text>
<text text-anchor="middle" x="777.5" y="-7" font-family="Helvetica,sans-Serif" font-size="10.00">/parameter_event.hpp</text>
</a>
</g>
</g>
<!-- Node2&#45;&gt;Node5 -->
<g id="edge4_Node000002_Node000005" class="edge">
<title>Node2&#45;&gt;Node5</title>
<g id="a_edge4_Node000002_Node000005"><a xlink:title=" ">
<path fill="none" stroke="#63b8ff" d="M564.41,-65.95C606.73,-56.03 663.57,-42.71 707.9,-32.32"/>
<polygon fill="#63b8ff" stroke="#63b8ff" points="708.79,-35.7 717.73,-30.01 707.19,-28.89 708.79,-35.7"/>
</a>
</g>
</g>
<!-- Node6 -->
<g id="Node000006" class="node">
<title>Node6</title>
<g id="a_Node000006"><a xlink:title=" ">
<polygon fill="#e0e0e0" stroke="#999999" points="267.5,-30 117.5,-30 117.5,0 267.5,0 267.5,-30"/>
<text text-anchor="start" x="125.5" y="-18" font-family="Helvetica,sans-Serif" font-size="10.00">rcl_interfaces/msg</text>
<text text-anchor="middle" x="192.5" y="-7" font-family="Helvetica,sans-Serif" font-size="10.00">/set_parameters_result.hpp</text>
</a>
</g>
</g>
<!-- Node2&#45;&gt;Node6 -->
<g id="edge5_Node000002_Node000006" class="edge">
<title>Node2&#45;&gt;Node6</title>
<g id="a_edge5_Node000002_Node000006"><a xlink:title=" ">
<path fill="none" stroke="#63b8ff" d="M436.03,-65.95C387.26,-55.95 321.62,-42.49 270.77,-32.06"/>
<polygon fill="#63b8ff" stroke="#63b8ff" points="271.31,-28.59 260.81,-30.01 269.9,-35.45 271.31,-28.59"/>
</a>
</g>
</g>
<!-- Node7 -->
<g id="Node000007" class="node">
<title>Node7</title>
<g id="a_Node000007"><a xlink:title=" ">
<polygon fill="#e0e0e0" stroke="#999999" points="329.5,-24.5 285.5,-24.5 285.5,-5.5 329.5,-5.5 329.5,-24.5"/>
<text text-anchor="middle" x="307.5" y="-12.5" font-family="Helvetica,sans-Serif" font-size="10.00">string</text>
</a>
</g>
</g>
<!-- Node2&#45;&gt;Node7 -->
<g id="edge6_Node000002_Node000007" class="edge">
<title>Node2&#45;&gt;Node7</title>
<g id="a_edge6_Node000002_Node000007"><a xlink:title=" ">
<path fill="none" stroke="#63b8ff" d="M451.58,-65.98C418.68,-56.79 375.71,-43.94 338.5,-30 337.29,-29.55 336.05,-29.07 334.81,-28.57"/>
<polygon fill="#63b8ff" stroke="#63b8ff" points="335.94,-25.24 325.36,-24.55 333.2,-31.68 335.94,-25.24"/>
</a>
</g>
</g>
<!-- Node8 -->
<g id="Node000008" class="node">
<title>Node8</title>
<g id="a_Node000008"><a xlink:title=" ">
<polygon fill="#e0e0e0" stroke="#999999" points="395,-24.5 348,-24.5 348,-5.5 395,-5.5 395,-24.5"/>
<text text-anchor="middle" x="371.5" y="-12.5" font-family="Helvetica,sans-Serif" font-size="10.00">vector</text>
</a>
</g>
</g>
<!-- Node2&#45;&gt;Node8 -->
<g id="edge7_Node000002_Node000008" class="edge">
<title>Node2&#45;&gt;Node8</title>
<g id="a_edge7_Node000002_Node000008"><a xlink:title=" ">
<path fill="none" stroke="#63b8ff" d="M475.31,-65.95C452.4,-54.93 420.75,-39.7 398.43,-28.96"/>
<polygon fill="#63b8ff" stroke="#63b8ff" points="399.73,-25.7 389.2,-24.52 396.69,-32.01 399.73,-25.7"/>
</a>
</g>
</g>
<!-- Node9 -->
<g id="Node000009" class="node">
<title>Node9</title>
<g id="a_Node000009"><a xlink:title=" ">
<polygon fill="#e0e0e0" stroke="#999999" points="461.5,-24.5 413.5,-24.5 413.5,-5.5 461.5,-5.5 461.5,-24.5"/>
<text text-anchor="middle" x="437.5" y="-12.5" font-family="Helvetica,sans-Serif" font-size="10.00">mutex</text>
</a>
</g>
</g>
<!-- Node2&#45;&gt;Node9 -->
<g id="edge8_Node000002_Node000009" class="edge">
<title>Node2&#45;&gt;Node9</title>
<g id="a_edge8_Node000002_Node000009"><a xlink:title=" ">
<path fill="none" stroke="#63b8ff" d="M489.63,-65.8C479.08,-55.72 464.92,-42.19 454.02,-31.78"/>
<polygon fill="#63b8ff" stroke="#63b8ff" points="456.41,-29.22 446.76,-24.84 451.57,-34.28 456.41,-29.22"/>
</a>
</g>
</g>
<!-- Node10 -->
<g id="Node000010" class="node">
<title>Node10</title>
<g id="a_Node000010"><a xlink:title=" ">
<polygon fill="#e0e0e0" stroke="#999999" points="944.5,-24.5 858.5,-24.5 858.5,-5.5 944.5,-5.5 944.5,-24.5"/>
<text text-anchor="middle" x="901.5" y="-12.5" font-family="Helvetica,sans-Serif" font-size="10.00">shared_mutex</text>
</a>
</g>
</g>
<!-- Node2&#45;&gt;Node10 -->
<g id="edge9_Node000002_Node000010" class="edge">
<title>Node2&#45;&gt;Node10</title>
<g id="a_edge9_Node000002_Node000010"><a xlink:title=" ">
<path fill="none" stroke="#63b8ff" d="M580.76,-71.44C650.76,-62.99 757.14,-48.64 848.5,-30 852.87,-29.11 857.41,-28.08 861.92,-26.98"/>
<polygon fill="#63b8ff" stroke="#63b8ff" points="862.81,-30.37 871.65,-24.52 861.1,-23.58 862.81,-30.37"/>
</a>
</g>
</g>
<!-- Node2&#45;&gt;Node11 -->
<g id="edge10_Node000002_Node000011" class="edge">
<title>Node2&#45;&gt;Node11</title>
<g id="a_edge10_Node000002_Node000011"><a xlink:title=" ">
<path fill="none" stroke="#63b8ff" d="M580.65,-73.76C689.65,-64.45 884.61,-46.27 953.5,-30 956.01,-29.41 958.59,-28.69 961.16,-27.91"/>
<polygon fill="#63b8ff" stroke="#63b8ff" points="962.52,-31.14 970.87,-24.63 960.28,-24.51 962.52,-31.14"/>
</a>
</g>
</g>
<!-- Node12 -->
<g id="Node000012" class="node">
<title>Node12</title>
<g id="a_Node000012"><a xlink:title=" ">
<polygon fill="#e0e0e0" stroke="#999999" points="529.5,-24.5 479.5,-24.5 479.5,-5.5 529.5,-5.5 529.5,-24.5"/>
<text text-anchor="middle" x="504.5" y="-12.5" font-family="Helvetica,sans-Serif" font-size="10.00">atomic</text>
</a>
</g>
</g>
<!-- Node2&#45;&gt;Node12 -->
<g id="edge11_Node000002_Node000012" class="edge">
<title>Node2&#45;&gt;Node12</title>
<g id="a_edge11_Node000002_Node000012"><a xlink:title=" ">
<path fill="none" stroke="#63b8ff" d="M504.5,-65.8C504.5,-56.7 504.5,-44.79 504.5,-34.9"/>
<polygon fill="#63b8ff" stroke="#63b8ff" points="508,-34.84 504.5,-24.84 501,-34.84 508,-34.84"/>
</a>
</g>
</g>
<!-- Node13&#45;&gt;Node10 -->
<g id="edge13_Node000013_Node000010" class="edge">
<title>Node13&#45;&gt;Node10</title>
<g id="a_edge13_Node000013_Node000010"><a xlink:title=" ">
<path fill="none" stroke="#63b8ff" d="M807.05,-65.95C827.71,-55.03 856.18,-39.97 876.45,-29.25"/>
<polygon fill="#63b8ff" stroke="#63b8ff" points="878.19,-32.29 885.4,-24.52 874.92,-26.1 878.19,-32.29"/>
</a>
</g>
</g>
</g>
</svg>
