<?xml version="1.0" encoding="UTF-8" standalone="no"?>
<!DOCTYPE svg PUBLIC "-//W3C//DTD SVG 1.1//EN"
 "http://www.w3.org/Graphics/SVG/1.1/DTD/svg11.dtd">
<!-- Generated by graphviz version 2.43.0 (0)
 -->
<!-- Title: /home/ffn/Workspace/ros2_humble_ws/src/III&#45;Drone&#45;Core/src/perception/pl_mapper_node/pl_mapper_node_configurator.cpp Pages: 1 -->
<svg width="1029pt" height="280pt"
 viewBox="0.00 0.00 1028.50 280.00" xmlns="http://www.w3.org/2000/svg" xmlns:xlink="http://www.w3.org/1999/xlink">
<g id="graph0" class="graph" transform="scale(1 1) rotate(0) translate(4 276)">
<title>/home/ffn/Workspace/ros2_humble_ws/src/III&#45;Drone&#45;Core/src/perception/pl_mapper_node/pl_mapper_node_configurator.cpp</title>
<!-- Node1 -->
<g id="Node000001" class="node">
<title>Node1</title>
<g id="a_Node000001"><a xlink:title=" ">
<polygon fill="#999999" stroke="#666666" points="841,-272 656,-272 656,-209 841,-209 841,-272"/>
<text text-anchor="start" x="664" y="-260" font-family="Helvetica,sans-Serif" font-size="10.00">/home/ffn/Workspace</text>
<text text-anchor="start" x="664" y="-249" font-family="Helvetica,sans-Serif" font-size="10.00">/ros2_humble_ws/src</text>
<text text-anchor="start" x="664" y="-238" font-family="Helvetica,sans-Serif" font-size="10.00">/III&#45;Drone&#45;Core/src/perception</text>
<text text-anchor="start" x="664" y="-227" font-family="Helvetica,sans-Serif" font-size="10.00">/pl_mapper_node/pl_mapper_node</text>
<text text-anchor="middle" x="748.5" y="-216" font-family="Helvetica,sans-Serif" font-size="10.00">_configurator.cpp</text>
</a>
</g>
</g>
<!-- Node2 -->
<g id="Node000002" class="node">
<title>Node2</title>
<g id="a_Node000002"><a xlink:href="pl__mapper__node__configurator_8hpp.html" target="_top" xlink:title=" ">
<polygon fill="white" stroke="#666666" points="826,-173 671,-173 671,-132 826,-132 826,-173"/>
<text text-anchor="start" x="679" y="-161" font-family="Helvetica,sans-Serif" font-size="10.00">iii_drone_core/perception</text>
<text text-anchor="start" x="679" y="-150" font-family="Helvetica,sans-Serif" font-size="10.00">/pl_mapper_node/pl_mapper</text>
<text text-anchor="middle" x="748.5" y="-139" font-family="Helvetica,sans-Serif" font-size="10.00">_node_configurator.hpp</text>
</a>
</g>
</g>
<!-- Node1&#45;&gt;Node2 -->
<g id="edge1_Node000001_Node000002" class="edge">
<title>Node1&#45;&gt;Node2</title>
<g id="a_edge1_Node000001_Node000002"><a xlink:title=" ">
<path fill="none" stroke="#63b8ff" d="M748.5,-208.94C748.5,-200.59 748.5,-191.55 748.5,-183.25"/>
<polygon fill="#63b8ff" stroke="#63b8ff" points="752,-183.23 748.5,-173.23 745,-183.23 752,-183.23"/>
</a>
</g>
</g>
<!-- Node3 -->
<g id="Node000003" class="node">
<title>Node3</title>
<g id="a_Node000003"><a xlink:href="configurator_8hpp.html" target="_top" xlink:title=" ">
<polygon fill="white" stroke="#666666" points="740.5,-96 588.5,-96 588.5,-66 740.5,-66 740.5,-96"/>
<text text-anchor="start" x="596.5" y="-84" font-family="Helvetica,sans-Serif" font-size="10.00">iii_drone_core/configuration</text>
<text text-anchor="middle" x="664.5" y="-73" font-family="Helvetica,sans-Serif" font-size="10.00">/configurator.hpp</text>
</a>
</g>
</g>
<!-- Node2&#45;&gt;Node3 -->
<g id="edge2_Node000002_Node000003" class="edge">
<title>Node2&#45;&gt;Node3</title>
<g id="a_edge2_Node000002_Node000003"><a xlink:title=" ">
<path fill="none" stroke="#63b8ff" d="M724.65,-131.77C713.57,-122.6 700.4,-111.7 689.21,-102.44"/>
<polygon fill="#63b8ff" stroke="#63b8ff" points="691.4,-99.72 681.47,-96.04 686.94,-105.11 691.4,-99.72"/>
</a>
</g>
</g>
<!-- Node5 -->
<g id="Node000005" class="node">
<title>Node5</title>
<g id="a_Node000005"><a xlink:title=" ">
<polygon fill="#e0e0e0" stroke="#999999" points="99,-24.5 0,-24.5 0,-5.5 99,-5.5 99,-24.5"/>
<text text-anchor="middle" x="49.5" y="-12.5" font-family="Helvetica,sans-Serif" font-size="10.00">rclcpp/rclcpp.hpp</text>
</a>
</g>
</g>
<!-- Node2&#45;&gt;Node5 -->
<g id="edge16_Node000002_Node000005" class="edge">
<title>Node2&#45;&gt;Node5</title>
<g id="a_edge16_Node000002_Node000005"><a xlink:title=" ">
<path fill="none" stroke="#63b8ff" d="M670.94,-137.95C550.32,-116.61 310.63,-73.14 108.5,-30 103.85,-29.01 99.01,-27.93 94.19,-26.83"/>
<polygon fill="#63b8ff" stroke="#63b8ff" points="94.91,-23.41 84.38,-24.55 93.33,-30.22 94.91,-23.41"/>
</a>
</g>
</g>
<!-- Node12 -->
<g id="Node000012" class="node">
<title>Node12</title>
<g id="a_Node000012"><a xlink:title=" ">
<polygon fill="#e0e0e0" stroke="#999999" points="1020.5,-24.5 962.5,-24.5 962.5,-5.5 1020.5,-5.5 1020.5,-24.5"/>
<text text-anchor="middle" x="991.5" y="-12.5" font-family="Helvetica,sans-Serif" font-size="10.00">memory</text>
</a>
</g>
</g>
<!-- Node2&#45;&gt;Node12 -->
<g id="edge17_Node000002_Node000012" class="edge">
<title>Node2&#45;&gt;Node12</title>
<g id="a_edge17_Node000002_Node000012"><a xlink:title=" ">
<path fill="none" stroke="#63b8ff" d="M826.2,-134.88C856.25,-126.24 889.96,-113.69 917.5,-96 943.53,-79.29 966.49,-51.29 979.69,-33.24"/>
<polygon fill="#63b8ff" stroke="#63b8ff" points="982.74,-35 985.67,-24.82 977.03,-30.95 982.74,-35"/>
</a>
</g>
</g>
<!-- Node14 -->
<g id="Node000014" class="node">
<title>Node14</title>
<g id="a_Node000014"><a xlink:href="powerline__parameters_8hpp.html" target="_top" xlink:title=" ">
<polygon fill="white" stroke="#666666" points="908.5,-96 758.5,-96 758.5,-66 908.5,-66 908.5,-96"/>
<text text-anchor="start" x="766.5" y="-84" font-family="Helvetica,sans-Serif" font-size="10.00">iii_drone_core/perception</text>
<text text-anchor="middle" x="833.5" y="-73" font-family="Helvetica,sans-Serif" font-size="10.00">/powerline_parameters.hpp</text>
</a>
</g>
</g>
<!-- Node2&#45;&gt;Node14 -->
<g id="edge13_Node000002_Node000014" class="edge">
<title>Node2&#45;&gt;Node14</title>
<g id="a_edge13_Node000002_Node000014"><a xlink:title=" ">
<path fill="none" stroke="#63b8ff" d="M772.63,-131.77C783.85,-122.6 797.18,-111.7 808.5,-102.44"/>
<polygon fill="#63b8ff" stroke="#63b8ff" points="810.8,-105.08 816.33,-96.04 806.37,-99.66 810.8,-105.08"/>
</a>
</g>
</g>
<!-- Node4 -->
<g id="Node000004" class="node">
<title>Node4</title>
<g id="a_Node000004"><a xlink:title=" ">
<polygon fill="#e0e0e0" stroke="#999999" points="267.5,-30 117.5,-30 117.5,0 267.5,0 267.5,-30"/>
<text text-anchor="start" x="125.5" y="-18" font-family="Helvetica,sans-Serif" font-size="10.00">iii_drone_interfaces</text>
<text text-anchor="middle" x="192.5" y="-7" font-family="Helvetica,sans-Serif" font-size="10.00">/srv/declare_parameter.hpp</text>
</a>
</g>
</g>
<!-- Node3&#45;&gt;Node4 -->
<g id="edge3_Node000003_Node000004" class="edge">
<title>Node3&#45;&gt;Node4</title>
<g id="a_edge3_Node000003_Node000004"><a xlink:title=" ">
<path fill="none" stroke="#63b8ff" d="M588.35,-71.11C512.06,-62 391.03,-46.99 277.49,-30.27"/>
<polygon fill="#63b8ff" stroke="#63b8ff" points="277.98,-26.8 267.58,-28.8 276.96,-33.73 277.98,-26.8"/>
</a>
</g>
</g>
<!-- Node3&#45;&gt;Node5 -->
<g id="edge4_Node000003_Node000005" class="edge">
<title>Node3&#45;&gt;Node5</title>
<g id="a_edge4_Node000003_Node000005"><a xlink:title=" ">
<path fill="none" stroke="#63b8ff" d="M588.07,-76.6C480.5,-71.02 278.53,-57.67 108.5,-30 103.04,-29.11 97.35,-28 91.73,-26.79"/>
<polygon fill="#63b8ff" stroke="#63b8ff" points="92.32,-23.34 81.79,-24.54 90.77,-30.16 92.32,-23.34"/>
</a>
</g>
</g>
<!-- Node6 -->
<g id="Node000006" class="node">
<title>Node6</title>
<g id="a_Node000006"><a xlink:title=" ">
<polygon fill="#e0e0e0" stroke="#999999" points="410,-30 285,-30 285,0 410,0 410,-30"/>
<text text-anchor="start" x="293" y="-18" font-family="Helvetica,sans-Serif" font-size="10.00">rcl_interfaces/msg</text>
<text text-anchor="middle" x="347.5" y="-7" font-family="Helvetica,sans-Serif" font-size="10.00">/parameter_event.hpp</text>
</a>
</g>
</g>
<!-- Node3&#45;&gt;Node6 -->
<g id="edge5_Node000003_Node000006" class="edge">
<title>Node3&#45;&gt;Node6</title>
<g id="a_edge5_Node000003_Node000006"><a xlink:title=" ">
<path fill="none" stroke="#63b8ff" d="M594.93,-65.95C543.14,-55.5 472.61,-41.26 420.11,-30.66"/>
<polygon fill="#63b8ff" stroke="#63b8ff" points="420.68,-27.2 410.19,-28.66 419.3,-34.07 420.68,-27.2"/>
</a>
</g>
</g>
<!-- Node7 -->
<g id="Node000007" class="node">
<title>Node7</title>
<g id="a_Node000007"><a xlink:title=" ">
<polygon fill="#e0e0e0" stroke="#999999" points="578.5,-30 428.5,-30 428.5,0 578.5,0 578.5,-30"/>
<text text-anchor="start" x="436.5" y="-18" font-family="Helvetica,sans-Serif" font-size="10.00">rcl_interfaces/msg</text>
<text text-anchor="middle" x="503.5" y="-7" font-family="Helvetica,sans-Serif" font-size="10.00">/set_parameters_result.hpp</text>
</a>
</g>
</g>
<!-- Node3&#45;&gt;Node7 -->
<g id="edge6_Node000003_Node000007" class="edge">
<title>Node3&#45;&gt;Node7</title>
<g id="a_edge6_Node000003_Node000007"><a xlink:title=" ">
<path fill="none" stroke="#63b8ff" d="M629.17,-65.95C605.37,-56.49 573.77,-43.93 548.22,-33.78"/>
<polygon fill="#63b8ff" stroke="#63b8ff" points="549.34,-30.45 538.75,-30.01 546.75,-36.96 549.34,-30.45"/>
</a>
</g>
</g>
<!-- Node8 -->
<g id="Node000008" class="node">
<title>Node8</title>
<g id="a_Node000008"><a xlink:title=" ">
<polygon fill="#e0e0e0" stroke="#999999" points="640.5,-24.5 596.5,-24.5 596.5,-5.5 640.5,-5.5 640.5,-24.5"/>
<text text-anchor="middle" x="618.5" y="-12.5" font-family="Helvetica,sans-Serif" font-size="10.00">string</text>
</a>
</g>
</g>
<!-- Node3&#45;&gt;Node8 -->
<g id="edge7_Node000003_Node000008" class="edge">
<title>Node3&#45;&gt;Node8</title>
<g id="a_edge7_Node000003_Node000008"><a xlink:title=" ">
<path fill="none" stroke="#63b8ff" d="M654.29,-65.8C647.33,-56.11 638.08,-43.24 630.73,-33.01"/>
<polygon fill="#63b8ff" stroke="#63b8ff" points="633.54,-30.92 624.86,-24.84 627.85,-35.01 633.54,-30.92"/>
</a>
</g>
</g>
<!-- Node9 -->
<g id="Node000009" class="node">
<title>Node9</title>
<g id="a_Node000009"><a xlink:title=" ">
<polygon fill="#e0e0e0" stroke="#999999" points="706,-24.5 659,-24.5 659,-5.5 706,-5.5 706,-24.5"/>
<text text-anchor="middle" x="682.5" y="-12.5" font-family="Helvetica,sans-Serif" font-size="10.00">vector</text>
</a>
</g>
</g>
<!-- Node3&#45;&gt;Node9 -->
<g id="edge8_Node000003_Node000009" class="edge">
<title>Node3&#45;&gt;Node9</title>
<g id="a_edge8_Node000003_Node000009"><a xlink:title=" ">
<path fill="none" stroke="#63b8ff" d="M668.49,-65.8C671.08,-56.6 674.48,-44.53 677.27,-34.58"/>
<polygon fill="#63b8ff" stroke="#63b8ff" points="680.67,-35.42 680.01,-24.84 673.94,-33.52 680.67,-35.42"/>
</a>
</g>
</g>
<!-- Node10 -->
<g id="Node000010" class="node">
<title>Node10</title>
<g id="a_Node000010"><a xlink:title=" ">
<polygon fill="#e0e0e0" stroke="#999999" points="840.5,-24.5 792.5,-24.5 792.5,-5.5 840.5,-5.5 840.5,-24.5"/>
<text text-anchor="middle" x="816.5" y="-12.5" font-family="Helvetica,sans-Serif" font-size="10.00">mutex</text>
</a>
</g>
</g>
<!-- Node3&#45;&gt;Node10 -->
<g id="edge9_Node000003_Node000010" class="edge">
<title>Node3&#45;&gt;Node10</title>
<g id="a_edge9_Node000003_Node000010"><a xlink:title=" ">
<path fill="none" stroke="#63b8ff" d="M698.11,-65.91C721.95,-55.91 754.7,-42.16 783.5,-30 784.66,-29.51 785.84,-29.01 787.04,-28.5"/>
<polygon fill="#63b8ff" stroke="#63b8ff" points="788.42,-31.72 796.26,-24.6 785.69,-25.28 788.42,-31.72"/>
</a>
</g>
</g>
<!-- Node11 -->
<g id="Node000011" class="node">
<title>Node11</title>
<g id="a_Node000011"><a xlink:title=" ">
<polygon fill="#e0e0e0" stroke="#999999" points="944.5,-24.5 858.5,-24.5 858.5,-5.5 944.5,-5.5 944.5,-24.5"/>
<text text-anchor="middle" x="901.5" y="-12.5" font-family="Helvetica,sans-Serif" font-size="10.00">shared_mutex</text>
</a>
</g>
</g>
<!-- Node3&#45;&gt;Node11 -->
<g id="edge10_Node000003_Node000011" class="edge">
<title>Node3&#45;&gt;Node11</title>
<g id="a_edge10_Node000003_Node000011"><a xlink:title=" ">
<path fill="none" stroke="#63b8ff" d="M716.51,-65.95C759.72,-54.29 820.37,-37.91 860.28,-27.13"/>
<polygon fill="#63b8ff" stroke="#63b8ff" points="861.22,-30.5 869.96,-24.52 859.39,-23.75 861.22,-30.5"/>
</a>
</g>
</g>
<!-- Node3&#45;&gt;Node12 -->
<g id="edge11_Node000003_Node000012" class="edge">
<title>Node3&#45;&gt;Node12</title>
<g id="a_edge11_Node000003_Node000012"><a xlink:title=" ">
<path fill="none" stroke="#63b8ff" d="M740.54,-67.2C822.66,-53.32 943.2,-32.76 953.5,-30 955.94,-29.35 958.44,-28.6 960.93,-27.8"/>
<polygon fill="#63b8ff" stroke="#63b8ff" points="962.1,-31.1 970.42,-24.54 959.82,-24.48 962.1,-31.1"/>
</a>
</g>
</g>
<!-- Node13 -->
<g id="Node000013" class="node">
<title>Node13</title>
<g id="a_Node000013"><a xlink:title=" ">
<polygon fill="#e0e0e0" stroke="#999999" points="774.5,-24.5 724.5,-24.5 724.5,-5.5 774.5,-5.5 774.5,-24.5"/>
<text text-anchor="middle" x="749.5" y="-12.5" font-family="Helvetica,sans-Serif" font-size="10.00">atomic</text>
</a>
</g>
</g>
<!-- Node3&#45;&gt;Node13 -->
<g id="edge12_Node000003_Node000013" class="edge">
<title>Node3&#45;&gt;Node13</title>
<g id="a_edge12_Node000003_Node000013"><a xlink:title=" ">
<path fill="none" stroke="#63b8ff" d="M683.36,-65.8C697.14,-55.43 715.76,-41.4 729.74,-30.88"/>
<polygon fill="#63b8ff" stroke="#63b8ff" points="731.87,-33.66 737.75,-24.84 727.66,-28.06 731.87,-33.66"/>
</a>
</g>
</g>
<!-- Node14&#45;&gt;Node10 -->
<g id="edge14_Node000014_Node000010" class="edge">
<title>Node14&#45;&gt;Node10</title>
<g id="a_edge14_Node000014_Node000010"><a xlink:title=" ">
<path fill="none" stroke="#63b8ff" d="M829.73,-65.8C827.28,-56.6 824.08,-44.53 821.43,-34.58"/>
<polygon fill="#63b8ff" stroke="#63b8ff" points="824.8,-33.61 818.85,-24.84 818.03,-35.41 824.8,-33.61"/>
</a>
</g>
</g>
<!-- Node14&#45;&gt;Node11 -->
<g id="edge15_Node000014_Node000011" class="edge">
<title>Node14&#45;&gt;Node11</title>
<g id="a_edge15_Node000014_Node000011"><a xlink:title=" ">
<path fill="none" stroke="#63b8ff" d="M848.59,-65.8C859.3,-55.72 873.67,-42.19 884.73,-31.78"/>
<polygon fill="#63b8ff" stroke="#63b8ff" points="887.22,-34.25 892.1,-24.84 882.42,-29.15 887.22,-34.25"/>
</a>
</g>
</g>
</g>
</svg>
