<?xml version="1.0" encoding="UTF-8" standalone="no"?>
<!DOCTYPE svg PUBLIC "-//W3C//DTD SVG 1.1//EN"
 "http://www.w3.org/Graphics/SVG/1.1/DTD/svg11.dtd">
<!-- Generated by graphviz version 2.43.0 (0)
 -->
<!-- Title: /home/ffn/Workspace/ros2_humble_ws/src/III&#45;Drone&#45;Core/src/adapters/point_cloud_adapter.cpp Pages: 1 -->
<svg width="1106pt" height="247pt"
 viewBox="0.00 0.00 1105.50 247.00" xmlns="http://www.w3.org/2000/svg" xmlns:xlink="http://www.w3.org/1999/xlink">
<g id="graph0" class="graph" transform="scale(1 1) rotate(0) translate(4 243)">
<title>/home/ffn/Workspace/ros2_humble_ws/src/III&#45;Drone&#45;Core/src/adapters/point_cloud_adapter.cpp</title>
<!-- Node1 -->
<g id="Node000001" class="node">
<title>Node1</title>
<g id="a_Node000001"><a xlink:title=" ">
<polygon fill="#999999" stroke="#666666" points="376,-239 225,-239 225,-187 376,-187 376,-239"/>
<text text-anchor="start" x="233" y="-227" font-family="Helvetica,sans-Serif" font-size="10.00">/home/ffn/Workspace</text>
<text text-anchor="start" x="233" y="-216" font-family="Helvetica,sans-Serif" font-size="10.00">/ros2_humble_ws/src</text>
<text text-anchor="start" x="233" y="-205" font-family="Helvetica,sans-Serif" font-size="10.00">/III&#45;Drone&#45;Core/src/adapters</text>
<text text-anchor="middle" x="300.5" y="-194" font-family="Helvetica,sans-Serif" font-size="10.00">/point_cloud_adapter.cpp</text>
</a>
</g>
</g>
<!-- Node2 -->
<g id="Node000002" class="node">
<title>Node2</title>
<g id="a_Node000002"><a xlink:href="point__cloud__adapter_8hpp.html" target="_top" xlink:title=" ">
<polygon fill="white" stroke="#666666" points="370,-151 231,-151 231,-121 370,-121 370,-151"/>
<text text-anchor="start" x="239" y="-139" font-family="Helvetica,sans-Serif" font-size="10.00">iii_drone_core/adapters</text>
<text text-anchor="middle" x="300.5" y="-128" font-family="Helvetica,sans-Serif" font-size="10.00">/point_cloud_adapter.hpp</text>
</a>
</g>
</g>
<!-- Node1&#45;&gt;Node2 -->
<g id="edge1_Node000001_Node000002" class="edge">
<title>Node1&#45;&gt;Node2</title>
<g id="a_edge1_Node000001_Node000002"><a xlink:title=" ">
<path fill="none" stroke="#63b8ff" d="M300.5,-186.61C300.5,-178.54 300.5,-169.64 300.5,-161.63"/>
<polygon fill="#63b8ff" stroke="#63b8ff" points="304,-161.43 300.5,-151.43 297,-161.43 304,-161.43"/>
</a>
</g>
</g>
<!-- Node3 -->
<g id="Node000003" class="node">
<title>Node3</title>
<g id="a_Node000003"><a xlink:title=" ">
<polygon fill="#e0e0e0" stroke="#999999" points="166,-79.5 119,-79.5 119,-60.5 166,-60.5 166,-79.5"/>
<text text-anchor="middle" x="142.5" y="-67.5" font-family="Helvetica,sans-Serif" font-size="10.00">vector</text>
</a>
</g>
</g>
<!-- Node2&#45;&gt;Node3 -->
<g id="edge2_Node000002_Node000003" class="edge">
<title>Node2&#45;&gt;Node3</title>
<g id="a_edge2_Node000002_Node000003"><a xlink:title=" ">
<path fill="none" stroke="#63b8ff" d="M264.25,-121C239,-111.15 204.58,-97.55 174.5,-85 173.34,-84.51 172.15,-84.01 170.95,-83.51"/>
<polygon fill="#63b8ff" stroke="#63b8ff" points="172.31,-80.28 161.74,-79.55 169.55,-86.71 172.31,-80.28"/>
</a>
</g>
</g>
<!-- Node4 -->
<g id="Node000004" class="node">
<title>Node4</title>
<g id="a_Node000004"><a xlink:title=" ">
<polygon fill="#e0e0e0" stroke="#999999" points="283,-79.5 184,-79.5 184,-60.5 283,-60.5 283,-79.5"/>
<text text-anchor="middle" x="233.5" y="-67.5" font-family="Helvetica,sans-Serif" font-size="10.00">rclcpp/rclcpp.hpp</text>
</a>
</g>
</g>
<!-- Node2&#45;&gt;Node4 -->
<g id="edge3_Node000002_Node000004" class="edge">
<title>Node2&#45;&gt;Node4</title>
<g id="a_edge3_Node000002_Node000004"><a xlink:title=" ">
<path fill="none" stroke="#63b8ff" d="M285.63,-120.8C275.08,-110.72 260.92,-97.19 250.02,-86.78"/>
<polygon fill="#63b8ff" stroke="#63b8ff" points="252.41,-84.22 242.76,-79.84 247.57,-89.28 252.41,-84.22"/>
</a>
</g>
</g>
<!-- Node5 -->
<g id="Node000005" class="node">
<title>Node5</title>
<g id="a_Node000005"><a xlink:title=" ">
<polygon fill="#e0e0e0" stroke="#999999" points="433.5,-85 301.5,-85 301.5,-55 433.5,-55 433.5,-85"/>
<text text-anchor="start" x="309.5" y="-73" font-family="Helvetica,sans-Serif" font-size="10.00">sensor_msgs/msg/point</text>
<text text-anchor="middle" x="367.5" y="-62" font-family="Helvetica,sans-Serif" font-size="10.00">_cloud2.hpp</text>
</a>
</g>
</g>
<!-- Node2&#45;&gt;Node5 -->
<g id="edge4_Node000002_Node000005" class="edge">
<title>Node2&#45;&gt;Node5</title>
<g id="a_edge4_Node000002_Node000005"><a xlink:title=" ">
<path fill="none" stroke="#63b8ff" d="M315.37,-120.8C324.13,-112.43 335.38,-101.68 345.19,-92.31"/>
<polygon fill="#63b8ff" stroke="#63b8ff" points="347.86,-94.6 352.67,-85.16 343.02,-89.54 347.86,-94.6"/>
</a>
</g>
</g>
<!-- Node6 -->
<g id="Node000006" class="node">
<title>Node6</title>
<g id="a_Node000006"><a xlink:href="types_8hpp.html" target="_top" xlink:title=" ">
<polygon fill="white" stroke="#666666" points="561,-85 452,-85 452,-55 561,-55 561,-85"/>
<text text-anchor="start" x="460" y="-73" font-family="Helvetica,sans-Serif" font-size="10.00">iii_drone_core/utils</text>
<text text-anchor="middle" x="506.5" y="-62" font-family="Helvetica,sans-Serif" font-size="10.00">/types.hpp</text>
</a>
</g>
</g>
<!-- Node2&#45;&gt;Node6 -->
<g id="edge5_Node000002_Node000006" class="edge">
<title>Node2&#45;&gt;Node6</title>
<g id="a_edge5_Node000002_Node000006"><a xlink:title=" ">
<path fill="none" stroke="#63b8ff" d="M345.71,-120.95C376.83,-111.28 418.37,-98.38 451.43,-88.11"/>
<polygon fill="#63b8ff" stroke="#63b8ff" points="452.89,-91.32 461.4,-85.01 450.81,-84.64 452.89,-91.32"/>
</a>
</g>
</g>
<!-- Node7 -->
<g id="Node000007" class="node">
<title>Node7</title>
<g id="a_Node000007"><a xlink:title=" ">
<polygon fill="#e0e0e0" stroke="#999999" points="105,-19 0,-19 0,0 105,0 105,-19"/>
<text text-anchor="middle" x="52.5" y="-7" font-family="Helvetica,sans-Serif" font-size="10.00">eigen3/Eigen/Core</text>
</a>
</g>
</g>
<!-- Node6&#45;&gt;Node7 -->
<g id="edge6_Node000006_Node000007" class="edge">
<title>Node6&#45;&gt;Node7</title>
<g id="a_edge6_Node000006_Node000007"><a xlink:title=" ">
<path fill="none" stroke="#63b8ff" d="M451.76,-56.63C448.63,-56.04 445.53,-55.5 442.5,-55 301.03,-31.83 261.8,-36.72 115.51,-19.08"/>
<polygon fill="#63b8ff" stroke="#63b8ff" points="115.6,-15.57 105.25,-17.83 114.75,-22.52 115.6,-15.57"/>
</a>
</g>
</g>
<!-- Node8 -->
<g id="Node000008" class="node">
<title>Node8</title>
<g id="a_Node000008"><a xlink:title=" ">
<polygon fill="#e0e0e0" stroke="#999999" points="291.5,-19 123.5,-19 123.5,0 291.5,0 291.5,-19"/>
<text text-anchor="middle" x="207.5" y="-7" font-family="Helvetica,sans-Serif" font-size="10.00">geometry_msgs/msg/point.hpp</text>
</a>
</g>
</g>
<!-- Node6&#45;&gt;Node8 -->
<g id="edge7_Node000006_Node000008" class="edge">
<title>Node6&#45;&gt;Node8</title>
<g id="a_edge7_Node000006_Node000008"><a xlink:title=" ">
<path fill="none" stroke="#63b8ff" d="M451.71,-56.91C448.6,-56.25 445.51,-55.61 442.5,-55 382.04,-42.67 312.59,-29.66 264.96,-20.91"/>
<polygon fill="#63b8ff" stroke="#63b8ff" points="265.31,-17.42 254.84,-19.06 264.04,-24.3 265.31,-17.42"/>
</a>
</g>
</g>
<!-- Node9 -->
<g id="Node000009" class="node">
<title>Node9</title>
<g id="a_Node000009"><a xlink:title=" ">
<polygon fill="#e0e0e0" stroke="#999999" points="505.5,-19 309.5,-19 309.5,0 505.5,0 505.5,-19"/>
<text text-anchor="middle" x="407.5" y="-7" font-family="Helvetica,sans-Serif" font-size="10.00">geometry_msgs/msg/quaternion.hpp</text>
</a>
</g>
</g>
<!-- Node6&#45;&gt;Node9 -->
<g id="edge8_Node000006_Node000009" class="edge">
<title>Node6&#45;&gt;Node9</title>
<g id="a_edge8_Node000006_Node000009"><a xlink:title=" ">
<path fill="none" stroke="#63b8ff" d="M482.79,-54.99C467.15,-45.75 446.76,-33.7 431.14,-24.47"/>
<polygon fill="#63b8ff" stroke="#63b8ff" points="432.51,-21.21 422.12,-19.14 428.95,-27.24 432.51,-21.21"/>
</a>
</g>
</g>
<!-- Node10 -->
<g id="Node000010" class="node">
<title>Node10</title>
<g id="a_Node000010"><a xlink:title=" ">
<polygon fill="#e0e0e0" stroke="#999999" points="690,-19 523,-19 523,0 690,0 690,-19"/>
<text text-anchor="middle" x="606.5" y="-7" font-family="Helvetica,sans-Serif" font-size="10.00">geometry_msgs/msg/pose.hpp</text>
</a>
</g>
</g>
<!-- Node6&#45;&gt;Node10 -->
<g id="edge9_Node000006_Node000010" class="edge">
<title>Node6&#45;&gt;Node10</title>
<g id="a_edge9_Node000006_Node000010"><a xlink:title=" ">
<path fill="none" stroke="#63b8ff" d="M530.45,-54.99C546.39,-45.66 567.23,-33.47 583.06,-24.21"/>
<polygon fill="#63b8ff" stroke="#63b8ff" points="584.87,-27.21 591.73,-19.14 581.33,-21.17 584.87,-27.21"/>
</a>
</g>
</g>
<!-- Node11 -->
<g id="Node000011" class="node">
<title>Node11</title>
<g id="a_Node000011"><a xlink:title=" ">
<polygon fill="#e0e0e0" stroke="#999999" points="899,-19 708,-19 708,0 899,0 899,-19"/>
<text text-anchor="middle" x="803.5" y="-7" font-family="Helvetica,sans-Serif" font-size="10.00">geometry_msgs/msg/transform.hpp</text>
</a>
</g>
</g>
<!-- Node6&#45;&gt;Node11 -->
<g id="edge10_Node000006_Node000011" class="edge">
<title>Node6&#45;&gt;Node11</title>
<g id="a_edge10_Node000006_Node000011"><a xlink:title=" ">
<path fill="none" stroke="#63b8ff" d="M561.32,-58.2C615.17,-47.59 696.8,-31.52 750.15,-21.01"/>
<polygon fill="#63b8ff" stroke="#63b8ff" points="750.96,-24.42 760.09,-19.05 749.6,-17.55 750.96,-24.42"/>
</a>
</g>
</g>
<!-- Node12 -->
<g id="Node000012" class="node">
<title>Node12</title>
<g id="a_Node000012"><a xlink:title=" ">
<polygon fill="#e0e0e0" stroke="#999999" points="1097.5,-19 917.5,-19 917.5,0 1097.5,0 1097.5,-19"/>
<text text-anchor="middle" x="1007.5" y="-7" font-family="Helvetica,sans-Serif" font-size="10.00">geometry_msgs/msg/vector3.hpp</text>
</a>
</g>
</g>
<!-- Node6&#45;&gt;Node12 -->
<g id="edge11_Node000006_Node000012" class="edge">
<title>Node6&#45;&gt;Node12</title>
<g id="a_edge11_Node000006_Node000012"><a xlink:title=" ">
<path fill="none" stroke="#63b8ff" d="M561.07,-62.63C648.69,-52.4 821.34,-32.24 924.37,-20.21"/>
<polygon fill="#63b8ff" stroke="#63b8ff" points="924.9,-23.67 934.42,-19.03 924.08,-16.72 924.9,-23.67"/>
</a>
</g>
</g>
</g>
</svg>
