<?xml version="1.0" encoding="UTF-8" standalone="no"?>
<!DOCTYPE svg PUBLIC "-//W3C//DTD SVG 1.1//EN"
 "http://www.w3.org/Graphics/SVG/1.1/DTD/svg11.dtd">
<!-- Generated by graphviz version 2.43.0 (0)
 -->
<!-- Title: /home/ffn/Workspace/ros2_humble_ws/src/III&#45;Drone&#45;Core/include/iii_drone_core/perception/powerline_direction.hpp Pages: 1 -->
<!--zoomable 324 -->

<svg id="main" version="1.1" xmlns="http://www.w3.org/2000/svg" xmlns:xlink="http://www.w3.org/1999/xlink" xml:space="preserve" onload="init(evt)">
<style type="text/css"><![CDATA[
.node, .edge {opacity: 0.7;}
.node.selected, .edge.selected {opacity: 1;}
.edge:hover path { stroke: red; }
.edge:hover polygon { stroke: red; fill: red; }
]]></style>

<defs>
  <circle id="rim" cx="0" cy="0" r="7"/>
  <circle id="rim2" cx="0" cy="0" r="3.5"/>
  <g id="zoomPlus">
    <use xlink:href="#rim" fill="#404040"><set attributeName="fill" to="#808080" begin="zoomplus.mouseover" end="zoomplus.mouseout"/></use>
    <path d="M-4,0h8M0,-4v8" fill="none" stroke="white" stroke-width="1.5" pointer-events="none"/>
  </g>
  <g id="zoomMin">
    <use xlink:href="#rim" fill="#404040"><set attributeName="fill" to="#808080" begin="zoomminus.mouseover" end="zoomminus.mouseout"/></use>
    <path d="M-4,0h8" fill="none" stroke="white" stroke-width="1.5" pointer-events="none"/>
  </g>
  <g id="arrowUp" transform="translate(30 24)">
    <use xlink:href="#rim"/>
    <path pointer-events="none" fill="none" stroke="white" stroke-width="1.5" d="M0,-3.0v7 M-2.5,-0.5L0,-3.0L2.5,-0.5"/>
  </g>
  <g id="arrowRight" transform="rotate(90) translate(36 -43)">
    <use xlink:href="#rim"/>
    <path pointer-events="none" fill="none" stroke="white" stroke-width="1.5" d="M0,-3.0v7 M-2.5,-0.5L0,-3.0L2.5,-0.5"/>
  </g>
  <g id="arrowDown" transform="rotate(180) translate(-30 -48)">
    <use xlink:href="#rim"/>
    <path pointer-events="none" fill="none" stroke="white" stroke-width="1.5" d="M0,-3.0v7 M-2.5,-0.5L0,-3.0L2.5,-0.5"/>
  </g>
  <g id="arrowLeft" transform="rotate(270) translate(-36 17)">
    <use xlink:href="#rim"/>
    <path pointer-events="none" fill="none" stroke="white" stroke-width="1.5" d="M0,-3.0v7 M-2.5,-0.5L0,-3.0L2.5,-0.5"/>
  </g>
  <g id="resetDef">
    <use xlink:href="#rim2" fill="#404040"><set attributeName="fill" to="#808080" begin="reset.mouseover" end="reset.mouseout"/></use>
  </g>
</defs>
<script type="application/ecmascript">
var viewWidth = 1718;
var viewHeight = 324;
var sectionId = 'dynsection-0';
</script>
<script type="application/ecmascript" xlink:href="svg.min.js"/>
<svg id="graph" class="graph">
<g id="viewport">
<title>/home/ffn/Workspace/ros2_humble_ws/src/III&#45;Drone&#45;Core/include/iii_drone_core/perception/powerline_direction.hpp</title>
<!-- Node1 -->
<g id="Node000001" class="node">
<title>Node1</title>
<g id="a_Node000001"><a xlink:title=" ">
<polygon fill="#999999" stroke="#666666" points="847,-316 704,-316 704,-253 847,-253 847,-316"/>
<text text-anchor="start" x="712" y="-304" font-family="Helvetica,sans-Serif" font-size="10.00">/home/ffn/Workspace</text>
<text text-anchor="start" x="712" y="-293" font-family="Helvetica,sans-Serif" font-size="10.00">/ros2_humble_ws/src</text>
<text text-anchor="start" x="712" y="-282" font-family="Helvetica,sans-Serif" font-size="10.00">/III&#45;Drone&#45;Core/include</text>
<text text-anchor="start" x="712" y="-271" font-family="Helvetica,sans-Serif" font-size="10.00">/iii_drone_core/perception</text>
<text text-anchor="middle" x="775.5" y="-260" font-family="Helvetica,sans-Serif" font-size="10.00">/powerline_direction.hpp</text>
</a>
</g>
</g>
<!-- Node2 -->
<g id="Node000002" class="node">
<title>Node2</title>
<g id="a_Node000002"><a xlink:title=" ">
<polygon fill="#e0e0e0" stroke="#999999" points="161,-217 0,-217 0,-187 161,-187 161,-217"/>
<text text-anchor="start" x="8" y="-205" font-family="Helvetica,sans-Serif" font-size="10.00">iii_drone_interfaces</text>
<text text-anchor="middle" x="80.5" y="-194" font-family="Helvetica,sans-Serif" font-size="10.00">/msg/powerline_direction.hpp</text>
</a>
</g>
</g>
<!-- Node1&#45;&gt;Node2 -->
<g id="edge1_Node000001_Node000002" class="edge">
<title>Node1&#45;&gt;Node2</title>
<g id="a_edge1_Node000001_Node000002"><a xlink:title=" ">
<path fill="none" stroke="#63b8ff" d="M703.82,-276.4C591.2,-265.05 365.97,-241.58 175.5,-217 174.03,-216.81 172.54,-216.62 171.05,-216.42"/>
<polygon fill="#63b8ff" stroke="#63b8ff" points="171.44,-212.94 161.07,-215.08 170.51,-219.88 171.44,-212.94"/>
</a>
</g>
</g>
<!-- Node3 -->
<g id="Node000003" class="node">
<title>Node3</title>
<g id="a_Node000003"><a xlink:title=" ">
<polygon fill="#e0e0e0" stroke="#999999" points="946,-151 833,-151 833,-121 946,-121 946,-151"/>
<text text-anchor="start" x="841" y="-139" font-family="Helvetica,sans-Serif" font-size="10.00">iii_drone_interfaces</text>
<text text-anchor="middle" x="889.5" y="-128" font-family="Helvetica,sans-Serif" font-size="10.00">/msg/powerline.hpp</text>
</a>
</g>
</g>
<!-- Node1&#45;&gt;Node3 -->
<g id="edge2_Node000001_Node000003" class="edge">
<title>Node1&#45;&gt;Node3</title>
<g id="a_edge2_Node000001_Node000003"><a xlink:title=" ">
<path fill="none" stroke="#63b8ff" d="M810.61,-252.73C821.8,-242.02 833.79,-229.53 843.5,-217 857.36,-199.11 869.93,-176.6 878.42,-160.02"/>
<polygon fill="#63b8ff" stroke="#63b8ff" points="881.57,-161.53 882.92,-151.02 875.31,-158.4 881.57,-161.53"/>
</a>
</g>
</g>
<!-- Node4 -->
<g id="Node000004" class="node">
<title>Node4</title>
<g id="a_Node000004"><a xlink:href="math_8hpp.html" target="_top" xlink:title=" ">
<polygon fill="white" stroke="#666666" points="815,-151 706,-151 706,-121 815,-121 815,-151"/>
<text text-anchor="start" x="714" y="-139" font-family="Helvetica,sans-Serif" font-size="10.00">iii_drone_core/utils</text>
<text text-anchor="middle" x="760.5" y="-128" font-family="Helvetica,sans-Serif" font-size="10.00">/math.hpp</text>
</a>
</g>
</g>
<!-- Node1&#45;&gt;Node4 -->
<g id="edge3_Node000001_Node000004" class="edge">
<title>Node1&#45;&gt;Node4</title>
<g id="a_edge3_Node000001_Node000004"><a xlink:title=" ">
<path fill="none" stroke="#63b8ff" d="M808.58,-252.89C824.8,-234.03 838.68,-209.29 827.5,-187 821.28,-174.59 810.36,-164.48 799.11,-156.68"/>
<polygon fill="#63b8ff" stroke="#63b8ff" points="800.83,-153.62 790.53,-151.16 797.05,-159.51 800.83,-153.62"/>
</a>
</g>
</g>
<!-- Node6 -->
<g id="Node000006" class="node">
<title>Node6</title>
<g id="a_Node000006"><a xlink:href="types_8hpp.html" target="_top" xlink:title=" ">
<polygon fill="white" stroke="#666666" points="1250,-85 1141,-85 1141,-55 1250,-55 1250,-85"/>
<text text-anchor="start" x="1149" y="-73" font-family="Helvetica,sans-Serif" font-size="10.00">iii_drone_core/utils</text>
<text text-anchor="middle" x="1195.5" y="-62" font-family="Helvetica,sans-Serif" font-size="10.00">/types.hpp</text>
</a>
</g>
</g>
<!-- Node1&#45;&gt;Node6 -->
<g id="edge12_Node000001_Node000006" class="edge">
<title>Node1&#45;&gt;Node6</title>
<g id="a_edge12_Node000001_Node000006"><a xlink:title=" ">
<path fill="none" stroke="#63b8ff" d="M847.31,-272.18C957.32,-253.11 1158.86,-210.72 1196.5,-151 1206.83,-134.61 1205.61,-112.34 1202.35,-95.46"/>
<polygon fill="#63b8ff" stroke="#63b8ff" points="1205.66,-94.23 1200.03,-85.26 1198.84,-95.78 1205.66,-94.23"/>
</a>
</g>
</g>
<!-- Node12 -->
<g id="Node000012" class="node">
<title>Node12</title>
<g id="a_Node000012"><a xlink:href="timestamp_8hpp.html" target="_top" xlink:title=" ">
<polygon fill="white" stroke="#666666" points="365,-217 256,-217 256,-187 365,-187 365,-217"/>
<text text-anchor="start" x="264" y="-205" font-family="Helvetica,sans-Serif" font-size="10.00">iii_drone_core/utils</text>
<text text-anchor="middle" x="310.5" y="-194" font-family="Helvetica,sans-Serif" font-size="10.00">/timestamp.hpp</text>
</a>
</g>
</g>
<!-- Node1&#45;&gt;Node12 -->
<g id="edge13_Node000001_Node000012" class="edge">
<title>Node1&#45;&gt;Node12</title>
<g id="a_edge13_Node000001_Node000012"><a xlink:title=" ">
<path fill="none" stroke="#63b8ff" d="M703.95,-272.76C625.71,-260.77 496.41,-240.19 375.11,-217.06"/>
<polygon fill="#63b8ff" stroke="#63b8ff" points="375.75,-213.62 365.27,-215.17 374.44,-220.49 375.75,-213.62"/>
</a>
</g>
</g>
<!-- Node13 -->
<g id="Node000013" class="node">
<title>Node13</title>
<g id="a_Node000013"><a xlink:title=" ">
<polygon fill="#e0e0e0" stroke="#999999" points="334.5,-145.5 286.5,-145.5 286.5,-126.5 334.5,-126.5 334.5,-145.5"/>
<text text-anchor="middle" x="310.5" y="-133.5" font-family="Helvetica,sans-Serif" font-size="10.00">mutex</text>
</a>
</g>
</g>
<!-- Node1&#45;&gt;Node13 -->
<g id="edge40_Node000001_Node000013" class="edge">
<title>Node1&#45;&gt;Node13</title>
<g id="a_edge40_Node000001_Node000013"><a xlink:title=" ">
<path fill="none" stroke="#63b8ff" d="M704,-279.69C566.54,-271.63 276.29,-250.77 246.5,-217 226.71,-194.57 260.54,-167.09 286.08,-150.87"/>
<polygon fill="#63b8ff" stroke="#63b8ff" points="287.96,-153.82 294.67,-145.63 284.31,-147.85 287.96,-153.82"/>
</a>
</g>
</g>
<!-- Node14 -->
<g id="Node000014" class="node">
<title>Node14</title>
<g id="a_Node000014"><a xlink:title=" ">
<polygon fill="#e0e0e0" stroke="#999999" points="535.5,-145.5 449.5,-145.5 449.5,-126.5 535.5,-126.5 535.5,-145.5"/>
<text text-anchor="middle" x="492.5" y="-133.5" font-family="Helvetica,sans-Serif" font-size="10.00">shared_mutex</text>
</a>
</g>
</g>
<!-- Node1&#45;&gt;Node14 -->
<g id="edge41_Node000001_Node000014" class="edge">
<title>Node1&#45;&gt;Node14</title>
<g id="a_edge41_Node000001_Node000014"><a xlink:title=" ">
<path fill="none" stroke="#63b8ff" d="M703.66,-254.69C679.49,-243.98 652.77,-231 629.5,-217 610.76,-205.73 608.98,-198.69 590.5,-187 568.02,-172.79 541.01,-159.25 521.04,-149.85"/>
<polygon fill="#63b8ff" stroke="#63b8ff" points="522.4,-146.62 511.86,-145.59 519.45,-152.97 522.4,-146.62"/>
</a>
</g>
</g>
<!-- Node15 -->
<g id="Node000015" class="node">
<title>Node15</title>
<g id="a_Node000015"><a xlink:title=" ">
<polygon fill="#e0e0e0" stroke="#999999" points="958,-79.5 859,-79.5 859,-60.5 958,-60.5 958,-79.5"/>
<text text-anchor="middle" x="908.5" y="-67.5" font-family="Helvetica,sans-Serif" font-size="10.00">rclcpp/rclcpp.hpp</text>
</a>
</g>
</g>
<!-- Node1&#45;&gt;Node15 -->
<g id="edge43_Node000001_Node000015" class="edge">
<title>Node1&#45;&gt;Node15</title>
<g id="a_edge43_Node000001_Node000015"><a xlink:title=" ">
<path fill="none" stroke="#63b8ff" d="M703.86,-279.84C564.52,-271.99 267.91,-251.4 237.5,-217 228.67,-207.01 233.91,-199.84 237.5,-187 246.73,-153.96 248.3,-139 277.5,-121 325.4,-91.47 700.62,-77.18 848.7,-72.65"/>
<polygon fill="#63b8ff" stroke="#63b8ff" points="849.07,-76.14 858.96,-72.34 848.86,-69.15 849.07,-76.14"/>
</a>
</g>
</g>
<!-- Node16 -->
<g id="Node000016" class="node">
<title>Node16</title>
<g id="a_Node000016"><a xlink:href="history_8hpp.html" target="_top" xlink:title=" ">
<polygon fill="white" stroke="#666666" points="747,-217 638,-217 638,-187 747,-187 747,-217"/>
<text text-anchor="start" x="646" y="-205" font-family="Helvetica,sans-Serif" font-size="10.00">iii_drone_core/utils</text>
<text text-anchor="middle" x="692.5" y="-194" font-family="Helvetica,sans-Serif" font-size="10.00">/history.hpp</text>
</a>
</g>
</g>
<!-- Node1&#45;&gt;Node16 -->
<g id="edge17_Node000001_Node000016" class="edge">
<title>Node1&#45;&gt;Node16</title>
<g id="a_edge17_Node000001_Node000016"><a xlink:title=" ">
<path fill="none" stroke="#63b8ff" d="M743.65,-252.61C733.89,-243.14 723.38,-232.95 714.44,-224.27"/>
<polygon fill="#63b8ff" stroke="#63b8ff" points="716.66,-221.55 707.04,-217.1 711.78,-226.58 716.66,-221.55"/>
</a>
</g>
</g>
<!-- Node17 -->
<g id="Node000017" class="node">
<title>Node17</title>
<g id="a_Node000017"><a xlink:title=" ">
<polygon fill="#e0e0e0" stroke="#999999" points="688,-145.5 641,-145.5 641,-126.5 688,-126.5 688,-145.5"/>
<text text-anchor="middle" x="664.5" y="-133.5" font-family="Helvetica,sans-Serif" font-size="10.00">vector</text>
</a>
</g>
</g>
<!-- Node1&#45;&gt;Node17 -->
<g id="edge39_Node000001_Node000017" class="edge">
<title>Node1&#45;&gt;Node17</title>
<g id="a_edge39_Node000001_Node000017"><a xlink:title=" ">
<path fill="none" stroke="#63b8ff" d="M790.24,-252.75C797.65,-232.45 802.57,-206.16 789.5,-187 764.75,-150.73 738.16,-167.58 697.5,-151 696.3,-150.51 695.08,-150.01 693.84,-149.5"/>
<polygon fill="#63b8ff" stroke="#63b8ff" points="694.93,-146.16 684.36,-145.53 692.23,-152.62 694.93,-146.16"/>
</a>
</g>
</g>
<!-- Node18 -->
<g id="Node000018" class="node">
<title>Node18</title>
<g id="a_Node000018"><a xlink:title=" ">
<polygon fill="#e0e0e0" stroke="#999999" points="622.5,-145.5 564.5,-145.5 564.5,-126.5 622.5,-126.5 622.5,-145.5"/>
<text text-anchor="middle" x="593.5" y="-133.5" font-family="Helvetica,sans-Serif" font-size="10.00">memory</text>
</a>
</g>
</g>
<!-- Node1&#45;&gt;Node18 -->
<g id="edge42_Node000001_Node000018" class="edge">
<title>Node1&#45;&gt;Node18</title>
<g id="a_edge42_Node000001_Node000018"><a xlink:title=" ">
<path fill="none" stroke="#63b8ff" d="M777.28,-252.88C776.81,-231.84 772.64,-204.63 756.5,-187 717.75,-144.67 687.09,-168.7 632.5,-151 630.39,-150.31 628.22,-149.59 626.03,-148.85"/>
<polygon fill="#63b8ff" stroke="#63b8ff" points="627.11,-145.52 616.52,-145.53 624.81,-152.13 627.11,-145.52"/>
</a>
</g>
</g>
<!-- Node19 -->
<g id="Node000019" class="node">
<title>Node19</title>
<g id="a_Node000019"><a xlink:href="powerline__direction__parameters_8hpp.html" target="_top" xlink:title=" ">
<polygon fill="white" stroke="#666666" points="581.5,-217 383.5,-217 383.5,-187 581.5,-187 581.5,-217"/>
<text text-anchor="start" x="391.5" y="-205" font-family="Helvetica,sans-Serif" font-size="10.00">iii_drone_core/perception</text>
<text text-anchor="middle" x="482.5" y="-194" font-family="Helvetica,sans-Serif" font-size="10.00">/powerline_direction_parameters.hpp</text>
</a>
</g>
</g>
<!-- Node1&#45;&gt;Node19 -->
<g id="edge22_Node000001_Node000019" class="edge">
<title>Node1&#45;&gt;Node19</title>
<g id="a_edge22_Node000001_Node000019"><a xlink:title=" ">
<path fill="none" stroke="#63b8ff" d="M703.82,-263.81C654.63,-250.29 590.06,-232.55 543.37,-219.72"/>
<polygon fill="#63b8ff" stroke="#63b8ff" points="544.26,-216.34 533.69,-217.06 542.4,-223.09 544.26,-216.34"/>
</a>
</g>
</g>
<!-- Node20 -->
<g id="Node000020" class="node">
<title>Node20</title>
<g id="a_Node000020"><a xlink:href="powerline__adapter_8hpp.html" target="_top" xlink:title=" ">
<polygon fill="white" stroke="#666666" points="1049,-217 918,-217 918,-187 1049,-187 1049,-217"/>
<text text-anchor="start" x="926" y="-205" font-family="Helvetica,sans-Serif" font-size="10.00">iii_drone_core/adapters</text>
<text text-anchor="middle" x="983.5" y="-194" font-family="Helvetica,sans-Serif" font-size="10.00">/powerline_adapter.hpp</text>
</a>
</g>
</g>
<!-- Node1&#45;&gt;Node20 -->
<g id="edge24_Node000001_Node000020" class="edge">
<title>Node1&#45;&gt;Node20</title>
<g id="a_edge24_Node000001_Node000020"><a xlink:title=" ">
<path fill="none" stroke="#63b8ff" d="M847.08,-255.8C877.12,-244.17 911.17,-230.99 937.73,-220.71"/>
<polygon fill="#63b8ff" stroke="#63b8ff" points="939.1,-223.94 947.16,-217.06 936.57,-217.41 939.1,-223.94"/>
</a>
</g>
</g>
<!-- Node22 -->
<g id="Node000022" class="node">
<title>Node22</title>
<g id="a_Node000022"><a xlink:title=" ">
<polygon fill="#e0e0e0" stroke="#999999" points="1587.5,-85 1441.5,-85 1441.5,-55 1587.5,-55 1587.5,-85"/>
<text text-anchor="start" x="1449.5" y="-73" font-family="Helvetica,sans-Serif" font-size="10.00">geometry_msgs/msg/pose</text>
<text text-anchor="middle" x="1514.5" y="-62" font-family="Helvetica,sans-Serif" font-size="10.00">_stamped.hpp</text>
</a>
</g>
</g>
<!-- Node1&#45;&gt;Node22 -->
<g id="edge44_Node000001_Node000022" class="edge">
<title>Node1&#45;&gt;Node22</title>
<g id="a_edge44_Node000001_Node000022"><a xlink:title=" ">
<path fill="none" stroke="#63b8ff" d="M847.29,-278.94C967.8,-269.03 1216.15,-238.84 1405.5,-151 1438.21,-135.83 1470.91,-110.06 1491.84,-91.87"/>
<polygon fill="#63b8ff" stroke="#63b8ff" points="1494.35,-94.32 1499.52,-85.08 1489.71,-89.08 1494.35,-94.32"/>
</a>
</g>
</g>
<!-- Node26 -->
<g id="Node000026" class="node">
<title>Node26</title>
<g id="a_Node000026"><a xlink:title=" ">
<polygon fill="#e0e0e0" stroke="#999999" points="1628,-217 1453,-217 1453,-187 1628,-187 1628,-217"/>
<text text-anchor="start" x="1461" y="-205" font-family="Helvetica,sans-Serif" font-size="10.00">geometry_msgs/msg/quaternion</text>
<text text-anchor="middle" x="1540.5" y="-194" font-family="Helvetica,sans-Serif" font-size="10.00">_stamped.hpp</text>
</a>
</g>
</g>
<!-- Node1&#45;&gt;Node26 -->
<g id="edge45_Node000001_Node000026" class="edge">
<title>Node1&#45;&gt;Node26</title>
<g id="a_edge45_Node000001_Node000026"><a xlink:title=" ">
<path fill="none" stroke="#63b8ff" d="M847.21,-277.17C968.93,-266.23 1223.68,-242.51 1438.5,-217 1439.97,-216.83 1441.45,-216.65 1442.94,-216.47"/>
<polygon fill="#63b8ff" stroke="#63b8ff" points="1443.4,-219.94 1452.89,-215.23 1442.54,-212.99 1443.4,-219.94"/>
</a>
</g>
</g>
<!-- Node5 -->
<g id="Node000005" class="node">
<title>Node5</title>
<g id="a_Node000005"><a xlink:title=" ">
<polygon fill="#e0e0e0" stroke="#999999" points="718,-19 613,-19 613,0 718,0 718,-19"/>
<text text-anchor="middle" x="665.5" y="-7" font-family="Helvetica,sans-Serif" font-size="10.00">eigen3/Eigen/Core</text>
</a>
</g>
</g>
<!-- Node4&#45;&gt;Node5 -->
<g id="edge4_Node000004_Node000005" class="edge">
<title>Node4&#45;&gt;Node5</title>
<g id="a_edge4_Node000004_Node000005"><a xlink:title=" ">
<path fill="none" stroke="#63b8ff" d="M749.6,-120.72C731.89,-97.51 696.96,-51.73 678.17,-27.1"/>
<polygon fill="#63b8ff" stroke="#63b8ff" points="680.89,-24.9 672.04,-19.07 675.32,-29.14 680.89,-24.9"/>
</a>
</g>
</g>
<!-- Node4&#45;&gt;Node6 -->
<g id="edge5_Node000004_Node000006" class="edge">
<title>Node4&#45;&gt;Node6</title>
<g id="a_edge5_Node000004_Node000006"><a xlink:title=" ">
<path fill="none" stroke="#63b8ff" d="M815.24,-122.65C818.37,-122.06 821.47,-121.51 824.5,-121 956.81,-98.83 994.27,-107.28 1130.76,-85.01"/>
<polygon fill="#63b8ff" stroke="#63b8ff" points="1131.46,-88.44 1140.76,-83.35 1130.32,-81.53 1131.46,-88.44"/>
</a>
</g>
</g>
<!-- Node6&#45;&gt;Node5 -->
<g id="edge6_Node000006_Node000005" class="edge">
<title>Node6&#45;&gt;Node5</title>
<g id="a_edge6_Node000006_Node000005"><a xlink:title=" ">
<path fill="none" stroke="#63b8ff" d="M1140.77,-56.55C1137.64,-55.99 1134.54,-55.47 1131.5,-55 956.53,-28.18 908.36,-38.84 728.32,-19.03"/>
<polygon fill="#63b8ff" stroke="#63b8ff" points="728.57,-15.54 718.24,-17.9 727.79,-22.49 728.57,-15.54"/>
</a>
</g>
</g>
<!-- Node7 -->
<g id="Node000007" class="node">
<title>Node7</title>
<g id="a_Node000007"><a xlink:title=" ">
<polygon fill="#e0e0e0" stroke="#999999" points="1311.5,-19 1143.5,-19 1143.5,0 1311.5,0 1311.5,-19"/>
<text text-anchor="middle" x="1227.5" y="-7" font-family="Helvetica,sans-Serif" font-size="10.00">geometry_msgs/msg/point.hpp</text>
</a>
</g>
</g>
<!-- Node6&#45;&gt;Node7 -->
<g id="edge7_Node000006_Node000007" class="edge">
<title>Node6&#45;&gt;Node7</title>
<g id="a_edge7_Node000006_Node000007"><a xlink:title=" ">
<path fill="none" stroke="#63b8ff" d="M1203.25,-54.84C1207.65,-46.78 1213.21,-36.62 1217.9,-28.06"/>
<polygon fill="#63b8ff" stroke="#63b8ff" points="1220.98,-29.72 1222.7,-19.27 1214.84,-26.36 1220.98,-29.72"/>
</a>
</g>
</g>
<!-- Node8 -->
<g id="Node000008" class="node">
<title>Node8</title>
<g id="a_Node000008"><a xlink:title=" ">
<polygon fill="#e0e0e0" stroke="#999999" points="1525.5,-19 1329.5,-19 1329.5,0 1525.5,0 1525.5,-19"/>
<text text-anchor="middle" x="1427.5" y="-7" font-family="Helvetica,sans-Serif" font-size="10.00">geometry_msgs/msg/quaternion.hpp</text>
</a>
</g>
</g>
<!-- Node6&#45;&gt;Node8 -->
<g id="edge8_Node000006_Node000008" class="edge">
<title>Node6&#45;&gt;Node8</title>
<g id="a_edge8_Node000006_Node000008"><a xlink:title=" ">
<path fill="none" stroke="#63b8ff" d="M1250.19,-55.21C1291.01,-44.92 1346.06,-31.03 1383.94,-21.49"/>
<polygon fill="#63b8ff" stroke="#63b8ff" points="1384.81,-24.87 1393.65,-19.03 1383.1,-18.09 1384.81,-24.87"/>
</a>
</g>
</g>
<!-- Node9 -->
<g id="Node000009" class="node">
<title>Node9</title>
<g id="a_Node000009"><a xlink:title=" ">
<polygon fill="#e0e0e0" stroke="#999999" points="1710,-19 1543,-19 1543,0 1710,0 1710,-19"/>
<text text-anchor="middle" x="1626.5" y="-7" font-family="Helvetica,sans-Serif" font-size="10.00">geometry_msgs/msg/pose.hpp</text>
</a>
</g>
</g>
<!-- Node6&#45;&gt;Node9 -->
<g id="edge9_Node000006_Node000009" class="edge">
<title>Node6&#45;&gt;Node9</title>
<g id="a_edge9_Node000006_Node000009"><a xlink:title=" ">
<path fill="none" stroke="#63b8ff" d="M1250.25,-56.67C1253.37,-56.07 1256.47,-55.51 1259.5,-55 1351.82,-39.34 1458.1,-27.08 1532.45,-19.43"/>
<polygon fill="#63b8ff" stroke="#63b8ff" points="1533.14,-22.87 1542.73,-18.38 1532.42,-15.91 1533.14,-22.87"/>
</a>
</g>
</g>
<!-- Node10 -->
<g id="Node000010" class="node">
<title>Node10</title>
<g id="a_Node000010"><a xlink:title=" ">
<polygon fill="#e0e0e0" stroke="#999999" points="927,-19 736,-19 736,0 927,0 927,-19"/>
<text text-anchor="middle" x="831.5" y="-7" font-family="Helvetica,sans-Serif" font-size="10.00">geometry_msgs/msg/transform.hpp</text>
</a>
</g>
</g>
<!-- Node6&#45;&gt;Node10 -->
<g id="edge10_Node000006_Node000010" class="edge">
<title>Node6&#45;&gt;Node10</title>
<g id="a_edge10_Node000006_Node000010"><a xlink:title=" ">
<path fill="none" stroke="#63b8ff" d="M1140.74,-56.76C1137.62,-56.15 1134.52,-55.55 1131.5,-55 1055.86,-41.13 968.88,-28.61 908.12,-20.4"/>
<polygon fill="#63b8ff" stroke="#63b8ff" points="908.23,-16.88 897.85,-19.02 907.29,-23.82 908.23,-16.88"/>
</a>
</g>
</g>
<!-- Node11 -->
<g id="Node000011" class="node">
<title>Node11</title>
<g id="a_Node000011"><a xlink:title=" ">
<polygon fill="#e0e0e0" stroke="#999999" points="1125.5,-19 945.5,-19 945.5,0 1125.5,0 1125.5,-19"/>
<text text-anchor="middle" x="1035.5" y="-7" font-family="Helvetica,sans-Serif" font-size="10.00">geometry_msgs/msg/vector3.hpp</text>
</a>
</g>
</g>
<!-- Node6&#45;&gt;Node11 -->
<g id="edge11_Node000006_Node000011" class="edge">
<title>Node6&#45;&gt;Node11</title>
<g id="a_edge11_Node000006_Node000011"><a xlink:title=" ">
<path fill="none" stroke="#63b8ff" d="M1157.18,-54.99C1130.24,-45.14 1094.57,-32.1 1068.81,-22.68"/>
<polygon fill="#63b8ff" stroke="#63b8ff" points="1069.72,-19.29 1059.13,-19.14 1067.32,-25.86 1069.72,-19.29"/>
</a>
</g>
</g>
<!-- Node12&#45;&gt;Node13 -->
<g id="edge14_Node000012_Node000013" class="edge">
<title>Node12&#45;&gt;Node13</title>
<g id="a_edge14_Node000012_Node000013"><a xlink:title=" ">
<path fill="none" stroke="#63b8ff" d="M310.5,-186.8C310.5,-177.7 310.5,-165.79 310.5,-155.9"/>
<polygon fill="#63b8ff" stroke="#63b8ff" points="314,-155.84 310.5,-145.84 307,-155.84 314,-155.84"/>
</a>
</g>
</g>
<!-- Node12&#45;&gt;Node14 -->
<g id="edge15_Node000012_Node000014" class="edge">
<title>Node12&#45;&gt;Node14</title>
<g id="a_edge15_Node000012_Node000014"><a xlink:title=" ">
<path fill="none" stroke="#63b8ff" d="M350.44,-186.95C382.78,-175.58 427.84,-159.74 458.48,-148.96"/>
<polygon fill="#63b8ff" stroke="#63b8ff" points="460.01,-152.14 468.28,-145.52 457.68,-145.53 460.01,-152.14"/>
</a>
</g>
</g>
<!-- Node12&#45;&gt;Node15 -->
<g id="edge16_Node000012_Node000015" class="edge">
<title>Node12&#45;&gt;Node15</title>
<g id="a_edge16_Node000012_Node000015"><a xlink:title=" ">
<path fill="none" stroke="#63b8ff" d="M327.72,-186.86C351.47,-168.23 396.36,-136.07 440.5,-121 514.57,-95.71 739.86,-80.27 848.56,-74.1"/>
<polygon fill="#63b8ff" stroke="#63b8ff" points="848.92,-77.59 858.71,-73.53 848.53,-70.6 848.92,-77.59"/>
</a>
</g>
</g>
<!-- Node16&#45;&gt;Node13 -->
<g id="edge18_Node000016_Node000013" class="edge">
<title>Node16&#45;&gt;Node13</title>
<g id="a_edge18_Node000016_Node000013"><a xlink:title=" ">
<path fill="none" stroke="#63b8ff" d="M637.77,-191.83C557.68,-178.41 410.88,-153.82 344.59,-142.71"/>
<polygon fill="#63b8ff" stroke="#63b8ff" points="345.1,-139.25 334.66,-141.05 343.94,-146.15 345.1,-139.25"/>
</a>
</g>
</g>
<!-- Node16&#45;&gt;Node14 -->
<g id="edge19_Node000016_Node000014" class="edge">
<title>Node16&#45;&gt;Node14</title>
<g id="a_edge19_Node000016_Node000014"><a xlink:title=" ">
<path fill="none" stroke="#63b8ff" d="M648.61,-186.95C612.76,-175.48 562.69,-159.46 529.01,-148.68"/>
<polygon fill="#63b8ff" stroke="#63b8ff" points="529.71,-145.23 519.12,-145.52 527.57,-151.9 529.71,-145.23"/>
</a>
</g>
</g>
<!-- Node16&#45;&gt;Node17 -->
<g id="edge20_Node000016_Node000017" class="edge">
<title>Node16&#45;&gt;Node17</title>
<g id="a_edge20_Node000016_Node000017"><a xlink:title=" ">
<path fill="none" stroke="#63b8ff" d="M686.29,-186.8C682.22,-177.5 676.87,-165.27 672.49,-155.26"/>
<polygon fill="#63b8ff" stroke="#63b8ff" points="675.58,-153.6 668.37,-145.84 669.17,-156.41 675.58,-153.6"/>
</a>
</g>
</g>
<!-- Node16&#45;&gt;Node18 -->
<g id="edge21_Node000016_Node000018" class="edge">
<title>Node16&#45;&gt;Node18</title>
<g id="a_edge21_Node000016_Node000018"><a xlink:title=" ">
<path fill="none" stroke="#63b8ff" d="M670.53,-186.8C654.09,-176.17 631.71,-161.7 615.31,-151.1"/>
<polygon fill="#63b8ff" stroke="#63b8ff" points="617.19,-148.15 606.89,-145.66 613.39,-154.03 617.19,-148.15"/>
</a>
</g>
</g>
<!-- Node19&#45;&gt;Node14 -->
<g id="edge23_Node000019_Node000014" class="edge">
<title>Node19&#45;&gt;Node14</title>
<g id="a_edge23_Node000019_Node000014"><a xlink:title=" ">
<path fill="none" stroke="#63b8ff" d="M484.72,-186.8C486.14,-177.7 488,-165.79 489.55,-155.9"/>
<polygon fill="#63b8ff" stroke="#63b8ff" points="493.03,-156.26 491.12,-145.84 486.12,-155.18 493.03,-156.26"/>
</a>
</g>
</g>
<!-- Node20&#45;&gt;Node3 -->
<g id="edge38_Node000020_Node000003" class="edge">
<title>Node20&#45;&gt;Node3</title>
<g id="a_edge38_Node000020_Node000003"><a xlink:title=" ">
<path fill="none" stroke="#63b8ff" d="M962.64,-186.8C949.74,-178.01 932.99,-166.61 918.77,-156.93"/>
<polygon fill="#63b8ff" stroke="#63b8ff" points="920.54,-153.9 910.3,-151.16 916.6,-159.69 920.54,-153.9"/>
</a>
</g>
</g>
<!-- Node20&#45;&gt;Node6 -->
<g id="edge27_Node000020_Node000006" class="edge">
<title>Node20&#45;&gt;Node6</title>
<g id="a_edge27_Node000020_Node000006"><a xlink:title=" ">
<path fill="none" stroke="#63b8ff" d="M1049.09,-191.22C1097.43,-182.71 1157.75,-168.93 1175.5,-151 1189.93,-136.43 1194.47,-113.11 1195.68,-95.4"/>
<polygon fill="#63b8ff" stroke="#63b8ff" points="1199.18,-95.35 1196.05,-85.23 1192.19,-95.09 1199.18,-95.35"/>
</a>
</g>
</g>
<!-- Node20&#45;&gt;Node15 -->
<g id="edge26_Node000020_Node000015" class="edge">
<title>Node20&#45;&gt;Node15</title>
<g id="a_edge26_Node000020_Node000015"><a xlink:title=" ">
<path fill="none" stroke="#63b8ff" d="M980.47,-186.93C976.47,-170.31 968.4,-142.26 955.5,-121 947.68,-108.11 936.1,-95.75 926.4,-86.54"/>
<polygon fill="#63b8ff" stroke="#63b8ff" points="928.55,-83.76 918.81,-79.6 923.83,-88.93 928.55,-83.76"/>
</a>
</g>
</g>
<!-- Node20&#45;&gt;Node17 -->
<g id="edge25_Node000020_Node000017" class="edge">
<title>Node20&#45;&gt;Node17</title>
<g id="a_edge25_Node000020_Node000017"><a xlink:title=" ">
<path fill="none" stroke="#63b8ff" d="M917.78,-193.84C859.17,-186.44 771.46,-172.84 697.5,-151 695.82,-150.5 694.11,-149.95 692.39,-149.35"/>
<polygon fill="#63b8ff" stroke="#63b8ff" points="693.32,-145.95 682.73,-145.61 690.79,-152.48 693.32,-145.95"/>
</a>
</g>
</g>
<!-- Node21 -->
<g id="Node000021" class="node">
<title>Node21</title>
<g id="a_Node000021"><a xlink:href="single__line__adapter_8hpp.html" target="_top" xlink:title=" ">
<polygon fill="white" stroke="#666666" points="1396,-151 1261,-151 1261,-121 1396,-121 1396,-151"/>
<text text-anchor="start" x="1269" y="-139" font-family="Helvetica,sans-Serif" font-size="10.00">iii_drone_core/adapters</text>
<text text-anchor="middle" x="1328.5" y="-128" font-family="Helvetica,sans-Serif" font-size="10.00">/single_line_adapter.hpp</text>
</a>
</g>
</g>
<!-- Node20&#45;&gt;Node21 -->
<g id="edge28_Node000020_Node000021" class="edge">
<title>Node20&#45;&gt;Node21</title>
<g id="a_edge28_Node000020_Node000021"><a xlink:title=" ">
<path fill="none" stroke="#63b8ff" d="M1049.2,-188.81C1106.71,-178.14 1190.31,-162.63 1251.06,-151.37"/>
<polygon fill="#63b8ff" stroke="#63b8ff" points="1251.79,-154.79 1260.98,-149.53 1250.51,-147.91 1251.79,-154.79"/>
</a>
</g>
</g>
<!-- Node24 -->
<g id="Node000024" class="node">
<title>Node24</title>
<g id="a_Node000024"><a xlink:href="projection__plane__adapter_8hpp.html" target="_top" xlink:title=" ">
<polygon fill="white" stroke="#666666" points="1166.5,-151 1002.5,-151 1002.5,-121 1166.5,-121 1166.5,-151"/>
<text text-anchor="start" x="1010.5" y="-139" font-family="Helvetica,sans-Serif" font-size="10.00">iii_drone_core/adapters</text>
<text text-anchor="middle" x="1084.5" y="-128" font-family="Helvetica,sans-Serif" font-size="10.00">/projection_plane_adapter.hpp</text>
</a>
</g>
</g>
<!-- Node20&#45;&gt;Node24 -->
<g id="edge34_Node000020_Node000024" class="edge">
<title>Node20&#45;&gt;Node24</title>
<g id="a_edge34_Node000020_Node000024"><a xlink:title=" ">
<path fill="none" stroke="#63b8ff" d="M1005.92,-186.8C1019.91,-177.93 1038.12,-166.39 1053.48,-156.66"/>
<polygon fill="#63b8ff" stroke="#63b8ff" points="1055.57,-159.47 1062.15,-151.16 1051.83,-153.56 1055.57,-159.47"/>
</a>
</g>
</g>
<!-- Node21&#45;&gt;Node6 -->
<g id="edge32_Node000021_Node000006" class="edge">
<title>Node21&#45;&gt;Node6</title>
<g id="a_edge32_Node000021_Node000006"><a xlink:title=" ">
<path fill="none" stroke="#63b8ff" d="M1299.31,-120.95C1280.08,-111.7 1254.7,-99.49 1233.84,-89.45"/>
<polygon fill="#63b8ff" stroke="#63b8ff" points="1235.15,-86.19 1224.62,-85.01 1232.11,-92.5 1235.15,-86.19"/>
</a>
</g>
</g>
<!-- Node21&#45;&gt;Node9 -->
<g id="edge30_Node000021_Node000009" class="edge">
<title>Node21&#45;&gt;Node9</title>
<g id="a_edge30_Node000021_Node000009"><a xlink:title=" ">
<path fill="none" stroke="#63b8ff" d="M1347.35,-120.87C1360.59,-110.91 1378.69,-97.22 1394.5,-85 1411.52,-71.84 1413.1,-64.3 1432.5,-55 1467.82,-38.07 1509.89,-27.41 1545.82,-20.79"/>
<polygon fill="#63b8ff" stroke="#63b8ff" points="1546.54,-24.21 1555.77,-19.02 1545.32,-17.32 1546.54,-24.21"/>
</a>
</g>
</g>
<!-- Node21&#45;&gt;Node15 -->
<g id="edge29_Node000021_Node000015" class="edge">
<title>Node21&#45;&gt;Node15</title>
<g id="a_edge29_Node000021_Node000015"><a xlink:title=" ">
<path fill="none" stroke="#63b8ff" d="M1260.99,-127.6C1188.23,-119.17 1069.18,-104.06 967.5,-85 962.46,-84.05 957.19,-82.96 951.98,-81.81"/>
<polygon fill="#63b8ff" stroke="#63b8ff" points="952.61,-78.36 942.08,-79.55 951.05,-85.19 952.61,-78.36"/>
</a>
</g>
</g>
<!-- Node21&#45;&gt;Node22 -->
<g id="edge31_Node000021_Node000022" class="edge">
<title>Node21&#45;&gt;Node22</title>
<g id="a_edge31_Node000021_Node000022"><a xlink:title=" ">
<path fill="none" stroke="#63b8ff" d="M1369.32,-120.95C1397.18,-111.37 1434.28,-98.6 1464,-88.37"/>
<polygon fill="#63b8ff" stroke="#63b8ff" points="1465.46,-91.58 1473.78,-85.01 1463.18,-84.96 1465.46,-91.58"/>
</a>
</g>
</g>
<!-- Node23 -->
<g id="Node000023" class="node">
<title>Node23</title>
<g id="a_Node000023"><a xlink:title=" ">
<polygon fill="#e0e0e0" stroke="#999999" points="1385,-85 1268,-85 1268,-55 1385,-55 1385,-85"/>
<text text-anchor="start" x="1276" y="-73" font-family="Helvetica,sans-Serif" font-size="10.00">iii_drone_interfaces</text>
<text text-anchor="middle" x="1326.5" y="-62" font-family="Helvetica,sans-Serif" font-size="10.00">/msg/single_line.hpp</text>
</a>
</g>
</g>
<!-- Node21&#45;&gt;Node23 -->
<g id="edge33_Node000021_Node000023" class="edge">
<title>Node21&#45;&gt;Node23</title>
<g id="a_edge33_Node000021_Node000023"><a xlink:title=" ">
<path fill="none" stroke="#63b8ff" d="M1328.06,-120.8C1327.82,-113.34 1327.53,-103.99 1327.26,-95.41"/>
<polygon fill="#63b8ff" stroke="#63b8ff" points="1330.75,-95.05 1326.94,-85.16 1323.76,-95.27 1330.75,-95.05"/>
</a>
</g>
</g>
<!-- Node24&#45;&gt;Node6 -->
<g id="edge36_Node000024_Node000006" class="edge">
<title>Node24&#45;&gt;Node6</title>
<g id="a_edge36_Node000024_Node000006"><a xlink:title=" ">
<path fill="none" stroke="#63b8ff" d="M1108.86,-120.95C1124.47,-111.95 1144.95,-100.14 1162.08,-90.27"/>
<polygon fill="#63b8ff" stroke="#63b8ff" points="1164.28,-93.04 1171.2,-85.01 1160.79,-86.98 1164.28,-93.04"/>
</a>
</g>
</g>
<!-- Node24&#45;&gt;Node15 -->
<g id="edge35_Node000024_Node000015" class="edge">
<title>Node24&#45;&gt;Node15</title>
<g id="a_edge35_Node000024_Node000015"><a xlink:title=" ">
<path fill="none" stroke="#63b8ff" d="M1045.88,-120.95C1014.6,-109.58 971.03,-93.74 941.4,-82.96"/>
<polygon fill="#63b8ff" stroke="#63b8ff" points="942.52,-79.65 931.92,-79.52 940.12,-86.22 942.52,-79.65"/>
</a>
</g>
</g>
<!-- Node25 -->
<g id="Node000025" class="node">
<title>Node25</title>
<g id="a_Node000025"><a xlink:title=" ">
<polygon fill="#e0e0e0" stroke="#999999" points="1122.5,-85 976.5,-85 976.5,-55 1122.5,-55 1122.5,-85"/>
<text text-anchor="start" x="984.5" y="-73" font-family="Helvetica,sans-Serif" font-size="10.00">iii_drone_interfaces</text>
<text text-anchor="middle" x="1049.5" y="-62" font-family="Helvetica,sans-Serif" font-size="10.00">/msg/projection_plane.hpp</text>
</a>
</g>
</g>
<!-- Node24&#45;&gt;Node25 -->
<g id="edge37_Node000024_Node000025" class="edge">
<title>Node24&#45;&gt;Node25</title>
<g id="a_edge37_Node000024_Node000025"><a xlink:title=" ">
<path fill="none" stroke="#63b8ff" d="M1076.73,-120.8C1072.43,-112.92 1066.97,-102.95 1062.07,-93.99"/>
<polygon fill="#63b8ff" stroke="#63b8ff" points="1065.11,-92.26 1057.25,-85.16 1058.97,-95.62 1065.11,-92.26"/>
</a>
</g>
</g>
</g>
</svg>

<g id="navigator" transform="translate(0 0)" fill="#404254">
  <rect fill="#f2f5e9" fill-opacity="0.5" stroke="#606060" stroke-width=".5" x="0" y="0" width="60" height="60"/>
  <use id="zoomplus" xlink:href="#zoomPlus" x="17" y="9" onmousedown="handleZoom(evt,'in')"/>
  <use id="zoomminus" xlink:href="#zoomMin" x="42" y="9" onmousedown="handleZoom(evt,'out')"/>
  <use id="reset" xlink:href="#resetDef" x="30" y="36" onmousedown="handleReset()"/>
   <use id="arrowup" xlink:href="#arrowUp" x="0" y="0" onmousedown="handlePan(0,-1)"/>
  <use id="arrowright" xlink:href="#arrowRight" x="0" y="0" onmousedown="handlePan(1,0)"/>
  <use id="arrowdown" xlink:href="#arrowDown" x="0" y="0" onmousedown="handlePan(0,1)"/>
  <use id="arrowleft" xlink:href="#arrowLeft" x="0" y="0" onmousedown="handlePan(-1,0)"/>
</g>
<svg viewBox="0 0 15 15" width="100%" height="30px" preserveAspectRatio="xMaxYMin meet">
 <g id="arrow_out" transform="scale(0.3 0.3)">
  <a xlink:href="powerline__direction_8hpp__incl_org.svg" target="_base">
   <rect id="button" ry="5" rx="5" y="6" x="6" height="38" width="38"
        fill="#f2f5e9" fill-opacity="0.5" stroke="#606060" stroke-width="1.0"/>
   <path id="arrow"
     d="M 11.500037,31.436501 C 11.940474,20.09759 22.043105,11.32322 32.158766,21.979434 L 37.068811,17.246167 C 37.068811,17.246167 37.088388,32 37.088388,32 L 22.160133,31.978069 C 22.160133,31.978069 26.997745,27.140456 26.997745,27.140456 C 18.528582,18.264221 13.291696,25.230495 11.500037,31.436501 z"
     style="fill:#404040;"/>
  </a>
 </g>
</svg>

<style type='text/css'>
<![CDATA[
[data-mouse-over-selected='false'] { opacity: 0.7; }
[data-mouse-over-selected='true']  { opacity: 1.0; }
]]>
</style>
<script type="application/ecmascript"><![CDATA[
document.addEventListener('DOMContentLoaded', (event) => {
  highlightEdges();
  highlightAdjacentNodes();
});
]]></script>
</svg>
