<?xml version="1.0" encoding="UTF-8" standalone="no"?>
<!DOCTYPE svg PUBLIC "-//W3C//DTD SVG 1.1//EN"
 "http://www.w3.org/Graphics/SVG/1.1/DTD/svg11.dtd">
<!-- Generated by graphviz version 2.43.0 (0)
 -->
<!-- Title: /home/ffn/Workspace/ros2_humble_ws/src/III&#45;Drone&#45;Core/include/iii_drone_core/adapters/reference_adapter.hpp Pages: 1 -->
<svg width="1273pt" height="610pt"
 viewBox="0.00 0.00 1273.00 610.00" xmlns="http://www.w3.org/2000/svg" xmlns:xlink="http://www.w3.org/1999/xlink">
<g id="graph0" class="graph" transform="scale(1 1) rotate(0) translate(4 606)">
<title>/home/ffn/Workspace/ros2_humble_ws/src/III&#45;Drone&#45;Core/include/iii_drone_core/adapters/reference_adapter.hpp</title>
<!-- Node1 -->
<g id="Node000001" class="node">
<title>Node1</title>
<g id="a_Node000001"><a xlink:title=" ">
<polygon fill="#999999" stroke="#666666" points="840,-602 706,-602 706,-539 840,-539 840,-602"/>
<text text-anchor="start" x="714" y="-590" font-family="Helvetica,sans-Serif" font-size="10.00">/home/ffn/Workspace</text>
<text text-anchor="start" x="714" y="-579" font-family="Helvetica,sans-Serif" font-size="10.00">/ros2_humble_ws/src</text>
<text text-anchor="start" x="714" y="-568" font-family="Helvetica,sans-Serif" font-size="10.00">/III&#45;Drone&#45;Core/include</text>
<text text-anchor="start" x="714" y="-557" font-family="Helvetica,sans-Serif" font-size="10.00">/iii_drone_core/adapters</text>
<text text-anchor="middle" x="773" y="-546" font-family="Helvetica,sans-Serif" font-size="10.00">/reference_adapter.hpp</text>
</a>
</g>
</g>
<!-- Node2 -->
<g id="Node000002" class="node">
<title>Node2</title>
<g id="a_Node000002"><a xlink:href="trajectory__setpoint__adapter_8hpp.html" target="_top" xlink:title=" ">
<polygon fill="white" stroke="#666666" points="579,-503 445,-503 445,-429 579,-429 579,-503"/>
<text text-anchor="start" x="453" y="-491" font-family="Helvetica,sans-Serif" font-size="10.00">/home/ffn/Workspace</text>
<text text-anchor="start" x="453" y="-480" font-family="Helvetica,sans-Serif" font-size="10.00">/ros2_humble_ws/src</text>
<text text-anchor="start" x="453" y="-469" font-family="Helvetica,sans-Serif" font-size="10.00">/III&#45;Drone&#45;Core/include</text>
<text text-anchor="start" x="453" y="-458" font-family="Helvetica,sans-Serif" font-size="10.00">/iii_drone_core/adapters</text>
<text text-anchor="start" x="453" y="-447" font-family="Helvetica,sans-Serif" font-size="10.00">/px4/trajectory_setpoint</text>
<text text-anchor="middle" x="512" y="-436" font-family="Helvetica,sans-Serif" font-size="10.00">_adapter.hpp</text>
</a>
</g>
</g>
<!-- Node1&#45;&gt;Node2 -->
<g id="edge1_Node000001_Node000002" class="edge">
<title>Node1&#45;&gt;Node2</title>
<g id="a_edge1_Node000001_Node000002"><a xlink:title=" ">
<path fill="none" stroke="#63b8ff" d="M696.05,-539.28C659.05,-524.75 615.11,-507.49 579.44,-493.48"/>
<polygon fill="#63b8ff" stroke="#63b8ff" points="695.2,-542.71 705.79,-543.1 697.76,-536.19 695.2,-542.71"/>
</a>
</g>
</g>
<!-- Node5 -->
<g id="Node000005" class="node">
<title>Node5</title>
<g id="a_Node000005"><a xlink:href="reference__trajectory__adapter_8hpp.html" target="_top" xlink:title=" ">
<polygon fill="white" stroke="#666666" points="924,-497.5 742,-497.5 742,-434.5 924,-434.5 924,-497.5"/>
<text text-anchor="start" x="750" y="-485.5" font-family="Helvetica,sans-Serif" font-size="10.00">/home/ffn/Workspace</text>
<text text-anchor="start" x="750" y="-474.5" font-family="Helvetica,sans-Serif" font-size="10.00">/ros2_humble_ws/src</text>
<text text-anchor="start" x="750" y="-463.5" font-family="Helvetica,sans-Serif" font-size="10.00">/III&#45;Drone&#45;Core/include</text>
<text text-anchor="start" x="750" y="-452.5" font-family="Helvetica,sans-Serif" font-size="10.00">/iii_drone_core/adapters</text>
<text text-anchor="middle" x="833" y="-441.5" font-family="Helvetica,sans-Serif" font-size="10.00">/reference_trajectory_adapter.hpp</text>
</a>
</g>
</g>
<!-- Node1&#45;&gt;Node5 -->
<g id="edge4_Node000001_Node000005" class="edge">
<title>Node1&#45;&gt;Node5</title>
<g id="a_edge4_Node000001_Node000005"><a xlink:title=" ">
<path fill="none" stroke="#63b8ff" d="M796.14,-529.98C802.4,-519.28 809.08,-507.87 815.01,-497.73"/>
<polygon fill="#63b8ff" stroke="#63b8ff" points="793.03,-528.35 791,-538.75 799.07,-531.88 793.03,-528.35"/>
</a>
</g>
</g>
<!-- Node12 -->
<g id="Node000012" class="node">
<title>Node12</title>
<g id="a_Node000012"><a xlink:href="trajectory__generator__client_8hpp.html" target="_top" xlink:title=" ">
<polygon fill="white" stroke="#666666" points="800.5,-387.5 627.5,-387.5 627.5,-324.5 800.5,-324.5 800.5,-387.5"/>
<text text-anchor="start" x="635.5" y="-375.5" font-family="Helvetica,sans-Serif" font-size="10.00">/home/ffn/Workspace</text>
<text text-anchor="start" x="635.5" y="-364.5" font-family="Helvetica,sans-Serif" font-size="10.00">/ros2_humble_ws/src</text>
<text text-anchor="start" x="635.5" y="-353.5" font-family="Helvetica,sans-Serif" font-size="10.00">/III&#45;Drone&#45;Core/include</text>
<text text-anchor="start" x="635.5" y="-342.5" font-family="Helvetica,sans-Serif" font-size="10.00">/iii_drone_core/control</text>
<text text-anchor="middle" x="714" y="-331.5" font-family="Helvetica,sans-Serif" font-size="10.00">/trajectory_generator_client.hpp</text>
</a>
</g>
</g>
<!-- Node1&#45;&gt;Node12 -->
<g id="edge24_Node000001_Node000012" class="edge">
<title>Node1&#45;&gt;Node12</title>
<g id="a_edge24_Node000001_Node000012"><a xlink:title=" ">
<path fill="none" stroke="#63b8ff" d="M745.66,-530.01C740.75,-521.43 736.19,-512.16 733,-503 719.66,-464.74 715.56,-417.89 714.36,-387.75"/>
<polygon fill="#63b8ff" stroke="#63b8ff" points="742.71,-531.91 750.86,-538.69 748.72,-528.31 742.71,-531.91"/>
</a>
</g>
</g>
<!-- Node14 -->
<g id="Node000014" class="node">
<title>Node14</title>
<g id="a_Node000014"><a xlink:href="trajectory__generator__node_8hpp.html" target="_top" xlink:title=" ">
<polygon fill="white" stroke="#666666" points="1265,-393 1095,-393 1095,-319 1265,-319 1265,-393"/>
<text text-anchor="start" x="1103" y="-381" font-family="Helvetica,sans-Serif" font-size="10.00">/home/ffn/Workspace</text>
<text text-anchor="start" x="1103" y="-370" font-family="Helvetica,sans-Serif" font-size="10.00">/ros2_humble_ws/src</text>
<text text-anchor="start" x="1103" y="-359" font-family="Helvetica,sans-Serif" font-size="10.00">/III&#45;Drone&#45;Core/include</text>
<text text-anchor="start" x="1103" y="-348" font-family="Helvetica,sans-Serif" font-size="10.00">/iii_drone_core/control</text>
<text text-anchor="start" x="1103" y="-337" font-family="Helvetica,sans-Serif" font-size="10.00">/trajectory_generator_node</text>
<text text-anchor="middle" x="1180" y="-326" font-family="Helvetica,sans-Serif" font-size="10.00">/trajectory_generator_node.hpp</text>
</a>
</g>
</g>
<!-- Node1&#45;&gt;Node14 -->
<g id="edge25_Node000001_Node000014" class="edge">
<title>Node1&#45;&gt;Node14</title>
<g id="a_edge25_Node000001_Node000014"><a xlink:title=" ">
<path fill="none" stroke="#63b8ff" d="M849.64,-549.91C878.36,-539.62 909.66,-524.53 933,-503 960.17,-477.93 942.75,-452.85 971,-429 1011.6,-394.72 1034.8,-410.42 1085,-393 1088.25,-391.87 1091.55,-390.71 1094.89,-389.52"/>
<polygon fill="#63b8ff" stroke="#63b8ff" points="848.33,-546.65 840.01,-553.21 850.6,-553.27 848.33,-546.65"/>
</a>
</g>
</g>
<!-- Node17 -->
<g id="Node000017" class="node">
<title>Node17</title>
<g id="a_Node000017"><a xlink:href="maneuver__scheduler_8hpp.html" target="_top" xlink:title=" ">
<polygon fill="white" stroke="#666666" points="370,-497.5 176,-497.5 176,-434.5 370,-434.5 370,-497.5"/>
<text text-anchor="start" x="184" y="-485.5" font-family="Helvetica,sans-Serif" font-size="10.00">/home/ffn/Workspace</text>
<text text-anchor="start" x="184" y="-474.5" font-family="Helvetica,sans-Serif" font-size="10.00">/ros2_humble_ws/src</text>
<text text-anchor="start" x="184" y="-463.5" font-family="Helvetica,sans-Serif" font-size="10.00">/III&#45;Drone&#45;Core/include</text>
<text text-anchor="start" x="184" y="-452.5" font-family="Helvetica,sans-Serif" font-size="10.00">/iii_drone_core/control</text>
<text text-anchor="middle" x="273" y="-441.5" font-family="Helvetica,sans-Serif" font-size="10.00">/maneuver/maneuver_scheduler.hpp</text>
</a>
</g>
</g>
<!-- Node1&#45;&gt;Node17 -->
<g id="edge20_Node000001_Node000017" class="edge">
<title>Node1&#45;&gt;Node17</title>
<g id="a_edge20_Node000001_Node000017"><a xlink:title=" ">
<path fill="none" stroke="#63b8ff" d="M695.94,-554.81C627.57,-541.65 525.02,-521.61 436,-503 414.72,-498.55 391.92,-493.62 370.32,-488.87"/>
<polygon fill="#63b8ff" stroke="#63b8ff" points="695.29,-558.25 705.77,-556.7 696.61,-551.37 695.29,-558.25"/>
</a>
</g>
</g>
<!-- Node19 -->
<g id="Node000019" class="node">
<title>Node19</title>
<g id="a_Node000019"><a xlink:href="reference__adapter_8cpp.html" target="_top" xlink:title=" ">
<polygon fill="white" stroke="#666666" points="1131.5,-492 980.5,-492 980.5,-440 1131.5,-440 1131.5,-492"/>
<text text-anchor="start" x="988.5" y="-480" font-family="Helvetica,sans-Serif" font-size="10.00">/home/ffn/Workspace</text>
<text text-anchor="start" x="988.5" y="-469" font-family="Helvetica,sans-Serif" font-size="10.00">/ros2_humble_ws/src</text>
<text text-anchor="start" x="988.5" y="-458" font-family="Helvetica,sans-Serif" font-size="10.00">/III&#45;Drone&#45;Core/src/adapters</text>
<text text-anchor="middle" x="1056" y="-447" font-family="Helvetica,sans-Serif" font-size="10.00">/reference_adapter.cpp</text>
</a>
</g>
</g>
<!-- Node1&#45;&gt;Node19 -->
<g id="edge26_Node000001_Node000019" class="edge">
<title>Node1&#45;&gt;Node19</title>
<g id="a_edge26_Node000001_Node000019"><a xlink:title=" ">
<path fill="none" stroke="#63b8ff" d="M850.08,-543.9C885.53,-531.88 928.05,-517.12 966,-503 975.15,-499.6 984.77,-495.89 994.18,-492.19"/>
<polygon fill="#63b8ff" stroke="#63b8ff" points="848.63,-540.7 840.28,-547.22 850.87,-547.33 848.63,-540.7"/>
</a>
</g>
</g>
<!-- Node3 -->
<g id="Node000003" class="node">
<title>Node3</title>
<g id="a_Node000003"><a xlink:href="flight__controller__node_8hpp.html" target="_top" xlink:title=" ">
<polygon fill="white" stroke="#666666" points="396,-393 250,-393 250,-319 396,-319 396,-393"/>
<text text-anchor="start" x="258" y="-381" font-family="Helvetica,sans-Serif" font-size="10.00">/home/ffn/Workspace</text>
<text text-anchor="start" x="258" y="-370" font-family="Helvetica,sans-Serif" font-size="10.00">/ros2_humble_ws/src</text>
<text text-anchor="start" x="258" y="-359" font-family="Helvetica,sans-Serif" font-size="10.00">/III&#45;Drone&#45;Core/include</text>
<text text-anchor="start" x="258" y="-348" font-family="Helvetica,sans-Serif" font-size="10.00">/iii_drone_core/control</text>
<text text-anchor="start" x="258" y="-337" font-family="Helvetica,sans-Serif" font-size="10.00">/_flight_controller_node</text>
<text text-anchor="middle" x="323" y="-326" font-family="Helvetica,sans-Serif" font-size="10.00">/flight_controller_node.hpp</text>
</a>
</g>
</g>
<!-- Node2&#45;&gt;Node3 -->
<g id="edge2_Node000002_Node000003" class="edge">
<title>Node2&#45;&gt;Node3</title>
<g id="a_edge2_Node000002_Node000003"><a xlink:title=" ">
<path fill="none" stroke="#63b8ff" d="M439.69,-423.68C422.05,-413.6 403.31,-402.89 386.14,-393.08"/>
<polygon fill="#63b8ff" stroke="#63b8ff" points="438.38,-426.96 448.8,-428.89 441.86,-420.89 438.38,-426.96"/>
</a>
</g>
</g>
<!-- Node4 -->
<g id="Node000004" class="node">
<title>Node4</title>
<g id="a_Node000004"><a xlink:href="trajectory__setpoint__adapter_8cpp.html" target="_top" xlink:title=" ">
<polygon fill="white" stroke="#666666" points="609.5,-382 414.5,-382 414.5,-330 609.5,-330 609.5,-382"/>
<text text-anchor="start" x="422.5" y="-370" font-family="Helvetica,sans-Serif" font-size="10.00">/home/ffn/Workspace</text>
<text text-anchor="start" x="422.5" y="-359" font-family="Helvetica,sans-Serif" font-size="10.00">/ros2_humble_ws/src</text>
<text text-anchor="start" x="422.5" y="-348" font-family="Helvetica,sans-Serif" font-size="10.00">/III&#45;Drone&#45;Core/src/adapters</text>
<text text-anchor="middle" x="512" y="-337" font-family="Helvetica,sans-Serif" font-size="10.00">/px4/trajectory_setpoint_adapter.cpp</text>
</a>
</g>
</g>
<!-- Node2&#45;&gt;Node4 -->
<g id="edge3_Node000002_Node000004" class="edge">
<title>Node2&#45;&gt;Node4</title>
<g id="a_edge3_Node000002_Node000004"><a xlink:title=" ">
<path fill="none" stroke="#63b8ff" d="M512,-418.44C512,-405.95 512,-392.92 512,-382.09"/>
<polygon fill="#63b8ff" stroke="#63b8ff" points="508.5,-418.74 512,-428.74 515.5,-418.74 508.5,-418.74"/>
</a>
</g>
</g>
<!-- Node6 -->
<g id="Node000006" class="node">
<title>Node6</title>
<g id="a_Node000006"><a xlink:href="fly__to__object__maneuver__server_8hpp.html" target="_top" xlink:title=" ">
<polygon fill="white" stroke="#666666" points="781,-283 647,-283 647,-209 781,-209 781,-283"/>
<text text-anchor="start" x="655" y="-271" font-family="Helvetica,sans-Serif" font-size="10.00">/home/ffn/Workspace</text>
<text text-anchor="start" x="655" y="-260" font-family="Helvetica,sans-Serif" font-size="10.00">/ros2_humble_ws/src</text>
<text text-anchor="start" x="655" y="-249" font-family="Helvetica,sans-Serif" font-size="10.00">/III&#45;Drone&#45;Core/include</text>
<text text-anchor="start" x="655" y="-238" font-family="Helvetica,sans-Serif" font-size="10.00">/iii_drone_core/control</text>
<text text-anchor="start" x="655" y="-227" font-family="Helvetica,sans-Serif" font-size="10.00">/maneuver/fly_to_object</text>
<text text-anchor="middle" x="714" y="-216" font-family="Helvetica,sans-Serif" font-size="10.00">_maneuver_server.hpp</text>
</a>
</g>
</g>
<!-- Node5&#45;&gt;Node6 -->
<g id="edge5_Node000005_Node000006" class="edge">
<title>Node5&#45;&gt;Node6</title>
<g id="a_edge5_Node000005_Node000006"><a xlink:title=" ">
<path fill="none" stroke="#63b8ff" d="M834.22,-424.22C833.35,-393.29 828.19,-350.82 809,-319 800.77,-305.35 788.9,-293.4 776.32,-283.36"/>
<polygon fill="#63b8ff" stroke="#63b8ff" points="830.72,-424.29 834.36,-434.24 837.72,-424.19 830.72,-424.29"/>
</a>
</g>
</g>
<!-- Node10 -->
<g id="Node000010" class="node">
<title>Node10</title>
<g id="a_Node000010"><a xlink:href="fly__to__position__maneuver__server_8hpp.html" target="_top" xlink:title=" ">
<polygon fill="white" stroke="#666666" points="942.5,-283 799.5,-283 799.5,-209 942.5,-209 942.5,-283"/>
<text text-anchor="start" x="807.5" y="-271" font-family="Helvetica,sans-Serif" font-size="10.00">/home/ffn/Workspace</text>
<text text-anchor="start" x="807.5" y="-260" font-family="Helvetica,sans-Serif" font-size="10.00">/ros2_humble_ws/src</text>
<text text-anchor="start" x="807.5" y="-249" font-family="Helvetica,sans-Serif" font-size="10.00">/III&#45;Drone&#45;Core/include</text>
<text text-anchor="start" x="807.5" y="-238" font-family="Helvetica,sans-Serif" font-size="10.00">/iii_drone_core/control</text>
<text text-anchor="start" x="807.5" y="-227" font-family="Helvetica,sans-Serif" font-size="10.00">/maneuver/fly_to_position</text>
<text text-anchor="middle" x="871" y="-216" font-family="Helvetica,sans-Serif" font-size="10.00">_maneuver_server.hpp</text>
</a>
</g>
</g>
<!-- Node5&#45;&gt;Node10 -->
<g id="edge9_Node000005_Node000010" class="edge">
<title>Node5&#45;&gt;Node10</title>
<g id="a_edge9_Node000005_Node000010"><a xlink:title=" ">
<path fill="none" stroke="#63b8ff" d="M840.12,-424.13C847.2,-383.53 857.95,-321.88 864.72,-283.05"/>
<polygon fill="#63b8ff" stroke="#63b8ff" points="836.63,-423.78 838.36,-434.23 843.53,-424.98 836.63,-423.78"/>
</a>
</g>
</g>
<!-- Node5&#45;&gt;Node12 -->
<g id="edge12_Node000005_Node000012" class="edge">
<title>Node5&#45;&gt;Node12</title>
<g id="a_edge12_Node000005_Node000012"><a xlink:title=" ">
<path fill="none" stroke="#63b8ff" d="M791.48,-427.32C777.22,-414.38 761.44,-400.06 747.87,-387.74"/>
<polygon fill="#63b8ff" stroke="#63b8ff" points="789.46,-430.21 799.22,-434.34 794.16,-425.03 789.46,-430.21"/>
</a>
</g>
</g>
<!-- Node5&#45;&gt;Node14 -->
<g id="edge17_Node000005_Node000014" class="edge">
<title>Node5&#45;&gt;Node14</title>
<g id="a_edge17_Node000005_Node000014"><a xlink:title=" ">
<path fill="none" stroke="#63b8ff" d="M930,-431.39C932.69,-430.57 935.36,-429.77 938,-429 1002.55,-410.07 1020.76,-412.95 1085,-393 1088.28,-391.98 1091.62,-390.91 1094.98,-389.79"/>
<polygon fill="#63b8ff" stroke="#63b8ff" points="928.69,-428.13 920.18,-434.44 930.77,-434.82 928.69,-428.13"/>
</a>
</g>
</g>
<!-- Node16 -->
<g id="Node000016" class="node">
<title>Node16</title>
<g id="a_Node000016"><a xlink:href="reference__trajectory__adapter_8cpp.html" target="_top" xlink:title=" ">
<polygon fill="white" stroke="#666666" points="1076.5,-382 895.5,-382 895.5,-330 1076.5,-330 1076.5,-382"/>
<text text-anchor="start" x="903.5" y="-370" font-family="Helvetica,sans-Serif" font-size="10.00">/home/ffn/Workspace</text>
<text text-anchor="start" x="903.5" y="-359" font-family="Helvetica,sans-Serif" font-size="10.00">/ros2_humble_ws/src</text>
<text text-anchor="start" x="903.5" y="-348" font-family="Helvetica,sans-Serif" font-size="10.00">/III&#45;Drone&#45;Core/src/adapters</text>
<text text-anchor="middle" x="986" y="-337" font-family="Helvetica,sans-Serif" font-size="10.00">/reference_trajectory_adapter.cpp</text>
</a>
</g>
</g>
<!-- Node5&#45;&gt;Node16 -->
<g id="edge19_Node000005_Node000016" class="edge">
<title>Node5&#45;&gt;Node16</title>
<g id="a_edge19_Node000005_Node000016"><a xlink:title=" ">
<path fill="none" stroke="#63b8ff" d="M884.82,-428.42C906.33,-413.24 930.74,-396.01 950.2,-382.27"/>
<polygon fill="#63b8ff" stroke="#63b8ff" points="882.59,-425.71 876.43,-434.34 886.62,-431.43 882.59,-425.71"/>
</a>
</g>
</g>
<!-- Node7 -->
<g id="Node000007" class="node">
<title>Node7</title>
<g id="a_Node000007"><a xlink:href="maneuver__controller__node_8hpp.html" target="_top" xlink:title=" ">
<polygon fill="white" stroke="#666666" points="652.5,-173 481.5,-173 481.5,-99 652.5,-99 652.5,-173"/>
<text text-anchor="start" x="489.5" y="-161" font-family="Helvetica,sans-Serif" font-size="10.00">/home/ffn/Workspace</text>
<text text-anchor="start" x="489.5" y="-150" font-family="Helvetica,sans-Serif" font-size="10.00">/ros2_humble_ws/src</text>
<text text-anchor="start" x="489.5" y="-139" font-family="Helvetica,sans-Serif" font-size="10.00">/III&#45;Drone&#45;Core/include</text>
<text text-anchor="start" x="489.5" y="-128" font-family="Helvetica,sans-Serif" font-size="10.00">/iii_drone_core/control</text>
<text text-anchor="start" x="489.5" y="-117" font-family="Helvetica,sans-Serif" font-size="10.00">/maneuver_controller_node</text>
<text text-anchor="middle" x="567" y="-106" font-family="Helvetica,sans-Serif" font-size="10.00">/maneuver_controller_node.hpp</text>
</a>
</g>
</g>
<!-- Node6&#45;&gt;Node7 -->
<g id="edge6_Node000006_Node000007" class="edge">
<title>Node6&#45;&gt;Node7</title>
<g id="a_edge6_Node000006_Node000007"><a xlink:title=" ">
<path fill="none" stroke="#63b8ff" d="M656.47,-202.73C643.17,-192.96 629.14,-182.65 616.23,-173.17"/>
<polygon fill="#63b8ff" stroke="#63b8ff" points="654.51,-205.64 664.64,-208.74 658.66,-200 654.51,-205.64"/>
</a>
</g>
</g>
<!-- Node9 -->
<g id="Node000009" class="node">
<title>Node9</title>
<g id="a_Node000009"><a xlink:href="fly__to__object__maneuver__server_8cpp.html" target="_top" xlink:title=" ">
<polygon fill="white" stroke="#666666" points="859.5,-167.5 670.5,-167.5 670.5,-104.5 859.5,-104.5 859.5,-167.5"/>
<text text-anchor="start" x="678.5" y="-155.5" font-family="Helvetica,sans-Serif" font-size="10.00">/home/ffn/Workspace</text>
<text text-anchor="start" x="678.5" y="-144.5" font-family="Helvetica,sans-Serif" font-size="10.00">/ros2_humble_ws/src</text>
<text text-anchor="start" x="678.5" y="-133.5" font-family="Helvetica,sans-Serif" font-size="10.00">/III&#45;Drone&#45;Core/src/control</text>
<text text-anchor="start" x="678.5" y="-122.5" font-family="Helvetica,sans-Serif" font-size="10.00">/maneuver/fly_to_object_maneuver</text>
<text text-anchor="middle" x="765" y="-111.5" font-family="Helvetica,sans-Serif" font-size="10.00">_server.cpp</text>
</a>
</g>
</g>
<!-- Node6&#45;&gt;Node9 -->
<g id="edge8_Node000006_Node000009" class="edge">
<title>Node6&#45;&gt;Node9</title>
<g id="a_edge8_Node000006_Node000009"><a xlink:title=" ">
<path fill="none" stroke="#63b8ff" d="M735.51,-199.45C740.59,-188.7 745.88,-177.49 750.56,-167.58"/>
<polygon fill="#63b8ff" stroke="#63b8ff" points="732.23,-198.2 731.12,-208.74 738.56,-201.19 732.23,-198.2"/>
</a>
</g>
</g>
<!-- Node8 -->
<g id="Node000008" class="node">
<title>Node8</title>
<g id="a_Node000008"><a xlink:href="maneuver__controller__node_8cpp.html" target="_top" xlink:title=" ">
<polygon fill="white" stroke="#666666" points="652,-63 482,-63 482,0 652,0 652,-63"/>
<text text-anchor="start" x="490" y="-51" font-family="Helvetica,sans-Serif" font-size="10.00">/home/ffn/Workspace</text>
<text text-anchor="start" x="490" y="-40" font-family="Helvetica,sans-Serif" font-size="10.00">/ros2_humble_ws/src</text>
<text text-anchor="start" x="490" y="-29" font-family="Helvetica,sans-Serif" font-size="10.00">/III&#45;Drone&#45;Core/src/control</text>
<text text-anchor="start" x="490" y="-18" font-family="Helvetica,sans-Serif" font-size="10.00">/maneuver_controller_node</text>
<text text-anchor="middle" x="567" y="-7" font-family="Helvetica,sans-Serif" font-size="10.00">/maneuver_controller_node.cpp</text>
</a>
</g>
</g>
<!-- Node7&#45;&gt;Node8 -->
<g id="edge7_Node000007_Node000008" class="edge">
<title>Node7&#45;&gt;Node8</title>
<g id="a_edge7_Node000007_Node000008"><a xlink:title=" ">
<path fill="none" stroke="#63b8ff" d="M567,-88.83C567,-80.15 567,-71.28 567,-63.22"/>
<polygon fill="#63b8ff" stroke="#63b8ff" points="563.5,-88.86 567,-98.86 570.5,-88.86 563.5,-88.86"/>
</a>
</g>
</g>
<!-- Node10&#45;&gt;Node7 -->
<g id="edge10_Node000010_Node000007" class="edge">
<title>Node10&#45;&gt;Node7</title>
<g id="a_edge10_Node000010_Node000007"><a xlink:title=" ">
<path fill="none" stroke="#63b8ff" d="M789.66,-209.06C732.21,-189.09 714.65,-190.72 661,-173 658.26,-172.1 655.49,-171.16 652.69,-170.2"/>
<polygon fill="#63b8ff" stroke="#63b8ff" points="788.64,-212.41 799.23,-212.45 790.98,-205.81 788.64,-212.41"/>
</a>
</g>
</g>
<!-- Node11 -->
<g id="Node000011" class="node">
<title>Node11</title>
<g id="a_Node000011"><a xlink:href="fly__to__position__maneuver__server_8cpp.html" target="_top" xlink:title=" ">
<polygon fill="white" stroke="#666666" points="1020.5,-167.5 877.5,-167.5 877.5,-104.5 1020.5,-104.5 1020.5,-167.5"/>
<text text-anchor="start" x="885.5" y="-155.5" font-family="Helvetica,sans-Serif" font-size="10.00">/home/ffn/Workspace</text>
<text text-anchor="start" x="885.5" y="-144.5" font-family="Helvetica,sans-Serif" font-size="10.00">/ros2_humble_ws/src</text>
<text text-anchor="start" x="885.5" y="-133.5" font-family="Helvetica,sans-Serif" font-size="10.00">/III&#45;Drone&#45;Core/src/control</text>
<text text-anchor="start" x="885.5" y="-122.5" font-family="Helvetica,sans-Serif" font-size="10.00">/maneuver/fly_to_position</text>
<text text-anchor="middle" x="949" y="-111.5" font-family="Helvetica,sans-Serif" font-size="10.00">_maneuver_server.cpp</text>
</a>
</g>
</g>
<!-- Node10&#45;&gt;Node11 -->
<g id="edge11_Node000010_Node000011" class="edge">
<title>Node10&#45;&gt;Node11</title>
<g id="a_edge11_Node000010_Node000011"><a xlink:title=" ">
<path fill="none" stroke="#63b8ff" d="M903.19,-200.43C911.17,-189.38 919.54,-177.79 926.91,-167.58"/>
<polygon fill="#63b8ff" stroke="#63b8ff" points="900.21,-198.58 897.19,-208.74 905.88,-202.68 900.21,-198.58"/>
</a>
</g>
</g>
<!-- Node12&#45;&gt;Node6 -->
<g id="edge13_Node000012_Node000006" class="edge">
<title>Node12&#45;&gt;Node6</title>
<g id="a_edge13_Node000012_Node000006"><a xlink:title=" ">
<path fill="none" stroke="#63b8ff" d="M714,-314.03C714,-303.85 714,-293.02 714,-283.09"/>
<polygon fill="#63b8ff" stroke="#63b8ff" points="710.5,-314.34 714,-324.34 717.5,-314.34 710.5,-314.34"/>
</a>
</g>
</g>
<!-- Node12&#45;&gt;Node7 -->
<g id="edge15_Node000012_Node000007" class="edge">
<title>Node12&#45;&gt;Node7</title>
<g id="a_edge15_Node000012_Node000007"><a xlink:title=" ">
<path fill="none" stroke="#63b8ff" d="M668.96,-317.42C658.01,-306.98 646.9,-295.15 638,-283 630.98,-273.42 602.44,-213.2 583.75,-173.15"/>
<polygon fill="#63b8ff" stroke="#63b8ff" points="666.77,-320.17 676.48,-324.41 671.54,-315.04 666.77,-320.17"/>
</a>
</g>
</g>
<!-- Node12&#45;&gt;Node10 -->
<g id="edge14_Node000012_Node000010" class="edge">
<title>Node12&#45;&gt;Node10</title>
<g id="a_edge14_Node000012_Node000010"><a xlink:title=" ">
<path fill="none" stroke="#63b8ff" d="M767.08,-318.49C783.68,-307.07 801.98,-294.48 818.54,-283.09"/>
<polygon fill="#63b8ff" stroke="#63b8ff" points="764.83,-315.79 758.57,-324.34 768.79,-321.56 764.83,-315.79"/>
</a>
</g>
</g>
<!-- Node13 -->
<g id="Node000013" class="node">
<title>Node13</title>
<g id="a_Node000013"><a xlink:href="trajectory__generator__client_8cpp.html" target="_top" xlink:title=" ">
<polygon fill="white" stroke="#666666" points="591,-272 419,-272 419,-220 591,-220 591,-272"/>
<text text-anchor="start" x="427" y="-260" font-family="Helvetica,sans-Serif" font-size="10.00">/home/ffn/Workspace</text>
<text text-anchor="start" x="427" y="-249" font-family="Helvetica,sans-Serif" font-size="10.00">/ros2_humble_ws/src</text>
<text text-anchor="start" x="427" y="-238" font-family="Helvetica,sans-Serif" font-size="10.00">/III&#45;Drone&#45;Core/src/control</text>
<text text-anchor="middle" x="505" y="-227" font-family="Helvetica,sans-Serif" font-size="10.00">/trajectory_generator_client.cpp</text>
</a>
</g>
</g>
<!-- Node12&#45;&gt;Node13 -->
<g id="edge16_Node000012_Node000013" class="edge">
<title>Node12&#45;&gt;Node13</title>
<g id="a_edge16_Node000012_Node000013"><a xlink:title=" ">
<path fill="none" stroke="#63b8ff" d="M645.78,-319.75C615.72,-304.21 581.08,-286.31 553.69,-272.16"/>
<polygon fill="#63b8ff" stroke="#63b8ff" points="644.46,-323 654.95,-324.48 647.67,-316.78 644.46,-323"/>
</a>
</g>
</g>
<!-- Node15 -->
<g id="Node000015" class="node">
<title>Node15</title>
<g id="a_Node000015"><a xlink:href="trajectory__generator__node_8cpp.html" target="_top" xlink:title=" ">
<polygon fill="white" stroke="#666666" points="1264.5,-277.5 1095.5,-277.5 1095.5,-214.5 1264.5,-214.5 1264.5,-277.5"/>
<text text-anchor="start" x="1103.5" y="-265.5" font-family="Helvetica,sans-Serif" font-size="10.00">/home/ffn/Workspace</text>
<text text-anchor="start" x="1103.5" y="-254.5" font-family="Helvetica,sans-Serif" font-size="10.00">/ros2_humble_ws/src</text>
<text text-anchor="start" x="1103.5" y="-243.5" font-family="Helvetica,sans-Serif" font-size="10.00">/III&#45;Drone&#45;Core/src/control</text>
<text text-anchor="start" x="1103.5" y="-232.5" font-family="Helvetica,sans-Serif" font-size="10.00">/trajectory_generator_node</text>
<text text-anchor="middle" x="1180" y="-221.5" font-family="Helvetica,sans-Serif" font-size="10.00">/trajectory_generator_node.cpp</text>
</a>
</g>
</g>
<!-- Node14&#45;&gt;Node15 -->
<g id="edge18_Node000014_Node000015" class="edge">
<title>Node14&#45;&gt;Node15</title>
<g id="a_edge18_Node000014_Node000015"><a xlink:title=" ">
<path fill="none" stroke="#63b8ff" d="M1180,-308.47C1180,-298.02 1180,-287.19 1180,-277.58"/>
<polygon fill="#63b8ff" stroke="#63b8ff" points="1176.5,-308.74 1180,-318.74 1183.5,-308.74 1176.5,-308.74"/>
</a>
</g>
</g>
<!-- Node17&#45;&gt;Node3 -->
<g id="edge21_Node000017_Node000003" class="edge">
<title>Node17&#45;&gt;Node3</title>
<g id="a_edge21_Node000017_Node000003"><a xlink:title=" ">
<path fill="none" stroke="#63b8ff" d="M291.52,-425C296.36,-414.54 301.55,-403.33 306.29,-393.09"/>
<polygon fill="#63b8ff" stroke="#63b8ff" points="288.22,-423.8 287.19,-434.34 294.57,-426.74 288.22,-423.8"/>
</a>
</g>
</g>
<!-- Node17&#45;&gt;Node7 -->
<g id="edge22_Node000017_Node000007" class="edge">
<title>Node17&#45;&gt;Node7</title>
<g id="a_edge22_Node000017_Node000007"><a xlink:title=" ">
<path fill="none" stroke="#63b8ff" d="M250.19,-425.4C235.79,-394.79 223.01,-352.18 241,-319 289.74,-229.11 402.2,-180.9 481.34,-157.13"/>
<polygon fill="#63b8ff" stroke="#63b8ff" points="247.11,-427.07 254.67,-434.49 253.39,-423.97 247.11,-427.07"/>
</a>
</g>
</g>
<!-- Node18 -->
<g id="Node000018" class="node">
<title>Node18</title>
<g id="a_Node000018"><a xlink:href="maneuver__scheduler_8cpp.html" target="_top" xlink:title=" ">
<polygon fill="white" stroke="#666666" points="194,-382 0,-382 0,-330 194,-330 194,-382"/>
<text text-anchor="start" x="8" y="-370" font-family="Helvetica,sans-Serif" font-size="10.00">/home/ffn/Workspace</text>
<text text-anchor="start" x="8" y="-359" font-family="Helvetica,sans-Serif" font-size="10.00">/ros2_humble_ws/src</text>
<text text-anchor="start" x="8" y="-348" font-family="Helvetica,sans-Serif" font-size="10.00">/III&#45;Drone&#45;Core/src/control</text>
<text text-anchor="middle" x="97" y="-337" font-family="Helvetica,sans-Serif" font-size="10.00">/maneuver/maneuver_scheduler.cpp</text>
</a>
</g>
</g>
<!-- Node17&#45;&gt;Node18 -->
<g id="edge23_Node000017_Node000018" class="edge">
<title>Node17&#45;&gt;Node18</title>
<g id="a_edge23_Node000017_Node000018"><a xlink:title=" ">
<path fill="none" stroke="#63b8ff" d="M214.33,-429C189.27,-413.62 160.61,-396.03 137.89,-382.09"/>
<polygon fill="#63b8ff" stroke="#63b8ff" points="212.68,-432.09 223.04,-434.34 216.34,-426.13 212.68,-432.09"/>
</a>
</g>
</g>
</g>
</svg>
