<?xml version="1.0" encoding="UTF-8" standalone="no"?>
<!DOCTYPE svg PUBLIC "-//W3C//DTD SVG 1.1//EN"
 "http://www.w3.org/Graphics/SVG/1.1/DTD/svg11.dtd">
<!-- Generated by graphviz version 2.43.0 (0)
 -->
<!-- Title: /home/ffn/Workspace/ros2_humble_ws/src/III&#45;Drone&#45;Core/include/iii_drone_core/control/reference.hpp Pages: 1 -->
<svg width="1105pt" height="324pt"
 viewBox="0.00 0.00 1105.00 324.00" xmlns="http://www.w3.org/2000/svg" xmlns:xlink="http://www.w3.org/1999/xlink">
<g id="graph0" class="graph" transform="scale(1 1) rotate(0) translate(4 320)">
<title>/home/ffn/Workspace/ros2_humble_ws/src/III&#45;Drone&#45;Core/include/iii_drone_core/control/reference.hpp</title>
<!-- Node1 -->
<g id="Node000001" class="node">
<title>Node1</title>
<g id="a_Node000001"><a xlink:title=" ">
<polygon fill="#999999" stroke="#666666" points="510.5,-316 384.5,-316 384.5,-253 510.5,-253 510.5,-316"/>
<text text-anchor="start" x="392.5" y="-304" font-family="Helvetica,sans-Serif" font-size="10.00">/home/ffn/Workspace</text>
<text text-anchor="start" x="392.5" y="-293" font-family="Helvetica,sans-Serif" font-size="10.00">/ros2_humble_ws/src</text>
<text text-anchor="start" x="392.5" y="-282" font-family="Helvetica,sans-Serif" font-size="10.00">/III&#45;Drone&#45;Core/include</text>
<text text-anchor="start" x="392.5" y="-271" font-family="Helvetica,sans-Serif" font-size="10.00">/iii_drone_core/control</text>
<text text-anchor="middle" x="447.5" y="-260" font-family="Helvetica,sans-Serif" font-size="10.00">/reference.hpp</text>
</a>
</g>
</g>
<!-- Node2 -->
<g id="Node000002" class="node">
<title>Node2</title>
<g id="a_Node000002"><a xlink:href="types_8hpp.html" target="_top" xlink:title=" ">
<polygon fill="white" stroke="#666666" points="477,-85 368,-85 368,-55 477,-55 477,-85"/>
<text text-anchor="start" x="376" y="-73" font-family="Helvetica,sans-Serif" font-size="10.00">iii_drone_core/utils</text>
<text text-anchor="middle" x="422.5" y="-62" font-family="Helvetica,sans-Serif" font-size="10.00">/types.hpp</text>
</a>
</g>
</g>
<!-- Node1&#45;&gt;Node2 -->
<g id="edge1_Node000001_Node000002" class="edge">
<title>Node1&#45;&gt;Node2</title>
<g id="a_edge1_Node000001_Node000002"><a xlink:title=" ">
<path fill="none" stroke="#63b8ff" d="M433.29,-252.7C428.92,-241.68 424.68,-229.01 422.5,-217 414.82,-174.76 417.3,-124.51 419.86,-95.33"/>
<polygon fill="#63b8ff" stroke="#63b8ff" points="423.36,-95.53 420.83,-85.25 416.39,-94.87 423.36,-95.53"/>
</a>
</g>
</g>
<!-- Node9 -->
<g id="Node000009" class="node">
<title>Node9</title>
<g id="a_Node000009"><a xlink:href="math_8hpp.html" target="_top" xlink:title=" ">
<polygon fill="white" stroke="#666666" points="375,-151 266,-151 266,-121 375,-121 375,-151"/>
<text text-anchor="start" x="274" y="-139" font-family="Helvetica,sans-Serif" font-size="10.00">iii_drone_core/utils</text>
<text text-anchor="middle" x="320.5" y="-128" font-family="Helvetica,sans-Serif" font-size="10.00">/math.hpp</text>
</a>
</g>
</g>
<!-- Node1&#45;&gt;Node9 -->
<g id="edge8_Node000001_Node000009" class="edge">
<title>Node1&#45;&gt;Node9</title>
<g id="a_edge8_Node000001_Node000009"><a xlink:title=" ">
<path fill="none" stroke="#63b8ff" d="M420.61,-252.74C410.8,-241.51 399.64,-228.69 389.5,-217 372.51,-197.41 353.25,-175.07 339.4,-158.98"/>
<polygon fill="#63b8ff" stroke="#63b8ff" points="341.87,-156.48 332.69,-151.18 336.56,-161.05 341.87,-156.48"/>
</a>
</g>
</g>
<!-- Node10 -->
<g id="Node000010" class="node">
<title>Node10</title>
<g id="a_Node000010"><a xlink:href="state_8hpp.html" target="_top" xlink:title=" ">
<polygon fill="white" stroke="#666666" points="553.5,-217 431.5,-217 431.5,-187 553.5,-187 553.5,-217"/>
<text text-anchor="start" x="439.5" y="-205" font-family="Helvetica,sans-Serif" font-size="10.00">iii_drone_core/control</text>
<text text-anchor="middle" x="492.5" y="-194" font-family="Helvetica,sans-Serif" font-size="10.00">/state.hpp</text>
</a>
</g>
</g>
<!-- Node1&#45;&gt;Node10 -->
<g id="edge11_Node000001_Node000010" class="edge">
<title>Node1&#45;&gt;Node10</title>
<g id="a_edge11_Node000001_Node000010"><a xlink:title=" ">
<path fill="none" stroke="#63b8ff" d="M464.77,-252.61C469.74,-243.72 475.07,-234.18 479.72,-225.87"/>
<polygon fill="#63b8ff" stroke="#63b8ff" points="482.79,-227.54 484.62,-217.1 476.68,-224.12 482.79,-227.54"/>
</a>
</g>
</g>
<!-- Node11 -->
<g id="Node000011" class="node">
<title>Node11</title>
<g id="a_Node000011"><a xlink:title=" ">
<polygon fill="#e0e0e0" stroke="#999999" points="612,-145.5 513,-145.5 513,-126.5 612,-126.5 612,-145.5"/>
<text text-anchor="middle" x="562.5" y="-133.5" font-family="Helvetica,sans-Serif" font-size="10.00">rclcpp/rclcpp.hpp</text>
</a>
</g>
</g>
<!-- Node1&#45;&gt;Node11 -->
<g id="edge15_Node000001_Node000011" class="edge">
<title>Node1&#45;&gt;Node11</title>
<g id="a_edge15_Node000001_Node000011"><a xlink:title=" ">
<path fill="none" stroke="#63b8ff" d="M510.73,-261.77C530.91,-251.49 550.98,-236.98 562.5,-217 573.32,-198.25 570.96,-172.68 567.47,-155.54"/>
<polygon fill="#63b8ff" stroke="#63b8ff" points="570.84,-154.58 565.13,-145.65 564.02,-156.19 570.84,-154.58"/>
</a>
</g>
</g>
<!-- Node3 -->
<g id="Node000003" class="node">
<title>Node3</title>
<g id="a_Node000003"><a xlink:title=" ">
<polygon fill="#e0e0e0" stroke="#999999" points="105,-19 0,-19 0,0 105,0 105,-19"/>
<text text-anchor="middle" x="52.5" y="-7" font-family="Helvetica,sans-Serif" font-size="10.00">eigen3/Eigen/Core</text>
</a>
</g>
</g>
<!-- Node2&#45;&gt;Node3 -->
<g id="edge2_Node000002_Node000003" class="edge">
<title>Node2&#45;&gt;Node3</title>
<g id="a_edge2_Node000002_Node000003"><a xlink:title=" ">
<path fill="none" stroke="#63b8ff" d="M367.58,-60.25C356.62,-58.51 345.2,-56.69 334.5,-55 259.11,-43.05 172.37,-29.38 115.22,-20.37"/>
<polygon fill="#63b8ff" stroke="#63b8ff" points="115.68,-16.9 105.26,-18.8 114.59,-23.82 115.68,-16.9"/>
</a>
</g>
</g>
<!-- Node4 -->
<g id="Node000004" class="node">
<title>Node4</title>
<g id="a_Node000004"><a xlink:title=" ">
<polygon fill="#e0e0e0" stroke="#999999" points="698.5,-19 530.5,-19 530.5,0 698.5,0 698.5,-19"/>
<text text-anchor="middle" x="614.5" y="-7" font-family="Helvetica,sans-Serif" font-size="10.00">geometry_msgs/msg/point.hpp</text>
</a>
</g>
</g>
<!-- Node2&#45;&gt;Node4 -->
<g id="edge3_Node000002_Node000004" class="edge">
<title>Node2&#45;&gt;Node4</title>
<g id="a_edge3_Node000002_Node000004"><a xlink:title=" ">
<path fill="none" stroke="#63b8ff" d="M468.49,-54.99C501.62,-44.89 545.79,-31.44 576.84,-21.98"/>
<polygon fill="#63b8ff" stroke="#63b8ff" points="577.88,-25.32 586.43,-19.05 575.84,-18.62 577.88,-25.32"/>
</a>
</g>
</g>
<!-- Node5 -->
<g id="Node000005" class="node">
<title>Node5</title>
<g id="a_Node000005"><a xlink:title=" ">
<polygon fill="#e0e0e0" stroke="#999999" points="912.5,-19 716.5,-19 716.5,0 912.5,0 912.5,-19"/>
<text text-anchor="middle" x="814.5" y="-7" font-family="Helvetica,sans-Serif" font-size="10.00">geometry_msgs/msg/quaternion.hpp</text>
</a>
</g>
</g>
<!-- Node2&#45;&gt;Node5 -->
<g id="edge4_Node000002_Node000005" class="edge">
<title>Node2&#45;&gt;Node5</title>
<g id="a_edge4_Node000002_Node000005"><a xlink:title=" ">
<path fill="none" stroke="#63b8ff" d="M477.01,-60.87C547.67,-50.32 670.89,-31.93 747.28,-20.53"/>
<polygon fill="#63b8ff" stroke="#63b8ff" points="747.9,-23.98 757.28,-19.04 746.87,-17.05 747.9,-23.98"/>
</a>
</g>
</g>
<!-- Node6 -->
<g id="Node000006" class="node">
<title>Node6</title>
<g id="a_Node000006"><a xlink:title=" ">
<polygon fill="#e0e0e0" stroke="#999999" points="1097,-19 930,-19 930,0 1097,0 1097,-19"/>
<text text-anchor="middle" x="1013.5" y="-7" font-family="Helvetica,sans-Serif" font-size="10.00">geometry_msgs/msg/pose.hpp</text>
</a>
</g>
</g>
<!-- Node2&#45;&gt;Node6 -->
<g id="edge5_Node000002_Node000006" class="edge">
<title>Node2&#45;&gt;Node6</title>
<g id="a_edge5_Node000002_Node000006"><a xlink:title=" ">
<path fill="none" stroke="#63b8ff" d="M477.04,-63.6C577.93,-53.61 794.79,-32.15 919.69,-19.79"/>
<polygon fill="#63b8ff" stroke="#63b8ff" points="920.39,-23.23 930,-18.77 919.7,-16.27 920.39,-23.23"/>
</a>
</g>
</g>
<!-- Node7 -->
<g id="Node000007" class="node">
<title>Node7</title>
<g id="a_Node000007"><a xlink:title=" ">
<polygon fill="#e0e0e0" stroke="#999999" points="314,-19 123,-19 123,0 314,0 314,-19"/>
<text text-anchor="middle" x="218.5" y="-7" font-family="Helvetica,sans-Serif" font-size="10.00">geometry_msgs/msg/transform.hpp</text>
</a>
</g>
</g>
<!-- Node2&#45;&gt;Node7 -->
<g id="edge6_Node000002_Node000007" class="edge">
<title>Node2&#45;&gt;Node7</title>
<g id="a_edge6_Node000002_Node000007"><a xlink:title=" ">
<path fill="none" stroke="#63b8ff" d="M373.64,-54.99C338.28,-44.85 291.1,-31.32 258.09,-21.85"/>
<polygon fill="#63b8ff" stroke="#63b8ff" points="258.91,-18.45 248.33,-19.05 256.98,-25.17 258.91,-18.45"/>
</a>
</g>
</g>
<!-- Node8 -->
<g id="Node000008" class="node">
<title>Node8</title>
<g id="a_Node000008"><a xlink:title=" ">
<polygon fill="#e0e0e0" stroke="#999999" points="512.5,-19 332.5,-19 332.5,0 512.5,0 512.5,-19"/>
<text text-anchor="middle" x="422.5" y="-7" font-family="Helvetica,sans-Serif" font-size="10.00">geometry_msgs/msg/vector3.hpp</text>
</a>
</g>
</g>
<!-- Node2&#45;&gt;Node8 -->
<g id="edge7_Node000002_Node000008" class="edge">
<title>Node2&#45;&gt;Node8</title>
<g id="a_edge7_Node000002_Node000008"><a xlink:title=" ">
<path fill="none" stroke="#63b8ff" d="M422.5,-54.84C422.5,-47.21 422.5,-37.7 422.5,-29.45"/>
<polygon fill="#63b8ff" stroke="#63b8ff" points="426,-29.27 422.5,-19.27 419,-29.27 426,-29.27"/>
</a>
</g>
</g>
<!-- Node9&#45;&gt;Node2 -->
<g id="edge10_Node000009_Node000002" class="edge">
<title>Node9&#45;&gt;Node2</title>
<g id="a_edge10_Node000009_Node000002"><a xlink:title=" ">
<path fill="none" stroke="#63b8ff" d="M342.88,-120.95C357.1,-112.03 375.7,-100.36 391.35,-90.54"/>
<polygon fill="#63b8ff" stroke="#63b8ff" points="393.56,-93.29 400.17,-85.01 389.84,-87.36 393.56,-93.29"/>
</a>
</g>
</g>
<!-- Node9&#45;&gt;Node3 -->
<g id="edge9_Node000009_Node000003" class="edge">
<title>Node9&#45;&gt;Node3</title>
<g id="a_edge9_Node000009_Node000003"><a xlink:title=" ">
<path fill="none" stroke="#63b8ff" d="M290.28,-120.96C237.92,-96.64 131.08,-47.01 80.39,-23.46"/>
<polygon fill="#63b8ff" stroke="#63b8ff" points="81.58,-20.15 71.03,-19.11 78.63,-26.5 81.58,-20.15"/>
</a>
</g>
</g>
<!-- Node10&#45;&gt;Node2 -->
<g id="edge13_Node000010_Node000002" class="edge">
<title>Node10&#45;&gt;Node2</title>
<g id="a_edge13_Node000010_Node000002"><a xlink:title=" ">
<path fill="none" stroke="#63b8ff" d="M484.88,-186.84C472.88,-164.57 449.49,-121.13 435.01,-94.23"/>
<polygon fill="#63b8ff" stroke="#63b8ff" points="437.94,-92.29 430.12,-85.14 431.77,-95.61 437.94,-92.29"/>
</a>
</g>
</g>
<!-- Node10&#45;&gt;Node9 -->
<g id="edge14_Node000010_Node000009" class="edge">
<title>Node10&#45;&gt;Node9</title>
<g id="a_edge14_Node000010_Node000009"><a xlink:title=" ">
<path fill="none" stroke="#63b8ff" d="M454.75,-186.95C429.1,-177.41 394.98,-164.71 367.55,-154.51"/>
<polygon fill="#63b8ff" stroke="#63b8ff" points="368.75,-151.22 358.16,-151.01 366.31,-157.78 368.75,-151.22"/>
</a>
</g>
</g>
<!-- Node10&#45;&gt;Node11 -->
<g id="edge12_Node000010_Node000011" class="edge">
<title>Node10&#45;&gt;Node11</title>
<g id="a_edge12_Node000010_Node000011"><a xlink:title=" ">
<path fill="none" stroke="#63b8ff" d="M508.04,-186.8C519.06,-176.72 533.85,-163.19 545.24,-152.78"/>
<polygon fill="#63b8ff" stroke="#63b8ff" points="547.81,-155.18 552.83,-145.84 543.08,-150.01 547.81,-155.18"/>
</a>
</g>
</g>
</g>
</svg>
