<?xml version="1.0" encoding="UTF-8" standalone="no"?>
<!DOCTYPE svg PUBLIC "-//W3C//DTD SVG 1.1//EN"
 "http://www.w3.org/Graphics/SVG/1.1/DTD/svg11.dtd">
<!-- Generated by graphviz version 2.43.0 (0)
 -->
<!-- Title: /home/ffn/Workspace/ros2_humble_ws/src/III&#45;Drone&#45;Core/include/iii_drone_core/control/setpoint_controller.hpp Pages: 1 -->
<!--zoomable 544 -->

<svg id="main" version="1.1" xmlns="http://www.w3.org/2000/svg" xmlns:xlink="http://www.w3.org/1999/xlink" xml:space="preserve" onload="init(evt)">
<style type="text/css"><![CDATA[
.node, .edge {opacity: 0.7;}
.node.selected, .edge.selected {opacity: 1;}
.edge:hover path { stroke: red; }
.edge:hover polygon { stroke: red; fill: red; }
]]></style>

<defs>
  <circle id="rim" cx="0" cy="0" r="7"/>
  <circle id="rim2" cx="0" cy="0" r="3.5"/>
  <g id="zoomPlus">
    <use xlink:href="#rim" fill="#404040"><set attributeName="fill" to="#808080" begin="zoomplus.mouseover" end="zoomplus.mouseout"/></use>
    <path d="M-4,0h8M0,-4v8" fill="none" stroke="white" stroke-width="1.5" pointer-events="none"/>
  </g>
  <g id="zoomMin">
    <use xlink:href="#rim" fill="#404040"><set attributeName="fill" to="#808080" begin="zoomminus.mouseover" end="zoomminus.mouseout"/></use>
    <path d="M-4,0h8" fill="none" stroke="white" stroke-width="1.5" pointer-events="none"/>
  </g>
  <g id="arrowUp" transform="translate(30 24)">
    <use xlink:href="#rim"/>
    <path pointer-events="none" fill="none" stroke="white" stroke-width="1.5" d="M0,-3.0v7 M-2.5,-0.5L0,-3.0L2.5,-0.5"/>
  </g>
  <g id="arrowRight" transform="rotate(90) translate(36 -43)">
    <use xlink:href="#rim"/>
    <path pointer-events="none" fill="none" stroke="white" stroke-width="1.5" d="M0,-3.0v7 M-2.5,-0.5L0,-3.0L2.5,-0.5"/>
  </g>
  <g id="arrowDown" transform="rotate(180) translate(-30 -48)">
    <use xlink:href="#rim"/>
    <path pointer-events="none" fill="none" stroke="white" stroke-width="1.5" d="M0,-3.0v7 M-2.5,-0.5L0,-3.0L2.5,-0.5"/>
  </g>
  <g id="arrowLeft" transform="rotate(270) translate(-36 17)">
    <use xlink:href="#rim"/>
    <path pointer-events="none" fill="none" stroke="white" stroke-width="1.5" d="M0,-3.0v7 M-2.5,-0.5L0,-3.0L2.5,-0.5"/>
  </g>
  <g id="resetDef">
    <use xlink:href="#rim2" fill="#404040"><set attributeName="fill" to="#808080" begin="reset.mouseover" end="reset.mouseout"/></use>
  </g>
</defs>
<script type="application/ecmascript">
var viewWidth = 1541;
var viewHeight = 544;
var sectionId = 'dynsection-0';
</script>
<script type="application/ecmascript" xlink:href="svg.min.js"/>
<svg id="graph" class="graph">
<g id="viewport">
<title>/home/ffn/Workspace/ros2_humble_ws/src/III&#45;Drone&#45;Core/include/iii_drone_core/control/setpoint_controller.hpp</title>
<!-- Node1 -->
<g id="Node000001" class="node">
<title>Node1</title>
<g id="a_Node000001"><a xlink:title=" ">
<polygon fill="#999999" stroke="#666666" points="482.83,-536 351.83,-536 351.83,-473 482.83,-473 482.83,-536"/>
<text text-anchor="start" x="359.83" y="-524" font-family="Helvetica,sans-Serif" font-size="10.00">/home/ffn/Workspace</text>
<text text-anchor="start" x="359.83" y="-513" font-family="Helvetica,sans-Serif" font-size="10.00">/ros2_humble_ws/src</text>
<text text-anchor="start" x="359.83" y="-502" font-family="Helvetica,sans-Serif" font-size="10.00">/III&#45;Drone&#45;Core/include</text>
<text text-anchor="start" x="359.83" y="-491" font-family="Helvetica,sans-Serif" font-size="10.00">/iii_drone_core/control</text>
<text text-anchor="middle" x="417.33" y="-480" font-family="Helvetica,sans-Serif" font-size="10.00">/setpoint_controller.hpp</text>
</a>
</g>
</g>
<!-- Node2 -->
<g id="Node000002" class="node">
<title>Node2</title>
<g id="a_Node000002"><a xlink:title=" ">
<polygon fill="#e0e0e0" stroke="#999999" points="153.33,-354.5 95.33,-354.5 95.33,-335.5 153.33,-335.5 153.33,-354.5"/>
<text text-anchor="middle" x="124.33" y="-342.5" font-family="Helvetica,sans-Serif" font-size="10.00">memory</text>
</a>
</g>
</g>
<!-- Node1&#45;&gt;Node2 -->
<g id="edge1_Node000001_Node000002" class="edge">
<title>Node1&#45;&gt;Node2</title>
<g id="a_edge1_Node000001_Node000002"><a xlink:title=" ">
<path fill="none" stroke="#63b8ff" d="M351.63,-495.67C280.02,-485.77 171.8,-466.41 143.33,-437 124.75,-417.82 122.25,-385.42 122.81,-364.9"/>
<polygon fill="#63b8ff" stroke="#63b8ff" points="126.32,-364.81 123.37,-354.63 119.33,-364.43 126.32,-364.81"/>
</a>
</g>
</g>
<!-- Node3 -->
<g id="Node000003" class="node">
<title>Node3</title>
<g id="a_Node000003"><a xlink:title=" ">
<polygon fill="#e0e0e0" stroke="#999999" points="932.83,-145.5 833.83,-145.5 833.83,-126.5 932.83,-126.5 932.83,-145.5"/>
<text text-anchor="middle" x="883.33" y="-133.5" font-family="Helvetica,sans-Serif" font-size="10.00">rclcpp/rclcpp.hpp</text>
</a>
</g>
</g>
<!-- Node1&#45;&gt;Node3 -->
<g id="edge2_Node000001_Node000003" class="edge">
<title>Node1&#45;&gt;Node3</title>
<g id="a_edge2_Node000001_Node000003"><a xlink:title=" ">
<path fill="none" stroke="#63b8ff" d="M482.87,-497.64C661.62,-480.08 1149.9,-421.07 1234.33,-294 1306.93,-184.73 1061.21,-150.7 943.12,-140.79"/>
<polygon fill="#63b8ff" stroke="#63b8ff" points="943.38,-137.3 933.13,-139.98 942.82,-144.28 943.38,-137.3"/>
</a>
</g>
</g>
<!-- Node4 -->
<g id="Node000004" class="node">
<title>Node4</title>
<g id="a_Node000004"><a xlink:href="types_8hpp.html" target="_top" xlink:title=" ">
<polygon fill="white" stroke="#666666" points="893.83,-85 784.83,-85 784.83,-55 893.83,-55 893.83,-85"/>
<text text-anchor="start" x="792.83" y="-73" font-family="Helvetica,sans-Serif" font-size="10.00">iii_drone_core/utils</text>
<text text-anchor="middle" x="839.33" y="-62" font-family="Helvetica,sans-Serif" font-size="10.00">/types.hpp</text>
</a>
</g>
</g>
<!-- Node1&#45;&gt;Node4 -->
<g id="edge3_Node000001_Node000004" class="edge">
<title>Node1&#45;&gt;Node4</title>
<g id="a_edge3_Node000001_Node000004"><a xlink:title=" ">
<path fill="none" stroke="#63b8ff" d="M483,-499.57C698.04,-485.82 1367.33,-435.81 1367.33,-346 1367.33,-346 1367.33,-346 1367.33,-201 1367.33,-106.6 1045.08,-80.35 904.08,-73.39"/>
<polygon fill="#63b8ff" stroke="#63b8ff" points="904,-69.88 893.84,-72.9 903.67,-76.87 904,-69.88"/>
</a>
</g>
</g>
<!-- Node11 -->
<g id="Node000011" class="node">
<title>Node11</title>
<g id="a_Node000011"><a xlink:href="atomic_8hpp.html" target="_top" xlink:title=" ">
<polygon fill="white" stroke="#666666" points="261.83,-431.5 152.83,-431.5 152.83,-401.5 261.83,-401.5 261.83,-431.5"/>
<text text-anchor="start" x="160.83" y="-419.5" font-family="Helvetica,sans-Serif" font-size="10.00">iii_drone_core/utils</text>
<text text-anchor="middle" x="207.33" y="-408.5" font-family="Helvetica,sans-Serif" font-size="10.00">/atomic.hpp</text>
</a>
</g>
</g>
<!-- Node1&#45;&gt;Node11 -->
<g id="edge10_Node000001_Node000011" class="edge">
<title>Node1&#45;&gt;Node11</title>
<g id="a_edge10_Node000001_Node000011"><a xlink:title=" ">
<path fill="none" stroke="#63b8ff" d="M351.75,-476.64C318.98,-463.23 280.23,-447.36 251.13,-435.44"/>
<polygon fill="#63b8ff" stroke="#63b8ff" points="252.23,-432.11 241.65,-431.55 249.57,-438.58 252.23,-432.11"/>
</a>
</g>
</g>
<!-- Node14 -->
<g id="Node000014" class="node">
<title>Node14</title>
<g id="a_Node000014"><a xlink:href="history_8hpp.html" target="_top" xlink:title=" ">
<polygon fill="white" stroke="#666666" points="388.83,-431.5 279.83,-431.5 279.83,-401.5 388.83,-401.5 388.83,-431.5"/>
<text text-anchor="start" x="287.83" y="-419.5" font-family="Helvetica,sans-Serif" font-size="10.00">iii_drone_core/utils</text>
<text text-anchor="middle" x="334.33" y="-408.5" font-family="Helvetica,sans-Serif" font-size="10.00">/history.hpp</text>
</a>
</g>
</g>
<!-- Node1&#45;&gt;Node14 -->
<g id="edge14_Node000001_Node000014" class="edge">
<title>Node1&#45;&gt;Node14</title>
<g id="a_edge14_Node000001_Node000014"><a xlink:title=" ">
<path fill="none" stroke="#63b8ff" d="M387.83,-472.94C376.99,-461.7 364.95,-449.23 355.04,-438.96"/>
<polygon fill="#63b8ff" stroke="#63b8ff" points="357.4,-436.37 347.94,-431.6 352.36,-441.23 357.4,-436.37"/>
</a>
</g>
</g>
<!-- Node16 -->
<g id="Node000016" class="node">
<title>Node16</title>
<g id="a_Node000016"><a xlink:href="vehicle__odometry__adapter_8hpp.html" target="_top" xlink:title=" ">
<polygon fill="white" stroke="#666666" points="482.83,-294 351.83,-294 351.83,-253 482.83,-253 482.83,-294"/>
<text text-anchor="start" x="359.83" y="-282" font-family="Helvetica,sans-Serif" font-size="10.00">iii_drone_core/adapters</text>
<text text-anchor="start" x="359.83" y="-271" font-family="Helvetica,sans-Serif" font-size="10.00">/px4/vehicle_odometry</text>
<text text-anchor="middle" x="417.33" y="-260" font-family="Helvetica,sans-Serif" font-size="10.00">_adapter.hpp</text>
</a>
</g>
</g>
<!-- Node1&#45;&gt;Node16 -->
<g id="edge19_Node000001_Node000016" class="edge">
<title>Node1&#45;&gt;Node16</title>
<g id="a_edge19_Node000001_Node000016"><a xlink:title=" ">
<path fill="none" stroke="#63b8ff" d="M417.33,-472.62C417.33,-428.5 417.33,-347.96 417.33,-304.4"/>
<polygon fill="#63b8ff" stroke="#63b8ff" points="420.83,-304.16 417.33,-294.16 413.83,-304.16 420.83,-304.16"/>
</a>
</g>
</g>
<!-- Node22 -->
<g id="Node000022" class="node">
<title>Node22</title>
<g id="a_Node000022"><a xlink:href="trajectory__setpoint__adapter_8hpp.html" target="_top" xlink:title=" ">
<polygon fill="white" stroke="#666666" points="702.83,-437 569.83,-437 569.83,-396 702.83,-396 702.83,-437"/>
<text text-anchor="start" x="577.83" y="-425" font-family="Helvetica,sans-Serif" font-size="10.00">iii_drone_core/adapters</text>
<text text-anchor="start" x="577.83" y="-414" font-family="Helvetica,sans-Serif" font-size="10.00">/px4/trajectory_setpoint</text>
<text text-anchor="middle" x="636.33" y="-403" font-family="Helvetica,sans-Serif" font-size="10.00">_adapter.hpp</text>
</a>
</g>
</g>
<!-- Node1&#45;&gt;Node22 -->
<g id="edge32_Node000001_Node000022" class="edge">
<title>Node1&#45;&gt;Node22</title>
<g id="a_edge32_Node000001_Node000022"><a xlink:title=" ">
<path fill="none" stroke="#63b8ff" d="M483.03,-477.7C512.8,-466.01 547.75,-452.29 576.74,-440.9"/>
<polygon fill="#63b8ff" stroke="#63b8ff" points="578.31,-444.04 586.33,-437.13 575.75,-437.53 578.31,-444.04"/>
</a>
</g>
</g>
<!-- Node5 -->
<g id="Node000005" class="node">
<title>Node5</title>
<g id="a_Node000005"><a xlink:title=" ">
<polygon fill="#e0e0e0" stroke="#999999" points="540.83,-19 435.83,-19 435.83,0 540.83,0 540.83,-19"/>
<text text-anchor="middle" x="488.33" y="-7" font-family="Helvetica,sans-Serif" font-size="10.00">eigen3/Eigen/Core</text>
</a>
</g>
</g>
<!-- Node4&#45;&gt;Node5 -->
<g id="edge4_Node000004_Node000005" class="edge">
<title>Node4&#45;&gt;Node5</title>
<g id="a_edge4_Node000004_Node000005"><a xlink:title=" ">
<path fill="none" stroke="#63b8ff" d="M784.48,-59.86C720.66,-49.22 615.58,-31.71 549.26,-20.66"/>
<polygon fill="#63b8ff" stroke="#63b8ff" points="549.8,-17.2 539.37,-19.01 548.65,-24.1 549.8,-17.2"/>
</a>
</g>
</g>
<!-- Node6 -->
<g id="Node000006" class="node">
<title>Node6</title>
<g id="a_Node000006"><a xlink:title=" ">
<polygon fill="#e0e0e0" stroke="#999999" points="1319.33,-19 1151.33,-19 1151.33,0 1319.33,0 1319.33,-19"/>
<text text-anchor="middle" x="1235.33" y="-7" font-family="Helvetica,sans-Serif" font-size="10.00">geometry_msgs/msg/point.hpp</text>
</a>
</g>
</g>
<!-- Node4&#45;&gt;Node6 -->
<g id="edge5_Node000004_Node000006" class="edge">
<title>Node4&#45;&gt;Node6</title>
<g id="a_edge5_Node000004_Node000006"><a xlink:title=" ">
<path fill="none" stroke="#63b8ff" d="M893.97,-60.93C965.35,-50.38 1090.29,-31.93 1167.6,-20.51"/>
<polygon fill="#63b8ff" stroke="#63b8ff" points="1168.33,-23.94 1177.71,-19.01 1167.31,-17.01 1168.33,-23.94"/>
</a>
</g>
</g>
<!-- Node7 -->
<g id="Node000007" class="node">
<title>Node7</title>
<g id="a_Node000007"><a xlink:title=" ">
<polygon fill="#e0e0e0" stroke="#999999" points="1533.33,-19 1337.33,-19 1337.33,0 1533.33,0 1533.33,-19"/>
<text text-anchor="middle" x="1435.33" y="-7" font-family="Helvetica,sans-Serif" font-size="10.00">geometry_msgs/msg/quaternion.hpp</text>
</a>
</g>
</g>
<!-- Node4&#45;&gt;Node7 -->
<g id="edge6_Node000004_Node000007" class="edge">
<title>Node4&#45;&gt;Node7</title>
<g id="a_edge6_Node000004_Node000007"><a xlink:title=" ">
<path fill="none" stroke="#63b8ff" d="M894.06,-63.63C995.14,-53.71 1212.26,-32.39 1338.64,-19.99"/>
<polygon fill="#63b8ff" stroke="#63b8ff" points="1339.1,-23.46 1348.71,-19 1338.41,-16.5 1339.1,-23.46"/>
</a>
</g>
</g>
<!-- Node8 -->
<g id="Node000008" class="node">
<title>Node8</title>
<g id="a_Node000008"><a xlink:title=" ">
<polygon fill="#e0e0e0" stroke="#999999" points="725.83,-19 558.83,-19 558.83,0 725.83,0 725.83,-19"/>
<text text-anchor="middle" x="642.33" y="-7" font-family="Helvetica,sans-Serif" font-size="10.00">geometry_msgs/msg/pose.hpp</text>
</a>
</g>
</g>
<!-- Node4&#45;&gt;Node8 -->
<g id="edge7_Node000004_Node000008" class="edge">
<title>Node4&#45;&gt;Node8</title>
<g id="a_edge7_Node000004_Node000008"><a xlink:title=" ">
<path fill="none" stroke="#63b8ff" d="M792.14,-54.99C758.14,-44.89 712.83,-31.44 680.97,-21.98"/>
<polygon fill="#63b8ff" stroke="#63b8ff" points="681.71,-18.55 671.13,-19.05 679.72,-25.26 681.71,-18.55"/>
</a>
</g>
</g>
<!-- Node9 -->
<g id="Node000009" class="node">
<title>Node9</title>
<g id="a_Node000009"><a xlink:title=" ">
<polygon fill="#e0e0e0" stroke="#999999" points="934.83,-19 743.83,-19 743.83,0 934.83,0 934.83,-19"/>
<text text-anchor="middle" x="839.33" y="-7" font-family="Helvetica,sans-Serif" font-size="10.00">geometry_msgs/msg/transform.hpp</text>
</a>
</g>
</g>
<!-- Node4&#45;&gt;Node9 -->
<g id="edge8_Node000004_Node000009" class="edge">
<title>Node4&#45;&gt;Node9</title>
<g id="a_edge8_Node000004_Node000009"><a xlink:title=" ">
<path fill="none" stroke="#63b8ff" d="M839.33,-54.84C839.33,-47.21 839.33,-37.7 839.33,-29.45"/>
<polygon fill="#63b8ff" stroke="#63b8ff" points="842.83,-29.27 839.33,-19.27 835.83,-29.27 842.83,-29.27"/>
</a>
</g>
</g>
<!-- Node10 -->
<g id="Node000010" class="node">
<title>Node10</title>
<g id="a_Node000010"><a xlink:title=" ">
<polygon fill="#e0e0e0" stroke="#999999" points="1133.33,-19 953.33,-19 953.33,0 1133.33,0 1133.33,-19"/>
<text text-anchor="middle" x="1043.33" y="-7" font-family="Helvetica,sans-Serif" font-size="10.00">geometry_msgs/msg/vector3.hpp</text>
</a>
</g>
</g>
<!-- Node4&#45;&gt;Node10 -->
<g id="edge9_Node000004_Node000010" class="edge">
<title>Node4&#45;&gt;Node10</title>
<g id="a_edge9_Node000004_Node000010"><a xlink:title=" ">
<path fill="none" stroke="#63b8ff" d="M888.19,-54.99C923.55,-44.85 970.73,-31.32 1003.74,-21.85"/>
<polygon fill="#63b8ff" stroke="#63b8ff" points="1004.85,-25.17 1013.5,-19.05 1002.92,-18.45 1004.85,-25.17"/>
</a>
</g>
</g>
<!-- Node11&#45;&gt;Node2 -->
<g id="edge13_Node000011_Node000002" class="edge">
<title>Node11&#45;&gt;Node2</title>
<g id="a_edge13_Node000011_Node000002"><a xlink:title=" ">
<path fill="none" stroke="#63b8ff" d="M190.53,-401.44C176.59,-389.76 156.81,-373.2 142.5,-361.22"/>
<polygon fill="#63b8ff" stroke="#63b8ff" points="144.71,-358.5 134.8,-354.77 140.22,-363.87 144.71,-358.5"/>
</a>
</g>
</g>
<!-- Node12 -->
<g id="Node000012" class="node">
<title>Node12</title>
<g id="a_Node000012"><a xlink:title=" ">
<polygon fill="#e0e0e0" stroke="#999999" points="219.33,-354.5 171.33,-354.5 171.33,-335.5 219.33,-335.5 219.33,-354.5"/>
<text text-anchor="middle" x="195.33" y="-342.5" font-family="Helvetica,sans-Serif" font-size="10.00">mutex</text>
</a>
</g>
</g>
<!-- Node11&#45;&gt;Node12 -->
<g id="edge11_Node000011_Node000012" class="edge">
<title>Node11&#45;&gt;Node12</title>
<g id="a_edge11_Node000011_Node000012"><a xlink:title=" ">
<path fill="none" stroke="#63b8ff" d="M204.9,-401.44C203.07,-390.86 200.55,-376.25 198.55,-364.69"/>
<polygon fill="#63b8ff" stroke="#63b8ff" points="201.99,-364.03 196.84,-354.77 195.09,-365.22 201.99,-364.03"/>
</a>
</g>
</g>
<!-- Node13 -->
<g id="Node000013" class="node">
<title>Node13</title>
<g id="a_Node000013"><a xlink:title=" ">
<polygon fill="#e0e0e0" stroke="#999999" points="323.33,-354.5 237.33,-354.5 237.33,-335.5 323.33,-335.5 323.33,-354.5"/>
<text text-anchor="middle" x="280.33" y="-342.5" font-family="Helvetica,sans-Serif" font-size="10.00">shared_mutex</text>
</a>
</g>
</g>
<!-- Node11&#45;&gt;Node13 -->
<g id="edge12_Node000011_Node000013" class="edge">
<title>Node11&#45;&gt;Node13</title>
<g id="a_edge12_Node000011_Node000013"><a xlink:title=" ">
<path fill="none" stroke="#63b8ff" d="M222.1,-401.44C234.13,-389.98 251.11,-373.82 263.63,-361.9"/>
<polygon fill="#63b8ff" stroke="#63b8ff" points="266.29,-364.2 271.12,-354.77 261.46,-359.13 266.29,-364.2"/>
</a>
</g>
</g>
<!-- Node14&#45;&gt;Node2 -->
<g id="edge18_Node000014_Node000002" class="edge">
<title>Node14&#45;&gt;Node2</title>
<g id="a_edge18_Node000014_Node000002"><a xlink:title=" ">
<path fill="none" stroke="#63b8ff" d="M288.89,-401.4C254.12,-390.47 205.03,-374.75 162.33,-360 160.48,-359.36 158.59,-358.7 156.69,-358.02"/>
<polygon fill="#63b8ff" stroke="#63b8ff" points="157.77,-354.7 147.18,-354.59 155.4,-361.28 157.77,-354.7"/>
</a>
</g>
</g>
<!-- Node14&#45;&gt;Node12 -->
<g id="edge15_Node000014_Node000012" class="edge">
<title>Node14&#45;&gt;Node12</title>
<g id="a_edge15_Node000014_Node000012"><a xlink:title=" ">
<path fill="none" stroke="#63b8ff" d="M306.2,-401.44C281.41,-389.04 245.57,-371.12 221.41,-359.04"/>
<polygon fill="#63b8ff" stroke="#63b8ff" points="222.97,-355.91 212.46,-354.57 219.84,-362.17 222.97,-355.91"/>
</a>
</g>
</g>
<!-- Node14&#45;&gt;Node13 -->
<g id="edge16_Node000014_Node000013" class="edge">
<title>Node14&#45;&gt;Node13</title>
<g id="a_edge16_Node000014_Node000013"><a xlink:title=" ">
<path fill="none" stroke="#63b8ff" d="M323.4,-401.44C314.75,-390.31 302.65,-374.74 293.48,-362.93"/>
<polygon fill="#63b8ff" stroke="#63b8ff" points="296.04,-360.52 287.14,-354.77 290.51,-364.81 296.04,-360.52"/>
</a>
</g>
</g>
<!-- Node15 -->
<g id="Node000015" class="node">
<title>Node15</title>
<g id="a_Node000015"><a xlink:title=" ">
<polygon fill="#e0e0e0" stroke="#999999" points="388.83,-354.5 341.83,-354.5 341.83,-335.5 388.83,-335.5 388.83,-354.5"/>
<text text-anchor="middle" x="365.33" y="-342.5" font-family="Helvetica,sans-Serif" font-size="10.00">vector</text>
</a>
</g>
</g>
<!-- Node14&#45;&gt;Node15 -->
<g id="edge17_Node000014_Node000015" class="edge">
<title>Node14&#45;&gt;Node15</title>
<g id="a_edge17_Node000014_Node000015"><a xlink:title=" ">
<path fill="none" stroke="#63b8ff" d="M340.6,-401.44C345.42,-390.64 352.1,-375.65 357.31,-363.98"/>
<polygon fill="#63b8ff" stroke="#63b8ff" points="360.54,-365.33 361.42,-354.77 354.15,-362.47 360.54,-365.33"/>
</a>
</g>
</g>
<!-- Node16&#45;&gt;Node3 -->
<g id="edge21_Node000016_Node000003" class="edge">
<title>Node16&#45;&gt;Node3</title>
<g id="a_edge21_Node000016_Node000003"><a xlink:title=" ">
<path fill="none" stroke="#63b8ff" d="M424.85,-252.88C433.69,-232.74 450.38,-202.24 475.33,-187 504.39,-169.25 716.97,-150.17 823.22,-141.61"/>
<polygon fill="#63b8ff" stroke="#63b8ff" points="823.78,-145.08 833.47,-140.79 823.22,-138.1 823.78,-145.08"/>
</a>
</g>
</g>
<!-- Node16&#45;&gt;Node4 -->
<g id="edge30_Node000016_Node000004" class="edge">
<title>Node16&#45;&gt;Node4</title>
<g id="a_edge30_Node000016_Node000004"><a xlink:title=" ">
<path fill="none" stroke="#63b8ff" d="M413.03,-252.73C410.15,-234.42 408.72,-207.06 420.33,-187 448.12,-138.96 474.34,-140.43 526.33,-121 608.65,-90.23 710.08,-78.39 774.73,-73.84"/>
<polygon fill="#63b8ff" stroke="#63b8ff" points="775.04,-77.33 784.78,-73.17 774.57,-70.34 775.04,-77.33"/>
</a>
</g>
</g>
<!-- Node17 -->
<g id="Node000017" class="node">
<title>Node17</title>
<g id="a_Node000017"><a xlink:title=" ">
<polygon fill="#e0e0e0" stroke="#999999" points="560.83,-211.5 483.83,-211.5 483.83,-192.5 560.83,-192.5 560.83,-211.5"/>
<text text-anchor="middle" x="522.33" y="-199.5" font-family="Helvetica,sans-Serif" font-size="10.00">Eigen/Dense</text>
</a>
</g>
</g>
<!-- Node16&#45;&gt;Node17 -->
<g id="edge20_Node000016_Node000017" class="edge">
<title>Node16&#45;&gt;Node17</title>
<g id="a_edge20_Node000016_Node000017"><a xlink:title=" ">
<path fill="none" stroke="#63b8ff" d="M446.85,-252.96C464.09,-241.54 485.45,-227.41 501.04,-217.09"/>
<polygon fill="#63b8ff" stroke="#63b8ff" points="503.07,-219.94 509.48,-211.5 499.21,-214.1 503.07,-219.94"/>
</a>
</g>
</g>
<!-- Node18 -->
<g id="Node000018" class="node">
<title>Node18</title>
<g id="a_Node000018"><a xlink:title=" ">
<polygon fill="#e0e0e0" stroke="#999999" points="205.33,-217 35.33,-217 35.33,-187 205.33,-187 205.33,-217"/>
<text text-anchor="start" x="43.33" y="-205" font-family="Helvetica,sans-Serif" font-size="10.00">geometry_msgs/msg/transform</text>
<text text-anchor="middle" x="120.33" y="-194" font-family="Helvetica,sans-Serif" font-size="10.00">_stamped.hpp</text>
</a>
</g>
</g>
<!-- Node16&#45;&gt;Node18 -->
<g id="edge22_Node000016_Node000018" class="edge">
<title>Node16&#45;&gt;Node18</title>
<g id="a_edge22_Node000016_Node000018"><a xlink:title=" ">
<path fill="none" stroke="#63b8ff" d="M351.78,-257.16C304,-245.98 239.34,-230.85 190.51,-219.42"/>
<polygon fill="#63b8ff" stroke="#63b8ff" points="191.19,-215.99 180.65,-217.12 189.59,-222.8 191.19,-215.99"/>
</a>
</g>
</g>
<!-- Node19 -->
<g id="Node000019" class="node">
<title>Node19</title>
<g id="a_Node000019"><a xlink:title=" ">
<polygon fill="#e0e0e0" stroke="#999999" points="351.33,-217 223.33,-217 223.33,-187 351.33,-187 351.33,-217"/>
<text text-anchor="start" x="231.33" y="-205" font-family="Helvetica,sans-Serif" font-size="10.00">px4_msgs/msg/vehicle</text>
<text text-anchor="middle" x="287.33" y="-194" font-family="Helvetica,sans-Serif" font-size="10.00">_odometry.hpp</text>
</a>
</g>
</g>
<!-- Node16&#45;&gt;Node19 -->
<g id="edge23_Node000016_Node000019" class="edge">
<title>Node16&#45;&gt;Node19</title>
<g id="a_edge23_Node000016_Node000019"><a xlink:title=" ">
<path fill="none" stroke="#63b8ff" d="M380.77,-252.96C362.61,-243.25 340.75,-231.56 322.75,-221.94"/>
<polygon fill="#63b8ff" stroke="#63b8ff" points="324.19,-218.74 313.73,-217.11 320.89,-224.91 324.19,-218.74"/>
</a>
</g>
</g>
<!-- Node20 -->
<g id="Node000020" class="node">
<title>Node20</title>
<g id="a_Node000020"><a xlink:href="state_8hpp.html" target="_top" xlink:title=" ">
<polygon fill="white" stroke="#666666" points="777.33,-217 655.33,-217 655.33,-187 777.33,-187 777.33,-217"/>
<text text-anchor="start" x="663.33" y="-205" font-family="Helvetica,sans-Serif" font-size="10.00">iii_drone_core/control</text>
<text text-anchor="middle" x="716.33" y="-194" font-family="Helvetica,sans-Serif" font-size="10.00">/state.hpp</text>
</a>
</g>
</g>
<!-- Node16&#45;&gt;Node20 -->
<g id="edge24_Node000016_Node000020" class="edge">
<title>Node16&#45;&gt;Node20</title>
<g id="a_edge24_Node000016_Node000020"><a xlink:title=" ">
<path fill="none" stroke="#63b8ff" d="M482.94,-257.25C531.19,-246.03 596.67,-230.81 646,-219.35"/>
<polygon fill="#63b8ff" stroke="#63b8ff" points="647,-222.71 655.95,-217.03 645.42,-215.89 647,-222.71"/>
</a>
</g>
</g>
<!-- Node21 -->
<g id="Node000021" class="node">
<title>Node21</title>
<g id="a_Node000021"><a xlink:href="math_8hpp.html" target="_top" xlink:title=" ">
<polygon fill="white" stroke="#666666" points="643.83,-151 534.83,-151 534.83,-121 643.83,-121 643.83,-151"/>
<text text-anchor="start" x="542.83" y="-139" font-family="Helvetica,sans-Serif" font-size="10.00">iii_drone_core/utils</text>
<text text-anchor="middle" x="589.33" y="-128" font-family="Helvetica,sans-Serif" font-size="10.00">/math.hpp</text>
</a>
</g>
</g>
<!-- Node16&#45;&gt;Node21 -->
<g id="edge31_Node000016_Node000021" class="edge">
<title>Node16&#45;&gt;Node21</title>
<g id="a_edge31_Node000016_Node000021"><a xlink:title=" ">
<path fill="none" stroke="#63b8ff" d="M417.76,-253C419.22,-233.82 424.34,-204.89 441.33,-187 463.04,-164.12 495.57,-151.71 524.6,-144.98"/>
<polygon fill="#63b8ff" stroke="#63b8ff" points="525.65,-148.34 534.7,-142.83 524.19,-141.49 525.65,-148.34"/>
</a>
</g>
</g>
<!-- Node20&#45;&gt;Node3 -->
<g id="edge25_Node000020_Node000003" class="edge">
<title>Node20&#45;&gt;Node3</title>
<g id="a_edge25_Node000020_Node000003"><a xlink:title=" ">
<path fill="none" stroke="#63b8ff" d="M752.98,-186.95C782.52,-175.63 823.64,-159.88 851.74,-149.1"/>
<polygon fill="#63b8ff" stroke="#63b8ff" points="853.02,-152.36 861.1,-145.52 850.51,-145.83 853.02,-152.36"/>
</a>
</g>
</g>
<!-- Node20&#45;&gt;Node4 -->
<g id="edge26_Node000020_Node000004" class="edge">
<title>Node20&#45;&gt;Node4</title>
<g id="a_edge26_Node000020_Node000004"><a xlink:title=" ">
<path fill="none" stroke="#63b8ff" d="M729.55,-186.79C744.5,-170.76 769.58,-143.93 791.33,-121 800.17,-111.68 809.98,-101.44 818.42,-92.67"/>
<polygon fill="#63b8ff" stroke="#63b8ff" points="821,-95.03 825.42,-85.4 815.96,-90.17 821,-95.03"/>
</a>
</g>
</g>
<!-- Node20&#45;&gt;Node21 -->
<g id="edge27_Node000020_Node000021" class="edge">
<title>Node20&#45;&gt;Node21</title>
<g id="a_edge27_Node000020_Node000021"><a xlink:title=" ">
<path fill="none" stroke="#63b8ff" d="M688.46,-186.95C670.18,-177.74 646.07,-165.6 626.21,-155.59"/>
<polygon fill="#63b8ff" stroke="#63b8ff" points="627.64,-152.39 617.13,-151.01 624.49,-158.64 627.64,-152.39"/>
</a>
</g>
</g>
<!-- Node21&#45;&gt;Node4 -->
<g id="edge29_Node000021_Node000004" class="edge">
<title>Node21&#45;&gt;Node4</title>
<g id="a_edge29_Node000021_Node000004"><a xlink:title=" ">
<path fill="none" stroke="#63b8ff" d="M643.88,-121.03C682.37,-111.18 734.1,-97.94 774.66,-87.55"/>
<polygon fill="#63b8ff" stroke="#63b8ff" points="775.64,-90.92 784.46,-85.05 773.9,-84.14 775.64,-90.92"/>
</a>
</g>
</g>
<!-- Node21&#45;&gt;Node5 -->
<g id="edge28_Node000021_Node000005" class="edge">
<title>Node21&#45;&gt;Node5</title>
<g id="a_edge28_Node000021_Node000005"><a xlink:title=" ">
<path fill="none" stroke="#63b8ff" d="M577.74,-120.72C558.91,-97.51 521.77,-51.73 501.8,-27.1"/>
<polygon fill="#63b8ff" stroke="#63b8ff" points="504.3,-24.63 495.28,-19.07 498.86,-29.04 504.3,-24.63"/>
</a>
</g>
</g>
<!-- Node22&#45;&gt;Node3 -->
<g id="edge33_Node000022_Node000003" class="edge">
<title>Node22&#45;&gt;Node3</title>
<g id="a_edge33_Node000022_Node000003"><a xlink:title=" ">
<path fill="none" stroke="#63b8ff" d="M702.83,-410.19C769.77,-403.29 866.32,-388.6 889.33,-360 901.97,-344.29 890.07,-206.54 885.19,-155.72"/>
<polygon fill="#63b8ff" stroke="#63b8ff" points="888.65,-155.14 884.2,-145.53 881.69,-155.82 888.65,-155.14"/>
</a>
</g>
</g>
<!-- Node22&#45;&gt;Node4 -->
<g id="edge37_Node000022_Node000004" class="edge">
<title>Node22&#45;&gt;Node4</title>
<g id="a_edge37_Node000022_Node000004"><a xlink:title=" ">
<path fill="none" stroke="#63b8ff" d="M702.96,-413.47C849.22,-407.38 1190.32,-383.65 1252.33,-294 1310.38,-210.06 1196.13,-158.78 1101.33,-121 1036.97,-95.35 958.35,-82.61 904.12,-76.44"/>
<polygon fill="#63b8ff" stroke="#63b8ff" points="904.27,-72.94 893.95,-75.33 903.51,-79.89 904.27,-72.94"/>
</a>
</g>
</g>
<!-- Node22&#45;&gt;Node17 -->
<g id="edge35_Node000022_Node000017" class="edge">
<title>Node22&#45;&gt;Node17</title>
<g id="a_edge35_Node000022_Node000017"><a xlink:title=" ">
<path fill="none" stroke="#63b8ff" d="M622.77,-395.8C615.77,-385.35 607.27,-372.17 600.33,-360 572.4,-311.02 544.05,-250.72 530.51,-221.12"/>
<polygon fill="#63b8ff" stroke="#63b8ff" points="533.54,-219.34 526.22,-211.69 527.17,-222.24 533.54,-219.34"/>
</a>
</g>
</g>
<!-- Node22&#45;&gt;Node20 -->
<g id="edge44_Node000022_Node000020" class="edge">
<title>Node22&#45;&gt;Node20</title>
<g id="a_edge44_Node000022_Node000020"><a xlink:title=" ">
<path fill="none" stroke="#63b8ff" d="M621.76,-395.69C610.83,-378.3 599.05,-352.34 607.33,-330 623.69,-285.8 663.09,-246.62 689.75,-223.85"/>
<polygon fill="#63b8ff" stroke="#63b8ff" points="692.14,-226.41 697.58,-217.32 687.66,-221.04 692.14,-226.41"/>
</a>
</g>
</g>
<!-- Node22&#45;&gt;Node21 -->
<g id="edge38_Node000022_Node000021" class="edge">
<title>Node22&#45;&gt;Node21</title>
<g id="a_edge38_Node000022_Node000021"><a xlink:title=" ">
<path fill="none" stroke="#63b8ff" d="M583.89,-395.92C535.63,-378.1 461.96,-351.39 397.33,-330 229.56,-274.48 -92.97,-317.37 26.33,-187 59.41,-150.85 383.64,-140.67 524.52,-137.95"/>
<polygon fill="#63b8ff" stroke="#63b8ff" points="524.81,-141.44 534.75,-137.75 524.68,-134.44 524.81,-141.44"/>
</a>
</g>
</g>
<!-- Node23 -->
<g id="Node000023" class="node">
<title>Node23</title>
<g id="a_Node000023"><a xlink:title=" ">
<polygon fill="#e0e0e0" stroke="#999999" points="721.83,-354.5 626.83,-354.5 626.83,-335.5 721.83,-335.5 721.83,-354.5"/>
<text text-anchor="middle" x="674.33" y="-342.5" font-family="Helvetica,sans-Serif" font-size="10.00">Eigen/Geometry</text>
</a>
</g>
</g>
<!-- Node22&#45;&gt;Node23 -->
<g id="edge34_Node000022_Node000023" class="edge">
<title>Node22&#45;&gt;Node23</title>
<g id="a_edge34_Node000022_Node000023"><a xlink:title=" ">
<path fill="none" stroke="#63b8ff" d="M647.11,-395.77C652.64,-385.66 659.32,-373.44 664.68,-363.64"/>
<polygon fill="#63b8ff" stroke="#63b8ff" points="667.78,-365.27 669.5,-354.82 661.64,-361.91 667.78,-365.27"/>
</a>
</g>
</g>
<!-- Node24 -->
<g id="Node000024" class="node">
<title>Node24</title>
<g id="a_Node000024"><a xlink:title=" ">
<polygon fill="#e0e0e0" stroke="#999999" points="880.33,-360 740.33,-360 740.33,-330 880.33,-330 880.33,-360"/>
<text text-anchor="start" x="748.33" y="-348" font-family="Helvetica,sans-Serif" font-size="10.00">px4_msgs/msg/trajectory</text>
<text text-anchor="middle" x="810.33" y="-337" font-family="Helvetica,sans-Serif" font-size="10.00">_setpoint.hpp</text>
</a>
</g>
</g>
<!-- Node22&#45;&gt;Node24 -->
<g id="edge36_Node000022_Node000024" class="edge">
<title>Node22&#45;&gt;Node24</title>
<g id="a_edge36_Node000022_Node000024"><a xlink:title=" ">
<path fill="none" stroke="#63b8ff" d="M685.26,-395.96C710.55,-385.85 741.19,-373.62 765.81,-363.78"/>
<polygon fill="#63b8ff" stroke="#63b8ff" points="767.28,-366.96 775.27,-360 764.68,-360.46 767.28,-366.96"/>
</a>
</g>
</g>
<!-- Node25 -->
<g id="Node000025" class="node">
<title>Node25</title>
<g id="a_Node000025"><a xlink:href="reference_8hpp.html" target="_top" xlink:title=" ">
<polygon fill="white" stroke="#666666" points="815.33,-288.5 693.33,-288.5 693.33,-258.5 815.33,-258.5 815.33,-288.5"/>
<text text-anchor="start" x="701.33" y="-276.5" font-family="Helvetica,sans-Serif" font-size="10.00">iii_drone_core/control</text>
<text text-anchor="middle" x="754.33" y="-265.5" font-family="Helvetica,sans-Serif" font-size="10.00">/reference.hpp</text>
</a>
</g>
</g>
<!-- Node22&#45;&gt;Node25 -->
<g id="edge39_Node000022_Node000025" class="edge">
<title>Node22&#45;&gt;Node25</title>
<g id="a_edge39_Node000022_Node000025"><a xlink:title=" ">
<path fill="none" stroke="#63b8ff" d="M624.37,-395.9C614.82,-377.45 605.04,-349.77 618.33,-330 633.14,-307.95 658.42,-294.66 683.19,-286.64"/>
<polygon fill="#63b8ff" stroke="#63b8ff" points="684.42,-289.93 693.01,-283.72 682.42,-283.22 684.42,-289.93"/>
</a>
</g>
</g>
<!-- Node26 -->
<g id="Node000026" class="node">
<title>Node26</title>
<g id="a_Node000026"><a xlink:href="reference__adapter_8hpp.html" target="_top" xlink:title=" ">
<polygon fill="white" stroke="#666666" points="1067.83,-360 936.83,-360 936.83,-330 1067.83,-330 1067.83,-360"/>
<text text-anchor="start" x="944.83" y="-348" font-family="Helvetica,sans-Serif" font-size="10.00">iii_drone_core/adapters</text>
<text text-anchor="middle" x="1002.33" y="-337" font-family="Helvetica,sans-Serif" font-size="10.00">/reference_adapter.hpp</text>
</a>
</g>
</g>
<!-- Node22&#45;&gt;Node26 -->
<g id="edge45_Node000022_Node000026" class="edge">
<title>Node22&#45;&gt;Node26</title>
<g id="a_edge45_Node000022_Node000026"><a xlink:title=" ">
<path fill="none" stroke="#63b8ff" d="M703.03,-402.83C766.18,-390.84 860.88,-372.86 926.78,-360.35"/>
<polygon fill="#63b8ff" stroke="#63b8ff" points="927.53,-363.77 936.7,-358.46 926.22,-356.89 927.53,-363.77"/>
</a>
</g>
</g>
<!-- Node25&#45;&gt;Node3 -->
<g id="edge43_Node000025_Node000003" class="edge">
<title>Node25&#45;&gt;Node3</title>
<g id="a_edge43_Node000025_Node000003"><a xlink:title=" ">
<path fill="none" stroke="#63b8ff" d="M772.8,-258.29C786.27,-247.56 804.67,-232.14 819.33,-217 838.96,-196.73 858.83,-170.87 871.11,-154.12"/>
<polygon fill="#63b8ff" stroke="#63b8ff" points="874.07,-156 877.1,-145.85 868.4,-151.9 874.07,-156"/>
</a>
</g>
</g>
<!-- Node25&#45;&gt;Node4 -->
<g id="edge40_Node000025_Node000004" class="edge">
<title>Node25&#45;&gt;Node4</title>
<g id="a_edge40_Node000025_Node000004"><a xlink:title=" ">
<path fill="none" stroke="#63b8ff" d="M763.46,-258.26C770.29,-247.27 779.57,-231.52 786.33,-217 805.78,-175.2 822.9,-124.1 832.11,-94.77"/>
<polygon fill="#63b8ff" stroke="#63b8ff" points="835.52,-95.6 835.14,-85.01 828.84,-93.53 835.52,-95.6"/>
</a>
</g>
</g>
<!-- Node25&#45;&gt;Node20 -->
<g id="edge42_Node000025_Node000020" class="edge">
<title>Node25&#45;&gt;Node20</title>
<g id="a_edge42_Node000025_Node000020"><a xlink:title=" ">
<path fill="none" stroke="#63b8ff" d="M746.64,-258.44C741.54,-249.11 734.73,-236.66 728.86,-225.92"/>
<polygon fill="#63b8ff" stroke="#63b8ff" points="731.87,-224.14 724.01,-217.04 725.73,-227.5 731.87,-224.14"/>
</a>
</g>
</g>
<!-- Node25&#45;&gt;Node21 -->
<g id="edge41_Node000025_Node000021" class="edge">
<title>Node25&#45;&gt;Node21</title>
<g id="a_edge41_Node000025_Node000021"><a xlink:title=" ">
<path fill="none" stroke="#63b8ff" d="M716.65,-258.43C694.58,-248.96 667.05,-234.93 646.33,-217 627.72,-200.9 611.98,-177.54 601.79,-160.21"/>
<polygon fill="#63b8ff" stroke="#63b8ff" points="604.7,-158.25 596.71,-151.29 598.62,-161.71 604.7,-158.25"/>
</a>
</g>
</g>
<!-- Node26&#45;&gt;Node3 -->
<g id="edge46_Node000026_Node000003" class="edge">
<title>Node26&#45;&gt;Node3</title>
<g id="a_edge46_Node000026_Node000003"><a xlink:title=" ">
<path fill="none" stroke="#63b8ff" d="M978.22,-330C964.85,-321.16 948.85,-308.66 938.33,-294 921.93,-271.14 898.63,-192.13 888.44,-155.68"/>
<polygon fill="#63b8ff" stroke="#63b8ff" points="891.75,-154.55 885.71,-145.85 885.01,-156.42 891.75,-154.55"/>
</a>
</g>
</g>
<!-- Node26&#45;&gt;Node4 -->
<g id="edge48_Node000026_Node000004" class="edge">
<title>Node26&#45;&gt;Node4</title>
<g id="a_edge48_Node000026_Node000004"><a xlink:title=" ">
<path fill="none" stroke="#63b8ff" d="M1068.17,-341.68C1150.33,-336.09 1275.39,-317.13 1234.33,-253 1161.14,-138.69 995.97,-95.18 904.09,-79.4"/>
<polygon fill="#63b8ff" stroke="#63b8ff" points="904.51,-75.92 894.07,-77.74 903.36,-82.82 904.51,-75.92"/>
</a>
</g>
</g>
<!-- Node26&#45;&gt;Node21 -->
<g id="edge49_Node000026_Node000021" class="edge">
<title>Node26&#45;&gt;Node21</title>
<g id="a_edge49_Node000026_Node000021"><a xlink:title=" ">
<path fill="none" stroke="#63b8ff" d="M936.74,-336.08C850.16,-325.25 706.08,-305.83 684.33,-294 643.96,-272.05 638.26,-256.82 615.33,-217 605.22,-199.45 598.44,-177.45 594.34,-160.96"/>
<polygon fill="#63b8ff" stroke="#63b8ff" points="597.7,-159.97 592.03,-151.03 590.89,-161.56 597.7,-159.97"/>
</a>
</g>
</g>
<!-- Node26&#45;&gt;Node25 -->
<g id="edge50_Node000026_Node000025" class="edge">
<title>Node26&#45;&gt;Node25</title>
<g id="a_edge50_Node000026_Node000025"><a xlink:title=" ">
<path fill="none" stroke="#63b8ff" d="M952.14,-329.94C912.31,-318.77 856.5,-303.13 814.31,-291.31"/>
<polygon fill="#63b8ff" stroke="#63b8ff" points="815.01,-287.87 804.44,-288.54 813.12,-294.61 815.01,-287.87"/>
</a>
</g>
</g>
<!-- Node27 -->
<g id="Node000027" class="node">
<title>Node27</title>
<g id="a_Node000027"><a xlink:title=" ">
<polygon fill="#e0e0e0" stroke="#999999" points="1093.33,-288.5 947.33,-288.5 947.33,-258.5 1093.33,-258.5 1093.33,-288.5"/>
<text text-anchor="start" x="955.33" y="-276.5" font-family="Helvetica,sans-Serif" font-size="10.00">geometry_msgs/msg/pose</text>
<text text-anchor="middle" x="1020.33" y="-265.5" font-family="Helvetica,sans-Serif" font-size="10.00">_stamped.hpp</text>
</a>
</g>
</g>
<!-- Node26&#45;&gt;Node27 -->
<g id="edge47_Node000026_Node000027" class="edge">
<title>Node26&#45;&gt;Node27</title>
<g id="a_edge47_Node000026_Node000027"><a xlink:title=" ">
<path fill="none" stroke="#63b8ff" d="M1005.97,-329.94C1008.31,-320.89 1011.42,-308.91 1014.14,-298.4"/>
<polygon fill="#63b8ff" stroke="#63b8ff" points="1017.57,-299.1 1016.69,-288.54 1010.79,-297.35 1017.57,-299.1"/>
</a>
</g>
</g>
<!-- Node28 -->
<g id="Node000028" class="node">
<title>Node28</title>
<g id="a_Node000028"><a xlink:title=" ">
<polygon fill="#e0e0e0" stroke="#999999" points="1224.83,-288.5 1111.83,-288.5 1111.83,-258.5 1224.83,-258.5 1224.83,-288.5"/>
<text text-anchor="start" x="1119.83" y="-276.5" font-family="Helvetica,sans-Serif" font-size="10.00">iii_drone_interfaces</text>
<text text-anchor="middle" x="1168.33" y="-265.5" font-family="Helvetica,sans-Serif" font-size="10.00">/msg/reference.hpp</text>
</a>
</g>
</g>
<!-- Node26&#45;&gt;Node28 -->
<g id="edge51_Node000026_Node000028" class="edge">
<title>Node26&#45;&gt;Node28</title>
<g id="a_edge51_Node000026_Node000028"><a xlink:title=" ">
<path fill="none" stroke="#63b8ff" d="M1035.92,-329.94C1061.68,-319.15 1097.43,-304.18 1125.29,-292.52"/>
<polygon fill="#63b8ff" stroke="#63b8ff" points="1126.91,-295.63 1134.78,-288.54 1124.21,-289.18 1126.91,-295.63"/>
</a>
</g>
</g>
</g>
</svg>

<g id="navigator" transform="translate(0 0)" fill="#404254">
  <rect fill="#f2f5e9" fill-opacity="0.5" stroke="#606060" stroke-width=".5" x="0" y="0" width="60" height="60"/>
  <use id="zoomplus" xlink:href="#zoomPlus" x="17" y="9" onmousedown="handleZoom(evt,'in')"/>
  <use id="zoomminus" xlink:href="#zoomMin" x="42" y="9" onmousedown="handleZoom(evt,'out')"/>
  <use id="reset" xlink:href="#resetDef" x="30" y="36" onmousedown="handleReset()"/>
   <use id="arrowup" xlink:href="#arrowUp" x="0" y="0" onmousedown="handlePan(0,-1)"/>
  <use id="arrowright" xlink:href="#arrowRight" x="0" y="0" onmousedown="handlePan(1,0)"/>
  <use id="arrowdown" xlink:href="#arrowDown" x="0" y="0" onmousedown="handlePan(0,1)"/>
  <use id="arrowleft" xlink:href="#arrowLeft" x="0" y="0" onmousedown="handlePan(-1,0)"/>
</g>
<svg viewBox="0 0 15 15" width="100%" height="30px" preserveAspectRatio="xMaxYMin meet">
 <g id="arrow_out" transform="scale(0.3 0.3)">
  <a xlink:href="setpoint__controller_8hpp__incl_org.svg" target="_base">
   <rect id="button" ry="5" rx="5" y="6" x="6" height="38" width="38"
        fill="#f2f5e9" fill-opacity="0.5" stroke="#606060" stroke-width="1.0"/>
   <path id="arrow"
     d="M 11.500037,31.436501 C 11.940474,20.09759 22.043105,11.32322 32.158766,21.979434 L 37.068811,17.246167 C 37.068811,17.246167 37.088388,32 37.088388,32 L 22.160133,31.978069 C 22.160133,31.978069 26.997745,27.140456 26.997745,27.140456 C 18.528582,18.264221 13.291696,25.230495 11.500037,31.436501 z"
     style="fill:#404040;"/>
  </a>
 </g>
</svg>

<style type='text/css'>
<![CDATA[
[data-mouse-over-selected='false'] { opacity: 0.7; }
[data-mouse-over-selected='true']  { opacity: 1.0; }
]]>
</style>
<script type="application/ecmascript"><![CDATA[
document.addEventListener('DOMContentLoaded', (event) => {
  highlightEdges();
  highlightAdjacentNodes();
});
]]></script>
</svg>
