<?xml version="1.0" encoding="UTF-8" standalone="no"?>
<!DOCTYPE svg PUBLIC "-//W3C//DTD SVG 1.1//EN"
 "http://www.w3.org/Graphics/SVG/1.1/DTD/svg11.dtd">
<!-- Generated by graphviz version 2.43.0 (0)
 -->
<!-- Title: /home/ffn/Workspace/ros2_humble_ws/src/III&#45;Drone&#45;Core/include/iii_drone_core/perception/single_line.hpp Pages: 1 -->
<!--zoomable 258 -->

<svg id="main" version="1.1" xmlns="http://www.w3.org/2000/svg" xmlns:xlink="http://www.w3.org/1999/xlink" xml:space="preserve" onload="init(evt)">
<style type="text/css"><![CDATA[
.node, .edge {opacity: 0.7;}
.node.selected, .edge.selected {opacity: 1;}
.edge:hover path { stroke: red; }
.edge:hover polygon { stroke: red; fill: red; }
]]></style>

<defs>
  <circle id="rim" cx="0" cy="0" r="7"/>
  <circle id="rim2" cx="0" cy="0" r="3.5"/>
  <g id="zoomPlus">
    <use xlink:href="#rim" fill="#404040"><set attributeName="fill" to="#808080" begin="zoomplus.mouseover" end="zoomplus.mouseout"/></use>
    <path d="M-4,0h8M0,-4v8" fill="none" stroke="white" stroke-width="1.5" pointer-events="none"/>
  </g>
  <g id="zoomMin">
    <use xlink:href="#rim" fill="#404040"><set attributeName="fill" to="#808080" begin="zoomminus.mouseover" end="zoomminus.mouseout"/></use>
    <path d="M-4,0h8" fill="none" stroke="white" stroke-width="1.5" pointer-events="none"/>
  </g>
  <g id="arrowUp" transform="translate(30 24)">
    <use xlink:href="#rim"/>
    <path pointer-events="none" fill="none" stroke="white" stroke-width="1.5" d="M0,-3.0v7 M-2.5,-0.5L0,-3.0L2.5,-0.5"/>
  </g>
  <g id="arrowRight" transform="rotate(90) translate(36 -43)">
    <use xlink:href="#rim"/>
    <path pointer-events="none" fill="none" stroke="white" stroke-width="1.5" d="M0,-3.0v7 M-2.5,-0.5L0,-3.0L2.5,-0.5"/>
  </g>
  <g id="arrowDown" transform="rotate(180) translate(-30 -48)">
    <use xlink:href="#rim"/>
    <path pointer-events="none" fill="none" stroke="white" stroke-width="1.5" d="M0,-3.0v7 M-2.5,-0.5L0,-3.0L2.5,-0.5"/>
  </g>
  <g id="arrowLeft" transform="rotate(270) translate(-36 17)">
    <use xlink:href="#rim"/>
    <path pointer-events="none" fill="none" stroke="white" stroke-width="1.5" d="M0,-3.0v7 M-2.5,-0.5L0,-3.0L2.5,-0.5"/>
  </g>
  <g id="resetDef">
    <use xlink:href="#rim2" fill="#404040"><set attributeName="fill" to="#808080" begin="reset.mouseover" end="reset.mouseout"/></use>
  </g>
</defs>
<script type="application/ecmascript">
var viewWidth = 2288;
var viewHeight = 258;
var sectionId = 'dynsection-0';
</script>
<script type="application/ecmascript" xlink:href="svg.min.js"/>
<svg id="graph" class="graph">
<g id="viewport">
<title>/home/ffn/Workspace/ros2_humble_ws/src/III&#45;Drone&#45;Core/include/iii_drone_core/perception/single_line.hpp</title>
<!-- Node1 -->
<g id="Node000001" class="node">
<title>Node1</title>
<g id="a_Node000001"><a xlink:title=" ">
<polygon fill="#999999" stroke="#666666" points="976.5,-250 833.5,-250 833.5,-187 976.5,-187 976.5,-250"/>
<text text-anchor="start" x="841.5" y="-238" font-family="Helvetica,sans-Serif" font-size="10.00">/home/ffn/Workspace</text>
<text text-anchor="start" x="841.5" y="-227" font-family="Helvetica,sans-Serif" font-size="10.00">/ros2_humble_ws/src</text>
<text text-anchor="start" x="841.5" y="-216" font-family="Helvetica,sans-Serif" font-size="10.00">/III&#45;Drone&#45;Core/include</text>
<text text-anchor="start" x="841.5" y="-205" font-family="Helvetica,sans-Serif" font-size="10.00">/iii_drone_core/perception</text>
<text text-anchor="middle" x="905" y="-194" font-family="Helvetica,sans-Serif" font-size="10.00">/single_line.hpp</text>
</a>
</g>
</g>
<!-- Node2 -->
<g id="Node000002" class="node">
<title>Node2</title>
<g id="a_Node000002"><a xlink:title=" ">
<polygon fill="#e0e0e0" stroke="#999999" points="44,-145.5 0,-145.5 0,-126.5 44,-126.5 44,-145.5"/>
<text text-anchor="middle" x="22" y="-133.5" font-family="Helvetica,sans-Serif" font-size="10.00">string</text>
</a>
</g>
</g>
<!-- Node1&#45;&gt;Node2 -->
<g id="edge1_Node000001_Node000002" class="edge">
<title>Node1&#45;&gt;Node2</title>
<g id="a_edge1_Node000001_Node000002"><a xlink:title=" ">
<path fill="none" stroke="#63b8ff" d="M833.27,-215.08C655.81,-208.6 199.95,-188.69 53,-151 51.27,-150.56 49.52,-150.02 47.77,-149.42"/>
<polygon fill="#63b8ff" stroke="#63b8ff" points="48.61,-145.99 38.03,-145.51 46,-152.49 48.61,-145.99"/>
</a>
</g>
</g>
<!-- Node3 -->
<g id="Node000003" class="node">
<title>Node3</title>
<g id="a_Node000003"><a xlink:title=" ">
<polygon fill="#e0e0e0" stroke="#999999" points="122,-145.5 62,-145.5 62,-126.5 122,-126.5 122,-145.5"/>
<text text-anchor="middle" x="92" y="-133.5" font-family="Helvetica,sans-Serif" font-size="10.00">iostream</text>
</a>
</g>
</g>
<!-- Node1&#45;&gt;Node3 -->
<g id="edge2_Node000001_Node000003" class="edge">
<title>Node1&#45;&gt;Node3</title>
<g id="a_edge2_Node000001_Node000003"><a xlink:title=" ">
<path fill="none" stroke="#63b8ff" d="M833.38,-217.5C695.68,-216.14 385.13,-206.54 131,-151 128.17,-150.38 125.26,-149.61 122.37,-148.75"/>
<polygon fill="#63b8ff" stroke="#63b8ff" points="123.35,-145.39 112.76,-145.57 121.15,-152.03 123.35,-145.39"/>
</a>
</g>
</g>
<!-- Node4 -->
<g id="Node000004" class="node">
<title>Node4</title>
<g id="a_Node000004"><a xlink:title=" ">
<polygon fill="#e0e0e0" stroke="#999999" points="190,-145.5 140,-145.5 140,-126.5 190,-126.5 190,-145.5"/>
<text text-anchor="middle" x="165" y="-133.5" font-family="Helvetica,sans-Serif" font-size="10.00">chrono</text>
</a>
</g>
</g>
<!-- Node1&#45;&gt;Node4 -->
<g id="edge3_Node000001_Node000004" class="edge">
<title>Node1&#45;&gt;Node4</title>
<g id="a_edge3_Node000001_Node000004"><a xlink:title=" ">
<path fill="none" stroke="#63b8ff" d="M833.44,-217.71C704.62,-216.55 425.93,-207.08 199,-151 196.83,-150.46 194.63,-149.82 192.43,-149.09"/>
<polygon fill="#63b8ff" stroke="#63b8ff" points="193.61,-145.8 183.02,-145.58 191.16,-152.35 193.61,-145.8"/>
</a>
</g>
</g>
<!-- Node5 -->
<g id="Node000005" class="node">
<title>Node5</title>
<g id="a_Node000005"><a xlink:title=" ">
<polygon fill="#e0e0e0" stroke="#999999" points="256,-145.5 208,-145.5 208,-126.5 256,-126.5 256,-145.5"/>
<text text-anchor="middle" x="232" y="-133.5" font-family="Helvetica,sans-Serif" font-size="10.00">thread</text>
</a>
</g>
</g>
<!-- Node1&#45;&gt;Node5 -->
<g id="edge4_Node000001_Node000005" class="edge">
<title>Node1&#45;&gt;Node5</title>
<g id="a_edge4_Node000001_Node000005"><a xlink:title=" ">
<path fill="none" stroke="#63b8ff" d="M833.09,-215.77C714.37,-211.63 470.54,-197.67 270,-151 267.33,-150.38 264.59,-149.62 261.87,-148.79"/>
<polygon fill="#63b8ff" stroke="#63b8ff" points="262.82,-145.41 252.23,-145.51 260.57,-152.04 262.82,-145.41"/>
</a>
</g>
</g>
<!-- Node6 -->
<g id="Node000006" class="node">
<title>Node6</title>
<g id="a_Node000006"><a xlink:title=" ">
<polygon fill="#e0e0e0" stroke="#999999" points="336,-79.5 288,-79.5 288,-60.5 336,-60.5 336,-79.5"/>
<text text-anchor="middle" x="312" y="-67.5" font-family="Helvetica,sans-Serif" font-size="10.00">mutex</text>
</a>
</g>
</g>
<!-- Node1&#45;&gt;Node6 -->
<g id="edge5_Node000001_Node000006" class="edge">
<title>Node1&#45;&gt;Node6</title>
<g id="a_edge5_Node000001_Node000006"><a xlink:title=" ">
<path fill="none" stroke="#63b8ff" d="M833.37,-214.85C681.44,-208.49 337.86,-189.92 303,-151 287.96,-134.21 295.44,-106.83 303.03,-88.87"/>
<polygon fill="#63b8ff" stroke="#63b8ff" points="306.23,-90.3 307.24,-79.75 299.87,-87.37 306.23,-90.3"/>
</a>
</g>
</g>
<!-- Node7 -->
<g id="Node000007" class="node">
<title>Node7</title>
<g id="a_Node000007"><a xlink:title=" ">
<polygon fill="#e0e0e0" stroke="#999999" points="440,-79.5 354,-79.5 354,-60.5 440,-60.5 440,-79.5"/>
<text text-anchor="middle" x="397" y="-67.5" font-family="Helvetica,sans-Serif" font-size="10.00">shared_mutex</text>
</a>
</g>
</g>
<!-- Node1&#45;&gt;Node7 -->
<g id="edge6_Node000001_Node000007" class="edge">
<title>Node1&#45;&gt;Node7</title>
<g id="a_edge6_Node000001_Node000007"><a xlink:title=" ">
<path fill="none" stroke="#63b8ff" d="M833.25,-209.64C776.15,-201.18 695.57,-184.17 632,-151 614.13,-141.68 615.87,-130.31 598,-121 537.57,-89.54 515.01,-101.86 449,-85 445.44,-84.09 441.75,-83.13 438.04,-82.16"/>
<polygon fill="#63b8ff" stroke="#63b8ff" points="438.88,-78.76 428.31,-79.57 437.08,-85.52 438.88,-78.76"/>
</a>
</g>
</g>
<!-- Node8 -->
<g id="Node000008" class="node">
<title>Node8</title>
<g id="a_Node000008"><a xlink:title=" ">
<polygon fill="#e0e0e0" stroke="#999999" points="1203.5,-145.5 1156.5,-145.5 1156.5,-126.5 1203.5,-126.5 1203.5,-145.5"/>
<text text-anchor="middle" x="1180" y="-133.5" font-family="Helvetica,sans-Serif" font-size="10.00">vector</text>
</a>
</g>
</g>
<!-- Node1&#45;&gt;Node8 -->
<g id="edge7_Node000001_Node000008" class="edge">
<title>Node1&#45;&gt;Node8</title>
<g id="a_edge7_Node000001_Node000008"><a xlink:title=" ">
<path fill="none" stroke="#63b8ff" d="M976.74,-198.96C1023.98,-186.36 1087.01,-168.81 1142,-151 1143.91,-150.38 1145.86,-149.73 1147.82,-149.06"/>
<polygon fill="#63b8ff" stroke="#63b8ff" points="1149.34,-152.23 1157.6,-145.59 1147,-145.63 1149.34,-152.23"/>
</a>
</g>
</g>
<!-- Node9 -->
<g id="Node000009" class="node">
<title>Node9</title>
<g id="a_Node000009"><a xlink:title=" ">
<polygon fill="#e0e0e0" stroke="#999999" points="557.5,-79.5 458.5,-79.5 458.5,-60.5 557.5,-60.5 557.5,-79.5"/>
<text text-anchor="middle" x="508" y="-67.5" font-family="Helvetica,sans-Serif" font-size="10.00">rclcpp/rclcpp.hpp</text>
</a>
</g>
</g>
<!-- Node1&#45;&gt;Node9 -->
<g id="edge8_Node000001_Node000009" class="edge">
<title>Node1&#45;&gt;Node9</title>
<g id="a_edge8_Node000001_Node000009"><a xlink:title=" ">
<path fill="none" stroke="#63b8ff" d="M833.3,-201.6C788.2,-190.32 729.4,-173.24 680,-151 657.06,-140.67 654.42,-132.41 632,-121 602.6,-106.03 567.62,-92.27 542.32,-82.99"/>
<polygon fill="#63b8ff" stroke="#63b8ff" points="543.39,-79.66 532.8,-79.54 541.01,-86.24 543.39,-79.66"/>
</a>
</g>
</g>
<!-- Node10 -->
<g id="Node000010" class="node">
<title>Node10</title>
<g id="a_Node000010"><a xlink:title=" ">
<polygon fill="#e0e0e0" stroke="#999999" points="1329,-19 1161,-19 1161,0 1329,0 1329,-19"/>
<text text-anchor="middle" x="1245" y="-7" font-family="Helvetica,sans-Serif" font-size="10.00">geometry_msgs/msg/point.hpp</text>
</a>
</g>
</g>
<!-- Node1&#45;&gt;Node10 -->
<g id="edge9_Node000001_Node000010" class="edge">
<title>Node1&#45;&gt;Node10</title>
<g id="a_edge9_Node000001_Node000010"><a xlink:title=" ">
<path fill="none" stroke="#63b8ff" d="M976.72,-197.37C1007.51,-186.63 1042.81,-171.36 1071,-151 1116.26,-118.31 1107.83,-89.14 1152,-55 1169.64,-41.36 1192.15,-30.45 1210.6,-22.85"/>
<polygon fill="#63b8ff" stroke="#63b8ff" points="1212.1,-26.02 1220.1,-19.08 1209.51,-19.52 1212.1,-26.02"/>
</a>
</g>
</g>
<!-- Node11 -->
<g id="Node000011" class="node">
<title>Node11</title>
<g id="a_Node000011"><a xlink:title=" ">
<polygon fill="#e0e0e0" stroke="#999999" points="1543,-19 1347,-19 1347,0 1543,0 1543,-19"/>
<text text-anchor="middle" x="1445" y="-7" font-family="Helvetica,sans-Serif" font-size="10.00">geometry_msgs/msg/quaternion.hpp</text>
</a>
</g>
</g>
<!-- Node1&#45;&gt;Node11 -->
<g id="edge10_Node000001_Node000011" class="edge">
<title>Node1&#45;&gt;Node11</title>
<g id="a_edge10_Node000001_Node000011"><a xlink:title=" ">
<path fill="none" stroke="#63b8ff" d="M976.51,-197.12C1013.79,-185.46 1059.7,-169.49 1099,-151 1122.11,-140.13 1125.04,-132.17 1148,-121 1237.61,-77.41 1349.09,-40.19 1406.64,-22.14"/>
<polygon fill="#63b8ff" stroke="#63b8ff" points="1407.9,-25.42 1416.4,-19.1 1405.82,-18.73 1407.9,-25.42"/>
</a>
</g>
</g>
<!-- Node12 -->
<g id="Node000012" class="node">
<title>Node12</title>
<g id="a_Node000012"><a xlink:title=" ">
<polygon fill="#e0e0e0" stroke="#999999" points="1396.5,-151 1221.5,-151 1221.5,-121 1396.5,-121 1396.5,-151"/>
<text text-anchor="start" x="1229.5" y="-139" font-family="Helvetica,sans-Serif" font-size="10.00">geometry_msgs/msg/quaternion</text>
<text text-anchor="middle" x="1309" y="-128" font-family="Helvetica,sans-Serif" font-size="10.00">_stamped.hpp</text>
</a>
</g>
</g>
<!-- Node1&#45;&gt;Node12 -->
<g id="edge11_Node000001_Node000012" class="edge">
<title>Node1&#45;&gt;Node12</title>
<g id="a_edge11_Node000001_Node000012"><a xlink:title=" ">
<path fill="none" stroke="#63b8ff" d="M976.76,-203.2C1047.36,-189.13 1154.96,-167.69 1228.45,-153.05"/>
<polygon fill="#63b8ff" stroke="#63b8ff" points="1229.46,-156.42 1238.58,-151.03 1228.09,-149.55 1229.46,-156.42"/>
</a>
</g>
</g>
<!-- Node13 -->
<g id="Node000013" class="node">
<title>Node13</title>
<g id="a_Node000013"><a xlink:title=" ">
<polygon fill="#e0e0e0" stroke="#999999" points="611.5,-19 444.5,-19 444.5,0 611.5,0 611.5,-19"/>
<text text-anchor="middle" x="528" y="-7" font-family="Helvetica,sans-Serif" font-size="10.00">geometry_msgs/msg/pose.hpp</text>
</a>
</g>
</g>
<!-- Node1&#45;&gt;Node13 -->
<g id="edge12_Node000001_Node000013" class="edge">
<title>Node1&#45;&gt;Node13</title>
<g id="a_edge12_Node000001_Node000013"><a xlink:title=" ">
<path fill="none" stroke="#63b8ff" d="M833.32,-197.83C796.38,-186.43 751.19,-170.46 713,-151 692.24,-140.42 689.96,-133.02 670,-121 640.03,-102.95 628.09,-105.86 600,-85 577.09,-67.99 554.93,-43.46 541.38,-27.25"/>
<polygon fill="#63b8ff" stroke="#63b8ff" points="543.84,-24.73 534.79,-19.21 538.42,-29.16 543.84,-24.73"/>
</a>
</g>
</g>
<!-- Node14 -->
<g id="Node000014" class="node">
<title>Node14</title>
<g id="a_Node000014"><a xlink:title=" ">
<polygon fill="#e0e0e0" stroke="#999999" points="934,-85 788,-85 788,-55 934,-55 934,-85"/>
<text text-anchor="start" x="796" y="-73" font-family="Helvetica,sans-Serif" font-size="10.00">geometry_msgs/msg/pose</text>
<text text-anchor="middle" x="861" y="-62" font-family="Helvetica,sans-Serif" font-size="10.00">_stamped.hpp</text>
</a>
</g>
</g>
<!-- Node1&#45;&gt;Node14 -->
<g id="edge13_Node000001_Node000014" class="edge">
<title>Node1&#45;&gt;Node14</title>
<g id="a_edge13_Node000001_Node000014"><a xlink:title=" ">
<path fill="none" stroke="#63b8ff" d="M895.78,-186.79C887.57,-159.48 875.75,-120.09 868.22,-95.03"/>
<polygon fill="#63b8ff" stroke="#63b8ff" points="871.5,-93.81 865.28,-85.24 864.8,-95.82 871.5,-93.81"/>
</a>
</g>
</g>
<!-- Node15 -->
<g id="Node000015" class="node">
<title>Node15</title>
<g id="a_Node000015"><a xlink:title=" ">
<polygon fill="#e0e0e0" stroke="#999999" points="1573.5,-151 1414.5,-151 1414.5,-121 1573.5,-121 1573.5,-151"/>
<text text-anchor="start" x="1422.5" y="-139" font-family="Helvetica,sans-Serif" font-size="10.00">geometry_msgs/msg/vector3</text>
<text text-anchor="middle" x="1494" y="-128" font-family="Helvetica,sans-Serif" font-size="10.00">_stamped.hpp</text>
</a>
</g>
</g>
<!-- Node1&#45;&gt;Node15 -->
<g id="edge14_Node000001_Node000015" class="edge">
<title>Node1&#45;&gt;Node15</title>
<g id="a_edge14_Node000001_Node000015"><a xlink:title=" ">
<path fill="none" stroke="#63b8ff" d="M976.85,-208.56C1072.21,-196.55 1246.09,-174.2 1404.46,-151.2"/>
<polygon fill="#63b8ff" stroke="#63b8ff" points="1405,-154.66 1414.39,-149.76 1403.99,-147.74 1405,-154.66"/>
</a>
</g>
</g>
<!-- Node16 -->
<g id="Node000016" class="node">
<title>Node16</title>
<g id="a_Node000016"><a xlink:title=" ">
<polygon fill="#e0e0e0" stroke="#999999" points="1738.5,-151 1591.5,-151 1591.5,-121 1738.5,-121 1738.5,-151"/>
<text text-anchor="start" x="1599.5" y="-139" font-family="Helvetica,sans-Serif" font-size="10.00">geometry_msgs/msg/point</text>
<text text-anchor="middle" x="1665" y="-128" font-family="Helvetica,sans-Serif" font-size="10.00">_stamped.hpp</text>
</a>
</g>
</g>
<!-- Node1&#45;&gt;Node16 -->
<g id="edge15_Node000001_Node000016" class="edge">
<title>Node1&#45;&gt;Node16</title>
<g id="a_edge15_Node000001_Node000016"><a xlink:title=" ">
<path fill="none" stroke="#63b8ff" d="M976.95,-212.14C1099.16,-202.66 1355.27,-181.18 1581.22,-151.18"/>
<polygon fill="#63b8ff" stroke="#63b8ff" points="1581.83,-154.63 1591.28,-149.84 1580.91,-147.7 1581.83,-154.63"/>
</a>
</g>
</g>
<!-- Node17 -->
<g id="Node000017" class="node">
<title>Node17</title>
<g id="a_Node000017"><a xlink:title=" ">
<polygon fill="#e0e0e0" stroke="#999999" points="1909,-145.5 1757,-145.5 1757,-126.5 1909,-126.5 1909,-145.5"/>
<text text-anchor="middle" x="1833" y="-133.5" font-family="Helvetica,sans-Serif" font-size="10.00">tf2_ros/transform_listener.h</text>
</a>
</g>
</g>
<!-- Node1&#45;&gt;Node17 -->
<g id="edge16_Node000001_Node000017" class="edge">
<title>Node1&#45;&gt;Node17</title>
<g id="a_edge16_Node000001_Node000017"><a xlink:title=" ">
<path fill="none" stroke="#63b8ff" d="M976.53,-213.9C1122.14,-206.13 1463.27,-185.62 1748,-151 1756.85,-149.92 1766.18,-148.59 1775.29,-147.18"/>
<polygon fill="#63b8ff" stroke="#63b8ff" points="1776.12,-150.59 1785.45,-145.56 1775.02,-143.68 1776.12,-150.59"/>
</a>
</g>
</g>
<!-- Node18 -->
<g id="Node000018" class="node">
<title>Node18</title>
<g id="a_Node000018"><a xlink:title=" ">
<polygon fill="#e0e0e0" stroke="#999999" points="2017,-145.5 1927,-145.5 1927,-126.5 2017,-126.5 2017,-145.5"/>
<text text-anchor="middle" x="1972" y="-133.5" font-family="Helvetica,sans-Serif" font-size="10.00">tf2_ros/buffer.h</text>
</a>
</g>
</g>
<!-- Node1&#45;&gt;Node18 -->
<g id="edge17_Node000001_Node000018" class="edge">
<title>Node1&#45;&gt;Node18</title>
<g id="a_edge17_Node000001_Node000018"><a xlink:title=" ">
<path fill="none" stroke="#63b8ff" d="M976.75,-217.41C1143.23,-216.19 1568.25,-207.3 1918,-151 1922.88,-150.21 1927.97,-149.18 1932.98,-148.04"/>
<polygon fill="#63b8ff" stroke="#63b8ff" points="1934.19,-151.35 1943.07,-145.57 1932.52,-144.55 1934.19,-151.35"/>
</a>
</g>
</g>
<!-- Node19 -->
<g id="Node000019" class="node">
<title>Node19</title>
<g id="a_Node000019"><a xlink:title=" ">
<polygon fill="#e0e0e0" stroke="#999999" points="2130.5,-145.5 2035.5,-145.5 2035.5,-126.5 2130.5,-126.5 2130.5,-145.5"/>
<text text-anchor="middle" x="2083" y="-133.5" font-family="Helvetica,sans-Serif" font-size="10.00">tf2/exceptions.h</text>
</a>
</g>
</g>
<!-- Node1&#45;&gt;Node19 -->
<g id="edge18_Node000001_Node000019" class="edge">
<title>Node1&#45;&gt;Node19</title>
<g id="a_edge18_Node000001_Node000019"><a xlink:title=" ">
<path fill="none" stroke="#63b8ff" d="M976.62,-217.74C1154.98,-217.37 1632.99,-210.42 2026,-151 2031.48,-150.17 2037.2,-149.06 2042.82,-147.83"/>
<polygon fill="#63b8ff" stroke="#63b8ff" points="2043.79,-151.2 2052.74,-145.52 2042.2,-144.38 2043.79,-151.2"/>
</a>
</g>
</g>
<!-- Node20 -->
<g id="Node000020" class="node">
<title>Node20</title>
<g id="a_Node000020"><a xlink:title=" ">
<polygon fill="#e0e0e0" stroke="#999999" points="2279.5,-151 2148.5,-151 2148.5,-121 2279.5,-121 2279.5,-151"/>
<text text-anchor="start" x="2156.5" y="-139" font-family="Helvetica,sans-Serif" font-size="10.00">tf2_geometry_msgs/tf2</text>
<text text-anchor="middle" x="2214" y="-128" font-family="Helvetica,sans-Serif" font-size="10.00">_geometry_msgs.hpp</text>
</a>
</g>
</g>
<!-- Node1&#45;&gt;Node20 -->
<g id="edge19_Node000001_Node000020" class="edge">
<title>Node1&#45;&gt;Node20</title>
<g id="a_edge19_Node000001_Node000020"><a xlink:title=" ">
<path fill="none" stroke="#63b8ff" d="M976.64,-216.97C1165.4,-214.87 1692.03,-204.38 2138.11,-151.13"/>
<polygon fill="#63b8ff" stroke="#63b8ff" points="2138.79,-154.57 2148.3,-149.9 2137.96,-147.62 2138.79,-154.57"/>
</a>
</g>
</g>
<!-- Node21 -->
<g id="Node000021" class="node">
<title>Node21</title>
<g id="a_Node000021"><a xlink:href="types_8hpp.html" target="_top" xlink:title=" ">
<polygon fill="white" stroke="#666666" points="1061.5,-85 952.5,-85 952.5,-55 1061.5,-55 1061.5,-85"/>
<text text-anchor="start" x="960.5" y="-73" font-family="Helvetica,sans-Serif" font-size="10.00">iii_drone_core/utils</text>
<text text-anchor="middle" x="1007" y="-62" font-family="Helvetica,sans-Serif" font-size="10.00">/types.hpp</text>
</a>
</g>
</g>
<!-- Node1&#45;&gt;Node21 -->
<g id="edge20_Node000001_Node000021" class="edge">
<title>Node1&#45;&gt;Node21</title>
<g id="a_edge20_Node000001_Node000021"><a xlink:title=" ">
<path fill="none" stroke="#63b8ff" d="M912.56,-186.7C918.54,-166.63 928.35,-140.62 943,-121 951.6,-109.48 963.51,-99.2 974.73,-91"/>
<polygon fill="#63b8ff" stroke="#63b8ff" points="976.9,-93.75 983.1,-85.15 972.9,-88.01 976.9,-93.75"/>
</a>
</g>
</g>
<!-- Node25 -->
<g id="Node000025" class="node">
<title>Node25</title>
<g id="a_Node000025"><a xlink:href="math_8hpp.html" target="_top" xlink:title=" ">
<polygon fill="white" stroke="#666666" points="1061.5,-151 952.5,-151 952.5,-121 1061.5,-121 1061.5,-151"/>
<text text-anchor="start" x="960.5" y="-139" font-family="Helvetica,sans-Serif" font-size="10.00">iii_drone_core/utils</text>
<text text-anchor="middle" x="1007" y="-128" font-family="Helvetica,sans-Serif" font-size="10.00">/math.hpp</text>
</a>
</g>
</g>
<!-- Node1&#45;&gt;Node25 -->
<g id="edge27_Node000001_Node000025" class="edge">
<title>Node1&#45;&gt;Node25</title>
<g id="a_edge27_Node000001_Node000025"><a xlink:title=" ">
<path fill="none" stroke="#63b8ff" d="M943.85,-186.84C956.24,-177.06 969.63,-166.49 980.89,-157.61"/>
<polygon fill="#63b8ff" stroke="#63b8ff" points="983.34,-160.13 989.02,-151.19 979,-154.64 983.34,-160.13"/>
</a>
</g>
</g>
<!-- Node26 -->
<g id="Node000026" class="node">
<title>Node26</title>
<g id="a_Node000026"><a xlink:href="timestamp_8hpp.html" target="_top" xlink:title=" ">
<polygon fill="white" stroke="#666666" points="589.5,-151 480.5,-151 480.5,-121 589.5,-121 589.5,-151"/>
<text text-anchor="start" x="488.5" y="-139" font-family="Helvetica,sans-Serif" font-size="10.00">iii_drone_core/utils</text>
<text text-anchor="middle" x="535" y="-128" font-family="Helvetica,sans-Serif" font-size="10.00">/timestamp.hpp</text>
</a>
</g>
</g>
<!-- Node1&#45;&gt;Node26 -->
<g id="edge30_Node000001_Node000026" class="edge">
<title>Node1&#45;&gt;Node26</title>
<g id="a_edge30_Node000001_Node000026"><a xlink:title=" ">
<path fill="none" stroke="#63b8ff" d="M833.22,-201.88C765.6,-187.17 665.18,-165.32 599.9,-151.12"/>
<polygon fill="#63b8ff" stroke="#63b8ff" points="600.25,-147.61 589.73,-148.91 598.76,-154.45 600.25,-147.61"/>
</a>
</g>
</g>
<!-- Node27 -->
<g id="Node000027" class="node">
<title>Node27</title>
<g id="a_Node000027"><a xlink:href="single__line__adapter_8hpp.html" target="_top" xlink:title=" ">
<polygon fill="white" stroke="#666666" points="857.5,-151 722.5,-151 722.5,-121 857.5,-121 857.5,-151"/>
<text text-anchor="start" x="730.5" y="-139" font-family="Helvetica,sans-Serif" font-size="10.00">iii_drone_core/adapters</text>
<text text-anchor="middle" x="790" y="-128" font-family="Helvetica,sans-Serif" font-size="10.00">/single_line_adapter.hpp</text>
</a>
</g>
</g>
<!-- Node1&#45;&gt;Node27 -->
<g id="edge34_Node000001_Node000027" class="edge">
<title>Node1&#45;&gt;Node27</title>
<g id="a_edge34_Node000001_Node000027"><a xlink:title=" ">
<path fill="none" stroke="#63b8ff" d="M861.2,-186.84C846.96,-176.87 831.54,-166.08 818.7,-157.09"/>
<polygon fill="#63b8ff" stroke="#63b8ff" points="820.47,-154.06 810.27,-151.19 816.45,-159.79 820.47,-154.06"/>
</a>
</g>
</g>
<!-- Node29 -->
<g id="Node000029" class="node">
<title>Node29</title>
<g id="a_Node000029"><a xlink:href="powerline__parameters_8hpp.html" target="_top" xlink:title=" ">
<polygon fill="white" stroke="#666666" points="462,-151 312,-151 312,-121 462,-121 462,-151"/>
<text text-anchor="start" x="320" y="-139" font-family="Helvetica,sans-Serif" font-size="10.00">iii_drone_core/perception</text>
<text text-anchor="middle" x="387" y="-128" font-family="Helvetica,sans-Serif" font-size="10.00">/powerline_parameters.hpp</text>
</a>
</g>
</g>
<!-- Node1&#45;&gt;Node29 -->
<g id="edge40_Node000001_Node000029" class="edge">
<title>Node1&#45;&gt;Node29</title>
<g id="a_edge40_Node000001_Node000029"><a xlink:title=" ">
<path fill="none" stroke="#63b8ff" d="M833.15,-206.79C749.14,-194.19 605.62,-172.47 472.1,-151.16"/>
<polygon fill="#63b8ff" stroke="#63b8ff" points="472.52,-147.69 462.1,-149.57 471.42,-154.6 472.52,-147.69"/>
</a>
</g>
</g>
<!-- Node21&#45;&gt;Node10 -->
<g id="edge22_Node000021_Node000010" class="edge">
<title>Node21&#45;&gt;Node10</title>
<g id="a_edge22_Node000021_Node000010"><a xlink:title=" ">
<path fill="none" stroke="#63b8ff" d="M1061.6,-55.58C1103.64,-45.25 1161.03,-31.14 1200.35,-21.48"/>
<polygon fill="#63b8ff" stroke="#63b8ff" points="1201.31,-24.84 1210.18,-19.06 1199.64,-18.05 1201.31,-24.84"/>
</a>
</g>
</g>
<!-- Node21&#45;&gt;Node11 -->
<g id="edge23_Node000021_Node000011" class="edge">
<title>Node21&#45;&gt;Node11</title>
<g id="a_edge23_Node000021_Node000011"><a xlink:title=" ">
<path fill="none" stroke="#63b8ff" d="M1061.59,-61.71C1139.68,-51.28 1283.49,-32.07 1371.06,-20.38"/>
<polygon fill="#63b8ff" stroke="#63b8ff" points="1371.74,-23.82 1381.19,-19.02 1370.81,-16.88 1371.74,-23.82"/>
</a>
</g>
</g>
<!-- Node21&#45;&gt;Node13 -->
<g id="edge24_Node000021_Node000013" class="edge">
<title>Node21&#45;&gt;Node13</title>
<g id="a_edge24_Node000021_Node000013"><a xlink:title=" ">
<path fill="none" stroke="#63b8ff" d="M952.26,-56.62C949.13,-56.04 946.03,-55.49 943,-55 883.21,-45.28 724.52,-29.28 621.61,-19.34"/>
<polygon fill="#63b8ff" stroke="#63b8ff" points="621.81,-15.85 611.52,-18.37 621.14,-22.82 621.81,-15.85"/>
</a>
</g>
</g>
<!-- Node22 -->
<g id="Node000022" class="node">
<title>Node22</title>
<g id="a_Node000022"><a xlink:title=" ">
<polygon fill="#e0e0e0" stroke="#999999" points="1142.5,-19 1037.5,-19 1037.5,0 1142.5,0 1142.5,-19"/>
<text text-anchor="middle" x="1090" y="-7" font-family="Helvetica,sans-Serif" font-size="10.00">eigen3/Eigen/Core</text>
</a>
</g>
</g>
<!-- Node21&#45;&gt;Node22 -->
<g id="edge21_Node000021_Node000022" class="edge">
<title>Node21&#45;&gt;Node22</title>
<g id="a_edge21_Node000021_Node000022"><a xlink:title=" ">
<path fill="none" stroke="#63b8ff" d="M1027.09,-54.84C1039.88,-45.83 1056.4,-34.18 1069.3,-25.09"/>
<polygon fill="#63b8ff" stroke="#63b8ff" points="1071.41,-27.89 1077.56,-19.27 1067.37,-22.17 1071.41,-27.89"/>
</a>
</g>
</g>
<!-- Node23 -->
<g id="Node000023" class="node">
<title>Node23</title>
<g id="a_Node000023"><a xlink:title=" ">
<polygon fill="#e0e0e0" stroke="#999999" points="820.5,-19 629.5,-19 629.5,0 820.5,0 820.5,-19"/>
<text text-anchor="middle" x="725" y="-7" font-family="Helvetica,sans-Serif" font-size="10.00">geometry_msgs/msg/transform.hpp</text>
</a>
</g>
</g>
<!-- Node21&#45;&gt;Node23 -->
<g id="edge25_Node000021_Node000023" class="edge">
<title>Node21&#45;&gt;Node23</title>
<g id="a_edge25_Node000021_Node000023"><a xlink:title=" ">
<path fill="none" stroke="#63b8ff" d="M952.2,-56.96C949.09,-56.29 946,-55.64 943,-55 886.55,-43.07 821.76,-29.91 777.58,-21.02"/>
<polygon fill="#63b8ff" stroke="#63b8ff" points="778.14,-17.56 767.64,-19.02 776.76,-24.42 778.14,-17.56"/>
</a>
</g>
</g>
<!-- Node24 -->
<g id="Node000024" class="node">
<title>Node24</title>
<g id="a_Node000024"><a xlink:title=" ">
<polygon fill="#e0e0e0" stroke="#999999" points="1019,-19 839,-19 839,0 1019,0 1019,-19"/>
<text text-anchor="middle" x="929" y="-7" font-family="Helvetica,sans-Serif" font-size="10.00">geometry_msgs/msg/vector3.hpp</text>
</a>
</g>
</g>
<!-- Node21&#45;&gt;Node24 -->
<g id="edge26_Node000021_Node000024" class="edge">
<title>Node21&#45;&gt;Node24</title>
<g id="a_edge26_Node000021_Node000024"><a xlink:title=" ">
<path fill="none" stroke="#63b8ff" d="M988.12,-54.84C976.22,-45.91 960.88,-34.41 948.8,-25.35"/>
<polygon fill="#63b8ff" stroke="#63b8ff" points="950.79,-22.47 940.69,-19.27 946.59,-28.07 950.79,-22.47"/>
</a>
</g>
</g>
<!-- Node25&#45;&gt;Node21 -->
<g id="edge29_Node000025_Node000021" class="edge">
<title>Node25&#45;&gt;Node21</title>
<g id="a_edge29_Node000025_Node000021"><a xlink:title=" ">
<path fill="none" stroke="#63b8ff" d="M1007,-120.8C1007,-113.34 1007,-103.99 1007,-95.41"/>
<polygon fill="#63b8ff" stroke="#63b8ff" points="1010.5,-95.16 1007,-85.16 1003.5,-95.16 1010.5,-95.16"/>
</a>
</g>
</g>
<!-- Node25&#45;&gt;Node22 -->
<g id="edge28_Node000025_Node000022" class="edge">
<title>Node25&#45;&gt;Node22</title>
<g id="a_edge28_Node000025_Node000022"><a xlink:title=" ">
<path fill="none" stroke="#63b8ff" d="M1032.23,-120.92C1045.63,-112.22 1061.28,-99.87 1071,-85 1082.04,-68.09 1086.67,-45.15 1088.61,-29.21"/>
<polygon fill="#63b8ff" stroke="#63b8ff" points="1092.11,-29.32 1089.6,-19.03 1085.15,-28.64 1092.11,-29.32"/>
</a>
</g>
</g>
<!-- Node26&#45;&gt;Node6 -->
<g id="edge31_Node000026_Node000006" class="edge">
<title>Node26&#45;&gt;Node6</title>
<g id="a_edge31_Node000026_Node000006"><a xlink:title=" ">
<path fill="none" stroke="#63b8ff" d="M480.33,-122.82C442.02,-113.75 389.86,-100.33 345,-85 343.56,-84.51 342.1,-83.99 340.63,-83.44"/>
<polygon fill="#63b8ff" stroke="#63b8ff" points="341.6,-80.06 331.01,-79.62 339.01,-86.56 341.6,-80.06"/>
</a>
</g>
</g>
<!-- Node26&#45;&gt;Node7 -->
<g id="edge32_Node000026_Node000007" class="edge">
<title>Node26&#45;&gt;Node7</title>
<g id="a_edge32_Node000026_Node000007"><a xlink:title=" ">
<path fill="none" stroke="#63b8ff" d="M504.72,-120.95C480.83,-109.88 447.8,-94.56 424.64,-83.82"/>
<polygon fill="#63b8ff" stroke="#63b8ff" points="425.91,-80.55 415.37,-79.52 422.96,-86.9 425.91,-80.55"/>
</a>
</g>
</g>
<!-- Node26&#45;&gt;Node9 -->
<g id="edge33_Node000026_Node000009" class="edge">
<title>Node26&#45;&gt;Node9</title>
<g id="a_edge33_Node000026_Node000009"><a xlink:title=" ">
<path fill="none" stroke="#63b8ff" d="M529.01,-120.8C525.09,-111.5 519.93,-99.27 515.7,-89.26"/>
<polygon fill="#63b8ff" stroke="#63b8ff" points="518.84,-87.7 511.73,-79.84 512.39,-90.42 518.84,-87.7"/>
</a>
</g>
</g>
<!-- Node27&#45;&gt;Node9 -->
<g id="edge35_Node000027_Node000009" class="edge">
<title>Node27&#45;&gt;Node9</title>
<g id="a_edge35_Node000027_Node000009"><a xlink:title=" ">
<path fill="none" stroke="#63b8ff" d="M728.11,-120.95C676.15,-109.16 603,-92.56 555.54,-81.79"/>
<polygon fill="#63b8ff" stroke="#63b8ff" points="556.06,-78.32 545.53,-79.52 554.51,-85.14 556.06,-78.32"/>
</a>
</g>
</g>
<!-- Node27&#45;&gt;Node13 -->
<g id="edge36_Node000027_Node000013" class="edge">
<title>Node27&#45;&gt;Node13</title>
<g id="a_edge36_Node000027_Node000013"><a xlink:title=" ">
<path fill="none" stroke="#63b8ff" d="M737.19,-120.97C708.53,-112.39 672.94,-100.15 643,-85 622.21,-74.48 619.47,-67.8 600,-55 583.88,-44.41 565.37,-32.98 551.15,-24.36"/>
<polygon fill="#63b8ff" stroke="#63b8ff" points="552.86,-21.3 542.49,-19.13 549.24,-27.3 552.86,-21.3"/>
</a>
</g>
</g>
<!-- Node27&#45;&gt;Node14 -->
<g id="edge37_Node000027_Node000014" class="edge">
<title>Node27&#45;&gt;Node14</title>
<g id="a_edge37_Node000027_Node000014"><a xlink:title=" ">
<path fill="none" stroke="#63b8ff" d="M805.76,-120.8C815.13,-112.34 827.2,-101.46 837.67,-92.03"/>
<polygon fill="#63b8ff" stroke="#63b8ff" points="840.2,-94.46 845.29,-85.16 835.52,-89.26 840.2,-94.46"/>
</a>
</g>
</g>
<!-- Node27&#45;&gt;Node21 -->
<g id="edge38_Node000027_Node000021" class="edge">
<title>Node27&#45;&gt;Node21</title>
<g id="a_edge38_Node000027_Node000021"><a xlink:title=" ">
<path fill="none" stroke="#63b8ff" d="M837.62,-120.95C870.69,-111.2 914.92,-98.16 949.89,-87.84"/>
<polygon fill="#63b8ff" stroke="#63b8ff" points="950.89,-91.2 959.49,-85.01 948.91,-84.48 950.89,-91.2"/>
</a>
</g>
</g>
<!-- Node28 -->
<g id="Node000028" class="node">
<title>Node28</title>
<g id="a_Node000028"><a xlink:title=" ">
<polygon fill="#e0e0e0" stroke="#999999" points="769.5,-85 652.5,-85 652.5,-55 769.5,-55 769.5,-85"/>
<text text-anchor="start" x="660.5" y="-73" font-family="Helvetica,sans-Serif" font-size="10.00">iii_drone_interfaces</text>
<text text-anchor="middle" x="711" y="-62" font-family="Helvetica,sans-Serif" font-size="10.00">/msg/single_line.hpp</text>
</a>
</g>
</g>
<!-- Node27&#45;&gt;Node28 -->
<g id="edge39_Node000027_Node000028" class="edge">
<title>Node27&#45;&gt;Node28</title>
<g id="a_edge39_Node000027_Node000028"><a xlink:title=" ">
<path fill="none" stroke="#63b8ff" d="M772.47,-120.8C761.83,-112.18 748.08,-101.04 736.28,-91.48"/>
<polygon fill="#63b8ff" stroke="#63b8ff" points="738.46,-88.74 728.48,-85.16 734.05,-94.18 738.46,-88.74"/>
</a>
</g>
</g>
<!-- Node29&#45;&gt;Node6 -->
<g id="edge41_Node000029_Node000006" class="edge">
<title>Node29&#45;&gt;Node6</title>
<g id="a_edge41_Node000029_Node000006"><a xlink:title=" ">
<path fill="none" stroke="#63b8ff" d="M370.36,-120.8C358.43,-110.62 342.39,-96.93 330.14,-86.48"/>
<polygon fill="#63b8ff" stroke="#63b8ff" points="332.24,-83.67 322.36,-79.84 327.7,-89 332.24,-83.67"/>
</a>
</g>
</g>
<!-- Node29&#45;&gt;Node7 -->
<g id="edge42_Node000029_Node000007" class="edge">
<title>Node29&#45;&gt;Node7</title>
<g id="a_edge42_Node000029_Node000007"><a xlink:title=" ">
<path fill="none" stroke="#63b8ff" d="M389.22,-120.8C390.64,-111.7 392.5,-99.79 394.05,-89.9"/>
<polygon fill="#63b8ff" stroke="#63b8ff" points="397.53,-90.26 395.62,-79.84 390.62,-89.18 397.53,-90.26"/>
</a>
</g>
</g>
</g>
</svg>

<g id="navigator" transform="translate(0 0)" fill="#404254">
  <rect fill="#f2f5e9" fill-opacity="0.5" stroke="#606060" stroke-width=".5" x="0" y="0" width="60" height="60"/>
  <use id="zoomplus" xlink:href="#zoomPlus" x="17" y="9" onmousedown="handleZoom(evt,'in')"/>
  <use id="zoomminus" xlink:href="#zoomMin" x="42" y="9" onmousedown="handleZoom(evt,'out')"/>
  <use id="reset" xlink:href="#resetDef" x="30" y="36" onmousedown="handleReset()"/>
   <use id="arrowup" xlink:href="#arrowUp" x="0" y="0" onmousedown="handlePan(0,-1)"/>
  <use id="arrowright" xlink:href="#arrowRight" x="0" y="0" onmousedown="handlePan(1,0)"/>
  <use id="arrowdown" xlink:href="#arrowDown" x="0" y="0" onmousedown="handlePan(0,1)"/>
  <use id="arrowleft" xlink:href="#arrowLeft" x="0" y="0" onmousedown="handlePan(-1,0)"/>
</g>
<svg viewBox="0 0 15 15" width="100%" height="30px" preserveAspectRatio="xMaxYMin meet">
 <g id="arrow_out" transform="scale(0.3 0.3)">
  <a xlink:href="single__line_8hpp__incl_org.svg" target="_base">
   <rect id="button" ry="5" rx="5" y="6" x="6" height="38" width="38"
        fill="#f2f5e9" fill-opacity="0.5" stroke="#606060" stroke-width="1.0"/>
   <path id="arrow"
     d="M 11.500037,31.436501 C 11.940474,20.09759 22.043105,11.32322 32.158766,21.979434 L 37.068811,17.246167 C 37.068811,17.246167 37.088388,32 37.088388,32 L 22.160133,31.978069 C 22.160133,31.978069 26.997745,27.140456 26.997745,27.140456 C 18.528582,18.264221 13.291696,25.230495 11.500037,31.436501 z"
     style="fill:#404040;"/>
  </a>
 </g>
</svg>

<style type='text/css'>
<![CDATA[
[data-mouse-over-selected='false'] { opacity: 0.7; }
[data-mouse-over-selected='true']  { opacity: 1.0; }
]]>
</style>
<script type="application/ecmascript"><![CDATA[
document.addEventListener('DOMContentLoaded', (event) => {
  highlightEdges();
  highlightAdjacentNodes();
});
]]></script>
</svg>
