<?xml version="1.0" encoding="UTF-8" standalone="no"?>
<!DOCTYPE svg PUBLIC "-//W3C//DTD SVG 1.1//EN"
 "http://www.w3.org/Graphics/SVG/1.1/DTD/svg11.dtd">
<!-- Generated by graphviz version 2.43.0 (0)
 -->
<!-- Title: /home/ffn/Workspace/ros2_humble_ws/src/III&#45;Drone&#45;Core/include/iii_drone_core/perception/single_line.hpp Pages: 1 -->
<svg width="449pt" height="368pt"
 viewBox="0.00 0.00 448.50 368.00" xmlns="http://www.w3.org/2000/svg" xmlns:xlink="http://www.w3.org/1999/xlink">
<g id="graph0" class="graph" transform="scale(1 1) rotate(0) translate(4 364)">
<title>/home/ffn/Workspace/ros2_humble_ws/src/III&#45;Drone&#45;Core/include/iii_drone_core/perception/single_line.hpp</title>
<!-- Node1 -->
<g id="Node000001" class="node">
<title>Node1</title>
<g id="a_Node000001"><a xlink:title=" ">
<polygon fill="#999999" stroke="#666666" points="347,-360 204,-360 204,-297 347,-297 347,-360"/>
<text text-anchor="start" x="212" y="-348" font-family="Helvetica,sans-Serif" font-size="10.00">/home/ffn/Workspace</text>
<text text-anchor="start" x="212" y="-337" font-family="Helvetica,sans-Serif" font-size="10.00">/ros2_humble_ws/src</text>
<text text-anchor="start" x="212" y="-326" font-family="Helvetica,sans-Serif" font-size="10.00">/III&#45;Drone&#45;Core/include</text>
<text text-anchor="start" x="212" y="-315" font-family="Helvetica,sans-Serif" font-size="10.00">/iii_drone_core/perception</text>
<text text-anchor="middle" x="275.5" y="-304" font-family="Helvetica,sans-Serif" font-size="10.00">/single_line.hpp</text>
</a>
</g>
</g>
<!-- Node2 -->
<g id="Node000002" class="node">
<title>Node2</title>
<g id="a_Node000002"><a xlink:href="powerline_8hpp.html" target="_top" xlink:title=" ">
<polygon fill="white" stroke="#666666" points="262,-261 119,-261 119,-198 262,-198 262,-261"/>
<text text-anchor="start" x="127" y="-249" font-family="Helvetica,sans-Serif" font-size="10.00">/home/ffn/Workspace</text>
<text text-anchor="start" x="127" y="-238" font-family="Helvetica,sans-Serif" font-size="10.00">/ros2_humble_ws/src</text>
<text text-anchor="start" x="127" y="-227" font-family="Helvetica,sans-Serif" font-size="10.00">/III&#45;Drone&#45;Core/include</text>
<text text-anchor="start" x="127" y="-216" font-family="Helvetica,sans-Serif" font-size="10.00">/iii_drone_core/perception</text>
<text text-anchor="middle" x="190.5" y="-205" font-family="Helvetica,sans-Serif" font-size="10.00">/powerline.hpp</text>
</a>
</g>
</g>
<!-- Node1&#45;&gt;Node2 -->
<g id="edge1_Node000001_Node000002" class="edge">
<title>Node1&#45;&gt;Node2</title>
<g id="a_edge1_Node000001_Node000002"><a xlink:title=" ">
<path fill="none" stroke="#63b8ff" d="M241.93,-289.19C233.83,-279.95 225.27,-270.18 217.51,-261.32"/>
<polygon fill="#63b8ff" stroke="#63b8ff" points="239.38,-291.59 248.61,-296.81 244.65,-286.98 239.38,-291.59"/>
</a>
</g>
</g>
<!-- Node6 -->
<g id="Node000006" class="node">
<title>Node6</title>
<g id="a_Node000006"><a xlink:href="single__line_8cpp.html" target="_top" xlink:title=" ">
<polygon fill="white" stroke="#666666" points="440.5,-255.5 280.5,-255.5 280.5,-203.5 440.5,-203.5 440.5,-255.5"/>
<text text-anchor="start" x="288.5" y="-243.5" font-family="Helvetica,sans-Serif" font-size="10.00">/home/ffn/Workspace</text>
<text text-anchor="start" x="288.5" y="-232.5" font-family="Helvetica,sans-Serif" font-size="10.00">/ros2_humble_ws/src</text>
<text text-anchor="start" x="288.5" y="-221.5" font-family="Helvetica,sans-Serif" font-size="10.00">/III&#45;Drone&#45;Core/src/perception</text>
<text text-anchor="middle" x="360.5" y="-210.5" font-family="Helvetica,sans-Serif" font-size="10.00">/single_line.cpp</text>
</a>
</g>
</g>
<!-- Node1&#45;&gt;Node6 -->
<g id="edge5_Node000001_Node000006" class="edge">
<title>Node1&#45;&gt;Node6</title>
<g id="a_edge5_Node000001_Node000006"><a xlink:title=" ">
<path fill="none" stroke="#63b8ff" d="M309.07,-289.19C318.9,-277.97 329.4,-265.99 338.33,-255.8"/>
<polygon fill="#63b8ff" stroke="#63b8ff" points="306.35,-286.98 302.39,-296.81 311.62,-291.59 306.35,-286.98"/>
</a>
</g>
</g>
<!-- Node3 -->
<g id="Node000003" class="node">
<title>Node3</title>
<g id="a_Node000003"><a xlink:href="pl__mapper__node_8hpp.html" target="_top" xlink:title=" ">
<polygon fill="white" stroke="#666666" points="180,-162 25,-162 25,-88 180,-88 180,-162"/>
<text text-anchor="start" x="33" y="-150" font-family="Helvetica,sans-Serif" font-size="10.00">/home/ffn/Workspace</text>
<text text-anchor="start" x="33" y="-139" font-family="Helvetica,sans-Serif" font-size="10.00">/ros2_humble_ws/src</text>
<text text-anchor="start" x="33" y="-128" font-family="Helvetica,sans-Serif" font-size="10.00">/III&#45;Drone&#45;Core/include</text>
<text text-anchor="start" x="33" y="-117" font-family="Helvetica,sans-Serif" font-size="10.00">/iii_drone_core/perception</text>
<text text-anchor="start" x="33" y="-106" font-family="Helvetica,sans-Serif" font-size="10.00">/pl_mapper_node/pl_mapper</text>
<text text-anchor="middle" x="102.5" y="-95" font-family="Helvetica,sans-Serif" font-size="10.00">_node.hpp</text>
</a>
</g>
</g>
<!-- Node2&#45;&gt;Node3 -->
<g id="edge2_Node000002_Node000003" class="edge">
<title>Node2&#45;&gt;Node3</title>
<g id="a_edge2_Node000002_Node000003"><a xlink:title=" ">
<path fill="none" stroke="#63b8ff" d="M157.38,-189.92C149.56,-180.82 141.25,-171.14 133.53,-162.14"/>
<polygon fill="#63b8ff" stroke="#63b8ff" points="154.93,-192.44 164.1,-197.75 160.24,-187.88 154.93,-192.44"/>
</a>
</g>
</g>
<!-- Node5 -->
<g id="Node000005" class="node">
<title>Node5</title>
<g id="a_Node000005"><a xlink:href="powerline_8cpp.html" target="_top" xlink:title=" ">
<polygon fill="white" stroke="#666666" points="358.5,-151 198.5,-151 198.5,-99 358.5,-99 358.5,-151"/>
<text text-anchor="start" x="206.5" y="-139" font-family="Helvetica,sans-Serif" font-size="10.00">/home/ffn/Workspace</text>
<text text-anchor="start" x="206.5" y="-128" font-family="Helvetica,sans-Serif" font-size="10.00">/ros2_humble_ws/src</text>
<text text-anchor="start" x="206.5" y="-117" font-family="Helvetica,sans-Serif" font-size="10.00">/III&#45;Drone&#45;Core/src/perception</text>
<text text-anchor="middle" x="278.5" y="-106" font-family="Helvetica,sans-Serif" font-size="10.00">/powerline.cpp</text>
</a>
</g>
</g>
<!-- Node2&#45;&gt;Node5 -->
<g id="edge4_Node000002_Node000005" class="edge">
<title>Node2&#45;&gt;Node5</title>
<g id="a_edge4_Node000002_Node000005"><a xlink:title=" ">
<path fill="none" stroke="#63b8ff" d="M223.66,-189.87C234.77,-176.94 246.86,-162.86 256.85,-151.22"/>
<polygon fill="#63b8ff" stroke="#63b8ff" points="220.76,-187.88 216.9,-197.75 226.07,-192.44 220.76,-187.88"/>
</a>
</g>
</g>
<!-- Node4 -->
<g id="Node000004" class="node">
<title>Node4</title>
<g id="a_Node000004"><a xlink:href="pl__mapper__node_8cpp.html" target="_top" xlink:title=" ">
<polygon fill="white" stroke="#666666" points="205,-52 0,-52 0,0 205,0 205,-52"/>
<text text-anchor="start" x="8" y="-40" font-family="Helvetica,sans-Serif" font-size="10.00">/home/ffn/Workspace</text>
<text text-anchor="start" x="8" y="-29" font-family="Helvetica,sans-Serif" font-size="10.00">/ros2_humble_ws/src</text>
<text text-anchor="start" x="8" y="-18" font-family="Helvetica,sans-Serif" font-size="10.00">/III&#45;Drone&#45;Core/src/perception</text>
<text text-anchor="middle" x="102.5" y="-7" font-family="Helvetica,sans-Serif" font-size="10.00">/pl_mapper_node/pl_mapper_node.cpp</text>
</a>
</g>
</g>
<!-- Node3&#45;&gt;Node4 -->
<g id="edge3_Node000003_Node000004" class="edge">
<title>Node3&#45;&gt;Node4</title>
<g id="a_edge3_Node000003_Node000004"><a xlink:title=" ">
<path fill="none" stroke="#63b8ff" d="M102.5,-77.7C102.5,-68.93 102.5,-60.07 102.5,-52.26"/>
<polygon fill="#63b8ff" stroke="#63b8ff" points="99,-77.88 102.5,-87.88 106,-77.88 99,-77.88"/>
</a>
</g>
</g>
</g>
</svg>
