<?xml version="1.0" encoding="UTF-8" standalone="no"?>
<!DOCTYPE svg PUBLIC "-//W3C//DTD SVG 1.1//EN"
 "http://www.w3.org/Graphics/SVG/1.1/DTD/svg11.dtd">
<!-- Generated by graphviz version 2.43.0 (0)
 -->
<!-- Title: /home/ffn/Workspace/ros2_humble_ws/src/III&#45;Drone&#45;Core/include/iii_drone_core/adapters/single_line_adapter.hpp Pages: 1 -->
<svg width="1107pt" height="192pt"
 viewBox="0.00 0.00 1106.50 192.00" xmlns="http://www.w3.org/2000/svg" xmlns:xlink="http://www.w3.org/1999/xlink">
<g id="graph0" class="graph" transform="scale(1 1) rotate(0) translate(4 188)">
<title>/home/ffn/Workspace/ros2_humble_ws/src/III&#45;Drone&#45;Core/include/iii_drone_core/adapters/single_line_adapter.hpp</title>
<!-- Node1 -->
<g id="Node000001" class="node">
<title>Node1</title>
<g id="a_Node000001"><a xlink:title=" ">
<polygon fill="#999999" stroke="#666666" points="314,-184 179,-184 179,-121 314,-121 314,-184"/>
<text text-anchor="start" x="187" y="-172" font-family="Helvetica,sans-Serif" font-size="10.00">/home/ffn/Workspace</text>
<text text-anchor="start" x="187" y="-161" font-family="Helvetica,sans-Serif" font-size="10.00">/ros2_humble_ws/src</text>
<text text-anchor="start" x="187" y="-150" font-family="Helvetica,sans-Serif" font-size="10.00">/III&#45;Drone&#45;Core/include</text>
<text text-anchor="start" x="187" y="-139" font-family="Helvetica,sans-Serif" font-size="10.00">/iii_drone_core/adapters</text>
<text text-anchor="middle" x="246.5" y="-128" font-family="Helvetica,sans-Serif" font-size="10.00">/single_line_adapter.hpp</text>
</a>
</g>
</g>
<!-- Node2 -->
<g id="Node000002" class="node">
<title>Node2</title>
<g id="a_Node000002"><a xlink:title=" ">
<polygon fill="#e0e0e0" stroke="#999999" points="117,-79.5 18,-79.5 18,-60.5 117,-60.5 117,-79.5"/>
<text text-anchor="middle" x="67.5" y="-67.5" font-family="Helvetica,sans-Serif" font-size="10.00">rclcpp/rclcpp.hpp</text>
</a>
</g>
</g>
<!-- Node1&#45;&gt;Node2 -->
<g id="edge1_Node000001_Node000002" class="edge">
<title>Node1&#45;&gt;Node2</title>
<g id="a_edge1_Node000001_Node000002"><a xlink:title=" ">
<path fill="none" stroke="#63b8ff" d="M178.83,-121.07C150.02,-108.11 118.01,-93.71 95.73,-83.7"/>
<polygon fill="#63b8ff" stroke="#63b8ff" points="97.08,-80.46 86.52,-79.55 94.21,-86.85 97.08,-80.46"/>
</a>
</g>
</g>
<!-- Node3 -->
<g id="Node000003" class="node">
<title>Node3</title>
<g id="a_Node000003"><a xlink:title=" ">
<polygon fill="#e0e0e0" stroke="#999999" points="167,-19 0,-19 0,0 167,0 167,-19"/>
<text text-anchor="middle" x="83.5" y="-7" font-family="Helvetica,sans-Serif" font-size="10.00">geometry_msgs/msg/pose.hpp</text>
</a>
</g>
</g>
<!-- Node1&#45;&gt;Node3 -->
<g id="edge2_Node000001_Node000003" class="edge">
<title>Node1&#45;&gt;Node3</title>
<g id="a_edge2_Node000001_Node000003"><a xlink:title=" ">
<path fill="none" stroke="#63b8ff" d="M207.71,-120.86C193.92,-109.75 178.37,-96.98 164.5,-85 141.85,-65.43 116.58,-41.91 100.38,-26.6"/>
<polygon fill="#63b8ff" stroke="#63b8ff" points="102.47,-23.75 92.8,-19.41 97.65,-28.83 102.47,-23.75"/>
</a>
</g>
</g>
<!-- Node4 -->
<g id="Node000004" class="node">
<title>Node4</title>
<g id="a_Node000004"><a xlink:title=" ">
<polygon fill="#e0e0e0" stroke="#999999" points="319.5,-85 173.5,-85 173.5,-55 319.5,-55 319.5,-85"/>
<text text-anchor="start" x="181.5" y="-73" font-family="Helvetica,sans-Serif" font-size="10.00">geometry_msgs/msg/pose</text>
<text text-anchor="middle" x="246.5" y="-62" font-family="Helvetica,sans-Serif" font-size="10.00">_stamped.hpp</text>
</a>
</g>
</g>
<!-- Node1&#45;&gt;Node4 -->
<g id="edge3_Node000001_Node000004" class="edge">
<title>Node1&#45;&gt;Node4</title>
<g id="a_edge3_Node000001_Node000004"><a xlink:title=" ">
<path fill="none" stroke="#63b8ff" d="M246.5,-120.61C246.5,-112.19 246.5,-103.2 246.5,-95.22"/>
<polygon fill="#63b8ff" stroke="#63b8ff" points="250,-95.1 246.5,-85.1 243,-95.1 250,-95.1"/>
</a>
</g>
</g>
<!-- Node5 -->
<g id="Node000005" class="node">
<title>Node5</title>
<g id="a_Node000005"><a xlink:href="types_8hpp.html" target="_top" xlink:title=" ">
<polygon fill="white" stroke="#666666" points="447,-85 338,-85 338,-55 447,-55 447,-85"/>
<text text-anchor="start" x="346" y="-73" font-family="Helvetica,sans-Serif" font-size="10.00">iii_drone_core/utils</text>
<text text-anchor="middle" x="392.5" y="-62" font-family="Helvetica,sans-Serif" font-size="10.00">/types.hpp</text>
</a>
</g>
</g>
<!-- Node1&#45;&gt;Node5 -->
<g id="edge4_Node000001_Node000005" class="edge">
<title>Node1&#45;&gt;Node5</title>
<g id="a_edge4_Node000001_Node000005"><a xlink:title=" ">
<path fill="none" stroke="#63b8ff" d="M302.11,-120.84C320.88,-110.49 341.27,-99.25 357.93,-90.06"/>
<polygon fill="#63b8ff" stroke="#63b8ff" points="359.7,-93.08 366.77,-85.19 356.32,-86.95 359.7,-93.08"/>
</a>
</g>
</g>
<!-- Node11 -->
<g id="Node000011" class="node">
<title>Node11</title>
<g id="a_Node000011"><a xlink:title=" ">
<polygon fill="#e0e0e0" stroke="#999999" points="582,-85 465,-85 465,-55 582,-55 582,-85"/>
<text text-anchor="start" x="473" y="-73" font-family="Helvetica,sans-Serif" font-size="10.00">iii_drone_interfaces</text>
<text text-anchor="middle" x="523.5" y="-62" font-family="Helvetica,sans-Serif" font-size="10.00">/msg/single_line.hpp</text>
</a>
</g>
</g>
<!-- Node1&#45;&gt;Node11 -->
<g id="edge11_Node000001_Node000011" class="edge">
<title>Node1&#45;&gt;Node11</title>
<g id="a_edge11_Node000001_Node000011"><a xlink:title=" ">
<path fill="none" stroke="#63b8ff" d="M314.26,-131.81C360.57,-118.35 421.3,-100.7 465.4,-87.88"/>
<polygon fill="#63b8ff" stroke="#63b8ff" points="466.48,-91.22 475.11,-85.06 464.53,-84.49 466.48,-91.22"/>
</a>
</g>
</g>
<!-- Node5&#45;&gt;Node3 -->
<g id="edge8_Node000005_Node000003" class="edge">
<title>Node5&#45;&gt;Node3</title>
<g id="a_edge8_Node000005_Node000003"><a xlink:title=" ">
<path fill="none" stroke="#63b8ff" d="M337.71,-56.88C334.6,-56.23 331.51,-55.6 328.5,-55 265.44,-42.38 192.95,-29.4 143.27,-20.74"/>
<polygon fill="#63b8ff" stroke="#63b8ff" points="143.79,-17.28 133.34,-19.02 142.59,-24.18 143.79,-17.28"/>
</a>
</g>
</g>
<!-- Node6 -->
<g id="Node000006" class="node">
<title>Node6</title>
<g id="a_Node000006"><a xlink:title=" ">
<polygon fill="#e0e0e0" stroke="#999999" points="290,-19 185,-19 185,0 290,0 290,-19"/>
<text text-anchor="middle" x="237.5" y="-7" font-family="Helvetica,sans-Serif" font-size="10.00">eigen3/Eigen/Core</text>
</a>
</g>
</g>
<!-- Node5&#45;&gt;Node6 -->
<g id="edge5_Node000005_Node000006" class="edge">
<title>Node5&#45;&gt;Node6</title>
<g id="a_edge5_Node000005_Node000006"><a xlink:title=" ">
<path fill="none" stroke="#63b8ff" d="M355.37,-54.99C329.28,-45.14 294.72,-32.1 269.77,-22.68"/>
<polygon fill="#63b8ff" stroke="#63b8ff" points="270.98,-19.4 260.39,-19.14 268.51,-25.94 270.98,-19.4"/>
</a>
</g>
</g>
<!-- Node7 -->
<g id="Node000007" class="node">
<title>Node7</title>
<g id="a_Node000007"><a xlink:title=" ">
<polygon fill="#e0e0e0" stroke="#999999" points="476.5,-19 308.5,-19 308.5,0 476.5,0 476.5,-19"/>
<text text-anchor="middle" x="392.5" y="-7" font-family="Helvetica,sans-Serif" font-size="10.00">geometry_msgs/msg/point.hpp</text>
</a>
</g>
</g>
<!-- Node5&#45;&gt;Node7 -->
<g id="edge6_Node000005_Node000007" class="edge">
<title>Node5&#45;&gt;Node7</title>
<g id="a_edge6_Node000005_Node000007"><a xlink:title=" ">
<path fill="none" stroke="#63b8ff" d="M392.5,-54.84C392.5,-47.21 392.5,-37.7 392.5,-29.45"/>
<polygon fill="#63b8ff" stroke="#63b8ff" points="396,-29.27 392.5,-19.27 389,-29.27 396,-29.27"/>
</a>
</g>
</g>
<!-- Node8 -->
<g id="Node000008" class="node">
<title>Node8</title>
<g id="a_Node000008"><a xlink:title=" ">
<polygon fill="#e0e0e0" stroke="#999999" points="690.5,-19 494.5,-19 494.5,0 690.5,0 690.5,-19"/>
<text text-anchor="middle" x="592.5" y="-7" font-family="Helvetica,sans-Serif" font-size="10.00">geometry_msgs/msg/quaternion.hpp</text>
</a>
</g>
</g>
<!-- Node5&#45;&gt;Node8 -->
<g id="edge7_Node000005_Node000008" class="edge">
<title>Node5&#45;&gt;Node8</title>
<g id="a_edge7_Node000005_Node000008"><a xlink:title=" ">
<path fill="none" stroke="#63b8ff" d="M440.4,-54.99C474.92,-44.89 520.92,-31.44 553.27,-21.98"/>
<polygon fill="#63b8ff" stroke="#63b8ff" points="554.64,-25.22 563.26,-19.05 552.68,-18.5 554.64,-25.22"/>
</a>
</g>
</g>
<!-- Node9 -->
<g id="Node000009" class="node">
<title>Node9</title>
<g id="a_Node000009"><a xlink:title=" ">
<polygon fill="#e0e0e0" stroke="#999999" points="900,-19 709,-19 709,0 900,0 900,-19"/>
<text text-anchor="middle" x="804.5" y="-7" font-family="Helvetica,sans-Serif" font-size="10.00">geometry_msgs/msg/transform.hpp</text>
</a>
</g>
</g>
<!-- Node5&#45;&gt;Node9 -->
<g id="edge9_Node000005_Node000009" class="edge">
<title>Node5&#45;&gt;Node9</title>
<g id="a_edge9_Node000005_Node000009"><a xlink:title=" ">
<path fill="none" stroke="#63b8ff" d="M447.25,-56.69C450.37,-56.09 453.47,-55.52 456.5,-55 542.45,-40.13 641.14,-27.97 711.42,-20.15"/>
<polygon fill="#63b8ff" stroke="#63b8ff" points="712.02,-23.6 721.58,-19.02 711.25,-16.64 712.02,-23.6"/>
</a>
</g>
</g>
<!-- Node10 -->
<g id="Node000010" class="node">
<title>Node10</title>
<g id="a_Node000010"><a xlink:title=" ">
<polygon fill="#e0e0e0" stroke="#999999" points="1098.5,-19 918.5,-19 918.5,0 1098.5,0 1098.5,-19"/>
<text text-anchor="middle" x="1008.5" y="-7" font-family="Helvetica,sans-Serif" font-size="10.00">geometry_msgs/msg/vector3.hpp</text>
</a>
</g>
</g>
<!-- Node5&#45;&gt;Node10 -->
<g id="edge10_Node000005_Node000010" class="edge">
<title>Node5&#45;&gt;Node10</title>
<g id="a_edge10_Node000005_Node000010"><a xlink:title=" ">
<path fill="none" stroke="#63b8ff" d="M447.22,-56.52C450.35,-55.96 453.46,-55.45 456.5,-55 653.06,-25.83 706.51,-35.32 908.36,-19.08"/>
<polygon fill="#63b8ff" stroke="#63b8ff" points="908.71,-22.56 918.39,-18.26 908.14,-15.59 908.71,-22.56"/>
</a>
</g>
</g>
</g>
</svg>
