<?xml version="1.0" encoding="UTF-8" standalone="no"?>
<!DOCTYPE svg PUBLIC "-//W3C//DTD SVG 1.1//EN"
 "http://www.w3.org/Graphics/SVG/1.1/DTD/svg11.dtd">
<!-- Generated by graphviz version 2.43.0 (0)
 -->
<!-- Title: /home/ffn/Workspace/ros2_humble_ws/src/III&#45;Drone&#45;Core/include/iii_drone_core/adapters/state_adapter.hpp Pages: 1 -->
<svg width="1106pt" height="324pt"
 viewBox="0.00 0.00 1106.00 324.00" xmlns="http://www.w3.org/2000/svg" xmlns:xlink="http://www.w3.org/1999/xlink">
<g id="graph0" class="graph" transform="scale(1 1) rotate(0) translate(4 320)">
<title>/home/ffn/Workspace/ros2_humble_ws/src/III&#45;Drone&#45;Core/include/iii_drone_core/adapters/state_adapter.hpp</title>
<!-- Node1 -->
<g id="Node000001" class="node">
<title>Node1</title>
<g id="a_Node000001"><a xlink:title=" ">
<polygon fill="#999999" stroke="#666666" points="574.5,-316 440.5,-316 440.5,-253 574.5,-253 574.5,-316"/>
<text text-anchor="start" x="448.5" y="-304" font-family="Helvetica,sans-Serif" font-size="10.00">/home/ffn/Workspace</text>
<text text-anchor="start" x="448.5" y="-293" font-family="Helvetica,sans-Serif" font-size="10.00">/ros2_humble_ws/src</text>
<text text-anchor="start" x="448.5" y="-282" font-family="Helvetica,sans-Serif" font-size="10.00">/III&#45;Drone&#45;Core/include</text>
<text text-anchor="start" x="448.5" y="-271" font-family="Helvetica,sans-Serif" font-size="10.00">/iii_drone_core/adapters</text>
<text text-anchor="middle" x="507.5" y="-260" font-family="Helvetica,sans-Serif" font-size="10.00">/state_adapter.hpp</text>
</a>
</g>
</g>
<!-- Node2 -->
<g id="Node000002" class="node">
<title>Node2</title>
<g id="a_Node000002"><a xlink:title=" ">
<polygon fill="#e0e0e0" stroke="#999999" points="562,-145.5 463,-145.5 463,-126.5 562,-126.5 562,-145.5"/>
<text text-anchor="middle" x="512.5" y="-133.5" font-family="Helvetica,sans-Serif" font-size="10.00">rclcpp/rclcpp.hpp</text>
</a>
</g>
</g>
<!-- Node1&#45;&gt;Node2 -->
<g id="edge1_Node000001_Node000002" class="edge">
<title>Node1&#45;&gt;Node2</title>
<g id="a_edge1_Node000001_Node000002"><a xlink:title=" ">
<path fill="none" stroke="#63b8ff" d="M508.55,-252.79C509.55,-223.53 511.02,-180.4 511.86,-155.88"/>
<polygon fill="#63b8ff" stroke="#63b8ff" points="515.36,-155.87 512.2,-145.76 508.36,-155.63 515.36,-155.87"/>
</a>
</g>
</g>
<!-- Node3 -->
<g id="Node000003" class="node">
<title>Node3</title>
<g id="a_Node000003"><a xlink:title=" ">
<polygon fill="#e0e0e0" stroke="#999999" points="167,-19 0,-19 0,0 167,0 167,-19"/>
<text text-anchor="middle" x="83.5" y="-7" font-family="Helvetica,sans-Serif" font-size="10.00">geometry_msgs/msg/pose.hpp</text>
</a>
</g>
</g>
<!-- Node1&#45;&gt;Node3 -->
<g id="edge2_Node000001_Node000003" class="edge">
<title>Node1&#45;&gt;Node3</title>
<g id="a_edge2_Node000001_Node000003"><a xlink:title=" ">
<path fill="none" stroke="#63b8ff" d="M440.43,-267.68C401.68,-256.83 352.95,-240.17 313.5,-217 220.14,-162.18 131.09,-65.52 97.53,-27.01"/>
<polygon fill="#63b8ff" stroke="#63b8ff" points="100.08,-24.6 90.9,-19.31 94.78,-29.17 100.08,-24.6"/>
</a>
</g>
</g>
<!-- Node4 -->
<g id="Node000004" class="node">
<title>Node4</title>
<g id="a_Node000004"><a xlink:title=" ">
<polygon fill="#e0e0e0" stroke="#999999" points="479.5,-217 333.5,-217 333.5,-187 479.5,-187 479.5,-217"/>
<text text-anchor="start" x="341.5" y="-205" font-family="Helvetica,sans-Serif" font-size="10.00">geometry_msgs/msg/pose</text>
<text text-anchor="middle" x="406.5" y="-194" font-family="Helvetica,sans-Serif" font-size="10.00">_stamped.hpp</text>
</a>
</g>
</g>
<!-- Node1&#45;&gt;Node4 -->
<g id="edge3_Node000001_Node000004" class="edge">
<title>Node1&#45;&gt;Node4</title>
<g id="a_edge3_Node000001_Node000004"><a xlink:title=" ">
<path fill="none" stroke="#63b8ff" d="M469.03,-252.84C456.77,-243.06 443.5,-232.49 432.36,-223.61"/>
<polygon fill="#63b8ff" stroke="#63b8ff" points="434.3,-220.68 424.3,-217.19 429.94,-226.16 434.3,-220.68"/>
</a>
</g>
</g>
<!-- Node5 -->
<g id="Node000005" class="node">
<title>Node5</title>
<g id="a_Node000005"><a xlink:href="types_8hpp.html" target="_top" xlink:title=" ">
<polygon fill="white" stroke="#666666" points="651,-85 542,-85 542,-55 651,-55 651,-85"/>
<text text-anchor="start" x="550" y="-73" font-family="Helvetica,sans-Serif" font-size="10.00">iii_drone_core/utils</text>
<text text-anchor="middle" x="596.5" y="-62" font-family="Helvetica,sans-Serif" font-size="10.00">/types.hpp</text>
</a>
</g>
</g>
<!-- Node1&#45;&gt;Node5 -->
<g id="edge4_Node000001_Node000005" class="edge">
<title>Node1&#45;&gt;Node5</title>
<g id="a_edge4_Node000001_Node000005"><a xlink:title=" ">
<path fill="none" stroke="#63b8ff" d="M440.47,-274.3C376.44,-262.37 293.87,-236.9 324.5,-187 368.15,-115.88 466.04,-88.31 531.68,-77.66"/>
<polygon fill="#63b8ff" stroke="#63b8ff" points="532.57,-81.06 541.93,-76.09 531.51,-74.14 532.57,-81.06"/>
</a>
</g>
</g>
<!-- Node11 -->
<g id="Node000011" class="node">
<title>Node11</title>
<g id="a_Node000011"><a xlink:href="math_8hpp.html" target="_top" xlink:title=" ">
<polygon fill="white" stroke="#666666" points="736,-151 627,-151 627,-121 736,-121 736,-151"/>
<text text-anchor="start" x="635" y="-139" font-family="Helvetica,sans-Serif" font-size="10.00">iii_drone_core/utils</text>
<text text-anchor="middle" x="681.5" y="-128" font-family="Helvetica,sans-Serif" font-size="10.00">/math.hpp</text>
</a>
</g>
</g>
<!-- Node1&#45;&gt;Node11 -->
<g id="edge11_Node000001_Node000011" class="edge">
<title>Node1&#45;&gt;Node11</title>
<g id="a_edge11_Node000001_Node000011"><a xlink:title=" ">
<path fill="none" stroke="#63b8ff" d="M574.52,-271.01C606.97,-261.55 643.73,-245.15 666.5,-217 679.04,-201.5 682.31,-178.78 682.72,-161.51"/>
<polygon fill="#63b8ff" stroke="#63b8ff" points="686.22,-161.06 682.65,-151.08 679.22,-161.11 686.22,-161.06"/>
</a>
</g>
</g>
<!-- Node12 -->
<g id="Node000012" class="node">
<title>Node12</title>
<g id="a_Node000012"><a xlink:href="state_8hpp.html" target="_top" xlink:title=" ">
<polygon fill="white" stroke="#666666" points="657.5,-217 535.5,-217 535.5,-187 657.5,-187 657.5,-217"/>
<text text-anchor="start" x="543.5" y="-205" font-family="Helvetica,sans-Serif" font-size="10.00">iii_drone_core/control</text>
<text text-anchor="middle" x="596.5" y="-194" font-family="Helvetica,sans-Serif" font-size="10.00">/state.hpp</text>
</a>
</g>
</g>
<!-- Node1&#45;&gt;Node12 -->
<g id="edge14_Node000001_Node000012" class="edge">
<title>Node1&#45;&gt;Node12</title>
<g id="a_edge14_Node000001_Node000012"><a xlink:title=" ">
<path fill="none" stroke="#63b8ff" d="M541.4,-252.84C551.99,-243.26 563.44,-232.91 573.13,-224.13"/>
<polygon fill="#63b8ff" stroke="#63b8ff" points="575.75,-226.49 580.81,-217.19 571.05,-221.3 575.75,-226.49"/>
</a>
</g>
</g>
<!-- Node13 -->
<g id="Node000013" class="node">
<title>Node13</title>
<g id="a_Node000013"><a xlink:title=" ">
<polygon fill="#e0e0e0" stroke="#999999" points="827,-217 714,-217 714,-187 827,-187 827,-217"/>
<text text-anchor="start" x="722" y="-205" font-family="Helvetica,sans-Serif" font-size="10.00">iii_drone_interfaces</text>
<text text-anchor="middle" x="770.5" y="-194" font-family="Helvetica,sans-Serif" font-size="10.00">/msg/state.hpp</text>
</a>
</g>
</g>
<!-- Node1&#45;&gt;Node13 -->
<g id="edge18_Node000001_Node000013" class="edge">
<title>Node1&#45;&gt;Node13</title>
<g id="a_edge18_Node000001_Node000013"><a xlink:title=" ">
<path fill="none" stroke="#63b8ff" d="M574.55,-262.98C617.99,-249.68 673.9,-232.57 714.88,-220.03"/>
<polygon fill="#63b8ff" stroke="#63b8ff" points="716.15,-223.29 724.69,-217.02 714.11,-216.6 716.15,-223.29"/>
</a>
</g>
</g>
<!-- Node5&#45;&gt;Node3 -->
<g id="edge8_Node000005_Node000003" class="edge">
<title>Node5&#45;&gt;Node3</title>
<g id="a_edge8_Node000005_Node000003"><a xlink:title=" ">
<path fill="none" stroke="#63b8ff" d="M541.6,-62.74C452.08,-52.53 274.07,-32.23 168.23,-20.16"/>
<polygon fill="#63b8ff" stroke="#63b8ff" points="168.56,-16.68 158.22,-19.02 167.76,-23.63 168.56,-16.68"/>
</a>
</g>
</g>
<!-- Node6 -->
<g id="Node000006" class="node">
<title>Node6</title>
<g id="a_Node000006"><a xlink:title=" ">
<polygon fill="#e0e0e0" stroke="#999999" points="1098,-19 993,-19 993,0 1098,0 1098,-19"/>
<text text-anchor="middle" x="1045.5" y="-7" font-family="Helvetica,sans-Serif" font-size="10.00">eigen3/Eigen/Core</text>
</a>
</g>
</g>
<!-- Node5&#45;&gt;Node6 -->
<g id="edge5_Node000005_Node000006" class="edge">
<title>Node5&#45;&gt;Node6</title>
<g id="a_edge5_Node000005_Node000006"><a xlink:title=" ">
<path fill="none" stroke="#63b8ff" d="M651.07,-57.92C656.94,-56.87 662.84,-55.87 668.5,-55 804.5,-34.04 841.95,-36.44 982.45,-19.1"/>
<polygon fill="#63b8ff" stroke="#63b8ff" points="983.26,-22.52 992.75,-17.81 982.39,-15.58 983.26,-22.52"/>
</a>
</g>
</g>
<!-- Node7 -->
<g id="Node000007" class="node">
<title>Node7</title>
<g id="a_Node000007"><a xlink:title=" ">
<polygon fill="#e0e0e0" stroke="#999999" points="974.5,-19 806.5,-19 806.5,0 974.5,0 974.5,-19"/>
<text text-anchor="middle" x="890.5" y="-7" font-family="Helvetica,sans-Serif" font-size="10.00">geometry_msgs/msg/point.hpp</text>
</a>
</g>
</g>
<!-- Node5&#45;&gt;Node7 -->
<g id="edge6_Node000005_Node000007" class="edge">
<title>Node5&#45;&gt;Node7</title>
<g id="a_edge6_Node000005_Node000007"><a xlink:title=" ">
<path fill="none" stroke="#63b8ff" d="M651.11,-58.13C704.46,-47.52 785.12,-31.47 837.81,-20.98"/>
<polygon fill="#63b8ff" stroke="#63b8ff" points="838.51,-24.41 847.63,-19.03 837.14,-17.55 838.51,-24.41"/>
</a>
</g>
</g>
<!-- Node8 -->
<g id="Node000008" class="node">
<title>Node8</title>
<g id="a_Node000008"><a xlink:title=" ">
<polygon fill="#e0e0e0" stroke="#999999" points="380.5,-19 184.5,-19 184.5,0 380.5,0 380.5,-19"/>
<text text-anchor="middle" x="282.5" y="-7" font-family="Helvetica,sans-Serif" font-size="10.00">geometry_msgs/msg/quaternion.hpp</text>
</a>
</g>
</g>
<!-- Node5&#45;&gt;Node8 -->
<g id="edge7_Node000005_Node000008" class="edge">
<title>Node5&#45;&gt;Node8</title>
<g id="a_edge7_Node000005_Node000008"><a xlink:title=" ">
<path fill="none" stroke="#63b8ff" d="M541.81,-58.81C484.79,-48.19 395.88,-31.62 338.41,-20.92"/>
<polygon fill="#63b8ff" stroke="#63b8ff" points="338.88,-17.44 328.41,-19.05 337.6,-24.33 338.88,-17.44"/>
</a>
</g>
</g>
<!-- Node9 -->
<g id="Node000009" class="node">
<title>Node9</title>
<g id="a_Node000009"><a xlink:title=" ">
<polygon fill="#e0e0e0" stroke="#999999" points="590,-19 399,-19 399,0 590,0 590,-19"/>
<text text-anchor="middle" x="494.5" y="-7" font-family="Helvetica,sans-Serif" font-size="10.00">geometry_msgs/msg/transform.hpp</text>
</a>
</g>
</g>
<!-- Node5&#45;&gt;Node9 -->
<g id="edge9_Node000005_Node000009" class="edge">
<title>Node5&#45;&gt;Node9</title>
<g id="a_edge9_Node000005_Node000009"><a xlink:title=" ">
<path fill="none" stroke="#63b8ff" d="M572.07,-54.99C555.81,-45.66 534.55,-33.47 518.4,-24.21"/>
<polygon fill="#63b8ff" stroke="#63b8ff" points="519.98,-21.08 509.56,-19.14 516.5,-27.15 519.98,-21.08"/>
</a>
</g>
</g>
<!-- Node10 -->
<g id="Node000010" class="node">
<title>Node10</title>
<g id="a_Node000010"><a xlink:title=" ">
<polygon fill="#e0e0e0" stroke="#999999" points="788.5,-19 608.5,-19 608.5,0 788.5,0 788.5,-19"/>
<text text-anchor="middle" x="698.5" y="-7" font-family="Helvetica,sans-Serif" font-size="10.00">geometry_msgs/msg/vector3.hpp</text>
</a>
</g>
</g>
<!-- Node5&#45;&gt;Node10 -->
<g id="edge10_Node000005_Node000010" class="edge">
<title>Node5&#45;&gt;Node10</title>
<g id="a_edge10_Node000005_Node000010"><a xlink:title=" ">
<path fill="none" stroke="#63b8ff" d="M620.93,-54.99C637.19,-45.66 658.45,-33.47 674.6,-24.21"/>
<polygon fill="#63b8ff" stroke="#63b8ff" points="676.5,-27.15 683.44,-19.14 673.02,-21.08 676.5,-27.15"/>
</a>
</g>
</g>
<!-- Node11&#45;&gt;Node5 -->
<g id="edge13_Node000011_Node000005" class="edge">
<title>Node11&#45;&gt;Node5</title>
<g id="a_edge13_Node000011_Node000005"><a xlink:title=" ">
<path fill="none" stroke="#63b8ff" d="M662.64,-120.8C651.08,-112.1 636.11,-100.82 623.33,-91.2"/>
<polygon fill="#63b8ff" stroke="#63b8ff" points="625.41,-88.38 615.31,-85.16 621.19,-93.98 625.41,-88.38"/>
</a>
</g>
</g>
<!-- Node11&#45;&gt;Node6 -->
<g id="edge12_Node000011_Node000006" class="edge">
<title>Node11&#45;&gt;Node6</title>
<g id="a_edge12_Node000011_Node000006"><a xlink:title=" ">
<path fill="none" stroke="#63b8ff" d="M722.55,-120.96C794.7,-96.28 943.02,-45.55 1010.58,-22.44"/>
<polygon fill="#63b8ff" stroke="#63b8ff" points="1012,-25.66 1020.33,-19.11 1009.73,-19.03 1012,-25.66"/>
</a>
</g>
</g>
<!-- Node12&#45;&gt;Node2 -->
<g id="edge15_Node000012_Node000002" class="edge">
<title>Node12&#45;&gt;Node2</title>
<g id="a_edge15_Node000012_Node000002"><a xlink:title=" ">
<path fill="none" stroke="#63b8ff" d="M577.86,-186.8C564.38,-176.53 546.19,-162.67 532.42,-152.18"/>
<polygon fill="#63b8ff" stroke="#63b8ff" points="534.18,-149.12 524.11,-145.84 529.94,-154.69 534.18,-149.12"/>
</a>
</g>
</g>
<!-- Node12&#45;&gt;Node5 -->
<g id="edge16_Node000012_Node000005" class="edge">
<title>Node12&#45;&gt;Node5</title>
<g id="a_edge16_Node000012_Node000005"><a xlink:title=" ">
<path fill="none" stroke="#63b8ff" d="M596.5,-186.84C596.5,-164.86 596.5,-122.27 596.5,-95.3"/>
<polygon fill="#63b8ff" stroke="#63b8ff" points="600,-95.14 596.5,-85.14 593,-95.14 600,-95.14"/>
</a>
</g>
</g>
<!-- Node12&#45;&gt;Node11 -->
<g id="edge17_Node000012_Node000011" class="edge">
<title>Node12&#45;&gt;Node11</title>
<g id="a_edge17_Node000012_Node000011"><a xlink:title=" ">
<path fill="none" stroke="#63b8ff" d="M615.36,-186.8C626.92,-178.1 641.89,-166.82 654.67,-157.2"/>
<polygon fill="#63b8ff" stroke="#63b8ff" points="656.81,-159.98 662.69,-151.16 652.59,-154.38 656.81,-159.98"/>
</a>
</g>
</g>
</g>
</svg>
