<?xml version="1.0" encoding="UTF-8" standalone="no"?>
<!DOCTYPE svg PUBLIC "-//W3C//DTD SVG 1.1//EN"
 "http://www.w3.org/Graphics/SVG/1.1/DTD/svg11.dtd">
<!-- Generated by graphviz version 2.43.0 (0)
 -->
<!-- Title: iii_drone::control::maneuver::ManeuverScheduler::registered_maneuver_t Pages: 1 -->
<svg width="177pt" height="175pt"
 viewBox="0.00 0.00 177.00 175.00" xmlns="http://www.w3.org/2000/svg" xmlns:xlink="http://www.w3.org/1999/xlink">
<g id="graph0" class="graph" transform="scale(1 1) rotate(0) translate(4 171)">
<title>iii_drone::control::maneuver::ManeuverScheduler::registered_maneuver_t</title>
<!-- Node1 -->
<g id="Node000001" class="node">
<title>Node1</title>
<g id="a_Node000001"><a xlink:title="Struct for representation of a registered maneuver.">
<polygon fill="#999999" stroke="transparent" points="169,-71 0,-71 0,0 169,0 169,-71"/>
<text text-anchor="start" x="5.5" y="-58.5" font-family="Helvetica,sans-Serif" font-size="10.00">iii_drone::control</text>
<text text-anchor="start" x="5.5" y="-47.5" font-family="Helvetica,sans-Serif" font-size="10.00">::maneuver::ManeuverScheduler</text>
<text text-anchor="start" x="25" y="-36.5" font-family="Helvetica,sans-Serif" font-size="10.00">::registered_maneuver_t</text>
<text text-anchor="start" x="22" y="-21.5" font-family="Helvetica,sans-Serif" font-size="10.00">+</text>
<text text-anchor="start" x="52.5" y="-21.5" font-family="Helvetica,sans-Serif" font-size="10.00">maneuver_type</text>
<text text-anchor="start" x="83" y="-6.5" font-family="Helvetica,sans-Serif" font-size="10.00"> </text>
<polygon fill="#666666" stroke="#666666" points="0.5,-31.5 0.5,-31.5 169.5,-31.5 169.5,-31.5 0.5,-31.5"/>
<polygon fill="#666666" stroke="#666666" points="0.5,-16.5 0.5,-16.5 50.5,-16.5 50.5,-16.5 0.5,-16.5"/>
<polygon fill="#666666" stroke="#666666" points="50.5,-16.5 50.5,-16.5 169.5,-16.5 169.5,-16.5 50.5,-16.5"/>
<polygon fill="none" stroke="#666666" points="0,0 0,-71 169,-71 169,0 0,0"/>
</a>
</g>
</g>
<!-- Node2 -->
<g id="Node000002" class="node">
<title>Node2</title>
<g id="a_Node000002"><a xlink:title=" ">
<polygon fill="white" stroke="transparent" points="148,-167 21,-167 21,-118 148,-118 148,-167"/>
<text text-anchor="start" x="26.5" y="-154.5" font-family="Helvetica,sans-Serif" font-size="10.00">std::shared_ptr&lt; void &gt;</text>
<text text-anchor="start" x="36.5" y="-139.5" font-family="Helvetica,sans-Serif" font-size="10.00">+</text>
<text text-anchor="start" x="60.5" y="-139.5" font-family="Helvetica,sans-Serif" font-size="10.00">ptr</text>
<text text-anchor="start" x="36.5" y="-124.5" font-family="Helvetica,sans-Serif" font-size="10.00">+</text>
<text text-anchor="start" x="60.5" y="-124.5" font-family="Helvetica,sans-Serif" font-size="10.00">operator&#45;&gt;()</text>
<polygon fill="#666666" stroke="#666666" points="21.5,-149.5 21.5,-149.5 148.5,-149.5 148.5,-149.5 21.5,-149.5"/>
<polygon fill="#666666" stroke="#666666" points="21.5,-134.5 21.5,-134.5 58.5,-134.5 58.5,-134.5 21.5,-134.5"/>
<polygon fill="#666666" stroke="#666666" points="58.5,-134.5 58.5,-134.5 148.5,-134.5 148.5,-134.5 58.5,-134.5"/>
<polygon fill="none" stroke="#666666" points="21,-118 21,-167 148,-167 148,-118 21,-118"/>
</a>
</g>
</g>
<!-- Node2&#45;&gt;Node1 -->
<g id="edge1_Node000001_Node000002" class="edge">
<title>Node2&#45;&gt;Node1</title>
<g id="a_edge1_Node000001_Node000002"><a xlink:title=" ">
<path fill="none" stroke="#63b8ff" d="M84.5,-117.94C84.5,-107.7 84.5,-95.34 84.5,-83.37"/>
<polygon fill="none" stroke="#63b8ff" points="84.5,-83.15 80.5,-77.15 84.5,-71.15 88.5,-77.15 84.5,-83.15"/>
</a>
</g>
<text text-anchor="middle" x="106" y="-92" font-family="Helvetica,sans-Serif" font-size="10.00" fill="grey"> +server</text>
</g>
</g>
</svg>
