<?xml version="1.0" encoding="UTF-8" standalone="no"?>
<!DOCTYPE svg PUBLIC "-//W3C//DTD SVG 1.1//EN"
 "http://www.w3.org/Graphics/SVG/1.1/DTD/svg11.dtd">
<!-- Generated by graphviz version 2.43.0 (0)
 -->
<!-- Title: iii_drone::control::maneuver::fly_to_position_maneuver_params_t Pages: 1 -->
<svg width="164pt" height="365pt"
 viewBox="0.00 0.00 164.00 365.00" xmlns="http://www.w3.org/2000/svg" xmlns:xlink="http://www.w3.org/1999/xlink">

<svg id="main" version="1.1" xmlns="http://www.w3.org/2000/svg" xmlns:xlink="http://www.w3.org/1999/xlink" xml:space="preserve" onload="init(evt)">
<style type="text/css"><![CDATA[
.node, .edge {opacity: 0.7;}
.node.selected, .edge.selected {opacity: 1;}
.edge:hover path { stroke: red; }
.edge:hover polygon { stroke: red; fill: red; }
]]></style>
<script type="application/ecmascript" xlink:href="svg.min.js"/>
<svg id="graph" class="graph">
<g id="graph0" class="graph" transform="scale(1 1) rotate(0) translate(4 361)">
<title>iii_drone::control::maneuver::fly_to_position_maneuver_params_t</title>
<!-- Node1 -->
<g id="Node000001" class="node">
<title>Node1</title>
<g id="a_Node000001"><a xlink:title="FlyToPosition maneuver parameters.">
<polygon fill="#999999" stroke="transparent" points="156,-164 0,-164 0,0 156,0 156,-164"/>
<text text-anchor="start" x="11.5" y="-152" font-family="Helvetica,sans-Serif" font-size="10.00">iii_drone::control</text>
<text text-anchor="start" x="11.5" y="-141" font-family="Helvetica,sans-Serif" font-size="10.00">::maneuver::fly_to_position</text>
<text text-anchor="start" x="25" y="-130" font-family="Helvetica,sans-Serif" font-size="10.00">_maneuver_params_t</text>
<text text-anchor="start" x="4" y="-115" font-family="Helvetica,sans-Serif" font-size="10.00">+</text>
<text text-anchor="start" x="17" y="-115" font-family="Helvetica,sans-Serif" font-size="10.00">target_position</text>
<text text-anchor="start" x="4" y="-100" font-family="Helvetica,sans-Serif" font-size="10.00">+</text>
<text text-anchor="start" x="17" y="-100" font-family="Helvetica,sans-Serif" font-size="10.00">target_yaw</text>
<text text-anchor="start" x="4" y="-85" font-family="Helvetica,sans-Serif" font-size="10.00">+</text>
<text text-anchor="start" x="17" y="-85" font-family="Helvetica,sans-Serif" font-size="10.00">fly_to_position_maneuver</text>
<text text-anchor="start" x="17" y="-74" font-family="Helvetica,sans-Serif" font-size="10.00">_params_t()</text>
<text text-anchor="start" x="4" y="-59" font-family="Helvetica,sans-Serif" font-size="10.00">+</text>
<text text-anchor="start" x="17" y="-59" font-family="Helvetica,sans-Serif" font-size="10.00">fly_to_position_maneuver</text>
<text text-anchor="start" x="17" y="-48" font-family="Helvetica,sans-Serif" font-size="10.00">_params_t()</text>
<text text-anchor="start" x="4" y="-33" font-family="Helvetica,sans-Serif" font-size="10.00">+</text>
<text text-anchor="start" x="17" y="-33" font-family="Helvetica,sans-Serif" font-size="10.00">fly_to_position_maneuver</text>
<text text-anchor="start" x="17" y="-22" font-family="Helvetica,sans-Serif" font-size="10.00">_params_t()</text>
<text text-anchor="start" x="4" y="-7" font-family="Helvetica,sans-Serif" font-size="10.00">+</text>
<text text-anchor="start" x="17" y="-7" font-family="Helvetica,sans-Serif" font-size="10.00">transform_target_position()</text>
<polygon fill="#666666" stroke="#666666" points="0,-125 0,-125 156,-125 156,-125 0,-125"/>
<polygon fill="#666666" stroke="#666666" points="0,-95 0,-95 15,-95 15,-95 0,-95"/>
<polygon fill="#666666" stroke="#666666" points="15,-95 15,-95 156,-95 156,-95 15,-95"/>
<polygon fill="none" stroke="#666666" points="0,0 0,-164 156,-164 156,0 0,0"/>
</a>
</g>
</g>
<!-- Node2 -->
<g id="Node000002" class="node">
<title>Node2</title>
<g id="a_Node000002"><a xlink:title=" ">
<polygon fill="white" stroke="transparent" points="107.5,-260 48.5,-260 48.5,-211 107.5,-211 107.5,-260"/>
<text text-anchor="start" x="54" y="-247.5" font-family="Helvetica,sans-Serif" font-size="10.00">std::string</text>
<text text-anchor="start" x="76.5" y="-232.5" font-family="Helvetica,sans-Serif" font-size="10.00"> </text>
<text text-anchor="start" x="76.5" y="-217.5" font-family="Helvetica,sans-Serif" font-size="10.00"> </text>
<polygon fill="#666666" stroke="#666666" points="49,-242.5 49,-242.5 108,-242.5 108,-242.5 49,-242.5"/>
<polygon fill="#666666" stroke="#666666" points="49,-227.5 49,-227.5 108,-227.5 108,-227.5 49,-227.5"/>
<polygon fill="none" stroke="#666666" points="48.5,-211 48.5,-260 107.5,-260 107.5,-211 48.5,-211"/>
</a>
</g>
</g>
<!-- Node2&#45;&gt;Node1 -->
<g id="edge1_Node000001_Node000002" class="edge">
<title>Node2&#45;&gt;Node1</title>
<g id="a_edge1_Node000001_Node000002"><a xlink:title=" ">
<path fill="none" stroke="#63b8ff" d="M78,-210.83C78,-201.12 78,-189.19 78,-176.56"/>
<polygon fill="none" stroke="#63b8ff" points="78,-176.29 74,-170.29 78,-164.29 82,-170.29 78,-176.29"/>
</a>
</g>
<text text-anchor="middle" x="105.5" y="-185" font-family="Helvetica,sans-Serif" font-size="10.00" fill="grey"> +frame_id</text>
</g>
<!-- Node3 -->
<g id="Node000003" class="node">
<title>Node3</title>
<g id="a_Node000003"><a xlink:title=" ">
<polygon fill="white" stroke="transparent" points="127,-357 29,-357 29,-297 127,-297 127,-357"/>
<text text-anchor="start" x="34" y="-345" font-family="Helvetica,sans-Serif" font-size="10.00">std::basic_string&lt;</text>
<text text-anchor="start" x="59.5" y="-334" font-family="Helvetica,sans-Serif" font-size="10.00"> Char &gt;</text>
<text text-anchor="start" x="76" y="-319" font-family="Helvetica,sans-Serif" font-size="10.00"> </text>
<text text-anchor="start" x="76" y="-304" font-family="Helvetica,sans-Serif" font-size="10.00"> </text>
<polygon fill="#666666" stroke="#666666" points="29,-329 29,-329 127,-329 127,-329 29,-329"/>
<polygon fill="#666666" stroke="#666666" points="29,-314 29,-314 127,-314 127,-314 29,-314"/>
<polygon fill="none" stroke="#666666" points="29,-297 29,-357 127,-357 127,-297 29,-297"/>
</a>
</g>
</g>
<!-- Node3&#45;&gt;Node2 -->
<g id="edge2_Node000002_Node000003" class="edge">
<title>Node3&#45;&gt;Node2</title>
<g id="a_edge2_Node000002_Node000003"><a xlink:title=" ">
<path fill="none" stroke="#63b8ff" d="M78,-286.41C78,-277.47 78,-268.25 78,-260.21"/>
<polygon fill="none" stroke="#63b8ff" points="74.5,-286.69 78,-296.69 81.5,-286.69 74.5,-286.69"/>
</a>
</g>
</g>
</g>
</svg>
</svg>

<style type='text/css'>
<![CDATA[
[data-mouse-over-selected='false'] { opacity: 0.7; }
[data-mouse-over-selected='true']  { opacity: 1.0; }
]]>
</style>
<script type="application/ecmascript"><![CDATA[
document.addEventListener('DOMContentLoaded', (event) => {
  highlightEdges();
  highlightAdjacentNodes();
});
]]></script>
</svg>
