<?xml version="1.0" encoding="UTF-8" standalone="no"?>
<!DOCTYPE svg PUBLIC "-//W3C//DTD SVG 1.1//EN"
 "http://www.w3.org/Graphics/SVG/1.1/DTD/svg11.dtd">
<!-- Generated by graphviz version 2.43.0 (0)
 -->
<!-- Title: iii_drone::control::maneuver::cable_landing_maneuver_params_t Pages: 1 -->
<svg width="152pt" height="142pt"
 viewBox="0.00 0.00 152.00 142.00" xmlns="http://www.w3.org/2000/svg" xmlns:xlink="http://www.w3.org/1999/xlink">
<g id="graph0" class="graph" transform="scale(1 1) rotate(0) translate(4 138)">
<title>iii_drone::control::maneuver::cable_landing_maneuver_params_t</title>
<!-- Node1 -->
<g id="Node000001" class="node">
<title>Node1</title>
<g id="a_Node000001"><a xlink:title="CableLanding maneuver parameters.">
<polygon fill="#999999" stroke="transparent" points="144,-134 0,-134 0,0 144,0 144,-134"/>
<text text-anchor="start" x="7" y="-122" font-family="Helvetica,sans-Serif" font-size="10.00">iii_drone::control</text>
<text text-anchor="start" x="7" y="-111" font-family="Helvetica,sans-Serif" font-size="10.00">::maneuver::cable_landing</text>
<text text-anchor="start" x="19" y="-100" font-family="Helvetica,sans-Serif" font-size="10.00">_maneuver_params_t</text>
<text text-anchor="start" x="4" y="-85" font-family="Helvetica,sans-Serif" font-size="10.00">+</text>
<text text-anchor="start" x="17" y="-85" font-family="Helvetica,sans-Serif" font-size="10.00">cable_id</text>
<text text-anchor="start" x="4" y="-70" font-family="Helvetica,sans-Serif" font-size="10.00">+</text>
<text text-anchor="start" x="17" y="-70" font-family="Helvetica,sans-Serif" font-size="10.00">cable_landing_maneuver</text>
<text text-anchor="start" x="17" y="-59" font-family="Helvetica,sans-Serif" font-size="10.00">_params_t()</text>
<text text-anchor="start" x="4" y="-44" font-family="Helvetica,sans-Serif" font-size="10.00">+</text>
<text text-anchor="start" x="17" y="-44" font-family="Helvetica,sans-Serif" font-size="10.00">cable_landing_maneuver</text>
<text text-anchor="start" x="17" y="-33" font-family="Helvetica,sans-Serif" font-size="10.00">_params_t()</text>
<text text-anchor="start" x="4" y="-18" font-family="Helvetica,sans-Serif" font-size="10.00">+</text>
<text text-anchor="start" x="17" y="-18" font-family="Helvetica,sans-Serif" font-size="10.00">cable_landing_maneuver</text>
<text text-anchor="start" x="17" y="-7" font-family="Helvetica,sans-Serif" font-size="10.00">_params_t()</text>
<polygon fill="#666666" stroke="#666666" points="0,-95 0,-95 144,-95 144,-95 0,-95"/>
<polygon fill="#666666" stroke="#666666" points="0,-80 0,-80 15,-80 15,-80 0,-80"/>
<polygon fill="#666666" stroke="#666666" points="15,-80 15,-80 144,-80 144,-80 15,-80"/>
<polygon fill="none" stroke="#666666" points="0,0 0,-134 144,-134 144,0 0,0"/>
</a>
</g>
</g>
</g>
</svg>
