<?xml version="1.0" encoding="UTF-8" standalone="no"?>
<!DOCTYPE svg PUBLIC "-//W3C//DTD SVG 1.1//EN"
 "http://www.w3.org/Graphics/SVG/1.1/DTD/svg11.dtd">
<!-- Generated by graphviz version 2.43.0 (0)
 -->
<!-- Title: iii_drone::utils::Token&lt; T &gt;::slave_request_t Pages: 1 -->
<svg width="271pt" height="272pt"
 viewBox="0.00 0.00 271.00 272.00" xmlns="http://www.w3.org/2000/svg" xmlns:xlink="http://www.w3.org/1999/xlink">

<svg id="main" version="1.1" xmlns="http://www.w3.org/2000/svg" xmlns:xlink="http://www.w3.org/1999/xlink" xml:space="preserve" onload="init(evt)">
<style type="text/css"><![CDATA[
.node, .edge {opacity: 0.7;}
.node.selected, .edge.selected {opacity: 1;}
.edge:hover path { stroke: red; }
.edge:hover polygon { stroke: red; fill: red; }
]]></style>
<script type="application/ecmascript" xlink:href="svg.min.js"/>
<svg id="graph" class="graph">
<g id="graph0" class="graph" transform="scale(1 1) rotate(0) translate(4 268)">
<title>iii_drone::utils::Token&lt; T &gt;::slave_request_t</title>
<!-- Node1 -->
<g id="Node000001" class="node">
<title>Node1</title>
<g id="a_Node000001"><a xlink:title="Slave request struct.">
<polygon fill="#999999" stroke="transparent" points="165,-60 43,-60 43,0 165,0 165,-60"/>
<text text-anchor="start" x="48" y="-48" font-family="Helvetica,sans-Serif" font-size="10.00">iii_drone::utils::Token</text>
<text text-anchor="start" x="48" y="-37" font-family="Helvetica,sans-Serif" font-size="10.00">&lt; T &gt;::slave_request_t</text>
<text text-anchor="start" x="102" y="-22" font-family="Helvetica,sans-Serif" font-size="10.00"> </text>
<text text-anchor="start" x="102" y="-7" font-family="Helvetica,sans-Serif" font-size="10.00"> </text>
<polygon fill="#666666" stroke="#666666" points="43,-32 43,-32 165,-32 165,-32 43,-32"/>
<polygon fill="#666666" stroke="#666666" points="43,-17 43,-17 165,-17 165,-17 43,-17"/>
<polygon fill="none" stroke="#666666" points="43,0 43,-60 165,-60 165,0 43,0"/>
</a>
</g>
</g>
<!-- Node2 -->
<g id="Node000002" class="node">
<title>Node2</title>
<g id="a_Node000002"><a xlink:title=" ">
<polygon fill="white" stroke="transparent" points="78.5,-161.5 19.5,-161.5 19.5,-112.5 78.5,-112.5 78.5,-161.5"/>
<text text-anchor="start" x="25" y="-149" font-family="Helvetica,sans-Serif" font-size="10.00">std::string</text>
<text text-anchor="start" x="47.5" y="-134" font-family="Helvetica,sans-Serif" font-size="10.00"> </text>
<text text-anchor="start" x="47.5" y="-119" font-family="Helvetica,sans-Serif" font-size="10.00"> </text>
<polygon fill="#666666" stroke="#666666" points="20,-144 20,-144 79,-144 79,-144 20,-144"/>
<polygon fill="#666666" stroke="#666666" points="20,-129 20,-129 79,-129 79,-129 20,-129"/>
<polygon fill="none" stroke="#666666" points="19.5,-112.5 19.5,-161.5 78.5,-161.5 78.5,-112.5 19.5,-112.5"/>
</a>
</g>
</g>
<!-- Node2&#45;&gt;Node1 -->
<g id="edge1_Node000001_Node000002" class="edge">
<title>Node2&#45;&gt;Node1</title>
<g id="a_edge1_Node000001_Node000002"><a xlink:title=" ">
<path fill="none" stroke="#63b8ff" d="M46.73,-112.4C46.64,-101.45 47.93,-88.56 53,-78 54.42,-75.05 56.11,-72.19 58,-69.45"/>
<polygon fill="none" stroke="#63b8ff" points="58.07,-69.36 58.71,-62.18 65.59,-60.01 64.95,-67.19 58.07,-69.36"/>
</a>
</g>
<text text-anchor="middle" x="88.5" y="-81" font-family="Helvetica,sans-Serif" font-size="10.00" fill="grey"> +slave_name</text>
</g>
<!-- Node3 -->
<g id="Node000003" class="node">
<title>Node3</title>
<g id="a_Node000003"><a xlink:title=" ">
<polygon fill="white" stroke="transparent" points="98,-264 0,-264 0,-204 98,-204 98,-264"/>
<text text-anchor="start" x="5" y="-252" font-family="Helvetica,sans-Serif" font-size="10.00">std::basic_string&lt;</text>
<text text-anchor="start" x="30.5" y="-241" font-family="Helvetica,sans-Serif" font-size="10.00"> Char &gt;</text>
<text text-anchor="start" x="47" y="-226" font-family="Helvetica,sans-Serif" font-size="10.00"> </text>
<text text-anchor="start" x="47" y="-211" font-family="Helvetica,sans-Serif" font-size="10.00"> </text>
<polygon fill="#666666" stroke="#666666" points="0,-236 0,-236 98,-236 98,-236 0,-236"/>
<polygon fill="#666666" stroke="#666666" points="0,-221 0,-221 98,-221 98,-221 0,-221"/>
<polygon fill="none" stroke="#666666" points="0,-204 0,-264 98,-264 98,-204 0,-204"/>
</a>
</g>
</g>
<!-- Node3&#45;&gt;Node2 -->
<g id="edge2_Node000002_Node000003" class="edge">
<title>Node3&#45;&gt;Node2</title>
<g id="a_edge2_Node000002_Node000003"><a xlink:title=" ">
<path fill="none" stroke="#63b8ff" d="M49,-193.81C49,-182.93 49,-171.44 49,-161.74"/>
<polygon fill="none" stroke="#63b8ff" points="45.5,-193.98 49,-203.98 52.5,-193.98 45.5,-193.98"/>
</a>
</g>
</g>
<!-- Node4 -->
<g id="Node000004" class="node">
<title>Node4</title>
<g id="a_Node000004"><a xlink:title=" ">
<polygon fill="white" stroke="transparent" points="207.5,-167 96.5,-167 96.5,-107 207.5,-107 207.5,-167"/>
<text text-anchor="start" x="102" y="-155" font-family="Helvetica,sans-Serif" font-size="10.00">std::shared_ptr&lt; std</text>
<text text-anchor="start" x="102" y="-144" font-family="Helvetica,sans-Serif" font-size="10.00">::promise&lt; bool &gt; &gt;</text>
<text text-anchor="start" x="108" y="-129" font-family="Helvetica,sans-Serif" font-size="10.00">+</text>
<text text-anchor="start" x="128" y="-129" font-family="Helvetica,sans-Serif" font-size="10.00">ptr</text>
<text text-anchor="start" x="108" y="-114" font-family="Helvetica,sans-Serif" font-size="10.00">+</text>
<text text-anchor="start" x="128" y="-114" font-family="Helvetica,sans-Serif" font-size="10.00">operator&#45;&gt;()</text>
<polygon fill="#666666" stroke="#666666" points="97,-139 97,-139 208,-139 208,-139 97,-139"/>
<polygon fill="#666666" stroke="#666666" points="97,-124 97,-124 126,-124 126,-124 97,-124"/>
<polygon fill="#666666" stroke="#666666" points="126,-124 126,-124 208,-124 208,-124 126,-124"/>
<polygon fill="none" stroke="#666666" points="96.5,-107 96.5,-167 207.5,-167 207.5,-107 96.5,-107"/>
</a>
</g>
</g>
<!-- Node4&#45;&gt;Node1 -->
<g id="edge3_Node000001_Node000004" class="edge">
<title>Node4&#45;&gt;Node1</title>
<g id="a_edge3_Node000001_Node000004"><a xlink:title=" ">
<path fill="none" stroke="#63b8ff" d="M140.49,-106.89C136.67,-97.59 132.29,-87.3 128,-78 126.95,-75.73 125.85,-73.4 124.73,-71.06"/>
<polygon fill="none" stroke="#63b8ff" points="124.65,-70.92 118.41,-67.31 119.34,-60.16 125.59,-63.77 124.65,-70.92"/>
</a>
</g>
<text text-anchor="middle" x="197.5" y="-81" font-family="Helvetica,sans-Serif" font-size="10.00" fill="grey"> +acquired_token_promise</text>
</g>
</g>
</svg>
</svg>

<style type='text/css'>
<![CDATA[
[data-mouse-over-selected='false'] { opacity: 0.7; }
[data-mouse-over-selected='true']  { opacity: 1.0; }
]]>
</style>
<script type="application/ecmascript"><![CDATA[
document.addEventListener('DOMContentLoaded', (event) => {
  highlightEdges();
  highlightAdjacentNodes();
});
]]></script>
</svg>
