<?xml version="1.0" encoding="UTF-8" standalone="no"?>
<!DOCTYPE svg PUBLIC "-//W3C//DTD SVG 1.1//EN"
 "http://www.w3.org/Graphics/SVG/1.1/DTD/svg11.dtd">
<!-- Generated by graphviz version 2.43.0 (0)
 -->
<!-- Title: pos_MPC::struct5_T Pages: 1 -->
<svg width="362pt" height="198pt"
 viewBox="0.00 0.00 362.00 198.00" xmlns="http://www.w3.org/2000/svg" xmlns:xlink="http://www.w3.org/1999/xlink">
<g id="graph0" class="graph" transform="scale(1 1) rotate(0) translate(4 194)">
<title>pos_MPC::struct5_T</title>
<!-- Node1 -->
<g id="Node000001" class="node">
<title>Node1</title>
<g id="a_Node000001"><a xlink:title=" ">
<polygon fill="#999999" stroke="transparent" points="230,-49 124,-49 124,0 230,0 230,-49"/>
<text text-anchor="start" x="129" y="-36.5" font-family="Helvetica,sans-Serif" font-size="10.00">pos_MPC::struct5_T</text>
<text text-anchor="start" x="175" y="-21.5" font-family="Helvetica,sans-Serif" font-size="10.00"> </text>
<text text-anchor="start" x="175" y="-6.5" font-family="Helvetica,sans-Serif" font-size="10.00"> </text>
<polygon fill="#666666" stroke="#666666" points="124,-31.5 124,-31.5 230,-31.5 230,-31.5 124,-31.5"/>
<polygon fill="#666666" stroke="#666666" points="124,-16.5 124,-16.5 230,-16.5 230,-16.5 124,-16.5"/>
<polygon fill="none" stroke="#666666" points="124,0 124,-49 230,-49 230,0 124,0"/>
</a>
</g>
</g>
<!-- Node2 -->
<g id="Node000002" class="node">
<title>Node2</title>
<g id="a_Node000002"><a xlink:href="structpos__MPC_1_1struct6__T.html" target="_top" xlink:title=" ">
<polygon fill="white" stroke="transparent" points="106,-175 0,-175 0,-111 106,-111 106,-175"/>
<text text-anchor="start" x="5" y="-163" font-family="Helvetica,sans-Serif" font-size="10.00">pos_MPC::struct6_T</text>
<text text-anchor="start" x="21" y="-148" font-family="Helvetica,sans-Serif" font-size="10.00">+</text>
<text text-anchor="start" x="51" y="-148" font-family="Helvetica,sans-Serif" font-size="10.00">ym</text>
<text text-anchor="start" x="21" y="-133" font-family="Helvetica,sans-Serif" font-size="10.00">+</text>
<text text-anchor="start" x="51" y="-133" font-family="Helvetica,sans-Serif" font-size="10.00">ref</text>
<text text-anchor="start" x="51" y="-118" font-family="Helvetica,sans-Serif" font-size="10.00"> </text>
<polygon fill="#666666" stroke="#666666" points="0,-158 0,-158 106,-158 106,-158 0,-158"/>
<polygon fill="#666666" stroke="#666666" points="0,-128 0,-128 49,-128 49,-128 0,-128"/>
<polygon fill="#666666" stroke="#666666" points="49,-128 49,-128 106,-128 106,-128 49,-128"/>
<polygon fill="none" stroke="#666666" points="0,-111 0,-175 106,-175 106,-111 0,-111"/>
</a>
</g>
</g>
<!-- Node2&#45;&gt;Node1 -->
<g id="edge1_Node000001_Node000002" class="edge">
<title>Node2&#45;&gt;Node1</title>
<g id="a_edge1_Node000001_Node000002"><a xlink:title=" ">
<path fill="none" stroke="#63b8ff" d="M82.57,-110.65C95.85,-96.94 111.9,-80.85 127,-67 130.55,-63.75 134.3,-60.43 138.09,-57.15"/>
<polygon fill="none" stroke="#63b8ff" points="138.35,-56.93 140.34,-49.99 147.5,-49.16 145.51,-56.09 138.35,-56.93"/>
</a>
</g>
<text text-anchor="middle" x="150" y="-70" font-family="Helvetica,sans-Serif" font-size="10.00" fill="grey"> +signals</text>
</g>
<!-- Node3 -->
<g id="Node000003" class="node">
<title>Node3</title>
<g id="a_Node000003"><a xlink:href="structpos__MPC_1_1struct7__T.html" target="_top" xlink:title=" ">
<polygon fill="white" stroke="transparent" points="230,-182.5 124,-182.5 124,-103.5 230,-103.5 230,-182.5"/>
<text text-anchor="start" x="129" y="-170" font-family="Helvetica,sans-Serif" font-size="10.00">pos_MPC::struct7_T</text>
<text text-anchor="start" x="146" y="-155" font-family="Helvetica,sans-Serif" font-size="10.00">+</text>
<text text-anchor="start" x="177" y="-155" font-family="Helvetica,sans-Serif" font-size="10.00">y</text>
<text text-anchor="start" x="146" y="-140" font-family="Helvetica,sans-Serif" font-size="10.00">+</text>
<text text-anchor="start" x="177" y="-140" font-family="Helvetica,sans-Serif" font-size="10.00">u</text>
<text text-anchor="start" x="146" y="-125" font-family="Helvetica,sans-Serif" font-size="10.00">+</text>
<text text-anchor="start" x="177" y="-125" font-family="Helvetica,sans-Serif" font-size="10.00">du</text>
<text text-anchor="start" x="175" y="-110" font-family="Helvetica,sans-Serif" font-size="10.00"> </text>
<polygon fill="#666666" stroke="#666666" points="124,-165 124,-165 230,-165 230,-165 124,-165"/>
<polygon fill="#666666" stroke="#666666" points="124,-120 124,-120 175,-120 175,-120 124,-120"/>
<polygon fill="#666666" stroke="#666666" points="175,-120 175,-120 230,-120 230,-120 175,-120"/>
<polygon fill="none" stroke="#666666" points="124,-103.5 124,-182.5 230,-182.5 230,-103.5 124,-103.5"/>
</a>
</g>
</g>
<!-- Node3&#45;&gt;Node1 -->
<g id="edge2_Node000001_Node000003" class="edge">
<title>Node3&#45;&gt;Node1</title>
<g id="a_edge2_Node000001_Node000003"><a xlink:title=" ">
<path fill="none" stroke="#63b8ff" d="M177,-103.21C177,-89.66 177,-74.54 177,-61.25"/>
<polygon fill="none" stroke="#63b8ff" points="177,-61.19 173,-55.19 177,-49.19 181,-55.19 177,-61.19"/>
</a>
</g>
<text text-anchor="middle" x="202" y="-70" font-family="Helvetica,sans-Serif" font-size="10.00" fill="grey"> +weights</text>
</g>
<!-- Node4 -->
<g id="Node000004" class="node">
<title>Node4</title>
<g id="a_Node000004"><a xlink:href="structpos__MPC_1_1struct8__T.html" target="_top" xlink:title=" ">
<polygon fill="white" stroke="transparent" points="354,-190 248,-190 248,-96 354,-96 354,-190"/>
<text text-anchor="start" x="253" y="-178" font-family="Helvetica,sans-Serif" font-size="10.00">pos_MPC::struct8_T</text>
<text text-anchor="start" x="266" y="-163" font-family="Helvetica,sans-Serif" font-size="10.00">+</text>
<text text-anchor="start" x="293" y="-163" font-family="Helvetica,sans-Serif" font-size="10.00">ymin</text>
<text text-anchor="start" x="266" y="-148" font-family="Helvetica,sans-Serif" font-size="10.00">+</text>
<text text-anchor="start" x="293" y="-148" font-family="Helvetica,sans-Serif" font-size="10.00">ymax</text>
<text text-anchor="start" x="266" y="-133" font-family="Helvetica,sans-Serif" font-size="10.00">+</text>
<text text-anchor="start" x="293" y="-133" font-family="Helvetica,sans-Serif" font-size="10.00">umin</text>
<text text-anchor="start" x="266" y="-118" font-family="Helvetica,sans-Serif" font-size="10.00">+</text>
<text text-anchor="start" x="293" y="-118" font-family="Helvetica,sans-Serif" font-size="10.00">umax</text>
<text text-anchor="start" x="299" y="-103" font-family="Helvetica,sans-Serif" font-size="10.00"> </text>
<polygon fill="#666666" stroke="#666666" points="248,-173 248,-173 354,-173 354,-173 248,-173"/>
<polygon fill="#666666" stroke="#666666" points="248,-113 248,-113 291,-113 291,-113 248,-113"/>
<polygon fill="#666666" stroke="#666666" points="291,-113 291,-113 354,-113 354,-113 291,-113"/>
<polygon fill="none" stroke="#666666" points="248,-96 248,-190 354,-190 354,-96 248,-96"/>
</a>
</g>
</g>
<!-- Node4&#45;&gt;Node1 -->
<g id="edge3_Node000001_Node000004" class="edge">
<title>Node4&#45;&gt;Node1</title>
<g id="a_edge3_Node000001_Node000004"><a xlink:title=" ">
<path fill="none" stroke="#63b8ff" d="M259.96,-95.62C250.72,-85.87 240.75,-75.86 231,-67 227.21,-63.56 223.16,-60.09 219.04,-56.71"/>
<polygon fill="none" stroke="#63b8ff" points="218.78,-56.5 211.59,-55.88 209.4,-49.02 216.58,-49.63 218.78,-56.5"/>
</a>
</g>
<text text-anchor="middle" x="261" y="-70" font-family="Helvetica,sans-Serif" font-size="10.00" fill="grey"> +limits</text>
</g>
</g>
</svg>
