<?xml version="1.0" encoding="UTF-8" standalone="no"?>
<!DOCTYPE svg PUBLIC "-//W3C//DTD SVG 1.1//EN"
 "http://www.w3.org/Graphics/SVG/1.1/DTD/svg11.dtd">
<!-- Generated by graphviz version 2.43.0 (0)
 -->
<!-- Title: iii_drone::control::combined_drone_awareness_t Pages: 1 -->
<svg width="306pt" height="698pt"
 viewBox="0.00 0.00 306.00 698.00" xmlns="http://www.w3.org/2000/svg" xmlns:xlink="http://www.w3.org/1999/xlink">
<g id="graph0" class="graph" transform="scale(1 1) rotate(0) translate(4 694)">
<title>iii_drone::control::combined_drone_awareness_t</title>
<!-- Node1 -->
<g id="Node000001" class="node">
<title>Node1</title>
<g id="a_Node000001"><a xlink:title="Represents a combination of drone awareness information, on which behavior execution depends.">
<polygon fill="#999999" stroke="transparent" points="185,-195 21,-195 21,0 185,0 185,-195"/>
<text text-anchor="start" x="26" y="-182.5" font-family="Helvetica,sans-Serif" font-size="10.00">iii_drone::control</text>
<text text-anchor="start" x="26" y="-171.5" font-family="Helvetica,sans-Serif" font-size="10.00">::combined_drone_awareness_t</text>
<text text-anchor="start" x="29" y="-156.5" font-family="Helvetica,sans-Serif" font-size="10.00">+</text>
<text text-anchor="start" x="46" y="-156.5" font-family="Helvetica,sans-Serif" font-size="10.00">armed</text>
<text text-anchor="start" x="29" y="-141.5" font-family="Helvetica,sans-Serif" font-size="10.00">+</text>
<text text-anchor="start" x="46" y="-141.5" font-family="Helvetica,sans-Serif" font-size="10.00">offboard</text>
<text text-anchor="start" x="29" y="-126.5" font-family="Helvetica,sans-Serif" font-size="10.00">+</text>
<text text-anchor="start" x="46" y="-126.5" font-family="Helvetica,sans-Serif" font-size="10.00">target_position_known</text>
<text text-anchor="start" x="29" y="-111.5" font-family="Helvetica,sans-Serif" font-size="10.00">+</text>
<text text-anchor="start" x="46" y="-111.5" font-family="Helvetica,sans-Serif" font-size="10.00">drone_location</text>
<text text-anchor="start" x="29" y="-96.5" font-family="Helvetica,sans-Serif" font-size="10.00">+</text>
<text text-anchor="start" x="46" y="-96.5" font-family="Helvetica,sans-Serif" font-size="10.00">on_cable_id</text>
<text text-anchor="start" x="29" y="-81.5" font-family="Helvetica,sans-Serif" font-size="10.00">+</text>
<text text-anchor="start" x="46" y="-81.5" font-family="Helvetica,sans-Serif" font-size="10.00">ground_altitude_estimate</text>
<text text-anchor="start" x="29" y="-66.5" font-family="Helvetica,sans-Serif" font-size="10.00">+</text>
<text text-anchor="start" x="46" y="-66.5" font-family="Helvetica,sans-Serif" font-size="10.00">gripper_open</text>
<text text-anchor="start" x="29" y="-51.5" font-family="Helvetica,sans-Serif" font-size="10.00">+</text>
<text text-anchor="start" x="46" y="-51.5" font-family="Helvetica,sans-Serif" font-size="10.00">has_target()</text>
<text text-anchor="start" x="29" y="-36.5" font-family="Helvetica,sans-Serif" font-size="10.00">+</text>
<text text-anchor="start" x="46" y="-36.5" font-family="Helvetica,sans-Serif" font-size="10.00">on_ground()</text>
<text text-anchor="start" x="29" y="-21.5" font-family="Helvetica,sans-Serif" font-size="10.00">+</text>
<text text-anchor="start" x="46" y="-21.5" font-family="Helvetica,sans-Serif" font-size="10.00">on_cable()</text>
<text text-anchor="start" x="29" y="-6.5" font-family="Helvetica,sans-Serif" font-size="10.00">+</text>
<text text-anchor="start" x="46" y="-6.5" font-family="Helvetica,sans-Serif" font-size="10.00">in_flight()</text>
<polygon fill="#666666" stroke="#666666" points="21,-166.5 21,-166.5 185,-166.5 185,-166.5 21,-166.5"/>
<polygon fill="#666666" stroke="#666666" points="21,-61.5 21,-61.5 44,-61.5 44,-61.5 21,-61.5"/>
<polygon fill="#666666" stroke="#666666" points="44,-61.5 44,-61.5 185,-61.5 185,-61.5 44,-61.5"/>
<polygon fill="none" stroke="#666666" points="21,0 21,-195 185,-195 185,0 21,0"/>
</a>
</g>
</g>
<!-- Node2 -->
<g id="Node000002" class="node">
<title>Node2</title>
<g id="a_Node000002"><a xlink:href="classiii__drone_1_1control_1_1State.html" target="_top" xlink:title=" ">
<polygon fill="white" stroke="transparent" points="110,-497 0,-497 0,-242 110,-242 110,-497"/>
<text text-anchor="start" x="14" y="-484.5" font-family="Helvetica,sans-Serif" font-size="10.00">iii_drone::control</text>
<text text-anchor="start" x="39" y="-473.5" font-family="Helvetica,sans-Serif" font-size="10.00">::State</text>
<text text-anchor="start" x="6.5" y="-458.5" font-family="Helvetica,sans-Serif" font-size="10.00">&#45;</text>
<text text-anchor="start" x="17" y="-458.5" font-family="Helvetica,sans-Serif" font-size="10.00">position_</text>
<text text-anchor="start" x="6.5" y="-443.5" font-family="Helvetica,sans-Serif" font-size="10.00">&#45;</text>
<text text-anchor="start" x="17" y="-443.5" font-family="Helvetica,sans-Serif" font-size="10.00">velocity_</text>
<text text-anchor="start" x="6.5" y="-428.5" font-family="Helvetica,sans-Serif" font-size="10.00">&#45;</text>
<text text-anchor="start" x="17" y="-428.5" font-family="Helvetica,sans-Serif" font-size="10.00">quaternion_</text>
<text text-anchor="start" x="6.5" y="-413.5" font-family="Helvetica,sans-Serif" font-size="10.00">&#45;</text>
<text text-anchor="start" x="17" y="-413.5" font-family="Helvetica,sans-Serif" font-size="10.00">yaw_</text>
<text text-anchor="start" x="6.5" y="-398.5" font-family="Helvetica,sans-Serif" font-size="10.00">&#45;</text>
<text text-anchor="start" x="17" y="-398.5" font-family="Helvetica,sans-Serif" font-size="10.00">angular_velocity_</text>
<text text-anchor="start" x="6.5" y="-383.5" font-family="Helvetica,sans-Serif" font-size="10.00">&#45;</text>
<text text-anchor="start" x="17" y="-383.5" font-family="Helvetica,sans-Serif" font-size="10.00">stamp_</text>
<text text-anchor="start" x="4" y="-368.5" font-family="Helvetica,sans-Serif" font-size="10.00">+</text>
<text text-anchor="start" x="17" y="-368.5" font-family="Helvetica,sans-Serif" font-size="10.00">State()</text>
<text text-anchor="start" x="4" y="-353.5" font-family="Helvetica,sans-Serif" font-size="10.00">+</text>
<text text-anchor="start" x="17" y="-353.5" font-family="Helvetica,sans-Serif" font-size="10.00">State()</text>
<text text-anchor="start" x="4" y="-338.5" font-family="Helvetica,sans-Serif" font-size="10.00">+</text>
<text text-anchor="start" x="17" y="-338.5" font-family="Helvetica,sans-Serif" font-size="10.00">State()</text>
<text text-anchor="start" x="4" y="-323.5" font-family="Helvetica,sans-Serif" font-size="10.00">+</text>
<text text-anchor="start" x="17" y="-323.5" font-family="Helvetica,sans-Serif" font-size="10.00">position()</text>
<text text-anchor="start" x="4" y="-308.5" font-family="Helvetica,sans-Serif" font-size="10.00">+</text>
<text text-anchor="start" x="17" y="-308.5" font-family="Helvetica,sans-Serif" font-size="10.00">velocity()</text>
<text text-anchor="start" x="4" y="-293.5" font-family="Helvetica,sans-Serif" font-size="10.00">+</text>
<text text-anchor="start" x="17" y="-293.5" font-family="Helvetica,sans-Serif" font-size="10.00">quaternion()</text>
<text text-anchor="start" x="4" y="-278.5" font-family="Helvetica,sans-Serif" font-size="10.00">+</text>
<text text-anchor="start" x="17" y="-278.5" font-family="Helvetica,sans-Serif" font-size="10.00">yaw()</text>
<text text-anchor="start" x="4" y="-263.5" font-family="Helvetica,sans-Serif" font-size="10.00">+</text>
<text text-anchor="start" x="17" y="-263.5" font-family="Helvetica,sans-Serif" font-size="10.00">angular_velocity()</text>
<text text-anchor="start" x="4" y="-248.5" font-family="Helvetica,sans-Serif" font-size="10.00">+</text>
<text text-anchor="start" x="17" y="-248.5" font-family="Helvetica,sans-Serif" font-size="10.00">stamp()</text>
<polygon fill="#666666" stroke="#666666" points="0,-468.5 0,-468.5 110,-468.5 110,-468.5 0,-468.5"/>
<polygon fill="#666666" stroke="#666666" points="0,-378.5 0,-378.5 15,-378.5 15,-378.5 0,-378.5"/>
<polygon fill="#666666" stroke="#666666" points="15,-378.5 15,-378.5 110,-378.5 110,-378.5 15,-378.5"/>
<polygon fill="none" stroke="#666666" points="0,-242 0,-497 110,-497 110,-242 0,-242"/>
</a>
</g>
</g>
<!-- Node2&#45;&gt;Node1 -->
<g id="edge1_Node000001_Node000002" class="edge">
<title>Node2&#45;&gt;Node1</title>
<g id="a_edge1_Node000001_Node000002"><a xlink:title=" ">
<path fill="none" stroke="#63b8ff" d="M77.52,-241.8C79.56,-230.33 81.62,-218.78 83.63,-207.48"/>
<polygon fill="none" stroke="#63b8ff" points="83.68,-207.15 80.8,-200.54 85.78,-195.34 88.67,-201.94 83.68,-207.15"/>
</a>
</g>
<text text-anchor="middle" x="99.5" y="-216" font-family="Helvetica,sans-Serif" font-size="10.00" fill="grey"> +state</text>
</g>
<!-- Node3 -->
<g id="Node000003" class="node">
<title>Node3</title>
<g id="a_Node000003"><a xlink:href="classiii__drone_1_1adapters_1_1TargetAdapter.html" target="_top" xlink:title="Target adapter class.">
<polygon fill="white" stroke="transparent" points="252,-489.5 128,-489.5 128,-249.5 252,-249.5 252,-489.5"/>
<text text-anchor="start" x="144.5" y="-477.5" font-family="Helvetica,sans-Serif" font-size="10.00">iii_drone::adapters</text>
<text text-anchor="start" x="152.5" y="-466.5" font-family="Helvetica,sans-Serif" font-size="10.00">::TargetAdapter</text>
<text text-anchor="start" x="134.5" y="-451.5" font-family="Helvetica,sans-Serif" font-size="10.00">&#45;</text>
<text text-anchor="start" x="145" y="-451.5" font-family="Helvetica,sans-Serif" font-size="10.00">target_type_</text>
<text text-anchor="start" x="134.5" y="-436.5" font-family="Helvetica,sans-Serif" font-size="10.00">&#45;</text>
<text text-anchor="start" x="145" y="-436.5" font-family="Helvetica,sans-Serif" font-size="10.00">target_id_</text>
<text text-anchor="start" x="134.5" y="-421.5" font-family="Helvetica,sans-Serif" font-size="10.00">&#45;</text>
<text text-anchor="start" x="145" y="-421.5" font-family="Helvetica,sans-Serif" font-size="10.00">target_transform_</text>
<text text-anchor="start" x="132" y="-406.5" font-family="Helvetica,sans-Serif" font-size="10.00">+</text>
<text text-anchor="start" x="145" y="-406.5" font-family="Helvetica,sans-Serif" font-size="10.00">TargetAdapter()</text>
<text text-anchor="start" x="132" y="-391.5" font-family="Helvetica,sans-Serif" font-size="10.00">+</text>
<text text-anchor="start" x="145" y="-391.5" font-family="Helvetica,sans-Serif" font-size="10.00">TargetAdapter()</text>
<text text-anchor="start" x="132" y="-376.5" font-family="Helvetica,sans-Serif" font-size="10.00">+</text>
<text text-anchor="start" x="145" y="-376.5" font-family="Helvetica,sans-Serif" font-size="10.00">TargetAdapter()</text>
<text text-anchor="start" x="132" y="-361.5" font-family="Helvetica,sans-Serif" font-size="10.00">+</text>
<text text-anchor="start" x="145" y="-361.5" font-family="Helvetica,sans-Serif" font-size="10.00">TargetAdapter()</text>
<text text-anchor="start" x="132" y="-346.5" font-family="Helvetica,sans-Serif" font-size="10.00">+</text>
<text text-anchor="start" x="145" y="-346.5" font-family="Helvetica,sans-Serif" font-size="10.00">~TargetAdapter()</text>
<text text-anchor="start" x="132" y="-331.5" font-family="Helvetica,sans-Serif" font-size="10.00">+</text>
<text text-anchor="start" x="145" y="-331.5" font-family="Helvetica,sans-Serif" font-size="10.00">ToMsg()</text>
<text text-anchor="start" x="132" y="-316.5" font-family="Helvetica,sans-Serif" font-size="10.00">+</text>
<text text-anchor="start" x="145" y="-316.5" font-family="Helvetica,sans-Serif" font-size="10.00">target_type()</text>
<text text-anchor="start" x="132" y="-301.5" font-family="Helvetica,sans-Serif" font-size="10.00">+</text>
<text text-anchor="start" x="145" y="-301.5" font-family="Helvetica,sans-Serif" font-size="10.00">target_id()</text>
<text text-anchor="start" x="132" y="-286.5" font-family="Helvetica,sans-Serif" font-size="10.00">+</text>
<text text-anchor="start" x="145" y="-286.5" font-family="Helvetica,sans-Serif" font-size="10.00">reference_frame_id()</text>
<text text-anchor="start" x="132" y="-271.5" font-family="Helvetica,sans-Serif" font-size="10.00">+</text>
<text text-anchor="start" x="145" y="-271.5" font-family="Helvetica,sans-Serif" font-size="10.00">target_transform()</text>
<text text-anchor="start" x="132" y="-256.5" font-family="Helvetica,sans-Serif" font-size="10.00">+</text>
<text text-anchor="start" x="145" y="-256.5" font-family="Helvetica,sans-Serif" font-size="10.00">operator=()</text>
<polygon fill="#666666" stroke="#666666" points="128,-461.5 128,-461.5 252,-461.5 252,-461.5 128,-461.5"/>
<polygon fill="#666666" stroke="#666666" points="128,-416.5 128,-416.5 143,-416.5 143,-416.5 128,-416.5"/>
<polygon fill="#666666" stroke="#666666" points="143,-416.5 143,-416.5 252,-416.5 252,-416.5 143,-416.5"/>
<polygon fill="none" stroke="#666666" points="128,-249.5 128,-489.5 252,-489.5 252,-249.5 128,-249.5"/>
</a>
</g>
</g>
<!-- Node3&#45;&gt;Node1 -->
<g id="edge2_Node000001_Node000003" class="edge">
<title>Node3&#45;&gt;Node1</title>
<g id="a_edge2_Node000001_Node000003"><a xlink:title=" ">
<path fill="none" stroke="#63b8ff" d="M151.59,-249.29C147.04,-235.16 142.41,-220.8 137.91,-206.84"/>
<polygon fill="none" stroke="#63b8ff" points="137.84,-206.64 132.2,-202.15 134.16,-195.21 139.81,-199.7 137.84,-206.64"/>
</a>
</g>
<text text-anchor="middle" x="183" y="-216" font-family="Helvetica,sans-Serif" font-size="10.00" fill="grey"> +target_adapter</text>
</g>
<!-- Node4 -->
<g id="Node000004" class="node">
<title>Node4</title>
<g id="a_Node000004"><a xlink:title=" ">
<polygon fill="white" stroke="transparent" points="219.5,-593 160.5,-593 160.5,-544 219.5,-544 219.5,-593"/>
<text text-anchor="start" x="166" y="-580.5" font-family="Helvetica,sans-Serif" font-size="10.00">std::string</text>
<text text-anchor="start" x="188.5" y="-565.5" font-family="Helvetica,sans-Serif" font-size="10.00"> </text>
<text text-anchor="start" x="188.5" y="-550.5" font-family="Helvetica,sans-Serif" font-size="10.00"> </text>
<polygon fill="#666666" stroke="#666666" points="161,-575.5 161,-575.5 220,-575.5 220,-575.5 161,-575.5"/>
<polygon fill="#666666" stroke="#666666" points="161,-560.5 161,-560.5 220,-560.5 220,-560.5 161,-560.5"/>
<polygon fill="none" stroke="#666666" points="160.5,-544 160.5,-593 219.5,-593 219.5,-544 160.5,-544"/>
</a>
</g>
</g>
<!-- Node4&#45;&gt;Node3 -->
<g id="edge3_Node000003_Node000004" class="edge">
<title>Node4&#45;&gt;Node3</title>
<g id="a_edge3_Node000003_Node000004"><a xlink:title=" ">
<path fill="none" stroke="#63b8ff" d="M190,-543.74C190,-532.4 190,-517.86 190,-502.04"/>
<polygon fill="none" stroke="#63b8ff" points="190,-501.72 186,-495.72 190,-489.72 194,-495.72 190,-501.72"/>
</a>
</g>
<text text-anchor="middle" x="244" y="-518" font-family="Helvetica,sans-Serif" font-size="10.00" fill="grey"> &#45;reference_frame_id_</text>
</g>
<!-- Node5 -->
<g id="Node000005" class="node">
<title>Node5</title>
<g id="a_Node000005"><a xlink:title=" ">
<polygon fill="white" stroke="transparent" points="239,-690 141,-690 141,-630 239,-630 239,-690"/>
<text text-anchor="start" x="146" y="-678" font-family="Helvetica,sans-Serif" font-size="10.00">std::basic_string&lt;</text>
<text text-anchor="start" x="171.5" y="-667" font-family="Helvetica,sans-Serif" font-size="10.00"> Char &gt;</text>
<text text-anchor="start" x="188" y="-652" font-family="Helvetica,sans-Serif" font-size="10.00"> </text>
<text text-anchor="start" x="188" y="-637" font-family="Helvetica,sans-Serif" font-size="10.00"> </text>
<polygon fill="#666666" stroke="#666666" points="141,-662 141,-662 239,-662 239,-662 141,-662"/>
<polygon fill="#666666" stroke="#666666" points="141,-647 141,-647 239,-647 239,-647 141,-647"/>
<polygon fill="none" stroke="#666666" points="141,-630 141,-690 239,-690 239,-630 141,-630"/>
</a>
</g>
</g>
<!-- Node5&#45;&gt;Node4 -->
<g id="edge4_Node000004_Node000005" class="edge">
<title>Node5&#45;&gt;Node4</title>
<g id="a_edge4_Node000004_Node000005"><a xlink:title=" ">
<path fill="none" stroke="#63b8ff" d="M190,-619.41C190,-610.47 190,-601.25 190,-593.21"/>
<polygon fill="none" stroke="#63b8ff" points="186.5,-619.69 190,-629.69 193.5,-619.69 186.5,-619.69"/>
</a>
</g>
</g>
</g>
</svg>
