<?xml version="1.0" encoding="UTF-8" standalone="no"?>
<!DOCTYPE svg PUBLIC "-//W3C//DTD SVG 1.1//EN"
 "http://www.w3.org/Graphics/SVG/1.1/DTD/svg11.dtd">
<!-- Generated by graphviz version 2.43.0 (0)
 -->
<!-- Title: iii_drone::perception::SingleLine::kf_est_t Pages: 1 -->
<svg width="120pt" height="83pt"
 viewBox="0.00 0.00 120.00 83.00" xmlns="http://www.w3.org/2000/svg" xmlns:xlink="http://www.w3.org/1999/xlink">
<g id="graph0" class="graph" transform="scale(1 1) rotate(0) translate(4 79)">
<title>iii_drone::perception::SingleLine::kf_est_t</title>
<!-- Node1 -->
<g id="Node000001" class="node">
<title>Node1</title>
<g id="a_Node000001"><a xlink:title="Kalman Filter estimate struct.">
<polygon fill="#999999" stroke="transparent" points="112,-75 0,-75 0,0 112,0 112,-75"/>
<text text-anchor="start" x="5" y="-62.5" font-family="Helvetica,sans-Serif" font-size="10.00">iii_drone::perception</text>
<text text-anchor="start" x="5" y="-51.5" font-family="Helvetica,sans-Serif" font-size="10.00">::SingleLine::kf_est_t</text>
<text text-anchor="start" x="15" y="-36.5" font-family="Helvetica,sans-Serif" font-size="10.00">+</text>
<text text-anchor="start" x="39" y="-36.5" font-family="Helvetica,sans-Serif" font-size="10.00">state_est</text>
<text text-anchor="start" x="15" y="-21.5" font-family="Helvetica,sans-Serif" font-size="10.00">+</text>
<text text-anchor="start" x="39" y="-21.5" font-family="Helvetica,sans-Serif" font-size="10.00">var_est</text>
<text text-anchor="start" x="54" y="-6.5" font-family="Helvetica,sans-Serif" font-size="10.00"> </text>
<polygon fill="#666666" stroke="#666666" points="0,-46.5 0,-46.5 112,-46.5 112,-46.5 0,-46.5"/>
<polygon fill="#666666" stroke="#666666" points="0,-16.5 0,-16.5 37,-16.5 37,-16.5 0,-16.5"/>
<polygon fill="#666666" stroke="#666666" points="37,-16.5 37,-16.5 112,-16.5 112,-16.5 37,-16.5"/>
<polygon fill="none" stroke="#666666" points="0,0 0,-75 112,-75 112,0 0,0"/>
</a>
</g>
</g>
</g>
</svg>
