<?xml version="1.0" encoding="UTF-8" standalone="no"?>
<!DOCTYPE svg PUBLIC "-//W3C//DTD SVG 1.1//EN"
 "http://www.w3.org/Graphics/SVG/1.1/DTD/svg11.dtd">
<!-- Generated by graphviz version 2.43.0 (0)
 -->
<!-- Title: iii_drone::control::maneuver::fly_to_object_maneuver_params_t Pages: 1 -->
<!--zoomable 622 -->

<svg id="main" version="1.1" xmlns="http://www.w3.org/2000/svg" xmlns:xlink="http://www.w3.org/1999/xlink" xml:space="preserve" onload="init(evt)">
<style type="text/css"><![CDATA[
.node, .edge {opacity: 0.7;}
.node.selected, .edge.selected {opacity: 1;}
.edge:hover path { stroke: red; }
.edge:hover polygon { stroke: red; fill: red; }
]]></style>

<defs>
  <circle id="rim" cx="0" cy="0" r="7"/>
  <circle id="rim2" cx="0" cy="0" r="3.5"/>
  <g id="zoomPlus">
    <use xlink:href="#rim" fill="#404040"><set attributeName="fill" to="#808080" begin="zoomplus.mouseover" end="zoomplus.mouseout"/></use>
    <path d="M-4,0h8M0,-4v8" fill="none" stroke="white" stroke-width="1.5" pointer-events="none"/>
  </g>
  <g id="zoomMin">
    <use xlink:href="#rim" fill="#404040"><set attributeName="fill" to="#808080" begin="zoomminus.mouseover" end="zoomminus.mouseout"/></use>
    <path d="M-4,0h8" fill="none" stroke="white" stroke-width="1.5" pointer-events="none"/>
  </g>
  <g id="arrowUp" transform="translate(30 24)">
    <use xlink:href="#rim"/>
    <path pointer-events="none" fill="none" stroke="white" stroke-width="1.5" d="M0,-3.0v7 M-2.5,-0.5L0,-3.0L2.5,-0.5"/>
  </g>
  <g id="arrowRight" transform="rotate(90) translate(36 -43)">
    <use xlink:href="#rim"/>
    <path pointer-events="none" fill="none" stroke="white" stroke-width="1.5" d="M0,-3.0v7 M-2.5,-0.5L0,-3.0L2.5,-0.5"/>
  </g>
  <g id="arrowDown" transform="rotate(180) translate(-30 -48)">
    <use xlink:href="#rim"/>
    <path pointer-events="none" fill="none" stroke="white" stroke-width="1.5" d="M0,-3.0v7 M-2.5,-0.5L0,-3.0L2.5,-0.5"/>
  </g>
  <g id="arrowLeft" transform="rotate(270) translate(-36 17)">
    <use xlink:href="#rim"/>
    <path pointer-events="none" fill="none" stroke="white" stroke-width="1.5" d="M0,-3.0v7 M-2.5,-0.5L0,-3.0L2.5,-0.5"/>
  </g>
  <g id="resetDef">
    <use xlink:href="#rim2" fill="#404040"><set attributeName="fill" to="#808080" begin="reset.mouseover" end="reset.mouseout"/></use>
  </g>
</defs>
<script type="application/ecmascript">
var viewWidth = 186;
var viewHeight = 622;
var sectionId = 'dynsection-0';
</script>
<script type="application/ecmascript" xlink:href="svg.min.js"/>
<svg id="graph" class="graph">
<g id="viewport">
<title>iii_drone::control::maneuver::fly_to_object_maneuver_params_t</title>
<!-- Node1 -->
<g id="Node000001" class="node">
<title>Node1</title>
<g id="a_Node000001"><a xlink:title="FlyToObject maneuver parameters.">
<polygon fill="#999999" stroke="transparent" points="139,-134 0,-134 0,0 139,0 139,-134"/>
<text text-anchor="start" x="8" y="-122" font-family="Helvetica,sans-Serif" font-size="10.00">iii_drone::control</text>
<text text-anchor="start" x="8" y="-111" font-family="Helvetica,sans-Serif" font-size="10.00">::maneuver::fly_to_object</text>
<text text-anchor="start" x="17" y="-100" font-family="Helvetica,sans-Serif" font-size="10.00">_maneuver_params_t</text>
<text text-anchor="start" x="68" y="-85" font-family="Helvetica,sans-Serif" font-size="10.00"> </text>
<text text-anchor="start" x="4.5" y="-70" font-family="Helvetica,sans-Serif" font-size="10.00">+</text>
<text text-anchor="start" x="17.5" y="-70" font-family="Helvetica,sans-Serif" font-size="10.00">fly_to_object_maneuver</text>
<text text-anchor="start" x="17.5" y="-59" font-family="Helvetica,sans-Serif" font-size="10.00">_params_t()</text>
<text text-anchor="start" x="4.5" y="-44" font-family="Helvetica,sans-Serif" font-size="10.00">+</text>
<text text-anchor="start" x="17.5" y="-44" font-family="Helvetica,sans-Serif" font-size="10.00">fly_to_object_maneuver</text>
<text text-anchor="start" x="17.5" y="-33" font-family="Helvetica,sans-Serif" font-size="10.00">_params_t()</text>
<text text-anchor="start" x="4.5" y="-18" font-family="Helvetica,sans-Serif" font-size="10.00">+</text>
<text text-anchor="start" x="17.5" y="-18" font-family="Helvetica,sans-Serif" font-size="10.00">fly_to_object_maneuver</text>
<text text-anchor="start" x="17.5" y="-7" font-family="Helvetica,sans-Serif" font-size="10.00">_params_t()</text>
<polygon fill="#666666" stroke="#666666" points="0.5,-95 0.5,-95 139.5,-95 139.5,-95 0.5,-95"/>
<polygon fill="#666666" stroke="#666666" points="0.5,-80 0.5,-80 139.5,-80 139.5,-80 0.5,-80"/>
<polygon fill="none" stroke="#666666" points="0,0 0,-134 139,-134 139,0 0,0"/>
</a>
</g>
</g>
<!-- Node2 -->
<g id="Node000002" class="node">
<title>Node2</title>
<g id="a_Node000002"><a xlink:href="classiii__drone_1_1adapters_1_1TargetAdapter.html" target="_top" xlink:title="Target adapter class.">
<polygon fill="white" stroke="transparent" points="131.5,-421 7.5,-421 7.5,-181 131.5,-181 131.5,-421"/>
<text text-anchor="start" x="24" y="-409" font-family="Helvetica,sans-Serif" font-size="10.00">iii_drone::adapters</text>
<text text-anchor="start" x="32" y="-398" font-family="Helvetica,sans-Serif" font-size="10.00">::TargetAdapter</text>
<text text-anchor="start" x="14" y="-383" font-family="Helvetica,sans-Serif" font-size="10.00">&#45;</text>
<text text-anchor="start" x="24.5" y="-383" font-family="Helvetica,sans-Serif" font-size="10.00">target_type_</text>
<text text-anchor="start" x="14" y="-368" font-family="Helvetica,sans-Serif" font-size="10.00">&#45;</text>
<text text-anchor="start" x="24.5" y="-368" font-family="Helvetica,sans-Serif" font-size="10.00">target_id_</text>
<text text-anchor="start" x="14" y="-353" font-family="Helvetica,sans-Serif" font-size="10.00">&#45;</text>
<text text-anchor="start" x="24.5" y="-353" font-family="Helvetica,sans-Serif" font-size="10.00">target_transform_</text>
<text text-anchor="start" x="11.5" y="-338" font-family="Helvetica,sans-Serif" font-size="10.00">+</text>
<text text-anchor="start" x="24.5" y="-338" font-family="Helvetica,sans-Serif" font-size="10.00">TargetAdapter()</text>
<text text-anchor="start" x="11.5" y="-323" font-family="Helvetica,sans-Serif" font-size="10.00">+</text>
<text text-anchor="start" x="24.5" y="-323" font-family="Helvetica,sans-Serif" font-size="10.00">TargetAdapter()</text>
<text text-anchor="start" x="11.5" y="-308" font-family="Helvetica,sans-Serif" font-size="10.00">+</text>
<text text-anchor="start" x="24.5" y="-308" font-family="Helvetica,sans-Serif" font-size="10.00">TargetAdapter()</text>
<text text-anchor="start" x="11.5" y="-293" font-family="Helvetica,sans-Serif" font-size="10.00">+</text>
<text text-anchor="start" x="24.5" y="-293" font-family="Helvetica,sans-Serif" font-size="10.00">TargetAdapter()</text>
<text text-anchor="start" x="11.5" y="-278" font-family="Helvetica,sans-Serif" font-size="10.00">+</text>
<text text-anchor="start" x="24.5" y="-278" font-family="Helvetica,sans-Serif" font-size="10.00">~TargetAdapter()</text>
<text text-anchor="start" x="11.5" y="-263" font-family="Helvetica,sans-Serif" font-size="10.00">+</text>
<text text-anchor="start" x="24.5" y="-263" font-family="Helvetica,sans-Serif" font-size="10.00">ToMsg()</text>
<text text-anchor="start" x="11.5" y="-248" font-family="Helvetica,sans-Serif" font-size="10.00">+</text>
<text text-anchor="start" x="24.5" y="-248" font-family="Helvetica,sans-Serif" font-size="10.00">target_type()</text>
<text text-anchor="start" x="11.5" y="-233" font-family="Helvetica,sans-Serif" font-size="10.00">+</text>
<text text-anchor="start" x="24.5" y="-233" font-family="Helvetica,sans-Serif" font-size="10.00">target_id()</text>
<text text-anchor="start" x="11.5" y="-218" font-family="Helvetica,sans-Serif" font-size="10.00">+</text>
<text text-anchor="start" x="24.5" y="-218" font-family="Helvetica,sans-Serif" font-size="10.00">reference_frame_id()</text>
<text text-anchor="start" x="11.5" y="-203" font-family="Helvetica,sans-Serif" font-size="10.00">+</text>
<text text-anchor="start" x="24.5" y="-203" font-family="Helvetica,sans-Serif" font-size="10.00">target_transform()</text>
<text text-anchor="start" x="11.5" y="-188" font-family="Helvetica,sans-Serif" font-size="10.00">+</text>
<text text-anchor="start" x="24.5" y="-188" font-family="Helvetica,sans-Serif" font-size="10.00">operator=()</text>
<polygon fill="#666666" stroke="#666666" points="7.5,-393 7.5,-393 131.5,-393 131.5,-393 7.5,-393"/>
<polygon fill="#666666" stroke="#666666" points="7.5,-348 7.5,-348 22.5,-348 22.5,-348 7.5,-348"/>
<polygon fill="#666666" stroke="#666666" points="22.5,-348 22.5,-348 131.5,-348 131.5,-348 22.5,-348"/>
<polygon fill="none" stroke="#666666" points="7.5,-181 7.5,-421 131.5,-421 131.5,-181 7.5,-181"/>
</a>
</g>
</g>
<!-- Node2&#45;&gt;Node1 -->
<g id="edge1_Node000001_Node000002" class="edge">
<title>Node2&#45;&gt;Node1</title>
<g id="a_edge1_Node000001_Node000002"><a xlink:title=" ">
<path fill="none" stroke="#63b8ff" d="M69.5,-180.94C69.5,-169.22 69.5,-157.54 69.5,-146.38"/>
<polygon fill="none" stroke="#63b8ff" points="69.5,-146.03 65.5,-140.03 69.5,-134.03 73.5,-140.03 69.5,-146.03"/>
</a>
</g>
<text text-anchor="middle" x="111.5" y="-155" font-family="Helvetica,sans-Serif" font-size="10.00" fill="grey"> +target_adapter</text>
</g>
<!-- Node3 -->
<g id="Node000003" class="node">
<title>Node3</title>
<g id="a_Node000003"><a xlink:title=" ">
<polygon fill="white" stroke="transparent" points="99,-517 40,-517 40,-468 99,-468 99,-517"/>
<text text-anchor="start" x="45.5" y="-504.5" font-family="Helvetica,sans-Serif" font-size="10.00">std::string</text>
<text text-anchor="start" x="68" y="-489.5" font-family="Helvetica,sans-Serif" font-size="10.00"> </text>
<text text-anchor="start" x="68" y="-474.5" font-family="Helvetica,sans-Serif" font-size="10.00"> </text>
<polygon fill="#666666" stroke="#666666" points="40.5,-499.5 40.5,-499.5 99.5,-499.5 99.5,-499.5 40.5,-499.5"/>
<polygon fill="#666666" stroke="#666666" points="40.5,-484.5 40.5,-484.5 99.5,-484.5 99.5,-484.5 40.5,-484.5"/>
<polygon fill="none" stroke="#666666" points="40,-468 40,-517 99,-517 99,-468 40,-468"/>
</a>
</g>
</g>
<!-- Node3&#45;&gt;Node2 -->
<g id="edge2_Node000002_Node000003" class="edge">
<title>Node3&#45;&gt;Node2</title>
<g id="a_edge2_Node000002_Node000003"><a xlink:title=" ">
<path fill="none" stroke="#63b8ff" d="M69.5,-467.88C69.5,-458.31 69.5,-446.46 69.5,-433.52"/>
<polygon fill="none" stroke="#63b8ff" points="69.5,-433.37 65.5,-427.37 69.5,-421.37 73.5,-427.37 69.5,-433.37"/>
</a>
</g>
<text text-anchor="middle" x="123.5" y="-442" font-family="Helvetica,sans-Serif" font-size="10.00" fill="grey"> &#45;reference_frame_id_</text>
</g>
<!-- Node4 -->
<g id="Node000004" class="node">
<title>Node4</title>
<g id="a_Node000004"><a xlink:title=" ">
<polygon fill="white" stroke="transparent" points="118.5,-614 20.5,-614 20.5,-554 118.5,-554 118.5,-614"/>
<text text-anchor="start" x="25.5" y="-602" font-family="Helvetica,sans-Serif" font-size="10.00">std::basic_string&lt;</text>
<text text-anchor="start" x="51" y="-591" font-family="Helvetica,sans-Serif" font-size="10.00"> Char &gt;</text>
<text text-anchor="start" x="67.5" y="-576" font-family="Helvetica,sans-Serif" font-size="10.00"> </text>
<text text-anchor="start" x="67.5" y="-561" font-family="Helvetica,sans-Serif" font-size="10.00"> </text>
<polygon fill="#666666" stroke="#666666" points="20.5,-586 20.5,-586 118.5,-586 118.5,-586 20.5,-586"/>
<polygon fill="#666666" stroke="#666666" points="20.5,-571 20.5,-571 118.5,-571 118.5,-571 20.5,-571"/>
<polygon fill="none" stroke="#666666" points="20.5,-554 20.5,-614 118.5,-614 118.5,-554 20.5,-554"/>
</a>
</g>
</g>
<!-- Node4&#45;&gt;Node3 -->
<g id="edge3_Node000003_Node000004" class="edge">
<title>Node4&#45;&gt;Node3</title>
<g id="a_edge3_Node000003_Node000004"><a xlink:title=" ">
<path fill="none" stroke="#63b8ff" d="M69.5,-543.41C69.5,-534.47 69.5,-525.25 69.5,-517.21"/>
<polygon fill="none" stroke="#63b8ff" points="66,-543.69 69.5,-553.69 73,-543.69 66,-543.69"/>
</a>
</g>
</g>
</g>
</svg>

<g id="navigator" transform="translate(0 0)" fill="#404254">
  <rect fill="#f2f5e9" fill-opacity="0.5" stroke="#606060" stroke-width=".5" x="0" y="0" width="60" height="60"/>
  <use id="zoomplus" xlink:href="#zoomPlus" x="17" y="9" onmousedown="handleZoom(evt,'in')"/>
  <use id="zoomminus" xlink:href="#zoomMin" x="42" y="9" onmousedown="handleZoom(evt,'out')"/>
  <use id="reset" xlink:href="#resetDef" x="30" y="36" onmousedown="handleReset()"/>
   <use id="arrowup" xlink:href="#arrowUp" x="0" y="0" onmousedown="handlePan(0,-1)"/>
  <use id="arrowright" xlink:href="#arrowRight" x="0" y="0" onmousedown="handlePan(1,0)"/>
  <use id="arrowdown" xlink:href="#arrowDown" x="0" y="0" onmousedown="handlePan(0,1)"/>
  <use id="arrowleft" xlink:href="#arrowLeft" x="0" y="0" onmousedown="handlePan(-1,0)"/>
</g>
<svg viewBox="0 0 15 15" width="100%" height="30px" preserveAspectRatio="xMaxYMin meet">
 <g id="arrow_out" transform="scale(0.3 0.3)">
  <a xlink:href="structiii__drone_1_1control_1_1maneuver_1_1fly__to__object__maneuver__params__t__coll__graph_org.svg" target="_base">
   <rect id="button" ry="5" rx="5" y="6" x="6" height="38" width="38"
        fill="#f2f5e9" fill-opacity="0.5" stroke="#606060" stroke-width="1.0"/>
   <path id="arrow"
     d="M 11.500037,31.436501 C 11.940474,20.09759 22.043105,11.32322 32.158766,21.979434 L 37.068811,17.246167 C 37.068811,17.246167 37.088388,32 37.088388,32 L 22.160133,31.978069 C 22.160133,31.978069 26.997745,27.140456 26.997745,27.140456 C 18.528582,18.264221 13.291696,25.230495 11.500037,31.436501 z"
     style="fill:#404040;"/>
  </a>
 </g>
</svg>

<style type='text/css'>
<![CDATA[
[data-mouse-over-selected='false'] { opacity: 0.7; }
[data-mouse-over-selected='true']  { opacity: 1.0; }
]]>
</style>
<script type="application/ecmascript"><![CDATA[
document.addEventListener('DOMContentLoaded', (event) => {
  highlightEdges();
  highlightAdjacentNodes();
});
]]></script>
</svg>
