<?xml version="1.0" encoding="UTF-8" standalone="no"?>
<!DOCTYPE svg PUBLIC "-//W3C//DTD SVG 1.1//EN"
 "http://www.w3.org/Graphics/SVG/1.1/DTD/svg11.dtd">
<!-- Generated by graphviz version 2.43.0 (0)
 -->
<!-- Title: iii_drone::control::maneuver::hover_on_cable_maneuver_params_t Pages: 1 -->
<svg width="161pt" height="172pt"
 viewBox="0.00 0.00 161.00 172.00" xmlns="http://www.w3.org/2000/svg" xmlns:xlink="http://www.w3.org/1999/xlink">
<g id="graph0" class="graph" transform="scale(1 1) rotate(0) translate(4 168)">
<title>iii_drone::control::maneuver::hover_on_cable_maneuver_params_t</title>
<!-- Node1 -->
<g id="Node000001" class="node">
<title>Node1</title>
<g id="a_Node000001"><a xlink:title="HoverOnCable maneuver parameters.">
<polygon fill="#999999" stroke="transparent" points="153,-164 0,-164 0,0 153,0 153,-164"/>
<text text-anchor="start" x="8" y="-152" font-family="Helvetica,sans-Serif" font-size="10.00">iii_drone::control</text>
<text text-anchor="start" x="8" y="-141" font-family="Helvetica,sans-Serif" font-size="10.00">::maneuver::hover_on</text>
<text text-anchor="start" x="8" y="-130" font-family="Helvetica,sans-Serif" font-size="10.00">_cable_maneuver_params_t</text>
<text text-anchor="start" x="4.5" y="-115" font-family="Helvetica,sans-Serif" font-size="10.00">+</text>
<text text-anchor="start" x="17.5" y="-115" font-family="Helvetica,sans-Serif" font-size="10.00">target_z_velocity</text>
<text text-anchor="start" x="4.5" y="-100" font-family="Helvetica,sans-Serif" font-size="10.00">+</text>
<text text-anchor="start" x="17.5" y="-100" font-family="Helvetica,sans-Serif" font-size="10.00">target_yaw_rate</text>
<text text-anchor="start" x="4.5" y="-85" font-family="Helvetica,sans-Serif" font-size="10.00">+</text>
<text text-anchor="start" x="17.5" y="-85" font-family="Helvetica,sans-Serif" font-size="10.00">duration_s</text>
<text text-anchor="start" x="4.5" y="-70" font-family="Helvetica,sans-Serif" font-size="10.00">+</text>
<text text-anchor="start" x="17.5" y="-70" font-family="Helvetica,sans-Serif" font-size="10.00">hover_on_cable_maneuver</text>
<text text-anchor="start" x="17.5" y="-59" font-family="Helvetica,sans-Serif" font-size="10.00">_params_t()</text>
<text text-anchor="start" x="4.5" y="-44" font-family="Helvetica,sans-Serif" font-size="10.00">+</text>
<text text-anchor="start" x="17.5" y="-44" font-family="Helvetica,sans-Serif" font-size="10.00">hover_on_cable_maneuver</text>
<text text-anchor="start" x="17.5" y="-33" font-family="Helvetica,sans-Serif" font-size="10.00">_params_t()</text>
<text text-anchor="start" x="4.5" y="-18" font-family="Helvetica,sans-Serif" font-size="10.00">+</text>
<text text-anchor="start" x="17.5" y="-18" font-family="Helvetica,sans-Serif" font-size="10.00">hover_on_cable_maneuver</text>
<text text-anchor="start" x="17.5" y="-7" font-family="Helvetica,sans-Serif" font-size="10.00">_params_t()</text>
<polygon fill="#666666" stroke="#666666" points="0.5,-125 0.5,-125 153.5,-125 153.5,-125 0.5,-125"/>
<polygon fill="#666666" stroke="#666666" points="0.5,-80 0.5,-80 15.5,-80 15.5,-80 0.5,-80"/>
<polygon fill="#666666" stroke="#666666" points="15.5,-80 15.5,-80 153.5,-80 153.5,-80 15.5,-80"/>
<polygon fill="none" stroke="#666666" points="0,0 0,-164 153,-164 153,0 0,0"/>
</a>
</g>
</g>
</g>
</svg>
