<?xml version="1.0" encoding="UTF-8" standalone="no"?>
<!DOCTYPE svg PUBLIC "-//W3C//DTD SVG 1.1//EN"
 "http://www.w3.org/Graphics/SVG/1.1/DTD/svg11.dtd">
<!-- Generated by graphviz version 2.43.0 (0)
 -->
<!-- Title: iii_drone::control::maneuver::fly_to_position_maneuver_params_t::transform_target_position Pages: 1 -->
<svg width="367pt" height="86pt"
 viewBox="0.00 0.00 367.00 86.00" xmlns="http://www.w3.org/2000/svg" xmlns:xlink="http://www.w3.org/1999/xlink">
<g id="graph0" class="graph" transform="scale(1 1) rotate(0) translate(4 82)">
<title>iii_drone::control::maneuver::fly_to_position_maneuver_params_t::transform_target_position</title>
<!-- Node1 -->
<g id="Node000001" class="node">
<title>Node1</title>
<g id="a_Node000001"><a xlink:title=" ">
<polygon fill="#999999" stroke="#666666" points="176,-65 0,-65 0,-13 176,-13 176,-65"/>
<text text-anchor="start" x="8" y="-53" font-family="Helvetica,sans-Serif" font-size="10.00">iii_drone::control</text>
<text text-anchor="start" x="8" y="-42" font-family="Helvetica,sans-Serif" font-size="10.00">::maneuver::fly_to_position</text>
<text text-anchor="start" x="8" y="-31" font-family="Helvetica,sans-Serif" font-size="10.00">_maneuver_params_t::transform</text>
<text text-anchor="middle" x="88" y="-20" font-family="Helvetica,sans-Serif" font-size="10.00">_target_position</text>
</a>
</g>
</g>
<!-- Node2 -->
<g id="Node000002" class="node">
<title>Node2</title>
<g id="a_Node000002"><a xlink:href="namespaceiii__drone_1_1types.html#a8215048242190c57b9ff2de3f1daba73" target="_top" xlink:title=" ">
<polygon fill="white" stroke="#666666" points="359,-78 212,-78 212,-48 359,-48 359,-78"/>
<text text-anchor="start" x="220" y="-66" font-family="Helvetica,sans-Serif" font-size="10.00">iii_drone::types::pointFrom</text>
<text text-anchor="middle" x="285.5" y="-55" font-family="Helvetica,sans-Serif" font-size="10.00">PointMsg</text>
</a>
</g>
</g>
<!-- Node1&#45;&gt;Node2 -->
<g id="edge1_Node000001_Node000002" class="edge">
<title>Node1&#45;&gt;Node2</title>
<g id="a_edge1_Node000001_Node000002"><a xlink:title=" ">
<path fill="none" stroke="#63b8ff" d="M176.17,-49.7C184.64,-50.74 193.22,-51.79 201.64,-52.83"/>
<polygon fill="#63b8ff" stroke="#63b8ff" points="201.48,-56.33 211.83,-54.08 202.33,-49.39 201.48,-56.33"/>
</a>
</g>
</g>
<!-- Node3 -->
<g id="Node000003" class="node">
<title>Node3</title>
<g id="a_Node000003"><a xlink:href="namespaceiii__drone_1_1types.html#adf49c0d0a898eea29ad3e752a6712734" target="_top" xlink:title=" ">
<polygon fill="white" stroke="#666666" points="357,-30 214,-30 214,0 357,0 357,-30"/>
<text text-anchor="start" x="222" y="-18" font-family="Helvetica,sans-Serif" font-size="10.00">iii_drone::types::pointMsg</text>
<text text-anchor="middle" x="285.5" y="-7" font-family="Helvetica,sans-Serif" font-size="10.00">FromPoint</text>
</a>
</g>
</g>
<!-- Node1&#45;&gt;Node3 -->
<g id="edge2_Node000001_Node000003" class="edge">
<title>Node1&#45;&gt;Node3</title>
<g id="a_edge2_Node000001_Node000003"><a xlink:title=" ">
<path fill="none" stroke="#63b8ff" d="M176.17,-28.3C185.35,-27.17 194.65,-26.03 203.74,-24.91"/>
<polygon fill="#63b8ff" stroke="#63b8ff" points="204.41,-28.36 213.91,-23.67 203.56,-21.41 204.41,-28.36"/>
</a>
</g>
</g>
</g>
</svg>
