<?xml version="1.0" encoding="UTF-8" standalone="no"?>
<!DOCTYPE svg PUBLIC "-//W3C//DTD SVG 1.1//EN"
 "http://www.w3.org/Graphics/SVG/1.1/DTD/svg11.dtd">
<!-- Generated by graphviz version 2.43.0 (0)
 -->
<!-- Title: /home/ffn/Workspace/ros2_humble_ws/src/III&#45;Drone&#45;Core/include/iii_drone_core/utils/timestamp.hpp Pages: 1 -->
<svg width="719pt" height="467pt"
 viewBox="0.00 0.00 718.50 467.00" xmlns="http://www.w3.org/2000/svg" xmlns:xlink="http://www.w3.org/1999/xlink">
<g id="graph0" class="graph" transform="scale(1 1) rotate(0) translate(4 463)">
<title>/home/ffn/Workspace/ros2_humble_ws/src/III&#45;Drone&#45;Core/include/iii_drone_core/utils/timestamp.hpp</title>
<!-- Node1 -->
<g id="Node000001" class="node">
<title>Node1</title>
<g id="a_Node000001"><a xlink:title=" ">
<polygon fill="#999999" stroke="#666666" points="536.5,-459 347.5,-459 347.5,-407 536.5,-407 536.5,-459"/>
<text text-anchor="start" x="355.5" y="-447" font-family="Helvetica,sans-Serif" font-size="10.00">/home/ffn/Workspace</text>
<text text-anchor="start" x="355.5" y="-436" font-family="Helvetica,sans-Serif" font-size="10.00">/ros2_humble_ws/src</text>
<text text-anchor="start" x="355.5" y="-425" font-family="Helvetica,sans-Serif" font-size="10.00">/III&#45;Drone&#45;Core/include</text>
<text text-anchor="middle" x="442" y="-414" font-family="Helvetica,sans-Serif" font-size="10.00">/iii_drone_core/utils/timestamp.hpp</text>
</a>
</g>
</g>
<!-- Node2 -->
<g id="Node000002" class="node">
<title>Node2</title>
<g id="a_Node000002"><a xlink:href="powerline_8hpp.html" target="_top" xlink:title=" ">
<polygon fill="white" stroke="#666666" points="498.5,-266.5 355.5,-266.5 355.5,-203.5 498.5,-203.5 498.5,-266.5"/>
<text text-anchor="start" x="363.5" y="-254.5" font-family="Helvetica,sans-Serif" font-size="10.00">/home/ffn/Workspace</text>
<text text-anchor="start" x="363.5" y="-243.5" font-family="Helvetica,sans-Serif" font-size="10.00">/ros2_humble_ws/src</text>
<text text-anchor="start" x="363.5" y="-232.5" font-family="Helvetica,sans-Serif" font-size="10.00">/III&#45;Drone&#45;Core/include</text>
<text text-anchor="start" x="363.5" y="-221.5" font-family="Helvetica,sans-Serif" font-size="10.00">/iii_drone_core/perception</text>
<text text-anchor="middle" x="427" y="-210.5" font-family="Helvetica,sans-Serif" font-size="10.00">/powerline.hpp</text>
</a>
</g>
</g>
<!-- Node1&#45;&gt;Node2 -->
<g id="edge1_Node000001_Node000002" class="edge">
<title>Node1&#45;&gt;Node2</title>
<g id="a_edge1_Node000001_Node000002"><a xlink:title=" ">
<path fill="none" stroke="#63b8ff" d="M421.75,-397.69C417.73,-389.24 414.1,-380.02 412,-371 403.8,-335.74 410.83,-294.23 417.77,-266.64"/>
<polygon fill="#63b8ff" stroke="#63b8ff" points="418.76,-399.53 426.41,-406.86 425,-396.36 418.76,-399.53"/>
</a>
</g>
</g>
<!-- Node6 -->
<g id="Node000006" class="node">
<title>Node6</title>
<g id="a_Node000006"><a xlink:href="powerline__direction_8hpp.html" target="_top" xlink:title=" ">
<polygon fill="white" stroke="#666666" points="328.5,-371 185.5,-371 185.5,-308 328.5,-308 328.5,-371"/>
<text text-anchor="start" x="193.5" y="-359" font-family="Helvetica,sans-Serif" font-size="10.00">/home/ffn/Workspace</text>
<text text-anchor="start" x="193.5" y="-348" font-family="Helvetica,sans-Serif" font-size="10.00">/ros2_humble_ws/src</text>
<text text-anchor="start" x="193.5" y="-337" font-family="Helvetica,sans-Serif" font-size="10.00">/III&#45;Drone&#45;Core/include</text>
<text text-anchor="start" x="193.5" y="-326" font-family="Helvetica,sans-Serif" font-size="10.00">/iii_drone_core/perception</text>
<text text-anchor="middle" x="257" y="-315" font-family="Helvetica,sans-Serif" font-size="10.00">/powerline_direction.hpp</text>
</a>
</g>
</g>
<!-- Node1&#45;&gt;Node6 -->
<g id="edge5_Node000001_Node000006" class="edge">
<title>Node1&#45;&gt;Node6</title>
<g id="a_edge5_Node000001_Node000006"><a xlink:title=" ">
<path fill="none" stroke="#63b8ff" d="M382.29,-402.47C361.95,-392.41 339.19,-381.15 318.7,-371.02"/>
<polygon fill="#63b8ff" stroke="#63b8ff" points="380.93,-405.7 391.45,-407 384.04,-399.43 380.93,-405.7"/>
</a>
</g>
</g>
<!-- Node10 -->
<g id="Node000010" class="node">
<title>Node10</title>
<g id="a_Node000010"><a xlink:href="single__line_8hpp.html" target="_top" xlink:title=" ">
<polygon fill="white" stroke="#666666" points="563.5,-371 420.5,-371 420.5,-308 563.5,-308 563.5,-371"/>
<text text-anchor="start" x="428.5" y="-359" font-family="Helvetica,sans-Serif" font-size="10.00">/home/ffn/Workspace</text>
<text text-anchor="start" x="428.5" y="-348" font-family="Helvetica,sans-Serif" font-size="10.00">/ros2_humble_ws/src</text>
<text text-anchor="start" x="428.5" y="-337" font-family="Helvetica,sans-Serif" font-size="10.00">/III&#45;Drone&#45;Core/include</text>
<text text-anchor="start" x="428.5" y="-326" font-family="Helvetica,sans-Serif" font-size="10.00">/iii_drone_core/perception</text>
<text text-anchor="middle" x="492" y="-315" font-family="Helvetica,sans-Serif" font-size="10.00">/single_line.hpp</text>
</a>
</g>
</g>
<!-- Node1&#45;&gt;Node10 -->
<g id="edge9_Node000001_Node000010" class="edge">
<title>Node1&#45;&gt;Node10</title>
<g id="a_edge9_Node000001_Node000010"><a xlink:title=" ">
<path fill="none" stroke="#63b8ff" d="M460.55,-398.05C465.39,-389.19 470.59,-379.69 475.32,-371.02"/>
<polygon fill="#63b8ff" stroke="#63b8ff" points="457.39,-396.54 455.66,-407 463.53,-399.9 457.39,-396.54"/>
</a>
</g>
</g>
<!-- Node12 -->
<g id="Node000012" class="node">
<title>Node12</title>
<g id="a_Node000012"><a xlink:href="timestamp_8cpp.html" target="_top" xlink:title=" ">
<polygon fill="white" stroke="#666666" points="710.5,-365.5 581.5,-365.5 581.5,-313.5 710.5,-313.5 710.5,-365.5"/>
<text text-anchor="start" x="589.5" y="-353.5" font-family="Helvetica,sans-Serif" font-size="10.00">/home/ffn/Workspace</text>
<text text-anchor="start" x="589.5" y="-342.5" font-family="Helvetica,sans-Serif" font-size="10.00">/ros2_humble_ws/src</text>
<text text-anchor="start" x="589.5" y="-331.5" font-family="Helvetica,sans-Serif" font-size="10.00">/III&#45;Drone&#45;Core/src/utils</text>
<text text-anchor="middle" x="646" y="-320.5" font-family="Helvetica,sans-Serif" font-size="10.00">/timestamp.cpp</text>
</a>
</g>
</g>
<!-- Node1&#45;&gt;Node12 -->
<g id="edge12_Node000001_Node000012" class="edge">
<title>Node1&#45;&gt;Node12</title>
<g id="a_edge12_Node000001_Node000012"><a xlink:title=" ">
<path fill="none" stroke="#63b8ff" d="M507.01,-402.84C533.69,-390.87 564.29,-377.15 589.97,-365.63"/>
<polygon fill="#63b8ff" stroke="#63b8ff" points="505.44,-399.71 497.74,-407 508.3,-406.1 505.44,-399.71"/>
</a>
</g>
</g>
<!-- Node3 -->
<g id="Node000003" class="node">
<title>Node3</title>
<g id="a_Node000003"><a xlink:href="pl__mapper__node_8hpp.html" target="_top" xlink:title=" ">
<polygon fill="white" stroke="#666666" points="595.5,-162 440.5,-162 440.5,-88 595.5,-88 595.5,-162"/>
<text text-anchor="start" x="448.5" y="-150" font-family="Helvetica,sans-Serif" font-size="10.00">/home/ffn/Workspace</text>
<text text-anchor="start" x="448.5" y="-139" font-family="Helvetica,sans-Serif" font-size="10.00">/ros2_humble_ws/src</text>
<text text-anchor="start" x="448.5" y="-128" font-family="Helvetica,sans-Serif" font-size="10.00">/III&#45;Drone&#45;Core/include</text>
<text text-anchor="start" x="448.5" y="-117" font-family="Helvetica,sans-Serif" font-size="10.00">/iii_drone_core/perception</text>
<text text-anchor="start" x="448.5" y="-106" font-family="Helvetica,sans-Serif" font-size="10.00">/pl_mapper_node/pl_mapper</text>
<text text-anchor="middle" x="518" y="-95" font-family="Helvetica,sans-Serif" font-size="10.00">_node.hpp</text>
</a>
</g>
</g>
<!-- Node2&#45;&gt;Node3 -->
<g id="edge2_Node000002_Node000003" class="edge">
<title>Node2&#45;&gt;Node3</title>
<g id="a_edge2_Node000002_Node000003"><a xlink:title=" ">
<path fill="none" stroke="#63b8ff" d="M459.36,-195.59C468.55,-184.69 478.52,-172.85 487.59,-162.09"/>
<polygon fill="#63b8ff" stroke="#63b8ff" points="456.6,-193.44 452.83,-203.34 461.95,-197.95 456.6,-193.44"/>
</a>
</g>
</g>
<!-- Node5 -->
<g id="Node000005" class="node">
<title>Node5</title>
<g id="a_Node000005"><a xlink:href="powerline_8cpp.html" target="_top" xlink:title=" ">
<polygon fill="white" stroke="#666666" points="422,-151 262,-151 262,-99 422,-99 422,-151"/>
<text text-anchor="start" x="270" y="-139" font-family="Helvetica,sans-Serif" font-size="10.00">/home/ffn/Workspace</text>
<text text-anchor="start" x="270" y="-128" font-family="Helvetica,sans-Serif" font-size="10.00">/ros2_humble_ws/src</text>
<text text-anchor="start" x="270" y="-117" font-family="Helvetica,sans-Serif" font-size="10.00">/III&#45;Drone&#45;Core/src/perception</text>
<text text-anchor="middle" x="342" y="-106" font-family="Helvetica,sans-Serif" font-size="10.00">/powerline.cpp</text>
</a>
</g>
</g>
<!-- Node2&#45;&gt;Node5 -->
<g id="edge4_Node000002_Node000005" class="edge">
<title>Node2&#45;&gt;Node5</title>
<g id="a_edge4_Node000002_Node000005"><a xlink:title=" ">
<path fill="none" stroke="#63b8ff" d="M396.61,-195.39C385.07,-180.72 372.22,-164.4 361.89,-151.27"/>
<polygon fill="#63b8ff" stroke="#63b8ff" points="393.93,-197.65 402.87,-203.34 399.44,-193.32 393.93,-197.65"/>
</a>
</g>
</g>
<!-- Node4 -->
<g id="Node000004" class="node">
<title>Node4</title>
<g id="a_Node000004"><a xlink:href="pl__mapper__node_8cpp.html" target="_top" xlink:title=" ">
<polygon fill="white" stroke="#666666" points="620.5,-52 415.5,-52 415.5,0 620.5,0 620.5,-52"/>
<text text-anchor="start" x="423.5" y="-40" font-family="Helvetica,sans-Serif" font-size="10.00">/home/ffn/Workspace</text>
<text text-anchor="start" x="423.5" y="-29" font-family="Helvetica,sans-Serif" font-size="10.00">/ros2_humble_ws/src</text>
<text text-anchor="start" x="423.5" y="-18" font-family="Helvetica,sans-Serif" font-size="10.00">/III&#45;Drone&#45;Core/src/perception</text>
<text text-anchor="middle" x="518" y="-7" font-family="Helvetica,sans-Serif" font-size="10.00">/pl_mapper_node/pl_mapper_node.cpp</text>
</a>
</g>
</g>
<!-- Node3&#45;&gt;Node4 -->
<g id="edge3_Node000003_Node000004" class="edge">
<title>Node3&#45;&gt;Node4</title>
<g id="a_edge3_Node000003_Node000004"><a xlink:title=" ">
<path fill="none" stroke="#63b8ff" d="M518,-77.7C518,-68.93 518,-60.07 518,-52.26"/>
<polygon fill="#63b8ff" stroke="#63b8ff" points="514.5,-77.88 518,-87.88 521.5,-77.88 514.5,-77.88"/>
</a>
</g>
</g>
<!-- Node7 -->
<g id="Node000007" class="node">
<title>Node7</title>
<g id="a_Node000007"><a xlink:href="pl__dir__computer__node_8hpp.html" target="_top" xlink:title=" ">
<polygon fill="white" stroke="#666666" points="159,-272 1,-272 1,-198 159,-198 159,-272"/>
<text text-anchor="start" x="9" y="-260" font-family="Helvetica,sans-Serif" font-size="10.00">/home/ffn/Workspace</text>
<text text-anchor="start" x="9" y="-249" font-family="Helvetica,sans-Serif" font-size="10.00">/ros2_humble_ws/src</text>
<text text-anchor="start" x="9" y="-238" font-family="Helvetica,sans-Serif" font-size="10.00">/III&#45;Drone&#45;Core/include</text>
<text text-anchor="start" x="9" y="-227" font-family="Helvetica,sans-Serif" font-size="10.00">/iii_drone_core/perception</text>
<text text-anchor="start" x="9" y="-216" font-family="Helvetica,sans-Serif" font-size="10.00">/pl_dir_computer_node/pl_dir</text>
<text text-anchor="middle" x="80" y="-205" font-family="Helvetica,sans-Serif" font-size="10.00">_computer_node.hpp</text>
</a>
</g>
</g>
<!-- Node6&#45;&gt;Node7 -->
<g id="edge6_Node000006_Node000007" class="edge">
<title>Node6&#45;&gt;Node7</title>
<g id="a_edge6_Node000006_Node000007"><a xlink:title=" ">
<path fill="none" stroke="#63b8ff" d="M195.12,-302.66C178.04,-292.78 159.52,-282.05 142.42,-272.14"/>
<polygon fill="#63b8ff" stroke="#63b8ff" points="193.49,-305.76 203.89,-307.75 196.99,-299.71 193.49,-305.76"/>
</a>
</g>
</g>
<!-- Node9 -->
<g id="Node000009" class="node">
<title>Node9</title>
<g id="a_Node000009"><a xlink:href="powerline__direction_8cpp.html" target="_top" xlink:title=" ">
<polygon fill="white" stroke="#666666" points="337,-261 177,-261 177,-209 337,-209 337,-261"/>
<text text-anchor="start" x="185" y="-249" font-family="Helvetica,sans-Serif" font-size="10.00">/home/ffn/Workspace</text>
<text text-anchor="start" x="185" y="-238" font-family="Helvetica,sans-Serif" font-size="10.00">/ros2_humble_ws/src</text>
<text text-anchor="start" x="185" y="-227" font-family="Helvetica,sans-Serif" font-size="10.00">/III&#45;Drone&#45;Core/src/perception</text>
<text text-anchor="middle" x="257" y="-216" font-family="Helvetica,sans-Serif" font-size="10.00">/powerline_direction.cpp</text>
</a>
</g>
</g>
<!-- Node6&#45;&gt;Node9 -->
<g id="edge8_Node000006_Node000009" class="edge">
<title>Node6&#45;&gt;Node9</title>
<g id="a_edge8_Node000006_Node000009"><a xlink:title=" ">
<path fill="none" stroke="#63b8ff" d="M257,-297.67C257,-285.35 257,-272.2 257,-261.22"/>
<polygon fill="#63b8ff" stroke="#63b8ff" points="253.5,-297.75 257,-307.75 260.5,-297.75 253.5,-297.75"/>
</a>
</g>
</g>
<!-- Node8 -->
<g id="Node000008" class="node">
<title>Node8</title>
<g id="a_Node000008"><a xlink:href="pl__dir__computer__node_8cpp.html" target="_top" xlink:title=" ">
<polygon fill="white" stroke="#666666" points="160,-156.5 0,-156.5 0,-93.5 160,-93.5 160,-156.5"/>
<text text-anchor="start" x="8" y="-144.5" font-family="Helvetica,sans-Serif" font-size="10.00">/home/ffn/Workspace</text>
<text text-anchor="start" x="8" y="-133.5" font-family="Helvetica,sans-Serif" font-size="10.00">/ros2_humble_ws/src</text>
<text text-anchor="start" x="8" y="-122.5" font-family="Helvetica,sans-Serif" font-size="10.00">/III&#45;Drone&#45;Core/src/perception</text>
<text text-anchor="start" x="8" y="-111.5" font-family="Helvetica,sans-Serif" font-size="10.00">/pl_dir_computer_node/pl_dir</text>
<text text-anchor="middle" x="80" y="-100.5" font-family="Helvetica,sans-Serif" font-size="10.00">_computer_node.cpp</text>
</a>
</g>
</g>
<!-- Node7&#45;&gt;Node8 -->
<g id="edge7_Node000007_Node000008" class="edge">
<title>Node7&#45;&gt;Node8</title>
<g id="a_edge7_Node000007_Node000008"><a xlink:title=" ">
<path fill="none" stroke="#63b8ff" d="M80,-187.47C80,-177.02 80,-166.19 80,-156.58"/>
<polygon fill="#63b8ff" stroke="#63b8ff" points="76.5,-187.74 80,-197.74 83.5,-187.74 76.5,-187.74"/>
</a>
</g>
</g>
<!-- Node10&#45;&gt;Node2 -->
<g id="edge10_Node000010_Node000002" class="edge">
<title>Node10&#45;&gt;Node2</title>
<g id="a_edge10_Node000010_Node000002"><a xlink:title=" ">
<path fill="none" stroke="#63b8ff" d="M467.14,-299.3C460.3,-288.51 452.98,-276.97 446.49,-266.73"/>
<polygon fill="#63b8ff" stroke="#63b8ff" points="464.19,-301.18 472.5,-307.75 470.1,-297.43 464.19,-301.18"/>
</a>
</g>
</g>
<!-- Node11 -->
<g id="Node000011" class="node">
<title>Node11</title>
<g id="a_Node000011"><a xlink:href="single__line_8cpp.html" target="_top" xlink:title=" ">
<polygon fill="white" stroke="#666666" points="677,-261 517,-261 517,-209 677,-209 677,-261"/>
<text text-anchor="start" x="525" y="-249" font-family="Helvetica,sans-Serif" font-size="10.00">/home/ffn/Workspace</text>
<text text-anchor="start" x="525" y="-238" font-family="Helvetica,sans-Serif" font-size="10.00">/ros2_humble_ws/src</text>
<text text-anchor="start" x="525" y="-227" font-family="Helvetica,sans-Serif" font-size="10.00">/III&#45;Drone&#45;Core/src/perception</text>
<text text-anchor="middle" x="597" y="-216" font-family="Helvetica,sans-Serif" font-size="10.00">/single_line.cpp</text>
</a>
</g>
</g>
<!-- Node10&#45;&gt;Node11 -->
<g id="edge11_Node000010_Node000011" class="edge">
<title>Node10&#45;&gt;Node11</title>
<g id="a_edge11_Node000010_Node000011"><a xlink:title=" ">
<path fill="none" stroke="#63b8ff" d="M530.82,-300.6C544.28,-287.47 559.02,-273.08 571.17,-261.22"/>
<polygon fill="#63b8ff" stroke="#63b8ff" points="528.21,-298.26 523.5,-307.75 533.1,-303.27 528.21,-298.26"/>
</a>
</g>
</g>
</g>
</svg>
