<?xml version="1.0" encoding="UTF-8" standalone="no"?>
<!DOCTYPE svg PUBLIC "-//W3C//DTD SVG 1.1//EN"
 "http://www.w3.org/Graphics/SVG/1.1/DTD/svg11.dtd">
<!-- Generated by graphviz version 2.43.0 (0)
 -->
<!-- Title: /home/ffn/Workspace/ros2_humble_ws/src/III&#45;Drone&#45;Core/include/iii_drone_core/utils/token.hpp Pages: 1 -->
<!--zoomable 588 -->

<svg id="main" version="1.1" xmlns="http://www.w3.org/2000/svg" xmlns:xlink="http://www.w3.org/1999/xlink" xml:space="preserve" onload="init(evt)">
<style type="text/css"><![CDATA[
.node, .edge {opacity: 0.7;}
.node.selected, .edge.selected {opacity: 1;}
.edge:hover path { stroke: red; }
.edge:hover polygon { stroke: red; fill: red; }
]]></style>

<defs>
  <circle id="rim" cx="0" cy="0" r="7"/>
  <circle id="rim2" cx="0" cy="0" r="3.5"/>
  <g id="zoomPlus">
    <use xlink:href="#rim" fill="#404040"><set attributeName="fill" to="#808080" begin="zoomplus.mouseover" end="zoomplus.mouseout"/></use>
    <path d="M-4,0h8M0,-4v8" fill="none" stroke="white" stroke-width="1.5" pointer-events="none"/>
  </g>
  <g id="zoomMin">
    <use xlink:href="#rim" fill="#404040"><set attributeName="fill" to="#808080" begin="zoomminus.mouseover" end="zoomminus.mouseout"/></use>
    <path d="M-4,0h8" fill="none" stroke="white" stroke-width="1.5" pointer-events="none"/>
  </g>
  <g id="arrowUp" transform="translate(30 24)">
    <use xlink:href="#rim"/>
    <path pointer-events="none" fill="none" stroke="white" stroke-width="1.5" d="M0,-3.0v7 M-2.5,-0.5L0,-3.0L2.5,-0.5"/>
  </g>
  <g id="arrowRight" transform="rotate(90) translate(36 -43)">
    <use xlink:href="#rim"/>
    <path pointer-events="none" fill="none" stroke="white" stroke-width="1.5" d="M0,-3.0v7 M-2.5,-0.5L0,-3.0L2.5,-0.5"/>
  </g>
  <g id="arrowDown" transform="rotate(180) translate(-30 -48)">
    <use xlink:href="#rim"/>
    <path pointer-events="none" fill="none" stroke="white" stroke-width="1.5" d="M0,-3.0v7 M-2.5,-0.5L0,-3.0L2.5,-0.5"/>
  </g>
  <g id="arrowLeft" transform="rotate(270) translate(-36 17)">
    <use xlink:href="#rim"/>
    <path pointer-events="none" fill="none" stroke="white" stroke-width="1.5" d="M0,-3.0v7 M-2.5,-0.5L0,-3.0L2.5,-0.5"/>
  </g>
  <g id="resetDef">
    <use xlink:href="#rim2" fill="#404040"><set attributeName="fill" to="#808080" begin="reset.mouseover" end="reset.mouseout"/></use>
  </g>
</defs>
<script type="application/ecmascript">
var viewWidth = 1235;
var viewHeight = 588;
var sectionId = 'dynsection-1';
</script>
<script type="application/ecmascript" xlink:href="svg.min.js"/>
<svg id="graph" class="graph">
<g id="viewport">
<title>/home/ffn/Workspace/ros2_humble_ws/src/III&#45;Drone&#45;Core/include/iii_drone_core/utils/token.hpp</title>
<!-- Node1 -->
<g id="Node000001" class="node">
<title>Node1</title>
<g id="a_Node000001"><a xlink:title=" ">
<polygon fill="#999999" stroke="#666666" points="583,-580 420,-580 420,-528 583,-528 583,-580"/>
<text text-anchor="start" x="428" y="-568" font-family="Helvetica,sans-Serif" font-size="10.00">/home/ffn/Workspace</text>
<text text-anchor="start" x="428" y="-557" font-family="Helvetica,sans-Serif" font-size="10.00">/ros2_humble_ws/src</text>
<text text-anchor="start" x="428" y="-546" font-family="Helvetica,sans-Serif" font-size="10.00">/III&#45;Drone&#45;Core/include</text>
<text text-anchor="middle" x="501.5" y="-535" font-family="Helvetica,sans-Serif" font-size="10.00">/iii_drone_core/utils/token.hpp</text>
</a>
</g>
</g>
<!-- Node2 -->
<g id="Node000002" class="node">
<title>Node2</title>
<g id="a_Node000002"><a xlink:href="maneuver__scheduler_8hpp.html" target="_top" xlink:title=" ">
<polygon fill="white" stroke="#666666" points="566.5,-277.5 372.5,-277.5 372.5,-214.5 566.5,-214.5 566.5,-277.5"/>
<text text-anchor="start" x="380.5" y="-265.5" font-family="Helvetica,sans-Serif" font-size="10.00">/home/ffn/Workspace</text>
<text text-anchor="start" x="380.5" y="-254.5" font-family="Helvetica,sans-Serif" font-size="10.00">/ros2_humble_ws/src</text>
<text text-anchor="start" x="380.5" y="-243.5" font-family="Helvetica,sans-Serif" font-size="10.00">/III&#45;Drone&#45;Core/include</text>
<text text-anchor="start" x="380.5" y="-232.5" font-family="Helvetica,sans-Serif" font-size="10.00">/iii_drone_core/control</text>
<text text-anchor="middle" x="469.5" y="-221.5" font-family="Helvetica,sans-Serif" font-size="10.00">/maneuver/maneuver_scheduler.hpp</text>
</a>
</g>
</g>
<!-- Node1&#45;&gt;Node2 -->
<g id="edge1_Node000001_Node000002" class="edge">
<title>Node1&#45;&gt;Node2</title>
<g id="a_edge1_Node000001_Node000002"><a xlink:title=" ">
<path fill="none" stroke="#63b8ff" d="M468.13,-520.73C439.69,-490.73 400.9,-443.21 384.5,-393 374.29,-361.74 370.67,-348.84 384.5,-319 392.06,-302.68 405.35,-288.72 419.2,-277.55"/>
<polygon fill="#63b8ff" stroke="#63b8ff" points="465.66,-523.21 475.12,-527.98 470.7,-518.35 465.66,-523.21"/>
</a>
</g>
</g>
<!-- Node7 -->
<g id="Node000007" class="node">
<title>Node7</title>
<g id="a_Node000007"><a xlink:href="maneuver__server_8hpp.html" target="_top" xlink:title=" ">
<polygon fill="white" stroke="#666666" points="764.5,-492 586.5,-492 586.5,-429 764.5,-429 764.5,-492"/>
<text text-anchor="start" x="594.5" y="-480" font-family="Helvetica,sans-Serif" font-size="10.00">/home/ffn/Workspace</text>
<text text-anchor="start" x="594.5" y="-469" font-family="Helvetica,sans-Serif" font-size="10.00">/ros2_humble_ws/src</text>
<text text-anchor="start" x="594.5" y="-458" font-family="Helvetica,sans-Serif" font-size="10.00">/III&#45;Drone&#45;Core/include</text>
<text text-anchor="start" x="594.5" y="-447" font-family="Helvetica,sans-Serif" font-size="10.00">/iii_drone_core/control</text>
<text text-anchor="middle" x="675.5" y="-436" font-family="Helvetica,sans-Serif" font-size="10.00">/maneuver/maneuver_server.hpp</text>
</a>
</g>
</g>
<!-- Node1&#45;&gt;Node7 -->
<g id="edge6_Node000001_Node000007" class="edge">
<title>Node1&#45;&gt;Node7</title>
<g id="a_edge6_Node000001_Node000007"><a xlink:title=" ">
<path fill="none" stroke="#63b8ff" d="M557.92,-523.33C576.98,-513.31 598.29,-502.1 617.47,-492.02"/>
<polygon fill="#63b8ff" stroke="#63b8ff" points="556.27,-520.25 549.05,-528 559.53,-526.44 556.27,-520.25"/>
</a>
</g>
</g>
<!-- Node3 -->
<g id="Node000003" class="node">
<title>Node3</title>
<g id="a_Node000003"><a xlink:href="flight__controller__node_8hpp.html" target="_top" xlink:title=" ">
<polygon fill="white" stroke="#666666" points="565.5,-173 419.5,-173 419.5,-99 565.5,-99 565.5,-173"/>
<text text-anchor="start" x="427.5" y="-161" font-family="Helvetica,sans-Serif" font-size="10.00">/home/ffn/Workspace</text>
<text text-anchor="start" x="427.5" y="-150" font-family="Helvetica,sans-Serif" font-size="10.00">/ros2_humble_ws/src</text>
<text text-anchor="start" x="427.5" y="-139" font-family="Helvetica,sans-Serif" font-size="10.00">/III&#45;Drone&#45;Core/include</text>
<text text-anchor="start" x="427.5" y="-128" font-family="Helvetica,sans-Serif" font-size="10.00">/iii_drone_core/control</text>
<text text-anchor="start" x="427.5" y="-117" font-family="Helvetica,sans-Serif" font-size="10.00">/_flight_controller_node</text>
<text text-anchor="middle" x="492.5" y="-106" font-family="Helvetica,sans-Serif" font-size="10.00">/flight_controller_node.hpp</text>
</a>
</g>
</g>
<!-- Node2&#45;&gt;Node3 -->
<g id="edge2_Node000002_Node000003" class="edge">
<title>Node2&#45;&gt;Node3</title>
<g id="a_edge2_Node000002_Node000003"><a xlink:title=" ">
<path fill="none" stroke="#63b8ff" d="M478.16,-204.36C480.34,-194.08 482.68,-183.12 484.81,-173.09"/>
<polygon fill="#63b8ff" stroke="#63b8ff" points="474.69,-203.83 476.03,-214.34 481.54,-205.29 474.69,-203.83"/>
</a>
</g>
</g>
<!-- Node4 -->
<g id="Node000004" class="node">
<title>Node4</title>
<g id="a_Node000004"><a xlink:href="maneuver__controller__node_8hpp.html" target="_top" xlink:title=" ">
<polygon fill="white" stroke="#666666" points="755,-173 584,-173 584,-99 755,-99 755,-173"/>
<text text-anchor="start" x="592" y="-161" font-family="Helvetica,sans-Serif" font-size="10.00">/home/ffn/Workspace</text>
<text text-anchor="start" x="592" y="-150" font-family="Helvetica,sans-Serif" font-size="10.00">/ros2_humble_ws/src</text>
<text text-anchor="start" x="592" y="-139" font-family="Helvetica,sans-Serif" font-size="10.00">/III&#45;Drone&#45;Core/include</text>
<text text-anchor="start" x="592" y="-128" font-family="Helvetica,sans-Serif" font-size="10.00">/iii_drone_core/control</text>
<text text-anchor="start" x="592" y="-117" font-family="Helvetica,sans-Serif" font-size="10.00">/maneuver_controller_node</text>
<text text-anchor="middle" x="669.5" y="-106" font-family="Helvetica,sans-Serif" font-size="10.00">/maneuver_controller_node.hpp</text>
</a>
</g>
</g>
<!-- Node2&#45;&gt;Node4 -->
<g id="edge3_Node000002_Node000004" class="edge">
<title>Node2&#45;&gt;Node4</title>
<g id="a_edge3_Node000002_Node000004"><a xlink:title=" ">
<path fill="none" stroke="#63b8ff" d="M534.82,-209.73C556.51,-198.01 580.69,-184.96 602.5,-173.18"/>
<polygon fill="#63b8ff" stroke="#63b8ff" points="533.15,-206.65 526.01,-214.48 536.47,-212.81 533.15,-206.65"/>
</a>
</g>
</g>
<!-- Node6 -->
<g id="Node000006" class="node">
<title>Node6</title>
<g id="a_Node000006"><a xlink:href="maneuver__scheduler_8cpp.html" target="_top" xlink:title=" ">
<polygon fill="white" stroke="#666666" points="401.5,-162 207.5,-162 207.5,-110 401.5,-110 401.5,-162"/>
<text text-anchor="start" x="215.5" y="-150" font-family="Helvetica,sans-Serif" font-size="10.00">/home/ffn/Workspace</text>
<text text-anchor="start" x="215.5" y="-139" font-family="Helvetica,sans-Serif" font-size="10.00">/ros2_humble_ws/src</text>
<text text-anchor="start" x="215.5" y="-128" font-family="Helvetica,sans-Serif" font-size="10.00">/III&#45;Drone&#45;Core/src/control</text>
<text text-anchor="middle" x="304.5" y="-117" font-family="Helvetica,sans-Serif" font-size="10.00">/maneuver/maneuver_scheduler.cpp</text>
</a>
</g>
</g>
<!-- Node2&#45;&gt;Node6 -->
<g id="edge5_Node000002_Node000006" class="edge">
<title>Node2&#45;&gt;Node6</title>
<g id="a_edge5_Node000002_Node000006"><a xlink:title=" ">
<path fill="none" stroke="#63b8ff" d="M414.19,-208.8C390.76,-193.46 364.04,-175.97 342.84,-162.09"/>
<polygon fill="#63b8ff" stroke="#63b8ff" points="412.38,-211.79 422.66,-214.34 416.21,-205.94 412.38,-211.79"/>
</a>
</g>
</g>
<!-- Node5 -->
<g id="Node000005" class="node">
<title>Node5</title>
<g id="a_Node000005"><a xlink:href="maneuver__controller__node_8cpp.html" target="_top" xlink:title=" ">
<polygon fill="white" stroke="#666666" points="754.5,-63 584.5,-63 584.5,0 754.5,0 754.5,-63"/>
<text text-anchor="start" x="592.5" y="-51" font-family="Helvetica,sans-Serif" font-size="10.00">/home/ffn/Workspace</text>
<text text-anchor="start" x="592.5" y="-40" font-family="Helvetica,sans-Serif" font-size="10.00">/ros2_humble_ws/src</text>
<text text-anchor="start" x="592.5" y="-29" font-family="Helvetica,sans-Serif" font-size="10.00">/III&#45;Drone&#45;Core/src/control</text>
<text text-anchor="start" x="592.5" y="-18" font-family="Helvetica,sans-Serif" font-size="10.00">/maneuver_controller_node</text>
<text text-anchor="middle" x="669.5" y="-7" font-family="Helvetica,sans-Serif" font-size="10.00">/maneuver_controller_node.cpp</text>
</a>
</g>
</g>
<!-- Node4&#45;&gt;Node5 -->
<g id="edge4_Node000004_Node000005" class="edge">
<title>Node4&#45;&gt;Node5</title>
<g id="a_edge4_Node000004_Node000005"><a xlink:title=" ">
<path fill="none" stroke="#63b8ff" d="M669.5,-88.83C669.5,-80.15 669.5,-71.28 669.5,-63.22"/>
<polygon fill="#63b8ff" stroke="#63b8ff" points="666,-88.86 669.5,-98.86 673,-88.86 666,-88.86"/>
</a>
</g>
</g>
<!-- Node7&#45;&gt;Node2 -->
<g id="edge27_Node000007_Node000002" class="edge">
<title>Node7&#45;&gt;Node2</title>
<g id="a_edge27_Node000007_Node000002"><a xlink:title=" ">
<path fill="none" stroke="#63b8ff" d="M622.1,-422.26C611.53,-413.42 601.06,-403.48 592.5,-393 569.11,-364.37 577.49,-347.95 554.5,-319 542.47,-303.86 526.87,-289.56 512.32,-277.75"/>
<polygon fill="#63b8ff" stroke="#63b8ff" points="620.21,-425.22 630.18,-428.79 624.61,-419.78 620.21,-425.22"/>
</a>
</g>
</g>
<!-- Node7&#45;&gt;Node4 -->
<g id="edge28_Node000007_Node000004" class="edge">
<title>Node7&#45;&gt;Node4</title>
<g id="a_edge28_Node000007_Node000004"><a xlink:title=" ">
<path fill="none" stroke="#63b8ff" d="M774.67,-447.91C824.79,-438.68 884.91,-422.22 932.5,-393 988.05,-358.89 1006.46,-343.97 1029.5,-283 1041.13,-252.23 1050.35,-234.43 1029.5,-209 995.51,-167.53 850.69,-149.47 755.41,-141.96"/>
<polygon fill="#63b8ff" stroke="#63b8ff" points="774.02,-444.47 764.79,-449.66 775.24,-451.36 774.02,-444.47"/>
</a>
</g>
</g>
<!-- Node8 -->
<g id="Node000008" class="node">
<title>Node8</title>
<g id="a_Node000008"><a xlink:href="fly__to__object__maneuver__server_8hpp.html" target="_top" xlink:title=" ">
<polygon fill="white" stroke="#666666" points="184.5,-283 50.5,-283 50.5,-209 184.5,-209 184.5,-283"/>
<text text-anchor="start" x="58.5" y="-271" font-family="Helvetica,sans-Serif" font-size="10.00">/home/ffn/Workspace</text>
<text text-anchor="start" x="58.5" y="-260" font-family="Helvetica,sans-Serif" font-size="10.00">/ros2_humble_ws/src</text>
<text text-anchor="start" x="58.5" y="-249" font-family="Helvetica,sans-Serif" font-size="10.00">/III&#45;Drone&#45;Core/include</text>
<text text-anchor="start" x="58.5" y="-238" font-family="Helvetica,sans-Serif" font-size="10.00">/iii_drone_core/control</text>
<text text-anchor="start" x="58.5" y="-227" font-family="Helvetica,sans-Serif" font-size="10.00">/maneuver/fly_to_object</text>
<text text-anchor="middle" x="117.5" y="-216" font-family="Helvetica,sans-Serif" font-size="10.00">_maneuver_server.hpp</text>
</a>
</g>
</g>
<!-- Node7&#45;&gt;Node8 -->
<g id="edge7_Node000007_Node000008" class="edge">
<title>Node7&#45;&gt;Node8</title>
<g id="a_edge7_Node000007_Node000008"><a xlink:title=" ">
<path fill="none" stroke="#63b8ff" d="M576.28,-443.85C519.07,-433.1 446.44,-416.49 384.5,-393 307.44,-363.77 225.15,-315.95 172.62,-283.05"/>
<polygon fill="#63b8ff" stroke="#63b8ff" points="575.94,-447.35 586.41,-445.72 577.22,-440.46 575.94,-447.35"/>
</a>
</g>
</g>
<!-- Node10 -->
<g id="Node000010" class="node">
<title>Node10</title>
<g id="a_Node000010"><a xlink:href="fly__to__position__maneuver__server_8hpp.html" target="_top" xlink:title=" ">
<polygon fill="white" stroke="#666666" points="1220,-283 1077,-283 1077,-209 1220,-209 1220,-283"/>
<text text-anchor="start" x="1085" y="-271" font-family="Helvetica,sans-Serif" font-size="10.00">/home/ffn/Workspace</text>
<text text-anchor="start" x="1085" y="-260" font-family="Helvetica,sans-Serif" font-size="10.00">/ros2_humble_ws/src</text>
<text text-anchor="start" x="1085" y="-249" font-family="Helvetica,sans-Serif" font-size="10.00">/III&#45;Drone&#45;Core/include</text>
<text text-anchor="start" x="1085" y="-238" font-family="Helvetica,sans-Serif" font-size="10.00">/iii_drone_core/control</text>
<text text-anchor="start" x="1085" y="-227" font-family="Helvetica,sans-Serif" font-size="10.00">/maneuver/fly_to_position</text>
<text text-anchor="middle" x="1148.5" y="-216" font-family="Helvetica,sans-Serif" font-size="10.00">_maneuver_server.hpp</text>
</a>
</g>
</g>
<!-- Node7&#45;&gt;Node10 -->
<g id="edge10_Node000007_Node000010" class="edge">
<title>Node7&#45;&gt;Node10</title>
<g id="a_edge10_Node000007_Node000010"><a xlink:title=" ">
<path fill="none" stroke="#63b8ff" d="M775.17,-454.21C922.72,-445.35 1185,-425.23 1213.5,-393 1235.28,-368.36 1225.31,-349.7 1213.5,-319 1208.48,-305.95 1199.89,-293.8 1190.56,-283.33"/>
<polygon fill="#63b8ff" stroke="#63b8ff" points="774.53,-450.74 764.75,-454.83 774.94,-457.73 774.53,-450.74"/>
</a>
</g>
</g>
<!-- Node12 -->
<g id="Node000012" class="node">
<title>Node12</title>
<g id="a_Node000012"><a xlink:href="hover__by__object__maneuver__server_8hpp.html" target="_top" xlink:title=" ">
<polygon fill="white" stroke="#666666" points="545.5,-393 393.5,-393 393.5,-319 545.5,-319 545.5,-393"/>
<text text-anchor="start" x="401.5" y="-381" font-family="Helvetica,sans-Serif" font-size="10.00">/home/ffn/Workspace</text>
<text text-anchor="start" x="401.5" y="-370" font-family="Helvetica,sans-Serif" font-size="10.00">/ros2_humble_ws/src</text>
<text text-anchor="start" x="401.5" y="-359" font-family="Helvetica,sans-Serif" font-size="10.00">/III&#45;Drone&#45;Core/include</text>
<text text-anchor="start" x="401.5" y="-348" font-family="Helvetica,sans-Serif" font-size="10.00">/iii_drone_core/control</text>
<text text-anchor="start" x="401.5" y="-337" font-family="Helvetica,sans-Serif" font-size="10.00">/maneuver/hover_by_object</text>
<text text-anchor="middle" x="469.5" y="-326" font-family="Helvetica,sans-Serif" font-size="10.00">_maneuver_server.hpp</text>
</a>
</g>
</g>
<!-- Node7&#45;&gt;Node12 -->
<g id="edge13_Node000007_Node000012" class="edge">
<title>Node7&#45;&gt;Node12</title>
<g id="a_edge13_Node000007_Node000012"><a xlink:title=" ">
<path fill="none" stroke="#63b8ff" d="M604.79,-424.32C584.5,-414.22 562.35,-403.2 541.95,-393.05"/>
<polygon fill="#63b8ff" stroke="#63b8ff" points="603.46,-427.56 613.97,-428.89 606.58,-421.3 603.46,-427.56"/>
</a>
</g>
</g>
<!-- Node14 -->
<g id="Node000014" class="node">
<title>Node14</title>
<g id="a_Node000014"><a xlink:href="hover__maneuver__server_8hpp.html" target="_top" xlink:title=" ">
<polygon fill="white" stroke="#666666" points="923,-393 768,-393 768,-319 923,-319 923,-393"/>
<text text-anchor="start" x="776" y="-381" font-family="Helvetica,sans-Serif" font-size="10.00">/home/ffn/Workspace</text>
<text text-anchor="start" x="776" y="-370" font-family="Helvetica,sans-Serif" font-size="10.00">/ros2_humble_ws/src</text>
<text text-anchor="start" x="776" y="-359" font-family="Helvetica,sans-Serif" font-size="10.00">/III&#45;Drone&#45;Core/include</text>
<text text-anchor="start" x="776" y="-348" font-family="Helvetica,sans-Serif" font-size="10.00">/iii_drone_core/control</text>
<text text-anchor="start" x="776" y="-337" font-family="Helvetica,sans-Serif" font-size="10.00">/maneuver/hover_maneuver</text>
<text text-anchor="middle" x="845.5" y="-326" font-family="Helvetica,sans-Serif" font-size="10.00">_server.hpp</text>
</a>
</g>
</g>
<!-- Node7&#45;&gt;Node14 -->
<g id="edge18_Node000007_Node000014" class="edge">
<title>Node7&#45;&gt;Node14</title>
<g id="a_edge18_Node000007_Node000014"><a xlink:title=" ">
<path fill="none" stroke="#63b8ff" d="M735.39,-423.39C751.66,-413.58 769.28,-402.96 785.55,-393.14"/>
<polygon fill="#63b8ff" stroke="#63b8ff" points="733.26,-420.59 726.51,-428.75 736.88,-426.58 733.26,-420.59"/>
</a>
</g>
</g>
<!-- Node16 -->
<g id="Node000016" class="node">
<title>Node16</title>
<g id="a_Node000016"><a xlink:href="hover__on__cable__maneuver__server_8hpp.html" target="_top" xlink:title=" ">
<polygon fill="white" stroke="#666666" points="750,-393 601,-393 601,-319 750,-319 750,-393"/>
<text text-anchor="start" x="609" y="-381" font-family="Helvetica,sans-Serif" font-size="10.00">/home/ffn/Workspace</text>
<text text-anchor="start" x="609" y="-370" font-family="Helvetica,sans-Serif" font-size="10.00">/ros2_humble_ws/src</text>
<text text-anchor="start" x="609" y="-359" font-family="Helvetica,sans-Serif" font-size="10.00">/III&#45;Drone&#45;Core/include</text>
<text text-anchor="start" x="609" y="-348" font-family="Helvetica,sans-Serif" font-size="10.00">/iii_drone_core/control</text>
<text text-anchor="start" x="609" y="-337" font-family="Helvetica,sans-Serif" font-size="10.00">/maneuver/hover_on_cable</text>
<text text-anchor="middle" x="675.5" y="-326" font-family="Helvetica,sans-Serif" font-size="10.00">_maneuver_server.hpp</text>
</a>
</g>
</g>
<!-- Node7&#45;&gt;Node16 -->
<g id="edge23_Node000007_Node000016" class="edge">
<title>Node7&#45;&gt;Node16</title>
<g id="a_edge23_Node000007_Node000016"><a xlink:title=" ">
<path fill="none" stroke="#63b8ff" d="M675.5,-418.7C675.5,-410.26 675.5,-401.41 675.5,-393.14"/>
<polygon fill="#63b8ff" stroke="#63b8ff" points="672,-418.75 675.5,-428.75 679,-418.75 672,-418.75"/>
</a>
</g>
</g>
<!-- Node18 -->
<g id="Node000018" class="node">
<title>Node18</title>
<g id="a_Node000018"><a xlink:href="maneuver__server_8cpp.html" target="_top" xlink:title=" ">
<polygon fill="white" stroke="#666666" points="1204,-382 1027,-382 1027,-330 1204,-330 1204,-382"/>
<text text-anchor="start" x="1035" y="-370" font-family="Helvetica,sans-Serif" font-size="10.00">/home/ffn/Workspace</text>
<text text-anchor="start" x="1035" y="-359" font-family="Helvetica,sans-Serif" font-size="10.00">/ros2_humble_ws/src</text>
<text text-anchor="start" x="1035" y="-348" font-family="Helvetica,sans-Serif" font-size="10.00">/III&#45;Drone&#45;Core/src/control</text>
<text text-anchor="middle" x="1115.5" y="-337" font-family="Helvetica,sans-Serif" font-size="10.00">/maneuver/maneuver_server.cpp</text>
</a>
</g>
</g>
<!-- Node7&#45;&gt;Node18 -->
<g id="edge29_Node000007_Node000018" class="edge">
<title>Node7&#45;&gt;Node18</title>
<g id="a_edge29_Node000007_Node000018"><a xlink:title=" ">
<path fill="none" stroke="#63b8ff" d="M774.81,-443.87C842.63,-432.24 934.21,-414.67 1013.5,-393 1025.09,-389.83 1037.27,-386 1049,-382.03"/>
<polygon fill="#63b8ff" stroke="#63b8ff" points="773.83,-440.48 764.56,-445.61 775.01,-447.38 773.83,-440.48"/>
</a>
</g>
</g>
<!-- Node8&#45;&gt;Node4 -->
<g id="edge8_Node000008_Node000004" class="edge">
<title>Node8&#45;&gt;Node4</title>
<g id="a_edge8_Node000008_Node000004"><a xlink:title=" ">
<path fill="none" stroke="#63b8ff" d="M194.57,-209.05C359.55,-165.74 412.06,-210.73 574.5,-173 577.59,-172.28 580.72,-171.49 583.86,-170.63"/>
<polygon fill="#63b8ff" stroke="#63b8ff" points="193.32,-205.76 184.58,-211.74 195.14,-212.52 193.32,-205.76"/>
</a>
</g>
</g>
<!-- Node9 -->
<g id="Node000009" class="node">
<title>Node9</title>
<g id="a_Node000009"><a xlink:href="fly__to__object__maneuver__server_8cpp.html" target="_top" xlink:title=" ">
<polygon fill="white" stroke="#666666" points="189,-167.5 0,-167.5 0,-104.5 189,-104.5 189,-167.5"/>
<text text-anchor="start" x="8" y="-155.5" font-family="Helvetica,sans-Serif" font-size="10.00">/home/ffn/Workspace</text>
<text text-anchor="start" x="8" y="-144.5" font-family="Helvetica,sans-Serif" font-size="10.00">/ros2_humble_ws/src</text>
<text text-anchor="start" x="8" y="-133.5" font-family="Helvetica,sans-Serif" font-size="10.00">/III&#45;Drone&#45;Core/src/control</text>
<text text-anchor="start" x="8" y="-122.5" font-family="Helvetica,sans-Serif" font-size="10.00">/maneuver/fly_to_object_maneuver</text>
<text text-anchor="middle" x="94.5" y="-111.5" font-family="Helvetica,sans-Serif" font-size="10.00">_server.cpp</text>
</a>
</g>
</g>
<!-- Node8&#45;&gt;Node9 -->
<g id="edge9_Node000008_Node000009" class="edge">
<title>Node8&#45;&gt;Node9</title>
<g id="a_edge9_Node000008_Node000009"><a xlink:title=" ">
<path fill="none" stroke="#63b8ff" d="M107.66,-198.8C105.41,-188.25 103.08,-177.29 101.01,-167.58"/>
<polygon fill="#63b8ff" stroke="#63b8ff" points="104.27,-199.69 109.78,-208.74 111.12,-198.23 104.27,-199.69"/>
</a>
</g>
</g>
<!-- Node10&#45;&gt;Node4 -->
<g id="edge11_Node000010_Node000004" class="edge">
<title>Node10&#45;&gt;Node4</title>
<g id="a_edge11_Node000010_Node000004"><a xlink:title=" ">
<path fill="none" stroke="#63b8ff" d="M1066.89,-210.34C1065.42,-209.88 1063.95,-209.43 1062.5,-209 958.77,-178.18 835.53,-158.19 755.07,-147.27"/>
<polygon fill="#63b8ff" stroke="#63b8ff" points="1066.06,-213.76 1076.65,-213.6 1068.27,-207.12 1066.06,-213.76"/>
</a>
</g>
</g>
<!-- Node11 -->
<g id="Node000011" class="node">
<title>Node11</title>
<g id="a_Node000011"><a xlink:href="fly__to__position__maneuver__server_8cpp.html" target="_top" xlink:title=" ">
<polygon fill="white" stroke="#666666" points="1220,-167.5 1077,-167.5 1077,-104.5 1220,-104.5 1220,-167.5"/>
<text text-anchor="start" x="1085" y="-155.5" font-family="Helvetica,sans-Serif" font-size="10.00">/home/ffn/Workspace</text>
<text text-anchor="start" x="1085" y="-144.5" font-family="Helvetica,sans-Serif" font-size="10.00">/ros2_humble_ws/src</text>
<text text-anchor="start" x="1085" y="-133.5" font-family="Helvetica,sans-Serif" font-size="10.00">/III&#45;Drone&#45;Core/src/control</text>
<text text-anchor="start" x="1085" y="-122.5" font-family="Helvetica,sans-Serif" font-size="10.00">/maneuver/fly_to_position</text>
<text text-anchor="middle" x="1148.5" y="-111.5" font-family="Helvetica,sans-Serif" font-size="10.00">_maneuver_server.cpp</text>
</a>
</g>
</g>
<!-- Node10&#45;&gt;Node11 -->
<g id="edge12_Node000010_Node000011" class="edge">
<title>Node10&#45;&gt;Node11</title>
<g id="a_edge12_Node000010_Node000011"><a xlink:title=" ">
<path fill="none" stroke="#63b8ff" d="M1148.5,-198.47C1148.5,-188.02 1148.5,-177.19 1148.5,-167.58"/>
<polygon fill="#63b8ff" stroke="#63b8ff" points="1145,-198.74 1148.5,-208.74 1152,-198.74 1145,-198.74"/>
</a>
</g>
</g>
<!-- Node12&#45;&gt;Node2 -->
<g id="edge15_Node000012_Node000002" class="edge">
<title>Node12&#45;&gt;Node2</title>
<g id="a_edge15_Node000012_Node000002"><a xlink:title=" ">
<path fill="none" stroke="#63b8ff" d="M469.5,-308.47C469.5,-298.02 469.5,-287.19 469.5,-277.58"/>
<polygon fill="#63b8ff" stroke="#63b8ff" points="466,-308.74 469.5,-318.74 473,-308.74 466,-308.74"/>
</a>
</g>
</g>
<!-- Node12&#45;&gt;Node4 -->
<g id="edge16_Node000012_Node000004" class="edge">
<title>Node12&#45;&gt;Node4</title>
<g id="a_edge16_Node000012_Node000004"><a xlink:title=" ">
<path fill="none" stroke="#63b8ff" d="M539.9,-313.09C552.47,-304.01 564.92,-293.84 575.5,-283 607.61,-250.09 634.82,-204.58 651.57,-173.16"/>
<polygon fill="#63b8ff" stroke="#63b8ff" points="537.8,-310.29 531.63,-318.9 541.83,-316.02 537.8,-310.29"/>
</a>
</g>
</g>
<!-- Node12&#45;&gt;Node8 -->
<g id="edge14_Node000012_Node000008" class="edge">
<title>Node12&#45;&gt;Node8</title>
<g id="a_edge14_Node000012_Node000008"><a xlink:title=" ">
<path fill="none" stroke="#63b8ff" d="M383.33,-320.15C382.05,-319.76 380.77,-319.37 379.5,-319 298.72,-295.26 273.51,-309.23 193.5,-283 190.59,-282.04 187.64,-281 184.68,-279.9"/>
<polygon fill="#63b8ff" stroke="#63b8ff" points="382.66,-323.61 393.25,-323.36 384.81,-316.95 382.66,-323.61"/>
</a>
</g>
</g>
<!-- Node13 -->
<g id="Node000013" class="node">
<title>Node13</title>
<g id="a_Node000013"><a xlink:href="hover__by__object__maneuver__server_8cpp.html" target="_top" xlink:title=" ">
<polygon fill="white" stroke="#666666" points="354.5,-277.5 202.5,-277.5 202.5,-214.5 354.5,-214.5 354.5,-277.5"/>
<text text-anchor="start" x="210.5" y="-265.5" font-family="Helvetica,sans-Serif" font-size="10.00">/home/ffn/Workspace</text>
<text text-anchor="start" x="210.5" y="-254.5" font-family="Helvetica,sans-Serif" font-size="10.00">/ros2_humble_ws/src</text>
<text text-anchor="start" x="210.5" y="-243.5" font-family="Helvetica,sans-Serif" font-size="10.00">/III&#45;Drone&#45;Core/src/control</text>
<text text-anchor="start" x="210.5" y="-232.5" font-family="Helvetica,sans-Serif" font-size="10.00">/maneuver/hover_by_object</text>
<text text-anchor="middle" x="278.5" y="-221.5" font-family="Helvetica,sans-Serif" font-size="10.00">_maneuver_server.cpp</text>
</a>
</g>
</g>
<!-- Node12&#45;&gt;Node13 -->
<g id="edge17_Node000012_Node000013" class="edge">
<title>Node12&#45;&gt;Node13</title>
<g id="a_edge17_Node000012_Node000013"><a xlink:title=" ">
<path fill="none" stroke="#63b8ff" d="M396.65,-313.8C375.41,-301.8 352.6,-288.9 332.73,-277.66"/>
<polygon fill="#63b8ff" stroke="#63b8ff" points="395.21,-317.01 405.63,-318.89 398.65,-310.92 395.21,-317.01"/>
</a>
</g>
</g>
<!-- Node14&#45;&gt;Node2 -->
<g id="edge20_Node000014_Node000002" class="edge">
<title>Node14&#45;&gt;Node2</title>
<g id="a_edge20_Node000014_Node000002"><a xlink:title=" ">
<path fill="none" stroke="#63b8ff" d="M758.22,-318.71C689.71,-296.43 620.85,-279.4 566.56,-267.19"/>
<polygon fill="#63b8ff" stroke="#63b8ff" points="757.29,-322.08 767.89,-321.88 759.48,-315.43 757.29,-322.08"/>
</a>
</g>
</g>
<!-- Node14&#45;&gt;Node4 -->
<g id="edge21_Node000014_Node000004" class="edge">
<title>Node14&#45;&gt;Node4</title>
<g id="a_edge21_Node000014_Node000004"><a xlink:title=" ">
<path fill="none" stroke="#63b8ff" d="M847.34,-308.81C846.27,-277.71 840.13,-237.35 818.5,-209 802.55,-188.1 778.97,-172.94 755.25,-162.09"/>
<polygon fill="#63b8ff" stroke="#63b8ff" points="843.84,-309.03 847.52,-318.97 850.84,-308.9 843.84,-309.03"/>
</a>
</g>
</g>
<!-- Node14&#45;&gt;Node10 -->
<g id="edge19_Node000014_Node000010" class="edge">
<title>Node14&#45;&gt;Node10</title>
<g id="a_edge19_Node000014_Node000010"><a xlink:title=" ">
<path fill="none" stroke="#63b8ff" d="M932.73,-323.91C978.4,-307.63 1033.63,-287.94 1076.78,-272.56"/>
<polygon fill="#63b8ff" stroke="#63b8ff" points="931.38,-320.67 923.14,-327.33 933.73,-327.27 931.38,-320.67"/>
</a>
</g>
</g>
<!-- Node15 -->
<g id="Node000015" class="node">
<title>Node15</title>
<g id="a_Node000015"><a xlink:href="hover__maneuver__server_8cpp.html" target="_top" xlink:title=" ">
<polygon fill="white" stroke="#666666" points="1020,-277.5 865,-277.5 865,-214.5 1020,-214.5 1020,-277.5"/>
<text text-anchor="start" x="873" y="-265.5" font-family="Helvetica,sans-Serif" font-size="10.00">/home/ffn/Workspace</text>
<text text-anchor="start" x="873" y="-254.5" font-family="Helvetica,sans-Serif" font-size="10.00">/ros2_humble_ws/src</text>
<text text-anchor="start" x="873" y="-243.5" font-family="Helvetica,sans-Serif" font-size="10.00">/III&#45;Drone&#45;Core/src/control</text>
<text text-anchor="start" x="873" y="-232.5" font-family="Helvetica,sans-Serif" font-size="10.00">/maneuver/hover_maneuver</text>
<text text-anchor="middle" x="942.5" y="-221.5" font-family="Helvetica,sans-Serif" font-size="10.00">_server.cpp</text>
</a>
</g>
</g>
<!-- Node14&#45;&gt;Node15 -->
<g id="edge22_Node000014_Node000015" class="edge">
<title>Node14&#45;&gt;Node15</title>
<g id="a_edge22_Node000014_Node000015"><a xlink:title=" ">
<path fill="none" stroke="#63b8ff" d="M884.95,-311.08C895.05,-299.83 905.69,-287.99 915.03,-277.58"/>
<polygon fill="#63b8ff" stroke="#63b8ff" points="882.15,-308.96 878.07,-318.74 887.36,-313.64 882.15,-308.96"/>
</a>
</g>
</g>
<!-- Node16&#45;&gt;Node2 -->
<g id="edge24_Node000016_Node000002" class="edge">
<title>Node16&#45;&gt;Node2</title>
<g id="a_edge24_Node000016_Node000002"><a xlink:title=" ">
<path fill="none" stroke="#63b8ff" d="M597.54,-314.13C574.46,-302.03 549.61,-289 527.99,-277.66"/>
<polygon fill="#63b8ff" stroke="#63b8ff" points="596.14,-317.34 606.62,-318.89 599.39,-311.14 596.14,-317.34"/>
</a>
</g>
</g>
<!-- Node16&#45;&gt;Node4 -->
<g id="edge25_Node000016_Node000004" class="edge">
<title>Node16&#45;&gt;Node4</title>
<g id="a_edge25_Node000016_Node000004"><a xlink:title=" ">
<path fill="none" stroke="#63b8ff" d="M657.87,-309.4C655.22,-300.76 652.91,-291.69 651.5,-283 646.23,-250.54 647.48,-241.64 651.5,-209 652.95,-197.23 655.68,-184.63 658.59,-173.3"/>
<polygon fill="#63b8ff" stroke="#63b8ff" points="654.55,-310.51 660.96,-318.94 661.2,-308.35 654.55,-310.51"/>
</a>
</g>
</g>
<!-- Node17 -->
<g id="Node000017" class="node">
<title>Node17</title>
<g id="a_Node000017"><a xlink:href="hover__on__cable__maneuver__server_8cpp.html" target="_top" xlink:title=" ">
<polygon fill="white" stroke="#666666" points="809,-277.5 660,-277.5 660,-214.5 809,-214.5 809,-277.5"/>
<text text-anchor="start" x="668" y="-265.5" font-family="Helvetica,sans-Serif" font-size="10.00">/home/ffn/Workspace</text>
<text text-anchor="start" x="668" y="-254.5" font-family="Helvetica,sans-Serif" font-size="10.00">/ros2_humble_ws/src</text>
<text text-anchor="start" x="668" y="-243.5" font-family="Helvetica,sans-Serif" font-size="10.00">/III&#45;Drone&#45;Core/src/control</text>
<text text-anchor="start" x="668" y="-232.5" font-family="Helvetica,sans-Serif" font-size="10.00">/maneuver/hover_on_cable</text>
<text text-anchor="middle" x="734.5" y="-221.5" font-family="Helvetica,sans-Serif" font-size="10.00">_maneuver_server.cpp</text>
</a>
</g>
</g>
<!-- Node16&#45;&gt;Node17 -->
<g id="edge26_Node000016_Node000017" class="edge">
<title>Node16&#45;&gt;Node17</title>
<g id="a_edge26_Node000016_Node000017"><a xlink:title=" ">
<path fill="none" stroke="#63b8ff" d="M700.21,-309.78C706.13,-298.93 712.33,-287.59 717.79,-277.58"/>
<polygon fill="#63b8ff" stroke="#63b8ff" points="697.03,-308.28 695.31,-318.74 703.18,-311.64 697.03,-308.28"/>
</a>
</g>
</g>
</g>
</svg>

<g id="navigator" transform="translate(0 0)" fill="#404254">
  <rect fill="#f2f5e9" fill-opacity="0.5" stroke="#606060" stroke-width=".5" x="0" y="0" width="60" height="60"/>
  <use id="zoomplus" xlink:href="#zoomPlus" x="17" y="9" onmousedown="handleZoom(evt,'in')"/>
  <use id="zoomminus" xlink:href="#zoomMin" x="42" y="9" onmousedown="handleZoom(evt,'out')"/>
  <use id="reset" xlink:href="#resetDef" x="30" y="36" onmousedown="handleReset()"/>
   <use id="arrowup" xlink:href="#arrowUp" x="0" y="0" onmousedown="handlePan(0,-1)"/>
  <use id="arrowright" xlink:href="#arrowRight" x="0" y="0" onmousedown="handlePan(1,0)"/>
  <use id="arrowdown" xlink:href="#arrowDown" x="0" y="0" onmousedown="handlePan(0,1)"/>
  <use id="arrowleft" xlink:href="#arrowLeft" x="0" y="0" onmousedown="handlePan(-1,0)"/>
</g>
<svg viewBox="0 0 15 15" width="100%" height="30px" preserveAspectRatio="xMaxYMin meet">
 <g id="arrow_out" transform="scale(0.3 0.3)">
  <a xlink:href="token_8hpp__dep__incl_org.svg" target="_base">
   <rect id="button" ry="5" rx="5" y="6" x="6" height="38" width="38"
        fill="#f2f5e9" fill-opacity="0.5" stroke="#606060" stroke-width="1.0"/>
   <path id="arrow"
     d="M 11.500037,31.436501 C 11.940474,20.09759 22.043105,11.32322 32.158766,21.979434 L 37.068811,17.246167 C 37.068811,17.246167 37.088388,32 37.088388,32 L 22.160133,31.978069 C 22.160133,31.978069 26.997745,27.140456 26.997745,27.140456 C 18.528582,18.264221 13.291696,25.230495 11.500037,31.436501 z"
     style="fill:#404040;"/>
  </a>
 </g>
</svg>

<style type='text/css'>
<![CDATA[
[data-mouse-over-selected='false'] { opacity: 0.7; }
[data-mouse-over-selected='true']  { opacity: 1.0; }
]]>
</style>
<script type="application/ecmascript"><![CDATA[
document.addEventListener('DOMContentLoaded', (event) => {
  highlightEdges();
  highlightAdjacentNodes();
});
]]></script>
</svg>
