<?xml version="1.0" encoding="UTF-8" standalone="no"?>
<!DOCTYPE svg PUBLIC "-//W3C//DTD SVG 1.1//EN"
 "http://www.w3.org/Graphics/SVG/1.1/DTD/svg11.dtd">
<!-- Generated by graphviz version 2.43.0 (0)
 -->
<!-- Title: /home/ffn/Workspace/ros2_humble_ws/src/III&#45;Drone&#45;Core/include/iii_drone_core/utils/token.hpp Pages: 1 -->
<svg width="444pt" height="181pt"
 viewBox="0.00 0.00 443.64 181.00" xmlns="http://www.w3.org/2000/svg" xmlns:xlink="http://www.w3.org/1999/xlink">
<g id="graph0" class="graph" transform="scale(1 1) rotate(0) translate(4 177)">
<title>/home/ffn/Workspace/ros2_humble_ws/src/III&#45;Drone&#45;Core/include/iii_drone_core/utils/token.hpp</title>
<!-- Node1 -->
<g id="Node000001" class="node">
<title>Node1</title>
<g id="a_Node000001"><a xlink:title=" ">
<polygon fill="#999999" stroke="#666666" points="348.5,-173 185.5,-173 185.5,-121 348.5,-121 348.5,-173"/>
<text text-anchor="start" x="193.5" y="-161" font-family="Helvetica,sans-Serif" font-size="10.00">/home/ffn/Workspace</text>
<text text-anchor="start" x="193.5" y="-150" font-family="Helvetica,sans-Serif" font-size="10.00">/ros2_humble_ws/src</text>
<text text-anchor="start" x="193.5" y="-139" font-family="Helvetica,sans-Serif" font-size="10.00">/III&#45;Drone&#45;Core/include</text>
<text text-anchor="middle" x="267" y="-128" font-family="Helvetica,sans-Serif" font-size="10.00">/iii_drone_core/utils/token.hpp</text>
</a>
</g>
</g>
<!-- Node2 -->
<g id="Node000002" class="node">
<title>Node2</title>
<g id="a_Node000002"><a xlink:title=" ">
<polygon fill="#e0e0e0" stroke="#999999" points="48,-19 0,-19 0,0 48,0 48,-19"/>
<text text-anchor="middle" x="24" y="-7" font-family="Helvetica,sans-Serif" font-size="10.00">mutex</text>
</a>
</g>
</g>
<!-- Node1&#45;&gt;Node2 -->
<g id="edge1_Node000001_Node000002" class="edge">
<title>Node1&#45;&gt;Node2</title>
<g id="a_edge1_Node000001_Node000002"><a xlink:title=" ">
<path fill="none" stroke="#63b8ff" d="M185.42,-143.49C137.82,-137.73 80.03,-122.64 43,-85 28.55,-70.31 24.62,-46.25 23.77,-29.46"/>
<polygon fill="#63b8ff" stroke="#63b8ff" points="27.27,-29.13 23.59,-19.2 20.27,-29.26 27.27,-29.13"/>
</a>
</g>
</g>
<!-- Node3 -->
<g id="Node000003" class="node">
<title>Node3</title>
<g id="a_Node000003"><a xlink:title=" ">
<polygon fill="#e0e0e0" stroke="#999999" points="353,-19 295,-19 295,0 353,0 353,-19"/>
<text text-anchor="middle" x="324" y="-7" font-family="Helvetica,sans-Serif" font-size="10.00">memory</text>
</a>
</g>
</g>
<!-- Node1&#45;&gt;Node3 -->
<g id="edge2_Node000001_Node000003" class="edge">
<title>Node1&#45;&gt;Node3</title>
<g id="a_edge2_Node000001_Node000003"><a xlink:title=" ">
<path fill="none" stroke="#63b8ff" d="M348.8,-135.3C379.49,-126.86 411.4,-111.82 430,-85 437.6,-74.04 437.38,-66.1 430,-55 415.21,-32.75 386.9,-21.6 363.25,-16.03"/>
<polygon fill="#63b8ff" stroke="#63b8ff" points="363.97,-12.6 353.46,-13.96 362.52,-19.45 363.97,-12.6"/>
</a>
</g>
</g>
<!-- Node4 -->
<g id="Node000004" class="node">
<title>Node4</title>
<g id="a_Node000004"><a xlink:title=" ">
<polygon fill="#e0e0e0" stroke="#999999" points="226.5,-79.5 179.5,-79.5 179.5,-60.5 226.5,-60.5 226.5,-79.5"/>
<text text-anchor="middle" x="203" y="-67.5" font-family="Helvetica,sans-Serif" font-size="10.00">vector</text>
</a>
</g>
</g>
<!-- Node1&#45;&gt;Node4 -->
<g id="edge3_Node000001_Node000004" class="edge">
<title>Node1&#45;&gt;Node4</title>
<g id="a_edge3_Node000001_Node000004"><a xlink:title=" ">
<path fill="none" stroke="#63b8ff" d="M245.33,-120.61C236.02,-109.7 225.4,-97.25 217.13,-87.56"/>
<polygon fill="#63b8ff" stroke="#63b8ff" points="219.71,-85.19 210.55,-79.85 214.38,-89.73 219.71,-85.19"/>
</a>
</g>
</g>
<!-- Node5 -->
<g id="Node000005" class="node">
<title>Node5</title>
<g id="a_Node000005"><a xlink:title=" ">
<polygon fill="#e0e0e0" stroke="#999999" points="289,-79.5 245,-79.5 245,-60.5 289,-60.5 289,-79.5"/>
<text text-anchor="middle" x="267" y="-67.5" font-family="Helvetica,sans-Serif" font-size="10.00">string</text>
</a>
</g>
</g>
<!-- Node1&#45;&gt;Node5 -->
<g id="edge4_Node000001_Node000005" class="edge">
<title>Node1&#45;&gt;Node5</title>
<g id="a_edge4_Node000001_Node000005"><a xlink:title=" ">
<path fill="none" stroke="#63b8ff" d="M267,-120.61C267,-110.58 267,-99.25 267,-89.96"/>
<polygon fill="#63b8ff" stroke="#63b8ff" points="270.5,-89.85 267,-79.85 263.5,-89.85 270.5,-89.85"/>
</a>
</g>
</g>
<!-- Node6 -->
<g id="Node000006" class="node">
<title>Node6</title>
<g id="a_Node000006"><a xlink:title=" ">
<polygon fill="#e0e0e0" stroke="#999999" points="353,-79.5 307,-79.5 307,-60.5 353,-60.5 353,-79.5"/>
<text text-anchor="middle" x="330" y="-67.5" font-family="Helvetica,sans-Serif" font-size="10.00">future</text>
</a>
</g>
</g>
<!-- Node1&#45;&gt;Node6 -->
<g id="edge5_Node000001_Node000006" class="edge">
<title>Node1&#45;&gt;Node6</title>
<g id="a_edge5_Node000001_Node000006"><a xlink:title=" ">
<path fill="none" stroke="#63b8ff" d="M288.33,-120.61C297.5,-109.7 307.95,-97.25 316.09,-87.56"/>
<polygon fill="#63b8ff" stroke="#63b8ff" points="318.81,-89.76 322.56,-79.85 313.45,-85.26 318.81,-89.76"/>
</a>
</g>
</g>
<!-- Node7 -->
<g id="Node000007" class="node">
<title>Node7</title>
<g id="a_Node000007"><a xlink:title=" ">
<polygon fill="#e0e0e0" stroke="#999999" points="421,-79.5 371,-79.5 371,-60.5 421,-60.5 421,-79.5"/>
<text text-anchor="middle" x="396" y="-67.5" font-family="Helvetica,sans-Serif" font-size="10.00">chrono</text>
</a>
</g>
</g>
<!-- Node1&#45;&gt;Node7 -->
<g id="edge6_Node000001_Node000007" class="edge">
<title>Node1&#45;&gt;Node7</title>
<g id="a_edge6_Node000001_Node000007"><a xlink:title=" ">
<path fill="none" stroke="#63b8ff" d="M310.31,-120.82C331.06,-108.75 355.11,-94.78 372.43,-84.7"/>
<polygon fill="#63b8ff" stroke="#63b8ff" points="374.42,-87.6 381.3,-79.54 370.9,-81.54 374.42,-87.6"/>
</a>
</g>
</g>
<!-- Node8 -->
<g id="Node000008" class="node">
<title>Node8</title>
<g id="a_Node000008"><a xlink:href="atomic_8hpp.html" target="_top" xlink:title=" ">
<polygon fill="white" stroke="#666666" points="161.5,-85 52.5,-85 52.5,-55 161.5,-55 161.5,-85"/>
<text text-anchor="start" x="60.5" y="-73" font-family="Helvetica,sans-Serif" font-size="10.00">iii_drone_core/utils</text>
<text text-anchor="middle" x="107" y="-62" font-family="Helvetica,sans-Serif" font-size="10.00">/atomic.hpp</text>
</a>
</g>
</g>
<!-- Node1&#45;&gt;Node8 -->
<g id="edge7_Node000001_Node000008" class="edge">
<title>Node1&#45;&gt;Node8</title>
<g id="a_edge7_Node000001_Node000008"><a xlink:title=" ">
<path fill="none" stroke="#63b8ff" d="M213.28,-120.82C191.33,-110.53 166.42,-98.85 146.23,-89.39"/>
<polygon fill="#63b8ff" stroke="#63b8ff" points="147.57,-86.15 137.03,-85.08 144.6,-92.49 147.57,-86.15"/>
</a>
</g>
</g>
<!-- Node8&#45;&gt;Node2 -->
<g id="edge8_Node000008_Node000002" class="edge">
<title>Node8&#45;&gt;Node2</title>
<g id="a_edge8_Node000008_Node000002"><a xlink:title=" ">
<path fill="none" stroke="#63b8ff" d="M86.91,-54.84C74.12,-45.83 57.6,-34.18 44.7,-25.09"/>
<polygon fill="#63b8ff" stroke="#63b8ff" points="46.63,-22.17 36.44,-19.27 42.59,-27.89 46.63,-22.17"/>
</a>
</g>
</g>
<!-- Node8&#45;&gt;Node3 -->
<g id="edge10_Node000008_Node000003" class="edge">
<title>Node8&#45;&gt;Node3</title>
<g id="a_edge10_Node000008_Node000003"><a xlink:title=" ">
<path fill="none" stroke="#63b8ff" d="M158.98,-54.99C197.66,-44.56 249.65,-30.54 284.86,-21.05"/>
<polygon fill="#63b8ff" stroke="#63b8ff" points="286.02,-24.36 294.77,-18.38 284.2,-17.6 286.02,-24.36"/>
</a>
</g>
</g>
<!-- Node9 -->
<g id="Node000009" class="node">
<title>Node9</title>
<g id="a_Node000009"><a xlink:title=" ">
<polygon fill="#e0e0e0" stroke="#999999" points="152,-19 66,-19 66,0 152,0 152,-19"/>
<text text-anchor="middle" x="109" y="-7" font-family="Helvetica,sans-Serif" font-size="10.00">shared_mutex</text>
</a>
</g>
</g>
<!-- Node8&#45;&gt;Node9 -->
<g id="edge9_Node000008_Node000009" class="edge">
<title>Node8&#45;&gt;Node9</title>
<g id="a_edge9_Node000008_Node000009"><a xlink:title=" ">
<path fill="none" stroke="#63b8ff" d="M107.48,-54.84C107.74,-47.21 108.07,-37.7 108.35,-29.45"/>
<polygon fill="#63b8ff" stroke="#63b8ff" points="111.86,-29.38 108.7,-19.27 104.86,-29.14 111.86,-29.38"/>
</a>
</g>
</g>
</g>
</svg>
