<?xml version="1.0" encoding="UTF-8" standalone="no"?>
<!DOCTYPE svg PUBLIC "-//W3C//DTD SVG 1.1//EN"
 "http://www.w3.org/Graphics/SVG/1.1/DTD/svg11.dtd">
<!-- Generated by graphviz version 2.43.0 (0)
 -->
<!-- Title: /home/ffn/Workspace/ros2_humble_ws/src/III&#45;Drone&#45;Core/include/iii_drone_core/adapters/px4/vehicle_odometry_adapter.hpp Pages: 1 -->
<svg width="1528pt" height="720pt"
 viewBox="0.00 0.00 1528.00 720.00" xmlns="http://www.w3.org/2000/svg" xmlns:xlink="http://www.w3.org/1999/xlink">
<g id="graph0" class="graph" transform="scale(1 1) rotate(0) translate(4 716)">
<title>/home/ffn/Workspace/ros2_humble_ws/src/III&#45;Drone&#45;Core/include/iii_drone_core/adapters/px4/vehicle_odometry_adapter.hpp</title>
<!-- Node1 -->
<g id="Node000001" class="node">
<title>Node1</title>
<g id="a_Node000001"><a xlink:title=" ">
<polygon fill="#999999" stroke="#666666" points="692.5,-712 501.5,-712 501.5,-649 692.5,-649 692.5,-712"/>
<text text-anchor="start" x="509.5" y="-700" font-family="Helvetica,sans-Serif" font-size="10.00">/home/ffn/Workspace</text>
<text text-anchor="start" x="509.5" y="-689" font-family="Helvetica,sans-Serif" font-size="10.00">/ros2_humble_ws/src</text>
<text text-anchor="start" x="509.5" y="-678" font-family="Helvetica,sans-Serif" font-size="10.00">/III&#45;Drone&#45;Core/include</text>
<text text-anchor="start" x="509.5" y="-667" font-family="Helvetica,sans-Serif" font-size="10.00">/iii_drone_core/adapters</text>
<text text-anchor="middle" x="597" y="-656" font-family="Helvetica,sans-Serif" font-size="10.00">/px4/vehicle_odometry_adapter.hpp</text>
</a>
</g>
</g>
<!-- Node2 -->
<g id="Node000002" class="node">
<title>Node2</title>
<g id="a_Node000002"><a xlink:href="flight__controller__node_8hpp.html" target="_top" xlink:title=" ">
<polygon fill="white" stroke="#666666" points="146,-173 0,-173 0,-99 146,-99 146,-173"/>
<text text-anchor="start" x="8" y="-161" font-family="Helvetica,sans-Serif" font-size="10.00">/home/ffn/Workspace</text>
<text text-anchor="start" x="8" y="-150" font-family="Helvetica,sans-Serif" font-size="10.00">/ros2_humble_ws/src</text>
<text text-anchor="start" x="8" y="-139" font-family="Helvetica,sans-Serif" font-size="10.00">/III&#45;Drone&#45;Core/include</text>
<text text-anchor="start" x="8" y="-128" font-family="Helvetica,sans-Serif" font-size="10.00">/iii_drone_core/control</text>
<text text-anchor="start" x="8" y="-117" font-family="Helvetica,sans-Serif" font-size="10.00">/_flight_controller_node</text>
<text text-anchor="middle" x="73" y="-106" font-family="Helvetica,sans-Serif" font-size="10.00">/flight_controller_node.hpp</text>
</a>
</g>
</g>
<!-- Node1&#45;&gt;Node2 -->
<g id="edge1_Node000001_Node000002" class="edge">
<title>Node1&#45;&gt;Node2</title>
<g id="a_edge1_Node000001_Node000002"><a xlink:title=" ">
<path fill="none" stroke="#63b8ff" d="M491.26,-660.42C333.28,-628.86 54,-559.93 54,-467 54,-467 54,-467 54,-355 54,-290.8 62.28,-216.36 67.91,-173.17"/>
<polygon fill="#63b8ff" stroke="#63b8ff" points="490.99,-663.94 501.48,-662.44 492.35,-657.07 490.99,-663.94"/>
</a>
</g>
</g>
<!-- Node3 -->
<g id="Node000003" class="node">
<title>Node3</title>
<g id="a_Node000003"><a xlink:href="combined__drone__awareness__handler_8hpp.html" target="_top" xlink:title=" ">
<polygon fill="white" stroke="#666666" points="676,-613 518,-613 518,-539 676,-539 676,-613"/>
<text text-anchor="start" x="526" y="-601" font-family="Helvetica,sans-Serif" font-size="10.00">/home/ffn/Workspace</text>
<text text-anchor="start" x="526" y="-590" font-family="Helvetica,sans-Serif" font-size="10.00">/ros2_humble_ws/src</text>
<text text-anchor="start" x="526" y="-579" font-family="Helvetica,sans-Serif" font-size="10.00">/III&#45;Drone&#45;Core/include</text>
<text text-anchor="start" x="526" y="-568" font-family="Helvetica,sans-Serif" font-size="10.00">/iii_drone_core/control</text>
<text text-anchor="start" x="526" y="-557" font-family="Helvetica,sans-Serif" font-size="10.00">/combined_drone_awareness</text>
<text text-anchor="middle" x="597" y="-546" font-family="Helvetica,sans-Serif" font-size="10.00">_handler.hpp</text>
</a>
</g>
</g>
<!-- Node1&#45;&gt;Node3 -->
<g id="edge2_Node000001_Node000003" class="edge">
<title>Node1&#45;&gt;Node3</title>
<g id="a_edge2_Node000001_Node000003"><a xlink:title=" ">
<path fill="none" stroke="#63b8ff" d="M597,-638.7C597,-630.26 597,-621.41 597,-613.14"/>
<polygon fill="#63b8ff" stroke="#63b8ff" points="593.5,-638.75 597,-648.75 600.5,-638.75 593.5,-638.75"/>
</a>
</g>
</g>
<!-- Node11 -->
<g id="Node000011" class="node">
<title>Node11</title>
<g id="a_Node000011"><a xlink:href="maneuver__scheduler_8hpp.html" target="_top" xlink:title=" ">
<polygon fill="white" stroke="#666666" points="687,-277.5 493,-277.5 493,-214.5 687,-214.5 687,-277.5"/>
<text text-anchor="start" x="501" y="-265.5" font-family="Helvetica,sans-Serif" font-size="10.00">/home/ffn/Workspace</text>
<text text-anchor="start" x="501" y="-254.5" font-family="Helvetica,sans-Serif" font-size="10.00">/ros2_humble_ws/src</text>
<text text-anchor="start" x="501" y="-243.5" font-family="Helvetica,sans-Serif" font-size="10.00">/III&#45;Drone&#45;Core/include</text>
<text text-anchor="start" x="501" y="-232.5" font-family="Helvetica,sans-Serif" font-size="10.00">/iii_drone_core/control</text>
<text text-anchor="middle" x="590" y="-221.5" font-family="Helvetica,sans-Serif" font-size="10.00">/maneuver/maneuver_scheduler.hpp</text>
</a>
</g>
</g>
<!-- Node1&#45;&gt;Node11 -->
<g id="edge40_Node000001_Node000011" class="edge">
<title>Node1&#45;&gt;Node11</title>
<g id="a_edge40_Node000001_Node000011"><a xlink:title=" ">
<path fill="none" stroke="#63b8ff" d="M536.88,-642.43C526.44,-633.82 516.53,-623.93 509,-613 480.11,-571.08 484.18,-553.41 477,-503 465.45,-421.94 445.07,-389.91 486,-319 495.71,-302.17 511.14,-288.37 527.17,-277.52"/>
<polygon fill="#63b8ff" stroke="#63b8ff" points="534.92,-645.33 544.94,-648.76 539.24,-639.83 534.92,-645.33"/>
</a>
</g>
</g>
<!-- Node21 -->
<g id="Node000021" class="node">
<title>Node21</title>
<g id="a_Node000021"><a xlink:href="drone__frame__broadcaster__node_8hpp.html" target="_top" xlink:title=" ">
<polygon fill="white" stroke="#666666" points="868,-613 694,-613 694,-539 868,-539 868,-613"/>
<text text-anchor="start" x="702" y="-601" font-family="Helvetica,sans-Serif" font-size="10.00">/home/ffn/Workspace</text>
<text text-anchor="start" x="702" y="-590" font-family="Helvetica,sans-Serif" font-size="10.00">/ros2_humble_ws/src</text>
<text text-anchor="start" x="702" y="-579" font-family="Helvetica,sans-Serif" font-size="10.00">/III&#45;Drone&#45;Core/include</text>
<text text-anchor="start" x="702" y="-568" font-family="Helvetica,sans-Serif" font-size="10.00">/iii_drone_core/utils/drone</text>
<text text-anchor="start" x="702" y="-557" font-family="Helvetica,sans-Serif" font-size="10.00">_frame_broadcaster_node/drone</text>
<text text-anchor="middle" x="781" y="-546" font-family="Helvetica,sans-Serif" font-size="10.00">_frame_broadcaster_node.hpp</text>
</a>
</g>
</g>
<!-- Node1&#45;&gt;Node21 -->
<g id="edge41_Node000001_Node000021" class="edge">
<title>Node1&#45;&gt;Node21</title>
<g id="a_edge41_Node000001_Node000021"><a xlink:title=" ">
<path fill="none" stroke="#63b8ff" d="M661.33,-643.66C679.08,-633.78 698.34,-623.05 716.12,-613.14"/>
<polygon fill="#63b8ff" stroke="#63b8ff" points="659.24,-640.82 652.21,-648.75 662.65,-646.94 659.24,-640.82"/>
</a>
</g>
</g>
<!-- Node23 -->
<g id="Node000023" class="node">
<title>Node23</title>
<g id="a_Node000023"><a xlink:href="vehicle__odometry__adapter_8cpp.html" target="_top" xlink:title=" ">
<polygon fill="white" stroke="#666666" points="1077.5,-602 886.5,-602 886.5,-550 1077.5,-550 1077.5,-602"/>
<text text-anchor="start" x="894.5" y="-590" font-family="Helvetica,sans-Serif" font-size="10.00">/home/ffn/Workspace</text>
<text text-anchor="start" x="894.5" y="-579" font-family="Helvetica,sans-Serif" font-size="10.00">/ros2_humble_ws/src</text>
<text text-anchor="start" x="894.5" y="-568" font-family="Helvetica,sans-Serif" font-size="10.00">/III&#45;Drone&#45;Core/src/adapters</text>
<text text-anchor="middle" x="982" y="-557" font-family="Helvetica,sans-Serif" font-size="10.00">/px4/vehicle_odometry_adapter.cpp</text>
</a>
</g>
</g>
<!-- Node1&#45;&gt;Node23 -->
<g id="edge43_Node000001_Node000023" class="edge">
<title>Node1&#45;&gt;Node23</title>
<g id="a_edge43_Node000001_Node000023"><a xlink:title=" ">
<path fill="none" stroke="#63b8ff" d="M702.57,-656.97C755.29,-645.08 819.85,-629.54 877,-613 888.38,-609.7 900.36,-605.92 911.98,-602.06"/>
<polygon fill="#63b8ff" stroke="#63b8ff" points="701.52,-653.62 692.53,-659.23 703.06,-660.45 701.52,-653.62"/>
</a>
</g>
</g>
<!-- Node3&#45;&gt;Node2 -->
<g id="edge3_Node000003_Node000002" class="edge">
<title>Node3&#45;&gt;Node2</title>
<g id="a_edge3_Node000003_Node000002"><a xlink:title=" ">
<path fill="none" stroke="#63b8ff" d="M507.53,-565.64C415.39,-554.52 279.44,-533.56 237,-503 125.4,-422.65 88.38,-248.44 77.29,-173.01"/>
<polygon fill="#63b8ff" stroke="#63b8ff" points="507.36,-569.14 517.71,-566.85 508.19,-562.19 507.36,-569.14"/>
</a>
</g>
</g>
<!-- Node4 -->
<g id="Node000004" class="node">
<title>Node4</title>
<g id="a_Node000004"><a xlink:href="fly__to__object__maneuver__server_8hpp.html" target="_top" xlink:title=" ">
<polygon fill="white" stroke="#666666" points="1290,-283 1156,-283 1156,-209 1290,-209 1290,-283"/>
<text text-anchor="start" x="1164" y="-271" font-family="Helvetica,sans-Serif" font-size="10.00">/home/ffn/Workspace</text>
<text text-anchor="start" x="1164" y="-260" font-family="Helvetica,sans-Serif" font-size="10.00">/ros2_humble_ws/src</text>
<text text-anchor="start" x="1164" y="-249" font-family="Helvetica,sans-Serif" font-size="10.00">/III&#45;Drone&#45;Core/include</text>
<text text-anchor="start" x="1164" y="-238" font-family="Helvetica,sans-Serif" font-size="10.00">/iii_drone_core/control</text>
<text text-anchor="start" x="1164" y="-227" font-family="Helvetica,sans-Serif" font-size="10.00">/maneuver/fly_to_object</text>
<text text-anchor="middle" x="1223" y="-216" font-family="Helvetica,sans-Serif" font-size="10.00">_maneuver_server.hpp</text>
</a>
</g>
</g>
<!-- Node3&#45;&gt;Node4 -->
<g id="edge4_Node000003_Node000004" class="edge">
<title>Node3&#45;&gt;Node4</title>
<g id="a_edge4_Node000003_Node000004"><a xlink:title=" ">
<path fill="none" stroke="#63b8ff" d="M686.28,-538.89C900.79,-483.97 1009.43,-550.72 1158,-393 1187.3,-361.9 1204.87,-315.38 1214.22,-283.25"/>
<polygon fill="#63b8ff" stroke="#63b8ff" points="685.1,-535.58 676.32,-541.51 686.88,-542.35 685.1,-535.58"/>
</a>
</g>
</g>
<!-- Node5 -->
<g id="Node000005" class="node">
<title>Node5</title>
<g id="a_Node000005"><a xlink:href="maneuver__controller__node_8hpp.html" target="_top" xlink:title=" ">
<polygon fill="white" stroke="#666666" points="838.5,-173 667.5,-173 667.5,-99 838.5,-99 838.5,-173"/>
<text text-anchor="start" x="675.5" y="-161" font-family="Helvetica,sans-Serif" font-size="10.00">/home/ffn/Workspace</text>
<text text-anchor="start" x="675.5" y="-150" font-family="Helvetica,sans-Serif" font-size="10.00">/ros2_humble_ws/src</text>
<text text-anchor="start" x="675.5" y="-139" font-family="Helvetica,sans-Serif" font-size="10.00">/III&#45;Drone&#45;Core/include</text>
<text text-anchor="start" x="675.5" y="-128" font-family="Helvetica,sans-Serif" font-size="10.00">/iii_drone_core/control</text>
<text text-anchor="start" x="675.5" y="-117" font-family="Helvetica,sans-Serif" font-size="10.00">/maneuver_controller_node</text>
<text text-anchor="middle" x="753" y="-106" font-family="Helvetica,sans-Serif" font-size="10.00">/maneuver_controller_node.hpp</text>
</a>
</g>
</g>
<!-- Node3&#45;&gt;Node5 -->
<g id="edge38_Node000003_Node000005" class="edge">
<title>Node3&#45;&gt;Node5</title>
<g id="a_edge38_Node000003_Node000005"><a xlink:title=" ">
<path fill="none" stroke="#63b8ff" d="M686.46,-538.92C846.4,-502.14 902.93,-562.57 1052,-503 1188.51,-448.45 1244,-419.33 1299,-283 1311.3,-252.5 1320.68,-233.73 1299,-209 1283.98,-191.87 988.59,-160.33 838.7,-145.34"/>
<polygon fill="#63b8ff" stroke="#63b8ff" points="685.19,-535.63 676.28,-541.36 686.82,-542.44 685.19,-535.63"/>
</a>
</g>
</g>
<!-- Node8 -->
<g id="Node000008" class="node">
<title>Node8</title>
<g id="a_Node000008"><a xlink:href="fly__to__position__maneuver__server_8hpp.html" target="_top" xlink:title=" ">
<polygon fill="white" stroke="#666666" points="263.5,-283 120.5,-283 120.5,-209 263.5,-209 263.5,-283"/>
<text text-anchor="start" x="128.5" y="-271" font-family="Helvetica,sans-Serif" font-size="10.00">/home/ffn/Workspace</text>
<text text-anchor="start" x="128.5" y="-260" font-family="Helvetica,sans-Serif" font-size="10.00">/ros2_humble_ws/src</text>
<text text-anchor="start" x="128.5" y="-249" font-family="Helvetica,sans-Serif" font-size="10.00">/III&#45;Drone&#45;Core/include</text>
<text text-anchor="start" x="128.5" y="-238" font-family="Helvetica,sans-Serif" font-size="10.00">/iii_drone_core/control</text>
<text text-anchor="start" x="128.5" y="-227" font-family="Helvetica,sans-Serif" font-size="10.00">/maneuver/fly_to_position</text>
<text text-anchor="middle" x="192" y="-216" font-family="Helvetica,sans-Serif" font-size="10.00">_maneuver_server.hpp</text>
</a>
</g>
</g>
<!-- Node3&#45;&gt;Node8 -->
<g id="edge8_Node000003_Node000008" class="edge">
<title>Node3&#45;&gt;Node8</title>
<g id="a_edge8_Node000003_Node000008"><a xlink:title=" ">
<path fill="none" stroke="#63b8ff" d="M507.81,-560.84C415.54,-540.94 275.9,-494.98 210,-393 188.86,-360.29 186.52,-314.74 188.08,-283.26"/>
<polygon fill="#63b8ff" stroke="#63b8ff" points="507.2,-564.28 517.7,-562.91 508.63,-557.43 507.2,-564.28"/>
</a>
</g>
</g>
<!-- Node10 -->
<g id="Node000010" class="node">
<title>Node10</title>
<g id="a_Node000010"><a xlink:href="hover__by__object__maneuver__server_8hpp.html" target="_top" xlink:title=" ">
<polygon fill="white" stroke="#666666" points="1098,-393 946,-393 946,-319 1098,-319 1098,-393"/>
<text text-anchor="start" x="954" y="-381" font-family="Helvetica,sans-Serif" font-size="10.00">/home/ffn/Workspace</text>
<text text-anchor="start" x="954" y="-370" font-family="Helvetica,sans-Serif" font-size="10.00">/ros2_humble_ws/src</text>
<text text-anchor="start" x="954" y="-359" font-family="Helvetica,sans-Serif" font-size="10.00">/III&#45;Drone&#45;Core/include</text>
<text text-anchor="start" x="954" y="-348" font-family="Helvetica,sans-Serif" font-size="10.00">/iii_drone_core/control</text>
<text text-anchor="start" x="954" y="-337" font-family="Helvetica,sans-Serif" font-size="10.00">/maneuver/hover_by_object</text>
<text text-anchor="middle" x="1022" y="-326" font-family="Helvetica,sans-Serif" font-size="10.00">_maneuver_server.hpp</text>
</a>
</g>
</g>
<!-- Node3&#45;&gt;Node10 -->
<g id="edge11_Node000003_Node000010" class="edge">
<title>Node3&#45;&gt;Node10</title>
<g id="a_edge11_Node000003_Node000010"><a xlink:title=" ">
<path fill="none" stroke="#63b8ff" d="M686.23,-538.94C777.23,-515.49 813.19,-546.85 892,-503 939.01,-476.85 977.64,-427.11 1000.25,-393.02"/>
<polygon fill="#63b8ff" stroke="#63b8ff" points="685.07,-535.62 676.35,-541.64 686.92,-542.38 685.07,-535.62"/>
</a>
</g>
</g>
<!-- Node3&#45;&gt;Node11 -->
<g id="edge28_Node000003_Node000011" class="edge">
<title>Node3&#45;&gt;Node11</title>
<g id="a_edge28_Node000003_Node000011"><a xlink:title=" ">
<path fill="none" stroke="#63b8ff" d="M521.92,-532.19C512.69,-523.73 504.57,-514 499,-503 461.7,-429.31 486.63,-392.13 525,-319 532.9,-303.94 544.69,-289.55 556.06,-277.66"/>
<polygon fill="#63b8ff" stroke="#63b8ff" points="519.66,-534.86 529.53,-538.71 524.21,-529.54 519.66,-534.86"/>
</a>
</g>
</g>
<!-- Node14 -->
<g id="Node000014" class="node">
<title>Node14</title>
<g id="a_Node000014"><a xlink:href="hover__maneuver__server_8hpp.html" target="_top" xlink:title=" ">
<polygon fill="white" stroke="#666666" points="413.5,-393 258.5,-393 258.5,-319 413.5,-319 413.5,-393"/>
<text text-anchor="start" x="266.5" y="-381" font-family="Helvetica,sans-Serif" font-size="10.00">/home/ffn/Workspace</text>
<text text-anchor="start" x="266.5" y="-370" font-family="Helvetica,sans-Serif" font-size="10.00">/ros2_humble_ws/src</text>
<text text-anchor="start" x="266.5" y="-359" font-family="Helvetica,sans-Serif" font-size="10.00">/III&#45;Drone&#45;Core/include</text>
<text text-anchor="start" x="266.5" y="-348" font-family="Helvetica,sans-Serif" font-size="10.00">/iii_drone_core/control</text>
<text text-anchor="start" x="266.5" y="-337" font-family="Helvetica,sans-Serif" font-size="10.00">/maneuver/hover_maneuver</text>
<text text-anchor="middle" x="336" y="-326" font-family="Helvetica,sans-Serif" font-size="10.00">_server.hpp</text>
</a>
</g>
</g>
<!-- Node3&#45;&gt;Node14 -->
<g id="edge19_Node000003_Node000014" class="edge">
<title>Node3&#45;&gt;Node14</title>
<g id="a_edge19_Node000003_Node000014"><a xlink:title=" ">
<path fill="none" stroke="#63b8ff" d="M511.96,-533.81C496.06,-524.59 480.04,-514.19 466,-503 425.39,-470.64 386.89,-424.81 362.48,-393.17"/>
<polygon fill="#63b8ff" stroke="#63b8ff" points="510.35,-536.92 520.78,-538.81 513.8,-530.83 510.35,-536.92"/>
</a>
</g>
</g>
<!-- Node16 -->
<g id="Node000016" class="node">
<title>Node16</title>
<g id="a_Node000016"><a xlink:href="hover__on__cable__maneuver__server_8hpp.html" target="_top" xlink:title=" ">
<polygon fill="white" stroke="#666666" points="926.5,-393 777.5,-393 777.5,-319 926.5,-319 926.5,-393"/>
<text text-anchor="start" x="785.5" y="-381" font-family="Helvetica,sans-Serif" font-size="10.00">/home/ffn/Workspace</text>
<text text-anchor="start" x="785.5" y="-370" font-family="Helvetica,sans-Serif" font-size="10.00">/ros2_humble_ws/src</text>
<text text-anchor="start" x="785.5" y="-359" font-family="Helvetica,sans-Serif" font-size="10.00">/III&#45;Drone&#45;Core/include</text>
<text text-anchor="start" x="785.5" y="-348" font-family="Helvetica,sans-Serif" font-size="10.00">/iii_drone_core/control</text>
<text text-anchor="start" x="785.5" y="-337" font-family="Helvetica,sans-Serif" font-size="10.00">/maneuver/hover_on_cable</text>
<text text-anchor="middle" x="852" y="-326" font-family="Helvetica,sans-Serif" font-size="10.00">_maneuver_server.hpp</text>
</a>
</g>
</g>
<!-- Node3&#45;&gt;Node16 -->
<g id="edge24_Node000003_Node000016" class="edge">
<title>Node3&#45;&gt;Node16</title>
<g id="a_edge24_Node000003_Node000016"><a xlink:title=" ">
<path fill="none" stroke="#63b8ff" d="M686.16,-539.05C769.53,-518.71 819.4,-565.54 871,-503 896.13,-472.54 884.01,-425.67 870.44,-393.29"/>
<polygon fill="#63b8ff" stroke="#63b8ff" points="685.11,-535.71 676.37,-541.71 686.94,-542.47 685.11,-535.71"/>
</a>
</g>
</g>
<!-- Node18 -->
<g id="Node000018" class="node">
<title>Node18</title>
<g id="a_Node000018"><a xlink:href="maneuver__server_8hpp.html" target="_top" xlink:title=" ">
<polygon fill="white" stroke="#666666" points="686,-497.5 508,-497.5 508,-434.5 686,-434.5 686,-497.5"/>
<text text-anchor="start" x="516" y="-485.5" font-family="Helvetica,sans-Serif" font-size="10.00">/home/ffn/Workspace</text>
<text text-anchor="start" x="516" y="-474.5" font-family="Helvetica,sans-Serif" font-size="10.00">/ros2_humble_ws/src</text>
<text text-anchor="start" x="516" y="-463.5" font-family="Helvetica,sans-Serif" font-size="10.00">/III&#45;Drone&#45;Core/include</text>
<text text-anchor="start" x="516" y="-452.5" font-family="Helvetica,sans-Serif" font-size="10.00">/iii_drone_core/control</text>
<text text-anchor="middle" x="597" y="-441.5" font-family="Helvetica,sans-Serif" font-size="10.00">/maneuver/maneuver_server.hpp</text>
</a>
</g>
</g>
<!-- Node3&#45;&gt;Node18 -->
<g id="edge29_Node000003_Node000018" class="edge">
<title>Node3&#45;&gt;Node18</title>
<g id="a_edge29_Node000003_Node000018"><a xlink:title=" ">
<path fill="none" stroke="#63b8ff" d="M597,-528.47C597,-518.02 597,-507.19 597,-497.58"/>
<polygon fill="#63b8ff" stroke="#63b8ff" points="593.5,-528.74 597,-538.74 600.5,-528.74 593.5,-528.74"/>
</a>
</g>
</g>
<!-- Node20 -->
<g id="Node000020" class="node">
<title>Node20</title>
<g id="a_Node000020"><a xlink:href="combined__drone__awareness__handler_8cpp.html" target="_top" xlink:title=" ">
<polygon fill="white" stroke="#666666" points="862,-497.5 704,-497.5 704,-434.5 862,-434.5 862,-497.5"/>
<text text-anchor="start" x="712" y="-485.5" font-family="Helvetica,sans-Serif" font-size="10.00">/home/ffn/Workspace</text>
<text text-anchor="start" x="712" y="-474.5" font-family="Helvetica,sans-Serif" font-size="10.00">/ros2_humble_ws/src</text>
<text text-anchor="start" x="712" y="-463.5" font-family="Helvetica,sans-Serif" font-size="10.00">/III&#45;Drone&#45;Core/src/control</text>
<text text-anchor="start" x="712" y="-452.5" font-family="Helvetica,sans-Serif" font-size="10.00">/combined_drone_awareness</text>
<text text-anchor="middle" x="783" y="-441.5" font-family="Helvetica,sans-Serif" font-size="10.00">_handler.cpp</text>
</a>
</g>
</g>
<!-- Node3&#45;&gt;Node20 -->
<g id="edge39_Node000003_Node000020" class="edge">
<title>Node3&#45;&gt;Node20</title>
<g id="a_edge39_Node000003_Node000020"><a xlink:title=" ">
<path fill="none" stroke="#63b8ff" d="M667.95,-533.8C688.62,-521.8 710.84,-508.9 730.19,-497.66"/>
<polygon fill="#63b8ff" stroke="#63b8ff" points="666.08,-530.84 659.19,-538.89 669.6,-536.89 666.08,-530.84"/>
</a>
</g>
</g>
<!-- Node4&#45;&gt;Node5 -->
<g id="edge5_Node000004_Node000005" class="edge">
<title>Node4&#45;&gt;Node5</title>
<g id="a_edge5_Node000004_Node000005"><a xlink:title=" ">
<path fill="none" stroke="#63b8ff" d="M1146.29,-210.38C1144.86,-209.9 1143.42,-209.44 1142,-209 1039.99,-177.37 918.38,-157.6 838.62,-146.96"/>
<polygon fill="#63b8ff" stroke="#63b8ff" points="1145.24,-213.72 1155.84,-213.73 1147.56,-207.11 1145.24,-213.72"/>
</a>
</g>
</g>
<!-- Node7 -->
<g id="Node000007" class="node">
<title>Node7</title>
<g id="a_Node000007"><a xlink:href="fly__to__object__maneuver__server_8cpp.html" target="_top" xlink:title=" ">
<polygon fill="white" stroke="#666666" points="1317.5,-167.5 1128.5,-167.5 1128.5,-104.5 1317.5,-104.5 1317.5,-167.5"/>
<text text-anchor="start" x="1136.5" y="-155.5" font-family="Helvetica,sans-Serif" font-size="10.00">/home/ffn/Workspace</text>
<text text-anchor="start" x="1136.5" y="-144.5" font-family="Helvetica,sans-Serif" font-size="10.00">/ros2_humble_ws/src</text>
<text text-anchor="start" x="1136.5" y="-133.5" font-family="Helvetica,sans-Serif" font-size="10.00">/III&#45;Drone&#45;Core/src/control</text>
<text text-anchor="start" x="1136.5" y="-122.5" font-family="Helvetica,sans-Serif" font-size="10.00">/maneuver/fly_to_object_maneuver</text>
<text text-anchor="middle" x="1223" y="-111.5" font-family="Helvetica,sans-Serif" font-size="10.00">_server.cpp</text>
</a>
</g>
</g>
<!-- Node4&#45;&gt;Node7 -->
<g id="edge7_Node000004_Node000007" class="edge">
<title>Node4&#45;&gt;Node7</title>
<g id="a_edge7_Node000004_Node000007"><a xlink:title=" ">
<path fill="none" stroke="#63b8ff" d="M1223,-198.47C1223,-188.02 1223,-177.19 1223,-167.58"/>
<polygon fill="#63b8ff" stroke="#63b8ff" points="1219.5,-198.74 1223,-208.74 1226.5,-198.74 1219.5,-198.74"/>
</a>
</g>
</g>
<!-- Node6 -->
<g id="Node000006" class="node">
<title>Node6</title>
<g id="a_Node000006"><a xlink:href="maneuver__controller__node_8cpp.html" target="_top" xlink:title=" ">
<polygon fill="white" stroke="#666666" points="838,-63 668,-63 668,0 838,0 838,-63"/>
<text text-anchor="start" x="676" y="-51" font-family="Helvetica,sans-Serif" font-size="10.00">/home/ffn/Workspace</text>
<text text-anchor="start" x="676" y="-40" font-family="Helvetica,sans-Serif" font-size="10.00">/ros2_humble_ws/src</text>
<text text-anchor="start" x="676" y="-29" font-family="Helvetica,sans-Serif" font-size="10.00">/III&#45;Drone&#45;Core/src/control</text>
<text text-anchor="start" x="676" y="-18" font-family="Helvetica,sans-Serif" font-size="10.00">/maneuver_controller_node</text>
<text text-anchor="middle" x="753" y="-7" font-family="Helvetica,sans-Serif" font-size="10.00">/maneuver_controller_node.cpp</text>
</a>
</g>
</g>
<!-- Node5&#45;&gt;Node6 -->
<g id="edge6_Node000005_Node000006" class="edge">
<title>Node5&#45;&gt;Node6</title>
<g id="a_edge6_Node000005_Node000006"><a xlink:title=" ">
<path fill="none" stroke="#63b8ff" d="M753,-88.83C753,-80.15 753,-71.28 753,-63.22"/>
<polygon fill="#63b8ff" stroke="#63b8ff" points="749.5,-88.86 753,-98.86 756.5,-88.86 749.5,-88.86"/>
</a>
</g>
</g>
<!-- Node8&#45;&gt;Node5 -->
<g id="edge9_Node000008_Node000005" class="edge">
<title>Node8&#45;&gt;Node5</title>
<g id="a_edge9_Node000008_Node000005"><a xlink:title=" ">
<path fill="none" stroke="#63b8ff" d="M273.42,-208.91C440.61,-166.8 493.34,-211.14 658,-173 661.09,-172.28 664.22,-171.49 667.36,-170.63"/>
<polygon fill="#63b8ff" stroke="#63b8ff" points="272.35,-205.57 263.55,-211.46 274.11,-212.35 272.35,-205.57"/>
</a>
</g>
</g>
<!-- Node9 -->
<g id="Node000009" class="node">
<title>Node9</title>
<g id="a_Node000009"><a xlink:href="fly__to__position__maneuver__server_8cpp.html" target="_top" xlink:title=" ">
<polygon fill="white" stroke="#666666" points="307.5,-167.5 164.5,-167.5 164.5,-104.5 307.5,-104.5 307.5,-167.5"/>
<text text-anchor="start" x="172.5" y="-155.5" font-family="Helvetica,sans-Serif" font-size="10.00">/home/ffn/Workspace</text>
<text text-anchor="start" x="172.5" y="-144.5" font-family="Helvetica,sans-Serif" font-size="10.00">/ros2_humble_ws/src</text>
<text text-anchor="start" x="172.5" y="-133.5" font-family="Helvetica,sans-Serif" font-size="10.00">/III&#45;Drone&#45;Core/src/control</text>
<text text-anchor="start" x="172.5" y="-122.5" font-family="Helvetica,sans-Serif" font-size="10.00">/maneuver/fly_to_position</text>
<text text-anchor="middle" x="236" y="-111.5" font-family="Helvetica,sans-Serif" font-size="10.00">_maneuver_server.cpp</text>
</a>
</g>
</g>
<!-- Node8&#45;&gt;Node9 -->
<g id="edge10_Node000008_Node000009" class="edge">
<title>Node8&#45;&gt;Node9</title>
<g id="a_edge10_Node000008_Node000009"><a xlink:title=" ">
<path fill="none" stroke="#63b8ff" d="M210.56,-199.45C214.94,-188.7 219.5,-177.49 223.54,-167.58"/>
<polygon fill="#63b8ff" stroke="#63b8ff" points="207.31,-198.16 206.77,-208.74 213.79,-200.8 207.31,-198.16"/>
</a>
</g>
</g>
<!-- Node10&#45;&gt;Node4 -->
<g id="edge12_Node000010_Node000004" class="edge">
<title>Node10&#45;&gt;Node4</title>
<g id="a_edge12_Node000010_Node000004"><a xlink:title=" ">
<path fill="none" stroke="#63b8ff" d="M1098.13,-314.1C1117.11,-303.89 1137.34,-293.03 1155.85,-283.08"/>
<polygon fill="#63b8ff" stroke="#63b8ff" points="1096.36,-311.07 1089.21,-318.89 1099.68,-317.24 1096.36,-311.07"/>
</a>
</g>
</g>
<!-- Node10&#45;&gt;Node5 -->
<g id="edge17_Node000010_Node000005" class="edge">
<title>Node10&#45;&gt;Node5</title>
<g id="a_edge17_Node000010_Node000005"><a xlink:title=" ">
<path fill="none" stroke="#63b8ff" d="M1088.03,-311.8C1096.51,-303.3 1103.98,-293.67 1109,-283 1123,-253.24 1129.82,-234.46 1109,-209 1075.51,-168.06 933.05,-149.86 838.81,-142.17"/>
<polygon fill="#63b8ff" stroke="#63b8ff" points="1085.61,-309.27 1080.7,-318.66 1090.39,-314.38 1085.61,-309.27"/>
</a>
</g>
</g>
<!-- Node10&#45;&gt;Node11 -->
<g id="edge13_Node000010_Node000011" class="edge">
<title>Node10&#45;&gt;Node11</title>
<g id="a_edge13_Node000010_Node000011"><a xlink:title=" ">
<path fill="none" stroke="#63b8ff" d="M936.3,-319.09C936.2,-319.06 936.1,-319.03 936,-319 912.38,-311.67 781.24,-285.01 687.4,-266.28"/>
<polygon fill="#63b8ff" stroke="#63b8ff" points="935.26,-322.43 945.85,-322.23 937.44,-315.78 935.26,-322.43"/>
</a>
</g>
</g>
<!-- Node13 -->
<g id="Node000013" class="node">
<title>Node13</title>
<g id="a_Node000013"><a xlink:href="hover__by__object__maneuver__server_8cpp.html" target="_top" xlink:title=" ">
<polygon fill="white" stroke="#666666" points="1100,-277.5 948,-277.5 948,-214.5 1100,-214.5 1100,-277.5"/>
<text text-anchor="start" x="956" y="-265.5" font-family="Helvetica,sans-Serif" font-size="10.00">/home/ffn/Workspace</text>
<text text-anchor="start" x="956" y="-254.5" font-family="Helvetica,sans-Serif" font-size="10.00">/ros2_humble_ws/src</text>
<text text-anchor="start" x="956" y="-243.5" font-family="Helvetica,sans-Serif" font-size="10.00">/III&#45;Drone&#45;Core/src/control</text>
<text text-anchor="start" x="956" y="-232.5" font-family="Helvetica,sans-Serif" font-size="10.00">/maneuver/hover_by_object</text>
<text text-anchor="middle" x="1024" y="-221.5" font-family="Helvetica,sans-Serif" font-size="10.00">_maneuver_server.cpp</text>
</a>
</g>
</g>
<!-- Node10&#45;&gt;Node13 -->
<g id="edge18_Node000010_Node000013" class="edge">
<title>Node10&#45;&gt;Node13</title>
<g id="a_edge18_Node000010_Node000013"><a xlink:title=" ">
<path fill="none" stroke="#63b8ff" d="M1022.86,-308.47C1023.06,-298.02 1023.26,-287.19 1023.43,-277.58"/>
<polygon fill="#63b8ff" stroke="#63b8ff" points="1019.36,-308.67 1022.67,-318.74 1026.36,-308.8 1019.36,-308.67"/>
</a>
</g>
</g>
<!-- Node11&#45;&gt;Node2 -->
<g id="edge14_Node000011_Node000002" class="edge">
<title>Node11&#45;&gt;Node2</title>
<g id="a_edge14_Node000011_Node000002"><a xlink:title=" ">
<path fill="none" stroke="#63b8ff" d="M483.11,-216.93C470.31,-214.02 457.4,-211.3 445,-209 317.3,-185.31 280.22,-207.47 155,-173 152.15,-172.22 149.27,-171.35 146.39,-170.42"/>
<polygon fill="#63b8ff" stroke="#63b8ff" points="482.32,-220.34 492.85,-219.18 483.9,-213.52 482.32,-220.34"/>
</a>
</g>
</g>
<!-- Node11&#45;&gt;Node5 -->
<g id="edge15_Node000011_Node000005" class="edge">
<title>Node11&#45;&gt;Node5</title>
<g id="a_edge15_Node000011_Node000005"><a xlink:title=" ">
<path fill="none" stroke="#63b8ff" d="M644.63,-208.8C661.99,-197.3 681.18,-184.58 698.53,-173.09"/>
<polygon fill="#63b8ff" stroke="#63b8ff" points="642.68,-205.9 636.27,-214.34 646.54,-211.73 642.68,-205.9"/>
</a>
</g>
</g>
<!-- Node12 -->
<g id="Node000012" class="node">
<title>Node12</title>
<g id="a_Node000012"><a xlink:href="maneuver__scheduler_8cpp.html" target="_top" xlink:title=" ">
<polygon fill="white" stroke="#666666" points="649,-162 455,-162 455,-110 649,-110 649,-162"/>
<text text-anchor="start" x="463" y="-150" font-family="Helvetica,sans-Serif" font-size="10.00">/home/ffn/Workspace</text>
<text text-anchor="start" x="463" y="-139" font-family="Helvetica,sans-Serif" font-size="10.00">/ros2_humble_ws/src</text>
<text text-anchor="start" x="463" y="-128" font-family="Helvetica,sans-Serif" font-size="10.00">/III&#45;Drone&#45;Core/src/control</text>
<text text-anchor="middle" x="552" y="-117" font-family="Helvetica,sans-Serif" font-size="10.00">/maneuver/maneuver_scheduler.cpp</text>
</a>
</g>
</g>
<!-- Node11&#45;&gt;Node12 -->
<g id="edge16_Node000011_Node000012" class="edge">
<title>Node11&#45;&gt;Node12</title>
<g id="a_edge16_Node000011_Node000012"><a xlink:title=" ">
<path fill="none" stroke="#63b8ff" d="M575.84,-204.75C570.83,-190.52 565.34,-174.91 560.89,-162.27"/>
<polygon fill="#63b8ff" stroke="#63b8ff" points="572.59,-206.07 579.21,-214.34 579.19,-203.75 572.59,-206.07"/>
</a>
</g>
</g>
<!-- Node14&#45;&gt;Node5 -->
<g id="edge22_Node000014_Node000005" class="edge">
<title>Node14&#45;&gt;Node5</title>
<g id="a_edge22_Node000014_Node000005"><a xlink:title=" ">
<path fill="none" stroke="#63b8ff" d="M410.37,-313.24C422.83,-304.26 434.95,-294.1 445,-283 469.96,-255.45 454.29,-231.35 484,-209 547.11,-161.53 582.17,-195.06 658,-173 661.05,-172.11 664.14,-171.17 667.25,-170.19"/>
<polygon fill="#63b8ff" stroke="#63b8ff" points="408.37,-310.37 402.16,-318.96 412.37,-316.11 408.37,-310.37"/>
</a>
</g>
</g>
<!-- Node14&#45;&gt;Node8 -->
<g id="edge20_Node000014_Node000008" class="edge">
<title>Node14&#45;&gt;Node8</title>
<g id="a_edge20_Node000014_Node000008"><a xlink:title=" ">
<path fill="none" stroke="#63b8ff" d="M279.32,-312.49C266.47,-302.85 252.94,-292.71 240.47,-283.35"/>
<polygon fill="#63b8ff" stroke="#63b8ff" points="277.55,-315.54 287.65,-318.74 281.75,-309.94 277.55,-315.54"/>
</a>
</g>
</g>
<!-- Node14&#45;&gt;Node11 -->
<g id="edge21_Node000014_Node000011" class="edge">
<title>Node14&#45;&gt;Node11</title>
<g id="a_edge21_Node000014_Node000011"><a xlink:title=" ">
<path fill="none" stroke="#63b8ff" d="M423.08,-317.98C454.04,-304.81 488.53,-290.14 518.08,-277.58"/>
<polygon fill="#63b8ff" stroke="#63b8ff" points="421.42,-314.88 413.59,-322.01 424.16,-321.32 421.42,-314.88"/>
</a>
</g>
</g>
<!-- Node15 -->
<g id="Node000015" class="node">
<title>Node15</title>
<g id="a_Node000015"><a xlink:href="hover__maneuver__server_8cpp.html" target="_top" xlink:title=" ">
<polygon fill="white" stroke="#666666" points="436.5,-277.5 281.5,-277.5 281.5,-214.5 436.5,-214.5 436.5,-277.5"/>
<text text-anchor="start" x="289.5" y="-265.5" font-family="Helvetica,sans-Serif" font-size="10.00">/home/ffn/Workspace</text>
<text text-anchor="start" x="289.5" y="-254.5" font-family="Helvetica,sans-Serif" font-size="10.00">/ros2_humble_ws/src</text>
<text text-anchor="start" x="289.5" y="-243.5" font-family="Helvetica,sans-Serif" font-size="10.00">/III&#45;Drone&#45;Core/src/control</text>
<text text-anchor="start" x="289.5" y="-232.5" font-family="Helvetica,sans-Serif" font-size="10.00">/maneuver/hover_maneuver</text>
<text text-anchor="middle" x="359" y="-221.5" font-family="Helvetica,sans-Serif" font-size="10.00">_server.cpp</text>
</a>
</g>
</g>
<!-- Node14&#45;&gt;Node15 -->
<g id="edge23_Node000014_Node000015" class="edge">
<title>Node14&#45;&gt;Node15</title>
<g id="a_edge23_Node000014_Node000015"><a xlink:title=" ">
<path fill="none" stroke="#63b8ff" d="M345.84,-308.8C348.09,-298.25 350.42,-287.29 352.49,-277.58"/>
<polygon fill="#63b8ff" stroke="#63b8ff" points="342.38,-308.23 343.72,-318.74 349.23,-309.69 342.38,-308.23"/>
</a>
</g>
</g>
<!-- Node16&#45;&gt;Node5 -->
<g id="edge26_Node000016_Node000005" class="edge">
<title>Node16&#45;&gt;Node5</title>
<g id="a_edge26_Node000016_Node000005"><a xlink:title=" ">
<path fill="none" stroke="#63b8ff" d="M793.6,-311.82C785.17,-303.16 777.5,-293.47 772,-283 754.05,-248.83 750.67,-204.17 750.91,-173.29"/>
<polygon fill="#63b8ff" stroke="#63b8ff" points="791.22,-314.39 800.83,-318.85 796.1,-309.37 791.22,-314.39"/>
</a>
</g>
</g>
<!-- Node16&#45;&gt;Node11 -->
<g id="edge25_Node000016_Node000011" class="edge">
<title>Node16&#45;&gt;Node11</title>
<g id="a_edge25_Node000016_Node000011"><a xlink:title=" ">
<path fill="none" stroke="#63b8ff" d="M768.01,-320.38C734.68,-306.64 696.68,-290.98 664.37,-277.66"/>
<polygon fill="#63b8ff" stroke="#63b8ff" points="766.69,-323.62 777.27,-324.2 769.36,-317.15 766.69,-323.62"/>
</a>
</g>
</g>
<!-- Node17 -->
<g id="Node000017" class="node">
<title>Node17</title>
<g id="a_Node000017"><a xlink:href="hover__on__cable__maneuver__server_8cpp.html" target="_top" xlink:title=" ">
<polygon fill="white" stroke="#666666" points="929.5,-277.5 780.5,-277.5 780.5,-214.5 929.5,-214.5 929.5,-277.5"/>
<text text-anchor="start" x="788.5" y="-265.5" font-family="Helvetica,sans-Serif" font-size="10.00">/home/ffn/Workspace</text>
<text text-anchor="start" x="788.5" y="-254.5" font-family="Helvetica,sans-Serif" font-size="10.00">/ros2_humble_ws/src</text>
<text text-anchor="start" x="788.5" y="-243.5" font-family="Helvetica,sans-Serif" font-size="10.00">/III&#45;Drone&#45;Core/src/control</text>
<text text-anchor="start" x="788.5" y="-232.5" font-family="Helvetica,sans-Serif" font-size="10.00">/maneuver/hover_on_cable</text>
<text text-anchor="middle" x="855" y="-221.5" font-family="Helvetica,sans-Serif" font-size="10.00">_maneuver_server.cpp</text>
</a>
</g>
</g>
<!-- Node16&#45;&gt;Node17 -->
<g id="edge27_Node000016_Node000017" class="edge">
<title>Node16&#45;&gt;Node17</title>
<g id="a_edge27_Node000016_Node000017"><a xlink:title=" ">
<path fill="none" stroke="#63b8ff" d="M853.29,-308.47C853.58,-298.02 853.88,-287.19 854.15,-277.58"/>
<polygon fill="#63b8ff" stroke="#63b8ff" points="849.79,-308.64 853.01,-318.74 856.78,-308.84 849.79,-308.64"/>
</a>
</g>
</g>
<!-- Node18&#45;&gt;Node4 -->
<g id="edge30_Node000018_Node000004" class="edge">
<title>Node18&#45;&gt;Node4</title>
<g id="a_edge30_Node000018_Node000004"><a xlink:title=" ">
<path fill="none" stroke="#63b8ff" d="M684.03,-431.7C687.72,-430.72 691.38,-429.81 695,-429 784.7,-408.98 1026.05,-436.52 1107,-393 1152.48,-368.55 1186.32,-317.89 1205.37,-283.17"/>
<polygon fill="#63b8ff" stroke="#63b8ff" points="682.92,-428.38 674.27,-434.49 684.85,-435.11 682.92,-428.38"/>
</a>
</g>
</g>
<!-- Node18&#45;&gt;Node5 -->
<g id="edge36_Node000018_Node000005" class="edge">
<title>Node18&#45;&gt;Node5</title>
<g id="a_edge36_Node000018_Node000005"><a xlink:title=" ">
<path fill="none" stroke="#63b8ff" d="M693.77,-429.12C708.72,-419.55 722.37,-407.66 732,-393 734.98,-388.46 745.58,-242.67 750.48,-173.17"/>
<polygon fill="#63b8ff" stroke="#63b8ff" points="691.61,-426.34 684.84,-434.49 695.21,-432.33 691.61,-426.34"/>
</a>
</g>
</g>
<!-- Node18&#45;&gt;Node8 -->
<g id="edge31_Node000018_Node000008" class="edge">
<title>Node18&#45;&gt;Node8</title>
<g id="a_edge31_Node000018_Node000008"><a xlink:title=" ">
<path fill="none" stroke="#63b8ff" d="M497.64,-455.03C408.43,-444.24 285.99,-424.24 249,-393 231.75,-378.43 212.9,-321.37 201.78,-283.04"/>
<polygon fill="#63b8ff" stroke="#63b8ff" points="497.45,-458.54 507.8,-456.24 498.28,-451.59 497.45,-458.54"/>
</a>
</g>
</g>
<!-- Node18&#45;&gt;Node10 -->
<g id="edge32_Node000018_Node000010" class="edge">
<title>Node18&#45;&gt;Node10</title>
<g id="a_edge32_Node000018_Node000010"><a xlink:title=" ">
<path fill="none" stroke="#63b8ff" d="M685.85,-431.48C688.92,-430.6 691.98,-429.77 695,-429 799.93,-402.19 831.69,-422.13 936,-393 939.27,-392.09 942.59,-391.08 945.92,-390"/>
<polygon fill="#63b8ff" stroke="#63b8ff" points="684.57,-428.21 675.99,-434.43 686.58,-434.92 684.57,-428.21"/>
</a>
</g>
</g>
<!-- Node18&#45;&gt;Node11 -->
<g id="edge35_Node000018_Node000011" class="edge">
<title>Node18&#45;&gt;Node11</title>
<g id="a_edge35_Node000018_Node000011"><a xlink:title=" ">
<path fill="none" stroke="#63b8ff" d="M556.86,-426.64C548.75,-416.54 541.37,-405.07 537,-393 525.8,-362.08 526.74,-350.25 537,-319 541.89,-304.11 551.17,-289.76 560.62,-277.84"/>
<polygon fill="#63b8ff" stroke="#63b8ff" points="554.34,-429.07 563.48,-434.42 559.67,-424.54 554.34,-429.07"/>
</a>
</g>
</g>
<!-- Node18&#45;&gt;Node14 -->
<g id="edge33_Node000018_Node000014" class="edge">
<title>Node18&#45;&gt;Node14</title>
<g id="a_edge33_Node000018_Node000014"><a xlink:title=" ">
<path fill="none" stroke="#63b8ff" d="M513.88,-430.61C481.77,-417.32 445.23,-402.2 413.66,-389.14"/>
<polygon fill="#63b8ff" stroke="#63b8ff" points="512.68,-433.9 523.25,-434.48 515.35,-427.43 512.68,-433.9"/>
</a>
</g>
</g>
<!-- Node18&#45;&gt;Node16 -->
<g id="edge34_Node000018_Node000016" class="edge">
<title>Node18&#45;&gt;Node16</title>
<g id="a_edge34_Node000018_Node000016"><a xlink:title=" ">
<path fill="none" stroke="#63b8ff" d="M678.33,-430.56C710.13,-417.09 746.35,-401.74 777.47,-388.57"/>
<polygon fill="#63b8ff" stroke="#63b8ff" points="676.89,-427.36 669.05,-434.48 679.62,-433.81 676.89,-427.36"/>
</a>
</g>
</g>
<!-- Node19 -->
<g id="Node000019" class="node">
<title>Node19</title>
<g id="a_Node000019"><a xlink:href="maneuver__server_8cpp.html" target="_top" xlink:title=" ">
<polygon fill="white" stroke="#666666" points="722.5,-382 545.5,-382 545.5,-330 722.5,-330 722.5,-382"/>
<text text-anchor="start" x="553.5" y="-370" font-family="Helvetica,sans-Serif" font-size="10.00">/home/ffn/Workspace</text>
<text text-anchor="start" x="553.5" y="-359" font-family="Helvetica,sans-Serif" font-size="10.00">/ros2_humble_ws/src</text>
<text text-anchor="start" x="553.5" y="-348" font-family="Helvetica,sans-Serif" font-size="10.00">/III&#45;Drone&#45;Core/src/control</text>
<text text-anchor="middle" x="634" y="-337" font-family="Helvetica,sans-Serif" font-size="10.00">/maneuver/maneuver_server.cpp</text>
</a>
</g>
</g>
<!-- Node18&#45;&gt;Node19 -->
<g id="edge37_Node000018_Node000019" class="edge">
<title>Node18&#45;&gt;Node19</title>
<g id="a_edge37_Node000018_Node000019"><a xlink:title=" ">
<path fill="none" stroke="#63b8ff" d="M610.79,-424.75C615.67,-410.52 621.01,-394.91 625.34,-382.27"/>
<polygon fill="#63b8ff" stroke="#63b8ff" points="607.43,-423.75 607.5,-434.34 614.06,-426.01 607.43,-423.75"/>
</a>
</g>
</g>
<!-- Node22 -->
<g id="Node000022" class="node">
<title>Node22</title>
<g id="a_Node000022"><a xlink:href="drone__frame__broadcaster__node_8cpp.html" target="_top" xlink:title=" ">
<polygon fill="white" stroke="#666666" points="1520,-503 1346,-503 1346,-429 1520,-429 1520,-503"/>
<text text-anchor="start" x="1354" y="-491" font-family="Helvetica,sans-Serif" font-size="10.00">/home/ffn/Workspace</text>
<text text-anchor="start" x="1354" y="-480" font-family="Helvetica,sans-Serif" font-size="10.00">/ros2_humble_ws/src</text>
<text text-anchor="start" x="1354" y="-469" font-family="Helvetica,sans-Serif" font-size="10.00">/III&#45;Drone&#45;Core/src/utils</text>
<text text-anchor="start" x="1354" y="-458" font-family="Helvetica,sans-Serif" font-size="10.00">/drone_frame_broadcaster</text>
<text text-anchor="start" x="1354" y="-447" font-family="Helvetica,sans-Serif" font-size="10.00">_node/drone_frame_broadcaster</text>
<text text-anchor="middle" x="1433" y="-436" font-family="Helvetica,sans-Serif" font-size="10.00">_node.cpp</text>
</a>
</g>
</g>
<!-- Node21&#45;&gt;Node22 -->
<g id="edge42_Node000021_Node000022" class="edge">
<title>Node21&#45;&gt;Node22</title>
<g id="a_edge42_Node000021_Node000022"><a xlink:title=" ">
<path fill="none" stroke="#63b8ff" d="M877.7,-539.07C877.8,-539.04 877.9,-539.02 878,-539 1075.65,-495.37 1134.07,-545.35 1332,-503 1336.55,-502.03 1341.18,-500.9 1345.82,-499.66"/>
<polygon fill="#63b8ff" stroke="#63b8ff" points="877.06,-535.62 868.17,-541.39 878.72,-542.42 877.06,-535.62"/>
</a>
</g>
</g>
</g>
</svg>
