<?xml version="1.0" encoding="UTF-8" standalone="no"?>
<!DOCTYPE svg PUBLIC "-//W3C//DTD SVG 1.1//EN"
 "http://www.w3.org/Graphics/SVG/1.1/DTD/svg11.dtd">
<!-- Generated by graphviz version 2.43.0 (0)
 -->
<!-- Title: /home/ffn/Workspace/ros2_humble_ws/src/III&#45;Drone&#45;Core/include/iii_drone_core/adapters/px4/vehicle_odometry_adapter.hpp Pages: 1 -->
<svg width="1154pt" height="324pt"
 viewBox="0.00 0.00 1154.00 324.00" xmlns="http://www.w3.org/2000/svg" xmlns:xlink="http://www.w3.org/1999/xlink">
<g id="graph0" class="graph" transform="scale(1 1) rotate(0) translate(4 320)">
<title>/home/ffn/Workspace/ros2_humble_ws/src/III&#45;Drone&#45;Core/include/iii_drone_core/adapters/px4/vehicle_odometry_adapter.hpp</title>
<!-- Node1 -->
<g id="Node000001" class="node">
<title>Node1</title>
<g id="a_Node000001"><a xlink:title=" ">
<polygon fill="#999999" stroke="#666666" points="808.5,-316 617.5,-316 617.5,-253 808.5,-253 808.5,-316"/>
<text text-anchor="start" x="625.5" y="-304" font-family="Helvetica,sans-Serif" font-size="10.00">/home/ffn/Workspace</text>
<text text-anchor="start" x="625.5" y="-293" font-family="Helvetica,sans-Serif" font-size="10.00">/ros2_humble_ws/src</text>
<text text-anchor="start" x="625.5" y="-282" font-family="Helvetica,sans-Serif" font-size="10.00">/III&#45;Drone&#45;Core/include</text>
<text text-anchor="start" x="625.5" y="-271" font-family="Helvetica,sans-Serif" font-size="10.00">/iii_drone_core/adapters</text>
<text text-anchor="middle" x="713" y="-260" font-family="Helvetica,sans-Serif" font-size="10.00">/px4/vehicle_odometry_adapter.hpp</text>
</a>
</g>
</g>
<!-- Node2 -->
<g id="Node000002" class="node">
<title>Node2</title>
<g id="a_Node000002"><a xlink:title=" ">
<polygon fill="#e0e0e0" stroke="#999999" points="534.5,-211.5 457.5,-211.5 457.5,-192.5 534.5,-192.5 534.5,-211.5"/>
<text text-anchor="middle" x="496" y="-199.5" font-family="Helvetica,sans-Serif" font-size="10.00">Eigen/Dense</text>
</a>
</g>
</g>
<!-- Node1&#45;&gt;Node2 -->
<g id="edge1_Node000001_Node000002" class="edge">
<title>Node1&#45;&gt;Node2</title>
<g id="a_edge1_Node000001_Node000002"><a xlink:title=" ">
<path fill="none" stroke="#63b8ff" d="M630.65,-252.95C595.14,-239.78 555.66,-225.13 528.68,-215.12"/>
<polygon fill="#63b8ff" stroke="#63b8ff" points="529.58,-211.72 518.99,-211.53 527.15,-218.29 529.58,-211.72"/>
</a>
</g>
</g>
<!-- Node3 -->
<g id="Node000003" class="node">
<title>Node3</title>
<g id="a_Node000003"><a xlink:title=" ">
<polygon fill="#e0e0e0" stroke="#999999" points="690.5,-145.5 591.5,-145.5 591.5,-126.5 690.5,-126.5 690.5,-145.5"/>
<text text-anchor="middle" x="641" y="-133.5" font-family="Helvetica,sans-Serif" font-size="10.00">rclcpp/rclcpp.hpp</text>
</a>
</g>
</g>
<!-- Node1&#45;&gt;Node3 -->
<g id="edge2_Node000001_Node000003" class="edge">
<title>Node1&#45;&gt;Node3</title>
<g id="a_edge2_Node000001_Node000003"><a xlink:title=" ">
<path fill="none" stroke="#63b8ff" d="M670.23,-252.93C659.36,-242.83 649.06,-230.63 643,-217 634.39,-197.61 635.34,-172.87 637.51,-156.08"/>
<polygon fill="#63b8ff" stroke="#63b8ff" points="641.02,-156.3 639.1,-145.88 634.1,-155.22 641.02,-156.3"/>
</a>
</g>
</g>
<!-- Node4 -->
<g id="Node000004" class="node">
<title>Node4</title>
<g id="a_Node000004"><a xlink:title=" ">
<polygon fill="#e0e0e0" stroke="#999999" points="1000,-217 830,-217 830,-187 1000,-187 1000,-217"/>
<text text-anchor="start" x="838" y="-205" font-family="Helvetica,sans-Serif" font-size="10.00">geometry_msgs/msg/transform</text>
<text text-anchor="middle" x="915" y="-194" font-family="Helvetica,sans-Serif" font-size="10.00">_stamped.hpp</text>
</a>
</g>
</g>
<!-- Node1&#45;&gt;Node4 -->
<g id="edge3_Node000001_Node000004" class="edge">
<title>Node1&#45;&gt;Node4</title>
<g id="a_edge3_Node000001_Node000004"><a xlink:title=" ">
<path fill="none" stroke="#63b8ff" d="M789.66,-252.95C816.93,-242.08 846.71,-230.21 870.41,-220.77"/>
<polygon fill="#63b8ff" stroke="#63b8ff" points="871.84,-223.97 879.83,-217.02 869.24,-217.47 871.84,-223.97"/>
</a>
</g>
</g>
<!-- Node5 -->
<g id="Node000005" class="node">
<title>Node5</title>
<g id="a_Node000005"><a xlink:title=" ">
<polygon fill="#e0e0e0" stroke="#999999" points="1146,-217 1018,-217 1018,-187 1146,-187 1146,-217"/>
<text text-anchor="start" x="1026" y="-205" font-family="Helvetica,sans-Serif" font-size="10.00">px4_msgs/msg/vehicle</text>
<text text-anchor="middle" x="1082" y="-194" font-family="Helvetica,sans-Serif" font-size="10.00">_odometry.hpp</text>
</a>
</g>
</g>
<!-- Node1&#45;&gt;Node5 -->
<g id="edge4_Node000001_Node000005" class="edge">
<title>Node1&#45;&gt;Node5</title>
<g id="a_edge4_Node000001_Node000005"><a xlink:title=" ">
<path fill="none" stroke="#63b8ff" d="M808.51,-262.66C870.65,-249.11 950.51,-231.68 1007.87,-219.17"/>
<polygon fill="#63b8ff" stroke="#63b8ff" points="1008.93,-222.52 1017.95,-216.97 1007.43,-215.68 1008.93,-222.52"/>
</a>
</g>
</g>
<!-- Node6 -->
<g id="Node000006" class="node">
<title>Node6</title>
<g id="a_Node000006"><a xlink:href="state_8hpp.html" target="_top" xlink:title=" ">
<polygon fill="white" stroke="#666666" points="774,-217 652,-217 652,-187 774,-187 774,-217"/>
<text text-anchor="start" x="660" y="-205" font-family="Helvetica,sans-Serif" font-size="10.00">iii_drone_core/control</text>
<text text-anchor="middle" x="713" y="-194" font-family="Helvetica,sans-Serif" font-size="10.00">/state.hpp</text>
</a>
</g>
</g>
<!-- Node1&#45;&gt;Node6 -->
<g id="edge5_Node000001_Node000006" class="edge">
<title>Node1&#45;&gt;Node6</title>
<g id="a_edge5_Node000001_Node000006"><a xlink:title=" ">
<path fill="none" stroke="#63b8ff" d="M713,-252.61C713,-244.19 713,-235.2 713,-227.22"/>
<polygon fill="#63b8ff" stroke="#63b8ff" points="716.5,-227.1 713,-217.1 709.5,-227.1 716.5,-227.1"/>
</a>
</g>
</g>
<!-- Node7 -->
<g id="Node000007" class="node">
<title>Node7</title>
<g id="a_Node000007"><a xlink:href="types_8hpp.html" target="_top" xlink:title=" ">
<polygon fill="white" stroke="#666666" points="734.5,-85 625.5,-85 625.5,-55 734.5,-55 734.5,-85"/>
<text text-anchor="start" x="633.5" y="-73" font-family="Helvetica,sans-Serif" font-size="10.00">iii_drone_core/utils</text>
<text text-anchor="middle" x="680" y="-62" font-family="Helvetica,sans-Serif" font-size="10.00">/types.hpp</text>
</a>
</g>
</g>
<!-- Node1&#45;&gt;Node7 -->
<g id="edge17_Node000001_Node000007" class="edge">
<title>Node1&#45;&gt;Node7</title>
<g id="a_edge17_Node000001_Node000007"><a xlink:title=" ">
<path fill="none" stroke="#63b8ff" d="M665.7,-252.94C634.44,-229.47 596.63,-193.86 582,-151 577.69,-138.38 575.04,-132.37 582,-121 590.59,-106.97 604.49,-96.72 619.16,-89.3"/>
<polygon fill="#63b8ff" stroke="#63b8ff" points="620.76,-92.42 628.35,-85.03 617.81,-86.07 620.76,-92.42"/>
</a>
</g>
</g>
<!-- Node14 -->
<g id="Node000014" class="node">
<title>Node14</title>
<g id="a_Node000014"><a xlink:href="math_8hpp.html" target="_top" xlink:title=" ">
<polygon fill="white" stroke="#666666" points="856.5,-151 747.5,-151 747.5,-121 856.5,-121 856.5,-151"/>
<text text-anchor="start" x="755.5" y="-139" font-family="Helvetica,sans-Serif" font-size="10.00">iii_drone_core/utils</text>
<text text-anchor="middle" x="802" y="-128" font-family="Helvetica,sans-Serif" font-size="10.00">/math.hpp</text>
</a>
</g>
</g>
<!-- Node1&#45;&gt;Node14 -->
<g id="edge18_Node000001_Node000014" class="edge">
<title>Node1&#45;&gt;Node14</title>
<g id="a_edge18_Node000001_Node000014"><a xlink:title=" ">
<path fill="none" stroke="#63b8ff" d="M753.27,-252.71C764.35,-242.45 775.39,-230.22 783,-217 792.87,-199.85 797.62,-177.81 799.9,-161.21"/>
<polygon fill="#63b8ff" stroke="#63b8ff" points="803.39,-161.53 801.08,-151.19 796.44,-160.72 803.39,-161.53"/>
</a>
</g>
</g>
<!-- Node6&#45;&gt;Node3 -->
<g id="edge6_Node000006_Node000003" class="edge">
<title>Node6&#45;&gt;Node3</title>
<g id="a_edge6_Node000006_Node000003"><a xlink:title=" ">
<path fill="none" stroke="#63b8ff" d="M697.02,-186.8C685.69,-176.72 670.47,-163.19 658.75,-152.78"/>
<polygon fill="#63b8ff" stroke="#63b8ff" points="660.75,-149.87 650.95,-145.84 656.1,-155.1 660.75,-149.87"/>
</a>
</g>
</g>
<!-- Node6&#45;&gt;Node7 -->
<g id="edge7_Node000006_Node000007" class="edge">
<title>Node6&#45;&gt;Node7</title>
<g id="a_edge7_Node000006_Node000007"><a xlink:title=" ">
<path fill="none" stroke="#63b8ff" d="M711.36,-186.95C709.3,-170.83 705.24,-143.71 699,-121 696.59,-112.22 693.23,-102.82 690.01,-94.57"/>
<polygon fill="#63b8ff" stroke="#63b8ff" points="693.22,-93.16 686.22,-85.2 686.73,-95.78 693.22,-93.16"/>
</a>
</g>
</g>
<!-- Node6&#45;&gt;Node14 -->
<g id="edge14_Node000006_Node000014" class="edge">
<title>Node6&#45;&gt;Node14</title>
<g id="a_edge14_Node000006_Node000014"><a xlink:title=" ">
<path fill="none" stroke="#63b8ff" d="M732.75,-186.8C744.85,-178.1 760.53,-166.82 773.91,-157.2"/>
<polygon fill="#63b8ff" stroke="#63b8ff" points="776.23,-159.84 782.3,-151.16 772.14,-154.16 776.23,-159.84"/>
</a>
</g>
</g>
<!-- Node8 -->
<g id="Node000008" class="node">
<title>Node8</title>
<g id="a_Node000008"><a xlink:title=" ">
<polygon fill="#e0e0e0" stroke="#999999" points="1097.5,-19 992.5,-19 992.5,0 1097.5,0 1097.5,-19"/>
<text text-anchor="middle" x="1045" y="-7" font-family="Helvetica,sans-Serif" font-size="10.00">eigen3/Eigen/Core</text>
</a>
</g>
</g>
<!-- Node7&#45;&gt;Node8 -->
<g id="edge8_Node000007_Node000008" class="edge">
<title>Node7&#45;&gt;Node8</title>
<g id="a_edge8_Node000007_Node000008"><a xlink:title=" ">
<path fill="none" stroke="#63b8ff" d="M734.64,-60.24C800.99,-49.61 912.63,-31.72 982.38,-20.54"/>
<polygon fill="#63b8ff" stroke="#63b8ff" points="983.04,-23.98 992.36,-18.94 981.93,-17.06 983.04,-23.98"/>
</a>
</g>
</g>
<!-- Node9 -->
<g id="Node000009" class="node">
<title>Node9</title>
<g id="a_Node000009"><a xlink:title=" ">
<polygon fill="#e0e0e0" stroke="#999999" points="168,-19 0,-19 0,0 168,0 168,-19"/>
<text text-anchor="middle" x="84" y="-7" font-family="Helvetica,sans-Serif" font-size="10.00">geometry_msgs/msg/point.hpp</text>
</a>
</g>
</g>
<!-- Node7&#45;&gt;Node9 -->
<g id="edge9_Node000007_Node000009" class="edge">
<title>Node7&#45;&gt;Node9</title>
<g id="a_edge9_Node000007_Node000009"><a xlink:title=" ">
<path fill="none" stroke="#63b8ff" d="M625.26,-63.63C523.49,-53.64 304.05,-32.1 178.07,-19.73"/>
<polygon fill="#63b8ff" stroke="#63b8ff" points="178.34,-16.24 168.04,-18.75 177.65,-23.21 178.34,-16.24"/>
</a>
</g>
</g>
<!-- Node10 -->
<g id="Node000010" class="node">
<title>Node10</title>
<g id="a_Node000010"><a xlink:title=" ">
<polygon fill="#e0e0e0" stroke="#999999" points="382,-19 186,-19 186,0 382,0 382,-19"/>
<text text-anchor="middle" x="284" y="-7" font-family="Helvetica,sans-Serif" font-size="10.00">geometry_msgs/msg/quaternion.hpp</text>
</a>
</g>
</g>
<!-- Node7&#45;&gt;Node10 -->
<g id="edge10_Node000007_Node000010" class="edge">
<title>Node7&#45;&gt;Node10</title>
<g id="a_edge10_Node000007_Node000010"><a xlink:title=" ">
<path fill="none" stroke="#63b8ff" d="M625.35,-60.93C553.98,-50.38 429.04,-31.93 351.73,-20.51"/>
<polygon fill="#63b8ff" stroke="#63b8ff" points="352.02,-17.01 341.62,-19.01 351,-23.94 352.02,-17.01"/>
</a>
</g>
</g>
<!-- Node11 -->
<g id="Node000011" class="node">
<title>Node11</title>
<g id="a_Node000011"><a xlink:title=" ">
<polygon fill="#e0e0e0" stroke="#999999" points="566.5,-19 399.5,-19 399.5,0 566.5,0 566.5,-19"/>
<text text-anchor="middle" x="483" y="-7" font-family="Helvetica,sans-Serif" font-size="10.00">geometry_msgs/msg/pose.hpp</text>
</a>
</g>
</g>
<!-- Node7&#45;&gt;Node11 -->
<g id="edge11_Node000007_Node000011" class="edge">
<title>Node7&#45;&gt;Node11</title>
<g id="a_edge11_Node000007_Node000011"><a xlink:title=" ">
<path fill="none" stroke="#63b8ff" d="M632.81,-54.99C598.82,-44.89 553.5,-31.44 521.64,-21.98"/>
<polygon fill="#63b8ff" stroke="#63b8ff" points="522.39,-18.55 511.8,-19.05 520.39,-25.26 522.39,-18.55"/>
</a>
</g>
</g>
<!-- Node12 -->
<g id="Node000012" class="node">
<title>Node12</title>
<g id="a_Node000012"><a xlink:title=" ">
<polygon fill="#e0e0e0" stroke="#999999" points="775.5,-19 584.5,-19 584.5,0 775.5,0 775.5,-19"/>
<text text-anchor="middle" x="680" y="-7" font-family="Helvetica,sans-Serif" font-size="10.00">geometry_msgs/msg/transform.hpp</text>
</a>
</g>
</g>
<!-- Node7&#45;&gt;Node12 -->
<g id="edge12_Node000007_Node000012" class="edge">
<title>Node7&#45;&gt;Node12</title>
<g id="a_edge12_Node000007_Node000012"><a xlink:title=" ">
<path fill="none" stroke="#63b8ff" d="M680,-54.84C680,-47.21 680,-37.7 680,-29.45"/>
<polygon fill="#63b8ff" stroke="#63b8ff" points="683.5,-29.27 680,-19.27 676.5,-29.27 683.5,-29.27"/>
</a>
</g>
</g>
<!-- Node13 -->
<g id="Node000013" class="node">
<title>Node13</title>
<g id="a_Node000013"><a xlink:title=" ">
<polygon fill="#e0e0e0" stroke="#999999" points="974,-19 794,-19 794,0 974,0 974,-19"/>
<text text-anchor="middle" x="884" y="-7" font-family="Helvetica,sans-Serif" font-size="10.00">geometry_msgs/msg/vector3.hpp</text>
</a>
</g>
</g>
<!-- Node7&#45;&gt;Node13 -->
<g id="edge13_Node000007_Node000013" class="edge">
<title>Node7&#45;&gt;Node13</title>
<g id="a_edge13_Node000007_Node000013"><a xlink:title=" ">
<path fill="none" stroke="#63b8ff" d="M728.86,-54.99C764.22,-44.85 811.4,-31.32 844.41,-21.85"/>
<polygon fill="#63b8ff" stroke="#63b8ff" points="845.52,-25.17 854.17,-19.05 843.59,-18.45 845.52,-25.17"/>
</a>
</g>
</g>
<!-- Node14&#45;&gt;Node7 -->
<g id="edge16_Node000014_Node000007" class="edge">
<title>Node14&#45;&gt;Node7</title>
<g id="a_edge16_Node000014_Node000007"><a xlink:title=" ">
<path fill="none" stroke="#63b8ff" d="M775.23,-120.95C757.75,-111.78 734.72,-99.71 715.69,-89.72"/>
<polygon fill="#63b8ff" stroke="#63b8ff" points="717.19,-86.56 706.71,-85.01 713.94,-92.76 717.19,-86.56"/>
</a>
</g>
</g>
<!-- Node14&#45;&gt;Node8 -->
<g id="edge15_Node000014_Node000008" class="edge">
<title>Node14&#45;&gt;Node8</title>
<g id="a_edge15_Node000014_Node000008"><a xlink:title=" ">
<path fill="none" stroke="#63b8ff" d="M829.4,-120.96C876.68,-96.74 972.94,-47.42 1019.13,-23.75"/>
<polygon fill="#63b8ff" stroke="#63b8ff" points="1020.89,-26.78 1028.2,-19.11 1017.7,-20.55 1020.89,-26.78"/>
</a>
</g>
</g>
</g>
</svg>
