<?xml version="1.0" encoding="UTF-8" standalone="no"?>
<!DOCTYPE svg PUBLIC "-//W3C//DTD SVG 1.1//EN"
 "http://www.w3.org/Graphics/SVG/1.1/DTD/svg11.dtd">
<!-- Generated by graphviz version 2.43.0 (0)
 -->
<!-- Title: /home/ffn/Workspace/ros2_humble_ws/src/III&#45;Drone&#45;Core/src/extern/matlab_MPC_5Hz_hp10/xpotrf.cpp Pages: 1 -->
<svg width="389pt" height="291pt"
 viewBox="0.00 0.00 389.00 291.00" xmlns="http://www.w3.org/2000/svg" xmlns:xlink="http://www.w3.org/1999/xlink">

<svg id="main" version="1.1" xmlns="http://www.w3.org/2000/svg" xmlns:xlink="http://www.w3.org/1999/xlink" xml:space="preserve" onload="init(evt)">
<style type="text/css"><![CDATA[
.node, .edge {opacity: 0.7;}
.node.selected, .edge.selected {opacity: 1;}
.edge:hover path { stroke: red; }
.edge:hover polygon { stroke: red; fill: red; }
]]></style>
<script type="application/ecmascript" xlink:href="svg.min.js"/>
<svg id="graph" class="graph">
<g id="graph0" class="graph" transform="scale(1 1) rotate(0) translate(4 287)">
<title>/home/ffn/Workspace/ros2_humble_ws/src/III&#45;Drone&#45;Core/src/extern/matlab_MPC_5Hz_hp10/xpotrf.cpp</title>
<!-- Node1 -->
<g id="Node000001" class="node">
<title>Node1</title>
<g id="a_Node000001"><a xlink:title=" ">
<polygon fill="#999999" stroke="#666666" points="277.5,-283 91.5,-283 91.5,-231 277.5,-231 277.5,-283"/>
<text text-anchor="start" x="99.5" y="-271" font-family="Helvetica,sans-Serif" font-size="10.00">/home/ffn/Workspace</text>
<text text-anchor="start" x="99.5" y="-260" font-family="Helvetica,sans-Serif" font-size="10.00">/ros2_humble_ws/src</text>
<text text-anchor="start" x="99.5" y="-249" font-family="Helvetica,sans-Serif" font-size="10.00">/III&#45;Drone&#45;Core/src/extern</text>
<text text-anchor="middle" x="184.5" y="-238" font-family="Helvetica,sans-Serif" font-size="10.00">/matlab_MPC_5Hz_hp10/xpotrf.cpp</text>
</a>
</g>
</g>
<!-- Node2 -->
<g id="Node000002" class="node">
<title>Node2</title>
<g id="a_Node000002"><a xlink:href="xpotrf_8h.html" target="_top" xlink:title=" ">
<polygon fill="white" stroke="#666666" points="153.5,-189.5 99.5,-189.5 99.5,-170.5 153.5,-170.5 153.5,-189.5"/>
<text text-anchor="middle" x="126.5" y="-177.5" font-family="Helvetica,sans-Serif" font-size="10.00">xpotrf.h</text>
</a>
</g>
</g>
<!-- Node1&#45;&gt;Node2 -->
<g id="edge1_Node000001_Node000002" class="edge">
<title>Node1&#45;&gt;Node2</title>
<g id="a_edge1_Node000001_Node000002"><a xlink:title=" ">
<path fill="none" stroke="#63b8ff" d="M164.86,-230.61C156.51,-219.81 147,-207.5 139.53,-197.85"/>
<polygon fill="#63b8ff" stroke="#63b8ff" points="142.23,-195.62 133.35,-189.85 136.69,-199.9 142.23,-195.62"/>
</a>
</g>
</g>
<!-- Node9 -->
<g id="Node000009" class="node">
<title>Node9</title>
<g id="a_Node000009"><a xlink:href="mpcmoveCodeGeneration__rtwutil_8h.html" target="_top" xlink:title=" ">
<polygon fill="white" stroke="#666666" points="315.5,-195 171.5,-195 171.5,-165 315.5,-165 315.5,-195"/>
<text text-anchor="start" x="179.5" y="-183" font-family="Helvetica,sans-Serif" font-size="10.00">mpcmoveCodeGeneration</text>
<text text-anchor="middle" x="243.5" y="-172" font-family="Helvetica,sans-Serif" font-size="10.00">_rtwutil.h</text>
</a>
</g>
</g>
<!-- Node1&#45;&gt;Node9 -->
<g id="edge8_Node000001_Node000009" class="edge">
<title>Node1&#45;&gt;Node9</title>
<g id="a_edge8_Node000001_Node000009"><a xlink:title=" ">
<path fill="none" stroke="#63b8ff" d="M204.47,-230.61C211.39,-221.81 219.1,-212.02 225.82,-203.47"/>
<polygon fill="#63b8ff" stroke="#63b8ff" points="228.72,-205.45 232.15,-195.43 223.22,-201.12 228.72,-205.45"/>
</a>
</g>
</g>
<!-- Node10 -->
<g id="Node000010" class="node">
<title>Node10</title>
<g id="a_Node000010"><a xlink:href="rt__nonfinite_8h.html" target="_top" xlink:title=" ">
<polygon fill="white" stroke="#666666" points="81,-189.5 0,-189.5 0,-170.5 81,-170.5 81,-189.5"/>
<text text-anchor="middle" x="40.5" y="-177.5" font-family="Helvetica,sans-Serif" font-size="10.00">rt_nonfinite.h</text>
</a>
</g>
</g>
<!-- Node1&#45;&gt;Node10 -->
<g id="edge12_Node000001_Node000010" class="edge">
<title>Node1&#45;&gt;Node10</title>
<g id="a_edge12_Node000001_Node000010"><a xlink:title=" ">
<path fill="none" stroke="#63b8ff" d="M136.15,-230.82C112.66,-218.59 85.4,-204.39 66.01,-194.28"/>
<polygon fill="#63b8ff" stroke="#63b8ff" points="67.39,-191.06 56.9,-189.54 64.16,-197.27 67.39,-191.06"/>
</a>
</g>
</g>
<!-- Node11 -->
<g id="Node000011" class="node">
<title>Node11</title>
<g id="a_Node000011"><a xlink:title=" ">
<polygon fill="#e0e0e0" stroke="#999999" points="381,-189.5 334,-189.5 334,-170.5 381,-170.5 381,-189.5"/>
<text text-anchor="middle" x="357.5" y="-177.5" font-family="Helvetica,sans-Serif" font-size="10.00">cmath</text>
</a>
</g>
</g>
<!-- Node1&#45;&gt;Node11 -->
<g id="edge14_Node000001_Node000011" class="edge">
<title>Node1&#45;&gt;Node11</title>
<g id="a_edge14_Node000001_Node000011"><a xlink:title=" ">
<path fill="none" stroke="#63b8ff" d="M242.59,-230.82C271.45,-218.31 305.05,-203.74 328.44,-193.6"/>
<polygon fill="#63b8ff" stroke="#63b8ff" points="330.01,-196.73 337.79,-189.54 327.22,-190.31 330.01,-196.73"/>
</a>
</g>
</g>
<!-- Node3 -->
<g id="Node000003" class="node">
<title>Node3</title>
<g id="a_Node000003"><a xlink:href="rtwtypes_8h.html" target="_top" xlink:title=" ">
<polygon fill="white" stroke="#666666" points="131.5,-129 63.5,-129 63.5,-110 131.5,-110 131.5,-129"/>
<text text-anchor="middle" x="97.5" y="-117" font-family="Helvetica,sans-Serif" font-size="10.00">rtwtypes.h</text>
</a>
</g>
</g>
<!-- Node2&#45;&gt;Node3 -->
<g id="edge2_Node000002_Node000003" class="edge">
<title>Node2&#45;&gt;Node3</title>
<g id="a_edge2_Node000002_Node000003"><a xlink:title=" ">
<path fill="none" stroke="#63b8ff" d="M122.22,-170.37C118.07,-161.99 111.63,-149.01 106.37,-138.39"/>
<polygon fill="#63b8ff" stroke="#63b8ff" points="109.37,-136.57 101.8,-129.17 103.1,-139.68 109.37,-136.57"/>
</a>
</g>
</g>
<!-- Node7 -->
<g id="Node000007" class="node">
<title>Node7</title>
<g id="a_Node000007"><a xlink:title=" ">
<polygon fill="#e0e0e0" stroke="#999999" points="270,-129 217,-129 217,-110 270,-110 270,-129"/>
<text text-anchor="middle" x="243.5" y="-117" font-family="Helvetica,sans-Serif" font-size="10.00">cstddef</text>
</a>
</g>
</g>
<!-- Node2&#45;&gt;Node7 -->
<g id="edge6_Node000002_Node000007" class="edge">
<title>Node2&#45;&gt;Node7</title>
<g id="a_edge6_Node000002_Node000007"><a xlink:title=" ">
<path fill="none" stroke="#63b8ff" d="M143.51,-170.49C162.92,-160.79 194.89,-144.81 217.44,-133.53"/>
<polygon fill="#63b8ff" stroke="#63b8ff" points="219.09,-136.62 226.47,-129.02 215.96,-130.36 219.09,-136.62"/>
</a>
</g>
</g>
<!-- Node8 -->
<g id="Node000008" class="node">
<title>Node8</title>
<g id="a_Node000008"><a xlink:title=" ">
<polygon fill="#e0e0e0" stroke="#999999" points="199,-129 150,-129 150,-110 199,-110 199,-129"/>
<text text-anchor="middle" x="174.5" y="-117" font-family="Helvetica,sans-Serif" font-size="10.00">cstdlib</text>
</a>
</g>
</g>
<!-- Node2&#45;&gt;Node8 -->
<g id="edge7_Node000002_Node000008" class="edge">
<title>Node2&#45;&gt;Node8</title>
<g id="a_edge7_Node000002_Node000008"><a xlink:title=" ">
<path fill="none" stroke="#63b8ff" d="M133.58,-170.37C140.74,-161.64 151.99,-147.93 160.89,-137.09"/>
<polygon fill="#63b8ff" stroke="#63b8ff" points="163.75,-139.12 167.39,-129.17 158.34,-134.68 163.75,-139.12"/>
</a>
</g>
</g>
<!-- Node4 -->
<g id="Node000004" class="node">
<title>Node4</title>
<g id="a_Node000004"><a xlink:href="tmwtypes_8h.html" target="_top" xlink:title=" ">
<polygon fill="white" stroke="#666666" points="134.5,-74 60.5,-74 60.5,-55 134.5,-55 134.5,-74"/>
<text text-anchor="middle" x="97.5" y="-62" font-family="Helvetica,sans-Serif" font-size="10.00">tmwtypes.h</text>
</a>
</g>
</g>
<!-- Node3&#45;&gt;Node4 -->
<g id="edge3_Node000003_Node000004" class="edge">
<title>Node3&#45;&gt;Node4</title>
<g id="a_edge3_Node000003_Node000004"><a xlink:title=" ">
<path fill="none" stroke="#63b8ff" d="M97.5,-109.75C97.5,-102.8 97.5,-92.85 97.5,-84.13"/>
<polygon fill="#63b8ff" stroke="#63b8ff" points="101,-84.09 97.5,-74.09 94,-84.09 101,-84.09"/>
</a>
</g>
</g>
<!-- Node5 -->
<g id="Node000005" class="node">
<title>Node5</title>
<g id="a_Node000005"><a xlink:title=" ">
<polygon fill="#e0e0e0" stroke="#999999" points="88,-19 35,-19 35,0 88,0 88,-19"/>
<text text-anchor="middle" x="61.5" y="-7" font-family="Helvetica,sans-Serif" font-size="10.00">limits.h</text>
</a>
</g>
</g>
<!-- Node4&#45;&gt;Node5 -->
<g id="edge4_Node000004_Node000005" class="edge">
<title>Node4&#45;&gt;Node5</title>
<g id="a_edge4_Node000004_Node000005"><a xlink:title=" ">
<path fill="none" stroke="#63b8ff" d="M91.56,-54.75C86.52,-47.34 79.16,-36.5 72.99,-27.41"/>
<polygon fill="#63b8ff" stroke="#63b8ff" points="75.85,-25.39 67.33,-19.09 70.06,-29.33 75.85,-25.39"/>
</a>
</g>
</g>
<!-- Node6 -->
<g id="Node000006" class="node">
<title>Node6</title>
<g id="a_Node000006"><a xlink:title=" ">
<polygon fill="#e0e0e0" stroke="#999999" points="162.5,-19 106.5,-19 106.5,0 162.5,0 162.5,-19"/>
<text text-anchor="middle" x="134.5" y="-7" font-family="Helvetica,sans-Serif" font-size="10.00">stddef.h</text>
</a>
</g>
</g>
<!-- Node4&#45;&gt;Node6 -->
<g id="edge5_Node000004_Node000006" class="edge">
<title>Node4&#45;&gt;Node6</title>
<g id="a_edge5_Node000004_Node000006"><a xlink:title=" ">
<path fill="none" stroke="#63b8ff" d="M103.61,-54.75C108.78,-47.34 116.35,-36.5 122.69,-27.41"/>
<polygon fill="#63b8ff" stroke="#63b8ff" points="125.65,-29.29 128.5,-19.09 119.91,-25.29 125.65,-29.29"/>
</a>
</g>
</g>
<!-- Node9&#45;&gt;Node3 -->
<g id="edge9_Node000009_Node000003" class="edge">
<title>Node9&#45;&gt;Node3</title>
<g id="a_edge9_Node000009_Node000003"><a xlink:title=" ">
<path fill="none" stroke="#63b8ff" d="M208.53,-164.99C184.17,-155.23 151.97,-142.33 128.53,-132.93"/>
<polygon fill="#63b8ff" stroke="#63b8ff" points="129.65,-129.61 119.06,-129.14 127.04,-136.11 129.65,-129.61"/>
</a>
</g>
</g>
<!-- Node9&#45;&gt;Node7 -->
<g id="edge10_Node000009_Node000007" class="edge">
<title>Node9&#45;&gt;Node7</title>
<g id="a_edge10_Node000009_Node000007"><a xlink:title=" ">
<path fill="none" stroke="#63b8ff" d="M243.5,-164.84C243.5,-157.21 243.5,-147.7 243.5,-139.45"/>
<polygon fill="#63b8ff" stroke="#63b8ff" points="247,-139.27 243.5,-129.27 240,-139.27 247,-139.27"/>
</a>
</g>
</g>
<!-- Node9&#45;&gt;Node8 -->
<g id="edge11_Node000009_Node000008" class="edge">
<title>Node9&#45;&gt;Node8</title>
<g id="a_edge11_Node000009_Node000008"><a xlink:title=" ">
<path fill="none" stroke="#63b8ff" d="M226.8,-164.84C216.47,-156.09 203.22,-144.85 192.64,-135.88"/>
<polygon fill="#63b8ff" stroke="#63b8ff" points="194.73,-133.06 184.84,-129.27 190.2,-138.4 194.73,-133.06"/>
</a>
</g>
</g>
<!-- Node10&#45;&gt;Node3 -->
<g id="edge13_Node000010_Node000003" class="edge">
<title>Node10&#45;&gt;Node3</title>
<g id="a_edge13_Node000010_Node000003"><a xlink:title=" ">
<path fill="none" stroke="#63b8ff" d="M48.91,-170.37C57.58,-161.47 71.3,-147.39 81.96,-136.45"/>
<polygon fill="#63b8ff" stroke="#63b8ff" points="84.58,-138.77 89.05,-129.17 79.57,-133.89 84.58,-138.77"/>
</a>
</g>
</g>
</g>
</svg>
</svg>

<style type='text/css'>
<![CDATA[
[data-mouse-over-selected='false'] { opacity: 0.7; }
[data-mouse-over-selected='true']  { opacity: 1.0; }
]]>
</style>
<script type="application/ecmascript"><![CDATA[
document.addEventListener('DOMContentLoaded', (event) => {
  highlightEdges();
  highlightAdjacentNodes();
});
]]></script>
</svg>
